<?xml version="1.0" encoding="UTF-8" standalone="no"?>
<svg width="2100px" height="2970px" version="1.1" xmlns="http://www.w3.org/2000/svg" xmlns:xlink="http://www.w3.org/1999/xlink" xmlns:mei="http://www.music-encoding.org/ns/mei" overflow="visible">
   <desc>Engraved by Verovio 3.13.1</desc>
   <defs>
      <symbol id="E044-9ck4w" viewBox="0 0 1000 1000" overflow="inherit">
         <path transform="scale(1,-1)" d="M0 0c0 28 22 50 50 50s50 -22 50 -50s-22 -50 -50 -50s-50 22 -50 50z" />
      </symbol>
      <symbol id="E050-9ck4w" viewBox="0 0 1000 1000" overflow="inherit">
         <path transform="scale(1,-1)" d="M441 -245c-23 -4 -48 -6 -76 -6c-59 0 -102 7 -130 20c-88 42 -150 93 -187 154c-26 44 -43 103 -48 176c0 6 -1 13 -1 19c0 54 15 111 45 170c29 57 65 106 110 148s96 85 153 127c-3 16 -8 46 -13 92c-4 43 -5 73 -5 89c0 117 16 172 69 257c34 54 64 82 89 82 c21 0 43 -30 69 -92s39 -115 41 -159v-15c0 -109 -21 -162 -67 -241c-13 -20 -63 -90 -98 -118c-13 -9 -25 -19 -37 -29l31 -181c8 1 18 2 28 2c58 0 102 -12 133 -35c59 -43 92 -104 98 -184c1 -7 1 -15 1 -22c0 -123 -87 -209 -181 -248c8 -57 17 -110 25 -162 c5 -31 6 -58 6 -80c0 -30 -5 -53 -14 -70c-35 -64 -88 -99 -158 -103c-5 0 -11 -1 -16 -1c-37 0 -72 10 -108 27c-50 24 -77 59 -80 105v11c0 29 7 55 20 76c18 28 45 42 79 44h6c49 0 93 -42 97 -87v-9c0 -51 -34 -86 -105 -106c17 -24 51 -36 102 -36c62 0 116 43 140 85 c9 16 13 41 13 74c0 20 -1 42 -5 67c-8 53 -18 106 -26 159zM461 939c-95 0 -135 -175 -135 -286c0 -24 2 -48 5 -71c50 39 92 82 127 128c40 53 60 100 60 140v8c-4 53 -22 81 -55 81h-2zM406 119l54 -326c73 25 110 78 110 161c0 7 0 15 -1 23c-7 95 -57 142 -151 142h-12 zM382 117c-72 -2 -128 -47 -128 -120v-7c2 -46 43 -99 75 -115c-3 -2 -7 -5 -10 -10c-70 33 -116 88 -123 172v11c0 68 44 126 88 159c23 17 49 29 78 36l-29 170c-21 -13 -52 -37 -92 -73c-50 -44 -86 -84 -109 -119c-45 -69 -67 -130 -67 -182v-13c5 -68 35 -127 93 -176 s125 -73 203 -73c25 0 50 3 75 9c-19 111 -36 221 -54 331z" />
      </symbol>
      <symbol id="E082-9ck4w" viewBox="0 0 1000 1000" overflow="inherit">
         <path transform="scale(1,-1)" d="M124 -185c-18 0 -55 -14 -65 -65h-36l-3 30c0 25 6 45 18 63c11 19 22 30 39 43l121 82l37 29c15 11 27 29 38 54c12 24 18 47 18 70c0 40 -19 88 -94 88c-25 0 -32 0 -50 -8c-14 -5 -23 -12 -26 -22c3 -9 7 -15 10 -18l24 -17c12 -7 17 -11 27 -21c5 -7 7 -16 7 -27 c0 -12 0 -57 -79 -74c-30 0 -76 26 -76 94c0 66 81 135 197 135c72 0 181 -32 181 -150c0 -53 -32 -95 -113 -133l-91 -41c-26 -11 -45 -23 -57 -37l49 7c84 0 115 -41 148 -41c20 0 33 20 39 61h35c0 -152 -68 -168 -114 -168c-17 0 -65 0 -79 7h10l-28 17 c-49 37 -69 40 -87 42z" />
      </symbol>
      <symbol id="E084-9ck4w" viewBox="0 0 1000 1000" overflow="inherit">
         <path transform="scale(1,-1)" d="M20 -78c84 97 114 180 134 329h170c-13 -32 -82 -132 -99 -151l-84 -97c-33 -36 -59 -63 -80 -81h162v102l127 123v-225h57v-39h-57v-34c0 -43 19 -65 57 -65v-34h-244v36c48 0 60 26 60 70v27h-203v39z" />
      </symbol>
      <symbol id="E0A4-9ck4w" viewBox="0 0 1000 1000" overflow="inherit">
         <path transform="scale(1,-1)" d="M0 -39c0 68 73 172 200 172c66 0 114 -37 114 -95c0 -84 -106 -171 -218 -171c-64 0 -96 30 -96 94z" />
      </symbol>
   </defs>
   <style type="text/css">g.page-margin{font-family:Times;} g.ending, g.fing, g.reh, g.tempo{font-weight:bold;} g.dir, g.dynam, g.mNum{font-style:italic;} g.label{font-weight:normal;}</style>
   <svg class="definition-scale" color="black" viewBox="0 0 21000 29700">
      <g class="page-margin" transform="translate(500, 500)">
         <g id="moer1wj" class="mdiv pageMilestone" />
         <g id="s1na4duh" class="score pageMilestone" />
         <g id="s1iuaem0" class="system">
            <g id="lunm4u1" class="label">
               <text x="1105" y="1570" text-anchor="end" font-size="0px">
                  <tspan id="t1tx6x6r" class="text">
                     <tspan font-size="405px" class="text">Piano</tspan>
                  </tspan>
               </text>
            </g>
            <g id="s1xwo3qg" class="section systemMilestone" />
            <g id="p1r915ls" class="pb" />
            <g id="mv9fuk5" class="measure">
               <g id="shl1j6v" class="staff">
                  <path d="M1285 1120 L4505 1120" stroke="currentColor" stroke-width="13" />
                  <path d="M1285 1300 L4505 1300" stroke="currentColor" stroke-width="13" />
                  <path d="M1285 1480 L4505 1480" stroke="currentColor" stroke-width="13" />
                  <path d="M1285 1660 L4505 1660" stroke="currentColor" stroke-width="13" />
                  <path d="M1285 1840 L4505 1840" stroke="currentColor" stroke-width="13" />
                  <g id="cuv49np" class="clef">
                     <use xlink:href="#E050-9ck4w" x="1375" y="1660" height="720px" width="720px" />
                  </g>
                  <g id="k1w0fwhr" class="keySig" />
                  <g id="m19clotd" class="meterSig">
                     <use xlink:href="#E082-9ck4w" x="2006" y="1300" height="720px" width="720px" />
                     <use xlink:href="#E084-9ck4w" x="2011" y="1660" height="720px" width="720px" />
                  </g>
                  <g id="l14xelyc" class="layer">
                     <g id="b1vxoluo" class="beam">
                        <polygon points="2579,2020 3138,1930 3138,1840 2579,1930" />
                        <g id="n1rrlfdu" class="note">
                           <g class="notehead">
                              <use xlink:href="#E0A4-9ck4w" x="2579" y="1390" height="720px" width="720px" />
                           </g>
                           <g id="s181c1v6" class="stem">
                              <rect x="2579" y="1418" height="584" width="18" />
                           </g>
                        </g>
                        <g id="n1x85jrk" class="note">
                           <g class="notehead">
                              <use xlink:href="#E0A4-9ck4w" x="3120" y="1300" height="720px" width="720px" />
                           </g>
                           <g id="sn8iq4y" class="stem">
                              <rect x="3120" y="1328" height="584" width="18" />
                           </g>
                        </g>
                     </g>
                     <g id="ne8yspm" class="note">
                        <g class="notehead">
                           <use xlink:href="#E0A4-9ck4w" x="3662" y="1210" height="720px" width="720px" />
                        </g>
                        <g id="sc66pcc" class="stem">
                           <rect x="3662" y="1238" height="602" width="18" />
                        </g>
                     </g>
                  </g>
               </g>
               <g id="b1h8xyj3" class="barLine">
                  <path d="M4492 1120 L4492 1840" stroke="currentColor" stroke-width="27" />
               </g>
            </g>
            <g id="m1fkusuz" class="measure">
               <g id="s2tdpfs" class="staff">
                  <path d="M4505 1120 L6611 1120" stroke="currentColor" stroke-width="13" />
                  <path d="M4505 1300 L6611 1300" stroke="currentColor" stroke-width="13" />
                  <path d="M4505 1480 L6611 1480" stroke="currentColor" stroke-width="13" />
                  <path d="M4505 1660 L6611 1660" stroke="currentColor" stroke-width="13" />
                  <path d="M4505 1840 L6611 1840" stroke="currentColor" stroke-width="13" />
                  <g id="lua540s" class="layer">
                     <g id="bbr3omi" class="beam">
                        <polygon points="4685,1930 5244,1840 5244,1750 4685,1840" />
                        <g id="n1jzynj3" class="note">
                           <g class="notehead">
                              <use xlink:href="#E0A4-9ck4w" x="4685" y="1300" height="720px" width="720px" />
                           </g>
                           <g id="s18p0b97" class="stem">
                              <rect x="4685" y="1328" height="584" width="18" />
                           </g>
                        </g>
                        <g id="nirh170" class="note">
                           <g class="notehead">
                              <use xlink:href="#E0A4-9ck4w" x="5226" y="1210" height="720px" width="720px" />
                           </g>
                           <g id="sgqhlug" class="stem">
                              <rect x="5226" y="1238" height="584" width="18" />
                           </g>
                        </g>
                     </g>
                     <g id="nyr2zi4" class="note">
                        <g class="notehead">
                           <use xlink:href="#E0A4-9ck4w" x="5768" y="1570" height="720px" width="720px" />
                        </g>
                        <g id="sghx5y" class="stem">
                           <rect x="5976" y="940" height="602" width="18" />
                        </g>
                     </g>
                  </g>
               </g>
               <g id="bny5b24" class="barLine">
                  <path d="M6598 1120 L6598 1840" stroke="currentColor" stroke-width="27" />
               </g>
            </g>
            <g id="mscudwx" class="measure">
               <g id="s1wxmaik" class="staff">
                  <path d="M6611 1120 L8969 1120" stroke="currentColor" stroke-width="13" />
                  <path d="M6611 1300 L8969 1300" stroke="currentColor" stroke-width="13" />
                  <path d="M6611 1480 L8969 1480" stroke="currentColor" stroke-width="13" />
                  <path d="M6611 1660 L8969 1660" stroke="currentColor" stroke-width="13" />
                  <path d="M6611 1840 L8969 1840" stroke="currentColor" stroke-width="13" />
                  <g id="l1yxlw2s" class="layer">
                     <g id="b1j9x6y3" class="beam">
                        <polygon points="6791,1930 7350,2020 7350,1930 6791,1840" />
                        <g id="njrca81" class="note">
                           <g class="notehead">
                              <use xlink:href="#E0A4-9ck4w" x="6791" y="1300" height="720px" width="720px" />
                           </g>
                           <g id="s1hmg9fz" class="stem">
                              <rect x="6791" y="1328" height="584" width="18" />
                           </g>
                        </g>
                        <g id="ntblqna" class="note">
                           <g class="notehead">
                              <use xlink:href="#E0A4-9ck4w" x="7332" y="1390" height="720px" width="720px" />
                           </g>
                           <g id="s12oaqj6" class="stem">
                              <rect x="7332" y="1418" height="584" width="18" />
                           </g>
                        </g>
                     </g>
                     <g id="b68v8qe" class="beam">
                        <polygon points="8082,895 8641,985 8641,1075 8082,985" />
                        <g id="n1qjx5t9" class="note">
                           <g class="notehead">
                              <use xlink:href="#E0A4-9ck4w" x="7874" y="1480" height="720px" width="720px" />
                           </g>
                           <g id="sztxon5" class="stem">
                              <rect x="8082" y="913" height="539" width="18" />
                           </g>
                        </g>
                        <g id="n15eoc81" class="note">
                           <g class="notehead">
                              <use xlink:href="#E0A4-9ck4w" x="8415" y="1570" height="720px" width="720px" />
                           </g>
                           <g id="s1y83e4j" class="stem">
                              <rect x="8623" y="1003" height="539" width="18" />
                           </g>
                        </g>
                     </g>
                  </g>
               </g>
               <g id="b1jfesry" class="barLine">
                  <path d="M8956 1120 L8956 1840" stroke="currentColor" stroke-width="27" />
               </g>
            </g>
            <g id="m1shlpe9" class="measure">
               <g id="s1mhevfp" class="staff">
                  <path d="M8969 1120 L11327 1120" stroke="currentColor" stroke-width="13" />
                  <path d="M8969 1300 L11327 1300" stroke="currentColor" stroke-width="13" />
                  <path d="M8969 1480 L11327 1480" stroke="currentColor" stroke-width="13" />
                  <path d="M8969 1660 L11327 1660" stroke="currentColor" stroke-width="13" />
                  <path d="M8969 1840 L11327 1840" stroke="currentColor" stroke-width="13" />
                  <g id="lx55awb" class="layer">
                     <g id="b11xll3" class="beam">
                        <polygon points="9357,1030 9916,940 9916,1030 9357,1120" />
                        <g id="n6trpam" class="note">
                           <g class="notehead">
                              <use xlink:href="#E0A4-9ck4w" x="9149" y="1660" height="720px" width="720px" />
                           </g>
                           <g id="s1j2qu7z" class="stem">
                              <rect x="9357" y="1048" height="584" width="18" />
                           </g>
                        </g>
                        <g id="nx22eid" class="note">
                           <g class="notehead">
                              <use xlink:href="#E0A4-9ck4w" x="9690" y="1570" height="720px" width="720px" />
                           </g>
                           <g id="sb14llg" class="stem">
                              <rect x="9898" y="958" height="584" width="18" />
                           </g>
                        </g>
                     </g>
                     <g id="b9my37f" class="beam">
                        <polygon points="10440,850 10999,1030 10999,1120 10440,940" />
                        <g id="nrv79r1" class="note">
                           <g class="notehead">
                              <use xlink:href="#E0A4-9ck4w" x="10232" y="1390" height="720px" width="720px" />
                           </g>
                           <g id="s16221m3" class="stem">
                              <rect x="10440" y="868" height="494" width="18" />
                           </g>
                        </g>
                        <g id="n1iz1ktx" class="note">
                           <g class="notehead">
                              <use xlink:href="#E0A4-9ck4w" x="10773" y="1570" height="720px" width="720px" />
                           </g>
                           <g id="s74y9od" class="stem">
                              <rect x="10981" y="1048" height="494" width="18" />
                           </g>
                        </g>
                     </g>
                  </g>
               </g>
               <g id="b1035ck2" class="barLine">
                  <path d="M11314 1120 L11314 1840" stroke="currentColor" stroke-width="27" />
               </g>
            </g>
            <g id="mofblzl" class="measure">
               <g id="ss2cwio" class="staff">
                  <path d="M11327 1120 L13433 1120" stroke="currentColor" stroke-width="13" />
                  <path d="M11327 1300 L13433 1300" stroke="currentColor" stroke-width="13" />
                  <path d="M11327 1480 L13433 1480" stroke="currentColor" stroke-width="13" />
                  <path d="M11327 1660 L13433 1660" stroke="currentColor" stroke-width="13" />
                  <path d="M11327 1840 L13433 1840" stroke="currentColor" stroke-width="13" />
                  <g id="l1gv4ycu" class="layer">
                     <g id="b74kjjq" class="beam">
                        <polygon points="11507,2020 12066,1930 12066,1840 11507,1930" />
                        <g id="n1txvatz" class="note">
                           <g class="notehead">
                              <use xlink:href="#E0A4-9ck4w" x="11507" y="1390" height="720px" width="720px" />
                           </g>
                           <g id="s1wva7dj" class="stem">
                              <rect x="11507" y="1418" height="584" width="18" />
                           </g>
                        </g>
                        <g id="n1mmja9h" class="note">
                           <g class="notehead">
                              <use xlink:href="#E0A4-9ck4w" x="12048" y="1300" height="720px" width="720px" />
                           </g>
                           <g id="svfxpa4" class="stem">
                              <rect x="12048" y="1328" height="584" width="18" />
                           </g>
                        </g>
                     </g>
                     <g id="no9ldq" class="note">
                        <g class="notehead">
                           <use xlink:href="#E0A4-9ck4w" x="12590" y="1210" height="720px" width="720px" />
                        </g>
                        <g id="s1twud2z" class="stem">
                           <rect x="12590" y="1238" height="602" width="18" />
                        </g>
                     </g>
                  </g>
               </g>
               <g id="b1ezjtqf" class="barLine">
                  <path d="M13420 1120 L13420 1840" stroke="currentColor" stroke-width="27" />
               </g>
            </g>
            <g id="m1aw7wnj" class="measure">
               <g id="s16a9ixk" class="staff">
                  <path d="M13433 1120 L15539 1120" stroke="currentColor" stroke-width="13" />
                  <path d="M13433 1300 L15539 1300" stroke="currentColor" stroke-width="13" />
                  <path d="M13433 1480 L15539 1480" stroke="currentColor" stroke-width="13" />
                  <path d="M13433 1660 L15539 1660" stroke="currentColor" stroke-width="13" />
                  <path d="M13433 1840 L15539 1840" stroke="currentColor" stroke-width="13" />
                  <g id="l107lhxa" class="layer">
                     <g id="b17iatm2" class="beam">
                        <polygon points="13613,1930 14172,1840 14172,1750 13613,1840" />
                        <g id="n1h6q63n" class="note">
                           <g class="notehead">
                              <use xlink:href="#E0A4-9ck4w" x="13613" y="1300" height="720px" width="720px" />
                           </g>
                           <g id="s13nxzqo" class="stem">
                              <rect x="13613" y="1328" height="584" width="18" />
                           </g>
                        </g>
                        <g id="n6m5k1r" class="note">
                           <g class="notehead">
                              <use xlink:href="#E0A4-9ck4w" x="14154" y="1210" height="720px" width="720px" />
                           </g>
                           <g id="s17kwd9f" class="stem">
                              <rect x="14154" y="1238" height="584" width="18" />
                           </g>
                        </g>
                     </g>
                     <g id="n6lrmdm" class="note">
                        <g class="notehead">
                           <use xlink:href="#E0A4-9ck4w" x="14696" y="1570" height="720px" width="720px" />
                        </g>
                        <g id="s12le7xw" class="stem">
                           <rect x="14904" y="940" height="602" width="18" />
                        </g>
                     </g>
                  </g>
               </g>
               <g id="b154gz01" class="barLine">
                  <path d="M15526 1120 L15526 1840" stroke="currentColor" stroke-width="27" />
               </g>
            </g>
            <g id="m182q6dg" class="measure">
               <g id="sp2n3cf" class="staff">
                  <path d="M15539 1120 L17897 1120" stroke="currentColor" stroke-width="13" />
                  <path d="M15539 1300 L17897 1300" stroke="currentColor" stroke-width="13" />
                  <path d="M15539 1480 L17897 1480" stroke="currentColor" stroke-width="13" />
                  <path d="M15539 1660 L17897 1660" stroke="currentColor" stroke-width="13" />
                  <path d="M15539 1840 L17897 1840" stroke="currentColor" stroke-width="13" />
                  <g id="l19s91nu" class="layer">
                     <g id="b1rtsqd0" class="beam">
                        <polygon points="15719,1930 16278,2020 16278,1930 15719,1840" />
                        <g id="nrx27n8" class="note">
                           <g class="notehead">
                              <use xlink:href="#E0A4-9ck4w" x="15719" y="1300" height="720px" width="720px" />
                           </g>
                           <g id="s11sz6g9" class="stem">
                              <rect x="15719" y="1328" height="584" width="18" />
                           </g>
                        </g>
                        <g id="n12k5hxx" class="note">
                           <g class="notehead">
                              <use xlink:href="#E0A4-9ck4w" x="16260" y="1390" height="720px" width="720px" />
                           </g>
                           <g id="s1al1hjr" class="stem">
                              <rect x="16260" y="1418" height="584" width="18" />
                           </g>
                        </g>
                     </g>
                     <g id="b16vm9xr" class="beam">
                        <polygon points="17010,895 17569,985 17569,1075 17010,985" />
                        <g id="n1k7xafg" class="note">
                           <g class="notehead">
                              <use xlink:href="#E0A4-9ck4w" x="16802" y="1480" height="720px" width="720px" />
                           </g>
                           <g id="szm7kkf" class="stem">
                              <rect x="17010" y="913" height="539" width="18" />
                           </g>
                        </g>
                        <g id="n15ua8ga" class="note">
                           <g class="notehead">
                              <use xlink:href="#E0A4-9ck4w" x="17343" y="1570" height="720px" width="720px" />
                           </g>
                           <g id="s1kwoxmk" class="stem">
                              <rect x="17551" y="1003" height="539" width="18" />
                           </g>
                        </g>
                     </g>
                  </g>
               </g>
               <g id="b1v9xaye" class="barLine">
                  <path d="M17884 1120 L17884 1840" stroke="currentColor" stroke-width="27" />
               </g>
            </g>
            <g id="m7l44ud" class="measure">
               <g id="sgk8140" class="staff">
                  <path d="M17897 1120 L20003 1120" stroke="currentColor" stroke-width="13" />
                  <path d="M17897 1300 L20003 1300" stroke="currentColor" stroke-width="13" />
                  <path d="M17897 1480 L20003 1480" stroke="currentColor" stroke-width="13" />
                  <path d="M17897 1660 L20003 1660" stroke="currentColor" stroke-width="13" />
                  <path d="M17897 1840 L20003 1840" stroke="currentColor" stroke-width="13" />
                  <g id="l1rmu9ao" class="layer">
                     <g id="b1b3kvre" class="beam">
                        <polygon points="18285,940 18844,1030 18844,1120 18285,1030" />
                        <g id="nu4l8sv" class="note">
                           <g class="notehead">
                              <use xlink:href="#E0A4-9ck4w" x="18077" y="1570" height="720px" width="720px" />
                           </g>
                           <g id="sbezjxl" class="stem">
                              <rect x="18285" y="958" height="584" width="18" />
                           </g>
                        </g>
                        <g id="n1ca3bxp" class="note">
                           <g class="notehead">
                              <use xlink:href="#E0A4-9ck4w" x="18618" y="1660" height="720px" width="720px" />
                           </g>
                           <g id="szkb93i" class="stem">
                              <rect x="18826" y="1048" height="584" width="18" />
                           </g>
                        </g>
                     </g>
                     <g id="n1ho4z70" class="note">
                        <g class="notehead">
                           <use xlink:href="#E0A4-9ck4w" x="19160" y="1570" height="720px" width="720px" />
                        </g>
                        <g id="sc56jf6" class="stem">
                           <rect x="19368" y="940" height="602" width="18" />
                        </g>
                     </g>
                  </g>
               </g>
               <g id="dg7m7ou" class="dir fine">
                  <text x="19990" y="812" text-anchor="end" font-size="0px">
                     <tspan id="relrhxp" class="rend">
                        <tspan id="tl2prq9" class="text">
                           <tspan font-size="405px" class="text">Fine</tspan>
                        </tspan>
                     </tspan>
                  </text>
               </g>
               <g id="bicjflk" class="barLine">
                  <path d="M19990 1120 L19990 1840" stroke="currentColor" stroke-width="27" />
               </g>
            </g>
         </g>
         <g id="s1ob1c0b" class="system">
            <g id="l1l0xknx" class="labelAbbr">
               <text x="914" y="3919" text-anchor="end" font-size="0px">
                  <tspan id="t5i2g59" class="text">
                     <tspan font-size="405px" class="text">Pno.</tspan>
                  </tspan>
               </text>
            </g>
            <g id="m1d56piq" class="measure">
               <g id="mqpevv" class="mNum autogenerated">
                  <text x="1094" y="3226" text-anchor="middle" font-size="0px">
                     <tspan id="t179s4ur" class="text">
                        <tspan font-size="324px" class="text">9</tspan>
                     </tspan>
                  </text>
               </g>
               <g id="swbah81" class="staff">
                  <path d="M1094 3469 L4487 3469" stroke="currentColor" stroke-width="13" />
                  <path d="M1094 3649 L4487 3649" stroke="currentColor" stroke-width="13" />
                  <path d="M1094 3829 L4487 3829" stroke="currentColor" stroke-width="13" />
                  <path d="M1094 4009 L4487 4009" stroke="currentColor" stroke-width="13" />
                  <path d="M1094 4189 L4487 4189" stroke="currentColor" stroke-width="13" />
                  <g id="cr3zq1b" class="clef">
                     <use xlink:href="#E050-9ck4w" x="1184" y="4009" height="720px" width="720px" />
                  </g>
                  <g id="k1womkam" class="keySig" />
                  <g id="lkmszdg" class="layer">
                     <g id="bsbfspf" class="beam">
                        <polygon points="2302,4369 2863,4279 2863,4189 2302,4279" />
                        <g id="n1q64a44" class="note">
                           <g class="notehead">
                              <use xlink:href="#E0A4-9ck4w" x="2302" y="3739" height="720px" width="720px" />
                           </g>
                           <g id="s15pvt7e" class="stem">
                              <rect x="2302" y="3767" height="584" width="18" />
                           </g>
                        </g>
                        <g id="n1nes2l2" class="note">
                           <g class="notehead">
                              <use xlink:href="#E0A4-9ck4w" x="2845" y="3649" height="720px" width="720px" />
                           </g>
                           <g id="s1ao5ehc" class="stem">
                              <rect x="2845" y="3677" height="584" width="18" />
                           </g>
                        </g>
                     </g>
                     <g id="bbjd1oa" class="beam">
                        <polygon points="3388,4279 3949,4459 3949,4369 3388,4189" />
                        <g id="nq0i1o8" class="note">
                           <g class="notehead">
                              <use xlink:href="#E0A4-9ck4w" x="3388" y="3739" height="720px" width="720px" />
                           </g>
                           <g id="s14hcaa7" class="stem">
                              <rect x="3388" y="3767" height="494" width="18" />
                           </g>
                        </g>
                        <g id="najj5y9" class="note">
                           <g class="notehead">
                              <use xlink:href="#E0A4-9ck4w" x="3931" y="3919" height="720px" width="720px" />
                           </g>
                           <g id="sidtct1" class="stem">
                              <rect x="3931" y="3947" height="494" width="18" />
                           </g>
                        </g>
                     </g>
                  </g>
               </g>
               <g id="b1q5izhf" class="barLine">
                  <path d="M1874 3469 L1874 4189" stroke="currentColor" stroke-width="90" />
                  <path d="M2004 3469 L2004 4189" stroke="currentColor" stroke-width="27" />
                  <use xlink:href="#E044-9ck4w" x="2050" y="3739" height="720px" width="720px" />
                  <use xlink:href="#E044-9ck4w" x="2050" y="3919" height="720px" width="720px" />
               </g>
               <g id="b727rd6" class="barLine">
                  <path d="M4474 3469 L4474 4189" stroke="currentColor" stroke-width="27" />
               </g>
            </g>
            <g id="s4ivk7g" class="sb" />
            <g id="mvo5c1o" class="measure">
               <g id="sv9ah3r" class="staff">
                  <path d="M4487 3469 L6852 3469" stroke="currentColor" stroke-width="13" />
                  <path d="M4487 3649 L6852 3649" stroke="currentColor" stroke-width="13" />
                  <path d="M4487 3829 L6852 3829" stroke="currentColor" stroke-width="13" />
                  <path d="M4487 4009 L6852 4009" stroke="currentColor" stroke-width="13" />
                  <path d="M4487 4189 L6852 4189" stroke="currentColor" stroke-width="13" />
                  <g id="lt1g1dh" class="layer">
                     <g id="b4g4hd8" class="beam">
                        <polygon points="4875,3244 5436,3424 5436,3514 4875,3334" />
                        <g id="n1lt6anb" class="note">
                           <g class="notehead">
                              <use xlink:href="#E0A4-9ck4w" x="4667" y="3829" height="720px" width="720px" />
                           </g>
                           <g id="sdm5ejf" class="stem">
                              <rect x="4875" y="3262" height="539" width="18" />
                           </g>
                        </g>
                        <g id="n16daeu6" class="note">
                           <g class="notehead">
                              <use xlink:href="#E0A4-9ck4w" x="5210" y="4009" height="720px" width="720px" />
                           </g>
                           <g id="s1v62vec" class="stem">
                              <rect x="5418" y="3442" height="539" width="18" />
                           </g>
                        </g>
                     </g>
                     <g id="b1erbtp2" class="beam">
                        <polygon points="5961,3334 6522,3244 6522,3334 5961,3424" />
                        <g id="n1fyvwe5" class="note">
                           <g class="notehead">
                              <use xlink:href="#E0A4-9ck4w" x="5753" y="3919" height="720px" width="720px" />
                           </g>
                           <g id="sv8jmpk" class="stem">
                              <rect x="5961" y="3352" height="539" width="18" />
                           </g>
                        </g>
                        <g id="n1sh4tba" class="note">
                           <g class="notehead">
                              <use xlink:href="#E0A4-9ck4w" x="6296" y="3829" height="720px" width="720px" />
                           </g>
                           <g id="s2uuhwk" class="stem">
                              <rect x="6504" y="3262" height="539" width="18" />
                           </g>
                        </g>
                     </g>
                  </g>
               </g>
               <g id="b1yzkzxx" class="barLine">
                  <path d="M6839 3469 L6839 4189" stroke="currentColor" stroke-width="27" />
               </g>
            </g>
            <g id="m17ims9q" class="measure">
               <g id="s1yaycpe" class="staff">
                  <path d="M6852 3469 L9217 3469" stroke="currentColor" stroke-width="13" />
                  <path d="M6852 3649 L9217 3649" stroke="currentColor" stroke-width="13" />
                  <path d="M6852 3829 L9217 3829" stroke="currentColor" stroke-width="13" />
                  <path d="M6852 4009 L9217 4009" stroke="currentColor" stroke-width="13" />
                  <path d="M6852 4189 L9217 4189" stroke="currentColor" stroke-width="13" />
                  <g id="lqnsozh" class="layer">
                     <g id="b19g1gpe" class="beam">
                        <polygon points="7032,4369 7593,4279 7593,4189 7032,4279" />
                        <g id="n1rmim9r" class="note">
                           <g class="notehead">
                              <use xlink:href="#E0A4-9ck4w" x="7032" y="3739" height="720px" width="720px" />
                           </g>
                           <g id="srsno3x" class="stem">
                              <rect x="7032" y="3767" height="584" width="18" />
                           </g>
                        </g>
                        <g id="n1w18jom" class="note">
                           <g class="notehead">
                              <use xlink:href="#E0A4-9ck4w" x="7575" y="3649" height="720px" width="720px" />
                           </g>
                           <g id="s1ljql0d" class="stem">
                              <rect x="7575" y="3677" height="584" width="18" />
                           </g>
                        </g>
                     </g>
                     <g id="b11xfhom" class="beam">
                        <polygon points="8118,4279 8679,4459 8679,4369 8118,4189" />
                        <g id="n1ns5we1" class="note">
                           <g class="notehead">
                              <use xlink:href="#E0A4-9ck4w" x="8118" y="3739" height="720px" width="720px" />
                           </g>
                           <g id="s1el0k01" class="stem">
                              <rect x="8118" y="3767" height="494" width="18" />
                           </g>
                        </g>
                        <g id="nf4j9iz" class="note">
                           <g class="notehead">
                              <use xlink:href="#E0A4-9ck4w" x="8661" y="3919" height="720px" width="720px" />
                           </g>
                           <g id="sqsdgsn" class="stem">
                              <rect x="8661" y="3947" height="494" width="18" />
                           </g>
                        </g>
                     </g>
                  </g>
               </g>
               <g id="b1s4co5g" class="barLine">
                  <path d="M9204 3469 L9204 4189" stroke="currentColor" stroke-width="27" />
               </g>
            </g>
            <g id="m1oceuej" class="measure">
               <g id="s100gh38" class="staff">
                  <path d="M9217 3469 L11491 3469" stroke="currentColor" stroke-width="13" />
                  <path d="M9217 3649 L11491 3649" stroke="currentColor" stroke-width="13" />
                  <path d="M9217 3829 L11491 3829" stroke="currentColor" stroke-width="13" />
                  <path d="M9217 4009 L11491 4009" stroke="currentColor" stroke-width="13" />
                  <path d="M9217 4189 L11491 4189" stroke="currentColor" stroke-width="13" />
                  <g id="l6lzehl" class="layer">
                     <g id="b1x5lqw3" class="beam">
                        <polygon points="9605,3244 10166,3424 10166,3514 9605,3334" />
                        <g id="n1qc5c2b" class="note">
                           <g class="notehead">
                              <use xlink:href="#E0A4-9ck4w" x="9397" y="3829" height="720px" width="720px" />
                           </g>
                           <g id="s17vrkau" class="stem">
                              <rect x="9605" y="3262" height="539" width="18" />
                           </g>
                        </g>
                        <g id="n19sf29q" class="note">
                           <g class="notehead">
                              <use xlink:href="#E0A4-9ck4w" x="9940" y="4009" height="720px" width="720px" />
                           </g>
                           <g id="s1o4iyd6" class="stem">
                              <rect x="10148" y="3442" height="539" width="18" />
                           </g>
                        </g>
                     </g>
                     <g id="njrzasb" class="note">
                        <g class="notehead">
                           <use xlink:href="#E0A4-9ck4w" x="10483" y="3919" height="720px" width="720px" />
                        </g>
                        <g id="s12cdah9" class="stem">
                           <rect x="10691" y="3289" height="602" width="18" />
                        </g>
                     </g>
                  </g>
               </g>
               <g id="b5jd9l4" class="barLine">
                  <path d="M11316 3469 L11316 4189" stroke="currentColor" stroke-width="27" />
                  <path d="M11446 3469 L11446 4189" stroke="currentColor" stroke-width="90" />
               </g>
            </g>
            <g id="s1nuybif" class="systemMilestoneEnd s1xwo3qg" />
         </g>
         <g id="p1vjsbqv" class="pageMilestoneEnd s1na4duh" />
         <g id="p1rgiy22" class="pageMilestoneEnd moer1wj" />
         <g id="pclr5zd" class="pgHead">
            <text x="0" y="0" font-size="0px">
               <tspan id="rlvcqmc" class="rend" x="10000" y="277" text-anchor="middle">
                  <tspan id="t1te6nl8" class="text">
                     <tspan font-size="405px" class="text">Air n 184e</tspan>
                  </tspan>
               </tspan>
            </text>
         </g>
         <g id="pgwewxv" class="pgFoot autogenerated">
            <g id="f1e94ne4" class="fig">
               <g id="s1pyrchs" class="svg" transform="translate(7750, 28099) scale(10, 10)">
                  <g>
                     <path fill="#00000" d="M 17.11278,49.26451 V 10.367554 h 12.696511 c 3.288815,7.336676 6.71267,14.610456 10.127281,21.888976 3.419998,-7.484684 6.255515,-14.204887 9.58887,-21.909915 2.436207,0.103726 4.316952,0.08453 6.484294,-0.05808 V 49.264423 H 50.274275 C 50.145222,38.35639 50.016136,27.448368 49.887066,16.540329 45.003488,27.315459 39.967448,38.433564 35.083854,49.208695 34.678996,49.343717 34.426583,49.135619 34.021726,49.270644 29.46588,39.330716 24.910049,29.390805 20.354201,19.450876 20.224341,29.388756 20.09461,39.326619 19.964815,49.264497 H 17.11278 Z M 36.754144,39.324695 C 32.721221,30.512695 28.6883,21.700679 24.655394,12.888662 22.530527,12.750737 22.656775,12.71031 20.714356,12.813974 v 0.966497 c 4.612938,9.99784 9.609439,20.748709 13.87298,30.081745 0.722248,-1.512523 1.444528,-3.025014 2.166808,-4.537521 z m 25.738417,9.939815 c 0,-12.965651 0,-25.931305 0,-38.896956 10.084388,0 20.168791,0 30.253178,0 0,0.960416 0,1.920849 0,2.881265 -6.482825,0 -12.965652,0 -19.448478,0 0,4.802097 0,9.604178 0,14.406277 5.52241,0 11.044819,0 16.567229,0 0,0.960415 0,1.920832 0,2.881248 -5.52241,0 -11.044819,0 -16.567229,0 0,5.282306 0,10.564611 0,15.846917 6.963035,0 13.926068,0 20.889103,0 0,0.960416 0,1.920832 0,2.881249 -10.564597,0 -21.129207,0 -31.693803,0 z m 4.321874,-2.160937 c 0,-11.765131 0,-23.530263 0,-35.295394 -0.720312,0 -1.440625,0 -2.160937,0 0,11.765131 0,23.530263 0,35.295394 0.720312,0 1.440625,0 2.160937,0 z m 32.41413,2.160937 c 0,-12.965651 0,-25.931305 0,-38.896956 2.401045,0 4.802095,0 7.203135,0 0,12.965651 0,25.931305 0,38.896956 -2.40104,0 -4.80209,0 -7.203135,0 z m 2.881265,-2.160937 c 0,-11.765131 0,-23.530263 0,-35.295394 -0.72031,0 -1.44064,0 -2.160953,0 0,11.765131 0,23.530263 0,35.295394 0.720313,0 1.440643,0 2.160953,0 z" />
                     <path fill="#00000" d="m 346.3,6.7 c -3.1,0.5 -4.9,4.4 -2.7,6.8 1.2,1.4 2.7,2.4 4.1,3.5 -2.4,5.3 -7.7,8.3 -11.9,12.1 -3.7,2.8 -7,6.2 -9.7,9.9 -2.2,-0.8 -0.3,-6.8 -0.6,-9.5 0.1,-3.1 0.7,-6.4 2.9,-8.7 1.3,-1.9 3,-3.5 4.5,-5.2 1.2,-3.4 -3.2,-4.9 -5.8,-4.6 -7.3,-0.5 -14.6,2 -20,6.8 -5,4.6 -10,10.1 -11.5,17 -0.9,3.5 -0.2,7.5 2.8,9.9 2.5,2.8 7.4,2.9 9.8,-0.2 1.7,-2.3 3.2,-4.8 3.8,-7.6 -0.1,-2.6 -4.4,-2.3 -4.3,0.2 1.2,2.4 -0.9,4.7 -2.7,6.2 -1.7,0.9 -4.7,0.7 -4.8,-1.7 -1,-5.8 2.1,-11.3 5.2,-16.1 4,-5.8 9.8,-11.2 17.2,-11.8 1.6,0 8.1,-1.2 6.8,1.4 -2.8,2.8 -5.6,6.1 -6,10.3 -1.6,7.7 0.1,15.7 -2.3,23.2 -1.1,3.9 2,2.6 2.5,0.2 3.3,-7.4 8.9,-13.4 15.1,-18.5 4.2,-3.9 9.5,-7.1 11.9,-12.6 1.3,-3.6 1.2,-9 -2.7,-10.9 -0.6,-0.2 -1.2,-0.3 -1.8,-0.3 z m 66,14.5 c -2,0.8 -1.8,4.9 0.8,4.4 3.4,0.4 2.9,-6.2 -0.8,-4.4 z m 0.6,7.3 c -1.3,0.5 -7.6,0.5 -5.4,2.2 4,-0.3 0.7,4.5 0.6,6.7 -0.4,2.9 -2.4,5.9 -1.2,8.8 2.7,1.7 5.6,-0.8 6.8,-3.2 1.6,-1.4 -0.5,-3 -1.2,-0.9 -0.4,0.8 -2.4,3.5 -2.6,1.8 1.1,-5 2.7,-9.9 3.9,-14.9 l -0.1,-0.5 h -0.9 z m -65.1,0.2 c -6.5,1.6 -10.5,9.5 -8.2,15.7 2.1,3.4 7.4,2.9 10.1,0.4 2,-0.2 3.6,-5.3 1,-3.4 -1.4,2 -4,4.2 -6.5,2.8 -2.2,-1.9 -1.9,-5.7 1.7,-5.3 3.1,-0.9 6.9,-2.1 8.1,-5.5 0.9,-2.7 -1.6,-5.2 -4.3,-4.8 h -1.1 -0.7 z m 13.6,0 c -2.2,0 -8.5,1.8 -2.9,2.3 0.9,1.9 -1,4.9 -1.1,7.2 -0.5,2.9 -1.4,5.7 -1.7,8.7 3.7,0.7 3.8,-2.6 4.4,-5.3 0.9,-3.3 1.6,-7 4.1,-9.5 2.4,1.6 6.8,-0.7 3.7,-3.4 -2.9,-0.5 -4.8,2.4 -6.2,4.3 0,-1.2 2.4,-5 -0.2,-4.3 z m 15.8,0 c -6.4,1.3 -9.6,9.1 -7.7,14.9 1.9,4 7.7,3.9 11,1.7 4.1,-3 6,-8.9 4.4,-13.7 -1.3,-3 -4.8,-3.2 -7.6,-3 z m 17,0 c -2.3,0 -8.8,1.9 -3,2.4 0.4,2.5 -1,5.7 -1.4,8.4 -0.7,2.4 -1.8,7.5 2.1,7.2 3.8,-0.1 6.5,-3.5 8.5,-6.3 2,-3.2 4.5,-7 3.3,-10.9 -3.7,-3 -3.6,2.6 -3.1,5.1 -0.7,3.8 -2.7,7.9 -6.2,9.8 -3.6,0.6 -1,-4.3 -0.8,-6.1 0.6,-3.2 1.6,-6.3 1.9,-9.5 -0.4,0 -0.8,0 -1.1,0 z m 30.6,0 c -6.3,1.2 -9.5,8.9 -7.8,14.7 1.5,4 7.2,4.2 10.5,2.4 4.6,-2.8 6.6,-9.3 4.8,-14.3 -1.4,-2.8 -4.8,-3 -7.5,-2.8 z m -75.4,1.7 c 2.1,1.5 0.2,4.7 -1.6,5.7 -1.1,0.4 -5.5,3.4 -4.6,0.7 0.8,-2.7 2.2,-6.2 5.3,-6.6 l 0.9,0.1 z m 30.8,0 c 2.6,1.5 1.3,5.2 0.8,7.6 -0.8,2.7 -1.9,5.9 -4.7,7.1 -5.1,0.8 -4,-5.8 -2.8,-8.8 1,-2.8 3,-6.8 6.7,-5.8 z m 47.1,-0.1 c 2.9,0.7 2,4.7 1.5,6.8 -0.7,3 -1.8,6.7 -5,8 -4.7,0.8 -4,-5.1 -3,-7.9 0.9,-3 2.7,-7.3 6.5,-6.8 z m -88.1,5.9 c -0.3,1.3 0.9,-0.6 0,0 z m -1.1,2.4 c -0.2,0.5 0.5,-0.1 0,0 z m -1.3,4.5 c -0.3,1.3 0.8,-0.2 0,0 z" />
                     <text y="41" x="201" fill="#00000" style="font-style:italic;font-weight:normal;font-size:30px;line-height:125%;font-family:Times;text-anchor:middle" xml:space="preserve">engraved with</text>
                  </g>
               </g>
            </g>
         </g>
      </g>
   </svg>
</svg>
