<?xml version="1.0" encoding="UTF-8" standalone="no"?>
<svg width="2100px" height="2970px" version="1.1" xmlns="http://www.w3.org/2000/svg" xmlns:xlink="http://www.w3.org/1999/xlink" xmlns:mei="http://www.music-encoding.org/ns/mei" overflow="visible">
   <desc>Engraved by Verovio 3.13.1</desc>
   <defs>
      <symbol id="E044-vmzuls" viewBox="0 0 1000 1000" overflow="inherit">
         <path transform="scale(1,-1)" d="M0 0c0 28 22 50 50 50s50 -22 50 -50s-22 -50 -50 -50s-50 22 -50 50z" />
      </symbol>
      <symbol id="E050-vmzuls" viewBox="0 0 1000 1000" overflow="inherit">
         <path transform="scale(1,-1)" d="M441 -245c-23 -4 -48 -6 -76 -6c-59 0 -102 7 -130 20c-88 42 -150 93 -187 154c-26 44 -43 103 -48 176c0 6 -1 13 -1 19c0 54 15 111 45 170c29 57 65 106 110 148s96 85 153 127c-3 16 -8 46 -13 92c-4 43 -5 73 -5 89c0 117 16 172 69 257c34 54 64 82 89 82 c21 0 43 -30 69 -92s39 -115 41 -159v-15c0 -109 -21 -162 -67 -241c-13 -20 -63 -90 -98 -118c-13 -9 -25 -19 -37 -29l31 -181c8 1 18 2 28 2c58 0 102 -12 133 -35c59 -43 92 -104 98 -184c1 -7 1 -15 1 -22c0 -123 -87 -209 -181 -248c8 -57 17 -110 25 -162 c5 -31 6 -58 6 -80c0 -30 -5 -53 -14 -70c-35 -64 -88 -99 -158 -103c-5 0 -11 -1 -16 -1c-37 0 -72 10 -108 27c-50 24 -77 59 -80 105v11c0 29 7 55 20 76c18 28 45 42 79 44h6c49 0 93 -42 97 -87v-9c0 -51 -34 -86 -105 -106c17 -24 51 -36 102 -36c62 0 116 43 140 85 c9 16 13 41 13 74c0 20 -1 42 -5 67c-8 53 -18 106 -26 159zM461 939c-95 0 -135 -175 -135 -286c0 -24 2 -48 5 -71c50 39 92 82 127 128c40 53 60 100 60 140v8c-4 53 -22 81 -55 81h-2zM406 119l54 -326c73 25 110 78 110 161c0 7 0 15 -1 23c-7 95 -57 142 -151 142h-12 zM382 117c-72 -2 -128 -47 -128 -120v-7c2 -46 43 -99 75 -115c-3 -2 -7 -5 -10 -10c-70 33 -116 88 -123 172v11c0 68 44 126 88 159c23 17 49 29 78 36l-29 170c-21 -13 -52 -37 -92 -73c-50 -44 -86 -84 -109 -119c-45 -69 -67 -130 -67 -182v-13c5 -68 35 -127 93 -176 s125 -73 203 -73c25 0 50 3 75 9c-19 111 -36 221 -54 331z" />
      </symbol>
      <symbol id="E081-vmzuls" viewBox="0 0 1000 1000" overflow="inherit">
         <path transform="scale(1,-1)" d="M68 -250v36c23 0 40 6 49 18c8 14 12 33 12 57v250l-82 -129l-27 13l107 255h128v-394c0 -24 5 -42 14 -53s25 -17 47 -17v-36h-248z" />
      </symbol>
      <symbol id="E082-vmzuls" viewBox="0 0 1000 1000" overflow="inherit">
         <path transform="scale(1,-1)" d="M124 -185c-18 0 -55 -14 -65 -65h-36l-3 30c0 25 6 45 18 63c11 19 22 30 39 43l121 82l37 29c15 11 27 29 38 54c12 24 18 47 18 70c0 40 -19 88 -94 88c-25 0 -32 0 -50 -8c-14 -5 -23 -12 -26 -22c3 -9 7 -15 10 -18l24 -17c12 -7 17 -11 27 -21c5 -7 7 -16 7 -27 c0 -12 0 -57 -79 -74c-30 0 -76 26 -76 94c0 66 81 135 197 135c72 0 181 -32 181 -150c0 -53 -32 -95 -113 -133l-91 -41c-26 -11 -45 -23 -57 -37l49 7c84 0 115 -41 148 -41c20 0 33 20 39 61h35c0 -152 -68 -168 -114 -168c-17 0 -65 0 -79 7h10l-28 17 c-49 37 -69 40 -87 42z" />
      </symbol>
      <symbol id="E084-vmzuls" viewBox="0 0 1000 1000" overflow="inherit">
         <path transform="scale(1,-1)" d="M20 -78c84 97 114 180 134 329h170c-13 -32 -82 -132 -99 -151l-84 -97c-33 -36 -59 -63 -80 -81h162v102l127 123v-225h57v-39h-57v-34c0 -43 19 -65 57 -65v-34h-244v36c48 0 60 26 60 70v27h-203v39z" />
      </symbol>
      <symbol id="E0A4-vmzuls" viewBox="0 0 1000 1000" overflow="inherit">
         <path transform="scale(1,-1)" d="M0 -39c0 68 73 172 200 172c66 0 114 -37 114 -95c0 -84 -106 -171 -218 -171c-64 0 -96 30 -96 94z" />
      </symbol>
   </defs>
   <style type="text/css">g.page-margin{font-family:Times;} g.ending, g.fing, g.reh, g.tempo{font-weight:bold;} g.dir, g.dynam, g.mNum{font-style:italic;} g.label{font-weight:normal;}</style>
   <svg class="definition-scale" color="black" viewBox="0 0 21000 29700">
      <g class="page-margin" transform="translate(500, 500)">
         <g id="miq0n7b" class="mdiv pageMilestone" />
         <g id="s1p420ew" class="score pageMilestone" />
         <g id="sdki7qw" class="system">
            <g id="l16p4aw8" class="label">
               <text x="1105" y="1535" text-anchor="end" font-size="0px">
                  <tspan id="tx5gd1c" class="text">
                     <tspan font-size="405px" class="text">Piano</tspan>
                  </tspan>
               </text>
            </g>
            <g id="s1lc5cv8" class="section systemMilestone" />
            <g id="p15se5zt" class="pb" />
            <g id="mz24ftz" class="measure">
               <g id="mx26zem" class="mNum">
                  <text x="1285" y="842" text-anchor="middle" font-size="0px" />
               </g>
               <g id="sbe17wb" class="staff">
                  <path d="M1285 1085 L4197 1085" stroke="currentColor" stroke-width="13" />
                  <path d="M1285 1265 L4197 1265" stroke="currentColor" stroke-width="13" />
                  <path d="M1285 1445 L4197 1445" stroke="currentColor" stroke-width="13" />
                  <path d="M1285 1625 L4197 1625" stroke="currentColor" stroke-width="13" />
                  <path d="M1285 1805 L4197 1805" stroke="currentColor" stroke-width="13" />
                  <g id="c1ke56w0" class="clef">
                     <use xlink:href="#E050-vmzuls" x="1375" y="1625" height="720px" width="720px" />
                  </g>
                  <g id="ky6pa7a" class="keySig" />
                  <g id="mr3nkg" class="meterSig">
                     <use xlink:href="#E082-vmzuls" x="2006" y="1265" height="720px" width="720px" />
                     <use xlink:href="#E084-vmzuls" x="2011" y="1625" height="720px" width="720px" />
                  </g>
                  <g id="l5zkw7r" class="layer">
                     <g id="b1c0xy3i" class="beam">
                        <polygon points="2585,2075 3802,2120 3802,2030 2585,1985" />
                        <polygon points="2585,1940 2994,1956 2994,1866 2585,1850" />
                        <polygon points="2994,1956 3393,1970 3393,1880 2994,1866" />
                        <polygon points="3393,1970 3802,1985 3802,1895 3393,1880" />
                        <g id="n1kwhvod" class="note">
                           <g class="notehead">
                              <use xlink:href="#E0A4-vmzuls" x="2585" y="1355" height="720px" width="720px" />
                           </g>
                           <g id="s1j6vdj6" class="stem">
                              <rect x="2585" y="1383" height="674" width="18" />
                           </g>
                        </g>
                        <g id="n1nxriem" class="note">
                           <g class="notehead">
                              <use xlink:href="#E0A4-vmzuls" x="2985" y="1265" height="720px" width="720px" />
                           </g>
                           <g id="s1ehk68z" class="stem">
                              <rect x="2985" y="1293" height="780" width="18" />
                           </g>
                        </g>
                        <g id="n66w9nc" class="note">
                           <g class="notehead">
                              <use xlink:href="#E0A4-vmzuls" x="3384" y="1355" height="720px" width="720px" />
                           </g>
                           <g id="sbh9qhe" class="stem">
                              <rect x="3384" y="1383" height="704" width="18" />
                           </g>
                        </g>
                        <g id="n1fhz1ma" class="note">
                           <g class="notehead">
                              <use xlink:href="#E0A4-vmzuls" x="3784" y="1445" height="720px" width="720px" />
                           </g>
                           <g id="s1pqk0ab" class="stem">
                              <rect x="3784" y="1473" height="629" width="18" />
                           </g>
                        </g>
                     </g>
                  </g>
               </g>
               <g id="b12jqyli" class="barLine">
                  <path d="M4184 1085 L4184 1805" stroke="currentColor" stroke-width="27" />
               </g>
            </g>
            <g id="m1wendd6" class="measure">
               <g id="sir8mt8" class="staff">
                  <path d="M4197 1085 L6798 1085" stroke="currentColor" stroke-width="13" />
                  <path d="M4197 1265 L6798 1265" stroke="currentColor" stroke-width="13" />
                  <path d="M4197 1445 L6798 1445" stroke="currentColor" stroke-width="13" />
                  <path d="M4197 1625 L6798 1625" stroke="currentColor" stroke-width="13" />
                  <path d="M4197 1805 L6798 1805" stroke="currentColor" stroke-width="13" />
                  <g id="l146y8qg" class="layer">
                     <g id="b18k7t0z" class="beam">
                        <polygon points="4383,2075 5001,1895 5001,1805 4383,1985" />
                        <g id="n1bn8mch" class="note">
                           <g class="notehead">
                              <use xlink:href="#E0A4-vmzuls" x="4383" y="1535" height="720px" width="720px" />
                           </g>
                           <g id="sw7540p" class="stem">
                              <rect x="4383" y="1563" height="494" width="18" />
                           </g>
                        </g>
                        <g id="ni2pv2" class="note">
                           <g class="notehead">
                              <use xlink:href="#E0A4-vmzuls" x="4983" y="1355" height="720px" width="720px" />
                           </g>
                           <g id="sgwl1z9" class="stem">
                              <rect x="4983" y="1383" height="494" width="18" />
                           </g>
                        </g>
                     </g>
                     <g id="b4gw9jl" class="beam">
                        <polygon points="5584,1895 6203,1805 6203,1715 5584,1805" />
                        <g id="n1amgvb0" class="note">
                           <g class="notehead">
                              <use xlink:href="#E0A4-vmzuls" x="5584" y="1265" height="720px" width="720px" />
                           </g>
                           <g id="s1qtwzuc" class="stem">
                              <rect x="5584" y="1293" height="584" width="18" />
                           </g>
                        </g>
                        <g id="nvifbay" class="note">
                           <g class="notehead">
                              <use xlink:href="#E0A4-vmzuls" x="6185" y="1175" height="720px" width="720px" />
                           </g>
                           <g id="s110n5nc" class="stem">
                              <rect x="6185" y="1203" height="584" width="18" />
                           </g>
                        </g>
                     </g>
                  </g>
               </g>
               <g id="bj3h53o" class="barLine">
                  <path d="M6785 1085 L6785 1805" stroke="currentColor" stroke-width="27" />
               </g>
            </g>
            <g id="m1qz8sbb" class="measure">
               <g id="s1jfauv7" class="staff">
                  <path d="M6798 1085 L10194 1085" stroke="currentColor" stroke-width="13" />
                  <path d="M6798 1265 L10194 1265" stroke="currentColor" stroke-width="13" />
                  <path d="M6798 1445 L10194 1445" stroke="currentColor" stroke-width="13" />
                  <path d="M6798 1625 L10194 1625" stroke="currentColor" stroke-width="13" />
                  <path d="M6798 1805 L10194 1805" stroke="currentColor" stroke-width="13" />
                  <g id="lezn44i" class="layer">
                     <g id="b1088fo" class="beam">
                        <polygon points="6984,1985 8201,2165 8201,2075 6984,1895" />
                        <polygon points="6984,1850 7393,1911 7393,1821 6984,1760" />
                        <polygon points="7393,1911 7792,1970 7792,1880 7393,1821" />
                        <polygon points="7792,1970 8201,2030 8201,1940 7792,1880" />
                        <g id="n1t1dhmy" class="note">
                           <g class="notehead">
                              <use xlink:href="#E0A4-vmzuls" x="6984" y="1265" height="720px" width="720px" />
                           </g>
                           <g id="s188vflm" class="stem">
                              <rect x="6984" y="1293" height="674" width="18" />
                           </g>
                        </g>
                        <g id="n14h36k8" class="note">
                           <g class="notehead">
                              <use xlink:href="#E0A4-vmzuls" x="7384" y="1355" height="720px" width="720px" />
                           </g>
                           <g id="s1alwwcz" class="stem">
                              <rect x="7384" y="1383" height="645" width="18" />
                           </g>
                        </g>
                        <g id="nwbjmmy" class="note">
                           <g class="notehead">
                              <use xlink:href="#E0A4-vmzuls" x="7783" y="1445" height="720px" width="720px" />
                           </g>
                           <g id="s1v4b0uu" class="stem">
                              <rect x="7783" y="1473" height="614" width="18" />
                           </g>
                        </g>
                        <g id="ny2hd30" class="note">
                           <g class="notehead">
                              <use xlink:href="#E0A4-vmzuls" x="8183" y="1535" height="720px" width="720px" />
                           </g>
                           <g id="s1ms1dcj" class="stem">
                              <rect x="8183" y="1563" height="584" width="18" />
                           </g>
                        </g>
                     </g>
                     <g id="b1f87ir0" class="beam">
                        <polygon points="8583,2075 9800,2120 9800,2030 8583,1985" />
                        <polygon points="8583,1940 8991,1955 8991,1865 8583,1850" />
                        <polygon points="8991,1955 9391,1970 9391,1880 8991,1865" />
                        <polygon points="9391,1970 9800,1985 9800,1895 9391,1880" />
                        <g id="nw3zmig" class="note">
                           <g class="notehead">
                              <use xlink:href="#E0A4-vmzuls" x="8583" y="1355" height="720px" width="720px" />
                           </g>
                           <g id="s1qo3by5" class="stem">
                              <rect x="8583" y="1383" height="674" width="18" />
                           </g>
                        </g>
                        <g id="n8y8qnd" class="note">
                           <g class="notehead">
                              <use xlink:href="#E0A4-vmzuls" x="8982" y="1265" height="720px" width="720px" />
                           </g>
                           <g id="s1282b60" class="stem">
                              <rect x="8982" y="1293" height="779" width="18" />
                           </g>
                        </g>
                        <g id="n1knanev" class="note">
                           <g class="notehead">
                              <use xlink:href="#E0A4-vmzuls" x="9382" y="1355" height="720px" width="720px" />
                           </g>
                           <g id="s1sdkah3" class="stem">
                              <rect x="9382" y="1383" height="704" width="18" />
                           </g>
                        </g>
                        <g id="n1blzfsy" class="note">
                           <g class="notehead">
                              <use xlink:href="#E0A4-vmzuls" x="9782" y="1445" height="720px" width="720px" />
                           </g>
                           <g id="sqa7o85" class="stem">
                              <rect x="9782" y="1473" height="629" width="18" />
                           </g>
                        </g>
                     </g>
                  </g>
               </g>
               <g id="b1a0gf30" class="barLine">
                  <path d="M10181 1085 L10181 1805" stroke="currentColor" stroke-width="27" />
               </g>
            </g>
            <g id="m1ap2fw2" class="measure">
               <g id="smntp5r" class="staff">
                  <path d="M10194 1085 L12795 1085" stroke="currentColor" stroke-width="13" />
                  <path d="M10194 1265 L12795 1265" stroke="currentColor" stroke-width="13" />
                  <path d="M10194 1445 L12795 1445" stroke="currentColor" stroke-width="13" />
                  <path d="M10194 1625 L12795 1625" stroke="currentColor" stroke-width="13" />
                  <path d="M10194 1805 L12795 1805" stroke="currentColor" stroke-width="13" />
                  <g id="lorx6s8" class="layer">
                     <g id="b1cke0x2" class="beam">
                        <polygon points="10380,2075 10998,1895 10998,1805 10380,1985" />
                        <g id="n1k2jf7m" class="note">
                           <g class="notehead">
                              <use xlink:href="#E0A4-vmzuls" x="10380" y="1535" height="720px" width="720px" />
                           </g>
                           <g id="sgm83gv" class="stem">
                              <rect x="10380" y="1563" height="494" width="18" />
                           </g>
                        </g>
                        <g id="n1v1ixbw" class="note">
                           <g class="notehead">
                              <use xlink:href="#E0A4-vmzuls" x="10980" y="1355" height="720px" width="720px" />
                           </g>
                           <g id="s1hjkknw" class="stem">
                              <rect x="10980" y="1383" height="494" width="18" />
                           </g>
                        </g>
                     </g>
                     <g id="b13xid4s" class="beam">
                        <polygon points="11581,1895 12200,1805 12200,1715 11581,1805" />
                        <g id="nkf3w5b" class="note">
                           <g class="notehead">
                              <use xlink:href="#E0A4-vmzuls" x="11581" y="1265" height="720px" width="720px" />
                           </g>
                           <g id="s1f613x4" class="stem">
                              <rect x="11581" y="1293" height="584" width="18" />
                           </g>
                        </g>
                        <g id="nqmsbd9" class="note">
                           <g class="notehead">
                              <use xlink:href="#E0A4-vmzuls" x="12182" y="1175" height="720px" width="720px" />
                           </g>
                           <g id="si1wvfn" class="stem">
                              <rect x="12182" y="1203" height="584" width="18" />
                           </g>
                        </g>
                     </g>
                  </g>
               </g>
               <g id="b1d85a15" class="barLine">
                  <path d="M12782 1085 L12782 1805" stroke="currentColor" stroke-width="27" />
               </g>
            </g>
            <g id="mwb4iq1" class="measure">
               <g id="s15df876" class="staff">
                  <path d="M12795 1085 L14738 1085" stroke="currentColor" stroke-width="13" />
                  <path d="M12795 1265 L14738 1265" stroke="currentColor" stroke-width="13" />
                  <path d="M12795 1445 L14738 1445" stroke="currentColor" stroke-width="13" />
                  <path d="M12795 1625 L14738 1625" stroke="currentColor" stroke-width="13" />
                  <path d="M12795 1805 L14738 1805" stroke="currentColor" stroke-width="13" />
                  <g id="m1j1j4a9" class="meterSig">
                     <use xlink:href="#E081-vmzuls" x="12904" y="1265" height="720px" width="720px" />
                     <use xlink:href="#E084-vmzuls" x="12871" y="1625" height="720px" width="720px" />
                  </g>
                  <g id="lhid7go" class="layer">
                     <g id="n1bynny5" class="note">
                        <g class="notehead">
                           <use xlink:href="#E0A4-vmzuls" x="13439" y="1535" height="720px" width="720px" />
                        </g>
                        <g id="s1elduyo" class="stem">
                           <rect x="13647" y="905" height="602" width="18" />
                        </g>
                     </g>
                  </g>
               </g>
               <g id="b11u6v8y" class="barLine">
                  <path d="M14360 1085 L14360 1805" stroke="currentColor" stroke-width="27" />
                  <path d="M14490 1085 L14490 1805" stroke="currentColor" stroke-width="90" />
                  <path d="M14621 1085 L14621 1805" stroke="currentColor" stroke-width="27" />
                  <use xlink:href="#E044-vmzuls" x="14666" y="1355" height="720px" width="720px" />
                  <use xlink:href="#E044-vmzuls" x="14666" y="1535" height="720px" width="720px" />
                  <use xlink:href="#E044-vmzuls" x="14243" y="1355" height="720px" width="720px" />
                  <use xlink:href="#E044-vmzuls" x="14243" y="1535" height="720px" width="720px" />
               </g>
            </g>
            <g id="mlp16uu" class="measure">
               <g id="s1yqfj9" class="staff">
                  <path d="M14738 1085 L16536 1085" stroke="currentColor" stroke-width="13" />
                  <path d="M14738 1265 L16536 1265" stroke="currentColor" stroke-width="13" />
                  <path d="M14738 1445 L16536 1445" stroke="currentColor" stroke-width="13" />
                  <path d="M14738 1625 L16536 1625" stroke="currentColor" stroke-width="13" />
                  <path d="M14738 1805 L16536 1805" stroke="currentColor" stroke-width="13" />
                  <g id="l7irbmg" class="layer">
                     <g id="b1rw5yjf" class="beam">
                        <polygon points="14924,2075 16141,2120 16141,2030 14924,1985" />
                        <polygon points="14924,1940 15333,1956 15333,1866 14924,1850" />
                        <polygon points="15333,1956 15732,1970 15732,1880 15333,1866" />
                        <polygon points="15732,1970 16141,1985 16141,1895 15732,1880" />
                        <g id="n14svhdb" class="note">
                           <g class="notehead">
                              <use xlink:href="#E0A4-vmzuls" x="14924" y="1355" height="720px" width="720px" />
                           </g>
                           <g id="sxozm3x" class="stem">
                              <rect x="14924" y="1383" height="674" width="18" />
                           </g>
                        </g>
                        <g id="n1c1idtd" class="note">
                           <g class="notehead">
                              <use xlink:href="#E0A4-vmzuls" x="15324" y="1265" height="720px" width="720px" />
                           </g>
                           <g id="s1caaww9" class="stem">
                              <rect x="15324" y="1293" height="780" width="18" />
                           </g>
                        </g>
                        <g id="n13odaf" class="note">
                           <g class="notehead">
                              <use xlink:href="#E0A4-vmzuls" x="15723" y="1355" height="720px" width="720px" />
                           </g>
                           <g id="s1ue7ic" class="stem">
                              <rect x="15723" y="1383" height="704" width="18" />
                           </g>
                        </g>
                        <g id="nywh4" class="note">
                           <g class="notehead">
                              <use xlink:href="#E0A4-vmzuls" x="16123" y="1445" height="720px" width="720px" />
                           </g>
                           <g id="s12gw6dd" class="stem">
                              <rect x="16123" y="1473" height="629" width="18" />
                           </g>
                        </g>
                     </g>
                  </g>
               </g>
               <g id="bmtj8oy" class="barLine">
                  <path d="M16523 1085 L16523 1805" stroke="currentColor" stroke-width="27" />
               </g>
            </g>
            <g id="m9ojyr9" class="measure">
               <g id="s1ax78n3" class="staff">
                  <path d="M16536 1085 L20004 1085" stroke="currentColor" stroke-width="13" />
                  <path d="M16536 1265 L20004 1265" stroke="currentColor" stroke-width="13" />
                  <path d="M16536 1445 L20004 1445" stroke="currentColor" stroke-width="13" />
                  <path d="M16536 1625 L20004 1625" stroke="currentColor" stroke-width="13" />
                  <path d="M16536 1805 L20004 1805" stroke="currentColor" stroke-width="13" />
                  <g id="mytzkkm" class="meterSig">
                     <use xlink:href="#E082-vmzuls" x="16612" y="1265" height="720px" width="720px" />
                     <use xlink:href="#E084-vmzuls" x="16617" y="1625" height="720px" width="720px" />
                  </g>
                  <g id="l1b8mo51" class="layer">
                     <g id="b7vv424" class="beam">
                        <polygon points="17399,905 18417,905 18417,995 17399,995" />
                        <polygon points="18008,1040 18417,1040 18417,1130 18008,1130" />
                        <g id="np3viqh" class="note">
                           <g class="notehead">
                              <use xlink:href="#E0A4-vmzuls" x="17191" y="1535" height="720px" width="720px" />
                           </g>
                           <g id="sk82m9i" class="stem">
                              <rect x="17399" y="923" height="584" width="18" />
                           </g>
                        </g>
                        <g id="nk9sf3y" class="note">
                           <g class="notehead">
                              <use xlink:href="#E0A4-vmzuls" x="17791" y="1625" height="720px" width="720px" />
                           </g>
                           <g id="ssdh3cv" class="stem">
                              <rect x="17999" y="923" height="674" width="18" />
                           </g>
                        </g>
                        <g id="nx4rwv1" class="note">
                           <g class="notehead">
                              <use xlink:href="#E0A4-vmzuls" x="18191" y="1535" height="720px" width="720px" />
                           </g>
                           <g id="s89b23g" class="stem">
                              <rect x="18399" y="923" height="584" width="18" />
                           </g>
                        </g>
                     </g>
                     <g id="bp7dwfa" class="beam">
                        <polygon points="18591,2120 19609,2120 19609,2030 18591,2030" />
                        <polygon points="19200,1985 19609,1985 19609,1895 19200,1895" />
                        <g id="nqtze5j" class="note">
                           <g class="notehead">
                              <use xlink:href="#E0A4-vmzuls" x="18591" y="1355" height="720px" width="720px" />
                           </g>
                           <g id="s2rsaa3" class="stem">
                              <rect x="18591" y="1383" height="719" width="18" />
                           </g>
                        </g>
                        <g id="n1pcswvx" class="note">
                           <g class="notehead">
                              <use xlink:href="#E0A4-vmzuls" x="19191" y="1535" height="720px" width="720px" />
                           </g>
                           <g id="s17ei3px" class="stem">
                              <rect x="19191" y="1563" height="539" width="18" />
                           </g>
                        </g>
                        <g id="nnp9pkw" class="note">
                           <g class="notehead">
                              <use xlink:href="#E0A4-vmzuls" x="19591" y="1445" height="720px" width="720px" />
                           </g>
                           <g id="sg44hln" class="stem">
                              <rect x="19591" y="1473" height="629" width="18" />
                           </g>
                        </g>
                     </g>
                  </g>
               </g>
               <g id="b1t52zqa" class="barLine">
                  <path d="M19991 1085 L19991 1805" stroke="currentColor" stroke-width="27" />
               </g>
            </g>
         </g>
         <g id="snfgvj7" class="system">
            <g id="l3kch80" class="labelAbbr">
               <text x="914" y="3875" text-anchor="end" font-size="0px">
                  <tspan id="tbx8s51" class="text">
                     <tspan font-size="405px" class="text">Pno.</tspan>
                  </tspan>
               </text>
            </g>
            <g id="mq6wze6" class="measure">
               <g id="m1mxmkzy" class="mNum autogenerated">
                  <text x="1094" y="3182" text-anchor="middle" font-size="0px">
                     <tspan id="t1b5lztv" class="text">
                        <tspan font-size="324px" class="text">7</tspan>
                     </tspan>
                  </text>
               </g>
               <g id="sly1hfd" class="staff">
                  <path d="M1094 3425 L4650 3425" stroke="currentColor" stroke-width="13" />
                  <path d="M1094 3605 L4650 3605" stroke="currentColor" stroke-width="13" />
                  <path d="M1094 3785 L4650 3785" stroke="currentColor" stroke-width="13" />
                  <path d="M1094 3965 L4650 3965" stroke="currentColor" stroke-width="13" />
                  <path d="M1094 4145 L4650 4145" stroke="currentColor" stroke-width="13" />
                  <g id="c7flwm1" class="clef">
                     <use xlink:href="#E050-vmzuls" x="1184" y="3965" height="720px" width="720px" />
                  </g>
                  <g id="k1p6c6dj" class="keySig" />
                  <g id="leamtmy" class="layer">
                     <g id="b1pjhswq" class="beam">
                        <polygon points="1919,4235 2520,4415 2520,4325 1919,4145" />
                        <g id="n185bg3x" class="note">
                           <g class="notehead">
                              <use xlink:href="#E0A4-vmzuls" x="1919" y="3695" height="720px" width="720px" />
                           </g>
                           <g id="s1t5apzg" class="stem">
                              <rect x="1919" y="3723" height="494" width="18" />
                           </g>
                        </g>
                        <g id="n1hq8wpv" class="note">
                           <g class="notehead">
                              <use xlink:href="#E0A4-vmzuls" x="2502" y="3875" height="720px" width="720px" />
                           </g>
                           <g id="san8fnt" class="stem">
                              <rect x="2502" y="3903" height="494" width="18" />
                           </g>
                        </g>
                     </g>
                     <g id="b1nvojct" class="beam">
                        <polygon points="3085,4415 4267,4460 4267,4370 3085,4325" />
                        <polygon points="3085,4280 3482,4295 3482,4205 3085,4190" />
                        <polygon points="3482,4295 3870,4310 3870,4220 3482,4205" />
                        <polygon points="3870,4310 4267,4325 4267,4235 3870,4220" />
                        <g id="n11jdaud" class="note">
                           <g class="notehead">
                              <use xlink:href="#E0A4-vmzuls" x="3085" y="3695" height="720px" width="720px" />
                           </g>
                           <g id="s1b98iko" class="stem">
                              <rect x="3085" y="3723" height="674" width="18" />
                           </g>
                        </g>
                        <g id="nuzlevs" class="note">
                           <g class="notehead">
                              <use xlink:href="#E0A4-vmzuls" x="3473" y="3605" height="720px" width="720px" />
                           </g>
                           <g id="s15m3g1v" class="stem">
                              <rect x="3473" y="3633" height="779" width="18" />
                           </g>
                        </g>
                        <g id="ncwovmf" class="note">
                           <g class="notehead">
                              <use xlink:href="#E0A4-vmzuls" x="3861" y="3695" height="720px" width="720px" />
                           </g>
                           <g id="sc026dm" class="stem">
                              <rect x="3861" y="3723" height="704" width="18" />
                           </g>
                        </g>
                        <g id="n2ukut" class="note">
                           <g class="notehead">
                              <use xlink:href="#E0A4-vmzuls" x="4249" y="3785" height="720px" width="720px" />
                           </g>
                           <g id="s8xzajt" class="stem">
                              <rect x="4249" y="3813" height="629" width="18" />
                           </g>
                        </g>
                     </g>
                  </g>
               </g>
               <g id="b1xuxb1d" class="barLine">
                  <path d="M4637 3425 L4637 4145" stroke="currentColor" stroke-width="27" />
               </g>
            </g>
            <g id="st7wjpj" class="sb" />
            <g id="m1jz5fnp" class="measure">
               <g id="sg5vynh" class="staff">
                  <path d="M4650 3425 L7368 3425" stroke="currentColor" stroke-width="13" />
                  <path d="M4650 3605 L7368 3605" stroke="currentColor" stroke-width="13" />
                  <path d="M4650 3785 L7368 3785" stroke="currentColor" stroke-width="13" />
                  <path d="M4650 3965 L7368 3965" stroke="currentColor" stroke-width="13" />
                  <path d="M4650 4145 L7368 4145" stroke="currentColor" stroke-width="13" />
                  <g id="ly8wf62" class="layer">
                     <g id="b1n5ng6h" class="beam">
                        <polygon points="5038,3245 6027,3245 6027,3335 5038,3335" />
                        <polygon points="5630,3380 6027,3380 6027,3470 5630,3470" />
                        <g id="n1nvfwhl" class="note">
                           <g class="notehead">
                              <use xlink:href="#E0A4-vmzuls" x="4830" y="3875" height="720px" width="720px" />
                           </g>
                           <g id="ss4jipd" class="stem">
                              <rect x="5038" y="3263" height="584" width="18" />
                           </g>
                        </g>
                        <g id="nkf3762" class="note">
                           <g class="notehead">
                              <use xlink:href="#E0A4-vmzuls" x="5413" y="3965" height="720px" width="720px" />
                           </g>
                           <g id="s1ut0gjd" class="stem">
                              <rect x="5621" y="3263" height="674" width="18" />
                           </g>
                        </g>
                        <g id="n7zfc5n" class="note">
                           <g class="notehead">
                              <use xlink:href="#E0A4-vmzuls" x="5801" y="3875" height="720px" width="720px" />
                           </g>
                           <g id="s1i2b5xp" class="stem">
                              <rect x="6009" y="3263" height="584" width="18" />
                           </g>
                        </g>
                     </g>
                     <g id="bgou0ag" class="beam">
                        <polygon points="6189,4280 6790,4370 6790,4280 6189,4190" />
                        <g id="n1un69mp" class="note">
                           <g class="notehead">
                              <use xlink:href="#E0A4-vmzuls" x="6189" y="3695" height="720px" width="720px" />
                           </g>
                           <g id="sbh5zwl" class="stem">
                              <rect x="6189" y="3723" height="539" width="18" />
                           </g>
                        </g>
                        <g id="n1fju5bb" class="note">
                           <g class="notehead">
                              <use xlink:href="#E0A4-vmzuls" x="6772" y="3785" height="720px" width="720px" />
                           </g>
                           <g id="sqhgpgu" class="stem">
                              <rect x="6772" y="3813" height="539" width="18" />
                           </g>
                        </g>
                     </g>
                  </g>
               </g>
               <g id="bsrsphj" class="barLine">
                  <path d="M7355 3425 L7355 4145" stroke="currentColor" stroke-width="27" />
               </g>
            </g>
            <g id="m13uv88h" class="measure">
               <g id="sj8bglz" class="staff">
                  <path d="M7368 3425 L9075 3425" stroke="currentColor" stroke-width="13" />
                  <path d="M7368 3605 L9075 3605" stroke="currentColor" stroke-width="13" />
                  <path d="M7368 3785 L9075 3785" stroke="currentColor" stroke-width="13" />
                  <path d="M7368 3965 L9075 3965" stroke="currentColor" stroke-width="13" />
                  <path d="M7368 4145 L9075 4145" stroke="currentColor" stroke-width="13" />
                  <g id="m1xlek54" class="meterSig">
                     <use xlink:href="#E081-vmzuls" x="7477" y="3605" height="720px" width="720px" />
                     <use xlink:href="#E084-vmzuls" x="7444" y="3965" height="720px" width="720px" />
                  </g>
                  <g id="l1fs5juq" class="layer">
                     <g id="n1kaq3qc" class="note">
                        <g class="notehead">
                           <use xlink:href="#E0A4-vmzuls" x="8006" y="3875" height="720px" width="720px" />
                        </g>
                        <g id="s51f294" class="stem">
                           <rect x="8214" y="3245" height="602" width="18" />
                        </g>
                     </g>
                  </g>
               </g>
               <g id="b1nc7pq9" class="barLine">
                  <path d="M8900 3425 L8900 4145" stroke="currentColor" stroke-width="27" />
                  <path d="M9030 3425 L9030 4145" stroke="currentColor" stroke-width="90" />
               </g>
            </g>
            <g id="s512036" class="systemMilestoneEnd s1lc5cv8" />
         </g>
         <g id="p1684oi8" class="pageMilestoneEnd s1p420ew" />
         <g id="p1ujsmdv" class="pageMilestoneEnd miq0n7b" />
         <g id="pfrfux6" class="pgHead">
            <text x="0" y="0" font-size="0px">
               <tspan id="rbpzjcb" class="rend" x="10000" y="277" text-anchor="middle">
                  <tspan id="tvbln05" class="text">
                     <tspan font-size="405px" class="text">Air n 217</tspan>
                  </tspan>
               </tspan>
            </text>
         </g>
         <g id="p1cem2b9" class="pgFoot autogenerated">
            <g id="fubz2y9" class="fig">
               <g id="s1rgshea" class="svg" transform="translate(7750, 28099) scale(10, 10)">
                  <g>
                     <path fill="#00000" d="M 17.11278,49.26451 V 10.367554 h 12.696511 c 3.288815,7.336676 6.71267,14.610456 10.127281,21.888976 3.419998,-7.484684 6.255515,-14.204887 9.58887,-21.909915 2.436207,0.103726 4.316952,0.08453 6.484294,-0.05808 V 49.264423 H 50.274275 C 50.145222,38.35639 50.016136,27.448368 49.887066,16.540329 45.003488,27.315459 39.967448,38.433564 35.083854,49.208695 34.678996,49.343717 34.426583,49.135619 34.021726,49.270644 29.46588,39.330716 24.910049,29.390805 20.354201,19.450876 20.224341,29.388756 20.09461,39.326619 19.964815,49.264497 H 17.11278 Z M 36.754144,39.324695 C 32.721221,30.512695 28.6883,21.700679 24.655394,12.888662 22.530527,12.750737 22.656775,12.71031 20.714356,12.813974 v 0.966497 c 4.612938,9.99784 9.609439,20.748709 13.87298,30.081745 0.722248,-1.512523 1.444528,-3.025014 2.166808,-4.537521 z m 25.738417,9.939815 c 0,-12.965651 0,-25.931305 0,-38.896956 10.084388,0 20.168791,0 30.253178,0 0,0.960416 0,1.920849 0,2.881265 -6.482825,0 -12.965652,0 -19.448478,0 0,4.802097 0,9.604178 0,14.406277 5.52241,0 11.044819,0 16.567229,0 0,0.960415 0,1.920832 0,2.881248 -5.52241,0 -11.044819,0 -16.567229,0 0,5.282306 0,10.564611 0,15.846917 6.963035,0 13.926068,0 20.889103,0 0,0.960416 0,1.920832 0,2.881249 -10.564597,0 -21.129207,0 -31.693803,0 z m 4.321874,-2.160937 c 0,-11.765131 0,-23.530263 0,-35.295394 -0.720312,0 -1.440625,0 -2.160937,0 0,11.765131 0,23.530263 0,35.295394 0.720312,0 1.440625,0 2.160937,0 z m 32.41413,2.160937 c 0,-12.965651 0,-25.931305 0,-38.896956 2.401045,0 4.802095,0 7.203135,0 0,12.965651 0,25.931305 0,38.896956 -2.40104,0 -4.80209,0 -7.203135,0 z m 2.881265,-2.160937 c 0,-11.765131 0,-23.530263 0,-35.295394 -0.72031,0 -1.44064,0 -2.160953,0 0,11.765131 0,23.530263 0,35.295394 0.720313,0 1.440643,0 2.160953,0 z" />
                     <path fill="#00000" d="m 346.3,6.7 c -3.1,0.5 -4.9,4.4 -2.7,6.8 1.2,1.4 2.7,2.4 4.1,3.5 -2.4,5.3 -7.7,8.3 -11.9,12.1 -3.7,2.8 -7,6.2 -9.7,9.9 -2.2,-0.8 -0.3,-6.8 -0.6,-9.5 0.1,-3.1 0.7,-6.4 2.9,-8.7 1.3,-1.9 3,-3.5 4.5,-5.2 1.2,-3.4 -3.2,-4.9 -5.8,-4.6 -7.3,-0.5 -14.6,2 -20,6.8 -5,4.6 -10,10.1 -11.5,17 -0.9,3.5 -0.2,7.5 2.8,9.9 2.5,2.8 7.4,2.9 9.8,-0.2 1.7,-2.3 3.2,-4.8 3.8,-7.6 -0.1,-2.6 -4.4,-2.3 -4.3,0.2 1.2,2.4 -0.9,4.7 -2.7,6.2 -1.7,0.9 -4.7,0.7 -4.8,-1.7 -1,-5.8 2.1,-11.3 5.2,-16.1 4,-5.8 9.8,-11.2 17.2,-11.8 1.6,0 8.1,-1.2 6.8,1.4 -2.8,2.8 -5.6,6.1 -6,10.3 -1.6,7.7 0.1,15.7 -2.3,23.2 -1.1,3.9 2,2.6 2.5,0.2 3.3,-7.4 8.9,-13.4 15.1,-18.5 4.2,-3.9 9.5,-7.1 11.9,-12.6 1.3,-3.6 1.2,-9 -2.7,-10.9 -0.6,-0.2 -1.2,-0.3 -1.8,-0.3 z m 66,14.5 c -2,0.8 -1.8,4.9 0.8,4.4 3.4,0.4 2.9,-6.2 -0.8,-4.4 z m 0.6,7.3 c -1.3,0.5 -7.6,0.5 -5.4,2.2 4,-0.3 0.7,4.5 0.6,6.7 -0.4,2.9 -2.4,5.9 -1.2,8.8 2.7,1.7 5.6,-0.8 6.8,-3.2 1.6,-1.4 -0.5,-3 -1.2,-0.9 -0.4,0.8 -2.4,3.5 -2.6,1.8 1.1,-5 2.7,-9.9 3.9,-14.9 l -0.1,-0.5 h -0.9 z m -65.1,0.2 c -6.5,1.6 -10.5,9.5 -8.2,15.7 2.1,3.4 7.4,2.9 10.1,0.4 2,-0.2 3.6,-5.3 1,-3.4 -1.4,2 -4,4.2 -6.5,2.8 -2.2,-1.9 -1.9,-5.7 1.7,-5.3 3.1,-0.9 6.9,-2.1 8.1,-5.5 0.9,-2.7 -1.6,-5.2 -4.3,-4.8 h -1.1 -0.7 z m 13.6,0 c -2.2,0 -8.5,1.8 -2.9,2.3 0.9,1.9 -1,4.9 -1.1,7.2 -0.5,2.9 -1.4,5.7 -1.7,8.7 3.7,0.7 3.8,-2.6 4.4,-5.3 0.9,-3.3 1.6,-7 4.1,-9.5 2.4,1.6 6.8,-0.7 3.7,-3.4 -2.9,-0.5 -4.8,2.4 -6.2,4.3 0,-1.2 2.4,-5 -0.2,-4.3 z m 15.8,0 c -6.4,1.3 -9.6,9.1 -7.7,14.9 1.9,4 7.7,3.9 11,1.7 4.1,-3 6,-8.9 4.4,-13.7 -1.3,-3 -4.8,-3.2 -7.6,-3 z m 17,0 c -2.3,0 -8.8,1.9 -3,2.4 0.4,2.5 -1,5.7 -1.4,8.4 -0.7,2.4 -1.8,7.5 2.1,7.2 3.8,-0.1 6.5,-3.5 8.5,-6.3 2,-3.2 4.5,-7 3.3,-10.9 -3.7,-3 -3.6,2.6 -3.1,5.1 -0.7,3.8 -2.7,7.9 -6.2,9.8 -3.6,0.6 -1,-4.3 -0.8,-6.1 0.6,-3.2 1.6,-6.3 1.9,-9.5 -0.4,0 -0.8,0 -1.1,0 z m 30.6,0 c -6.3,1.2 -9.5,8.9 -7.8,14.7 1.5,4 7.2,4.2 10.5,2.4 4.6,-2.8 6.6,-9.3 4.8,-14.3 -1.4,-2.8 -4.8,-3 -7.5,-2.8 z m -75.4,1.7 c 2.1,1.5 0.2,4.7 -1.6,5.7 -1.1,0.4 -5.5,3.4 -4.6,0.7 0.8,-2.7 2.2,-6.2 5.3,-6.6 l 0.9,0.1 z m 30.8,0 c 2.6,1.5 1.3,5.2 0.8,7.6 -0.8,2.7 -1.9,5.9 -4.7,7.1 -5.1,0.8 -4,-5.8 -2.8,-8.8 1,-2.8 3,-6.8 6.7,-5.8 z m 47.1,-0.1 c 2.9,0.7 2,4.7 1.5,6.8 -0.7,3 -1.8,6.7 -5,8 -4.7,0.8 -4,-5.1 -3,-7.9 0.9,-3 2.7,-7.3 6.5,-6.8 z m -88.1,5.9 c -0.3,1.3 0.9,-0.6 0,0 z m -1.1,2.4 c -0.2,0.5 0.5,-0.1 0,0 z m -1.3,4.5 c -0.3,1.3 0.8,-0.2 0,0 z" />
                     <text y="41" x="201" fill="#00000" style="font-style:italic;font-weight:normal;font-size:30px;line-height:125%;font-family:Times;text-anchor:middle" xml:space="preserve">engraved with</text>
                  </g>
               </g>
            </g>
         </g>
      </g>
   </svg>
</svg>
