<?xml version="1.0" encoding="UTF-8" standalone="no"?>
<svg width="2100px" height="2970px" version="1.1" xmlns="http://www.w3.org/2000/svg" xmlns:xlink="http://www.w3.org/1999/xlink" xmlns:mei="http://www.music-encoding.org/ns/mei" overflow="visible">
   <desc>Engraved by Verovio 3.13.1</desc>
   <defs>
      <symbol id="E050-13fajuu" viewBox="0 0 1000 1000" overflow="inherit">
         <path transform="scale(1,-1)" d="M441 -245c-23 -4 -48 -6 -76 -6c-59 0 -102 7 -130 20c-88 42 -150 93 -187 154c-26 44 -43 103 -48 176c0 6 -1 13 -1 19c0 54 15 111 45 170c29 57 65 106 110 148s96 85 153 127c-3 16 -8 46 -13 92c-4 43 -5 73 -5 89c0 117 16 172 69 257c34 54 64 82 89 82 c21 0 43 -30 69 -92s39 -115 41 -159v-15c0 -109 -21 -162 -67 -241c-13 -20 -63 -90 -98 -118c-13 -9 -25 -19 -37 -29l31 -181c8 1 18 2 28 2c58 0 102 -12 133 -35c59 -43 92 -104 98 -184c1 -7 1 -15 1 -22c0 -123 -87 -209 -181 -248c8 -57 17 -110 25 -162 c5 -31 6 -58 6 -80c0 -30 -5 -53 -14 -70c-35 -64 -88 -99 -158 -103c-5 0 -11 -1 -16 -1c-37 0 -72 10 -108 27c-50 24 -77 59 -80 105v11c0 29 7 55 20 76c18 28 45 42 79 44h6c49 0 93 -42 97 -87v-9c0 -51 -34 -86 -105 -106c17 -24 51 -36 102 -36c62 0 116 43 140 85 c9 16 13 41 13 74c0 20 -1 42 -5 67c-8 53 -18 106 -26 159zM461 939c-95 0 -135 -175 -135 -286c0 -24 2 -48 5 -71c50 39 92 82 127 128c40 53 60 100 60 140v8c-4 53 -22 81 -55 81h-2zM406 119l54 -326c73 25 110 78 110 161c0 7 0 15 -1 23c-7 95 -57 142 -151 142h-12 zM382 117c-72 -2 -128 -47 -128 -120v-7c2 -46 43 -99 75 -115c-3 -2 -7 -5 -10 -10c-70 33 -116 88 -123 172v11c0 68 44 126 88 159c23 17 49 29 78 36l-29 170c-21 -13 -52 -37 -92 -73c-50 -44 -86 -84 -109 -119c-45 -69 -67 -130 -67 -182v-13c5 -68 35 -127 93 -176 s125 -73 203 -73c25 0 50 3 75 9c-19 111 -36 221 -54 331z" />
      </symbol>
      <symbol id="E086-13fajuu" viewBox="0 0 1000 1000" overflow="inherit">
         <path transform="scale(1,-1)" d="M284 -91c0 37 -28 92 -67 92c-35 0 -65 -54 -65 -111c0 -52 22 -104 68 -104c47 0 64 68 64 123zM230 214c-36 0 -90 -33 -90 -184l2 -36c40 24 81 36 120 36c80 0 140 -48 140 -121c0 -99 -99 -159 -182 -159c-160 0 -200 173 -200 244c0 21 2 43 7 71l10 35 c26 85 73 115 98 126c41 19 74 24 103 24c93 0 142 -63 142 -105c0 -58 -52 -72 -73 -72c-33 0 -59 24 -65 35c-3 5 -6 14 -7 25l11 30c6 15 9 27 9 35c0 11 -9 16 -25 16z" />
      </symbol>
      <symbol id="E088-13fajuu" viewBox="0 0 1000 1000" overflow="inherit">
         <path transform="scale(1,-1)" d="M195 -214c76 0 88 58 90 68c0 34 -35 60 -57 73l-52 29c-21 10 -32 17 -34 20c-39 -33 -58 -54 -62 -92c5 -23 23 -98 115 -98zM301 135c0 61 -72 76 -113 76c-40 0 -77 -17 -77 -51c3 -21 15 -38 26 -50c17 -15 33 -26 48 -34l65 -28c34 27 51 56 51 87zM176 -250 c-57 0 -166 26 -166 132c0 47 30 86 89 116c-33 15 -79 60 -79 119c0 79 85 132 178 132h18c5 0 21 1 28 -1c25 0 126 -30 126 -110c0 -37 -23 -76 -69 -116c43 -25 83 -71 83 -119c0 -101 -118 -153 -208 -153z" />
      </symbol>
      <symbol id="E0A4-13fajuu" viewBox="0 0 1000 1000" overflow="inherit">
         <path transform="scale(1,-1)" d="M0 -39c0 68 73 172 200 172c66 0 114 -37 114 -95c0 -84 -106 -171 -218 -171c-64 0 -96 30 -96 94z" />
      </symbol>
      <symbol id="E240-13fajuu" viewBox="0 0 1000 1000" overflow="inherit">
         <path transform="scale(1,-1)" d="M179 -646c15 29 29 55 46 102c18 49 30 108 30 138c0 105 -80 173 -168 200c-18 5 -47 9 -87 16v190h22c8 0 33 -61 71 -95c4 -3 -2 3 61 -56c62 -58 122 -137 122 -241c0 -38 -13 -106 -35 -163c-20 -51 -43 -99 -66 -132c-6 -5 -10 -7 -13 -7s-5 2 -5 5l4 10 c1 3 14 25 18 33z" />
      </symbol>
      <symbol id="E241-13fajuu" viewBox="0 0 1000 1000" overflow="inherit">
         <path transform="scale(1,-1)" d="M179 646c-4 8 -17 30 -18 33l-4 10c0 3 2 5 5 5s7 -2 13 -7c23 -33 46 -81 66 -132c22 -57 35 -125 35 -163c0 -104 -60 -183 -122 -241c-63 -59 -57 -53 -61 -56c-38 -34 -63 -95 -71 -95h-22v190c40 7 69 11 87 16c88 27 168 95 168 200c0 30 -12 89 -30 138 c-17 47 -31 73 -46 102z" />
      </symbol>
   </defs>
   <style type="text/css">g.page-margin{font-family:Times;} g.ending, g.fing, g.reh, g.tempo{font-weight:bold;} g.dir, g.dynam, g.mNum{font-style:italic;} g.label{font-weight:normal;}</style>
   <svg class="definition-scale" color="black" viewBox="0 0 21000 29700">
      <g class="page-margin" transform="translate(500, 500)">
         <g id="m1knyctc" class="mdiv pageMilestone" />
         <g id="s1lj252o" class="score pageMilestone" />
         <g id="s1tbtgze" class="system">
            <g id="l952eb3" class="label">
               <text x="1105" y="1535" text-anchor="end" font-size="0px">
                  <tspan id="t13tfp53" class="text">
                     <tspan font-size="405px" class="text">Piano</tspan>
                  </tspan>
               </text>
            </g>
            <g id="s1uuwl9i" class="section systemMilestone" />
            <g id="p1tngxbv" class="pb" />
            <g id="m1aeze03" class="measure">
               <g id="s7wvw0n" class="staff">
                  <path d="M1285 1085 L5477 1085" stroke="currentColor" stroke-width="13" />
                  <path d="M1285 1265 L5477 1265" stroke="currentColor" stroke-width="13" />
                  <path d="M1285 1445 L5477 1445" stroke="currentColor" stroke-width="13" />
                  <path d="M1285 1625 L5477 1625" stroke="currentColor" stroke-width="13" />
                  <path d="M1285 1805 L5477 1805" stroke="currentColor" stroke-width="13" />
                  <g id="c76l5rx" class="clef">
                     <use xlink:href="#E050-13fajuu" x="1375" y="1625" height="720px" width="720px" />
                  </g>
                  <g id="k17x05kz" class="keySig" />
                  <g id="m1kgy7du" class="meterSig">
                     <use xlink:href="#E086-13fajuu" x="2006" y="1265" height="720px" width="720px" />
                     <use xlink:href="#E088-13fajuu" x="2013" y="1625" height="720px" width="720px" />
                  </g>
                  <g id="l1uff7ts" class="layer">
                     <g id="bl4vezp" class="beam">
                        <polygon points="2565,1805 3631,1805 3631,1715 2565,1715" />
                        <g id="n1x3e6a8" class="note">
                           <g class="notehead">
                              <use xlink:href="#E0A4-13fajuu" x="2565" y="1175" height="720px" width="720px" />
                           </g>
                           <g id="s1imblen" class="stem">
                              <rect x="2565" y="1203" height="584" width="18" />
                           </g>
                        </g>
                        <g id="n6wi97n" class="note">
                           <g class="notehead">
                              <use xlink:href="#E0A4-13fajuu" x="3089" y="1085" height="720px" width="720px" />
                           </g>
                           <g id="szh0veo" class="stem">
                              <rect x="3089" y="1113" height="674" width="18" />
                           </g>
                        </g>
                        <g id="n74ks6m" class="note">
                           <g class="notehead">
                              <use xlink:href="#E0A4-13fajuu" x="3613" y="1175" height="720px" width="720px" />
                           </g>
                           <g id="s1vucnt5" class="stem">
                              <rect x="3613" y="1203" height="584" width="18" />
                           </g>
                        </g>
                     </g>
                     <g id="n1dyigww" class="note">
                        <g class="notehead">
                           <use xlink:href="#E0A4-13fajuu" x="4136" y="1265" height="720px" width="720px" />
                        </g>
                        <g id="s1c089mk" class="stem">
                           <rect x="4136" y="1293" height="602" width="18" />
                        </g>
                     </g>
                     <g id="nnnyfmw" class="note">
                        <g class="notehead">
                           <use xlink:href="#E0A4-13fajuu" x="4940" y="1175" height="720px" width="720px" />
                        </g>
                        <g id="s2mdr8m" class="stem">
                           <rect x="4940" y="1203" height="602" width="18" />
                           <g id="f1gq5i56" class="flag">
                              <use xlink:href="#E241-13fajuu" x="4940" y="1805" height="720px" width="720px" />
                           </g>
                        </g>
                     </g>
                  </g>
               </g>
               <g id="b17taejy" class="barLine">
                  <path d="M5464 1085 L5464 1805" stroke="currentColor" stroke-width="27" />
               </g>
            </g>
            <g id="m1kn9npu" class="measure">
               <g id="s1l0xuyt" class="staff">
                  <path d="M5477 1085 L8325 1085" stroke="currentColor" stroke-width="13" />
                  <path d="M5477 1265 L8325 1265" stroke="currentColor" stroke-width="13" />
                  <path d="M5477 1445 L8325 1445" stroke="currentColor" stroke-width="13" />
                  <path d="M5477 1625 L8325 1625" stroke="currentColor" stroke-width="13" />
                  <path d="M5477 1805 L8325 1805" stroke="currentColor" stroke-width="13" />
                  <g id="l17wexm6" class="layer">
                     <g id="nnraflj" class="note">
                        <g class="notehead">
                           <use xlink:href="#E0A4-13fajuu" x="5657" y="1535" height="720px" width="720px" />
                        </g>
                        <g id="s1hgv4lr" class="stem">
                           <rect x="5865" y="905" height="602" width="18" />
                        </g>
                     </g>
                     <g id="nkflu4r" class="note">
                        <g class="notehead">
                           <use xlink:href="#E0A4-13fajuu" x="6461" y="1445" height="720px" width="720px" />
                        </g>
                        <g id="sgzupia" class="stem">
                           <rect x="6461" y="1473" height="572" width="18" />
                           <g id="f1xc2fjz" class="flag">
                              <use xlink:href="#E241-13fajuu" x="6461" y="2045" height="720px" width="720px" />
                           </g>
                        </g>
                     </g>
                     <g id="nbuts3l" class="note">
                        <g class="notehead">
                           <use xlink:href="#E0A4-13fajuu" x="6984" y="1355" height="720px" width="720px" />
                        </g>
                        <g id="s5aypwi" class="stem">
                           <rect x="6984" y="1383" height="602" width="18" />
                        </g>
                     </g>
                     <g id="nk5rzn7" class="note">
                        <g class="notehead">
                           <use xlink:href="#E0A4-13fajuu" x="7788" y="1265" height="720px" width="720px" />
                        </g>
                        <g id="s4iegqz" class="stem">
                           <rect x="7788" y="1293" height="602" width="18" />
                           <g id="f1estv0s" class="flag">
                              <use xlink:href="#E241-13fajuu" x="7788" y="1895" height="720px" width="720px" />
                           </g>
                        </g>
                     </g>
                  </g>
               </g>
               <g id="b1c6e7l1" class="barLine">
                  <path d="M8312 1085 L8312 1805" stroke="currentColor" stroke-width="27" />
               </g>
            </g>
            <g id="mfia39a" class="measure">
               <g id="sko3yrt" class="staff">
                  <path d="M8325 1085 L11417 1085" stroke="currentColor" stroke-width="13" />
                  <path d="M8325 1265 L11417 1265" stroke="currentColor" stroke-width="13" />
                  <path d="M8325 1445 L11417 1445" stroke="currentColor" stroke-width="13" />
                  <path d="M8325 1625 L11417 1625" stroke="currentColor" stroke-width="13" />
                  <path d="M8325 1805 L11417 1805" stroke="currentColor" stroke-width="13" />
                  <g id="l8hlggy" class="layer">
                     <g id="bt9hn13" class="beam">
                        <polygon points="8505,1805 9571,1805 9571,1715 8505,1715" />
                        <g id="n1f87vuz" class="note">
                           <g class="notehead">
                              <use xlink:href="#E0A4-13fajuu" x="8505" y="1175" height="720px" width="720px" />
                           </g>
                           <g id="s1mzrf74" class="stem">
                              <rect x="8505" y="1203" height="584" width="18" />
                           </g>
                        </g>
                        <g id="n1wuism2" class="note">
                           <g class="notehead">
                              <use xlink:href="#E0A4-13fajuu" x="9029" y="1085" height="720px" width="720px" />
                           </g>
                           <g id="sljwaes" class="stem">
                              <rect x="9029" y="1113" height="674" width="18" />
                           </g>
                        </g>
                        <g id="n1unwzqr" class="note">
                           <g class="notehead">
                              <use xlink:href="#E0A4-13fajuu" x="9553" y="1175" height="720px" width="720px" />
                           </g>
                           <g id="s1rviv3j" class="stem">
                              <rect x="9553" y="1203" height="584" width="18" />
                           </g>
                        </g>
                     </g>
                     <g id="n1o1kpoh" class="note">
                        <g class="notehead">
                           <use xlink:href="#E0A4-13fajuu" x="10076" y="1265" height="720px" width="720px" />
                        </g>
                        <g id="sq922mq" class="stem">
                           <rect x="10076" y="1293" height="602" width="18" />
                        </g>
                     </g>
                     <g id="n1mko0bi" class="note">
                        <g class="notehead">
                           <use xlink:href="#E0A4-13fajuu" x="10880" y="1175" height="720px" width="720px" />
                        </g>
                        <g id="s1tlcxzz" class="stem">
                           <rect x="10880" y="1203" height="602" width="18" />
                           <g id="f17avqyt" class="flag">
                              <use xlink:href="#E241-13fajuu" x="10880" y="1805" height="720px" width="720px" />
                           </g>
                        </g>
                     </g>
                  </g>
               </g>
               <g id="ba74z87" class="barLine">
                  <path d="M11404 1085 L11404 1805" stroke="currentColor" stroke-width="27" />
               </g>
            </g>
            <g id="mg3hx30" class="measure">
               <g id="s3w2fqz" class="staff">
                  <path d="M11417 1085 L14062 1085" stroke="currentColor" stroke-width="13" />
                  <path d="M11417 1265 L14062 1265" stroke="currentColor" stroke-width="13" />
                  <path d="M11417 1445 L14062 1445" stroke="currentColor" stroke-width="13" />
                  <path d="M11417 1625 L14062 1625" stroke="currentColor" stroke-width="13" />
                  <path d="M11417 1805 L14062 1805" stroke="currentColor" stroke-width="13" />
                  <g id="l7ph1a9" class="layer">
                     <g id="n3ci54f" class="note">
                        <g class="notehead">
                           <use xlink:href="#E0A4-13fajuu" x="11597" y="1355" height="720px" width="720px" />
                        </g>
                        <g id="s7en5uu" class="stem">
                           <rect x="11597" y="1383" height="602" width="18" />
                        </g>
                     </g>
                     <g id="n13ibqse" class="note">
                        <g class="notehead">
                           <use xlink:href="#E0A4-13fajuu" x="12401" y="1445" height="720px" width="720px" />
                        </g>
                        <g id="shgy10x" class="stem">
                           <rect x="12401" y="1473" height="572" width="18" />
                           <g id="f145xgzj" class="flag">
                              <use xlink:href="#E241-13fajuu" x="12401" y="2045" height="720px" width="720px" />
                           </g>
                        </g>
                     </g>
                     <g id="n1tfhgr5" class="note">
                        <g class="notehead">
                           <use xlink:href="#E0A4-13fajuu" x="12924" y="1535" height="720px" width="720px" />
                        </g>
                        <g id="d9jf8us" class="dots">
                           <ellipse cx="13240" cy="1535" rx="36" ry="36" />
                        </g>
                        <g id="sgvcnd" class="stem">
                           <rect x="13132" y="905" height="602" width="18" />
                        </g>
                     </g>
                  </g>
               </g>
               <g id="b59wnvv" class="barLine">
                  <path d="M13950 1085 L13950 1805" stroke="currentColor" stroke-width="27" />
                  <path d="M14049 1085 L14049 1805" stroke="currentColor" stroke-width="27" />
               </g>
            </g>
            <g id="mig6pkz" class="measure">
               <g id="s1yuva89" class="staff">
                  <path d="M14062 1085 L17154 1085" stroke="currentColor" stroke-width="13" />
                  <path d="M14062 1265 L17154 1265" stroke="currentColor" stroke-width="13" />
                  <path d="M14062 1445 L17154 1445" stroke="currentColor" stroke-width="13" />
                  <path d="M14062 1625 L17154 1625" stroke="currentColor" stroke-width="13" />
                  <path d="M14062 1805 L17154 1805" stroke="currentColor" stroke-width="13" />
                  <g id="l155k7ki" class="layer">
                     <g id="bf9uitw" class="beam">
                        <polygon points="14242,2030 15308,2030 15308,1940 14242,1940" />
                        <g id="n6gssbw" class="note">
                           <g class="notehead">
                              <use xlink:href="#E0A4-13fajuu" x="14242" y="1445" height="720px" width="720px" />
                           </g>
                           <g id="s1iw87xm" class="stem">
                              <rect x="14242" y="1473" height="539" width="18" />
                           </g>
                        </g>
                        <g id="n1tm2oqf" class="note">
                           <g class="notehead">
                              <use xlink:href="#E0A4-13fajuu" x="14766" y="1445" height="720px" width="720px" />
                           </g>
                           <g id="s19uzuw" class="stem">
                              <rect x="14766" y="1473" height="539" width="18" />
                           </g>
                        </g>
                        <g id="nwxjkzq" class="note">
                           <g class="notehead">
                              <use xlink:href="#E0A4-13fajuu" x="15290" y="1445" height="720px" width="720px" />
                           </g>
                           <g id="su3lfit" class="stem">
                              <rect x="15290" y="1473" height="539" width="18" />
                           </g>
                        </g>
                     </g>
                     <g id="n19f0z0l" class="note">
                        <g class="notehead">
                           <use xlink:href="#E0A4-13fajuu" x="15813" y="1355" height="720px" width="720px" />
                        </g>
                        <g id="sbhd3c6" class="stem">
                           <rect x="15813" y="1383" height="602" width="18" />
                        </g>
                     </g>
                     <g id="nxrqle5" class="note">
                        <g class="notehead">
                           <use xlink:href="#E0A4-13fajuu" x="16617" y="1535" height="720px" width="720px" />
                        </g>
                        <g id="slnvf9u" class="stem">
                           <rect x="16825" y="905" height="602" width="18" />
                           <g id="ft8y3kz" class="flag">
                              <use xlink:href="#E240-13fajuu" x="16825" y="905" height="720px" width="720px" />
                           </g>
                        </g>
                     </g>
                  </g>
               </g>
               <g id="b1auenpu" class="barLine">
                  <path d="M17141 1085 L17141 1805" stroke="currentColor" stroke-width="27" />
               </g>
            </g>
            <g id="mvkcmjl" class="measure">
               <g id="s1vuo7ty" class="staff">
                  <path d="M17154 1085 L20002 1085" stroke="currentColor" stroke-width="13" />
                  <path d="M17154 1265 L20002 1265" stroke="currentColor" stroke-width="13" />
                  <path d="M17154 1445 L20002 1445" stroke="currentColor" stroke-width="13" />
                  <path d="M17154 1625 L20002 1625" stroke="currentColor" stroke-width="13" />
                  <path d="M17154 1805 L20002 1805" stroke="currentColor" stroke-width="13" />
                  <g id="l1glbvmj" class="layer">
                     <g id="n1vxsr20" class="note">
                        <g class="notehead">
                           <use xlink:href="#E0A4-13fajuu" x="17334" y="1445" height="720px" width="720px" />
                        </g>
                        <g id="scb6ekj" class="stem">
                           <rect x="17334" y="1473" height="572" width="18" />
                        </g>
                     </g>
                     <g id="n1rphxc" class="note">
                        <g class="notehead">
                           <use xlink:href="#E0A4-13fajuu" x="18138" y="1355" height="720px" width="720px" />
                        </g>
                        <g id="s3m7mlt" class="stem">
                           <rect x="18138" y="1383" height="602" width="18" />
                           <g id="fhejrww" class="flag">
                              <use xlink:href="#E241-13fajuu" x="18138" y="1985" height="720px" width="720px" />
                           </g>
                        </g>
                     </g>
                     <g id="ng8llsn" class="note">
                        <g class="notehead">
                           <use xlink:href="#E0A4-13fajuu" x="18661" y="1265" height="720px" width="720px" />
                        </g>
                        <g id="s1xw8vul" class="stem">
                           <rect x="18661" y="1293" height="602" width="18" />
                        </g>
                     </g>
                     <g id="nvvwkq7" class="note">
                        <g class="notehead">
                           <use xlink:href="#E0A4-13fajuu" x="19465" y="1445" height="720px" width="720px" />
                        </g>
                        <g id="s7ik700" class="stem">
                           <rect x="19465" y="1473" height="572" width="18" />
                           <g id="f1p9mnuo" class="flag">
                              <use xlink:href="#E241-13fajuu" x="19465" y="2045" height="720px" width="720px" />
                           </g>
                        </g>
                     </g>
                  </g>
               </g>
               <g id="bvyc57n" class="barLine">
                  <path d="M19989 1085 L19989 1805" stroke="currentColor" stroke-width="27" />
               </g>
            </g>
         </g>
         <g id="s6ky1kz" class="system">
            <g id="l1ql5260" class="labelAbbr">
               <text x="914" y="3884" text-anchor="end" font-size="0px">
                  <tspan id="t1kvx0q4" class="text">
                     <tspan font-size="405px" class="text">Pno.</tspan>
                  </tspan>
               </text>
            </g>
            <g id="m1auyd39" class="measure">
               <g id="m1gpzy9f" class="mNum autogenerated">
                  <text x="1094" y="3191" text-anchor="middle" font-size="0px">
                     <tspan id="tlvtaiu" class="text">
                        <tspan font-size="324px" class="text">7</tspan>
                     </tspan>
                  </text>
               </g>
               <g id="s81nffw" class="staff">
                  <path d="M1094 3434 L4847 3434" stroke="currentColor" stroke-width="13" />
                  <path d="M1094 3614 L4847 3614" stroke="currentColor" stroke-width="13" />
                  <path d="M1094 3794 L4847 3794" stroke="currentColor" stroke-width="13" />
                  <path d="M1094 3974 L4847 3974" stroke="currentColor" stroke-width="13" />
                  <path d="M1094 4154 L4847 4154" stroke="currentColor" stroke-width="13" />
                  <g id="cdqef29" class="clef">
                     <use xlink:href="#E050-13fajuu" x="1184" y="3974" height="720px" width="720px" />
                  </g>
                  <g id="k6k0ba4" class="keySig" />
                  <g id="lh5bia5" class="layer">
                     <g id="bq7ini4" class="beam">
                        <polygon points="1920,4199 2991,4199 2991,4109 1920,4109" />
                        <g id="n7a92m2" class="note">
                           <g class="notehead">
                              <use xlink:href="#E0A4-13fajuu" x="1920" y="3524" height="720px" width="720px" />
                           </g>
                           <g id="svpiqct" class="stem">
                              <rect x="1920" y="3552" height="629" width="18" />
                           </g>
                        </g>
                        <g id="n1abo4o7" class="note">
                           <g class="notehead">
                              <use xlink:href="#E0A4-13fajuu" x="2446" y="3614" height="720px" width="720px" />
                           </g>
                           <g id="st288s8" class="stem">
                              <rect x="2446" y="3642" height="539" width="18" />
                           </g>
                        </g>
                        <g id="n1s3vf74" class="note">
                           <g class="notehead">
                              <use xlink:href="#E0A4-13fajuu" x="2973" y="3524" height="720px" width="720px" />
                           </g>
                           <g id="slz2kao" class="stem">
                              <rect x="2973" y="3552" height="629" width="18" />
                           </g>
                        </g>
                     </g>
                     <g id="ng3t475" class="note">
                        <g class="notehead">
                           <use xlink:href="#E0A4-13fajuu" x="3500" y="3884" height="720px" width="720px" />
                        </g>
                        <g id="s148qxqz" class="stem">
                           <rect x="3708" y="3254" height="602" width="18" />
                        </g>
                     </g>
                     <g id="n1khkpj4" class="note">
                        <g class="notehead">
                           <use xlink:href="#E0A4-13fajuu" x="4308" y="3794" height="720px" width="720px" />
                        </g>
                        <g id="s13vwbqp" class="stem">
                           <rect x="4308" y="3822" height="572" width="18" />
                           <g id="fm37gmz" class="flag">
                              <use xlink:href="#E241-13fajuu" x="4308" y="4394" height="720px" width="720px" />
                           </g>
                        </g>
                     </g>
                  </g>
               </g>
               <g id="b1n1ohnt" class="barLine">
                  <path d="M4834 3434 L4834 4154" stroke="currentColor" stroke-width="27" />
               </g>
            </g>
            <g id="m1lgloqg" class="measure">
               <g id="s1rk6qad" class="staff">
                  <path d="M4847 3434 L7955 3434" stroke="currentColor" stroke-width="13" />
                  <path d="M4847 3614 L7955 3614" stroke="currentColor" stroke-width="13" />
                  <path d="M4847 3794 L7955 3794" stroke="currentColor" stroke-width="13" />
                  <path d="M4847 3974 L7955 3974" stroke="currentColor" stroke-width="13" />
                  <path d="M4847 4154 L7955 4154" stroke="currentColor" stroke-width="13" />
                  <g id="lqnbt3g" class="layer">
                     <g id="bghmuwl" class="beam">
                        <polygon points="5028,4244 6099,4424 6099,4334 5028,4154" />
                        <g id="n1jvffi1" class="note">
                           <g class="notehead">
                              <use xlink:href="#E0A4-13fajuu" x="5028" y="3704" height="720px" width="720px" />
                           </g>
                           <g id="sqdy5xb" class="stem">
                              <rect x="5028" y="3732" height="494" width="18" />
                           </g>
                        </g>
                        <g id="nzy0bkp" class="note">
                           <g class="notehead">
                              <use xlink:href="#E0A4-13fajuu" x="5554" y="3794" height="720px" width="720px" />
                           </g>
                           <g id="s2fohnf" class="stem">
                              <rect x="5554" y="3822" height="494" width="18" />
                           </g>
                        </g>
                        <g id="n1jha1qv" class="note">
                           <g class="notehead">
                              <use xlink:href="#E0A4-13fajuu" x="6081" y="3884" height="720px" width="720px" />
                           </g>
                           <g id="s4l5w8g" class="stem">
                              <rect x="6081" y="3912" height="494" width="18" />
                           </g>
                        </g>
                     </g>
                     <g id="n1gym7tk" class="note">
                        <g class="notehead">
                           <use xlink:href="#E0A4-13fajuu" x="6608" y="3974" height="720px" width="720px" />
                        </g>
                        <g id="s1b5tid1" class="stem">
                           <rect x="6816" y="3344" height="602" width="18" />
                        </g>
                     </g>
                     <g id="n1bwp9fw" class="note">
                        <g class="notehead">
                           <use xlink:href="#E0A4-13fajuu" x="7416" y="3884" height="720px" width="720px" />
                        </g>
                        <g id="sz2a64f" class="stem">
                           <rect x="7624" y="3254" height="602" width="18" />
                           <g id="f14d151z" class="flag">
                              <use xlink:href="#E240-13fajuu" x="7624" y="3254" height="720px" width="720px" />
                           </g>
                        </g>
                     </g>
                  </g>
               </g>
               <g id="b1u93g6v" class="barLine">
                  <path d="M7942 3434 L7942 4154" stroke="currentColor" stroke-width="27" />
               </g>
            </g>
            <g id="sinskrs" class="sb" />
            <g id="m7vzs6k" class="measure">
               <g id="s12926xs" class="staff">
                  <path d="M7955 3434 L11063 3434" stroke="currentColor" stroke-width="13" />
                  <path d="M7955 3614 L11063 3614" stroke="currentColor" stroke-width="13" />
                  <path d="M7955 3794 L11063 3794" stroke="currentColor" stroke-width="13" />
                  <path d="M7955 3974 L11063 3974" stroke="currentColor" stroke-width="13" />
                  <path d="M7955 4154 L11063 4154" stroke="currentColor" stroke-width="13" />
                  <g id="lh3qsie" class="layer">
                     <g id="b1wlb06" class="beam">
                        <polygon points="8344,3209 9415,3209 9415,3299 8344,3299" />
                        <g id="n1rjjesy" class="note">
                           <g class="notehead">
                              <use xlink:href="#E0A4-13fajuu" x="8136" y="3794" height="720px" width="720px" />
                           </g>
                           <g id="s19hzzk8" class="stem">
                              <rect x="8344" y="3227" height="539" width="18" />
                           </g>
                        </g>
                        <g id="n1fdloga" class="note">
                           <g class="notehead">
                              <use xlink:href="#E0A4-13fajuu" x="8662" y="3884" height="720px" width="720px" />
                           </g>
                           <g id="s1x04fu4" class="stem">
                              <rect x="8870" y="3227" height="629" width="18" />
                           </g>
                        </g>
                        <g id="npcbizu" class="note">
                           <g class="notehead">
                              <use xlink:href="#E0A4-13fajuu" x="9189" y="3794" height="720px" width="720px" />
                           </g>
                           <g id="sy60rbb" class="stem">
                              <rect x="9397" y="3227" height="539" width="18" />
                           </g>
                        </g>
                     </g>
                     <g id="neoxt0e" class="note">
                        <g class="notehead">
                           <use xlink:href="#E0A4-13fajuu" x="9716" y="3704" height="720px" width="720px" />
                        </g>
                        <g id="s5iomfy" class="stem">
                           <rect x="9716" y="3732" height="602" width="18" />
                        </g>
                     </g>
                     <g id="newdkbb" class="note">
                        <g class="notehead">
                           <use xlink:href="#E0A4-13fajuu" x="10524" y="3884" height="720px" width="720px" />
                        </g>
                        <g id="s1uhe3sb" class="stem">
                           <rect x="10732" y="3254" height="602" width="18" />
                           <g id="f3pu1lo" class="flag">
                              <use xlink:href="#E240-13fajuu" x="10732" y="3254" height="720px" width="720px" />
                           </g>
                        </g>
                     </g>
                  </g>
               </g>
               <g id="bra5njw" class="barLine">
                  <path d="M11050 3434 L11050 4154" stroke="currentColor" stroke-width="27" />
               </g>
            </g>
            <g id="m15go41v" class="measure">
               <g id="s1c90h9h" class="staff">
                  <path d="M11063 3434 L13926 3434" stroke="currentColor" stroke-width="13" />
                  <path d="M11063 3614 L13926 3614" stroke="currentColor" stroke-width="13" />
                  <path d="M11063 3794 L13926 3794" stroke="currentColor" stroke-width="13" />
                  <path d="M11063 3974 L13926 3974" stroke="currentColor" stroke-width="13" />
                  <path d="M11063 4154 L13926 4154" stroke="currentColor" stroke-width="13" />
                  <g id="ln1fci1" class="layer">
                     <g id="n1p15490" class="note">
                        <g class="notehead">
                           <use xlink:href="#E0A4-13fajuu" x="11244" y="3794" height="720px" width="720px" />
                        </g>
                        <g id="s1a3xqgj" class="stem">
                           <rect x="11244" y="3822" height="572" width="18" />
                        </g>
                     </g>
                     <g id="ntsjq7y" class="note">
                        <g class="notehead">
                           <use xlink:href="#E0A4-13fajuu" x="12052" y="3704" height="720px" width="720px" />
                        </g>
                        <g id="sot514a" class="stem">
                           <rect x="12052" y="3732" height="602" width="18" />
                           <g id="f1d4svdr" class="flag">
                              <use xlink:href="#E241-13fajuu" x="12052" y="4334" height="720px" width="720px" />
                           </g>
                        </g>
                     </g>
                     <g id="nrx13oj" class="note">
                        <g class="notehead">
                           <use xlink:href="#E0A4-13fajuu" x="12578" y="3614" height="720px" width="720px" />
                        </g>
                        <g id="s1ydvll4" class="stem">
                           <rect x="12578" y="3642" height="602" width="18" />
                        </g>
                     </g>
                     <g id="n1h0uep0" class="note">
                        <g class="notehead">
                           <use xlink:href="#E0A4-13fajuu" x="13386" y="3794" height="720px" width="720px" />
                        </g>
                        <g id="s1lxdsn3" class="stem">
                           <rect x="13386" y="3822" height="572" width="18" />
                           <g id="frito7t" class="flag">
                              <use xlink:href="#E241-13fajuu" x="13386" y="4394" height="720px" width="720px" />
                           </g>
                        </g>
                     </g>
                  </g>
               </g>
               <g id="b1ynjc5t" class="barLine">
                  <path d="M13913 3434 L13913 4154" stroke="currentColor" stroke-width="27" />
               </g>
            </g>
            <g id="m1d4p2pr" class="measure">
               <g id="s17nlad" class="staff">
                  <path d="M13926 3434 L17034 3434" stroke="currentColor" stroke-width="13" />
                  <path d="M13926 3614 L17034 3614" stroke="currentColor" stroke-width="13" />
                  <path d="M13926 3794 L17034 3794" stroke="currentColor" stroke-width="13" />
                  <path d="M13926 3974 L17034 3974" stroke="currentColor" stroke-width="13" />
                  <path d="M13926 4154 L17034 4154" stroke="currentColor" stroke-width="13" />
                  <g id="l1kj3lha" class="layer">
                     <g id="b165jgil" class="beam">
                        <polygon points="14107,4199 15178,4199 15178,4109 14107,4109" />
                        <g id="n1nx2hyr" class="note">
                           <g class="notehead">
                              <use xlink:href="#E0A4-13fajuu" x="14107" y="3524" height="720px" width="720px" />
                           </g>
                           <g id="s1n0n3f4" class="stem">
                              <rect x="14107" y="3552" height="629" width="18" />
                           </g>
                        </g>
                        <g id="n18p0m5i" class="note">
                           <g class="notehead">
                              <use xlink:href="#E0A4-13fajuu" x="14633" y="3614" height="720px" width="720px" />
                           </g>
                           <g id="s2978an" class="stem">
                              <rect x="14633" y="3642" height="539" width="18" />
                           </g>
                        </g>
                        <g id="n1hcea10" class="note">
                           <g class="notehead">
                              <use xlink:href="#E0A4-13fajuu" x="15160" y="3524" height="720px" width="720px" />
                           </g>
                           <g id="sgs3vfr" class="stem">
                              <rect x="15160" y="3552" height="629" width="18" />
                           </g>
                        </g>
                     </g>
                     <g id="n1iav9xy" class="note">
                        <g class="notehead">
                           <use xlink:href="#E0A4-13fajuu" x="15687" y="3884" height="720px" width="720px" />
                        </g>
                        <g id="s18epcal" class="stem">
                           <rect x="15895" y="3254" height="602" width="18" />
                        </g>
                     </g>
                     <g id="n1kn3ckx" class="note">
                        <g class="notehead">
                           <use xlink:href="#E0A4-13fajuu" x="16495" y="3704" height="720px" width="720px" />
                        </g>
                        <g id="s1dpav8" class="stem">
                           <rect x="16495" y="3732" height="602" width="18" />
                           <g id="f1se8hcj" class="flag">
                              <use xlink:href="#E241-13fajuu" x="16495" y="4334" height="720px" width="720px" />
                           </g>
                        </g>
                     </g>
                  </g>
               </g>
               <g id="b11jw26x" class="barLine">
                  <path d="M17021 3434 L17021 4154" stroke="currentColor" stroke-width="27" />
               </g>
            </g>
            <g id="mre6hy3" class="measure">
               <g id="s12qdqu0" class="staff">
                  <path d="M17034 3434 L20001 3434" stroke="currentColor" stroke-width="13" />
                  <path d="M17034 3614 L20001 3614" stroke="currentColor" stroke-width="13" />
                  <path d="M17034 3794 L20001 3794" stroke="currentColor" stroke-width="13" />
                  <path d="M17034 3974 L20001 3974" stroke="currentColor" stroke-width="13" />
                  <path d="M17034 4154 L20001 4154" stroke="currentColor" stroke-width="13" />
                  <g id="l1ncqh54" class="layer">
                     <g id="b10q8rr2" class="beam">
                        <polygon points="17423,3209 18494,3389 18494,3479 17423,3299" />
                        <g id="nipz073" class="note">
                           <g class="notehead">
                              <use xlink:href="#E0A4-13fajuu" x="17215" y="3794" height="720px" width="720px" />
                           </g>
                           <g id="s9lgsru" class="stem">
                              <rect x="17423" y="3227" height="539" width="18" />
                           </g>
                        </g>
                        <g id="n1u1m1dj" class="note">
                           <g class="notehead">
                              <use xlink:href="#E0A4-13fajuu" x="17741" y="3884" height="720px" width="720px" />
                           </g>
                           <g id="s1lpxwhb" class="stem">
                              <rect x="17949" y="3317" height="539" width="18" />
                           </g>
                        </g>
                        <g id="n1axidu5" class="note">
                           <g class="notehead">
                              <use xlink:href="#E0A4-13fajuu" x="18268" y="3974" height="720px" width="720px" />
                           </g>
                           <g id="splci8x" class="stem">
                              <rect x="18476" y="3407" height="539" width="18" />
                           </g>
                        </g>
                     </g>
                     <g id="n125qafe" class="note">
                        <g class="notehead">
                           <use xlink:href="#E0A4-13fajuu" x="18795" y="3884" height="720px" width="720px" />
                        </g>
                        <g id="d1rwa8ak" class="dots">
                           <ellipse cx="19111" cy="3884" rx="36" ry="36" />
                        </g>
                        <g id="s1fa5z1i" class="stem">
                           <rect x="19003" y="3254" height="602" width="18" />
                        </g>
                     </g>
                  </g>
               </g>
               <g id="b66s1p0" class="barLine">
                  <path d="M19826 3434 L19826 4154" stroke="currentColor" stroke-width="27" />
                  <path d="M19956 3434 L19956 4154" stroke="currentColor" stroke-width="90" />
               </g>
            </g>
            <g id="sbjwr46" class="systemMilestoneEnd s1uuwl9i" />
         </g>
         <g id="pxot6wv" class="pageMilestoneEnd s1lj252o" />
         <g id="p1w8g7l2" class="pageMilestoneEnd m1knyctc" />
         <g id="p1oplmlm" class="pgHead">
            <text x="0" y="0" font-size="0px">
               <tspan id="rjejfs3" class="rend" x="10000" y="277" text-anchor="middle">
                  <tspan id="t1bhk3we" class="text">
                     <tspan font-size="405px" class="text">Air n 128</tspan>
                  </tspan>
               </tspan>
            </text>
         </g>
         <g id="p1bfcfdp" class="pgFoot autogenerated">
            <g id="fhg0kbh" class="fig">
               <g id="s1sn6ry4" class="svg" transform="translate(7750, 28099) scale(10, 10)">
                  <g>
                     <path fill="#00000" d="M 17.11278,49.26451 V 10.367554 h 12.696511 c 3.288815,7.336676 6.71267,14.610456 10.127281,21.888976 3.419998,-7.484684 6.255515,-14.204887 9.58887,-21.909915 2.436207,0.103726 4.316952,0.08453 6.484294,-0.05808 V 49.264423 H 50.274275 C 50.145222,38.35639 50.016136,27.448368 49.887066,16.540329 45.003488,27.315459 39.967448,38.433564 35.083854,49.208695 34.678996,49.343717 34.426583,49.135619 34.021726,49.270644 29.46588,39.330716 24.910049,29.390805 20.354201,19.450876 20.224341,29.388756 20.09461,39.326619 19.964815,49.264497 H 17.11278 Z M 36.754144,39.324695 C 32.721221,30.512695 28.6883,21.700679 24.655394,12.888662 22.530527,12.750737 22.656775,12.71031 20.714356,12.813974 v 0.966497 c 4.612938,9.99784 9.609439,20.748709 13.87298,30.081745 0.722248,-1.512523 1.444528,-3.025014 2.166808,-4.537521 z m 25.738417,9.939815 c 0,-12.965651 0,-25.931305 0,-38.896956 10.084388,0 20.168791,0 30.253178,0 0,0.960416 0,1.920849 0,2.881265 -6.482825,0 -12.965652,0 -19.448478,0 0,4.802097 0,9.604178 0,14.406277 5.52241,0 11.044819,0 16.567229,0 0,0.960415 0,1.920832 0,2.881248 -5.52241,0 -11.044819,0 -16.567229,0 0,5.282306 0,10.564611 0,15.846917 6.963035,0 13.926068,0 20.889103,0 0,0.960416 0,1.920832 0,2.881249 -10.564597,0 -21.129207,0 -31.693803,0 z m 4.321874,-2.160937 c 0,-11.765131 0,-23.530263 0,-35.295394 -0.720312,0 -1.440625,0 -2.160937,0 0,11.765131 0,23.530263 0,35.295394 0.720312,0 1.440625,0 2.160937,0 z m 32.41413,2.160937 c 0,-12.965651 0,-25.931305 0,-38.896956 2.401045,0 4.802095,0 7.203135,0 0,12.965651 0,25.931305 0,38.896956 -2.40104,0 -4.80209,0 -7.203135,0 z m 2.881265,-2.160937 c 0,-11.765131 0,-23.530263 0,-35.295394 -0.72031,0 -1.44064,0 -2.160953,0 0,11.765131 0,23.530263 0,35.295394 0.720313,0 1.440643,0 2.160953,0 z" />
                     <path fill="#00000" d="m 346.3,6.7 c -3.1,0.5 -4.9,4.4 -2.7,6.8 1.2,1.4 2.7,2.4 4.1,3.5 -2.4,5.3 -7.7,8.3 -11.9,12.1 -3.7,2.8 -7,6.2 -9.7,9.9 -2.2,-0.8 -0.3,-6.8 -0.6,-9.5 0.1,-3.1 0.7,-6.4 2.9,-8.7 1.3,-1.9 3,-3.5 4.5,-5.2 1.2,-3.4 -3.2,-4.9 -5.8,-4.6 -7.3,-0.5 -14.6,2 -20,6.8 -5,4.6 -10,10.1 -11.5,17 -0.9,3.5 -0.2,7.5 2.8,9.9 2.5,2.8 7.4,2.9 9.8,-0.2 1.7,-2.3 3.2,-4.8 3.8,-7.6 -0.1,-2.6 -4.4,-2.3 -4.3,0.2 1.2,2.4 -0.9,4.7 -2.7,6.2 -1.7,0.9 -4.7,0.7 -4.8,-1.7 -1,-5.8 2.1,-11.3 5.2,-16.1 4,-5.8 9.8,-11.2 17.2,-11.8 1.6,0 8.1,-1.2 6.8,1.4 -2.8,2.8 -5.6,6.1 -6,10.3 -1.6,7.7 0.1,15.7 -2.3,23.2 -1.1,3.9 2,2.6 2.5,0.2 3.3,-7.4 8.9,-13.4 15.1,-18.5 4.2,-3.9 9.5,-7.1 11.9,-12.6 1.3,-3.6 1.2,-9 -2.7,-10.9 -0.6,-0.2 -1.2,-0.3 -1.8,-0.3 z m 66,14.5 c -2,0.8 -1.8,4.9 0.8,4.4 3.4,0.4 2.9,-6.2 -0.8,-4.4 z m 0.6,7.3 c -1.3,0.5 -7.6,0.5 -5.4,2.2 4,-0.3 0.7,4.5 0.6,6.7 -0.4,2.9 -2.4,5.9 -1.2,8.8 2.7,1.7 5.6,-0.8 6.8,-3.2 1.6,-1.4 -0.5,-3 -1.2,-0.9 -0.4,0.8 -2.4,3.5 -2.6,1.8 1.1,-5 2.7,-9.9 3.9,-14.9 l -0.1,-0.5 h -0.9 z m -65.1,0.2 c -6.5,1.6 -10.5,9.5 -8.2,15.7 2.1,3.4 7.4,2.9 10.1,0.4 2,-0.2 3.6,-5.3 1,-3.4 -1.4,2 -4,4.2 -6.5,2.8 -2.2,-1.9 -1.9,-5.7 1.7,-5.3 3.1,-0.9 6.9,-2.1 8.1,-5.5 0.9,-2.7 -1.6,-5.2 -4.3,-4.8 h -1.1 -0.7 z m 13.6,0 c -2.2,0 -8.5,1.8 -2.9,2.3 0.9,1.9 -1,4.9 -1.1,7.2 -0.5,2.9 -1.4,5.7 -1.7,8.7 3.7,0.7 3.8,-2.6 4.4,-5.3 0.9,-3.3 1.6,-7 4.1,-9.5 2.4,1.6 6.8,-0.7 3.7,-3.4 -2.9,-0.5 -4.8,2.4 -6.2,4.3 0,-1.2 2.4,-5 -0.2,-4.3 z m 15.8,0 c -6.4,1.3 -9.6,9.1 -7.7,14.9 1.9,4 7.7,3.9 11,1.7 4.1,-3 6,-8.9 4.4,-13.7 -1.3,-3 -4.8,-3.2 -7.6,-3 z m 17,0 c -2.3,0 -8.8,1.9 -3,2.4 0.4,2.5 -1,5.7 -1.4,8.4 -0.7,2.4 -1.8,7.5 2.1,7.2 3.8,-0.1 6.5,-3.5 8.5,-6.3 2,-3.2 4.5,-7 3.3,-10.9 -3.7,-3 -3.6,2.6 -3.1,5.1 -0.7,3.8 -2.7,7.9 -6.2,9.8 -3.6,0.6 -1,-4.3 -0.8,-6.1 0.6,-3.2 1.6,-6.3 1.9,-9.5 -0.4,0 -0.8,0 -1.1,0 z m 30.6,0 c -6.3,1.2 -9.5,8.9 -7.8,14.7 1.5,4 7.2,4.2 10.5,2.4 4.6,-2.8 6.6,-9.3 4.8,-14.3 -1.4,-2.8 -4.8,-3 -7.5,-2.8 z m -75.4,1.7 c 2.1,1.5 0.2,4.7 -1.6,5.7 -1.1,0.4 -5.5,3.4 -4.6,0.7 0.8,-2.7 2.2,-6.2 5.3,-6.6 l 0.9,0.1 z m 30.8,0 c 2.6,1.5 1.3,5.2 0.8,7.6 -0.8,2.7 -1.9,5.9 -4.7,7.1 -5.1,0.8 -4,-5.8 -2.8,-8.8 1,-2.8 3,-6.8 6.7,-5.8 z m 47.1,-0.1 c 2.9,0.7 2,4.7 1.5,6.8 -0.7,3 -1.8,6.7 -5,8 -4.7,0.8 -4,-5.1 -3,-7.9 0.9,-3 2.7,-7.3 6.5,-6.8 z m -88.1,5.9 c -0.3,1.3 0.9,-0.6 0,0 z m -1.1,2.4 c -0.2,0.5 0.5,-0.1 0,0 z m -1.3,4.5 c -0.3,1.3 0.8,-0.2 0,0 z" />
                     <text y="41" x="201" fill="#00000" style="font-style:italic;font-weight:normal;font-size:30px;line-height:125%;font-family:Times;text-anchor:middle" xml:space="preserve">engraved with</text>
                  </g>
               </g>
            </g>
         </g>
      </g>
   </svg>
</svg>
