<?xml version="1.0" encoding="UTF-8" standalone="no"?>
<svg width="2100px" height="2970px" version="1.1" xmlns="http://www.w3.org/2000/svg" xmlns:xlink="http://www.w3.org/1999/xlink" xmlns:mei="http://www.music-encoding.org/ns/mei" overflow="visible">
   <desc>Engraved by Verovio 3.13.1</desc>
   <defs>
      <symbol id="E240-jpwubo" viewBox="0 0 1000 1000" overflow="inherit">
         <path transform="scale(1,-1)" d="M179 -646c15 29 29 55 46 102c18 49 30 108 30 138c0 105 -80 173 -168 200c-18 5 -47 9 -87 16v190h22c8 0 33 -61 71 -95c4 -3 -2 3 61 -56c62 -58 122 -137 122 -241c0 -38 -13 -106 -35 -163c-20 -51 -43 -99 -66 -132c-6 -5 -10 -7 -13 -7s-5 2 -5 5l4 10 c1 3 14 25 18 33z" />
      </symbol>
      <symbol id="E241-jpwubo" viewBox="0 0 1000 1000" overflow="inherit">
         <path transform="scale(1,-1)" d="M179 646c-4 8 -17 30 -18 33l-4 10c0 3 2 5 5 5s7 -2 13 -7c23 -33 46 -81 66 -132c22 -57 35 -125 35 -163c0 -104 -60 -183 -122 -241c-63 -59 -57 -53 -61 -56c-38 -34 -63 -95 -71 -95h-22v190c40 7 69 11 87 16c88 27 168 95 168 200c0 30 -12 89 -30 138 c-17 47 -31 73 -46 102z" />
      </symbol>
      <symbol id="E044-jpwubo" viewBox="0 0 1000 1000" overflow="inherit">
         <path transform="scale(1,-1)" d="M0 0c0 28 22 50 50 50s50 -22 50 -50s-22 -50 -50 -50s-50 22 -50 50z" />
      </symbol>
      <symbol id="E050-jpwubo" viewBox="0 0 1000 1000" overflow="inherit">
         <path transform="scale(1,-1)" d="M441 -245c-23 -4 -48 -6 -76 -6c-59 0 -102 7 -130 20c-88 42 -150 93 -187 154c-26 44 -43 103 -48 176c0 6 -1 13 -1 19c0 54 15 111 45 170c29 57 65 106 110 148s96 85 153 127c-3 16 -8 46 -13 92c-4 43 -5 73 -5 89c0 117 16 172 69 257c34 54 64 82 89 82 c21 0 43 -30 69 -92s39 -115 41 -159v-15c0 -109 -21 -162 -67 -241c-13 -20 -63 -90 -98 -118c-13 -9 -25 -19 -37 -29l31 -181c8 1 18 2 28 2c58 0 102 -12 133 -35c59 -43 92 -104 98 -184c1 -7 1 -15 1 -22c0 -123 -87 -209 -181 -248c8 -57 17 -110 25 -162 c5 -31 6 -58 6 -80c0 -30 -5 -53 -14 -70c-35 -64 -88 -99 -158 -103c-5 0 -11 -1 -16 -1c-37 0 -72 10 -108 27c-50 24 -77 59 -80 105v11c0 29 7 55 20 76c18 28 45 42 79 44h6c49 0 93 -42 97 -87v-9c0 -51 -34 -86 -105 -106c17 -24 51 -36 102 -36c62 0 116 43 140 85 c9 16 13 41 13 74c0 20 -1 42 -5 67c-8 53 -18 106 -26 159zM461 939c-95 0 -135 -175 -135 -286c0 -24 2 -48 5 -71c50 39 92 82 127 128c40 53 60 100 60 140v8c-4 53 -22 81 -55 81h-2zM406 119l54 -326c73 25 110 78 110 161c0 7 0 15 -1 23c-7 95 -57 142 -151 142h-12 zM382 117c-72 -2 -128 -47 -128 -120v-7c2 -46 43 -99 75 -115c-3 -2 -7 -5 -10 -10c-70 33 -116 88 -123 172v11c0 68 44 126 88 159c23 17 49 29 78 36l-29 170c-21 -13 -52 -37 -92 -73c-50 -44 -86 -84 -109 -119c-45 -69 -67 -130 -67 -182v-13c5 -68 35 -127 93 -176 s125 -73 203 -73c25 0 50 3 75 9c-19 111 -36 221 -54 331z" />
      </symbol>
      <symbol id="E083-jpwubo" viewBox="0 0 1000 1000" overflow="inherit">
         <path transform="scale(1,-1)" d="M208 250c97 0 177 -52 177 -116c0 -69 -40 -111 -118 -125c56 -5 125 -44 125 -116c0 -31 -10 -57 -31 -78c-19 -21 -45 -38 -78 -49l-50 -11c-15 -3 -36 -7 -55 -7c-50 0 -86 16 -113 38c-16 10 -23 18 -34 34c-7 13 -11 25 -11 38c0 43 27 83 68 83l3 -2 c61 0 75 -42 75 -70c0 -19 -24 -42 -26 -57c7 -17 20 -25 37 -25c44 0 94 29 94 78c0 75 -34 125 -138 125v36c84 0 131 22 131 98c0 54 -37 88 -87 88c-26 0 -43 -7 -51 -22c15 -22 44 -16 44 -70c0 -37 -37 -62 -71 -62c-22 0 -69 15 -69 76c0 79 101 116 178 116z" />
      </symbol>
      <symbol id="E086-jpwubo" viewBox="0 0 1000 1000" overflow="inherit">
         <path transform="scale(1,-1)" d="M284 -91c0 37 -28 92 -67 92c-35 0 -65 -54 -65 -111c0 -52 22 -104 68 -104c47 0 64 68 64 123zM230 214c-36 0 -90 -33 -90 -184l2 -36c40 24 81 36 120 36c80 0 140 -48 140 -121c0 -99 -99 -159 -182 -159c-160 0 -200 173 -200 244c0 21 2 43 7 71l10 35 c26 85 73 115 98 126c41 19 74 24 103 24c93 0 142 -63 142 -105c0 -58 -52 -72 -73 -72c-33 0 -59 24 -65 35c-3 5 -6 14 -7 25l11 30c6 15 9 27 9 35c0 11 -9 16 -25 16z" />
      </symbol>
      <symbol id="E088-jpwubo" viewBox="0 0 1000 1000" overflow="inherit">
         <path transform="scale(1,-1)" d="M195 -214c76 0 88 58 90 68c0 34 -35 60 -57 73l-52 29c-21 10 -32 17 -34 20c-39 -33 -58 -54 -62 -92c5 -23 23 -98 115 -98zM301 135c0 61 -72 76 -113 76c-40 0 -77 -17 -77 -51c3 -21 15 -38 26 -50c17 -15 33 -26 48 -34l65 -28c34 27 51 56 51 87zM176 -250 c-57 0 -166 26 -166 132c0 47 30 86 89 116c-33 15 -79 60 -79 119c0 79 85 132 178 132h18c5 0 21 1 28 -1c25 0 126 -30 126 -110c0 -37 -23 -76 -69 -116c43 -25 83 -71 83 -119c0 -101 -118 -153 -208 -153z" />
      </symbol>
      <symbol id="E0A4-jpwubo" viewBox="0 0 1000 1000" overflow="inherit">
         <path transform="scale(1,-1)" d="M0 -39c0 68 73 172 200 172c66 0 114 -37 114 -95c0 -84 -106 -171 -218 -171c-64 0 -96 30 -96 94z" />
      </symbol>
   </defs>
   <style type="text/css">g.page-margin{font-family:Times;} g.ending, g.fing, g.reh, g.tempo{font-weight:bold;} g.dir, g.dynam, g.mNum{font-style:italic;} g.label{font-weight:normal;}</style>
   <svg class="definition-scale" color="black" viewBox="0 0 21000 29700">
      <g class="page-margin" transform="translate(500, 500)">
         <g id="m1l5e1at" class="mdiv pageMilestone" />
         <g id="suelt8y" class="score pageMilestone" />
         <g id="s41irvi" class="system">
            <g id="l1bk1g1i" class="label">
               <text x="1105" y="1535" text-anchor="end" font-size="0px">
                  <tspan id="t128d695" class="text">
                     <tspan font-size="405px" class="text">Piano</tspan>
                  </tspan>
               </text>
            </g>
            <g id="st6upng" class="section systemMilestone" />
            <g id="pquv2dt" class="pb" />
            <g id="mv6ohac" class="measure">
               <g id="m13qdef4" class="mNum">
                  <text x="1285" y="842" text-anchor="middle" font-size="0px" />
               </g>
               <g id="s1ser0ue" class="staff">
                  <path d="M1285 1085 L4165 1085" stroke="currentColor" stroke-width="13" />
                  <path d="M1285 1265 L4165 1265" stroke="currentColor" stroke-width="13" />
                  <path d="M1285 1445 L4165 1445" stroke="currentColor" stroke-width="13" />
                  <path d="M1285 1625 L4165 1625" stroke="currentColor" stroke-width="13" />
                  <path d="M1285 1805 L4165 1805" stroke="currentColor" stroke-width="13" />
                  <g id="ctpbb7m" class="clef">
                     <use xlink:href="#E050-jpwubo" x="1375" y="1625" height="720px" width="720px" />
                  </g>
                  <g id="kmyr9bi" class="keySig" />
                  <g id="mwqqf1b" class="meterSig">
                     <use xlink:href="#E086-jpwubo" x="2006" y="1265" height="720px" width="720px" />
                     <use xlink:href="#E088-jpwubo" x="2013" y="1625" height="720px" width="720px" />
                  </g>
                  <g id="l1ljdjtb" class="layer">
                     <g id="n1n7czha" class="note">
                        <g class="notehead">
                           <use xlink:href="#E0A4-jpwubo" x="2562" y="1175" height="720px" width="720px" />
                        </g>
                        <g id="s1ai4dtb" class="stem">
                           <rect x="2562" y="1203" height="602" width="18" />
                        </g>
                     </g>
                     <g id="niw8xmf" class="note">
                        <g class="notehead">
                           <use xlink:href="#E0A4-jpwubo" x="3525" y="1175" height="720px" width="720px" />
                        </g>
                        <g id="s1oyl8es" class="stem">
                           <rect x="3525" y="1203" height="602" width="18" />
                           <g id="f8s6uy4" class="flag">
                              <use xlink:href="#E241-jpwubo" x="3525" y="1805" height="720px" width="720px" />
                           </g>
                        </g>
                     </g>
                  </g>
               </g>
               <g id="bi1ncr4" class="barLine">
                  <path d="M4152 1085 L4152 1805" stroke="currentColor" stroke-width="27" />
               </g>
            </g>
            <g id="m1q15a7q" class="measure">
               <g id="s1fob0z3" class="staff">
                  <path d="M4165 1085 L8119 1085" stroke="currentColor" stroke-width="13" />
                  <path d="M4165 1265 L8119 1265" stroke="currentColor" stroke-width="13" />
                  <path d="M4165 1445 L8119 1445" stroke="currentColor" stroke-width="13" />
                  <path d="M4165 1625 L8119 1625" stroke="currentColor" stroke-width="13" />
                  <path d="M4165 1805 L8119 1805" stroke="currentColor" stroke-width="13" />
                  <g id="l1co3b44" class="layer">
                     <g id="bm88lg8" class="beam">
                        <polygon points="4342,2030 5615,1850 5615,1760 4342,1940" />
                        <g id="n1pyktno" class="note">
                           <g class="notehead">
                              <use xlink:href="#E0A4-jpwubo" x="4342" y="1445" height="720px" width="720px" />
                           </g>
                           <g id="stcsxam" class="stem">
                              <rect x="4342" y="1473" height="539" width="18" />
                           </g>
                        </g>
                        <g id="n1f3foqa" class="note">
                           <g class="notehead">
                              <use xlink:href="#E0A4-jpwubo" x="4970" y="1355" height="720px" width="720px" />
                           </g>
                           <g id="s58bq86" class="stem">
                              <rect x="4970" y="1383" height="539" width="18" />
                           </g>
                        </g>
                        <g id="n1foa39a" class="note">
                           <g class="notehead">
                              <use xlink:href="#E0A4-jpwubo" x="5597" y="1265" height="720px" width="720px" />
                           </g>
                           <g id="s1d3u00g" class="stem">
                              <rect x="5597" y="1293" height="539" width="18" />
                           </g>
                        </g>
                     </g>
                     <g id="b1qxpe31" class="beam">
                        <polygon points="6224,1805 7497,1985 7497,1895 6224,1715" />
                        <g id="n1j53lti" class="note">
                           <g class="notehead">
                              <use xlink:href="#E0A4-jpwubo" x="6224" y="1175" height="720px" width="720px" />
                           </g>
                           <g id="smqpjz1" class="stem">
                              <rect x="6224" y="1203" height="584" width="18" />
                           </g>
                        </g>
                        <g id="nin3y2t" class="note">
                           <g class="notehead">
                              <use xlink:href="#E0A4-jpwubo" x="6852" y="1265" height="720px" width="720px" />
                           </g>
                           <g id="s15a7ib" class="stem">
                              <rect x="6852" y="1293" height="585" width="18" />
                           </g>
                        </g>
                        <g id="nk4m30n" class="note">
                           <g class="notehead">
                              <use xlink:href="#E0A4-jpwubo" x="7479" y="1355" height="720px" width="720px" />
                           </g>
                           <g id="s6w7nku" class="stem">
                              <rect x="7479" y="1383" height="584" width="18" />
                           </g>
                        </g>
                     </g>
                  </g>
               </g>
               <g id="bvur9ij" class="barLine">
                  <path d="M8106 1085 L8106 1805" stroke="currentColor" stroke-width="27" />
               </g>
            </g>
            <g id="m1f4tbir" class="measure">
               <g id="s1ybxfin" class="staff">
                  <path d="M8119 1085 L11781 1085" stroke="currentColor" stroke-width="13" />
                  <path d="M8119 1265 L11781 1265" stroke="currentColor" stroke-width="13" />
                  <path d="M8119 1445 L11781 1445" stroke="currentColor" stroke-width="13" />
                  <path d="M8119 1625 L11781 1625" stroke="currentColor" stroke-width="13" />
                  <path d="M8119 1805 L11781 1805" stroke="currentColor" stroke-width="13" />
                  <g id="lms8rw8" class="layer">
                     <g id="bvuk8pp" class="beam">
                        <polygon points="8504,860 9777,860 9777,950 8504,950" />
                        <g id="nzjatg0" class="note">
                           <g class="notehead">
                              <use xlink:href="#E0A4-jpwubo" x="8296" y="1445" height="720px" width="720px" />
                           </g>
                           <g id="s1jeumz" class="stem">
                              <rect x="8504" y="878" height="539" width="18" />
                           </g>
                        </g>
                        <g id="n1bbmqla" class="note">
                           <g class="notehead">
                              <use xlink:href="#E0A4-jpwubo" x="8924" y="1535" height="720px" width="720px" />
                           </g>
                           <g id="s1ekp3gi" class="stem">
                              <rect x="9132" y="878" height="629" width="18" />
                           </g>
                        </g>
                        <g id="njkwbv2" class="note">
                           <g class="notehead">
                              <use xlink:href="#E0A4-jpwubo" x="9551" y="1445" height="720px" width="720px" />
                           </g>
                           <g id="sygiser" class="stem">
                              <rect x="9759" y="878" height="539" width="18" />
                           </g>
                        </g>
                     </g>
                     <g id="n11l87nq" class="note">
                        <g class="notehead">
                           <use xlink:href="#E0A4-jpwubo" x="10178" y="1175" height="720px" width="720px" />
                        </g>
                        <g id="s2w9y0n" class="stem">
                           <rect x="10178" y="1203" height="602" width="18" />
                        </g>
                     </g>
                     <g id="n1qyb0fl" class="note">
                        <g class="notehead">
                           <use xlink:href="#E0A4-jpwubo" x="11141" y="1175" height="720px" width="720px" />
                        </g>
                        <g id="s17tl5fc" class="stem">
                           <rect x="11141" y="1203" height="602" width="18" />
                           <g id="f6etwfo" class="flag">
                              <use xlink:href="#E241-jpwubo" x="11141" y="1805" height="720px" width="720px" />
                           </g>
                        </g>
                     </g>
                  </g>
               </g>
               <g id="b1jddz6d" class="barLine">
                  <path d="M11768 1085 L11768 1805" stroke="currentColor" stroke-width="27" />
               </g>
            </g>
            <g id="macuu5u" class="measure">
               <g id="s9l16vf" class="staff">
                  <path d="M11781 1085 L15735 1085" stroke="currentColor" stroke-width="13" />
                  <path d="M11781 1265 L15735 1265" stroke="currentColor" stroke-width="13" />
                  <path d="M11781 1445 L15735 1445" stroke="currentColor" stroke-width="13" />
                  <path d="M11781 1625 L15735 1625" stroke="currentColor" stroke-width="13" />
                  <path d="M11781 1805 L15735 1805" stroke="currentColor" stroke-width="13" />
                  <g id="l1micm" class="layer">
                     <g id="b1c8zpkh" class="beam">
                        <polygon points="11958,2030 13231,1850 13231,1760 11958,1940" />
                        <g id="n27r1sm" class="note">
                           <g class="notehead">
                              <use xlink:href="#E0A4-jpwubo" x="11958" y="1445" height="720px" width="720px" />
                           </g>
                           <g id="slu90nc" class="stem">
                              <rect x="11958" y="1473" height="539" width="18" />
                           </g>
                        </g>
                        <g id="n1d9fl2d" class="note">
                           <g class="notehead">
                              <use xlink:href="#E0A4-jpwubo" x="12586" y="1355" height="720px" width="720px" />
                           </g>
                           <g id="syrx3bc" class="stem">
                              <rect x="12586" y="1383" height="539" width="18" />
                           </g>
                        </g>
                        <g id="ngi0alw" class="note">
                           <g class="notehead">
                              <use xlink:href="#E0A4-jpwubo" x="13213" y="1265" height="720px" width="720px" />
                           </g>
                           <g id="s16ytam8" class="stem">
                              <rect x="13213" y="1293" height="539" width="18" />
                           </g>
                        </g>
                     </g>
                     <g id="b1frh5i5" class="beam">
                        <polygon points="13840,1805 15113,1985 15113,1895 13840,1715" />
                        <g id="n1h8z7n" class="note">
                           <g class="notehead">
                              <use xlink:href="#E0A4-jpwubo" x="13840" y="1175" height="720px" width="720px" />
                           </g>
                           <g id="s3u57z6" class="stem">
                              <rect x="13840" y="1203" height="584" width="18" />
                           </g>
                        </g>
                        <g id="n14x994n" class="note">
                           <g class="notehead">
                              <use xlink:href="#E0A4-jpwubo" x="14468" y="1265" height="720px" width="720px" />
                           </g>
                           <g id="s1i9nj33" class="stem">
                              <rect x="14468" y="1293" height="585" width="18" />
                           </g>
                        </g>
                        <g id="n127o790" class="note">
                           <g class="notehead">
                              <use xlink:href="#E0A4-jpwubo" x="15095" y="1355" height="720px" width="720px" />
                           </g>
                           <g id="s12m9ckt" class="stem">
                              <rect x="15095" y="1383" height="584" width="18" />
                           </g>
                        </g>
                     </g>
                  </g>
               </g>
               <g id="b12nnvmp" class="barLine">
                  <path d="M15722 1085 L15722 1805" stroke="currentColor" stroke-width="27" />
               </g>
            </g>
            <g id="mv359s8" class="measure">
               <g id="s9tghbw" class="staff">
                  <path d="M15735 1085 L17766 1085" stroke="currentColor" stroke-width="13" />
                  <path d="M15735 1265 L17766 1265" stroke="currentColor" stroke-width="13" />
                  <path d="M15735 1445 L17766 1445" stroke="currentColor" stroke-width="13" />
                  <path d="M15735 1625 L17766 1625" stroke="currentColor" stroke-width="13" />
                  <path d="M15735 1805 L17766 1805" stroke="currentColor" stroke-width="13" />
                  <g id="mh567ku" class="meterSig">
                     <use xlink:href="#E083-jpwubo" x="15815" y="1265" height="720px" width="720px" />
                     <use xlink:href="#E088-jpwubo" x="15818" y="1625" height="720px" width="720px" />
                  </g>
                  <g id="lsfys7k" class="layer">
                     <g id="nz8rzpn" class="note">
                        <g class="notehead">
                           <use xlink:href="#E0A4-jpwubo" x="16363" y="1445" height="720px" width="720px" />
                        </g>
                        <g id="d1ogwpb0" class="dots">
                           <ellipse cx="16679" cy="1355" rx="36" ry="36" />
                        </g>
                        <g id="s1bujbsr" class="stem">
                           <rect x="16363" y="1473" height="572" width="18" />
                        </g>
                     </g>
                  </g>
               </g>
               <g id="bskxoah" class="barLine">
                  <path d="M17591 1085 L17591 1805" stroke="currentColor" stroke-width="27" />
                  <path d="M17721 1085 L17721 1805" stroke="currentColor" stroke-width="90" />
                  <use xlink:href="#E044-jpwubo" x="17474" y="1355" height="720px" width="720px" />
                  <use xlink:href="#E044-jpwubo" x="17474" y="1535" height="720px" width="720px" />
               </g>
            </g>
            <g id="m1g5g3ph" class="measure">
               <g id="s1ttsxqu" class="staff">
                  <path d="M17766 1085 L20001 1085" stroke="currentColor" stroke-width="13" />
                  <path d="M17766 1265 L20001 1265" stroke="currentColor" stroke-width="13" />
                  <path d="M17766 1445 L20001 1445" stroke="currentColor" stroke-width="13" />
                  <path d="M17766 1625 L20001 1625" stroke="currentColor" stroke-width="13" />
                  <path d="M17766 1805 L20001 1805" stroke="currentColor" stroke-width="13" />
                  <g id="l1mcpvu4" class="layer">
                     <g id="nmyob3r" class="note">
                        <g class="notehead">
                           <use xlink:href="#E0A4-jpwubo" x="17943" y="1355" height="720px" width="720px" />
                        </g>
                        <g id="s18q9b9" class="stem">
                           <rect x="17943" y="1383" height="602" width="18" />
                        </g>
                     </g>
                     <g id="nvfll22" class="note">
                        <g class="notehead">
                           <use xlink:href="#E0A4-jpwubo" x="18906" y="1535" height="720px" width="720px" />
                        </g>
                        <g id="sfh94zp" class="stem">
                           <rect x="19114" y="905" height="602" width="18" />
                           <g id="f1yvj41m" class="flag">
                              <use xlink:href="#E240-jpwubo" x="19114" y="905" height="720px" width="720px" />
                           </g>
                        </g>
                     </g>
                  </g>
                  <g id="mrx5q3p" class="meterSig">
                     <use xlink:href="#E086-jpwubo" x="19622" y="1265" height="720px" width="720px" />
                     <use xlink:href="#E088-jpwubo" x="19629" y="1625" height="720px" width="720px" />
                  </g>
               </g>
               <g id="bbn1yok" class="barLine">
                  <path d="M19533 1085 L19533 1805" stroke="currentColor" stroke-width="27" />
               </g>
            </g>
         </g>
         <g id="s5rx16h" class="system">
            <g id="l1yy04ul" class="labelAbbr">
               <text x="914" y="3884" text-anchor="end" font-size="0px">
                  <tspan id="tbzbyjm" class="text">
                     <tspan font-size="405px" class="text">Pno.</tspan>
                  </tspan>
               </text>
            </g>
            <g id="mdkujrh" class="measure">
               <g id="m1y87o34" class="mNum autogenerated">
                  <text x="1094" y="3191" text-anchor="middle" font-size="0px">
                     <tspan id="t1yiar27" class="text">
                        <tspan font-size="324px" class="text">6</tspan>
                     </tspan>
                  </text>
               </g>
               <g id="suvz6na" class="staff">
                  <path d="M1094 3434 L6215 3434" stroke="currentColor" stroke-width="13" />
                  <path d="M1094 3614 L6215 3614" stroke="currentColor" stroke-width="13" />
                  <path d="M1094 3794 L6215 3794" stroke="currentColor" stroke-width="13" />
                  <path d="M1094 3974 L6215 3974" stroke="currentColor" stroke-width="13" />
                  <path d="M1094 4154 L6215 4154" stroke="currentColor" stroke-width="13" />
                  <g id="c1vc39w5" class="clef">
                     <use xlink:href="#E050-jpwubo" x="1184" y="3974" height="720px" width="720px" />
                  </g>
                  <g id="ks87q48" class="keySig" />
                  <g id="mh4xl32" class="meterSig">
                     <use xlink:href="#E086-jpwubo" x="1815" y="3614" height="720px" width="720px" />
                     <use xlink:href="#E088-jpwubo" x="1822" y="3974" height="720px" width="720px" />
                  </g>
                  <g id="lfng09c" class="layer">
                     <g id="b13wxsg3" class="beam">
                        <polygon points="2374,4379 3668,4199 3668,4109 2374,4289" />
                        <g id="nekvz6h" class="note">
                           <g class="notehead">
                              <use xlink:href="#E0A4-jpwubo" x="2374" y="3794" height="720px" width="720px" />
                           </g>
                           <g id="s1a451hi" class="stem">
                              <rect x="2374" y="3822" height="539" width="18" />
                           </g>
                        </g>
                        <g id="nvist6b" class="note">
                           <g class="notehead">
                              <use xlink:href="#E0A4-jpwubo" x="3012" y="3704" height="720px" width="720px" />
                           </g>
                           <g id="s1n490t1" class="stem">
                              <rect x="3012" y="3732" height="539" width="18" />
                           </g>
                        </g>
                        <g id="nmrumhk" class="note">
                           <g class="notehead">
                              <use xlink:href="#E0A4-jpwubo" x="3650" y="3614" height="720px" width="720px" />
                           </g>
                           <g id="s2l7zup" class="stem">
                              <rect x="3650" y="3642" height="539" width="18" />
                           </g>
                        </g>
                     </g>
                     <g id="b1rc29c5" class="beam">
                        <polygon points="4288,4334 5582,4424 5582,4334 4288,4244" />
                        <g id="n13srmtw" class="note">
                           <g class="notehead">
                              <use xlink:href="#E0A4-jpwubo" x="4288" y="3794" height="720px" width="720px" />
                           </g>
                           <g id="sfh182x" class="stem">
                              <rect x="4288" y="3822" height="494" width="18" />
                           </g>
                        </g>
                        <g id="n1v2z079" class="note">
                           <g class="notehead">
                              <use xlink:href="#E0A4-jpwubo" x="4926" y="3704" height="720px" width="720px" />
                           </g>
                           <g id="s115za8a" class="stem">
                              <rect x="4926" y="3732" height="629" width="18" />
                           </g>
                        </g>
                        <g id="n1ff0800" class="note">
                           <g class="notehead">
                              <use xlink:href="#E0A4-jpwubo" x="5564" y="3884" height="720px" width="720px" />
                           </g>
                           <g id="sq18jnd" class="stem">
                              <rect x="5564" y="3912" height="494" width="18" />
                           </g>
                        </g>
                     </g>
                  </g>
               </g>
               <g id="bz3o44u" class="barLine">
                  <path d="M6202 3434 L6202 4154" stroke="currentColor" stroke-width="27" />
               </g>
            </g>
            <g id="m1mg59mp" class="measure">
               <g id="sdxwr0w" class="staff">
                  <path d="M6215 3434 L9642 3434" stroke="currentColor" stroke-width="13" />
                  <path d="M6215 3614 L9642 3614" stroke="currentColor" stroke-width="13" />
                  <path d="M6215 3794 L9642 3794" stroke="currentColor" stroke-width="13" />
                  <path d="M6215 3974 L9642 3974" stroke="currentColor" stroke-width="13" />
                  <path d="M6215 4154 L9642 4154" stroke="currentColor" stroke-width="13" />
                  <g id="l12ftbu3" class="layer">
                     <g id="n30lpes" class="note">
                        <g class="notehead">
                           <use xlink:href="#E0A4-jpwubo" x="6395" y="3974" height="720px" width="720px" />
                        </g>
                        <g id="s87qbob" class="stem">
                           <rect x="6603" y="3344" height="602" width="18" />
                        </g>
                     </g>
                     <g id="ndfvxbe" class="note">
                        <g class="notehead">
                           <use xlink:href="#E0A4-jpwubo" x="7374" y="3884" height="720px" width="720px" />
                        </g>
                        <g id="sf8m3y6" class="stem">
                           <rect x="7582" y="3254" height="602" width="18" />
                           <g id="f1qa7qzr" class="flag">
                              <use xlink:href="#E240-jpwubo" x="7582" y="3254" height="720px" width="720px" />
                           </g>
                        </g>
                     </g>
                     <g id="n1ps9jjs" class="note">
                        <g class="notehead">
                           <use xlink:href="#E0A4-jpwubo" x="8012" y="3704" height="720px" width="720px" />
                        </g>
                        <g id="s1dnmfxo" class="stem">
                           <rect x="8012" y="3732" height="602" width="18" />
                        </g>
                     </g>
                     <g id="n6u2jn3" class="note">
                        <g class="notehead">
                           <use xlink:href="#E0A4-jpwubo" x="8991" y="3884" height="720px" width="720px" />
                        </g>
                        <g id="sh6gztt" class="stem">
                           <rect x="9199" y="3254" height="602" width="18" />
                           <g id="frjq54d" class="flag">
                              <use xlink:href="#E240-jpwubo" x="9199" y="3254" height="720px" width="720px" />
                           </g>
                        </g>
                     </g>
                  </g>
               </g>
               <g id="bv6mjj3" class="barLine">
                  <path d="M9629 3434 L9629 4154" stroke="currentColor" stroke-width="27" />
               </g>
            </g>
            <g id="s1okdhon" class="sb" />
            <g id="m1lpvvh9" class="measure">
               <g id="s1723ygb" class="staff">
                  <path d="M9642 3434 L13663 3434" stroke="currentColor" stroke-width="13" />
                  <path d="M9642 3614 L13663 3614" stroke="currentColor" stroke-width="13" />
                  <path d="M9642 3794 L13663 3794" stroke="currentColor" stroke-width="13" />
                  <path d="M9642 3974 L13663 3974" stroke="currentColor" stroke-width="13" />
                  <path d="M9642 4154 L13663 4154" stroke="currentColor" stroke-width="13" />
                  <g id="l11ix8cn" class="layer">
                     <g id="blplsu0" class="beam">
                        <polygon points="9822,4379 11116,4199 11116,4109 9822,4289" />
                        <g id="n18irw4q" class="note">
                           <g class="notehead">
                              <use xlink:href="#E0A4-jpwubo" x="9822" y="3794" height="720px" width="720px" />
                           </g>
                           <g id="s4we7b5" class="stem">
                              <rect x="9822" y="3822" height="539" width="18" />
                           </g>
                        </g>
                        <g id="ngdyhwd" class="note">
                           <g class="notehead">
                              <use xlink:href="#E0A4-jpwubo" x="10460" y="3704" height="720px" width="720px" />
                           </g>
                           <g id="s16oknew" class="stem">
                              <rect x="10460" y="3732" height="539" width="18" />
                           </g>
                        </g>
                        <g id="n74yw1z" class="note">
                           <g class="notehead">
                              <use xlink:href="#E0A4-jpwubo" x="11098" y="3614" height="720px" width="720px" />
                           </g>
                           <g id="s1d5mpe2" class="stem">
                              <rect x="11098" y="3642" height="539" width="18" />
                           </g>
                        </g>
                     </g>
                     <g id="bkdjrsn" class="beam">
                        <polygon points="11736,4379 13030,4379 13030,4289 11736,4289" />
                        <g id="n1dv1s5y" class="note">
                           <g class="notehead">
                              <use xlink:href="#E0A4-jpwubo" x="11736" y="3794" height="720px" width="720px" />
                           </g>
                           <g id="s1h67klv" class="stem">
                              <rect x="11736" y="3822" height="539" width="18" />
                           </g>
                        </g>
                        <g id="nkqo18t" class="note">
                           <g class="notehead">
                              <use xlink:href="#E0A4-jpwubo" x="12374" y="3704" height="720px" width="720px" />
                           </g>
                           <g id="s17lobpm" class="stem">
                              <rect x="12374" y="3732" height="629" width="18" />
                           </g>
                        </g>
                        <g id="nw9s3b4" class="note">
                           <g class="notehead">
                              <use xlink:href="#E0A4-jpwubo" x="13012" y="3794" height="720px" width="720px" />
                           </g>
                           <g id="s1o06x7g" class="stem">
                              <rect x="13012" y="3822" height="539" width="18" />
                           </g>
                        </g>
                     </g>
                  </g>
               </g>
               <g id="bgl3fwc" class="barLine">
                  <path d="M13650 3434 L13650 4154" stroke="currentColor" stroke-width="27" />
               </g>
            </g>
            <g id="mfiii5m" class="measure">
               <g id="sy2geuh" class="staff">
                  <path d="M13663 3434 L15717 3434" stroke="currentColor" stroke-width="13" />
                  <path d="M13663 3614 L15717 3614" stroke="currentColor" stroke-width="13" />
                  <path d="M13663 3794 L15717 3794" stroke="currentColor" stroke-width="13" />
                  <path d="M13663 3974 L15717 3974" stroke="currentColor" stroke-width="13" />
                  <path d="M13663 4154 L15717 4154" stroke="currentColor" stroke-width="13" />
                  <g id="m1lqzn18" class="meterSig">
                     <use xlink:href="#E083-jpwubo" x="13743" y="3614" height="720px" width="720px" />
                     <use xlink:href="#E088-jpwubo" x="13746" y="3974" height="720px" width="720px" />
                  </g>
                  <g id="l1ht1kwi" class="layer">
                     <g id="n1p7ywio" class="note">
                        <g class="notehead">
                           <use xlink:href="#E0A4-jpwubo" x="14294" y="3884" height="720px" width="720px" />
                        </g>
                        <g id="djn0vyc" class="dots">
                           <ellipse cx="14610" cy="3884" rx="36" ry="36" />
                        </g>
                        <g id="s1g4hkqn" class="stem">
                           <rect x="14502" y="3254" height="602" width="18" />
                        </g>
                     </g>
                  </g>
               </g>
               <g id="b172mjct" class="barLine">
                  <path d="M15542 3434 L15542 4154" stroke="currentColor" stroke-width="27" />
                  <path d="M15672 3434 L15672 4154" stroke="currentColor" stroke-width="90" />
               </g>
            </g>
            <g id="svc27dr" class="systemMilestoneEnd st6upng" />
         </g>
         <g id="p1oj74cp" class="pageMilestoneEnd suelt8y" />
         <g id="p1l59p3b" class="pageMilestoneEnd m1l5e1at" />
         <g id="p1re6167" class="pgHead">
            <text x="0" y="0" font-size="0px">
               <tspan id="r1yrdbz7" class="rend" x="10000" y="277" text-anchor="middle">
                  <tspan id="t77nww9" class="text">
                     <tspan font-size="405px" class="text">Air n 212</tspan>
                  </tspan>
               </tspan>
            </text>
         </g>
         <g id="p27uclh" class="pgFoot autogenerated">
            <g id="f1cp78ci" class="fig">
               <g id="swl9mt7" class="svg" transform="translate(7750, 28099) scale(10, 10)">
                  <g>
                     <path fill="#00000" d="M 17.11278,49.26451 V 10.367554 h 12.696511 c 3.288815,7.336676 6.71267,14.610456 10.127281,21.888976 3.419998,-7.484684 6.255515,-14.204887 9.58887,-21.909915 2.436207,0.103726 4.316952,0.08453 6.484294,-0.05808 V 49.264423 H 50.274275 C 50.145222,38.35639 50.016136,27.448368 49.887066,16.540329 45.003488,27.315459 39.967448,38.433564 35.083854,49.208695 34.678996,49.343717 34.426583,49.135619 34.021726,49.270644 29.46588,39.330716 24.910049,29.390805 20.354201,19.450876 20.224341,29.388756 20.09461,39.326619 19.964815,49.264497 H 17.11278 Z M 36.754144,39.324695 C 32.721221,30.512695 28.6883,21.700679 24.655394,12.888662 22.530527,12.750737 22.656775,12.71031 20.714356,12.813974 v 0.966497 c 4.612938,9.99784 9.609439,20.748709 13.87298,30.081745 0.722248,-1.512523 1.444528,-3.025014 2.166808,-4.537521 z m 25.738417,9.939815 c 0,-12.965651 0,-25.931305 0,-38.896956 10.084388,0 20.168791,0 30.253178,0 0,0.960416 0,1.920849 0,2.881265 -6.482825,0 -12.965652,0 -19.448478,0 0,4.802097 0,9.604178 0,14.406277 5.52241,0 11.044819,0 16.567229,0 0,0.960415 0,1.920832 0,2.881248 -5.52241,0 -11.044819,0 -16.567229,0 0,5.282306 0,10.564611 0,15.846917 6.963035,0 13.926068,0 20.889103,0 0,0.960416 0,1.920832 0,2.881249 -10.564597,0 -21.129207,0 -31.693803,0 z m 4.321874,-2.160937 c 0,-11.765131 0,-23.530263 0,-35.295394 -0.720312,0 -1.440625,0 -2.160937,0 0,11.765131 0,23.530263 0,35.295394 0.720312,0 1.440625,0 2.160937,0 z m 32.41413,2.160937 c 0,-12.965651 0,-25.931305 0,-38.896956 2.401045,0 4.802095,0 7.203135,0 0,12.965651 0,25.931305 0,38.896956 -2.40104,0 -4.80209,0 -7.203135,0 z m 2.881265,-2.160937 c 0,-11.765131 0,-23.530263 0,-35.295394 -0.72031,0 -1.44064,0 -2.160953,0 0,11.765131 0,23.530263 0,35.295394 0.720313,0 1.440643,0 2.160953,0 z" />
                     <path fill="#00000" d="m 346.3,6.7 c -3.1,0.5 -4.9,4.4 -2.7,6.8 1.2,1.4 2.7,2.4 4.1,3.5 -2.4,5.3 -7.7,8.3 -11.9,12.1 -3.7,2.8 -7,6.2 -9.7,9.9 -2.2,-0.8 -0.3,-6.8 -0.6,-9.5 0.1,-3.1 0.7,-6.4 2.9,-8.7 1.3,-1.9 3,-3.5 4.5,-5.2 1.2,-3.4 -3.2,-4.9 -5.8,-4.6 -7.3,-0.5 -14.6,2 -20,6.8 -5,4.6 -10,10.1 -11.5,17 -0.9,3.5 -0.2,7.5 2.8,9.9 2.5,2.8 7.4,2.9 9.8,-0.2 1.7,-2.3 3.2,-4.8 3.8,-7.6 -0.1,-2.6 -4.4,-2.3 -4.3,0.2 1.2,2.4 -0.9,4.7 -2.7,6.2 -1.7,0.9 -4.7,0.7 -4.8,-1.7 -1,-5.8 2.1,-11.3 5.2,-16.1 4,-5.8 9.8,-11.2 17.2,-11.8 1.6,0 8.1,-1.2 6.8,1.4 -2.8,2.8 -5.6,6.1 -6,10.3 -1.6,7.7 0.1,15.7 -2.3,23.2 -1.1,3.9 2,2.6 2.5,0.2 3.3,-7.4 8.9,-13.4 15.1,-18.5 4.2,-3.9 9.5,-7.1 11.9,-12.6 1.3,-3.6 1.2,-9 -2.7,-10.9 -0.6,-0.2 -1.2,-0.3 -1.8,-0.3 z m 66,14.5 c -2,0.8 -1.8,4.9 0.8,4.4 3.4,0.4 2.9,-6.2 -0.8,-4.4 z m 0.6,7.3 c -1.3,0.5 -7.6,0.5 -5.4,2.2 4,-0.3 0.7,4.5 0.6,6.7 -0.4,2.9 -2.4,5.9 -1.2,8.8 2.7,1.7 5.6,-0.8 6.8,-3.2 1.6,-1.4 -0.5,-3 -1.2,-0.9 -0.4,0.8 -2.4,3.5 -2.6,1.8 1.1,-5 2.7,-9.9 3.9,-14.9 l -0.1,-0.5 h -0.9 z m -65.1,0.2 c -6.5,1.6 -10.5,9.5 -8.2,15.7 2.1,3.4 7.4,2.9 10.1,0.4 2,-0.2 3.6,-5.3 1,-3.4 -1.4,2 -4,4.2 -6.5,2.8 -2.2,-1.9 -1.9,-5.7 1.7,-5.3 3.1,-0.9 6.9,-2.1 8.1,-5.5 0.9,-2.7 -1.6,-5.2 -4.3,-4.8 h -1.1 -0.7 z m 13.6,0 c -2.2,0 -8.5,1.8 -2.9,2.3 0.9,1.9 -1,4.9 -1.1,7.2 -0.5,2.9 -1.4,5.7 -1.7,8.7 3.7,0.7 3.8,-2.6 4.4,-5.3 0.9,-3.3 1.6,-7 4.1,-9.5 2.4,1.6 6.8,-0.7 3.7,-3.4 -2.9,-0.5 -4.8,2.4 -6.2,4.3 0,-1.2 2.4,-5 -0.2,-4.3 z m 15.8,0 c -6.4,1.3 -9.6,9.1 -7.7,14.9 1.9,4 7.7,3.9 11,1.7 4.1,-3 6,-8.9 4.4,-13.7 -1.3,-3 -4.8,-3.2 -7.6,-3 z m 17,0 c -2.3,0 -8.8,1.9 -3,2.4 0.4,2.5 -1,5.7 -1.4,8.4 -0.7,2.4 -1.8,7.5 2.1,7.2 3.8,-0.1 6.5,-3.5 8.5,-6.3 2,-3.2 4.5,-7 3.3,-10.9 -3.7,-3 -3.6,2.6 -3.1,5.1 -0.7,3.8 -2.7,7.9 -6.2,9.8 -3.6,0.6 -1,-4.3 -0.8,-6.1 0.6,-3.2 1.6,-6.3 1.9,-9.5 -0.4,0 -0.8,0 -1.1,0 z m 30.6,0 c -6.3,1.2 -9.5,8.9 -7.8,14.7 1.5,4 7.2,4.2 10.5,2.4 4.6,-2.8 6.6,-9.3 4.8,-14.3 -1.4,-2.8 -4.8,-3 -7.5,-2.8 z m -75.4,1.7 c 2.1,1.5 0.2,4.7 -1.6,5.7 -1.1,0.4 -5.5,3.4 -4.6,0.7 0.8,-2.7 2.2,-6.2 5.3,-6.6 l 0.9,0.1 z m 30.8,0 c 2.6,1.5 1.3,5.2 0.8,7.6 -0.8,2.7 -1.9,5.9 -4.7,7.1 -5.1,0.8 -4,-5.8 -2.8,-8.8 1,-2.8 3,-6.8 6.7,-5.8 z m 47.1,-0.1 c 2.9,0.7 2,4.7 1.5,6.8 -0.7,3 -1.8,6.7 -5,8 -4.7,0.8 -4,-5.1 -3,-7.9 0.9,-3 2.7,-7.3 6.5,-6.8 z m -88.1,5.9 c -0.3,1.3 0.9,-0.6 0,0 z m -1.1,2.4 c -0.2,0.5 0.5,-0.1 0,0 z m -1.3,4.5 c -0.3,1.3 0.8,-0.2 0,0 z" />
                     <text y="41" x="201" fill="#00000" style="font-style:italic;font-weight:normal;font-size:30px;line-height:125%;font-family:Times;text-anchor:middle" xml:space="preserve">engraved with</text>
                  </g>
               </g>
            </g>
         </g>
      </g>
   </svg>
</svg>
