<?xml version="1.0" encoding="UTF-8" standalone="no"?>
<svg width="2100px" height="2970px" version="1.1" xmlns="http://www.w3.org/2000/svg" xmlns:xlink="http://www.w3.org/1999/xlink" xmlns:mei="http://www.music-encoding.org/ns/mei" overflow="visible">
   <desc>Engraved by Verovio 3.13.1</desc>
   <defs>
      <symbol id="E044-138rw4x" viewBox="0 0 1000 1000" overflow="inherit">
         <path transform="scale(1,-1)" d="M0 0c0 28 22 50 50 50s50 -22 50 -50s-22 -50 -50 -50s-50 22 -50 50z" />
      </symbol>
      <symbol id="E050-138rw4x" viewBox="0 0 1000 1000" overflow="inherit">
         <path transform="scale(1,-1)" d="M441 -245c-23 -4 -48 -6 -76 -6c-59 0 -102 7 -130 20c-88 42 -150 93 -187 154c-26 44 -43 103 -48 176c0 6 -1 13 -1 19c0 54 15 111 45 170c29 57 65 106 110 148s96 85 153 127c-3 16 -8 46 -13 92c-4 43 -5 73 -5 89c0 117 16 172 69 257c34 54 64 82 89 82 c21 0 43 -30 69 -92s39 -115 41 -159v-15c0 -109 -21 -162 -67 -241c-13 -20 -63 -90 -98 -118c-13 -9 -25 -19 -37 -29l31 -181c8 1 18 2 28 2c58 0 102 -12 133 -35c59 -43 92 -104 98 -184c1 -7 1 -15 1 -22c0 -123 -87 -209 -181 -248c8 -57 17 -110 25 -162 c5 -31 6 -58 6 -80c0 -30 -5 -53 -14 -70c-35 -64 -88 -99 -158 -103c-5 0 -11 -1 -16 -1c-37 0 -72 10 -108 27c-50 24 -77 59 -80 105v11c0 29 7 55 20 76c18 28 45 42 79 44h6c49 0 93 -42 97 -87v-9c0 -51 -34 -86 -105 -106c17 -24 51 -36 102 -36c62 0 116 43 140 85 c9 16 13 41 13 74c0 20 -1 42 -5 67c-8 53 -18 106 -26 159zM461 939c-95 0 -135 -175 -135 -286c0 -24 2 -48 5 -71c50 39 92 82 127 128c40 53 60 100 60 140v8c-4 53 -22 81 -55 81h-2zM406 119l54 -326c73 25 110 78 110 161c0 7 0 15 -1 23c-7 95 -57 142 -151 142h-12 zM382 117c-72 -2 -128 -47 -128 -120v-7c2 -46 43 -99 75 -115c-3 -2 -7 -5 -10 -10c-70 33 -116 88 -123 172v11c0 68 44 126 88 159c23 17 49 29 78 36l-29 170c-21 -13 -52 -37 -92 -73c-50 -44 -86 -84 -109 -119c-45 -69 -67 -130 -67 -182v-13c5 -68 35 -127 93 -176 s125 -73 203 -73c25 0 50 3 75 9c-19 111 -36 221 -54 331z" />
      </symbol>
      <symbol id="E081-138rw4x" viewBox="0 0 1000 1000" overflow="inherit">
         <path transform="scale(1,-1)" d="M68 -250v36c23 0 40 6 49 18c8 14 12 33 12 57v250l-82 -129l-27 13l107 255h128v-394c0 -24 5 -42 14 -53s25 -17 47 -17v-36h-248z" />
      </symbol>
      <symbol id="E082-138rw4x" viewBox="0 0 1000 1000" overflow="inherit">
         <path transform="scale(1,-1)" d="M124 -185c-18 0 -55 -14 -65 -65h-36l-3 30c0 25 6 45 18 63c11 19 22 30 39 43l121 82l37 29c15 11 27 29 38 54c12 24 18 47 18 70c0 40 -19 88 -94 88c-25 0 -32 0 -50 -8c-14 -5 -23 -12 -26 -22c3 -9 7 -15 10 -18l24 -17c12 -7 17 -11 27 -21c5 -7 7 -16 7 -27 c0 -12 0 -57 -79 -74c-30 0 -76 26 -76 94c0 66 81 135 197 135c72 0 181 -32 181 -150c0 -53 -32 -95 -113 -133l-91 -41c-26 -11 -45 -23 -57 -37l49 7c84 0 115 -41 148 -41c20 0 33 20 39 61h35c0 -152 -68 -168 -114 -168c-17 0 -65 0 -79 7h10l-28 17 c-49 37 -69 40 -87 42z" />
      </symbol>
      <symbol id="E084-138rw4x" viewBox="0 0 1000 1000" overflow="inherit">
         <path transform="scale(1,-1)" d="M20 -78c84 97 114 180 134 329h170c-13 -32 -82 -132 -99 -151l-84 -97c-33 -36 -59 -63 -80 -81h162v102l127 123v-225h57v-39h-57v-34c0 -43 19 -65 57 -65v-34h-244v36c48 0 60 26 60 70v27h-203v39z" />
      </symbol>
      <symbol id="E0A4-138rw4x" viewBox="0 0 1000 1000" overflow="inherit">
         <path transform="scale(1,-1)" d="M0 -39c0 68 73 172 200 172c66 0 114 -37 114 -95c0 -84 -106 -171 -218 -171c-64 0 -96 30 -96 94z" />
      </symbol>
   </defs>
   <style type="text/css">g.page-margin{font-family:Times;} g.ending, g.fing, g.reh, g.tempo{font-weight:bold;} g.dir, g.dynam, g.mNum{font-style:italic;} g.label{font-weight:normal;}</style>
   <svg class="definition-scale" color="black" viewBox="0 0 21000 29700">
      <g class="page-margin" transform="translate(500, 500)">
         <g id="m1erq6p8" class="mdiv pageMilestone" />
         <g id="s6vicj8" class="score pageMilestone" />
         <g id="s5yry6j" class="system">
            <g id="l1mci2cm" class="label">
               <text x="1105" y="1535" text-anchor="end" font-size="0px">
                  <tspan id="tty4ewq" class="text">
                     <tspan font-size="405px" class="text">Piano</tspan>
                  </tspan>
               </text>
            </g>
            <g id="s1go5s2j" class="section systemMilestone" />
            <g id="p92ffdl" class="pb" />
            <g id="muigvy1" class="measure">
               <g id="s1v8asmj" class="staff">
                  <path d="M1285 1085 L4449 1085" stroke="currentColor" stroke-width="13" />
                  <path d="M1285 1265 L4449 1265" stroke="currentColor" stroke-width="13" />
                  <path d="M1285 1445 L4449 1445" stroke="currentColor" stroke-width="13" />
                  <path d="M1285 1625 L4449 1625" stroke="currentColor" stroke-width="13" />
                  <path d="M1285 1805 L4449 1805" stroke="currentColor" stroke-width="13" />
                  <g id="c1v1sx56" class="clef">
                     <use xlink:href="#E050-138rw4x" x="1375" y="1625" height="720px" width="720px" />
                  </g>
                  <g id="k1mdqw88" class="keySig" />
                  <g id="m3t2kng" class="meterSig">
                     <use xlink:href="#E082-138rw4x" x="2006" y="1265" height="720px" width="720px" />
                     <use xlink:href="#E084-138rw4x" x="2011" y="1625" height="720px" width="720px" />
                  </g>
                  <g id="l4eo99o" class="layer">
                     <g id="n4qun7h" class="note">
                        <g class="notehead">
                           <use xlink:href="#E0A4-138rw4x" x="2580" y="1355" height="720px" width="720px" />
                        </g>
                        <g id="s1gzk0ta" class="stem">
                           <rect x="2580" y="1383" height="602" width="18" />
                        </g>
                     </g>
                     <g id="b7w1ref" class="beam">
                        <polygon points="3386,1940 3929,1895 3929,1805 3386,1850" />
                        <g id="n1vut1ih" class="note">
                           <g class="notehead">
                              <use xlink:href="#E0A4-138rw4x" x="3386" y="1265" height="720px" width="720px" />
                           </g>
                           <g id="sh7g5pv" class="stem">
                              <rect x="3386" y="1293" height="629" width="18" />
                           </g>
                        </g>
                        <g id="n1ji9n41" class="note">
                           <g class="notehead">
                              <use xlink:href="#E0A4-138rw4x" x="3911" y="1175" height="720px" width="720px" />
                           </g>
                           <g id="s1t9tz1z" class="stem">
                              <rect x="3911" y="1203" height="674" width="18" />
                           </g>
                        </g>
                     </g>
                  </g>
               </g>
               <g id="b3nfbyq" class="barLine">
                  <path d="M4436 1085 L4436 1805" stroke="currentColor" stroke-width="27" />
               </g>
            </g>
            <g id="m93flh7" class="measure">
               <g id="snta203" class="staff">
                  <path d="M4449 1085 L6918 1085" stroke="currentColor" stroke-width="13" />
                  <path d="M4449 1265 L6918 1265" stroke="currentColor" stroke-width="13" />
                  <path d="M4449 1445 L6918 1445" stroke="currentColor" stroke-width="13" />
                  <path d="M4449 1625 L6918 1625" stroke="currentColor" stroke-width="13" />
                  <path d="M4449 1805 L6918 1805" stroke="currentColor" stroke-width="13" />
                  <g id="l11oedf" class="layer">
                     <g id="br3vgmk" class="beam">
                        <polygon points="4630,1895 5173,1940 5173,1850 4630,1805" />
                        <g id="nieyteq" class="note">
                           <g class="notehead">
                              <use xlink:href="#E0A4-138rw4x" x="4630" y="1175" height="720px" width="720px" />
                           </g>
                           <g id="s1rfin1v" class="stem">
                              <rect x="4630" y="1203" height="674" width="18" />
                           </g>
                        </g>
                        <g id="n17s4vh" class="note">
                           <g class="notehead">
                              <use xlink:href="#E0A4-138rw4x" x="5155" y="1265" height="720px" width="720px" />
                           </g>
                           <g id="s1is3coo" class="stem">
                              <rect x="5155" y="1293" height="629" width="18" />
                           </g>
                        </g>
                     </g>
                     <g id="b10i3wn1" class="beam">
                        <polygon points="5680,1850 6573,1850 6573,1760 5680,1760" />
                        <polygon points="6214,1715 6573,1715 6573,1625 6214,1625" />
                        <g id="n1w7sisc" class="note">
                           <g class="notehead">
                              <use xlink:href="#E0A4-138rw4x" x="5680" y="1175" height="720px" width="720px" />
                           </g>
                           <g id="s3u3685" class="stem">
                              <rect x="5680" y="1203" height="629" width="18" />
                           </g>
                        </g>
                        <g id="nqewvda" class="note">
                           <g class="notehead">
                              <use xlink:href="#E0A4-138rw4x" x="6205" y="1265" height="720px" width="720px" />
                           </g>
                           <g id="svxj6q3" class="stem">
                              <rect x="6205" y="1293" height="539" width="18" />
                           </g>
                        </g>
                        <g id="nktiwyn" class="note">
                           <g class="notehead">
                              <use xlink:href="#E0A4-138rw4x" x="6555" y="1175" height="720px" width="720px" />
                           </g>
                           <g id="s9q8kbr" class="stem">
                              <rect x="6555" y="1203" height="629" width="18" />
                           </g>
                        </g>
                     </g>
                  </g>
               </g>
               <g id="bh9w57c" class="barLine">
                  <path d="M6905 1085 L6905 1805" stroke="currentColor" stroke-width="27" />
               </g>
            </g>
            <g id="m1cubjtp" class="measure">
               <g id="sjg3wsp" class="staff">
                  <path d="M6918 1085 L8968 1085" stroke="currentColor" stroke-width="13" />
                  <path d="M6918 1265 L8968 1265" stroke="currentColor" stroke-width="13" />
                  <path d="M6918 1445 L8968 1445" stroke="currentColor" stroke-width="13" />
                  <path d="M6918 1625 L8968 1625" stroke="currentColor" stroke-width="13" />
                  <path d="M6918 1805 L8968 1805" stroke="currentColor" stroke-width="13" />
                  <g id="l1upbnnx" class="layer">
                     <g id="nc4dpcp" class="note">
                        <g class="notehead">
                           <use xlink:href="#E0A4-138rw4x" x="7099" y="1355" height="720px" width="720px" />
                        </g>
                        <g id="s5nyrtw" class="stem">
                           <rect x="7099" y="1383" height="602" width="18" />
                        </g>
                     </g>
                     <g id="by5etjz" class="beam">
                        <polygon points="7905,1940 8448,1895 8448,1805 7905,1850" />
                        <g id="n17wi37p" class="note">
                           <g class="notehead">
                              <use xlink:href="#E0A4-138rw4x" x="7905" y="1265" height="720px" width="720px" />
                           </g>
                           <g id="sg8zc57" class="stem">
                              <rect x="7905" y="1293" height="629" width="18" />
                           </g>
                        </g>
                        <g id="n1vcvoyr" class="note">
                           <g class="notehead">
                              <use xlink:href="#E0A4-138rw4x" x="8430" y="1175" height="720px" width="720px" />
                           </g>
                           <g id="s12xy0t8" class="stem">
                              <rect x="8430" y="1203" height="674" width="18" />
                           </g>
                        </g>
                     </g>
                  </g>
               </g>
               <g id="d1l3g8fl" class="dir">
                  <text x="7099" y="957" font-size="0px">
                     <tspan id="r1mjh8oy" class="rend" font-weight="bold">
                        <tspan id="t1jrucuf" class="text">
                           <tspan font-size="405px" class="text">Bis</tspan>
                        </tspan>
                     </tspan>
                  </text>
               </g>
               <g id="b1a58jim" class="barLine">
                  <path d="M8955 1085 L8955 1805" stroke="currentColor" stroke-width="27" />
               </g>
            </g>
            <g id="m1jsyuqv" class="measure">
               <g id="s1t53wfa" class="staff">
                  <path d="M8968 1085 L11383 1085" stroke="currentColor" stroke-width="13" />
                  <path d="M8968 1265 L11383 1265" stroke="currentColor" stroke-width="13" />
                  <path d="M8968 1445 L11383 1445" stroke="currentColor" stroke-width="13" />
                  <path d="M8968 1625 L11383 1625" stroke="currentColor" stroke-width="13" />
                  <path d="M8968 1805 L11383 1805" stroke="currentColor" stroke-width="13" />
                  <g id="l15fdqs5" class="layer">
                     <g id="bi5jrik" class="beam">
                        <polygon points="9149,1895 9692,1940 9692,1850 9149,1805" />
                        <g id="n1fy1980" class="note">
                           <g class="notehead">
                              <use xlink:href="#E0A4-138rw4x" x="9149" y="1175" height="720px" width="720px" />
                           </g>
                           <g id="skxrovp" class="stem">
                              <rect x="9149" y="1203" height="674" width="18" />
                           </g>
                        </g>
                        <g id="n1e35hfo" class="note">
                           <g class="notehead">
                              <use xlink:href="#E0A4-138rw4x" x="9674" y="1265" height="720px" width="720px" />
                           </g>
                           <g id="s165r813" class="stem">
                              <rect x="9674" y="1293" height="629" width="18" />
                           </g>
                        </g>
                     </g>
                     <g id="njjsu0k" class="note">
                        <g class="notehead">
                           <use xlink:href="#E0A4-138rw4x" x="10199" y="1175" height="720px" width="720px" />
                        </g>
                        <g id="sl8i8lk" class="stem">
                           <rect x="10199" y="1203" height="602" width="18" />
                        </g>
                     </g>
                  </g>
               </g>
               <g id="blnaebe" class="barLine">
                  <path d="M11005 1085 L11005 1805" stroke="currentColor" stroke-width="27" />
                  <path d="M11135 1085 L11135 1805" stroke="currentColor" stroke-width="90" />
                  <path d="M11266 1085 L11266 1805" stroke="currentColor" stroke-width="27" />
                  <use xlink:href="#E044-138rw4x" x="11311" y="1355" height="720px" width="720px" />
                  <use xlink:href="#E044-138rw4x" x="11311" y="1535" height="720px" width="720px" />
                  <use xlink:href="#E044-138rw4x" x="10888" y="1355" height="720px" width="720px" />
                  <use xlink:href="#E044-138rw4x" x="10888" y="1535" height="720px" width="720px" />
               </g>
            </g>
            <g id="mda2fdg" class="measure">
               <g id="snhh03b" class="staff">
                  <path d="M11383 1085 L13433 1085" stroke="currentColor" stroke-width="13" />
                  <path d="M11383 1265 L13433 1265" stroke="currentColor" stroke-width="13" />
                  <path d="M11383 1445 L13433 1445" stroke="currentColor" stroke-width="13" />
                  <path d="M11383 1625 L13433 1625" stroke="currentColor" stroke-width="13" />
                  <path d="M11383 1805 L13433 1805" stroke="currentColor" stroke-width="13" />
                  <g id="l11bc1wd" class="layer">
                     <g id="nd0vccd" class="note">
                        <g class="notehead">
                           <use xlink:href="#E0A4-138rw4x" x="11564" y="1355" height="720px" width="720px" />
                        </g>
                        <g id="s1bn6tr4" class="stem">
                           <rect x="11564" y="1383" height="602" width="18" />
                        </g>
                     </g>
                     <g id="b292qc4" class="beam">
                        <polygon points="12370,1940 12913,1895 12913,1805 12370,1850" />
                        <g id="n1jueweh" class="note">
                           <g class="notehead">
                              <use xlink:href="#E0A4-138rw4x" x="12370" y="1265" height="720px" width="720px" />
                           </g>
                           <g id="s1gewk8a" class="stem">
                              <rect x="12370" y="1293" height="629" width="18" />
                           </g>
                        </g>
                        <g id="n1dnq2ra" class="note">
                           <g class="notehead">
                              <use xlink:href="#E0A4-138rw4x" x="12895" y="1175" height="720px" width="720px" />
                           </g>
                           <g id="snkp5uw" class="stem">
                              <rect x="12895" y="1203" height="674" width="18" />
                           </g>
                        </g>
                     </g>
                  </g>
               </g>
               <g id="b1b4o1eg" class="barLine">
                  <path d="M13420 1085 L13420 1805" stroke="currentColor" stroke-width="27" />
               </g>
            </g>
            <g id="m14udfkd" class="measure">
               <g id="s11qm6nw" class="staff">
                  <path d="M13433 1085 L15902 1085" stroke="currentColor" stroke-width="13" />
                  <path d="M13433 1265 L15902 1265" stroke="currentColor" stroke-width="13" />
                  <path d="M13433 1445 L15902 1445" stroke="currentColor" stroke-width="13" />
                  <path d="M13433 1625 L15902 1625" stroke="currentColor" stroke-width="13" />
                  <path d="M13433 1805 L15902 1805" stroke="currentColor" stroke-width="13" />
                  <g id="lamc9tc" class="layer">
                     <g id="b1fuaw55" class="beam">
                        <polygon points="13614,1895 14157,1940 14157,1850 13614,1805" />
                        <g id="nde3r87" class="note">
                           <g class="notehead">
                              <use xlink:href="#E0A4-138rw4x" x="13614" y="1175" height="720px" width="720px" />
                           </g>
                           <g id="s1301aeb" class="stem">
                              <rect x="13614" y="1203" height="674" width="18" />
                           </g>
                        </g>
                        <g id="n1e9lcar" class="note">
                           <g class="notehead">
                              <use xlink:href="#E0A4-138rw4x" x="14139" y="1265" height="720px" width="720px" />
                           </g>
                           <g id="s1e55ef8" class="stem">
                              <rect x="14139" y="1293" height="629" width="18" />
                           </g>
                        </g>
                     </g>
                     <g id="b5l0kuw" class="beam">
                        <polygon points="14664,1895 15557,2075 15557,1985 14664,1805" />
                        <polygon points="15198,1868 15557,1940 15557,1850 15198,1778" />
                        <g id="n1np47gh" class="note">
                           <g class="notehead">
                              <use xlink:href="#E0A4-138rw4x" x="14664" y="1175" height="720px" width="720px" />
                           </g>
                           <g id="syzmtcz" class="stem">
                              <rect x="14664" y="1203" height="674" width="18" />
                           </g>
                        </g>
                        <g id="n7vbd91" class="note">
                           <g class="notehead">
                              <use xlink:href="#E0A4-138rw4x" x="15189" y="1355" height="720px" width="720px" />
                           </g>
                           <g id="scwgiy5" class="stem">
                              <rect x="15189" y="1383" height="602" width="18" />
                           </g>
                        </g>
                        <g id="nfzao3l" class="note">
                           <g class="notehead">
                              <use xlink:href="#E0A4-138rw4x" x="15539" y="1445" height="720px" width="720px" />
                           </g>
                           <g id="s180leda" class="stem">
                              <rect x="15539" y="1473" height="584" width="18" />
                           </g>
                        </g>
                     </g>
                  </g>
               </g>
               <g id="b3yf1tw" class="barLine">
                  <path d="M15889 1085 L15889 1805" stroke="currentColor" stroke-width="27" />
               </g>
            </g>
            <g id="m8lxpr0" class="measure">
               <g id="srl9xiv" class="staff">
                  <path d="M15902 1085 L17952 1085" stroke="currentColor" stroke-width="13" />
                  <path d="M15902 1265 L17952 1265" stroke="currentColor" stroke-width="13" />
                  <path d="M15902 1445 L17952 1445" stroke="currentColor" stroke-width="13" />
                  <path d="M15902 1625 L17952 1625" stroke="currentColor" stroke-width="13" />
                  <path d="M15902 1805 L17952 1805" stroke="currentColor" stroke-width="13" />
                  <g id="l1nohdgl" class="layer">
                     <g id="n1xb55ht" class="note">
                        <g class="notehead">
                           <use xlink:href="#E0A4-138rw4x" x="16083" y="1535" height="720px" width="720px" />
                        </g>
                        <g id="s1f6ahrw" class="stem">
                           <rect x="16291" y="905" height="602" width="18" />
                        </g>
                     </g>
                     <g id="bu6nfy1" class="beam">
                        <polygon points="17097,905 17640,905 17640,995 17097,995" />
                        <g id="n13kusdu" class="note">
                           <g class="notehead">
                              <use xlink:href="#E0A4-138rw4x" x="16889" y="1535" height="720px" width="720px" />
                           </g>
                           <g id="s1s1w6u" class="stem">
                              <rect x="17097" y="923" height="584" width="18" />
                           </g>
                        </g>
                        <g id="n1t8sjll" class="note">
                           <g class="notehead">
                              <use xlink:href="#E0A4-138rw4x" x="17414" y="1535" height="720px" width="720px" />
                           </g>
                           <g id="s1v0b0aq" class="stem">
                              <rect x="17622" y="923" height="584" width="18" />
                           </g>
                        </g>
                     </g>
                  </g>
               </g>
               <g id="b1sciejx" class="barLine">
                  <path d="M17939 1085 L17939 1805" stroke="currentColor" stroke-width="27" />
               </g>
            </g>
            <g id="m1i8yeck" class="measure">
               <g id="sfi7gt" class="staff">
                  <path d="M17952 1085 L20002 1085" stroke="currentColor" stroke-width="13" />
                  <path d="M17952 1265 L20002 1265" stroke="currentColor" stroke-width="13" />
                  <path d="M17952 1445 L20002 1445" stroke="currentColor" stroke-width="13" />
                  <path d="M17952 1625 L20002 1625" stroke="currentColor" stroke-width="13" />
                  <path d="M17952 1805 L20002 1805" stroke="currentColor" stroke-width="13" />
                  <g id="ly27a2o" class="layer">
                     <g id="ns0wgj6" class="note">
                        <g class="notehead">
                           <use xlink:href="#E0A4-138rw4x" x="18133" y="1355" height="720px" width="720px" />
                        </g>
                        <g id="s178m4ha" class="stem">
                           <rect x="18133" y="1383" height="602" width="18" />
                        </g>
                     </g>
                     <g id="b1oteuyq" class="beam">
                        <polygon points="18939,1940 19482,1895 19482,1805 18939,1850" />
                        <g id="nkw11zr" class="note">
                           <g class="notehead">
                              <use xlink:href="#E0A4-138rw4x" x="18939" y="1265" height="720px" width="720px" />
                           </g>
                           <g id="s1if49rp" class="stem">
                              <rect x="18939" y="1293" height="629" width="18" />
                           </g>
                        </g>
                        <g id="n1c9vmb9" class="note">
                           <g class="notehead">
                              <use xlink:href="#E0A4-138rw4x" x="19464" y="1175" height="720px" width="720px" />
                           </g>
                           <g id="sasx4ya" class="stem">
                              <rect x="19464" y="1203" height="674" width="18" />
                           </g>
                        </g>
                     </g>
                  </g>
               </g>
               <g id="bjerdxg" class="barLine">
                  <path d="M19989 1085 L19989 1805" stroke="currentColor" stroke-width="27" />
               </g>
            </g>
         </g>
         <g id="shxev13" class="system">
            <g id="l1m3g4kn" class="labelAbbr">
               <text x="914" y="3884" text-anchor="end" font-size="0px">
                  <tspan id="t1iucjp6" class="text">
                     <tspan font-size="405px" class="text">Pno.</tspan>
                  </tspan>
               </text>
            </g>
            <g id="m1f4uvq" class="measure">
               <g id="m102yuzy" class="mNum autogenerated">
                  <text x="1094" y="3191" text-anchor="middle" font-size="0px">
                     <tspan id="tyz1t0o" class="text">
                        <tspan font-size="324px" class="text">9</tspan>
                     </tspan>
                  </text>
               </g>
               <g id="s1hk1dbp" class="staff">
                  <path d="M1094 3434 L4382 3434" stroke="currentColor" stroke-width="13" />
                  <path d="M1094 3614 L4382 3614" stroke="currentColor" stroke-width="13" />
                  <path d="M1094 3794 L4382 3794" stroke="currentColor" stroke-width="13" />
                  <path d="M1094 3974 L4382 3974" stroke="currentColor" stroke-width="13" />
                  <path d="M1094 4154 L4382 4154" stroke="currentColor" stroke-width="13" />
                  <g id="c1757qxe" class="clef">
                     <use xlink:href="#E050-138rw4x" x="1184" y="3974" height="720px" width="720px" />
                  </g>
                  <g id="kkoh76w" class="keySig" />
                  <g id="lzhav6k" class="layer">
                     <g id="b1j2o1wl" class="beam">
                        <polygon points="1919,4244 2462,4289 2462,4199 1919,4154" />
                        <g id="nht78z3" class="note">
                           <g class="notehead">
                              <use xlink:href="#E0A4-138rw4x" x="1919" y="3524" height="720px" width="720px" />
                           </g>
                           <g id="s1hjga9g" class="stem">
                              <rect x="1919" y="3552" height="674" width="18" />
                           </g>
                        </g>
                        <g id="n1huuyf2" class="note">
                           <g class="notehead">
                              <use xlink:href="#E0A4-138rw4x" x="2444" y="3614" height="720px" width="720px" />
                           </g>
                           <g id="siarrd8" class="stem">
                              <rect x="2444" y="3642" height="629" width="18" />
                           </g>
                        </g>
                     </g>
                     <g id="bus66xl" class="beam">
                        <polygon points="2969,4334 4037,4379 4037,4289 2969,4244" />
                        <polygon points="2969,4199 3328,4214 3328,4124 2969,4109" />
                        <polygon points="3328,4214 3678,4229 3678,4139 3328,4124" />
                        <polygon points="3678,4229 4037,4244 4037,4154 3678,4139" />
                        <g id="ny22max" class="note">
                           <g class="notehead">
                              <use xlink:href="#E0A4-138rw4x" x="2969" y="3524" height="720px" width="720px" />
                           </g>
                           <g id="s1rxdv7o" class="stem">
                              <rect x="2969" y="3552" height="764" width="18" />
                           </g>
                        </g>
                        <g id="npbph3z" class="note">
                           <g class="notehead">
                              <use xlink:href="#E0A4-138rw4x" x="3319" y="3614" height="720px" width="720px" />
                           </g>
                           <g id="s1xt3ynd" class="stem">
                              <rect x="3319" y="3642" height="689" width="18" />
                           </g>
                        </g>
                        <g id="nsu4l99" class="note">
                           <g class="notehead">
                              <use xlink:href="#E0A4-138rw4x" x="3669" y="3524" height="720px" width="720px" />
                           </g>
                           <g id="s157zi1j" class="stem">
                              <rect x="3669" y="3552" height="794" width="18" />
                           </g>
                        </g>
                        <g id="nbsojel" class="note">
                           <g class="notehead">
                              <use xlink:href="#E0A4-138rw4x" x="4019" y="3704" height="720px" width="720px" />
                           </g>
                           <g id="s9fmcic" class="stem">
                              <rect x="4019" y="3732" height="629" width="18" />
                           </g>
                        </g>
                     </g>
                  </g>
               </g>
               <g id="b1oivjbs" class="barLine">
                  <path d="M4369 3434 L4369 4154" stroke="currentColor" stroke-width="27" />
               </g>
            </g>
            <g id="sesn77i" class="sb" />
            <g id="m18xt5tb" class="measure">
               <g id="sloyw1y" class="staff">
                  <path d="M4382 3434 L6001 3434" stroke="currentColor" stroke-width="13" />
                  <path d="M4382 3614 L6001 3614" stroke="currentColor" stroke-width="13" />
                  <path d="M4382 3794 L6001 3794" stroke="currentColor" stroke-width="13" />
                  <path d="M4382 3974 L6001 3974" stroke="currentColor" stroke-width="13" />
                  <path d="M4382 4154 L6001 4154" stroke="currentColor" stroke-width="13" />
                  <g id="mqjdfsd" class="meterSig">
                     <use xlink:href="#E081-138rw4x" x="4491" y="3614" height="720px" width="720px" />
                     <use xlink:href="#E084-138rw4x" x="4458" y="3974" height="720px" width="720px" />
                  </g>
                  <g id="lity7nc" class="layer">
                     <g id="nav0ua6" class="note">
                        <g class="notehead">
                           <use xlink:href="#E0A4-138rw4x" x="5020" y="3884" height="720px" width="720px" />
                        </g>
                        <g id="s1v1jh4l" class="stem">
                           <rect x="5228" y="3254" height="602" width="18" />
                        </g>
                     </g>
                  </g>
               </g>
               <g id="bs5p3fd" class="barLine">
                  <path d="M5826 3434 L5826 4154" stroke="currentColor" stroke-width="27" />
                  <path d="M5956 3434 L5956 4154" stroke="currentColor" stroke-width="90" />
               </g>
            </g>
            <g id="s1sgzcwr" class="systemMilestoneEnd s1go5s2j" />
         </g>
         <g id="pj2cx83" class="pageMilestoneEnd s6vicj8" />
         <g id="pko23s" class="pageMilestoneEnd m1erq6p8" />
         <g id="p1oyfpzw" class="pgHead">
            <text x="0" y="0" font-size="0px">
               <tspan id="r1b8gvoi" class="rend" x="10000" y="277" text-anchor="middle">
                  <tspan id="t1qrf1k6" class="text">
                     <tspan font-size="405px" class="text">Air n 208</tspan>
                  </tspan>
               </tspan>
            </text>
         </g>
         <g id="pzl8r8o" class="pgFoot autogenerated">
            <g id="f1wbn5cf" class="fig">
               <g id="s11mtor3" class="svg" transform="translate(7750, 28099) scale(10, 10)">
                  <g>
                     <path fill="#00000" d="M 17.11278,49.26451 V 10.367554 h 12.696511 c 3.288815,7.336676 6.71267,14.610456 10.127281,21.888976 3.419998,-7.484684 6.255515,-14.204887 9.58887,-21.909915 2.436207,0.103726 4.316952,0.08453 6.484294,-0.05808 V 49.264423 H 50.274275 C 50.145222,38.35639 50.016136,27.448368 49.887066,16.540329 45.003488,27.315459 39.967448,38.433564 35.083854,49.208695 34.678996,49.343717 34.426583,49.135619 34.021726,49.270644 29.46588,39.330716 24.910049,29.390805 20.354201,19.450876 20.224341,29.388756 20.09461,39.326619 19.964815,49.264497 H 17.11278 Z M 36.754144,39.324695 C 32.721221,30.512695 28.6883,21.700679 24.655394,12.888662 22.530527,12.750737 22.656775,12.71031 20.714356,12.813974 v 0.966497 c 4.612938,9.99784 9.609439,20.748709 13.87298,30.081745 0.722248,-1.512523 1.444528,-3.025014 2.166808,-4.537521 z m 25.738417,9.939815 c 0,-12.965651 0,-25.931305 0,-38.896956 10.084388,0 20.168791,0 30.253178,0 0,0.960416 0,1.920849 0,2.881265 -6.482825,0 -12.965652,0 -19.448478,0 0,4.802097 0,9.604178 0,14.406277 5.52241,0 11.044819,0 16.567229,0 0,0.960415 0,1.920832 0,2.881248 -5.52241,0 -11.044819,0 -16.567229,0 0,5.282306 0,10.564611 0,15.846917 6.963035,0 13.926068,0 20.889103,0 0,0.960416 0,1.920832 0,2.881249 -10.564597,0 -21.129207,0 -31.693803,0 z m 4.321874,-2.160937 c 0,-11.765131 0,-23.530263 0,-35.295394 -0.720312,0 -1.440625,0 -2.160937,0 0,11.765131 0,23.530263 0,35.295394 0.720312,0 1.440625,0 2.160937,0 z m 32.41413,2.160937 c 0,-12.965651 0,-25.931305 0,-38.896956 2.401045,0 4.802095,0 7.203135,0 0,12.965651 0,25.931305 0,38.896956 -2.40104,0 -4.80209,0 -7.203135,0 z m 2.881265,-2.160937 c 0,-11.765131 0,-23.530263 0,-35.295394 -0.72031,0 -1.44064,0 -2.160953,0 0,11.765131 0,23.530263 0,35.295394 0.720313,0 1.440643,0 2.160953,0 z" />
                     <path fill="#00000" d="m 346.3,6.7 c -3.1,0.5 -4.9,4.4 -2.7,6.8 1.2,1.4 2.7,2.4 4.1,3.5 -2.4,5.3 -7.7,8.3 -11.9,12.1 -3.7,2.8 -7,6.2 -9.7,9.9 -2.2,-0.8 -0.3,-6.8 -0.6,-9.5 0.1,-3.1 0.7,-6.4 2.9,-8.7 1.3,-1.9 3,-3.5 4.5,-5.2 1.2,-3.4 -3.2,-4.9 -5.8,-4.6 -7.3,-0.5 -14.6,2 -20,6.8 -5,4.6 -10,10.1 -11.5,17 -0.9,3.5 -0.2,7.5 2.8,9.9 2.5,2.8 7.4,2.9 9.8,-0.2 1.7,-2.3 3.2,-4.8 3.8,-7.6 -0.1,-2.6 -4.4,-2.3 -4.3,0.2 1.2,2.4 -0.9,4.7 -2.7,6.2 -1.7,0.9 -4.7,0.7 -4.8,-1.7 -1,-5.8 2.1,-11.3 5.2,-16.1 4,-5.8 9.8,-11.2 17.2,-11.8 1.6,0 8.1,-1.2 6.8,1.4 -2.8,2.8 -5.6,6.1 -6,10.3 -1.6,7.7 0.1,15.7 -2.3,23.2 -1.1,3.9 2,2.6 2.5,0.2 3.3,-7.4 8.9,-13.4 15.1,-18.5 4.2,-3.9 9.5,-7.1 11.9,-12.6 1.3,-3.6 1.2,-9 -2.7,-10.9 -0.6,-0.2 -1.2,-0.3 -1.8,-0.3 z m 66,14.5 c -2,0.8 -1.8,4.9 0.8,4.4 3.4,0.4 2.9,-6.2 -0.8,-4.4 z m 0.6,7.3 c -1.3,0.5 -7.6,0.5 -5.4,2.2 4,-0.3 0.7,4.5 0.6,6.7 -0.4,2.9 -2.4,5.9 -1.2,8.8 2.7,1.7 5.6,-0.8 6.8,-3.2 1.6,-1.4 -0.5,-3 -1.2,-0.9 -0.4,0.8 -2.4,3.5 -2.6,1.8 1.1,-5 2.7,-9.9 3.9,-14.9 l -0.1,-0.5 h -0.9 z m -65.1,0.2 c -6.5,1.6 -10.5,9.5 -8.2,15.7 2.1,3.4 7.4,2.9 10.1,0.4 2,-0.2 3.6,-5.3 1,-3.4 -1.4,2 -4,4.2 -6.5,2.8 -2.2,-1.9 -1.9,-5.7 1.7,-5.3 3.1,-0.9 6.9,-2.1 8.1,-5.5 0.9,-2.7 -1.6,-5.2 -4.3,-4.8 h -1.1 -0.7 z m 13.6,0 c -2.2,0 -8.5,1.8 -2.9,2.3 0.9,1.9 -1,4.9 -1.1,7.2 -0.5,2.9 -1.4,5.7 -1.7,8.7 3.7,0.7 3.8,-2.6 4.4,-5.3 0.9,-3.3 1.6,-7 4.1,-9.5 2.4,1.6 6.8,-0.7 3.7,-3.4 -2.9,-0.5 -4.8,2.4 -6.2,4.3 0,-1.2 2.4,-5 -0.2,-4.3 z m 15.8,0 c -6.4,1.3 -9.6,9.1 -7.7,14.9 1.9,4 7.7,3.9 11,1.7 4.1,-3 6,-8.9 4.4,-13.7 -1.3,-3 -4.8,-3.2 -7.6,-3 z m 17,0 c -2.3,0 -8.8,1.9 -3,2.4 0.4,2.5 -1,5.7 -1.4,8.4 -0.7,2.4 -1.8,7.5 2.1,7.2 3.8,-0.1 6.5,-3.5 8.5,-6.3 2,-3.2 4.5,-7 3.3,-10.9 -3.7,-3 -3.6,2.6 -3.1,5.1 -0.7,3.8 -2.7,7.9 -6.2,9.8 -3.6,0.6 -1,-4.3 -0.8,-6.1 0.6,-3.2 1.6,-6.3 1.9,-9.5 -0.4,0 -0.8,0 -1.1,0 z m 30.6,0 c -6.3,1.2 -9.5,8.9 -7.8,14.7 1.5,4 7.2,4.2 10.5,2.4 4.6,-2.8 6.6,-9.3 4.8,-14.3 -1.4,-2.8 -4.8,-3 -7.5,-2.8 z m -75.4,1.7 c 2.1,1.5 0.2,4.7 -1.6,5.7 -1.1,0.4 -5.5,3.4 -4.6,0.7 0.8,-2.7 2.2,-6.2 5.3,-6.6 l 0.9,0.1 z m 30.8,0 c 2.6,1.5 1.3,5.2 0.8,7.6 -0.8,2.7 -1.9,5.9 -4.7,7.1 -5.1,0.8 -4,-5.8 -2.8,-8.8 1,-2.8 3,-6.8 6.7,-5.8 z m 47.1,-0.1 c 2.9,0.7 2,4.7 1.5,6.8 -0.7,3 -1.8,6.7 -5,8 -4.7,0.8 -4,-5.1 -3,-7.9 0.9,-3 2.7,-7.3 6.5,-6.8 z m -88.1,5.9 c -0.3,1.3 0.9,-0.6 0,0 z m -1.1,2.4 c -0.2,0.5 0.5,-0.1 0,0 z m -1.3,4.5 c -0.3,1.3 0.8,-0.2 0,0 z" />
                     <text y="41" x="201" fill="#00000" style="font-style:italic;font-weight:normal;font-size:30px;line-height:125%;font-family:Times;text-anchor:middle" xml:space="preserve">engraved with</text>
                  </g>
               </g>
            </g>
         </g>
      </g>
   </svg>
</svg>
