<?xml version="1.0" encoding="UTF-8" standalone="no"?>
<svg width="2100px" height="2970px" version="1.1" xmlns="http://www.w3.org/2000/svg" xmlns:xlink="http://www.w3.org/1999/xlink" xmlns:mei="http://www.music-encoding.org/ns/mei" overflow="visible">
   <desc>Engraved by Verovio 3.13.1</desc>
   <defs>
      <symbol id="E655-p5hg8c" viewBox="0 0 1000 1000" overflow="inherit">
         <path transform="scale(1,-1)" d="M217 245c-22 0 -39 -16 -39 -37c0 -18 21 -34 39 -35c20 0 35 18 35 37c0 21 -15 34 -35 35zM44 318c3 26 25 51 52 51c16 0 28 -4 32 -12c11 -14 14 -56 22 -76c6 -8 14 -12 25 -14l16 5c9 5 14 11 15 25c0 7 -2 13 -5 17l-11 18l-17 17l-9 22c0 28 25 47 53 47 s50 -23 50 -47c0 -20 -7 -25 -21 -39l-15 -20c-4 -7 -6 -13 -7 -18c1 -4 5 -11 5 -14l11 -11l14 -7c20 2 30 22 33 47c0 39 17 58 49 58c26 0 46 -21 46 -47c0 -29 -23 -46 -54 -46c-30 0 -45 -11 -48 -34l5 -12c1 -3 4 -5 7 -8c1 -2 6 -3 14 -5c10 2 17 6 23 12 c8 3 6 4 16 12l21 15c4 3 12 5 21 5c23 0 43 -26 44 -49c0 -20 -16 -41 -30 -49c-3 -1 -10 -3 -19 -4c-7 1 -16 7 -30 18l-26 19c-4 3 -11 4 -20 4c-8 0 -14 -1 -17 -4l-9 -19c2 -13 6 -21 14 -24l11 -4l27 -5c16 0 28 -4 37 -12c9 -6 13 -17 13 -34c0 -13 -5 -25 -14 -34 c-9 -8 -22 -13 -36 -16c-11 2 -23 8 -34 19c-8 11 -11 27 -11 47c0 11 -4 21 -7 27c-5 8 -14 12 -26 12c-19 0 -29 -15 -32 -31c3 -7 8 -14 11 -21c4 -8 8 -14 13 -21l8 -8l5 -10c3 -5 4 -13 5 -21c0 -26 -26 -39 -52 -39c-25 0 -45 15 -48 39c1 6 5 18 7 21 c11 14 22 29 33 43c2 4 3 10 4 19c0 17 -8 26 -24 29c-31 0 -40 -20 -40 -51s-17 -49 -48 -54c-33 7 -42 20 -50 52c3 31 25 46 66 46c19 0 37 12 37 31c0 8 -3 13 -8 16c-3 4 -8 7 -16 7c-10 0 -24 -6 -40 -18c-14 -9 -25 -16 -39 -21c-28 3 -45 20 -46 51 c0 26 18 47 44 47c19 0 31 -9 44 -19l18 -14l19 -7c18 4 26 12 26 23c0 23 -15 34 -46 34c-37 0 -57 14 -61 44z" />
      </symbol>
      <symbol id="E240-p5hg8c" viewBox="0 0 1000 1000" overflow="inherit">
         <path transform="scale(1,-1)" d="M179 -646c15 29 29 55 46 102c18 49 30 108 30 138c0 105 -80 173 -168 200c-18 5 -47 9 -87 16v190h22c8 0 33 -61 71 -95c4 -3 -2 3 61 -56c62 -58 122 -137 122 -241c0 -38 -13 -106 -35 -163c-20 -51 -43 -99 -66 -132c-6 -5 -10 -7 -13 -7s-5 2 -5 5l4 10 c1 3 14 25 18 33z" />
      </symbol>
      <symbol id="E262-p5hg8c" viewBox="0 0 1000 1000" overflow="inherit">
         <path transform="scale(1,-1)" d="M136 186v169h17v-164l44 14v-91l-44 -14v-165l44 12v-91l-44 -13v-155h-17v150l-76 -22v-155h-17v149l-43 -13v90l43 14v167l-43 -14v92l43 13v169h17v-163zM60 73v-167l76 22v168z" />
      </symbol>
      <symbol id="E044-p5hg8c" viewBox="0 0 1000 1000" overflow="inherit">
         <path transform="scale(1,-1)" d="M0 0c0 28 22 50 50 50s50 -22 50 -50s-22 -50 -50 -50s-50 22 -50 50z" />
      </symbol>
      <symbol id="E050-p5hg8c" viewBox="0 0 1000 1000" overflow="inherit">
         <path transform="scale(1,-1)" d="M441 -245c-23 -4 -48 -6 -76 -6c-59 0 -102 7 -130 20c-88 42 -150 93 -187 154c-26 44 -43 103 -48 176c0 6 -1 13 -1 19c0 54 15 111 45 170c29 57 65 106 110 148s96 85 153 127c-3 16 -8 46 -13 92c-4 43 -5 73 -5 89c0 117 16 172 69 257c34 54 64 82 89 82 c21 0 43 -30 69 -92s39 -115 41 -159v-15c0 -109 -21 -162 -67 -241c-13 -20 -63 -90 -98 -118c-13 -9 -25 -19 -37 -29l31 -181c8 1 18 2 28 2c58 0 102 -12 133 -35c59 -43 92 -104 98 -184c1 -7 1 -15 1 -22c0 -123 -87 -209 -181 -248c8 -57 17 -110 25 -162 c5 -31 6 -58 6 -80c0 -30 -5 -53 -14 -70c-35 -64 -88 -99 -158 -103c-5 0 -11 -1 -16 -1c-37 0 -72 10 -108 27c-50 24 -77 59 -80 105v11c0 29 7 55 20 76c18 28 45 42 79 44h6c49 0 93 -42 97 -87v-9c0 -51 -34 -86 -105 -106c17 -24 51 -36 102 -36c62 0 116 43 140 85 c9 16 13 41 13 74c0 20 -1 42 -5 67c-8 53 -18 106 -26 159zM461 939c-95 0 -135 -175 -135 -286c0 -24 2 -48 5 -71c50 39 92 82 127 128c40 53 60 100 60 140v8c-4 53 -22 81 -55 81h-2zM406 119l54 -326c73 25 110 78 110 161c0 7 0 15 -1 23c-7 95 -57 142 -151 142h-12 zM382 117c-72 -2 -128 -47 -128 -120v-7c2 -46 43 -99 75 -115c-3 -2 -7 -5 -10 -10c-70 33 -116 88 -123 172v11c0 68 44 126 88 159c23 17 49 29 78 36l-29 170c-21 -13 -52 -37 -92 -73c-50 -44 -86 -84 -109 -119c-45 -69 -67 -130 -67 -182v-13c5 -68 35 -127 93 -176 s125 -73 203 -73c25 0 50 3 75 9c-19 111 -36 221 -54 331z" />
      </symbol>
      <symbol id="E086-p5hg8c" viewBox="0 0 1000 1000" overflow="inherit">
         <path transform="scale(1,-1)" d="M284 -91c0 37 -28 92 -67 92c-35 0 -65 -54 -65 -111c0 -52 22 -104 68 -104c47 0 64 68 64 123zM230 214c-36 0 -90 -33 -90 -184l2 -36c40 24 81 36 120 36c80 0 140 -48 140 -121c0 -99 -99 -159 -182 -159c-160 0 -200 173 -200 244c0 21 2 43 7 71l10 35 c26 85 73 115 98 126c41 19 74 24 103 24c93 0 142 -63 142 -105c0 -58 -52 -72 -73 -72c-33 0 -59 24 -65 35c-3 5 -6 14 -7 25l11 30c6 15 9 27 9 35c0 11 -9 16 -25 16z" />
      </symbol>
      <symbol id="E088-p5hg8c" viewBox="0 0 1000 1000" overflow="inherit">
         <path transform="scale(1,-1)" d="M195 -214c76 0 88 58 90 68c0 34 -35 60 -57 73l-52 29c-21 10 -32 17 -34 20c-39 -33 -58 -54 -62 -92c5 -23 23 -98 115 -98zM301 135c0 61 -72 76 -113 76c-40 0 -77 -17 -77 -51c3 -21 15 -38 26 -50c17 -15 33 -26 48 -34l65 -28c34 27 51 56 51 87zM176 -250 c-57 0 -166 26 -166 132c0 47 30 86 89 116c-33 15 -79 60 -79 119c0 79 85 132 178 132h18c5 0 21 1 28 -1c25 0 126 -30 126 -110c0 -37 -23 -76 -69 -116c43 -25 83 -71 83 -119c0 -101 -118 -153 -208 -153z" />
      </symbol>
      <symbol id="E0A4-p5hg8c" viewBox="0 0 1000 1000" overflow="inherit">
         <path transform="scale(1,-1)" d="M0 -39c0 68 73 172 200 172c66 0 114 -37 114 -95c0 -84 -106 -171 -218 -171c-64 0 -96 30 -96 94z" />
      </symbol>
   </defs>
   <style type="text/css">g.page-margin{font-family:Times;} g.ending, g.fing, g.reh, g.tempo{font-weight:bold;} g.dir, g.dynam, g.mNum{font-style:italic;} g.label{font-weight:normal;}</style>
   <svg class="definition-scale" color="black" viewBox="0 0 21000 29700">
      <g class="page-margin" transform="translate(500, 500)">
         <g id="m6kek4x" class="mdiv pageMilestone" />
         <g id="s6ichdn" class="score pageMilestone" />
         <g id="s4hf4qf" class="system">
            <g id="l21lhy9" class="label">
               <text x="1105" y="1535" text-anchor="end" font-size="0px">
                  <tspan id="tzhfc38" class="text">
                     <tspan font-size="405px" class="text">Piano</tspan>
                  </tspan>
               </text>
            </g>
            <g id="s1auyffr" class="section systemMilestone" />
            <g id="p13fbet" class="pb" />
            <g id="m1apqrkk" class="measure">
               <g id="s1k3x8wj" class="staff">
                  <path d="M1285 1085 L6096 1085" stroke="currentColor" stroke-width="13" />
                  <path d="M1285 1265 L6096 1265" stroke="currentColor" stroke-width="13" />
                  <path d="M1285 1445 L6096 1445" stroke="currentColor" stroke-width="13" />
                  <path d="M1285 1625 L6096 1625" stroke="currentColor" stroke-width="13" />
                  <path d="M1285 1805 L6096 1805" stroke="currentColor" stroke-width="13" />
                  <g id="c1waezlq" class="clef">
                     <use xlink:href="#E050-p5hg8c" x="1375" y="1625" height="720px" width="720px" />
                  </g>
                  <g id="kveuglm" class="keySig">
                     <g id="kpnt71x" class="keyAccid">
                        <use xlink:href="#E262-p5hg8c" x="2020" y="1085" height="720px" width="720px" />
                     </g>
                  </g>
                  <g id="m1kpd2o1" class="meterSig">
                     <use xlink:href="#E086-p5hg8c" x="2327" y="1265" height="720px" width="720px" />
                     <use xlink:href="#E088-p5hg8c" x="2334" y="1625" height="720px" width="720px" />
                  </g>
                  <g id="lvr2rgu" class="layer">
                     <g id="b1w3zhq4" class="beam">
                        <polygon points="3097,905 4269,905 4269,995 3097,995" />
                        <g id="not1k4h" class="note">
                           <g class="notehead">
                              <use xlink:href="#E0A4-p5hg8c" x="2889" y="1535" height="720px" width="720px" />
                           </g>
                           <g id="sz8aspf" class="stem">
                              <rect x="3097" y="923" height="584" width="18" />
                           </g>
                        </g>
                        <g id="nu97vke" class="note">
                           <g class="notehead">
                              <use xlink:href="#E0A4-p5hg8c" x="3466" y="1535" height="720px" width="720px" />
                           </g>
                           <g id="s1izddua" class="stem">
                              <rect x="3674" y="923" height="584" width="18" />
                           </g>
                        </g>
                        <g id="n10rf5zw" class="note">
                           <g class="notehead">
                              <use xlink:href="#E0A4-p5hg8c" x="4043" y="1535" height="720px" width="720px" />
                           </g>
                           <g id="s4rmzql" class="stem">
                              <rect x="4251" y="923" height="584" width="18" />
                           </g>
                        </g>
                     </g>
                     <g id="n56ml7m" class="note">
                        <g class="notehead">
                           <use xlink:href="#E0A4-p5hg8c" x="4621" y="1535" height="720px" width="720px" />
                        </g>
                        <g id="s1rx530v" class="stem">
                           <rect x="4829" y="905" height="602" width="18" />
                        </g>
                     </g>
                     <g id="nlde2k4" class="note">
                        <g class="notehead">
                           <use xlink:href="#E0A4-p5hg8c" x="5506" y="1625" height="720px" width="720px" />
                        </g>
                        <g id="skuje6z" class="stem">
                           <rect x="5714" y="995" height="602" width="18" />
                           <g id="faaampt" class="flag">
                              <use xlink:href="#E240-p5hg8c" x="5714" y="995" height="720px" width="720px" />
                           </g>
                        </g>
                     </g>
                  </g>
               </g>
               <g id="pq7mv2t" class="pedal">
                  <use xlink:href="#E655-p5hg8c" x="2788" y="2150" height="720px" width="720px" />
               </g>
               <g id="b1vdsoow" class="barLine">
                  <path d="M6083 1085 L6083 1805" stroke="currentColor" stroke-width="27" />
               </g>
            </g>
            <g id="m1osl9ho" class="measure">
               <g id="s65xg3r" class="staff">
                  <path d="M6096 1085 L9756 1085" stroke="currentColor" stroke-width="13" />
                  <path d="M6096 1265 L9756 1265" stroke="currentColor" stroke-width="13" />
                  <path d="M6096 1445 L9756 1445" stroke="currentColor" stroke-width="13" />
                  <path d="M6096 1625 L9756 1625" stroke="currentColor" stroke-width="13" />
                  <path d="M6096 1805 L9756 1805" stroke="currentColor" stroke-width="13" />
                  <g id="l1xuxbdq" class="layer">
                     <g id="b4s9j7i" class="beam">
                        <polygon points="6487,860 7659,860 7659,950 6487,950" />
                        <g id="n1eog3we" class="note">
                           <g class="notehead">
                              <use xlink:href="#E0A4-p5hg8c" x="6279" y="1535" height="720px" width="720px" />
                           </g>
                           <g id="s1o43rjr" class="stem">
                              <rect x="6487" y="878" height="629" width="18" />
                           </g>
                        </g>
                        <g id="n1p037pt" class="note">
                           <g class="notehead">
                              <use xlink:href="#E0A4-p5hg8c" x="6856" y="1445" height="720px" width="720px" />
                           </g>
                           <g id="sy1wvrm" class="stem">
                              <rect x="7064" y="878" height="539" width="18" />
                           </g>
                        </g>
                        <g id="n1ldwid7" class="note">
                           <g class="notehead">
                              <use xlink:href="#E0A4-p5hg8c" x="7433" y="1535" height="720px" width="720px" />
                           </g>
                           <g id="swbhhvh" class="stem">
                              <rect x="7641" y="878" height="629" width="18" />
                           </g>
                        </g>
                     </g>
                     <g id="bvmrr7z" class="beam">
                        <polygon points="8219,1040 9392,1040 9392,1130 8219,1130" />
                        <g id="n2tjhrw" class="note">
                           <g class="notehead">
                              <use xlink:href="#E0A4-p5hg8c" x="8011" y="1625" height="720px" width="720px" />
                           </g>
                           <g id="s17qt5gf" class="stem">
                              <rect x="8219" y="1058" height="539" width="18" />
                           </g>
                        </g>
                        <g id="n1d452o6" class="note">
                           <g class="notehead">
                              <use xlink:href="#E0A4-p5hg8c" x="8588" y="1715" height="720px" width="720px" />
                           </g>
                           <g id="s1l4aqqr" class="stem">
                              <rect x="8796" y="1058" height="629" width="18" />
                           </g>
                           <g id="a1klqguy" class="accid" />
                        </g>
                        <g id="n116eign" class="note">
                           <g class="notehead">
                              <use xlink:href="#E0A4-p5hg8c" x="9166" y="1625" height="720px" width="720px" />
                           </g>
                           <g id="si4cajz" class="stem">
                              <rect x="9374" y="1058" height="539" width="18" />
                           </g>
                        </g>
                     </g>
                  </g>
               </g>
               <g id="bw2bh0m" class="barLine">
                  <path d="M9743 1085 L9743 1805" stroke="currentColor" stroke-width="27" />
               </g>
            </g>
            <g id="m184db0a" class="measure">
               <g id="s2yy1se" class="staff">
                  <path d="M9756 1085 L13146 1085" stroke="currentColor" stroke-width="13" />
                  <path d="M9756 1265 L13146 1265" stroke="currentColor" stroke-width="13" />
                  <path d="M9756 1445 L13146 1445" stroke="currentColor" stroke-width="13" />
                  <path d="M9756 1625 L13146 1625" stroke="currentColor" stroke-width="13" />
                  <path d="M9756 1805 L13146 1805" stroke="currentColor" stroke-width="13" />
                  <g id="l10rshuh" class="layer">
                     <g id="b1038tme" class="beam">
                        <polygon points="10147,905 11319,905 11319,995 10147,995" />
                        <g id="n1lnb5ik" class="note">
                           <g class="notehead">
                              <use xlink:href="#E0A4-p5hg8c" x="9939" y="1535" height="720px" width="720px" />
                           </g>
                           <g id="slesglq" class="stem">
                              <rect x="10147" y="923" height="584" width="18" />
                           </g>
                        </g>
                        <g id="n1v1oi2t" class="note">
                           <g class="notehead">
                              <use xlink:href="#E0A4-p5hg8c" x="10516" y="1535" height="720px" width="720px" />
                           </g>
                           <g id="sl7kdt7" class="stem">
                              <rect x="10724" y="923" height="584" width="18" />
                           </g>
                        </g>
                        <g id="nlt9k6f" class="note">
                           <g class="notehead">
                              <use xlink:href="#E0A4-p5hg8c" x="11093" y="1535" height="720px" width="720px" />
                           </g>
                           <g id="s16arbkx" class="stem">
                              <rect x="11301" y="923" height="584" width="18" />
                           </g>
                        </g>
                     </g>
                     <g id="n15uxuhf" class="note">
                        <g class="notehead">
                           <use xlink:href="#E0A4-p5hg8c" x="11671" y="1535" height="720px" width="720px" />
                        </g>
                        <g id="s17fjfli" class="stem">
                           <rect x="11879" y="905" height="602" width="18" />
                        </g>
                     </g>
                     <g id="n6uu3t1" class="note">
                        <g class="notehead">
                           <use xlink:href="#E0A4-p5hg8c" x="12556" y="1625" height="720px" width="720px" />
                        </g>
                        <g id="s1ocfjc4" class="stem">
                           <rect x="12764" y="995" height="602" width="18" />
                           <g id="f19ygdab" class="flag">
                              <use xlink:href="#E240-p5hg8c" x="12764" y="995" height="720px" width="720px" />
                           </g>
                        </g>
                     </g>
                  </g>
               </g>
               <g id="bmyj691" class="barLine">
                  <path d="M13133 1085 L13133 1805" stroke="currentColor" stroke-width="27" />
               </g>
            </g>
            <g id="m1710zzq" class="measure">
               <g id="s1o8aswe" class="staff">
                  <path d="M13146 1085 L16944 1085" stroke="currentColor" stroke-width="13" />
                  <path d="M13146 1265 L16944 1265" stroke="currentColor" stroke-width="13" />
                  <path d="M13146 1445 L16944 1445" stroke="currentColor" stroke-width="13" />
                  <path d="M13146 1625 L16944 1625" stroke="currentColor" stroke-width="13" />
                  <path d="M13146 1805 L16944 1805" stroke="currentColor" stroke-width="13" />
                  <g id="l1oe97pa" class="layer">
                     <g id="b1t63vey" class="beam">
                        <polygon points="13537,860 14709,860 14709,950 13537,950" />
                        <g id="ne4p4cn" class="note">
                           <g class="notehead">
                              <use xlink:href="#E0A4-p5hg8c" x="13329" y="1535" height="720px" width="720px" />
                           </g>
                           <g id="sykn6d6" class="stem">
                              <rect x="13537" y="878" height="629" width="18" />
                           </g>
                        </g>
                        <g id="n9f3pl" class="note">
                           <g class="notehead">
                              <use xlink:href="#E0A4-p5hg8c" x="13906" y="1445" height="720px" width="720px" />
                           </g>
                           <g id="s1ewqbgj" class="stem">
                              <rect x="14114" y="878" height="539" width="18" />
                           </g>
                        </g>
                        <g id="nyh9od9" class="note">
                           <g class="notehead">
                              <use xlink:href="#E0A4-p5hg8c" x="14483" y="1535" height="720px" width="720px" />
                           </g>
                           <g id="s1actzww" class="stem">
                              <rect x="14691" y="878" height="629" width="18" />
                           </g>
                        </g>
                     </g>
                     <g id="npzppqh" class="note">
                        <g class="notehead">
                           <use xlink:href="#E0A4-p5hg8c" x="15061" y="1625" height="720px" width="720px" />
                        </g>
                        <g id="s1jq64fk" class="stem">
                           <rect x="15269" y="995" height="602" width="18" />
                        </g>
                     </g>
                     <g id="n1ukqrmw" class="note">
                        <g class="notehead">
                           <use xlink:href="#E0A4-p5hg8c" x="15946" y="1625" height="720px" width="720px" />
                        </g>
                        <g id="s1dbqsjq" class="stem">
                           <rect x="16154" y="995" height="602" width="18" />
                           <g id="ft2ni5i" class="flag">
                              <use xlink:href="#E240-p5hg8c" x="16154" y="995" height="720px" width="720px" />
                           </g>
                        </g>
                     </g>
                  </g>
               </g>
               <g id="b176eaqu" class="barLine">
                  <path d="M16566 1085 L16566 1805" stroke="currentColor" stroke-width="27" />
                  <path d="M16696 1085 L16696 1805" stroke="currentColor" stroke-width="90" />
                  <path d="M16827 1085 L16827 1805" stroke="currentColor" stroke-width="27" />
                  <use xlink:href="#E044-p5hg8c" x="16872" y="1355" height="720px" width="720px" />
                  <use xlink:href="#E044-p5hg8c" x="16872" y="1535" height="720px" width="720px" />
                  <use xlink:href="#E044-p5hg8c" x="16449" y="1355" height="720px" width="720px" />
                  <use xlink:href="#E044-p5hg8c" x="16449" y="1535" height="720px" width="720px" />
               </g>
            </g>
            <g id="migzttj" class="measure">
               <g id="s4xk4hy" class="staff">
                  <path d="M16944 1085 L20002 1085" stroke="currentColor" stroke-width="13" />
                  <path d="M16944 1265 L20002 1265" stroke="currentColor" stroke-width="13" />
                  <path d="M16944 1445 L20002 1445" stroke="currentColor" stroke-width="13" />
                  <path d="M16944 1625 L20002 1625" stroke="currentColor" stroke-width="13" />
                  <path d="M16944 1805 L20002 1805" stroke="currentColor" stroke-width="13" />
                  <g id="l10di8rh" class="layer">
                     <g id="n1cw777q" class="note">
                        <g class="notehead">
                           <use xlink:href="#E0A4-p5hg8c" x="17127" y="1895" height="720px" width="720px" />
                        </g>
                        <g id="d1cx2ab2" class="dots">
                           <ellipse cx="17443" cy="1895" rx="36" ry="36" />
                        </g>
                        <g id="sie6n3e" class="stem">
                           <rect x="17335" y="1265" height="602" width="18" />
                        </g>
                     </g>
                     <g id="bozvsng" class="beam">
                        <polygon points="18464,1220 19637,1040 19637,1130 18464,1310" />
                        <g id="nykp1fs" class="note">
                           <g class="notehead">
                              <use xlink:href="#E0A4-p5hg8c" x="18256" y="1805" height="720px" width="720px" />
                           </g>
                           <g id="s160sq6c" class="stem">
                              <rect x="18464" y="1238" height="539" width="18" />
                           </g>
                        </g>
                        <g id="n1y14osh" class="note">
                           <g class="notehead">
                              <use xlink:href="#E0A4-p5hg8c" x="18834" y="1715" height="720px" width="720px" />
                           </g>
                           <g id="s55s0wu" class="stem">
                              <rect x="19042" y="1148" height="539" width="18" />
                           </g>
                           <g id="a13g4j68" class="accid" />
                        </g>
                        <g id="n19pzcq" class="note">
                           <g class="notehead">
                              <use xlink:href="#E0A4-p5hg8c" x="19411" y="1625" height="720px" width="720px" />
                           </g>
                           <g id="s1e3qjam" class="stem">
                              <rect x="19619" y="1058" height="539" width="18" />
                           </g>
                        </g>
                     </g>
                  </g>
               </g>
               <g id="b1tu4wtb" class="barLine">
                  <path d="M19989 1085 L19989 1805" stroke="currentColor" stroke-width="27" />
               </g>
            </g>
         </g>
         <g id="s16enpjb" class="system">
            <g id="l1o8wqkv" class="labelAbbr">
               <text x="914" y="3815" text-anchor="end" font-size="0px">
                  <tspan id="t1ikptc9" class="text">
                     <tspan font-size="405px" class="text">Pno.</tspan>
                  </tspan>
               </text>
            </g>
            <g id="mb6tvqb" class="measure">
               <g id="mtg7lux" class="mNum autogenerated">
                  <text x="1094" y="3122" text-anchor="middle" font-size="0px">
                     <tspan id="t8snf12" class="text">
                        <tspan font-size="324px" class="text">6</tspan>
                     </tspan>
                  </text>
               </g>
               <g id="s1sjnldb" class="staff">
                  <path d="M1094 3365 L4540 3365" stroke="currentColor" stroke-width="13" />
                  <path d="M1094 3545 L4540 3545" stroke="currentColor" stroke-width="13" />
                  <path d="M1094 3725 L4540 3725" stroke="currentColor" stroke-width="13" />
                  <path d="M1094 3905 L4540 3905" stroke="currentColor" stroke-width="13" />
                  <path d="M1094 4085 L4540 4085" stroke="currentColor" stroke-width="13" />
                  <g id="c197x7yv" class="clef">
                     <use xlink:href="#E050-p5hg8c" x="1184" y="3905" height="720px" width="720px" />
                  </g>
                  <g id="k1431hwn" class="keySig">
                     <g id="kngdjd0" class="keyAccid">
                        <use xlink:href="#E262-p5hg8c" x="1829" y="3365" height="720px" width="720px" />
                     </g>
                  </g>
                  <g id="l6fc9q7" class="layer">
                     <g id="nv44gen" class="note">
                        <g class="notehead">
                           <use xlink:href="#E0A4-p5hg8c" x="2234" y="3815" height="720px" width="720px" />
                        </g>
                        <g id="d1ix4lbo" class="dots">
                           <ellipse cx="2550" cy="3815" rx="36" ry="36" />
                        </g>
                        <g id="s1f77lzc" class="stem">
                           <rect x="2442" y="3185" height="602" width="18" />
                        </g>
                     </g>
                     <g id="n1ck2qvr" class="note">
                        <g class="notehead">
                           <use xlink:href="#E0A4-p5hg8c" x="3233" y="3995" height="720px" width="720px" />
                        </g>
                        <g id="s1g1bke0" class="stem">
                           <rect x="3441" y="3365" height="602" width="18" />
                        </g>
                        <g id="ayduani" class="accid" />
                     </g>
                     <g id="nefv7t6" class="note">
                        <g class="notehead">
                           <use xlink:href="#E0A4-p5hg8c" x="4016" y="3905" height="720px" width="720px" />
                        </g>
                        <g id="sfjfc04" class="stem">
                           <rect x="4224" y="3275" height="602" width="18" />
                           <g id="fe1nmkw" class="flag">
                              <use xlink:href="#E240-p5hg8c" x="4224" y="3275" height="720px" width="720px" />
                           </g>
                        </g>
                     </g>
                  </g>
               </g>
               <g id="bmvt39m" class="barLine">
                  <path d="M4527 3365 L4527 4085" stroke="currentColor" stroke-width="27" />
               </g>
            </g>
            <g id="m9terfq" class="measure">
               <g id="s1no4h5t" class="staff">
                  <path d="M4540 3365 L7259 3365" stroke="currentColor" stroke-width="13" />
                  <path d="M4540 3545 L7259 3545" stroke="currentColor" stroke-width="13" />
                  <path d="M4540 3725 L7259 3725" stroke="currentColor" stroke-width="13" />
                  <path d="M4540 3905 L7259 3905" stroke="currentColor" stroke-width="13" />
                  <path d="M4540 4085 L7259 4085" stroke="currentColor" stroke-width="13" />
                  <g id="l1xcxpz8" class="layer">
                     <g id="n1ou62sy" class="note">
                        <g class="notehead">
                           <use xlink:href="#E0A4-p5hg8c" x="4714" y="3815" height="720px" width="720px" />
                        </g>
                        <g id="d1uo5p4i" class="dots">
                           <ellipse cx="5030" cy="3815" rx="36" ry="36" />
                        </g>
                        <g id="s17jz74w" class="stem">
                           <rect x="4922" y="3185" height="602" width="18" />
                        </g>
                     </g>
                     <g id="b1rgaq5r" class="beam">
                        <polygon points="5921,3140 6961,3320 6961,3410 5921,3230" />
                        <g id="n1e8gw41" class="note">
                           <g class="notehead">
                              <use xlink:href="#E0A4-p5hg8c" x="5713" y="3725" height="720px" width="720px" />
                           </g>
                           <g id="sn13frk" class="stem">
                              <rect x="5921" y="3158" height="539" width="18" />
                           </g>
                        </g>
                        <g id="nqax64u" class="note">
                           <g class="notehead">
                              <use xlink:href="#E0A4-p5hg8c" x="6224" y="3815" height="720px" width="720px" />
                           </g>
                           <g id="ss0g5g6" class="stem">
                              <rect x="6432" y="3248" height="539" width="18" />
                           </g>
                        </g>
                        <g id="n13m9l28" class="note">
                           <g class="notehead">
                              <use xlink:href="#E0A4-p5hg8c" x="6735" y="3905" height="720px" width="720px" />
                           </g>
                           <g id="s1tj3ulx" class="stem">
                              <rect x="6943" y="3338" height="539" width="18" />
                           </g>
                        </g>
                     </g>
                  </g>
               </g>
               <g id="b15is7by" class="barLine">
                  <path d="M7246 3365 L7246 4085" stroke="currentColor" stroke-width="27" />
               </g>
            </g>
            <g id="sscqiv0" class="sb" />
            <g id="m1e9jxqc" class="measure">
               <g id="s5jeidk" class="staff">
                  <path d="M7259 3365 L9739 3365" stroke="currentColor" stroke-width="13" />
                  <path d="M7259 3545 L9739 3545" stroke="currentColor" stroke-width="13" />
                  <path d="M7259 3725 L9739 3725" stroke="currentColor" stroke-width="13" />
                  <path d="M7259 3905 L9739 3905" stroke="currentColor" stroke-width="13" />
                  <path d="M7259 4085 L9739 4085" stroke="currentColor" stroke-width="13" />
                  <g id="l164hb67" class="layer">
                     <g id="n1gj927z" class="note">
                        <g class="notehead">
                           <use xlink:href="#E0A4-p5hg8c" x="7433" y="3995" height="720px" width="720px" />
                        </g>
                        <g id="d17m8ps8" class="dots">
                           <ellipse cx="7749" cy="3995" rx="36" ry="36" />
                        </g>
                        <g id="s1oi56ag" class="stem">
                           <rect x="7641" y="3365" height="602" width="18" />
                        </g>
                        <g id="aqqdvh8" class="accid" />
                     </g>
                     <g id="n14lf2wt" class="note">
                        <g class="notehead">
                           <use xlink:href="#E0A4-p5hg8c" x="8432" y="3905" height="720px" width="720px" />
                        </g>
                        <g id="sa8vue1" class="stem">
                           <rect x="8640" y="3275" height="602" width="18" />
                        </g>
                     </g>
                     <g id="n8y27wv" class="note">
                        <g class="notehead">
                           <use xlink:href="#E0A4-p5hg8c" x="9215" y="3815" height="720px" width="720px" />
                        </g>
                        <g id="shrbulw" class="stem">
                           <rect x="9423" y="3185" height="602" width="18" />
                           <g id="fzpc3iu" class="flag">
                              <use xlink:href="#E240-p5hg8c" x="9423" y="3185" height="720px" width="720px" />
                           </g>
                        </g>
                     </g>
                  </g>
               </g>
               <g id="b1bouqjd" class="barLine">
                  <path d="M9726 3365 L9726 4085" stroke="currentColor" stroke-width="27" />
               </g>
            </g>
            <g id="mjliszm" class="measure">
               <g id="s1gvbhkq" class="staff">
                  <path d="M9739 3365 L12458 3365" stroke="currentColor" stroke-width="13" />
                  <path d="M9739 3545 L12458 3545" stroke="currentColor" stroke-width="13" />
                  <path d="M9739 3725 L12458 3725" stroke="currentColor" stroke-width="13" />
                  <path d="M9739 3905 L12458 3905" stroke="currentColor" stroke-width="13" />
                  <path d="M9739 4085 L12458 4085" stroke="currentColor" stroke-width="13" />
                  <g id="lk22ffe" class="layer">
                     <g id="np9id5v" class="note">
                        <g class="notehead">
                           <use xlink:href="#E0A4-p5hg8c" x="9913" y="4175" height="720px" width="720px" />
                        </g>
                        <g id="dthqe8i" class="dots">
                           <ellipse cx="10229" cy="4175" rx="36" ry="36" />
                        </g>
                        <g id="s1f0sczs" class="stem">
                           <rect x="10121" y="3545" height="602" width="18" />
                        </g>
                     </g>
                     <g id="b9y6ljk" class="beam">
                        <polygon points="11120,3500 12160,3320 12160,3410 11120,3590" />
                        <g id="nr379za" class="note">
                           <g class="notehead">
                              <use xlink:href="#E0A4-p5hg8c" x="10912" y="4085" height="720px" width="720px" />
                           </g>
                           <g id="s1wfe1cm" class="stem">
                              <rect x="11120" y="3518" height="539" width="18" />
                           </g>
                        </g>
                        <g id="nfyef36" class="note">
                           <g class="notehead">
                              <use xlink:href="#E0A4-p5hg8c" x="11423" y="3995" height="720px" width="720px" />
                           </g>
                           <g id="s6vj2dy" class="stem">
                              <rect x="11631" y="3428" height="539" width="18" />
                           </g>
                           <g id="a1qe1f1v" class="accid" />
                        </g>
                        <g id="nvyk4c4" class="note">
                           <g class="notehead">
                              <use xlink:href="#E0A4-p5hg8c" x="11934" y="3905" height="720px" width="720px" />
                           </g>
                           <g id="swvcak7" class="stem">
                              <rect x="12142" y="3338" height="539" width="18" />
                           </g>
                        </g>
                     </g>
                  </g>
               </g>
               <g id="bm8d7pt" class="barLine">
                  <path d="M12445 3365 L12445 4085" stroke="currentColor" stroke-width="27" />
               </g>
            </g>
            <g id="mzq9luu" class="measure">
               <g id="sal32mu" class="staff">
                  <path d="M12458 3365 L14938 3365" stroke="currentColor" stroke-width="13" />
                  <path d="M12458 3545 L14938 3545" stroke="currentColor" stroke-width="13" />
                  <path d="M12458 3725 L14938 3725" stroke="currentColor" stroke-width="13" />
                  <path d="M12458 3905 L14938 3905" stroke="currentColor" stroke-width="13" />
                  <path d="M12458 4085 L14938 4085" stroke="currentColor" stroke-width="13" />
                  <g id="l1umo4g" class="layer">
                     <g id="n17h64me" class="note">
                        <g class="notehead">
                           <use xlink:href="#E0A4-p5hg8c" x="12632" y="3815" height="720px" width="720px" />
                        </g>
                        <g id="d7wuav7" class="dots">
                           <ellipse cx="12948" cy="3815" rx="36" ry="36" />
                        </g>
                        <g id="shiy1gw" class="stem">
                           <rect x="12840" y="3185" height="602" width="18" />
                        </g>
                     </g>
                     <g id="n387cli" class="note">
                        <g class="notehead">
                           <use xlink:href="#E0A4-p5hg8c" x="13631" y="3995" height="720px" width="720px" />
                        </g>
                        <g id="s1moqsgl" class="stem">
                           <rect x="13839" y="3365" height="602" width="18" />
                        </g>
                        <g id="ahzzo6d" class="accid" />
                     </g>
                     <g id="n89md1c" class="note">
                        <g class="notehead">
                           <use xlink:href="#E0A4-p5hg8c" x="14414" y="3905" height="720px" width="720px" />
                        </g>
                        <g id="s1vbunuo" class="stem">
                           <rect x="14622" y="3275" height="602" width="18" />
                           <g id="f2lb7y8" class="flag">
                              <use xlink:href="#E240-p5hg8c" x="14622" y="3275" height="720px" width="720px" />
                           </g>
                        </g>
                     </g>
                  </g>
               </g>
               <g id="b9xon8c" class="barLine">
                  <path d="M14925 3365 L14925 4085" stroke="currentColor" stroke-width="27" />
               </g>
            </g>
            <g id="m1va70lb" class="measure">
               <g id="s30f1gc" class="staff">
                  <path d="M14938 3365 L17657 3365" stroke="currentColor" stroke-width="13" />
                  <path d="M14938 3545 L17657 3545" stroke="currentColor" stroke-width="13" />
                  <path d="M14938 3725 L17657 3725" stroke="currentColor" stroke-width="13" />
                  <path d="M14938 3905 L17657 3905" stroke="currentColor" stroke-width="13" />
                  <path d="M14938 4085 L17657 4085" stroke="currentColor" stroke-width="13" />
                  <g id="l1yyd3do" class="layer">
                     <g id="n14eon8c" class="note">
                        <g class="notehead">
                           <use xlink:href="#E0A4-p5hg8c" x="15112" y="3815" height="720px" width="720px" />
                        </g>
                        <g id="d10ypfeb" class="dots">
                           <ellipse cx="15428" cy="3815" rx="36" ry="36" />
                        </g>
                        <g id="smiaja" class="stem">
                           <rect x="15320" y="3185" height="602" width="18" />
                        </g>
                     </g>
                     <g id="b1fhn320" class="beam">
                        <polygon points="16319,3140 17359,3320 17359,3410 16319,3230" />
                        <g id="nd018oh" class="note">
                           <g class="notehead">
                              <use xlink:href="#E0A4-p5hg8c" x="16111" y="3725" height="720px" width="720px" />
                           </g>
                           <g id="s6ku8hd" class="stem">
                              <rect x="16319" y="3158" height="539" width="18" />
                           </g>
                        </g>
                        <g id="n132l88s" class="note">
                           <g class="notehead">
                              <use xlink:href="#E0A4-p5hg8c" x="16622" y="3815" height="720px" width="720px" />
                           </g>
                           <g id="s18kgowe" class="stem">
                              <rect x="16830" y="3248" height="539" width="18" />
                           </g>
                        </g>
                        <g id="n5f06y4" class="note">
                           <g class="notehead">
                              <use xlink:href="#E0A4-p5hg8c" x="17133" y="3905" height="720px" width="720px" />
                           </g>
                           <g id="sk2p12r" class="stem">
                              <rect x="17341" y="3338" height="539" width="18" />
                           </g>
                        </g>
                     </g>
                  </g>
               </g>
               <g id="b1fs8kn4" class="barLine">
                  <path d="M17644 3365 L17644 4085" stroke="currentColor" stroke-width="27" />
               </g>
            </g>
            <g id="mmyqssx" class="measure">
               <g id="s1dfgn6b" class="staff">
                  <path d="M17657 3365 L20005 3365" stroke="currentColor" stroke-width="13" />
                  <path d="M17657 3545 L20005 3545" stroke="currentColor" stroke-width="13" />
                  <path d="M17657 3725 L20005 3725" stroke="currentColor" stroke-width="13" />
                  <path d="M17657 3905 L20005 3905" stroke="currentColor" stroke-width="13" />
                  <path d="M17657 4085 L20005 4085" stroke="currentColor" stroke-width="13" />
                  <g id="l1439vhb" class="layer">
                     <g id="n1plgnk" class="note">
                        <g class="notehead">
                           <use xlink:href="#E0A4-p5hg8c" x="17831" y="3995" height="720px" width="720px" />
                        </g>
                        <g id="d1kwa23d" class="dots">
                           <ellipse cx="18147" cy="3995" rx="36" ry="36" />
                        </g>
                        <g id="s93z38k" class="stem">
                           <rect x="18039" y="3365" height="602" width="18" />
                        </g>
                        <g id="a1wcd171" class="accid" />
                     </g>
                     <g id="narainq" class="note">
                        <g class="notehead">
                           <use xlink:href="#E0A4-p5hg8c" x="18830" y="3905" height="720px" width="720px" />
                        </g>
                        <g id="dfjhvch" class="dots">
                           <ellipse cx="19146" cy="3815" rx="36" ry="36" />
                        </g>
                        <g id="s11169sp" class="stem">
                           <rect x="19038" y="3275" height="602" width="18" />
                        </g>
                     </g>
                  </g>
               </g>
               <g id="bom1935" class="barLine">
                  <path d="M19830 3365 L19830 4085" stroke="currentColor" stroke-width="27" />
                  <path d="M19960 3365 L19960 4085" stroke="currentColor" stroke-width="90" />
               </g>
            </g>
            <g id="s18tpmqb" class="systemMilestoneEnd s1auyffr" />
         </g>
         <g id="p1suq40c" class="pageMilestoneEnd s6ichdn" />
         <g id="p6jylaj" class="pageMilestoneEnd m6kek4x" />
         <g id="pfxykqs" class="pgHead">
            <text x="0" y="0" font-size="0px">
               <tspan id="r1i3dxsq" class="rend" x="10000" y="277" text-anchor="middle">
                  <tspan id="t1o2une9" class="text">
                     <tspan font-size="405px" class="text">Air n 12</tspan>
                  </tspan>
               </tspan>
            </text>
         </g>
         <g id="pxd4oe3" class="pgFoot autogenerated">
            <g id="f1as3tn6" class="fig">
               <g id="s1qkgngy" class="svg" transform="translate(7750, 28099) scale(10, 10)">
                  <g>
                     <path fill="#00000" d="M 17.11278,49.26451 V 10.367554 h 12.696511 c 3.288815,7.336676 6.71267,14.610456 10.127281,21.888976 3.419998,-7.484684 6.255515,-14.204887 9.58887,-21.909915 2.436207,0.103726 4.316952,0.08453 6.484294,-0.05808 V 49.264423 H 50.274275 C 50.145222,38.35639 50.016136,27.448368 49.887066,16.540329 45.003488,27.315459 39.967448,38.433564 35.083854,49.208695 34.678996,49.343717 34.426583,49.135619 34.021726,49.270644 29.46588,39.330716 24.910049,29.390805 20.354201,19.450876 20.224341,29.388756 20.09461,39.326619 19.964815,49.264497 H 17.11278 Z M 36.754144,39.324695 C 32.721221,30.512695 28.6883,21.700679 24.655394,12.888662 22.530527,12.750737 22.656775,12.71031 20.714356,12.813974 v 0.966497 c 4.612938,9.99784 9.609439,20.748709 13.87298,30.081745 0.722248,-1.512523 1.444528,-3.025014 2.166808,-4.537521 z m 25.738417,9.939815 c 0,-12.965651 0,-25.931305 0,-38.896956 10.084388,0 20.168791,0 30.253178,0 0,0.960416 0,1.920849 0,2.881265 -6.482825,0 -12.965652,0 -19.448478,0 0,4.802097 0,9.604178 0,14.406277 5.52241,0 11.044819,0 16.567229,0 0,0.960415 0,1.920832 0,2.881248 -5.52241,0 -11.044819,0 -16.567229,0 0,5.282306 0,10.564611 0,15.846917 6.963035,0 13.926068,0 20.889103,0 0,0.960416 0,1.920832 0,2.881249 -10.564597,0 -21.129207,0 -31.693803,0 z m 4.321874,-2.160937 c 0,-11.765131 0,-23.530263 0,-35.295394 -0.720312,0 -1.440625,0 -2.160937,0 0,11.765131 0,23.530263 0,35.295394 0.720312,0 1.440625,0 2.160937,0 z m 32.41413,2.160937 c 0,-12.965651 0,-25.931305 0,-38.896956 2.401045,0 4.802095,0 7.203135,0 0,12.965651 0,25.931305 0,38.896956 -2.40104,0 -4.80209,0 -7.203135,0 z m 2.881265,-2.160937 c 0,-11.765131 0,-23.530263 0,-35.295394 -0.72031,0 -1.44064,0 -2.160953,0 0,11.765131 0,23.530263 0,35.295394 0.720313,0 1.440643,0 2.160953,0 z" />
                     <path fill="#00000" d="m 346.3,6.7 c -3.1,0.5 -4.9,4.4 -2.7,6.8 1.2,1.4 2.7,2.4 4.1,3.5 -2.4,5.3 -7.7,8.3 -11.9,12.1 -3.7,2.8 -7,6.2 -9.7,9.9 -2.2,-0.8 -0.3,-6.8 -0.6,-9.5 0.1,-3.1 0.7,-6.4 2.9,-8.7 1.3,-1.9 3,-3.5 4.5,-5.2 1.2,-3.4 -3.2,-4.9 -5.8,-4.6 -7.3,-0.5 -14.6,2 -20,6.8 -5,4.6 -10,10.1 -11.5,17 -0.9,3.5 -0.2,7.5 2.8,9.9 2.5,2.8 7.4,2.9 9.8,-0.2 1.7,-2.3 3.2,-4.8 3.8,-7.6 -0.1,-2.6 -4.4,-2.3 -4.3,0.2 1.2,2.4 -0.9,4.7 -2.7,6.2 -1.7,0.9 -4.7,0.7 -4.8,-1.7 -1,-5.8 2.1,-11.3 5.2,-16.1 4,-5.8 9.8,-11.2 17.2,-11.8 1.6,0 8.1,-1.2 6.8,1.4 -2.8,2.8 -5.6,6.1 -6,10.3 -1.6,7.7 0.1,15.7 -2.3,23.2 -1.1,3.9 2,2.6 2.5,0.2 3.3,-7.4 8.9,-13.4 15.1,-18.5 4.2,-3.9 9.5,-7.1 11.9,-12.6 1.3,-3.6 1.2,-9 -2.7,-10.9 -0.6,-0.2 -1.2,-0.3 -1.8,-0.3 z m 66,14.5 c -2,0.8 -1.8,4.9 0.8,4.4 3.4,0.4 2.9,-6.2 -0.8,-4.4 z m 0.6,7.3 c -1.3,0.5 -7.6,0.5 -5.4,2.2 4,-0.3 0.7,4.5 0.6,6.7 -0.4,2.9 -2.4,5.9 -1.2,8.8 2.7,1.7 5.6,-0.8 6.8,-3.2 1.6,-1.4 -0.5,-3 -1.2,-0.9 -0.4,0.8 -2.4,3.5 -2.6,1.8 1.1,-5 2.7,-9.9 3.9,-14.9 l -0.1,-0.5 h -0.9 z m -65.1,0.2 c -6.5,1.6 -10.5,9.5 -8.2,15.7 2.1,3.4 7.4,2.9 10.1,0.4 2,-0.2 3.6,-5.3 1,-3.4 -1.4,2 -4,4.2 -6.5,2.8 -2.2,-1.9 -1.9,-5.7 1.7,-5.3 3.1,-0.9 6.9,-2.1 8.1,-5.5 0.9,-2.7 -1.6,-5.2 -4.3,-4.8 h -1.1 -0.7 z m 13.6,0 c -2.2,0 -8.5,1.8 -2.9,2.3 0.9,1.9 -1,4.9 -1.1,7.2 -0.5,2.9 -1.4,5.7 -1.7,8.7 3.7,0.7 3.8,-2.6 4.4,-5.3 0.9,-3.3 1.6,-7 4.1,-9.5 2.4,1.6 6.8,-0.7 3.7,-3.4 -2.9,-0.5 -4.8,2.4 -6.2,4.3 0,-1.2 2.4,-5 -0.2,-4.3 z m 15.8,0 c -6.4,1.3 -9.6,9.1 -7.7,14.9 1.9,4 7.7,3.9 11,1.7 4.1,-3 6,-8.9 4.4,-13.7 -1.3,-3 -4.8,-3.2 -7.6,-3 z m 17,0 c -2.3,0 -8.8,1.9 -3,2.4 0.4,2.5 -1,5.7 -1.4,8.4 -0.7,2.4 -1.8,7.5 2.1,7.2 3.8,-0.1 6.5,-3.5 8.5,-6.3 2,-3.2 4.5,-7 3.3,-10.9 -3.7,-3 -3.6,2.6 -3.1,5.1 -0.7,3.8 -2.7,7.9 -6.2,9.8 -3.6,0.6 -1,-4.3 -0.8,-6.1 0.6,-3.2 1.6,-6.3 1.9,-9.5 -0.4,0 -0.8,0 -1.1,0 z m 30.6,0 c -6.3,1.2 -9.5,8.9 -7.8,14.7 1.5,4 7.2,4.2 10.5,2.4 4.6,-2.8 6.6,-9.3 4.8,-14.3 -1.4,-2.8 -4.8,-3 -7.5,-2.8 z m -75.4,1.7 c 2.1,1.5 0.2,4.7 -1.6,5.7 -1.1,0.4 -5.5,3.4 -4.6,0.7 0.8,-2.7 2.2,-6.2 5.3,-6.6 l 0.9,0.1 z m 30.8,0 c 2.6,1.5 1.3,5.2 0.8,7.6 -0.8,2.7 -1.9,5.9 -4.7,7.1 -5.1,0.8 -4,-5.8 -2.8,-8.8 1,-2.8 3,-6.8 6.7,-5.8 z m 47.1,-0.1 c 2.9,0.7 2,4.7 1.5,6.8 -0.7,3 -1.8,6.7 -5,8 -4.7,0.8 -4,-5.1 -3,-7.9 0.9,-3 2.7,-7.3 6.5,-6.8 z m -88.1,5.9 c -0.3,1.3 0.9,-0.6 0,0 z m -1.1,2.4 c -0.2,0.5 0.5,-0.1 0,0 z m -1.3,4.5 c -0.3,1.3 0.8,-0.2 0,0 z" />
                     <text y="41" x="201" fill="#00000" style="font-style:italic;font-weight:normal;font-size:30px;line-height:125%;font-family:Times;text-anchor:middle" xml:space="preserve">engraved with</text>
                  </g>
               </g>
            </g>
         </g>
      </g>
   </svg>
</svg>
