<?xml version="1.0" encoding="UTF-8" standalone="no"?>
<svg width="2100px" height="2970px" version="1.1" xmlns="http://www.w3.org/2000/svg" xmlns:xlink="http://www.w3.org/1999/xlink" xmlns:mei="http://www.music-encoding.org/ns/mei" overflow="visible">
   <desc>Engraved by Verovio 3.13.1</desc>
   <defs>
      <symbol id="E044-1b71afh" viewBox="0 0 1000 1000" overflow="inherit">
         <path transform="scale(1,-1)" d="M0 0c0 28 22 50 50 50s50 -22 50 -50s-22 -50 -50 -50s-50 22 -50 50z" />
      </symbol>
      <symbol id="E050-1b71afh" viewBox="0 0 1000 1000" overflow="inherit">
         <path transform="scale(1,-1)" d="M441 -245c-23 -4 -48 -6 -76 -6c-59 0 -102 7 -130 20c-88 42 -150 93 -187 154c-26 44 -43 103 -48 176c0 6 -1 13 -1 19c0 54 15 111 45 170c29 57 65 106 110 148s96 85 153 127c-3 16 -8 46 -13 92c-4 43 -5 73 -5 89c0 117 16 172 69 257c34 54 64 82 89 82 c21 0 43 -30 69 -92s39 -115 41 -159v-15c0 -109 -21 -162 -67 -241c-13 -20 -63 -90 -98 -118c-13 -9 -25 -19 -37 -29l31 -181c8 1 18 2 28 2c58 0 102 -12 133 -35c59 -43 92 -104 98 -184c1 -7 1 -15 1 -22c0 -123 -87 -209 -181 -248c8 -57 17 -110 25 -162 c5 -31 6 -58 6 -80c0 -30 -5 -53 -14 -70c-35 -64 -88 -99 -158 -103c-5 0 -11 -1 -16 -1c-37 0 -72 10 -108 27c-50 24 -77 59 -80 105v11c0 29 7 55 20 76c18 28 45 42 79 44h6c49 0 93 -42 97 -87v-9c0 -51 -34 -86 -105 -106c17 -24 51 -36 102 -36c62 0 116 43 140 85 c9 16 13 41 13 74c0 20 -1 42 -5 67c-8 53 -18 106 -26 159zM461 939c-95 0 -135 -175 -135 -286c0 -24 2 -48 5 -71c50 39 92 82 127 128c40 53 60 100 60 140v8c-4 53 -22 81 -55 81h-2zM406 119l54 -326c73 25 110 78 110 161c0 7 0 15 -1 23c-7 95 -57 142 -151 142h-12 zM382 117c-72 -2 -128 -47 -128 -120v-7c2 -46 43 -99 75 -115c-3 -2 -7 -5 -10 -10c-70 33 -116 88 -123 172v11c0 68 44 126 88 159c23 17 49 29 78 36l-29 170c-21 -13 -52 -37 -92 -73c-50 -44 -86 -84 -109 -119c-45 -69 -67 -130 -67 -182v-13c5 -68 35 -127 93 -176 s125 -73 203 -73c25 0 50 3 75 9c-19 111 -36 221 -54 331z" />
      </symbol>
      <symbol id="E083-1b71afh" viewBox="0 0 1000 1000" overflow="inherit">
         <path transform="scale(1,-1)" d="M208 250c97 0 177 -52 177 -116c0 -69 -40 -111 -118 -125c56 -5 125 -44 125 -116c0 -31 -10 -57 -31 -78c-19 -21 -45 -38 -78 -49l-50 -11c-15 -3 -36 -7 -55 -7c-50 0 -86 16 -113 38c-16 10 -23 18 -34 34c-7 13 -11 25 -11 38c0 43 27 83 68 83l3 -2 c61 0 75 -42 75 -70c0 -19 -24 -42 -26 -57c7 -17 20 -25 37 -25c44 0 94 29 94 78c0 75 -34 125 -138 125v36c84 0 131 22 131 98c0 54 -37 88 -87 88c-26 0 -43 -7 -51 -22c15 -22 44 -16 44 -70c0 -37 -37 -62 -71 -62c-22 0 -69 15 -69 76c0 79 101 116 178 116z" />
      </symbol>
      <symbol id="E086-1b71afh" viewBox="0 0 1000 1000" overflow="inherit">
         <path transform="scale(1,-1)" d="M284 -91c0 37 -28 92 -67 92c-35 0 -65 -54 -65 -111c0 -52 22 -104 68 -104c47 0 64 68 64 123zM230 214c-36 0 -90 -33 -90 -184l2 -36c40 24 81 36 120 36c80 0 140 -48 140 -121c0 -99 -99 -159 -182 -159c-160 0 -200 173 -200 244c0 21 2 43 7 71l10 35 c26 85 73 115 98 126c41 19 74 24 103 24c93 0 142 -63 142 -105c0 -58 -52 -72 -73 -72c-33 0 -59 24 -65 35c-3 5 -6 14 -7 25l11 30c6 15 9 27 9 35c0 11 -9 16 -25 16z" />
      </symbol>
      <symbol id="E088-1b71afh" viewBox="0 0 1000 1000" overflow="inherit">
         <path transform="scale(1,-1)" d="M195 -214c76 0 88 58 90 68c0 34 -35 60 -57 73l-52 29c-21 10 -32 17 -34 20c-39 -33 -58 -54 -62 -92c5 -23 23 -98 115 -98zM301 135c0 61 -72 76 -113 76c-40 0 -77 -17 -77 -51c3 -21 15 -38 26 -50c17 -15 33 -26 48 -34l65 -28c34 27 51 56 51 87zM176 -250 c-57 0 -166 26 -166 132c0 47 30 86 89 116c-33 15 -79 60 -79 119c0 79 85 132 178 132h18c5 0 21 1 28 -1c25 0 126 -30 126 -110c0 -37 -23 -76 -69 -116c43 -25 83 -71 83 -119c0 -101 -118 -153 -208 -153z" />
      </symbol>
      <symbol id="E0A4-1b71afh" viewBox="0 0 1000 1000" overflow="inherit">
         <path transform="scale(1,-1)" d="M0 -39c0 68 73 172 200 172c66 0 114 -37 114 -95c0 -84 -106 -171 -218 -171c-64 0 -96 30 -96 94z" />
      </symbol>
      <symbol id="E240-1b71afh" viewBox="0 0 1000 1000" overflow="inherit">
         <path transform="scale(1,-1)" d="M179 -646c15 29 29 55 46 102c18 49 30 108 30 138c0 105 -80 173 -168 200c-18 5 -47 9 -87 16v190h22c8 0 33 -61 71 -95c4 -3 -2 3 61 -56c62 -58 122 -137 122 -241c0 -38 -13 -106 -35 -163c-20 -51 -43 -99 -66 -132c-6 -5 -10 -7 -13 -7s-5 2 -5 5l4 10 c1 3 14 25 18 33z" />
      </symbol>
   </defs>
   <style type="text/css">g.page-margin{font-family:Times;} g.ending, g.fing, g.reh, g.tempo{font-weight:bold;} g.dir, g.dynam, g.mNum{font-style:italic;} g.label{font-weight:normal;}</style>
   <svg class="definition-scale" color="black" viewBox="0 0 21000 29700">
      <g class="page-margin" transform="translate(500, 500)">
         <g id="m1wm6042" class="mdiv pageMilestone" />
         <g id="s1sv1oim" class="score pageMilestone" />
         <g id="ssmybpc" class="system">
            <g id="lwb3aew" class="label">
               <text x="1105" y="1535" text-anchor="end" font-size="0px">
                  <tspan id="t1qfx1xp" class="text">
                     <tspan font-size="405px" class="text">Piano</tspan>
                  </tspan>
               </text>
            </g>
            <g id="sagv3r6" class="section systemMilestone" />
            <g id="pu5q6zg" class="pb" />
            <g id="m1p9a3am" class="measure">
               <g id="m1gbjl5w" class="mNum">
                  <text x="1285" y="842" text-anchor="middle" font-size="0px" />
               </g>
               <g id="s68cp03" class="staff">
                  <path d="M1285 1085 L4525 1085" stroke="currentColor" stroke-width="13" />
                  <path d="M1285 1265 L4525 1265" stroke="currentColor" stroke-width="13" />
                  <path d="M1285 1445 L4525 1445" stroke="currentColor" stroke-width="13" />
                  <path d="M1285 1625 L4525 1625" stroke="currentColor" stroke-width="13" />
                  <path d="M1285 1805 L4525 1805" stroke="currentColor" stroke-width="13" />
                  <g id="c5ulgga" class="clef">
                     <use xlink:href="#E050-1b71afh" x="1375" y="1625" height="720px" width="720px" />
                  </g>
                  <g id="k1uck8j0" class="keySig" />
                  <g id="m1ic5kof" class="meterSig">
                     <use xlink:href="#E086-1b71afh" x="2006" y="1265" height="720px" width="720px" />
                     <use xlink:href="#E088-1b71afh" x="2013" y="1625" height="720px" width="720px" />
                  </g>
                  <g id="laui9mg" class="layer">
                     <g id="bckk7fz" class="beam">
                        <polygon points="2771,1220 4088,1040 4088,1130 2771,1310" />
                        <g id="nghzj3r" class="note">
                           <g class="notehead">
                              <use xlink:href="#E0A4-1b71afh" x="2563" y="1805" height="720px" width="720px" />
                           </g>
                           <g id="s1vi6pqx" class="stem">
                              <rect x="2771" y="1238" height="539" width="18" />
                           </g>
                        </g>
                        <g id="n13o72jb" class="note">
                           <g class="notehead">
                              <use xlink:href="#E0A4-1b71afh" x="3213" y="1715" height="720px" width="720px" />
                           </g>
                           <g id="sccmtew" class="stem">
                              <rect x="3421" y="1148" height="539" width="18" />
                           </g>
                        </g>
                        <g id="n1djctaa" class="note">
                           <g class="notehead">
                              <use xlink:href="#E0A4-1b71afh" x="3862" y="1625" height="720px" width="720px" />
                           </g>
                           <g id="s180eutq" class="stem">
                              <rect x="4070" y="1058" height="539" width="18" />
                           </g>
                        </g>
                     </g>
                  </g>
               </g>
               <g id="bytuw93" class="barLine">
                  <path d="M4512 1085 L4512 1805" stroke="currentColor" stroke-width="27" />
               </g>
            </g>
            <g id="mw39p9t" class="measure">
               <g id="sscpgyj" class="staff">
                  <path d="M4525 1085 L7935 1085" stroke="currentColor" stroke-width="13" />
                  <path d="M4525 1265 L7935 1265" stroke="currentColor" stroke-width="13" />
                  <path d="M4525 1445 L7935 1445" stroke="currentColor" stroke-width="13" />
                  <path d="M4525 1625 L7935 1625" stroke="currentColor" stroke-width="13" />
                  <path d="M4525 1805 L7935 1805" stroke="currentColor" stroke-width="13" />
                  <g id="l1b764hv" class="layer">
                     <g id="n4p53od" class="note">
                        <g class="notehead">
                           <use xlink:href="#E0A4-1b71afh" x="4703" y="1535" height="720px" width="720px" />
                        </g>
                        <g id="dc9vwfk" class="dots">
                           <ellipse cx="5019" cy="1535" rx="36" ry="36" />
                        </g>
                        <g id="shmjc1a" class="stem">
                           <rect x="4911" y="905" height="602" width="18" />
                        </g>
                     </g>
                     <g id="b1xyvx52" class="beam">
                        <polygon points="6181,905 7499,905 7499,995 6181,995" />
                        <g id="n1nyfgs4" class="note">
                           <g class="notehead">
                              <use xlink:href="#E0A4-1b71afh" x="5973" y="1625" height="720px" width="720px" />
                           </g>
                           <g id="shhm54r" class="stem">
                              <rect x="6181" y="923" height="674" width="18" />
                           </g>
                        </g>
                        <g id="nhz21p8" class="note">
                           <g class="notehead">
                              <use xlink:href="#E0A4-1b71afh" x="6623" y="1535" height="720px" width="720px" />
                           </g>
                           <g id="s1x6qnll" class="stem">
                              <rect x="6831" y="923" height="584" width="18" />
                           </g>
                        </g>
                        <g id="n6agc34" class="note">
                           <g class="notehead">
                              <use xlink:href="#E0A4-1b71afh" x="7273" y="1625" height="720px" width="720px" />
                           </g>
                           <g id="s16dptm9" class="stem">
                              <rect x="7481" y="923" height="674" width="18" />
                           </g>
                        </g>
                     </g>
                  </g>
               </g>
               <g id="b1gzqjfy" class="barLine">
                  <path d="M7922 1085 L7922 1805" stroke="currentColor" stroke-width="27" />
               </g>
            </g>
            <g id="m1obbwse" class="measure">
               <g id="sx2yqvn" class="staff">
                  <path d="M7935 1085 L12023 1085" stroke="currentColor" stroke-width="13" />
                  <path d="M7935 1265 L12023 1265" stroke="currentColor" stroke-width="13" />
                  <path d="M7935 1445 L12023 1445" stroke="currentColor" stroke-width="13" />
                  <path d="M7935 1625 L12023 1625" stroke="currentColor" stroke-width="13" />
                  <path d="M7935 1805 L12023 1805" stroke="currentColor" stroke-width="13" />
                  <g id="lfnju4w" class="layer">
                     <g id="blwjpim" class="beam">
                        <polygon points="8321,1085 9638,1265 9638,1355 8321,1175" />
                        <g id="n5flqf6" class="note">
                           <g class="notehead">
                              <use xlink:href="#E0A4-1b71afh" x="8113" y="1715" height="720px" width="720px" />
                           </g>
                           <g id="sudos3u" class="stem">
                              <rect x="8321" y="1103" height="584" width="18" />
                           </g>
                        </g>
                        <g id="nlh8lfn" class="note">
                           <g class="notehead">
                              <use xlink:href="#E0A4-1b71afh" x="8763" y="1805" height="720px" width="720px" />
                           </g>
                           <g id="s1o2zsyq" class="stem">
                              <rect x="8971" y="1194" height="583" width="18" />
                           </g>
                        </g>
                        <g id="nxal4s4" class="note">
                           <g class="notehead">
                              <use xlink:href="#E0A4-1b71afh" x="9412" y="1895" height="720px" width="720px" />
                           </g>
                           <g id="s1ef6e9j" class="stem">
                              <rect x="9620" y="1283" height="584" width="18" />
                           </g>
                        </g>
                     </g>
                     <g id="b15kd95g" class="beam">
                        <polygon points="10270,1220 11587,1040 11587,1130 10270,1310" />
                        <g id="n192eq5s" class="note">
                           <g class="notehead">
                              <use xlink:href="#E0A4-1b71afh" x="10062" y="1805" height="720px" width="720px" />
                           </g>
                           <g id="s17ol7ps" class="stem">
                              <rect x="10270" y="1238" height="539" width="18" />
                           </g>
                        </g>
                        <g id="newi61k" class="note">
                           <g class="notehead">
                              <use xlink:href="#E0A4-1b71afh" x="10711" y="1715" height="720px" width="720px" />
                           </g>
                           <g id="sjxro0l" class="stem">
                              <rect x="10919" y="1149" height="538" width="18" />
                           </g>
                        </g>
                        <g id="ns7uivv" class="note">
                           <g class="notehead">
                              <use xlink:href="#E0A4-1b71afh" x="11361" y="1625" height="720px" width="720px" />
                           </g>
                           <g id="s1ydyokn" class="stem">
                              <rect x="11569" y="1058" height="539" width="18" />
                           </g>
                        </g>
                     </g>
                  </g>
               </g>
               <g id="b6kq15w" class="barLine">
                  <path d="M12010 1085 L12010 1805" stroke="currentColor" stroke-width="27" />
               </g>
            </g>
            <g id="m1lwrjdz" class="measure">
               <g id="sc1jjqs" class="staff">
                  <path d="M12023 1085 L15433 1085" stroke="currentColor" stroke-width="13" />
                  <path d="M12023 1265 L15433 1265" stroke="currentColor" stroke-width="13" />
                  <path d="M12023 1445 L15433 1445" stroke="currentColor" stroke-width="13" />
                  <path d="M12023 1625 L15433 1625" stroke="currentColor" stroke-width="13" />
                  <path d="M12023 1805 L15433 1805" stroke="currentColor" stroke-width="13" />
                  <g id="l1iiqaa" class="layer">
                     <g id="nkez5ml" class="note">
                        <g class="notehead">
                           <use xlink:href="#E0A4-1b71afh" x="12201" y="1535" height="720px" width="720px" />
                        </g>
                        <g id="d1jev9uu" class="dots">
                           <ellipse cx="12517" cy="1535" rx="36" ry="36" />
                        </g>
                        <g id="s1ete27e" class="stem">
                           <rect x="12409" y="905" height="602" width="18" />
                        </g>
                     </g>
                     <g id="b6n7g3a" class="beam">
                        <polygon points="13679,905 14997,905 14997,995 13679,995" />
                        <g id="n1uwli94" class="note">
                           <g class="notehead">
                              <use xlink:href="#E0A4-1b71afh" x="13471" y="1535" height="720px" width="720px" />
                           </g>
                           <g id="s1y0pgmo" class="stem">
                              <rect x="13679" y="923" height="584" width="18" />
                           </g>
                        </g>
                        <g id="n8nqax1" class="note">
                           <g class="notehead">
                              <use xlink:href="#E0A4-1b71afh" x="14121" y="1535" height="720px" width="720px" />
                           </g>
                           <g id="s19z1igk" class="stem">
                              <rect x="14329" y="923" height="584" width="18" />
                           </g>
                        </g>
                        <g id="n1k5ttyz" class="note">
                           <g class="notehead">
                              <use xlink:href="#E0A4-1b71afh" x="14771" y="1895" height="720px" width="720px" />
                           </g>
                           <g id="suooez1" class="stem">
                              <rect x="14979" y="923" height="944" width="18" />
                           </g>
                        </g>
                     </g>
                  </g>
               </g>
               <g id="bwoj0x4" class="barLine">
                  <path d="M15420 1085 L15420 1805" stroke="currentColor" stroke-width="27" />
               </g>
            </g>
            <g id="m1kum27s" class="measure">
               <g id="spx0d01" class="staff">
                  <path d="M15433 1085 L17710 1085" stroke="currentColor" stroke-width="13" />
                  <path d="M15433 1265 L17710 1265" stroke="currentColor" stroke-width="13" />
                  <path d="M15433 1445 L17710 1445" stroke="currentColor" stroke-width="13" />
                  <path d="M15433 1625 L17710 1625" stroke="currentColor" stroke-width="13" />
                  <path d="M15433 1805 L17710 1805" stroke="currentColor" stroke-width="13" />
                  <g id="myh95xu" class="meterSig">
                     <use xlink:href="#E083-1b71afh" x="15513" y="1265" height="720px" width="720px" />
                     <use xlink:href="#E088-1b71afh" x="15516" y="1625" height="720px" width="720px" />
                  </g>
                  <g id="l1eso5b9" class="layer">
                     <g id="n17soa3h" class="note">
                        <g class="notehead">
                           <use xlink:href="#E0A4-1b71afh" x="16062" y="1805" height="720px" width="720px" />
                        </g>
                        <g id="d1bbvtyt" class="dots">
                           <ellipse cx="16378" cy="1715" rx="36" ry="36" />
                        </g>
                        <g id="sxl397a" class="stem">
                           <rect x="16270" y="1175" height="602" width="18" />
                        </g>
                     </g>
                  </g>
               </g>
               <g id="b1vcz71w" class="barLine">
                  <path d="M17332 1085 L17332 1805" stroke="currentColor" stroke-width="27" />
                  <path d="M17462 1085 L17462 1805" stroke="currentColor" stroke-width="90" />
                  <path d="M17593 1085 L17593 1805" stroke="currentColor" stroke-width="27" />
                  <use xlink:href="#E044-1b71afh" x="17638" y="1355" height="720px" width="720px" />
                  <use xlink:href="#E044-1b71afh" x="17638" y="1535" height="720px" width="720px" />
                  <use xlink:href="#E044-1b71afh" x="17215" y="1355" height="720px" width="720px" />
                  <use xlink:href="#E044-1b71afh" x="17215" y="1535" height="720px" width="720px" />
               </g>
            </g>
            <g id="m19mu05a" class="measure">
               <g id="shein3n" class="staff">
                  <path d="M17710 1085 L20002 1085" stroke="currentColor" stroke-width="13" />
                  <path d="M17710 1265 L20002 1265" stroke="currentColor" stroke-width="13" />
                  <path d="M17710 1445 L20002 1445" stroke="currentColor" stroke-width="13" />
                  <path d="M17710 1625 L20002 1625" stroke="currentColor" stroke-width="13" />
                  <path d="M17710 1805 L20002 1805" stroke="currentColor" stroke-width="13" />
                  <g id="lpe0rh9" class="layer">
                     <g id="n165pn74" class="note">
                        <g class="notehead">
                           <use xlink:href="#E0A4-1b71afh" x="17888" y="1805" height="720px" width="720px" />
                        </g>
                        <g id="s1a97zfn" class="stem">
                           <rect x="18096" y="1175" height="602" width="18" />
                        </g>
                     </g>
                     <g id="n1frmeaa" class="note">
                        <g class="notehead">
                           <use xlink:href="#E0A4-1b71afh" x="18884" y="1895" height="720px" width="720px" />
                        </g>
                        <g id="s13ldq9t" class="stem">
                           <rect x="19092" y="1265" height="602" width="18" />
                           <g id="f1lyusk2" class="flag">
                              <use xlink:href="#E240-1b71afh" x="19092" y="1265" height="720px" width="720px" />
                           </g>
                        </g>
                     </g>
                  </g>
                  <g id="mok2p43" class="meterSig">
                     <use xlink:href="#E086-1b71afh" x="19623" y="1265" height="720px" width="720px" />
                     <use xlink:href="#E088-1b71afh" x="19630" y="1625" height="720px" width="720px" />
                  </g>
               </g>
               <g id="bkqvn0p" class="barLine">
                  <path d="M19534 1085 L19534 1805" stroke="currentColor" stroke-width="27" />
               </g>
            </g>
         </g>
         <g id="s1ra3mdr" class="system">
            <g id="l1gkt9es" class="labelAbbr">
               <text x="914" y="3884" text-anchor="end" font-size="0px">
                  <tspan id="t4axqgs" class="text">
                     <tspan font-size="405px" class="text">Pno.</tspan>
                  </tspan>
               </text>
            </g>
            <g id="m144he4q" class="measure">
               <g id="m18y7469" class="mNum autogenerated">
                  <text x="1094" y="3191" text-anchor="middle" font-size="0px">
                     <tspan id="t1dy9n4u" class="text">
                        <tspan font-size="324px" class="text">6</tspan>
                     </tspan>
                  </text>
               </g>
               <g id="sbqg1em" class="staff">
                  <path d="M1094 3434 L6311 3434" stroke="currentColor" stroke-width="13" />
                  <path d="M1094 3614 L6311 3614" stroke="currentColor" stroke-width="13" />
                  <path d="M1094 3794 L6311 3794" stroke="currentColor" stroke-width="13" />
                  <path d="M1094 3974 L6311 3974" stroke="currentColor" stroke-width="13" />
                  <path d="M1094 4154 L6311 4154" stroke="currentColor" stroke-width="13" />
                  <g id="c1g3eqqo" class="clef">
                     <use xlink:href="#E050-1b71afh" x="1184" y="3974" height="720px" width="720px" />
                  </g>
                  <g id="kn1ojz2" class="keySig" />
                  <g id="mgtysh9" class="meterSig">
                     <use xlink:href="#E086-1b71afh" x="1815" y="3614" height="720px" width="720px" />
                     <use xlink:href="#E088-1b71afh" x="1822" y="3974" height="720px" width="720px" />
                  </g>
                  <g id="libo0y8" class="layer">
                     <g id="n17niqm1" class="note">
                        <g class="notehead">
                           <use xlink:href="#E0A4-1b71afh" x="2284" y="4064" height="540px" width="540px" />
                        </g>
                        <g id="s711555" class="stem">
                           <rect x="2435" y="3592" height="451" width="18" />
                           <g id="fnu6nwr" class="flag">
                              <use xlink:href="#E240-1b71afh" x="2435" y="3592" height="540px" width="540px" />
                           </g>
                        </g>
                     </g>
                     <g id="n1xoaokx" class="note">
                        <g class="notehead">
                           <use xlink:href="#E0A4-1b71afh" x="2651" y="4154" height="720px" width="720px" />
                        </g>
                        <g id="snlh540" class="stem">
                           <rect x="2859" y="3524" height="602" width="18" />
                        </g>
                     </g>
                     <g id="ng8nrme" class="note">
                        <g class="notehead">
                           <use xlink:href="#E0A4-1b71afh" x="3662" y="4244" height="720px" width="720px" />
                        </g>
                        <g id="sh070a8" class="stem">
                           <rect x="3870" y="3614" height="602" width="18" />
                           <g id="f1qrul66" class="flag">
                              <use xlink:href="#E240-1b71afh" x="3870" y="3614" height="720px" width="720px" />
                           </g>
                        </g>
                     </g>
                     <g id="b4mqm41" class="beam">
                        <polygon points="4529,3434 5865,3434 5865,3524 4529,3524" />
                        <g id="n2nvzq1" class="note">
                           <g class="notehead">
                              <use xlink:href="#E0A4-1b71afh" x="4321" y="4154" height="720px" width="720px" />
                           </g>
                           <g id="s1jkx7a4" class="stem">
                              <rect x="4529" y="3452" height="674" width="18" />
                           </g>
                        </g>
                        <g id="nsfuy0v" class="note">
                           <g class="notehead">
                              <use xlink:href="#E0A4-1b71afh" x="4980" y="4064" height="720px" width="720px" />
                           </g>
                           <g id="s85ou4p" class="stem">
                              <rect x="5188" y="3452" height="584" width="18" />
                           </g>
                        </g>
                        <g id="n3hoazn" class="note">
                           <g class="notehead">
                              <use xlink:href="#E0A4-1b71afh" x="5639" y="4244" height="720px" width="720px" />
                           </g>
                           <g id="s2upw9g" class="stem">
                              <rect x="5847" y="3452" height="764" width="18" />
                           </g>
                        </g>
                     </g>
                  </g>
               </g>
               <g id="b1vqycz5" class="barLine">
                  <path d="M6298 3434 L6298 4154" stroke="currentColor" stroke-width="27" />
               </g>
            </g>
            <g id="m1vsrxjp" class="measure">
               <g id="s1almlh0" class="staff">
                  <path d="M6311 3434 L10048 3434" stroke="currentColor" stroke-width="13" />
                  <path d="M6311 3614 L10048 3614" stroke="currentColor" stroke-width="13" />
                  <path d="M6311 3794 L10048 3794" stroke="currentColor" stroke-width="13" />
                  <path d="M6311 3974 L10048 3974" stroke="currentColor" stroke-width="13" />
                  <path d="M6311 4154 L10048 4154" stroke="currentColor" stroke-width="13" />
                  <g class="ledgerLines below">
                     <path d="M6443 4334 L6765 4334" stroke="currentColor" stroke-width="22" />
                  </g>
                  <g id="l1wjdr1m" class="layer">
                     <g id="n1r395ja" class="note">
                        <g class="notehead">
                           <use xlink:href="#E0A4-1b71afh" x="6491" y="4334" height="720px" width="720px" />
                        </g>
                        <g id="s1v5r7u5" class="stem">
                           <rect x="6699" y="3704" height="602" width="18" />
                        </g>
                     </g>
                     <g id="nj0jnkn" class="note">
                        <g class="notehead">
                           <use xlink:href="#E0A4-1b71afh" x="7502" y="4244" height="720px" width="720px" />
                        </g>
                        <g id="s1a27ng2" class="stem">
                           <rect x="7710" y="3614" height="602" width="18" />
                           <g id="f1sz7ft7" class="flag">
                              <use xlink:href="#E240-1b71afh" x="7710" y="3614" height="720px" width="720px" />
                           </g>
                        </g>
                     </g>
                     <g id="npge5f8" class="note">
                        <g class="notehead">
                           <use xlink:href="#E0A4-1b71afh" x="7998" y="4064" height="540px" width="540px" />
                        </g>
                        <g id="s1duhkum" class="stem">
                           <rect x="8149" y="3592" height="451" width="18" />
                           <g id="fjfl0z8" class="flag">
                              <use xlink:href="#E240-1b71afh" x="8149" y="3592" height="540px" width="540px" />
                           </g>
                        </g>
                     </g>
                     <g id="nyj76cc" class="note">
                        <g class="notehead">
                           <use xlink:href="#E0A4-1b71afh" x="8365" y="4154" height="720px" width="720px" />
                        </g>
                        <g id="siwftxi" class="stem">
                           <rect x="8573" y="3524" height="602" width="18" />
                        </g>
                     </g>
                     <g id="n1og1v7p" class="note">
                        <g class="notehead">
                           <use xlink:href="#E0A4-1b71afh" x="9376" y="4244" height="720px" width="720px" />
                        </g>
                        <g id="s1gszbjh" class="stem">
                           <rect x="9584" y="3614" height="602" width="18" />
                           <g id="f59rc1z" class="flag">
                              <use xlink:href="#E240-1b71afh" x="9584" y="3614" height="720px" width="720px" />
                           </g>
                        </g>
                     </g>
                  </g>
               </g>
               <g id="bhg4a27" class="barLine">
                  <path d="M10035 3434 L10035 4154" stroke="currentColor" stroke-width="27" />
               </g>
            </g>
            <g id="s1vqu8mr" class="sb" />
            <g id="m1ta994m" class="measure">
               <g id="s1yqbqc" class="staff">
                  <path d="M10048 3434 L14165 3434" stroke="currentColor" stroke-width="13" />
                  <path d="M10048 3614 L14165 3614" stroke="currentColor" stroke-width="13" />
                  <path d="M10048 3794 L14165 3794" stroke="currentColor" stroke-width="13" />
                  <path d="M10048 3974 L14165 3974" stroke="currentColor" stroke-width="13" />
                  <path d="M10048 4154 L14165 4154" stroke="currentColor" stroke-width="13" />
                  <g id="l98p2ls" class="layer">
                     <g id="n1alxoyy" class="note">
                        <g class="notehead">
                           <use xlink:href="#E0A4-1b71afh" x="10138" y="4064" height="540px" width="540px" />
                        </g>
                        <g id="s104njcb" class="stem">
                           <rect x="10289" y="3592" height="451" width="18" />
                           <g id="f115cbfh" class="flag">
                              <use xlink:href="#E240-1b71afh" x="10289" y="3592" height="540px" width="540px" />
                           </g>
                        </g>
                     </g>
                     <g id="n14cn29c" class="note">
                        <g class="notehead">
                           <use xlink:href="#E0A4-1b71afh" x="10505" y="4154" height="720px" width="720px" />
                        </g>
                        <g id="shnwbvw" class="stem">
                           <rect x="10713" y="3524" height="602" width="18" />
                        </g>
                     </g>
                     <g id="n15gquj3" class="note">
                        <g class="notehead">
                           <use xlink:href="#E0A4-1b71afh" x="11516" y="4244" height="720px" width="720px" />
                        </g>
                        <g id="s1gchvp8" class="stem">
                           <rect x="11724" y="3614" height="602" width="18" />
                           <g id="f1e6k3kp" class="flag">
                              <use xlink:href="#E240-1b71afh" x="11724" y="3614" height="720px" width="720px" />
                           </g>
                        </g>
                     </g>
                     <g id="b1ivshom" class="beam">
                        <polygon points="12383,3434 13719,3434 13719,3524 12383,3524" />
                        <g id="n1euctc7" class="note">
                           <g class="notehead">
                              <use xlink:href="#E0A4-1b71afh" x="12175" y="4154" height="720px" width="720px" />
                           </g>
                           <g id="ss4ahf9" class="stem">
                              <rect x="12383" y="3452" height="674" width="18" />
                           </g>
                        </g>
                        <g id="n18eetwq" class="note">
                           <g class="notehead">
                              <use xlink:href="#E0A4-1b71afh" x="12834" y="4064" height="720px" width="720px" />
                           </g>
                           <g id="s1xymq0i" class="stem">
                              <rect x="13042" y="3452" height="584" width="18" />
                           </g>
                        </g>
                        <g id="n186rdwu" class="note">
                           <g class="notehead">
                              <use xlink:href="#E0A4-1b71afh" x="13493" y="4154" height="720px" width="720px" />
                           </g>
                           <g id="s17rz9qv" class="stem">
                              <rect x="13701" y="3452" height="674" width="18" />
                           </g>
                        </g>
                     </g>
                  </g>
               </g>
               <g id="b17tuzmr" class="barLine">
                  <path d="M14152 3434 L14152 4154" stroke="currentColor" stroke-width="27" />
               </g>
            </g>
            <g id="m6bdhay" class="measure">
               <g id="s1n9vjap" class="staff">
                  <path d="M14165 3434 L16260 3434" stroke="currentColor" stroke-width="13" />
                  <path d="M14165 3614 L16260 3614" stroke="currentColor" stroke-width="13" />
                  <path d="M14165 3794 L16260 3794" stroke="currentColor" stroke-width="13" />
                  <path d="M14165 3974 L16260 3974" stroke="currentColor" stroke-width="13" />
                  <path d="M14165 4154 L16260 4154" stroke="currentColor" stroke-width="13" />
                  <g id="m19eli8j" class="meterSig">
                     <use xlink:href="#E083-1b71afh" x="14245" y="3614" height="720px" width="720px" />
                     <use xlink:href="#E088-1b71afh" x="14248" y="3974" height="720px" width="720px" />
                  </g>
                  <g id="l13bhqd6" class="layer">
                     <g id="n1mc473x" class="note">
                        <g class="notehead">
                           <use xlink:href="#E0A4-1b71afh" x="14796" y="4244" height="720px" width="720px" />
                        </g>
                        <g id="d19fmckm" class="dots">
                           <ellipse cx="15112" cy="4244" rx="36" ry="36" />
                        </g>
                        <g id="s1ugte9j" class="stem">
                           <rect x="15004" y="3614" height="602" width="18" />
                        </g>
                     </g>
                  </g>
               </g>
               <g id="b4z7q30" class="barLine">
                  <path d="M16085 3434 L16085 4154" stroke="currentColor" stroke-width="27" />
                  <path d="M16215 3434 L16215 4154" stroke="currentColor" stroke-width="90" />
               </g>
            </g>
            <g id="spcmhty" class="systemMilestoneEnd sagv3r6" />
         </g>
         <g id="pswc9ys" class="pageMilestoneEnd s1sv1oim" />
         <g id="p1yisym8" class="pageMilestoneEnd m1wm6042" />
         <g id="p15yjqyb" class="pgHead">
            <text x="0" y="0" font-size="0px">
               <tspan id="rlgm3oj" class="rend" x="10000" y="277" text-anchor="middle">
                  <tspan id="t4jbsnm" class="text">
                     <tspan font-size="405px" class="text">Air n 117</tspan>
                  </tspan>
               </tspan>
            </text>
         </g>
         <g id="pymsppj" class="pgFoot autogenerated">
            <g id="f12443hy" class="fig">
               <g id="stom2ly" class="svg" transform="translate(7750, 28099) scale(10, 10)">
                  <g>
                     <path fill="#00000" d="M 17.11278,49.26451 V 10.367554 h 12.696511 c 3.288815,7.336676 6.71267,14.610456 10.127281,21.888976 3.419998,-7.484684 6.255515,-14.204887 9.58887,-21.909915 2.436207,0.103726 4.316952,0.08453 6.484294,-0.05808 V 49.264423 H 50.274275 C 50.145222,38.35639 50.016136,27.448368 49.887066,16.540329 45.003488,27.315459 39.967448,38.433564 35.083854,49.208695 34.678996,49.343717 34.426583,49.135619 34.021726,49.270644 29.46588,39.330716 24.910049,29.390805 20.354201,19.450876 20.224341,29.388756 20.09461,39.326619 19.964815,49.264497 H 17.11278 Z M 36.754144,39.324695 C 32.721221,30.512695 28.6883,21.700679 24.655394,12.888662 22.530527,12.750737 22.656775,12.71031 20.714356,12.813974 v 0.966497 c 4.612938,9.99784 9.609439,20.748709 13.87298,30.081745 0.722248,-1.512523 1.444528,-3.025014 2.166808,-4.537521 z m 25.738417,9.939815 c 0,-12.965651 0,-25.931305 0,-38.896956 10.084388,0 20.168791,0 30.253178,0 0,0.960416 0,1.920849 0,2.881265 -6.482825,0 -12.965652,0 -19.448478,0 0,4.802097 0,9.604178 0,14.406277 5.52241,0 11.044819,0 16.567229,0 0,0.960415 0,1.920832 0,2.881248 -5.52241,0 -11.044819,0 -16.567229,0 0,5.282306 0,10.564611 0,15.846917 6.963035,0 13.926068,0 20.889103,0 0,0.960416 0,1.920832 0,2.881249 -10.564597,0 -21.129207,0 -31.693803,0 z m 4.321874,-2.160937 c 0,-11.765131 0,-23.530263 0,-35.295394 -0.720312,0 -1.440625,0 -2.160937,0 0,11.765131 0,23.530263 0,35.295394 0.720312,0 1.440625,0 2.160937,0 z m 32.41413,2.160937 c 0,-12.965651 0,-25.931305 0,-38.896956 2.401045,0 4.802095,0 7.203135,0 0,12.965651 0,25.931305 0,38.896956 -2.40104,0 -4.80209,0 -7.203135,0 z m 2.881265,-2.160937 c 0,-11.765131 0,-23.530263 0,-35.295394 -0.72031,0 -1.44064,0 -2.160953,0 0,11.765131 0,23.530263 0,35.295394 0.720313,0 1.440643,0 2.160953,0 z" />
                     <path fill="#00000" d="m 346.3,6.7 c -3.1,0.5 -4.9,4.4 -2.7,6.8 1.2,1.4 2.7,2.4 4.1,3.5 -2.4,5.3 -7.7,8.3 -11.9,12.1 -3.7,2.8 -7,6.2 -9.7,9.9 -2.2,-0.8 -0.3,-6.8 -0.6,-9.5 0.1,-3.1 0.7,-6.4 2.9,-8.7 1.3,-1.9 3,-3.5 4.5,-5.2 1.2,-3.4 -3.2,-4.9 -5.8,-4.6 -7.3,-0.5 -14.6,2 -20,6.8 -5,4.6 -10,10.1 -11.5,17 -0.9,3.5 -0.2,7.5 2.8,9.9 2.5,2.8 7.4,2.9 9.8,-0.2 1.7,-2.3 3.2,-4.8 3.8,-7.6 -0.1,-2.6 -4.4,-2.3 -4.3,0.2 1.2,2.4 -0.9,4.7 -2.7,6.2 -1.7,0.9 -4.7,0.7 -4.8,-1.7 -1,-5.8 2.1,-11.3 5.2,-16.1 4,-5.8 9.8,-11.2 17.2,-11.8 1.6,0 8.1,-1.2 6.8,1.4 -2.8,2.8 -5.6,6.1 -6,10.3 -1.6,7.7 0.1,15.7 -2.3,23.2 -1.1,3.9 2,2.6 2.5,0.2 3.3,-7.4 8.9,-13.4 15.1,-18.5 4.2,-3.9 9.5,-7.1 11.9,-12.6 1.3,-3.6 1.2,-9 -2.7,-10.9 -0.6,-0.2 -1.2,-0.3 -1.8,-0.3 z m 66,14.5 c -2,0.8 -1.8,4.9 0.8,4.4 3.4,0.4 2.9,-6.2 -0.8,-4.4 z m 0.6,7.3 c -1.3,0.5 -7.6,0.5 -5.4,2.2 4,-0.3 0.7,4.5 0.6,6.7 -0.4,2.9 -2.4,5.9 -1.2,8.8 2.7,1.7 5.6,-0.8 6.8,-3.2 1.6,-1.4 -0.5,-3 -1.2,-0.9 -0.4,0.8 -2.4,3.5 -2.6,1.8 1.1,-5 2.7,-9.9 3.9,-14.9 l -0.1,-0.5 h -0.9 z m -65.1,0.2 c -6.5,1.6 -10.5,9.5 -8.2,15.7 2.1,3.4 7.4,2.9 10.1,0.4 2,-0.2 3.6,-5.3 1,-3.4 -1.4,2 -4,4.2 -6.5,2.8 -2.2,-1.9 -1.9,-5.7 1.7,-5.3 3.1,-0.9 6.9,-2.1 8.1,-5.5 0.9,-2.7 -1.6,-5.2 -4.3,-4.8 h -1.1 -0.7 z m 13.6,0 c -2.2,0 -8.5,1.8 -2.9,2.3 0.9,1.9 -1,4.9 -1.1,7.2 -0.5,2.9 -1.4,5.7 -1.7,8.7 3.7,0.7 3.8,-2.6 4.4,-5.3 0.9,-3.3 1.6,-7 4.1,-9.5 2.4,1.6 6.8,-0.7 3.7,-3.4 -2.9,-0.5 -4.8,2.4 -6.2,4.3 0,-1.2 2.4,-5 -0.2,-4.3 z m 15.8,0 c -6.4,1.3 -9.6,9.1 -7.7,14.9 1.9,4 7.7,3.9 11,1.7 4.1,-3 6,-8.9 4.4,-13.7 -1.3,-3 -4.8,-3.2 -7.6,-3 z m 17,0 c -2.3,0 -8.8,1.9 -3,2.4 0.4,2.5 -1,5.7 -1.4,8.4 -0.7,2.4 -1.8,7.5 2.1,7.2 3.8,-0.1 6.5,-3.5 8.5,-6.3 2,-3.2 4.5,-7 3.3,-10.9 -3.7,-3 -3.6,2.6 -3.1,5.1 -0.7,3.8 -2.7,7.9 -6.2,9.8 -3.6,0.6 -1,-4.3 -0.8,-6.1 0.6,-3.2 1.6,-6.3 1.9,-9.5 -0.4,0 -0.8,0 -1.1,0 z m 30.6,0 c -6.3,1.2 -9.5,8.9 -7.8,14.7 1.5,4 7.2,4.2 10.5,2.4 4.6,-2.8 6.6,-9.3 4.8,-14.3 -1.4,-2.8 -4.8,-3 -7.5,-2.8 z m -75.4,1.7 c 2.1,1.5 0.2,4.7 -1.6,5.7 -1.1,0.4 -5.5,3.4 -4.6,0.7 0.8,-2.7 2.2,-6.2 5.3,-6.6 l 0.9,0.1 z m 30.8,0 c 2.6,1.5 1.3,5.2 0.8,7.6 -0.8,2.7 -1.9,5.9 -4.7,7.1 -5.1,0.8 -4,-5.8 -2.8,-8.8 1,-2.8 3,-6.8 6.7,-5.8 z m 47.1,-0.1 c 2.9,0.7 2,4.7 1.5,6.8 -0.7,3 -1.8,6.7 -5,8 -4.7,0.8 -4,-5.1 -3,-7.9 0.9,-3 2.7,-7.3 6.5,-6.8 z m -88.1,5.9 c -0.3,1.3 0.9,-0.6 0,0 z m -1.1,2.4 c -0.2,0.5 0.5,-0.1 0,0 z m -1.3,4.5 c -0.3,1.3 0.8,-0.2 0,0 z" />
                     <text y="41" x="201" fill="#00000" style="font-style:italic;font-weight:normal;font-size:30px;line-height:125%;font-family:Times;text-anchor:middle" xml:space="preserve">engraved with</text>
                  </g>
               </g>
            </g>
         </g>
      </g>
   </svg>
</svg>
