<?xml version="1.0" encoding="UTF-8" standalone="no"?>
<svg width="2100px" height="2970px" version="1.1" xmlns="http://www.w3.org/2000/svg" xmlns:xlink="http://www.w3.org/1999/xlink" xmlns:mei="http://www.music-encoding.org/ns/mei" overflow="visible">
   <desc>Engraved by Verovio 3.13.1</desc>
   <defs>
      <symbol id="E044-19k04y8" viewBox="0 0 1000 1000" overflow="inherit">
         <path transform="scale(1,-1)" d="M0 0c0 28 22 50 50 50s50 -22 50 -50s-22 -50 -50 -50s-50 22 -50 50z" />
      </symbol>
      <symbol id="E050-19k04y8" viewBox="0 0 1000 1000" overflow="inherit">
         <path transform="scale(1,-1)" d="M441 -245c-23 -4 -48 -6 -76 -6c-59 0 -102 7 -130 20c-88 42 -150 93 -187 154c-26 44 -43 103 -48 176c0 6 -1 13 -1 19c0 54 15 111 45 170c29 57 65 106 110 148s96 85 153 127c-3 16 -8 46 -13 92c-4 43 -5 73 -5 89c0 117 16 172 69 257c34 54 64 82 89 82 c21 0 43 -30 69 -92s39 -115 41 -159v-15c0 -109 -21 -162 -67 -241c-13 -20 -63 -90 -98 -118c-13 -9 -25 -19 -37 -29l31 -181c8 1 18 2 28 2c58 0 102 -12 133 -35c59 -43 92 -104 98 -184c1 -7 1 -15 1 -22c0 -123 -87 -209 -181 -248c8 -57 17 -110 25 -162 c5 -31 6 -58 6 -80c0 -30 -5 -53 -14 -70c-35 -64 -88 -99 -158 -103c-5 0 -11 -1 -16 -1c-37 0 -72 10 -108 27c-50 24 -77 59 -80 105v11c0 29 7 55 20 76c18 28 45 42 79 44h6c49 0 93 -42 97 -87v-9c0 -51 -34 -86 -105 -106c17 -24 51 -36 102 -36c62 0 116 43 140 85 c9 16 13 41 13 74c0 20 -1 42 -5 67c-8 53 -18 106 -26 159zM461 939c-95 0 -135 -175 -135 -286c0 -24 2 -48 5 -71c50 39 92 82 127 128c40 53 60 100 60 140v8c-4 53 -22 81 -55 81h-2zM406 119l54 -326c73 25 110 78 110 161c0 7 0 15 -1 23c-7 95 -57 142 -151 142h-12 zM382 117c-72 -2 -128 -47 -128 -120v-7c2 -46 43 -99 75 -115c-3 -2 -7 -5 -10 -10c-70 33 -116 88 -123 172v11c0 68 44 126 88 159c23 17 49 29 78 36l-29 170c-21 -13 -52 -37 -92 -73c-50 -44 -86 -84 -109 -119c-45 -69 -67 -130 -67 -182v-13c5 -68 35 -127 93 -176 s125 -73 203 -73c25 0 50 3 75 9c-19 111 -36 221 -54 331z" />
      </symbol>
      <symbol id="E081-19k04y8" viewBox="0 0 1000 1000" overflow="inherit">
         <path transform="scale(1,-1)" d="M68 -250v36c23 0 40 6 49 18c8 14 12 33 12 57v250l-82 -129l-27 13l107 255h128v-394c0 -24 5 -42 14 -53s25 -17 47 -17v-36h-248z" />
      </symbol>
      <symbol id="E082-19k04y8" viewBox="0 0 1000 1000" overflow="inherit">
         <path transform="scale(1,-1)" d="M124 -185c-18 0 -55 -14 -65 -65h-36l-3 30c0 25 6 45 18 63c11 19 22 30 39 43l121 82l37 29c15 11 27 29 38 54c12 24 18 47 18 70c0 40 -19 88 -94 88c-25 0 -32 0 -50 -8c-14 -5 -23 -12 -26 -22c3 -9 7 -15 10 -18l24 -17c12 -7 17 -11 27 -21c5 -7 7 -16 7 -27 c0 -12 0 -57 -79 -74c-30 0 -76 26 -76 94c0 66 81 135 197 135c72 0 181 -32 181 -150c0 -53 -32 -95 -113 -133l-91 -41c-26 -11 -45 -23 -57 -37l49 7c84 0 115 -41 148 -41c20 0 33 20 39 61h35c0 -152 -68 -168 -114 -168c-17 0 -65 0 -79 7h10l-28 17 c-49 37 -69 40 -87 42z" />
      </symbol>
      <symbol id="E084-19k04y8" viewBox="0 0 1000 1000" overflow="inherit">
         <path transform="scale(1,-1)" d="M20 -78c84 97 114 180 134 329h170c-13 -32 -82 -132 -99 -151l-84 -97c-33 -36 -59 -63 -80 -81h162v102l127 123v-225h57v-39h-57v-34c0 -43 19 -65 57 -65v-34h-244v36c48 0 60 26 60 70v27h-203v39z" />
      </symbol>
      <symbol id="E0A4-19k04y8" viewBox="0 0 1000 1000" overflow="inherit">
         <path transform="scale(1,-1)" d="M0 -39c0 68 73 172 200 172c66 0 114 -37 114 -95c0 -84 -106 -171 -218 -171c-64 0 -96 30 -96 94z" />
      </symbol>
   </defs>
   <style type="text/css">g.page-margin{font-family:Times;} g.ending, g.fing, g.reh, g.tempo{font-weight:bold;} g.dir, g.dynam, g.mNum{font-style:italic;} g.label{font-weight:normal;}</style>
   <svg class="definition-scale" color="black" viewBox="0 0 21000 29700">
      <g class="page-margin" transform="translate(500, 500)">
         <g id="mq5vnhp" class="mdiv pageMilestone" />
         <g id="sn0gkol" class="score pageMilestone" />
         <g id="s1c2inwa" class="system">
            <g id="ly0tv0o" class="label">
               <text x="1105" y="1535" text-anchor="end" font-size="0px">
                  <tspan id="t6zg1l3" class="text">
                     <tspan font-size="405px" class="text">Piano</tspan>
                  </tspan>
               </text>
            </g>
            <g id="s1ug7zez" class="section systemMilestone" />
            <g id="p115c2qw" class="pb" />
            <g id="m1twxr08" class="measure">
               <g id="mctw3i" class="mNum">
                  <text x="1285" y="842" text-anchor="middle" font-size="0px" />
               </g>
               <g id="svinw6" class="staff">
                  <path d="M1285 1085 L4136 1085" stroke="currentColor" stroke-width="13" />
                  <path d="M1285 1265 L4136 1265" stroke="currentColor" stroke-width="13" />
                  <path d="M1285 1445 L4136 1445" stroke="currentColor" stroke-width="13" />
                  <path d="M1285 1625 L4136 1625" stroke="currentColor" stroke-width="13" />
                  <path d="M1285 1805 L4136 1805" stroke="currentColor" stroke-width="13" />
                  <g id="c1wmiu3s" class="clef">
                     <use xlink:href="#E050-19k04y8" x="1375" y="1625" height="720px" width="720px" />
                  </g>
                  <g id="k1o05ayn" class="keySig" />
                  <g id="m1yrbvst" class="meterSig">
                     <use xlink:href="#E082-19k04y8" x="2006" y="1265" height="720px" width="720px" />
                     <use xlink:href="#E084-19k04y8" x="2011" y="1625" height="720px" width="720px" />
                  </g>
                  <g id="l1qq6rkr" class="layer">
                     <g id="b1wref5i" class="beam">
                        <polygon points="2794,1085 3965,1085 3965,1175 2794,1175" />
                        <polygon points="2794,1220 3187,1220 3187,1310 2794,1310" />
                        <polygon points="3187,1220 3571,1220 3571,1310 3187,1310" />
                        <polygon points="3571,1220 3965,1220 3965,1310 3571,1310" />
                        <g id="nvsz24m" class="note">
                           <g class="notehead">
                              <use xlink:href="#E0A4-19k04y8" x="2586" y="1895" height="720px" width="720px" />
                           </g>
                           <g id="s1oh578o" class="stem">
                              <rect x="2794" y="1103" height="764" width="18" />
                           </g>
                        </g>
                        <g id="nt0r6uu" class="note">
                           <g class="notehead">
                              <use xlink:href="#E0A4-19k04y8" x="2970" y="1715" height="720px" width="720px" />
                           </g>
                           <g id="spwet7s" class="stem">
                              <rect x="3178" y="1103" height="584" width="18" />
                           </g>
                        </g>
                        <g id="n1yommb" class="note">
                           <g class="notehead">
                              <use xlink:href="#E0A4-19k04y8" x="3354" y="1805" height="720px" width="720px" />
                           </g>
                           <g id="sbos8ur" class="stem">
                              <rect x="3562" y="1103" height="674" width="18" />
                           </g>
                        </g>
                        <g id="ne6u7pl" class="note">
                           <g class="notehead">
                              <use xlink:href="#E0A4-19k04y8" x="3739" y="1715" height="720px" width="720px" />
                           </g>
                           <g id="saer1ua" class="stem">
                              <rect x="3947" y="1103" height="584" width="18" />
                           </g>
                        </g>
                     </g>
                  </g>
               </g>
               <g id="b14p19tm" class="barLine">
                  <path d="M4123 1085 L4123 1805" stroke="currentColor" stroke-width="27" />
               </g>
            </g>
            <g id="mhio87z" class="measure">
               <g id="skbbznm" class="staff">
                  <path d="M4136 1085 L7026 1085" stroke="currentColor" stroke-width="13" />
                  <path d="M4136 1265 L7026 1265" stroke="currentColor" stroke-width="13" />
                  <path d="M4136 1445 L7026 1445" stroke="currentColor" stroke-width="13" />
                  <path d="M4136 1625 L7026 1625" stroke="currentColor" stroke-width="13" />
                  <path d="M4136 1805 L7026 1805" stroke="currentColor" stroke-width="13" />
                  <g id="l1g8erpz" class="layer">
                     <g id="bqkn1l9" class="beam">
                        <polygon points="4531,995 5125,905 5125,995 4531,1085" />
                        <g id="n1ig0rzs" class="note">
                           <g class="notehead">
                              <use xlink:href="#E0A4-19k04y8" x="4323" y="1625" height="720px" width="720px" />
                           </g>
                           <g id="s1vxz1uj" class="stem">
                              <rect x="4531" y="1013" height="584" width="18" />
                           </g>
                        </g>
                        <g id="nsf05zu" class="note">
                           <g class="notehead">
                              <use xlink:href="#E0A4-19k04y8" x="4899" y="1535" height="720px" width="720px" />
                           </g>
                           <g id="s1p8whx8" class="stem">
                              <rect x="5107" y="923" height="584" width="18" />
                           </g>
                        </g>
                     </g>
                     <g id="b1trgj3y" class="beam">
                        <polygon points="5684,995 6855,1175 6855,1265 5684,1085" />
                        <polygon points="5684,1130 6077,1190 6077,1280 5684,1220" />
                        <polygon points="6077,1190 6462,1251 6462,1341 6077,1280" />
                        <polygon points="6462,1251 6855,1310 6855,1400 6462,1341" />
                        <g id="n537vkw" class="note">
                           <g class="notehead">
                              <use xlink:href="#E0A4-19k04y8" x="5476" y="1625" height="720px" width="720px" />
                           </g>
                           <g id="se24mde" class="stem">
                              <rect x="5684" y="1013" height="584" width="18" />
                           </g>
                        </g>
                        <g id="nht69gx" class="note">
                           <g class="notehead">
                              <use xlink:href="#E0A4-19k04y8" x="5860" y="1715" height="720px" width="720px" />
                           </g>
                           <g id="s13aqitq" class="stem">
                              <rect x="6068" y="1073" height="614" width="18" />
                           </g>
                        </g>
                        <g id="n1jeselp" class="note">
                           <g class="notehead">
                              <use xlink:href="#E0A4-19k04y8" x="6245" y="1805" height="720px" width="720px" />
                           </g>
                           <g id="s7cpnqm" class="stem">
                              <rect x="6453" y="1134" height="643" width="18" />
                           </g>
                        </g>
                        <g id="n1wo8lqb" class="note">
                           <g class="notehead">
                              <use xlink:href="#E0A4-19k04y8" x="6629" y="1895" height="720px" width="720px" />
                           </g>
                           <g id="s67zf0s" class="stem">
                              <rect x="6837" y="1193" height="674" width="18" />
                           </g>
                        </g>
                     </g>
                  </g>
               </g>
               <g id="b1b85pvg" class="barLine">
                  <path d="M7013 1085 L7013 1805" stroke="currentColor" stroke-width="27" />
               </g>
            </g>
            <g id="mz4c9x7" class="measure">
               <g id="s1h6q8n2" class="staff">
                  <path d="M7026 1085 L9916 1085" stroke="currentColor" stroke-width="13" />
                  <path d="M7026 1265 L9916 1265" stroke="currentColor" stroke-width="13" />
                  <path d="M7026 1445 L9916 1445" stroke="currentColor" stroke-width="13" />
                  <path d="M7026 1625 L9916 1625" stroke="currentColor" stroke-width="13" />
                  <path d="M7026 1805 L9916 1805" stroke="currentColor" stroke-width="13" />
                  <g id="l8gqyyi" class="layer">
                     <g id="bibhpoy" class="beam">
                        <polygon points="7421,1085 8015,1175 8015,1265 7421,1175" />
                        <g id="nfa0vl3" class="note">
                           <g class="notehead">
                              <use xlink:href="#E0A4-19k04y8" x="7213" y="1715" height="720px" width="720px" />
                           </g>
                           <g id="s1qr7csa" class="stem">
                              <rect x="7421" y="1103" height="584" width="18" />
                           </g>
                        </g>
                        <g id="n1mno84r" class="note">
                           <g class="notehead">
                              <use xlink:href="#E0A4-19k04y8" x="7789" y="1805" height="720px" width="720px" />
                           </g>
                           <g id="s11lqzq2" class="stem">
                              <rect x="7997" y="1193" height="584" width="18" />
                           </g>
                        </g>
                     </g>
                     <g id="b1hhe7x5" class="beam">
                        <polygon points="8574,1085 9745,1085 9745,1175 8574,1175" />
                        <polygon points="8574,1220 8967,1220 8967,1310 8574,1310" />
                        <polygon points="8967,1220 9352,1220 9352,1310 8967,1310" />
                        <polygon points="9352,1220 9745,1220 9745,1310 9352,1310" />
                        <g id="n1khal6k" class="note">
                           <g class="notehead">
                              <use xlink:href="#E0A4-19k04y8" x="8366" y="1895" height="720px" width="720px" />
                           </g>
                           <g id="s17eetf7" class="stem">
                              <rect x="8574" y="1103" height="764" width="18" />
                           </g>
                        </g>
                        <g id="n5nmbhc" class="note">
                           <g class="notehead">
                              <use xlink:href="#E0A4-19k04y8" x="8750" y="1715" height="720px" width="720px" />
                           </g>
                           <g id="s1xvb417" class="stem">
                              <rect x="8958" y="1103" height="584" width="18" />
                           </g>
                        </g>
                        <g id="n101xanx" class="note">
                           <g class="notehead">
                              <use xlink:href="#E0A4-19k04y8" x="9135" y="1805" height="720px" width="720px" />
                           </g>
                           <g id="s1xizei2" class="stem">
                              <rect x="9343" y="1103" height="674" width="18" />
                           </g>
                        </g>
                        <g id="n1yqg875" class="note">
                           <g class="notehead">
                              <use xlink:href="#E0A4-19k04y8" x="9519" y="1715" height="720px" width="720px" />
                           </g>
                           <g id="s1qh9cp" class="stem">
                              <rect x="9727" y="1103" height="584" width="18" />
                           </g>
                        </g>
                     </g>
                  </g>
               </g>
               <g id="b1q03vfm" class="barLine">
                  <path d="M9903 1085 L9903 1805" stroke="currentColor" stroke-width="27" />
               </g>
            </g>
            <g id="m1343pn1" class="measure">
               <g id="s1nbekvn" class="staff">
                  <path d="M9916 1085 L12806 1085" stroke="currentColor" stroke-width="13" />
                  <path d="M9916 1265 L12806 1265" stroke="currentColor" stroke-width="13" />
                  <path d="M9916 1445 L12806 1445" stroke="currentColor" stroke-width="13" />
                  <path d="M9916 1625 L12806 1625" stroke="currentColor" stroke-width="13" />
                  <path d="M9916 1805 L12806 1805" stroke="currentColor" stroke-width="13" />
                  <g id="l8453j1" class="layer">
                     <g id="bpdadsr" class="beam">
                        <polygon points="10311,995 10905,905 10905,995 10311,1085" />
                        <g id="n8lour2" class="note">
                           <g class="notehead">
                              <use xlink:href="#E0A4-19k04y8" x="10103" y="1625" height="720px" width="720px" />
                           </g>
                           <g id="spd3xve" class="stem">
                              <rect x="10311" y="1013" height="584" width="18" />
                           </g>
                        </g>
                        <g id="noce170" class="note">
                           <g class="notehead">
                              <use xlink:href="#E0A4-19k04y8" x="10679" y="1535" height="720px" width="720px" />
                           </g>
                           <g id="st8dpx6" class="stem">
                              <rect x="10887" y="923" height="584" width="18" />
                           </g>
                        </g>
                     </g>
                     <g id="b1x9b3mn" class="beam">
                        <polygon points="11464,950 12635,995 12635,1085 11464,1040" />
                        <polygon points="11464,1085 11857,1100 11857,1190 11464,1175" />
                        <polygon points="11857,1100 12242,1116 12242,1206 11857,1190" />
                        <polygon points="12242,1116 12635,1130 12635,1220 12242,1206" />
                        <g id="nsi4ml6" class="note">
                           <g class="notehead">
                              <use xlink:href="#E0A4-19k04y8" x="11256" y="1625" height="720px" width="720px" />
                           </g>
                           <g id="s1lrl9q6" class="stem">
                              <rect x="11464" y="968" height="629" width="18" />
                           </g>
                        </g>
                        <g id="nwivxtl" class="note">
                           <g class="notehead">
                              <use xlink:href="#E0A4-19k04y8" x="11640" y="1715" height="720px" width="720px" />
                           </g>
                           <g id="srm7g2k" class="stem">
                              <rect x="11848" y="983" height="704" width="18" />
                           </g>
                        </g>
                        <g id="nlmsjil" class="note">
                           <g class="notehead">
                              <use xlink:href="#E0A4-19k04y8" x="12025" y="1805" height="720px" width="720px" />
                           </g>
                           <g id="ski5qhi" class="stem">
                              <rect x="12233" y="999" height="778" width="18" />
                           </g>
                        </g>
                        <g id="nppt6ru" class="note">
                           <g class="notehead">
                              <use xlink:href="#E0A4-19k04y8" x="12409" y="1715" height="720px" width="720px" />
                           </g>
                           <g id="sn2dw6r" class="stem">
                              <rect x="12617" y="1013" height="674" width="18" />
                           </g>
                        </g>
                     </g>
                  </g>
               </g>
               <g id="b1qaueuy" class="barLine">
                  <path d="M12793 1085 L12793 1805" stroke="currentColor" stroke-width="27" />
               </g>
            </g>
            <g id="m189umlp" class="measure">
               <g id="s1294y8g" class="staff">
                  <path d="M12806 1085 L14713 1085" stroke="currentColor" stroke-width="13" />
                  <path d="M12806 1265 L14713 1265" stroke="currentColor" stroke-width="13" />
                  <path d="M12806 1445 L14713 1445" stroke="currentColor" stroke-width="13" />
                  <path d="M12806 1625 L14713 1625" stroke="currentColor" stroke-width="13" />
                  <path d="M12806 1805 L14713 1805" stroke="currentColor" stroke-width="13" />
                  <g id="m19hisik" class="meterSig">
                     <use xlink:href="#E081-19k04y8" x="12915" y="1265" height="720px" width="720px" />
                     <use xlink:href="#E084-19k04y8" x="12882" y="1625" height="720px" width="720px" />
                  </g>
                  <g id="l1dpv8ad" class="layer">
                     <g id="n8ynb9k" class="note">
                        <g class="notehead">
                           <use xlink:href="#E0A4-19k04y8" x="13451" y="1895" height="720px" width="720px" />
                        </g>
                        <g id="s1v548qm" class="stem">
                           <rect x="13659" y="1265" height="602" width="18" />
                        </g>
                     </g>
                  </g>
               </g>
               <g id="b180fyd5" class="barLine">
                  <path d="M14335 1085 L14335 1805" stroke="currentColor" stroke-width="27" />
                  <path d="M14465 1085 L14465 1805" stroke="currentColor" stroke-width="90" />
                  <path d="M14596 1085 L14596 1805" stroke="currentColor" stroke-width="27" />
                  <use xlink:href="#E044-19k04y8" x="14641" y="1355" height="720px" width="720px" />
                  <use xlink:href="#E044-19k04y8" x="14641" y="1535" height="720px" width="720px" />
                  <use xlink:href="#E044-19k04y8" x="14218" y="1355" height="720px" width="720px" />
                  <use xlink:href="#E044-19k04y8" x="14218" y="1535" height="720px" width="720px" />
               </g>
            </g>
            <g id="m1hwo16u" class="measure">
               <g id="s1531sm" class="staff">
                  <path d="M14713 1085 L16450 1085" stroke="currentColor" stroke-width="13" />
                  <path d="M14713 1265 L16450 1265" stroke="currentColor" stroke-width="13" />
                  <path d="M14713 1445 L16450 1445" stroke="currentColor" stroke-width="13" />
                  <path d="M14713 1625 L16450 1625" stroke="currentColor" stroke-width="13" />
                  <path d="M14713 1805 L16450 1805" stroke="currentColor" stroke-width="13" />
                  <g id="l100cvzv" class="layer">
                     <g id="bgsjopo" class="beam">
                        <polygon points="14900,2165 16071,1985 16071,1895 14900,2075" />
                        <polygon points="14900,2030 15293,1971 15293,1881 14900,1940" />
                        <polygon points="15293,1971 15677,1911 15677,1821 15293,1881" />
                        <polygon points="15677,1911 16071,1850 16071,1760 15677,1821" />
                        <g id="n1f2el6p" class="note">
                           <g class="notehead">
                              <use xlink:href="#E0A4-19k04y8" x="14900" y="1535" height="720px" width="720px" />
                           </g>
                           <g id="s1mbnab1" class="stem">
                              <rect x="14900" y="1563" height="584" width="18" />
                           </g>
                        </g>
                        <g id="n10wypax" class="note">
                           <g class="notehead">
                              <use xlink:href="#E0A4-19k04y8" x="15284" y="1445" height="720px" width="720px" />
                           </g>
                           <g id="s1icbe24" class="stem">
                              <rect x="15284" y="1473" height="615" width="18" />
                           </g>
                        </g>
                        <g id="n1aix8at" class="note">
                           <g class="notehead">
                              <use xlink:href="#E0A4-19k04y8" x="15668" y="1355" height="720px" width="720px" />
                           </g>
                           <g id="s56is3y" class="stem">
                              <rect x="15668" y="1383" height="645" width="18" />
                           </g>
                        </g>
                        <g id="nz4rz3a" class="note">
                           <g class="notehead">
                              <use xlink:href="#E0A4-19k04y8" x="16053" y="1265" height="720px" width="720px" />
                           </g>
                           <g id="s1iozl0j" class="stem">
                              <rect x="16053" y="1293" height="674" width="18" />
                           </g>
                        </g>
                     </g>
                  </g>
               </g>
               <g id="b1thifys" class="barLine">
                  <path d="M16437 1085 L16437 1805" stroke="currentColor" stroke-width="27" />
               </g>
            </g>
            <g id="m1bl1zl4" class="measure">
               <g id="sysscsc" class="staff">
                  <path d="M16450 1085 L20002 1085" stroke="currentColor" stroke-width="13" />
                  <path d="M16450 1265 L20002 1265" stroke="currentColor" stroke-width="13" />
                  <path d="M16450 1445 L20002 1445" stroke="currentColor" stroke-width="13" />
                  <path d="M16450 1625 L20002 1625" stroke="currentColor" stroke-width="13" />
                  <path d="M16450 1805 L20002 1805" stroke="currentColor" stroke-width="13" />
                  <g id="mykprep" class="meterSig">
                     <use xlink:href="#E082-19k04y8" x="16526" y="1265" height="720px" width="720px" />
                     <use xlink:href="#E084-19k04y8" x="16531" y="1625" height="720px" width="720px" />
                  </g>
                  <g id="le07nw7" class="layer">
                     <g id="bh4xorc" class="beam">
                        <polygon points="17314,860 18100,860 18100,950 17314,950" />
                        <polygon points="17314,995 17707,995 17707,1085 17314,1085" />
                        <g id="n1uard6n" class="note">
                           <g class="notehead">
                              <use xlink:href="#E0A4-19k04y8" x="17106" y="1535" height="720px" width="720px" />
                           </g>
                           <g id="s1amsvnr" class="stem">
                              <rect x="17314" y="878" height="629" width="18" />
                           </g>
                        </g>
                        <g id="n5hk529" class="note">
                           <g class="notehead">
                              <use xlink:href="#E0A4-19k04y8" x="17490" y="1445" height="720px" width="720px" />
                           </g>
                           <g id="s4ebeop" class="stem">
                              <rect x="17698" y="878" height="539" width="18" />
                           </g>
                        </g>
                        <g id="n14237ok" class="note">
                           <g class="notehead">
                              <use xlink:href="#E0A4-19k04y8" x="17874" y="1535" height="720px" width="720px" />
                           </g>
                           <g id="s1xjlmwv" class="stem">
                              <rect x="18082" y="878" height="629" width="18" />
                           </g>
                        </g>
                     </g>
                     <g id="bkuc8y0" class="beam">
                        <polygon points="18451,2165 19622,1985 19622,1895 18451,2075" />
                        <polygon points="18451,2030 18844,1971 18844,1881 18451,1940" />
                        <polygon points="18844,1971 19229,1910 19229,1820 18844,1881" />
                        <polygon points="19229,1910 19622,1850 19622,1760 19229,1820" />
                        <g id="nl4x6bd" class="note">
                           <g class="notehead">
                              <use xlink:href="#E0A4-19k04y8" x="18451" y="1535" height="720px" width="720px" />
                           </g>
                           <g id="s19ik489" class="stem">
                              <rect x="18451" y="1563" height="584" width="18" />
                           </g>
                        </g>
                        <g id="n7nb8cg" class="note">
                           <g class="notehead">
                              <use xlink:href="#E0A4-19k04y8" x="18835" y="1445" height="720px" width="720px" />
                           </g>
                           <g id="s1vwtz44" class="stem">
                              <rect x="18835" y="1473" height="615" width="18" />
                           </g>
                        </g>
                        <g id="nayygb2" class="note">
                           <g class="notehead">
                              <use xlink:href="#E0A4-19k04y8" x="19220" y="1355" height="720px" width="720px" />
                           </g>
                           <g id="smlijb9" class="stem">
                              <rect x="19220" y="1383" height="644" width="18" />
                           </g>
                        </g>
                        <g id="n1jlb0u8" class="note">
                           <g class="notehead">
                              <use xlink:href="#E0A4-19k04y8" x="19604" y="1265" height="720px" width="720px" />
                           </g>
                           <g id="s8b6vrs" class="stem">
                              <rect x="19604" y="1293" height="674" width="18" />
                           </g>
                        </g>
                     </g>
                  </g>
               </g>
               <g id="bj261yf" class="barLine">
                  <path d="M19989 1085 L19989 1805" stroke="currentColor" stroke-width="27" />
               </g>
            </g>
            <g id="stwnqut" class="sb" />
         </g>
         <g id="sm6zamn" class="system">
            <g id="l260rev" class="labelAbbr">
               <text x="914" y="3550" text-anchor="end" font-size="0px">
                  <tspan id="tv7z4br" class="text">
                     <tspan font-size="405px" class="text">Pno.</tspan>
                  </tspan>
               </text>
            </g>
            <g id="mdfox13" class="measure">
               <g id="m1tmlane" class="mNum autogenerated">
                  <text x="1094" y="2857" text-anchor="middle" font-size="0px">
                     <tspan id="t13gzjqh" class="text">
                        <tspan font-size="324px" class="text">7</tspan>
                     </tspan>
                  </text>
               </g>
               <g id="s17fsjn6" class="staff">
                  <path d="M1094 3100 L4276 3100" stroke="currentColor" stroke-width="13" />
                  <path d="M1094 3280 L4276 3280" stroke="currentColor" stroke-width="13" />
                  <path d="M1094 3460 L4276 3460" stroke="currentColor" stroke-width="13" />
                  <path d="M1094 3640 L4276 3640" stroke="currentColor" stroke-width="13" />
                  <path d="M1094 3820 L4276 3820" stroke="currentColor" stroke-width="13" />
                  <g id="cr2dm2v" class="clef">
                     <use xlink:href="#E050-19k04y8" x="1184" y="3640" height="720px" width="720px" />
                  </g>
                  <g id="k1rzxklf" class="keySig" />
                  <g id="l9986mt" class="layer">
                     <g id="n16g3r4v" class="note">
                        <g class="notehead">
                           <use xlink:href="#E0A4-19k04y8" x="1919" y="3550" height="720px" width="720px" />
                        </g>
                        <g id="s1y3hfmc" class="stem">
                           <rect x="2127" y="2920" height="602" width="18" />
                        </g>
                     </g>
                     <g id="bosiltc" class="beam">
                        <polygon points="2775,4180 3909,4000 3909,3910 2775,4090" />
                        <polygon points="2775,4045 3156,3985 3156,3895 2775,3955" />
                        <polygon points="3156,3985 3528,3925 3528,3835 3156,3895" />
                        <polygon points="3528,3925 3909,3865 3909,3775 3528,3835" />
                        <g id="nbb3xlw" class="note">
                           <g class="notehead">
                              <use xlink:href="#E0A4-19k04y8" x="2775" y="3550" height="720px" width="720px" />
                           </g>
                           <g id="s9wuf5w" class="stem">
                              <rect x="2775" y="3578" height="584" width="18" />
                           </g>
                        </g>
                        <g id="n1vb5kzf" class="note">
                           <g class="notehead">
                              <use xlink:href="#E0A4-19k04y8" x="3147" y="3280" height="720px" width="720px" />
                           </g>
                           <g id="s1vb693x" class="stem">
                              <rect x="3147" y="3308" height="794" width="18" />
                           </g>
                        </g>
                        <g id="nh710sr" class="note">
                           <g class="notehead">
                              <use xlink:href="#E0A4-19k04y8" x="3519" y="3370" height="720px" width="720px" />
                           </g>
                           <g id="sq5560o" class="stem">
                              <rect x="3519" y="3398" height="644" width="18" />
                           </g>
                        </g>
                        <g id="nb9vrpl" class="note">
                           <g class="notehead">
                              <use xlink:href="#E0A4-19k04y8" x="3891" y="3280" height="720px" width="720px" />
                           </g>
                           <g id="s1m296pj" class="stem">
                              <rect x="3891" y="3308" height="674" width="18" />
                           </g>
                        </g>
                     </g>
                  </g>
               </g>
               <g id="bvsf8sv" class="barLine">
                  <path d="M4263 3100 L4263 3820" stroke="currentColor" stroke-width="27" />
               </g>
            </g>
            <g id="mnvfbww" class="measure">
               <g id="s108v4so" class="staff">
                  <path d="M4276 3100 L7259 3100" stroke="currentColor" stroke-width="13" />
                  <path d="M4276 3280 L7259 3280" stroke="currentColor" stroke-width="13" />
                  <path d="M4276 3460 L7259 3460" stroke="currentColor" stroke-width="13" />
                  <path d="M4276 3640 L7259 3640" stroke="currentColor" stroke-width="13" />
                  <path d="M4276 3820 L7259 3820" stroke="currentColor" stroke-width="13" />
                  <g id="l1rzten8" class="layer">
                     <g id="b6qnndp" class="beam">
                        <polygon points="4664,2875 5426,2875 5426,2965 4664,2965" />
                        <polygon points="4664,3010 5045,3010 5045,3100 4664,3100" />
                        <g id="n1kss06l" class="note">
                           <g class="notehead">
                              <use xlink:href="#E0A4-19k04y8" x="4456" y="3550" height="720px" width="720px" />
                           </g>
                           <g id="srt43zj" class="stem">
                              <rect x="4664" y="2893" height="629" width="18" />
                           </g>
                        </g>
                        <g id="nzznvfp" class="note">
                           <g class="notehead">
                              <use xlink:href="#E0A4-19k04y8" x="4828" y="3460" height="720px" width="720px" />
                           </g>
                           <g id="s1pambke" class="stem">
                              <rect x="5036" y="2893" height="539" width="18" />
                           </g>
                        </g>
                        <g id="nbx90l5" class="note">
                           <g class="notehead">
                              <use xlink:href="#E0A4-19k04y8" x="5200" y="3550" height="720px" width="720px" />
                           </g>
                           <g id="smcbi8w" class="stem">
                              <rect x="5408" y="2893" height="629" width="18" />
                           </g>
                        </g>
                     </g>
                     <g id="b1bqc971" class="beam">
                        <polygon points="5758,4180 6892,4000 6892,3910 5758,4090" />
                        <polygon points="5758,4045 6139,3985 6139,3895 5758,3955" />
                        <polygon points="6139,3985 6511,3925 6511,3835 6139,3895" />
                        <polygon points="6511,3925 6892,3865 6892,3775 6511,3835" />
                        <g id="nxasn9j" class="note">
                           <g class="notehead">
                              <use xlink:href="#E0A4-19k04y8" x="5758" y="3550" height="720px" width="720px" />
                           </g>
                           <g id="s1p9a9r9" class="stem">
                              <rect x="5758" y="3578" height="584" width="18" />
                           </g>
                        </g>
                        <g id="nsv1wcf" class="note">
                           <g class="notehead">
                              <use xlink:href="#E0A4-19k04y8" x="6130" y="3280" height="720px" width="720px" />
                           </g>
                           <g id="s1fk6wm7" class="stem">
                              <rect x="6130" y="3308" height="794" width="18" />
                           </g>
                        </g>
                        <g id="n8fzwy7" class="note">
                           <g class="notehead">
                              <use xlink:href="#E0A4-19k04y8" x="6502" y="3370" height="720px" width="720px" />
                           </g>
                           <g id="s1ravq2" class="stem">
                              <rect x="6502" y="3398" height="644" width="18" />
                           </g>
                        </g>
                        <g id="n4txh49" class="note">
                           <g class="notehead">
                              <use xlink:href="#E0A4-19k04y8" x="6874" y="3280" height="720px" width="720px" />
                           </g>
                           <g id="sp4ua8j" class="stem">
                              <rect x="6874" y="3308" height="674" width="18" />
                           </g>
                        </g>
                     </g>
                  </g>
               </g>
               <g id="byfnsmt" class="barLine">
                  <path d="M7246 3100 L7246 3820" stroke="currentColor" stroke-width="27" />
               </g>
            </g>
            <g id="m1l6n1zd" class="measure">
               <g id="so7spys" class="staff">
                  <path d="M7259 3100 L8928 3100" stroke="currentColor" stroke-width="13" />
                  <path d="M7259 3280 L8928 3280" stroke="currentColor" stroke-width="13" />
                  <path d="M7259 3460 L8928 3460" stroke="currentColor" stroke-width="13" />
                  <path d="M7259 3640 L8928 3640" stroke="currentColor" stroke-width="13" />
                  <path d="M7259 3820 L8928 3820" stroke="currentColor" stroke-width="13" />
                  <g id="mwi84l0" class="meterSig">
                     <use xlink:href="#E081-19k04y8" x="7368" y="3280" height="720px" width="720px" />
                     <use xlink:href="#E084-19k04y8" x="7335" y="3640" height="720px" width="720px" />
                  </g>
                  <g id="li249xq" class="layer">
                     <g id="n1hk8lma" class="note">
                        <g class="notehead">
                           <use xlink:href="#E0A4-19k04y8" x="7897" y="3550" height="720px" width="720px" />
                        </g>
                        <g id="s18un9b" class="stem">
                           <rect x="8105" y="2920" height="602" width="18" />
                        </g>
                     </g>
                  </g>
               </g>
               <g id="dayo5o4" class="dir fine">
                  <text x="8753" y="2792" text-anchor="end" font-size="0px">
                     <tspan id="r17vpb0j" class="rend">
                        <tspan id="t1r11idh" class="text">
                           <tspan font-size="405px" class="text">Fine</tspan>
                        </tspan>
                     </tspan>
                  </text>
               </g>
               <g id="bucgf3s" class="barLine">
                  <path d="M8753 3100 L8753 3820" stroke="currentColor" stroke-width="27" />
                  <path d="M8883 3100 L8883 3820" stroke="currentColor" stroke-width="90" />
               </g>
            </g>
            <g id="s14mllx" class="systemMilestoneEnd s1ug7zez" />
         </g>
         <g id="p113vxra" class="pageMilestoneEnd sn0gkol" />
         <g id="p1i8m6c2" class="pageMilestoneEnd mq5vnhp" />
         <g id="p1ngs9oa" class="pgHead">
            <text x="0" y="0" font-size="0px">
               <tspan id="r1gtvjol" class="rend" x="10000" y="277" text-anchor="middle">
                  <tspan id="tlpcliz" class="text">
                     <tspan font-size="405px" class="text">Air n 112</tspan>
                  </tspan>
               </tspan>
            </text>
         </g>
         <g id="pq51600" class="pgFoot autogenerated">
            <g id="fqjr7z0" class="fig">
               <g id="smbvbur" class="svg" transform="translate(7750, 28099) scale(10, 10)">
                  <g>
                     <path fill="#00000" d="M 17.11278,49.26451 V 10.367554 h 12.696511 c 3.288815,7.336676 6.71267,14.610456 10.127281,21.888976 3.419998,-7.484684 6.255515,-14.204887 9.58887,-21.909915 2.436207,0.103726 4.316952,0.08453 6.484294,-0.05808 V 49.264423 H 50.274275 C 50.145222,38.35639 50.016136,27.448368 49.887066,16.540329 45.003488,27.315459 39.967448,38.433564 35.083854,49.208695 34.678996,49.343717 34.426583,49.135619 34.021726,49.270644 29.46588,39.330716 24.910049,29.390805 20.354201,19.450876 20.224341,29.388756 20.09461,39.326619 19.964815,49.264497 H 17.11278 Z M 36.754144,39.324695 C 32.721221,30.512695 28.6883,21.700679 24.655394,12.888662 22.530527,12.750737 22.656775,12.71031 20.714356,12.813974 v 0.966497 c 4.612938,9.99784 9.609439,20.748709 13.87298,30.081745 0.722248,-1.512523 1.444528,-3.025014 2.166808,-4.537521 z m 25.738417,9.939815 c 0,-12.965651 0,-25.931305 0,-38.896956 10.084388,0 20.168791,0 30.253178,0 0,0.960416 0,1.920849 0,2.881265 -6.482825,0 -12.965652,0 -19.448478,0 0,4.802097 0,9.604178 0,14.406277 5.52241,0 11.044819,0 16.567229,0 0,0.960415 0,1.920832 0,2.881248 -5.52241,0 -11.044819,0 -16.567229,0 0,5.282306 0,10.564611 0,15.846917 6.963035,0 13.926068,0 20.889103,0 0,0.960416 0,1.920832 0,2.881249 -10.564597,0 -21.129207,0 -31.693803,0 z m 4.321874,-2.160937 c 0,-11.765131 0,-23.530263 0,-35.295394 -0.720312,0 -1.440625,0 -2.160937,0 0,11.765131 0,23.530263 0,35.295394 0.720312,0 1.440625,0 2.160937,0 z m 32.41413,2.160937 c 0,-12.965651 0,-25.931305 0,-38.896956 2.401045,0 4.802095,0 7.203135,0 0,12.965651 0,25.931305 0,38.896956 -2.40104,0 -4.80209,0 -7.203135,0 z m 2.881265,-2.160937 c 0,-11.765131 0,-23.530263 0,-35.295394 -0.72031,0 -1.44064,0 -2.160953,0 0,11.765131 0,23.530263 0,35.295394 0.720313,0 1.440643,0 2.160953,0 z" />
                     <path fill="#00000" d="m 346.3,6.7 c -3.1,0.5 -4.9,4.4 -2.7,6.8 1.2,1.4 2.7,2.4 4.1,3.5 -2.4,5.3 -7.7,8.3 -11.9,12.1 -3.7,2.8 -7,6.2 -9.7,9.9 -2.2,-0.8 -0.3,-6.8 -0.6,-9.5 0.1,-3.1 0.7,-6.4 2.9,-8.7 1.3,-1.9 3,-3.5 4.5,-5.2 1.2,-3.4 -3.2,-4.9 -5.8,-4.6 -7.3,-0.5 -14.6,2 -20,6.8 -5,4.6 -10,10.1 -11.5,17 -0.9,3.5 -0.2,7.5 2.8,9.9 2.5,2.8 7.4,2.9 9.8,-0.2 1.7,-2.3 3.2,-4.8 3.8,-7.6 -0.1,-2.6 -4.4,-2.3 -4.3,0.2 1.2,2.4 -0.9,4.7 -2.7,6.2 -1.7,0.9 -4.7,0.7 -4.8,-1.7 -1,-5.8 2.1,-11.3 5.2,-16.1 4,-5.8 9.8,-11.2 17.2,-11.8 1.6,0 8.1,-1.2 6.8,1.4 -2.8,2.8 -5.6,6.1 -6,10.3 -1.6,7.7 0.1,15.7 -2.3,23.2 -1.1,3.9 2,2.6 2.5,0.2 3.3,-7.4 8.9,-13.4 15.1,-18.5 4.2,-3.9 9.5,-7.1 11.9,-12.6 1.3,-3.6 1.2,-9 -2.7,-10.9 -0.6,-0.2 -1.2,-0.3 -1.8,-0.3 z m 66,14.5 c -2,0.8 -1.8,4.9 0.8,4.4 3.4,0.4 2.9,-6.2 -0.8,-4.4 z m 0.6,7.3 c -1.3,0.5 -7.6,0.5 -5.4,2.2 4,-0.3 0.7,4.5 0.6,6.7 -0.4,2.9 -2.4,5.9 -1.2,8.8 2.7,1.7 5.6,-0.8 6.8,-3.2 1.6,-1.4 -0.5,-3 -1.2,-0.9 -0.4,0.8 -2.4,3.5 -2.6,1.8 1.1,-5 2.7,-9.9 3.9,-14.9 l -0.1,-0.5 h -0.9 z m -65.1,0.2 c -6.5,1.6 -10.5,9.5 -8.2,15.7 2.1,3.4 7.4,2.9 10.1,0.4 2,-0.2 3.6,-5.3 1,-3.4 -1.4,2 -4,4.2 -6.5,2.8 -2.2,-1.9 -1.9,-5.7 1.7,-5.3 3.1,-0.9 6.9,-2.1 8.1,-5.5 0.9,-2.7 -1.6,-5.2 -4.3,-4.8 h -1.1 -0.7 z m 13.6,0 c -2.2,0 -8.5,1.8 -2.9,2.3 0.9,1.9 -1,4.9 -1.1,7.2 -0.5,2.9 -1.4,5.7 -1.7,8.7 3.7,0.7 3.8,-2.6 4.4,-5.3 0.9,-3.3 1.6,-7 4.1,-9.5 2.4,1.6 6.8,-0.7 3.7,-3.4 -2.9,-0.5 -4.8,2.4 -6.2,4.3 0,-1.2 2.4,-5 -0.2,-4.3 z m 15.8,0 c -6.4,1.3 -9.6,9.1 -7.7,14.9 1.9,4 7.7,3.9 11,1.7 4.1,-3 6,-8.9 4.4,-13.7 -1.3,-3 -4.8,-3.2 -7.6,-3 z m 17,0 c -2.3,0 -8.8,1.9 -3,2.4 0.4,2.5 -1,5.7 -1.4,8.4 -0.7,2.4 -1.8,7.5 2.1,7.2 3.8,-0.1 6.5,-3.5 8.5,-6.3 2,-3.2 4.5,-7 3.3,-10.9 -3.7,-3 -3.6,2.6 -3.1,5.1 -0.7,3.8 -2.7,7.9 -6.2,9.8 -3.6,0.6 -1,-4.3 -0.8,-6.1 0.6,-3.2 1.6,-6.3 1.9,-9.5 -0.4,0 -0.8,0 -1.1,0 z m 30.6,0 c -6.3,1.2 -9.5,8.9 -7.8,14.7 1.5,4 7.2,4.2 10.5,2.4 4.6,-2.8 6.6,-9.3 4.8,-14.3 -1.4,-2.8 -4.8,-3 -7.5,-2.8 z m -75.4,1.7 c 2.1,1.5 0.2,4.7 -1.6,5.7 -1.1,0.4 -5.5,3.4 -4.6,0.7 0.8,-2.7 2.2,-6.2 5.3,-6.6 l 0.9,0.1 z m 30.8,0 c 2.6,1.5 1.3,5.2 0.8,7.6 -0.8,2.7 -1.9,5.9 -4.7,7.1 -5.1,0.8 -4,-5.8 -2.8,-8.8 1,-2.8 3,-6.8 6.7,-5.8 z m 47.1,-0.1 c 2.9,0.7 2,4.7 1.5,6.8 -0.7,3 -1.8,6.7 -5,8 -4.7,0.8 -4,-5.1 -3,-7.9 0.9,-3 2.7,-7.3 6.5,-6.8 z m -88.1,5.9 c -0.3,1.3 0.9,-0.6 0,0 z m -1.1,2.4 c -0.2,0.5 0.5,-0.1 0,0 z m -1.3,4.5 c -0.3,1.3 0.8,-0.2 0,0 z" />
                     <text y="41" x="201" fill="#00000" style="font-style:italic;font-weight:normal;font-size:30px;line-height:125%;font-family:Times;text-anchor:middle" xml:space="preserve">engraved with</text>
                  </g>
               </g>
            </g>
         </g>
      </g>
   </svg>
</svg>
