<?xml version="1.0" encoding="UTF-8" standalone="no"?>
<svg width="2100px" height="2970px" version="1.1" xmlns="http://www.w3.org/2000/svg" xmlns:xlink="http://www.w3.org/1999/xlink" xmlns:mei="http://www.music-encoding.org/ns/mei" overflow="visible">
   <desc>Engraved by Verovio 3.13.1</desc>
   <defs>
      <symbol id="E044-12hj4ap" viewBox="0 0 1000 1000" overflow="inherit">
         <path transform="scale(1,-1)" d="M0 0c0 28 22 50 50 50s50 -22 50 -50s-22 -50 -50 -50s-50 22 -50 50z" />
      </symbol>
      <symbol id="E050-12hj4ap" viewBox="0 0 1000 1000" overflow="inherit">
         <path transform="scale(1,-1)" d="M441 -245c-23 -4 -48 -6 -76 -6c-59 0 -102 7 -130 20c-88 42 -150 93 -187 154c-26 44 -43 103 -48 176c0 6 -1 13 -1 19c0 54 15 111 45 170c29 57 65 106 110 148s96 85 153 127c-3 16 -8 46 -13 92c-4 43 -5 73 -5 89c0 117 16 172 69 257c34 54 64 82 89 82 c21 0 43 -30 69 -92s39 -115 41 -159v-15c0 -109 -21 -162 -67 -241c-13 -20 -63 -90 -98 -118c-13 -9 -25 -19 -37 -29l31 -181c8 1 18 2 28 2c58 0 102 -12 133 -35c59 -43 92 -104 98 -184c1 -7 1 -15 1 -22c0 -123 -87 -209 -181 -248c8 -57 17 -110 25 -162 c5 -31 6 -58 6 -80c0 -30 -5 -53 -14 -70c-35 -64 -88 -99 -158 -103c-5 0 -11 -1 -16 -1c-37 0 -72 10 -108 27c-50 24 -77 59 -80 105v11c0 29 7 55 20 76c18 28 45 42 79 44h6c49 0 93 -42 97 -87v-9c0 -51 -34 -86 -105 -106c17 -24 51 -36 102 -36c62 0 116 43 140 85 c9 16 13 41 13 74c0 20 -1 42 -5 67c-8 53 -18 106 -26 159zM461 939c-95 0 -135 -175 -135 -286c0 -24 2 -48 5 -71c50 39 92 82 127 128c40 53 60 100 60 140v8c-4 53 -22 81 -55 81h-2zM406 119l54 -326c73 25 110 78 110 161c0 7 0 15 -1 23c-7 95 -57 142 -151 142h-12 zM382 117c-72 -2 -128 -47 -128 -120v-7c2 -46 43 -99 75 -115c-3 -2 -7 -5 -10 -10c-70 33 -116 88 -123 172v11c0 68 44 126 88 159c23 17 49 29 78 36l-29 170c-21 -13 -52 -37 -92 -73c-50 -44 -86 -84 -109 -119c-45 -69 -67 -130 -67 -182v-13c5 -68 35 -127 93 -176 s125 -73 203 -73c25 0 50 3 75 9c-19 111 -36 221 -54 331z" />
      </symbol>
      <symbol id="E081-12hj4ap" viewBox="0 0 1000 1000" overflow="inherit">
         <path transform="scale(1,-1)" d="M68 -250v36c23 0 40 6 49 18c8 14 12 33 12 57v250l-82 -129l-27 13l107 255h128v-394c0 -24 5 -42 14 -53s25 -17 47 -17v-36h-248z" />
      </symbol>
      <symbol id="E082-12hj4ap" viewBox="0 0 1000 1000" overflow="inherit">
         <path transform="scale(1,-1)" d="M124 -185c-18 0 -55 -14 -65 -65h-36l-3 30c0 25 6 45 18 63c11 19 22 30 39 43l121 82l37 29c15 11 27 29 38 54c12 24 18 47 18 70c0 40 -19 88 -94 88c-25 0 -32 0 -50 -8c-14 -5 -23 -12 -26 -22c3 -9 7 -15 10 -18l24 -17c12 -7 17 -11 27 -21c5 -7 7 -16 7 -27 c0 -12 0 -57 -79 -74c-30 0 -76 26 -76 94c0 66 81 135 197 135c72 0 181 -32 181 -150c0 -53 -32 -95 -113 -133l-91 -41c-26 -11 -45 -23 -57 -37l49 7c84 0 115 -41 148 -41c20 0 33 20 39 61h35c0 -152 -68 -168 -114 -168c-17 0 -65 0 -79 7h10l-28 17 c-49 37 -69 40 -87 42z" />
      </symbol>
      <symbol id="E084-12hj4ap" viewBox="0 0 1000 1000" overflow="inherit">
         <path transform="scale(1,-1)" d="M20 -78c84 97 114 180 134 329h170c-13 -32 -82 -132 -99 -151l-84 -97c-33 -36 -59 -63 -80 -81h162v102l127 123v-225h57v-39h-57v-34c0 -43 19 -65 57 -65v-34h-244v36c48 0 60 26 60 70v27h-203v39z" />
      </symbol>
      <symbol id="E0A4-12hj4ap" viewBox="0 0 1000 1000" overflow="inherit">
         <path transform="scale(1,-1)" d="M0 -39c0 68 73 172 200 172c66 0 114 -37 114 -95c0 -84 -106 -171 -218 -171c-64 0 -96 30 -96 94z" />
      </symbol>
      <symbol id="E240-12hj4ap" viewBox="0 0 1000 1000" overflow="inherit">
         <path transform="scale(1,-1)" d="M179 -646c15 29 29 55 46 102c18 49 30 108 30 138c0 105 -80 173 -168 200c-18 5 -47 9 -87 16v190h22c8 0 33 -61 71 -95c4 -3 -2 3 61 -56c62 -58 122 -137 122 -241c0 -38 -13 -106 -35 -163c-20 -51 -43 -99 -66 -132c-6 -5 -10 -7 -13 -7s-5 2 -5 5l4 10 c1 3 14 25 18 33z" />
      </symbol>
      <symbol id="E262-12hj4ap" viewBox="0 0 1000 1000" overflow="inherit">
         <path transform="scale(1,-1)" d="M136 186v169h17v-164l44 14v-91l-44 -14v-165l44 12v-91l-44 -13v-155h-17v150l-76 -22v-155h-17v149l-43 -13v90l43 14v167l-43 -14v92l43 13v169h17v-163zM60 73v-167l76 22v168z" />
      </symbol>
   </defs>
   <style type="text/css">g.page-margin{font-family:Times;} g.ending, g.fing, g.reh, g.tempo{font-weight:bold;} g.dir, g.dynam, g.mNum{font-style:italic;} g.label{font-weight:normal;}</style>
   <svg class="definition-scale" color="black" viewBox="0 0 21000 29700">
      <g class="page-margin" transform="translate(500, 500)">
         <g id="m1psaj4u" class="mdiv pageMilestone" />
         <g id="s109h8fi" class="score pageMilestone" />
         <g id="s1re4ra6" class="system">
            <g id="l1nrfp4b" class="label">
               <text x="1105" y="1535" text-anchor="end" font-size="0px">
                  <tspan id="t1m2wgx5" class="text">
                     <tspan font-size="405px" class="text">Piano</tspan>
                  </tspan>
               </text>
            </g>
            <g id="s1got7xx" class="section systemMilestone" />
            <g id="miovyi9" class="measure">
               <g id="mvh63qe" class="mNum">
                  <text x="1285" y="842" text-anchor="middle" font-size="0px" />
               </g>
               <g id="sqwwywy" class="staff">
                  <path d="M1285 1085 L3914 1085" stroke="currentColor" stroke-width="13" />
                  <path d="M1285 1265 L3914 1265" stroke="currentColor" stroke-width="13" />
                  <path d="M1285 1445 L3914 1445" stroke="currentColor" stroke-width="13" />
                  <path d="M1285 1625 L3914 1625" stroke="currentColor" stroke-width="13" />
                  <path d="M1285 1805 L3914 1805" stroke="currentColor" stroke-width="13" />
                  <g id="c1v0ea47" class="clef">
                     <use xlink:href="#E050-12hj4ap" x="1375" y="1625" height="720px" width="720px" />
                  </g>
                  <g id="kqtb6r9" class="keySig">
                     <g id="k1huy2vf" class="keyAccid">
                        <use xlink:href="#E262-12hj4ap" x="2020" y="1085" height="720px" width="720px" />
                     </g>
                  </g>
                  <g id="m1lc5be0" class="meterSig">
                     <use xlink:href="#E082-12hj4ap" x="2327" y="1265" height="720px" width="720px" />
                     <use xlink:href="#E084-12hj4ap" x="2332" y="1625" height="720px" width="720px" />
                  </g>
                  <g id="ls3m4rq" class="layer">
                     <g id="b13jenkd" class="beam">
                        <polygon points="2895,2030 3416,1985 3416,1895 2895,1940" />
                        <g id="nnau2ge" class="note">
                           <g class="notehead">
                              <use xlink:href="#E0A4-12hj4ap" x="2895" y="1445" height="720px" width="720px" />
                           </g>
                           <g id="sgwjccq" class="stem">
                              <rect x="2895" y="1473" height="539" width="18" />
                           </g>
                        </g>
                        <g id="n14r2pix" class="note">
                           <g class="notehead">
                              <use xlink:href="#E0A4-12hj4ap" x="3398" y="1355" height="720px" width="720px" />
                           </g>
                           <g id="s155ueek" class="stem">
                              <rect x="3398" y="1383" height="584" width="18" />
                           </g>
                        </g>
                     </g>
                  </g>
               </g>
               <g id="bhnatn" class="barLine">
                  <path d="M3901 1085 L3901 1805" stroke="currentColor" stroke-width="27" />
               </g>
            </g>
            <g id="mrjlyc3" class="measure">
               <g id="s9q3d6j" class="staff">
                  <path d="M3914 1085 L6115 1085" stroke="currentColor" stroke-width="13" />
                  <path d="M3914 1265 L6115 1265" stroke="currentColor" stroke-width="13" />
                  <path d="M3914 1445 L6115 1445" stroke="currentColor" stroke-width="13" />
                  <path d="M3914 1625 L6115 1625" stroke="currentColor" stroke-width="13" />
                  <path d="M3914 1805 L6115 1805" stroke="currentColor" stroke-width="13" />
                  <g id="l42b495" class="layer">
                     <g id="bg314ns" class="beam">
                        <polygon points="4089,1850 4610,1850 4610,1760 4089,1760" />
                        <g id="n189y32h" class="note">
                           <g class="notehead">
                              <use xlink:href="#E0A4-12hj4ap" x="4089" y="1265" height="720px" width="720px" />
                           </g>
                           <g id="s7am2hi" class="stem">
                              <rect x="4089" y="1293" height="539" width="18" />
                           </g>
                        </g>
                        <g id="n1lvdjst" class="note">
                           <g class="notehead">
                              <use xlink:href="#E0A4-12hj4ap" x="4592" y="1265" height="720px" width="720px" />
                           </g>
                           <g id="sfn0xox" class="stem">
                              <rect x="4592" y="1293" height="539" width="18" />
                           </g>
                        </g>
                     </g>
                     <g id="btnz59m" class="beam">
                        <polygon points="5095,1940 5617,1895 5617,1805 5095,1850" />
                        <g id="n16zj1i" class="note">
                           <g class="notehead">
                              <use xlink:href="#E0A4-12hj4ap" x="5095" y="1265" height="720px" width="720px" />
                           </g>
                           <g id="s1utkjf6" class="stem">
                              <rect x="5095" y="1293" height="629" width="18" />
                           </g>
                        </g>
                        <g id="n1ndapfd" class="note">
                           <g class="notehead">
                              <use xlink:href="#E0A4-12hj4ap" x="5599" y="1175" height="720px" width="720px" />
                           </g>
                           <g id="s1vocaw" class="stem">
                              <rect x="5599" y="1203" height="674" width="18" />
                           </g>
                        </g>
                     </g>
                  </g>
               </g>
               <g id="b13drtf1" class="barLine">
                  <path d="M6102 1085 L6102 1805" stroke="currentColor" stroke-width="27" />
               </g>
            </g>
            <g id="m15mal9l" class="measure">
               <g id="s60pf6m" class="staff">
                  <path d="M6115 1085 L8081 1085" stroke="currentColor" stroke-width="13" />
                  <path d="M6115 1265 L8081 1265" stroke="currentColor" stroke-width="13" />
                  <path d="M6115 1445 L8081 1445" stroke="currentColor" stroke-width="13" />
                  <path d="M6115 1625 L8081 1625" stroke="currentColor" stroke-width="13" />
                  <path d="M6115 1805 L8081 1805" stroke="currentColor" stroke-width="13" />
                  <g id="lbi94vn" class="layer">
                     <g id="n1w7bvo2" class="note">
                        <g class="notehead">
                           <use xlink:href="#E0A4-12hj4ap" x="6290" y="1265" height="720px" width="720px" />
                        </g>
                        <g id="ss6f2e9" class="stem">
                           <rect x="6290" y="1293" height="602" width="18" />
                        </g>
                     </g>
                     <g id="bjrd5je" class="beam">
                        <polygon points="7061,2030 7582,1985 7582,1895 7061,1940" />
                        <g id="n3fn1ja" class="note">
                           <g class="notehead">
                              <use xlink:href="#E0A4-12hj4ap" x="7061" y="1445" height="720px" width="720px" />
                           </g>
                           <g id="s13eepuh" class="stem">
                              <rect x="7061" y="1473" height="539" width="18" />
                           </g>
                        </g>
                        <g id="n1snvqwb" class="note">
                           <g class="notehead">
                              <use xlink:href="#E0A4-12hj4ap" x="7564" y="1355" height="720px" width="720px" />
                           </g>
                           <g id="src0wyj" class="stem">
                              <rect x="7564" y="1383" height="584" width="18" />
                           </g>
                        </g>
                     </g>
                  </g>
               </g>
               <g id="b1d18tdn" class="barLine">
                  <path d="M8068 1085 L8068 1805" stroke="currentColor" stroke-width="27" />
               </g>
            </g>
            <g id="mdybqzk" class="measure">
               <g id="s1m02lgk" class="staff">
                  <path d="M8081 1085 L9811 1085" stroke="currentColor" stroke-width="13" />
                  <path d="M8081 1265 L9811 1265" stroke="currentColor" stroke-width="13" />
                  <path d="M8081 1445 L9811 1445" stroke="currentColor" stroke-width="13" />
                  <path d="M8081 1625 L9811 1625" stroke="currentColor" stroke-width="13" />
                  <path d="M8081 1805 L9811 1805" stroke="currentColor" stroke-width="13" />
                  <g id="l1bvx5g3" class="layer">
                     <g id="n1f8ryo1" class="note">
                        <g class="notehead">
                           <use xlink:href="#E0A4-12hj4ap" x="8256" y="1265" height="720px" width="720px" />
                        </g>
                        <g id="s8nqj88" class="stem">
                           <rect x="8256" y="1293" height="602" width="18" />
                        </g>
                     </g>
                     <g id="n1i6tvwp" class="note">
                        <g class="notehead">
                           <use xlink:href="#E0A4-12hj4ap" x="9027" y="1175" height="720px" width="720px" />
                        </g>
                        <g id="s1mqua1x" class="stem">
                           <rect x="9027" y="1203" height="602" width="18" />
                        </g>
                     </g>
                  </g>
               </g>
               <g id="b1natn3n" class="barLine">
                  <path d="M9798 1085 L9798 1805" stroke="currentColor" stroke-width="27" />
               </g>
            </g>
            <g id="mff1zb2" class="measure">
               <g id="szu552" class="staff">
                  <path d="M9811 1085 L11593 1085" stroke="currentColor" stroke-width="13" />
                  <path d="M9811 1265 L11593 1265" stroke="currentColor" stroke-width="13" />
                  <path d="M9811 1445 L11593 1445" stroke="currentColor" stroke-width="13" />
                  <path d="M9811 1625 L11593 1625" stroke="currentColor" stroke-width="13" />
                  <path d="M9811 1805 L11593 1805" stroke="currentColor" stroke-width="13" />
                  <g id="m1uvx2zs" class="meterSig">
                     <use xlink:href="#E081-12hj4ap" x="9920" y="1265" height="720px" width="720px" />
                     <use xlink:href="#E084-12hj4ap" x="9887" y="1625" height="720px" width="720px" />
                  </g>
                  <g id="ls8aq46" class="layer">
                     <g id="nv6i09z" class="note">
                        <g class="notehead">
                           <use xlink:href="#E0A4-12hj4ap" x="10444" y="1265" height="720px" width="720px" />
                        </g>
                        <g id="s465vn5" class="stem">
                           <rect x="10444" y="1293" height="602" width="18" />
                        </g>
                     </g>
                  </g>
               </g>
               <g id="b19scdrs" class="barLine">
                  <path d="M11215 1085 L11215 1805" stroke="currentColor" stroke-width="27" />
                  <path d="M11345 1085 L11345 1805" stroke="currentColor" stroke-width="90" />
                  <path d="M11476 1085 L11476 1805" stroke="currentColor" stroke-width="27" />
                  <use xlink:href="#E044-12hj4ap" x="11521" y="1355" height="720px" width="720px" />
                  <use xlink:href="#E044-12hj4ap" x="11521" y="1535" height="720px" width="720px" />
                  <use xlink:href="#E044-12hj4ap" x="11098" y="1355" height="720px" width="720px" />
                  <use xlink:href="#E044-12hj4ap" x="11098" y="1535" height="720px" width="720px" />
               </g>
            </g>
            <g id="mav45a3" class="measure">
               <g id="sfqh7e8" class="staff">
                  <path d="M11593 1085 L12787 1085" stroke="currentColor" stroke-width="13" />
                  <path d="M11593 1265 L12787 1265" stroke="currentColor" stroke-width="13" />
                  <path d="M11593 1445 L12787 1445" stroke="currentColor" stroke-width="13" />
                  <path d="M11593 1625 L12787 1625" stroke="currentColor" stroke-width="13" />
                  <path d="M11593 1805 L12787 1805" stroke="currentColor" stroke-width="13" />
                  <g id="ldhv2i5" class="layer">
                     <g id="byn2f18" class="beam">
                        <polygon points="11768,2030 12289,1985 12289,1895 11768,1940" />
                        <g id="nf6uwab" class="note">
                           <g class="notehead">
                              <use xlink:href="#E0A4-12hj4ap" x="11768" y="1445" height="720px" width="720px" />
                           </g>
                           <g id="s2ta35r" class="stem">
                              <rect x="11768" y="1473" height="539" width="18" />
                           </g>
                        </g>
                        <g id="now0b2r" class="note">
                           <g class="notehead">
                              <use xlink:href="#E0A4-12hj4ap" x="12271" y="1265" height="720px" width="720px" />
                           </g>
                           <g id="s898oxm" class="stem">
                              <rect x="12271" y="1293" height="674" width="18" />
                           </g>
                        </g>
                     </g>
                  </g>
               </g>
               <g id="biqf5mo" class="barLine">
                  <path d="M12774 1085 L12774 1805" stroke="currentColor" stroke-width="27" />
               </g>
            </g>
            <g id="m1l0lh77" class="measure">
               <g id="sykbyh5" class="staff">
                  <path d="M12787 1085 L15457 1085" stroke="currentColor" stroke-width="13" />
                  <path d="M12787 1265 L15457 1265" stroke="currentColor" stroke-width="13" />
                  <path d="M12787 1445 L15457 1445" stroke="currentColor" stroke-width="13" />
                  <path d="M12787 1625 L15457 1625" stroke="currentColor" stroke-width="13" />
                  <path d="M12787 1805 L15457 1805" stroke="currentColor" stroke-width="13" />
                  <g id="m16gnfog" class="meterSig">
                     <use xlink:href="#E082-12hj4ap" x="12863" y="1265" height="720px" width="720px" />
                     <use xlink:href="#E084-12hj4ap" x="12868" y="1625" height="720px" width="720px" />
                  </g>
                  <g id="lb15l7u" class="layer">
                     <g id="bkw5x2b" class="beam">
                        <polygon points="13431,1985 13952,2030 13952,1940 13431,1895" />
                        <g id="n1t2mtls" class="note">
                           <g class="notehead">
                              <use xlink:href="#E0A4-12hj4ap" x="13431" y="1265" height="720px" width="720px" />
                           </g>
                           <g id="s1kn6eag" class="stem">
                              <rect x="13431" y="1293" height="674" width="18" />
                           </g>
                        </g>
                        <g id="n1hlhakh" class="note">
                           <g class="notehead">
                              <use xlink:href="#E0A4-12hj4ap" x="13934" y="1355" height="720px" width="720px" />
                           </g>
                           <g id="sulexf1" class="stem">
                              <rect x="13934" y="1383" height="629" width="18" />
                           </g>
                        </g>
                     </g>
                     <g id="bn242s7" class="beam">
                        <polygon points="14645,860 15167,905 15167,995 14645,950" />
                        <g id="n106k7ne" class="note">
                           <g class="notehead">
                              <use xlink:href="#E0A4-12hj4ap" x="14437" y="1445" height="720px" width="720px" />
                           </g>
                           <g id="s7qehdv" class="stem">
                              <rect x="14645" y="878" height="539" width="18" />
                           </g>
                        </g>
                        <g id="n1y6vl8e" class="note">
                           <g class="notehead">
                              <use xlink:href="#E0A4-12hj4ap" x="14941" y="1625" height="720px" width="720px" />
                           </g>
                           <g id="szff6je" class="stem">
                              <rect x="15149" y="923" height="674" width="18" />
                           </g>
                        </g>
                     </g>
                  </g>
               </g>
               <g id="b1cm3mnw" class="barLine">
                  <path d="M15444 1085 L15444 1805" stroke="currentColor" stroke-width="27" />
               </g>
            </g>
            <g id="m168jqf3" class="measure">
               <g id="s1pegty" class="staff">
                  <path d="M15457 1085 L17423 1085" stroke="currentColor" stroke-width="13" />
                  <path d="M15457 1265 L17423 1265" stroke="currentColor" stroke-width="13" />
                  <path d="M15457 1445 L17423 1445" stroke="currentColor" stroke-width="13" />
                  <path d="M15457 1625 L17423 1625" stroke="currentColor" stroke-width="13" />
                  <path d="M15457 1805 L17423 1805" stroke="currentColor" stroke-width="13" />
                  <g id="l1oj67aj" class="layer">
                     <g id="n1srur42" class="note">
                        <g class="notehead">
                           <use xlink:href="#E0A4-12hj4ap" x="15632" y="1535" height="720px" width="720px" />
                        </g>
                        <g id="s12yge4b" class="stem">
                           <rect x="15840" y="905" height="602" width="18" />
                        </g>
                     </g>
                     <g id="bkk5wlw" class="beam">
                        <polygon points="16403,2030 16924,1985 16924,1895 16403,1940" />
                        <g id="nk3ac40" class="note">
                           <g class="notehead">
                              <use xlink:href="#E0A4-12hj4ap" x="16403" y="1445" height="720px" width="720px" />
                           </g>
                           <g id="s1mmzmjf" class="stem">
                              <rect x="16403" y="1473" height="539" width="18" />
                           </g>
                        </g>
                        <g id="n11lu56n" class="note">
                           <g class="notehead">
                              <use xlink:href="#E0A4-12hj4ap" x="16906" y="1265" height="720px" width="720px" />
                           </g>
                           <g id="sqg15x2" class="stem">
                              <rect x="16906" y="1293" height="674" width="18" />
                           </g>
                        </g>
                     </g>
                  </g>
               </g>
               <g id="b12rruir" class="barLine">
                  <path d="M17410 1085 L17410 1805" stroke="currentColor" stroke-width="27" />
               </g>
            </g>
            <g id="mut6jol" class="measure">
               <g id="sorqgi2" class="staff">
                  <path d="M17423 1085 L20004 1085" stroke="currentColor" stroke-width="13" />
                  <path d="M17423 1265 L20004 1265" stroke="currentColor" stroke-width="13" />
                  <path d="M17423 1445 L20004 1445" stroke="currentColor" stroke-width="13" />
                  <path d="M17423 1625 L20004 1625" stroke="currentColor" stroke-width="13" />
                  <path d="M17423 1805 L20004 1805" stroke="currentColor" stroke-width="13" />
                  <g id="lbtb2z7" class="layer">
                     <g id="boyul4i" class="beam">
                        <polygon points="17598,1985 18119,2030 18119,1940 17598,1895" />
                        <g id="nf8ufcb" class="note">
                           <g class="notehead">
                              <use xlink:href="#E0A4-12hj4ap" x="17598" y="1265" height="720px" width="720px" />
                           </g>
                           <g id="s1pyaw5q" class="stem">
                              <rect x="17598" y="1293" height="674" width="18" />
                           </g>
                        </g>
                        <g id="n1u4va1e" class="note">
                           <g class="notehead">
                              <use xlink:href="#E0A4-12hj4ap" x="18101" y="1355" height="720px" width="720px" />
                           </g>
                           <g id="s1xmg9ow" class="stem">
                              <rect x="18101" y="1383" height="629" width="18" />
                           </g>
                        </g>
                     </g>
                     <g id="njel4mq" class="note">
                        <g class="notehead">
                           <use xlink:href="#E0A4-12hj4ap" x="18395" y="1445" height="540px" width="540px" />
                        </g>
                        <g id="s1bsaoke" class="stem">
                           <rect x="18546" y="995" height="429" width="18" />
                           <g id="f1lz158m" class="flag">
                              <use xlink:href="#E240-12hj4ap" x="18546" y="995" height="540px" width="540px" />
                           </g>
                        </g>
                     </g>
                     <g id="nk3nn41" class="note">
                        <g class="notehead">
                           <use xlink:href="#E0A4-12hj4ap" x="18762" y="1535" height="720px" width="720px" />
                        </g>
                        <g id="sutzz8f" class="stem">
                           <rect x="18970" y="905" height="602" width="18" />
                        </g>
                     </g>
                  </g>
                  <g id="m1dtsau7" class="meterSig">
                     <use xlink:href="#E081-12hj4ap" x="19655" y="1265" height="720px" width="720px" />
                     <use xlink:href="#E084-12hj4ap" x="19622" y="1625" height="720px" width="720px" />
                  </g>
               </g>
               <g id="b6qcofr" class="barLine">
                  <path d="M19533 1085 L19533 1805" stroke="currentColor" stroke-width="27" />
               </g>
            </g>
         </g>
         <g id="s17gjp1g" class="system">
            <g id="lo6bhbg" class="labelAbbr">
               <text x="914" y="3884" text-anchor="end" font-size="0px">
                  <tspan id="t1um0aiz" class="text">
                     <tspan font-size="405px" class="text">Pno.</tspan>
                  </tspan>
               </text>
            </g>
            <g id="m18hbcww" class="measure">
               <g id="m818d24" class="mNum autogenerated">
                  <text x="1094" y="3191" text-anchor="middle" font-size="0px">
                     <tspan id="t1rmk79w" class="text">
                        <tspan font-size="324px" class="text">9</tspan>
                     </tspan>
                  </text>
               </g>
               <g id="s1yyda87" class="staff">
                  <path d="M1094 3434 L3670 3434" stroke="currentColor" stroke-width="13" />
                  <path d="M1094 3614 L3670 3614" stroke="currentColor" stroke-width="13" />
                  <path d="M1094 3794 L3670 3794" stroke="currentColor" stroke-width="13" />
                  <path d="M1094 3974 L3670 3974" stroke="currentColor" stroke-width="13" />
                  <path d="M1094 4154 L3670 4154" stroke="currentColor" stroke-width="13" />
                  <g id="c1rn3006" class="clef">
                     <use xlink:href="#E050-12hj4ap" x="1184" y="3974" height="720px" width="720px" />
                  </g>
                  <g id="k18p8nli" class="keySig">
                     <g id="kphlp6a" class="keyAccid">
                        <use xlink:href="#E262-12hj4ap" x="1829" y="3434" height="720px" width="720px" />
                     </g>
                  </g>
                  <g id="mwmpdwk" class="meterSig">
                     <use xlink:href="#E081-12hj4ap" x="2169" y="3614" height="720px" width="720px" />
                     <use xlink:href="#E084-12hj4ap" x="2136" y="3974" height="720px" width="720px" />
                  </g>
                  <g id="ltzg7kz" class="layer">
                     <g id="nd14tqx" class="note">
                        <g class="notehead">
                           <use xlink:href="#E0A4-12hj4ap" x="2698" y="3974" height="720px" width="720px" />
                        </g>
                        <g id="s19zt32t" class="stem">
                           <rect x="2906" y="3344" height="602" width="18" />
                        </g>
                     </g>
                  </g>
               </g>
               <g id="bglj6wv" class="barLine">
                  <path d="M3495 3434 L3495 4154" stroke="currentColor" stroke-width="27" />
                  <path d="M3625 3434 L3625 4154" stroke="currentColor" stroke-width="90" />
               </g>
            </g>
            <g id="s1sw9kr0" class="systemMilestoneEnd s1got7xx" />
         </g>
         <g id="p75kp2d" class="pageMilestoneEnd s109h8fi" />
         <g id="pf5ytm2" class="pageMilestoneEnd m1psaj4u" />
         <g id="p1x69fh" class="pgHead">
            <text x="0" y="0" font-size="0px">
               <tspan id="r1iy1x2n" class="rend" x="10000" y="277" text-anchor="middle">
                  <tspan id="t1ynw24x" class="text">
                     <tspan font-size="405px" class="text">Air n 88</tspan>
                  </tspan>
               </tspan>
            </text>
         </g>
         <g id="p1adj45p" class="pgFoot autogenerated">
            <g id="f1sz4nt" class="fig">
               <g id="s3eecwo" class="svg" transform="translate(7750, 28099) scale(10, 10)">
                  <g>
                     <path fill="#00000" d="M 17.11278,49.26451 V 10.367554 h 12.696511 c 3.288815,7.336676 6.71267,14.610456 10.127281,21.888976 3.419998,-7.484684 6.255515,-14.204887 9.58887,-21.909915 2.436207,0.103726 4.316952,0.08453 6.484294,-0.05808 V 49.264423 H 50.274275 C 50.145222,38.35639 50.016136,27.448368 49.887066,16.540329 45.003488,27.315459 39.967448,38.433564 35.083854,49.208695 34.678996,49.343717 34.426583,49.135619 34.021726,49.270644 29.46588,39.330716 24.910049,29.390805 20.354201,19.450876 20.224341,29.388756 20.09461,39.326619 19.964815,49.264497 H 17.11278 Z M 36.754144,39.324695 C 32.721221,30.512695 28.6883,21.700679 24.655394,12.888662 22.530527,12.750737 22.656775,12.71031 20.714356,12.813974 v 0.966497 c 4.612938,9.99784 9.609439,20.748709 13.87298,30.081745 0.722248,-1.512523 1.444528,-3.025014 2.166808,-4.537521 z m 25.738417,9.939815 c 0,-12.965651 0,-25.931305 0,-38.896956 10.084388,0 20.168791,0 30.253178,0 0,0.960416 0,1.920849 0,2.881265 -6.482825,0 -12.965652,0 -19.448478,0 0,4.802097 0,9.604178 0,14.406277 5.52241,0 11.044819,0 16.567229,0 0,0.960415 0,1.920832 0,2.881248 -5.52241,0 -11.044819,0 -16.567229,0 0,5.282306 0,10.564611 0,15.846917 6.963035,0 13.926068,0 20.889103,0 0,0.960416 0,1.920832 0,2.881249 -10.564597,0 -21.129207,0 -31.693803,0 z m 4.321874,-2.160937 c 0,-11.765131 0,-23.530263 0,-35.295394 -0.720312,0 -1.440625,0 -2.160937,0 0,11.765131 0,23.530263 0,35.295394 0.720312,0 1.440625,0 2.160937,0 z m 32.41413,2.160937 c 0,-12.965651 0,-25.931305 0,-38.896956 2.401045,0 4.802095,0 7.203135,0 0,12.965651 0,25.931305 0,38.896956 -2.40104,0 -4.80209,0 -7.203135,0 z m 2.881265,-2.160937 c 0,-11.765131 0,-23.530263 0,-35.295394 -0.72031,0 -1.44064,0 -2.160953,0 0,11.765131 0,23.530263 0,35.295394 0.720313,0 1.440643,0 2.160953,0 z" />
                     <path fill="#00000" d="m 346.3,6.7 c -3.1,0.5 -4.9,4.4 -2.7,6.8 1.2,1.4 2.7,2.4 4.1,3.5 -2.4,5.3 -7.7,8.3 -11.9,12.1 -3.7,2.8 -7,6.2 -9.7,9.9 -2.2,-0.8 -0.3,-6.8 -0.6,-9.5 0.1,-3.1 0.7,-6.4 2.9,-8.7 1.3,-1.9 3,-3.5 4.5,-5.2 1.2,-3.4 -3.2,-4.9 -5.8,-4.6 -7.3,-0.5 -14.6,2 -20,6.8 -5,4.6 -10,10.1 -11.5,17 -0.9,3.5 -0.2,7.5 2.8,9.9 2.5,2.8 7.4,2.9 9.8,-0.2 1.7,-2.3 3.2,-4.8 3.8,-7.6 -0.1,-2.6 -4.4,-2.3 -4.3,0.2 1.2,2.4 -0.9,4.7 -2.7,6.2 -1.7,0.9 -4.7,0.7 -4.8,-1.7 -1,-5.8 2.1,-11.3 5.2,-16.1 4,-5.8 9.8,-11.2 17.2,-11.8 1.6,0 8.1,-1.2 6.8,1.4 -2.8,2.8 -5.6,6.1 -6,10.3 -1.6,7.7 0.1,15.7 -2.3,23.2 -1.1,3.9 2,2.6 2.5,0.2 3.3,-7.4 8.9,-13.4 15.1,-18.5 4.2,-3.9 9.5,-7.1 11.9,-12.6 1.3,-3.6 1.2,-9 -2.7,-10.9 -0.6,-0.2 -1.2,-0.3 -1.8,-0.3 z m 66,14.5 c -2,0.8 -1.8,4.9 0.8,4.4 3.4,0.4 2.9,-6.2 -0.8,-4.4 z m 0.6,7.3 c -1.3,0.5 -7.6,0.5 -5.4,2.2 4,-0.3 0.7,4.5 0.6,6.7 -0.4,2.9 -2.4,5.9 -1.2,8.8 2.7,1.7 5.6,-0.8 6.8,-3.2 1.6,-1.4 -0.5,-3 -1.2,-0.9 -0.4,0.8 -2.4,3.5 -2.6,1.8 1.1,-5 2.7,-9.9 3.9,-14.9 l -0.1,-0.5 h -0.9 z m -65.1,0.2 c -6.5,1.6 -10.5,9.5 -8.2,15.7 2.1,3.4 7.4,2.9 10.1,0.4 2,-0.2 3.6,-5.3 1,-3.4 -1.4,2 -4,4.2 -6.5,2.8 -2.2,-1.9 -1.9,-5.7 1.7,-5.3 3.1,-0.9 6.9,-2.1 8.1,-5.5 0.9,-2.7 -1.6,-5.2 -4.3,-4.8 h -1.1 -0.7 z m 13.6,0 c -2.2,0 -8.5,1.8 -2.9,2.3 0.9,1.9 -1,4.9 -1.1,7.2 -0.5,2.9 -1.4,5.7 -1.7,8.7 3.7,0.7 3.8,-2.6 4.4,-5.3 0.9,-3.3 1.6,-7 4.1,-9.5 2.4,1.6 6.8,-0.7 3.7,-3.4 -2.9,-0.5 -4.8,2.4 -6.2,4.3 0,-1.2 2.4,-5 -0.2,-4.3 z m 15.8,0 c -6.4,1.3 -9.6,9.1 -7.7,14.9 1.9,4 7.7,3.9 11,1.7 4.1,-3 6,-8.9 4.4,-13.7 -1.3,-3 -4.8,-3.2 -7.6,-3 z m 17,0 c -2.3,0 -8.8,1.9 -3,2.4 0.4,2.5 -1,5.7 -1.4,8.4 -0.7,2.4 -1.8,7.5 2.1,7.2 3.8,-0.1 6.5,-3.5 8.5,-6.3 2,-3.2 4.5,-7 3.3,-10.9 -3.7,-3 -3.6,2.6 -3.1,5.1 -0.7,3.8 -2.7,7.9 -6.2,9.8 -3.6,0.6 -1,-4.3 -0.8,-6.1 0.6,-3.2 1.6,-6.3 1.9,-9.5 -0.4,0 -0.8,0 -1.1,0 z m 30.6,0 c -6.3,1.2 -9.5,8.9 -7.8,14.7 1.5,4 7.2,4.2 10.5,2.4 4.6,-2.8 6.6,-9.3 4.8,-14.3 -1.4,-2.8 -4.8,-3 -7.5,-2.8 z m -75.4,1.7 c 2.1,1.5 0.2,4.7 -1.6,5.7 -1.1,0.4 -5.5,3.4 -4.6,0.7 0.8,-2.7 2.2,-6.2 5.3,-6.6 l 0.9,0.1 z m 30.8,0 c 2.6,1.5 1.3,5.2 0.8,7.6 -0.8,2.7 -1.9,5.9 -4.7,7.1 -5.1,0.8 -4,-5.8 -2.8,-8.8 1,-2.8 3,-6.8 6.7,-5.8 z m 47.1,-0.1 c 2.9,0.7 2,4.7 1.5,6.8 -0.7,3 -1.8,6.7 -5,8 -4.7,0.8 -4,-5.1 -3,-7.9 0.9,-3 2.7,-7.3 6.5,-6.8 z m -88.1,5.9 c -0.3,1.3 0.9,-0.6 0,0 z m -1.1,2.4 c -0.2,0.5 0.5,-0.1 0,0 z m -1.3,4.5 c -0.3,1.3 0.8,-0.2 0,0 z" />
                     <text y="41" x="201" fill="#00000" style="font-style:italic;font-weight:normal;font-size:30px;line-height:125%;font-family:Times;text-anchor:middle" xml:space="preserve">engraved with</text>
                  </g>
               </g>
            </g>
         </g>
      </g>
   </svg>
</svg>
