<?xml version="1.0" encoding="UTF-8" standalone="no"?>
<svg width="2100px" height="2970px" version="1.1" xmlns="http://www.w3.org/2000/svg" xmlns:xlink="http://www.w3.org/1999/xlink" xmlns:mei="http://www.music-encoding.org/ns/mei" overflow="visible">
   <desc>Engraved by Verovio 3.13.1</desc>
   <defs>
      <symbol id="E044-1wrvzu8" viewBox="0 0 1000 1000" overflow="inherit">
         <path transform="scale(1,-1)" d="M0 0c0 28 22 50 50 50s50 -22 50 -50s-22 -50 -50 -50s-50 22 -50 50z" />
      </symbol>
      <symbol id="E050-1wrvzu8" viewBox="0 0 1000 1000" overflow="inherit">
         <path transform="scale(1,-1)" d="M441 -245c-23 -4 -48 -6 -76 -6c-59 0 -102 7 -130 20c-88 42 -150 93 -187 154c-26 44 -43 103 -48 176c0 6 -1 13 -1 19c0 54 15 111 45 170c29 57 65 106 110 148s96 85 153 127c-3 16 -8 46 -13 92c-4 43 -5 73 -5 89c0 117 16 172 69 257c34 54 64 82 89 82 c21 0 43 -30 69 -92s39 -115 41 -159v-15c0 -109 -21 -162 -67 -241c-13 -20 -63 -90 -98 -118c-13 -9 -25 -19 -37 -29l31 -181c8 1 18 2 28 2c58 0 102 -12 133 -35c59 -43 92 -104 98 -184c1 -7 1 -15 1 -22c0 -123 -87 -209 -181 -248c8 -57 17 -110 25 -162 c5 -31 6 -58 6 -80c0 -30 -5 -53 -14 -70c-35 -64 -88 -99 -158 -103c-5 0 -11 -1 -16 -1c-37 0 -72 10 -108 27c-50 24 -77 59 -80 105v11c0 29 7 55 20 76c18 28 45 42 79 44h6c49 0 93 -42 97 -87v-9c0 -51 -34 -86 -105 -106c17 -24 51 -36 102 -36c62 0 116 43 140 85 c9 16 13 41 13 74c0 20 -1 42 -5 67c-8 53 -18 106 -26 159zM461 939c-95 0 -135 -175 -135 -286c0 -24 2 -48 5 -71c50 39 92 82 127 128c40 53 60 100 60 140v8c-4 53 -22 81 -55 81h-2zM406 119l54 -326c73 25 110 78 110 161c0 7 0 15 -1 23c-7 95 -57 142 -151 142h-12 zM382 117c-72 -2 -128 -47 -128 -120v-7c2 -46 43 -99 75 -115c-3 -2 -7 -5 -10 -10c-70 33 -116 88 -123 172v11c0 68 44 126 88 159c23 17 49 29 78 36l-29 170c-21 -13 -52 -37 -92 -73c-50 -44 -86 -84 -109 -119c-45 -69 -67 -130 -67 -182v-13c5 -68 35 -127 93 -176 s125 -73 203 -73c25 0 50 3 75 9c-19 111 -36 221 -54 331z" />
      </symbol>
      <symbol id="E081-1wrvzu8" viewBox="0 0 1000 1000" overflow="inherit">
         <path transform="scale(1,-1)" d="M68 -250v36c23 0 40 6 49 18c8 14 12 33 12 57v250l-82 -129l-27 13l107 255h128v-394c0 -24 5 -42 14 -53s25 -17 47 -17v-36h-248z" />
      </symbol>
      <symbol id="E083-1wrvzu8" viewBox="0 0 1000 1000" overflow="inherit">
         <path transform="scale(1,-1)" d="M208 250c97 0 177 -52 177 -116c0 -69 -40 -111 -118 -125c56 -5 125 -44 125 -116c0 -31 -10 -57 -31 -78c-19 -21 -45 -38 -78 -49l-50 -11c-15 -3 -36 -7 -55 -7c-50 0 -86 16 -113 38c-16 10 -23 18 -34 34c-7 13 -11 25 -11 38c0 43 27 83 68 83l3 -2 c61 0 75 -42 75 -70c0 -19 -24 -42 -26 -57c7 -17 20 -25 37 -25c44 0 94 29 94 78c0 75 -34 125 -138 125v36c84 0 131 22 131 98c0 54 -37 88 -87 88c-26 0 -43 -7 -51 -22c15 -22 44 -16 44 -70c0 -37 -37 -62 -71 -62c-22 0 -69 15 -69 76c0 79 101 116 178 116z" />
      </symbol>
      <symbol id="E084-1wrvzu8" viewBox="0 0 1000 1000" overflow="inherit">
         <path transform="scale(1,-1)" d="M20 -78c84 97 114 180 134 329h170c-13 -32 -82 -132 -99 -151l-84 -97c-33 -36 -59 -63 -80 -81h162v102l127 123v-225h57v-39h-57v-34c0 -43 19 -65 57 -65v-34h-244v36c48 0 60 26 60 70v27h-203v39z" />
      </symbol>
      <symbol id="E086-1wrvzu8" viewBox="0 0 1000 1000" overflow="inherit">
         <path transform="scale(1,-1)" d="M284 -91c0 37 -28 92 -67 92c-35 0 -65 -54 -65 -111c0 -52 22 -104 68 -104c47 0 64 68 64 123zM230 214c-36 0 -90 -33 -90 -184l2 -36c40 24 81 36 120 36c80 0 140 -48 140 -121c0 -99 -99 -159 -182 -159c-160 0 -200 173 -200 244c0 21 2 43 7 71l10 35 c26 85 73 115 98 126c41 19 74 24 103 24c93 0 142 -63 142 -105c0 -58 -52 -72 -73 -72c-33 0 -59 24 -65 35c-3 5 -6 14 -7 25l11 30c6 15 9 27 9 35c0 11 -9 16 -25 16z" />
      </symbol>
      <symbol id="E088-1wrvzu8" viewBox="0 0 1000 1000" overflow="inherit">
         <path transform="scale(1,-1)" d="M195 -214c76 0 88 58 90 68c0 34 -35 60 -57 73l-52 29c-21 10 -32 17 -34 20c-39 -33 -58 -54 -62 -92c5 -23 23 -98 115 -98zM301 135c0 61 -72 76 -113 76c-40 0 -77 -17 -77 -51c3 -21 15 -38 26 -50c17 -15 33 -26 48 -34l65 -28c34 27 51 56 51 87zM176 -250 c-57 0 -166 26 -166 132c0 47 30 86 89 116c-33 15 -79 60 -79 119c0 79 85 132 178 132h18c5 0 21 1 28 -1c25 0 126 -30 126 -110c0 -37 -23 -76 -69 -116c43 -25 83 -71 83 -119c0 -101 -118 -153 -208 -153z" />
      </symbol>
      <symbol id="E0A4-1wrvzu8" viewBox="0 0 1000 1000" overflow="inherit">
         <path transform="scale(1,-1)" d="M0 -39c0 68 73 172 200 172c66 0 114 -37 114 -95c0 -84 -106 -171 -218 -171c-64 0 -96 30 -96 94z" />
      </symbol>
      <symbol id="E240-1wrvzu8" viewBox="0 0 1000 1000" overflow="inherit">
         <path transform="scale(1,-1)" d="M179 -646c15 29 29 55 46 102c18 49 30 108 30 138c0 105 -80 173 -168 200c-18 5 -47 9 -87 16v190h22c8 0 33 -61 71 -95c4 -3 -2 3 61 -56c62 -58 122 -137 122 -241c0 -38 -13 -106 -35 -163c-20 -51 -43 -99 -66 -132c-6 -5 -10 -7 -13 -7s-5 2 -5 5l4 10 c1 3 14 25 18 33z" />
      </symbol>
      <symbol id="E241-1wrvzu8" viewBox="0 0 1000 1000" overflow="inherit">
         <path transform="scale(1,-1)" d="M179 646c-4 8 -17 30 -18 33l-4 10c0 3 2 5 5 5s7 -2 13 -7c23 -33 46 -81 66 -132c22 -57 35 -125 35 -163c0 -104 -60 -183 -122 -241c-63 -59 -57 -53 -61 -56c-38 -34 -63 -95 -71 -95h-22v190c40 7 69 11 87 16c88 27 168 95 168 200c0 30 -12 89 -30 138 c-17 47 -31 73 -46 102z" />
      </symbol>
   </defs>
   <style type="text/css">g.page-margin{font-family:Times;} g.ending, g.fing, g.reh, g.tempo{font-weight:bold;} g.dir, g.dynam, g.mNum{font-style:italic;} g.label{font-weight:normal;}</style>
   <svg class="definition-scale" color="black" viewBox="0 0 21000 29700">
      <g class="page-margin" transform="translate(500, 500)">
         <g id="m6d55tf" class="mdiv pageMilestone" />
         <g id="s1grux5t" class="score pageMilestone" />
         <g id="sijo8mf" class="system">
            <g id="l1pnokjd" class="label">
               <text x="1105" y="1535" text-anchor="end" font-size="0px">
                  <tspan id="t1euvczv" class="text">
                     <tspan font-size="405px" class="text">Piano</tspan>
                  </tspan>
               </text>
            </g>
            <g id="s8vddpz" class="section systemMilestone" />
            <g id="p1m08ihm" class="pb" />
            <g id="m1iwazew" class="measure">
               <g id="m8sjqwc" class="mNum">
                  <text x="1285" y="842" text-anchor="middle" font-size="0px" />
               </g>
               <g id="s1qyziep" class="staff">
                  <path d="M1285 1085 L4398 1085" stroke="currentColor" stroke-width="13" />
                  <path d="M1285 1265 L4398 1265" stroke="currentColor" stroke-width="13" />
                  <path d="M1285 1445 L4398 1445" stroke="currentColor" stroke-width="13" />
                  <path d="M1285 1625 L4398 1625" stroke="currentColor" stroke-width="13" />
                  <path d="M1285 1805 L4398 1805" stroke="currentColor" stroke-width="13" />
                  <g id="csojyfx" class="clef">
                     <use xlink:href="#E050-1wrvzu8" x="1375" y="1625" height="720px" width="720px" />
                  </g>
                  <g id="kueisdt" class="keySig" />
                  <g id="m1541vdo" class="meterSig">
                     <use xlink:href="#E086-1wrvzu8" x="2006" y="1265" height="720px" width="720px" />
                     <use xlink:href="#E088-1wrvzu8" x="2013" y="1625" height="720px" width="720px" />
                  </g>
                  <g id="l1nocqqp" class="layer">
                     <g id="b12j74j" class="beam">
                        <polygon points="2562,1805 3796,1805 3796,1715 2562,1715" />
                        <g id="nx084z9" class="note">
                           <g class="notehead">
                              <use xlink:href="#E0A4-1wrvzu8" x="2562" y="1175" height="720px" width="720px" />
                           </g>
                           <g id="sc9kp4h" class="stem">
                              <rect x="2562" y="1203" height="584" width="18" />
                           </g>
                        </g>
                        <g id="nda8qol" class="note">
                           <g class="notehead">
                              <use xlink:href="#E0A4-1wrvzu8" x="3170" y="1175" height="720px" width="720px" />
                           </g>
                           <g id="s1qio8ax" class="stem">
                              <rect x="3170" y="1203" height="584" width="18" />
                           </g>
                        </g>
                        <g id="n1oi8q67" class="note">
                           <g class="notehead">
                              <use xlink:href="#E0A4-1wrvzu8" x="3778" y="1175" height="720px" width="720px" />
                           </g>
                           <g id="s1g36dwk" class="stem">
                              <rect x="3778" y="1203" height="584" width="18" />
                           </g>
                        </g>
                     </g>
                  </g>
               </g>
               <g id="b1pnwhk5" class="barLine">
                  <path d="M4385 1085 L4385 1805" stroke="currentColor" stroke-width="27" />
               </g>
            </g>
            <g id="mjj0hx5" class="measure">
               <g id="sa0uqnv" class="staff">
                  <path d="M4398 1085 L8234 1085" stroke="currentColor" stroke-width="13" />
                  <path d="M4398 1265 L8234 1265" stroke="currentColor" stroke-width="13" />
                  <path d="M4398 1445 L8234 1445" stroke="currentColor" stroke-width="13" />
                  <path d="M4398 1625 L8234 1625" stroke="currentColor" stroke-width="13" />
                  <path d="M4398 1805 L8234 1805" stroke="currentColor" stroke-width="13" />
                  <g id="lw8vty9" class="layer">
                     <g id="b17zzs59" class="beam">
                        <polygon points="4575,2030 5809,2030 5809,1940 4575,1940" />
                        <g id="niskkqu" class="note">
                           <g class="notehead">
                              <use xlink:href="#E0A4-1wrvzu8" x="4575" y="1445" height="720px" width="720px" />
                           </g>
                           <g id="s2g372l" class="stem">
                              <rect x="4575" y="1473" height="539" width="18" />
                           </g>
                        </g>
                        <g id="n15i70jm" class="note">
                           <g class="notehead">
                              <use xlink:href="#E0A4-1wrvzu8" x="5183" y="1445" height="720px" width="720px" />
                           </g>
                           <g id="sac3ofx" class="stem">
                              <rect x="5183" y="1473" height="539" width="18" />
                           </g>
                        </g>
                        <g id="n1acym1v" class="note">
                           <g class="notehead">
                              <use xlink:href="#E0A4-1wrvzu8" x="5791" y="1355" height="720px" width="720px" />
                           </g>
                           <g id="s15n9ara" class="stem">
                              <rect x="5791" y="1383" height="629" width="18" />
                           </g>
                        </g>
                     </g>
                     <g id="b189z663" class="beam">
                        <polygon points="6398,1895 7631,1985 7631,1895 6398,1805" />
                        <g id="n1g7wru6" class="note">
                           <g class="notehead">
                              <use xlink:href="#E0A4-1wrvzu8" x="6398" y="1265" height="720px" width="720px" />
                           </g>
                           <g id="swr6pp" class="stem">
                              <rect x="6398" y="1293" height="584" width="18" />
                           </g>
                        </g>
                        <g id="n1rn7m9m" class="note">
                           <g class="notehead">
                              <use xlink:href="#E0A4-1wrvzu8" x="7006" y="1265" height="720px" width="720px" />
                           </g>
                           <g id="s1e7pgd8" class="stem">
                              <rect x="7006" y="1293" height="630" width="18" />
                           </g>
                        </g>
                        <g id="n1rtca69" class="note">
                           <g class="notehead">
                              <use xlink:href="#E0A4-1wrvzu8" x="7613" y="1355" height="720px" width="720px" />
                           </g>
                           <g id="seafcvv" class="stem">
                              <rect x="7613" y="1383" height="584" width="18" />
                           </g>
                        </g>
                     </g>
                  </g>
               </g>
               <g id="by1ry7z" class="barLine">
                  <path d="M8221 1085 L8221 1805" stroke="currentColor" stroke-width="27" />
               </g>
            </g>
            <g id="m3nltx3" class="measure">
               <g id="s1ndeybk" class="staff">
                  <path d="M8234 1085 L11787 1085" stroke="currentColor" stroke-width="13" />
                  <path d="M8234 1265 L11787 1265" stroke="currentColor" stroke-width="13" />
                  <path d="M8234 1445 L11787 1445" stroke="currentColor" stroke-width="13" />
                  <path d="M8234 1625 L11787 1625" stroke="currentColor" stroke-width="13" />
                  <path d="M8234 1805 L11787 1805" stroke="currentColor" stroke-width="13" />
                  <g id="l1cri1fc" class="layer">
                     <g id="ns5sg7p" class="note">
                        <g class="notehead">
                           <use xlink:href="#E0A4-1wrvzu8" x="8411" y="1445" height="720px" width="720px" />
                        </g>
                        <g id="s20ohlt" class="stem">
                           <rect x="8411" y="1473" height="572" width="18" />
                        </g>
                     </g>
                     <g id="n1aguf6l" class="note">
                        <g class="notehead">
                           <use xlink:href="#E0A4-1wrvzu8" x="9343" y="1535" height="720px" width="720px" />
                        </g>
                        <g id="s16xznjb" class="stem">
                           <rect x="9551" y="905" height="602" width="18" />
                           <g id="fy9kjx6" class="flag">
                              <use xlink:href="#E240-1wrvzu8" x="9551" y="905" height="720px" width="720px" />
                           </g>
                        </g>
                     </g>
                     <g id="bbycyk5" class="beam">
                        <polygon points="9951,1805 11184,1805 11184,1715 9951,1715" />
                        <g id="nw2pego" class="note">
                           <g class="notehead">
                              <use xlink:href="#E0A4-1wrvzu8" x="9951" y="1175" height="720px" width="720px" />
                           </g>
                           <g id="s1udeliu" class="stem">
                              <rect x="9951" y="1203" height="584" width="18" />
                           </g>
                        </g>
                        <g id="nih8o4h" class="note">
                           <g class="notehead">
                              <use xlink:href="#E0A4-1wrvzu8" x="10559" y="1175" height="720px" width="720px" />
                           </g>
                           <g id="spoifxk" class="stem">
                              <rect x="10559" y="1203" height="584" width="18" />
                           </g>
                        </g>
                        <g id="n12v8nlg" class="note">
                           <g class="notehead">
                              <use xlink:href="#E0A4-1wrvzu8" x="11166" y="1175" height="720px" width="720px" />
                           </g>
                           <g id="skbd2jm" class="stem">
                              <rect x="11166" y="1203" height="584" width="18" />
                           </g>
                        </g>
                     </g>
                  </g>
               </g>
               <g id="b1ahj2" class="barLine">
                  <path d="M11774 1085 L11774 1805" stroke="currentColor" stroke-width="27" />
               </g>
            </g>
            <g id="m16e69ka" class="measure">
               <g id="s1bpdnj2" class="staff">
                  <path d="M11787 1085 L15623 1085" stroke="currentColor" stroke-width="13" />
                  <path d="M11787 1265 L15623 1265" stroke="currentColor" stroke-width="13" />
                  <path d="M11787 1445 L15623 1445" stroke="currentColor" stroke-width="13" />
                  <path d="M11787 1625 L15623 1625" stroke="currentColor" stroke-width="13" />
                  <path d="M11787 1805 L15623 1805" stroke="currentColor" stroke-width="13" />
                  <g id="l8wr4ns" class="layer">
                     <g id="blpakzk" class="beam">
                        <polygon points="11964,2030 13198,2030 13198,1940 11964,1940" />
                        <g id="n143fwlt" class="note">
                           <g class="notehead">
                              <use xlink:href="#E0A4-1wrvzu8" x="11964" y="1445" height="720px" width="720px" />
                           </g>
                           <g id="s102omqh" class="stem">
                              <rect x="11964" y="1473" height="539" width="18" />
                           </g>
                        </g>
                        <g id="nmj8epu" class="note">
                           <g class="notehead">
                              <use xlink:href="#E0A4-1wrvzu8" x="12572" y="1445" height="720px" width="720px" />
                           </g>
                           <g id="s1ezirn1" class="stem">
                              <rect x="12572" y="1473" height="539" width="18" />
                           </g>
                        </g>
                        <g id="n1opbfcp" class="note">
                           <g class="notehead">
                              <use xlink:href="#E0A4-1wrvzu8" x="13180" y="1355" height="720px" width="720px" />
                           </g>
                           <g id="s1pf8tzm" class="stem">
                              <rect x="13180" y="1383" height="629" width="18" />
                           </g>
                        </g>
                     </g>
                     <g id="bnxgp1z" class="beam">
                        <polygon points="13787,1895 15020,1985 15020,1895 13787,1805" />
                        <g id="n6gtosm" class="note">
                           <g class="notehead">
                              <use xlink:href="#E0A4-1wrvzu8" x="13787" y="1265" height="720px" width="720px" />
                           </g>
                           <g id="srqj789" class="stem">
                              <rect x="13787" y="1293" height="584" width="18" />
                           </g>
                        </g>
                        <g id="n17zs0qh" class="note">
                           <g class="notehead">
                              <use xlink:href="#E0A4-1wrvzu8" x="14395" y="1265" height="720px" width="720px" />
                           </g>
                           <g id="sfwyue3" class="stem">
                              <rect x="14395" y="1293" height="630" width="18" />
                           </g>
                        </g>
                        <g id="nc5muy4" class="note">
                           <g class="notehead">
                              <use xlink:href="#E0A4-1wrvzu8" x="15002" y="1355" height="720px" width="720px" />
                           </g>
                           <g id="smdi0vl" class="stem">
                              <rect x="15002" y="1383" height="584" width="18" />
                           </g>
                        </g>
                     </g>
                  </g>
               </g>
               <g id="bumc9al" class="barLine">
                  <path d="M15610 1085 L15610 1805" stroke="currentColor" stroke-width="27" />
               </g>
            </g>
            <g id="m1tss2nz" class="measure">
               <g id="sp2sirk" class="staff">
                  <path d="M15623 1085 L17818 1085" stroke="currentColor" stroke-width="13" />
                  <path d="M15623 1265 L17818 1265" stroke="currentColor" stroke-width="13" />
                  <path d="M15623 1445 L17818 1445" stroke="currentColor" stroke-width="13" />
                  <path d="M15623 1625 L17818 1625" stroke="currentColor" stroke-width="13" />
                  <path d="M15623 1805 L17818 1805" stroke="currentColor" stroke-width="13" />
                  <g id="m6v6tny" class="meterSig">
                     <use xlink:href="#E083-1wrvzu8" x="15703" y="1265" height="720px" width="720px" />
                     <use xlink:href="#E088-1wrvzu8" x="15706" y="1625" height="720px" width="720px" />
                  </g>
                  <g id="l1ma5yml" class="layer">
                     <g id="n13uhksc" class="note">
                        <g class="notehead">
                           <use xlink:href="#E0A4-1wrvzu8" x="16251" y="1445" height="720px" width="720px" />
                        </g>
                        <g id="dphii58" class="dots">
                           <ellipse cx="16567" cy="1355" rx="36" ry="36" />
                        </g>
                        <g id="sm6ottn" class="stem">
                           <rect x="16251" y="1473" height="572" width="18" />
                        </g>
                     </g>
                  </g>
               </g>
               <g id="b1kikm5o" class="barLine">
                  <path d="M17440 1085 L17440 1805" stroke="currentColor" stroke-width="27" />
                  <path d="M17570 1085 L17570 1805" stroke="currentColor" stroke-width="90" />
                  <path d="M17701 1085 L17701 1805" stroke="currentColor" stroke-width="27" />
                  <use xlink:href="#E044-1wrvzu8" x="17746" y="1355" height="720px" width="720px" />
                  <use xlink:href="#E044-1wrvzu8" x="17746" y="1535" height="720px" width="720px" />
                  <use xlink:href="#E044-1wrvzu8" x="17323" y="1355" height="720px" width="720px" />
                  <use xlink:href="#E044-1wrvzu8" x="17323" y="1535" height="720px" width="720px" />
               </g>
            </g>
            <g id="mnmnv3w" class="measure">
               <g id="s1t8az8f" class="staff">
                  <path d="M17818 1085 L20003 1085" stroke="currentColor" stroke-width="13" />
                  <path d="M17818 1265 L20003 1265" stroke="currentColor" stroke-width="13" />
                  <path d="M17818 1445 L20003 1445" stroke="currentColor" stroke-width="13" />
                  <path d="M17818 1625 L20003 1625" stroke="currentColor" stroke-width="13" />
                  <path d="M17818 1805 L20003 1805" stroke="currentColor" stroke-width="13" />
                  <g id="lit7rcz" class="layer">
                     <g id="nuf48ec" class="note">
                        <g class="notehead">
                           <use xlink:href="#E0A4-1wrvzu8" x="17995" y="1355" height="720px" width="720px" />
                        </g>
                        <g id="sr7ia1n" class="stem">
                           <rect x="17995" y="1383" height="602" width="18" />
                        </g>
                     </g>
                     <g id="nafjde1" class="note">
                        <g class="notehead">
                           <use xlink:href="#E0A4-1wrvzu8" x="18927" y="1535" height="720px" width="720px" />
                        </g>
                        <g id="s1s45iq0" class="stem">
                           <rect x="19135" y="905" height="602" width="18" />
                           <g id="f1yg5b9s" class="flag">
                              <use xlink:href="#E240-1wrvzu8" x="19135" y="905" height="720px" width="720px" />
                           </g>
                        </g>
                     </g>
                  </g>
                  <g id="m1t1xv66" class="meterSig">
                     <use xlink:href="#E086-1wrvzu8" x="19624" y="1265" height="720px" width="720px" />
                     <use xlink:href="#E088-1wrvzu8" x="19631" y="1625" height="720px" width="720px" />
                  </g>
               </g>
               <g id="bjxprl1" class="barLine">
                  <path d="M19535 1085 L19535 1805" stroke="currentColor" stroke-width="27" />
               </g>
            </g>
         </g>
         <g id="snolgzz" class="system">
            <g id="l17jzksu" class="labelAbbr">
               <text x="914" y="3884" text-anchor="end" font-size="0px">
                  <tspan id="t1wpkfzz" class="text">
                     <tspan font-size="405px" class="text">Pno.</tspan>
                  </tspan>
               </text>
            </g>
            <g id="my03n7p" class="measure">
               <g id="mz5t2wn" class="mNum autogenerated">
                  <text x="1094" y="3191" text-anchor="middle" font-size="0px">
                     <tspan id="t1dkwf1m" class="text">
                        <tspan font-size="324px" class="text">6</tspan>
                     </tspan>
                  </text>
               </g>
               <g id="s1ih37w1" class="staff">
                  <path d="M1094 3434 L5807 3434" stroke="currentColor" stroke-width="13" />
                  <path d="M1094 3614 L5807 3614" stroke="currentColor" stroke-width="13" />
                  <path d="M1094 3794 L5807 3794" stroke="currentColor" stroke-width="13" />
                  <path d="M1094 3974 L5807 3974" stroke="currentColor" stroke-width="13" />
                  <path d="M1094 4154 L5807 4154" stroke="currentColor" stroke-width="13" />
                  <g id="c1e4an3q" class="clef">
                     <use xlink:href="#E050-1wrvzu8" x="1184" y="3974" height="720px" width="720px" />
                  </g>
                  <g id="khol7uk" class="keySig" />
                  <g id="mc8plpl" class="meterSig">
                     <use xlink:href="#E086-1wrvzu8" x="1815" y="3614" height="720px" width="720px" />
                     <use xlink:href="#E088-1wrvzu8" x="1822" y="3974" height="720px" width="720px" />
                  </g>
                  <g id="l1u2v52a" class="layer">
                     <g id="nupz8eu" class="note">
                        <g class="notehead">
                           <use xlink:href="#E0A4-1wrvzu8" x="2374" y="3974" height="720px" width="720px" />
                        </g>
                        <g id="spzk5vq" class="stem">
                           <rect x="2582" y="3344" height="602" width="18" />
                        </g>
                     </g>
                     <g id="nf4husf" class="note">
                        <g class="notehead">
                           <use xlink:href="#E0A4-1wrvzu8" x="3322" y="3884" height="720px" width="720px" />
                        </g>
                        <g id="s8p296t" class="stem">
                           <rect x="3530" y="3254" height="602" width="18" />
                           <g id="fi4f2ek" class="flag">
                              <use xlink:href="#E240-1wrvzu8" x="3530" y="3254" height="720px" width="720px" />
                           </g>
                        </g>
                     </g>
                     <g id="b8o4ff" class="beam">
                        <polygon points="3940,4379 5194,4379 5194,4289 3940,4289" />
                        <g id="no99hlo" class="note">
                           <g class="notehead">
                              <use xlink:href="#E0A4-1wrvzu8" x="3940" y="3794" height="720px" width="720px" />
                           </g>
                           <g id="sr99xxv" class="stem">
                              <rect x="3940" y="3822" height="539" width="18" />
                           </g>
                        </g>
                        <g id="nicxn8t" class="note">
                           <g class="notehead">
                              <use xlink:href="#E0A4-1wrvzu8" x="4558" y="3704" height="720px" width="720px" />
                           </g>
                           <g id="s1egldyh" class="stem">
                              <rect x="4558" y="3732" height="629" width="18" />
                           </g>
                        </g>
                        <g id="n3f86e2" class="note">
                           <g class="notehead">
                              <use xlink:href="#E0A4-1wrvzu8" x="5176" y="3794" height="720px" width="720px" />
                           </g>
                           <g id="sjhmwfw" class="stem">
                              <rect x="5176" y="3822" height="539" width="18" />
                           </g>
                        </g>
                     </g>
                  </g>
               </g>
               <g id="b1a2001k" class="barLine">
                  <path d="M5794 3434 L5794 4154" stroke="currentColor" stroke-width="27" />
               </g>
            </g>
            <g id="m1hqca66" class="measure">
               <g id="s1u60mn9" class="staff">
                  <path d="M5807 3434 L9132 3434" stroke="currentColor" stroke-width="13" />
                  <path d="M5807 3614 L9132 3614" stroke="currentColor" stroke-width="13" />
                  <path d="M5807 3794 L9132 3794" stroke="currentColor" stroke-width="13" />
                  <path d="M5807 3974 L9132 3974" stroke="currentColor" stroke-width="13" />
                  <path d="M5807 4154 L9132 4154" stroke="currentColor" stroke-width="13" />
                  <g id="l1it1s56" class="layer">
                     <g id="n1kqmavl" class="note">
                        <g class="notehead">
                           <use xlink:href="#E0A4-1wrvzu8" x="5987" y="3704" height="720px" width="720px" />
                        </g>
                        <g id="s1c2og5l" class="stem">
                           <rect x="5987" y="3732" height="602" width="18" />
                        </g>
                     </g>
                     <g id="npcpzk2" class="note">
                        <g class="notehead">
                           <use xlink:href="#E0A4-1wrvzu8" x="6935" y="3794" height="720px" width="720px" />
                        </g>
                        <g id="ss7hfvb" class="stem">
                           <rect x="6935" y="3822" height="572" width="18" />
                           <g id="f1rcoegv" class="flag">
                              <use xlink:href="#E241-1wrvzu8" x="6935" y="4394" height="720px" width="720px" />
                           </g>
                        </g>
                     </g>
                     <g id="n17su7g7" class="note">
                        <g class="notehead">
                           <use xlink:href="#E0A4-1wrvzu8" x="7553" y="3704" height="720px" width="720px" />
                        </g>
                        <g id="s15yc1kz" class="stem">
                           <rect x="7553" y="3732" height="602" width="18" />
                        </g>
                     </g>
                     <g id="n6kvapr" class="note">
                        <g class="notehead">
                           <use xlink:href="#E0A4-1wrvzu8" x="8501" y="3884" height="720px" width="720px" />
                        </g>
                        <g id="s1hkh079" class="stem">
                           <rect x="8709" y="3254" height="602" width="18" />
                           <g id="fanngd9" class="flag">
                              <use xlink:href="#E240-1wrvzu8" x="8709" y="3254" height="720px" width="720px" />
                           </g>
                        </g>
                     </g>
                  </g>
               </g>
               <g id="b1o9xqyy" class="barLine">
                  <path d="M9119 3434 L9119 4154" stroke="currentColor" stroke-width="27" />
               </g>
            </g>
            <g id="s1rpdibo" class="sb" />
            <g id="m8h2eup" class="measure">
               <g id="st00027" class="staff">
                  <path d="M9132 3434 L12745 3434" stroke="currentColor" stroke-width="13" />
                  <path d="M9132 3614 L12745 3614" stroke="currentColor" stroke-width="13" />
                  <path d="M9132 3794 L12745 3794" stroke="currentColor" stroke-width="13" />
                  <path d="M9132 3974 L12745 3974" stroke="currentColor" stroke-width="13" />
                  <path d="M9132 4154 L12745 4154" stroke="currentColor" stroke-width="13" />
                  <g id="l14yieuw" class="layer">
                     <g id="nk5t5ax" class="note">
                        <g class="notehead">
                           <use xlink:href="#E0A4-1wrvzu8" x="9312" y="3974" height="720px" width="720px" />
                        </g>
                        <g id="s7lg3uc" class="stem">
                           <rect x="9520" y="3344" height="602" width="18" />
                        </g>
                     </g>
                     <g id="nus1hsn" class="note">
                        <g class="notehead">
                           <use xlink:href="#E0A4-1wrvzu8" x="10260" y="3884" height="720px" width="720px" />
                        </g>
                        <g id="sb37535" class="stem">
                           <rect x="10468" y="3254" height="602" width="18" />
                           <g id="fmlkezc" class="flag">
                              <use xlink:href="#E240-1wrvzu8" x="10468" y="3254" height="720px" width="720px" />
                           </g>
                        </g>
                     </g>
                     <g id="bp0q80o" class="beam">
                        <polygon points="10878,4379 12132,4379 12132,4289 10878,4289" />
                        <g id="n1hlkpyl" class="note">
                           <g class="notehead">
                              <use xlink:href="#E0A4-1wrvzu8" x="10878" y="3704" height="720px" width="720px" />
                           </g>
                           <g id="s1tue0kz" class="stem">
                              <rect x="10878" y="3732" height="629" width="18" />
                           </g>
                        </g>
                        <g id="nft9izv" class="note">
                           <g class="notehead">
                              <use xlink:href="#E0A4-1wrvzu8" x="11496" y="3794" height="720px" width="720px" />
                           </g>
                           <g id="s19toz1" class="stem">
                              <rect x="11496" y="3822" height="539" width="18" />
                           </g>
                        </g>
                        <g id="n1anpiru" class="note">
                           <g class="notehead">
                              <use xlink:href="#E0A4-1wrvzu8" x="12114" y="3704" height="720px" width="720px" />
                           </g>
                           <g id="s1vz6wbb" class="stem">
                              <rect x="12114" y="3732" height="629" width="18" />
                           </g>
                        </g>
                     </g>
                  </g>
               </g>
               <g id="b1rwqsde" class="barLine">
                  <path d="M12732 3434 L12732 4154" stroke="currentColor" stroke-width="27" />
               </g>
            </g>
            <g id="m1d12q6i" class="measure">
               <g id="s1hal34e" class="staff">
                  <path d="M12745 3434 L14506 3434" stroke="currentColor" stroke-width="13" />
                  <path d="M12745 3614 L14506 3614" stroke="currentColor" stroke-width="13" />
                  <path d="M12745 3794 L14506 3794" stroke="currentColor" stroke-width="13" />
                  <path d="M12745 3974 L14506 3974" stroke="currentColor" stroke-width="13" />
                  <path d="M12745 4154 L14506 4154" stroke="currentColor" stroke-width="13" />
                  <g id="m4v3esz" class="meterSig">
                     <use xlink:href="#E081-1wrvzu8" x="12854" y="3614" height="720px" width="720px" />
                     <use xlink:href="#E084-1wrvzu8" x="12821" y="3974" height="720px" width="720px" />
                  </g>
                  <g id="l1u6eydl" class="layer">
                     <g id="n6nosvx" class="note">
                        <g class="notehead">
                           <use xlink:href="#E0A4-1wrvzu8" x="13383" y="3884" height="720px" width="720px" />
                        </g>
                        <g id="s1f2468h" class="stem">
                           <rect x="13591" y="3254" height="602" width="18" />
                        </g>
                     </g>
                  </g>
               </g>
               <g id="bs0u9e3" class="barLine">
                  <path d="M14331 3434 L14331 4154" stroke="currentColor" stroke-width="27" />
                  <path d="M14461 3434 L14461 4154" stroke="currentColor" stroke-width="90" />
               </g>
            </g>
            <g id="s3y9q44" class="systemMilestoneEnd s8vddpz" />
         </g>
         <g id="pykb21o" class="pageMilestoneEnd s1grux5t" />
         <g id="p135hu0f" class="pageMilestoneEnd m6d55tf" />
         <g id="p1g5q0m0" class="pgHead">
            <text x="0" y="0" font-size="0px">
               <tspan id="r155r74m" class="rend" x="10000" y="277" text-anchor="middle">
                  <tspan id="tgywh2o" class="text">
                     <tspan font-size="405px" class="text">Air n 227</tspan>
                  </tspan>
               </tspan>
            </text>
         </g>
         <g id="p1kpvp5e" class="pgFoot autogenerated">
            <g id="fpbil18" class="fig">
               <g id="s16it9w2" class="svg" transform="translate(7750, 28099) scale(10, 10)">
                  <g>
                     <path fill="#00000" d="M 17.11278,49.26451 V 10.367554 h 12.696511 c 3.288815,7.336676 6.71267,14.610456 10.127281,21.888976 3.419998,-7.484684 6.255515,-14.204887 9.58887,-21.909915 2.436207,0.103726 4.316952,0.08453 6.484294,-0.05808 V 49.264423 H 50.274275 C 50.145222,38.35639 50.016136,27.448368 49.887066,16.540329 45.003488,27.315459 39.967448,38.433564 35.083854,49.208695 34.678996,49.343717 34.426583,49.135619 34.021726,49.270644 29.46588,39.330716 24.910049,29.390805 20.354201,19.450876 20.224341,29.388756 20.09461,39.326619 19.964815,49.264497 H 17.11278 Z M 36.754144,39.324695 C 32.721221,30.512695 28.6883,21.700679 24.655394,12.888662 22.530527,12.750737 22.656775,12.71031 20.714356,12.813974 v 0.966497 c 4.612938,9.99784 9.609439,20.748709 13.87298,30.081745 0.722248,-1.512523 1.444528,-3.025014 2.166808,-4.537521 z m 25.738417,9.939815 c 0,-12.965651 0,-25.931305 0,-38.896956 10.084388,0 20.168791,0 30.253178,0 0,0.960416 0,1.920849 0,2.881265 -6.482825,0 -12.965652,0 -19.448478,0 0,4.802097 0,9.604178 0,14.406277 5.52241,0 11.044819,0 16.567229,0 0,0.960415 0,1.920832 0,2.881248 -5.52241,0 -11.044819,0 -16.567229,0 0,5.282306 0,10.564611 0,15.846917 6.963035,0 13.926068,0 20.889103,0 0,0.960416 0,1.920832 0,2.881249 -10.564597,0 -21.129207,0 -31.693803,0 z m 4.321874,-2.160937 c 0,-11.765131 0,-23.530263 0,-35.295394 -0.720312,0 -1.440625,0 -2.160937,0 0,11.765131 0,23.530263 0,35.295394 0.720312,0 1.440625,0 2.160937,0 z m 32.41413,2.160937 c 0,-12.965651 0,-25.931305 0,-38.896956 2.401045,0 4.802095,0 7.203135,0 0,12.965651 0,25.931305 0,38.896956 -2.40104,0 -4.80209,0 -7.203135,0 z m 2.881265,-2.160937 c 0,-11.765131 0,-23.530263 0,-35.295394 -0.72031,0 -1.44064,0 -2.160953,0 0,11.765131 0,23.530263 0,35.295394 0.720313,0 1.440643,0 2.160953,0 z" />
                     <path fill="#00000" d="m 346.3,6.7 c -3.1,0.5 -4.9,4.4 -2.7,6.8 1.2,1.4 2.7,2.4 4.1,3.5 -2.4,5.3 -7.7,8.3 -11.9,12.1 -3.7,2.8 -7,6.2 -9.7,9.9 -2.2,-0.8 -0.3,-6.8 -0.6,-9.5 0.1,-3.1 0.7,-6.4 2.9,-8.7 1.3,-1.9 3,-3.5 4.5,-5.2 1.2,-3.4 -3.2,-4.9 -5.8,-4.6 -7.3,-0.5 -14.6,2 -20,6.8 -5,4.6 -10,10.1 -11.5,17 -0.9,3.5 -0.2,7.5 2.8,9.9 2.5,2.8 7.4,2.9 9.8,-0.2 1.7,-2.3 3.2,-4.8 3.8,-7.6 -0.1,-2.6 -4.4,-2.3 -4.3,0.2 1.2,2.4 -0.9,4.7 -2.7,6.2 -1.7,0.9 -4.7,0.7 -4.8,-1.7 -1,-5.8 2.1,-11.3 5.2,-16.1 4,-5.8 9.8,-11.2 17.2,-11.8 1.6,0 8.1,-1.2 6.8,1.4 -2.8,2.8 -5.6,6.1 -6,10.3 -1.6,7.7 0.1,15.7 -2.3,23.2 -1.1,3.9 2,2.6 2.5,0.2 3.3,-7.4 8.9,-13.4 15.1,-18.5 4.2,-3.9 9.5,-7.1 11.9,-12.6 1.3,-3.6 1.2,-9 -2.7,-10.9 -0.6,-0.2 -1.2,-0.3 -1.8,-0.3 z m 66,14.5 c -2,0.8 -1.8,4.9 0.8,4.4 3.4,0.4 2.9,-6.2 -0.8,-4.4 z m 0.6,7.3 c -1.3,0.5 -7.6,0.5 -5.4,2.2 4,-0.3 0.7,4.5 0.6,6.7 -0.4,2.9 -2.4,5.9 -1.2,8.8 2.7,1.7 5.6,-0.8 6.8,-3.2 1.6,-1.4 -0.5,-3 -1.2,-0.9 -0.4,0.8 -2.4,3.5 -2.6,1.8 1.1,-5 2.7,-9.9 3.9,-14.9 l -0.1,-0.5 h -0.9 z m -65.1,0.2 c -6.5,1.6 -10.5,9.5 -8.2,15.7 2.1,3.4 7.4,2.9 10.1,0.4 2,-0.2 3.6,-5.3 1,-3.4 -1.4,2 -4,4.2 -6.5,2.8 -2.2,-1.9 -1.9,-5.7 1.7,-5.3 3.1,-0.9 6.9,-2.1 8.1,-5.5 0.9,-2.7 -1.6,-5.2 -4.3,-4.8 h -1.1 -0.7 z m 13.6,0 c -2.2,0 -8.5,1.8 -2.9,2.3 0.9,1.9 -1,4.9 -1.1,7.2 -0.5,2.9 -1.4,5.7 -1.7,8.7 3.7,0.7 3.8,-2.6 4.4,-5.3 0.9,-3.3 1.6,-7 4.1,-9.5 2.4,1.6 6.8,-0.7 3.7,-3.4 -2.9,-0.5 -4.8,2.4 -6.2,4.3 0,-1.2 2.4,-5 -0.2,-4.3 z m 15.8,0 c -6.4,1.3 -9.6,9.1 -7.7,14.9 1.9,4 7.7,3.9 11,1.7 4.1,-3 6,-8.9 4.4,-13.7 -1.3,-3 -4.8,-3.2 -7.6,-3 z m 17,0 c -2.3,0 -8.8,1.9 -3,2.4 0.4,2.5 -1,5.7 -1.4,8.4 -0.7,2.4 -1.8,7.5 2.1,7.2 3.8,-0.1 6.5,-3.5 8.5,-6.3 2,-3.2 4.5,-7 3.3,-10.9 -3.7,-3 -3.6,2.6 -3.1,5.1 -0.7,3.8 -2.7,7.9 -6.2,9.8 -3.6,0.6 -1,-4.3 -0.8,-6.1 0.6,-3.2 1.6,-6.3 1.9,-9.5 -0.4,0 -0.8,0 -1.1,0 z m 30.6,0 c -6.3,1.2 -9.5,8.9 -7.8,14.7 1.5,4 7.2,4.2 10.5,2.4 4.6,-2.8 6.6,-9.3 4.8,-14.3 -1.4,-2.8 -4.8,-3 -7.5,-2.8 z m -75.4,1.7 c 2.1,1.5 0.2,4.7 -1.6,5.7 -1.1,0.4 -5.5,3.4 -4.6,0.7 0.8,-2.7 2.2,-6.2 5.3,-6.6 l 0.9,0.1 z m 30.8,0 c 2.6,1.5 1.3,5.2 0.8,7.6 -0.8,2.7 -1.9,5.9 -4.7,7.1 -5.1,0.8 -4,-5.8 -2.8,-8.8 1,-2.8 3,-6.8 6.7,-5.8 z m 47.1,-0.1 c 2.9,0.7 2,4.7 1.5,6.8 -0.7,3 -1.8,6.7 -5,8 -4.7,0.8 -4,-5.1 -3,-7.9 0.9,-3 2.7,-7.3 6.5,-6.8 z m -88.1,5.9 c -0.3,1.3 0.9,-0.6 0,0 z m -1.1,2.4 c -0.2,0.5 0.5,-0.1 0,0 z m -1.3,4.5 c -0.3,1.3 0.8,-0.2 0,0 z" />
                     <text y="41" x="201" fill="#00000" style="font-style:italic;font-weight:normal;font-size:30px;line-height:125%;font-family:Times;text-anchor:middle" xml:space="preserve">engraved with</text>
                  </g>
               </g>
            </g>
         </g>
      </g>
   </svg>
</svg>
