<?xml version="1.0" encoding="UTF-8" standalone="no"?>
<svg width="2100px" height="2970px" version="1.1" xmlns="http://www.w3.org/2000/svg" xmlns:xlink="http://www.w3.org/1999/xlink" xmlns:mei="http://www.music-encoding.org/ns/mei" overflow="visible">
   <desc>Engraved by Verovio 3.13.1</desc>
   <defs>
      <symbol id="E044-18uhk4m" viewBox="0 0 1000 1000" overflow="inherit">
         <path transform="scale(1,-1)" d="M0 0c0 28 22 50 50 50s50 -22 50 -50s-22 -50 -50 -50s-50 22 -50 50z" />
      </symbol>
      <symbol id="E050-18uhk4m" viewBox="0 0 1000 1000" overflow="inherit">
         <path transform="scale(1,-1)" d="M441 -245c-23 -4 -48 -6 -76 -6c-59 0 -102 7 -130 20c-88 42 -150 93 -187 154c-26 44 -43 103 -48 176c0 6 -1 13 -1 19c0 54 15 111 45 170c29 57 65 106 110 148s96 85 153 127c-3 16 -8 46 -13 92c-4 43 -5 73 -5 89c0 117 16 172 69 257c34 54 64 82 89 82 c21 0 43 -30 69 -92s39 -115 41 -159v-15c0 -109 -21 -162 -67 -241c-13 -20 -63 -90 -98 -118c-13 -9 -25 -19 -37 -29l31 -181c8 1 18 2 28 2c58 0 102 -12 133 -35c59 -43 92 -104 98 -184c1 -7 1 -15 1 -22c0 -123 -87 -209 -181 -248c8 -57 17 -110 25 -162 c5 -31 6 -58 6 -80c0 -30 -5 -53 -14 -70c-35 -64 -88 -99 -158 -103c-5 0 -11 -1 -16 -1c-37 0 -72 10 -108 27c-50 24 -77 59 -80 105v11c0 29 7 55 20 76c18 28 45 42 79 44h6c49 0 93 -42 97 -87v-9c0 -51 -34 -86 -105 -106c17 -24 51 -36 102 -36c62 0 116 43 140 85 c9 16 13 41 13 74c0 20 -1 42 -5 67c-8 53 -18 106 -26 159zM461 939c-95 0 -135 -175 -135 -286c0 -24 2 -48 5 -71c50 39 92 82 127 128c40 53 60 100 60 140v8c-4 53 -22 81 -55 81h-2zM406 119l54 -326c73 25 110 78 110 161c0 7 0 15 -1 23c-7 95 -57 142 -151 142h-12 zM382 117c-72 -2 -128 -47 -128 -120v-7c2 -46 43 -99 75 -115c-3 -2 -7 -5 -10 -10c-70 33 -116 88 -123 172v11c0 68 44 126 88 159c23 17 49 29 78 36l-29 170c-21 -13 -52 -37 -92 -73c-50 -44 -86 -84 -109 -119c-45 -69 -67 -130 -67 -182v-13c5 -68 35 -127 93 -176 s125 -73 203 -73c25 0 50 3 75 9c-19 111 -36 221 -54 331z" />
      </symbol>
      <symbol id="E082-18uhk4m" viewBox="0 0 1000 1000" overflow="inherit">
         <path transform="scale(1,-1)" d="M124 -185c-18 0 -55 -14 -65 -65h-36l-3 30c0 25 6 45 18 63c11 19 22 30 39 43l121 82l37 29c15 11 27 29 38 54c12 24 18 47 18 70c0 40 -19 88 -94 88c-25 0 -32 0 -50 -8c-14 -5 -23 -12 -26 -22c3 -9 7 -15 10 -18l24 -17c12 -7 17 -11 27 -21c5 -7 7 -16 7 -27 c0 -12 0 -57 -79 -74c-30 0 -76 26 -76 94c0 66 81 135 197 135c72 0 181 -32 181 -150c0 -53 -32 -95 -113 -133l-91 -41c-26 -11 -45 -23 -57 -37l49 7c84 0 115 -41 148 -41c20 0 33 20 39 61h35c0 -152 -68 -168 -114 -168c-17 0 -65 0 -79 7h10l-28 17 c-49 37 -69 40 -87 42z" />
      </symbol>
      <symbol id="E084-18uhk4m" viewBox="0 0 1000 1000" overflow="inherit">
         <path transform="scale(1,-1)" d="M20 -78c84 97 114 180 134 329h170c-13 -32 -82 -132 -99 -151l-84 -97c-33 -36 -59 -63 -80 -81h162v102l127 123v-225h57v-39h-57v-34c0 -43 19 -65 57 -65v-34h-244v36c48 0 60 26 60 70v27h-203v39z" />
      </symbol>
      <symbol id="E0A4-18uhk4m" viewBox="0 0 1000 1000" overflow="inherit">
         <path transform="scale(1,-1)" d="M0 -39c0 68 73 172 200 172c66 0 114 -37 114 -95c0 -84 -106 -171 -218 -171c-64 0 -96 30 -96 94z" />
      </symbol>
      <symbol id="E240-18uhk4m" viewBox="0 0 1000 1000" overflow="inherit">
         <path transform="scale(1,-1)" d="M179 -646c15 29 29 55 46 102c18 49 30 108 30 138c0 105 -80 173 -168 200c-18 5 -47 9 -87 16v190h22c8 0 33 -61 71 -95c4 -3 -2 3 61 -56c62 -58 122 -137 122 -241c0 -38 -13 -106 -35 -163c-20 -51 -43 -99 -66 -132c-6 -5 -10 -7 -13 -7s-5 2 -5 5l4 10 c1 3 14 25 18 33z" />
      </symbol>
      <symbol id="E655-18uhk4m" viewBox="0 0 1000 1000" overflow="inherit">
         <path transform="scale(1,-1)" d="M217 245c-22 0 -39 -16 -39 -37c0 -18 21 -34 39 -35c20 0 35 18 35 37c0 21 -15 34 -35 35zM44 318c3 26 25 51 52 51c16 0 28 -4 32 -12c11 -14 14 -56 22 -76c6 -8 14 -12 25 -14l16 5c9 5 14 11 15 25c0 7 -2 13 -5 17l-11 18l-17 17l-9 22c0 28 25 47 53 47 s50 -23 50 -47c0 -20 -7 -25 -21 -39l-15 -20c-4 -7 -6 -13 -7 -18c1 -4 5 -11 5 -14l11 -11l14 -7c20 2 30 22 33 47c0 39 17 58 49 58c26 0 46 -21 46 -47c0 -29 -23 -46 -54 -46c-30 0 -45 -11 -48 -34l5 -12c1 -3 4 -5 7 -8c1 -2 6 -3 14 -5c10 2 17 6 23 12 c8 3 6 4 16 12l21 15c4 3 12 5 21 5c23 0 43 -26 44 -49c0 -20 -16 -41 -30 -49c-3 -1 -10 -3 -19 -4c-7 1 -16 7 -30 18l-26 19c-4 3 -11 4 -20 4c-8 0 -14 -1 -17 -4l-9 -19c2 -13 6 -21 14 -24l11 -4l27 -5c16 0 28 -4 37 -12c9 -6 13 -17 13 -34c0 -13 -5 -25 -14 -34 c-9 -8 -22 -13 -36 -16c-11 2 -23 8 -34 19c-8 11 -11 27 -11 47c0 11 -4 21 -7 27c-5 8 -14 12 -26 12c-19 0 -29 -15 -32 -31c3 -7 8 -14 11 -21c4 -8 8 -14 13 -21l8 -8l5 -10c3 -5 4 -13 5 -21c0 -26 -26 -39 -52 -39c-25 0 -45 15 -48 39c1 6 5 18 7 21 c11 14 22 29 33 43c2 4 3 10 4 19c0 17 -8 26 -24 29c-31 0 -40 -20 -40 -51s-17 -49 -48 -54c-33 7 -42 20 -50 52c3 31 25 46 66 46c19 0 37 12 37 31c0 8 -3 13 -8 16c-3 4 -8 7 -16 7c-10 0 -24 -6 -40 -18c-14 -9 -25 -16 -39 -21c-28 3 -45 20 -46 51 c0 26 18 47 44 47c19 0 31 -9 44 -19l18 -14l19 -7c18 4 26 12 26 23c0 23 -15 34 -46 34c-37 0 -57 14 -61 44z" />
      </symbol>
   </defs>
   <style type="text/css">g.page-margin{font-family:Times;} g.ending, g.fing, g.reh, g.tempo{font-weight:bold;} g.dir, g.dynam, g.mNum{font-style:italic;} g.label{font-weight:normal;}</style>
   <svg class="definition-scale" color="black" viewBox="0 0 21000 29700">
      <g class="page-margin" transform="translate(500, 500)">
         <g id="m11s7625" class="mdiv pageMilestone" />
         <g id="s1pp7rns" class="score pageMilestone" />
         <g id="ss6y7cy" class="system">
            <g id="lfd9pu2" class="label">
               <text x="1105" y="1537" text-anchor="end" font-size="0px">
                  <tspan id="t147663s" class="text">
                     <tspan font-size="405px" class="text">Piano</tspan>
                  </tspan>
               </text>
            </g>
            <g id="s68tcvq" class="section systemMilestone" />
            <g id="pb32fe8" class="pb" />
            <g id="m19gehvr" class="measure">
               <g id="sxteth7" class="staff">
                  <path d="M1285 1087 L4732 1087" stroke="currentColor" stroke-width="13" />
                  <path d="M1285 1267 L4732 1267" stroke="currentColor" stroke-width="13" />
                  <path d="M1285 1447 L4732 1447" stroke="currentColor" stroke-width="13" />
                  <path d="M1285 1627 L4732 1627" stroke="currentColor" stroke-width="13" />
                  <path d="M1285 1807 L4732 1807" stroke="currentColor" stroke-width="13" />
                  <g id="ctp7dca" class="clef">
                     <use xlink:href="#E050-18uhk4m" x="1375" y="1627" height="720px" width="720px" />
                  </g>
                  <g id="k11ije90" class="keySig" />
                  <g id="m1cdpja" class="meterSig">
                     <use xlink:href="#E082-18uhk4m" x="2006" y="1267" height="720px" width="720px" />
                     <use xlink:href="#E084-18uhk4m" x="2011" y="1627" height="720px" width="720px" />
                  </g>
                  <g id="l19udhfz" class="layer">
                     <g id="b1mnaa6f" class="beam">
                        <polygon points="2585,2032 3143,1987 3143,1897 2585,1942" />
                        <g id="n13jb65v" class="note">
                           <g class="notehead">
                              <use xlink:href="#E0A4-18uhk4m" x="2585" y="1357" height="720px" width="720px" />
                           </g>
                           <g id="s1nbstec" class="stem">
                              <rect x="2585" y="1385" height="629" width="18" />
                           </g>
                        </g>
                        <g id="n16cjfxr" class="note">
                           <g class="notehead">
                              <use xlink:href="#E0A4-18uhk4m" x="3125" y="1267" height="720px" width="720px" />
                           </g>
                           <g id="sizoo0d" class="stem">
                              <rect x="3125" y="1295" height="674" width="18" />
                           </g>
                        </g>
                     </g>
                     <g id="b15k6quc" class="beam">
                        <polygon points="3664,2032 4378,1942 4378,1852 3664,1942" />
                        <polygon points="4152,1834 4378,1807 4378,1717 4152,1744" />
                        <g id="npk7urn" class="note">
                           <g class="notehead">
                              <use xlink:href="#E0A4-18uhk4m" x="3664" y="1447" height="720px" width="720px" />
                           </g>
                           <g id="d1bldp0d" class="dots">
                              <ellipse cx="3980" cy="1357" rx="36" ry="36" />
                           </g>
                           <g id="slhbveq" class="stem">
                              <rect x="3664" y="1475" height="539" width="18" />
                           </g>
                        </g>
                        <g id="n9ceach" class="note">
                           <g class="notehead">
                              <use xlink:href="#E0A4-18uhk4m" x="4360" y="1357" height="720px" width="720px" />
                           </g>
                           <g id="s1pkpv7v" class="stem">
                              <rect x="4360" y="1385" height="539" width="18" />
                           </g>
                        </g>
                     </g>
                  </g>
               </g>
               <g id="p10waydn" class="pedal">
                  <use xlink:href="#E655-18uhk4m" x="2483" y="2377" height="720px" width="720px" />
               </g>
               <g id="b12dnm6m" class="barLine">
                  <path d="M4719 1087 L4719 1807" stroke="currentColor" stroke-width="27" />
               </g>
            </g>
            <g id="mt4iuqw" class="measure">
               <g id="savp3gd" class="staff">
                  <path d="M4732 1087 L7253 1087" stroke="currentColor" stroke-width="13" />
                  <path d="M4732 1267 L7253 1267" stroke="currentColor" stroke-width="13" />
                  <path d="M4732 1447 L7253 1447" stroke="currentColor" stroke-width="13" />
                  <path d="M4732 1627 L7253 1627" stroke="currentColor" stroke-width="13" />
                  <path d="M4732 1807 L7253 1807" stroke="currentColor" stroke-width="13" />
                  <g id="lgx8ds8" class="layer">
                     <g id="b1nx7mkb" class="beam">
                        <polygon points="4918,1852 5476,1852 5476,1762 4918,1762" />
                        <g id="nii7hvl" class="note">
                           <g class="notehead">
                              <use xlink:href="#E0A4-18uhk4m" x="4918" y="1267" height="720px" width="720px" />
                           </g>
                           <g id="s2iv7m7" class="stem">
                              <rect x="4918" y="1295" height="539" width="18" />
                           </g>
                        </g>
                        <g id="nm7eitb" class="note">
                           <g class="notehead">
                              <use xlink:href="#E0A4-18uhk4m" x="5458" y="1267" height="720px" width="720px" />
                           </g>
                           <g id="s1gp0z6s" class="stem">
                              <rect x="5458" y="1295" height="539" width="18" />
                           </g>
                        </g>
                     </g>
                     <g id="n19659tf" class="note">
                        <g class="notehead">
                           <use xlink:href="#E0A4-18uhk4m" x="5794" y="1087" height="540px" width="540px" />
                        </g>
                        <g id="svnik7s" class="stem">
                           <rect x="5945" y="705" height="361" width="18" />
                           <g id="fdfkqo3" class="flag">
                              <use xlink:href="#E240-18uhk4m" x="5945" y="705" height="540px" width="540px" />
                           </g>
                        </g>
                     </g>
                     <g id="b1kkjtk7" class="beam">
                        <polygon points="6161,1897 6719,1942 6719,1852 6161,1807" />
                        <g id="nlh05zl" class="note">
                           <g class="notehead">
                              <use xlink:href="#E0A4-18uhk4m" x="6161" y="1177" height="720px" width="720px" />
                           </g>
                           <g id="s1ksfsbn" class="stem">
                              <rect x="6161" y="1205" height="674" width="18" />
                           </g>
                        </g>
                        <g id="n1jmgwop" class="note">
                           <g class="notehead">
                              <use xlink:href="#E0A4-18uhk4m" x="6701" y="1267" height="720px" width="720px" />
                           </g>
                           <g id="s1imk4xr" class="stem">
                              <rect x="6701" y="1295" height="629" width="18" />
                           </g>
                        </g>
                     </g>
                  </g>
               </g>
               <g id="b24fyae" class="barLine">
                  <path d="M7240 1087 L7240 1807" stroke="currentColor" stroke-width="27" />
               </g>
            </g>
            <g id="m16mw3pn" class="measure">
               <g id="s1v299z6" class="staff">
                  <path d="M7253 1087 L9586 1087" stroke="currentColor" stroke-width="13" />
                  <path d="M7253 1267 L9586 1267" stroke="currentColor" stroke-width="13" />
                  <path d="M7253 1447 L9586 1447" stroke="currentColor" stroke-width="13" />
                  <path d="M7253 1627 L9586 1627" stroke="currentColor" stroke-width="13" />
                  <path d="M7253 1807 L9586 1807" stroke="currentColor" stroke-width="13" />
                  <g id="l1ed9u4f" class="layer">
                     <g id="b22oady" class="beam">
                        <polygon points="7439,2032 7997,1987 7997,1897 7439,1942" />
                        <g id="nnhtpqd" class="note">
                           <g class="notehead">
                              <use xlink:href="#E0A4-18uhk4m" x="7439" y="1357" height="720px" width="720px" />
                           </g>
                           <g id="s1ha39be" class="stem">
                              <rect x="7439" y="1385" height="629" width="18" />
                           </g>
                        </g>
                        <g id="nzjnq38" class="note">
                           <g class="notehead">
                              <use xlink:href="#E0A4-18uhk4m" x="7979" y="1267" height="720px" width="720px" />
                           </g>
                           <g id="s1nz17zv" class="stem">
                              <rect x="7979" y="1295" height="674" width="18" />
                           </g>
                        </g>
                     </g>
                     <g id="bf8cmn2" class="beam">
                        <polygon points="8518,2032 9232,1942 9232,1852 8518,1942" />
                        <polygon points="9006,1834 9232,1807 9232,1717 9006,1744" />
                        <g id="n4l0rae" class="note">
                           <g class="notehead">
                              <use xlink:href="#E0A4-18uhk4m" x="8518" y="1447" height="720px" width="720px" />
                           </g>
                           <g id="d2cwyss" class="dots">
                              <ellipse cx="8834" cy="1357" rx="36" ry="36" />
                           </g>
                           <g id="s1tgaxqk" class="stem">
                              <rect x="8518" y="1475" height="539" width="18" />
                           </g>
                        </g>
                        <g id="nyjlwrg" class="note">
                           <g class="notehead">
                              <use xlink:href="#E0A4-18uhk4m" x="9214" y="1357" height="720px" width="720px" />
                           </g>
                           <g id="s1y569fx" class="stem">
                              <rect x="9214" y="1385" height="539" width="18" />
                           </g>
                        </g>
                     </g>
                  </g>
               </g>
               <g id="b1cgcbje" class="barLine">
                  <path d="M9573 1087 L9573 1807" stroke="currentColor" stroke-width="27" />
               </g>
            </g>
            <g id="m1n86wqn" class="measure">
               <g id="s14g204c" class="staff">
                  <path d="M9586 1087 L12472 1087" stroke="currentColor" stroke-width="13" />
                  <path d="M9586 1267 L12472 1267" stroke="currentColor" stroke-width="13" />
                  <path d="M9586 1447 L12472 1447" stroke="currentColor" stroke-width="13" />
                  <path d="M9586 1627 L12472 1627" stroke="currentColor" stroke-width="13" />
                  <path d="M9586 1807 L12472 1807" stroke="currentColor" stroke-width="13" />
                  <g id="l1e70qrn" class="layer">
                     <g id="b71gz3i" class="beam">
                        <polygon points="9772,1852 10330,1852 10330,1762 9772,1762" />
                        <g id="ntalqik" class="note">
                           <g class="notehead">
                              <use xlink:href="#E0A4-18uhk4m" x="9772" y="1267" height="720px" width="720px" />
                           </g>
                           <g id="s13siano" class="stem">
                              <rect x="9772" y="1295" height="539" width="18" />
                           </g>
                        </g>
                        <g id="n2mazlz" class="note">
                           <g class="notehead">
                              <use xlink:href="#E0A4-18uhk4m" x="10312" y="1267" height="720px" width="720px" />
                           </g>
                           <g id="s1437eyb" class="stem">
                              <rect x="10312" y="1295" height="539" width="18" />
                           </g>
                        </g>
                     </g>
                     <g id="nb8oyc6" class="note">
                        <g class="notehead">
                           <use xlink:href="#E0A4-18uhk4m" x="10648" y="1087" height="540px" width="540px" />
                        </g>
                        <g id="s1ixmw3c" class="stem">
                           <rect x="10799" y="705" height="361" width="18" />
                           <g id="fi4qux" class="flag">
                              <use xlink:href="#E240-18uhk4m" x="10799" y="705" height="540px" width="540px" />
                           </g>
                        </g>
                     </g>
                     <g id="b1g4dyys" class="beam">
                        <polygon points="11015,1897 11573,1942 11573,1852 11015,1807" />
                        <g id="n4krtii" class="note">
                           <g class="notehead">
                              <use xlink:href="#E0A4-18uhk4m" x="11015" y="1177" height="720px" width="720px" />
                           </g>
                           <g id="s1ksa7ra" class="stem">
                              <rect x="11015" y="1205" height="674" width="18" />
                           </g>
                        </g>
                        <g id="n1o9powh" class="note">
                           <g class="notehead">
                              <use xlink:href="#E0A4-18uhk4m" x="11555" y="1267" height="720px" width="720px" />
                           </g>
                           <g id="s14xx02j" class="stem">
                              <rect x="11555" y="1295" height="629" width="18" />
                           </g>
                        </g>
                     </g>
                  </g>
               </g>
               <g id="b3sla46" class="barLine">
                  <path d="M12094 1087 L12094 1807" stroke="currentColor" stroke-width="27" />
                  <path d="M12224 1087 L12224 1807" stroke="currentColor" stroke-width="90" />
                  <path d="M12355 1087 L12355 1807" stroke="currentColor" stroke-width="27" />
                  <use xlink:href="#E044-18uhk4m" x="12400" y="1357" height="720px" width="720px" />
                  <use xlink:href="#E044-18uhk4m" x="12400" y="1537" height="720px" width="720px" />
                  <use xlink:href="#E044-18uhk4m" x="11977" y="1357" height="720px" width="720px" />
                  <use xlink:href="#E044-18uhk4m" x="11977" y="1537" height="720px" width="720px" />
               </g>
            </g>
            <g id="mrqtaap" class="measure">
               <g id="s1rjzr84" class="staff">
                  <path d="M12472 1087 L14969 1087" stroke="currentColor" stroke-width="13" />
                  <path d="M12472 1267 L14969 1267" stroke="currentColor" stroke-width="13" />
                  <path d="M12472 1447 L14969 1447" stroke="currentColor" stroke-width="13" />
                  <path d="M12472 1627 L14969 1627" stroke="currentColor" stroke-width="13" />
                  <path d="M12472 1807 L14969 1807" stroke="currentColor" stroke-width="13" />
                  <g id="l1ybglm" class="layer">
                     <g id="b1r62j8q" class="beam">
                        <polygon points="12658,2032 13216,1987 13216,1897 12658,1942" />
                        <g id="n1d1lnh9" class="note">
                           <g class="notehead">
                              <use xlink:href="#E0A4-18uhk4m" x="12658" y="1357" height="720px" width="720px" />
                           </g>
                           <g id="s1txzpm8" class="stem">
                              <rect x="12658" y="1385" height="629" width="18" />
                           </g>
                        </g>
                        <g id="n18unxzw" class="note">
                           <g class="notehead">
                              <use xlink:href="#E0A4-18uhk4m" x="13198" y="1267" height="720px" width="720px" />
                           </g>
                           <g id="scpgy3e" class="stem">
                              <rect x="13198" y="1295" height="674" width="18" />
                           </g>
                        </g>
                     </g>
                     <g id="nicbds1" class="note">
                        <g class="notehead">
                           <use xlink:href="#E0A4-18uhk4m" x="13534" y="1267" height="540px" width="540px" />
                        </g>
                        <g id="s1kbgg9r" class="stem">
                           <rect x="13685" y="862" height="384" width="18" />
                           <g id="fjszcz7" class="flag">
                              <use xlink:href="#E240-18uhk4m" x="13685" y="862" height="540px" width="540px" />
                           </g>
                        </g>
                     </g>
                     <g id="bydu8yi" class="beam">
                        <polygon points="13901,1987 14614,2077 14614,1987 13901,1897" />
                        <polygon points="14388,1916 14614,1942 14614,1852 14388,1826" />
                        <g id="nyvg6th" class="note">
                           <g class="notehead">
                              <use xlink:href="#E0A4-18uhk4m" x="13901" y="1357" height="720px" width="720px" />
                           </g>
                           <g id="d1qadvrk" class="dots">
                              <ellipse cx="14217" cy="1357" rx="36" ry="36" />
                           </g>
                           <g id="s9h7ao" class="stem">
                              <rect x="13901" y="1385" height="584" width="18" />
                           </g>
                        </g>
                        <g id="nhbssnb" class="note">
                           <g class="notehead">
                              <use xlink:href="#E0A4-18uhk4m" x="14596" y="1447" height="720px" width="720px" />
                           </g>
                           <g id="s1xbwn1i" class="stem">
                              <rect x="14596" y="1475" height="584" width="18" />
                           </g>
                        </g>
                     </g>
                  </g>
               </g>
               <g id="bb54l7d" class="barLine">
                  <path d="M14956 1087 L14956 1807" stroke="currentColor" stroke-width="27" />
               </g>
            </g>
            <g id="m1varn8d" class="measure">
               <g id="sqh5wos" class="staff">
                  <path d="M14969 1087 L17506 1087" stroke="currentColor" stroke-width="13" />
                  <path d="M14969 1267 L17506 1267" stroke="currentColor" stroke-width="13" />
                  <path d="M14969 1447 L17506 1447" stroke="currentColor" stroke-width="13" />
                  <path d="M14969 1627 L17506 1627" stroke="currentColor" stroke-width="13" />
                  <path d="M14969 1807 L17506 1807" stroke="currentColor" stroke-width="13" />
                  <g id="l35y2js" class="layer">
                     <g id="b8wlvxg" class="beam">
                        <polygon points="15155,2122 15713,2077 15713,1987 15155,2032" />
                        <g id="nwmuwp8" class="note">
                           <g class="notehead">
                              <use xlink:href="#E0A4-18uhk4m" x="15155" y="1537" height="720px" width="720px" />
                           </g>
                           <g id="s21fmhc" class="stem">
                              <rect x="15155" y="1565" height="539" width="18" />
                           </g>
                        </g>
                        <g id="n1y1n3rw" class="note">
                           <g class="notehead">
                              <use xlink:href="#E0A4-18uhk4m" x="15695" y="1267" height="720px" width="720px" />
                           </g>
                           <g id="s1116rgz" class="stem">
                              <rect x="15695" y="1295" height="764" width="18" />
                           </g>
                        </g>
                     </g>
                     <g id="b1iuma7" class="beam">
                        <polygon points="16234,1897 17151,2077 17151,1987 16234,1807" />
                        <polygon points="16783,1871 17151,1942 17151,1852 16783,1781" />
                        <g id="n3sp2im" class="note">
                           <g class="notehead">
                              <use xlink:href="#E0A4-18uhk4m" x="16234" y="1267" height="720px" width="720px" />
                           </g>
                           <g id="s1ny5ehz" class="stem">
                              <rect x="16234" y="1295" height="584" width="18" />
                           </g>
                        </g>
                        <g id="ndzudwl" class="note">
                           <g class="notehead">
                              <use xlink:href="#E0A4-18uhk4m" x="16774" y="1357" height="720px" width="720px" />
                           </g>
                           <g id="sxrc68b" class="stem">
                              <rect x="16774" y="1385" height="603" width="18" />
                           </g>
                        </g>
                        <g id="n1olg96q" class="note">
                           <g class="notehead">
                              <use xlink:href="#E0A4-18uhk4m" x="17133" y="1447" height="720px" width="720px" />
                           </g>
                           <g id="su8rsj2" class="stem">
                              <rect x="17133" y="1475" height="584" width="18" />
                           </g>
                        </g>
                     </g>
                  </g>
               </g>
               <g id="b118vbgd" class="barLine">
                  <path d="M17493 1087 L17493 1807" stroke="currentColor" stroke-width="27" />
               </g>
            </g>
            <g id="mfvuacw" class="measure">
               <g id="s12my3nq" class="staff">
                  <path d="M17506 1087 L20003 1087" stroke="currentColor" stroke-width="13" />
                  <path d="M17506 1267 L20003 1267" stroke="currentColor" stroke-width="13" />
                  <path d="M17506 1447 L20003 1447" stroke="currentColor" stroke-width="13" />
                  <path d="M17506 1627 L20003 1627" stroke="currentColor" stroke-width="13" />
                  <path d="M17506 1807 L20003 1807" stroke="currentColor" stroke-width="13" />
                  <g id="lvz11z6" class="layer">
                     <g id="bnw2myc" class="beam">
                        <polygon points="17692,2032 18250,1987 18250,1897 17692,1942" />
                        <g id="n4qlvdc" class="note">
                           <g class="notehead">
                              <use xlink:href="#E0A4-18uhk4m" x="17692" y="1357" height="720px" width="720px" />
                           </g>
                           <g id="suyc2q6" class="stem">
                              <rect x="17692" y="1385" height="629" width="18" />
                           </g>
                        </g>
                        <g id="nvfca8i" class="note">
                           <g class="notehead">
                              <use xlink:href="#E0A4-18uhk4m" x="18232" y="1267" height="720px" width="720px" />
                           </g>
                           <g id="s1c1xswu" class="stem">
                              <rect x="18232" y="1295" height="674" width="18" />
                           </g>
                        </g>
                     </g>
                     <g id="nqvysqf" class="note">
                        <g class="notehead">
                           <use xlink:href="#E0A4-18uhk4m" x="18568" y="1267" height="540px" width="540px" />
                        </g>
                        <g id="sn9lvm1" class="stem">
                           <rect x="18719" y="862" height="384" width="18" />
                           <g id="f1707nk2" class="flag">
                              <use xlink:href="#E240-18uhk4m" x="18719" y="862" height="540px" width="540px" />
                           </g>
                        </g>
                     </g>
                     <g id="bfz0ezd" class="beam">
                        <polygon points="18935,1987 19648,2077 19648,1987 18935,1897" />
                        <polygon points="19422,1916 19648,1942 19648,1852 19422,1826" />
                        <g id="n1i7cccl" class="note">
                           <g class="notehead">
                              <use xlink:href="#E0A4-18uhk4m" x="18935" y="1357" height="720px" width="720px" />
                           </g>
                           <g id="d1xtkzfs" class="dots">
                              <ellipse cx="19251" cy="1357" rx="36" ry="36" />
                           </g>
                           <g id="srm5jcp" class="stem">
                              <rect x="18935" y="1385" height="584" width="18" />
                           </g>
                        </g>
                        <g id="nqhrh80" class="note">
                           <g class="notehead">
                              <use xlink:href="#E0A4-18uhk4m" x="19630" y="1447" height="720px" width="720px" />
                           </g>
                           <g id="s109nykw" class="stem">
                              <rect x="19630" y="1475" height="584" width="18" />
                           </g>
                        </g>
                     </g>
                  </g>
               </g>
               <g id="bmekk84" class="barLine">
                  <path d="M19990 1087 L19990 1807" stroke="currentColor" stroke-width="27" />
               </g>
            </g>
            <g id="s1676iqq" class="sb" />
         </g>
         <g id="slp93k6" class="system">
            <g id="lvq748n" class="labelAbbr">
               <text x="914" y="3877" text-anchor="end" font-size="0px">
                  <tspan id="t11zjfjw" class="text">
                     <tspan font-size="405px" class="text">Pno.</tspan>
                  </tspan>
               </text>
            </g>
            <g id="m15famj1" class="measure">
               <g id="mjgjjwb" class="mNum autogenerated">
                  <text x="1094" y="3184" text-anchor="middle" font-size="0px">
                     <tspan id="tskgpbr" class="text">
                        <tspan font-size="324px" class="text">8</tspan>
                     </tspan>
                  </text>
               </g>
               <g id="s1t0qx87" class="staff">
                  <path d="M1094 3427 L3945 3427" stroke="currentColor" stroke-width="13" />
                  <path d="M1094 3607 L3945 3607" stroke="currentColor" stroke-width="13" />
                  <path d="M1094 3787 L3945 3787" stroke="currentColor" stroke-width="13" />
                  <path d="M1094 3967 L3945 3967" stroke="currentColor" stroke-width="13" />
                  <path d="M1094 4147 L3945 4147" stroke="currentColor" stroke-width="13" />
                  <g id="c1t1f1yv" class="clef">
                     <use xlink:href="#E050-18uhk4m" x="1184" y="3967" height="720px" width="720px" />
                  </g>
                  <g id="k1t503n" class="keySig" />
                  <g id="ljfl6zr" class="layer">
                     <g id="bndmuxv" class="beam">
                        <polygon points="1919,4462 2461,4417 2461,4327 1919,4372" />
                        <g id="nql1u8r" class="note">
                           <g class="notehead">
                              <use xlink:href="#E0A4-18uhk4m" x="1919" y="3877" height="720px" width="720px" />
                           </g>
                           <g id="stbcpp5" class="stem">
                              <rect x="1919" y="3905" height="539" width="18" />
                           </g>
                        </g>
                        <g id="n1ymk35r" class="note">
                           <g class="notehead">
                              <use xlink:href="#E0A4-18uhk4m" x="2443" y="3607" height="720px" width="720px" />
                           </g>
                           <g id="s524uzx" class="stem">
                              <rect x="2443" y="3635" height="764" width="18" />
                           </g>
                        </g>
                     </g>
                     <g id="n11s6k5j" class="note">
                        <g class="notehead">
                           <use xlink:href="#E0A4-18uhk4m" x="2967" y="3697" height="720px" width="720px" />
                        </g>
                        <g id="sdkb4kh" class="stem">
                           <rect x="2967" y="3725" height="602" width="18" />
                        </g>
                     </g>
                  </g>
               </g>
               <g id="bzdlxzj" class="barLine">
                  <path d="M3770 3427 L3770 4147" stroke="currentColor" stroke-width="27" />
                  <path d="M3900 3427 L3900 4147" stroke="currentColor" stroke-width="90" />
               </g>
            </g>
            <g id="s13j7jvc" class="systemMilestoneEnd s68tcvq" />
         </g>
         <g id="pblohzr" class="pageMilestoneEnd s1pp7rns" />
         <g id="pizrxy1" class="pageMilestoneEnd m11s7625" />
         <g id="pyzlwhk" class="pgHead">
            <text x="0" y="0" font-size="0px">
               <tspan id="r1m44sxy" class="rend" x="10000" y="279" text-anchor="middle">
                  <tspan id="t1804wvs" class="text">
                     <tspan font-size="405px" class="text">Air n 59</tspan>
                  </tspan>
               </tspan>
            </text>
         </g>
         <g id="p1785ie3" class="pgFoot autogenerated">
            <g id="f10n6sgt" class="fig">
               <g id="s6kpptp" class="svg" transform="translate(7750, 28099) scale(10, 10)">
                  <g>
                     <path fill="#00000" d="M 17.11278,49.26451 V 10.367554 h 12.696511 c 3.288815,7.336676 6.71267,14.610456 10.127281,21.888976 3.419998,-7.484684 6.255515,-14.204887 9.58887,-21.909915 2.436207,0.103726 4.316952,0.08453 6.484294,-0.05808 V 49.264423 H 50.274275 C 50.145222,38.35639 50.016136,27.448368 49.887066,16.540329 45.003488,27.315459 39.967448,38.433564 35.083854,49.208695 34.678996,49.343717 34.426583,49.135619 34.021726,49.270644 29.46588,39.330716 24.910049,29.390805 20.354201,19.450876 20.224341,29.388756 20.09461,39.326619 19.964815,49.264497 H 17.11278 Z M 36.754144,39.324695 C 32.721221,30.512695 28.6883,21.700679 24.655394,12.888662 22.530527,12.750737 22.656775,12.71031 20.714356,12.813974 v 0.966497 c 4.612938,9.99784 9.609439,20.748709 13.87298,30.081745 0.722248,-1.512523 1.444528,-3.025014 2.166808,-4.537521 z m 25.738417,9.939815 c 0,-12.965651 0,-25.931305 0,-38.896956 10.084388,0 20.168791,0 30.253178,0 0,0.960416 0,1.920849 0,2.881265 -6.482825,0 -12.965652,0 -19.448478,0 0,4.802097 0,9.604178 0,14.406277 5.52241,0 11.044819,0 16.567229,0 0,0.960415 0,1.920832 0,2.881248 -5.52241,0 -11.044819,0 -16.567229,0 0,5.282306 0,10.564611 0,15.846917 6.963035,0 13.926068,0 20.889103,0 0,0.960416 0,1.920832 0,2.881249 -10.564597,0 -21.129207,0 -31.693803,0 z m 4.321874,-2.160937 c 0,-11.765131 0,-23.530263 0,-35.295394 -0.720312,0 -1.440625,0 -2.160937,0 0,11.765131 0,23.530263 0,35.295394 0.720312,0 1.440625,0 2.160937,0 z m 32.41413,2.160937 c 0,-12.965651 0,-25.931305 0,-38.896956 2.401045,0 4.802095,0 7.203135,0 0,12.965651 0,25.931305 0,38.896956 -2.40104,0 -4.80209,0 -7.203135,0 z m 2.881265,-2.160937 c 0,-11.765131 0,-23.530263 0,-35.295394 -0.72031,0 -1.44064,0 -2.160953,0 0,11.765131 0,23.530263 0,35.295394 0.720313,0 1.440643,0 2.160953,0 z" />
                     <path fill="#00000" d="m 346.3,6.7 c -3.1,0.5 -4.9,4.4 -2.7,6.8 1.2,1.4 2.7,2.4 4.1,3.5 -2.4,5.3 -7.7,8.3 -11.9,12.1 -3.7,2.8 -7,6.2 -9.7,9.9 -2.2,-0.8 -0.3,-6.8 -0.6,-9.5 0.1,-3.1 0.7,-6.4 2.9,-8.7 1.3,-1.9 3,-3.5 4.5,-5.2 1.2,-3.4 -3.2,-4.9 -5.8,-4.6 -7.3,-0.5 -14.6,2 -20,6.8 -5,4.6 -10,10.1 -11.5,17 -0.9,3.5 -0.2,7.5 2.8,9.9 2.5,2.8 7.4,2.9 9.8,-0.2 1.7,-2.3 3.2,-4.8 3.8,-7.6 -0.1,-2.6 -4.4,-2.3 -4.3,0.2 1.2,2.4 -0.9,4.7 -2.7,6.2 -1.7,0.9 -4.7,0.7 -4.8,-1.7 -1,-5.8 2.1,-11.3 5.2,-16.1 4,-5.8 9.8,-11.2 17.2,-11.8 1.6,0 8.1,-1.2 6.8,1.4 -2.8,2.8 -5.6,6.1 -6,10.3 -1.6,7.7 0.1,15.7 -2.3,23.2 -1.1,3.9 2,2.6 2.5,0.2 3.3,-7.4 8.9,-13.4 15.1,-18.5 4.2,-3.9 9.5,-7.1 11.9,-12.6 1.3,-3.6 1.2,-9 -2.7,-10.9 -0.6,-0.2 -1.2,-0.3 -1.8,-0.3 z m 66,14.5 c -2,0.8 -1.8,4.9 0.8,4.4 3.4,0.4 2.9,-6.2 -0.8,-4.4 z m 0.6,7.3 c -1.3,0.5 -7.6,0.5 -5.4,2.2 4,-0.3 0.7,4.5 0.6,6.7 -0.4,2.9 -2.4,5.9 -1.2,8.8 2.7,1.7 5.6,-0.8 6.8,-3.2 1.6,-1.4 -0.5,-3 -1.2,-0.9 -0.4,0.8 -2.4,3.5 -2.6,1.8 1.1,-5 2.7,-9.9 3.9,-14.9 l -0.1,-0.5 h -0.9 z m -65.1,0.2 c -6.5,1.6 -10.5,9.5 -8.2,15.7 2.1,3.4 7.4,2.9 10.1,0.4 2,-0.2 3.6,-5.3 1,-3.4 -1.4,2 -4,4.2 -6.5,2.8 -2.2,-1.9 -1.9,-5.7 1.7,-5.3 3.1,-0.9 6.9,-2.1 8.1,-5.5 0.9,-2.7 -1.6,-5.2 -4.3,-4.8 h -1.1 -0.7 z m 13.6,0 c -2.2,0 -8.5,1.8 -2.9,2.3 0.9,1.9 -1,4.9 -1.1,7.2 -0.5,2.9 -1.4,5.7 -1.7,8.7 3.7,0.7 3.8,-2.6 4.4,-5.3 0.9,-3.3 1.6,-7 4.1,-9.5 2.4,1.6 6.8,-0.7 3.7,-3.4 -2.9,-0.5 -4.8,2.4 -6.2,4.3 0,-1.2 2.4,-5 -0.2,-4.3 z m 15.8,0 c -6.4,1.3 -9.6,9.1 -7.7,14.9 1.9,4 7.7,3.9 11,1.7 4.1,-3 6,-8.9 4.4,-13.7 -1.3,-3 -4.8,-3.2 -7.6,-3 z m 17,0 c -2.3,0 -8.8,1.9 -3,2.4 0.4,2.5 -1,5.7 -1.4,8.4 -0.7,2.4 -1.8,7.5 2.1,7.2 3.8,-0.1 6.5,-3.5 8.5,-6.3 2,-3.2 4.5,-7 3.3,-10.9 -3.7,-3 -3.6,2.6 -3.1,5.1 -0.7,3.8 -2.7,7.9 -6.2,9.8 -3.6,0.6 -1,-4.3 -0.8,-6.1 0.6,-3.2 1.6,-6.3 1.9,-9.5 -0.4,0 -0.8,0 -1.1,0 z m 30.6,0 c -6.3,1.2 -9.5,8.9 -7.8,14.7 1.5,4 7.2,4.2 10.5,2.4 4.6,-2.8 6.6,-9.3 4.8,-14.3 -1.4,-2.8 -4.8,-3 -7.5,-2.8 z m -75.4,1.7 c 2.1,1.5 0.2,4.7 -1.6,5.7 -1.1,0.4 -5.5,3.4 -4.6,0.7 0.8,-2.7 2.2,-6.2 5.3,-6.6 l 0.9,0.1 z m 30.8,0 c 2.6,1.5 1.3,5.2 0.8,7.6 -0.8,2.7 -1.9,5.9 -4.7,7.1 -5.1,0.8 -4,-5.8 -2.8,-8.8 1,-2.8 3,-6.8 6.7,-5.8 z m 47.1,-0.1 c 2.9,0.7 2,4.7 1.5,6.8 -0.7,3 -1.8,6.7 -5,8 -4.7,0.8 -4,-5.1 -3,-7.9 0.9,-3 2.7,-7.3 6.5,-6.8 z m -88.1,5.9 c -0.3,1.3 0.9,-0.6 0,0 z m -1.1,2.4 c -0.2,0.5 0.5,-0.1 0,0 z m -1.3,4.5 c -0.3,1.3 0.8,-0.2 0,0 z" />
                     <text y="41" x="201" fill="#00000" style="font-style:italic;font-weight:normal;font-size:30px;line-height:125%;font-family:Times;text-anchor:middle" xml:space="preserve">engraved with</text>
                  </g>
               </g>
            </g>
         </g>
      </g>
   </svg>
</svg>
