<?xml version="1.0" encoding="UTF-8" standalone="no"?>
<svg width="2100px" height="2970px" version="1.1" xmlns="http://www.w3.org/2000/svg" xmlns:xlink="http://www.w3.org/1999/xlink" xmlns:mei="http://www.music-encoding.org/ns/mei" overflow="visible">
   <desc>Engraved by Verovio 3.13.1</desc>
   <defs>
      <symbol id="E044-1q5k1ue" viewBox="0 0 1000 1000" overflow="inherit">
         <path transform="scale(1,-1)" d="M0 0c0 28 22 50 50 50s50 -22 50 -50s-22 -50 -50 -50s-50 22 -50 50z" />
      </symbol>
      <symbol id="E050-1q5k1ue" viewBox="0 0 1000 1000" overflow="inherit">
         <path transform="scale(1,-1)" d="M441 -245c-23 -4 -48 -6 -76 -6c-59 0 -102 7 -130 20c-88 42 -150 93 -187 154c-26 44 -43 103 -48 176c0 6 -1 13 -1 19c0 54 15 111 45 170c29 57 65 106 110 148s96 85 153 127c-3 16 -8 46 -13 92c-4 43 -5 73 -5 89c0 117 16 172 69 257c34 54 64 82 89 82 c21 0 43 -30 69 -92s39 -115 41 -159v-15c0 -109 -21 -162 -67 -241c-13 -20 -63 -90 -98 -118c-13 -9 -25 -19 -37 -29l31 -181c8 1 18 2 28 2c58 0 102 -12 133 -35c59 -43 92 -104 98 -184c1 -7 1 -15 1 -22c0 -123 -87 -209 -181 -248c8 -57 17 -110 25 -162 c5 -31 6 -58 6 -80c0 -30 -5 -53 -14 -70c-35 -64 -88 -99 -158 -103c-5 0 -11 -1 -16 -1c-37 0 -72 10 -108 27c-50 24 -77 59 -80 105v11c0 29 7 55 20 76c18 28 45 42 79 44h6c49 0 93 -42 97 -87v-9c0 -51 -34 -86 -105 -106c17 -24 51 -36 102 -36c62 0 116 43 140 85 c9 16 13 41 13 74c0 20 -1 42 -5 67c-8 53 -18 106 -26 159zM461 939c-95 0 -135 -175 -135 -286c0 -24 2 -48 5 -71c50 39 92 82 127 128c40 53 60 100 60 140v8c-4 53 -22 81 -55 81h-2zM406 119l54 -326c73 25 110 78 110 161c0 7 0 15 -1 23c-7 95 -57 142 -151 142h-12 zM382 117c-72 -2 -128 -47 -128 -120v-7c2 -46 43 -99 75 -115c-3 -2 -7 -5 -10 -10c-70 33 -116 88 -123 172v11c0 68 44 126 88 159c23 17 49 29 78 36l-29 170c-21 -13 -52 -37 -92 -73c-50 -44 -86 -84 -109 -119c-45 -69 -67 -130 -67 -182v-13c5 -68 35 -127 93 -176 s125 -73 203 -73c25 0 50 3 75 9c-19 111 -36 221 -54 331z" />
      </symbol>
      <symbol id="E081-1q5k1ue" viewBox="0 0 1000 1000" overflow="inherit">
         <path transform="scale(1,-1)" d="M68 -250v36c23 0 40 6 49 18c8 14 12 33 12 57v250l-82 -129l-27 13l107 255h128v-394c0 -24 5 -42 14 -53s25 -17 47 -17v-36h-248z" />
      </symbol>
      <symbol id="E085-1q5k1ue" viewBox="0 0 1000 1000" overflow="inherit">
         <path transform="scale(1,-1)" d="M161 38c-14 0 -56 -5 -92 -51h-32l5 263c55 -11 108 -18 158 -18c40 0 85 6 134 17c-8 -52 -39 -114 -159 -114l-50 2c-19 2 -31 4 -49 10l-5 -111c38 26 81 39 129 39c94 0 177 -64 177 -159c0 -100 -98 -166 -211 -166c-88 0 -146 53 -146 115c0 53 39 83 75 83 c37 0 69 -32 69 -72c0 -4 -1 -10 -4 -18l-27 -37c-2 -3 -3 -8 -3 -14c0 -15 12 -23 36 -23c74 0 92 77 92 132s-35 122 -97 122z" />
      </symbol>
      <symbol id="E086-1q5k1ue" viewBox="0 0 1000 1000" overflow="inherit">
         <path transform="scale(1,-1)" d="M284 -91c0 37 -28 92 -67 92c-35 0 -65 -54 -65 -111c0 -52 22 -104 68 -104c47 0 64 68 64 123zM230 214c-36 0 -90 -33 -90 -184l2 -36c40 24 81 36 120 36c80 0 140 -48 140 -121c0 -99 -99 -159 -182 -159c-160 0 -200 173 -200 244c0 21 2 43 7 71l10 35 c26 85 73 115 98 126c41 19 74 24 103 24c93 0 142 -63 142 -105c0 -58 -52 -72 -73 -72c-33 0 -59 24 -65 35c-3 5 -6 14 -7 25l11 30c6 15 9 27 9 35c0 11 -9 16 -25 16z" />
      </symbol>
      <symbol id="E088-1q5k1ue" viewBox="0 0 1000 1000" overflow="inherit">
         <path transform="scale(1,-1)" d="M195 -214c76 0 88 58 90 68c0 34 -35 60 -57 73l-52 29c-21 10 -32 17 -34 20c-39 -33 -58 -54 -62 -92c5 -23 23 -98 115 -98zM301 135c0 61 -72 76 -113 76c-40 0 -77 -17 -77 -51c3 -21 15 -38 26 -50c17 -15 33 -26 48 -34l65 -28c34 27 51 56 51 87zM176 -250 c-57 0 -166 26 -166 132c0 47 30 86 89 116c-33 15 -79 60 -79 119c0 79 85 132 178 132h18c5 0 21 1 28 -1c25 0 126 -30 126 -110c0 -37 -23 -76 -69 -116c43 -25 83 -71 83 -119c0 -101 -118 -153 -208 -153z" />
      </symbol>
      <symbol id="E0A4-1q5k1ue" viewBox="0 0 1000 1000" overflow="inherit">
         <path transform="scale(1,-1)" d="M0 -39c0 68 73 172 200 172c66 0 114 -37 114 -95c0 -84 -106 -171 -218 -171c-64 0 -96 30 -96 94z" />
      </symbol>
      <symbol id="E240-1q5k1ue" viewBox="0 0 1000 1000" overflow="inherit">
         <path transform="scale(1,-1)" d="M179 -646c15 29 29 55 46 102c18 49 30 108 30 138c0 105 -80 173 -168 200c-18 5 -47 9 -87 16v190h22c8 0 33 -61 71 -95c4 -3 -2 3 61 -56c62 -58 122 -137 122 -241c0 -38 -13 -106 -35 -163c-20 -51 -43 -99 -66 -132c-6 -5 -10 -7 -13 -7s-5 2 -5 5l4 10 c1 3 14 25 18 33z" />
      </symbol>
      <symbol id="E241-1q5k1ue" viewBox="0 0 1000 1000" overflow="inherit">
         <path transform="scale(1,-1)" d="M179 646c-4 8 -17 30 -18 33l-4 10c0 3 2 5 5 5s7 -2 13 -7c23 -33 46 -81 66 -132c22 -57 35 -125 35 -163c0 -104 -60 -183 -122 -241c-63 -59 -57 -53 -61 -56c-38 -34 -63 -95 -71 -95h-22v190c40 7 69 11 87 16c88 27 168 95 168 200c0 30 -12 89 -30 138 c-17 47 -31 73 -46 102z" />
      </symbol>
      <symbol id="E260-1q5k1ue" viewBox="0 0 1000 1000" overflow="inherit">
         <path transform="scale(1,-1)" d="M20 110c32 16 54 27 93 27c26 0 35 -3 54 -13c13 -7 24 -20 27 -38l4 -25c0 -28 -16 -57 -45 -89c-23 -25 -39 -44 -65 -68l-88 -79v644h20v-359zM90 106c-32 0 -48 -10 -70 -29v-194c31 31 54 59 71 84c21 32 32 59 32 84c0 9 1 16 1 20c0 14 -3 21 -11 30l-8 3z" />
      </symbol>
   </defs>
   <style type="text/css">g.page-margin{font-family:Times;} g.ending, g.fing, g.reh, g.tempo{font-weight:bold;} g.dir, g.dynam, g.mNum{font-style:italic;} g.label{font-weight:normal;}</style>
   <svg class="definition-scale" color="black" viewBox="0 0 21000 29700">
      <g class="page-margin" transform="translate(500, 500)">
         <g id="mgnrqwm" class="mdiv pageMilestone" />
         <g id="si3yu4y" class="score pageMilestone" />
         <g id="s4oawp7" class="system">
            <g id="lumobp7" class="label">
               <text x="1105" y="1535" text-anchor="end" font-size="0px">
                  <tspan id="t1h5gwfe" class="text">
                     <tspan font-size="405px" class="text">Piano</tspan>
                  </tspan>
               </text>
            </g>
            <g id="sri2et8" class="section systemMilestone" />
            <g id="p1tqkre" class="pb" />
            <g id="m1io16rc" class="measure">
               <g id="m19jgza0" class="mNum">
                  <text x="1285" y="842" text-anchor="middle" font-size="0px" />
               </g>
               <g id="s13rgf57" class="staff">
                  <path d="M1285 1085 L3600 1085" stroke="currentColor" stroke-width="13" />
                  <path d="M1285 1265 L3600 1265" stroke="currentColor" stroke-width="13" />
                  <path d="M1285 1445 L3600 1445" stroke="currentColor" stroke-width="13" />
                  <path d="M1285 1625 L3600 1625" stroke="currentColor" stroke-width="13" />
                  <path d="M1285 1805 L3600 1805" stroke="currentColor" stroke-width="13" />
                  <g id="c60mz49" class="clef">
                     <use xlink:href="#E050-1q5k1ue" x="1375" y="1625" height="720px" width="720px" />
                  </g>
                  <g id="krnyvnj" class="keySig">
                     <g id="k1g1u0wm" class="keyAccid">
                        <use xlink:href="#E260-1q5k1ue" x="2020" y="1445" height="720px" width="720px" />
                     </g>
                     <g id="kim5acf" class="keyAccid">
                        <use xlink:href="#E260-1q5k1ue" x="2200" y="1175" height="720px" width="720px" />
                     </g>
                  </g>
                  <g id="mheizjw" class="meterSig">
                     <use xlink:href="#E086-1q5k1ue" x="2508" y="1265" height="720px" width="720px" />
                     <use xlink:href="#E088-1q5k1ue" x="2515" y="1625" height="720px" width="720px" />
                  </g>
                  <g id="lmu5sej" class="layer">
                     <g id="n7z1g5i" class="note">
                        <g class="notehead">
                           <use xlink:href="#E0A4-1q5k1ue" x="3066" y="1445" height="720px" width="720px" />
                        </g>
                        <g id="s1mhuv46" class="stem">
                           <rect x="3066" y="1473" height="572" width="18" />
                           <g id="f1u2eee4" class="flag">
                              <use xlink:href="#E241-1q5k1ue" x="3066" y="2045" height="720px" width="720px" />
                           </g>
                        </g>
                        <g id="afmtycl" class="accid" />
                     </g>
                  </g>
               </g>
               <g id="ba1xw2v" class="barLine">
                  <path d="M3587 1085 L3587 1805" stroke="currentColor" stroke-width="27" />
               </g>
            </g>
            <g id="mjzt8lp" class="measure">
               <g id="so1ur6k" class="staff">
                  <path d="M3600 1085 L6430 1085" stroke="currentColor" stroke-width="13" />
                  <path d="M3600 1265 L6430 1265" stroke="currentColor" stroke-width="13" />
                  <path d="M3600 1445 L6430 1445" stroke="currentColor" stroke-width="13" />
                  <path d="M3600 1625 L6430 1625" stroke="currentColor" stroke-width="13" />
                  <path d="M3600 1805 L6430 1805" stroke="currentColor" stroke-width="13" />
                  <g id="l19a38my" class="layer">
                     <g id="npxlcgv" class="note">
                        <g class="notehead">
                           <use xlink:href="#E0A4-1q5k1ue" x="3779" y="1625" height="720px" width="720px" />
                        </g>
                        <g id="sh4rgae" class="stem">
                           <rect x="3987" y="995" height="602" width="18" />
                        </g>
                     </g>
                     <g id="n9no8bs" class="note">
                        <g class="notehead">
                           <use xlink:href="#E0A4-1q5k1ue" x="4578" y="1535" height="720px" width="720px" />
                        </g>
                        <g id="s1jhoe0a" class="stem">
                           <rect x="4786" y="905" height="602" width="18" />
                           <g id="f12osk4v" class="flag">
                              <use xlink:href="#E240-1q5k1ue" x="4786" y="905" height="720px" width="720px" />
                           </g>
                        </g>
                     </g>
                     <g id="n1ezr0v8" class="note">
                        <g class="notehead">
                           <use xlink:href="#E0A4-1q5k1ue" x="5098" y="1445" height="720px" width="720px" />
                        </g>
                        <g id="sa1uixi" class="stem">
                           <rect x="5098" y="1473" height="572" width="18" />
                        </g>
                        <g id="a3cba87" class="accid" />
                     </g>
                     <g id="n1c132e8" class="note">
                        <g class="notehead">
                           <use xlink:href="#E0A4-1q5k1ue" x="5897" y="1355" height="720px" width="720px" />
                        </g>
                        <g id="s10ku2nt" class="stem">
                           <rect x="5897" y="1383" height="602" width="18" />
                           <g id="f14ekriu" class="flag">
                              <use xlink:href="#E241-1q5k1ue" x="5897" y="1985" height="720px" width="720px" />
                           </g>
                        </g>
                     </g>
                  </g>
               </g>
               <g id="b1r0kn9s" class="barLine">
                  <path d="M6417 1085 L6417 1805" stroke="currentColor" stroke-width="27" />
               </g>
            </g>
            <g id="m1aopinb" class="measure">
               <g id="s1t98icy" class="staff">
                  <path d="M6430 1085 L9204 1085" stroke="currentColor" stroke-width="13" />
                  <path d="M6430 1265 L9204 1265" stroke="currentColor" stroke-width="13" />
                  <path d="M6430 1445 L9204 1445" stroke="currentColor" stroke-width="13" />
                  <path d="M6430 1625 L9204 1625" stroke="currentColor" stroke-width="13" />
                  <path d="M6430 1805 L9204 1805" stroke="currentColor" stroke-width="13" />
                  <g id="l1xext96" class="layer">
                     <g id="nmaxq0q" class="note">
                        <g class="notehead">
                           <use xlink:href="#E0A4-1q5k1ue" x="6609" y="1265" height="720px" width="720px" />
                        </g>
                        <g id="d19xjk8m" class="dots">
                           <ellipse cx="6925" cy="1175" rx="36" ry="36" />
                        </g>
                        <g id="s1awioac" class="stem">
                           <rect x="6609" y="1293" height="602" width="18" />
                        </g>
                     </g>
                     <g id="b1u7992l" class="beam">
                        <polygon points="7628,1850 8688,1850 8688,1760 7628,1760" />
                        <g id="nk0zur9" class="note">
                           <g class="notehead">
                              <use xlink:href="#E0A4-1q5k1ue" x="7628" y="1265" height="720px" width="720px" />
                           </g>
                           <g id="s1o9hkyl" class="stem">
                              <rect x="7628" y="1293" height="539" width="18" />
                           </g>
                        </g>
                        <g id="ndks0sd" class="note">
                           <g class="notehead">
                              <use xlink:href="#E0A4-1q5k1ue" x="8149" y="1265" height="720px" width="720px" />
                           </g>
                           <g id="scn6ft3" class="stem">
                              <rect x="8149" y="1293" height="539" width="18" />
                           </g>
                        </g>
                        <g id="niij1p1" class="note">
                           <g class="notehead">
                              <use xlink:href="#E0A4-1q5k1ue" x="8670" y="1265" height="720px" width="720px" />
                           </g>
                           <g id="srrus4h" class="stem">
                              <rect x="8670" y="1293" height="539" width="18" />
                           </g>
                        </g>
                     </g>
                  </g>
               </g>
               <g id="b1pnzw0p" class="barLine">
                  <path d="M9191 1085 L9191 1805" stroke="currentColor" stroke-width="27" />
               </g>
            </g>
            <g id="mwd3uc1" class="measure">
               <g id="s1udfjgp" class="staff">
                  <path d="M9204 1085 L12034 1085" stroke="currentColor" stroke-width="13" />
                  <path d="M9204 1265 L12034 1265" stroke="currentColor" stroke-width="13" />
                  <path d="M9204 1445 L12034 1445" stroke="currentColor" stroke-width="13" />
                  <path d="M9204 1625 L12034 1625" stroke="currentColor" stroke-width="13" />
                  <path d="M9204 1805 L12034 1805" stroke="currentColor" stroke-width="13" />
                  <g id="l7z77ev" class="layer">
                     <g id="nbkzvmk" class="note">
                        <g class="notehead">
                           <use xlink:href="#E0A4-1q5k1ue" x="9383" y="1175" height="720px" width="720px" />
                        </g>
                        <g id="snl5vkg" class="stem">
                           <rect x="9383" y="1203" height="602" width="18" />
                        </g>
                        <g id="avgix89" class="accid" />
                     </g>
                     <g id="n17hqtmh" class="note">
                        <g class="notehead">
                           <use xlink:href="#E0A4-1q5k1ue" x="10182" y="1265" height="720px" width="720px" />
                        </g>
                        <g id="s1rzh012" class="stem">
                           <rect x="10182" y="1293" height="602" width="18" />
                           <g id="f1hsf7u4" class="flag">
                              <use xlink:href="#E241-1q5k1ue" x="10182" y="1895" height="720px" width="720px" />
                           </g>
                        </g>
                     </g>
                     <g id="n3emx0z" class="note">
                        <g class="notehead">
                           <use xlink:href="#E0A4-1q5k1ue" x="10702" y="1355" height="720px" width="720px" />
                        </g>
                        <g id="s106nmy0" class="stem">
                           <rect x="10702" y="1383" height="602" width="18" />
                        </g>
                     </g>
                     <g id="n1vfv6ak" class="note">
                        <g class="notehead">
                           <use xlink:href="#E0A4-1q5k1ue" x="11501" y="1265" height="720px" width="720px" />
                        </g>
                        <g id="stuf2zk" class="stem">
                           <rect x="11501" y="1293" height="602" width="18" />
                           <g id="fzknely" class="flag">
                              <use xlink:href="#E241-1q5k1ue" x="11501" y="1895" height="720px" width="720px" />
                           </g>
                        </g>
                     </g>
                  </g>
               </g>
               <g id="bnvleth" class="barLine">
                  <path d="M12021 1085 L12021 1805" stroke="currentColor" stroke-width="27" />
               </g>
            </g>
            <g id="m5iv3ug" class="measure">
               <g id="s8xypmv" class="staff">
                  <path d="M12034 1085 L14930 1085" stroke="currentColor" stroke-width="13" />
                  <path d="M12034 1265 L14930 1265" stroke="currentColor" stroke-width="13" />
                  <path d="M12034 1445 L14930 1445" stroke="currentColor" stroke-width="13" />
                  <path d="M12034 1625 L14930 1625" stroke="currentColor" stroke-width="13" />
                  <path d="M12034 1805 L14930 1805" stroke="currentColor" stroke-width="13" />
                  <g id="mxdcguj" class="meterSig">
                     <use xlink:href="#E085-1q5k1ue" x="12119" y="1265" height="720px" width="720px" />
                     <use xlink:href="#E088-1q5k1ue" x="12117" y="1625" height="720px" width="720px" />
                  </g>
                  <g id="l1u6d5vu" class="layer">
                     <g id="n1dmcgfr" class="note">
                        <g class="notehead">
                           <use xlink:href="#E0A4-1q5k1ue" x="12571" y="1355" height="540px" width="540px" />
                        </g>
                        <g id="s1swc9bo" class="stem">
                           <rect x="12722" y="928" height="406" width="18" />
                           <g id="fq6e5qf" class="flag">
                              <use xlink:href="#E240-1q5k1ue" x="12722" y="928" height="540px" width="540px" />
                           </g>
                        </g>
                     </g>
                     <g id="nmd6axe" class="note">
                        <g class="notehead">
                           <use xlink:href="#E0A4-1q5k1ue" x="12938" y="1445" height="720px" width="720px" />
                        </g>
                        <g id="d10aoriw" class="dots">
                           <ellipse cx="13254" cy="1355" rx="36" ry="36" />
                        </g>
                        <g id="s1j7jpoh" class="stem">
                           <rect x="12938" y="1473" height="572" width="18" />
                        </g>
                        <g id="a1t7a6ri" class="accid" />
                     </g>
                     <g id="n1lp4hen" class="note">
                        <g class="notehead">
                           <use xlink:href="#E0A4-1q5k1ue" x="13957" y="1625" height="720px" width="720px" />
                        </g>
                        <g id="s7clghx" class="stem">
                           <rect x="14165" y="995" height="602" width="18" />
                        </g>
                     </g>
                  </g>
               </g>
               <g id="buyk704" class="barLine">
                  <path d="M14755 1085 L14755 1805" stroke="currentColor" stroke-width="27" />
                  <path d="M14885 1085 L14885 1805" stroke="currentColor" stroke-width="90" />
                  <use xlink:href="#E044-1q5k1ue" x="14638" y="1355" height="720px" width="720px" />
                  <use xlink:href="#E044-1q5k1ue" x="14638" y="1535" height="720px" width="720px" />
               </g>
            </g>
            <g id="m1np3t99" class="measure">
               <g id="s1dgkwo5" class="staff">
                  <path d="M14930 1085 L16474 1085" stroke="currentColor" stroke-width="13" />
                  <path d="M14930 1265 L16474 1265" stroke="currentColor" stroke-width="13" />
                  <path d="M14930 1445 L16474 1445" stroke="currentColor" stroke-width="13" />
                  <path d="M14930 1625 L16474 1625" stroke="currentColor" stroke-width="13" />
                  <path d="M14930 1805 L16474 1805" stroke="currentColor" stroke-width="13" />
                  <g id="mojx38x" class="meterSig">
                     <use xlink:href="#E081-1q5k1ue" x="15037" y="1265" height="720px" width="720px" />
                     <use xlink:href="#E088-1q5k1ue" x="15013" y="1625" height="720px" width="720px" />
                  </g>
                  <g id="l1ciig0s" class="layer">
                     <g id="n1q8itd3" class="note">
                        <g class="notehead">
                           <use xlink:href="#E0A4-1q5k1ue" x="15940" y="1355" height="720px" width="720px" />
                        </g>
                        <g id="s1c0haqt" class="stem">
                           <rect x="15940" y="1383" height="602" width="18" />
                           <g id="fkii99n" class="flag">
                              <use xlink:href="#E241-1q5k1ue" x="15940" y="1985" height="720px" width="720px" />
                           </g>
                        </g>
                     </g>
                  </g>
               </g>
               <g id="b77uqqa" class="barLine">
                  <path d="M15514 1085 L15514 1805" stroke="currentColor" stroke-width="90" />
                  <path d="M15644 1085 L15644 1805" stroke="currentColor" stroke-width="27" />
                  <use xlink:href="#E044-1q5k1ue" x="15690" y="1355" height="720px" width="720px" />
                  <use xlink:href="#E044-1q5k1ue" x="15690" y="1535" height="720px" width="720px" />
               </g>
               <g id="bt5adws" class="barLine">
                  <path d="M16461 1085 L16461 1805" stroke="currentColor" stroke-width="27" />
               </g>
            </g>
            <g id="mw3h3yh" class="measure">
               <g id="sca7of9" class="staff">
                  <path d="M16474 1085 L20003 1085" stroke="currentColor" stroke-width="13" />
                  <path d="M16474 1265 L20003 1265" stroke="currentColor" stroke-width="13" />
                  <path d="M16474 1445 L20003 1445" stroke="currentColor" stroke-width="13" />
                  <path d="M16474 1625 L20003 1625" stroke="currentColor" stroke-width="13" />
                  <path d="M16474 1805 L20003 1805" stroke="currentColor" stroke-width="13" />
                  <g id="mtetfza" class="meterSig">
                     <use xlink:href="#E086-1q5k1ue" x="16550" y="1265" height="720px" width="720px" />
                     <use xlink:href="#E088-1q5k1ue" x="16557" y="1625" height="720px" width="720px" />
                  </g>
                  <g id="l12c584b" class="layer">
                     <g id="n1d6tyhj" class="note">
                        <g class="notehead">
                           <use xlink:href="#E0A4-1q5k1ue" x="17108" y="1355" height="720px" width="720px" />
                        </g>
                        <g id="s1ve1wf2" class="stem">
                           <rect x="17108" y="1383" height="602" width="18" />
                        </g>
                     </g>
                     <g id="n1sx1ec3" class="note">
                        <g class="notehead">
                           <use xlink:href="#E0A4-1q5k1ue" x="17907" y="1445" height="720px" width="720px" />
                        </g>
                        <g id="s1ms4mmi" class="stem">
                           <rect x="17907" y="1473" height="572" width="18" />
                           <g id="f1kd04zc" class="flag">
                              <use xlink:href="#E241-1q5k1ue" x="17907" y="2045" height="720px" width="720px" />
                           </g>
                        </g>
                        <g id="a13d4lz4" class="accid" />
                     </g>
                     <g id="b12mgm52" class="beam">
                        <polygon points="18427,1985 19487,1985 19487,1895 18427,1895" />
                        <g id="n16d393f" class="note">
                           <g class="notehead">
                              <use xlink:href="#E0A4-1q5k1ue" x="18427" y="1355" height="720px" width="720px" />
                           </g>
                           <g id="s1oh5npx" class="stem">
                              <rect x="18427" y="1383" height="584" width="18" />
                           </g>
                        </g>
                        <g id="n12jcmnn" class="note">
                           <g class="notehead">
                              <use xlink:href="#E0A4-1q5k1ue" x="18948" y="1355" height="720px" width="720px" />
                           </g>
                           <g id="s1xobr9n" class="stem">
                              <rect x="18948" y="1383" height="584" width="18" />
                           </g>
                        </g>
                        <g id="n11lxbbl" class="note">
                           <g class="notehead">
                              <use xlink:href="#E0A4-1q5k1ue" x="19469" y="1265" height="720px" width="720px" />
                           </g>
                           <g id="sryedvv" class="stem">
                              <rect x="19469" y="1293" height="674" width="18" />
                           </g>
                        </g>
                     </g>
                  </g>
               </g>
               <g id="b14wqd8t" class="barLine">
                  <path d="M19990 1085 L19990 1805" stroke="currentColor" stroke-width="27" />
               </g>
            </g>
         </g>
         <g id="s1vqglll" class="system">
            <g id="l6yjepj" class="labelAbbr">
               <text x="914" y="3884" text-anchor="end" font-size="0px">
                  <tspan id="t17vso99" class="text">
                     <tspan font-size="405px" class="text">Pno.</tspan>
                  </tspan>
               </text>
            </g>
            <g id="m1dwc6no" class="measure">
               <g id="m1w7v1ue" class="mNum autogenerated">
                  <text x="1094" y="3191" text-anchor="middle" font-size="0px">
                     <tspan id="t10eu8yv" class="text">
                        <tspan font-size="324px" class="text">7</tspan>
                     </tspan>
                  </text>
               </g>
               <g id="soc908o" class="staff">
                  <path d="M1094 3434 L5333 3434" stroke="currentColor" stroke-width="13" />
                  <path d="M1094 3614 L5333 3614" stroke="currentColor" stroke-width="13" />
                  <path d="M1094 3794 L5333 3794" stroke="currentColor" stroke-width="13" />
                  <path d="M1094 3974 L5333 3974" stroke="currentColor" stroke-width="13" />
                  <path d="M1094 4154 L5333 4154" stroke="currentColor" stroke-width="13" />
                  <g id="cueng1l" class="clef">
                     <use xlink:href="#E050-1q5k1ue" x="1184" y="3974" height="720px" width="720px" />
                  </g>
                  <g id="k1refj6e" class="keySig">
                     <g id="kuc3fzw" class="keyAccid">
                        <use xlink:href="#E260-1q5k1ue" x="1829" y="3794" height="720px" width="720px" />
                     </g>
                     <g id="k1h0918t" class="keyAccid">
                        <use xlink:href="#E260-1q5k1ue" x="2009" y="3524" height="720px" width="720px" />
                     </g>
                  </g>
                  <g id="l1aq3gpa" class="layer">
                     <g id="n1bixf60" class="note">
                        <g class="notehead">
                           <use xlink:href="#E0A4-1q5k1ue" x="2421" y="3794" height="720px" width="720px" />
                        </g>
                        <g id="s1bnu1e9" class="stem">
                           <rect x="2421" y="3822" height="572" width="18" />
                        </g>
                        <g id="a1686if0" class="accid" />
                     </g>
                     <g id="nae2ao6" class="note">
                        <g class="notehead">
                           <use xlink:href="#E0A4-1q5k1ue" x="3224" y="3884" height="720px" width="720px" />
                        </g>
                        <g id="s71r44u" class="stem">
                           <rect x="3432" y="3254" height="602" width="18" />
                           <g id="f1ni0up9" class="flag">
                              <use xlink:href="#E240-1q5k1ue" x="3432" y="3254" height="720px" width="720px" />
                           </g>
                        </g>
                     </g>
                     <g id="b1wral69" class="beam">
                        <polygon points="3956,3389 5022,3209 5022,3299 3956,3479" />
                        <g id="np58mp8" class="note">
                           <g class="notehead">
                              <use xlink:href="#E0A4-1q5k1ue" x="3748" y="3974" height="720px" width="720px" />
                           </g>
                           <g id="sihgfhn" class="stem">
                              <rect x="3956" y="3407" height="539" width="18" />
                           </g>
                        </g>
                        <g id="nxmxw3d" class="note">
                           <g class="notehead">
                              <use xlink:href="#E0A4-1q5k1ue" x="4272" y="3884" height="720px" width="720px" />
                           </g>
                           <g id="saimcy2" class="stem">
                              <rect x="4480" y="3317" height="539" width="18" />
                           </g>
                        </g>
                        <g id="nz8oqdz" class="note">
                           <g class="notehead">
                              <use xlink:href="#E0A4-1q5k1ue" x="4796" y="3794" height="720px" width="720px" />
                           </g>
                           <g id="s13nuez6" class="stem">
                              <rect x="5004" y="3227" height="539" width="18" />
                           </g>
                           <g id="a1ntat6u" class="accid" />
                        </g>
                     </g>
                  </g>
               </g>
               <g id="b1isez1p" class="barLine">
                  <path d="M5320 3434 L5320 4154" stroke="currentColor" stroke-width="27" />
               </g>
            </g>
            <g id="smmo5sh" class="sb" />
            <g id="md89x2" class="measure">
               <g id="sfeoux9" class="staff">
                  <path d="M5333 3434 L8425 3434" stroke="currentColor" stroke-width="13" />
                  <path d="M5333 3614 L8425 3614" stroke="currentColor" stroke-width="13" />
                  <path d="M5333 3794 L8425 3794" stroke="currentColor" stroke-width="13" />
                  <path d="M5333 3974 L8425 3974" stroke="currentColor" stroke-width="13" />
                  <path d="M5333 4154 L8425 4154" stroke="currentColor" stroke-width="13" />
                  <g id="l1e15cfe" class="layer">
                     <g id="nflv4o9" class="note">
                        <g class="notehead">
                           <use xlink:href="#E0A4-1q5k1ue" x="5513" y="3704" height="720px" width="720px" />
                        </g>
                        <g id="s1y1o6ox" class="stem">
                           <rect x="5513" y="3732" height="602" width="18" />
                        </g>
                     </g>
                     <g id="n1ea9q2g" class="note">
                        <g class="notehead">
                           <use xlink:href="#E0A4-1q5k1ue" x="6316" y="3794" height="720px" width="720px" />
                        </g>
                        <g id="s1bzpfs3" class="stem">
                           <rect x="6316" y="3822" height="572" width="18" />
                           <g id="f1axwss6" class="flag">
                              <use xlink:href="#E241-1q5k1ue" x="6316" y="4394" height="720px" width="720px" />
                           </g>
                        </g>
                        <g id="a1rznszf" class="accid" />
                     </g>
                     <g id="b15ma02k" class="beam">
                        <polygon points="6840,4334 7906,4334 7906,4244 6840,4244" />
                        <g id="n9g0wxs" class="note">
                           <g class="notehead">
                              <use xlink:href="#E0A4-1q5k1ue" x="6840" y="3704" height="720px" width="720px" />
                           </g>
                           <g id="s17hx6kn" class="stem">
                              <rect x="6840" y="3732" height="584" width="18" />
                           </g>
                        </g>
                        <g id="n10vqohm" class="note">
                           <g class="notehead">
                              <use xlink:href="#E0A4-1q5k1ue" x="7364" y="3704" height="720px" width="720px" />
                           </g>
                           <g id="spdy3fs" class="stem">
                              <rect x="7364" y="3732" height="584" width="18" />
                           </g>
                        </g>
                        <g id="n1hep31v" class="note">
                           <g class="notehead">
                              <use xlink:href="#E0A4-1q5k1ue" x="7888" y="3614" height="720px" width="720px" />
                           </g>
                           <g id="s1udag47" class="stem">
                              <rect x="7888" y="3642" height="674" width="18" />
                           </g>
                        </g>
                     </g>
                  </g>
               </g>
               <g id="b1yxh6hx" class="barLine">
                  <path d="M8412 3434 L8412 4154" stroke="currentColor" stroke-width="27" />
               </g>
            </g>
            <g id="m1jrvj0y" class="measure">
               <g id="s4kkoea" class="staff">
                  <path d="M8425 3434 L11359 3434" stroke="currentColor" stroke-width="13" />
                  <path d="M8425 3614 L11359 3614" stroke="currentColor" stroke-width="13" />
                  <path d="M8425 3794 L11359 3794" stroke="currentColor" stroke-width="13" />
                  <path d="M8425 3974 L11359 3974" stroke="currentColor" stroke-width="13" />
                  <path d="M8425 4154 L11359 4154" stroke="currentColor" stroke-width="13" />
                  <g id="m10xj1ox" class="meterSig">
                     <use xlink:href="#E085-1q5k1ue" x="8510" y="3614" height="720px" width="720px" />
                     <use xlink:href="#E088-1q5k1ue" x="8508" y="3974" height="720px" width="720px" />
                  </g>
                  <g id="lts2lbb" class="layer">
                     <g id="n1n8b1oc" class="note">
                        <g class="notehead">
                           <use xlink:href="#E0A4-1q5k1ue" x="9054" y="3794" height="720px" width="720px" />
                        </g>
                        <g id="s10k4bmz" class="stem">
                           <rect x="9054" y="3822" height="572" width="18" />
                        </g>
                        <g id="a1ll2ahx" class="accid" />
                     </g>
                     <g id="n17ypsev" class="note">
                        <g class="notehead">
                           <use xlink:href="#E0A4-1q5k1ue" x="9857" y="3884" height="720px" width="720px" />
                        </g>
                        <g id="sbksqvs" class="stem">
                           <rect x="10065" y="3254" height="602" width="18" />
                           <g id="f1laem10" class="flag">
                              <use xlink:href="#E240-1q5k1ue" x="10065" y="3254" height="720px" width="720px" />
                           </g>
                        </g>
                     </g>
                     <g id="n1vg4ji8" class="note">
                        <g class="notehead">
                           <use xlink:href="#E0A4-1q5k1ue" x="10381" y="3974" height="720px" width="720px" />
                        </g>
                        <g id="snsuqhb" class="stem">
                           <rect x="10589" y="3344" height="602" width="18" />
                        </g>
                     </g>
                  </g>
               </g>
               <g id="bhcr2w8" class="barLine">
                  <path d="M11184 3434 L11184 4154" stroke="currentColor" stroke-width="27" />
                  <path d="M11314 3434 L11314 4154" stroke="currentColor" stroke-width="90" />
               </g>
            </g>
            <g id="s3ofqvl" class="systemMilestoneEnd sri2et8" />
         </g>
         <g id="p1tkh4es" class="pageMilestoneEnd si3yu4y" />
         <g id="p1myc0mv" class="pageMilestoneEnd mgnrqwm" />
         <g id="p13a8hw8" class="pgHead">
            <text x="0" y="0" font-size="0px">
               <tspan id="r1bzo5pp" class="rend" x="10000" y="277" text-anchor="middle">
                  <tspan id="thymnmi" class="text">
                     <tspan font-size="405px" class="text">Air n 131</tspan>
                  </tspan>
               </tspan>
            </text>
         </g>
         <g id="po9acs" class="pgFoot autogenerated">
            <g id="f1suegih" class="fig">
               <g id="s8iz77k" class="svg" transform="translate(7750, 28099) scale(10, 10)">
                  <g>
                     <path fill="#00000" d="M 17.11278,49.26451 V 10.367554 h 12.696511 c 3.288815,7.336676 6.71267,14.610456 10.127281,21.888976 3.419998,-7.484684 6.255515,-14.204887 9.58887,-21.909915 2.436207,0.103726 4.316952,0.08453 6.484294,-0.05808 V 49.264423 H 50.274275 C 50.145222,38.35639 50.016136,27.448368 49.887066,16.540329 45.003488,27.315459 39.967448,38.433564 35.083854,49.208695 34.678996,49.343717 34.426583,49.135619 34.021726,49.270644 29.46588,39.330716 24.910049,29.390805 20.354201,19.450876 20.224341,29.388756 20.09461,39.326619 19.964815,49.264497 H 17.11278 Z M 36.754144,39.324695 C 32.721221,30.512695 28.6883,21.700679 24.655394,12.888662 22.530527,12.750737 22.656775,12.71031 20.714356,12.813974 v 0.966497 c 4.612938,9.99784 9.609439,20.748709 13.87298,30.081745 0.722248,-1.512523 1.444528,-3.025014 2.166808,-4.537521 z m 25.738417,9.939815 c 0,-12.965651 0,-25.931305 0,-38.896956 10.084388,0 20.168791,0 30.253178,0 0,0.960416 0,1.920849 0,2.881265 -6.482825,0 -12.965652,0 -19.448478,0 0,4.802097 0,9.604178 0,14.406277 5.52241,0 11.044819,0 16.567229,0 0,0.960415 0,1.920832 0,2.881248 -5.52241,0 -11.044819,0 -16.567229,0 0,5.282306 0,10.564611 0,15.846917 6.963035,0 13.926068,0 20.889103,0 0,0.960416 0,1.920832 0,2.881249 -10.564597,0 -21.129207,0 -31.693803,0 z m 4.321874,-2.160937 c 0,-11.765131 0,-23.530263 0,-35.295394 -0.720312,0 -1.440625,0 -2.160937,0 0,11.765131 0,23.530263 0,35.295394 0.720312,0 1.440625,0 2.160937,0 z m 32.41413,2.160937 c 0,-12.965651 0,-25.931305 0,-38.896956 2.401045,0 4.802095,0 7.203135,0 0,12.965651 0,25.931305 0,38.896956 -2.40104,0 -4.80209,0 -7.203135,0 z m 2.881265,-2.160937 c 0,-11.765131 0,-23.530263 0,-35.295394 -0.72031,0 -1.44064,0 -2.160953,0 0,11.765131 0,23.530263 0,35.295394 0.720313,0 1.440643,0 2.160953,0 z" />
                     <path fill="#00000" d="m 346.3,6.7 c -3.1,0.5 -4.9,4.4 -2.7,6.8 1.2,1.4 2.7,2.4 4.1,3.5 -2.4,5.3 -7.7,8.3 -11.9,12.1 -3.7,2.8 -7,6.2 -9.7,9.9 -2.2,-0.8 -0.3,-6.8 -0.6,-9.5 0.1,-3.1 0.7,-6.4 2.9,-8.7 1.3,-1.9 3,-3.5 4.5,-5.2 1.2,-3.4 -3.2,-4.9 -5.8,-4.6 -7.3,-0.5 -14.6,2 -20,6.8 -5,4.6 -10,10.1 -11.5,17 -0.9,3.5 -0.2,7.5 2.8,9.9 2.5,2.8 7.4,2.9 9.8,-0.2 1.7,-2.3 3.2,-4.8 3.8,-7.6 -0.1,-2.6 -4.4,-2.3 -4.3,0.2 1.2,2.4 -0.9,4.7 -2.7,6.2 -1.7,0.9 -4.7,0.7 -4.8,-1.7 -1,-5.8 2.1,-11.3 5.2,-16.1 4,-5.8 9.8,-11.2 17.2,-11.8 1.6,0 8.1,-1.2 6.8,1.4 -2.8,2.8 -5.6,6.1 -6,10.3 -1.6,7.7 0.1,15.7 -2.3,23.2 -1.1,3.9 2,2.6 2.5,0.2 3.3,-7.4 8.9,-13.4 15.1,-18.5 4.2,-3.9 9.5,-7.1 11.9,-12.6 1.3,-3.6 1.2,-9 -2.7,-10.9 -0.6,-0.2 -1.2,-0.3 -1.8,-0.3 z m 66,14.5 c -2,0.8 -1.8,4.9 0.8,4.4 3.4,0.4 2.9,-6.2 -0.8,-4.4 z m 0.6,7.3 c -1.3,0.5 -7.6,0.5 -5.4,2.2 4,-0.3 0.7,4.5 0.6,6.7 -0.4,2.9 -2.4,5.9 -1.2,8.8 2.7,1.7 5.6,-0.8 6.8,-3.2 1.6,-1.4 -0.5,-3 -1.2,-0.9 -0.4,0.8 -2.4,3.5 -2.6,1.8 1.1,-5 2.7,-9.9 3.9,-14.9 l -0.1,-0.5 h -0.9 z m -65.1,0.2 c -6.5,1.6 -10.5,9.5 -8.2,15.7 2.1,3.4 7.4,2.9 10.1,0.4 2,-0.2 3.6,-5.3 1,-3.4 -1.4,2 -4,4.2 -6.5,2.8 -2.2,-1.9 -1.9,-5.7 1.7,-5.3 3.1,-0.9 6.9,-2.1 8.1,-5.5 0.9,-2.7 -1.6,-5.2 -4.3,-4.8 h -1.1 -0.7 z m 13.6,0 c -2.2,0 -8.5,1.8 -2.9,2.3 0.9,1.9 -1,4.9 -1.1,7.2 -0.5,2.9 -1.4,5.7 -1.7,8.7 3.7,0.7 3.8,-2.6 4.4,-5.3 0.9,-3.3 1.6,-7 4.1,-9.5 2.4,1.6 6.8,-0.7 3.7,-3.4 -2.9,-0.5 -4.8,2.4 -6.2,4.3 0,-1.2 2.4,-5 -0.2,-4.3 z m 15.8,0 c -6.4,1.3 -9.6,9.1 -7.7,14.9 1.9,4 7.7,3.9 11,1.7 4.1,-3 6,-8.9 4.4,-13.7 -1.3,-3 -4.8,-3.2 -7.6,-3 z m 17,0 c -2.3,0 -8.8,1.9 -3,2.4 0.4,2.5 -1,5.7 -1.4,8.4 -0.7,2.4 -1.8,7.5 2.1,7.2 3.8,-0.1 6.5,-3.5 8.5,-6.3 2,-3.2 4.5,-7 3.3,-10.9 -3.7,-3 -3.6,2.6 -3.1,5.1 -0.7,3.8 -2.7,7.9 -6.2,9.8 -3.6,0.6 -1,-4.3 -0.8,-6.1 0.6,-3.2 1.6,-6.3 1.9,-9.5 -0.4,0 -0.8,0 -1.1,0 z m 30.6,0 c -6.3,1.2 -9.5,8.9 -7.8,14.7 1.5,4 7.2,4.2 10.5,2.4 4.6,-2.8 6.6,-9.3 4.8,-14.3 -1.4,-2.8 -4.8,-3 -7.5,-2.8 z m -75.4,1.7 c 2.1,1.5 0.2,4.7 -1.6,5.7 -1.1,0.4 -5.5,3.4 -4.6,0.7 0.8,-2.7 2.2,-6.2 5.3,-6.6 l 0.9,0.1 z m 30.8,0 c 2.6,1.5 1.3,5.2 0.8,7.6 -0.8,2.7 -1.9,5.9 -4.7,7.1 -5.1,0.8 -4,-5.8 -2.8,-8.8 1,-2.8 3,-6.8 6.7,-5.8 z m 47.1,-0.1 c 2.9,0.7 2,4.7 1.5,6.8 -0.7,3 -1.8,6.7 -5,8 -4.7,0.8 -4,-5.1 -3,-7.9 0.9,-3 2.7,-7.3 6.5,-6.8 z m -88.1,5.9 c -0.3,1.3 0.9,-0.6 0,0 z m -1.1,2.4 c -0.2,0.5 0.5,-0.1 0,0 z m -1.3,4.5 c -0.3,1.3 0.8,-0.2 0,0 z" />
                     <text y="41" x="201" fill="#00000" style="font-style:italic;font-weight:normal;font-size:30px;line-height:125%;font-family:Times;text-anchor:middle" xml:space="preserve">engraved with</text>
                  </g>
               </g>
            </g>
         </g>
      </g>
   </svg>
</svg>
