<?xml version="1.0" encoding="UTF-8" standalone="no"?>
<svg width="2100px" height="2970px" version="1.1" xmlns="http://www.w3.org/2000/svg" xmlns:xlink="http://www.w3.org/1999/xlink" xmlns:mei="http://www.music-encoding.org/ns/mei" overflow="visible">
   <desc>Engraved by Verovio 3.13.1</desc>
   <defs>
      <symbol id="E044-az0y0r" viewBox="0 0 1000 1000" overflow="inherit">
         <path transform="scale(1,-1)" d="M0 0c0 28 22 50 50 50s50 -22 50 -50s-22 -50 -50 -50s-50 22 -50 50z" />
      </symbol>
      <symbol id="E050-az0y0r" viewBox="0 0 1000 1000" overflow="inherit">
         <path transform="scale(1,-1)" d="M441 -245c-23 -4 -48 -6 -76 -6c-59 0 -102 7 -130 20c-88 42 -150 93 -187 154c-26 44 -43 103 -48 176c0 6 -1 13 -1 19c0 54 15 111 45 170c29 57 65 106 110 148s96 85 153 127c-3 16 -8 46 -13 92c-4 43 -5 73 -5 89c0 117 16 172 69 257c34 54 64 82 89 82 c21 0 43 -30 69 -92s39 -115 41 -159v-15c0 -109 -21 -162 -67 -241c-13 -20 -63 -90 -98 -118c-13 -9 -25 -19 -37 -29l31 -181c8 1 18 2 28 2c58 0 102 -12 133 -35c59 -43 92 -104 98 -184c1 -7 1 -15 1 -22c0 -123 -87 -209 -181 -248c8 -57 17 -110 25 -162 c5 -31 6 -58 6 -80c0 -30 -5 -53 -14 -70c-35 -64 -88 -99 -158 -103c-5 0 -11 -1 -16 -1c-37 0 -72 10 -108 27c-50 24 -77 59 -80 105v11c0 29 7 55 20 76c18 28 45 42 79 44h6c49 0 93 -42 97 -87v-9c0 -51 -34 -86 -105 -106c17 -24 51 -36 102 -36c62 0 116 43 140 85 c9 16 13 41 13 74c0 20 -1 42 -5 67c-8 53 -18 106 -26 159zM461 939c-95 0 -135 -175 -135 -286c0 -24 2 -48 5 -71c50 39 92 82 127 128c40 53 60 100 60 140v8c-4 53 -22 81 -55 81h-2zM406 119l54 -326c73 25 110 78 110 161c0 7 0 15 -1 23c-7 95 -57 142 -151 142h-12 zM382 117c-72 -2 -128 -47 -128 -120v-7c2 -46 43 -99 75 -115c-3 -2 -7 -5 -10 -10c-70 33 -116 88 -123 172v11c0 68 44 126 88 159c23 17 49 29 78 36l-29 170c-21 -13 -52 -37 -92 -73c-50 -44 -86 -84 -109 -119c-45 -69 -67 -130 -67 -182v-13c5 -68 35 -127 93 -176 s125 -73 203 -73c25 0 50 3 75 9c-19 111 -36 221 -54 331z" />
      </symbol>
      <symbol id="E086-az0y0r" viewBox="0 0 1000 1000" overflow="inherit">
         <path transform="scale(1,-1)" d="M284 -91c0 37 -28 92 -67 92c-35 0 -65 -54 -65 -111c0 -52 22 -104 68 -104c47 0 64 68 64 123zM230 214c-36 0 -90 -33 -90 -184l2 -36c40 24 81 36 120 36c80 0 140 -48 140 -121c0 -99 -99 -159 -182 -159c-160 0 -200 173 -200 244c0 21 2 43 7 71l10 35 c26 85 73 115 98 126c41 19 74 24 103 24c93 0 142 -63 142 -105c0 -58 -52 -72 -73 -72c-33 0 -59 24 -65 35c-3 5 -6 14 -7 25l11 30c6 15 9 27 9 35c0 11 -9 16 -25 16z" />
      </symbol>
      <symbol id="E088-az0y0r" viewBox="0 0 1000 1000" overflow="inherit">
         <path transform="scale(1,-1)" d="M195 -214c76 0 88 58 90 68c0 34 -35 60 -57 73l-52 29c-21 10 -32 17 -34 20c-39 -33 -58 -54 -62 -92c5 -23 23 -98 115 -98zM301 135c0 61 -72 76 -113 76c-40 0 -77 -17 -77 -51c3 -21 15 -38 26 -50c17 -15 33 -26 48 -34l65 -28c34 27 51 56 51 87zM176 -250 c-57 0 -166 26 -166 132c0 47 30 86 89 116c-33 15 -79 60 -79 119c0 79 85 132 178 132h18c5 0 21 1 28 -1c25 0 126 -30 126 -110c0 -37 -23 -76 -69 -116c43 -25 83 -71 83 -119c0 -101 -118 -153 -208 -153z" />
      </symbol>
      <symbol id="E0A4-az0y0r" viewBox="0 0 1000 1000" overflow="inherit">
         <path transform="scale(1,-1)" d="M0 -39c0 68 73 172 200 172c66 0 114 -37 114 -95c0 -84 -106 -171 -218 -171c-64 0 -96 30 -96 94z" />
      </symbol>
      <symbol id="E240-az0y0r" viewBox="0 0 1000 1000" overflow="inherit">
         <path transform="scale(1,-1)" d="M179 -646c15 29 29 55 46 102c18 49 30 108 30 138c0 105 -80 173 -168 200c-18 5 -47 9 -87 16v190h22c8 0 33 -61 71 -95c4 -3 -2 3 61 -56c62 -58 122 -137 122 -241c0 -38 -13 -106 -35 -163c-20 -51 -43 -99 -66 -132c-6 -5 -10 -7 -13 -7s-5 2 -5 5l4 10 c1 3 14 25 18 33z" />
      </symbol>
      <symbol id="E241-az0y0r" viewBox="0 0 1000 1000" overflow="inherit">
         <path transform="scale(1,-1)" d="M179 646c-4 8 -17 30 -18 33l-4 10c0 3 2 5 5 5s7 -2 13 -7c23 -33 46 -81 66 -132c22 -57 35 -125 35 -163c0 -104 -60 -183 -122 -241c-63 -59 -57 -53 -61 -56c-38 -34 -63 -95 -71 -95h-22v190c40 7 69 11 87 16c88 27 168 95 168 200c0 30 -12 89 -30 138 c-17 47 -31 73 -46 102z" />
      </symbol>
      <symbol id="E260-az0y0r" viewBox="0 0 1000 1000" overflow="inherit">
         <path transform="scale(1,-1)" d="M20 110c32 16 54 27 93 27c26 0 35 -3 54 -13c13 -7 24 -20 27 -38l4 -25c0 -28 -16 -57 -45 -89c-23 -25 -39 -44 -65 -68l-88 -79v644h20v-359zM90 106c-32 0 -48 -10 -70 -29v-194c31 31 54 59 71 84c21 32 32 59 32 84c0 9 1 16 1 20c0 14 -3 21 -11 30l-8 3z" />
      </symbol>
   </defs>
   <style type="text/css">g.page-margin{font-family:Times;} g.ending, g.fing, g.reh, g.tempo{font-weight:bold;} g.dir, g.dynam, g.mNum{font-style:italic;} g.label{font-weight:normal;}</style>
   <svg class="definition-scale" color="black" viewBox="0 0 21000 29700">
      <g class="page-margin" transform="translate(500, 500)">
         <g id="m3f0bak" class="mdiv pageMilestone" />
         <g id="s1wl4otl" class="score pageMilestone" />
         <g id="s831lj5" class="system">
            <g id="l12dzhpj" class="label">
               <text x="1105" y="1535" text-anchor="end" font-size="0px">
                  <tspan id="t1jux3wv" class="text">
                     <tspan font-size="405px" class="text">Piano</tspan>
                  </tspan>
               </text>
            </g>
            <g id="sunqj8r" class="section systemMilestone" />
            <g id="prhgoer" class="pb" />
            <g id="mek3yu7" class="measure">
               <g id="sf7kfaa" class="staff">
                  <path d="M1285 1085 L6084 1085" stroke="currentColor" stroke-width="13" />
                  <path d="M1285 1265 L6084 1265" stroke="currentColor" stroke-width="13" />
                  <path d="M1285 1445 L6084 1445" stroke="currentColor" stroke-width="13" />
                  <path d="M1285 1625 L6084 1625" stroke="currentColor" stroke-width="13" />
                  <path d="M1285 1805 L6084 1805" stroke="currentColor" stroke-width="13" />
                  <g id="c1k9sa7w" class="clef">
                     <use xlink:href="#E050-az0y0r" x="1375" y="1625" height="720px" width="720px" />
                  </g>
                  <g id="k1up8qaz" class="keySig">
                     <g id="k1fhuimt" class="keyAccid">
                        <use xlink:href="#E260-az0y0r" x="2020" y="1445" height="720px" width="720px" />
                     </g>
                     <g id="kyub76b" class="keyAccid">
                        <use xlink:href="#E260-az0y0r" x="2200" y="1175" height="720px" width="720px" />
                     </g>
                  </g>
                  <g id="m1ax2l6u" class="meterSig">
                     <use xlink:href="#E086-az0y0r" x="2508" y="1265" height="720px" width="720px" />
                     <use xlink:href="#E088-az0y0r" x="2515" y="1625" height="720px" width="720px" />
                  </g>
                  <g id="l115hn86" class="layer">
                     <g id="n1oezu97" class="note">
                        <g class="notehead">
                           <use xlink:href="#E0A4-az0y0r" x="3068" y="1625" height="720px" width="720px" />
                        </g>
                        <g id="srgf806" class="stem">
                           <rect x="3276" y="995" height="602" width="18" />
                        </g>
                     </g>
                     <g id="numj1kb" class="note">
                        <g class="notehead">
                           <use xlink:href="#E0A4-az0y0r" x="3976" y="1625" height="720px" width="720px" />
                        </g>
                        <g id="s1eiq57a" class="stem">
                           <rect x="4184" y="995" height="602" width="18" />
                           <g id="f50l6ed" class="flag">
                              <use xlink:href="#E240-az0y0r" x="4184" y="995" height="720px" width="720px" />
                           </g>
                        </g>
                     </g>
                     <g id="nrpqvpy" class="note">
                        <g class="notehead">
                           <use xlink:href="#E0A4-az0y0r" x="4569" y="1265" height="720px" width="720px" />
                        </g>
                        <g id="s20bklu" class="stem">
                           <rect x="4569" y="1293" height="602" width="18" />
                        </g>
                     </g>
                     <g id="nnsyry4" class="note">
                        <g class="notehead">
                           <use xlink:href="#E0A4-az0y0r" x="5478" y="1445" height="720px" width="720px" />
                        </g>
                        <g id="smce7bs" class="stem">
                           <rect x="5478" y="1473" height="572" width="18" />
                           <g id="f13mj1h1" class="flag">
                              <use xlink:href="#E241-az0y0r" x="5478" y="2045" height="720px" width="720px" />
                           </g>
                        </g>
                        <g id="a12j9bkp" class="accid" />
                     </g>
                  </g>
               </g>
               <g id="b1axrn5s" class="barLine">
                  <path d="M6071 1085 L6071 1805" stroke="currentColor" stroke-width="27" />
               </g>
            </g>
            <g id="m1isbd7w" class="measure">
               <g id="s1lu6lem" class="staff">
                  <path d="M6084 1085 L9836 1085" stroke="currentColor" stroke-width="13" />
                  <path d="M6084 1265 L9836 1265" stroke="currentColor" stroke-width="13" />
                  <path d="M6084 1445 L9836 1445" stroke="currentColor" stroke-width="13" />
                  <path d="M6084 1625 L9836 1625" stroke="currentColor" stroke-width="13" />
                  <path d="M6084 1805 L9836 1805" stroke="currentColor" stroke-width="13" />
                  <g id="lbflcyo" class="layer">
                     <g id="b1y5801m" class="beam">
                        <polygon points="6473,950 7677,860 7677,950 6473,1040" />
                        <g id="n1pud8f8" class="note">
                           <g class="notehead">
                              <use xlink:href="#E0A4-az0y0r" x="6265" y="1535" height="720px" width="720px" />
                           </g>
                           <g id="s19ghjf5" class="stem">
                              <rect x="6473" y="968" height="539" width="18" />
                           </g>
                        </g>
                        <g id="n32q0no" class="note">
                           <g class="notehead">
                              <use xlink:href="#E0A4-az0y0r" x="6858" y="1625" height="720px" width="720px" />
                           </g>
                           <g id="s1lc2p5v" class="stem">
                              <rect x="7066" y="923" height="674" width="18" />
                           </g>
                        </g>
                        <g id="n17ren5d" class="note">
                           <g class="notehead">
                              <use xlink:href="#E0A4-az0y0r" x="7451" y="1445" height="720px" width="720px" />
                           </g>
                           <g id="s1ig08jc" class="stem">
                              <rect x="7659" y="878" height="539" width="18" />
                           </g>
                           <g id="a16v4ol" class="accid" />
                        </g>
                     </g>
                     <g id="b1h83gau" class="beam">
                        <polygon points="8252,905 9456,905 9456,995 8252,995" />
                        <g id="new0b45" class="note">
                           <g class="notehead">
                              <use xlink:href="#E0A4-az0y0r" x="8044" y="1535" height="720px" width="720px" />
                           </g>
                           <g id="si760kd" class="stem">
                              <rect x="8252" y="923" height="584" width="18" />
                           </g>
                        </g>
                        <g id="n1hgv4we" class="note">
                           <g class="notehead">
                              <use xlink:href="#E0A4-az0y0r" x="8637" y="1625" height="720px" width="720px" />
                           </g>
                           <g id="s1mqx0yb" class="stem">
                              <rect x="8845" y="923" height="674" width="18" />
                           </g>
                        </g>
                        <g id="nd4jejp" class="note">
                           <g class="notehead">
                              <use xlink:href="#E0A4-az0y0r" x="9230" y="1535" height="720px" width="720px" />
                           </g>
                           <g id="s1ds8pnt" class="stem">
                              <rect x="9438" y="923" height="584" width="18" />
                           </g>
                        </g>
                     </g>
                  </g>
               </g>
               <g id="b55xup7" class="barLine">
                  <path d="M9823 1085 L9823 1805" stroke="currentColor" stroke-width="27" />
               </g>
            </g>
            <g id="m19vf93r" class="measure">
               <g id="sjmxgw7" class="staff">
                  <path d="M9836 1085 L13033 1085" stroke="currentColor" stroke-width="13" />
                  <path d="M9836 1265 L13033 1265" stroke="currentColor" stroke-width="13" />
                  <path d="M9836 1445 L13033 1445" stroke="currentColor" stroke-width="13" />
                  <path d="M9836 1625 L13033 1625" stroke="currentColor" stroke-width="13" />
                  <path d="M9836 1805 L13033 1805" stroke="currentColor" stroke-width="13" />
                  <g id="lx6nrju" class="layer">
                     <g id="nk3p33f" class="note">
                        <g class="notehead">
                           <use xlink:href="#E0A4-az0y0r" x="10017" y="1625" height="720px" width="720px" />
                        </g>
                        <g id="s8qxjhl" class="stem">
                           <rect x="10225" y="995" height="602" width="18" />
                        </g>
                     </g>
                     <g id="n99iwpn" class="note">
                        <g class="notehead">
                           <use xlink:href="#E0A4-az0y0r" x="10925" y="1625" height="720px" width="720px" />
                        </g>
                        <g id="sv8xn1b" class="stem">
                           <rect x="11133" y="995" height="602" width="18" />
                           <g id="f1anicno" class="flag">
                              <use xlink:href="#E240-az0y0r" x="11133" y="995" height="720px" width="720px" />
                           </g>
                        </g>
                     </g>
                     <g id="ngmc4cd" class="note">
                        <g class="notehead">
                           <use xlink:href="#E0A4-az0y0r" x="11518" y="1265" height="720px" width="720px" />
                        </g>
                        <g id="s1iax83k" class="stem">
                           <rect x="11518" y="1293" height="602" width="18" />
                        </g>
                     </g>
                     <g id="n1j5oyvk" class="note">
                        <g class="notehead">
                           <use xlink:href="#E0A4-az0y0r" x="12427" y="1445" height="720px" width="720px" />
                        </g>
                        <g id="sckyzoe" class="stem">
                           <rect x="12427" y="1473" height="572" width="18" />
                           <g id="f1ud2tcu" class="flag">
                              <use xlink:href="#E241-az0y0r" x="12427" y="2045" height="720px" width="720px" />
                           </g>
                        </g>
                        <g id="a195eatb" class="accid" />
                     </g>
                  </g>
               </g>
               <g id="b1fknd1y" class="barLine">
                  <path d="M13020 1085 L13020 1805" stroke="currentColor" stroke-width="27" />
               </g>
            </g>
            <g id="m1dxhnke" class="measure">
               <g id="s10z7iw4" class="staff">
                  <path d="M13033 1085 L16530 1085" stroke="currentColor" stroke-width="13" />
                  <path d="M13033 1265 L16530 1265" stroke="currentColor" stroke-width="13" />
                  <path d="M13033 1445 L16530 1445" stroke="currentColor" stroke-width="13" />
                  <path d="M13033 1625 L16530 1625" stroke="currentColor" stroke-width="13" />
                  <path d="M13033 1805 L16530 1805" stroke="currentColor" stroke-width="13" />
                  <g id="lhky0oc" class="layer">
                     <g id="b1la9pfg" class="beam">
                        <polygon points="13422,950 14626,860 14626,950 13422,1040" />
                        <g id="n1qpj30s" class="note">
                           <g class="notehead">
                              <use xlink:href="#E0A4-az0y0r" x="13214" y="1535" height="720px" width="720px" />
                           </g>
                           <g id="srdpnjg" class="stem">
                              <rect x="13422" y="968" height="539" width="18" />
                           </g>
                        </g>
                        <g id="n1o7o32a" class="note">
                           <g class="notehead">
                              <use xlink:href="#E0A4-az0y0r" x="13807" y="1625" height="720px" width="720px" />
                           </g>
                           <g id="soi4gom" class="stem">
                              <rect x="14015" y="923" height="674" width="18" />
                           </g>
                        </g>
                        <g id="n539268" class="note">
                           <g class="notehead">
                              <use xlink:href="#E0A4-az0y0r" x="14400" y="1445" height="720px" width="720px" />
                           </g>
                           <g id="s1es652c" class="stem">
                              <rect x="14608" y="878" height="539" width="18" />
                           </g>
                           <g id="a1o2c2t2" class="accid" />
                        </g>
                     </g>
                     <g id="nrfvut9" class="note">
                        <g class="notehead">
                           <use xlink:href="#E0A4-az0y0r" x="14993" y="1535" height="720px" width="720px" />
                        </g>
                        <g id="do9kus9" class="dots">
                           <ellipse cx="15309" cy="1535" rx="36" ry="36" />
                        </g>
                        <g id="s9blm5i" class="stem">
                           <rect x="15201" y="905" height="602" width="18" />
                        </g>
                     </g>
                  </g>
               </g>
               <g id="b15ucfxz" class="barLine">
                  <path d="M16152 1085 L16152 1805" stroke="currentColor" stroke-width="27" />
                  <path d="M16282 1085 L16282 1805" stroke="currentColor" stroke-width="90" />
                  <path d="M16413 1085 L16413 1805" stroke="currentColor" stroke-width="27" />
                  <use xlink:href="#E044-az0y0r" x="16458" y="1355" height="720px" width="720px" />
                  <use xlink:href="#E044-az0y0r" x="16458" y="1535" height="720px" width="720px" />
                  <use xlink:href="#E044-az0y0r" x="16035" y="1355" height="720px" width="720px" />
                  <use xlink:href="#E044-az0y0r" x="16035" y="1535" height="720px" width="720px" />
               </g>
            </g>
            <g id="mteog2x" class="measure">
               <g id="sgrw3av" class="staff">
                  <path d="M16530 1085 L20004 1085" stroke="currentColor" stroke-width="13" />
                  <path d="M16530 1265 L20004 1265" stroke="currentColor" stroke-width="13" />
                  <path d="M16530 1445 L20004 1445" stroke="currentColor" stroke-width="13" />
                  <path d="M16530 1625 L20004 1625" stroke="currentColor" stroke-width="13" />
                  <path d="M16530 1805 L20004 1805" stroke="currentColor" stroke-width="13" />
                  <g id="lenfaoi" class="layer">
                     <g id="n1pzo9uv" class="note">
                        <g class="notehead">
                           <use xlink:href="#E0A4-az0y0r" x="16711" y="1625" height="720px" width="720px" />
                        </g>
                        <g id="sz2uqro" class="stem">
                           <rect x="16919" y="995" height="602" width="18" />
                        </g>
                     </g>
                     <g id="n1yyqc8f" class="note">
                        <g class="notehead">
                           <use xlink:href="#E0A4-az0y0r" x="17619" y="1445" height="720px" width="720px" />
                        </g>
                        <g id="s1eu1x3f" class="stem">
                           <rect x="17619" y="1473" height="572" width="18" />
                           <g id="f15ek84i" class="flag">
                              <use xlink:href="#E241-az0y0r" x="17619" y="2045" height="720px" width="720px" />
                           </g>
                        </g>
                        <g id="as8oq7k" class="accid" />
                     </g>
                     <g id="b1xt3h5u" class="beam">
                        <polygon points="18420,905 19624,1085 19624,1175 18420,995" />
                        <g id="nyf2h5f" class="note">
                           <g class="notehead">
                              <use xlink:href="#E0A4-az0y0r" x="18212" y="1535" height="720px" width="720px" />
                           </g>
                           <g id="s13qlklt" class="stem">
                              <rect x="18420" y="923" height="584" width="18" />
                           </g>
                        </g>
                        <g id="n1uouqnk" class="note">
                           <g class="notehead">
                              <use xlink:href="#E0A4-az0y0r" x="18805" y="1625" height="720px" width="720px" />
                           </g>
                           <g id="smam5o" class="stem">
                              <rect x="19013" y="1013" height="584" width="18" />
                           </g>
                        </g>
                        <g id="nm1s68a" class="note">
                           <g class="notehead">
                              <use xlink:href="#E0A4-az0y0r" x="19398" y="1715" height="720px" width="720px" />
                           </g>
                           <g id="s1juc0mr" class="stem">
                              <rect x="19606" y="1103" height="584" width="18" />
                           </g>
                        </g>
                     </g>
                  </g>
               </g>
               <g id="b1lu9vdz" class="barLine">
                  <path d="M19991 1085 L19991 1805" stroke="currentColor" stroke-width="27" />
               </g>
            </g>
         </g>
         <g id="s1x7308g" class="system">
            <g id="ll8dtv5" class="labelAbbr">
               <text x="914" y="3884" text-anchor="end" font-size="0px">
                  <tspan id="ttz7z8c" class="text">
                     <tspan font-size="405px" class="text">Pno.</tspan>
                  </tspan>
               </text>
            </g>
            <g id="m1xofeu1" class="measure">
               <g id="m11sbytp" class="mNum autogenerated">
                  <text x="1094" y="3191" text-anchor="middle" font-size="0px">
                     <tspan id="tp3pp5n" class="text">
                        <tspan font-size="324px" class="text">6</tspan>
                     </tspan>
                  </text>
               </g>
               <g id="sgpm591" class="staff">
                  <path d="M1094 3434 L5986 3434" stroke="currentColor" stroke-width="13" />
                  <path d="M1094 3614 L5986 3614" stroke="currentColor" stroke-width="13" />
                  <path d="M1094 3794 L5986 3794" stroke="currentColor" stroke-width="13" />
                  <path d="M1094 3974 L5986 3974" stroke="currentColor" stroke-width="13" />
                  <path d="M1094 4154 L5986 4154" stroke="currentColor" stroke-width="13" />
                  <g id="c10a2s4u" class="clef">
                     <use xlink:href="#E050-az0y0r" x="1184" y="3974" height="720px" width="720px" />
                  </g>
                  <g id="k1ksxv03" class="keySig">
                     <g id="k1vm9tpo" class="keyAccid">
                        <use xlink:href="#E260-az0y0r" x="1829" y="3794" height="720px" width="720px" />
                     </g>
                     <g id="k993jui" class="keyAccid">
                        <use xlink:href="#E260-az0y0r" x="2009" y="3524" height="720px" width="720px" />
                     </g>
                  </g>
                  <g id="l2lqp7f" class="layer">
                     <g id="b1dfvuuj" class="beam">
                        <polygon points="2629,3389 3831,3209 3831,3299 2629,3479" />
                        <g id="nw2gbrj" class="note">
                           <g class="notehead">
                              <use xlink:href="#E0A4-az0y0r" x="2421" y="3974" height="720px" width="720px" />
                           </g>
                           <g id="s1k82c87" class="stem">
                              <rect x="2629" y="3407" height="539" width="18" />
                           </g>
                        </g>
                        <g id="ndg99eg" class="note">
                           <g class="notehead">
                              <use xlink:href="#E0A4-az0y0r" x="3013" y="3884" height="720px" width="720px" />
                           </g>
                           <g id="sq8exwj" class="stem">
                              <rect x="3221" y="3317" height="539" width="18" />
                           </g>
                        </g>
                        <g id="nwvmks1" class="note">
                           <g class="notehead">
                              <use xlink:href="#E0A4-az0y0r" x="3605" y="3794" height="720px" width="720px" />
                           </g>
                           <g id="si4qkiy" class="stem">
                              <rect x="3813" y="3227" height="539" width="18" />
                           </g>
                           <g id="a17eu35b" class="accid" />
                        </g>
                     </g>
                     <g id="bgjv48e" class="beam">
                        <polygon points="4405,3254 5607,3254 5607,3344 4405,3344" />
                        <g id="nj02zx9" class="note">
                           <g class="notehead">
                              <use xlink:href="#E0A4-az0y0r" x="4197" y="3884" height="720px" width="720px" />
                           </g>
                           <g id="sb37eod" class="stem">
                              <rect x="4405" y="3272" height="584" width="18" />
                           </g>
                        </g>
                        <g id="nddbpat" class="note">
                           <g class="notehead">
                              <use xlink:href="#E0A4-az0y0r" x="4789" y="3974" height="720px" width="720px" />
                           </g>
                           <g id="s16czhvv" class="stem">
                              <rect x="4997" y="3272" height="674" width="18" />
                           </g>
                        </g>
                        <g id="n1ueaxnj" class="note">
                           <g class="notehead">
                              <use xlink:href="#E0A4-az0y0r" x="5381" y="3884" height="720px" width="720px" />
                           </g>
                           <g id="szkjmnn" class="stem">
                              <rect x="5589" y="3272" height="584" width="18" />
                           </g>
                        </g>
                     </g>
                  </g>
               </g>
               <g id="beyt07j" class="barLine">
                  <path d="M5973 3434 L5973 4154" stroke="currentColor" stroke-width="27" />
               </g>
            </g>
            <g id="m1kfsho4" class="measure">
               <g id="s19pms63" class="staff">
                  <path d="M5986 3434 L9454 3434" stroke="currentColor" stroke-width="13" />
                  <path d="M5986 3614 L9454 3614" stroke="currentColor" stroke-width="13" />
                  <path d="M5986 3794 L9454 3794" stroke="currentColor" stroke-width="13" />
                  <path d="M5986 3974 L9454 3974" stroke="currentColor" stroke-width="13" />
                  <path d="M5986 4154 L9454 4154" stroke="currentColor" stroke-width="13" />
                  <g id="l3rhb7z" class="layer">
                     <g id="ne8zieb" class="note">
                        <g class="notehead">
                           <use xlink:href="#E0A4-az0y0r" x="6166" y="3974" height="720px" width="720px" />
                        </g>
                        <g id="s18rxgpf" class="stem">
                           <rect x="6374" y="3344" height="602" width="18" />
                        </g>
                     </g>
                     <g id="n1gwh6x2" class="note">
                        <g class="notehead">
                           <use xlink:href="#E0A4-az0y0r" x="7073" y="3794" height="720px" width="720px" />
                        </g>
                        <g id="s7tzs8t" class="stem">
                           <rect x="7073" y="3822" height="572" width="18" />
                           <g id="f1n1yp7m" class="flag">
                              <use xlink:href="#E241-az0y0r" x="7073" y="4394" height="720px" width="720px" />
                           </g>
                        </g>
                        <g id="as5bdr4" class="accid" />
                     </g>
                     <g id="bkwibjr" class="beam">
                        <polygon points="7873,3254 9075,3434 9075,3524 7873,3344" />
                        <g id="n7zumyl" class="note">
                           <g class="notehead">
                              <use xlink:href="#E0A4-az0y0r" x="7665" y="3884" height="720px" width="720px" />
                           </g>
                           <g id="s10bcb1m" class="stem">
                              <rect x="7873" y="3272" height="584" width="18" />
                           </g>
                        </g>
                        <g id="n1p34ruc" class="note">
                           <g class="notehead">
                              <use xlink:href="#E0A4-az0y0r" x="8257" y="3974" height="720px" width="720px" />
                           </g>
                           <g id="s163gvma" class="stem">
                              <rect x="8465" y="3362" height="584" width="18" />
                           </g>
                        </g>
                        <g id="n1jfa1mp" class="note">
                           <g class="notehead">
                              <use xlink:href="#E0A4-az0y0r" x="8849" y="4064" height="720px" width="720px" />
                           </g>
                           <g id="s1ts1djt" class="stem">
                              <rect x="9057" y="3452" height="584" width="18" />
                           </g>
                        </g>
                     </g>
                  </g>
               </g>
               <g id="bujj4bl" class="barLine">
                  <path d="M9441 3434 L9441 4154" stroke="currentColor" stroke-width="27" />
               </g>
            </g>
            <g id="s1s8olui" class="sb" />
            <g id="m17s2dm5" class="measure">
               <g id="s1qtspj6" class="staff">
                  <path d="M9454 3434 L12742 3434" stroke="currentColor" stroke-width="13" />
                  <path d="M9454 3614 L12742 3614" stroke="currentColor" stroke-width="13" />
                  <path d="M9454 3794 L12742 3794" stroke="currentColor" stroke-width="13" />
                  <path d="M9454 3974 L12742 3974" stroke="currentColor" stroke-width="13" />
                  <path d="M9454 4154 L12742 4154" stroke="currentColor" stroke-width="13" />
                  <g id="l4i0s1p" class="layer">
                     <g id="b12wyafv" class="beam">
                        <polygon points="9842,3389 11044,3209 11044,3299 9842,3479" />
                        <g id="n1cv7obh" class="note">
                           <g class="notehead">
                              <use xlink:href="#E0A4-az0y0r" x="9634" y="3974" height="720px" width="720px" />
                           </g>
                           <g id="s1rniqs2" class="stem">
                              <rect x="9842" y="3407" height="539" width="18" />
                           </g>
                        </g>
                        <g id="nhztnb8" class="note">
                           <g class="notehead">
                              <use xlink:href="#E0A4-az0y0r" x="10226" y="3884" height="720px" width="720px" />
                           </g>
                           <g id="sjg7x22" class="stem">
                              <rect x="10434" y="3317" height="539" width="18" />
                           </g>
                        </g>
                        <g id="n1yyzo6w" class="note">
                           <g class="notehead">
                              <use xlink:href="#E0A4-az0y0r" x="10818" y="3794" height="720px" width="720px" />
                           </g>
                           <g id="s1hitah3" class="stem">
                              <rect x="11026" y="3227" height="539" width="18" />
                           </g>
                           <g id="a99qj7a" class="accid" />
                        </g>
                     </g>
                     <g id="nzagwi2" class="note">
                        <g class="notehead">
                           <use xlink:href="#E0A4-az0y0r" x="11410" y="3974" height="720px" width="720px" />
                        </g>
                        <g id="d2dlpsj" class="dots">
                           <ellipse cx="11726" cy="3884" rx="36" ry="36" />
                        </g>
                        <g id="s1uy1h5f" class="stem">
                           <rect x="11618" y="3344" height="602" width="18" />
                        </g>
                     </g>
                  </g>
               </g>
               <g id="b1lbia77" class="barLine">
                  <path d="M12567 3434 L12567 4154" stroke="currentColor" stroke-width="27" />
                  <path d="M12697 3434 L12697 4154" stroke="currentColor" stroke-width="90" />
               </g>
            </g>
            <g id="s2y89s5" class="systemMilestoneEnd sunqj8r" />
         </g>
         <g id="p10h0ffy" class="pageMilestoneEnd s1wl4otl" />
         <g id="pm2hesh" class="pageMilestoneEnd m3f0bak" />
         <g id="p1luz8wg" class="pgHead">
            <text x="0" y="0" font-size="0px">
               <tspan id="rl7951t" class="rend" x="10000" y="277" text-anchor="middle">
                  <tspan id="tkjket" class="text">
                     <tspan font-size="405px" class="text">Air n 202</tspan>
                  </tspan>
               </tspan>
            </text>
         </g>
         <g id="p1a45ojd" class="pgFoot autogenerated">
            <g id="f1cj79h6" class="fig">
               <g id="s1kphmze" class="svg" transform="translate(7750, 28099) scale(10, 10)">
                  <g>
                     <path fill="#00000" d="M 17.11278,49.26451 V 10.367554 h 12.696511 c 3.288815,7.336676 6.71267,14.610456 10.127281,21.888976 3.419998,-7.484684 6.255515,-14.204887 9.58887,-21.909915 2.436207,0.103726 4.316952,0.08453 6.484294,-0.05808 V 49.264423 H 50.274275 C 50.145222,38.35639 50.016136,27.448368 49.887066,16.540329 45.003488,27.315459 39.967448,38.433564 35.083854,49.208695 34.678996,49.343717 34.426583,49.135619 34.021726,49.270644 29.46588,39.330716 24.910049,29.390805 20.354201,19.450876 20.224341,29.388756 20.09461,39.326619 19.964815,49.264497 H 17.11278 Z M 36.754144,39.324695 C 32.721221,30.512695 28.6883,21.700679 24.655394,12.888662 22.530527,12.750737 22.656775,12.71031 20.714356,12.813974 v 0.966497 c 4.612938,9.99784 9.609439,20.748709 13.87298,30.081745 0.722248,-1.512523 1.444528,-3.025014 2.166808,-4.537521 z m 25.738417,9.939815 c 0,-12.965651 0,-25.931305 0,-38.896956 10.084388,0 20.168791,0 30.253178,0 0,0.960416 0,1.920849 0,2.881265 -6.482825,0 -12.965652,0 -19.448478,0 0,4.802097 0,9.604178 0,14.406277 5.52241,0 11.044819,0 16.567229,0 0,0.960415 0,1.920832 0,2.881248 -5.52241,0 -11.044819,0 -16.567229,0 0,5.282306 0,10.564611 0,15.846917 6.963035,0 13.926068,0 20.889103,0 0,0.960416 0,1.920832 0,2.881249 -10.564597,0 -21.129207,0 -31.693803,0 z m 4.321874,-2.160937 c 0,-11.765131 0,-23.530263 0,-35.295394 -0.720312,0 -1.440625,0 -2.160937,0 0,11.765131 0,23.530263 0,35.295394 0.720312,0 1.440625,0 2.160937,0 z m 32.41413,2.160937 c 0,-12.965651 0,-25.931305 0,-38.896956 2.401045,0 4.802095,0 7.203135,0 0,12.965651 0,25.931305 0,38.896956 -2.40104,0 -4.80209,0 -7.203135,0 z m 2.881265,-2.160937 c 0,-11.765131 0,-23.530263 0,-35.295394 -0.72031,0 -1.44064,0 -2.160953,0 0,11.765131 0,23.530263 0,35.295394 0.720313,0 1.440643,0 2.160953,0 z" />
                     <path fill="#00000" d="m 346.3,6.7 c -3.1,0.5 -4.9,4.4 -2.7,6.8 1.2,1.4 2.7,2.4 4.1,3.5 -2.4,5.3 -7.7,8.3 -11.9,12.1 -3.7,2.8 -7,6.2 -9.7,9.9 -2.2,-0.8 -0.3,-6.8 -0.6,-9.5 0.1,-3.1 0.7,-6.4 2.9,-8.7 1.3,-1.9 3,-3.5 4.5,-5.2 1.2,-3.4 -3.2,-4.9 -5.8,-4.6 -7.3,-0.5 -14.6,2 -20,6.8 -5,4.6 -10,10.1 -11.5,17 -0.9,3.5 -0.2,7.5 2.8,9.9 2.5,2.8 7.4,2.9 9.8,-0.2 1.7,-2.3 3.2,-4.8 3.8,-7.6 -0.1,-2.6 -4.4,-2.3 -4.3,0.2 1.2,2.4 -0.9,4.7 -2.7,6.2 -1.7,0.9 -4.7,0.7 -4.8,-1.7 -1,-5.8 2.1,-11.3 5.2,-16.1 4,-5.8 9.8,-11.2 17.2,-11.8 1.6,0 8.1,-1.2 6.8,1.4 -2.8,2.8 -5.6,6.1 -6,10.3 -1.6,7.7 0.1,15.7 -2.3,23.2 -1.1,3.9 2,2.6 2.5,0.2 3.3,-7.4 8.9,-13.4 15.1,-18.5 4.2,-3.9 9.5,-7.1 11.9,-12.6 1.3,-3.6 1.2,-9 -2.7,-10.9 -0.6,-0.2 -1.2,-0.3 -1.8,-0.3 z m 66,14.5 c -2,0.8 -1.8,4.9 0.8,4.4 3.4,0.4 2.9,-6.2 -0.8,-4.4 z m 0.6,7.3 c -1.3,0.5 -7.6,0.5 -5.4,2.2 4,-0.3 0.7,4.5 0.6,6.7 -0.4,2.9 -2.4,5.9 -1.2,8.8 2.7,1.7 5.6,-0.8 6.8,-3.2 1.6,-1.4 -0.5,-3 -1.2,-0.9 -0.4,0.8 -2.4,3.5 -2.6,1.8 1.1,-5 2.7,-9.9 3.9,-14.9 l -0.1,-0.5 h -0.9 z m -65.1,0.2 c -6.5,1.6 -10.5,9.5 -8.2,15.7 2.1,3.4 7.4,2.9 10.1,0.4 2,-0.2 3.6,-5.3 1,-3.4 -1.4,2 -4,4.2 -6.5,2.8 -2.2,-1.9 -1.9,-5.7 1.7,-5.3 3.1,-0.9 6.9,-2.1 8.1,-5.5 0.9,-2.7 -1.6,-5.2 -4.3,-4.8 h -1.1 -0.7 z m 13.6,0 c -2.2,0 -8.5,1.8 -2.9,2.3 0.9,1.9 -1,4.9 -1.1,7.2 -0.5,2.9 -1.4,5.7 -1.7,8.7 3.7,0.7 3.8,-2.6 4.4,-5.3 0.9,-3.3 1.6,-7 4.1,-9.5 2.4,1.6 6.8,-0.7 3.7,-3.4 -2.9,-0.5 -4.8,2.4 -6.2,4.3 0,-1.2 2.4,-5 -0.2,-4.3 z m 15.8,0 c -6.4,1.3 -9.6,9.1 -7.7,14.9 1.9,4 7.7,3.9 11,1.7 4.1,-3 6,-8.9 4.4,-13.7 -1.3,-3 -4.8,-3.2 -7.6,-3 z m 17,0 c -2.3,0 -8.8,1.9 -3,2.4 0.4,2.5 -1,5.7 -1.4,8.4 -0.7,2.4 -1.8,7.5 2.1,7.2 3.8,-0.1 6.5,-3.5 8.5,-6.3 2,-3.2 4.5,-7 3.3,-10.9 -3.7,-3 -3.6,2.6 -3.1,5.1 -0.7,3.8 -2.7,7.9 -6.2,9.8 -3.6,0.6 -1,-4.3 -0.8,-6.1 0.6,-3.2 1.6,-6.3 1.9,-9.5 -0.4,0 -0.8,0 -1.1,0 z m 30.6,0 c -6.3,1.2 -9.5,8.9 -7.8,14.7 1.5,4 7.2,4.2 10.5,2.4 4.6,-2.8 6.6,-9.3 4.8,-14.3 -1.4,-2.8 -4.8,-3 -7.5,-2.8 z m -75.4,1.7 c 2.1,1.5 0.2,4.7 -1.6,5.7 -1.1,0.4 -5.5,3.4 -4.6,0.7 0.8,-2.7 2.2,-6.2 5.3,-6.6 l 0.9,0.1 z m 30.8,0 c 2.6,1.5 1.3,5.2 0.8,7.6 -0.8,2.7 -1.9,5.9 -4.7,7.1 -5.1,0.8 -4,-5.8 -2.8,-8.8 1,-2.8 3,-6.8 6.7,-5.8 z m 47.1,-0.1 c 2.9,0.7 2,4.7 1.5,6.8 -0.7,3 -1.8,6.7 -5,8 -4.7,0.8 -4,-5.1 -3,-7.9 0.9,-3 2.7,-7.3 6.5,-6.8 z m -88.1,5.9 c -0.3,1.3 0.9,-0.6 0,0 z m -1.1,2.4 c -0.2,0.5 0.5,-0.1 0,0 z m -1.3,4.5 c -0.3,1.3 0.8,-0.2 0,0 z" />
                     <text y="41" x="201" fill="#00000" style="font-style:italic;font-weight:normal;font-size:30px;line-height:125%;font-family:Times;text-anchor:middle" xml:space="preserve">engraved with</text>
                  </g>
               </g>
            </g>
         </g>
      </g>
   </svg>
</svg>
