<?xml version="1.0" encoding="UTF-8" standalone="no"?>
<svg width="2100px" height="2970px" version="1.1" xmlns="http://www.w3.org/2000/svg" xmlns:xlink="http://www.w3.org/1999/xlink" xmlns:mei="http://www.music-encoding.org/ns/mei" overflow="visible">
   <desc>Engraved by Verovio 3.13.1</desc>
   <defs>
      <symbol id="E262-1x2tiem" viewBox="0 0 1000 1000" overflow="inherit">
         <path transform="scale(1,-1)" d="M136 186v169h17v-164l44 14v-91l-44 -14v-165l44 12v-91l-44 -13v-155h-17v150l-76 -22v-155h-17v149l-43 -13v90l43 14v167l-43 -14v92l43 13v169h17v-163zM60 73v-167l76 22v168z" />
      </symbol>
      <symbol id="E044-1x2tiem" viewBox="0 0 1000 1000" overflow="inherit">
         <path transform="scale(1,-1)" d="M0 0c0 28 22 50 50 50s50 -22 50 -50s-22 -50 -50 -50s-50 22 -50 50z" />
      </symbol>
      <symbol id="E050-1x2tiem" viewBox="0 0 1000 1000" overflow="inherit">
         <path transform="scale(1,-1)" d="M441 -245c-23 -4 -48 -6 -76 -6c-59 0 -102 7 -130 20c-88 42 -150 93 -187 154c-26 44 -43 103 -48 176c0 6 -1 13 -1 19c0 54 15 111 45 170c29 57 65 106 110 148s96 85 153 127c-3 16 -8 46 -13 92c-4 43 -5 73 -5 89c0 117 16 172 69 257c34 54 64 82 89 82 c21 0 43 -30 69 -92s39 -115 41 -159v-15c0 -109 -21 -162 -67 -241c-13 -20 -63 -90 -98 -118c-13 -9 -25 -19 -37 -29l31 -181c8 1 18 2 28 2c58 0 102 -12 133 -35c59 -43 92 -104 98 -184c1 -7 1 -15 1 -22c0 -123 -87 -209 -181 -248c8 -57 17 -110 25 -162 c5 -31 6 -58 6 -80c0 -30 -5 -53 -14 -70c-35 -64 -88 -99 -158 -103c-5 0 -11 -1 -16 -1c-37 0 -72 10 -108 27c-50 24 -77 59 -80 105v11c0 29 7 55 20 76c18 28 45 42 79 44h6c49 0 93 -42 97 -87v-9c0 -51 -34 -86 -105 -106c17 -24 51 -36 102 -36c62 0 116 43 140 85 c9 16 13 41 13 74c0 20 -1 42 -5 67c-8 53 -18 106 -26 159zM461 939c-95 0 -135 -175 -135 -286c0 -24 2 -48 5 -71c50 39 92 82 127 128c40 53 60 100 60 140v8c-4 53 -22 81 -55 81h-2zM406 119l54 -326c73 25 110 78 110 161c0 7 0 15 -1 23c-7 95 -57 142 -151 142h-12 zM382 117c-72 -2 -128 -47 -128 -120v-7c2 -46 43 -99 75 -115c-3 -2 -7 -5 -10 -10c-70 33 -116 88 -123 172v11c0 68 44 126 88 159c23 17 49 29 78 36l-29 170c-21 -13 -52 -37 -92 -73c-50 -44 -86 -84 -109 -119c-45 -69 -67 -130 -67 -182v-13c5 -68 35 -127 93 -176 s125 -73 203 -73c25 0 50 3 75 9c-19 111 -36 221 -54 331z" />
      </symbol>
      <symbol id="E081-1x2tiem" viewBox="0 0 1000 1000" overflow="inherit">
         <path transform="scale(1,-1)" d="M68 -250v36c23 0 40 6 49 18c8 14 12 33 12 57v250l-82 -129l-27 13l107 255h128v-394c0 -24 5 -42 14 -53s25 -17 47 -17v-36h-248z" />
      </symbol>
      <symbol id="E082-1x2tiem" viewBox="0 0 1000 1000" overflow="inherit">
         <path transform="scale(1,-1)" d="M124 -185c-18 0 -55 -14 -65 -65h-36l-3 30c0 25 6 45 18 63c11 19 22 30 39 43l121 82l37 29c15 11 27 29 38 54c12 24 18 47 18 70c0 40 -19 88 -94 88c-25 0 -32 0 -50 -8c-14 -5 -23 -12 -26 -22c3 -9 7 -15 10 -18l24 -17c12 -7 17 -11 27 -21c5 -7 7 -16 7 -27 c0 -12 0 -57 -79 -74c-30 0 -76 26 -76 94c0 66 81 135 197 135c72 0 181 -32 181 -150c0 -53 -32 -95 -113 -133l-91 -41c-26 -11 -45 -23 -57 -37l49 7c84 0 115 -41 148 -41c20 0 33 20 39 61h35c0 -152 -68 -168 -114 -168c-17 0 -65 0 -79 7h10l-28 17 c-49 37 -69 40 -87 42z" />
      </symbol>
      <symbol id="E083-1x2tiem" viewBox="0 0 1000 1000" overflow="inherit">
         <path transform="scale(1,-1)" d="M208 250c97 0 177 -52 177 -116c0 -69 -40 -111 -118 -125c56 -5 125 -44 125 -116c0 -31 -10 -57 -31 -78c-19 -21 -45 -38 -78 -49l-50 -11c-15 -3 -36 -7 -55 -7c-50 0 -86 16 -113 38c-16 10 -23 18 -34 34c-7 13 -11 25 -11 38c0 43 27 83 68 83l3 -2 c61 0 75 -42 75 -70c0 -19 -24 -42 -26 -57c7 -17 20 -25 37 -25c44 0 94 29 94 78c0 75 -34 125 -138 125v36c84 0 131 22 131 98c0 54 -37 88 -87 88c-26 0 -43 -7 -51 -22c15 -22 44 -16 44 -70c0 -37 -37 -62 -71 -62c-22 0 -69 15 -69 76c0 79 101 116 178 116z" />
      </symbol>
      <symbol id="E084-1x2tiem" viewBox="0 0 1000 1000" overflow="inherit">
         <path transform="scale(1,-1)" d="M20 -78c84 97 114 180 134 329h170c-13 -32 -82 -132 -99 -151l-84 -97c-33 -36 -59 -63 -80 -81h162v102l127 123v-225h57v-39h-57v-34c0 -43 19 -65 57 -65v-34h-244v36c48 0 60 26 60 70v27h-203v39z" />
      </symbol>
      <symbol id="E088-1x2tiem" viewBox="0 0 1000 1000" overflow="inherit">
         <path transform="scale(1,-1)" d="M195 -214c76 0 88 58 90 68c0 34 -35 60 -57 73l-52 29c-21 10 -32 17 -34 20c-39 -33 -58 -54 -62 -92c5 -23 23 -98 115 -98zM301 135c0 61 -72 76 -113 76c-40 0 -77 -17 -77 -51c3 -21 15 -38 26 -50c17 -15 33 -26 48 -34l65 -28c34 27 51 56 51 87zM176 -250 c-57 0 -166 26 -166 132c0 47 30 86 89 116c-33 15 -79 60 -79 119c0 79 85 132 178 132h18c5 0 21 1 28 -1c25 0 126 -30 126 -110c0 -37 -23 -76 -69 -116c43 -25 83 -71 83 -119c0 -101 -118 -153 -208 -153z" />
      </symbol>
      <symbol id="E0A4-1x2tiem" viewBox="0 0 1000 1000" overflow="inherit">
         <path transform="scale(1,-1)" d="M0 -39c0 68 73 172 200 172c66 0 114 -37 114 -95c0 -84 -106 -171 -218 -171c-64 0 -96 30 -96 94z" />
      </symbol>
      <symbol id="E240-1x2tiem" viewBox="0 0 1000 1000" overflow="inherit">
         <path transform="scale(1,-1)" d="M179 -646c15 29 29 55 46 102c18 49 30 108 30 138c0 105 -80 173 -168 200c-18 5 -47 9 -87 16v190h22c8 0 33 -61 71 -95c4 -3 -2 3 61 -56c62 -58 122 -137 122 -241c0 -38 -13 -106 -35 -163c-20 -51 -43 -99 -66 -132c-6 -5 -10 -7 -13 -7s-5 2 -5 5l4 10 c1 3 14 25 18 33z" />
      </symbol>
   </defs>
   <style type="text/css">g.page-margin{font-family:Times;} g.ending, g.fing, g.reh, g.tempo{font-weight:bold;} g.dir, g.dynam, g.mNum{font-style:italic;} g.label{font-weight:normal;}</style>
   <svg class="definition-scale" color="black" viewBox="0 0 21000 29700">
      <g class="page-margin" transform="translate(500, 500)">
         <g id="mj1x0i4" class="mdiv pageMilestone" />
         <g id="sjo7flk" class="score pageMilestone" />
         <g id="sjsqr6v" class="system">
            <g id="lp0z859" class="label">
               <text x="1105" y="1535" text-anchor="end" font-size="0px">
                  <tspan id="t1wm8tju" class="text">
                     <tspan font-size="405px" class="text">Piano</tspan>
                  </tspan>
               </text>
            </g>
            <g id="s11knrcd" class="section systemMilestone" />
            <g id="p1t0ykbf" class="pb" />
            <g id="m16fgg77" class="measure">
               <g id="m1cmt7bq" class="mNum">
                  <text x="1285" y="842" text-anchor="middle" font-size="0px" />
               </g>
               <g id="seo5dt0" class="staff">
                  <path d="M1285 1085 L3496 1085" stroke="currentColor" stroke-width="13" />
                  <path d="M1285 1265 L3496 1265" stroke="currentColor" stroke-width="13" />
                  <path d="M1285 1445 L3496 1445" stroke="currentColor" stroke-width="13" />
                  <path d="M1285 1625 L3496 1625" stroke="currentColor" stroke-width="13" />
                  <path d="M1285 1805 L3496 1805" stroke="currentColor" stroke-width="13" />
                  <g id="cncnzz4" class="clef">
                     <use xlink:href="#E050-1x2tiem" x="1375" y="1625" height="720px" width="720px" />
                  </g>
                  <g id="knirs8k" class="keySig">
                     <g id="k1j2jva3" class="keyAccid">
                        <use xlink:href="#E262-1x2tiem" x="2020" y="1085" height="720px" width="720px" />
                     </g>
                  </g>
                  <g id="mocnfod" class="meterSig">
                     <use xlink:href="#E082-1x2tiem" x="2327" y="1265" height="720px" width="720px" />
                     <use xlink:href="#E084-1x2tiem" x="2332" y="1625" height="720px" width="720px" />
                  </g>
                  <g id="lpe1729" class="layer">
                     <g id="n1bsgfj9" class="note">
                        <g class="notehead">
                           <use xlink:href="#E0A4-1x2tiem" x="2904" y="1715" height="720px" width="720px" />
                        </g>
                        <g id="sq3bdeu" class="stem">
                           <rect x="3112" y="1085" height="602" width="18" />
                           <g id="f1due6s0" class="flag">
                              <use xlink:href="#E240-1x2tiem" x="3112" y="1085" height="720px" width="720px" />
                           </g>
                        </g>
                        <g id="apt5r0t" class="accid" />
                     </g>
                  </g>
               </g>
               <g id="b2rtldu" class="barLine">
                  <path d="M3483 1085 L3483 1805" stroke="currentColor" stroke-width="27" />
               </g>
            </g>
            <g id="m5nc88q" class="measure">
               <g id="s6byvxl" class="staff">
                  <path d="M3496 1085 L6008 1085" stroke="currentColor" stroke-width="13" />
                  <path d="M3496 1265 L6008 1265" stroke="currentColor" stroke-width="13" />
                  <path d="M3496 1445 L6008 1445" stroke="currentColor" stroke-width="13" />
                  <path d="M3496 1625 L6008 1625" stroke="currentColor" stroke-width="13" />
                  <path d="M3496 1805 L6008 1805" stroke="currentColor" stroke-width="13" />
                  <g id="lz9pe3f" class="layer">
                     <g id="b1glxp4w" class="beam">
                        <polygon points="3888,995 4485,905 4485,995 3888,1085" />
                        <g id="n125jm8z" class="note">
                           <g class="notehead">
                              <use xlink:href="#E0A4-1x2tiem" x="3680" y="1625" height="720px" width="720px" />
                           </g>
                           <g id="s15mlul9" class="stem">
                              <rect x="3888" y="1013" height="584" width="18" />
                           </g>
                        </g>
                        <g id="n1u0469o" class="note">
                           <g class="notehead">
                              <use xlink:href="#E0A4-1x2tiem" x="4259" y="1535" height="720px" width="720px" />
                           </g>
                           <g id="s12rus8w" class="stem">
                              <rect x="4467" y="923" height="584" width="18" />
                           </g>
                        </g>
                     </g>
                     <g id="b1cnh60r" class="beam">
                        <polygon points="5046,860 5643,1040 5643,1130 5046,950" />
                        <g id="n4asxqk" class="note">
                           <g class="notehead">
                              <use xlink:href="#E0A4-1x2tiem" x="4838" y="1445" height="720px" width="720px" />
                           </g>
                           <g id="sjw214j" class="stem">
                              <rect x="5046" y="878" height="539" width="18" />
                           </g>
                        </g>
                        <g id="nwzyvsx" class="note">
                           <g class="notehead">
                              <use xlink:href="#E0A4-1x2tiem" x="5417" y="1625" height="720px" width="720px" />
                           </g>
                           <g id="s1ccmhot" class="stem">
                              <rect x="5625" y="1058" height="539" width="18" />
                           </g>
                        </g>
                     </g>
                  </g>
               </g>
               <g id="bj8ed4a" class="barLine">
                  <path d="M5995 1085 L5995 1805" stroke="currentColor" stroke-width="27" />
               </g>
            </g>
            <g id="m9q2yf1" class="measure">
               <g id="sedpsjj" class="staff">
                  <path d="M6008 1085 L8534 1085" stroke="currentColor" stroke-width="13" />
                  <path d="M6008 1265 L8534 1265" stroke="currentColor" stroke-width="13" />
                  <path d="M6008 1445 L8534 1445" stroke="currentColor" stroke-width="13" />
                  <path d="M6008 1625 L8534 1625" stroke="currentColor" stroke-width="13" />
                  <path d="M6008 1805 L8534 1805" stroke="currentColor" stroke-width="13" />
                  <g id="l1f670zf" class="layer">
                     <g id="n1ww6fbk" class="note">
                        <g class="notehead">
                           <use xlink:href="#E0A4-1x2tiem" x="6108" y="1445" height="540px" width="540px" />
                        </g>
                        <g id="sobnx7p" class="stem">
                           <rect x="6259" y="995" height="429" width="18" />
                           <g id="fauxrl0" class="flag">
                              <use xlink:href="#E240-1x2tiem" x="6259" y="995" height="540px" width="540px" />
                           </g>
                        </g>
                     </g>
                     <g id="nlf6d99" class="note">
                        <g class="notehead">
                           <use xlink:href="#E0A4-1x2tiem" x="6475" y="1535" height="720px" width="720px" />
                        </g>
                        <g id="s13cyv6h" class="stem">
                           <rect x="6683" y="905" height="602" width="18" />
                        </g>
                     </g>
                     <g id="byivwty" class="beam">
                        <polygon points="7571,905 8168,1085 8168,1175 7571,995" />
                        <g id="nej31it" class="note">
                           <g class="notehead">
                              <use xlink:href="#E0A4-1x2tiem" x="7363" y="1535" height="720px" width="720px" />
                           </g>
                           <g id="ssg4tdf" class="stem">
                              <rect x="7571" y="923" height="584" width="18" />
                           </g>
                        </g>
                        <g id="n1g5fglm" class="note">
                           <g class="notehead">
                              <use xlink:href="#E0A4-1x2tiem" x="7942" y="1715" height="720px" width="720px" />
                           </g>
                           <g id="s4l589j" class="stem">
                              <rect x="8150" y="1103" height="584" width="18" />
                           </g>
                           <g id="act9ahm" class="accid" />
                        </g>
                     </g>
                  </g>
               </g>
               <g id="b1b78942" class="barLine">
                  <path d="M8521 1085 L8521 1805" stroke="currentColor" stroke-width="27" />
               </g>
            </g>
            <g id="mcrrmhn" class="measure">
               <g id="sxydxq9" class="staff">
                  <path d="M8534 1085 L11046 1085" stroke="currentColor" stroke-width="13" />
                  <path d="M8534 1265 L11046 1265" stroke="currentColor" stroke-width="13" />
                  <path d="M8534 1445 L11046 1445" stroke="currentColor" stroke-width="13" />
                  <path d="M8534 1625 L11046 1625" stroke="currentColor" stroke-width="13" />
                  <path d="M8534 1805 L11046 1805" stroke="currentColor" stroke-width="13" />
                  <g id="lhg6p1b" class="layer">
                     <g id="b1jax5kc" class="beam">
                        <polygon points="8926,995 9523,905 9523,995 8926,1085" />
                        <g id="np5mze3" class="note">
                           <g class="notehead">
                              <use xlink:href="#E0A4-1x2tiem" x="8718" y="1625" height="720px" width="720px" />
                           </g>
                           <g id="srd77j" class="stem">
                              <rect x="8926" y="1013" height="584" width="18" />
                           </g>
                        </g>
                        <g id="nnukijx" class="note">
                           <g class="notehead">
                              <use xlink:href="#E0A4-1x2tiem" x="9297" y="1535" height="720px" width="720px" />
                           </g>
                           <g id="s1okrzjz" class="stem">
                              <rect x="9505" y="923" height="584" width="18" />
                           </g>
                        </g>
                     </g>
                     <g id="b9tgr8b" class="beam">
                        <polygon points="10084,860 10681,1040 10681,1130 10084,950" />
                        <g id="n1jh5lwy" class="note">
                           <g class="notehead">
                              <use xlink:href="#E0A4-1x2tiem" x="9876" y="1445" height="720px" width="720px" />
                           </g>
                           <g id="sg3u0g1" class="stem">
                              <rect x="10084" y="878" height="539" width="18" />
                           </g>
                        </g>
                        <g id="nopihv7" class="note">
                           <g class="notehead">
                              <use xlink:href="#E0A4-1x2tiem" x="10455" y="1625" height="720px" width="720px" />
                           </g>
                           <g id="svtb6al" class="stem">
                              <rect x="10663" y="1058" height="539" width="18" />
                           </g>
                        </g>
                     </g>
                  </g>
               </g>
               <g id="b1ip4ezm" class="barLine">
                  <path d="M11033 1085 L11033 1805" stroke="currentColor" stroke-width="27" />
               </g>
            </g>
            <g id="m1njnvux" class="measure">
               <g id="s14wx2n1" class="staff">
                  <path d="M11046 1085 L13271 1085" stroke="currentColor" stroke-width="13" />
                  <path d="M11046 1265 L13271 1265" stroke="currentColor" stroke-width="13" />
                  <path d="M11046 1445 L13271 1445" stroke="currentColor" stroke-width="13" />
                  <path d="M11046 1625 L13271 1625" stroke="currentColor" stroke-width="13" />
                  <path d="M11046 1805 L13271 1805" stroke="currentColor" stroke-width="13" />
                  <g id="mkw7ptb" class="meterSig">
                     <use xlink:href="#E083-1x2tiem" x="11126" y="1265" height="720px" width="720px" />
                     <use xlink:href="#E088-1x2tiem" x="11129" y="1625" height="720px" width="720px" />
                  </g>
                  <g id="l1bud9cw" class="layer">
                     <g id="n1ncee1i" class="note">
                        <g class="notehead">
                           <use xlink:href="#E0A4-1x2tiem" x="11597" y="1445" height="540px" width="540px" />
                        </g>
                        <g id="snphf4n" class="stem">
                           <rect x="11748" y="995" height="429" width="18" />
                           <g id="f1daanu9" class="flag">
                              <use xlink:href="#E240-1x2tiem" x="11748" y="995" height="540px" width="540px" />
                           </g>
                        </g>
                     </g>
                     <g id="nglhi2i" class="note">
                        <g class="notehead">
                           <use xlink:href="#E0A4-1x2tiem" x="11964" y="1535" height="720px" width="720px" />
                        </g>
                        <g id="d1ioglov" class="dots">
                           <ellipse cx="12280" cy="1535" rx="36" ry="36" />
                        </g>
                        <g id="s8mgkhw" class="stem">
                           <rect x="12172" y="905" height="602" width="18" />
                        </g>
                     </g>
                  </g>
               </g>
               <g id="b3kqjkg" class="barLine">
                  <path d="M13096 1085 L13096 1805" stroke="currentColor" stroke-width="27" />
                  <path d="M13226 1085 L13226 1805" stroke="currentColor" stroke-width="90" />
                  <use xlink:href="#E044-1x2tiem" x="12979" y="1355" height="720px" width="720px" />
                  <use xlink:href="#E044-1x2tiem" x="12979" y="1535" height="720px" width="720px" />
               </g>
            </g>
            <g id="me1iwcw" class="measure">
               <g id="s89xahp" class="staff">
                  <path d="M13271 1085 L14496 1085" stroke="currentColor" stroke-width="13" />
                  <path d="M13271 1265 L14496 1265" stroke="currentColor" stroke-width="13" />
                  <path d="M13271 1445 L14496 1445" stroke="currentColor" stroke-width="13" />
                  <path d="M13271 1625 L14496 1625" stroke="currentColor" stroke-width="13" />
                  <path d="M13271 1805 L14496 1805" stroke="currentColor" stroke-width="13" />
                  <g id="m11hncpd" class="meterSig">
                     <use xlink:href="#E081-1x2tiem" x="13378" y="1265" height="720px" width="720px" />
                     <use xlink:href="#E088-1x2tiem" x="13354" y="1625" height="720px" width="720px" />
                  </g>
                  <g id="lb6ugpt" class="layer">
                     <g id="nbchsp" class="note">
                        <g class="notehead">
                           <use xlink:href="#E0A4-1x2tiem" x="13904" y="1715" height="720px" width="720px" />
                        </g>
                        <g id="s1mhu6by" class="stem">
                           <rect x="14112" y="1085" height="602" width="18" />
                           <g id="f37m2y4" class="flag">
                              <use xlink:href="#E240-1x2tiem" x="14112" y="1085" height="720px" width="720px" />
                           </g>
                        </g>
                        <g id="anymqg1" class="accid" />
                     </g>
                  </g>
               </g>
               <g id="b1lth6z3" class="barLine">
                  <path d="M14483 1085 L14483 1805" stroke="currentColor" stroke-width="27" />
               </g>
            </g>
            <g id="m1qunwti" class="measure">
               <g id="s1gs278n" class="staff">
                  <path d="M14496 1085 L17477 1085" stroke="currentColor" stroke-width="13" />
                  <path d="M14496 1265 L17477 1265" stroke="currentColor" stroke-width="13" />
                  <path d="M14496 1445 L17477 1445" stroke="currentColor" stroke-width="13" />
                  <path d="M14496 1625 L17477 1625" stroke="currentColor" stroke-width="13" />
                  <path d="M14496 1805 L17477 1805" stroke="currentColor" stroke-width="13" />
                  <g id="m7gpq4e" class="meterSig">
                     <use xlink:href="#E082-1x2tiem" x="14572" y="1265" height="720px" width="720px" />
                     <use xlink:href="#E084-1x2tiem" x="14577" y="1625" height="720px" width="720px" />
                  </g>
                  <g id="l1x6dltm" class="layer">
                     <g id="bdu5f5a" class="beam">
                        <polygon points="15357,995 15954,905 15954,995 15357,1085" />
                        <g id="n1n97kft" class="note">
                           <g class="notehead">
                              <use xlink:href="#E0A4-1x2tiem" x="15149" y="1625" height="720px" width="720px" />
                           </g>
                           <g id="sjktq0q" class="stem">
                              <rect x="15357" y="1013" height="584" width="18" />
                           </g>
                        </g>
                        <g id="nj6253e" class="note">
                           <g class="notehead">
                              <use xlink:href="#E0A4-1x2tiem" x="15728" y="1535" height="720px" width="720px" />
                           </g>
                           <g id="s1ers0s5" class="stem">
                              <rect x="15936" y="923" height="584" width="18" />
                           </g>
                        </g>
                     </g>
                     <g id="b1pauekx" class="beam">
                        <polygon points="16515,860 17112,1040 17112,1130 16515,950" />
                        <g id="nw52x6x" class="note">
                           <g class="notehead">
                              <use xlink:href="#E0A4-1x2tiem" x="16307" y="1445" height="720px" width="720px" />
                           </g>
                           <g id="s1gz0lcz" class="stem">
                              <rect x="16515" y="878" height="539" width="18" />
                           </g>
                        </g>
                        <g id="n6s1sxq" class="note">
                           <g class="notehead">
                              <use xlink:href="#E0A4-1x2tiem" x="16886" y="1625" height="720px" width="720px" />
                           </g>
                           <g id="scdk9dz" class="stem">
                              <rect x="17094" y="1058" height="539" width="18" />
                           </g>
                        </g>
                     </g>
                  </g>
               </g>
               <g id="bv86qyo" class="barLine">
                  <path d="M17464 1085 L17464 1805" stroke="currentColor" stroke-width="27" />
               </g>
            </g>
            <g id="mtovdij" class="measure">
               <g id="s17w0g8u" class="staff">
                  <path d="M17477 1085 L20003 1085" stroke="currentColor" stroke-width="13" />
                  <path d="M17477 1265 L20003 1265" stroke="currentColor" stroke-width="13" />
                  <path d="M17477 1445 L20003 1445" stroke="currentColor" stroke-width="13" />
                  <path d="M17477 1625 L20003 1625" stroke="currentColor" stroke-width="13" />
                  <path d="M17477 1805 L20003 1805" stroke="currentColor" stroke-width="13" />
                  <g id="l10m9ras" class="layer">
                     <g id="nd3hknu" class="note">
                        <g class="notehead">
                           <use xlink:href="#E0A4-1x2tiem" x="17577" y="1445" height="540px" width="540px" />
                        </g>
                        <g id="s1pzq4sj" class="stem">
                           <rect x="17728" y="995" height="429" width="18" />
                           <g id="f4bom4a" class="flag">
                              <use xlink:href="#E240-1x2tiem" x="17728" y="995" height="540px" width="540px" />
                           </g>
                        </g>
                     </g>
                     <g id="nypbuuy" class="note">
                        <g class="notehead">
                           <use xlink:href="#E0A4-1x2tiem" x="17944" y="1535" height="720px" width="720px" />
                        </g>
                        <g id="sdkbzq7" class="stem">
                           <rect x="18152" y="905" height="602" width="18" />
                        </g>
                     </g>
                     <g id="bkapgqk" class="beam">
                        <polygon points="19040,860 19637,950 19637,1040 19040,950" />
                        <g id="n1nau6l6" class="note">
                           <g class="notehead">
                              <use xlink:href="#E0A4-1x2tiem" x="18832" y="1445" height="720px" width="720px" />
                           </g>
                           <g id="s1aw4jno" class="stem">
                              <rect x="19040" y="878" height="539" width="18" />
                           </g>
                        </g>
                        <g id="n1pybcgh" class="note">
                           <g class="notehead">
                              <use xlink:href="#E0A4-1x2tiem" x="19411" y="1535" height="720px" width="720px" />
                           </g>
                           <g id="s4xk8o5" class="stem">
                              <rect x="19619" y="968" height="539" width="18" />
                           </g>
                        </g>
                     </g>
                  </g>
               </g>
               <g id="bk0ztz2" class="barLine">
                  <path d="M19990 1085 L19990 1805" stroke="currentColor" stroke-width="27" />
               </g>
            </g>
         </g>
         <g id="syrl4tg" class="system">
            <g id="lu7xmwp" class="labelAbbr">
               <text x="914" y="3884" text-anchor="end" font-size="0px">
                  <tspan id="t2hqorg" class="text">
                     <tspan font-size="405px" class="text">Pno.</tspan>
                  </tspan>
               </text>
            </g>
            <g id="m1v056ds" class="measure">
               <g id="m1lyhm41" class="mNum autogenerated">
                  <text x="1094" y="3191" text-anchor="middle" font-size="0px">
                     <tspan id="tehu8px" class="text">
                        <tspan font-size="324px" class="text">8</tspan>
                     </tspan>
                  </text>
               </g>
               <g id="sdw6em4" class="staff">
                  <path d="M1094 3434 L4257 3434" stroke="currentColor" stroke-width="13" />
                  <path d="M1094 3614 L4257 3614" stroke="currentColor" stroke-width="13" />
                  <path d="M1094 3794 L4257 3794" stroke="currentColor" stroke-width="13" />
                  <path d="M1094 3974 L4257 3974" stroke="currentColor" stroke-width="13" />
                  <path d="M1094 4154 L4257 4154" stroke="currentColor" stroke-width="13" />
                  <g id="c1cb7f4f" class="clef">
                     <use xlink:href="#E050-1x2tiem" x="1184" y="3974" height="720px" width="720px" />
                  </g>
                  <g id="k11kb371" class="keySig">
                     <g id="kakfy8s" class="keyAccid">
                        <use xlink:href="#E262-1x2tiem" x="1829" y="3434" height="720px" width="720px" />
                     </g>
                  </g>
                  <g id="l5dvwov" class="layer">
                     <g id="nyh83fk" class="note">
                        <g class="notehead">
                           <use xlink:href="#E0A4-1x2tiem" x="2240" y="3974" height="720px" width="720px" />
                        </g>
                        <g id="s5ivolj" class="stem">
                           <rect x="2448" y="3344" height="602" width="18" />
                        </g>
                     </g>
                     <g id="bxsdwxd" class="beam">
                        <polygon points="3318,3434 3903,3344 3903,3434 3318,3524" />
                        <g id="n1d30jym" class="note">
                           <g class="notehead">
                              <use xlink:href="#E0A4-1x2tiem" x="3110" y="4064" height="720px" width="720px" />
                           </g>
                           <g id="s17iyqv2" class="stem">
                              <rect x="3318" y="3452" height="584" width="18" />
                           </g>
                           <g id="a17k1ukp" class="accid" />
                        </g>
                        <g id="nlgh290" class="note">
                           <g class="notehead">
                              <use xlink:href="#E0A4-1x2tiem" x="3677" y="3974" height="720px" width="720px" />
                           </g>
                           <g id="s18ky1vv" class="stem">
                              <rect x="3885" y="3362" height="584" width="18" />
                           </g>
                        </g>
                     </g>
                  </g>
               </g>
               <g id="b1vjqjqj" class="barLine">
                  <path d="M4244 3434 L4244 4154" stroke="currentColor" stroke-width="27" />
               </g>
            </g>
            <g id="mwlbfip" class="measure">
               <g id="s1w9vzp6" class="staff">
                  <path d="M4257 3434 L6718 3434" stroke="currentColor" stroke-width="13" />
                  <path d="M4257 3614 L6718 3614" stroke="currentColor" stroke-width="13" />
                  <path d="M4257 3794 L6718 3794" stroke="currentColor" stroke-width="13" />
                  <path d="M4257 3974 L6718 3974" stroke="currentColor" stroke-width="13" />
                  <path d="M4257 4154 L6718 4154" stroke="currentColor" stroke-width="13" />
                  <g id="lhb28vk" class="layer">
                     <g id="b12xd07m" class="beam">
                        <polygon points="4645,3344 5230,3254 5230,3344 4645,3434" />
                        <g id="n1gsd6y6" class="note">
                           <g class="notehead">
                              <use xlink:href="#E0A4-1x2tiem" x="4437" y="3974" height="720px" width="720px" />
                           </g>
                           <g id="siz4sht" class="stem">
                              <rect x="4645" y="3362" height="584" width="18" />
                           </g>
                        </g>
                        <g id="n2g6pun" class="note">
                           <g class="notehead">
                              <use xlink:href="#E0A4-1x2tiem" x="5004" y="3884" height="720px" width="720px" />
                           </g>
                           <g id="s122rf8m" class="stem">
                              <rect x="5212" y="3272" height="584" width="18" />
                           </g>
                        </g>
                     </g>
                     <g id="b96hfbw" class="beam">
                        <polygon points="5779,3209 6364,3389 6364,3479 5779,3299" />
                        <g id="n11pduaf" class="note">
                           <g class="notehead">
                              <use xlink:href="#E0A4-1x2tiem" x="5571" y="3794" height="720px" width="720px" />
                           </g>
                           <g id="s1uky432" class="stem">
                              <rect x="5779" y="3227" height="539" width="18" />
                           </g>
                        </g>
                        <g id="n1chihoh" class="note">
                           <g class="notehead">
                              <use xlink:href="#E0A4-1x2tiem" x="6138" y="3974" height="720px" width="720px" />
                           </g>
                           <g id="s1t78f3n" class="stem">
                              <rect x="6346" y="3407" height="539" width="18" />
                           </g>
                        </g>
                     </g>
                  </g>
               </g>
               <g id="bla90gw" class="barLine">
                  <path d="M6705 3434 L6705 4154" stroke="currentColor" stroke-width="27" />
               </g>
            </g>
            <g id="sr6f5ud" class="sb" />
            <g id="moazcvi" class="measure">
               <g id="sc7kywa" class="staff">
                  <path d="M6718 3434 L8915 3434" stroke="currentColor" stroke-width="13" />
                  <path d="M6718 3614 L8915 3614" stroke="currentColor" stroke-width="13" />
                  <path d="M6718 3794 L8915 3794" stroke="currentColor" stroke-width="13" />
                  <path d="M6718 3974 L8915 3974" stroke="currentColor" stroke-width="13" />
                  <path d="M6718 4154 L8915 4154" stroke="currentColor" stroke-width="13" />
                  <g id="lyqtpu4" class="layer">
                     <g id="nyo2tvs" class="note">
                        <g class="notehead">
                           <use xlink:href="#E0A4-1x2tiem" x="6898" y="3884" height="720px" width="720px" />
                        </g>
                        <g id="szc9pyr" class="stem">
                           <rect x="7106" y="3254" height="602" width="18" />
                        </g>
                     </g>
                     <g id="bln3tta" class="beam">
                        <polygon points="7976,3209 8561,3299 8561,3389 7976,3299" />
                        <g id="n11d8ldj" class="note">
                           <g class="notehead">
                              <use xlink:href="#E0A4-1x2tiem" x="7768" y="3794" height="720px" width="720px" />
                           </g>
                           <g id="s12c1rr9" class="stem">
                              <rect x="7976" y="3227" height="539" width="18" />
                           </g>
                        </g>
                        <g id="n6t6iav" class="note">
                           <g class="notehead">
                              <use xlink:href="#E0A4-1x2tiem" x="8335" y="3884" height="720px" width="720px" />
                           </g>
                           <g id="s1kyxmwl" class="stem">
                              <rect x="8543" y="3317" height="539" width="18" />
                           </g>
                        </g>
                     </g>
                  </g>
               </g>
               <g id="b1nq6yz7" class="barLine">
                  <path d="M8902 3434 L8902 4154" stroke="currentColor" stroke-width="27" />
               </g>
            </g>
            <g id="mxtmcls" class="measure">
               <g id="s6c0qht" class="staff">
                  <path d="M8915 3434 L10830 3434" stroke="currentColor" stroke-width="13" />
                  <path d="M8915 3614 L10830 3614" stroke="currentColor" stroke-width="13" />
                  <path d="M8915 3794 L10830 3794" stroke="currentColor" stroke-width="13" />
                  <path d="M8915 3974 L10830 3974" stroke="currentColor" stroke-width="13" />
                  <path d="M8915 4154 L10830 4154" stroke="currentColor" stroke-width="13" />
                  <g id="m1xcyi54" class="meterSig">
                     <use xlink:href="#E083-1x2tiem" x="8995" y="3614" height="720px" width="720px" />
                     <use xlink:href="#E088-1x2tiem" x="8998" y="3974" height="720px" width="720px" />
                  </g>
                  <g id="l18u69ll" class="layer">
                     <g id="n1c9cokd" class="note">
                        <g class="notehead">
                           <use xlink:href="#E0A4-1x2tiem" x="9546" y="3974" height="720px" width="720px" />
                        </g>
                        <g id="d8q9umm" class="dots">
                           <ellipse cx="9862" cy="3884" rx="36" ry="36" />
                        </g>
                        <g id="s1rhdpdg" class="stem">
                           <rect x="9754" y="3344" height="602" width="18" />
                        </g>
                     </g>
                  </g>
               </g>
               <g id="bmoa1kn" class="barLine">
                  <path d="M10655 3434 L10655 4154" stroke="currentColor" stroke-width="27" />
                  <path d="M10785 3434 L10785 4154" stroke="currentColor" stroke-width="90" />
               </g>
            </g>
            <g id="s198vexs" class="systemMilestoneEnd s11knrcd" />
         </g>
         <g id="pssebb3" class="pageMilestoneEnd sjo7flk" />
         <g id="pbnm49z" class="pageMilestoneEnd mj1x0i4" />
         <g id="p16ewmkc" class="pgHead">
            <text x="0" y="0" font-size="0px">
               <tspan id="r1vuexbd" class="rend" x="10000" y="277" text-anchor="middle">
                  <tspan id="t13ulqd6" class="text">
                     <tspan font-size="405px" class="text">Air n 93</tspan>
                  </tspan>
               </tspan>
            </text>
         </g>
         <g id="pj1rzru" class="pgFoot autogenerated">
            <g id="fbjoreg" class="fig">
               <g id="s1yb89wx" class="svg" transform="translate(7750, 28099) scale(10, 10)">
                  <g>
                     <path fill="#00000" d="M 17.11278,49.26451 V 10.367554 h 12.696511 c 3.288815,7.336676 6.71267,14.610456 10.127281,21.888976 3.419998,-7.484684 6.255515,-14.204887 9.58887,-21.909915 2.436207,0.103726 4.316952,0.08453 6.484294,-0.05808 V 49.264423 H 50.274275 C 50.145222,38.35639 50.016136,27.448368 49.887066,16.540329 45.003488,27.315459 39.967448,38.433564 35.083854,49.208695 34.678996,49.343717 34.426583,49.135619 34.021726,49.270644 29.46588,39.330716 24.910049,29.390805 20.354201,19.450876 20.224341,29.388756 20.09461,39.326619 19.964815,49.264497 H 17.11278 Z M 36.754144,39.324695 C 32.721221,30.512695 28.6883,21.700679 24.655394,12.888662 22.530527,12.750737 22.656775,12.71031 20.714356,12.813974 v 0.966497 c 4.612938,9.99784 9.609439,20.748709 13.87298,30.081745 0.722248,-1.512523 1.444528,-3.025014 2.166808,-4.537521 z m 25.738417,9.939815 c 0,-12.965651 0,-25.931305 0,-38.896956 10.084388,0 20.168791,0 30.253178,0 0,0.960416 0,1.920849 0,2.881265 -6.482825,0 -12.965652,0 -19.448478,0 0,4.802097 0,9.604178 0,14.406277 5.52241,0 11.044819,0 16.567229,0 0,0.960415 0,1.920832 0,2.881248 -5.52241,0 -11.044819,0 -16.567229,0 0,5.282306 0,10.564611 0,15.846917 6.963035,0 13.926068,0 20.889103,0 0,0.960416 0,1.920832 0,2.881249 -10.564597,0 -21.129207,0 -31.693803,0 z m 4.321874,-2.160937 c 0,-11.765131 0,-23.530263 0,-35.295394 -0.720312,0 -1.440625,0 -2.160937,0 0,11.765131 0,23.530263 0,35.295394 0.720312,0 1.440625,0 2.160937,0 z m 32.41413,2.160937 c 0,-12.965651 0,-25.931305 0,-38.896956 2.401045,0 4.802095,0 7.203135,0 0,12.965651 0,25.931305 0,38.896956 -2.40104,0 -4.80209,0 -7.203135,0 z m 2.881265,-2.160937 c 0,-11.765131 0,-23.530263 0,-35.295394 -0.72031,0 -1.44064,0 -2.160953,0 0,11.765131 0,23.530263 0,35.295394 0.720313,0 1.440643,0 2.160953,0 z" />
                     <path fill="#00000" d="m 346.3,6.7 c -3.1,0.5 -4.9,4.4 -2.7,6.8 1.2,1.4 2.7,2.4 4.1,3.5 -2.4,5.3 -7.7,8.3 -11.9,12.1 -3.7,2.8 -7,6.2 -9.7,9.9 -2.2,-0.8 -0.3,-6.8 -0.6,-9.5 0.1,-3.1 0.7,-6.4 2.9,-8.7 1.3,-1.9 3,-3.5 4.5,-5.2 1.2,-3.4 -3.2,-4.9 -5.8,-4.6 -7.3,-0.5 -14.6,2 -20,6.8 -5,4.6 -10,10.1 -11.5,17 -0.9,3.5 -0.2,7.5 2.8,9.9 2.5,2.8 7.4,2.9 9.8,-0.2 1.7,-2.3 3.2,-4.8 3.8,-7.6 -0.1,-2.6 -4.4,-2.3 -4.3,0.2 1.2,2.4 -0.9,4.7 -2.7,6.2 -1.7,0.9 -4.7,0.7 -4.8,-1.7 -1,-5.8 2.1,-11.3 5.2,-16.1 4,-5.8 9.8,-11.2 17.2,-11.8 1.6,0 8.1,-1.2 6.8,1.4 -2.8,2.8 -5.6,6.1 -6,10.3 -1.6,7.7 0.1,15.7 -2.3,23.2 -1.1,3.9 2,2.6 2.5,0.2 3.3,-7.4 8.9,-13.4 15.1,-18.5 4.2,-3.9 9.5,-7.1 11.9,-12.6 1.3,-3.6 1.2,-9 -2.7,-10.9 -0.6,-0.2 -1.2,-0.3 -1.8,-0.3 z m 66,14.5 c -2,0.8 -1.8,4.9 0.8,4.4 3.4,0.4 2.9,-6.2 -0.8,-4.4 z m 0.6,7.3 c -1.3,0.5 -7.6,0.5 -5.4,2.2 4,-0.3 0.7,4.5 0.6,6.7 -0.4,2.9 -2.4,5.9 -1.2,8.8 2.7,1.7 5.6,-0.8 6.8,-3.2 1.6,-1.4 -0.5,-3 -1.2,-0.9 -0.4,0.8 -2.4,3.5 -2.6,1.8 1.1,-5 2.7,-9.9 3.9,-14.9 l -0.1,-0.5 h -0.9 z m -65.1,0.2 c -6.5,1.6 -10.5,9.5 -8.2,15.7 2.1,3.4 7.4,2.9 10.1,0.4 2,-0.2 3.6,-5.3 1,-3.4 -1.4,2 -4,4.2 -6.5,2.8 -2.2,-1.9 -1.9,-5.7 1.7,-5.3 3.1,-0.9 6.9,-2.1 8.1,-5.5 0.9,-2.7 -1.6,-5.2 -4.3,-4.8 h -1.1 -0.7 z m 13.6,0 c -2.2,0 -8.5,1.8 -2.9,2.3 0.9,1.9 -1,4.9 -1.1,7.2 -0.5,2.9 -1.4,5.7 -1.7,8.7 3.7,0.7 3.8,-2.6 4.4,-5.3 0.9,-3.3 1.6,-7 4.1,-9.5 2.4,1.6 6.8,-0.7 3.7,-3.4 -2.9,-0.5 -4.8,2.4 -6.2,4.3 0,-1.2 2.4,-5 -0.2,-4.3 z m 15.8,0 c -6.4,1.3 -9.6,9.1 -7.7,14.9 1.9,4 7.7,3.9 11,1.7 4.1,-3 6,-8.9 4.4,-13.7 -1.3,-3 -4.8,-3.2 -7.6,-3 z m 17,0 c -2.3,0 -8.8,1.9 -3,2.4 0.4,2.5 -1,5.7 -1.4,8.4 -0.7,2.4 -1.8,7.5 2.1,7.2 3.8,-0.1 6.5,-3.5 8.5,-6.3 2,-3.2 4.5,-7 3.3,-10.9 -3.7,-3 -3.6,2.6 -3.1,5.1 -0.7,3.8 -2.7,7.9 -6.2,9.8 -3.6,0.6 -1,-4.3 -0.8,-6.1 0.6,-3.2 1.6,-6.3 1.9,-9.5 -0.4,0 -0.8,0 -1.1,0 z m 30.6,0 c -6.3,1.2 -9.5,8.9 -7.8,14.7 1.5,4 7.2,4.2 10.5,2.4 4.6,-2.8 6.6,-9.3 4.8,-14.3 -1.4,-2.8 -4.8,-3 -7.5,-2.8 z m -75.4,1.7 c 2.1,1.5 0.2,4.7 -1.6,5.7 -1.1,0.4 -5.5,3.4 -4.6,0.7 0.8,-2.7 2.2,-6.2 5.3,-6.6 l 0.9,0.1 z m 30.8,0 c 2.6,1.5 1.3,5.2 0.8,7.6 -0.8,2.7 -1.9,5.9 -4.7,7.1 -5.1,0.8 -4,-5.8 -2.8,-8.8 1,-2.8 3,-6.8 6.7,-5.8 z m 47.1,-0.1 c 2.9,0.7 2,4.7 1.5,6.8 -0.7,3 -1.8,6.7 -5,8 -4.7,0.8 -4,-5.1 -3,-7.9 0.9,-3 2.7,-7.3 6.5,-6.8 z m -88.1,5.9 c -0.3,1.3 0.9,-0.6 0,0 z m -1.1,2.4 c -0.2,0.5 0.5,-0.1 0,0 z m -1.3,4.5 c -0.3,1.3 0.8,-0.2 0,0 z" />
                     <text y="41" x="201" fill="#00000" style="font-style:italic;font-weight:normal;font-size:30px;line-height:125%;font-family:Times;text-anchor:middle" xml:space="preserve">engraved with</text>
                  </g>
               </g>
            </g>
         </g>
      </g>
   </svg>
</svg>
