<?xml version="1.0" encoding="UTF-8" standalone="no"?>
<svg width="2100px" height="2970px" version="1.1" xmlns="http://www.w3.org/2000/svg" xmlns:xlink="http://www.w3.org/1999/xlink" xmlns:mei="http://www.music-encoding.org/ns/mei" overflow="visible">
   <desc>Engraved by Verovio 3.13.1</desc>
   <defs>
      <symbol id="E044-1smhxcl" viewBox="0 0 1000 1000" overflow="inherit">
         <path transform="scale(1,-1)" d="M0 0c0 28 22 50 50 50s50 -22 50 -50s-22 -50 -50 -50s-50 22 -50 50z" />
      </symbol>
      <symbol id="E050-1smhxcl" viewBox="0 0 1000 1000" overflow="inherit">
         <path transform="scale(1,-1)" d="M441 -245c-23 -4 -48 -6 -76 -6c-59 0 -102 7 -130 20c-88 42 -150 93 -187 154c-26 44 -43 103 -48 176c0 6 -1 13 -1 19c0 54 15 111 45 170c29 57 65 106 110 148s96 85 153 127c-3 16 -8 46 -13 92c-4 43 -5 73 -5 89c0 117 16 172 69 257c34 54 64 82 89 82 c21 0 43 -30 69 -92s39 -115 41 -159v-15c0 -109 -21 -162 -67 -241c-13 -20 -63 -90 -98 -118c-13 -9 -25 -19 -37 -29l31 -181c8 1 18 2 28 2c58 0 102 -12 133 -35c59 -43 92 -104 98 -184c1 -7 1 -15 1 -22c0 -123 -87 -209 -181 -248c8 -57 17 -110 25 -162 c5 -31 6 -58 6 -80c0 -30 -5 -53 -14 -70c-35 -64 -88 -99 -158 -103c-5 0 -11 -1 -16 -1c-37 0 -72 10 -108 27c-50 24 -77 59 -80 105v11c0 29 7 55 20 76c18 28 45 42 79 44h6c49 0 93 -42 97 -87v-9c0 -51 -34 -86 -105 -106c17 -24 51 -36 102 -36c62 0 116 43 140 85 c9 16 13 41 13 74c0 20 -1 42 -5 67c-8 53 -18 106 -26 159zM461 939c-95 0 -135 -175 -135 -286c0 -24 2 -48 5 -71c50 39 92 82 127 128c40 53 60 100 60 140v8c-4 53 -22 81 -55 81h-2zM406 119l54 -326c73 25 110 78 110 161c0 7 0 15 -1 23c-7 95 -57 142 -151 142h-12 zM382 117c-72 -2 -128 -47 -128 -120v-7c2 -46 43 -99 75 -115c-3 -2 -7 -5 -10 -10c-70 33 -116 88 -123 172v11c0 68 44 126 88 159c23 17 49 29 78 36l-29 170c-21 -13 -52 -37 -92 -73c-50 -44 -86 -84 -109 -119c-45 -69 -67 -130 -67 -182v-13c5 -68 35 -127 93 -176 s125 -73 203 -73c25 0 50 3 75 9c-19 111 -36 221 -54 331z" />
      </symbol>
      <symbol id="E086-1smhxcl" viewBox="0 0 1000 1000" overflow="inherit">
         <path transform="scale(1,-1)" d="M284 -91c0 37 -28 92 -67 92c-35 0 -65 -54 -65 -111c0 -52 22 -104 68 -104c47 0 64 68 64 123zM230 214c-36 0 -90 -33 -90 -184l2 -36c40 24 81 36 120 36c80 0 140 -48 140 -121c0 -99 -99 -159 -182 -159c-160 0 -200 173 -200 244c0 21 2 43 7 71l10 35 c26 85 73 115 98 126c41 19 74 24 103 24c93 0 142 -63 142 -105c0 -58 -52 -72 -73 -72c-33 0 -59 24 -65 35c-3 5 -6 14 -7 25l11 30c6 15 9 27 9 35c0 11 -9 16 -25 16z" />
      </symbol>
      <symbol id="E088-1smhxcl" viewBox="0 0 1000 1000" overflow="inherit">
         <path transform="scale(1,-1)" d="M195 -214c76 0 88 58 90 68c0 34 -35 60 -57 73l-52 29c-21 10 -32 17 -34 20c-39 -33 -58 -54 -62 -92c5 -23 23 -98 115 -98zM301 135c0 61 -72 76 -113 76c-40 0 -77 -17 -77 -51c3 -21 15 -38 26 -50c17 -15 33 -26 48 -34l65 -28c34 27 51 56 51 87zM176 -250 c-57 0 -166 26 -166 132c0 47 30 86 89 116c-33 15 -79 60 -79 119c0 79 85 132 178 132h18c5 0 21 1 28 -1c25 0 126 -30 126 -110c0 -37 -23 -76 -69 -116c43 -25 83 -71 83 -119c0 -101 -118 -153 -208 -153z" />
      </symbol>
      <symbol id="E0A4-1smhxcl" viewBox="0 0 1000 1000" overflow="inherit">
         <path transform="scale(1,-1)" d="M0 -39c0 68 73 172 200 172c66 0 114 -37 114 -95c0 -84 -106 -171 -218 -171c-64 0 -96 30 -96 94z" />
      </symbol>
      <symbol id="E240-1smhxcl" viewBox="0 0 1000 1000" overflow="inherit">
         <path transform="scale(1,-1)" d="M179 -646c15 29 29 55 46 102c18 49 30 108 30 138c0 105 -80 173 -168 200c-18 5 -47 9 -87 16v190h22c8 0 33 -61 71 -95c4 -3 -2 3 61 -56c62 -58 122 -137 122 -241c0 -38 -13 -106 -35 -163c-20 -51 -43 -99 -66 -132c-6 -5 -10 -7 -13 -7s-5 2 -5 5l4 10 c1 3 14 25 18 33z" />
      </symbol>
      <symbol id="E241-1smhxcl" viewBox="0 0 1000 1000" overflow="inherit">
         <path transform="scale(1,-1)" d="M179 646c-4 8 -17 30 -18 33l-4 10c0 3 2 5 5 5s7 -2 13 -7c23 -33 46 -81 66 -132c22 -57 35 -125 35 -163c0 -104 -60 -183 -122 -241c-63 -59 -57 -53 -61 -56c-38 -34 -63 -95 -71 -95h-22v190c40 7 69 11 87 16c88 27 168 95 168 200c0 30 -12 89 -30 138 c-17 47 -31 73 -46 102z" />
      </symbol>
      <symbol id="E260-1smhxcl" viewBox="0 0 1000 1000" overflow="inherit">
         <path transform="scale(1,-1)" d="M20 110c32 16 54 27 93 27c26 0 35 -3 54 -13c13 -7 24 -20 27 -38l4 -25c0 -28 -16 -57 -45 -89c-23 -25 -39 -44 -65 -68l-88 -79v644h20v-359zM90 106c-32 0 -48 -10 -70 -29v-194c31 31 54 59 71 84c21 32 32 59 32 84c0 9 1 16 1 20c0 14 -3 21 -11 30l-8 3z" />
      </symbol>
   </defs>
   <style type="text/css">g.page-margin{font-family:Times;} g.ending, g.fing, g.reh, g.tempo{font-weight:bold;} g.dir, g.dynam, g.mNum{font-style:italic;} g.label{font-weight:normal;}</style>
   <svg class="definition-scale" color="black" viewBox="0 0 21000 29700">
      <g class="page-margin" transform="translate(500, 500)">
         <g id="m1uxcalm" class="mdiv pageMilestone" />
         <g id="sppj3lv" class="score pageMilestone" />
         <g id="sjevhvi" class="system">
            <g id="laqr709" class="label">
               <text x="1105" y="1535" text-anchor="end" font-size="0px">
                  <tspan id="t1bvrsf4" class="text">
                     <tspan font-size="405px" class="text">Piano</tspan>
                  </tspan>
               </text>
            </g>
            <g id="s8v6zfq" class="section systemMilestone" />
            <g id="p3c7rwk" class="pb" />
            <g id="mqjege5" class="measure">
               <g id="sd6mv04" class="staff">
                  <path d="M1285 1085 L5619 1085" stroke="currentColor" stroke-width="13" />
                  <path d="M1285 1265 L5619 1265" stroke="currentColor" stroke-width="13" />
                  <path d="M1285 1445 L5619 1445" stroke="currentColor" stroke-width="13" />
                  <path d="M1285 1625 L5619 1625" stroke="currentColor" stroke-width="13" />
                  <path d="M1285 1805 L5619 1805" stroke="currentColor" stroke-width="13" />
                  <g id="crcqzz0" class="clef">
                     <use xlink:href="#E050-1smhxcl" x="1375" y="1625" height="720px" width="720px" />
                  </g>
                  <g id="k95t124" class="keySig">
                     <g id="k1pjjbhx" class="keyAccid">
                        <use xlink:href="#E260-1smhxcl" x="2020" y="1445" height="720px" width="720px" />
                     </g>
                  </g>
                  <g id="m83quvk" class="meterSig">
                     <use xlink:href="#E086-1smhxcl" x="2328" y="1265" height="720px" width="720px" />
                     <use xlink:href="#E088-1smhxcl" x="2335" y="1625" height="720px" width="720px" />
                  </g>
                  <g id="lzdz76k" class="layer">
                     <g id="bc4f08n" class="beam">
                        <polygon points="3094,995 4088,1175 4088,1265 3094,1085" />
                        <g id="n2o0yfd" class="note">
                           <g class="notehead">
                              <use xlink:href="#E0A4-1smhxcl" x="2886" y="1625" height="720px" width="720px" />
                           </g>
                           <g id="s1shqhe1" class="stem">
                              <rect x="3094" y="1013" height="584" width="18" />
                           </g>
                        </g>
                        <g id="n1u65rwy" class="note">
                           <g class="notehead">
                              <use xlink:href="#E0A4-1smhxcl" x="3374" y="1715" height="720px" width="720px" />
                           </g>
                           <g id="s5ygl6o" class="stem">
                              <rect x="3582" y="1103" height="584" width="18" />
                           </g>
                        </g>
                        <g id="nid1dqa" class="note">
                           <g class="notehead">
                              <use xlink:href="#E0A4-1smhxcl" x="3862" y="1805" height="720px" width="720px" />
                           </g>
                           <g id="s1nw4uol" class="stem">
                              <rect x="4070" y="1193" height="584" width="18" />
                           </g>
                        </g>
                     </g>
                     <g id="n6ble7j" class="note">
                        <g class="notehead">
                           <use xlink:href="#E0A4-1smhxcl" x="4350" y="1895" height="720px" width="720px" />
                        </g>
                        <g id="s1q6xnm" class="stem">
                           <rect x="4558" y="1265" height="602" width="18" />
                        </g>
                     </g>
                     <g id="n1ispswq" class="note">
                        <g class="notehead">
                           <use xlink:href="#E0A4-1smhxcl" x="5099" y="1895" height="720px" width="720px" />
                        </g>
                        <g id="s1egj2on" class="stem">
                           <rect x="5307" y="1265" height="602" width="18" />
                           <g id="f1g9pwzk" class="flag">
                              <use xlink:href="#E240-1smhxcl" x="5307" y="1265" height="720px" width="720px" />
                           </g>
                        </g>
                     </g>
                  </g>
               </g>
               <g id="bf46bcm" class="barLine">
                  <path d="M5606 1085 L5606 1805" stroke="currentColor" stroke-width="27" />
               </g>
            </g>
            <g id="m15pyv4g" class="measure">
               <g id="spdru5i" class="staff">
                  <path d="M5619 1085 L8739 1085" stroke="currentColor" stroke-width="13" />
                  <path d="M5619 1265 L8739 1265" stroke="currentColor" stroke-width="13" />
                  <path d="M5619 1445 L8739 1445" stroke="currentColor" stroke-width="13" />
                  <path d="M5619 1625 L8739 1625" stroke="currentColor" stroke-width="13" />
                  <path d="M5619 1805 L8739 1805" stroke="currentColor" stroke-width="13" />
                  <g id="lzzixx8" class="layer">
                     <g id="b1ty164a" class="beam">
                        <polygon points="6006,1265 7000,1085 7000,1175 6006,1355" />
                        <g id="n12ozklp" class="note">
                           <g class="notehead">
                              <use xlink:href="#E0A4-1smhxcl" x="5798" y="1895" height="720px" width="720px" />
                           </g>
                           <g id="s1fuyvnd" class="stem">
                              <rect x="6006" y="1283" height="584" width="18" />
                           </g>
                        </g>
                        <g id="n1yu3k6t" class="note">
                           <g class="notehead">
                              <use xlink:href="#E0A4-1smhxcl" x="6286" y="1805" height="720px" width="720px" />
                           </g>
                           <g id="s1qtmd99" class="stem">
                              <rect x="6494" y="1193" height="584" width="18" />
                           </g>
                        </g>
                        <g id="n3pjvgg" class="note">
                           <g class="notehead">
                              <use xlink:href="#E0A4-1smhxcl" x="6774" y="1715" height="720px" width="720px" />
                           </g>
                           <g id="s1lvc4qv" class="stem">
                              <rect x="6982" y="1103" height="584" width="18" />
                           </g>
                        </g>
                     </g>
                     <g id="bcahw4h" class="beam">
                        <polygon points="7470,905 8464,905 8464,995 7470,995" />
                        <g id="n1gifm7b" class="note">
                           <g class="notehead">
                              <use xlink:href="#E0A4-1smhxcl" x="7262" y="1625" height="720px" width="720px" />
                           </g>
                           <g id="sn3ynzh" class="stem">
                              <rect x="7470" y="923" height="674" width="18" />
                           </g>
                        </g>
                        <g id="n1jupzml" class="note">
                           <g class="notehead">
                              <use xlink:href="#E0A4-1smhxcl" x="7750" y="1535" height="720px" width="720px" />
                           </g>
                           <g id="s1tyvqwe" class="stem">
                              <rect x="7958" y="923" height="584" width="18" />
                           </g>
                        </g>
                        <g id="ngcr7rw" class="note">
                           <g class="notehead">
                              <use xlink:href="#E0A4-1smhxcl" x="8238" y="1625" height="720px" width="720px" />
                           </g>
                           <g id="sbba8uv" class="stem">
                              <rect x="8446" y="923" height="674" width="18" />
                           </g>
                        </g>
                     </g>
                  </g>
               </g>
               <g id="boeksv3" class="barLine">
                  <path d="M8726 1085 L8726 1805" stroke="currentColor" stroke-width="27" />
               </g>
            </g>
            <g id="mtyma6k" class="measure">
               <g id="sb9s0pd" class="staff">
                  <path d="M8739 1085 L11651 1085" stroke="currentColor" stroke-width="13" />
                  <path d="M8739 1265 L11651 1265" stroke="currentColor" stroke-width="13" />
                  <path d="M8739 1445 L11651 1445" stroke="currentColor" stroke-width="13" />
                  <path d="M8739 1625 L11651 1625" stroke="currentColor" stroke-width="13" />
                  <path d="M8739 1805 L11651 1805" stroke="currentColor" stroke-width="13" />
                  <g id="l1nfa6q0" class="layer">
                     <g id="budyiy3" class="beam">
                        <polygon points="9126,995 10120,1175 10120,1265 9126,1085" />
                        <g id="nvzsits" class="note">
                           <g class="notehead">
                              <use xlink:href="#E0A4-1smhxcl" x="8918" y="1625" height="720px" width="720px" />
                           </g>
                           <g id="sew883" class="stem">
                              <rect x="9126" y="1013" height="584" width="18" />
                           </g>
                        </g>
                        <g id="n1idbxc1" class="note">
                           <g class="notehead">
                              <use xlink:href="#E0A4-1smhxcl" x="9406" y="1715" height="720px" width="720px" />
                           </g>
                           <g id="s1x1zxas" class="stem">
                              <rect x="9614" y="1103" height="584" width="18" />
                           </g>
                        </g>
                        <g id="n1avazg1" class="note">
                           <g class="notehead">
                              <use xlink:href="#E0A4-1smhxcl" x="9894" y="1805" height="720px" width="720px" />
                           </g>
                           <g id="s395pkh" class="stem">
                              <rect x="10102" y="1193" height="584" width="18" />
                           </g>
                        </g>
                     </g>
                     <g id="nsr6egn" class="note">
                        <g class="notehead">
                           <use xlink:href="#E0A4-1smhxcl" x="10382" y="1895" height="720px" width="720px" />
                        </g>
                        <g id="sx003gy" class="stem">
                           <rect x="10590" y="1265" height="602" width="18" />
                        </g>
                     </g>
                     <g id="n1k2sc59" class="note">
                        <g class="notehead">
                           <use xlink:href="#E0A4-1smhxcl" x="11131" y="1895" height="720px" width="720px" />
                        </g>
                        <g id="smwvfnr" class="stem">
                           <rect x="11339" y="1265" height="602" width="18" />
                           <g id="ft94byp" class="flag">
                              <use xlink:href="#E240-1smhxcl" x="11339" y="1265" height="720px" width="720px" />
                           </g>
                        </g>
                     </g>
                  </g>
               </g>
               <g id="b19s2uca" class="barLine">
                  <path d="M11638 1085 L11638 1805" stroke="currentColor" stroke-width="27" />
               </g>
            </g>
            <g id="mbtspj3" class="measure">
               <g id="s15hdobd" class="staff">
                  <path d="M11651 1085 L14424 1085" stroke="currentColor" stroke-width="13" />
                  <path d="M11651 1265 L14424 1265" stroke="currentColor" stroke-width="13" />
                  <path d="M11651 1445 L14424 1445" stroke="currentColor" stroke-width="13" />
                  <path d="M11651 1625 L14424 1625" stroke="currentColor" stroke-width="13" />
                  <path d="M11651 1805 L14424 1805" stroke="currentColor" stroke-width="13" />
                  <g id="l1c7149q" class="layer">
                     <g id="bwbcvn4" class="beam">
                        <polygon points="12038,1265 13032,1085 13032,1175 12038,1355" />
                        <g id="nkl61wt" class="note">
                           <g class="notehead">
                              <use xlink:href="#E0A4-1smhxcl" x="11830" y="1895" height="720px" width="720px" />
                           </g>
                           <g id="sr068r" class="stem">
                              <rect x="12038" y="1283" height="584" width="18" />
                           </g>
                        </g>
                        <g id="n8vnnmq" class="note">
                           <g class="notehead">
                              <use xlink:href="#E0A4-1smhxcl" x="12318" y="1805" height="720px" width="720px" />
                           </g>
                           <g id="s11r50s6" class="stem">
                              <rect x="12526" y="1193" height="584" width="18" />
                           </g>
                        </g>
                        <g id="n8wa5cf" class="note">
                           <g class="notehead">
                              <use xlink:href="#E0A4-1smhxcl" x="12806" y="1715" height="720px" width="720px" />
                           </g>
                           <g id="s13qpwub" class="stem">
                              <rect x="13014" y="1103" height="584" width="18" />
                           </g>
                        </g>
                     </g>
                     <g id="nb52p7g" class="note">
                        <g class="notehead">
                           <use xlink:href="#E0A4-1smhxcl" x="13294" y="1625" height="720px" width="720px" />
                        </g>
                        <g id="dq3z08w" class="dots">
                           <ellipse cx="13610" cy="1535" rx="36" ry="36" />
                        </g>
                        <g id="s1eofz57" class="stem">
                           <rect x="13502" y="995" height="602" width="18" />
                        </g>
                     </g>
                  </g>
               </g>
               <g id="b1pfcxun" class="barLine">
                  <path d="M14249 1085 L14249 1805" stroke="currentColor" stroke-width="27" />
                  <path d="M14379 1085 L14379 1805" stroke="currentColor" stroke-width="90" />
                  <use xlink:href="#E044-1smhxcl" x="14132" y="1355" height="720px" width="720px" />
                  <use xlink:href="#E044-1smhxcl" x="14132" y="1535" height="720px" width="720px" />
               </g>
            </g>
            <g id="ms5oquj" class="measure">
               <g id="s1t4d9bq" class="staff">
                  <path d="M14424 1085 L17317 1085" stroke="currentColor" stroke-width="13" />
                  <path d="M14424 1265 L17317 1265" stroke="currentColor" stroke-width="13" />
                  <path d="M14424 1445 L17317 1445" stroke="currentColor" stroke-width="13" />
                  <path d="M14424 1625 L17317 1625" stroke="currentColor" stroke-width="13" />
                  <path d="M14424 1805 L17317 1805" stroke="currentColor" stroke-width="13" />
                  <g id="l1rbr4pf" class="layer">
                     <g id="b1c7cq65" class="beam">
                        <polygon points="14811,1040 15805,860 15805,950 14811,1130" />
                        <g id="ngjdzi9" class="note">
                           <g class="notehead">
                              <use xlink:href="#E0A4-1smhxcl" x="14603" y="1625" height="720px" width="720px" />
                           </g>
                           <g id="s17bqls" class="stem">
                              <rect x="14811" y="1058" height="539" width="18" />
                           </g>
                        </g>
                        <g id="n1brnqe5" class="note">
                           <g class="notehead">
                              <use xlink:href="#E0A4-1smhxcl" x="15091" y="1535" height="720px" width="720px" />
                           </g>
                           <g id="s12qcmyy" class="stem">
                              <rect x="15299" y="968" height="539" width="18" />
                           </g>
                        </g>
                        <g id="nmhk5xt" class="note">
                           <g class="notehead">
                              <use xlink:href="#E0A4-1smhxcl" x="15579" y="1445" height="720px" width="720px" />
                           </g>
                           <g id="s1os2pes" class="stem">
                              <rect x="15787" y="878" height="539" width="18" />
                           </g>
                           <g id="a18awbcm" class="accid" />
                        </g>
                     </g>
                     <g id="n1dh2j1c" class="note">
                        <g class="notehead">
                           <use xlink:href="#E0A4-1smhxcl" x="16067" y="1535" height="720px" width="720px" />
                        </g>
                        <g id="sjqbsgo" class="stem">
                           <rect x="16275" y="905" height="602" width="18" />
                        </g>
                     </g>
                     <g id="ntcq6bp" class="note">
                        <g class="notehead">
                           <use xlink:href="#E0A4-1smhxcl" x="16816" y="1445" height="720px" width="720px" />
                        </g>
                        <g id="s11itpca" class="stem">
                           <rect x="16816" y="1473" height="572" width="18" />
                           <g id="f1wn8k76" class="flag">
                              <use xlink:href="#E241-1smhxcl" x="16816" y="2045" height="720px" width="720px" />
                           </g>
                        </g>
                        <g id="ar44jxm" class="accid" />
                     </g>
                  </g>
               </g>
               <g id="b1x5kc11" class="barLine">
                  <path d="M17304 1085 L17304 1805" stroke="currentColor" stroke-width="27" />
               </g>
            </g>
            <g id="mlqiwl0" class="measure">
               <g id="spuuyeb" class="staff">
                  <path d="M17317 1085 L20003 1085" stroke="currentColor" stroke-width="13" />
                  <path d="M17317 1265 L20003 1265" stroke="currentColor" stroke-width="13" />
                  <path d="M17317 1445 L20003 1445" stroke="currentColor" stroke-width="13" />
                  <path d="M17317 1625 L20003 1625" stroke="currentColor" stroke-width="13" />
                  <path d="M17317 1805 L20003 1805" stroke="currentColor" stroke-width="13" />
                  <g id="lh8makj" class="layer">
                     <g id="ny0brln" class="note">
                        <g class="notehead">
                           <use xlink:href="#E0A4-1smhxcl" x="17496" y="1355" height="720px" width="720px" />
                        </g>
                        <g id="s4zfxx7" class="stem">
                           <rect x="17496" y="1383" height="602" width="18" />
                        </g>
                     </g>
                     <g id="nybia2u" class="note">
                        <g class="notehead">
                           <use xlink:href="#E0A4-1smhxcl" x="18246" y="1445" height="720px" width="720px" />
                        </g>
                        <g id="s1ur6sj2" class="stem">
                           <rect x="18246" y="1473" height="572" width="18" />
                           <g id="f1xzcr6h" class="flag">
                              <use xlink:href="#E241-1smhxcl" x="18246" y="2045" height="720px" width="720px" />
                           </g>
                        </g>
                        <g id="amg94od" class="accid" />
                     </g>
                     <g id="n1m3cgd0" class="note">
                        <g class="notehead">
                           <use xlink:href="#E0A4-1smhxcl" x="18734" y="1535" height="720px" width="720px" />
                        </g>
                        <g id="sz8tn7g" class="stem">
                           <rect x="18942" y="905" height="602" width="18" />
                        </g>
                     </g>
                     <g id="n17500si" class="note">
                        <g class="notehead">
                           <use xlink:href="#E0A4-1smhxcl" x="19483" y="1535" height="720px" width="720px" />
                        </g>
                        <g id="s1exc3w4" class="stem">
                           <rect x="19691" y="905" height="602" width="18" />
                           <g id="fmw4a9s" class="flag">
                              <use xlink:href="#E240-1smhxcl" x="19691" y="905" height="720px" width="720px" />
                           </g>
                        </g>
                     </g>
                  </g>
               </g>
               <g id="b4af2t5" class="barLine">
                  <path d="M19990 1085 L19990 1805" stroke="currentColor" stroke-width="27" />
               </g>
            </g>
         </g>
         <g id="s1rfpgs4" class="system">
            <g id="l5oyo1y" class="labelAbbr">
               <text x="914" y="3780" text-anchor="end" font-size="0px">
                  <tspan id="t3hkinx" class="text">
                     <tspan font-size="405px" class="text">Pno.</tspan>
                  </tspan>
               </text>
            </g>
            <g id="m147zy63" class="measure">
               <g id="m11hldd9" class="mNum autogenerated">
                  <text x="1094" y="3087" text-anchor="middle" font-size="0px">
                     <tspan id="t10qmjfe" class="text">
                        <tspan font-size="324px" class="text">7</tspan>
                     </tspan>
                  </text>
               </g>
               <g id="s1lxsgfh" class="staff">
                  <path d="M1094 3330 L4991 3330" stroke="currentColor" stroke-width="13" />
                  <path d="M1094 3510 L4991 3510" stroke="currentColor" stroke-width="13" />
                  <path d="M1094 3690 L4991 3690" stroke="currentColor" stroke-width="13" />
                  <path d="M1094 3870 L4991 3870" stroke="currentColor" stroke-width="13" />
                  <path d="M1094 4050 L4991 4050" stroke="currentColor" stroke-width="13" />
                  <g id="cm265ky" class="clef">
                     <use xlink:href="#E050-1smhxcl" x="1184" y="3870" height="720px" width="720px" />
                  </g>
                  <g id="k5kzvap" class="keySig">
                     <g id="k1mlxngw" class="keyAccid">
                        <use xlink:href="#E260-1smhxcl" x="1829" y="3690" height="720px" width="720px" />
                     </g>
                  </g>
                  <g id="l9jfqq4" class="layer">
                     <g id="bsfhjx3" class="beam">
                        <polygon points="2449,3285 3449,3105 3449,3195 2449,3375" />
                        <g id="ngua1n5" class="note">
                           <g class="notehead">
                              <use xlink:href="#E0A4-1smhxcl" x="2241" y="3870" height="720px" width="720px" />
                           </g>
                           <g id="s1pwdwt6" class="stem">
                              <rect x="2449" y="3303" height="539" width="18" />
                           </g>
                        </g>
                        <g id="nw60tqv" class="note">
                           <g class="notehead">
                              <use xlink:href="#E0A4-1smhxcl" x="2732" y="3780" height="720px" width="720px" />
                           </g>
                           <g id="s10zibg6" class="stem">
                              <rect x="2940" y="3213" height="539" width="18" />
                           </g>
                        </g>
                        <g id="njao01a" class="note">
                           <g class="notehead">
                              <use xlink:href="#E0A4-1smhxcl" x="3223" y="3690" height="720px" width="720px" />
                           </g>
                           <g id="s162slvy" class="stem">
                              <rect x="3431" y="3123" height="539" width="18" />
                           </g>
                           <g id="ahprkrh" class="accid" />
                        </g>
                     </g>
                     <g id="n162wxis" class="note">
                        <g class="notehead">
                           <use xlink:href="#E0A4-1smhxcl" x="3714" y="3780" height="720px" width="720px" />
                        </g>
                        <g id="samqkde" class="stem">
                           <rect x="3922" y="3150" height="602" width="18" />
                        </g>
                     </g>
                     <g id="n1n6db3m" class="note">
                        <g class="notehead">
                           <use xlink:href="#E0A4-1smhxcl" x="4468" y="3870" height="720px" width="720px" />
                        </g>
                        <g id="snc859b" class="stem">
                           <rect x="4676" y="3240" height="602" width="18" />
                           <g id="f1hxnffb" class="flag">
                              <use xlink:href="#E240-1smhxcl" x="4676" y="3240" height="720px" width="720px" />
                           </g>
                        </g>
                     </g>
                  </g>
               </g>
               <g id="b9djod4" class="barLine">
                  <path d="M4978 3330 L4978 4050" stroke="currentColor" stroke-width="27" />
               </g>
            </g>
            <g id="s18j57fv" class="sb" />
            <g id="m1q606sm" class="measure">
               <g id="s1g0zt6y" class="staff">
                  <path d="M4991 3330 L7780 3330" stroke="currentColor" stroke-width="13" />
                  <path d="M4991 3510 L7780 3510" stroke="currentColor" stroke-width="13" />
                  <path d="M4991 3690 L7780 3690" stroke="currentColor" stroke-width="13" />
                  <path d="M4991 3870 L7780 3870" stroke="currentColor" stroke-width="13" />
                  <path d="M4991 4050 L7780 4050" stroke="currentColor" stroke-width="13" />
                  <g id="l1g27pjt" class="layer">
                     <g id="b1d3jv30" class="beam">
                        <polygon points="5379,3240 6379,3420 6379,3510 5379,3330" />
                        <g id="n13qcur1" class="note">
                           <g class="notehead">
                              <use xlink:href="#E0A4-1smhxcl" x="5171" y="3870" height="720px" width="720px" />
                           </g>
                           <g id="szowsma" class="stem">
                              <rect x="5379" y="3258" height="584" width="18" />
                           </g>
                        </g>
                        <g id="nrq6tb1" class="note">
                           <g class="notehead">
                              <use xlink:href="#E0A4-1smhxcl" x="5662" y="3960" height="720px" width="720px" />
                           </g>
                           <g id="s1b6vdm6" class="stem">
                              <rect x="5870" y="3348" height="584" width="18" />
                           </g>
                        </g>
                        <g id="nunfj1n" class="note">
                           <g class="notehead">
                              <use xlink:href="#E0A4-1smhxcl" x="6153" y="4050" height="720px" width="720px" />
                           </g>
                           <g id="sezfn9y" class="stem">
                              <rect x="6361" y="3438" height="584" width="18" />
                           </g>
                        </g>
                     </g>
                     <g id="n178nlaw" class="note">
                        <g class="notehead">
                           <use xlink:href="#E0A4-1smhxcl" x="6644" y="4140" height="720px" width="720px" />
                        </g>
                        <g id="dtkb5kh" class="dots">
                           <ellipse cx="6960" cy="4140" rx="36" ry="36" />
                        </g>
                        <g id="s1hip7n3" class="stem">
                           <rect x="6852" y="3510" height="602" width="18" />
                        </g>
                     </g>
                  </g>
               </g>
               <g id="d1ytnu0j" class="dir fine">
                  <text x="7605" y="3202" text-anchor="end" font-size="0px">
                     <tspan id="r1ytt3ph" class="rend">
                        <tspan id="t13non23" class="text">
                           <tspan font-size="405px" class="text">Fine</tspan>
                        </tspan>
                     </tspan>
                  </text>
               </g>
               <g id="b17ph2t9" class="barLine">
                  <path d="M7605 3330 L7605 4050" stroke="currentColor" stroke-width="27" />
                  <path d="M7735 3330 L7735 4050" stroke="currentColor" stroke-width="90" />
               </g>
            </g>
            <g id="skyjh7i" class="systemMilestoneEnd s8v6zfq" />
         </g>
         <g id="pgurjge" class="pageMilestoneEnd sppj3lv" />
         <g id="pteoq7n" class="pageMilestoneEnd m1uxcalm" />
         <g id="pxohfm6" class="pgHead">
            <text x="0" y="0" font-size="0px">
               <tspan id="r1ptt2cs" class="rend" x="10000" y="277" text-anchor="middle">
                  <tspan id="t1okhlkz" class="text">
                     <tspan font-size="405px" class="text">Air n 110</tspan>
                  </tspan>
               </tspan>
            </text>
         </g>
         <g id="p14n6w7f" class="pgFoot autogenerated">
            <g id="fm55z4z" class="fig">
               <g id="s1ykuy17" class="svg" transform="translate(7750, 28099) scale(10, 10)">
                  <g>
                     <path fill="#00000" d="M 17.11278,49.26451 V 10.367554 h 12.696511 c 3.288815,7.336676 6.71267,14.610456 10.127281,21.888976 3.419998,-7.484684 6.255515,-14.204887 9.58887,-21.909915 2.436207,0.103726 4.316952,0.08453 6.484294,-0.05808 V 49.264423 H 50.274275 C 50.145222,38.35639 50.016136,27.448368 49.887066,16.540329 45.003488,27.315459 39.967448,38.433564 35.083854,49.208695 34.678996,49.343717 34.426583,49.135619 34.021726,49.270644 29.46588,39.330716 24.910049,29.390805 20.354201,19.450876 20.224341,29.388756 20.09461,39.326619 19.964815,49.264497 H 17.11278 Z M 36.754144,39.324695 C 32.721221,30.512695 28.6883,21.700679 24.655394,12.888662 22.530527,12.750737 22.656775,12.71031 20.714356,12.813974 v 0.966497 c 4.612938,9.99784 9.609439,20.748709 13.87298,30.081745 0.722248,-1.512523 1.444528,-3.025014 2.166808,-4.537521 z m 25.738417,9.939815 c 0,-12.965651 0,-25.931305 0,-38.896956 10.084388,0 20.168791,0 30.253178,0 0,0.960416 0,1.920849 0,2.881265 -6.482825,0 -12.965652,0 -19.448478,0 0,4.802097 0,9.604178 0,14.406277 5.52241,0 11.044819,0 16.567229,0 0,0.960415 0,1.920832 0,2.881248 -5.52241,0 -11.044819,0 -16.567229,0 0,5.282306 0,10.564611 0,15.846917 6.963035,0 13.926068,0 20.889103,0 0,0.960416 0,1.920832 0,2.881249 -10.564597,0 -21.129207,0 -31.693803,0 z m 4.321874,-2.160937 c 0,-11.765131 0,-23.530263 0,-35.295394 -0.720312,0 -1.440625,0 -2.160937,0 0,11.765131 0,23.530263 0,35.295394 0.720312,0 1.440625,0 2.160937,0 z m 32.41413,2.160937 c 0,-12.965651 0,-25.931305 0,-38.896956 2.401045,0 4.802095,0 7.203135,0 0,12.965651 0,25.931305 0,38.896956 -2.40104,0 -4.80209,0 -7.203135,0 z m 2.881265,-2.160937 c 0,-11.765131 0,-23.530263 0,-35.295394 -0.72031,0 -1.44064,0 -2.160953,0 0,11.765131 0,23.530263 0,35.295394 0.720313,0 1.440643,0 2.160953,0 z" />
                     <path fill="#00000" d="m 346.3,6.7 c -3.1,0.5 -4.9,4.4 -2.7,6.8 1.2,1.4 2.7,2.4 4.1,3.5 -2.4,5.3 -7.7,8.3 -11.9,12.1 -3.7,2.8 -7,6.2 -9.7,9.9 -2.2,-0.8 -0.3,-6.8 -0.6,-9.5 0.1,-3.1 0.7,-6.4 2.9,-8.7 1.3,-1.9 3,-3.5 4.5,-5.2 1.2,-3.4 -3.2,-4.9 -5.8,-4.6 -7.3,-0.5 -14.6,2 -20,6.8 -5,4.6 -10,10.1 -11.5,17 -0.9,3.5 -0.2,7.5 2.8,9.9 2.5,2.8 7.4,2.9 9.8,-0.2 1.7,-2.3 3.2,-4.8 3.8,-7.6 -0.1,-2.6 -4.4,-2.3 -4.3,0.2 1.2,2.4 -0.9,4.7 -2.7,6.2 -1.7,0.9 -4.7,0.7 -4.8,-1.7 -1,-5.8 2.1,-11.3 5.2,-16.1 4,-5.8 9.8,-11.2 17.2,-11.8 1.6,0 8.1,-1.2 6.8,1.4 -2.8,2.8 -5.6,6.1 -6,10.3 -1.6,7.7 0.1,15.7 -2.3,23.2 -1.1,3.9 2,2.6 2.5,0.2 3.3,-7.4 8.9,-13.4 15.1,-18.5 4.2,-3.9 9.5,-7.1 11.9,-12.6 1.3,-3.6 1.2,-9 -2.7,-10.9 -0.6,-0.2 -1.2,-0.3 -1.8,-0.3 z m 66,14.5 c -2,0.8 -1.8,4.9 0.8,4.4 3.4,0.4 2.9,-6.2 -0.8,-4.4 z m 0.6,7.3 c -1.3,0.5 -7.6,0.5 -5.4,2.2 4,-0.3 0.7,4.5 0.6,6.7 -0.4,2.9 -2.4,5.9 -1.2,8.8 2.7,1.7 5.6,-0.8 6.8,-3.2 1.6,-1.4 -0.5,-3 -1.2,-0.9 -0.4,0.8 -2.4,3.5 -2.6,1.8 1.1,-5 2.7,-9.9 3.9,-14.9 l -0.1,-0.5 h -0.9 z m -65.1,0.2 c -6.5,1.6 -10.5,9.5 -8.2,15.7 2.1,3.4 7.4,2.9 10.1,0.4 2,-0.2 3.6,-5.3 1,-3.4 -1.4,2 -4,4.2 -6.5,2.8 -2.2,-1.9 -1.9,-5.7 1.7,-5.3 3.1,-0.9 6.9,-2.1 8.1,-5.5 0.9,-2.7 -1.6,-5.2 -4.3,-4.8 h -1.1 -0.7 z m 13.6,0 c -2.2,0 -8.5,1.8 -2.9,2.3 0.9,1.9 -1,4.9 -1.1,7.2 -0.5,2.9 -1.4,5.7 -1.7,8.7 3.7,0.7 3.8,-2.6 4.4,-5.3 0.9,-3.3 1.6,-7 4.1,-9.5 2.4,1.6 6.8,-0.7 3.7,-3.4 -2.9,-0.5 -4.8,2.4 -6.2,4.3 0,-1.2 2.4,-5 -0.2,-4.3 z m 15.8,0 c -6.4,1.3 -9.6,9.1 -7.7,14.9 1.9,4 7.7,3.9 11,1.7 4.1,-3 6,-8.9 4.4,-13.7 -1.3,-3 -4.8,-3.2 -7.6,-3 z m 17,0 c -2.3,0 -8.8,1.9 -3,2.4 0.4,2.5 -1,5.7 -1.4,8.4 -0.7,2.4 -1.8,7.5 2.1,7.2 3.8,-0.1 6.5,-3.5 8.5,-6.3 2,-3.2 4.5,-7 3.3,-10.9 -3.7,-3 -3.6,2.6 -3.1,5.1 -0.7,3.8 -2.7,7.9 -6.2,9.8 -3.6,0.6 -1,-4.3 -0.8,-6.1 0.6,-3.2 1.6,-6.3 1.9,-9.5 -0.4,0 -0.8,0 -1.1,0 z m 30.6,0 c -6.3,1.2 -9.5,8.9 -7.8,14.7 1.5,4 7.2,4.2 10.5,2.4 4.6,-2.8 6.6,-9.3 4.8,-14.3 -1.4,-2.8 -4.8,-3 -7.5,-2.8 z m -75.4,1.7 c 2.1,1.5 0.2,4.7 -1.6,5.7 -1.1,0.4 -5.5,3.4 -4.6,0.7 0.8,-2.7 2.2,-6.2 5.3,-6.6 l 0.9,0.1 z m 30.8,0 c 2.6,1.5 1.3,5.2 0.8,7.6 -0.8,2.7 -1.9,5.9 -4.7,7.1 -5.1,0.8 -4,-5.8 -2.8,-8.8 1,-2.8 3,-6.8 6.7,-5.8 z m 47.1,-0.1 c 2.9,0.7 2,4.7 1.5,6.8 -0.7,3 -1.8,6.7 -5,8 -4.7,0.8 -4,-5.1 -3,-7.9 0.9,-3 2.7,-7.3 6.5,-6.8 z m -88.1,5.9 c -0.3,1.3 0.9,-0.6 0,0 z m -1.1,2.4 c -0.2,0.5 0.5,-0.1 0,0 z m -1.3,4.5 c -0.3,1.3 0.8,-0.2 0,0 z" />
                     <text y="41" x="201" fill="#00000" style="font-style:italic;font-weight:normal;font-size:30px;line-height:125%;font-family:Times;text-anchor:middle" xml:space="preserve">engraved with</text>
                  </g>
               </g>
            </g>
         </g>
      </g>
   </svg>
</svg>
