<?xml version="1.0" encoding="UTF-8" standalone="no"?>
<svg width="2100px" height="2970px" version="1.1" xmlns="http://www.w3.org/2000/svg" xmlns:xlink="http://www.w3.org/1999/xlink" xmlns:mei="http://www.music-encoding.org/ns/mei" overflow="visible">
   <desc>Engraved by Verovio 3.13.1</desc>
   <defs>
      <symbol id="E260-13uw00b" viewBox="0 0 1000 1000" overflow="inherit">
         <path transform="scale(1,-1)" d="M20 110c32 16 54 27 93 27c26 0 35 -3 54 -13c13 -7 24 -20 27 -38l4 -25c0 -28 -16 -57 -45 -89c-23 -25 -39 -44 -65 -68l-88 -79v644h20v-359zM90 106c-32 0 -48 -10 -70 -29v-194c31 31 54 59 71 84c21 32 32 59 32 84c0 9 1 16 1 20c0 14 -3 21 -11 30l-8 3z" />
      </symbol>
      <symbol id="E044-13uw00b" viewBox="0 0 1000 1000" overflow="inherit">
         <path transform="scale(1,-1)" d="M0 0c0 28 22 50 50 50s50 -22 50 -50s-22 -50 -50 -50s-50 22 -50 50z" />
      </symbol>
      <symbol id="E050-13uw00b" viewBox="0 0 1000 1000" overflow="inherit">
         <path transform="scale(1,-1)" d="M441 -245c-23 -4 -48 -6 -76 -6c-59 0 -102 7 -130 20c-88 42 -150 93 -187 154c-26 44 -43 103 -48 176c0 6 -1 13 -1 19c0 54 15 111 45 170c29 57 65 106 110 148s96 85 153 127c-3 16 -8 46 -13 92c-4 43 -5 73 -5 89c0 117 16 172 69 257c34 54 64 82 89 82 c21 0 43 -30 69 -92s39 -115 41 -159v-15c0 -109 -21 -162 -67 -241c-13 -20 -63 -90 -98 -118c-13 -9 -25 -19 -37 -29l31 -181c8 1 18 2 28 2c58 0 102 -12 133 -35c59 -43 92 -104 98 -184c1 -7 1 -15 1 -22c0 -123 -87 -209 -181 -248c8 -57 17 -110 25 -162 c5 -31 6 -58 6 -80c0 -30 -5 -53 -14 -70c-35 -64 -88 -99 -158 -103c-5 0 -11 -1 -16 -1c-37 0 -72 10 -108 27c-50 24 -77 59 -80 105v11c0 29 7 55 20 76c18 28 45 42 79 44h6c49 0 93 -42 97 -87v-9c0 -51 -34 -86 -105 -106c17 -24 51 -36 102 -36c62 0 116 43 140 85 c9 16 13 41 13 74c0 20 -1 42 -5 67c-8 53 -18 106 -26 159zM461 939c-95 0 -135 -175 -135 -286c0 -24 2 -48 5 -71c50 39 92 82 127 128c40 53 60 100 60 140v8c-4 53 -22 81 -55 81h-2zM406 119l54 -326c73 25 110 78 110 161c0 7 0 15 -1 23c-7 95 -57 142 -151 142h-12 zM382 117c-72 -2 -128 -47 -128 -120v-7c2 -46 43 -99 75 -115c-3 -2 -7 -5 -10 -10c-70 33 -116 88 -123 172v11c0 68 44 126 88 159c23 17 49 29 78 36l-29 170c-21 -13 -52 -37 -92 -73c-50 -44 -86 -84 -109 -119c-45 -69 -67 -130 -67 -182v-13c5 -68 35 -127 93 -176 s125 -73 203 -73c25 0 50 3 75 9c-19 111 -36 221 -54 331z" />
      </symbol>
      <symbol id="E081-13uw00b" viewBox="0 0 1000 1000" overflow="inherit">
         <path transform="scale(1,-1)" d="M68 -250v36c23 0 40 6 49 18c8 14 12 33 12 57v250l-82 -129l-27 13l107 255h128v-394c0 -24 5 -42 14 -53s25 -17 47 -17v-36h-248z" />
      </symbol>
      <symbol id="E082-13uw00b" viewBox="0 0 1000 1000" overflow="inherit">
         <path transform="scale(1,-1)" d="M124 -185c-18 0 -55 -14 -65 -65h-36l-3 30c0 25 6 45 18 63c11 19 22 30 39 43l121 82l37 29c15 11 27 29 38 54c12 24 18 47 18 70c0 40 -19 88 -94 88c-25 0 -32 0 -50 -8c-14 -5 -23 -12 -26 -22c3 -9 7 -15 10 -18l24 -17c12 -7 17 -11 27 -21c5 -7 7 -16 7 -27 c0 -12 0 -57 -79 -74c-30 0 -76 26 -76 94c0 66 81 135 197 135c72 0 181 -32 181 -150c0 -53 -32 -95 -113 -133l-91 -41c-26 -11 -45 -23 -57 -37l49 7c84 0 115 -41 148 -41c20 0 33 20 39 61h35c0 -152 -68 -168 -114 -168c-17 0 -65 0 -79 7h10l-28 17 c-49 37 -69 40 -87 42z" />
      </symbol>
      <symbol id="E084-13uw00b" viewBox="0 0 1000 1000" overflow="inherit">
         <path transform="scale(1,-1)" d="M20 -78c84 97 114 180 134 329h170c-13 -32 -82 -132 -99 -151l-84 -97c-33 -36 -59 -63 -80 -81h162v102l127 123v-225h57v-39h-57v-34c0 -43 19 -65 57 -65v-34h-244v36c48 0 60 26 60 70v27h-203v39z" />
      </symbol>
      <symbol id="E0A4-13uw00b" viewBox="0 0 1000 1000" overflow="inherit">
         <path transform="scale(1,-1)" d="M0 -39c0 68 73 172 200 172c66 0 114 -37 114 -95c0 -84 -106 -171 -218 -171c-64 0 -96 30 -96 94z" />
      </symbol>
   </defs>
   <style type="text/css">g.page-margin{font-family:Times;} g.ending, g.fing, g.reh, g.tempo{font-weight:bold;} g.dir, g.dynam, g.mNum{font-style:italic;} g.label{font-weight:normal;}</style>
   <svg class="definition-scale" color="black" viewBox="0 0 21000 29700">
      <g class="page-margin" transform="translate(500, 500)">
         <g id="mynpeta" class="mdiv pageMilestone" />
         <g id="s130vfue" class="score pageMilestone" />
         <g id="sw7cha7" class="system">
            <g id="l181n8c3" class="label">
               <text x="1105" y="1535" text-anchor="end" font-size="0px">
                  <tspan id="tbqjn2o" class="text">
                     <tspan font-size="405px" class="text">Piano</tspan>
                  </tspan>
               </text>
            </g>
            <g id="sio286m" class="section systemMilestone" />
            <g id="p9yks88" class="pb" />
            <g id="m16goqup" class="measure">
               <g id="m57r3fg" class="mNum">
                  <text x="1285" y="842" text-anchor="middle" font-size="0px" />
               </g>
               <g id="srkrqqm" class="staff">
                  <path d="M1285 1085 L4139 1085" stroke="currentColor" stroke-width="13" />
                  <path d="M1285 1265 L4139 1265" stroke="currentColor" stroke-width="13" />
                  <path d="M1285 1445 L4139 1445" stroke="currentColor" stroke-width="13" />
                  <path d="M1285 1625 L4139 1625" stroke="currentColor" stroke-width="13" />
                  <path d="M1285 1805 L4139 1805" stroke="currentColor" stroke-width="13" />
                  <g id="c1fuvfex" class="clef">
                     <use xlink:href="#E050-13uw00b" x="1375" y="1625" height="720px" width="720px" />
                  </g>
                  <g id="k10djvh4" class="keySig">
                     <g id="kyoxk6b" class="keyAccid">
                        <use xlink:href="#E260-13uw00b" x="2020" y="1445" height="720px" width="720px" />
                     </g>
                  </g>
                  <g id="mlg4h9w" class="meterSig">
                     <use xlink:href="#E082-13uw00b" x="2328" y="1265" height="720px" width="720px" />
                     <use xlink:href="#E084-13uw00b" x="2333" y="1625" height="720px" width="720px" />
                  </g>
                  <g id="lofwb8c" class="layer">
                     <g id="bq9akqd" class="beam">
                        <polygon points="2903,1625 3794,1805 3794,1715 2903,1535" />
                        <polygon points="3436,1599 3794,1670 3794,1580 3436,1509" />
                        <g id="nznehyv" class="note">
                           <g class="notehead">
                              <use xlink:href="#E0A4-13uw00b" x="2903" y="995" height="720px" width="720px" />
                           </g>
                           <g id="s14odd82" class="stem">
                              <rect x="2903" y="1023" height="584" width="18" />
                           </g>
                        </g>
                        <g id="n9rckvp" class="note">
                           <g class="notehead">
                              <use xlink:href="#E0A4-13uw00b" x="3427" y="1085" height="720px" width="720px" />
                           </g>
                           <g id="sqt25fk" class="stem">
                              <rect x="3427" y="1113" height="603" width="18" />
                           </g>
                        </g>
                        <g id="n3tqhdy" class="note">
                           <g class="notehead">
                              <use xlink:href="#E0A4-13uw00b" x="3776" y="1175" height="720px" width="720px" />
                           </g>
                           <g id="s1021ra4" class="stem">
                              <rect x="3776" y="1203" height="584" width="18" />
                           </g>
                        </g>
                     </g>
                  </g>
               </g>
               <g id="bvspesv" class="barLine">
                  <path d="M4126 1085 L4126 1805" stroke="currentColor" stroke-width="27" />
               </g>
            </g>
            <g id="m7r4lu9" class="measure">
               <g id="s1nm7zuv" class="staff">
                  <path d="M4139 1085 L6407 1085" stroke="currentColor" stroke-width="13" />
                  <path d="M4139 1265 L6407 1265" stroke="currentColor" stroke-width="13" />
                  <path d="M4139 1445 L6407 1445" stroke="currentColor" stroke-width="13" />
                  <path d="M4139 1625 L6407 1625" stroke="currentColor" stroke-width="13" />
                  <path d="M4139 1805 L6407 1805" stroke="currentColor" stroke-width="13" />
                  <g id="lqx8z4t" class="layer">
                     <g id="bm0rv1q" class="beam">
                        <polygon points="4321,1895 5015,1805 5015,1715 4321,1805" />
                        <polygon points="4789,1698 5015,1670 5015,1580 4789,1608" />
                        <g id="n1eg2qfm" class="note">
                           <g class="notehead">
                              <use xlink:href="#E0A4-13uw00b" x="4321" y="1265" height="720px" width="720px" />
                           </g>
                           <g id="d1d72pyg" class="dots">
                              <ellipse cx="4637" cy="1175" rx="36" ry="36" />
                           </g>
                           <g id="sdzqa21" class="stem">
                              <rect x="4321" y="1293" height="584" width="18" />
                           </g>
                        </g>
                        <g id="n5j603" class="note">
                           <g class="notehead">
                              <use xlink:href="#E0A4-13uw00b" x="4997" y="1175" height="720px" width="720px" />
                           </g>
                           <g id="shh7x6c" class="stem">
                              <rect x="4997" y="1203" height="584" width="18" />
                           </g>
                        </g>
                     </g>
                     <g id="b17ciipy" class="beam">
                        <polygon points="5347,1715 5888,1670 5888,1580 5347,1625" />
                        <g id="n1ge99xd" class="note">
                           <g class="notehead">
                              <use xlink:href="#E0A4-13uw00b" x="5347" y="1085" height="720px" width="720px" />
                           </g>
                           <g id="ss4uf8k" class="stem">
                              <rect x="5347" y="1113" height="584" width="18" />
                           </g>
                        </g>
                        <g id="n1wyovtq" class="note">
                           <g class="notehead">
                              <use xlink:href="#E0A4-13uw00b" x="5870" y="995" height="720px" width="720px" />
                           </g>
                           <g id="sw4zkc3" class="stem">
                              <rect x="5870" y="1023" height="629" width="18" />
                           </g>
                        </g>
                     </g>
                  </g>
               </g>
               <g id="bkp9k8w" class="barLine">
                  <path d="M6394 1085 L6394 1805" stroke="currentColor" stroke-width="27" />
               </g>
            </g>
            <g id="m1qf2h1i" class="measure">
               <g id="s1j8os1f" class="staff">
                  <path d="M6407 1085 L8873 1085" stroke="currentColor" stroke-width="13" />
                  <path d="M6407 1265 L8873 1265" stroke="currentColor" stroke-width="13" />
                  <path d="M6407 1445 L8873 1445" stroke="currentColor" stroke-width="13" />
                  <path d="M6407 1625 L8873 1625" stroke="currentColor" stroke-width="13" />
                  <path d="M6407 1805 L8873 1805" stroke="currentColor" stroke-width="13" />
                  <g id="l1idx2nx" class="layer">
                     <g id="b1g523le" class="beam">
                        <polygon points="6589,1670 7131,1715 7131,1625 6589,1580" />
                        <g id="n12bnufw" class="note">
                           <g class="notehead">
                              <use xlink:href="#E0A4-13uw00b" x="6589" y="995" height="720px" width="720px" />
                           </g>
                           <g id="s70f1ev" class="stem">
                              <rect x="6589" y="1023" height="629" width="18" />
                           </g>
                        </g>
                        <g id="n19ukshp" class="note">
                           <g class="notehead">
                              <use xlink:href="#E0A4-13uw00b" x="7113" y="1085" height="720px" width="720px" />
                           </g>
                           <g id="s1dnooha" class="stem">
                              <rect x="7113" y="1113" height="584" width="18" />
                           </g>
                        </g>
                     </g>
                     <g id="bruu5xf" class="beam">
                        <polygon points="7637,1625 8528,1805 8528,1715 7637,1535" />
                        <polygon points="8170,1599 8528,1670 8528,1580 8170,1509" />
                        <g id="n8nsodf" class="note">
                           <g class="notehead">
                              <use xlink:href="#E0A4-13uw00b" x="7637" y="995" height="720px" width="720px" />
                           </g>
                           <g id="smx8a6w" class="stem">
                              <rect x="7637" y="1023" height="584" width="18" />
                           </g>
                        </g>
                        <g id="n18jbe8e" class="note">
                           <g class="notehead">
                              <use xlink:href="#E0A4-13uw00b" x="8161" y="1085" height="720px" width="720px" />
                           </g>
                           <g id="s1t0d7oq" class="stem">
                              <rect x="8161" y="1113" height="603" width="18" />
                           </g>
                        </g>
                        <g id="nwoi85e" class="note">
                           <g class="notehead">
                              <use xlink:href="#E0A4-13uw00b" x="8510" y="1175" height="720px" width="720px" />
                           </g>
                           <g id="s1s3865t" class="stem">
                              <rect x="8510" y="1203" height="584" width="18" />
                           </g>
                        </g>
                     </g>
                  </g>
               </g>
               <g id="b15rczr9" class="barLine">
                  <path d="M8860 1085 L8860 1805" stroke="currentColor" stroke-width="27" />
               </g>
            </g>
            <g id="m1a3ivwi" class="measure">
               <g id="s10ex06g" class="staff">
                  <path d="M8873 1085 L11141 1085" stroke="currentColor" stroke-width="13" />
                  <path d="M8873 1265 L11141 1265" stroke="currentColor" stroke-width="13" />
                  <path d="M8873 1445 L11141 1445" stroke="currentColor" stroke-width="13" />
                  <path d="M8873 1625 L11141 1625" stroke="currentColor" stroke-width="13" />
                  <path d="M8873 1805 L11141 1805" stroke="currentColor" stroke-width="13" />
                  <g id="l15ifuws" class="layer">
                     <g id="b8kd2sh" class="beam">
                        <polygon points="9055,1895 9749,1805 9749,1715 9055,1805" />
                        <polygon points="9523,1698 9749,1670 9749,1580 9523,1608" />
                        <g id="n1cpctdq" class="note">
                           <g class="notehead">
                              <use xlink:href="#E0A4-13uw00b" x="9055" y="1265" height="720px" width="720px" />
                           </g>
                           <g id="d1a9nn0s" class="dots">
                              <ellipse cx="9371" cy="1175" rx="36" ry="36" />
                           </g>
                           <g id="s4gg4ug" class="stem">
                              <rect x="9055" y="1293" height="584" width="18" />
                           </g>
                        </g>
                        <g id="n1yikqxd" class="note">
                           <g class="notehead">
                              <use xlink:href="#E0A4-13uw00b" x="9731" y="1175" height="720px" width="720px" />
                           </g>
                           <g id="s8djlj0" class="stem">
                              <rect x="9731" y="1203" height="584" width="18" />
                           </g>
                        </g>
                     </g>
                     <g id="b1ac99h4" class="beam">
                        <polygon points="10081,1715 10622,1670 10622,1580 10081,1625" />
                        <g id="n1ae9idc" class="note">
                           <g class="notehead">
                              <use xlink:href="#E0A4-13uw00b" x="10081" y="1085" height="720px" width="720px" />
                           </g>
                           <g id="s1pxpn07" class="stem">
                              <rect x="10081" y="1113" height="584" width="18" />
                           </g>
                        </g>
                        <g id="n1x75v5w" class="note">
                           <g class="notehead">
                              <use xlink:href="#E0A4-13uw00b" x="10604" y="995" height="720px" width="720px" />
                           </g>
                           <g id="sqqo8ve" class="stem">
                              <rect x="10604" y="1023" height="629" width="18" />
                           </g>
                        </g>
                     </g>
                  </g>
               </g>
               <g id="b2ojw8q" class="barLine">
                  <path d="M11128 1085 L11128 1805" stroke="currentColor" stroke-width="27" />
               </g>
            </g>
            <g id="m1qx8j2b" class="measure">
               <g id="s1throf4" class="staff">
                  <path d="M11141 1085 L13207 1085" stroke="currentColor" stroke-width="13" />
                  <path d="M11141 1265 L13207 1265" stroke="currentColor" stroke-width="13" />
                  <path d="M11141 1445 L13207 1445" stroke="currentColor" stroke-width="13" />
                  <path d="M11141 1625 L13207 1625" stroke="currentColor" stroke-width="13" />
                  <path d="M11141 1805 L13207 1805" stroke="currentColor" stroke-width="13" />
                  <g id="mqochr6" class="meterSig">
                     <use xlink:href="#E081-13uw00b" x="11250" y="1265" height="720px" width="720px" />
                     <use xlink:href="#E084-13uw00b" x="11217" y="1625" height="720px" width="720px" />
                  </g>
                  <g id="lfi8kka" class="layer">
                     <g id="b1x7regj" class="beam">
                        <polygon points="11781,1670 12323,1715 12323,1625 11781,1580" />
                        <g id="n1nqiy65" class="note">
                           <g class="notehead">
                              <use xlink:href="#E0A4-13uw00b" x="11781" y="995" height="720px" width="720px" />
                           </g>
                           <g id="s1ff3e9p" class="stem">
                              <rect x="11781" y="1023" height="629" width="18" />
                           </g>
                        </g>
                        <g id="nudzie5" class="note">
                           <g class="notehead">
                              <use xlink:href="#E0A4-13uw00b" x="12305" y="1085" height="720px" width="720px" />
                           </g>
                           <g id="sdx09pf" class="stem">
                              <rect x="12305" y="1113" height="584" width="18" />
                           </g>
                        </g>
                     </g>
                  </g>
               </g>
               <g id="bctnf1k" class="barLine">
                  <path d="M12829 1085 L12829 1805" stroke="currentColor" stroke-width="27" />
                  <path d="M12959 1085 L12959 1805" stroke="currentColor" stroke-width="90" />
                  <path d="M13090 1085 L13090 1805" stroke="currentColor" stroke-width="27" />
                  <use xlink:href="#E044-13uw00b" x="13135" y="1355" height="720px" width="720px" />
                  <use xlink:href="#E044-13uw00b" x="13135" y="1535" height="720px" width="720px" />
                  <use xlink:href="#E044-13uw00b" x="12712" y="1355" height="720px" width="720px" />
                  <use xlink:href="#E044-13uw00b" x="12712" y="1535" height="720px" width="720px" />
               </g>
            </g>
            <g id="mhkhlkq" class="measure">
               <g id="s1gahlzd" class="staff">
                  <path d="M13207 1085 L14625 1085" stroke="currentColor" stroke-width="13" />
                  <path d="M13207 1265 L14625 1265" stroke="currentColor" stroke-width="13" />
                  <path d="M13207 1445 L14625 1445" stroke="currentColor" stroke-width="13" />
                  <path d="M13207 1625 L14625 1625" stroke="currentColor" stroke-width="13" />
                  <path d="M13207 1805 L14625 1805" stroke="currentColor" stroke-width="13" />
                  <g id="ly3jz7p" class="layer">
                     <g id="b1tq80ez" class="beam">
                        <polygon points="13389,1625 14280,1805 14280,1715 13389,1535" />
                        <polygon points="13922,1599 14280,1670 14280,1580 13922,1509" />
                        <g id="n1wn2acn" class="note">
                           <g class="notehead">
                              <use xlink:href="#E0A4-13uw00b" x="13389" y="995" height="720px" width="720px" />
                           </g>
                           <g id="s1k8b0zh" class="stem">
                              <rect x="13389" y="1023" height="584" width="18" />
                           </g>
                        </g>
                        <g id="n1j9jd8r" class="note">
                           <g class="notehead">
                              <use xlink:href="#E0A4-13uw00b" x="13913" y="1085" height="720px" width="720px" />
                           </g>
                           <g id="s88591z" class="stem">
                              <rect x="13913" y="1113" height="603" width="18" />
                           </g>
                        </g>
                        <g id="noqzrnz" class="note">
                           <g class="notehead">
                              <use xlink:href="#E0A4-13uw00b" x="14262" y="1175" height="720px" width="720px" />
                           </g>
                           <g id="sajnja2" class="stem">
                              <rect x="14262" y="1203" height="584" width="18" />
                           </g>
                        </g>
                     </g>
                  </g>
               </g>
               <g id="b1gn2rmy" class="barLine">
                  <path d="M14612 1085 L14612 1805" stroke="currentColor" stroke-width="27" />
               </g>
            </g>
            <g id="m6qwusd" class="measure">
               <g id="sy0hngb" class="staff">
                  <path d="M14625 1085 L17362 1085" stroke="currentColor" stroke-width="13" />
                  <path d="M14625 1265 L17362 1265" stroke="currentColor" stroke-width="13" />
                  <path d="M14625 1445 L17362 1445" stroke="currentColor" stroke-width="13" />
                  <path d="M14625 1625 L17362 1625" stroke="currentColor" stroke-width="13" />
                  <path d="M14625 1805 L17362 1805" stroke="currentColor" stroke-width="13" />
                  <g id="m4mmsbf" class="meterSig">
                     <use xlink:href="#E082-13uw00b" x="14701" y="1265" height="720px" width="720px" />
                     <use xlink:href="#E084-13uw00b" x="14706" y="1625" height="720px" width="720px" />
                  </g>
                  <g id="l89bumf" class="layer">
                     <g id="b1vz4n87" class="beam">
                        <polygon points="15276,1895 15970,1985 15970,1895 15276,1805" />
                        <polygon points="15744,1823 15970,1850 15970,1760 15744,1733" />
                        <g id="n1cqr1q6" class="note">
                           <g class="notehead">
                              <use xlink:href="#E0A4-13uw00b" x="15276" y="1265" height="720px" width="720px" />
                           </g>
                           <g id="dfx4zgw" class="dots">
                              <ellipse cx="15592" cy="1175" rx="36" ry="36" />
                           </g>
                           <g id="s1up53ow" class="stem">
                              <rect x="15276" y="1293" height="584" width="18" />
                           </g>
                        </g>
                        <g id="n17rbp6b" class="note">
                           <g class="notehead">
                              <use xlink:href="#E0A4-13uw00b" x="15952" y="1355" height="720px" width="720px" />
                           </g>
                           <g id="sf8sahp" class="stem">
                              <rect x="15952" y="1383" height="584" width="18" />
                           </g>
                        </g>
                     </g>
                     <g id="bwr37rk" class="beam">
                        <polygon points="16302,2030 16843,1985 16843,1895 16302,1940" />
                        <g id="nj2i8i0" class="note">
                           <g class="notehead">
                              <use xlink:href="#E0A4-13uw00b" x="16302" y="1445" height="720px" width="720px" />
                           </g>
                           <g id="smmaefb" class="stem">
                              <rect x="16302" y="1473" height="539" width="18" />
                           </g>
                           <g id="a6w2vmd" class="accid" />
                        </g>
                        <g id="n1ayfhx8" class="note">
                           <g class="notehead">
                              <use xlink:href="#E0A4-13uw00b" x="16825" y="1355" height="720px" width="720px" />
                           </g>
                           <g id="s19i7vm0" class="stem">
                              <rect x="16825" y="1383" height="584" width="18" />
                           </g>
                        </g>
                     </g>
                  </g>
               </g>
               <g id="b1cp4ph7" class="barLine">
                  <path d="M17349 1085 L17349 1805" stroke="currentColor" stroke-width="27" />
               </g>
            </g>
            <g id="muwkurd" class="measure">
               <g id="sacxnvu" class="staff">
                  <path d="M17362 1085 L20003 1085" stroke="currentColor" stroke-width="13" />
                  <path d="M17362 1265 L20003 1265" stroke="currentColor" stroke-width="13" />
                  <path d="M17362 1445 L20003 1445" stroke="currentColor" stroke-width="13" />
                  <path d="M17362 1625 L20003 1625" stroke="currentColor" stroke-width="13" />
                  <path d="M17362 1805 L20003 1805" stroke="currentColor" stroke-width="13" />
                  <g id="l1cys11y" class="layer">
                     <g id="b19a3c4t" class="beam">
                        <polygon points="17544,1895 18261,1715 18261,1625 17544,1805" />
                        <polygon points="17544,1760 17902,1671 17902,1581 17544,1670" />
                        <g id="n16xi01x" class="note">
                           <g class="notehead">
                              <use xlink:href="#E0A4-13uw00b" x="17544" y="1265" height="720px" width="720px" />
                           </g>
                           <g id="su4fp39" class="stem">
                              <rect x="17544" y="1293" height="584" width="18" />
                           </g>
                        </g>
                        <g id="n1bei2ux" class="note">
                           <g class="notehead">
                              <use xlink:href="#E0A4-13uw00b" x="17893" y="1175" height="720px" width="720px" />
                           </g>
                           <g id="s1ir5yks" class="stem">
                              <rect x="17893" y="1203" height="585" width="18" />
                           </g>
                        </g>
                        <g id="n3jbnub" class="note">
                           <g class="notehead">
                              <use xlink:href="#E0A4-13uw00b" x="18243" y="1085" height="720px" width="720px" />
                           </g>
                           <g id="sa0z3qh" class="stem">
                              <rect x="18243" y="1113" height="584" width="18" />
                           </g>
                        </g>
                     </g>
                     <g id="b1f3uzam" class="beam">
                        <polygon points="18767,1625 19659,1805 19659,1715 18767,1535" />
                        <polygon points="19300,1598 19659,1670 19659,1580 19300,1508" />
                        <g id="nahuz4p" class="note">
                           <g class="notehead">
                              <use xlink:href="#E0A4-13uw00b" x="18767" y="995" height="720px" width="720px" />
                           </g>
                           <g id="sz1hybi" class="stem">
                              <rect x="18767" y="1023" height="584" width="18" />
                           </g>
                        </g>
                        <g id="n5jlk62" class="note">
                           <g class="notehead">
                              <use xlink:href="#E0A4-13uw00b" x="19291" y="1085" height="720px" width="720px" />
                           </g>
                           <g id="shglo2e" class="stem">
                              <rect x="19291" y="1113" height="602" width="18" />
                           </g>
                        </g>
                        <g id="n1f8k112" class="note">
                           <g class="notehead">
                              <use xlink:href="#E0A4-13uw00b" x="19641" y="1175" height="720px" width="720px" />
                           </g>
                           <g id="s566o7" class="stem">
                              <rect x="19641" y="1203" height="584" width="18" />
                           </g>
                        </g>
                     </g>
                  </g>
               </g>
               <g id="b15fge32" class="barLine">
                  <path d="M19990 1085 L19990 1805" stroke="currentColor" stroke-width="27" />
               </g>
            </g>
            <g id="s1i6q1b2" class="sb" />
         </g>
         <g id="s13inu88" class="system">
            <g id="lwy5esb" class="labelAbbr">
               <text x="914" y="3884" text-anchor="end" font-size="0px">
                  <tspan id="t1h5j76i" class="text">
                     <tspan font-size="405px" class="text">Pno.</tspan>
                  </tspan>
               </text>
            </g>
            <g id="myeu3dh" class="measure">
               <g id="ms3mi" class="mNum autogenerated">
                  <text x="1094" y="3191" text-anchor="middle" font-size="0px">
                     <tspan id="t3a65lf" class="text">
                        <tspan font-size="324px" class="text">8</tspan>
                     </tspan>
                  </text>
               </g>
               <g id="s1u1lvvk" class="staff">
                  <path d="M1094 3434 L4312 3434" stroke="currentColor" stroke-width="13" />
                  <path d="M1094 3614 L4312 3614" stroke="currentColor" stroke-width="13" />
                  <path d="M1094 3794 L4312 3794" stroke="currentColor" stroke-width="13" />
                  <path d="M1094 3974 L4312 3974" stroke="currentColor" stroke-width="13" />
                  <path d="M1094 4154 L4312 4154" stroke="currentColor" stroke-width="13" />
                  <g id="cqt1ord" class="clef">
                     <use xlink:href="#E050-13uw00b" x="1184" y="3974" height="720px" width="720px" />
                  </g>
                  <g id="kbcme32" class="keySig">
                     <g id="kew93tk" class="keyAccid">
                        <use xlink:href="#E260-13uw00b" x="1829" y="3794" height="720px" width="720px" />
                     </g>
                  </g>
                  <g id="l97hzn" class="layer">
                     <g id="b13z54ny" class="beam">
                        <polygon points="2241,4244 2930,4334 2930,4244 2241,4154" />
                        <polygon points="2704,4172 2930,4199 2930,4109 2704,4082" />
                        <g id="n1xwrcub" class="note">
                           <g class="notehead">
                              <use xlink:href="#E0A4-13uw00b" x="2241" y="3614" height="720px" width="720px" />
                           </g>
                           <g id="d1ysbnno" class="dots">
                              <ellipse cx="2557" cy="3524" rx="36" ry="36" />
                           </g>
                           <g id="sgqz5yj" class="stem">
                              <rect x="2241" y="3642" height="584" width="18" />
                           </g>
                        </g>
                        <g id="n1pckcjp" class="note">
                           <g class="notehead">
                              <use xlink:href="#E0A4-13uw00b" x="2912" y="3704" height="720px" width="720px" />
                           </g>
                           <g id="s1mqvpf3" class="stem">
                              <rect x="2912" y="3732" height="584" width="18" />
                           </g>
                        </g>
                     </g>
                     <g id="b1ma67wf" class="beam">
                        <polygon points="3467,3209 4005,3254 4005,3344 3467,3299" />
                        <g id="n1phbsgm" class="note">
                           <g class="notehead">
                              <use xlink:href="#E0A4-13uw00b" x="3259" y="3794" height="720px" width="720px" />
                           </g>
                           <g id="slb89db" class="stem">
                              <rect x="3467" y="3227" height="539" width="18" />
                           </g>
                           <g id="ameqmfi" class="accid" />
                        </g>
                        <g id="n1ml9pm7" class="note">
                           <g class="notehead">
                              <use xlink:href="#E0A4-13uw00b" x="3779" y="3884" height="720px" width="720px" />
                           </g>
                           <g id="s1chtblc" class="stem">
                              <rect x="3987" y="3272" height="584" width="18" />
                           </g>
                        </g>
                     </g>
                  </g>
               </g>
               <g id="b1l158er" class="barLine">
                  <path d="M4299 3434 L4299 4154" stroke="currentColor" stroke-width="27" />
               </g>
            </g>
            <g id="m1pvlo44" class="measure">
               <g id="s1ec6yuj" class="staff">
                  <path d="M4312 3434 L5923 3434" stroke="currentColor" stroke-width="13" />
                  <path d="M4312 3614 L5923 3614" stroke="currentColor" stroke-width="13" />
                  <path d="M4312 3794 L5923 3794" stroke="currentColor" stroke-width="13" />
                  <path d="M4312 3974 L5923 3974" stroke="currentColor" stroke-width="13" />
                  <path d="M4312 4154 L5923 4154" stroke="currentColor" stroke-width="13" />
                  <g id="mww72xy" class="meterSig">
                     <use xlink:href="#E081-13uw00b" x="4421" y="3614" height="720px" width="720px" />
                     <use xlink:href="#E084-13uw00b" x="4388" y="3974" height="720px" width="720px" />
                  </g>
                  <g id="lwcpn4c" class="layer">
                     <g id="n1r085sh" class="note">
                        <g class="notehead">
                           <use xlink:href="#E0A4-13uw00b" x="4950" y="3974" height="720px" width="720px" />
                        </g>
                        <g id="spknkfh" class="stem">
                           <rect x="5158" y="3344" height="602" width="18" />
                        </g>
                     </g>
                  </g>
               </g>
               <g id="b1pjduki" class="barLine">
                  <path d="M5748 3434 L5748 4154" stroke="currentColor" stroke-width="27" />
                  <path d="M5878 3434 L5878 4154" stroke="currentColor" stroke-width="90" />
               </g>
            </g>
            <g id="so42s4z" class="systemMilestoneEnd sio286m" />
         </g>
         <g id="p1t7vx6q" class="pageMilestoneEnd s130vfue" />
         <g id="pqbaj3x" class="pageMilestoneEnd mynpeta" />
         <g id="p11lyfjf" class="pgHead">
            <text x="0" y="0" font-size="0px">
               <tspan id="r1htsxnb" class="rend" x="10000" y="277" text-anchor="middle">
                  <tspan id="t1l1plv3" class="text">
                     <tspan font-size="405px" class="text">Air n 148</tspan>
                  </tspan>
               </tspan>
            </text>
         </g>
         <g id="p1i512cu" class="pgFoot autogenerated">
            <g id="f1cdjbw5" class="fig">
               <g id="s69p2nl" class="svg" transform="translate(7750, 28099) scale(10, 10)">
                  <g>
                     <path fill="#00000" d="M 17.11278,49.26451 V 10.367554 h 12.696511 c 3.288815,7.336676 6.71267,14.610456 10.127281,21.888976 3.419998,-7.484684 6.255515,-14.204887 9.58887,-21.909915 2.436207,0.103726 4.316952,0.08453 6.484294,-0.05808 V 49.264423 H 50.274275 C 50.145222,38.35639 50.016136,27.448368 49.887066,16.540329 45.003488,27.315459 39.967448,38.433564 35.083854,49.208695 34.678996,49.343717 34.426583,49.135619 34.021726,49.270644 29.46588,39.330716 24.910049,29.390805 20.354201,19.450876 20.224341,29.388756 20.09461,39.326619 19.964815,49.264497 H 17.11278 Z M 36.754144,39.324695 C 32.721221,30.512695 28.6883,21.700679 24.655394,12.888662 22.530527,12.750737 22.656775,12.71031 20.714356,12.813974 v 0.966497 c 4.612938,9.99784 9.609439,20.748709 13.87298,30.081745 0.722248,-1.512523 1.444528,-3.025014 2.166808,-4.537521 z m 25.738417,9.939815 c 0,-12.965651 0,-25.931305 0,-38.896956 10.084388,0 20.168791,0 30.253178,0 0,0.960416 0,1.920849 0,2.881265 -6.482825,0 -12.965652,0 -19.448478,0 0,4.802097 0,9.604178 0,14.406277 5.52241,0 11.044819,0 16.567229,0 0,0.960415 0,1.920832 0,2.881248 -5.52241,0 -11.044819,0 -16.567229,0 0,5.282306 0,10.564611 0,15.846917 6.963035,0 13.926068,0 20.889103,0 0,0.960416 0,1.920832 0,2.881249 -10.564597,0 -21.129207,0 -31.693803,0 z m 4.321874,-2.160937 c 0,-11.765131 0,-23.530263 0,-35.295394 -0.720312,0 -1.440625,0 -2.160937,0 0,11.765131 0,23.530263 0,35.295394 0.720312,0 1.440625,0 2.160937,0 z m 32.41413,2.160937 c 0,-12.965651 0,-25.931305 0,-38.896956 2.401045,0 4.802095,0 7.203135,0 0,12.965651 0,25.931305 0,38.896956 -2.40104,0 -4.80209,0 -7.203135,0 z m 2.881265,-2.160937 c 0,-11.765131 0,-23.530263 0,-35.295394 -0.72031,0 -1.44064,0 -2.160953,0 0,11.765131 0,23.530263 0,35.295394 0.720313,0 1.440643,0 2.160953,0 z" />
                     <path fill="#00000" d="m 346.3,6.7 c -3.1,0.5 -4.9,4.4 -2.7,6.8 1.2,1.4 2.7,2.4 4.1,3.5 -2.4,5.3 -7.7,8.3 -11.9,12.1 -3.7,2.8 -7,6.2 -9.7,9.9 -2.2,-0.8 -0.3,-6.8 -0.6,-9.5 0.1,-3.1 0.7,-6.4 2.9,-8.7 1.3,-1.9 3,-3.5 4.5,-5.2 1.2,-3.4 -3.2,-4.9 -5.8,-4.6 -7.3,-0.5 -14.6,2 -20,6.8 -5,4.6 -10,10.1 -11.5,17 -0.9,3.5 -0.2,7.5 2.8,9.9 2.5,2.8 7.4,2.9 9.8,-0.2 1.7,-2.3 3.2,-4.8 3.8,-7.6 -0.1,-2.6 -4.4,-2.3 -4.3,0.2 1.2,2.4 -0.9,4.7 -2.7,6.2 -1.7,0.9 -4.7,0.7 -4.8,-1.7 -1,-5.8 2.1,-11.3 5.2,-16.1 4,-5.8 9.8,-11.2 17.2,-11.8 1.6,0 8.1,-1.2 6.8,1.4 -2.8,2.8 -5.6,6.1 -6,10.3 -1.6,7.7 0.1,15.7 -2.3,23.2 -1.1,3.9 2,2.6 2.5,0.2 3.3,-7.4 8.9,-13.4 15.1,-18.5 4.2,-3.9 9.5,-7.1 11.9,-12.6 1.3,-3.6 1.2,-9 -2.7,-10.9 -0.6,-0.2 -1.2,-0.3 -1.8,-0.3 z m 66,14.5 c -2,0.8 -1.8,4.9 0.8,4.4 3.4,0.4 2.9,-6.2 -0.8,-4.4 z m 0.6,7.3 c -1.3,0.5 -7.6,0.5 -5.4,2.2 4,-0.3 0.7,4.5 0.6,6.7 -0.4,2.9 -2.4,5.9 -1.2,8.8 2.7,1.7 5.6,-0.8 6.8,-3.2 1.6,-1.4 -0.5,-3 -1.2,-0.9 -0.4,0.8 -2.4,3.5 -2.6,1.8 1.1,-5 2.7,-9.9 3.9,-14.9 l -0.1,-0.5 h -0.9 z m -65.1,0.2 c -6.5,1.6 -10.5,9.5 -8.2,15.7 2.1,3.4 7.4,2.9 10.1,0.4 2,-0.2 3.6,-5.3 1,-3.4 -1.4,2 -4,4.2 -6.5,2.8 -2.2,-1.9 -1.9,-5.7 1.7,-5.3 3.1,-0.9 6.9,-2.1 8.1,-5.5 0.9,-2.7 -1.6,-5.2 -4.3,-4.8 h -1.1 -0.7 z m 13.6,0 c -2.2,0 -8.5,1.8 -2.9,2.3 0.9,1.9 -1,4.9 -1.1,7.2 -0.5,2.9 -1.4,5.7 -1.7,8.7 3.7,0.7 3.8,-2.6 4.4,-5.3 0.9,-3.3 1.6,-7 4.1,-9.5 2.4,1.6 6.8,-0.7 3.7,-3.4 -2.9,-0.5 -4.8,2.4 -6.2,4.3 0,-1.2 2.4,-5 -0.2,-4.3 z m 15.8,0 c -6.4,1.3 -9.6,9.1 -7.7,14.9 1.9,4 7.7,3.9 11,1.7 4.1,-3 6,-8.9 4.4,-13.7 -1.3,-3 -4.8,-3.2 -7.6,-3 z m 17,0 c -2.3,0 -8.8,1.9 -3,2.4 0.4,2.5 -1,5.7 -1.4,8.4 -0.7,2.4 -1.8,7.5 2.1,7.2 3.8,-0.1 6.5,-3.5 8.5,-6.3 2,-3.2 4.5,-7 3.3,-10.9 -3.7,-3 -3.6,2.6 -3.1,5.1 -0.7,3.8 -2.7,7.9 -6.2,9.8 -3.6,0.6 -1,-4.3 -0.8,-6.1 0.6,-3.2 1.6,-6.3 1.9,-9.5 -0.4,0 -0.8,0 -1.1,0 z m 30.6,0 c -6.3,1.2 -9.5,8.9 -7.8,14.7 1.5,4 7.2,4.2 10.5,2.4 4.6,-2.8 6.6,-9.3 4.8,-14.3 -1.4,-2.8 -4.8,-3 -7.5,-2.8 z m -75.4,1.7 c 2.1,1.5 0.2,4.7 -1.6,5.7 -1.1,0.4 -5.5,3.4 -4.6,0.7 0.8,-2.7 2.2,-6.2 5.3,-6.6 l 0.9,0.1 z m 30.8,0 c 2.6,1.5 1.3,5.2 0.8,7.6 -0.8,2.7 -1.9,5.9 -4.7,7.1 -5.1,0.8 -4,-5.8 -2.8,-8.8 1,-2.8 3,-6.8 6.7,-5.8 z m 47.1,-0.1 c 2.9,0.7 2,4.7 1.5,6.8 -0.7,3 -1.8,6.7 -5,8 -4.7,0.8 -4,-5.1 -3,-7.9 0.9,-3 2.7,-7.3 6.5,-6.8 z m -88.1,5.9 c -0.3,1.3 0.9,-0.6 0,0 z m -1.1,2.4 c -0.2,0.5 0.5,-0.1 0,0 z m -1.3,4.5 c -0.3,1.3 0.8,-0.2 0,0 z" />
                     <text y="41" x="201" fill="#00000" style="font-style:italic;font-weight:normal;font-size:30px;line-height:125%;font-family:Times;text-anchor:middle" xml:space="preserve">engraved with</text>
                  </g>
               </g>
            </g>
         </g>
      </g>
   </svg>
</svg>
