<?xml version="1.0" encoding="UTF-8" standalone="no"?>
<svg width="2100px" height="2970px" version="1.1" xmlns="http://www.w3.org/2000/svg" xmlns:xlink="http://www.w3.org/1999/xlink" xmlns:mei="http://www.music-encoding.org/ns/mei" overflow="visible">
   <desc>Engraved by Verovio 3.13.1</desc>
   <defs>
      <symbol id="E655-25sq7x" viewBox="0 0 1000 1000" overflow="inherit">
         <path transform="scale(1,-1)" d="M217 245c-22 0 -39 -16 -39 -37c0 -18 21 -34 39 -35c20 0 35 18 35 37c0 21 -15 34 -35 35zM44 318c3 26 25 51 52 51c16 0 28 -4 32 -12c11 -14 14 -56 22 -76c6 -8 14 -12 25 -14l16 5c9 5 14 11 15 25c0 7 -2 13 -5 17l-11 18l-17 17l-9 22c0 28 25 47 53 47 s50 -23 50 -47c0 -20 -7 -25 -21 -39l-15 -20c-4 -7 -6 -13 -7 -18c1 -4 5 -11 5 -14l11 -11l14 -7c20 2 30 22 33 47c0 39 17 58 49 58c26 0 46 -21 46 -47c0 -29 -23 -46 -54 -46c-30 0 -45 -11 -48 -34l5 -12c1 -3 4 -5 7 -8c1 -2 6 -3 14 -5c10 2 17 6 23 12 c8 3 6 4 16 12l21 15c4 3 12 5 21 5c23 0 43 -26 44 -49c0 -20 -16 -41 -30 -49c-3 -1 -10 -3 -19 -4c-7 1 -16 7 -30 18l-26 19c-4 3 -11 4 -20 4c-8 0 -14 -1 -17 -4l-9 -19c2 -13 6 -21 14 -24l11 -4l27 -5c16 0 28 -4 37 -12c9 -6 13 -17 13 -34c0 -13 -5 -25 -14 -34 c-9 -8 -22 -13 -36 -16c-11 2 -23 8 -34 19c-8 11 -11 27 -11 47c0 11 -4 21 -7 27c-5 8 -14 12 -26 12c-19 0 -29 -15 -32 -31c3 -7 8 -14 11 -21c4 -8 8 -14 13 -21l8 -8l5 -10c3 -5 4 -13 5 -21c0 -26 -26 -39 -52 -39c-25 0 -45 15 -48 39c1 6 5 18 7 21 c11 14 22 29 33 43c2 4 3 10 4 19c0 17 -8 26 -24 29c-31 0 -40 -20 -40 -51s-17 -49 -48 -54c-33 7 -42 20 -50 52c3 31 25 46 66 46c19 0 37 12 37 31c0 8 -3 13 -8 16c-3 4 -8 7 -16 7c-10 0 -24 -6 -40 -18c-14 -9 -25 -16 -39 -21c-28 3 -45 20 -46 51 c0 26 18 47 44 47c19 0 31 -9 44 -19l18 -14l19 -7c18 4 26 12 26 23c0 23 -15 34 -46 34c-37 0 -57 14 -61 44z" />
      </symbol>
      <symbol id="E262-25sq7x" viewBox="0 0 1000 1000" overflow="inherit">
         <path transform="scale(1,-1)" d="M136 186v169h17v-164l44 14v-91l-44 -14v-165l44 12v-91l-44 -13v-155h-17v150l-76 -22v-155h-17v149l-43 -13v90l43 14v167l-43 -14v92l43 13v169h17v-163zM60 73v-167l76 22v168z" />
      </symbol>
      <symbol id="E050-25sq7x" viewBox="0 0 1000 1000" overflow="inherit">
         <path transform="scale(1,-1)" d="M441 -245c-23 -4 -48 -6 -76 -6c-59 0 -102 7 -130 20c-88 42 -150 93 -187 154c-26 44 -43 103 -48 176c0 6 -1 13 -1 19c0 54 15 111 45 170c29 57 65 106 110 148s96 85 153 127c-3 16 -8 46 -13 92c-4 43 -5 73 -5 89c0 117 16 172 69 257c34 54 64 82 89 82 c21 0 43 -30 69 -92s39 -115 41 -159v-15c0 -109 -21 -162 -67 -241c-13 -20 -63 -90 -98 -118c-13 -9 -25 -19 -37 -29l31 -181c8 1 18 2 28 2c58 0 102 -12 133 -35c59 -43 92 -104 98 -184c1 -7 1 -15 1 -22c0 -123 -87 -209 -181 -248c8 -57 17 -110 25 -162 c5 -31 6 -58 6 -80c0 -30 -5 -53 -14 -70c-35 -64 -88 -99 -158 -103c-5 0 -11 -1 -16 -1c-37 0 -72 10 -108 27c-50 24 -77 59 -80 105v11c0 29 7 55 20 76c18 28 45 42 79 44h6c49 0 93 -42 97 -87v-9c0 -51 -34 -86 -105 -106c17 -24 51 -36 102 -36c62 0 116 43 140 85 c9 16 13 41 13 74c0 20 -1 42 -5 67c-8 53 -18 106 -26 159zM461 939c-95 0 -135 -175 -135 -286c0 -24 2 -48 5 -71c50 39 92 82 127 128c40 53 60 100 60 140v8c-4 53 -22 81 -55 81h-2zM406 119l54 -326c73 25 110 78 110 161c0 7 0 15 -1 23c-7 95 -57 142 -151 142h-12 zM382 117c-72 -2 -128 -47 -128 -120v-7c2 -46 43 -99 75 -115c-3 -2 -7 -5 -10 -10c-70 33 -116 88 -123 172v11c0 68 44 126 88 159c23 17 49 29 78 36l-29 170c-21 -13 -52 -37 -92 -73c-50 -44 -86 -84 -109 -119c-45 -69 -67 -130 -67 -182v-13c5 -68 35 -127 93 -176 s125 -73 203 -73c25 0 50 3 75 9c-19 111 -36 221 -54 331z" />
      </symbol>
      <symbol id="E082-25sq7x" viewBox="0 0 1000 1000" overflow="inherit">
         <path transform="scale(1,-1)" d="M124 -185c-18 0 -55 -14 -65 -65h-36l-3 30c0 25 6 45 18 63c11 19 22 30 39 43l121 82l37 29c15 11 27 29 38 54c12 24 18 47 18 70c0 40 -19 88 -94 88c-25 0 -32 0 -50 -8c-14 -5 -23 -12 -26 -22c3 -9 7 -15 10 -18l24 -17c12 -7 17 -11 27 -21c5 -7 7 -16 7 -27 c0 -12 0 -57 -79 -74c-30 0 -76 26 -76 94c0 66 81 135 197 135c72 0 181 -32 181 -150c0 -53 -32 -95 -113 -133l-91 -41c-26 -11 -45 -23 -57 -37l49 7c84 0 115 -41 148 -41c20 0 33 20 39 61h35c0 -152 -68 -168 -114 -168c-17 0 -65 0 -79 7h10l-28 17 c-49 37 -69 40 -87 42z" />
      </symbol>
      <symbol id="E084-25sq7x" viewBox="0 0 1000 1000" overflow="inherit">
         <path transform="scale(1,-1)" d="M20 -78c84 97 114 180 134 329h170c-13 -32 -82 -132 -99 -151l-84 -97c-33 -36 -59 -63 -80 -81h162v102l127 123v-225h57v-39h-57v-34c0 -43 19 -65 57 -65v-34h-244v36c48 0 60 26 60 70v27h-203v39z" />
      </symbol>
      <symbol id="E0A4-25sq7x" viewBox="0 0 1000 1000" overflow="inherit">
         <path transform="scale(1,-1)" d="M0 -39c0 68 73 172 200 172c66 0 114 -37 114 -95c0 -84 -106 -171 -218 -171c-64 0 -96 30 -96 94z" />
      </symbol>
   </defs>
   <style type="text/css">g.page-margin{font-family:Times;} g.ending, g.fing, g.reh, g.tempo{font-weight:bold;} g.dir, g.dynam, g.mNum{font-style:italic;} g.label{font-weight:normal;}</style>
   <svg class="definition-scale" color="black" viewBox="0 0 21000 29700">
      <g class="page-margin" transform="translate(500, 500)">
         <g id="mp214d7" class="mdiv pageMilestone" />
         <g id="sa1pupd" class="score pageMilestone" />
         <g id="so629ke" class="system">
            <g id="liere80" class="label">
               <text x="1105" y="1537" text-anchor="end" font-size="0px">
                  <tspan id="t1efo4l" class="text">
                     <tspan font-size="405px" class="text">Piano</tspan>
                  </tspan>
               </text>
            </g>
            <g id="s1or8fi2" class="section systemMilestone" />
            <g id="p15g4e70" class="pb" />
            <g id="m1spwpll" class="measure">
               <g id="s17zgokh" class="staff">
                  <path d="M1285 1087 L4952 1087" stroke="currentColor" stroke-width="13" />
                  <path d="M1285 1267 L4952 1267" stroke="currentColor" stroke-width="13" />
                  <path d="M1285 1447 L4952 1447" stroke="currentColor" stroke-width="13" />
                  <path d="M1285 1627 L4952 1627" stroke="currentColor" stroke-width="13" />
                  <path d="M1285 1807 L4952 1807" stroke="currentColor" stroke-width="13" />
                  <g id="cxorp9g" class="clef">
                     <use xlink:href="#E050-25sq7x" x="1375" y="1627" height="720px" width="720px" />
                  </g>
                  <g id="k1s3xwdr" class="keySig">
                     <g id="kzxkis5" class="keyAccid">
                        <use xlink:href="#E262-25sq7x" x="2020" y="1087" height="720px" width="720px" />
                     </g>
                  </g>
                  <g id="m1c0oxoe" class="meterSig">
                     <use xlink:href="#E082-25sq7x" x="2327" y="1267" height="720px" width="720px" />
                     <use xlink:href="#E084-25sq7x" x="2332" y="1627" height="720px" width="720px" />
                  </g>
                  <g id="lfe2eyo" class="layer">
                     <g id="b1ygbcge" class="beam">
                        <polygon points="3107,1042 3635,1042 3635,1132 3107,1132" />
                        <g id="nvwel5p" class="note">
                           <g class="notehead">
                              <use xlink:href="#E0A4-25sq7x" x="2899" y="1627" height="720px" width="720px" />
                           </g>
                           <g id="s1xx4yej" class="stem">
                              <rect x="3107" y="1060" height="539" width="18" />
                           </g>
                        </g>
                        <g id="n1kclfhw" class="note">
                           <g class="notehead">
                              <use xlink:href="#E0A4-25sq7x" x="3409" y="1627" height="720px" width="720px" />
                           </g>
                           <g id="s1vi979m" class="stem">
                              <rect x="3617" y="1060" height="539" width="18" />
                           </g>
                        </g>
                     </g>
                     <g id="b13dr44r" class="beam">
                        <polygon points="4127,997 4655,952 4655,1042 4127,1087" />
                        <g id="njcbcya" class="note">
                           <g class="notehead">
                              <use xlink:href="#E0A4-25sq7x" x="3919" y="1717" height="720px" width="720px" />
                           </g>
                           <g id="s1b146li" class="stem">
                              <rect x="4127" y="1015" height="674" width="18" />
                           </g>
                           <g id="ak7jtz7" class="accid" />
                        </g>
                        <g id="n1bt57ft" class="note">
                           <g class="notehead">
                              <use xlink:href="#E0A4-25sq7x" x="4429" y="1627" height="720px" width="720px" />
                           </g>
                           <g id="scsflnw" class="stem">
                              <rect x="4637" y="970" height="629" width="18" />
                           </g>
                        </g>
                     </g>
                  </g>
               </g>
               <g id="prxwd6" class="pedal">
                  <use xlink:href="#E655-25sq7x" x="2801" y="2152" height="720px" width="720px" />
               </g>
               <g id="b9yg2tu" class="barLine">
                  <path d="M4939 1087 L4939 1807" stroke="currentColor" stroke-width="27" />
               </g>
            </g>
            <g id="mhh0ute" class="measure">
               <g id="sesl18i" class="staff">
                  <path d="M4952 1087 L7184 1087" stroke="currentColor" stroke-width="13" />
                  <path d="M4952 1267 L7184 1267" stroke="currentColor" stroke-width="13" />
                  <path d="M4952 1447 L7184 1447" stroke="currentColor" stroke-width="13" />
                  <path d="M4952 1627 L7184 1627" stroke="currentColor" stroke-width="13" />
                  <path d="M4952 1807 L7184 1807" stroke="currentColor" stroke-width="13" />
                  <g id="l1u6eczx" class="layer">
                     <g id="bp6oez4" class="beam">
                        <polygon points="5339,907 5867,907 5867,997 5339,997" />
                        <g id="n1kltkpa" class="note">
                           <g class="notehead">
                              <use xlink:href="#E0A4-25sq7x" x="5131" y="1537" height="720px" width="720px" />
                           </g>
                           <g id="sanrtnr" class="stem">
                              <rect x="5339" y="925" height="584" width="18" />
                           </g>
                        </g>
                        <g id="n1wyu8ty" class="note">
                           <g class="notehead">
                              <use xlink:href="#E0A4-25sq7x" x="5641" y="1537" height="720px" width="720px" />
                           </g>
                           <g id="s1831vsa" class="stem">
                              <rect x="5849" y="925" height="584" width="18" />
                           </g>
                        </g>
                     </g>
                     <g id="b1px0ghd" class="beam">
                        <polygon points="6359,862 6887,907 6887,997 6359,952" />
                        <g id="nmqdxb9" class="note">
                           <g class="notehead">
                              <use xlink:href="#E0A4-25sq7x" x="6151" y="1447" height="720px" width="720px" />
                           </g>
                           <g id="sbz7ky7" class="stem">
                              <rect x="6359" y="880" height="539" width="18" />
                           </g>
                        </g>
                        <g id="n1fr3rrz" class="note">
                           <g class="notehead">
                              <use xlink:href="#E0A4-25sq7x" x="6661" y="1537" height="720px" width="720px" />
                           </g>
                           <g id="s5jjz6y" class="stem">
                              <rect x="6869" y="925" height="584" width="18" />
                           </g>
                        </g>
                     </g>
                  </g>
               </g>
               <g id="b1hz8zo" class="barLine">
                  <path d="M7171 1087 L7171 1807" stroke="currentColor" stroke-width="27" />
               </g>
            </g>
            <g id="mp4fn45" class="measure">
               <g id="scotiqr" class="staff">
                  <path d="M7184 1087 L9416 1087" stroke="currentColor" stroke-width="13" />
                  <path d="M7184 1267 L9416 1267" stroke="currentColor" stroke-width="13" />
                  <path d="M7184 1447 L9416 1447" stroke="currentColor" stroke-width="13" />
                  <path d="M7184 1627 L9416 1627" stroke="currentColor" stroke-width="13" />
                  <path d="M7184 1807 L9416 1807" stroke="currentColor" stroke-width="13" />
                  <g id="lyu8gm3" class="layer">
                     <g id="b1mrewtq" class="beam">
                        <polygon points="7571,1042 8099,1042 8099,1132 7571,1132" />
                        <g id="n1snamut" class="note">
                           <g class="notehead">
                              <use xlink:href="#E0A4-25sq7x" x="7363" y="1627" height="720px" width="720px" />
                           </g>
                           <g id="sgavca3" class="stem">
                              <rect x="7571" y="1060" height="539" width="18" />
                           </g>
                        </g>
                        <g id="nv1n96m" class="note">
                           <g class="notehead">
                              <use xlink:href="#E0A4-25sq7x" x="7873" y="1627" height="720px" width="720px" />
                           </g>
                           <g id="s1d26i9w" class="stem">
                              <rect x="8081" y="1060" height="539" width="18" />
                           </g>
                        </g>
                     </g>
                     <g id="byado90" class="beam">
                        <polygon points="8591,997 9119,952 9119,1042 8591,1087" />
                        <g id="n192ibo8" class="note">
                           <g class="notehead">
                              <use xlink:href="#E0A4-25sq7x" x="8383" y="1717" height="720px" width="720px" />
                           </g>
                           <g id="s17phftr" class="stem">
                              <rect x="8591" y="1015" height="674" width="18" />
                           </g>
                           <g id="a1cn21s" class="accid" />
                        </g>
                        <g id="nd19g74" class="note">
                           <g class="notehead">
                              <use xlink:href="#E0A4-25sq7x" x="8893" y="1627" height="720px" width="720px" />
                           </g>
                           <g id="s1pprfca" class="stem">
                              <rect x="9101" y="970" height="629" width="18" />
                           </g>
                        </g>
                     </g>
                  </g>
               </g>
               <g id="b9gafky" class="barLine">
                  <path d="M9403 1087 L9403 1807" stroke="currentColor" stroke-width="27" />
               </g>
            </g>
            <g id="me3k58s" class="measure">
               <g id="s1w1a8rq" class="staff">
                  <path d="M9416 1087 L11810 1087" stroke="currentColor" stroke-width="13" />
                  <path d="M9416 1267 L11810 1267" stroke="currentColor" stroke-width="13" />
                  <path d="M9416 1447 L11810 1447" stroke="currentColor" stroke-width="13" />
                  <path d="M9416 1627 L11810 1627" stroke="currentColor" stroke-width="13" />
                  <path d="M9416 1807 L11810 1807" stroke="currentColor" stroke-width="13" />
                  <g id="l3n14yc" class="layer">
                     <g id="b18c47d1" class="beam">
                        <polygon points="9803,907 10331,907 10331,997 9803,997" />
                        <g id="nqo32g" class="note">
                           <g class="notehead">
                              <use xlink:href="#E0A4-25sq7x" x="9595" y="1537" height="720px" width="720px" />
                           </g>
                           <g id="skc4avu" class="stem">
                              <rect x="9803" y="925" height="584" width="18" />
                           </g>
                        </g>
                        <g id="n1040wv" class="note">
                           <g class="notehead">
                              <use xlink:href="#E0A4-25sq7x" x="10105" y="1537" height="720px" width="720px" />
                           </g>
                           <g id="s1eiu7pl" class="stem">
                              <rect x="10313" y="925" height="584" width="18" />
                           </g>
                        </g>
                     </g>
                     <g id="b1imw7ja" class="beam">
                        <polygon points="10823,862 11351,907 11351,997 10823,952" />
                        <g id="nbtrqka" class="note">
                           <g class="notehead">
                              <use xlink:href="#E0A4-25sq7x" x="10615" y="1447" height="720px" width="720px" />
                           </g>
                           <g id="s1poep6" class="stem">
                              <rect x="10823" y="880" height="539" width="18" />
                           </g>
                        </g>
                        <g id="nns8xuz" class="note">
                           <g class="notehead">
                              <use xlink:href="#E0A4-25sq7x" x="11125" y="1537" height="720px" width="720px" />
                           </g>
                           <g id="sfhjoo3" class="stem">
                              <rect x="11333" y="925" height="584" width="18" />
                           </g>
                        </g>
                     </g>
                  </g>
               </g>
               <g id="bxiaxxd" class="barLine">
                  <path d="M11635 1087 L11635 1807" stroke="currentColor" stroke-width="27" />
                  <path d="M11765 1087 L11765 1807" stroke="currentColor" stroke-width="90" />
               </g>
            </g>
            <g id="m128pmum" class="measure">
               <g id="sspufs3" class="staff">
                  <path d="M11810 1087 L13805 1087" stroke="currentColor" stroke-width="13" />
                  <path d="M11810 1267 L13805 1267" stroke="currentColor" stroke-width="13" />
                  <path d="M11810 1447 L13805 1447" stroke="currentColor" stroke-width="13" />
                  <path d="M11810 1627 L13805 1627" stroke="currentColor" stroke-width="13" />
                  <path d="M11810 1807 L13805 1807" stroke="currentColor" stroke-width="13" />
                  <g id="l112pj78" class="layer">
                     <g id="n1n4r2hx" class="note">
                        <g class="notehead">
                           <use xlink:href="#E0A4-25sq7x" x="11989" y="1447" height="720px" width="720px" />
                        </g>
                        <g id="smn5ydl" class="stem">
                           <rect x="11989" y="1475" height="572" width="18" />
                        </g>
                     </g>
                     <g id="b102dbd7" class="beam">
                        <polygon points="12981,862 13508,907 13508,997 12981,952" />
                        <g id="n1r8fv68" class="note">
                           <g class="notehead">
                              <use xlink:href="#E0A4-25sq7x" x="12773" y="1537" height="720px" width="720px" />
                           </g>
                           <g id="s138b6vi" class="stem">
                              <rect x="12981" y="880" height="629" width="18" />
                           </g>
                        </g>
                        <g id="n1ovqu8h" class="note">
                           <g class="notehead">
                              <use xlink:href="#E0A4-25sq7x" x="13282" y="1627" height="720px" width="720px" />
                           </g>
                           <g id="sxi9aiz" class="stem">
                              <rect x="13490" y="925" height="674" width="18" />
                           </g>
                        </g>
                     </g>
                  </g>
               </g>
               <g id="bwx8zlh" class="barLine">
                  <path d="M13792 1087 L13792 1807" stroke="currentColor" stroke-width="27" />
               </g>
            </g>
            <g id="m17m895" class="measure">
               <g id="s120z1fb" class="staff">
                  <path d="M13805 1087 L15800 1087" stroke="currentColor" stroke-width="13" />
                  <path d="M13805 1267 L15800 1267" stroke="currentColor" stroke-width="13" />
                  <path d="M13805 1447 L15800 1447" stroke="currentColor" stroke-width="13" />
                  <path d="M13805 1627 L15800 1627" stroke="currentColor" stroke-width="13" />
                  <path d="M13805 1807 L15800 1807" stroke="currentColor" stroke-width="13" />
                  <g id="l1e2m16s" class="layer">
                     <g id="n1ver8z5" class="note">
                        <g class="notehead">
                           <use xlink:href="#E0A4-25sq7x" x="13984" y="1537" height="720px" width="720px" />
                        </g>
                        <g id="sua9wev" class="stem">
                           <rect x="14192" y="907" height="602" width="18" />
                        </g>
                     </g>
                     <g id="bdkuev4" class="beam">
                        <polygon points="14976,997 15503,952 15503,1042 14976,1087" />
                        <g id="n1n45r10" class="note">
                           <g class="notehead">
                              <use xlink:href="#E0A4-25sq7x" x="14768" y="1897" height="720px" width="720px" />
                           </g>
                           <g id="s1o4ldi1" class="stem">
                              <rect x="14976" y="1015" height="854" width="18" />
                           </g>
                        </g>
                        <g id="n1uttqz7" class="note">
                           <g class="notehead">
                              <use xlink:href="#E0A4-25sq7x" x="15277" y="1627" height="720px" width="720px" />
                           </g>
                           <g id="s1xpq7is" class="stem">
                              <rect x="15485" y="970" height="629" width="18" />
                           </g>
                        </g>
                     </g>
                  </g>
               </g>
               <g id="b4eb6d9" class="barLine">
                  <path d="M15787 1087 L15787 1807" stroke="currentColor" stroke-width="27" />
               </g>
            </g>
            <g id="mmvxmd4" class="measure">
               <g id="s1k0ejze" class="staff">
                  <path d="M15800 1087 L18010 1087" stroke="currentColor" stroke-width="13" />
                  <path d="M15800 1267 L18010 1267" stroke="currentColor" stroke-width="13" />
                  <path d="M15800 1447 L18010 1447" stroke="currentColor" stroke-width="13" />
                  <path d="M15800 1627 L18010 1627" stroke="currentColor" stroke-width="13" />
                  <path d="M15800 1807 L18010 1807" stroke="currentColor" stroke-width="13" />
                  <g id="l184tchb" class="layer">
                     <g id="b1elu9" class="beam">
                        <polygon points="16187,997 16715,952 16715,1042 16187,1087" />
                        <g id="n41e3kb" class="note">
                           <g class="notehead">
                              <use xlink:href="#E0A4-25sq7x" x="15979" y="1717" height="720px" width="720px" />
                           </g>
                           <g id="s1gtfkl7" class="stem">
                              <rect x="16187" y="1015" height="674" width="18" />
                           </g>
                           <g id="a6x3ebg" class="accid" />
                        </g>
                        <g id="nqkuf4k" class="note">
                           <g class="notehead">
                              <use xlink:href="#E0A4-25sq7x" x="16489" y="1627" height="720px" width="720px" />
                           </g>
                           <g id="scio4ol" class="stem">
                              <rect x="16697" y="970" height="629" width="18" />
                           </g>
                        </g>
                     </g>
                     <g id="b1qsnpmy" class="beam">
                        <polygon points="17207,907 17883,817 17883,907 17207,997" />
                        <polygon points="17657,981 17883,952 17883,1042 17657,1071" />
                        <g id="n18rc03t" class="note">
                           <g class="notehead">
                              <use xlink:href="#E0A4-25sq7x" x="16999" y="1537" height="720px" width="720px" />
                           </g>
                           <g id="dhp5xzu" class="dots">
                              <ellipse cx="17315" cy="1537" rx="36" ry="36" />
                           </g>
                           <g id="s10dtx1" class="stem">
                              <rect x="17207" y="925" height="584" width="18" />
                           </g>
                        </g>
                        <g id="nv77pr7" class="note">
                           <g class="notehead">
                              <use xlink:href="#E0A4-25sq7x" x="17657" y="1447" height="720px" width="720px" />
                           </g>
                           <g id="s1mduthn" class="stem">
                              <rect x="17865" y="835" height="584" width="18" />
                           </g>
                        </g>
                     </g>
                  </g>
               </g>
               <g id="b7kndl0" class="barLine">
                  <path d="M17997 1087 L17997 1807" stroke="currentColor" stroke-width="27" />
               </g>
            </g>
            <g id="mttio1e" class="measure">
               <g id="s1957ook" class="staff">
                  <path d="M18010 1087 L20005 1087" stroke="currentColor" stroke-width="13" />
                  <path d="M18010 1267 L20005 1267" stroke="currentColor" stroke-width="13" />
                  <path d="M18010 1447 L20005 1447" stroke="currentColor" stroke-width="13" />
                  <path d="M18010 1627 L20005 1627" stroke="currentColor" stroke-width="13" />
                  <path d="M18010 1807 L20005 1807" stroke="currentColor" stroke-width="13" />
                  <g id="l1lw6m7v" class="layer">
                     <g id="b1d0sk48" class="beam">
                        <polygon points="18397,862 18925,907 18925,997 18397,952" />
                        <g id="ngo3iu2" class="note">
                           <g class="notehead">
                              <use xlink:href="#E0A4-25sq7x" x="18189" y="1537" height="720px" width="720px" />
                           </g>
                           <g id="s1ux4j72" class="stem">
                              <rect x="18397" y="880" height="629" width="18" />
                           </g>
                        </g>
                        <g id="n1uqxjhq" class="note">
                           <g class="notehead">
                              <use xlink:href="#E0A4-25sq7x" x="18699" y="1627" height="720px" width="720px" />
                           </g>
                           <g id="s1xrfm4k" class="stem">
                              <rect x="18907" y="925" height="674" width="18" />
                           </g>
                        </g>
                     </g>
                     <g id="njubvow" class="note">
                        <g class="notehead">
                           <use xlink:href="#E0A4-25sq7x" x="19209" y="1447" height="720px" width="720px" />
                        </g>
                        <g id="s1ozp9wb" class="stem">
                           <rect x="19209" y="1475" height="572" width="18" />
                        </g>
                     </g>
                  </g>
               </g>
               <g id="bjez9ua" class="barLine">
                  <path d="M19992 1087 L19992 1807" stroke="currentColor" stroke-width="27" />
               </g>
            </g>
         </g>
         <g id="s1h822f1" class="system">
            <g id="l1edr69r" class="labelAbbr">
               <text x="914" y="3817" text-anchor="end" font-size="0px">
                  <tspan id="tuw8soa" class="text">
                     <tspan font-size="405px" class="text">Pno.</tspan>
                  </tspan>
               </text>
            </g>
            <g id="m1a087bw" class="measure">
               <g id="m1hk0i0z" class="mNum autogenerated">
                  <text x="1094" y="3124" text-anchor="middle" font-size="0px">
                     <tspan id="tqwjhqe" class="text">
                        <tspan font-size="324px" class="text">9</tspan>
                     </tspan>
                  </text>
               </g>
               <g id="sv8q3dt" class="staff">
                  <path d="M1094 3367 L4067 3367" stroke="currentColor" stroke-width="13" />
                  <path d="M1094 3547 L4067 3547" stroke="currentColor" stroke-width="13" />
                  <path d="M1094 3727 L4067 3727" stroke="currentColor" stroke-width="13" />
                  <path d="M1094 3907 L4067 3907" stroke="currentColor" stroke-width="13" />
                  <path d="M1094 4087 L4067 4087" stroke="currentColor" stroke-width="13" />
                  <g id="c1d7zbw3" class="clef">
                     <use xlink:href="#E050-25sq7x" x="1184" y="3907" height="720px" width="720px" />
                  </g>
                  <g id="khovc48" class="keySig">
                     <g id="k1o6lgbs" class="keyAccid">
                        <use xlink:href="#E262-25sq7x" x="1829" y="3367" height="720px" width="720px" />
                     </g>
                  </g>
                  <g id="l1lzjldv" class="layer">
                     <g id="b56pkt7" class="beam">
                        <polygon points="2448,3142 2979,3187 2979,3277 2448,3232" />
                        <g id="n112nnd8" class="note">
                           <g class="notehead">
                              <use xlink:href="#E0A4-25sq7x" x="2240" y="3817" height="720px" width="720px" />
                           </g>
                           <g id="sngp2ll" class="stem">
                              <rect x="2448" y="3160" height="629" width="18" />
                           </g>
                        </g>
                        <g id="n1ptg0b8" class="note">
                           <g class="notehead">
                              <use xlink:href="#E0A4-25sq7x" x="2753" y="3907" height="720px" width="720px" />
                           </g>
                           <g id="s1mdtq3c" class="stem">
                              <rect x="2961" y="3205" height="674" width="18" />
                           </g>
                        </g>
                     </g>
                     <g id="nq9xtoe" class="note">
                        <g class="notehead">
                           <use xlink:href="#E0A4-25sq7x" x="3266" y="3817" height="720px" width="720px" />
                        </g>
                        <g id="svos2yd" class="stem">
                           <rect x="3474" y="3187" height="602" width="18" />
                        </g>
                     </g>
                  </g>
               </g>
               <g id="b7ddbg6" class="barLine">
                  <path d="M4054 3367 L4054 4087" stroke="currentColor" stroke-width="27" />
               </g>
            </g>
            <g id="s1rzxbjl" class="sb" />
            <g id="m1giovi" class="measure">
               <g id="srvvibl" class="staff">
                  <path d="M4067 3367 L6312 3367" stroke="currentColor" stroke-width="13" />
                  <path d="M4067 3547 L6312 3547" stroke="currentColor" stroke-width="13" />
                  <path d="M4067 3727 L6312 3727" stroke="currentColor" stroke-width="13" />
                  <path d="M4067 3907 L6312 3907" stroke="currentColor" stroke-width="13" />
                  <path d="M4067 4087 L6312 4087" stroke="currentColor" stroke-width="13" />
                  <g id="lec0pdx" class="layer">
                     <g id="b8s496k" class="beam">
                        <polygon points="4455,3277 4986,3232 4986,3322 4455,3367" />
                        <g id="nor0xpi" class="note">
                           <g class="notehead">
                              <use xlink:href="#E0A4-25sq7x" x="4247" y="4177" height="720px" width="720px" />
                           </g>
                           <g id="stmwi73" class="stem">
                              <rect x="4455" y="3295" height="854" width="18" />
                           </g>
                        </g>
                        <g id="n1etup4m" class="note">
                           <g class="notehead">
                              <use xlink:href="#E0A4-25sq7x" x="4760" y="3907" height="720px" width="720px" />
                           </g>
                           <g id="spg1nc5" class="stem">
                              <rect x="4968" y="3250" height="629" width="18" />
                           </g>
                        </g>
                     </g>
                     <g id="b1rwl4iy" class="beam">
                        <polygon points="5481,3277 6012,3232 6012,3322 5481,3367" />
                        <g id="nc9wv82" class="note">
                           <g class="notehead">
                              <use xlink:href="#E0A4-25sq7x" x="5273" y="3997" height="720px" width="720px" />
                           </g>
                           <g id="sfg0asn" class="stem">
                              <rect x="5481" y="3295" height="674" width="18" />
                           </g>
                           <g id="aiec6qv" class="accid" />
                        </g>
                        <g id="n4cjrek" class="note">
                           <g class="notehead">
                              <use xlink:href="#E0A4-25sq7x" x="5786" y="3907" height="720px" width="720px" />
                           </g>
                           <g id="sdhftb2" class="stem">
                              <rect x="5994" y="3250" height="629" width="18" />
                           </g>
                        </g>
                     </g>
                  </g>
               </g>
               <g id="b1tinz9d" class="barLine">
                  <path d="M6299 3367 L6299 4087" stroke="currentColor" stroke-width="27" />
               </g>
            </g>
            <g id="m1qw9rv5" class="measure">
               <g id="s1m0dsmz" class="staff">
                  <path d="M6312 3367 L8459 3367" stroke="currentColor" stroke-width="13" />
                  <path d="M6312 3547 L8459 3547" stroke="currentColor" stroke-width="13" />
                  <path d="M6312 3727 L8459 3727" stroke="currentColor" stroke-width="13" />
                  <path d="M6312 3907 L8459 3907" stroke="currentColor" stroke-width="13" />
                  <path d="M6312 4087 L8459 4087" stroke="currentColor" stroke-width="13" />
                  <g id="ldf5f1w" class="layer">
                     <g id="b1ie35o9" class="beam">
                        <polygon points="6700,3187 7380,3367 7380,3457 6700,3277" />
                        <polygon points="7154,3446 7380,3502 7380,3592 7154,3536" />
                        <g id="n1rmjn47" class="note">
                           <g class="notehead">
                              <use xlink:href="#E0A4-25sq7x" x="6492" y="3817" height="720px" width="720px" />
                           </g>
                           <g id="d11wbqdr" class="dots">
                              <ellipse cx="6808" cy="3817" rx="36" ry="36" />
                           </g>
                           <g id="s173z9wd" class="stem">
                              <rect x="6700" y="3205" height="584" width="18" />
                           </g>
                        </g>
                        <g id="nxz38gb" class="note">
                           <g class="notehead">
                              <use xlink:href="#E0A4-25sq7x" x="7154" y="3997" height="720px" width="720px" />
                           </g>
                           <g id="s1v5qbfv" class="stem">
                              <rect x="7362" y="3385" height="584" width="18" />
                           </g>
                           <g id="a1or4lx2" class="accid" />
                        </g>
                     </g>
                     <g id="nlquzl" class="note">
                        <g class="notehead">
                           <use xlink:href="#E0A4-25sq7x" x="7496" y="3907" height="720px" width="720px" />
                        </g>
                        <g id="s1gpatmg" class="stem">
                           <rect x="7704" y="3277" height="602" width="18" />
                        </g>
                     </g>
                  </g>
               </g>
               <g id="b18mxzy8" class="barLine">
                  <path d="M8284 3367 L8284 4087" stroke="currentColor" stroke-width="27" />
                  <path d="M8414 3367 L8414 4087" stroke="currentColor" stroke-width="90" />
               </g>
            </g>
            <g id="s1g9kj8g" class="systemMilestoneEnd s1or8fi2" />
         </g>
         <g id="pty3v94" class="pageMilestoneEnd sa1pupd" />
         <g id="p1sps8e5" class="pageMilestoneEnd mp214d7" />
         <g id="pos7tko" class="pgHead">
            <text x="0" y="0" font-size="0px">
               <tspan id="r1i9yf3y" class="rend" x="10000" y="279" text-anchor="middle">
                  <tspan id="txbemtz" class="text">
                     <tspan font-size="405px" class="text">Air n 35</tspan>
                  </tspan>
               </tspan>
            </text>
         </g>
         <g id="px5qfd3" class="pgFoot autogenerated">
            <g id="f1ciqzzt" class="fig">
               <g id="s1qvp48g" class="svg" transform="translate(7750, 28099) scale(10, 10)">
                  <g>
                     <path fill="#00000" d="M 17.11278,49.26451 V 10.367554 h 12.696511 c 3.288815,7.336676 6.71267,14.610456 10.127281,21.888976 3.419998,-7.484684 6.255515,-14.204887 9.58887,-21.909915 2.436207,0.103726 4.316952,0.08453 6.484294,-0.05808 V 49.264423 H 50.274275 C 50.145222,38.35639 50.016136,27.448368 49.887066,16.540329 45.003488,27.315459 39.967448,38.433564 35.083854,49.208695 34.678996,49.343717 34.426583,49.135619 34.021726,49.270644 29.46588,39.330716 24.910049,29.390805 20.354201,19.450876 20.224341,29.388756 20.09461,39.326619 19.964815,49.264497 H 17.11278 Z M 36.754144,39.324695 C 32.721221,30.512695 28.6883,21.700679 24.655394,12.888662 22.530527,12.750737 22.656775,12.71031 20.714356,12.813974 v 0.966497 c 4.612938,9.99784 9.609439,20.748709 13.87298,30.081745 0.722248,-1.512523 1.444528,-3.025014 2.166808,-4.537521 z m 25.738417,9.939815 c 0,-12.965651 0,-25.931305 0,-38.896956 10.084388,0 20.168791,0 30.253178,0 0,0.960416 0,1.920849 0,2.881265 -6.482825,0 -12.965652,0 -19.448478,0 0,4.802097 0,9.604178 0,14.406277 5.52241,0 11.044819,0 16.567229,0 0,0.960415 0,1.920832 0,2.881248 -5.52241,0 -11.044819,0 -16.567229,0 0,5.282306 0,10.564611 0,15.846917 6.963035,0 13.926068,0 20.889103,0 0,0.960416 0,1.920832 0,2.881249 -10.564597,0 -21.129207,0 -31.693803,0 z m 4.321874,-2.160937 c 0,-11.765131 0,-23.530263 0,-35.295394 -0.720312,0 -1.440625,0 -2.160937,0 0,11.765131 0,23.530263 0,35.295394 0.720312,0 1.440625,0 2.160937,0 z m 32.41413,2.160937 c 0,-12.965651 0,-25.931305 0,-38.896956 2.401045,0 4.802095,0 7.203135,0 0,12.965651 0,25.931305 0,38.896956 -2.40104,0 -4.80209,0 -7.203135,0 z m 2.881265,-2.160937 c 0,-11.765131 0,-23.530263 0,-35.295394 -0.72031,0 -1.44064,0 -2.160953,0 0,11.765131 0,23.530263 0,35.295394 0.720313,0 1.440643,0 2.160953,0 z" />
                     <path fill="#00000" d="m 346.3,6.7 c -3.1,0.5 -4.9,4.4 -2.7,6.8 1.2,1.4 2.7,2.4 4.1,3.5 -2.4,5.3 -7.7,8.3 -11.9,12.1 -3.7,2.8 -7,6.2 -9.7,9.9 -2.2,-0.8 -0.3,-6.8 -0.6,-9.5 0.1,-3.1 0.7,-6.4 2.9,-8.7 1.3,-1.9 3,-3.5 4.5,-5.2 1.2,-3.4 -3.2,-4.9 -5.8,-4.6 -7.3,-0.5 -14.6,2 -20,6.8 -5,4.6 -10,10.1 -11.5,17 -0.9,3.5 -0.2,7.5 2.8,9.9 2.5,2.8 7.4,2.9 9.8,-0.2 1.7,-2.3 3.2,-4.8 3.8,-7.6 -0.1,-2.6 -4.4,-2.3 -4.3,0.2 1.2,2.4 -0.9,4.7 -2.7,6.2 -1.7,0.9 -4.7,0.7 -4.8,-1.7 -1,-5.8 2.1,-11.3 5.2,-16.1 4,-5.8 9.8,-11.2 17.2,-11.8 1.6,0 8.1,-1.2 6.8,1.4 -2.8,2.8 -5.6,6.1 -6,10.3 -1.6,7.7 0.1,15.7 -2.3,23.2 -1.1,3.9 2,2.6 2.5,0.2 3.3,-7.4 8.9,-13.4 15.1,-18.5 4.2,-3.9 9.5,-7.1 11.9,-12.6 1.3,-3.6 1.2,-9 -2.7,-10.9 -0.6,-0.2 -1.2,-0.3 -1.8,-0.3 z m 66,14.5 c -2,0.8 -1.8,4.9 0.8,4.4 3.4,0.4 2.9,-6.2 -0.8,-4.4 z m 0.6,7.3 c -1.3,0.5 -7.6,0.5 -5.4,2.2 4,-0.3 0.7,4.5 0.6,6.7 -0.4,2.9 -2.4,5.9 -1.2,8.8 2.7,1.7 5.6,-0.8 6.8,-3.2 1.6,-1.4 -0.5,-3 -1.2,-0.9 -0.4,0.8 -2.4,3.5 -2.6,1.8 1.1,-5 2.7,-9.9 3.9,-14.9 l -0.1,-0.5 h -0.9 z m -65.1,0.2 c -6.5,1.6 -10.5,9.5 -8.2,15.7 2.1,3.4 7.4,2.9 10.1,0.4 2,-0.2 3.6,-5.3 1,-3.4 -1.4,2 -4,4.2 -6.5,2.8 -2.2,-1.9 -1.9,-5.7 1.7,-5.3 3.1,-0.9 6.9,-2.1 8.1,-5.5 0.9,-2.7 -1.6,-5.2 -4.3,-4.8 h -1.1 -0.7 z m 13.6,0 c -2.2,0 -8.5,1.8 -2.9,2.3 0.9,1.9 -1,4.9 -1.1,7.2 -0.5,2.9 -1.4,5.7 -1.7,8.7 3.7,0.7 3.8,-2.6 4.4,-5.3 0.9,-3.3 1.6,-7 4.1,-9.5 2.4,1.6 6.8,-0.7 3.7,-3.4 -2.9,-0.5 -4.8,2.4 -6.2,4.3 0,-1.2 2.4,-5 -0.2,-4.3 z m 15.8,0 c -6.4,1.3 -9.6,9.1 -7.7,14.9 1.9,4 7.7,3.9 11,1.7 4.1,-3 6,-8.9 4.4,-13.7 -1.3,-3 -4.8,-3.2 -7.6,-3 z m 17,0 c -2.3,0 -8.8,1.9 -3,2.4 0.4,2.5 -1,5.7 -1.4,8.4 -0.7,2.4 -1.8,7.5 2.1,7.2 3.8,-0.1 6.5,-3.5 8.5,-6.3 2,-3.2 4.5,-7 3.3,-10.9 -3.7,-3 -3.6,2.6 -3.1,5.1 -0.7,3.8 -2.7,7.9 -6.2,9.8 -3.6,0.6 -1,-4.3 -0.8,-6.1 0.6,-3.2 1.6,-6.3 1.9,-9.5 -0.4,0 -0.8,0 -1.1,0 z m 30.6,0 c -6.3,1.2 -9.5,8.9 -7.8,14.7 1.5,4 7.2,4.2 10.5,2.4 4.6,-2.8 6.6,-9.3 4.8,-14.3 -1.4,-2.8 -4.8,-3 -7.5,-2.8 z m -75.4,1.7 c 2.1,1.5 0.2,4.7 -1.6,5.7 -1.1,0.4 -5.5,3.4 -4.6,0.7 0.8,-2.7 2.2,-6.2 5.3,-6.6 l 0.9,0.1 z m 30.8,0 c 2.6,1.5 1.3,5.2 0.8,7.6 -0.8,2.7 -1.9,5.9 -4.7,7.1 -5.1,0.8 -4,-5.8 -2.8,-8.8 1,-2.8 3,-6.8 6.7,-5.8 z m 47.1,-0.1 c 2.9,0.7 2,4.7 1.5,6.8 -0.7,3 -1.8,6.7 -5,8 -4.7,0.8 -4,-5.1 -3,-7.9 0.9,-3 2.7,-7.3 6.5,-6.8 z m -88.1,5.9 c -0.3,1.3 0.9,-0.6 0,0 z m -1.1,2.4 c -0.2,0.5 0.5,-0.1 0,0 z m -1.3,4.5 c -0.3,1.3 0.8,-0.2 0,0 z" />
                     <text y="41" x="201" fill="#00000" style="font-style:italic;font-weight:normal;font-size:30px;line-height:125%;font-family:Times;text-anchor:middle" xml:space="preserve">engraved with</text>
                  </g>
               </g>
            </g>
         </g>
      </g>
   </svg>
</svg>
