<?xml version="1.0" encoding="UTF-8" standalone="no"?>
<svg width="2100px" height="2970px" version="1.1" xmlns="http://www.w3.org/2000/svg" xmlns:xlink="http://www.w3.org/1999/xlink" xmlns:mei="http://www.music-encoding.org/ns/mei" overflow="visible">
   <desc>Engraved by Verovio 3.13.1</desc>
   <defs>
      <symbol id="E044-po1fvi" viewBox="0 0 1000 1000" overflow="inherit">
         <path transform="scale(1,-1)" d="M0 0c0 28 22 50 50 50s50 -22 50 -50s-22 -50 -50 -50s-50 22 -50 50z" />
      </symbol>
      <symbol id="E050-po1fvi" viewBox="0 0 1000 1000" overflow="inherit">
         <path transform="scale(1,-1)" d="M441 -245c-23 -4 -48 -6 -76 -6c-59 0 -102 7 -130 20c-88 42 -150 93 -187 154c-26 44 -43 103 -48 176c0 6 -1 13 -1 19c0 54 15 111 45 170c29 57 65 106 110 148s96 85 153 127c-3 16 -8 46 -13 92c-4 43 -5 73 -5 89c0 117 16 172 69 257c34 54 64 82 89 82 c21 0 43 -30 69 -92s39 -115 41 -159v-15c0 -109 -21 -162 -67 -241c-13 -20 -63 -90 -98 -118c-13 -9 -25 -19 -37 -29l31 -181c8 1 18 2 28 2c58 0 102 -12 133 -35c59 -43 92 -104 98 -184c1 -7 1 -15 1 -22c0 -123 -87 -209 -181 -248c8 -57 17 -110 25 -162 c5 -31 6 -58 6 -80c0 -30 -5 -53 -14 -70c-35 -64 -88 -99 -158 -103c-5 0 -11 -1 -16 -1c-37 0 -72 10 -108 27c-50 24 -77 59 -80 105v11c0 29 7 55 20 76c18 28 45 42 79 44h6c49 0 93 -42 97 -87v-9c0 -51 -34 -86 -105 -106c17 -24 51 -36 102 -36c62 0 116 43 140 85 c9 16 13 41 13 74c0 20 -1 42 -5 67c-8 53 -18 106 -26 159zM461 939c-95 0 -135 -175 -135 -286c0 -24 2 -48 5 -71c50 39 92 82 127 128c40 53 60 100 60 140v8c-4 53 -22 81 -55 81h-2zM406 119l54 -326c73 25 110 78 110 161c0 7 0 15 -1 23c-7 95 -57 142 -151 142h-12 zM382 117c-72 -2 -128 -47 -128 -120v-7c2 -46 43 -99 75 -115c-3 -2 -7 -5 -10 -10c-70 33 -116 88 -123 172v11c0 68 44 126 88 159c23 17 49 29 78 36l-29 170c-21 -13 -52 -37 -92 -73c-50 -44 -86 -84 -109 -119c-45 -69 -67 -130 -67 -182v-13c5 -68 35 -127 93 -176 s125 -73 203 -73c25 0 50 3 75 9c-19 111 -36 221 -54 331z" />
      </symbol>
      <symbol id="E081-po1fvi" viewBox="0 0 1000 1000" overflow="inherit">
         <path transform="scale(1,-1)" d="M68 -250v36c23 0 40 6 49 18c8 14 12 33 12 57v250l-82 -129l-27 13l107 255h128v-394c0 -24 5 -42 14 -53s25 -17 47 -17v-36h-248z" />
      </symbol>
      <symbol id="E082-po1fvi" viewBox="0 0 1000 1000" overflow="inherit">
         <path transform="scale(1,-1)" d="M124 -185c-18 0 -55 -14 -65 -65h-36l-3 30c0 25 6 45 18 63c11 19 22 30 39 43l121 82l37 29c15 11 27 29 38 54c12 24 18 47 18 70c0 40 -19 88 -94 88c-25 0 -32 0 -50 -8c-14 -5 -23 -12 -26 -22c3 -9 7 -15 10 -18l24 -17c12 -7 17 -11 27 -21c5 -7 7 -16 7 -27 c0 -12 0 -57 -79 -74c-30 0 -76 26 -76 94c0 66 81 135 197 135c72 0 181 -32 181 -150c0 -53 -32 -95 -113 -133l-91 -41c-26 -11 -45 -23 -57 -37l49 7c84 0 115 -41 148 -41c20 0 33 20 39 61h35c0 -152 -68 -168 -114 -168c-17 0 -65 0 -79 7h10l-28 17 c-49 37 -69 40 -87 42z" />
      </symbol>
      <symbol id="E084-po1fvi" viewBox="0 0 1000 1000" overflow="inherit">
         <path transform="scale(1,-1)" d="M20 -78c84 97 114 180 134 329h170c-13 -32 -82 -132 -99 -151l-84 -97c-33 -36 -59 -63 -80 -81h162v102l127 123v-225h57v-39h-57v-34c0 -43 19 -65 57 -65v-34h-244v36c48 0 60 26 60 70v27h-203v39z" />
      </symbol>
      <symbol id="E0A4-po1fvi" viewBox="0 0 1000 1000" overflow="inherit">
         <path transform="scale(1,-1)" d="M0 -39c0 68 73 172 200 172c66 0 114 -37 114 -95c0 -84 -106 -171 -218 -171c-64 0 -96 30 -96 94z" />
      </symbol>
      <symbol id="E260-po1fvi" viewBox="0 0 1000 1000" overflow="inherit">
         <path transform="scale(1,-1)" d="M20 110c32 16 54 27 93 27c26 0 35 -3 54 -13c13 -7 24 -20 27 -38l4 -25c0 -28 -16 -57 -45 -89c-23 -25 -39 -44 -65 -68l-88 -79v644h20v-359zM90 106c-32 0 -48 -10 -70 -29v-194c31 31 54 59 71 84c21 32 32 59 32 84c0 9 1 16 1 20c0 14 -3 21 -11 30l-8 3z" />
      </symbol>
   </defs>
   <style type="text/css">g.page-margin{font-family:Times;} g.ending, g.fing, g.reh, g.tempo{font-weight:bold;} g.dir, g.dynam, g.mNum{font-style:italic;} g.label{font-weight:normal;}</style>
   <svg class="definition-scale" color="black" viewBox="0 0 21000 29700">
      <g class="page-margin" transform="translate(500, 500)">
         <g id="mi7iftb" class="mdiv pageMilestone" />
         <g id="s81oi04" class="score pageMilestone" />
         <g id="s13x4cyf" class="system">
            <g id="l1q1rrm8" class="label">
               <text x="1105" y="1535" text-anchor="end" font-size="0px">
                  <tspan id="t1wrc119" class="text">
                     <tspan font-size="405px" class="text">Piano</tspan>
                  </tspan>
               </text>
            </g>
            <g id="s1b44107" class="section systemMilestone" />
            <g id="ppzghig" class="pb" />
            <g id="m1158k9u" class="measure">
               <g id="m1hdxhdr" class="mNum">
                  <text x="1285" y="842" text-anchor="middle" font-size="0px" />
               </g>
               <g id="sy4h2e2" class="staff">
                  <path d="M1285 1085 L4143 1085" stroke="currentColor" stroke-width="13" />
                  <path d="M1285 1265 L4143 1265" stroke="currentColor" stroke-width="13" />
                  <path d="M1285 1445 L4143 1445" stroke="currentColor" stroke-width="13" />
                  <path d="M1285 1625 L4143 1625" stroke="currentColor" stroke-width="13" />
                  <path d="M1285 1805 L4143 1805" stroke="currentColor" stroke-width="13" />
                  <g id="cjlrljp" class="clef">
                     <use xlink:href="#E050-po1fvi" x="1375" y="1625" height="720px" width="720px" />
                  </g>
                  <g id="k1u343nz" class="keySig">
                     <g id="k1h9943z" class="keyAccid">
                        <use xlink:href="#E260-po1fvi" x="2020" y="1445" height="720px" width="720px" />
                     </g>
                     <g id="k1f8g9vy" class="keyAccid">
                        <use xlink:href="#E260-po1fvi" x="2200" y="1175" height="720px" width="720px" />
                     </g>
                  </g>
                  <g id="m3ijscg" class="meterSig">
                     <use xlink:href="#E082-po1fvi" x="2508" y="1265" height="720px" width="720px" />
                     <use xlink:href="#E084-po1fvi" x="2513" y="1625" height="720px" width="720px" />
                  </g>
                  <g id="lstz882" class="layer">
                     <g id="b1bzko0k" class="beam">
                        <polygon points="3288,905 3831,860 3831,950 3288,995" />
                        <g id="n14cymaj" class="note">
                           <g class="notehead">
                              <use xlink:href="#E0A4-po1fvi" x="3080" y="1625" height="720px" width="720px" />
                           </g>
                           <g id="s1mrbpqj" class="stem">
                              <rect x="3288" y="923" height="674" width="18" />
                           </g>
                        </g>
                        <g id="nu9zqjs" class="note">
                           <g class="notehead">
                              <use xlink:href="#E0A4-po1fvi" x="3605" y="1535" height="720px" width="720px" />
                           </g>
                           <g id="soap62f" class="stem">
                              <rect x="3813" y="878" height="629" width="18" />
                           </g>
                        </g>
                     </g>
                  </g>
               </g>
               <g id="bhtmttd" class="barLine">
                  <path d="M4130 1085 L4130 1805" stroke="currentColor" stroke-width="27" />
               </g>
            </g>
            <g id="m2qvmsb" class="measure">
               <g id="s1lc75ow" class="staff">
                  <path d="M4143 1085 L6191 1085" stroke="currentColor" stroke-width="13" />
                  <path d="M4143 1265 L6191 1265" stroke="currentColor" stroke-width="13" />
                  <path d="M4143 1445 L6191 1445" stroke="currentColor" stroke-width="13" />
                  <path d="M4143 1625 L6191 1625" stroke="currentColor" stroke-width="13" />
                  <path d="M4143 1805 L6191 1805" stroke="currentColor" stroke-width="13" />
                  <g id="l876oup" class="layer">
                     <g id="b1kv0vo1" class="beam">
                        <polygon points="4530,860 5073,905 5073,995 4530,950" />
                        <g id="nb6zk94" class="note">
                           <g class="notehead">
                              <use xlink:href="#E0A4-po1fvi" x="4322" y="1445" height="720px" width="720px" />
                           </g>
                           <g id="s1heb09b" class="stem">
                              <rect x="4530" y="878" height="539" width="18" />
                           </g>
                           <g id="a1ppce0g" class="accid" />
                        </g>
                        <g id="n881fj0" class="note">
                           <g class="notehead">
                              <use xlink:href="#E0A4-po1fvi" x="4847" y="1625" height="720px" width="720px" />
                           </g>
                           <g id="s6gm8sk" class="stem">
                              <rect x="5055" y="923" height="674" width="18" />
                           </g>
                        </g>
                     </g>
                     <g id="n19ubate" class="note">
                        <g class="notehead">
                           <use xlink:href="#E0A4-po1fvi" x="5372" y="1715" height="720px" width="720px" />
                        </g>
                        <g id="s8yn9u4" class="stem">
                           <rect x="5580" y="1085" height="602" width="18" />
                        </g>
                     </g>
                  </g>
               </g>
               <g id="bj0nvrh" class="barLine">
                  <path d="M6178 1085 L6178 1805" stroke="currentColor" stroke-width="27" />
               </g>
            </g>
            <g id="mxlf6j8" class="measure">
               <g id="s1cd5sj9" class="staff">
                  <path d="M6191 1085 L8239 1085" stroke="currentColor" stroke-width="13" />
                  <path d="M6191 1265 L8239 1265" stroke="currentColor" stroke-width="13" />
                  <path d="M6191 1445 L8239 1445" stroke="currentColor" stroke-width="13" />
                  <path d="M6191 1625 L8239 1625" stroke="currentColor" stroke-width="13" />
                  <path d="M6191 1805 L8239 1805" stroke="currentColor" stroke-width="13" />
                  <g id="lyyd52k" class="layer">
                     <g id="nl3xvtg" class="note">
                        <g class="notehead">
                           <use xlink:href="#E0A4-po1fvi" x="6370" y="1625" height="720px" width="720px" />
                        </g>
                        <g id="s16idjs1" class="stem">
                           <rect x="6578" y="995" height="602" width="18" />
                        </g>
                     </g>
                     <g id="b57hv6z" class="beam">
                        <polygon points="7384,905 7927,860 7927,950 7384,995" />
                        <g id="n1zjnw0" class="note">
                           <g class="notehead">
                              <use xlink:href="#E0A4-po1fvi" x="7176" y="1625" height="720px" width="720px" />
                           </g>
                           <g id="s45tlfg" class="stem">
                              <rect x="7384" y="923" height="674" width="18" />
                           </g>
                        </g>
                        <g id="nv8xrya" class="note">
                           <g class="notehead">
                              <use xlink:href="#E0A4-po1fvi" x="7701" y="1535" height="720px" width="720px" />
                           </g>
                           <g id="s1vcslqc" class="stem">
                              <rect x="7909" y="878" height="629" width="18" />
                           </g>
                        </g>
                     </g>
                  </g>
               </g>
               <g id="b1y8veoj" class="barLine">
                  <path d="M8226 1085 L8226 1805" stroke="currentColor" stroke-width="27" />
               </g>
            </g>
            <g id="mx3qc06" class="measure">
               <g id="s1kxcaun" class="staff">
                  <path d="M8239 1085 L10287 1085" stroke="currentColor" stroke-width="13" />
                  <path d="M8239 1265 L10287 1265" stroke="currentColor" stroke-width="13" />
                  <path d="M8239 1445 L10287 1445" stroke="currentColor" stroke-width="13" />
                  <path d="M8239 1625 L10287 1625" stroke="currentColor" stroke-width="13" />
                  <path d="M8239 1805 L10287 1805" stroke="currentColor" stroke-width="13" />
                  <g id="l10ltot3" class="layer">
                     <g id="b1jxzecj" class="beam">
                        <polygon points="8626,860 9169,905 9169,995 8626,950" />
                        <g id="nez3by0" class="note">
                           <g class="notehead">
                              <use xlink:href="#E0A4-po1fvi" x="8418" y="1445" height="720px" width="720px" />
                           </g>
                           <g id="smkad9o" class="stem">
                              <rect x="8626" y="878" height="539" width="18" />
                           </g>
                           <g id="a8foi1o" class="accid" />
                        </g>
                        <g id="nkqxbbh" class="note">
                           <g class="notehead">
                              <use xlink:href="#E0A4-po1fvi" x="8943" y="1625" height="720px" width="720px" />
                           </g>
                           <g id="s14zzp74" class="stem">
                              <rect x="9151" y="923" height="674" width="18" />
                           </g>
                        </g>
                     </g>
                     <g id="nzvs797" class="note">
                        <g class="notehead">
                           <use xlink:href="#E0A4-po1fvi" x="9468" y="1715" height="720px" width="720px" />
                        </g>
                        <g id="s1xm2su2" class="stem">
                           <rect x="9676" y="1085" height="602" width="18" />
                        </g>
                     </g>
                  </g>
               </g>
               <g id="b114zqaz" class="barLine">
                  <path d="M10274 1085 L10274 1805" stroke="currentColor" stroke-width="27" />
               </g>
            </g>
            <g id="mutws5u" class="measure">
               <g id="sitvxee" class="staff">
                  <path d="M10287 1085 L11905 1085" stroke="currentColor" stroke-width="13" />
                  <path d="M10287 1265 L11905 1265" stroke="currentColor" stroke-width="13" />
                  <path d="M10287 1445 L11905 1445" stroke="currentColor" stroke-width="13" />
                  <path d="M10287 1625 L11905 1625" stroke="currentColor" stroke-width="13" />
                  <path d="M10287 1805 L11905 1805" stroke="currentColor" stroke-width="13" />
                  <g id="mqtqo97" class="meterSig">
                     <use xlink:href="#E081-po1fvi" x="10396" y="1265" height="720px" width="720px" />
                     <use xlink:href="#E084-po1fvi" x="10363" y="1625" height="720px" width="720px" />
                  </g>
                  <g id="l158eqqi" class="layer">
                     <g id="n1gylt4e" class="note">
                        <g class="notehead">
                           <use xlink:href="#E0A4-po1fvi" x="10924" y="1625" height="720px" width="720px" />
                        </g>
                        <g id="s1vqv05f" class="stem">
                           <rect x="11132" y="995" height="602" width="18" />
                        </g>
                     </g>
                  </g>
               </g>
               <g id="b1mbwvhg" class="barLine">
                  <path d="M11730 1085 L11730 1805" stroke="currentColor" stroke-width="27" />
                  <path d="M11860 1085 L11860 1805" stroke="currentColor" stroke-width="90" />
                  <use xlink:href="#E044-po1fvi" x="11613" y="1355" height="720px" width="720px" />
                  <use xlink:href="#E044-po1fvi" x="11613" y="1535" height="720px" width="720px" />
               </g>
            </g>
            <g id="ms7bosj" class="measure">
               <g id="s1ag3qy6" class="staff">
                  <path d="M11905 1085 L13147 1085" stroke="currentColor" stroke-width="13" />
                  <path d="M11905 1265 L13147 1265" stroke="currentColor" stroke-width="13" />
                  <path d="M11905 1445 L13147 1445" stroke="currentColor" stroke-width="13" />
                  <path d="M11905 1625 L13147 1625" stroke="currentColor" stroke-width="13" />
                  <path d="M11905 1805 L13147 1805" stroke="currentColor" stroke-width="13" />
                  <g id="l17a6g8p" class="layer">
                     <g id="b1cgvjj7" class="beam">
                        <polygon points="12292,905 12835,860 12835,950 12292,995" />
                        <g id="n1xducv9" class="note">
                           <g class="notehead">
                              <use xlink:href="#E0A4-po1fvi" x="12084" y="1625" height="720px" width="720px" />
                           </g>
                           <g id="s1bo2rgs" class="stem">
                              <rect x="12292" y="923" height="674" width="18" />
                           </g>
                        </g>
                        <g id="n1xw26ul" class="note">
                           <g class="notehead">
                              <use xlink:href="#E0A4-po1fvi" x="12609" y="1535" height="720px" width="720px" />
                           </g>
                           <g id="s1pht0w9" class="stem">
                              <rect x="12817" y="878" height="629" width="18" />
                           </g>
                        </g>
                     </g>
                  </g>
               </g>
               <g id="b48l01" class="barLine">
                  <path d="M13134 1085 L13134 1805" stroke="currentColor" stroke-width="27" />
               </g>
            </g>
            <g id="mg10a1i" class="measure">
               <g id="s18l2kjn" class="staff">
                  <path d="M13147 1085 L15908 1085" stroke="currentColor" stroke-width="13" />
                  <path d="M13147 1265 L15908 1265" stroke="currentColor" stroke-width="13" />
                  <path d="M13147 1445 L15908 1445" stroke="currentColor" stroke-width="13" />
                  <path d="M13147 1625 L15908 1625" stroke="currentColor" stroke-width="13" />
                  <path d="M13147 1805 L15908 1805" stroke="currentColor" stroke-width="13" />
                  <g id="mwhufj0" class="meterSig">
                     <use xlink:href="#E082-po1fvi" x="13223" y="1265" height="720px" width="720px" />
                     <use xlink:href="#E084-po1fvi" x="13228" y="1625" height="720px" width="720px" />
                  </g>
                  <g id="l1j5i6z8" class="layer">
                     <g id="b1p6c1ar" class="beam">
                        <polygon points="14003,860 14546,860 14546,950 14003,950" />
                        <g id="n181bu7g" class="note">
                           <g class="notehead">
                              <use xlink:href="#E0A4-po1fvi" x="13795" y="1445" height="720px" width="720px" />
                           </g>
                           <g id="s1bq1zq7" class="stem">
                              <rect x="14003" y="878" height="539" width="18" />
                           </g>
                           <g id="azm18tj" class="accid" />
                        </g>
                        <g id="n1vzao7l" class="note">
                           <g class="notehead">
                              <use xlink:href="#E0A4-po1fvi" x="14320" y="1445" height="720px" width="720px" />
                           </g>
                           <g id="s1xcj6it" class="stem">
                              <rect x="14528" y="878" height="539" width="18" />
                           </g>
                           <g id="a1sji6la" class="accid" />
                        </g>
                     </g>
                     <g id="b1w1g2z2" class="beam">
                        <polygon points="15053,860 15596,905 15596,995 15053,950" />
                        <g id="n1h7tnbp" class="note">
                           <g class="notehead">
                              <use xlink:href="#E0A4-po1fvi" x="14845" y="1535" height="720px" width="720px" />
                           </g>
                           <g id="s10eomat" class="stem">
                              <rect x="15053" y="878" height="629" width="18" />
                           </g>
                        </g>
                        <g id="nbv6k0v" class="note">
                           <g class="notehead">
                              <use xlink:href="#E0A4-po1fvi" x="15370" y="1625" height="720px" width="720px" />
                           </g>
                           <g id="s1i0xn6s" class="stem">
                              <rect x="15578" y="923" height="674" width="18" />
                           </g>
                        </g>
                     </g>
                  </g>
               </g>
               <g id="b3quebm" class="barLine">
                  <path d="M15895 1085 L15895 1805" stroke="currentColor" stroke-width="27" />
               </g>
            </g>
            <g id="m1qxihby" class="measure">
               <g id="s1dpiurm" class="staff">
                  <path d="M15908 1085 L17956 1085" stroke="currentColor" stroke-width="13" />
                  <path d="M15908 1265 L17956 1265" stroke="currentColor" stroke-width="13" />
                  <path d="M15908 1445 L17956 1445" stroke="currentColor" stroke-width="13" />
                  <path d="M15908 1625 L17956 1625" stroke="currentColor" stroke-width="13" />
                  <path d="M15908 1805 L17956 1805" stroke="currentColor" stroke-width="13" />
                  <g id="l1o64dbc" class="layer">
                     <g id="nmlku80" class="note">
                        <g class="notehead">
                           <use xlink:href="#E0A4-po1fvi" x="16087" y="1445" height="720px" width="720px" />
                        </g>
                        <g id="szaiiol" class="stem">
                           <rect x="16087" y="1473" height="572" width="18" />
                        </g>
                        <g id="adyfdsv" class="accid" />
                     </g>
                     <g id="b19fmg9w" class="beam">
                        <polygon points="17101,860 17644,905 17644,995 17101,950" />
                        <g id="n117cflv" class="note">
                           <g class="notehead">
                              <use xlink:href="#E0A4-po1fvi" x="16893" y="1535" height="720px" width="720px" />
                           </g>
                           <g id="ssx7937" class="stem">
                              <rect x="17101" y="878" height="629" width="18" />
                           </g>
                        </g>
                        <g id="n15bdiaf" class="note">
                           <g class="notehead">
                              <use xlink:href="#E0A4-po1fvi" x="17418" y="1625" height="720px" width="720px" />
                           </g>
                           <g id="s1k0hk2e" class="stem">
                              <rect x="17626" y="923" height="674" width="18" />
                           </g>
                        </g>
                     </g>
                  </g>
               </g>
               <g id="b1syaknx" class="barLine">
                  <path d="M17943 1085 L17943 1805" stroke="currentColor" stroke-width="27" />
               </g>
            </g>
            <g id="m13b94oh" class="measure">
               <g id="s1lp8pyo" class="staff">
                  <path d="M17956 1085 L20004 1085" stroke="currentColor" stroke-width="13" />
                  <path d="M17956 1265 L20004 1265" stroke="currentColor" stroke-width="13" />
                  <path d="M17956 1445 L20004 1445" stroke="currentColor" stroke-width="13" />
                  <path d="M17956 1625 L20004 1625" stroke="currentColor" stroke-width="13" />
                  <path d="M17956 1805 L20004 1805" stroke="currentColor" stroke-width="13" />
                  <g id="l1dzmju6" class="layer">
                     <g id="n1g2ycok" class="note">
                        <g class="notehead">
                           <use xlink:href="#E0A4-po1fvi" x="18135" y="1715" height="720px" width="720px" />
                        </g>
                        <g id="sqt268z" class="stem">
                           <rect x="18343" y="1085" height="602" width="18" />
                        </g>
                     </g>
                     <g id="bfkhrq1" class="beam">
                        <polygon points="19149,905 19692,860 19692,950 19149,995" />
                        <g id="ntftqfg" class="note">
                           <g class="notehead">
                              <use xlink:href="#E0A4-po1fvi" x="18941" y="1625" height="720px" width="720px" />
                           </g>
                           <g id="s1g7s7vh" class="stem">
                              <rect x="19149" y="923" height="674" width="18" />
                           </g>
                        </g>
                        <g id="n1hh3o0d" class="note">
                           <g class="notehead">
                              <use xlink:href="#E0A4-po1fvi" x="19466" y="1535" height="720px" width="720px" />
                           </g>
                           <g id="s4tzv8p" class="stem">
                              <rect x="19674" y="878" height="629" width="18" />
                           </g>
                        </g>
                     </g>
                  </g>
               </g>
               <g id="b1amaf6m" class="barLine">
                  <path d="M19991 1085 L19991 1805" stroke="currentColor" stroke-width="27" />
               </g>
            </g>
         </g>
         <g id="sdou6tx" class="system">
            <g id="l1dfobxy" class="labelAbbr">
               <text x="914" y="3884" text-anchor="end" font-size="0px">
                  <tspan id="tnni64g" class="text">
                     <tspan font-size="405px" class="text">Pno.</tspan>
                  </tspan>
               </text>
            </g>
            <g id="m1j8jcvu" class="measure">
               <g id="m1fre3us" class="mNum autogenerated">
                  <text x="1094" y="3191" text-anchor="middle" font-size="0px">
                     <tspan id="t1i99zqp" class="text">
                        <tspan font-size="324px" class="text">9</tspan>
                     </tspan>
                  </text>
               </g>
               <g id="s50lit4" class="staff">
                  <path d="M1094 3434 L4550 3434" stroke="currentColor" stroke-width="13" />
                  <path d="M1094 3614 L4550 3614" stroke="currentColor" stroke-width="13" />
                  <path d="M1094 3794 L4550 3794" stroke="currentColor" stroke-width="13" />
                  <path d="M1094 3974 L4550 3974" stroke="currentColor" stroke-width="13" />
                  <path d="M1094 4154 L4550 4154" stroke="currentColor" stroke-width="13" />
                  <g id="c1tc4ifx" class="clef">
                     <use xlink:href="#E050-po1fvi" x="1184" y="3974" height="720px" width="720px" />
                  </g>
                  <g id="ki7dq1s" class="keySig">
                     <g id="k2eqvvk" class="keyAccid">
                        <use xlink:href="#E260-po1fvi" x="1829" y="3794" height="720px" width="720px" />
                     </g>
                     <g id="kij2xeo" class="keyAccid">
                        <use xlink:href="#E260-po1fvi" x="2009" y="3524" height="720px" width="720px" />
                     </g>
                  </g>
                  <g id="l1coaz2b" class="layer">
                     <g id="biqazvd" class="beam">
                        <polygon points="2629,3209 3176,3209 3176,3299 2629,3299" />
                        <g id="nau5wo8" class="note">
                           <g class="notehead">
                              <use xlink:href="#E0A4-po1fvi" x="2421" y="3794" height="720px" width="720px" />
                           </g>
                           <g id="s1il273k" class="stem">
                              <rect x="2629" y="3227" height="539" width="18" />
                           </g>
                           <g id="a3k5fnq" class="accid" />
                        </g>
                        <g id="nl7kjpw" class="note">
                           <g class="notehead">
                              <use xlink:href="#E0A4-po1fvi" x="2950" y="3794" height="720px" width="720px" />
                           </g>
                           <g id="s1j67nlw" class="stem">
                              <rect x="3158" y="3227" height="539" width="18" />
                           </g>
                           <g id="a5ugs24" class="accid" />
                        </g>
                     </g>
                     <g id="b27gzib" class="beam">
                        <polygon points="3687,3209 4234,3254 4234,3344 3687,3299" />
                        <g id="npnvfna" class="note">
                           <g class="notehead">
                              <use xlink:href="#E0A4-po1fvi" x="3479" y="3884" height="720px" width="720px" />
                           </g>
                           <g id="sz5d5g4" class="stem">
                              <rect x="3687" y="3227" height="629" width="18" />
                           </g>
                        </g>
                        <g id="nwhdilw" class="note">
                           <g class="notehead">
                              <use xlink:href="#E0A4-po1fvi" x="4008" y="3974" height="720px" width="720px" />
                           </g>
                           <g id="srm2b26" class="stem">
                              <rect x="4216" y="3272" height="674" width="18" />
                           </g>
                        </g>
                     </g>
                  </g>
               </g>
               <g id="b1bigs19" class="barLine">
                  <path d="M4537 3434 L4537 4154" stroke="currentColor" stroke-width="27" />
               </g>
            </g>
            <g id="s1qj5dnn" class="sb" />
            <g id="mdxtkxc" class="measure">
               <g id="s1jsvlcw" class="staff">
                  <path d="M4550 3434 L6613 3434" stroke="currentColor" stroke-width="13" />
                  <path d="M4550 3614 L6613 3614" stroke="currentColor" stroke-width="13" />
                  <path d="M4550 3794 L6613 3794" stroke="currentColor" stroke-width="13" />
                  <path d="M4550 3974 L6613 3974" stroke="currentColor" stroke-width="13" />
                  <path d="M4550 4154 L6613 4154" stroke="currentColor" stroke-width="13" />
                  <g id="l7e5tdw" class="layer">
                     <g id="nee6vp0" class="note">
                        <g class="notehead">
                           <use xlink:href="#E0A4-po1fvi" x="4730" y="3794" height="720px" width="720px" />
                        </g>
                        <g id="s1bic51h" class="stem">
                           <rect x="4730" y="3822" height="572" width="18" />
                        </g>
                        <g id="a1wk25u3" class="accid" />
                     </g>
                     <g id="b1culgc3" class="beam">
                        <polygon points="5750,3299 6297,3344 6297,3434 5750,3389" />
                        <g id="ncywsly" class="note">
                           <g class="notehead">
                              <use xlink:href="#E0A4-po1fvi" x="5542" y="3974" height="720px" width="720px" />
                           </g>
                           <g id="sjijqf1" class="stem">
                              <rect x="5750" y="3317" height="629" width="18" />
                           </g>
                        </g>
                        <g id="nohym71" class="note">
                           <g class="notehead">
                              <use xlink:href="#E0A4-po1fvi" x="6071" y="4064" height="720px" width="720px" />
                           </g>
                           <g id="spnugqq" class="stem">
                              <rect x="6279" y="3362" height="674" width="18" />
                           </g>
                        </g>
                     </g>
                  </g>
               </g>
               <g id="bfaxaok" class="barLine">
                  <path d="M6600 3434 L6600 4154" stroke="currentColor" stroke-width="27" />
               </g>
            </g>
            <g id="m83y394" class="measure">
               <g id="svv9l18" class="staff">
                  <path d="M6613 3434 L8238 3434" stroke="currentColor" stroke-width="13" />
                  <path d="M6613 3614 L8238 3614" stroke="currentColor" stroke-width="13" />
                  <path d="M6613 3794 L8238 3794" stroke="currentColor" stroke-width="13" />
                  <path d="M6613 3974 L8238 3974" stroke="currentColor" stroke-width="13" />
                  <path d="M6613 4154 L8238 4154" stroke="currentColor" stroke-width="13" />
                  <g id="m4iovse" class="meterSig">
                     <use xlink:href="#E081-po1fvi" x="6722" y="3614" height="720px" width="720px" />
                     <use xlink:href="#E084-po1fvi" x="6689" y="3974" height="720px" width="720px" />
                  </g>
                  <g id="l1bi8bpo" class="layer">
                     <g id="n67661p" class="note">
                        <g class="notehead">
                           <use xlink:href="#E0A4-po1fvi" x="7251" y="3974" height="720px" width="720px" />
                        </g>
                        <g id="s6kytvu" class="stem">
                           <rect x="7459" y="3344" height="602" width="18" />
                        </g>
                     </g>
                  </g>
               </g>
               <g id="b18l31gy" class="barLine">
                  <path d="M8063 3434 L8063 4154" stroke="currentColor" stroke-width="27" />
                  <path d="M8193 3434 L8193 4154" stroke="currentColor" stroke-width="90" />
               </g>
            </g>
            <g id="s1oqyu8c" class="systemMilestoneEnd s1b44107" />
         </g>
         <g id="p3xecvf" class="pageMilestoneEnd s81oi04" />
         <g id="p1wtgj0a" class="pageMilestoneEnd mi7iftb" />
         <g id="p135f2t" class="pgHead">
            <text x="0" y="0" font-size="0px">
               <tspan id="rtl24p9" class="rend" x="10000" y="277" text-anchor="middle">
                  <tspan id="tzwqa2m" class="text">
                     <tspan font-size="405px" class="text">Air n 207b</tspan>
                  </tspan>
               </tspan>
            </text>
         </g>
         <g id="pjgjayn" class="pgFoot autogenerated">
            <g id="fakj3xu" class="fig">
               <g id="s1wgo0fx" class="svg" transform="translate(7750, 28099) scale(10, 10)">
                  <g>
                     <path fill="#00000" d="M 17.11278,49.26451 V 10.367554 h 12.696511 c 3.288815,7.336676 6.71267,14.610456 10.127281,21.888976 3.419998,-7.484684 6.255515,-14.204887 9.58887,-21.909915 2.436207,0.103726 4.316952,0.08453 6.484294,-0.05808 V 49.264423 H 50.274275 C 50.145222,38.35639 50.016136,27.448368 49.887066,16.540329 45.003488,27.315459 39.967448,38.433564 35.083854,49.208695 34.678996,49.343717 34.426583,49.135619 34.021726,49.270644 29.46588,39.330716 24.910049,29.390805 20.354201,19.450876 20.224341,29.388756 20.09461,39.326619 19.964815,49.264497 H 17.11278 Z M 36.754144,39.324695 C 32.721221,30.512695 28.6883,21.700679 24.655394,12.888662 22.530527,12.750737 22.656775,12.71031 20.714356,12.813974 v 0.966497 c 4.612938,9.99784 9.609439,20.748709 13.87298,30.081745 0.722248,-1.512523 1.444528,-3.025014 2.166808,-4.537521 z m 25.738417,9.939815 c 0,-12.965651 0,-25.931305 0,-38.896956 10.084388,0 20.168791,0 30.253178,0 0,0.960416 0,1.920849 0,2.881265 -6.482825,0 -12.965652,0 -19.448478,0 0,4.802097 0,9.604178 0,14.406277 5.52241,0 11.044819,0 16.567229,0 0,0.960415 0,1.920832 0,2.881248 -5.52241,0 -11.044819,0 -16.567229,0 0,5.282306 0,10.564611 0,15.846917 6.963035,0 13.926068,0 20.889103,0 0,0.960416 0,1.920832 0,2.881249 -10.564597,0 -21.129207,0 -31.693803,0 z m 4.321874,-2.160937 c 0,-11.765131 0,-23.530263 0,-35.295394 -0.720312,0 -1.440625,0 -2.160937,0 0,11.765131 0,23.530263 0,35.295394 0.720312,0 1.440625,0 2.160937,0 z m 32.41413,2.160937 c 0,-12.965651 0,-25.931305 0,-38.896956 2.401045,0 4.802095,0 7.203135,0 0,12.965651 0,25.931305 0,38.896956 -2.40104,0 -4.80209,0 -7.203135,0 z m 2.881265,-2.160937 c 0,-11.765131 0,-23.530263 0,-35.295394 -0.72031,0 -1.44064,0 -2.160953,0 0,11.765131 0,23.530263 0,35.295394 0.720313,0 1.440643,0 2.160953,0 z" />
                     <path fill="#00000" d="m 346.3,6.7 c -3.1,0.5 -4.9,4.4 -2.7,6.8 1.2,1.4 2.7,2.4 4.1,3.5 -2.4,5.3 -7.7,8.3 -11.9,12.1 -3.7,2.8 -7,6.2 -9.7,9.9 -2.2,-0.8 -0.3,-6.8 -0.6,-9.5 0.1,-3.1 0.7,-6.4 2.9,-8.7 1.3,-1.9 3,-3.5 4.5,-5.2 1.2,-3.4 -3.2,-4.9 -5.8,-4.6 -7.3,-0.5 -14.6,2 -20,6.8 -5,4.6 -10,10.1 -11.5,17 -0.9,3.5 -0.2,7.5 2.8,9.9 2.5,2.8 7.4,2.9 9.8,-0.2 1.7,-2.3 3.2,-4.8 3.8,-7.6 -0.1,-2.6 -4.4,-2.3 -4.3,0.2 1.2,2.4 -0.9,4.7 -2.7,6.2 -1.7,0.9 -4.7,0.7 -4.8,-1.7 -1,-5.8 2.1,-11.3 5.2,-16.1 4,-5.8 9.8,-11.2 17.2,-11.8 1.6,0 8.1,-1.2 6.8,1.4 -2.8,2.8 -5.6,6.1 -6,10.3 -1.6,7.7 0.1,15.7 -2.3,23.2 -1.1,3.9 2,2.6 2.5,0.2 3.3,-7.4 8.9,-13.4 15.1,-18.5 4.2,-3.9 9.5,-7.1 11.9,-12.6 1.3,-3.6 1.2,-9 -2.7,-10.9 -0.6,-0.2 -1.2,-0.3 -1.8,-0.3 z m 66,14.5 c -2,0.8 -1.8,4.9 0.8,4.4 3.4,0.4 2.9,-6.2 -0.8,-4.4 z m 0.6,7.3 c -1.3,0.5 -7.6,0.5 -5.4,2.2 4,-0.3 0.7,4.5 0.6,6.7 -0.4,2.9 -2.4,5.9 -1.2,8.8 2.7,1.7 5.6,-0.8 6.8,-3.2 1.6,-1.4 -0.5,-3 -1.2,-0.9 -0.4,0.8 -2.4,3.5 -2.6,1.8 1.1,-5 2.7,-9.9 3.9,-14.9 l -0.1,-0.5 h -0.9 z m -65.1,0.2 c -6.5,1.6 -10.5,9.5 -8.2,15.7 2.1,3.4 7.4,2.9 10.1,0.4 2,-0.2 3.6,-5.3 1,-3.4 -1.4,2 -4,4.2 -6.5,2.8 -2.2,-1.9 -1.9,-5.7 1.7,-5.3 3.1,-0.9 6.9,-2.1 8.1,-5.5 0.9,-2.7 -1.6,-5.2 -4.3,-4.8 h -1.1 -0.7 z m 13.6,0 c -2.2,0 -8.5,1.8 -2.9,2.3 0.9,1.9 -1,4.9 -1.1,7.2 -0.5,2.9 -1.4,5.7 -1.7,8.7 3.7,0.7 3.8,-2.6 4.4,-5.3 0.9,-3.3 1.6,-7 4.1,-9.5 2.4,1.6 6.8,-0.7 3.7,-3.4 -2.9,-0.5 -4.8,2.4 -6.2,4.3 0,-1.2 2.4,-5 -0.2,-4.3 z m 15.8,0 c -6.4,1.3 -9.6,9.1 -7.7,14.9 1.9,4 7.7,3.9 11,1.7 4.1,-3 6,-8.9 4.4,-13.7 -1.3,-3 -4.8,-3.2 -7.6,-3 z m 17,0 c -2.3,0 -8.8,1.9 -3,2.4 0.4,2.5 -1,5.7 -1.4,8.4 -0.7,2.4 -1.8,7.5 2.1,7.2 3.8,-0.1 6.5,-3.5 8.5,-6.3 2,-3.2 4.5,-7 3.3,-10.9 -3.7,-3 -3.6,2.6 -3.1,5.1 -0.7,3.8 -2.7,7.9 -6.2,9.8 -3.6,0.6 -1,-4.3 -0.8,-6.1 0.6,-3.2 1.6,-6.3 1.9,-9.5 -0.4,0 -0.8,0 -1.1,0 z m 30.6,0 c -6.3,1.2 -9.5,8.9 -7.8,14.7 1.5,4 7.2,4.2 10.5,2.4 4.6,-2.8 6.6,-9.3 4.8,-14.3 -1.4,-2.8 -4.8,-3 -7.5,-2.8 z m -75.4,1.7 c 2.1,1.5 0.2,4.7 -1.6,5.7 -1.1,0.4 -5.5,3.4 -4.6,0.7 0.8,-2.7 2.2,-6.2 5.3,-6.6 l 0.9,0.1 z m 30.8,0 c 2.6,1.5 1.3,5.2 0.8,7.6 -0.8,2.7 -1.9,5.9 -4.7,7.1 -5.1,0.8 -4,-5.8 -2.8,-8.8 1,-2.8 3,-6.8 6.7,-5.8 z m 47.1,-0.1 c 2.9,0.7 2,4.7 1.5,6.8 -0.7,3 -1.8,6.7 -5,8 -4.7,0.8 -4,-5.1 -3,-7.9 0.9,-3 2.7,-7.3 6.5,-6.8 z m -88.1,5.9 c -0.3,1.3 0.9,-0.6 0,0 z m -1.1,2.4 c -0.2,0.5 0.5,-0.1 0,0 z m -1.3,4.5 c -0.3,1.3 0.8,-0.2 0,0 z" />
                     <text y="41" x="201" fill="#00000" style="font-style:italic;font-weight:normal;font-size:30px;line-height:125%;font-family:Times;text-anchor:middle" xml:space="preserve">engraved with</text>
                  </g>
               </g>
            </g>
         </g>
      </g>
   </svg>
</svg>
