<?xml version="1.0" encoding="UTF-8" standalone="no"?>
<svg width="2100px" height="2970px" version="1.1" xmlns="http://www.w3.org/2000/svg" xmlns:xlink="http://www.w3.org/1999/xlink" xmlns:mei="http://www.music-encoding.org/ns/mei" overflow="visible">
   <desc>Engraved by Verovio 3.13.1</desc>
   <defs>
      <symbol id="E044-1sr85i3" viewBox="0 0 1000 1000" overflow="inherit">
         <path transform="scale(1,-1)" d="M0 0c0 28 22 50 50 50s50 -22 50 -50s-22 -50 -50 -50s-50 22 -50 50z" />
      </symbol>
      <symbol id="E050-1sr85i3" viewBox="0 0 1000 1000" overflow="inherit">
         <path transform="scale(1,-1)" d="M441 -245c-23 -4 -48 -6 -76 -6c-59 0 -102 7 -130 20c-88 42 -150 93 -187 154c-26 44 -43 103 -48 176c0 6 -1 13 -1 19c0 54 15 111 45 170c29 57 65 106 110 148s96 85 153 127c-3 16 -8 46 -13 92c-4 43 -5 73 -5 89c0 117 16 172 69 257c34 54 64 82 89 82 c21 0 43 -30 69 -92s39 -115 41 -159v-15c0 -109 -21 -162 -67 -241c-13 -20 -63 -90 -98 -118c-13 -9 -25 -19 -37 -29l31 -181c8 1 18 2 28 2c58 0 102 -12 133 -35c59 -43 92 -104 98 -184c1 -7 1 -15 1 -22c0 -123 -87 -209 -181 -248c8 -57 17 -110 25 -162 c5 -31 6 -58 6 -80c0 -30 -5 -53 -14 -70c-35 -64 -88 -99 -158 -103c-5 0 -11 -1 -16 -1c-37 0 -72 10 -108 27c-50 24 -77 59 -80 105v11c0 29 7 55 20 76c18 28 45 42 79 44h6c49 0 93 -42 97 -87v-9c0 -51 -34 -86 -105 -106c17 -24 51 -36 102 -36c62 0 116 43 140 85 c9 16 13 41 13 74c0 20 -1 42 -5 67c-8 53 -18 106 -26 159zM461 939c-95 0 -135 -175 -135 -286c0 -24 2 -48 5 -71c50 39 92 82 127 128c40 53 60 100 60 140v8c-4 53 -22 81 -55 81h-2zM406 119l54 -326c73 25 110 78 110 161c0 7 0 15 -1 23c-7 95 -57 142 -151 142h-12 zM382 117c-72 -2 -128 -47 -128 -120v-7c2 -46 43 -99 75 -115c-3 -2 -7 -5 -10 -10c-70 33 -116 88 -123 172v11c0 68 44 126 88 159c23 17 49 29 78 36l-29 170c-21 -13 -52 -37 -92 -73c-50 -44 -86 -84 -109 -119c-45 -69 -67 -130 -67 -182v-13c5 -68 35 -127 93 -176 s125 -73 203 -73c25 0 50 3 75 9c-19 111 -36 221 -54 331z" />
      </symbol>
      <symbol id="E081-1sr85i3" viewBox="0 0 1000 1000" overflow="inherit">
         <path transform="scale(1,-1)" d="M68 -250v36c23 0 40 6 49 18c8 14 12 33 12 57v250l-82 -129l-27 13l107 255h128v-394c0 -24 5 -42 14 -53s25 -17 47 -17v-36h-248z" />
      </symbol>
      <symbol id="E082-1sr85i3" viewBox="0 0 1000 1000" overflow="inherit">
         <path transform="scale(1,-1)" d="M124 -185c-18 0 -55 -14 -65 -65h-36l-3 30c0 25 6 45 18 63c11 19 22 30 39 43l121 82l37 29c15 11 27 29 38 54c12 24 18 47 18 70c0 40 -19 88 -94 88c-25 0 -32 0 -50 -8c-14 -5 -23 -12 -26 -22c3 -9 7 -15 10 -18l24 -17c12 -7 17 -11 27 -21c5 -7 7 -16 7 -27 c0 -12 0 -57 -79 -74c-30 0 -76 26 -76 94c0 66 81 135 197 135c72 0 181 -32 181 -150c0 -53 -32 -95 -113 -133l-91 -41c-26 -11 -45 -23 -57 -37l49 7c84 0 115 -41 148 -41c20 0 33 20 39 61h35c0 -152 -68 -168 -114 -168c-17 0 -65 0 -79 7h10l-28 17 c-49 37 -69 40 -87 42z" />
      </symbol>
      <symbol id="E084-1sr85i3" viewBox="0 0 1000 1000" overflow="inherit">
         <path transform="scale(1,-1)" d="M20 -78c84 97 114 180 134 329h170c-13 -32 -82 -132 -99 -151l-84 -97c-33 -36 -59 -63 -80 -81h162v102l127 123v-225h57v-39h-57v-34c0 -43 19 -65 57 -65v-34h-244v36c48 0 60 26 60 70v27h-203v39z" />
      </symbol>
      <symbol id="E0A4-1sr85i3" viewBox="0 0 1000 1000" overflow="inherit">
         <path transform="scale(1,-1)" d="M0 -39c0 68 73 172 200 172c66 0 114 -37 114 -95c0 -84 -106 -171 -218 -171c-64 0 -96 30 -96 94z" />
      </symbol>
      <symbol id="E262-1sr85i3" viewBox="0 0 1000 1000" overflow="inherit">
         <path transform="scale(1,-1)" d="M136 186v169h17v-164l44 14v-91l-44 -14v-165l44 12v-91l-44 -13v-155h-17v150l-76 -22v-155h-17v149l-43 -13v90l43 14v167l-43 -14v92l43 13v169h17v-163zM60 73v-167l76 22v168z" />
      </symbol>
   </defs>
   <style type="text/css">g.page-margin{font-family:Times;} g.ending, g.fing, g.reh, g.tempo{font-weight:bold;} g.dir, g.dynam, g.mNum{font-style:italic;} g.label{font-weight:normal;}</style>
   <svg class="definition-scale" color="black" viewBox="0 0 21000 29700">
      <g class="page-margin" transform="translate(500, 500)">
         <g id="m1czjohs" class="mdiv pageMilestone" />
         <g id="ssetlpa" class="score pageMilestone" />
         <g id="sfm9yqj" class="system">
            <g id="l1ai076w" class="label">
               <text x="1105" y="1535" text-anchor="end" font-size="0px">
                  <tspan id="t1l6gvhq" class="text">
                     <tspan font-size="405px" class="text">Piano</tspan>
                  </tspan>
               </text>
            </g>
            <g id="s19jnoqe" class="section systemMilestone" />
            <g id="p1t1w82c" class="pb" />
            <g id="mu62r58" class="measure">
               <g id="m1i4jwph" class="mNum">
                  <text x="1285" y="842" text-anchor="middle" font-size="0px" />
               </g>
               <g id="sc1u982" class="staff">
                  <path d="M1285 1085 L4174 1085" stroke="currentColor" stroke-width="13" />
                  <path d="M1285 1265 L4174 1265" stroke="currentColor" stroke-width="13" />
                  <path d="M1285 1445 L4174 1445" stroke="currentColor" stroke-width="13" />
                  <path d="M1285 1625 L4174 1625" stroke="currentColor" stroke-width="13" />
                  <path d="M1285 1805 L4174 1805" stroke="currentColor" stroke-width="13" />
                  <g id="c4w4szz" class="clef">
                     <use xlink:href="#E050-1sr85i3" x="1375" y="1625" height="720px" width="720px" />
                  </g>
                  <g id="k17e3rq0" class="keySig">
                     <g id="kb167tq" class="keyAccid">
                        <use xlink:href="#E262-1sr85i3" x="2020" y="1085" height="720px" width="720px" />
                     </g>
                  </g>
                  <g id="mbopyrq" class="meterSig">
                     <use xlink:href="#E082-1sr85i3" x="2327" y="1265" height="720px" width="720px" />
                     <use xlink:href="#E084-1sr85i3" x="2332" y="1625" height="720px" width="720px" />
                  </g>
                  <g id="leh14xn" class="layer">
                     <g id="bpgrqs6" class="beam">
                        <polygon points="3110,1220 4028,1040 4028,1130 3110,1310" />
                        <polygon points="3659,1247 4028,1175 4028,1265 3659,1337" />
                        <g id="n1ka1jww" class="note">
                           <g class="notehead">
                              <use xlink:href="#E0A4-1sr85i3" x="2902" y="1805" height="720px" width="720px" />
                           </g>
                           <g id="s1t3e4rd" class="stem">
                              <rect x="3110" y="1238" height="539" width="18" />
                           </g>
                        </g>
                        <g id="n1v4c8u2" class="note">
                           <g class="notehead">
                              <use xlink:href="#E0A4-1sr85i3" x="3442" y="1715" height="720px" width="720px" />
                           </g>
                           <g id="s1jewyag" class="stem">
                              <rect x="3650" y="1130" height="557" width="18" />
                           </g>
                           <g id="a1o872uh" class="accid" />
                        </g>
                        <g id="nyocqzh" class="note">
                           <g class="notehead">
                              <use xlink:href="#E0A4-1sr85i3" x="3802" y="1625" height="720px" width="720px" />
                           </g>
                           <g id="s1j4z3wi" class="stem">
                              <rect x="4010" y="1058" height="539" width="18" />
                           </g>
                        </g>
                     </g>
                  </g>
               </g>
               <g id="bg28xxt" class="barLine">
                  <path d="M4161 1085 L4161 1805" stroke="currentColor" stroke-width="27" />
               </g>
            </g>
            <g id="m1ij06rv" class="measure">
               <g id="s1e35joy" class="staff">
                  <path d="M4174 1085 L6529 1085" stroke="currentColor" stroke-width="13" />
                  <path d="M4174 1265 L6529 1265" stroke="currentColor" stroke-width="13" />
                  <path d="M4174 1445 L6529 1445" stroke="currentColor" stroke-width="13" />
                  <path d="M4174 1625 L6529 1625" stroke="currentColor" stroke-width="13" />
                  <path d="M4174 1805 L6529 1805" stroke="currentColor" stroke-width="13" />
                  <g id="l11jy9l0" class="layer">
                     <g id="b1oegwzt" class="beam">
                        <polygon points="4564,905 5122,860 5122,950 4564,995" />
                        <g id="n14cfxqs" class="note">
                           <g class="notehead">
                              <use xlink:href="#E0A4-1sr85i3" x="4356" y="1535" height="720px" width="720px" />
                           </g>
                           <g id="s1eo5qmo" class="stem">
                              <rect x="4564" y="923" height="584" width="18" />
                           </g>
                        </g>
                        <g id="n1wwjdy" class="note">
                           <g class="notehead">
                              <use xlink:href="#E0A4-1sr85i3" x="4896" y="1445" height="720px" width="720px" />
                           </g>
                           <g id="smxv0fi" class="stem">
                              <rect x="5104" y="878" height="539" width="18" />
                           </g>
                        </g>
                     </g>
                     <g id="bwgdir6" class="beam">
                        <polygon points="5644,905 6202,860 6202,950 5644,995" />
                        <g id="n1u02p0f" class="note">
                           <g class="notehead">
                              <use xlink:href="#E0A4-1sr85i3" x="5436" y="1625" height="720px" width="720px" />
                           </g>
                           <g id="s1xqbr3y" class="stem">
                              <rect x="5644" y="923" height="674" width="18" />
                           </g>
                        </g>
                        <g id="n15wgo2f" class="note">
                           <g class="notehead">
                              <use xlink:href="#E0A4-1sr85i3" x="5976" y="1535" height="720px" width="720px" />
                           </g>
                           <g id="s1mg00y9" class="stem">
                              <rect x="6184" y="878" height="629" width="18" />
                           </g>
                        </g>
                     </g>
                  </g>
               </g>
               <g id="b189istv" class="barLine">
                  <path d="M6516 1085 L6516 1805" stroke="currentColor" stroke-width="27" />
               </g>
            </g>
            <g id="mksr5c6" class="measure">
               <g id="srjhy94" class="staff">
                  <path d="M6529 1085 L8811 1085" stroke="currentColor" stroke-width="13" />
                  <path d="M6529 1265 L8811 1265" stroke="currentColor" stroke-width="13" />
                  <path d="M6529 1445 L8811 1445" stroke="currentColor" stroke-width="13" />
                  <path d="M6529 1625 L8811 1625" stroke="currentColor" stroke-width="13" />
                  <path d="M6529 1805 L8811 1805" stroke="currentColor" stroke-width="13" />
                  <g id="l1om5k5k" class="layer">
                     <g id="n1tktjw4" class="note">
                        <g class="notehead">
                           <use xlink:href="#E0A4-1sr85i3" x="6711" y="1625" height="720px" width="720px" />
                        </g>
                        <g id="sjo87h2" class="stem">
                           <rect x="6919" y="995" height="602" width="18" />
                        </g>
                     </g>
                     <g id="b8cl167" class="beam">
                        <polygon points="7747,1220 8665,1040 8665,1130 7747,1310" />
                        <polygon points="8296,1247 8665,1175 8665,1265 8296,1337" />
                        <g id="n1te86l7" class="note">
                           <g class="notehead">
                              <use xlink:href="#E0A4-1sr85i3" x="7539" y="1805" height="720px" width="720px" />
                           </g>
                           <g id="svmmgrl" class="stem">
                              <rect x="7747" y="1238" height="539" width="18" />
                           </g>
                        </g>
                        <g id="n1sq7k86" class="note">
                           <g class="notehead">
                              <use xlink:href="#E0A4-1sr85i3" x="8079" y="1715" height="720px" width="720px" />
                           </g>
                           <g id="s8w0eqw" class="stem">
                              <rect x="8287" y="1130" height="557" width="18" />
                           </g>
                           <g id="amm33ts" class="accid" />
                        </g>
                        <g id="nxswoj9" class="note">
                           <g class="notehead">
                              <use xlink:href="#E0A4-1sr85i3" x="8439" y="1625" height="720px" width="720px" />
                           </g>
                           <g id="s1sszmar" class="stem">
                              <rect x="8647" y="1058" height="539" width="18" />
                           </g>
                        </g>
                     </g>
                  </g>
               </g>
               <g id="b1c89zg6" class="barLine">
                  <path d="M8798 1085 L8798 1805" stroke="currentColor" stroke-width="27" />
               </g>
            </g>
            <g id="m1pzi0fc" class="measure">
               <g id="si6sdhk" class="staff">
                  <path d="M8811 1085 L11166 1085" stroke="currentColor" stroke-width="13" />
                  <path d="M8811 1265 L11166 1265" stroke="currentColor" stroke-width="13" />
                  <path d="M8811 1445 L11166 1445" stroke="currentColor" stroke-width="13" />
                  <path d="M8811 1625 L11166 1625" stroke="currentColor" stroke-width="13" />
                  <path d="M8811 1805 L11166 1805" stroke="currentColor" stroke-width="13" />
                  <g id="ls8145a" class="layer">
                     <g id="brp74kc" class="beam">
                        <polygon points="9201,905 9759,860 9759,950 9201,995" />
                        <g id="n1koytf0" class="note">
                           <g class="notehead">
                              <use xlink:href="#E0A4-1sr85i3" x="8993" y="1535" height="720px" width="720px" />
                           </g>
                           <g id="swshhj5" class="stem">
                              <rect x="9201" y="923" height="584" width="18" />
                           </g>
                        </g>
                        <g id="nznxrrc" class="note">
                           <g class="notehead">
                              <use xlink:href="#E0A4-1sr85i3" x="9533" y="1445" height="720px" width="720px" />
                           </g>
                           <g id="s10nfcdm" class="stem">
                              <rect x="9741" y="878" height="539" width="18" />
                           </g>
                        </g>
                     </g>
                     <g id="bsqz5uk" class="beam">
                        <polygon points="10281,905 10839,860 10839,950 10281,995" />
                        <g id="n1nun5al" class="note">
                           <g class="notehead">
                              <use xlink:href="#E0A4-1sr85i3" x="10073" y="1625" height="720px" width="720px" />
                           </g>
                           <g id="so1zux4" class="stem">
                              <rect x="10281" y="923" height="674" width="18" />
                           </g>
                        </g>
                        <g id="n1ix8reh" class="note">
                           <g class="notehead">
                              <use xlink:href="#E0A4-1sr85i3" x="10613" y="1535" height="720px" width="720px" />
                           </g>
                           <g id="s15jwp6f" class="stem">
                              <rect x="10821" y="878" height="629" width="18" />
                           </g>
                        </g>
                     </g>
                  </g>
               </g>
               <g id="b840j68" class="barLine">
                  <path d="M11153 1085 L11153 1805" stroke="currentColor" stroke-width="27" />
               </g>
            </g>
            <g id="m16ymhrs" class="measure">
               <g id="s1jthdzl" class="staff">
                  <path d="M11166 1085 L13012 1085" stroke="currentColor" stroke-width="13" />
                  <path d="M11166 1265 L13012 1265" stroke="currentColor" stroke-width="13" />
                  <path d="M11166 1445 L13012 1445" stroke="currentColor" stroke-width="13" />
                  <path d="M11166 1625 L13012 1625" stroke="currentColor" stroke-width="13" />
                  <path d="M11166 1805 L13012 1805" stroke="currentColor" stroke-width="13" />
                  <g id="m1x7n2m5" class="meterSig">
                     <use xlink:href="#E081-1sr85i3" x="11275" y="1265" height="720px" width="720px" />
                     <use xlink:href="#E084-1sr85i3" x="11242" y="1625" height="720px" width="720px" />
                  </g>
                  <g id="l1ajy4ob" class="layer">
                     <g id="n4bv2xa" class="note">
                        <g class="notehead">
                           <use xlink:href="#E0A4-1sr85i3" x="11806" y="1625" height="720px" width="720px" />
                        </g>
                        <g id="s7un1dc" class="stem">
                           <rect x="12014" y="995" height="602" width="18" />
                        </g>
                     </g>
                  </g>
               </g>
               <g id="b4suq10" class="barLine">
                  <path d="M12634 1085 L12634 1805" stroke="currentColor" stroke-width="27" />
                  <path d="M12764 1085 L12764 1805" stroke="currentColor" stroke-width="90" />
                  <path d="M12895 1085 L12895 1805" stroke="currentColor" stroke-width="27" />
                  <use xlink:href="#E044-1sr85i3" x="12940" y="1355" height="720px" width="720px" />
                  <use xlink:href="#E044-1sr85i3" x="12940" y="1535" height="720px" width="720px" />
                  <use xlink:href="#E044-1sr85i3" x="12517" y="1355" height="720px" width="720px" />
                  <use xlink:href="#E044-1sr85i3" x="12517" y="1535" height="720px" width="720px" />
               </g>
            </g>
            <g id="m1hgl5nx" class="measure">
               <g id="se7pmnh" class="staff">
                  <path d="M13012 1085 L14466 1085" stroke="currentColor" stroke-width="13" />
                  <path d="M13012 1265 L14466 1265" stroke="currentColor" stroke-width="13" />
                  <path d="M13012 1445 L14466 1445" stroke="currentColor" stroke-width="13" />
                  <path d="M13012 1625 L14466 1625" stroke="currentColor" stroke-width="13" />
                  <path d="M13012 1805 L14466 1805" stroke="currentColor" stroke-width="13" />
                  <g id="lijvhqi" class="layer">
                     <g id="b12ooul0" class="beam">
                        <polygon points="13402,1220 14320,1040 14320,1130 13402,1310" />
                        <polygon points="13951,1247 14320,1175 14320,1265 13951,1337" />
                        <g id="n75ww3t" class="note">
                           <g class="notehead">
                              <use xlink:href="#E0A4-1sr85i3" x="13194" y="1805" height="720px" width="720px" />
                           </g>
                           <g id="s15twlng" class="stem">
                              <rect x="13402" y="1238" height="539" width="18" />
                           </g>
                        </g>
                        <g id="n1qy7m3g" class="note">
                           <g class="notehead">
                              <use xlink:href="#E0A4-1sr85i3" x="13734" y="1715" height="720px" width="720px" />
                           </g>
                           <g id="s1rr9ept" class="stem">
                              <rect x="13942" y="1130" height="557" width="18" />
                           </g>
                           <g id="a1hlqpxj" class="accid" />
                        </g>
                        <g id="n11ihji2" class="note">
                           <g class="notehead">
                              <use xlink:href="#E0A4-1sr85i3" x="14094" y="1625" height="720px" width="720px" />
                           </g>
                           <g id="s4n9m2y" class="stem">
                              <rect x="14302" y="1058" height="539" width="18" />
                           </g>
                        </g>
                     </g>
                  </g>
               </g>
               <g id="b13ykhy2" class="barLine">
                  <path d="M14453 1085 L14453 1805" stroke="currentColor" stroke-width="27" />
               </g>
            </g>
            <g id="mz30a07" class="measure">
               <g id="s1menwfy" class="staff">
                  <path d="M14466 1085 L17290 1085" stroke="currentColor" stroke-width="13" />
                  <path d="M14466 1265 L17290 1265" stroke="currentColor" stroke-width="13" />
                  <path d="M14466 1445 L17290 1445" stroke="currentColor" stroke-width="13" />
                  <path d="M14466 1625 L17290 1625" stroke="currentColor" stroke-width="13" />
                  <path d="M14466 1805 L17290 1805" stroke="currentColor" stroke-width="13" />
                  <g id="mxmfjrw" class="meterSig">
                     <use xlink:href="#E082-1sr85i3" x="14542" y="1265" height="720px" width="720px" />
                     <use xlink:href="#E084-1sr85i3" x="14547" y="1625" height="720px" width="720px" />
                  </g>
                  <g id="l1iff72t" class="layer">
                     <g id="b1lnlt4k" class="beam">
                        <polygon points="15325,905 15883,860 15883,950 15325,995" />
                        <g id="njq92e7" class="note">
                           <g class="notehead">
                              <use xlink:href="#E0A4-1sr85i3" x="15117" y="1625" height="720px" width="720px" />
                           </g>
                           <g id="s132sdch" class="stem">
                              <rect x="15325" y="923" height="674" width="18" />
                           </g>
                        </g>
                        <g id="n1ts8jnk" class="note">
                           <g class="notehead">
                              <use xlink:href="#E0A4-1sr85i3" x="15657" y="1535" height="720px" width="720px" />
                           </g>
                           <g id="s18bruxl" class="stem">
                              <rect x="15865" y="878" height="629" width="18" />
                           </g>
                        </g>
                     </g>
                     <g id="b19p7s7p" class="beam">
                        <polygon points="16405,950 16963,995 16963,1085 16405,1040" />
                        <g id="n5rr9f0" class="note">
                           <g class="notehead">
                              <use xlink:href="#E0A4-1sr85i3" x="16197" y="1625" height="720px" width="720px" />
                           </g>
                           <g id="s1u4tbfw" class="stem">
                              <rect x="16405" y="968" height="629" width="18" />
                           </g>
                        </g>
                        <g id="n1tpdz8" class="note">
                           <g class="notehead">
                              <use xlink:href="#E0A4-1sr85i3" x="16737" y="1715" height="720px" width="720px" />
                           </g>
                           <g id="s8gwe2y" class="stem">
                              <rect x="16945" y="1013" height="674" width="18" />
                           </g>
                           <g id="a2d9eku" class="accid" />
                        </g>
                     </g>
                  </g>
               </g>
               <g id="b1tmdimv" class="barLine">
                  <path d="M17277 1085 L17277 1805" stroke="currentColor" stroke-width="27" />
               </g>
            </g>
            <g id="mkzn53c" class="measure">
               <g id="s17nkqgn" class="staff">
                  <path d="M17290 1085 L20004 1085" stroke="currentColor" stroke-width="13" />
                  <path d="M17290 1265 L20004 1265" stroke="currentColor" stroke-width="13" />
                  <path d="M17290 1445 L20004 1445" stroke="currentColor" stroke-width="13" />
                  <path d="M17290 1625 L20004 1625" stroke="currentColor" stroke-width="13" />
                  <path d="M17290 1805 L20004 1805" stroke="currentColor" stroke-width="13" />
                  <g id="l1odxrr3" class="layer">
                     <g id="b1yb7m51" class="beam">
                        <polygon points="17680,1175 18238,1220 18238,1310 17680,1265" />
                        <g id="ns9p2gg" class="note">
                           <g class="notehead">
                              <use xlink:href="#E0A4-1sr85i3" x="17472" y="1805" height="720px" width="720px" />
                           </g>
                           <g id="st5no13" class="stem">
                              <rect x="17680" y="1193" height="584" width="18" />
                           </g>
                        </g>
                        <g id="n3m4u86" class="note">
                           <g class="notehead">
                              <use xlink:href="#E0A4-1sr85i3" x="18012" y="1895" height="720px" width="720px" />
                           </g>
                           <g id="s1na38ry" class="stem">
                              <rect x="18220" y="1238" height="629" width="18" />
                           </g>
                        </g>
                     </g>
                     <g id="bvi0aa0" class="beam">
                        <polygon points="18760,905 19857,905 19857,995 18760,995" />
                        <polygon points="18760,1040 19129,1040 19129,1130 18760,1130" />
                        <polygon points="19129,1040 19488,1040 19488,1130 19129,1130" />
                        <polygon points="19488,1040 19857,1040 19857,1130 19488,1130" />
                        <g id="nu0etho" class="note">
                           <g class="notehead">
                              <use xlink:href="#E0A4-1sr85i3" x="18552" y="1625" height="720px" width="720px" />
                           </g>
                           <g id="s1xgomwi" class="stem">
                              <rect x="18760" y="923" height="674" width="18" />
                           </g>
                        </g>
                        <g id="n1dfdc1i" class="note">
                           <g class="notehead">
                              <use xlink:href="#E0A4-1sr85i3" x="18912" y="1535" height="720px" width="720px" />
                           </g>
                           <g id="s1dswz67" class="stem">
                              <rect x="19120" y="923" height="584" width="18" />
                           </g>
                        </g>
                        <g id="nf02iqk" class="note">
                           <g class="notehead">
                              <use xlink:href="#E0A4-1sr85i3" x="19271" y="1625" height="720px" width="720px" />
                           </g>
                           <g id="s1sby6yi" class="stem">
                              <rect x="19479" y="923" height="674" width="18" />
                           </g>
                        </g>
                        <g id="nvk54hj" class="note">
                           <g class="notehead">
                              <use xlink:href="#E0A4-1sr85i3" x="19631" y="1715" height="720px" width="720px" />
                           </g>
                           <g id="sagvr6g" class="stem">
                              <rect x="19839" y="923" height="764" width="18" />
                           </g>
                           <g id="a1guicl" class="accid" />
                        </g>
                     </g>
                  </g>
               </g>
               <g id="b1glmq5r" class="barLine">
                  <path d="M19991 1085 L19991 1805" stroke="currentColor" stroke-width="27" />
               </g>
            </g>
            <g id="s1gh4f16" class="sb" />
         </g>
         <g id="s1kprm3c" class="system">
            <g id="l1s1pj4x" class="labelAbbr">
               <text x="914" y="3884" text-anchor="end" font-size="0px">
                  <tspan id="t1pb6lf2" class="text">
                     <tspan font-size="405px" class="text">Pno.</tspan>
                  </tspan>
               </text>
            </g>
            <g id="m1k20npm" class="measure">
               <g id="msfqhzw" class="mNum autogenerated">
                  <text x="1094" y="3191" text-anchor="middle" font-size="0px">
                     <tspan id="t1b0nilh" class="text">
                        <tspan font-size="324px" class="text">8</tspan>
                     </tspan>
                  </text>
               </g>
               <g id="skwt7d0" class="staff">
                  <path d="M1094 3434 L4753 3434" stroke="currentColor" stroke-width="13" />
                  <path d="M1094 3614 L4753 3614" stroke="currentColor" stroke-width="13" />
                  <path d="M1094 3794 L4753 3794" stroke="currentColor" stroke-width="13" />
                  <path d="M1094 3974 L4753 3974" stroke="currentColor" stroke-width="13" />
                  <path d="M1094 4154 L4753 4154" stroke="currentColor" stroke-width="13" />
                  <g id="csa2mn0" class="clef">
                     <use xlink:href="#E050-1sr85i3" x="1184" y="3974" height="720px" width="720px" />
                  </g>
                  <g id="kkb433h" class="keySig">
                     <g id="k1vktguw" class="keyAccid">
                        <use xlink:href="#E262-1sr85i3" x="1829" y="3434" height="720px" width="720px" />
                     </g>
                  </g>
                  <g id="levbwba" class="layer">
                     <g id="brogbie" class="beam">
                        <polygon points="2448,3524 3002,3569 3002,3659 2448,3614" />
                        <g id="n1t2v6xj" class="note">
                           <g class="notehead">
                              <use xlink:href="#E0A4-1sr85i3" x="2240" y="4154" height="720px" width="720px" />
                           </g>
                           <g id="s1rqb87p" class="stem">
                              <rect x="2448" y="3542" height="584" width="18" />
                           </g>
                        </g>
                        <g id="ngajh0r" class="note">
                           <g class="notehead">
                              <use xlink:href="#E0A4-1sr85i3" x="2776" y="4244" height="720px" width="720px" />
                           </g>
                           <g id="sq3jko" class="stem">
                              <rect x="2984" y="3587" height="629" width="18" />
                           </g>
                        </g>
                     </g>
                     <g id="bmu0p8k" class="beam">
                        <polygon points="3520,3254 4609,3254 4609,3344 3520,3344" />
                        <polygon points="3520,3389 3886,3389 3886,3479 3520,3479" />
                        <polygon points="3886,3389 4243,3389 4243,3479 3886,3479" />
                        <polygon points="4243,3389 4609,3389 4609,3479 4243,3479" />
                        <g id="ni9k815" class="note">
                           <g class="notehead">
                              <use xlink:href="#E0A4-1sr85i3" x="3312" y="3974" height="720px" width="720px" />
                           </g>
                           <g id="syqkwmd" class="stem">
                              <rect x="3520" y="3272" height="674" width="18" />
                           </g>
                        </g>
                        <g id="n1qtfvud" class="note">
                           <g class="notehead">
                              <use xlink:href="#E0A4-1sr85i3" x="3669" y="3884" height="720px" width="720px" />
                           </g>
                           <g id="sk8v4jn" class="stem">
                              <rect x="3877" y="3272" height="584" width="18" />
                           </g>
                        </g>
                        <g id="nip2kxu" class="note">
                           <g class="notehead">
                              <use xlink:href="#E0A4-1sr85i3" x="4026" y="3974" height="720px" width="720px" />
                           </g>
                           <g id="st0y5eg" class="stem">
                              <rect x="4234" y="3272" height="674" width="18" />
                           </g>
                        </g>
                        <g id="nn4eo1g" class="note">
                           <g class="notehead">
                              <use xlink:href="#E0A4-1sr85i3" x="4383" y="4064" height="720px" width="720px" />
                           </g>
                           <g id="sqpxowy" class="stem">
                              <rect x="4591" y="3272" height="764" width="18" />
                           </g>
                           <g id="ac4nw2j" class="accid" />
                        </g>
                     </g>
                  </g>
               </g>
               <g id="bd235rg" class="barLine">
                  <path d="M4740 3434 L4740 4154" stroke="currentColor" stroke-width="27" />
               </g>
            </g>
            <g id="m15y9js9" class="measure">
               <g id="s11g7n1i" class="staff">
                  <path d="M4753 3434 L7446 3434" stroke="currentColor" stroke-width="13" />
                  <path d="M4753 3614 L7446 3614" stroke="currentColor" stroke-width="13" />
                  <path d="M4753 3794 L7446 3794" stroke="currentColor" stroke-width="13" />
                  <path d="M4753 3974 L7446 3974" stroke="currentColor" stroke-width="13" />
                  <path d="M4753 4154 L7446 4154" stroke="currentColor" stroke-width="13" />
                  <g id="l1bfqn70" class="layer">
                     <g id="b1pu2i49" class="beam">
                        <polygon points="5141,3524 5695,3569 5695,3659 5141,3614" />
                        <g id="nhibahu" class="note">
                           <g class="notehead">
                              <use xlink:href="#E0A4-1sr85i3" x="4933" y="4154" height="720px" width="720px" />
                           </g>
                           <g id="s7cd3au" class="stem">
                              <rect x="5141" y="3542" height="584" width="18" />
                           </g>
                        </g>
                        <g id="n1x9t42m" class="note">
                           <g class="notehead">
                              <use xlink:href="#E0A4-1sr85i3" x="5469" y="4244" height="720px" width="720px" />
                           </g>
                           <g id="sd14m06" class="stem">
                              <rect x="5677" y="3587" height="629" width="18" />
                           </g>
                        </g>
                     </g>
                     <g id="bzbfp8t" class="beam">
                        <polygon points="6213,3209 7302,3254 7302,3344 6213,3299" />
                        <polygon points="6213,3344 6579,3359 6579,3449 6213,3434" />
                        <polygon points="6579,3359 6936,3374 6936,3464 6579,3449" />
                        <polygon points="6936,3374 7302,3389 7302,3479 6936,3464" />
                        <g id="n1dq373y" class="note">
                           <g class="notehead">
                              <use xlink:href="#E0A4-1sr85i3" x="6005" y="3884" height="720px" width="720px" />
                           </g>
                           <g id="svxcnqh" class="stem">
                              <rect x="6213" y="3227" height="629" width="18" />
                           </g>
                        </g>
                        <g id="n16jyww4" class="note">
                           <g class="notehead">
                              <use xlink:href="#E0A4-1sr85i3" x="6362" y="3974" height="720px" width="720px" />
                           </g>
                           <g id="s1l2g5zi" class="stem">
                              <rect x="6570" y="3242" height="704" width="18" />
                           </g>
                        </g>
                        <g id="n758mf7" class="note">
                           <g class="notehead">
                              <use xlink:href="#E0A4-1sr85i3" x="6719" y="4064" height="720px" width="720px" />
                           </g>
                           <g id="s1d90lph" class="stem">
                              <rect x="6927" y="3257" height="779" width="18" />
                           </g>
                           <g id="a1bz5t9e" class="accid" />
                        </g>
                        <g id="nyqwfmv" class="note">
                           <g class="notehead">
                              <use xlink:href="#E0A4-1sr85i3" x="7076" y="3974" height="720px" width="720px" />
                           </g>
                           <g id="sk2h2r0" class="stem">
                              <rect x="7284" y="3272" height="674" width="18" />
                           </g>
                        </g>
                     </g>
                  </g>
               </g>
               <g id="bbize13" class="barLine">
                  <path d="M7433 3434 L7433 4154" stroke="currentColor" stroke-width="27" />
               </g>
            </g>
            <g id="mcjsyxt" class="measure">
               <g id="s12pgvr0" class="staff">
                  <path d="M7446 3434 L9783 3434" stroke="currentColor" stroke-width="13" />
                  <path d="M7446 3614 L9783 3614" stroke="currentColor" stroke-width="13" />
                  <path d="M7446 3794 L9783 3794" stroke="currentColor" stroke-width="13" />
                  <path d="M7446 3974 L9783 3974" stroke="currentColor" stroke-width="13" />
                  <path d="M7446 4154 L9783 4154" stroke="currentColor" stroke-width="13" />
                  <g id="l15f96yb" class="layer">
                     <g id="bpepub6" class="beam">
                        <polygon points="7834,3254 8388,3209 8388,3299 7834,3344" />
                        <g id="n1o9stnd" class="note">
                           <g class="notehead">
                              <use xlink:href="#E0A4-1sr85i3" x="7626" y="3884" height="720px" width="720px" />
                           </g>
                           <g id="s19xhhjz" class="stem">
                              <rect x="7834" y="3272" height="584" width="18" />
                           </g>
                        </g>
                        <g id="n1ff19td" class="note">
                           <g class="notehead">
                              <use xlink:href="#E0A4-1sr85i3" x="8162" y="3794" height="720px" width="720px" />
                           </g>
                           <g id="sp369lv" class="stem">
                              <rect x="8370" y="3227" height="539" width="18" />
                           </g>
                        </g>
                     </g>
                     <g id="b1uuoeyj" class="beam">
                        <polygon points="8906,3299 9460,3344 9460,3434 8906,3389" />
                        <g id="n1ulvzmz" class="note">
                           <g class="notehead">
                              <use xlink:href="#E0A4-1sr85i3" x="8698" y="3974" height="720px" width="720px" />
                           </g>
                           <g id="s1011rym" class="stem">
                              <rect x="8906" y="3317" height="629" width="18" />
                           </g>
                        </g>
                        <g id="nitsnt9" class="note">
                           <g class="notehead">
                              <use xlink:href="#E0A4-1sr85i3" x="9234" y="4064" height="720px" width="720px" />
                           </g>
                           <g id="s1v19vv5" class="stem">
                              <rect x="9442" y="3362" height="674" width="18" />
                           </g>
                           <g id="aex36qc" class="accid" />
                        </g>
                     </g>
                  </g>
               </g>
               <g id="b1mhpmvp" class="barLine">
                  <path d="M9770 3434 L9770 4154" stroke="currentColor" stroke-width="27" />
               </g>
            </g>
            <g id="mcwd4e0" class="measure">
               <g id="s1unhjn9" class="staff">
                  <path d="M9783 3434 L11418 3434" stroke="currentColor" stroke-width="13" />
                  <path d="M9783 3614 L11418 3614" stroke="currentColor" stroke-width="13" />
                  <path d="M9783 3794 L11418 3794" stroke="currentColor" stroke-width="13" />
                  <path d="M9783 3974 L11418 3974" stroke="currentColor" stroke-width="13" />
                  <path d="M9783 4154 L11418 4154" stroke="currentColor" stroke-width="13" />
                  <g id="mgoibmm" class="meterSig">
                     <use xlink:href="#E081-1sr85i3" x="9892" y="3614" height="720px" width="720px" />
                     <use xlink:href="#E084-1sr85i3" x="9859" y="3974" height="720px" width="720px" />
                  </g>
                  <g id="l1auxfhk" class="layer">
                     <g id="njrrfr3" class="note">
                        <g class="notehead">
                           <use xlink:href="#E0A4-1sr85i3" x="10421" y="3974" height="720px" width="720px" />
                        </g>
                        <g id="s122t1yv" class="stem">
                           <rect x="10629" y="3344" height="602" width="18" />
                        </g>
                     </g>
                  </g>
               </g>
               <g id="batdcf9" class="barLine">
                  <path d="M11243 3434 L11243 4154" stroke="currentColor" stroke-width="27" />
                  <path d="M11373 3434 L11373 4154" stroke="currentColor" stroke-width="90" />
               </g>
            </g>
            <g id="sw9vs29" class="systemMilestoneEnd s19jnoqe" />
         </g>
         <g id="p1ccv381" class="pageMilestoneEnd ssetlpa" />
         <g id="pqvq5zl" class="pageMilestoneEnd m1czjohs" />
         <g id="p15s0y0w" class="pgHead">
            <text x="0" y="0" font-size="0px">
               <tspan id="r1j6eooe" class="rend" x="10000" y="277" text-anchor="middle">
                  <tspan id="t1o7dbhg" class="text">
                     <tspan font-size="405px" class="text">Air n 100</tspan>
                  </tspan>
               </tspan>
            </text>
         </g>
         <g id="p1ha3xqn" class="pgFoot autogenerated">
            <g id="fijjtem" class="fig">
               <g id="sxu11ts" class="svg" transform="translate(7750, 28099) scale(10, 10)">
                  <g>
                     <path fill="#00000" d="M 17.11278,49.26451 V 10.367554 h 12.696511 c 3.288815,7.336676 6.71267,14.610456 10.127281,21.888976 3.419998,-7.484684 6.255515,-14.204887 9.58887,-21.909915 2.436207,0.103726 4.316952,0.08453 6.484294,-0.05808 V 49.264423 H 50.274275 C 50.145222,38.35639 50.016136,27.448368 49.887066,16.540329 45.003488,27.315459 39.967448,38.433564 35.083854,49.208695 34.678996,49.343717 34.426583,49.135619 34.021726,49.270644 29.46588,39.330716 24.910049,29.390805 20.354201,19.450876 20.224341,29.388756 20.09461,39.326619 19.964815,49.264497 H 17.11278 Z M 36.754144,39.324695 C 32.721221,30.512695 28.6883,21.700679 24.655394,12.888662 22.530527,12.750737 22.656775,12.71031 20.714356,12.813974 v 0.966497 c 4.612938,9.99784 9.609439,20.748709 13.87298,30.081745 0.722248,-1.512523 1.444528,-3.025014 2.166808,-4.537521 z m 25.738417,9.939815 c 0,-12.965651 0,-25.931305 0,-38.896956 10.084388,0 20.168791,0 30.253178,0 0,0.960416 0,1.920849 0,2.881265 -6.482825,0 -12.965652,0 -19.448478,0 0,4.802097 0,9.604178 0,14.406277 5.52241,0 11.044819,0 16.567229,0 0,0.960415 0,1.920832 0,2.881248 -5.52241,0 -11.044819,0 -16.567229,0 0,5.282306 0,10.564611 0,15.846917 6.963035,0 13.926068,0 20.889103,0 0,0.960416 0,1.920832 0,2.881249 -10.564597,0 -21.129207,0 -31.693803,0 z m 4.321874,-2.160937 c 0,-11.765131 0,-23.530263 0,-35.295394 -0.720312,0 -1.440625,0 -2.160937,0 0,11.765131 0,23.530263 0,35.295394 0.720312,0 1.440625,0 2.160937,0 z m 32.41413,2.160937 c 0,-12.965651 0,-25.931305 0,-38.896956 2.401045,0 4.802095,0 7.203135,0 0,12.965651 0,25.931305 0,38.896956 -2.40104,0 -4.80209,0 -7.203135,0 z m 2.881265,-2.160937 c 0,-11.765131 0,-23.530263 0,-35.295394 -0.72031,0 -1.44064,0 -2.160953,0 0,11.765131 0,23.530263 0,35.295394 0.720313,0 1.440643,0 2.160953,0 z" />
                     <path fill="#00000" d="m 346.3,6.7 c -3.1,0.5 -4.9,4.4 -2.7,6.8 1.2,1.4 2.7,2.4 4.1,3.5 -2.4,5.3 -7.7,8.3 -11.9,12.1 -3.7,2.8 -7,6.2 -9.7,9.9 -2.2,-0.8 -0.3,-6.8 -0.6,-9.5 0.1,-3.1 0.7,-6.4 2.9,-8.7 1.3,-1.9 3,-3.5 4.5,-5.2 1.2,-3.4 -3.2,-4.9 -5.8,-4.6 -7.3,-0.5 -14.6,2 -20,6.8 -5,4.6 -10,10.1 -11.5,17 -0.9,3.5 -0.2,7.5 2.8,9.9 2.5,2.8 7.4,2.9 9.8,-0.2 1.7,-2.3 3.2,-4.8 3.8,-7.6 -0.1,-2.6 -4.4,-2.3 -4.3,0.2 1.2,2.4 -0.9,4.7 -2.7,6.2 -1.7,0.9 -4.7,0.7 -4.8,-1.7 -1,-5.8 2.1,-11.3 5.2,-16.1 4,-5.8 9.8,-11.2 17.2,-11.8 1.6,0 8.1,-1.2 6.8,1.4 -2.8,2.8 -5.6,6.1 -6,10.3 -1.6,7.7 0.1,15.7 -2.3,23.2 -1.1,3.9 2,2.6 2.5,0.2 3.3,-7.4 8.9,-13.4 15.1,-18.5 4.2,-3.9 9.5,-7.1 11.9,-12.6 1.3,-3.6 1.2,-9 -2.7,-10.9 -0.6,-0.2 -1.2,-0.3 -1.8,-0.3 z m 66,14.5 c -2,0.8 -1.8,4.9 0.8,4.4 3.4,0.4 2.9,-6.2 -0.8,-4.4 z m 0.6,7.3 c -1.3,0.5 -7.6,0.5 -5.4,2.2 4,-0.3 0.7,4.5 0.6,6.7 -0.4,2.9 -2.4,5.9 -1.2,8.8 2.7,1.7 5.6,-0.8 6.8,-3.2 1.6,-1.4 -0.5,-3 -1.2,-0.9 -0.4,0.8 -2.4,3.5 -2.6,1.8 1.1,-5 2.7,-9.9 3.9,-14.9 l -0.1,-0.5 h -0.9 z m -65.1,0.2 c -6.5,1.6 -10.5,9.5 -8.2,15.7 2.1,3.4 7.4,2.9 10.1,0.4 2,-0.2 3.6,-5.3 1,-3.4 -1.4,2 -4,4.2 -6.5,2.8 -2.2,-1.9 -1.9,-5.7 1.7,-5.3 3.1,-0.9 6.9,-2.1 8.1,-5.5 0.9,-2.7 -1.6,-5.2 -4.3,-4.8 h -1.1 -0.7 z m 13.6,0 c -2.2,0 -8.5,1.8 -2.9,2.3 0.9,1.9 -1,4.9 -1.1,7.2 -0.5,2.9 -1.4,5.7 -1.7,8.7 3.7,0.7 3.8,-2.6 4.4,-5.3 0.9,-3.3 1.6,-7 4.1,-9.5 2.4,1.6 6.8,-0.7 3.7,-3.4 -2.9,-0.5 -4.8,2.4 -6.2,4.3 0,-1.2 2.4,-5 -0.2,-4.3 z m 15.8,0 c -6.4,1.3 -9.6,9.1 -7.7,14.9 1.9,4 7.7,3.9 11,1.7 4.1,-3 6,-8.9 4.4,-13.7 -1.3,-3 -4.8,-3.2 -7.6,-3 z m 17,0 c -2.3,0 -8.8,1.9 -3,2.4 0.4,2.5 -1,5.7 -1.4,8.4 -0.7,2.4 -1.8,7.5 2.1,7.2 3.8,-0.1 6.5,-3.5 8.5,-6.3 2,-3.2 4.5,-7 3.3,-10.9 -3.7,-3 -3.6,2.6 -3.1,5.1 -0.7,3.8 -2.7,7.9 -6.2,9.8 -3.6,0.6 -1,-4.3 -0.8,-6.1 0.6,-3.2 1.6,-6.3 1.9,-9.5 -0.4,0 -0.8,0 -1.1,0 z m 30.6,0 c -6.3,1.2 -9.5,8.9 -7.8,14.7 1.5,4 7.2,4.2 10.5,2.4 4.6,-2.8 6.6,-9.3 4.8,-14.3 -1.4,-2.8 -4.8,-3 -7.5,-2.8 z m -75.4,1.7 c 2.1,1.5 0.2,4.7 -1.6,5.7 -1.1,0.4 -5.5,3.4 -4.6,0.7 0.8,-2.7 2.2,-6.2 5.3,-6.6 l 0.9,0.1 z m 30.8,0 c 2.6,1.5 1.3,5.2 0.8,7.6 -0.8,2.7 -1.9,5.9 -4.7,7.1 -5.1,0.8 -4,-5.8 -2.8,-8.8 1,-2.8 3,-6.8 6.7,-5.8 z m 47.1,-0.1 c 2.9,0.7 2,4.7 1.5,6.8 -0.7,3 -1.8,6.7 -5,8 -4.7,0.8 -4,-5.1 -3,-7.9 0.9,-3 2.7,-7.3 6.5,-6.8 z m -88.1,5.9 c -0.3,1.3 0.9,-0.6 0,0 z m -1.1,2.4 c -0.2,0.5 0.5,-0.1 0,0 z m -1.3,4.5 c -0.3,1.3 0.8,-0.2 0,0 z" />
                     <text y="41" x="201" fill="#00000" style="font-style:italic;font-weight:normal;font-size:30px;line-height:125%;font-family:Times;text-anchor:middle" xml:space="preserve">engraved with</text>
                  </g>
               </g>
            </g>
         </g>
      </g>
   </svg>
</svg>
