<?xml version="1.0" encoding="UTF-8" standalone="no"?>
<svg width="2100px" height="2970px" version="1.1" xmlns="http://www.w3.org/2000/svg" xmlns:xlink="http://www.w3.org/1999/xlink" xmlns:mei="http://www.music-encoding.org/ns/mei" overflow="visible">
   <desc>Engraved by Verovio 3.13.1</desc>
   <defs>
      <symbol id="E240-1149dt1" viewBox="0 0 1000 1000" overflow="inherit">
         <path transform="scale(1,-1)" d="M179 -646c15 29 29 55 46 102c18 49 30 108 30 138c0 105 -80 173 -168 200c-18 5 -47 9 -87 16v190h22c8 0 33 -61 71 -95c4 -3 -2 3 61 -56c62 -58 122 -137 122 -241c0 -38 -13 -106 -35 -163c-20 -51 -43 -99 -66 -132c-6 -5 -10 -7 -13 -7s-5 2 -5 5l4 10 c1 3 14 25 18 33z" />
      </symbol>
      <symbol id="E260-1149dt1" viewBox="0 0 1000 1000" overflow="inherit">
         <path transform="scale(1,-1)" d="M20 110c32 16 54 27 93 27c26 0 35 -3 54 -13c13 -7 24 -20 27 -38l4 -25c0 -28 -16 -57 -45 -89c-23 -25 -39 -44 -65 -68l-88 -79v644h20v-359zM90 106c-32 0 -48 -10 -70 -29v-194c31 31 54 59 71 84c21 32 32 59 32 84c0 9 1 16 1 20c0 14 -3 21 -11 30l-8 3z" />
      </symbol>
      <symbol id="E044-1149dt1" viewBox="0 0 1000 1000" overflow="inherit">
         <path transform="scale(1,-1)" d="M0 0c0 28 22 50 50 50s50 -22 50 -50s-22 -50 -50 -50s-50 22 -50 50z" />
      </symbol>
      <symbol id="E050-1149dt1" viewBox="0 0 1000 1000" overflow="inherit">
         <path transform="scale(1,-1)" d="M441 -245c-23 -4 -48 -6 -76 -6c-59 0 -102 7 -130 20c-88 42 -150 93 -187 154c-26 44 -43 103 -48 176c0 6 -1 13 -1 19c0 54 15 111 45 170c29 57 65 106 110 148s96 85 153 127c-3 16 -8 46 -13 92c-4 43 -5 73 -5 89c0 117 16 172 69 257c34 54 64 82 89 82 c21 0 43 -30 69 -92s39 -115 41 -159v-15c0 -109 -21 -162 -67 -241c-13 -20 -63 -90 -98 -118c-13 -9 -25 -19 -37 -29l31 -181c8 1 18 2 28 2c58 0 102 -12 133 -35c59 -43 92 -104 98 -184c1 -7 1 -15 1 -22c0 -123 -87 -209 -181 -248c8 -57 17 -110 25 -162 c5 -31 6 -58 6 -80c0 -30 -5 -53 -14 -70c-35 -64 -88 -99 -158 -103c-5 0 -11 -1 -16 -1c-37 0 -72 10 -108 27c-50 24 -77 59 -80 105v11c0 29 7 55 20 76c18 28 45 42 79 44h6c49 0 93 -42 97 -87v-9c0 -51 -34 -86 -105 -106c17 -24 51 -36 102 -36c62 0 116 43 140 85 c9 16 13 41 13 74c0 20 -1 42 -5 67c-8 53 -18 106 -26 159zM461 939c-95 0 -135 -175 -135 -286c0 -24 2 -48 5 -71c50 39 92 82 127 128c40 53 60 100 60 140v8c-4 53 -22 81 -55 81h-2zM406 119l54 -326c73 25 110 78 110 161c0 7 0 15 -1 23c-7 95 -57 142 -151 142h-12 zM382 117c-72 -2 -128 -47 -128 -120v-7c2 -46 43 -99 75 -115c-3 -2 -7 -5 -10 -10c-70 33 -116 88 -123 172v11c0 68 44 126 88 159c23 17 49 29 78 36l-29 170c-21 -13 -52 -37 -92 -73c-50 -44 -86 -84 -109 -119c-45 -69 -67 -130 -67 -182v-13c5 -68 35 -127 93 -176 s125 -73 203 -73c25 0 50 3 75 9c-19 111 -36 221 -54 331z" />
      </symbol>
      <symbol id="E081-1149dt1" viewBox="0 0 1000 1000" overflow="inherit">
         <path transform="scale(1,-1)" d="M68 -250v36c23 0 40 6 49 18c8 14 12 33 12 57v250l-82 -129l-27 13l107 255h128v-394c0 -24 5 -42 14 -53s25 -17 47 -17v-36h-248z" />
      </symbol>
      <symbol id="E082-1149dt1" viewBox="0 0 1000 1000" overflow="inherit">
         <path transform="scale(1,-1)" d="M124 -185c-18 0 -55 -14 -65 -65h-36l-3 30c0 25 6 45 18 63c11 19 22 30 39 43l121 82l37 29c15 11 27 29 38 54c12 24 18 47 18 70c0 40 -19 88 -94 88c-25 0 -32 0 -50 -8c-14 -5 -23 -12 -26 -22c3 -9 7 -15 10 -18l24 -17c12 -7 17 -11 27 -21c5 -7 7 -16 7 -27 c0 -12 0 -57 -79 -74c-30 0 -76 26 -76 94c0 66 81 135 197 135c72 0 181 -32 181 -150c0 -53 -32 -95 -113 -133l-91 -41c-26 -11 -45 -23 -57 -37l49 7c84 0 115 -41 148 -41c20 0 33 20 39 61h35c0 -152 -68 -168 -114 -168c-17 0 -65 0 -79 7h10l-28 17 c-49 37 -69 40 -87 42z" />
      </symbol>
      <symbol id="E083-1149dt1" viewBox="0 0 1000 1000" overflow="inherit">
         <path transform="scale(1,-1)" d="M208 250c97 0 177 -52 177 -116c0 -69 -40 -111 -118 -125c56 -5 125 -44 125 -116c0 -31 -10 -57 -31 -78c-19 -21 -45 -38 -78 -49l-50 -11c-15 -3 -36 -7 -55 -7c-50 0 -86 16 -113 38c-16 10 -23 18 -34 34c-7 13 -11 25 -11 38c0 43 27 83 68 83l3 -2 c61 0 75 -42 75 -70c0 -19 -24 -42 -26 -57c7 -17 20 -25 37 -25c44 0 94 29 94 78c0 75 -34 125 -138 125v36c84 0 131 22 131 98c0 54 -37 88 -87 88c-26 0 -43 -7 -51 -22c15 -22 44 -16 44 -70c0 -37 -37 -62 -71 -62c-22 0 -69 15 -69 76c0 79 101 116 178 116z" />
      </symbol>
      <symbol id="E084-1149dt1" viewBox="0 0 1000 1000" overflow="inherit">
         <path transform="scale(1,-1)" d="M20 -78c84 97 114 180 134 329h170c-13 -32 -82 -132 -99 -151l-84 -97c-33 -36 -59 -63 -80 -81h162v102l127 123v-225h57v-39h-57v-34c0 -43 19 -65 57 -65v-34h-244v36c48 0 60 26 60 70v27h-203v39z" />
      </symbol>
      <symbol id="E088-1149dt1" viewBox="0 0 1000 1000" overflow="inherit">
         <path transform="scale(1,-1)" d="M195 -214c76 0 88 58 90 68c0 34 -35 60 -57 73l-52 29c-21 10 -32 17 -34 20c-39 -33 -58 -54 -62 -92c5 -23 23 -98 115 -98zM301 135c0 61 -72 76 -113 76c-40 0 -77 -17 -77 -51c3 -21 15 -38 26 -50c17 -15 33 -26 48 -34l65 -28c34 27 51 56 51 87zM176 -250 c-57 0 -166 26 -166 132c0 47 30 86 89 116c-33 15 -79 60 -79 119c0 79 85 132 178 132h18c5 0 21 1 28 -1c25 0 126 -30 126 -110c0 -37 -23 -76 -69 -116c43 -25 83 -71 83 -119c0 -101 -118 -153 -208 -153z" />
      </symbol>
      <symbol id="E0A4-1149dt1" viewBox="0 0 1000 1000" overflow="inherit">
         <path transform="scale(1,-1)" d="M0 -39c0 68 73 172 200 172c66 0 114 -37 114 -95c0 -84 -106 -171 -218 -171c-64 0 -96 30 -96 94z" />
      </symbol>
   </defs>
   <style type="text/css">g.page-margin{font-family:Times;} g.ending, g.fing, g.reh, g.tempo{font-weight:bold;} g.dir, g.dynam, g.mNum{font-style:italic;} g.label{font-weight:normal;}</style>
   <svg class="definition-scale" color="black" viewBox="0 0 21000 29700">
      <g class="page-margin" transform="translate(500, 500)">
         <g id="mlj4vn4" class="mdiv pageMilestone" />
         <g id="skx9kmg" class="score pageMilestone" />
         <g id="sp2fu73" class="system">
            <g id="l1usbnsu" class="label">
               <text x="1105" y="1537" text-anchor="end" font-size="0px">
                  <tspan id="t8qntg5" class="text">
                     <tspan font-size="405px" class="text">Piano</tspan>
                  </tspan>
               </text>
            </g>
            <g id="s1o84c93" class="section systemMilestone" />
            <g id="pj69320" class="pb" />
            <g id="mko5u59" class="measure">
               <g id="mmytv12" class="mNum">
                  <text x="1285" y="844" text-anchor="middle" font-size="0px" />
               </g>
               <g id="s1vyxkqq" class="staff">
                  <path d="M1285 1087 L3664 1087" stroke="currentColor" stroke-width="13" />
                  <path d="M1285 1267 L3664 1267" stroke="currentColor" stroke-width="13" />
                  <path d="M1285 1447 L3664 1447" stroke="currentColor" stroke-width="13" />
                  <path d="M1285 1627 L3664 1627" stroke="currentColor" stroke-width="13" />
                  <path d="M1285 1807 L3664 1807" stroke="currentColor" stroke-width="13" />
                  <g id="cgqhw2v" class="clef">
                     <use xlink:href="#E050-1149dt1" x="1375" y="1627" height="720px" width="720px" />
                  </g>
                  <g id="kb3yl5y" class="keySig">
                     <g id="k1pqikkq" class="keyAccid">
                        <use xlink:href="#E260-1149dt1" x="2020" y="1447" height="720px" width="720px" />
                     </g>
                     <g id="k1ppd94o" class="keyAccid">
                        <use xlink:href="#E260-1149dt1" x="2200" y="1177" height="720px" width="720px" />
                     </g>
                  </g>
                  <g id="m11wroig" class="meterSig">
                     <use xlink:href="#E082-1149dt1" x="2508" y="1267" height="720px" width="720px" />
                     <use xlink:href="#E084-1149dt1" x="2513" y="1627" height="720px" width="720px" />
                  </g>
                  <g id="l17lrwky" class="layer">
                     <g id="nj6mvjp" class="note">
                        <g class="notehead">
                           <use xlink:href="#E0A4-1149dt1" x="3085" y="1627" height="720px" width="720px" />
                        </g>
                        <g id="s27z917" class="stem">
                           <rect x="3293" y="997" height="602" width="18" />
                           <g id="f11h08sh" class="flag">
                              <use xlink:href="#E240-1149dt1" x="3293" y="997" height="720px" width="720px" />
                           </g>
                        </g>
                     </g>
                  </g>
               </g>
               <g id="bw37au3" class="barLine">
                  <path d="M3651 1087 L3651 1807" stroke="currentColor" stroke-width="27" />
               </g>
            </g>
            <g id="mlbblbm" class="measure">
               <g id="s2w1zut" class="staff">
                  <path d="M3664 1087 L5861 1087" stroke="currentColor" stroke-width="13" />
                  <path d="M3664 1267 L5861 1267" stroke="currentColor" stroke-width="13" />
                  <path d="M3664 1447 L5861 1447" stroke="currentColor" stroke-width="13" />
                  <path d="M3664 1627 L5861 1627" stroke="currentColor" stroke-width="13" />
                  <path d="M3664 1807 L5861 1807" stroke="currentColor" stroke-width="13" />
                  <g id="lqw8vw3" class="layer">
                     <g id="b14yjsuv" class="beam">
                        <polygon points="4056,952 4640,862 4640,952 4056,1042" />
                        <g id="nhuvt45" class="note">
                           <g class="notehead">
                              <use xlink:href="#E0A4-1149dt1" x="3848" y="1537" height="720px" width="720px" />
                           </g>
                           <g id="s12ybe3d" class="stem">
                              <rect x="4056" y="970" height="539" width="18" />
                           </g>
                        </g>
                        <g id="n1xb3f4e" class="note">
                           <g class="notehead">
                              <use xlink:href="#E0A4-1149dt1" x="4414" y="1447" height="720px" width="720px" />
                           </g>
                           <g id="sn46r65" class="stem">
                              <rect x="4622" y="880" height="539" width="18" />
                           </g>
                           <g id="a13fvxcz" class="accid" />
                        </g>
                     </g>
                     <g id="n1gtcape" class="note">
                        <g class="notehead">
                           <use xlink:href="#E0A4-1149dt1" x="4980" y="1627" height="720px" width="720px" />
                        </g>
                        <g id="s1l1kb0a" class="stem">
                           <rect x="5188" y="997" height="602" width="18" />
                        </g>
                     </g>
                  </g>
               </g>
               <g id="b1kpu4kh" class="barLine">
                  <path d="M5848 1087 L5848 1807" stroke="currentColor" stroke-width="27" />
               </g>
            </g>
            <g id="m1m8knb0" class="measure">
               <g id="s7hen4a" class="staff">
                  <path d="M5861 1087 L8297 1087" stroke="currentColor" stroke-width="13" />
                  <path d="M5861 1267 L8297 1267" stroke="currentColor" stroke-width="13" />
                  <path d="M5861 1447 L8297 1447" stroke="currentColor" stroke-width="13" />
                  <path d="M5861 1627 L8297 1627" stroke="currentColor" stroke-width="13" />
                  <path d="M5861 1807 L8297 1807" stroke="currentColor" stroke-width="13" />
                  <g id="l104s6p3" class="layer">
                     <g id="be01ae7" class="beam">
                        <polygon points="6253,907 7000,997 7000,1087 6253,997" />
                        <polygon points="6774,1107 7000,1132 7000,1222 6774,1197" />
                        <g id="n9qq6v0" class="note">
                           <g class="notehead">
                              <use xlink:href="#E0A4-1149dt1" x="6045" y="1537" height="720px" width="720px" />
                           </g>
                           <g id="d6bnhb9" class="dots">
                              <ellipse cx="6361" cy="1537" rx="36" ry="36" />
                           </g>
                           <g id="sc5kqcm" class="stem">
                              <rect x="6253" y="925" height="584" width="18" />
                           </g>
                        </g>
                        <g id="n1w2if4a" class="note">
                           <g class="notehead">
                              <use xlink:href="#E0A4-1149dt1" x="6774" y="1627" height="720px" width="720px" />
                           </g>
                           <g id="sz6fr74" class="stem">
                              <rect x="6982" y="1015" height="584" width="18" />
                           </g>
                        </g>
                     </g>
                     <g id="b1qk6kau" class="beam">
                        <polygon points="7360,1087 7944,997 7944,1087 7360,1177" />
                        <g id="nuges2c" class="note">
                           <g class="notehead">
                              <use xlink:href="#E0A4-1149dt1" x="7152" y="1717" height="720px" width="720px" />
                           </g>
                           <g id="s1svx8h3" class="stem">
                              <rect x="7360" y="1105" height="584" width="18" />
                           </g>
                        </g>
                        <g id="n1xiqcim" class="note">
                           <g class="notehead">
                              <use xlink:href="#E0A4-1149dt1" x="7718" y="1627" height="720px" width="720px" />
                           </g>
                           <g id="s1ekvcdu" class="stem">
                              <rect x="7926" y="1015" height="584" width="18" />
                           </g>
                        </g>
                     </g>
                  </g>
               </g>
               <g id="b1hubi9r" class="barLine">
                  <path d="M8284 1087 L8284 1807" stroke="currentColor" stroke-width="27" />
               </g>
            </g>
            <g id="m1ruulk7" class="measure">
               <g id="sbs17ny" class="staff">
                  <path d="M8297 1087 L10494 1087" stroke="currentColor" stroke-width="13" />
                  <path d="M8297 1267 L10494 1267" stroke="currentColor" stroke-width="13" />
                  <path d="M8297 1447 L10494 1447" stroke="currentColor" stroke-width="13" />
                  <path d="M8297 1627 L10494 1627" stroke="currentColor" stroke-width="13" />
                  <path d="M8297 1807 L10494 1807" stroke="currentColor" stroke-width="13" />
                  <g id="l4st96a" class="layer">
                     <g id="b1eihejd" class="beam">
                        <polygon points="8689,952 9273,862 9273,952 8689,1042" />
                        <g id="n1s60ggv" class="note">
                           <g class="notehead">
                              <use xlink:href="#E0A4-1149dt1" x="8481" y="1537" height="720px" width="720px" />
                           </g>
                           <g id="s1xr960h" class="stem">
                              <rect x="8689" y="970" height="539" width="18" />
                           </g>
                        </g>
                        <g id="n1mwmbtf" class="note">
                           <g class="notehead">
                              <use xlink:href="#E0A4-1149dt1" x="9047" y="1447" height="720px" width="720px" />
                           </g>
                           <g id="sz3uwoh" class="stem">
                              <rect x="9255" y="880" height="539" width="18" />
                           </g>
                           <g id="a1v00sas" class="accid" />
                        </g>
                     </g>
                     <g id="nr1keg3" class="note">
                        <g class="notehead">
                           <use xlink:href="#E0A4-1149dt1" x="9613" y="1627" height="720px" width="720px" />
                        </g>
                        <g id="s1iv2tip" class="stem">
                           <rect x="9821" y="997" height="602" width="18" />
                        </g>
                     </g>
                  </g>
               </g>
               <g id="bb0ljat" class="barLine">
                  <path d="M10481 1087 L10481 1807" stroke="currentColor" stroke-width="27" />
               </g>
            </g>
            <g id="m1ovxi9m" class="measure">
               <g id="s17e772d" class="staff">
                  <path d="M10494 1087 L13036 1087" stroke="currentColor" stroke-width="13" />
                  <path d="M10494 1267 L13036 1267" stroke="currentColor" stroke-width="13" />
                  <path d="M10494 1447 L13036 1447" stroke="currentColor" stroke-width="13" />
                  <path d="M10494 1627 L13036 1627" stroke="currentColor" stroke-width="13" />
                  <path d="M10494 1807 L13036 1807" stroke="currentColor" stroke-width="13" />
                  <g id="mjsv3yo" class="meterSig">
                     <use xlink:href="#E083-1149dt1" x="10574" y="1267" height="720px" width="720px" />
                     <use xlink:href="#E088-1149dt1" x="10577" y="1627" height="720px" width="720px" />
                  </g>
                  <g id="lxfivdv" class="layer">
                     <g id="b1xzk7kw" class="beam">
                        <polygon points="11337,907 12084,997 12084,1087 11337,997" />
                        <polygon points="11858,1107 12084,1132 12084,1222 11858,1197" />
                        <g id="n10fnr8g" class="note">
                           <g class="notehead">
                              <use xlink:href="#E0A4-1149dt1" x="11129" y="1537" height="720px" width="720px" />
                           </g>
                           <g id="d1fvlewx" class="dots">
                              <ellipse cx="11445" cy="1537" rx="36" ry="36" />
                           </g>
                           <g id="si9jpcr" class="stem">
                              <rect x="11337" y="925" height="584" width="18" />
                           </g>
                        </g>
                        <g id="n1a1i6i" class="note">
                           <g class="notehead">
                              <use xlink:href="#E0A4-1149dt1" x="11858" y="1627" height="720px" width="720px" />
                           </g>
                           <g id="sox3k00" class="stem">
                              <rect x="12066" y="1015" height="584" width="18" />
                           </g>
                        </g>
                     </g>
                     <g id="n1ywj8b7" class="note">
                        <g class="notehead">
                           <use xlink:href="#E0A4-1149dt1" x="12236" y="1627" height="720px" width="720px" />
                        </g>
                        <g id="siv7phr" class="stem">
                           <rect x="12444" y="997" height="602" width="18" />
                           <g id="f1mlirg2" class="flag">
                              <use xlink:href="#E240-1149dt1" x="12444" y="997" height="720px" width="720px" />
                           </g>
                        </g>
                     </g>
                  </g>
               </g>
               <g id="b1e44k63" class="barLine">
                  <path d="M12861 1087 L12861 1807" stroke="currentColor" stroke-width="27" />
                  <path d="M12991 1087 L12991 1807" stroke="currentColor" stroke-width="90" />
                  <use xlink:href="#E044-1149dt1" x="12744" y="1357" height="720px" width="720px" />
                  <use xlink:href="#E044-1149dt1" x="12744" y="1537" height="720px" width="720px" />
               </g>
            </g>
            <g id="mr89xku" class="measure">
               <g id="s1qp6i9d" class="staff">
                  <path d="M13036 1087 L14636 1087" stroke="currentColor" stroke-width="13" />
                  <path d="M13036 1267 L14636 1267" stroke="currentColor" stroke-width="13" />
                  <path d="M13036 1447 L14636 1447" stroke="currentColor" stroke-width="13" />
                  <path d="M13036 1627 L14636 1627" stroke="currentColor" stroke-width="13" />
                  <path d="M13036 1807 L14636 1807" stroke="currentColor" stroke-width="13" />
                  <g id="m1a361jz" class="meterSig">
                     <use xlink:href="#E081-1149dt1" x="13143" y="1267" height="720px" width="720px" />
                     <use xlink:href="#E088-1149dt1" x="13119" y="1627" height="720px" width="720px" />
                  </g>
                  <g id="ltdq2i1" class="layer">
                     <g id="n103zx57" class="note">
                        <g class="notehead">
                           <use xlink:href="#E0A4-1149dt1" x="14057" y="1627" height="720px" width="720px" />
                        </g>
                        <g id="s1a33tcr" class="stem">
                           <rect x="14265" y="997" height="602" width="18" />
                           <g id="fbt11io" class="flag">
                              <use xlink:href="#E240-1149dt1" x="14265" y="997" height="720px" width="720px" />
                           </g>
                        </g>
                     </g>
                  </g>
               </g>
               <g id="bsd7v8y" class="barLine">
                  <path d="M13620 1087 L13620 1807" stroke="currentColor" stroke-width="90" />
                  <path d="M13750 1087 L13750 1807" stroke="currentColor" stroke-width="27" />
                  <use xlink:href="#E044-1149dt1" x="13796" y="1357" height="720px" width="720px" />
                  <use xlink:href="#E044-1149dt1" x="13796" y="1537" height="720px" width="720px" />
               </g>
               <g id="b1fdpbrw" class="barLine">
                  <path d="M14623 1087 L14623 1807" stroke="currentColor" stroke-width="27" />
               </g>
            </g>
            <g id="m1jn6hjr" class="measure">
               <g id="s13ednmp" class="staff">
                  <path d="M14636 1087 L17567 1087" stroke="currentColor" stroke-width="13" />
                  <path d="M14636 1267 L17567 1267" stroke="currentColor" stroke-width="13" />
                  <path d="M14636 1447 L17567 1447" stroke="currentColor" stroke-width="13" />
                  <path d="M14636 1627 L17567 1627" stroke="currentColor" stroke-width="13" />
                  <path d="M14636 1807 L17567 1807" stroke="currentColor" stroke-width="13" />
                  <g id="m122ggzf" class="meterSig">
                     <use xlink:href="#E082-1149dt1" x="14712" y="1267" height="720px" width="720px" />
                     <use xlink:href="#E084-1149dt1" x="14717" y="1627" height="720px" width="720px" />
                  </g>
                  <g id="lbhwd0o" class="layer">
                     <g id="b17p9pca" class="beam">
                        <polygon points="15497,952 16081,862 16081,952 15497,1042" />
                        <g id="nku9ky5" class="note">
                           <g class="notehead">
                              <use xlink:href="#E0A4-1149dt1" x="15289" y="1537" height="720px" width="720px" />
                           </g>
                           <g id="s1ml19c0" class="stem">
                              <rect x="15497" y="970" height="539" width="18" />
                           </g>
                        </g>
                        <g id="n11zyfl6" class="note">
                           <g class="notehead">
                              <use xlink:href="#E0A4-1149dt1" x="15855" y="1447" height="720px" width="720px" />
                           </g>
                           <g id="s1bv0w4q" class="stem">
                              <rect x="16063" y="880" height="539" width="18" />
                           </g>
                           <g id="ab3idwv" class="accid" />
                        </g>
                     </g>
                     <g id="b1wrems7" class="beam">
                        <polygon points="16421,2077 17005,1897 17005,1807 16421,1987" />
                        <g id="n3ikm37" class="note">
                           <g class="notehead">
                              <use xlink:href="#E0A4-1149dt1" x="16421" y="1537" height="720px" width="720px" />
                           </g>
                           <g id="sgdb4yp" class="stem">
                              <rect x="16421" y="1565" height="494" width="18" />
                           </g>
                        </g>
                        <g id="n1b7vgdk" class="note">
                           <g class="notehead">
                              <use xlink:href="#E0A4-1149dt1" x="16987" y="1267" height="720px" width="720px" />
                           </g>
                           <g id="s1e6lqqc" class="stem">
                              <rect x="16987" y="1295" height="584" width="18" />
                           </g>
                        </g>
                     </g>
                  </g>
               </g>
               <g id="b1n2w8z4" class="barLine">
                  <path d="M17554 1087 L17554 1807" stroke="currentColor" stroke-width="27" />
               </g>
            </g>
            <g id="mgojmol" class="measure">
               <g id="s1d7ohfe" class="staff">
                  <path d="M17567 1087 L20003 1087" stroke="currentColor" stroke-width="13" />
                  <path d="M17567 1267 L20003 1267" stroke="currentColor" stroke-width="13" />
                  <path d="M17567 1447 L20003 1447" stroke="currentColor" stroke-width="13" />
                  <path d="M17567 1627 L20003 1627" stroke="currentColor" stroke-width="13" />
                  <path d="M17567 1807 L20003 1807" stroke="currentColor" stroke-width="13" />
                  <g id="l1u211h6" class="layer">
                     <g id="bdtl7um" class="beam">
                        <polygon points="17751,1987 18498,2077 18498,1987 17751,1897" />
                        <polygon points="18272,1917 18498,1942 18498,1852 18272,1827" />
                        <g id="nu8tdqv" class="note">
                           <g class="notehead">
                              <use xlink:href="#E0A4-1149dt1" x="17751" y="1357" height="720px" width="720px" />
                           </g>
                           <g id="d10cyj0a" class="dots">
                              <ellipse cx="18067" cy="1357" rx="36" ry="36" />
                           </g>
                           <g id="s1yzzdhi" class="stem">
                              <rect x="17751" y="1385" height="584" width="18" />
                           </g>
                        </g>
                        <g id="nu46teq" class="note">
                           <g class="notehead">
                              <use xlink:href="#E0A4-1149dt1" x="18480" y="1447" height="720px" width="720px" />
                           </g>
                           <g id="sp7a7yg" class="stem">
                              <rect x="18480" y="1475" height="584" width="18" />
                           </g>
                           <g id="a1p7p0bw" class="accid" />
                        </g>
                     </g>
                     <g id="bx3arci" class="beam">
                        <polygon points="19066,907 19650,997 19650,1087 19066,997" />
                        <g id="n1i3huem" class="note">
                           <g class="notehead">
                              <use xlink:href="#E0A4-1149dt1" x="18858" y="1537" height="720px" width="720px" />
                           </g>
                           <g id="s15oa7cf" class="stem">
                              <rect x="19066" y="925" height="584" width="18" />
                           </g>
                        </g>
                        <g id="n1c1eqnf" class="note">
                           <g class="notehead">
                              <use xlink:href="#E0A4-1149dt1" x="19424" y="1627" height="720px" width="720px" />
                           </g>
                           <g id="s953l7q" class="stem">
                              <rect x="19632" y="1015" height="584" width="18" />
                           </g>
                        </g>
                     </g>
                  </g>
               </g>
               <g id="b7857s3" class="barLine">
                  <path d="M19990 1087 L19990 1807" stroke="currentColor" stroke-width="27" />
               </g>
            </g>
         </g>
         <g id="sivmagn" class="system">
            <g id="ledsi88" class="labelAbbr">
               <text x="914" y="3886" text-anchor="end" font-size="0px">
                  <tspan id="t88r6qq" class="text">
                     <tspan font-size="405px" class="text">Pno.</tspan>
                  </tspan>
               </text>
            </g>
            <g id="m1bp7y83" class="measure">
               <g id="mte7pjb" class="mNum autogenerated">
                  <text x="1094" y="3193" text-anchor="middle" font-size="0px">
                     <tspan id="to8bhsd" class="text">
                        <tspan font-size="324px" class="text">8</tspan>
                     </tspan>
                  </text>
               </g>
               <g id="s14a5mpn" class="staff">
                  <path d="M1094 3436 L4654 3436" stroke="currentColor" stroke-width="13" />
                  <path d="M1094 3616 L4654 3616" stroke="currentColor" stroke-width="13" />
                  <path d="M1094 3796 L4654 3796" stroke="currentColor" stroke-width="13" />
                  <path d="M1094 3976 L4654 3976" stroke="currentColor" stroke-width="13" />
                  <path d="M1094 4156 L4654 4156" stroke="currentColor" stroke-width="13" />
                  <g id="c1hnnncr" class="clef">
                     <use xlink:href="#E050-1149dt1" x="1184" y="3976" height="720px" width="720px" />
                  </g>
                  <g id="k1u21tni" class="keySig">
                     <g id="kl1hb8e" class="keyAccid">
                        <use xlink:href="#E260-1149dt1" x="1829" y="3796" height="720px" width="720px" />
                     </g>
                     <g id="k1ibj1qi" class="keyAccid">
                        <use xlink:href="#E260-1149dt1" x="2009" y="3526" height="720px" width="720px" />
                     </g>
                  </g>
                  <g id="l1gbs3fj" class="layer">
                     <g id="b1uliqqe" class="beam">
                        <polygon points="2629,3301 3202,3211 3202,3301 2629,3391" />
                        <g id="n1pl8xa7" class="note">
                           <g class="notehead">
                              <use xlink:href="#E0A4-1149dt1" x="2421" y="3886" height="720px" width="720px" />
                           </g>
                           <g id="s1c6gndk" class="stem">
                              <rect x="2629" y="3319" height="539" width="18" />
                           </g>
                        </g>
                        <g id="nw5406h" class="note">
                           <g class="notehead">
                              <use xlink:href="#E0A4-1149dt1" x="2976" y="3796" height="720px" width="720px" />
                           </g>
                           <g id="s1o5f1p" class="stem">
                              <rect x="3184" y="3229" height="539" width="18" />
                           </g>
                           <g id="a2p19cd" class="accid" />
                        </g>
                     </g>
                     <g id="b5yx1y3" class="beam">
                        <polygon points="3531,4426 4104,4246 4104,4156 3531,4336" />
                        <g id="naew86y" class="note">
                           <g class="notehead">
                              <use xlink:href="#E0A4-1149dt1" x="3531" y="3886" height="720px" width="720px" />
                           </g>
                           <g id="sdru6jc" class="stem">
                              <rect x="3531" y="3914" height="494" width="18" />
                           </g>
                        </g>
                        <g id="n1w0lrbm" class="note">
                           <g class="notehead">
                              <use xlink:href="#E0A4-1149dt1" x="4086" y="3616" height="720px" width="720px" />
                           </g>
                           <g id="s1pjwgxh" class="stem">
                              <rect x="4086" y="3644" height="584" width="18" />
                           </g>
                        </g>
                     </g>
                  </g>
               </g>
               <g id="b5czhs4" class="barLine">
                  <path d="M4641 3436 L4641 4156" stroke="currentColor" stroke-width="27" />
               </g>
            </g>
            <g id="s1wf7vad" class="sb" />
            <g id="m1gzdh1r" class="measure">
               <g id="sl34eu7" class="staff">
                  <path d="M4654 3436 L7100 3436" stroke="currentColor" stroke-width="13" />
                  <path d="M4654 3616 L7100 3616" stroke="currentColor" stroke-width="13" />
                  <path d="M4654 3796 L7100 3796" stroke="currentColor" stroke-width="13" />
                  <path d="M4654 3976 L7100 3976" stroke="currentColor" stroke-width="13" />
                  <path d="M4654 4156 L7100 4156" stroke="currentColor" stroke-width="13" />
                  <g id="m1km1r7p" class="meterSig">
                     <use xlink:href="#E083-1149dt1" x="4734" y="3616" height="720px" width="720px" />
                     <use xlink:href="#E088-1149dt1" x="4737" y="3976" height="720px" width="720px" />
                  </g>
                  <g id="lj3cbh7" class="layer">
                     <g id="bve4244" class="beam">
                        <polygon points="5285,4336 6018,4426 6018,4336 5285,4246" />
                        <polygon points="5792,4265 6018,4291 6018,4201 5792,4175" />
                        <g id="n172t1y4" class="note">
                           <g class="notehead">
                              <use xlink:href="#E0A4-1149dt1" x="5285" y="3706" height="720px" width="720px" />
                           </g>
                           <g id="d1f7h2wk" class="dots">
                              <ellipse cx="5601" cy="3706" rx="36" ry="36" />
                           </g>
                           <g id="s1qffnp7" class="stem">
                              <rect x="5285" y="3734" height="584" width="18" />
                           </g>
                        </g>
                        <g id="nt1qj0j" class="note">
                           <g class="notehead">
                              <use xlink:href="#E0A4-1149dt1" x="6000" y="3796" height="720px" width="720px" />
                           </g>
                           <g id="s1xayx94" class="stem">
                              <rect x="6000" y="3824" height="584" width="18" />
                           </g>
                           <g id="a7o64xp" class="accid" />
                        </g>
                     </g>
                     <g id="npqtj3r" class="note">
                        <g class="notehead">
                           <use xlink:href="#E0A4-1149dt1" x="6370" y="3886" height="720px" width="720px" />
                        </g>
                        <g id="smorxne" class="stem">
                           <rect x="6578" y="3256" height="602" width="18" />
                           <g id="f1fo1xva" class="flag">
                              <use xlink:href="#E240-1149dt1" x="6578" y="3256" height="720px" width="720px" />
                           </g>
                        </g>
                     </g>
                  </g>
               </g>
               <g id="brvq3hi" class="barLine">
                  <path d="M6925 3436 L6925 4156" stroke="currentColor" stroke-width="27" />
                  <path d="M7055 3436 L7055 4156" stroke="currentColor" stroke-width="90" />
               </g>
            </g>
            <g id="s910knj" class="systemMilestoneEnd s1o84c93" />
         </g>
         <g id="p3po5gh" class="pageMilestoneEnd skx9kmg" />
         <g id="p8gvqjx" class="pageMilestoneEnd mlj4vn4" />
         <g id="p1ifmww5" class="pgHead">
            <text x="0" y="0" font-size="0px">
               <tspan id="r154y60f" class="rend" x="10000" y="279" text-anchor="middle">
                  <tspan id="t15npp7k" class="text">
                     <tspan font-size="405px" class="text">Air n 195b</tspan>
                  </tspan>
               </tspan>
            </text>
         </g>
         <g id="pxdve9d" class="pgFoot autogenerated">
            <g id="fcoecew" class="fig">
               <g id="szc87fk" class="svg" transform="translate(7750, 28099) scale(10, 10)">
                  <g>
                     <path fill="#00000" d="M 17.11278,49.26451 V 10.367554 h 12.696511 c 3.288815,7.336676 6.71267,14.610456 10.127281,21.888976 3.419998,-7.484684 6.255515,-14.204887 9.58887,-21.909915 2.436207,0.103726 4.316952,0.08453 6.484294,-0.05808 V 49.264423 H 50.274275 C 50.145222,38.35639 50.016136,27.448368 49.887066,16.540329 45.003488,27.315459 39.967448,38.433564 35.083854,49.208695 34.678996,49.343717 34.426583,49.135619 34.021726,49.270644 29.46588,39.330716 24.910049,29.390805 20.354201,19.450876 20.224341,29.388756 20.09461,39.326619 19.964815,49.264497 H 17.11278 Z M 36.754144,39.324695 C 32.721221,30.512695 28.6883,21.700679 24.655394,12.888662 22.530527,12.750737 22.656775,12.71031 20.714356,12.813974 v 0.966497 c 4.612938,9.99784 9.609439,20.748709 13.87298,30.081745 0.722248,-1.512523 1.444528,-3.025014 2.166808,-4.537521 z m 25.738417,9.939815 c 0,-12.965651 0,-25.931305 0,-38.896956 10.084388,0 20.168791,0 30.253178,0 0,0.960416 0,1.920849 0,2.881265 -6.482825,0 -12.965652,0 -19.448478,0 0,4.802097 0,9.604178 0,14.406277 5.52241,0 11.044819,0 16.567229,0 0,0.960415 0,1.920832 0,2.881248 -5.52241,0 -11.044819,0 -16.567229,0 0,5.282306 0,10.564611 0,15.846917 6.963035,0 13.926068,0 20.889103,0 0,0.960416 0,1.920832 0,2.881249 -10.564597,0 -21.129207,0 -31.693803,0 z m 4.321874,-2.160937 c 0,-11.765131 0,-23.530263 0,-35.295394 -0.720312,0 -1.440625,0 -2.160937,0 0,11.765131 0,23.530263 0,35.295394 0.720312,0 1.440625,0 2.160937,0 z m 32.41413,2.160937 c 0,-12.965651 0,-25.931305 0,-38.896956 2.401045,0 4.802095,0 7.203135,0 0,12.965651 0,25.931305 0,38.896956 -2.40104,0 -4.80209,0 -7.203135,0 z m 2.881265,-2.160937 c 0,-11.765131 0,-23.530263 0,-35.295394 -0.72031,0 -1.44064,0 -2.160953,0 0,11.765131 0,23.530263 0,35.295394 0.720313,0 1.440643,0 2.160953,0 z" />
                     <path fill="#00000" d="m 346.3,6.7 c -3.1,0.5 -4.9,4.4 -2.7,6.8 1.2,1.4 2.7,2.4 4.1,3.5 -2.4,5.3 -7.7,8.3 -11.9,12.1 -3.7,2.8 -7,6.2 -9.7,9.9 -2.2,-0.8 -0.3,-6.8 -0.6,-9.5 0.1,-3.1 0.7,-6.4 2.9,-8.7 1.3,-1.9 3,-3.5 4.5,-5.2 1.2,-3.4 -3.2,-4.9 -5.8,-4.6 -7.3,-0.5 -14.6,2 -20,6.8 -5,4.6 -10,10.1 -11.5,17 -0.9,3.5 -0.2,7.5 2.8,9.9 2.5,2.8 7.4,2.9 9.8,-0.2 1.7,-2.3 3.2,-4.8 3.8,-7.6 -0.1,-2.6 -4.4,-2.3 -4.3,0.2 1.2,2.4 -0.9,4.7 -2.7,6.2 -1.7,0.9 -4.7,0.7 -4.8,-1.7 -1,-5.8 2.1,-11.3 5.2,-16.1 4,-5.8 9.8,-11.2 17.2,-11.8 1.6,0 8.1,-1.2 6.8,1.4 -2.8,2.8 -5.6,6.1 -6,10.3 -1.6,7.7 0.1,15.7 -2.3,23.2 -1.1,3.9 2,2.6 2.5,0.2 3.3,-7.4 8.9,-13.4 15.1,-18.5 4.2,-3.9 9.5,-7.1 11.9,-12.6 1.3,-3.6 1.2,-9 -2.7,-10.9 -0.6,-0.2 -1.2,-0.3 -1.8,-0.3 z m 66,14.5 c -2,0.8 -1.8,4.9 0.8,4.4 3.4,0.4 2.9,-6.2 -0.8,-4.4 z m 0.6,7.3 c -1.3,0.5 -7.6,0.5 -5.4,2.2 4,-0.3 0.7,4.5 0.6,6.7 -0.4,2.9 -2.4,5.9 -1.2,8.8 2.7,1.7 5.6,-0.8 6.8,-3.2 1.6,-1.4 -0.5,-3 -1.2,-0.9 -0.4,0.8 -2.4,3.5 -2.6,1.8 1.1,-5 2.7,-9.9 3.9,-14.9 l -0.1,-0.5 h -0.9 z m -65.1,0.2 c -6.5,1.6 -10.5,9.5 -8.2,15.7 2.1,3.4 7.4,2.9 10.1,0.4 2,-0.2 3.6,-5.3 1,-3.4 -1.4,2 -4,4.2 -6.5,2.8 -2.2,-1.9 -1.9,-5.7 1.7,-5.3 3.1,-0.9 6.9,-2.1 8.1,-5.5 0.9,-2.7 -1.6,-5.2 -4.3,-4.8 h -1.1 -0.7 z m 13.6,0 c -2.2,0 -8.5,1.8 -2.9,2.3 0.9,1.9 -1,4.9 -1.1,7.2 -0.5,2.9 -1.4,5.7 -1.7,8.7 3.7,0.7 3.8,-2.6 4.4,-5.3 0.9,-3.3 1.6,-7 4.1,-9.5 2.4,1.6 6.8,-0.7 3.7,-3.4 -2.9,-0.5 -4.8,2.4 -6.2,4.3 0,-1.2 2.4,-5 -0.2,-4.3 z m 15.8,0 c -6.4,1.3 -9.6,9.1 -7.7,14.9 1.9,4 7.7,3.9 11,1.7 4.1,-3 6,-8.9 4.4,-13.7 -1.3,-3 -4.8,-3.2 -7.6,-3 z m 17,0 c -2.3,0 -8.8,1.9 -3,2.4 0.4,2.5 -1,5.7 -1.4,8.4 -0.7,2.4 -1.8,7.5 2.1,7.2 3.8,-0.1 6.5,-3.5 8.5,-6.3 2,-3.2 4.5,-7 3.3,-10.9 -3.7,-3 -3.6,2.6 -3.1,5.1 -0.7,3.8 -2.7,7.9 -6.2,9.8 -3.6,0.6 -1,-4.3 -0.8,-6.1 0.6,-3.2 1.6,-6.3 1.9,-9.5 -0.4,0 -0.8,0 -1.1,0 z m 30.6,0 c -6.3,1.2 -9.5,8.9 -7.8,14.7 1.5,4 7.2,4.2 10.5,2.4 4.6,-2.8 6.6,-9.3 4.8,-14.3 -1.4,-2.8 -4.8,-3 -7.5,-2.8 z m -75.4,1.7 c 2.1,1.5 0.2,4.7 -1.6,5.7 -1.1,0.4 -5.5,3.4 -4.6,0.7 0.8,-2.7 2.2,-6.2 5.3,-6.6 l 0.9,0.1 z m 30.8,0 c 2.6,1.5 1.3,5.2 0.8,7.6 -0.8,2.7 -1.9,5.9 -4.7,7.1 -5.1,0.8 -4,-5.8 -2.8,-8.8 1,-2.8 3,-6.8 6.7,-5.8 z m 47.1,-0.1 c 2.9,0.7 2,4.7 1.5,6.8 -0.7,3 -1.8,6.7 -5,8 -4.7,0.8 -4,-5.1 -3,-7.9 0.9,-3 2.7,-7.3 6.5,-6.8 z m -88.1,5.9 c -0.3,1.3 0.9,-0.6 0,0 z m -1.1,2.4 c -0.2,0.5 0.5,-0.1 0,0 z m -1.3,4.5 c -0.3,1.3 0.8,-0.2 0,0 z" />
                     <text y="41" x="201" fill="#00000" style="font-style:italic;font-weight:normal;font-size:30px;line-height:125%;font-family:Times;text-anchor:middle" xml:space="preserve">engraved with</text>
                  </g>
               </g>
            </g>
         </g>
      </g>
   </svg>
</svg>
