<?xml version="1.0" encoding="UTF-8" standalone="no"?>
<svg width="2100px" height="2970px" version="1.1" xmlns="http://www.w3.org/2000/svg" xmlns:xlink="http://www.w3.org/1999/xlink" xmlns:mei="http://www.music-encoding.org/ns/mei" overflow="visible">
   <desc>Engraved by Verovio 3.13.1</desc>
   <defs>
      <symbol id="E044-ntvlt1" viewBox="0 0 1000 1000" overflow="inherit">
         <path transform="scale(1,-1)" d="M0 0c0 28 22 50 50 50s50 -22 50 -50s-22 -50 -50 -50s-50 22 -50 50z" />
      </symbol>
      <symbol id="E050-ntvlt1" viewBox="0 0 1000 1000" overflow="inherit">
         <path transform="scale(1,-1)" d="M441 -245c-23 -4 -48 -6 -76 -6c-59 0 -102 7 -130 20c-88 42 -150 93 -187 154c-26 44 -43 103 -48 176c0 6 -1 13 -1 19c0 54 15 111 45 170c29 57 65 106 110 148s96 85 153 127c-3 16 -8 46 -13 92c-4 43 -5 73 -5 89c0 117 16 172 69 257c34 54 64 82 89 82 c21 0 43 -30 69 -92s39 -115 41 -159v-15c0 -109 -21 -162 -67 -241c-13 -20 -63 -90 -98 -118c-13 -9 -25 -19 -37 -29l31 -181c8 1 18 2 28 2c58 0 102 -12 133 -35c59 -43 92 -104 98 -184c1 -7 1 -15 1 -22c0 -123 -87 -209 -181 -248c8 -57 17 -110 25 -162 c5 -31 6 -58 6 -80c0 -30 -5 -53 -14 -70c-35 -64 -88 -99 -158 -103c-5 0 -11 -1 -16 -1c-37 0 -72 10 -108 27c-50 24 -77 59 -80 105v11c0 29 7 55 20 76c18 28 45 42 79 44h6c49 0 93 -42 97 -87v-9c0 -51 -34 -86 -105 -106c17 -24 51 -36 102 -36c62 0 116 43 140 85 c9 16 13 41 13 74c0 20 -1 42 -5 67c-8 53 -18 106 -26 159zM461 939c-95 0 -135 -175 -135 -286c0 -24 2 -48 5 -71c50 39 92 82 127 128c40 53 60 100 60 140v8c-4 53 -22 81 -55 81h-2zM406 119l54 -326c73 25 110 78 110 161c0 7 0 15 -1 23c-7 95 -57 142 -151 142h-12 zM382 117c-72 -2 -128 -47 -128 -120v-7c2 -46 43 -99 75 -115c-3 -2 -7 -5 -10 -10c-70 33 -116 88 -123 172v11c0 68 44 126 88 159c23 17 49 29 78 36l-29 170c-21 -13 -52 -37 -92 -73c-50 -44 -86 -84 -109 -119c-45 -69 -67 -130 -67 -182v-13c5 -68 35 -127 93 -176 s125 -73 203 -73c25 0 50 3 75 9c-19 111 -36 221 -54 331z" />
      </symbol>
      <symbol id="E081-ntvlt1" viewBox="0 0 1000 1000" overflow="inherit">
         <path transform="scale(1,-1)" d="M68 -250v36c23 0 40 6 49 18c8 14 12 33 12 57v250l-82 -129l-27 13l107 255h128v-394c0 -24 5 -42 14 -53s25 -17 47 -17v-36h-248z" />
      </symbol>
      <symbol id="E082-ntvlt1" viewBox="0 0 1000 1000" overflow="inherit">
         <path transform="scale(1,-1)" d="M124 -185c-18 0 -55 -14 -65 -65h-36l-3 30c0 25 6 45 18 63c11 19 22 30 39 43l121 82l37 29c15 11 27 29 38 54c12 24 18 47 18 70c0 40 -19 88 -94 88c-25 0 -32 0 -50 -8c-14 -5 -23 -12 -26 -22c3 -9 7 -15 10 -18l24 -17c12 -7 17 -11 27 -21c5 -7 7 -16 7 -27 c0 -12 0 -57 -79 -74c-30 0 -76 26 -76 94c0 66 81 135 197 135c72 0 181 -32 181 -150c0 -53 -32 -95 -113 -133l-91 -41c-26 -11 -45 -23 -57 -37l49 7c84 0 115 -41 148 -41c20 0 33 20 39 61h35c0 -152 -68 -168 -114 -168c-17 0 -65 0 -79 7h10l-28 17 c-49 37 -69 40 -87 42z" />
      </symbol>
      <symbol id="E084-ntvlt1" viewBox="0 0 1000 1000" overflow="inherit">
         <path transform="scale(1,-1)" d="M20 -78c84 97 114 180 134 329h170c-13 -32 -82 -132 -99 -151l-84 -97c-33 -36 -59 -63 -80 -81h162v102l127 123v-225h57v-39h-57v-34c0 -43 19 -65 57 -65v-34h-244v36c48 0 60 26 60 70v27h-203v39z" />
      </symbol>
      <symbol id="E0A4-ntvlt1" viewBox="0 0 1000 1000" overflow="inherit">
         <path transform="scale(1,-1)" d="M0 -39c0 68 73 172 200 172c66 0 114 -37 114 -95c0 -84 -106 -171 -218 -171c-64 0 -96 30 -96 94z" />
      </symbol>
      <symbol id="E260-ntvlt1" viewBox="0 0 1000 1000" overflow="inherit">
         <path transform="scale(1,-1)" d="M20 110c32 16 54 27 93 27c26 0 35 -3 54 -13c13 -7 24 -20 27 -38l4 -25c0 -28 -16 -57 -45 -89c-23 -25 -39 -44 -65 -68l-88 -79v644h20v-359zM90 106c-32 0 -48 -10 -70 -29v-194c31 31 54 59 71 84c21 32 32 59 32 84c0 9 1 16 1 20c0 14 -3 21 -11 30l-8 3z" />
      </symbol>
   </defs>
   <style type="text/css">g.page-margin{font-family:Times;} g.ending, g.fing, g.reh, g.tempo{font-weight:bold;} g.dir, g.dynam, g.mNum{font-style:italic;} g.label{font-weight:normal;}</style>
   <svg class="definition-scale" color="black" viewBox="0 0 21000 29700">
      <g class="page-margin" transform="translate(500, 500)">
         <g id="mvx0yw0" class="mdiv pageMilestone" />
         <g id="sj8oxj7" class="score pageMilestone" />
         <g id="sjb6hhn" class="system">
            <g id="lqddi7e" class="label">
               <text x="1105" y="1535" text-anchor="end" font-size="0px">
                  <tspan id="t13ml6km" class="text">
                     <tspan font-size="405px" class="text">Piano</tspan>
                  </tspan>
               </text>
            </g>
            <g id="s1esbj8u" class="section systemMilestone" />
            <g id="p15zoc39" class="pb" />
            <g id="m18vihm1" class="measure">
               <g id="mighuhf" class="mNum">
                  <text x="1285" y="842" text-anchor="middle" font-size="0px" />
               </g>
               <g id="s1vfyf3i" class="staff">
                  <path d="M1285 1085 L4424 1085" stroke="currentColor" stroke-width="13" />
                  <path d="M1285 1265 L4424 1265" stroke="currentColor" stroke-width="13" />
                  <path d="M1285 1445 L4424 1445" stroke="currentColor" stroke-width="13" />
                  <path d="M1285 1625 L4424 1625" stroke="currentColor" stroke-width="13" />
                  <path d="M1285 1805 L4424 1805" stroke="currentColor" stroke-width="13" />
                  <g id="c13ljeaq" class="clef">
                     <use xlink:href="#E050-ntvlt1" x="1375" y="1625" height="720px" width="720px" />
                  </g>
                  <g id="k148mfjt" class="keySig">
                     <g id="k1jgp9xr" class="keyAccid">
                        <use xlink:href="#E260-ntvlt1" x="2020" y="1445" height="720px" width="720px" />
                     </g>
                  </g>
                  <g id="m1r7qznb" class="meterSig">
                     <use xlink:href="#E082-ntvlt1" x="2328" y="1265" height="720px" width="720px" />
                     <use xlink:href="#E084-ntvlt1" x="2333" y="1625" height="720px" width="720px" />
                  </g>
                  <g id="l11o0ozc" class="layer">
                     <g id="b1qok1hx" class="beam">
                        <polygon points="3115,860 4261,860 4261,950 3115,950" />
                        <polygon points="3115,995 3500,995 3500,1085 3115,1085" />
                        <polygon points="3500,995 3876,995 3876,1085 3500,1085" />
                        <polygon points="3876,995 4261,995 4261,1085 3876,1085" />
                        <g id="n1objkiw" class="note">
                           <g class="notehead">
                              <use xlink:href="#E0A4-ntvlt1" x="2907" y="1625" height="720px" width="720px" />
                           </g>
                           <g id="s1m30g8" class="stem">
                              <rect x="3115" y="878" height="719" width="18" />
                           </g>
                        </g>
                        <g id="n1v7mp7w" class="note">
                           <g class="notehead">
                              <use xlink:href="#E0A4-ntvlt1" x="3283" y="1445" height="720px" width="720px" />
                           </g>
                           <g id="sdpmzj3" class="stem">
                              <rect x="3491" y="878" height="539" width="18" />
                           </g>
                           <g id="a1teomig" class="accid" />
                        </g>
                        <g id="n137hj3y" class="note">
                           <g class="notehead">
                              <use xlink:href="#E0A4-ntvlt1" x="3659" y="1535" height="720px" width="720px" />
                           </g>
                           <g id="s1civ5m5" class="stem">
                              <rect x="3867" y="878" height="629" width="18" />
                           </g>
                        </g>
                        <g id="n1y88rm7" class="note">
                           <g class="notehead">
                              <use xlink:href="#E0A4-ntvlt1" x="4035" y="1445" height="720px" width="720px" />
                           </g>
                           <g id="sy2s5a7" class="stem">
                              <rect x="4243" y="878" height="539" width="18" />
                           </g>
                           <g id="a198pkl0" class="accid" />
                        </g>
                     </g>
                  </g>
               </g>
               <g id="b1htnlzm" class="barLine">
                  <path d="M4411 1085 L4411 1805" stroke="currentColor" stroke-width="27" />
               </g>
            </g>
            <g id="m1h6pnox" class="measure">
               <g id="sbb8vhp" class="staff">
                  <path d="M4424 1085 L7257 1085" stroke="currentColor" stroke-width="13" />
                  <path d="M4424 1265 L7257 1265" stroke="currentColor" stroke-width="13" />
                  <path d="M4424 1445 L7257 1445" stroke="currentColor" stroke-width="13" />
                  <path d="M4424 1625 L7257 1625" stroke="currentColor" stroke-width="13" />
                  <path d="M4424 1805 L7257 1805" stroke="currentColor" stroke-width="13" />
                  <g id="l1x6nutc" class="layer">
                     <g id="b15coi7n" class="beam">
                        <polygon points="4610,1985 5193,1895 5193,1805 4610,1895" />
                        <g id="n1vydowb" class="note">
                           <g class="notehead">
                              <use xlink:href="#E0A4-ntvlt1" x="4610" y="1355" height="720px" width="720px" />
                           </g>
                           <g id="srhynes" class="stem">
                              <rect x="4610" y="1383" height="584" width="18" />
                           </g>
                        </g>
                        <g id="nndkpj2" class="note">
                           <g class="notehead">
                              <use xlink:href="#E0A4-ntvlt1" x="5175" y="1265" height="720px" width="720px" />
                           </g>
                           <g id="s1yo7fsu" class="stem">
                              <rect x="5175" y="1293" height="584" width="18" />
                           </g>
                        </g>
                     </g>
                     <g id="b1nc1cu8" class="beam">
                        <polygon points="5947,725 7094,905 7094,995 5947,815" />
                        <polygon points="5947,860 6332,920 6332,1010 5947,950" />
                        <polygon points="6332,920 6709,981 6709,1071 6332,1010" />
                        <polygon points="6709,981 7094,1040 7094,1130 6709,1071" />
                        <g id="ncqafyo" class="note">
                           <g class="notehead">
                              <use xlink:href="#E0A4-ntvlt1" x="5739" y="1355" height="720px" width="720px" />
                           </g>
                           <g id="sno8lez" class="stem">
                              <rect x="5947" y="743" height="584" width="18" />
                           </g>
                        </g>
                        <g id="nxwfj2" class="note">
                           <g class="notehead">
                              <use xlink:href="#E0A4-ntvlt1" x="6115" y="1445" height="720px" width="720px" />
                           </g>
                           <g id="s16slj7z" class="stem">
                              <rect x="6323" y="803" height="614" width="18" />
                           </g>
                           <g id="a10rm6yk" class="accid" />
                        </g>
                        <g id="ni7bm3d" class="note">
                           <g class="notehead">
                              <use xlink:href="#E0A4-ntvlt1" x="6492" y="1535" height="720px" width="720px" />
                           </g>
                           <g id="s64mdcv" class="stem">
                              <rect x="6700" y="864" height="643" width="18" />
                           </g>
                        </g>
                        <g id="n1ixuyil" class="note">
                           <g class="notehead">
                              <use xlink:href="#E0A4-ntvlt1" x="6868" y="1625" height="720px" width="720px" />
                           </g>
                           <g id="sg6jmtq" class="stem">
                              <rect x="7076" y="923" height="674" width="18" />
                           </g>
                        </g>
                     </g>
                  </g>
               </g>
               <g id="bfffemi" class="barLine">
                  <path d="M7244 1085 L7244 1805" stroke="currentColor" stroke-width="27" />
               </g>
            </g>
            <g id="mfim17r" class="measure">
               <g id="s2wfc36" class="staff">
                  <path d="M7257 1085 L10090 1085" stroke="currentColor" stroke-width="13" />
                  <path d="M7257 1265 L10090 1265" stroke="currentColor" stroke-width="13" />
                  <path d="M7257 1445 L10090 1445" stroke="currentColor" stroke-width="13" />
                  <path d="M7257 1625 L10090 1625" stroke="currentColor" stroke-width="13" />
                  <path d="M7257 1805 L10090 1805" stroke="currentColor" stroke-width="13" />
                  <g id="l1uu2fiu" class="layer">
                     <g id="b1ov1ibg" class="beam">
                        <polygon points="7651,860 8234,950 8234,1040 7651,950" />
                        <g id="nghmg7h" class="note">
                           <g class="notehead">
                              <use xlink:href="#E0A4-ntvlt1" x="7443" y="1445" height="720px" width="720px" />
                           </g>
                           <g id="s15fu9dv" class="stem">
                              <rect x="7651" y="878" height="539" width="18" />
                           </g>
                           <g id="aoh89n9" class="accid" />
                        </g>
                        <g id="ne98o2u" class="note">
                           <g class="notehead">
                              <use xlink:href="#E0A4-ntvlt1" x="8008" y="1535" height="720px" width="720px" />
                           </g>
                           <g id="sat044z" class="stem">
                              <rect x="8216" y="968" height="539" width="18" />
                           </g>
                        </g>
                     </g>
                     <g id="b1p2dcmo" class="beam">
                        <polygon points="8780,860 9927,860 9927,950 8780,950" />
                        <polygon points="8780,995 9165,995 9165,1085 8780,1085" />
                        <polygon points="9165,995 9542,995 9542,1085 9165,1085" />
                        <polygon points="9542,995 9927,995 9927,1085 9542,1085" />
                        <g id="nc0c8bl" class="note">
                           <g class="notehead">
                              <use xlink:href="#E0A4-ntvlt1" x="8572" y="1625" height="720px" width="720px" />
                           </g>
                           <g id="s16m51t2" class="stem">
                              <rect x="8780" y="878" height="719" width="18" />
                           </g>
                        </g>
                        <g id="n3az6xv" class="note">
                           <g class="notehead">
                              <use xlink:href="#E0A4-ntvlt1" x="8948" y="1445" height="720px" width="720px" />
                           </g>
                           <g id="sb6xjo9" class="stem">
                              <rect x="9156" y="878" height="539" width="18" />
                           </g>
                           <g id="a12mf47r" class="accid" />
                        </g>
                        <g id="n126ngyt" class="note">
                           <g class="notehead">
                              <use xlink:href="#E0A4-ntvlt1" x="9325" y="1535" height="720px" width="720px" />
                           </g>
                           <g id="s1hjnbgl" class="stem">
                              <rect x="9533" y="878" height="629" width="18" />
                           </g>
                        </g>
                        <g id="n4rngc9" class="note">
                           <g class="notehead">
                              <use xlink:href="#E0A4-ntvlt1" x="9701" y="1445" height="720px" width="720px" />
                           </g>
                           <g id="s1rnbloq" class="stem">
                              <rect x="9909" y="878" height="539" width="18" />
                           </g>
                           <g id="ag3johv" class="accid" />
                        </g>
                     </g>
                  </g>
               </g>
               <g id="b11abdtz" class="barLine">
                  <path d="M10077 1085 L10077 1805" stroke="currentColor" stroke-width="27" />
               </g>
            </g>
            <g id="mpw1jn0" class="measure">
               <g id="s1a9w6g4" class="staff">
                  <path d="M10090 1085 L12923 1085" stroke="currentColor" stroke-width="13" />
                  <path d="M10090 1265 L12923 1265" stroke="currentColor" stroke-width="13" />
                  <path d="M10090 1445 L12923 1445" stroke="currentColor" stroke-width="13" />
                  <path d="M10090 1625 L12923 1625" stroke="currentColor" stroke-width="13" />
                  <path d="M10090 1805 L12923 1805" stroke="currentColor" stroke-width="13" />
                  <g id="lh2gei7" class="layer">
                     <g id="b15179ud" class="beam">
                        <polygon points="10276,1985 10859,1895 10859,1805 10276,1895" />
                        <g id="n1t9ls25" class="note">
                           <g class="notehead">
                              <use xlink:href="#E0A4-ntvlt1" x="10276" y="1355" height="720px" width="720px" />
                           </g>
                           <g id="s1mkzxbc" class="stem">
                              <rect x="10276" y="1383" height="584" width="18" />
                           </g>
                        </g>
                        <g id="n1vuupkk" class="note">
                           <g class="notehead">
                              <use xlink:href="#E0A4-ntvlt1" x="10841" y="1265" height="720px" width="720px" />
                           </g>
                           <g id="s1gsjivh" class="stem">
                              <rect x="10841" y="1293" height="584" width="18" />
                           </g>
                        </g>
                     </g>
                     <g id="b1ja5brp" class="beam">
                        <polygon points="11405,2120 12552,2120 12552,2030 11405,2030" />
                        <polygon points="11405,1985 11790,1985 11790,1895 11405,1895" />
                        <polygon points="11790,1985 12167,1985 12167,1895 11790,1895" />
                        <polygon points="12167,1985 12552,1985 12552,1895 12167,1895" />
                        <g id="nktwerb" class="note">
                           <g class="notehead">
                              <use xlink:href="#E0A4-ntvlt1" x="11405" y="1355" height="720px" width="720px" />
                           </g>
                           <g id="s19w9ue8" class="stem">
                              <rect x="11405" y="1383" height="719" width="18" />
                           </g>
                        </g>
                        <g id="ncc35fx" class="note">
                           <g class="notehead">
                              <use xlink:href="#E0A4-ntvlt1" x="11781" y="1445" height="720px" width="720px" />
                           </g>
                           <g id="svmkjrn" class="stem">
                              <rect x="11781" y="1473" height="629" width="18" />
                           </g>
                           <g id="a1epopew" class="accid" />
                        </g>
                        <g id="n1jf93kk" class="note">
                           <g class="notehead">
                              <use xlink:href="#E0A4-ntvlt1" x="12158" y="1535" height="720px" width="720px" />
                           </g>
                           <g id="s10djtli" class="stem">
                              <rect x="12158" y="1563" height="539" width="18" />
                           </g>
                        </g>
                        <g id="n6t0l10" class="note">
                           <g class="notehead">
                              <use xlink:href="#E0A4-ntvlt1" x="12534" y="1445" height="720px" width="720px" />
                           </g>
                           <g id="s1qtf431" class="stem">
                              <rect x="12534" y="1473" height="629" width="18" />
                           </g>
                           <g id="akltwpa" class="accid" />
                        </g>
                     </g>
                  </g>
               </g>
               <g id="b1o4s27o" class="barLine">
                  <path d="M12910 1085 L12910 1805" stroke="currentColor" stroke-width="27" />
               </g>
            </g>
            <g id="mbd46wr" class="measure">
               <g id="s1u4gm5f" class="staff">
                  <path d="M12923 1085 L14811 1085" stroke="currentColor" stroke-width="13" />
                  <path d="M12923 1265 L14811 1265" stroke="currentColor" stroke-width="13" />
                  <path d="M12923 1445 L14811 1445" stroke="currentColor" stroke-width="13" />
                  <path d="M12923 1625 L14811 1625" stroke="currentColor" stroke-width="13" />
                  <path d="M12923 1805 L14811 1805" stroke="currentColor" stroke-width="13" />
                  <g id="msdpw5j" class="meterSig">
                     <use xlink:href="#E081-ntvlt1" x="13032" y="1265" height="720px" width="720px" />
                     <use xlink:href="#E084-ntvlt1" x="12999" y="1625" height="720px" width="720px" />
                  </g>
                  <g id="l16gyo7n" class="layer">
                     <g id="n1yqnmbj" class="note">
                        <g class="notehead">
                           <use xlink:href="#E0A4-ntvlt1" x="13567" y="1625" height="720px" width="720px" />
                        </g>
                        <g id="s1sc6wlb" class="stem">
                           <rect x="13775" y="995" height="602" width="18" />
                        </g>
                     </g>
                  </g>
               </g>
               <g id="b1owoakd" class="barLine">
                  <path d="M14433 1085 L14433 1805" stroke="currentColor" stroke-width="27" />
                  <path d="M14563 1085 L14563 1805" stroke="currentColor" stroke-width="90" />
                  <path d="M14694 1085 L14694 1805" stroke="currentColor" stroke-width="27" />
                  <use xlink:href="#E044-ntvlt1" x="14739" y="1355" height="720px" width="720px" />
                  <use xlink:href="#E044-ntvlt1" x="14739" y="1535" height="720px" width="720px" />
                  <use xlink:href="#E044-ntvlt1" x="14316" y="1355" height="720px" width="720px" />
                  <use xlink:href="#E044-ntvlt1" x="14316" y="1535" height="720px" width="720px" />
               </g>
            </g>
            <g id="mrivk9g" class="measure">
               <g id="s1ab89hp" class="staff">
                  <path d="M14811 1085 L16514 1085" stroke="currentColor" stroke-width="13" />
                  <path d="M14811 1265 L16514 1265" stroke="currentColor" stroke-width="13" />
                  <path d="M14811 1445 L16514 1445" stroke="currentColor" stroke-width="13" />
                  <path d="M14811 1625 L16514 1625" stroke="currentColor" stroke-width="13" />
                  <path d="M14811 1805 L16514 1805" stroke="currentColor" stroke-width="13" />
                  <g id="lgimm8r" class="layer">
                     <g id="bd6pwww" class="beam">
                        <polygon points="14997,1895 16143,1715 16143,1625 14997,1805" />
                        <polygon points="14997,1760 15382,1700 15382,1610 14997,1670" />
                        <polygon points="15382,1700 15758,1640 15758,1550 15382,1610" />
                        <polygon points="15758,1640 16143,1580 16143,1490 15758,1550" />
                        <g id="n1pcmga8" class="note">
                           <g class="notehead">
                              <use xlink:href="#E0A4-ntvlt1" x="14997" y="1265" height="720px" width="720px" />
                           </g>
                           <g id="s4l2kcb" class="stem">
                              <rect x="14997" y="1293" height="584" width="18" />
                           </g>
                        </g>
                        <g id="n11s7y5p" class="note">
                           <g class="notehead">
                              <use xlink:href="#E0A4-ntvlt1" x="15373" y="1175" height="720px" width="720px" />
                           </g>
                           <g id="skgahkk" class="stem">
                              <rect x="15373" y="1203" height="614" width="18" />
                           </g>
                        </g>
                        <g id="n1n2b0fj" class="note">
                           <g class="notehead">
                              <use xlink:href="#E0A4-ntvlt1" x="15749" y="1085" height="720px" width="720px" />
                           </g>
                           <g id="s1vpdd4j" class="stem">
                              <rect x="15749" y="1113" height="644" width="18" />
                           </g>
                        </g>
                        <g id="nanr69w" class="note">
                           <g class="notehead">
                              <use xlink:href="#E0A4-ntvlt1" x="16125" y="995" height="720px" width="720px" />
                           </g>
                           <g id="s1j5jxzm" class="stem">
                              <rect x="16125" y="1023" height="674" width="18" />
                           </g>
                        </g>
                     </g>
                  </g>
               </g>
               <g id="bzit4h1" class="barLine">
                  <path d="M16501 1085 L16501 1805" stroke="currentColor" stroke-width="27" />
               </g>
            </g>
            <g id="m1f1boao" class="measure">
               <g id="s17uz8qr" class="staff">
                  <path d="M16514 1085 L20003 1085" stroke="currentColor" stroke-width="13" />
                  <path d="M16514 1265 L20003 1265" stroke="currentColor" stroke-width="13" />
                  <path d="M16514 1445 L20003 1445" stroke="currentColor" stroke-width="13" />
                  <path d="M16514 1625 L20003 1625" stroke="currentColor" stroke-width="13" />
                  <path d="M16514 1805 L20003 1805" stroke="currentColor" stroke-width="13" />
                  <g id="m81wqu1" class="meterSig">
                     <use xlink:href="#E082-ntvlt1" x="16590" y="1265" height="720px" width="720px" />
                     <use xlink:href="#E084-ntvlt1" x="16595" y="1625" height="720px" width="720px" />
                  </g>
                  <g id="l9cmie" class="layer">
                     <g id="b1vuase8" class="beam">
                        <polygon points="17169,1850 17939,1850 17939,1760 17169,1760" />
                        <polygon points="17169,1715 17554,1715 17554,1625 17169,1625" />
                        <g id="npxddd1" class="note">
                           <g class="notehead">
                              <use xlink:href="#E0A4-ntvlt1" x="17169" y="1265" height="720px" width="720px" />
                           </g>
                           <g id="svbyduv" class="stem">
                              <rect x="17169" y="1293" height="539" width="18" />
                           </g>
                        </g>
                        <g id="nxwn761" class="note">
                           <g class="notehead">
                              <use xlink:href="#E0A4-ntvlt1" x="17545" y="1175" height="720px" width="720px" />
                           </g>
                           <g id="sl0jo1g" class="stem">
                              <rect x="17545" y="1203" height="629" width="18" />
                           </g>
                        </g>
                        <g id="n122nk9v" class="note">
                           <g class="notehead">
                              <use xlink:href="#E0A4-ntvlt1" x="17921" y="1265" height="720px" width="720px" />
                           </g>
                           <g id="s16omh5h" class="stem">
                              <rect x="17921" y="1293" height="539" width="18" />
                           </g>
                        </g>
                     </g>
                     <g id="be9qe6" class="beam">
                        <polygon points="18486,1895 19632,1715 19632,1625 18486,1805" />
                        <polygon points="18486,1760 18871,1700 18871,1610 18486,1670" />
                        <polygon points="18871,1700 19247,1640 19247,1550 18871,1610" />
                        <polygon points="19247,1640 19632,1580 19632,1490 19247,1550" />
                        <g id="n9pilqo" class="note">
                           <g class="notehead">
                              <use xlink:href="#E0A4-ntvlt1" x="18486" y="1265" height="720px" width="720px" />
                           </g>
                           <g id="sxwgdmj" class="stem">
                              <rect x="18486" y="1293" height="584" width="18" />
                           </g>
                        </g>
                        <g id="n120yj4l" class="note">
                           <g class="notehead">
                              <use xlink:href="#E0A4-ntvlt1" x="18862" y="1175" height="720px" width="720px" />
                           </g>
                           <g id="st934wb" class="stem">
                              <rect x="18862" y="1203" height="614" width="18" />
                           </g>
                        </g>
                        <g id="nukgmjk" class="note">
                           <g class="notehead">
                              <use xlink:href="#E0A4-ntvlt1" x="19238" y="1085" height="720px" width="720px" />
                           </g>
                           <g id="s197bexp" class="stem">
                              <rect x="19238" y="1113" height="644" width="18" />
                           </g>
                        </g>
                        <g id="nflqeq8" class="note">
                           <g class="notehead">
                              <use xlink:href="#E0A4-ntvlt1" x="19614" y="995" height="720px" width="720px" />
                           </g>
                           <g id="srx23og" class="stem">
                              <rect x="19614" y="1023" height="674" width="18" />
                           </g>
                        </g>
                     </g>
                  </g>
               </g>
               <g id="b1vcka00" class="barLine">
                  <path d="M19990 1085 L19990 1805" stroke="currentColor" stroke-width="27" />
               </g>
            </g>
            <g id="szkag9z" class="sb" />
         </g>
         <g id="s1k0t4jk" class="system">
            <g id="lmnpecu" class="labelAbbr">
               <text x="914" y="3705" text-anchor="end" font-size="0px">
                  <tspan id="th66xd4" class="text">
                     <tspan font-size="405px" class="text">Pno.</tspan>
                  </tspan>
               </text>
            </g>
            <g id="m193is67" class="measure">
               <g id="mjj9ox" class="mNum autogenerated">
                  <text x="1094" y="3012" text-anchor="middle" font-size="0px">
                     <tspan id="tjxhfvm" class="text">
                        <tspan font-size="324px" class="text">7</tspan>
                     </tspan>
                  </text>
               </g>
               <g id="s1hdbb8y" class="staff">
                  <path d="M1094 3255 L4554 3255" stroke="currentColor" stroke-width="13" />
                  <path d="M1094 3435 L4554 3435" stroke="currentColor" stroke-width="13" />
                  <path d="M1094 3615 L4554 3615" stroke="currentColor" stroke-width="13" />
                  <path d="M1094 3795 L4554 3795" stroke="currentColor" stroke-width="13" />
                  <path d="M1094 3975 L4554 3975" stroke="currentColor" stroke-width="13" />
                  <g id="c14a5u88" class="clef">
                     <use xlink:href="#E050-ntvlt1" x="1184" y="3795" height="720px" width="720px" />
                  </g>
                  <g id="k1r30gh" class="keySig">
                     <g id="kllzwh2" class="keyAccid">
                        <use xlink:href="#E260-ntvlt1" x="1829" y="3615" height="720px" width="720px" />
                     </g>
                  </g>
                  <g id="lq7r8y5" class="layer">
                     <g id="n1drxail" class="note">
                        <g class="notehead">
                           <use xlink:href="#E0A4-ntvlt1" x="2241" y="3435" height="720px" width="720px" />
                        </g>
                        <g id="sfqwkno" class="stem">
                           <rect x="2241" y="3463" height="602" width="18" />
                        </g>
                     </g>
                     <g id="b2uyyvs" class="beam">
                        <polygon points="3081,4065 4194,3885 4194,3795 3081,3975" />
                        <polygon points="3081,3930 3455,3870 3455,3780 3081,3840" />
                        <polygon points="3455,3870 3820,3810 3820,3720 3455,3780" />
                        <polygon points="3820,3810 4194,3750 4194,3660 3820,3720" />
                        <g id="n7yymf7" class="note">
                           <g class="notehead">
                              <use xlink:href="#E0A4-ntvlt1" x="3081" y="3435" height="720px" width="720px" />
                           </g>
                           <g id="s1wr1hnt" class="stem">
                              <rect x="3081" y="3463" height="584" width="18" />
                           </g>
                        </g>
                        <g id="n7ybrvh" class="note">
                           <g class="notehead">
                              <use xlink:href="#E0A4-ntvlt1" x="3446" y="3165" height="720px" width="720px" />
                           </g>
                           <g id="s5qa42r" class="stem">
                              <rect x="3446" y="3193" height="794" width="18" />
                           </g>
                        </g>
                        <g id="nqqpe4d" class="note">
                           <g class="notehead">
                              <use xlink:href="#E0A4-ntvlt1" x="3811" y="3255" height="720px" width="720px" />
                           </g>
                           <g id="s1x8pvah" class="stem">
                              <rect x="3811" y="3283" height="644" width="18" />
                           </g>
                        </g>
                        <g id="nqxf21j" class="note">
                           <g class="notehead">
                              <use xlink:href="#E0A4-ntvlt1" x="4176" y="3165" height="720px" width="720px" />
                           </g>
                           <g id="s1u943ll" class="stem">
                              <rect x="4176" y="3193" height="674" width="18" />
                           </g>
                        </g>
                     </g>
                  </g>
               </g>
               <g id="b1lbi834" class="barLine">
                  <path d="M4541 3255 L4541 3975" stroke="currentColor" stroke-width="27" />
               </g>
            </g>
            <g id="m1o1i8b7" class="measure">
               <g id="s1cv2vvn" class="staff">
                  <path d="M4554 3255 L7485 3255" stroke="currentColor" stroke-width="13" />
                  <path d="M4554 3435 L7485 3435" stroke="currentColor" stroke-width="13" />
                  <path d="M4554 3615 L7485 3615" stroke="currentColor" stroke-width="13" />
                  <path d="M4554 3795 L7485 3795" stroke="currentColor" stroke-width="13" />
                  <path d="M4554 3975 L7485 3975" stroke="currentColor" stroke-width="13" />
                  <g id="l26c22v" class="layer">
                     <g id="b10tsrkm" class="beam">
                        <polygon points="4734,4020 5482,4020 5482,3930 4734,3930" />
                        <polygon points="4734,3885 5108,3885 5108,3795 4734,3795" />
                        <g id="nei79gh" class="note">
                           <g class="notehead">
                              <use xlink:href="#E0A4-ntvlt1" x="4734" y="3435" height="720px" width="720px" />
                           </g>
                           <g id="s1b0p3hs" class="stem">
                              <rect x="4734" y="3463" height="539" width="18" />
                           </g>
                        </g>
                        <g id="nvvbn02" class="note">
                           <g class="notehead">
                              <use xlink:href="#E0A4-ntvlt1" x="5099" y="3345" height="720px" width="720px" />
                           </g>
                           <g id="s18jp8ha" class="stem">
                              <rect x="5099" y="3373" height="629" width="18" />
                           </g>
                        </g>
                        <g id="nyopn65" class="note">
                           <g class="notehead">
                              <use xlink:href="#E0A4-ntvlt1" x="5464" y="3435" height="720px" width="720px" />
                           </g>
                           <g id="sxy7zy5" class="stem">
                              <rect x="5464" y="3463" height="539" width="18" />
                           </g>
                        </g>
                     </g>
                     <g id="b1u07u9f" class="beam">
                        <polygon points="6012,4065 7125,3885 7125,3795 6012,3975" />
                        <polygon points="6012,3930 6386,3870 6386,3780 6012,3840" />
                        <polygon points="6386,3870 6751,3810 6751,3720 6386,3780" />
                        <polygon points="6751,3810 7125,3750 7125,3660 6751,3720" />
                        <g id="n7pn4ht" class="note">
                           <g class="notehead">
                              <use xlink:href="#E0A4-ntvlt1" x="6012" y="3435" height="720px" width="720px" />
                           </g>
                           <g id="s178jzno" class="stem">
                              <rect x="6012" y="3463" height="584" width="18" />
                           </g>
                        </g>
                        <g id="n1pgn6kf" class="note">
                           <g class="notehead">
                              <use xlink:href="#E0A4-ntvlt1" x="6377" y="3165" height="720px" width="720px" />
                           </g>
                           <g id="savyvnr" class="stem">
                              <rect x="6377" y="3193" height="794" width="18" />
                           </g>
                        </g>
                        <g id="n17usxna" class="note">
                           <g class="notehead">
                              <use xlink:href="#E0A4-ntvlt1" x="6742" y="3255" height="720px" width="720px" />
                           </g>
                           <g id="s2p3zak" class="stem">
                              <rect x="6742" y="3283" height="644" width="18" />
                           </g>
                        </g>
                        <g id="n1phtopr" class="note">
                           <g class="notehead">
                              <use xlink:href="#E0A4-ntvlt1" x="7107" y="3165" height="720px" width="720px" />
                           </g>
                           <g id="skyxwlr" class="stem">
                              <rect x="7107" y="3193" height="674" width="18" />
                           </g>
                        </g>
                     </g>
                  </g>
               </g>
               <g id="b13e2cz1" class="barLine">
                  <path d="M7472 3255 L7472 3975" stroke="currentColor" stroke-width="27" />
               </g>
            </g>
            <g id="m1kf5qis" class="measure">
               <g id="s14hz28m" class="staff">
                  <path d="M7485 3255 L9138 3255" stroke="currentColor" stroke-width="13" />
                  <path d="M7485 3435 L9138 3435" stroke="currentColor" stroke-width="13" />
                  <path d="M7485 3615 L9138 3615" stroke="currentColor" stroke-width="13" />
                  <path d="M7485 3795 L9138 3795" stroke="currentColor" stroke-width="13" />
                  <path d="M7485 3975 L9138 3975" stroke="currentColor" stroke-width="13" />
                  <g id="mfodkzc" class="meterSig">
                     <use xlink:href="#E081-ntvlt1" x="7594" y="3435" height="720px" width="720px" />
                     <use xlink:href="#E084-ntvlt1" x="7561" y="3795" height="720px" width="720px" />
                  </g>
                  <g id="l1f47vea" class="layer">
                     <g id="n16m192x" class="note">
                        <g class="notehead">
                           <use xlink:href="#E0A4-ntvlt1" x="8123" y="3435" height="720px" width="720px" />
                        </g>
                        <g id="s11uiyse" class="stem">
                           <rect x="8123" y="3463" height="602" width="18" />
                        </g>
                     </g>
                  </g>
               </g>
               <g id="d12r9fok" class="dir fine">
                  <text x="8963" y="3127" text-anchor="end" font-size="0px">
                     <tspan id="rhgarpf" class="rend">
                        <tspan id="tjij05j" class="text">
                           <tspan font-size="405px" class="text">Fine</tspan>
                        </tspan>
                     </tspan>
                  </text>
               </g>
               <g id="b1opm3tk" class="barLine">
                  <path d="M8963 3255 L8963 3975" stroke="currentColor" stroke-width="27" />
                  <path d="M9093 3255 L9093 3975" stroke="currentColor" stroke-width="90" />
               </g>
            </g>
            <g id="shkwlp3" class="systemMilestoneEnd s1esbj8u" />
         </g>
         <g id="p7nw9t9" class="pageMilestoneEnd sj8oxj7" />
         <g id="p1k4gnmr" class="pageMilestoneEnd mvx0yw0" />
         <g id="p15rxmt9" class="pgHead">
            <text x="0" y="0" font-size="0px">
               <tspan id="rxfb4t2" class="rend" x="10000" y="277" text-anchor="middle">
                  <tspan id="t150ecy7" class="text">
                     <tspan font-size="405px" class="text">Air n 112</tspan>
                  </tspan>
               </tspan>
            </text>
         </g>
         <g id="p7dajqn" class="pgFoot autogenerated">
            <g id="f174cur0" class="fig">
               <g id="s1wyg5q8" class="svg" transform="translate(7750, 28099) scale(10, 10)">
                  <g>
                     <path fill="#00000" d="M 17.11278,49.26451 V 10.367554 h 12.696511 c 3.288815,7.336676 6.71267,14.610456 10.127281,21.888976 3.419998,-7.484684 6.255515,-14.204887 9.58887,-21.909915 2.436207,0.103726 4.316952,0.08453 6.484294,-0.05808 V 49.264423 H 50.274275 C 50.145222,38.35639 50.016136,27.448368 49.887066,16.540329 45.003488,27.315459 39.967448,38.433564 35.083854,49.208695 34.678996,49.343717 34.426583,49.135619 34.021726,49.270644 29.46588,39.330716 24.910049,29.390805 20.354201,19.450876 20.224341,29.388756 20.09461,39.326619 19.964815,49.264497 H 17.11278 Z M 36.754144,39.324695 C 32.721221,30.512695 28.6883,21.700679 24.655394,12.888662 22.530527,12.750737 22.656775,12.71031 20.714356,12.813974 v 0.966497 c 4.612938,9.99784 9.609439,20.748709 13.87298,30.081745 0.722248,-1.512523 1.444528,-3.025014 2.166808,-4.537521 z m 25.738417,9.939815 c 0,-12.965651 0,-25.931305 0,-38.896956 10.084388,0 20.168791,0 30.253178,0 0,0.960416 0,1.920849 0,2.881265 -6.482825,0 -12.965652,0 -19.448478,0 0,4.802097 0,9.604178 0,14.406277 5.52241,0 11.044819,0 16.567229,0 0,0.960415 0,1.920832 0,2.881248 -5.52241,0 -11.044819,0 -16.567229,0 0,5.282306 0,10.564611 0,15.846917 6.963035,0 13.926068,0 20.889103,0 0,0.960416 0,1.920832 0,2.881249 -10.564597,0 -21.129207,0 -31.693803,0 z m 4.321874,-2.160937 c 0,-11.765131 0,-23.530263 0,-35.295394 -0.720312,0 -1.440625,0 -2.160937,0 0,11.765131 0,23.530263 0,35.295394 0.720312,0 1.440625,0 2.160937,0 z m 32.41413,2.160937 c 0,-12.965651 0,-25.931305 0,-38.896956 2.401045,0 4.802095,0 7.203135,0 0,12.965651 0,25.931305 0,38.896956 -2.40104,0 -4.80209,0 -7.203135,0 z m 2.881265,-2.160937 c 0,-11.765131 0,-23.530263 0,-35.295394 -0.72031,0 -1.44064,0 -2.160953,0 0,11.765131 0,23.530263 0,35.295394 0.720313,0 1.440643,0 2.160953,0 z" />
                     <path fill="#00000" d="m 346.3,6.7 c -3.1,0.5 -4.9,4.4 -2.7,6.8 1.2,1.4 2.7,2.4 4.1,3.5 -2.4,5.3 -7.7,8.3 -11.9,12.1 -3.7,2.8 -7,6.2 -9.7,9.9 -2.2,-0.8 -0.3,-6.8 -0.6,-9.5 0.1,-3.1 0.7,-6.4 2.9,-8.7 1.3,-1.9 3,-3.5 4.5,-5.2 1.2,-3.4 -3.2,-4.9 -5.8,-4.6 -7.3,-0.5 -14.6,2 -20,6.8 -5,4.6 -10,10.1 -11.5,17 -0.9,3.5 -0.2,7.5 2.8,9.9 2.5,2.8 7.4,2.9 9.8,-0.2 1.7,-2.3 3.2,-4.8 3.8,-7.6 -0.1,-2.6 -4.4,-2.3 -4.3,0.2 1.2,2.4 -0.9,4.7 -2.7,6.2 -1.7,0.9 -4.7,0.7 -4.8,-1.7 -1,-5.8 2.1,-11.3 5.2,-16.1 4,-5.8 9.8,-11.2 17.2,-11.8 1.6,0 8.1,-1.2 6.8,1.4 -2.8,2.8 -5.6,6.1 -6,10.3 -1.6,7.7 0.1,15.7 -2.3,23.2 -1.1,3.9 2,2.6 2.5,0.2 3.3,-7.4 8.9,-13.4 15.1,-18.5 4.2,-3.9 9.5,-7.1 11.9,-12.6 1.3,-3.6 1.2,-9 -2.7,-10.9 -0.6,-0.2 -1.2,-0.3 -1.8,-0.3 z m 66,14.5 c -2,0.8 -1.8,4.9 0.8,4.4 3.4,0.4 2.9,-6.2 -0.8,-4.4 z m 0.6,7.3 c -1.3,0.5 -7.6,0.5 -5.4,2.2 4,-0.3 0.7,4.5 0.6,6.7 -0.4,2.9 -2.4,5.9 -1.2,8.8 2.7,1.7 5.6,-0.8 6.8,-3.2 1.6,-1.4 -0.5,-3 -1.2,-0.9 -0.4,0.8 -2.4,3.5 -2.6,1.8 1.1,-5 2.7,-9.9 3.9,-14.9 l -0.1,-0.5 h -0.9 z m -65.1,0.2 c -6.5,1.6 -10.5,9.5 -8.2,15.7 2.1,3.4 7.4,2.9 10.1,0.4 2,-0.2 3.6,-5.3 1,-3.4 -1.4,2 -4,4.2 -6.5,2.8 -2.2,-1.9 -1.9,-5.7 1.7,-5.3 3.1,-0.9 6.9,-2.1 8.1,-5.5 0.9,-2.7 -1.6,-5.2 -4.3,-4.8 h -1.1 -0.7 z m 13.6,0 c -2.2,0 -8.5,1.8 -2.9,2.3 0.9,1.9 -1,4.9 -1.1,7.2 -0.5,2.9 -1.4,5.7 -1.7,8.7 3.7,0.7 3.8,-2.6 4.4,-5.3 0.9,-3.3 1.6,-7 4.1,-9.5 2.4,1.6 6.8,-0.7 3.7,-3.4 -2.9,-0.5 -4.8,2.4 -6.2,4.3 0,-1.2 2.4,-5 -0.2,-4.3 z m 15.8,0 c -6.4,1.3 -9.6,9.1 -7.7,14.9 1.9,4 7.7,3.9 11,1.7 4.1,-3 6,-8.9 4.4,-13.7 -1.3,-3 -4.8,-3.2 -7.6,-3 z m 17,0 c -2.3,0 -8.8,1.9 -3,2.4 0.4,2.5 -1,5.7 -1.4,8.4 -0.7,2.4 -1.8,7.5 2.1,7.2 3.8,-0.1 6.5,-3.5 8.5,-6.3 2,-3.2 4.5,-7 3.3,-10.9 -3.7,-3 -3.6,2.6 -3.1,5.1 -0.7,3.8 -2.7,7.9 -6.2,9.8 -3.6,0.6 -1,-4.3 -0.8,-6.1 0.6,-3.2 1.6,-6.3 1.9,-9.5 -0.4,0 -0.8,0 -1.1,0 z m 30.6,0 c -6.3,1.2 -9.5,8.9 -7.8,14.7 1.5,4 7.2,4.2 10.5,2.4 4.6,-2.8 6.6,-9.3 4.8,-14.3 -1.4,-2.8 -4.8,-3 -7.5,-2.8 z m -75.4,1.7 c 2.1,1.5 0.2,4.7 -1.6,5.7 -1.1,0.4 -5.5,3.4 -4.6,0.7 0.8,-2.7 2.2,-6.2 5.3,-6.6 l 0.9,0.1 z m 30.8,0 c 2.6,1.5 1.3,5.2 0.8,7.6 -0.8,2.7 -1.9,5.9 -4.7,7.1 -5.1,0.8 -4,-5.8 -2.8,-8.8 1,-2.8 3,-6.8 6.7,-5.8 z m 47.1,-0.1 c 2.9,0.7 2,4.7 1.5,6.8 -0.7,3 -1.8,6.7 -5,8 -4.7,0.8 -4,-5.1 -3,-7.9 0.9,-3 2.7,-7.3 6.5,-6.8 z m -88.1,5.9 c -0.3,1.3 0.9,-0.6 0,0 z m -1.1,2.4 c -0.2,0.5 0.5,-0.1 0,0 z m -1.3,4.5 c -0.3,1.3 0.8,-0.2 0,0 z" />
                     <text y="41" x="201" fill="#00000" style="font-style:italic;font-weight:normal;font-size:30px;line-height:125%;font-family:Times;text-anchor:middle" xml:space="preserve">engraved with</text>
                  </g>
               </g>
            </g>
         </g>
      </g>
   </svg>
</svg>
