<?xml version="1.0" encoding="UTF-8" standalone="no"?>
<svg width="2100px" height="2970px" version="1.1" xmlns="http://www.w3.org/2000/svg" xmlns:xlink="http://www.w3.org/1999/xlink" xmlns:mei="http://www.music-encoding.org/ns/mei" overflow="visible">
   <desc>Engraved by Verovio 3.13.1</desc>
   <defs>
      <symbol id="E044-r32yn4" viewBox="0 0 1000 1000" overflow="inherit">
         <path transform="scale(1,-1)" d="M0 0c0 28 22 50 50 50s50 -22 50 -50s-22 -50 -50 -50s-50 22 -50 50z" />
      </symbol>
      <symbol id="E050-r32yn4" viewBox="0 0 1000 1000" overflow="inherit">
         <path transform="scale(1,-1)" d="M441 -245c-23 -4 -48 -6 -76 -6c-59 0 -102 7 -130 20c-88 42 -150 93 -187 154c-26 44 -43 103 -48 176c0 6 -1 13 -1 19c0 54 15 111 45 170c29 57 65 106 110 148s96 85 153 127c-3 16 -8 46 -13 92c-4 43 -5 73 -5 89c0 117 16 172 69 257c34 54 64 82 89 82 c21 0 43 -30 69 -92s39 -115 41 -159v-15c0 -109 -21 -162 -67 -241c-13 -20 -63 -90 -98 -118c-13 -9 -25 -19 -37 -29l31 -181c8 1 18 2 28 2c58 0 102 -12 133 -35c59 -43 92 -104 98 -184c1 -7 1 -15 1 -22c0 -123 -87 -209 -181 -248c8 -57 17 -110 25 -162 c5 -31 6 -58 6 -80c0 -30 -5 -53 -14 -70c-35 -64 -88 -99 -158 -103c-5 0 -11 -1 -16 -1c-37 0 -72 10 -108 27c-50 24 -77 59 -80 105v11c0 29 7 55 20 76c18 28 45 42 79 44h6c49 0 93 -42 97 -87v-9c0 -51 -34 -86 -105 -106c17 -24 51 -36 102 -36c62 0 116 43 140 85 c9 16 13 41 13 74c0 20 -1 42 -5 67c-8 53 -18 106 -26 159zM461 939c-95 0 -135 -175 -135 -286c0 -24 2 -48 5 -71c50 39 92 82 127 128c40 53 60 100 60 140v8c-4 53 -22 81 -55 81h-2zM406 119l54 -326c73 25 110 78 110 161c0 7 0 15 -1 23c-7 95 -57 142 -151 142h-12 zM382 117c-72 -2 -128 -47 -128 -120v-7c2 -46 43 -99 75 -115c-3 -2 -7 -5 -10 -10c-70 33 -116 88 -123 172v11c0 68 44 126 88 159c23 17 49 29 78 36l-29 170c-21 -13 -52 -37 -92 -73c-50 -44 -86 -84 -109 -119c-45 -69 -67 -130 -67 -182v-13c5 -68 35 -127 93 -176 s125 -73 203 -73c25 0 50 3 75 9c-19 111 -36 221 -54 331z" />
      </symbol>
      <symbol id="E082-r32yn4" viewBox="0 0 1000 1000" overflow="inherit">
         <path transform="scale(1,-1)" d="M124 -185c-18 0 -55 -14 -65 -65h-36l-3 30c0 25 6 45 18 63c11 19 22 30 39 43l121 82l37 29c15 11 27 29 38 54c12 24 18 47 18 70c0 40 -19 88 -94 88c-25 0 -32 0 -50 -8c-14 -5 -23 -12 -26 -22c3 -9 7 -15 10 -18l24 -17c12 -7 17 -11 27 -21c5 -7 7 -16 7 -27 c0 -12 0 -57 -79 -74c-30 0 -76 26 -76 94c0 66 81 135 197 135c72 0 181 -32 181 -150c0 -53 -32 -95 -113 -133l-91 -41c-26 -11 -45 -23 -57 -37l49 7c84 0 115 -41 148 -41c20 0 33 20 39 61h35c0 -152 -68 -168 -114 -168c-17 0 -65 0 -79 7h10l-28 17 c-49 37 -69 40 -87 42z" />
      </symbol>
      <symbol id="E084-r32yn4" viewBox="0 0 1000 1000" overflow="inherit">
         <path transform="scale(1,-1)" d="M20 -78c84 97 114 180 134 329h170c-13 -32 -82 -132 -99 -151l-84 -97c-33 -36 -59 -63 -80 -81h162v102l127 123v-225h57v-39h-57v-34c0 -43 19 -65 57 -65v-34h-244v36c48 0 60 26 60 70v27h-203v39z" />
      </symbol>
      <symbol id="E0A4-r32yn4" viewBox="0 0 1000 1000" overflow="inherit">
         <path transform="scale(1,-1)" d="M0 -39c0 68 73 172 200 172c66 0 114 -37 114 -95c0 -84 -106 -171 -218 -171c-64 0 -96 30 -96 94z" />
      </symbol>
      <symbol id="E260-r32yn4" viewBox="0 0 1000 1000" overflow="inherit">
         <path transform="scale(1,-1)" d="M20 110c32 16 54 27 93 27c26 0 35 -3 54 -13c13 -7 24 -20 27 -38l4 -25c0 -28 -16 -57 -45 -89c-23 -25 -39 -44 -65 -68l-88 -79v644h20v-359zM90 106c-32 0 -48 -10 -70 -29v-194c31 31 54 59 71 84c21 32 32 59 32 84c0 9 1 16 1 20c0 14 -3 21 -11 30l-8 3z" />
      </symbol>
   </defs>
   <style type="text/css">g.page-margin{font-family:Times;} g.ending, g.fing, g.reh, g.tempo{font-weight:bold;} g.dir, g.dynam, g.mNum{font-style:italic;} g.label{font-weight:normal;}</style>
   <svg class="definition-scale" color="black" viewBox="0 0 21000 29700">
      <g class="page-margin" transform="translate(500, 500)">
         <g id="m3718y1" class="mdiv pageMilestone" />
         <g id="s3mqyw7" class="score pageMilestone" />
         <g id="s1rn9e6v" class="system">
            <g id="lfrbr48" class="label">
               <text x="1105" y="1535" text-anchor="end" font-size="0px">
                  <tspan id="t7n9hf0" class="text">
                     <tspan font-size="405px" class="text">Piano</tspan>
                  </tspan>
               </text>
            </g>
            <g id="s1yu3ei8" class="section systemMilestone" />
            <g id="piyxqx3" class="pb" />
            <g id="m1v35kd7" class="measure">
               <g id="s80k3ns" class="staff">
                  <path d="M1285 1085 L4697 1085" stroke="currentColor" stroke-width="13" />
                  <path d="M1285 1265 L4697 1265" stroke="currentColor" stroke-width="13" />
                  <path d="M1285 1445 L4697 1445" stroke="currentColor" stroke-width="13" />
                  <path d="M1285 1625 L4697 1625" stroke="currentColor" stroke-width="13" />
                  <path d="M1285 1805 L4697 1805" stroke="currentColor" stroke-width="13" />
                  <g id="c116al7z" class="clef">
                     <use xlink:href="#E050-r32yn4" x="1375" y="1625" height="720px" width="720px" />
                  </g>
                  <g id="k18dicec" class="keySig">
                     <g id="k1mcuqkm" class="keyAccid">
                        <use xlink:href="#E260-r32yn4" x="2020" y="1445" height="720px" width="720px" />
                     </g>
                  </g>
                  <g id="m1kj9yzf" class="meterSig">
                     <use xlink:href="#E082-r32yn4" x="2328" y="1265" height="720px" width="720px" />
                     <use xlink:href="#E084-r32yn4" x="2333" y="1625" height="720px" width="720px" />
                  </g>
                  <g id="l1lrap15" class="layer">
                     <g id="n1dia7as" class="note">
                        <g class="notehead">
                           <use xlink:href="#E0A4-r32yn4" x="2900" y="1445" height="720px" width="720px" />
                        </g>
                        <g id="syrog8y" class="stem">
                           <rect x="2900" y="1473" height="572" width="18" />
                        </g>
                        <g id="asd7a74" class="accid" />
                     </g>
                     <g id="b7db935" class="beam">
                        <polygon points="3883,860 4405,905 4405,995 3883,950" />
                        <g id="nd5y9ph" class="note">
                           <g class="notehead">
                              <use xlink:href="#E0A4-r32yn4" x="3675" y="1535" height="720px" width="720px" />
                           </g>
                           <g id="s18kzx65" class="stem">
                              <rect x="3883" y="878" height="629" width="18" />
                           </g>
                        </g>
                        <g id="n11fjcs4" class="note">
                           <g class="notehead">
                              <use xlink:href="#E0A4-r32yn4" x="4179" y="1625" height="720px" width="720px" />
                           </g>
                           <g id="s1vd1p4t" class="stem">
                              <rect x="4387" y="923" height="674" width="18" />
                           </g>
                        </g>
                     </g>
                  </g>
               </g>
               <g id="bb5d0ao" class="barLine">
                  <path d="M4684 1085 L4684 1805" stroke="currentColor" stroke-width="27" />
               </g>
            </g>
            <g id="m1xkcl4a" class="measure">
               <g id="saf1gnd" class="staff">
                  <path d="M4697 1085 L6908 1085" stroke="currentColor" stroke-width="13" />
                  <path d="M4697 1265 L6908 1265" stroke="currentColor" stroke-width="13" />
                  <path d="M4697 1445 L6908 1445" stroke="currentColor" stroke-width="13" />
                  <path d="M4697 1625 L6908 1625" stroke="currentColor" stroke-width="13" />
                  <path d="M4697 1805 L6908 1805" stroke="currentColor" stroke-width="13" />
                  <g id="l1snmmpy" class="layer">
                     <g id="b1pnt3aq" class="beam">
                        <polygon points="5084,860 5607,905 5607,995 5084,950" />
                        <g id="n9u07vq" class="note">
                           <g class="notehead">
                              <use xlink:href="#E0A4-r32yn4" x="4876" y="1535" height="720px" width="720px" />
                           </g>
                           <g id="sdnft0l" class="stem">
                              <rect x="5084" y="878" height="629" width="18" />
                           </g>
                        </g>
                        <g id="n11vp5hc" class="note">
                           <g class="notehead">
                              <use xlink:href="#E0A4-r32yn4" x="5381" y="1715" height="720px" width="720px" />
                           </g>
                           <g id="scou5ym" class="stem">
                              <rect x="5589" y="923" height="764" width="18" />
                           </g>
                        </g>
                     </g>
                     <g id="bzd3jwn" class="beam">
                        <polygon points="6094,905 6617,860 6617,950 6094,995" />
                        <g id="n1ntcv6v" class="note">
                           <g class="notehead">
                              <use xlink:href="#E0A4-r32yn4" x="5886" y="1625" height="720px" width="720px" />
                           </g>
                           <g id="s1oo0plf" class="stem">
                              <rect x="6094" y="923" height="674" width="18" />
                           </g>
                        </g>
                        <g id="n1cbufhc" class="note">
                           <g class="notehead">
                              <use xlink:href="#E0A4-r32yn4" x="6391" y="1535" height="720px" width="720px" />
                           </g>
                           <g id="s1se4nlv" class="stem">
                              <rect x="6599" y="878" height="629" width="18" />
                           </g>
                        </g>
                     </g>
                  </g>
               </g>
               <g id="b149ox46" class="barLine">
                  <path d="M6895 1085 L6895 1805" stroke="currentColor" stroke-width="27" />
               </g>
            </g>
            <g id="m1pe65l8" class="measure">
               <g id="su29qb5" class="staff">
                  <path d="M6908 1085 L8884 1085" stroke="currentColor" stroke-width="13" />
                  <path d="M6908 1265 L8884 1265" stroke="currentColor" stroke-width="13" />
                  <path d="M6908 1445 L8884 1445" stroke="currentColor" stroke-width="13" />
                  <path d="M6908 1625 L8884 1625" stroke="currentColor" stroke-width="13" />
                  <path d="M6908 1805 L8884 1805" stroke="currentColor" stroke-width="13" />
                  <g id="l12vb13b" class="layer">
                     <g id="nrykb3p" class="note">
                        <g class="notehead">
                           <use xlink:href="#E0A4-r32yn4" x="7087" y="1445" height="720px" width="720px" />
                        </g>
                        <g id="s1pj5pcs" class="stem">
                           <rect x="7087" y="1473" height="572" width="18" />
                        </g>
                        <g id="a1ik5066" class="accid" />
                     </g>
                     <g id="b1mcxxv8" class="beam">
                        <polygon points="8070,860 8592,905 8592,995 8070,950" />
                        <g id="nxn5ha1" class="note">
                           <g class="notehead">
                              <use xlink:href="#E0A4-r32yn4" x="7862" y="1535" height="720px" width="720px" />
                           </g>
                           <g id="s165b576" class="stem">
                              <rect x="8070" y="878" height="629" width="18" />
                           </g>
                        </g>
                        <g id="nvbmhox" class="note">
                           <g class="notehead">
                              <use xlink:href="#E0A4-r32yn4" x="8366" y="1625" height="720px" width="720px" />
                           </g>
                           <g id="swgd9ye" class="stem">
                              <rect x="8574" y="923" height="674" width="18" />
                           </g>
                        </g>
                     </g>
                  </g>
               </g>
               <g id="b51qmm1" class="barLine">
                  <path d="M8871 1085 L8871 1805" stroke="currentColor" stroke-width="27" />
               </g>
            </g>
            <g id="mtgv0vj" class="measure">
               <g id="s1jhjf84" class="staff">
                  <path d="M8884 1085 L11225 1085" stroke="currentColor" stroke-width="13" />
                  <path d="M8884 1265 L11225 1265" stroke="currentColor" stroke-width="13" />
                  <path d="M8884 1445 L11225 1445" stroke="currentColor" stroke-width="13" />
                  <path d="M8884 1625 L11225 1625" stroke="currentColor" stroke-width="13" />
                  <path d="M8884 1805 L11225 1805" stroke="currentColor" stroke-width="13" />
                  <g id="loz382z" class="layer">
                     <g id="bhwcaxc" class="beam">
                        <polygon points="9271,860 9794,905 9794,995 9271,950" />
                        <g id="n1f2826r" class="note">
                           <g class="notehead">
                              <use xlink:href="#E0A4-r32yn4" x="9063" y="1535" height="720px" width="720px" />
                           </g>
                           <g id="s1ig81tz" class="stem">
                              <rect x="9271" y="878" height="629" width="18" />
                           </g>
                        </g>
                        <g id="nt5fi2n" class="note">
                           <g class="notehead">
                              <use xlink:href="#E0A4-r32yn4" x="9568" y="1715" height="720px" width="720px" />
                           </g>
                           <g id="s1lu10vr" class="stem">
                              <rect x="9776" y="923" height="764" width="18" />
                           </g>
                        </g>
                     </g>
                     <g id="n1ez83fe" class="note">
                        <g class="notehead">
                           <use xlink:href="#E0A4-r32yn4" x="10073" y="1625" height="720px" width="720px" />
                        </g>
                        <g id="s8k5hum" class="stem">
                           <rect x="10281" y="995" height="602" width="18" />
                        </g>
                     </g>
                  </g>
               </g>
               <g id="b1aq070q" class="barLine">
                  <path d="M10847 1085 L10847 1805" stroke="currentColor" stroke-width="27" />
                  <path d="M10977 1085 L10977 1805" stroke="currentColor" stroke-width="90" />
                  <path d="M11108 1085 L11108 1805" stroke="currentColor" stroke-width="27" />
                  <use xlink:href="#E044-r32yn4" x="11153" y="1355" height="720px" width="720px" />
                  <use xlink:href="#E044-r32yn4" x="11153" y="1535" height="720px" width="720px" />
                  <use xlink:href="#E044-r32yn4" x="10730" y="1355" height="720px" width="720px" />
                  <use xlink:href="#E044-r32yn4" x="10730" y="1535" height="720px" width="720px" />
               </g>
            </g>
            <g id="m8trxq0" class="measure">
               <g id="srhzyx8" class="staff">
                  <path d="M11225 1085 L13201 1085" stroke="currentColor" stroke-width="13" />
                  <path d="M11225 1265 L13201 1265" stroke="currentColor" stroke-width="13" />
                  <path d="M11225 1445 L13201 1445" stroke="currentColor" stroke-width="13" />
                  <path d="M11225 1625 L13201 1625" stroke="currentColor" stroke-width="13" />
                  <path d="M11225 1805 L13201 1805" stroke="currentColor" stroke-width="13" />
                  <g id="lb4rnhw" class="layer">
                     <g id="n1bu3toq" class="note">
                        <g class="notehead">
                           <use xlink:href="#E0A4-r32yn4" x="11404" y="1895" height="720px" width="720px" />
                        </g>
                        <g id="s1n1b2z8" class="stem">
                           <rect x="11612" y="1265" height="602" width="18" />
                        </g>
                     </g>
                     <g id="b129v6k3" class="beam">
                        <polygon points="12387,1220 12909,1175 12909,1265 12387,1310" />
                        <g id="n1fs3v3k" class="note">
                           <g class="notehead">
                              <use xlink:href="#E0A4-r32yn4" x="12179" y="1895" height="720px" width="720px" />
                           </g>
                           <g id="smb25zq" class="stem">
                              <rect x="12387" y="1238" height="629" width="18" />
                           </g>
                        </g>
                        <g id="n15a3x0x" class="note">
                           <g class="notehead">
                              <use xlink:href="#E0A4-r32yn4" x="12683" y="1805" height="720px" width="720px" />
                           </g>
                           <g id="sqv68kr" class="stem">
                              <rect x="12891" y="1193" height="584" width="18" />
                           </g>
                        </g>
                     </g>
                  </g>
               </g>
               <g id="b1b8lkmc" class="barLine">
                  <path d="M13188 1085 L13188 1805" stroke="currentColor" stroke-width="27" />
               </g>
            </g>
            <g id="m3b4eu6" class="measure">
               <g id="smht72w" class="staff">
                  <path d="M13201 1085 L15412 1085" stroke="currentColor" stroke-width="13" />
                  <path d="M13201 1265 L15412 1265" stroke="currentColor" stroke-width="13" />
                  <path d="M13201 1445 L15412 1445" stroke="currentColor" stroke-width="13" />
                  <path d="M13201 1625 L15412 1625" stroke="currentColor" stroke-width="13" />
                  <path d="M13201 1805 L15412 1805" stroke="currentColor" stroke-width="13" />
                  <g id="lbf1rwk" class="layer">
                     <g id="bbgkpaz" class="beam">
                        <polygon points="13588,995 14111,950 14111,1040 13588,1085" />
                        <g id="n1oib93t" class="note">
                           <g class="notehead">
                              <use xlink:href="#E0A4-r32yn4" x="13380" y="1715" height="720px" width="720px" />
                           </g>
                           <g id="s1kuvn8m" class="stem">
                              <rect x="13588" y="1013" height="674" width="18" />
                           </g>
                        </g>
                        <g id="n6xzih9" class="note">
                           <g class="notehead">
                              <use xlink:href="#E0A4-r32yn4" x="13885" y="1625" height="720px" width="720px" />
                           </g>
                           <g id="ss7ofxu" class="stem">
                              <rect x="14093" y="968" height="629" width="18" />
                           </g>
                        </g>
                     </g>
                     <g id="bxnbhto" class="beam">
                        <polygon points="14598,950 15121,995 15121,1085 14598,1040" />
                        <g id="n1comu8x" class="note">
                           <g class="notehead">
                              <use xlink:href="#E0A4-r32yn4" x="14390" y="1625" height="720px" width="720px" />
                           </g>
                           <g id="s1cbl266" class="stem">
                              <rect x="14598" y="968" height="629" width="18" />
                           </g>
                        </g>
                        <g id="ndqkaqe" class="note">
                           <g class="notehead">
                              <use xlink:href="#E0A4-r32yn4" x="14895" y="1715" height="720px" width="720px" />
                           </g>
                           <g id="sj3aaqy" class="stem">
                              <rect x="15103" y="1013" height="674" width="18" />
                           </g>
                        </g>
                     </g>
                  </g>
               </g>
               <g id="b1wtw2d4" class="barLine">
                  <path d="M15399 1085 L15399 1805" stroke="currentColor" stroke-width="27" />
               </g>
            </g>
            <g id="m11gjaqc" class="measure">
               <g id="s1f5i85u" class="staff">
                  <path d="M15412 1085 L17791 1085" stroke="currentColor" stroke-width="13" />
                  <path d="M15412 1265 L17791 1265" stroke="currentColor" stroke-width="13" />
                  <path d="M15412 1445 L17791 1445" stroke="currentColor" stroke-width="13" />
                  <path d="M15412 1625 L17791 1625" stroke="currentColor" stroke-width="13" />
                  <path d="M15412 1805 L17791 1805" stroke="currentColor" stroke-width="13" />
                  <g id="lat06vz" class="layer">
                     <g id="b17xsxr7" class="beam">
                        <polygon points="15799,905 16658,905 16658,995 15799,995" />
                        <polygon points="16313,1040 16658,1040 16658,1130 16313,1130" />
                        <g id="n17k4p3x" class="note">
                           <g class="notehead">
                              <use xlink:href="#E0A4-r32yn4" x="15591" y="1625" height="720px" width="720px" />
                           </g>
                           <g id="savnrdr" class="stem">
                              <rect x="15799" y="923" height="674" width="18" />
                           </g>
                        </g>
                        <g id="n1p71x7r" class="note">
                           <g class="notehead">
                              <use xlink:href="#E0A4-r32yn4" x="16096" y="1535" height="720px" width="720px" />
                           </g>
                           <g id="s1tt01yh" class="stem">
                              <rect x="16304" y="923" height="584" width="18" />
                           </g>
                        </g>
                        <g id="ngqkgs2" class="note">
                           <g class="notehead">
                              <use xlink:href="#E0A4-r32yn4" x="16432" y="1625" height="720px" width="720px" />
                           </g>
                           <g id="s13xkttj" class="stem">
                              <rect x="16640" y="923" height="674" width="18" />
                           </g>
                        </g>
                     </g>
                     <g id="b1uctex" class="beam">
                        <polygon points="16976,1220 17499,1175 17499,1265 16976,1310" />
                        <g id="n1am29lc" class="note">
                           <g class="notehead">
                              <use xlink:href="#E0A4-r32yn4" x="16768" y="1895" height="720px" width="720px" />
                           </g>
                           <g id="s1a3kopf" class="stem">
                              <rect x="16976" y="1238" height="629" width="18" />
                           </g>
                        </g>
                        <g id="no6cvzx" class="note">
                           <g class="notehead">
                              <use xlink:href="#E0A4-r32yn4" x="17273" y="1805" height="720px" width="720px" />
                           </g>
                           <g id="sq66gmj" class="stem">
                              <rect x="17481" y="1193" height="584" width="18" />
                           </g>
                        </g>
                     </g>
                  </g>
               </g>
               <g id="bxotnh5" class="barLine">
                  <path d="M17778 1085 L17778 1805" stroke="currentColor" stroke-width="27" />
               </g>
            </g>
            <g id="m15dy821" class="measure">
               <g id="s1szcwv8" class="staff">
                  <path d="M17791 1085 L20002 1085" stroke="currentColor" stroke-width="13" />
                  <path d="M17791 1265 L20002 1265" stroke="currentColor" stroke-width="13" />
                  <path d="M17791 1445 L20002 1445" stroke="currentColor" stroke-width="13" />
                  <path d="M17791 1625 L20002 1625" stroke="currentColor" stroke-width="13" />
                  <path d="M17791 1805 L20002 1805" stroke="currentColor" stroke-width="13" />
                  <g class="ledgerLines below">
                     <path d="M19437 1985 L19759 1985" stroke="currentColor" stroke-width="22" />
                  </g>
                  <g id="l1hav4j" class="layer">
                     <g id="b112alcy" class="beam">
                        <polygon points="18178,1040 18701,1085 18701,1175 18178,1130" />
                        <g id="nnodl8c" class="note">
                           <g class="notehead">
                              <use xlink:href="#E0A4-r32yn4" x="17970" y="1715" height="720px" width="720px" />
                           </g>
                           <g id="s1bf6vtf" class="stem">
                              <rect x="18178" y="1058" height="629" width="18" />
                           </g>
                        </g>
                        <g id="n46x7gn" class="note">
                           <g class="notehead">
                              <use xlink:href="#E0A4-r32yn4" x="18475" y="1805" height="720px" width="720px" />
                           </g>
                           <g id="s11lmagl" class="stem">
                              <rect x="18683" y="1103" height="674" width="18" />
                           </g>
                        </g>
                     </g>
                     <g id="bcaoo15" class="beam">
                        <polygon points="19188,1220 19711,1265 19711,1355 19188,1310" />
                        <g id="n1ob9pz4" class="note">
                           <g class="notehead">
                              <use xlink:href="#E0A4-r32yn4" x="18980" y="1895" height="720px" width="720px" />
                           </g>
                           <g id="smnf4n3" class="stem">
                              <rect x="19188" y="1238" height="629" width="18" />
                           </g>
                        </g>
                        <g id="n1c3z09a" class="note">
                           <g class="notehead">
                              <use xlink:href="#E0A4-r32yn4" x="19485" y="1985" height="720px" width="720px" />
                           </g>
                           <g id="sv0j84v" class="stem">
                              <rect x="19693" y="1283" height="674" width="18" />
                           </g>
                        </g>
                     </g>
                  </g>
               </g>
               <g id="bf8ecxs" class="barLine">
                  <path d="M19989 1085 L19989 1805" stroke="currentColor" stroke-width="27" />
               </g>
            </g>
         </g>
         <g id="sfcm42d" class="system">
            <g id="l1dga4le" class="labelAbbr">
               <text x="914" y="3884" text-anchor="end" font-size="0px">
                  <tspan id="t1qwdncm" class="text">
                     <tspan font-size="405px" class="text">Pno.</tspan>
                  </tspan>
               </text>
            </g>
            <g id="mh0t8sl" class="measure">
               <g id="m1lc7xsx" class="mNum autogenerated">
                  <text x="1094" y="3191" text-anchor="middle" font-size="0px">
                     <tspan id="t16x9f5g" class="text">
                        <tspan font-size="324px" class="text">9</tspan>
                     </tspan>
                  </text>
               </g>
               <g id="s5y4lc" class="staff">
                  <path d="M1094 3434 L4053 3434" stroke="currentColor" stroke-width="13" />
                  <path d="M1094 3614 L4053 3614" stroke="currentColor" stroke-width="13" />
                  <path d="M1094 3794 L4053 3794" stroke="currentColor" stroke-width="13" />
                  <path d="M1094 3974 L4053 3974" stroke="currentColor" stroke-width="13" />
                  <path d="M1094 4154 L4053 4154" stroke="currentColor" stroke-width="13" />
                  <g id="c1e0t47c" class="clef">
                     <use xlink:href="#E050-r32yn4" x="1184" y="3974" height="720px" width="720px" />
                  </g>
                  <g id="ktfqwsl" class="keySig">
                     <g id="k93r6bw" class="keyAccid">
                        <use xlink:href="#E260-r32yn4" x="1829" y="3794" height="720px" width="720px" />
                     </g>
                  </g>
                  <g id="l1cnh5ou" class="layer">
                     <g id="nvfn7dy" class="note">
                        <g class="notehead">
                           <use xlink:href="#E0A4-r32yn4" x="2241" y="4244" height="720px" width="720px" />
                        </g>
                        <g id="sbhllbp" class="stem">
                           <rect x="2449" y="3614" height="602" width="18" />
                        </g>
                     </g>
                     <g id="braotei" class="beam">
                        <polygon points="3230,3569 3757,3524 3757,3614 3230,3659" />
                        <g id="n1gbj58c" class="note">
                           <g class="notehead">
                              <use xlink:href="#E0A4-r32yn4" x="3022" y="4244" height="720px" width="720px" />
                           </g>
                           <g id="sm76axe" class="stem">
                              <rect x="3230" y="3587" height="629" width="18" />
                           </g>
                        </g>
                        <g id="n1ewbag4" class="note">
                           <g class="notehead">
                              <use xlink:href="#E0A4-r32yn4" x="3531" y="4154" height="720px" width="720px" />
                           </g>
                           <g id="s1e9qwnb" class="stem">
                              <rect x="3739" y="3542" height="584" width="18" />
                           </g>
                        </g>
                     </g>
                  </g>
               </g>
               <g id="b2zntc2" class="barLine">
                  <path d="M4040 3434 L4040 4154" stroke="currentColor" stroke-width="27" />
               </g>
            </g>
            <g id="se78zuc" class="sb" />
            <g id="m15mzct1" class="measure">
               <g id="szyc3zk" class="staff">
                  <path d="M4053 3434 L6282 3434" stroke="currentColor" stroke-width="13" />
                  <path d="M4053 3614 L6282 3614" stroke="currentColor" stroke-width="13" />
                  <path d="M4053 3794 L6282 3794" stroke="currentColor" stroke-width="13" />
                  <path d="M4053 3974 L6282 3974" stroke="currentColor" stroke-width="13" />
                  <path d="M4053 4154 L6282 4154" stroke="currentColor" stroke-width="13" />
                  <g id="l1ih2tb2" class="layer">
                     <g id="b2zvlxi" class="beam">
                        <polygon points="4441,3344 4968,3299 4968,3389 4441,3434" />
                        <g id="n1detveu" class="note">
                           <g class="notehead">
                              <use xlink:href="#E0A4-r32yn4" x="4233" y="4064" height="720px" width="720px" />
                           </g>
                           <g id="s1ew7ycq" class="stem">
                              <rect x="4441" y="3362" height="674" width="18" />
                           </g>
                        </g>
                        <g id="nd2hdpw" class="note">
                           <g class="notehead">
                              <use xlink:href="#E0A4-r32yn4" x="4742" y="3974" height="720px" width="720px" />
                           </g>
                           <g id="s1eta4ej" class="stem">
                              <rect x="4950" y="3317" height="629" width="18" />
                           </g>
                        </g>
                     </g>
                     <g id="b19x1lzs" class="beam">
                        <polygon points="5459,3299 5986,3344 5986,3434 5459,3389" />
                        <g id="n1vk6p3z" class="note">
                           <g class="notehead">
                              <use xlink:href="#E0A4-r32yn4" x="5251" y="3974" height="720px" width="720px" />
                           </g>
                           <g id="sbbfvgd" class="stem">
                              <rect x="5459" y="3317" height="629" width="18" />
                           </g>
                        </g>
                        <g id="nipvxm1" class="note">
                           <g class="notehead">
                              <use xlink:href="#E0A4-r32yn4" x="5760" y="4064" height="720px" width="720px" />
                           </g>
                           <g id="s1cgi8h1" class="stem">
                              <rect x="5968" y="3362" height="674" width="18" />
                           </g>
                        </g>
                     </g>
                  </g>
               </g>
               <g id="b1a6518s" class="barLine">
                  <path d="M6269 3434 L6269 4154" stroke="currentColor" stroke-width="27" />
               </g>
            </g>
            <g id="m1j3a2se" class="measure">
               <g id="s1tvimrv" class="staff">
                  <path d="M6282 3434 L8274 3434" stroke="currentColor" stroke-width="13" />
                  <path d="M6282 3614 L8274 3614" stroke="currentColor" stroke-width="13" />
                  <path d="M6282 3794 L8274 3794" stroke="currentColor" stroke-width="13" />
                  <path d="M6282 3974 L8274 3974" stroke="currentColor" stroke-width="13" />
                  <path d="M6282 4154 L8274 4154" stroke="currentColor" stroke-width="13" />
                  <g id="lwpdkoi" class="layer">
                     <g id="n12kdt4a" class="note">
                        <g class="notehead">
                           <use xlink:href="#E0A4-r32yn4" x="6462" y="3794" height="720px" width="720px" />
                        </g>
                        <g id="s2ruh1n" class="stem">
                           <rect x="6462" y="3822" height="572" width="18" />
                        </g>
                        <g id="a161b73s" class="accid" />
                     </g>
                     <g id="b5t4mn2" class="beam">
                        <polygon points="7451,3209 7978,3254 7978,3344 7451,3299" />
                        <g id="n4cnq5" class="note">
                           <g class="notehead">
                              <use xlink:href="#E0A4-r32yn4" x="7243" y="3884" height="720px" width="720px" />
                           </g>
                           <g id="srvr1da" class="stem">
                              <rect x="7451" y="3227" height="629" width="18" />
                           </g>
                        </g>
                        <g id="nduivpg" class="note">
                           <g class="notehead">
                              <use xlink:href="#E0A4-r32yn4" x="7752" y="3974" height="720px" width="720px" />
                           </g>
                           <g id="sym2s4" class="stem">
                              <rect x="7960" y="3272" height="674" width="18" />
                           </g>
                        </g>
                     </g>
                  </g>
               </g>
               <g id="b1y6cfol" class="barLine">
                  <path d="M8261 3434 L8261 4154" stroke="currentColor" stroke-width="27" />
               </g>
            </g>
            <g id="m115p0my" class="measure">
               <g id="s14syys9" class="staff">
                  <path d="M8274 3434 L10428 3434" stroke="currentColor" stroke-width="13" />
                  <path d="M8274 3614 L10428 3614" stroke="currentColor" stroke-width="13" />
                  <path d="M8274 3794 L10428 3794" stroke="currentColor" stroke-width="13" />
                  <path d="M8274 3974 L10428 3974" stroke="currentColor" stroke-width="13" />
                  <path d="M8274 4154 L10428 4154" stroke="currentColor" stroke-width="13" />
                  <g id="l10zzj4w" class="layer">
                     <g id="b1kgrolf" class="beam">
                        <polygon points="8662,3209 9189,3254 9189,3344 8662,3299" />
                        <g id="nzed1d5" class="note">
                           <g class="notehead">
                              <use xlink:href="#E0A4-r32yn4" x="8454" y="3884" height="720px" width="720px" />
                           </g>
                           <g id="s17if8a3" class="stem">
                              <rect x="8662" y="3227" height="629" width="18" />
                           </g>
                        </g>
                        <g id="n1ss8kpp" class="note">
                           <g class="notehead">
                              <use xlink:href="#E0A4-r32yn4" x="8963" y="4064" height="720px" width="720px" />
                           </g>
                           <g id="shooter" class="stem">
                              <rect x="9171" y="3272" height="764" width="18" />
                           </g>
                        </g>
                     </g>
                     <g id="n1awh6wb" class="note">
                        <g class="notehead">
                           <use xlink:href="#E0A4-r32yn4" x="9472" y="3974" height="720px" width="720px" />
                        </g>
                        <g id="sr2c5us" class="stem">
                           <rect x="9680" y="3344" height="602" width="18" />
                        </g>
                     </g>
                  </g>
               </g>
               <g id="b12rywk3" class="barLine">
                  <path d="M10253 3434 L10253 4154" stroke="currentColor" stroke-width="27" />
                  <path d="M10383 3434 L10383 4154" stroke="currentColor" stroke-width="90" />
               </g>
            </g>
            <g id="s14s3h16" class="systemMilestoneEnd s1yu3ei8" />
         </g>
         <g id="p57mfs9" class="pageMilestoneEnd s3mqyw7" />
         <g id="p1m4y6ft" class="pageMilestoneEnd m3718y1" />
         <g id="pl9bvon" class="pgHead">
            <text x="0" y="0" font-size="0px">
               <tspan id="rxpdt9f" class="rend" x="10000" y="277" text-anchor="middle">
                  <tspan id="thctpwp" class="text">
                     <tspan font-size="405px" class="text">Air n 104b</tspan>
                  </tspan>
               </tspan>
            </text>
         </g>
         <g id="p7dcj75" class="pgFoot autogenerated">
            <g id="f1kqfbde" class="fig">
               <g id="slim72" class="svg" transform="translate(7750, 28099) scale(10, 10)">
                  <g>
                     <path fill="#00000" d="M 17.11278,49.26451 V 10.367554 h 12.696511 c 3.288815,7.336676 6.71267,14.610456 10.127281,21.888976 3.419998,-7.484684 6.255515,-14.204887 9.58887,-21.909915 2.436207,0.103726 4.316952,0.08453 6.484294,-0.05808 V 49.264423 H 50.274275 C 50.145222,38.35639 50.016136,27.448368 49.887066,16.540329 45.003488,27.315459 39.967448,38.433564 35.083854,49.208695 34.678996,49.343717 34.426583,49.135619 34.021726,49.270644 29.46588,39.330716 24.910049,29.390805 20.354201,19.450876 20.224341,29.388756 20.09461,39.326619 19.964815,49.264497 H 17.11278 Z M 36.754144,39.324695 C 32.721221,30.512695 28.6883,21.700679 24.655394,12.888662 22.530527,12.750737 22.656775,12.71031 20.714356,12.813974 v 0.966497 c 4.612938,9.99784 9.609439,20.748709 13.87298,30.081745 0.722248,-1.512523 1.444528,-3.025014 2.166808,-4.537521 z m 25.738417,9.939815 c 0,-12.965651 0,-25.931305 0,-38.896956 10.084388,0 20.168791,0 30.253178,0 0,0.960416 0,1.920849 0,2.881265 -6.482825,0 -12.965652,0 -19.448478,0 0,4.802097 0,9.604178 0,14.406277 5.52241,0 11.044819,0 16.567229,0 0,0.960415 0,1.920832 0,2.881248 -5.52241,0 -11.044819,0 -16.567229,0 0,5.282306 0,10.564611 0,15.846917 6.963035,0 13.926068,0 20.889103,0 0,0.960416 0,1.920832 0,2.881249 -10.564597,0 -21.129207,0 -31.693803,0 z m 4.321874,-2.160937 c 0,-11.765131 0,-23.530263 0,-35.295394 -0.720312,0 -1.440625,0 -2.160937,0 0,11.765131 0,23.530263 0,35.295394 0.720312,0 1.440625,0 2.160937,0 z m 32.41413,2.160937 c 0,-12.965651 0,-25.931305 0,-38.896956 2.401045,0 4.802095,0 7.203135,0 0,12.965651 0,25.931305 0,38.896956 -2.40104,0 -4.80209,0 -7.203135,0 z m 2.881265,-2.160937 c 0,-11.765131 0,-23.530263 0,-35.295394 -0.72031,0 -1.44064,0 -2.160953,0 0,11.765131 0,23.530263 0,35.295394 0.720313,0 1.440643,0 2.160953,0 z" />
                     <path fill="#00000" d="m 346.3,6.7 c -3.1,0.5 -4.9,4.4 -2.7,6.8 1.2,1.4 2.7,2.4 4.1,3.5 -2.4,5.3 -7.7,8.3 -11.9,12.1 -3.7,2.8 -7,6.2 -9.7,9.9 -2.2,-0.8 -0.3,-6.8 -0.6,-9.5 0.1,-3.1 0.7,-6.4 2.9,-8.7 1.3,-1.9 3,-3.5 4.5,-5.2 1.2,-3.4 -3.2,-4.9 -5.8,-4.6 -7.3,-0.5 -14.6,2 -20,6.8 -5,4.6 -10,10.1 -11.5,17 -0.9,3.5 -0.2,7.5 2.8,9.9 2.5,2.8 7.4,2.9 9.8,-0.2 1.7,-2.3 3.2,-4.8 3.8,-7.6 -0.1,-2.6 -4.4,-2.3 -4.3,0.2 1.2,2.4 -0.9,4.7 -2.7,6.2 -1.7,0.9 -4.7,0.7 -4.8,-1.7 -1,-5.8 2.1,-11.3 5.2,-16.1 4,-5.8 9.8,-11.2 17.2,-11.8 1.6,0 8.1,-1.2 6.8,1.4 -2.8,2.8 -5.6,6.1 -6,10.3 -1.6,7.7 0.1,15.7 -2.3,23.2 -1.1,3.9 2,2.6 2.5,0.2 3.3,-7.4 8.9,-13.4 15.1,-18.5 4.2,-3.9 9.5,-7.1 11.9,-12.6 1.3,-3.6 1.2,-9 -2.7,-10.9 -0.6,-0.2 -1.2,-0.3 -1.8,-0.3 z m 66,14.5 c -2,0.8 -1.8,4.9 0.8,4.4 3.4,0.4 2.9,-6.2 -0.8,-4.4 z m 0.6,7.3 c -1.3,0.5 -7.6,0.5 -5.4,2.2 4,-0.3 0.7,4.5 0.6,6.7 -0.4,2.9 -2.4,5.9 -1.2,8.8 2.7,1.7 5.6,-0.8 6.8,-3.2 1.6,-1.4 -0.5,-3 -1.2,-0.9 -0.4,0.8 -2.4,3.5 -2.6,1.8 1.1,-5 2.7,-9.9 3.9,-14.9 l -0.1,-0.5 h -0.9 z m -65.1,0.2 c -6.5,1.6 -10.5,9.5 -8.2,15.7 2.1,3.4 7.4,2.9 10.1,0.4 2,-0.2 3.6,-5.3 1,-3.4 -1.4,2 -4,4.2 -6.5,2.8 -2.2,-1.9 -1.9,-5.7 1.7,-5.3 3.1,-0.9 6.9,-2.1 8.1,-5.5 0.9,-2.7 -1.6,-5.2 -4.3,-4.8 h -1.1 -0.7 z m 13.6,0 c -2.2,0 -8.5,1.8 -2.9,2.3 0.9,1.9 -1,4.9 -1.1,7.2 -0.5,2.9 -1.4,5.7 -1.7,8.7 3.7,0.7 3.8,-2.6 4.4,-5.3 0.9,-3.3 1.6,-7 4.1,-9.5 2.4,1.6 6.8,-0.7 3.7,-3.4 -2.9,-0.5 -4.8,2.4 -6.2,4.3 0,-1.2 2.4,-5 -0.2,-4.3 z m 15.8,0 c -6.4,1.3 -9.6,9.1 -7.7,14.9 1.9,4 7.7,3.9 11,1.7 4.1,-3 6,-8.9 4.4,-13.7 -1.3,-3 -4.8,-3.2 -7.6,-3 z m 17,0 c -2.3,0 -8.8,1.9 -3,2.4 0.4,2.5 -1,5.7 -1.4,8.4 -0.7,2.4 -1.8,7.5 2.1,7.2 3.8,-0.1 6.5,-3.5 8.5,-6.3 2,-3.2 4.5,-7 3.3,-10.9 -3.7,-3 -3.6,2.6 -3.1,5.1 -0.7,3.8 -2.7,7.9 -6.2,9.8 -3.6,0.6 -1,-4.3 -0.8,-6.1 0.6,-3.2 1.6,-6.3 1.9,-9.5 -0.4,0 -0.8,0 -1.1,0 z m 30.6,0 c -6.3,1.2 -9.5,8.9 -7.8,14.7 1.5,4 7.2,4.2 10.5,2.4 4.6,-2.8 6.6,-9.3 4.8,-14.3 -1.4,-2.8 -4.8,-3 -7.5,-2.8 z m -75.4,1.7 c 2.1,1.5 0.2,4.7 -1.6,5.7 -1.1,0.4 -5.5,3.4 -4.6,0.7 0.8,-2.7 2.2,-6.2 5.3,-6.6 l 0.9,0.1 z m 30.8,0 c 2.6,1.5 1.3,5.2 0.8,7.6 -0.8,2.7 -1.9,5.9 -4.7,7.1 -5.1,0.8 -4,-5.8 -2.8,-8.8 1,-2.8 3,-6.8 6.7,-5.8 z m 47.1,-0.1 c 2.9,0.7 2,4.7 1.5,6.8 -0.7,3 -1.8,6.7 -5,8 -4.7,0.8 -4,-5.1 -3,-7.9 0.9,-3 2.7,-7.3 6.5,-6.8 z m -88.1,5.9 c -0.3,1.3 0.9,-0.6 0,0 z m -1.1,2.4 c -0.2,0.5 0.5,-0.1 0,0 z m -1.3,4.5 c -0.3,1.3 0.8,-0.2 0,0 z" />
                     <text y="41" x="201" fill="#00000" style="font-style:italic;font-weight:normal;font-size:30px;line-height:125%;font-family:Times;text-anchor:middle" xml:space="preserve">engraved with</text>
                  </g>
               </g>
            </g>
         </g>
      </g>
   </svg>
</svg>
