<?xml version="1.0" encoding="UTF-8" standalone="no"?>
<svg width="2100px" height="2970px" version="1.1" xmlns="http://www.w3.org/2000/svg" xmlns:xlink="http://www.w3.org/1999/xlink" xmlns:mei="http://www.music-encoding.org/ns/mei" overflow="visible">
   <desc>Engraved by Verovio 3.13.1</desc>
   <defs>
      <symbol id="E044-lzpoz7" viewBox="0 0 1000 1000" overflow="inherit">
         <path transform="scale(1,-1)" d="M0 0c0 28 22 50 50 50s50 -22 50 -50s-22 -50 -50 -50s-50 22 -50 50z" />
      </symbol>
      <symbol id="E050-lzpoz7" viewBox="0 0 1000 1000" overflow="inherit">
         <path transform="scale(1,-1)" d="M441 -245c-23 -4 -48 -6 -76 -6c-59 0 -102 7 -130 20c-88 42 -150 93 -187 154c-26 44 -43 103 -48 176c0 6 -1 13 -1 19c0 54 15 111 45 170c29 57 65 106 110 148s96 85 153 127c-3 16 -8 46 -13 92c-4 43 -5 73 -5 89c0 117 16 172 69 257c34 54 64 82 89 82 c21 0 43 -30 69 -92s39 -115 41 -159v-15c0 -109 -21 -162 -67 -241c-13 -20 -63 -90 -98 -118c-13 -9 -25 -19 -37 -29l31 -181c8 1 18 2 28 2c58 0 102 -12 133 -35c59 -43 92 -104 98 -184c1 -7 1 -15 1 -22c0 -123 -87 -209 -181 -248c8 -57 17 -110 25 -162 c5 -31 6 -58 6 -80c0 -30 -5 -53 -14 -70c-35 -64 -88 -99 -158 -103c-5 0 -11 -1 -16 -1c-37 0 -72 10 -108 27c-50 24 -77 59 -80 105v11c0 29 7 55 20 76c18 28 45 42 79 44h6c49 0 93 -42 97 -87v-9c0 -51 -34 -86 -105 -106c17 -24 51 -36 102 -36c62 0 116 43 140 85 c9 16 13 41 13 74c0 20 -1 42 -5 67c-8 53 -18 106 -26 159zM461 939c-95 0 -135 -175 -135 -286c0 -24 2 -48 5 -71c50 39 92 82 127 128c40 53 60 100 60 140v8c-4 53 -22 81 -55 81h-2zM406 119l54 -326c73 25 110 78 110 161c0 7 0 15 -1 23c-7 95 -57 142 -151 142h-12 zM382 117c-72 -2 -128 -47 -128 -120v-7c2 -46 43 -99 75 -115c-3 -2 -7 -5 -10 -10c-70 33 -116 88 -123 172v11c0 68 44 126 88 159c23 17 49 29 78 36l-29 170c-21 -13 -52 -37 -92 -73c-50 -44 -86 -84 -109 -119c-45 -69 -67 -130 -67 -182v-13c5 -68 35 -127 93 -176 s125 -73 203 -73c25 0 50 3 75 9c-19 111 -36 221 -54 331z" />
      </symbol>
      <symbol id="E082-lzpoz7" viewBox="0 0 1000 1000" overflow="inherit">
         <path transform="scale(1,-1)" d="M124 -185c-18 0 -55 -14 -65 -65h-36l-3 30c0 25 6 45 18 63c11 19 22 30 39 43l121 82l37 29c15 11 27 29 38 54c12 24 18 47 18 70c0 40 -19 88 -94 88c-25 0 -32 0 -50 -8c-14 -5 -23 -12 -26 -22c3 -9 7 -15 10 -18l24 -17c12 -7 17 -11 27 -21c5 -7 7 -16 7 -27 c0 -12 0 -57 -79 -74c-30 0 -76 26 -76 94c0 66 81 135 197 135c72 0 181 -32 181 -150c0 -53 -32 -95 -113 -133l-91 -41c-26 -11 -45 -23 -57 -37l49 7c84 0 115 -41 148 -41c20 0 33 20 39 61h35c0 -152 -68 -168 -114 -168c-17 0 -65 0 -79 7h10l-28 17 c-49 37 -69 40 -87 42z" />
      </symbol>
      <symbol id="E084-lzpoz7" viewBox="0 0 1000 1000" overflow="inherit">
         <path transform="scale(1,-1)" d="M20 -78c84 97 114 180 134 329h170c-13 -32 -82 -132 -99 -151l-84 -97c-33 -36 -59 -63 -80 -81h162v102l127 123v-225h57v-39h-57v-34c0 -43 19 -65 57 -65v-34h-244v36c48 0 60 26 60 70v27h-203v39z" />
      </symbol>
      <symbol id="E0A4-lzpoz7" viewBox="0 0 1000 1000" overflow="inherit">
         <path transform="scale(1,-1)" d="M0 -39c0 68 73 172 200 172c66 0 114 -37 114 -95c0 -84 -106 -171 -218 -171c-64 0 -96 30 -96 94z" />
      </symbol>
      <symbol id="E262-lzpoz7" viewBox="0 0 1000 1000" overflow="inherit">
         <path transform="scale(1,-1)" d="M136 186v169h17v-164l44 14v-91l-44 -14v-165l44 12v-91l-44 -13v-155h-17v150l-76 -22v-155h-17v149l-43 -13v90l43 14v167l-43 -14v92l43 13v169h17v-163zM60 73v-167l76 22v168z" />
      </symbol>
   </defs>
   <style type="text/css">g.page-margin{font-family:Times;} g.ending, g.fing, g.reh, g.tempo{font-weight:bold;} g.dir, g.dynam, g.mNum{font-style:italic;} g.label{font-weight:normal;}</style>
   <svg class="definition-scale" color="black" viewBox="0 0 21000 29700">
      <g class="page-margin" transform="translate(500, 500)">
         <g id="m1wzhpcz" class="mdiv pageMilestone" />
         <g id="s1jjtytq" class="score pageMilestone" />
         <g id="s157bgov" class="system">
            <g id="l1hzdw2d" class="label">
               <text x="1105" y="1535" text-anchor="end" font-size="0px">
                  <tspan id="td84jmv" class="text">
                     <tspan font-size="405px" class="text">Piano</tspan>
                  </tspan>
               </text>
            </g>
            <g id="s982f7v" class="section systemMilestone" />
            <g id="p1pc73oo" class="pb" />
            <g id="mlsj5qi" class="measure">
               <g id="sn2se9w" class="staff">
                  <path d="M1285 1085 L5166 1085" stroke="currentColor" stroke-width="13" />
                  <path d="M1285 1265 L5166 1265" stroke="currentColor" stroke-width="13" />
                  <path d="M1285 1445 L5166 1445" stroke="currentColor" stroke-width="13" />
                  <path d="M1285 1625 L5166 1625" stroke="currentColor" stroke-width="13" />
                  <path d="M1285 1805 L5166 1805" stroke="currentColor" stroke-width="13" />
                  <g id="ctglgm5" class="clef">
                     <use xlink:href="#E050-lzpoz7" x="1375" y="1625" height="720px" width="720px" />
                  </g>
                  <g id="k1syla57" class="keySig">
                     <g id="kcory1p" class="keyAccid">
                        <use xlink:href="#E262-lzpoz7" x="2020" y="1085" height="720px" width="720px" />
                     </g>
                  </g>
                  <g id="msubaiv" class="meterSig">
                     <use xlink:href="#E082-lzpoz7" x="2327" y="1265" height="720px" width="720px" />
                     <use xlink:href="#E084-lzpoz7" x="2332" y="1625" height="720px" width="720px" />
                  </g>
                  <g id="l7s6819" class="layer">
                     <g id="b1wr0tuf" class="beam">
                        <polygon points="3109,1220 3690,1040 3690,1130 3109,1310" />
                        <g id="nch5rl7" class="note">
                           <g class="notehead">
                              <use xlink:href="#E0A4-lzpoz7" x="2901" y="1895" height="720px" width="720px" />
                           </g>
                           <g id="s18apgnj" class="stem">
                              <rect x="3109" y="1238" height="629" width="18" />
                           </g>
                        </g>
                        <g id="n1jt6w2s" class="note">
                           <g class="notehead">
                              <use xlink:href="#E0A4-lzpoz7" x="3464" y="1625" height="720px" width="720px" />
                           </g>
                           <g id="s2hlj1u" class="stem">
                              <rect x="3672" y="1058" height="539" width="18" />
                           </g>
                        </g>
                     </g>
                     <g id="b1q33wns" class="beam">
                        <polygon points="4235,1085 4816,995 4816,1085 4235,1175" />
                        <g id="n1gysxzz" class="note">
                           <g class="notehead">
                              <use xlink:href="#E0A4-lzpoz7" x="4027" y="1715" height="720px" width="720px" />
                           </g>
                           <g id="s134xw4c" class="stem">
                              <rect x="4235" y="1103" height="584" width="18" />
                           </g>
                           <g id="ah33se9" class="accid" />
                        </g>
                        <g id="n18k6gmw" class="note">
                           <g class="notehead">
                              <use xlink:href="#E0A4-lzpoz7" x="4590" y="1625" height="720px" width="720px" />
                           </g>
                           <g id="sq60fxy" class="stem">
                              <rect x="4798" y="1013" height="584" width="18" />
                           </g>
                        </g>
                     </g>
                  </g>
               </g>
               <g id="b1jsb9b3" class="barLine">
                  <path d="M5153 1085 L5153 1805" stroke="currentColor" stroke-width="27" />
               </g>
            </g>
            <g id="m7yzga7" class="measure">
               <g id="s1rmmy1n" class="staff">
                  <path d="M5166 1085 L7587 1085" stroke="currentColor" stroke-width="13" />
                  <path d="M5166 1265 L7587 1265" stroke="currentColor" stroke-width="13" />
                  <path d="M5166 1445 L7587 1445" stroke="currentColor" stroke-width="13" />
                  <path d="M5166 1625 L7587 1625" stroke="currentColor" stroke-width="13" />
                  <path d="M5166 1805 L7587 1805" stroke="currentColor" stroke-width="13" />
                  <g id="l1sqoq1e" class="layer">
                     <g id="b1af8z1n" class="beam">
                        <polygon points="5555,905 6299,815 6299,905 5555,995" />
                        <polygon points="6073,976 6299,950 6299,1040 6073,1066" />
                        <g id="n11lntcn" class="note">
                           <g class="notehead">
                              <use xlink:href="#E0A4-lzpoz7" x="5347" y="1535" height="720px" width="720px" />
                           </g>
                           <g id="d1ch7ndp" class="dots">
                              <ellipse cx="5663" cy="1535" rx="36" ry="36" />
                           </g>
                           <g id="s1vjctys" class="stem">
                              <rect x="5555" y="923" height="584" width="18" />
                           </g>
                        </g>
                        <g id="ncli0df" class="note">
                           <g class="notehead">
                              <use xlink:href="#E0A4-lzpoz7" x="6073" y="1445" height="720px" width="720px" />
                           </g>
                           <g id="s1w56av3" class="stem">
                              <rect x="6281" y="833" height="584" width="18" />
                           </g>
                        </g>
                     </g>
                     <g id="b3lesw9" class="beam">
                        <polygon points="6656,905 7237,905 7237,995 6656,995" />
                        <g id="n1sfllup" class="note">
                           <g class="notehead">
                              <use xlink:href="#E0A4-lzpoz7" x="6448" y="1535" height="720px" width="720px" />
                           </g>
                           <g id="s1c9335z" class="stem">
                              <rect x="6656" y="923" height="584" width="18" />
                           </g>
                        </g>
                        <g id="n1hfkbcb" class="note">
                           <g class="notehead">
                              <use xlink:href="#E0A4-lzpoz7" x="7011" y="1535" height="720px" width="720px" />
                           </g>
                           <g id="s9ikssp" class="stem">
                              <rect x="7219" y="923" height="584" width="18" />
                           </g>
                        </g>
                     </g>
                  </g>
               </g>
               <g id="b1rndfom" class="barLine">
                  <path d="M7574 1085 L7574 1805" stroke="currentColor" stroke-width="27" />
               </g>
            </g>
            <g id="m1on6s0a" class="measure">
               <g id="s53vfxe" class="staff">
                  <path d="M7587 1085 L10033 1085" stroke="currentColor" stroke-width="13" />
                  <path d="M7587 1265 L10033 1265" stroke="currentColor" stroke-width="13" />
                  <path d="M7587 1445 L10033 1445" stroke="currentColor" stroke-width="13" />
                  <path d="M7587 1625 L10033 1625" stroke="currentColor" stroke-width="13" />
                  <path d="M7587 1805 L10033 1805" stroke="currentColor" stroke-width="13" />
                  <g id="lym6ghi" class="layer">
                     <g id="ba8es1z" class="beam">
                        <polygon points="7976,1220 8557,1040 8557,1130 7976,1310" />
                        <g id="n6qyu5j" class="note">
                           <g class="notehead">
                              <use xlink:href="#E0A4-lzpoz7" x="7768" y="1895" height="720px" width="720px" />
                           </g>
                           <g id="s1rbd3ci" class="stem">
                              <rect x="7976" y="1238" height="629" width="18" />
                           </g>
                        </g>
                        <g id="n1dsm8g8" class="note">
                           <g class="notehead">
                              <use xlink:href="#E0A4-lzpoz7" x="8331" y="1625" height="720px" width="720px" />
                           </g>
                           <g id="s12ih272" class="stem">
                              <rect x="8539" y="1058" height="539" width="18" />
                           </g>
                        </g>
                     </g>
                     <g id="b11favok" class="beam">
                        <polygon points="9102,1085 9683,995 9683,1085 9102,1175" />
                        <g id="ny3fdpo" class="note">
                           <g class="notehead">
                              <use xlink:href="#E0A4-lzpoz7" x="8894" y="1715" height="720px" width="720px" />
                           </g>
                           <g id="spxv5k4" class="stem">
                              <rect x="9102" y="1103" height="584" width="18" />
                           </g>
                           <g id="a1f4qvxi" class="accid" />
                        </g>
                        <g id="n9wwlrq" class="note">
                           <g class="notehead">
                              <use xlink:href="#E0A4-lzpoz7" x="9457" y="1625" height="720px" width="720px" />
                           </g>
                           <g id="sd78vnq" class="stem">
                              <rect x="9665" y="1013" height="584" width="18" />
                           </g>
                        </g>
                     </g>
                  </g>
               </g>
               <g id="b1jsy64a" class="barLine">
                  <path d="M10020 1085 L10020 1805" stroke="currentColor" stroke-width="27" />
               </g>
            </g>
            <g id="mz2axqc" class="measure">
               <g id="s44h6x7" class="staff">
                  <path d="M10033 1085 L12556 1085" stroke="currentColor" stroke-width="13" />
                  <path d="M10033 1265 L12556 1265" stroke="currentColor" stroke-width="13" />
                  <path d="M10033 1445 L12556 1445" stroke="currentColor" stroke-width="13" />
                  <path d="M10033 1625 L12556 1625" stroke="currentColor" stroke-width="13" />
                  <path d="M10033 1805 L12556 1805" stroke="currentColor" stroke-width="13" />
                  <g id="lxwtgb9" class="layer">
                     <g id="bp8mjac" class="beam">
                        <polygon points="10422,905 11166,815 11166,905 10422,995" />
                        <polygon points="10940,976 11166,950 11166,1040 10940,1066" />
                        <g id="ntrzlm0" class="note">
                           <g class="notehead">
                              <use xlink:href="#E0A4-lzpoz7" x="10214" y="1535" height="720px" width="720px" />
                           </g>
                           <g id="d14wr68s" class="dots">
                              <ellipse cx="10530" cy="1535" rx="36" ry="36" />
                           </g>
                           <g id="s15fmnw7" class="stem">
                              <rect x="10422" y="923" height="584" width="18" />
                           </g>
                        </g>
                        <g id="n198mo0u" class="note">
                           <g class="notehead">
                              <use xlink:href="#E0A4-lzpoz7" x="10940" y="1445" height="720px" width="720px" />
                           </g>
                           <g id="s1ubsu29" class="stem">
                              <rect x="11148" y="833" height="584" width="18" />
                           </g>
                        </g>
                     </g>
                     <g id="n168lu9b" class="note">
                        <g class="notehead">
                           <use xlink:href="#E0A4-lzpoz7" x="11315" y="1625" height="720px" width="720px" />
                        </g>
                        <g id="s2wozq5" class="stem">
                           <rect x="11523" y="995" height="602" width="18" />
                        </g>
                     </g>
                  </g>
               </g>
               <g id="b1yzlimt" class="barLine">
                  <path d="M12178 1085 L12178 1805" stroke="currentColor" stroke-width="27" />
                  <path d="M12308 1085 L12308 1805" stroke="currentColor" stroke-width="90" />
                  <path d="M12439 1085 L12439 1805" stroke="currentColor" stroke-width="27" />
                  <use xlink:href="#E044-lzpoz7" x="12484" y="1355" height="720px" width="720px" />
                  <use xlink:href="#E044-lzpoz7" x="12484" y="1535" height="720px" width="720px" />
                  <use xlink:href="#E044-lzpoz7" x="12061" y="1355" height="720px" width="720px" />
                  <use xlink:href="#E044-lzpoz7" x="12061" y="1535" height="720px" width="720px" />
               </g>
            </g>
            <g id="m1drcg2j" class="measure">
               <g id="sohz0m8" class="staff">
                  <path d="M12556 1085 L15189 1085" stroke="currentColor" stroke-width="13" />
                  <path d="M12556 1265 L15189 1265" stroke="currentColor" stroke-width="13" />
                  <path d="M12556 1445 L15189 1445" stroke="currentColor" stroke-width="13" />
                  <path d="M12556 1625 L15189 1625" stroke="currentColor" stroke-width="13" />
                  <path d="M12556 1805 L15189 1805" stroke="currentColor" stroke-width="13" />
                  <g id="l1ygmi77" class="layer">
                     <g id="b14kfef2" class="beam">
                        <polygon points="12945,860 13901,860 13901,950 12945,950" />
                        <polygon points="13517,995 13901,995 13901,1085 13517,1085" />
                        <g id="n1t2y0f0" class="note">
                           <g class="notehead">
                              <use xlink:href="#E0A4-lzpoz7" x="12737" y="1445" height="720px" width="720px" />
                           </g>
                           <g id="sm02th5" class="stem">
                              <rect x="12945" y="878" height="539" width="18" />
                           </g>
                        </g>
                        <g id="n1kofvg6" class="note">
                           <g class="notehead">
                              <use xlink:href="#E0A4-lzpoz7" x="13300" y="1535" height="720px" width="720px" />
                           </g>
                           <g id="s16gzxjj" class="stem">
                              <rect x="13508" y="878" height="629" width="18" />
                           </g>
                        </g>
                        <g id="n14rk9f5" class="note">
                           <g class="notehead">
                              <use xlink:href="#E0A4-lzpoz7" x="13675" y="1625" height="720px" width="720px" />
                           </g>
                           <g id="skku2bo" class="stem">
                              <rect x="13883" y="878" height="719" width="18" />
                           </g>
                        </g>
                     </g>
                     <g id="b1cvudhu" class="beam">
                        <polygon points="14258,905 14839,905 14839,995 14258,995" />
                        <g id="n15vreuq" class="note">
                           <g class="notehead">
                              <use xlink:href="#E0A4-lzpoz7" x="14050" y="1535" height="720px" width="720px" />
                           </g>
                           <g id="s19ndoyl" class="stem">
                              <rect x="14258" y="923" height="584" width="18" />
                           </g>
                        </g>
                        <g id="npgk7mc" class="note">
                           <g class="notehead">
                              <use xlink:href="#E0A4-lzpoz7" x="14613" y="1535" height="720px" width="720px" />
                           </g>
                           <g id="sxby6jg" class="stem">
                              <rect x="14821" y="923" height="584" width="18" />
                           </g>
                        </g>
                     </g>
                  </g>
               </g>
               <g id="bi3m1du" class="barLine">
                  <path d="M15176 1085 L15176 1805" stroke="currentColor" stroke-width="27" />
               </g>
            </g>
            <g id="m112z4q3" class="measure">
               <g id="sgjh16r" class="staff">
                  <path d="M15189 1085 L17559 1085" stroke="currentColor" stroke-width="13" />
                  <path d="M15189 1265 L17559 1265" stroke="currentColor" stroke-width="13" />
                  <path d="M15189 1445 L17559 1445" stroke="currentColor" stroke-width="13" />
                  <path d="M15189 1625 L17559 1625" stroke="currentColor" stroke-width="13" />
                  <path d="M15189 1805 L17559 1805" stroke="currentColor" stroke-width="13" />
                  <g id="lm54hfi" class="layer">
                     <g id="b1j0l2t9" class="beam">
                        <polygon points="15578,860 16534,860 16534,950 15578,950" />
                        <polygon points="16150,995 16534,995 16534,1085 16150,1085" />
                        <g id="n1nhxomt" class="note">
                           <g class="notehead">
                              <use xlink:href="#E0A4-lzpoz7" x="15370" y="1445" height="720px" width="720px" />
                           </g>
                           <g id="s1ph9o4h" class="stem">
                              <rect x="15578" y="878" height="539" width="18" />
                           </g>
                        </g>
                        <g id="nemuerm" class="note">
                           <g class="notehead">
                              <use xlink:href="#E0A4-lzpoz7" x="15933" y="1535" height="720px" width="720px" />
                           </g>
                           <g id="s1ip5bgn" class="stem">
                              <rect x="16141" y="878" height="629" width="18" />
                           </g>
                        </g>
                        <g id="n19eu5s2" class="note">
                           <g class="notehead">
                              <use xlink:href="#E0A4-lzpoz7" x="16308" y="1625" height="720px" width="720px" />
                           </g>
                           <g id="s1calrnt" class="stem">
                              <rect x="16516" y="878" height="719" width="18" />
                           </g>
                        </g>
                     </g>
                     <g id="nhky85l" class="note">
                        <g class="notehead">
                           <use xlink:href="#E0A4-lzpoz7" x="16683" y="1535" height="720px" width="720px" />
                        </g>
                        <g id="s12hujw2" class="stem">
                           <rect x="16891" y="905" height="602" width="18" />
                        </g>
                     </g>
                  </g>
               </g>
               <g id="b1h46sii" class="barLine">
                  <path d="M17546 1085 L17546 1805" stroke="currentColor" stroke-width="27" />
               </g>
            </g>
            <g id="m1q8b93g" class="measure">
               <g id="s5qg1gb" class="staff">
                  <path d="M17559 1085 L20005 1085" stroke="currentColor" stroke-width="13" />
                  <path d="M17559 1265 L20005 1265" stroke="currentColor" stroke-width="13" />
                  <path d="M17559 1445 L20005 1445" stroke="currentColor" stroke-width="13" />
                  <path d="M17559 1625 L20005 1625" stroke="currentColor" stroke-width="13" />
                  <path d="M17559 1805 L20005 1805" stroke="currentColor" stroke-width="13" />
                  <g id="l16b89za" class="layer">
                     <g id="b1ys04ru" class="beam">
                        <polygon points="17948,1220 18529,1040 18529,1130 17948,1310" />
                        <g id="n1jbvgf0" class="note">
                           <g class="notehead">
                              <use xlink:href="#E0A4-lzpoz7" x="17740" y="1895" height="720px" width="720px" />
                           </g>
                           <g id="siv1zrr" class="stem">
                              <rect x="17948" y="1238" height="629" width="18" />
                           </g>
                        </g>
                        <g id="n16fmp8h" class="note">
                           <g class="notehead">
                              <use xlink:href="#E0A4-lzpoz7" x="18303" y="1625" height="720px" width="720px" />
                           </g>
                           <g id="s16md0r6" class="stem">
                              <rect x="18511" y="1058" height="539" width="18" />
                           </g>
                        </g>
                     </g>
                     <g id="b1730cq1" class="beam">
                        <polygon points="19074,1085 19655,995 19655,1085 19074,1175" />
                        <g id="n1gs4k6g" class="note">
                           <g class="notehead">
                              <use xlink:href="#E0A4-lzpoz7" x="18866" y="1715" height="720px" width="720px" />
                           </g>
                           <g id="s3xgzo5" class="stem">
                              <rect x="19074" y="1103" height="584" width="18" />
                           </g>
                           <g id="aqx08lb" class="accid" />
                        </g>
                        <g id="n1nerark" class="note">
                           <g class="notehead">
                              <use xlink:href="#E0A4-lzpoz7" x="19429" y="1625" height="720px" width="720px" />
                           </g>
                           <g id="smda4tb" class="stem">
                              <rect x="19637" y="1013" height="584" width="18" />
                           </g>
                        </g>
                     </g>
                  </g>
               </g>
               <g id="b7v7i04" class="barLine">
                  <path d="M19992 1085 L19992 1805" stroke="currentColor" stroke-width="27" />
               </g>
            </g>
         </g>
         <g id="swn5q3f" class="system">
            <g id="l16t1c1r" class="labelAbbr">
               <text x="914" y="3884" text-anchor="end" font-size="0px">
                  <tspan id="tnsdbcj" class="text">
                     <tspan font-size="405px" class="text">Pno.</tspan>
                  </tspan>
               </text>
            </g>
            <g id="m1ayqe99" class="measure">
               <g id="msn47xw" class="mNum autogenerated">
                  <text x="1094" y="3191" text-anchor="middle" font-size="0px">
                     <tspan id="t1kszd0c" class="text">
                        <tspan font-size="324px" class="text">8</tspan>
                     </tspan>
                  </text>
               </g>
               <g id="s14f8tlm" class="staff">
                  <path d="M1094 3434 L4472 3434" stroke="currentColor" stroke-width="13" />
                  <path d="M1094 3614 L4472 3614" stroke="currentColor" stroke-width="13" />
                  <path d="M1094 3794 L4472 3794" stroke="currentColor" stroke-width="13" />
                  <path d="M1094 3974 L4472 3974" stroke="currentColor" stroke-width="13" />
                  <path d="M1094 4154 L4472 4154" stroke="currentColor" stroke-width="13" />
                  <g id="ccf9bu9" class="clef">
                     <use xlink:href="#E050-lzpoz7" x="1184" y="3974" height="720px" width="720px" />
                  </g>
                  <g id="k1v1urh3" class="keySig">
                     <g id="k12zb2mi" class="keyAccid">
                        <use xlink:href="#E262-lzpoz7" x="1829" y="3434" height="720px" width="720px" />
                     </g>
                  </g>
                  <g id="lauy62w" class="layer">
                     <g id="b1iber8d" class="beam">
                        <polygon points="2448,3254 3189,3164 3189,3254 2448,3344" />
                        <polygon points="2963,3325 3189,3299 3189,3389 2963,3415" />
                        <g id="ntmaulb" class="note">
                           <g class="notehead">
                              <use xlink:href="#E0A4-lzpoz7" x="2240" y="3884" height="720px" width="720px" />
                           </g>
                           <g id="dcbs0u2" class="dots">
                              <ellipse cx="2556" cy="3884" rx="36" ry="36" />
                           </g>
                           <g id="s15evdk6" class="stem">
                              <rect x="2448" y="3272" height="584" width="18" />
                           </g>
                        </g>
                        <g id="n1g8iz39" class="note">
                           <g class="notehead">
                              <use xlink:href="#E0A4-lzpoz7" x="2963" y="3794" height="720px" width="720px" />
                           </g>
                           <g id="s95iioy" class="stem">
                              <rect x="3171" y="3182" height="584" width="18" />
                           </g>
                        </g>
                     </g>
                     <g id="bnud46v" class="beam">
                        <polygon points="3545,3254 4124,3254 4124,3344 3545,3344" />
                        <g id="nruo2z" class="note">
                           <g class="notehead">
                              <use xlink:href="#E0A4-lzpoz7" x="3337" y="3884" height="720px" width="720px" />
                           </g>
                           <g id="sjfxq3u" class="stem">
                              <rect x="3545" y="3272" height="584" width="18" />
                           </g>
                        </g>
                        <g id="ns91sij" class="note">
                           <g class="notehead">
                              <use xlink:href="#E0A4-lzpoz7" x="3898" y="3884" height="720px" width="720px" />
                           </g>
                           <g id="s16vtg3i" class="stem">
                              <rect x="4106" y="3272" height="584" width="18" />
                           </g>
                        </g>
                     </g>
                  </g>
               </g>
               <g id="bjelsoc" class="barLine">
                  <path d="M4459 3434 L4459 4154" stroke="currentColor" stroke-width="27" />
               </g>
            </g>
            <g id="s1qi3hfy" class="sb" />
            <g id="m18i176m" class="measure">
               <g id="s1vo0wsu" class="staff">
                  <path d="M4472 3434 L6834 3434" stroke="currentColor" stroke-width="13" />
                  <path d="M4472 3614 L6834 3614" stroke="currentColor" stroke-width="13" />
                  <path d="M4472 3794 L6834 3794" stroke="currentColor" stroke-width="13" />
                  <path d="M4472 3974 L6834 3974" stroke="currentColor" stroke-width="13" />
                  <path d="M4472 4154 L6834 4154" stroke="currentColor" stroke-width="13" />
                  <g id="l1f5vbqy" class="layer">
                     <g id="b5ocrew" class="beam">
                        <polygon points="4860,3209 5813,3209 5813,3299 4860,3299" />
                        <polygon points="5430,3344 5813,3344 5813,3434 5430,3434" />
                        <g id="nb6s07q" class="note">
                           <g class="notehead">
                              <use xlink:href="#E0A4-lzpoz7" x="4652" y="3794" height="720px" width="720px" />
                           </g>
                           <g id="sgqyasm" class="stem">
                              <rect x="4860" y="3227" height="539" width="18" />
                           </g>
                        </g>
                        <g id="n1qrhwqv" class="note">
                           <g class="notehead">
                              <use xlink:href="#E0A4-lzpoz7" x="5213" y="3884" height="720px" width="720px" />
                           </g>
                           <g id="sxwr46i" class="stem">
                              <rect x="5421" y="3227" height="629" width="18" />
                           </g>
                        </g>
                        <g id="n1wngj4c" class="note">
                           <g class="notehead">
                              <use xlink:href="#E0A4-lzpoz7" x="5587" y="3974" height="720px" width="720px" />
                           </g>
                           <g id="s1i1lxpe" class="stem">
                              <rect x="5795" y="3227" height="719" width="18" />
                           </g>
                        </g>
                     </g>
                     <g id="nqvxdca" class="note">
                        <g class="notehead">
                           <use xlink:href="#E0A4-lzpoz7" x="5961" y="3884" height="720px" width="720px" />
                        </g>
                        <g id="s1cqilzt" class="stem">
                           <rect x="6169" y="3254" height="602" width="18" />
                        </g>
                     </g>
                  </g>
               </g>
               <g id="b1ibskic" class="barLine">
                  <path d="M6821 3434 L6821 4154" stroke="currentColor" stroke-width="27" />
               </g>
            </g>
            <g id="m1r6vjsg" class="measure">
               <g id="s1rlvwlq" class="staff">
                  <path d="M6834 3434 L9271 3434" stroke="currentColor" stroke-width="13" />
                  <path d="M6834 3614 L9271 3614" stroke="currentColor" stroke-width="13" />
                  <path d="M6834 3794 L9271 3794" stroke="currentColor" stroke-width="13" />
                  <path d="M6834 3974 L9271 3974" stroke="currentColor" stroke-width="13" />
                  <path d="M6834 4154 L9271 4154" stroke="currentColor" stroke-width="13" />
                  <g id="l1bgpgf0" class="layer">
                     <g id="b1ym83a5" class="beam">
                        <polygon points="7222,3569 7801,3389 7801,3479 7222,3659" />
                        <g id="n1fdeknm" class="note">
                           <g class="notehead">
                              <use xlink:href="#E0A4-lzpoz7" x="7014" y="4244" height="720px" width="720px" />
                           </g>
                           <g id="surcu8o" class="stem">
                              <rect x="7222" y="3587" height="629" width="18" />
                           </g>
                        </g>
                        <g id="n1uv912p" class="note">
                           <g class="notehead">
                              <use xlink:href="#E0A4-lzpoz7" x="7575" y="3974" height="720px" width="720px" />
                           </g>
                           <g id="svczhyj" class="stem">
                              <rect x="7783" y="3407" height="539" width="18" />
                           </g>
                        </g>
                     </g>
                     <g id="b1inwqyf" class="beam">
                        <polygon points="8344,3434 8923,3344 8923,3434 8344,3524" />
                        <g id="n1if0nqp" class="note">
                           <g class="notehead">
                              <use xlink:href="#E0A4-lzpoz7" x="8136" y="4064" height="720px" width="720px" />
                           </g>
                           <g id="sd45n5x" class="stem">
                              <rect x="8344" y="3452" height="584" width="18" />
                           </g>
                           <g id="ajcawz8" class="accid" />
                        </g>
                        <g id="njmxqmk" class="note">
                           <g class="notehead">
                              <use xlink:href="#E0A4-lzpoz7" x="8697" y="3974" height="720px" width="720px" />
                           </g>
                           <g id="srnjz7u" class="stem">
                              <rect x="8905" y="3362" height="584" width="18" />
                           </g>
                        </g>
                     </g>
                  </g>
               </g>
               <g id="b16o7g99" class="barLine">
                  <path d="M9258 3434 L9258 4154" stroke="currentColor" stroke-width="27" />
               </g>
            </g>
            <g id="m10r0qu3" class="measure">
               <g id="sm3shbr" class="staff">
                  <path d="M9271 3434 L11583 3434" stroke="currentColor" stroke-width="13" />
                  <path d="M9271 3614 L11583 3614" stroke="currentColor" stroke-width="13" />
                  <path d="M9271 3794 L11583 3794" stroke="currentColor" stroke-width="13" />
                  <path d="M9271 3974 L11583 3974" stroke="currentColor" stroke-width="13" />
                  <path d="M9271 4154 L11583 4154" stroke="currentColor" stroke-width="13" />
                  <g id="l1c6nllq" class="layer">
                     <g id="b16r0mdh" class="beam">
                        <polygon points="9659,3254 10400,3164 10400,3254 9659,3344" />
                        <polygon points="10174,3325 10400,3299 10400,3389 10174,3415" />
                        <g id="nybqg1r" class="note">
                           <g class="notehead">
                              <use xlink:href="#E0A4-lzpoz7" x="9451" y="3884" height="720px" width="720px" />
                           </g>
                           <g id="d13fjs4x" class="dots">
                              <ellipse cx="9767" cy="3884" rx="36" ry="36" />
                           </g>
                           <g id="st7pxd9" class="stem">
                              <rect x="9659" y="3272" height="584" width="18" />
                           </g>
                        </g>
                        <g id="n71eu3e" class="note">
                           <g class="notehead">
                              <use xlink:href="#E0A4-lzpoz7" x="10174" y="3794" height="720px" width="720px" />
                           </g>
                           <g id="saorgbf" class="stem">
                              <rect x="10382" y="3182" height="584" width="18" />
                           </g>
                        </g>
                     </g>
                     <g id="n120hj9w" class="note">
                        <g class="notehead">
                           <use xlink:href="#E0A4-lzpoz7" x="10548" y="3974" height="720px" width="720px" />
                        </g>
                        <g id="s7uhuzb" class="stem">
                           <rect x="10756" y="3344" height="602" width="18" />
                        </g>
                     </g>
                  </g>
               </g>
               <g id="b1u3qxl6" class="barLine">
                  <path d="M11408 3434 L11408 4154" stroke="currentColor" stroke-width="27" />
                  <path d="M11538 3434 L11538 4154" stroke="currentColor" stroke-width="90" />
               </g>
            </g>
            <g id="s194iven" class="systemMilestoneEnd s982f7v" />
         </g>
         <g id="pxnse2k" class="pageMilestoneEnd s1jjtytq" />
         <g id="p17os34q" class="pageMilestoneEnd m1wzhpcz" />
         <g id="prgfm8c" class="pgHead">
            <text x="0" y="0" font-size="0px">
               <tspan id="r74ccsl" class="rend" x="10000" y="277" text-anchor="middle">
                  <tspan id="t1d4e3hh" class="text">
                     <tspan font-size="405px" class="text">Air n 18b</tspan>
                  </tspan>
               </tspan>
            </text>
         </g>
         <g id="pzm6qgq" class="pgFoot autogenerated">
            <g id="f1eeydtk" class="fig">
               <g id="s1hvm3mf" class="svg" transform="translate(7750, 28099) scale(10, 10)">
                  <g>
                     <path fill="#00000" d="M 17.11278,49.26451 V 10.367554 h 12.696511 c 3.288815,7.336676 6.71267,14.610456 10.127281,21.888976 3.419998,-7.484684 6.255515,-14.204887 9.58887,-21.909915 2.436207,0.103726 4.316952,0.08453 6.484294,-0.05808 V 49.264423 H 50.274275 C 50.145222,38.35639 50.016136,27.448368 49.887066,16.540329 45.003488,27.315459 39.967448,38.433564 35.083854,49.208695 34.678996,49.343717 34.426583,49.135619 34.021726,49.270644 29.46588,39.330716 24.910049,29.390805 20.354201,19.450876 20.224341,29.388756 20.09461,39.326619 19.964815,49.264497 H 17.11278 Z M 36.754144,39.324695 C 32.721221,30.512695 28.6883,21.700679 24.655394,12.888662 22.530527,12.750737 22.656775,12.71031 20.714356,12.813974 v 0.966497 c 4.612938,9.99784 9.609439,20.748709 13.87298,30.081745 0.722248,-1.512523 1.444528,-3.025014 2.166808,-4.537521 z m 25.738417,9.939815 c 0,-12.965651 0,-25.931305 0,-38.896956 10.084388,0 20.168791,0 30.253178,0 0,0.960416 0,1.920849 0,2.881265 -6.482825,0 -12.965652,0 -19.448478,0 0,4.802097 0,9.604178 0,14.406277 5.52241,0 11.044819,0 16.567229,0 0,0.960415 0,1.920832 0,2.881248 -5.52241,0 -11.044819,0 -16.567229,0 0,5.282306 0,10.564611 0,15.846917 6.963035,0 13.926068,0 20.889103,0 0,0.960416 0,1.920832 0,2.881249 -10.564597,0 -21.129207,0 -31.693803,0 z m 4.321874,-2.160937 c 0,-11.765131 0,-23.530263 0,-35.295394 -0.720312,0 -1.440625,0 -2.160937,0 0,11.765131 0,23.530263 0,35.295394 0.720312,0 1.440625,0 2.160937,0 z m 32.41413,2.160937 c 0,-12.965651 0,-25.931305 0,-38.896956 2.401045,0 4.802095,0 7.203135,0 0,12.965651 0,25.931305 0,38.896956 -2.40104,0 -4.80209,0 -7.203135,0 z m 2.881265,-2.160937 c 0,-11.765131 0,-23.530263 0,-35.295394 -0.72031,0 -1.44064,0 -2.160953,0 0,11.765131 0,23.530263 0,35.295394 0.720313,0 1.440643,0 2.160953,0 z" />
                     <path fill="#00000" d="m 346.3,6.7 c -3.1,0.5 -4.9,4.4 -2.7,6.8 1.2,1.4 2.7,2.4 4.1,3.5 -2.4,5.3 -7.7,8.3 -11.9,12.1 -3.7,2.8 -7,6.2 -9.7,9.9 -2.2,-0.8 -0.3,-6.8 -0.6,-9.5 0.1,-3.1 0.7,-6.4 2.9,-8.7 1.3,-1.9 3,-3.5 4.5,-5.2 1.2,-3.4 -3.2,-4.9 -5.8,-4.6 -7.3,-0.5 -14.6,2 -20,6.8 -5,4.6 -10,10.1 -11.5,17 -0.9,3.5 -0.2,7.5 2.8,9.9 2.5,2.8 7.4,2.9 9.8,-0.2 1.7,-2.3 3.2,-4.8 3.8,-7.6 -0.1,-2.6 -4.4,-2.3 -4.3,0.2 1.2,2.4 -0.9,4.7 -2.7,6.2 -1.7,0.9 -4.7,0.7 -4.8,-1.7 -1,-5.8 2.1,-11.3 5.2,-16.1 4,-5.8 9.8,-11.2 17.2,-11.8 1.6,0 8.1,-1.2 6.8,1.4 -2.8,2.8 -5.6,6.1 -6,10.3 -1.6,7.7 0.1,15.7 -2.3,23.2 -1.1,3.9 2,2.6 2.5,0.2 3.3,-7.4 8.9,-13.4 15.1,-18.5 4.2,-3.9 9.5,-7.1 11.9,-12.6 1.3,-3.6 1.2,-9 -2.7,-10.9 -0.6,-0.2 -1.2,-0.3 -1.8,-0.3 z m 66,14.5 c -2,0.8 -1.8,4.9 0.8,4.4 3.4,0.4 2.9,-6.2 -0.8,-4.4 z m 0.6,7.3 c -1.3,0.5 -7.6,0.5 -5.4,2.2 4,-0.3 0.7,4.5 0.6,6.7 -0.4,2.9 -2.4,5.9 -1.2,8.8 2.7,1.7 5.6,-0.8 6.8,-3.2 1.6,-1.4 -0.5,-3 -1.2,-0.9 -0.4,0.8 -2.4,3.5 -2.6,1.8 1.1,-5 2.7,-9.9 3.9,-14.9 l -0.1,-0.5 h -0.9 z m -65.1,0.2 c -6.5,1.6 -10.5,9.5 -8.2,15.7 2.1,3.4 7.4,2.9 10.1,0.4 2,-0.2 3.6,-5.3 1,-3.4 -1.4,2 -4,4.2 -6.5,2.8 -2.2,-1.9 -1.9,-5.7 1.7,-5.3 3.1,-0.9 6.9,-2.1 8.1,-5.5 0.9,-2.7 -1.6,-5.2 -4.3,-4.8 h -1.1 -0.7 z m 13.6,0 c -2.2,0 -8.5,1.8 -2.9,2.3 0.9,1.9 -1,4.9 -1.1,7.2 -0.5,2.9 -1.4,5.7 -1.7,8.7 3.7,0.7 3.8,-2.6 4.4,-5.3 0.9,-3.3 1.6,-7 4.1,-9.5 2.4,1.6 6.8,-0.7 3.7,-3.4 -2.9,-0.5 -4.8,2.4 -6.2,4.3 0,-1.2 2.4,-5 -0.2,-4.3 z m 15.8,0 c -6.4,1.3 -9.6,9.1 -7.7,14.9 1.9,4 7.7,3.9 11,1.7 4.1,-3 6,-8.9 4.4,-13.7 -1.3,-3 -4.8,-3.2 -7.6,-3 z m 17,0 c -2.3,0 -8.8,1.9 -3,2.4 0.4,2.5 -1,5.7 -1.4,8.4 -0.7,2.4 -1.8,7.5 2.1,7.2 3.8,-0.1 6.5,-3.5 8.5,-6.3 2,-3.2 4.5,-7 3.3,-10.9 -3.7,-3 -3.6,2.6 -3.1,5.1 -0.7,3.8 -2.7,7.9 -6.2,9.8 -3.6,0.6 -1,-4.3 -0.8,-6.1 0.6,-3.2 1.6,-6.3 1.9,-9.5 -0.4,0 -0.8,0 -1.1,0 z m 30.6,0 c -6.3,1.2 -9.5,8.9 -7.8,14.7 1.5,4 7.2,4.2 10.5,2.4 4.6,-2.8 6.6,-9.3 4.8,-14.3 -1.4,-2.8 -4.8,-3 -7.5,-2.8 z m -75.4,1.7 c 2.1,1.5 0.2,4.7 -1.6,5.7 -1.1,0.4 -5.5,3.4 -4.6,0.7 0.8,-2.7 2.2,-6.2 5.3,-6.6 l 0.9,0.1 z m 30.8,0 c 2.6,1.5 1.3,5.2 0.8,7.6 -0.8,2.7 -1.9,5.9 -4.7,7.1 -5.1,0.8 -4,-5.8 -2.8,-8.8 1,-2.8 3,-6.8 6.7,-5.8 z m 47.1,-0.1 c 2.9,0.7 2,4.7 1.5,6.8 -0.7,3 -1.8,6.7 -5,8 -4.7,0.8 -4,-5.1 -3,-7.9 0.9,-3 2.7,-7.3 6.5,-6.8 z m -88.1,5.9 c -0.3,1.3 0.9,-0.6 0,0 z m -1.1,2.4 c -0.2,0.5 0.5,-0.1 0,0 z m -1.3,4.5 c -0.3,1.3 0.8,-0.2 0,0 z" />
                     <text y="41" x="201" fill="#00000" style="font-style:italic;font-weight:normal;font-size:30px;line-height:125%;font-family:Times;text-anchor:middle" xml:space="preserve">engraved with</text>
                  </g>
               </g>
            </g>
         </g>
      </g>
   </svg>
</svg>
