<?xml version="1.0" encoding="UTF-8" standalone="no"?>
<svg width="2100px" height="2970px" version="1.1" xmlns="http://www.w3.org/2000/svg" xmlns:xlink="http://www.w3.org/1999/xlink" xmlns:mei="http://www.music-encoding.org/ns/mei" overflow="visible">
   <desc>Engraved by Verovio 3.13.1</desc>
   <defs>
      <symbol id="E044-11s12ii" viewBox="0 0 1000 1000" overflow="inherit">
         <path transform="scale(1,-1)" d="M0 0c0 28 22 50 50 50s50 -22 50 -50s-22 -50 -50 -50s-50 22 -50 50z" />
      </symbol>
      <symbol id="E050-11s12ii" viewBox="0 0 1000 1000" overflow="inherit">
         <path transform="scale(1,-1)" d="M441 -245c-23 -4 -48 -6 -76 -6c-59 0 -102 7 -130 20c-88 42 -150 93 -187 154c-26 44 -43 103 -48 176c0 6 -1 13 -1 19c0 54 15 111 45 170c29 57 65 106 110 148s96 85 153 127c-3 16 -8 46 -13 92c-4 43 -5 73 -5 89c0 117 16 172 69 257c34 54 64 82 89 82 c21 0 43 -30 69 -92s39 -115 41 -159v-15c0 -109 -21 -162 -67 -241c-13 -20 -63 -90 -98 -118c-13 -9 -25 -19 -37 -29l31 -181c8 1 18 2 28 2c58 0 102 -12 133 -35c59 -43 92 -104 98 -184c1 -7 1 -15 1 -22c0 -123 -87 -209 -181 -248c8 -57 17 -110 25 -162 c5 -31 6 -58 6 -80c0 -30 -5 -53 -14 -70c-35 -64 -88 -99 -158 -103c-5 0 -11 -1 -16 -1c-37 0 -72 10 -108 27c-50 24 -77 59 -80 105v11c0 29 7 55 20 76c18 28 45 42 79 44h6c49 0 93 -42 97 -87v-9c0 -51 -34 -86 -105 -106c17 -24 51 -36 102 -36c62 0 116 43 140 85 c9 16 13 41 13 74c0 20 -1 42 -5 67c-8 53 -18 106 -26 159zM461 939c-95 0 -135 -175 -135 -286c0 -24 2 -48 5 -71c50 39 92 82 127 128c40 53 60 100 60 140v8c-4 53 -22 81 -55 81h-2zM406 119l54 -326c73 25 110 78 110 161c0 7 0 15 -1 23c-7 95 -57 142 -151 142h-12 zM382 117c-72 -2 -128 -47 -128 -120v-7c2 -46 43 -99 75 -115c-3 -2 -7 -5 -10 -10c-70 33 -116 88 -123 172v11c0 68 44 126 88 159c23 17 49 29 78 36l-29 170c-21 -13 -52 -37 -92 -73c-50 -44 -86 -84 -109 -119c-45 -69 -67 -130 -67 -182v-13c5 -68 35 -127 93 -176 s125 -73 203 -73c25 0 50 3 75 9c-19 111 -36 221 -54 331z" />
      </symbol>
      <symbol id="E083-11s12ii" viewBox="0 0 1000 1000" overflow="inherit">
         <path transform="scale(1,-1)" d="M208 250c97 0 177 -52 177 -116c0 -69 -40 -111 -118 -125c56 -5 125 -44 125 -116c0 -31 -10 -57 -31 -78c-19 -21 -45 -38 -78 -49l-50 -11c-15 -3 -36 -7 -55 -7c-50 0 -86 16 -113 38c-16 10 -23 18 -34 34c-7 13 -11 25 -11 38c0 43 27 83 68 83l3 -2 c61 0 75 -42 75 -70c0 -19 -24 -42 -26 -57c7 -17 20 -25 37 -25c44 0 94 29 94 78c0 75 -34 125 -138 125v36c84 0 131 22 131 98c0 54 -37 88 -87 88c-26 0 -43 -7 -51 -22c15 -22 44 -16 44 -70c0 -37 -37 -62 -71 -62c-22 0 -69 15 -69 76c0 79 101 116 178 116z" />
      </symbol>
      <symbol id="E086-11s12ii" viewBox="0 0 1000 1000" overflow="inherit">
         <path transform="scale(1,-1)" d="M284 -91c0 37 -28 92 -67 92c-35 0 -65 -54 -65 -111c0 -52 22 -104 68 -104c47 0 64 68 64 123zM230 214c-36 0 -90 -33 -90 -184l2 -36c40 24 81 36 120 36c80 0 140 -48 140 -121c0 -99 -99 -159 -182 -159c-160 0 -200 173 -200 244c0 21 2 43 7 71l10 35 c26 85 73 115 98 126c41 19 74 24 103 24c93 0 142 -63 142 -105c0 -58 -52 -72 -73 -72c-33 0 -59 24 -65 35c-3 5 -6 14 -7 25l11 30c6 15 9 27 9 35c0 11 -9 16 -25 16z" />
      </symbol>
      <symbol id="E088-11s12ii" viewBox="0 0 1000 1000" overflow="inherit">
         <path transform="scale(1,-1)" d="M195 -214c76 0 88 58 90 68c0 34 -35 60 -57 73l-52 29c-21 10 -32 17 -34 20c-39 -33 -58 -54 -62 -92c5 -23 23 -98 115 -98zM301 135c0 61 -72 76 -113 76c-40 0 -77 -17 -77 -51c3 -21 15 -38 26 -50c17 -15 33 -26 48 -34l65 -28c34 27 51 56 51 87zM176 -250 c-57 0 -166 26 -166 132c0 47 30 86 89 116c-33 15 -79 60 -79 119c0 79 85 132 178 132h18c5 0 21 1 28 -1c25 0 126 -30 126 -110c0 -37 -23 -76 -69 -116c43 -25 83 -71 83 -119c0 -101 -118 -153 -208 -153z" />
      </symbol>
      <symbol id="E0A4-11s12ii" viewBox="0 0 1000 1000" overflow="inherit">
         <path transform="scale(1,-1)" d="M0 -39c0 68 73 172 200 172c66 0 114 -37 114 -95c0 -84 -106 -171 -218 -171c-64 0 -96 30 -96 94z" />
      </symbol>
      <symbol id="E241-11s12ii" viewBox="0 0 1000 1000" overflow="inherit">
         <path transform="scale(1,-1)" d="M179 646c-4 8 -17 30 -18 33l-4 10c0 3 2 5 5 5s7 -2 13 -7c23 -33 46 -81 66 -132c22 -57 35 -125 35 -163c0 -104 -60 -183 -122 -241c-63 -59 -57 -53 -61 -56c-38 -34 -63 -95 -71 -95h-22v190c40 7 69 11 87 16c88 27 168 95 168 200c0 30 -12 89 -30 138 c-17 47 -31 73 -46 102z" />
      </symbol>
      <symbol id="E260-11s12ii" viewBox="0 0 1000 1000" overflow="inherit">
         <path transform="scale(1,-1)" d="M20 110c32 16 54 27 93 27c26 0 35 -3 54 -13c13 -7 24 -20 27 -38l4 -25c0 -28 -16 -57 -45 -89c-23 -25 -39 -44 -65 -68l-88 -79v644h20v-359zM90 106c-32 0 -48 -10 -70 -29v-194c31 31 54 59 71 84c21 32 32 59 32 84c0 9 1 16 1 20c0 14 -3 21 -11 30l-8 3z" />
      </symbol>
   </defs>
   <style type="text/css">g.page-margin{font-family:Times;} g.ending, g.fing, g.reh, g.tempo{font-weight:bold;} g.dir, g.dynam, g.mNum{font-style:italic;} g.label{font-weight:normal;}</style>
   <svg class="definition-scale" color="black" viewBox="0 0 21000 29700">
      <g class="page-margin" transform="translate(500, 500)">
         <g id="m1mf0c81" class="mdiv pageMilestone" />
         <g id="swfulnh" class="score pageMilestone" />
         <g id="s1j2llch" class="system">
            <g id="l1fsy8qi" class="label">
               <text x="1105" y="1535" text-anchor="end" font-size="0px">
                  <tspan id="tnk1z8s" class="text">
                     <tspan font-size="405px" class="text">Piano</tspan>
                  </tspan>
               </text>
            </g>
            <g id="s133w1u7" class="section systemMilestone" />
            <g id="pazytid" class="pb" />
            <g id="my0wb03" class="measure">
               <g id="m1nu9yh5" class="mNum">
                  <text x="1285" y="842" text-anchor="middle" font-size="0px" />
               </g>
               <g id="s1eoy4ut" class="staff">
                  <path d="M1285 1085 L4850 1085" stroke="currentColor" stroke-width="13" />
                  <path d="M1285 1265 L4850 1265" stroke="currentColor" stroke-width="13" />
                  <path d="M1285 1445 L4850 1445" stroke="currentColor" stroke-width="13" />
                  <path d="M1285 1625 L4850 1625" stroke="currentColor" stroke-width="13" />
                  <path d="M1285 1805 L4850 1805" stroke="currentColor" stroke-width="13" />
                  <g id="c16q77ky" class="clef">
                     <use xlink:href="#E050-11s12ii" x="1375" y="1625" height="720px" width="720px" />
                  </g>
                  <g id="k4a5onr" class="keySig">
                     <g id="k1ffnot1" class="keyAccid">
                        <use xlink:href="#E260-11s12ii" x="2020" y="1445" height="720px" width="720px" />
                     </g>
                     <g id="k1f4cbcz" class="keyAccid">
                        <use xlink:href="#E260-11s12ii" x="2200" y="1175" height="720px" width="720px" />
                     </g>
                  </g>
                  <g id="m1wakv9j" class="meterSig">
                     <use xlink:href="#E086-11s12ii" x="2508" y="1265" height="720px" width="720px" />
                     <use xlink:href="#E088-11s12ii" x="2515" y="1625" height="720px" width="720px" />
                  </g>
                  <g id="lsubcwe" class="layer">
                     <g id="bkfa64c" class="beam">
                        <polygon points="3062,2030 4264,1850 4264,1760 3062,1940" />
                        <g id="n6mrc3y" class="note">
                           <g class="notehead">
                              <use xlink:href="#E0A4-11s12ii" x="3062" y="1445" height="720px" width="720px" />
                           </g>
                           <g id="sipzwfr" class="stem">
                              <rect x="3062" y="1473" height="539" width="18" />
                           </g>
                           <g id="a19bp7xd" class="accid" />
                        </g>
                        <g id="n7e6lg9" class="note">
                           <g class="notehead">
                              <use xlink:href="#E0A4-11s12ii" x="3654" y="1355" height="720px" width="720px" />
                           </g>
                           <g id="s13ovwu8" class="stem">
                              <rect x="3654" y="1383" height="539" width="18" />
                           </g>
                        </g>
                        <g id="n1m062ye" class="note">
                           <g class="notehead">
                              <use xlink:href="#E0A4-11s12ii" x="4246" y="1265" height="720px" width="720px" />
                           </g>
                           <g id="stuw0dr" class="stem">
                              <rect x="4246" y="1293" height="539" width="18" />
                           </g>
                        </g>
                     </g>
                  </g>
               </g>
               <g id="bggxfy6" class="barLine">
                  <path d="M4837 1085 L4837 1805" stroke="currentColor" stroke-width="27" />
               </g>
            </g>
            <g id="mcl00nd" class="measure">
               <g id="s176aqap" class="staff">
                  <path d="M4850 1085 L8589 1085" stroke="currentColor" stroke-width="13" />
                  <path d="M4850 1265 L8589 1265" stroke="currentColor" stroke-width="13" />
                  <path d="M4850 1445 L8589 1445" stroke="currentColor" stroke-width="13" />
                  <path d="M4850 1625 L8589 1625" stroke="currentColor" stroke-width="13" />
                  <path d="M4850 1805 L8589 1805" stroke="currentColor" stroke-width="13" />
                  <g id="l1mfqd42" class="layer">
                     <g id="bh6onyn" class="beam">
                        <polygon points="5025,1850 6227,2030 6227,1940 5025,1760" />
                        <g id="n1wrrs7v" class="note">
                           <g class="notehead">
                              <use xlink:href="#E0A4-11s12ii" x="5025" y="1265" height="720px" width="720px" />
                           </g>
                           <g id="s26ah9z" class="stem">
                              <rect x="5025" y="1293" height="539" width="18" />
                           </g>
                        </g>
                        <g id="nmm2rzf" class="note">
                           <g class="notehead">
                              <use xlink:href="#E0A4-11s12ii" x="5617" y="1355" height="720px" width="720px" />
                           </g>
                           <g id="su0k0l2" class="stem">
                              <rect x="5617" y="1383" height="539" width="18" />
                           </g>
                        </g>
                        <g id="n6bvrlw" class="note">
                           <g class="notehead">
                              <use xlink:href="#E0A4-11s12ii" x="6209" y="1445" height="720px" width="720px" />
                           </g>
                           <g id="s1la5e0s" class="stem">
                              <rect x="6209" y="1473" height="539" width="18" />
                           </g>
                           <g id="arl8r1l" class="accid" />
                        </g>
                     </g>
                     <g id="b1047ial" class="beam">
                        <polygon points="6800,1985 8002,1805 8002,1715 6800,1895" />
                        <g id="n196pem0" class="note">
                           <g class="notehead">
                              <use xlink:href="#E0A4-11s12ii" x="6800" y="1355" height="720px" width="720px" />
                           </g>
                           <g id="s1486ciu" class="stem">
                              <rect x="6800" y="1383" height="584" width="18" />
                           </g>
                        </g>
                        <g id="n1x94vwa" class="note">
                           <g class="notehead">
                              <use xlink:href="#E0A4-11s12ii" x="7392" y="1265" height="720px" width="720px" />
                           </g>
                           <g id="skser8r" class="stem">
                              <rect x="7392" y="1293" height="584" width="18" />
                           </g>
                        </g>
                        <g id="n1b18e1i" class="note">
                           <g class="notehead">
                              <use xlink:href="#E0A4-11s12ii" x="7984" y="1175" height="720px" width="720px" />
                           </g>
                           <g id="sp14jxm" class="stem">
                              <rect x="7984" y="1203" height="584" width="18" />
                           </g>
                           <g id="a1r9ojl7" class="accid" />
                        </g>
                     </g>
                  </g>
               </g>
               <g id="bukxdif" class="barLine">
                  <path d="M8576 1085 L8576 1805" stroke="currentColor" stroke-width="27" />
               </g>
            </g>
            <g id="m9f1896" class="measure">
               <g id="s1hgpee8" class="staff">
                  <path d="M8589 1085 L12052 1085" stroke="currentColor" stroke-width="13" />
                  <path d="M8589 1265 L12052 1265" stroke="currentColor" stroke-width="13" />
                  <path d="M8589 1445 L12052 1445" stroke="currentColor" stroke-width="13" />
                  <path d="M8589 1625 L12052 1625" stroke="currentColor" stroke-width="13" />
                  <path d="M8589 1805 L12052 1805" stroke="currentColor" stroke-width="13" />
                  <g id="lmouk68" class="layer">
                     <g id="n1snkyw2" class="note">
                        <g class="notehead">
                           <use xlink:href="#E0A4-11s12ii" x="8764" y="1355" height="720px" width="720px" />
                        </g>
                        <g id="swi3m6c" class="stem">
                           <rect x="8764" y="1383" height="602" width="18" />
                        </g>
                     </g>
                     <g id="n1nw1gyo" class="note">
                        <g class="notehead">
                           <use xlink:href="#E0A4-11s12ii" x="9672" y="1265" height="720px" width="720px" />
                        </g>
                        <g id="s1ssuc7f" class="stem">
                           <rect x="9672" y="1293" height="602" width="18" />
                           <g id="f124eddf" class="flag">
                              <use xlink:href="#E241-11s12ii" x="9672" y="1895" height="720px" width="720px" />
                           </g>
                        </g>
                     </g>
                     <g id="bwxt9dc" class="beam">
                        <polygon points="10264,2030 11465,1850 11465,1760 10264,1940" />
                        <g id="nshj21n" class="note">
                           <g class="notehead">
                              <use xlink:href="#E0A4-11s12ii" x="10264" y="1445" height="720px" width="720px" />
                           </g>
                           <g id="s1uodcfp" class="stem">
                              <rect x="10264" y="1473" height="539" width="18" />
                           </g>
                           <g id="a6qxhi1" class="accid" />
                        </g>
                        <g id="njqx8bj" class="note">
                           <g class="notehead">
                              <use xlink:href="#E0A4-11s12ii" x="10856" y="1355" height="720px" width="720px" />
                           </g>
                           <g id="s1avdl71" class="stem">
                              <rect x="10856" y="1383" height="539" width="18" />
                           </g>
                        </g>
                        <g id="n1me6ba6" class="note">
                           <g class="notehead">
                              <use xlink:href="#E0A4-11s12ii" x="11447" y="1265" height="720px" width="720px" />
                           </g>
                           <g id="s1498pne" class="stem">
                              <rect x="11447" y="1293" height="539" width="18" />
                           </g>
                        </g>
                     </g>
                  </g>
               </g>
               <g id="bx292qe" class="barLine">
                  <path d="M12039 1085 L12039 1805" stroke="currentColor" stroke-width="27" />
               </g>
            </g>
            <g id="mxplr1q" class="measure">
               <g id="savl14n" class="staff">
                  <path d="M12052 1085 L15174 1085" stroke="currentColor" stroke-width="13" />
                  <path d="M12052 1265 L15174 1265" stroke="currentColor" stroke-width="13" />
                  <path d="M12052 1445 L15174 1445" stroke="currentColor" stroke-width="13" />
                  <path d="M12052 1625 L15174 1625" stroke="currentColor" stroke-width="13" />
                  <path d="M12052 1805 L15174 1805" stroke="currentColor" stroke-width="13" />
                  <g id="l1p8jqj4" class="layer">
                     <g id="b10rrdol" class="beam">
                        <polygon points="12227,1850 13429,2030 13429,1940 12227,1760" />
                        <g id="n1fskvhw" class="note">
                           <g class="notehead">
                              <use xlink:href="#E0A4-11s12ii" x="12227" y="1265" height="720px" width="720px" />
                           </g>
                           <g id="sgzvohw" class="stem">
                              <rect x="12227" y="1293" height="539" width="18" />
                           </g>
                        </g>
                        <g id="n1jisl79" class="note">
                           <g class="notehead">
                              <use xlink:href="#E0A4-11s12ii" x="12819" y="1355" height="720px" width="720px" />
                           </g>
                           <g id="smeozd" class="stem">
                              <rect x="12819" y="1383" height="539" width="18" />
                           </g>
                        </g>
                        <g id="nriyvx2" class="note">
                           <g class="notehead">
                              <use xlink:href="#E0A4-11s12ii" x="13411" y="1445" height="720px" width="720px" />
                           </g>
                           <g id="s8dpof9" class="stem">
                              <rect x="13411" y="1473" height="539" width="18" />
                           </g>
                           <g id="avgooks" class="accid" />
                        </g>
                     </g>
                     <g id="nkuldua" class="note">
                        <g class="notehead">
                           <use xlink:href="#E0A4-11s12ii" x="14002" y="1355" height="720px" width="720px" />
                        </g>
                        <g id="d18t2e0j" class="dots">
                           <ellipse cx="14318" cy="1355" rx="36" ry="36" />
                        </g>
                        <g id="stoywv3" class="stem">
                           <rect x="14002" y="1383" height="602" width="18" />
                        </g>
                     </g>
                  </g>
               </g>
               <g id="b6zexru" class="barLine">
                  <path d="M15161 1085 L15161 1805" stroke="currentColor" stroke-width="27" />
               </g>
            </g>
            <g id="m46ew0a" class="measure">
               <g id="s105mid6" class="staff">
                  <path d="M15174 1085 L17133 1085" stroke="currentColor" stroke-width="13" />
                  <path d="M15174 1265 L17133 1265" stroke="currentColor" stroke-width="13" />
                  <path d="M15174 1445 L17133 1445" stroke="currentColor" stroke-width="13" />
                  <path d="M15174 1625 L17133 1625" stroke="currentColor" stroke-width="13" />
                  <path d="M15174 1805 L17133 1805" stroke="currentColor" stroke-width="13" />
                  <g id="m1m2pa7i" class="meterSig">
                     <use xlink:href="#E083-11s12ii" x="15254" y="1265" height="720px" width="720px" />
                     <use xlink:href="#E088-11s12ii" x="15257" y="1625" height="720px" width="720px" />
                  </g>
                  <g id="l9raq8t" class="layer">
                     <g id="n1jn1e21" class="note">
                        <g class="notehead">
                           <use xlink:href="#E0A4-11s12ii" x="15800" y="1265" height="720px" width="720px" />
                        </g>
                        <g id="dcb5lqf" class="dots">
                           <ellipse cx="16116" cy="1175" rx="36" ry="36" />
                        </g>
                        <g id="shz81y4" class="stem">
                           <rect x="15800" y="1293" height="602" width="18" />
                        </g>
                     </g>
                  </g>
               </g>
               <g id="b17b33is" class="barLine">
                  <path d="M16958 1085 L16958 1805" stroke="currentColor" stroke-width="27" />
                  <path d="M17088 1085 L17088 1805" stroke="currentColor" stroke-width="90" />
                  <use xlink:href="#E044-11s12ii" x="16841" y="1355" height="720px" width="720px" />
                  <use xlink:href="#E044-11s12ii" x="16841" y="1535" height="720px" width="720px" />
               </g>
            </g>
            <g id="m1senmlo" class="measure">
               <g id="s35b8zo" class="staff">
                  <path d="M17133 1085 L20002 1085" stroke="currentColor" stroke-width="13" />
                  <path d="M17133 1265 L20002 1265" stroke="currentColor" stroke-width="13" />
                  <path d="M17133 1445 L20002 1445" stroke="currentColor" stroke-width="13" />
                  <path d="M17133 1625 L20002 1625" stroke="currentColor" stroke-width="13" />
                  <path d="M17133 1805 L20002 1805" stroke="currentColor" stroke-width="13" />
                  <g id="m174kp68" class="meterSig">
                     <use xlink:href="#E083-11s12ii" x="17213" y="1265" height="720px" width="720px" />
                     <use xlink:href="#E088-11s12ii" x="17216" y="1625" height="720px" width="720px" />
                  </g>
                  <g id="ljjjwm3" class="layer">
                     <g id="b2pww73" class="beam">
                        <polygon points="17759,2030 18961,1850 18961,1760 17759,1940" />
                        <g id="ntm1udx" class="note">
                           <g class="notehead">
                              <use xlink:href="#E0A4-11s12ii" x="17759" y="1445" height="720px" width="720px" />
                           </g>
                           <g id="srli0cy" class="stem">
                              <rect x="17759" y="1473" height="539" width="18" />
                           </g>
                           <g id="aaz9rs3" class="accid" />
                        </g>
                        <g id="n7h3ed7" class="note">
                           <g class="notehead">
                              <use xlink:href="#E0A4-11s12ii" x="18351" y="1355" height="720px" width="720px" />
                           </g>
                           <g id="st5xard" class="stem">
                              <rect x="18351" y="1383" height="539" width="18" />
                           </g>
                        </g>
                        <g id="n1xszh0t" class="note">
                           <g class="notehead">
                              <use xlink:href="#E0A4-11s12ii" x="18943" y="1265" height="720px" width="720px" />
                           </g>
                           <g id="s13bg8tl" class="stem">
                              <rect x="18943" y="1293" height="539" width="18" />
                           </g>
                        </g>
                     </g>
                  </g>
                  <g id="m1xvh1fk" class="meterSig">
                     <use xlink:href="#E086-11s12ii" x="19623" y="1265" height="720px" width="720px" />
                     <use xlink:href="#E088-11s12ii" x="19630" y="1625" height="720px" width="720px" />
                  </g>
               </g>
               <g id="bs2lasy" class="barLine">
                  <path d="M19534 1085 L19534 1805" stroke="currentColor" stroke-width="27" />
               </g>
            </g>
         </g>
         <g id="s1dgyn7m" class="system">
            <g id="l17f2wy5" class="labelAbbr">
               <text x="914" y="3884" text-anchor="end" font-size="0px">
                  <tspan id="tivr32o" class="text">
                     <tspan font-size="405px" class="text">Pno.</tspan>
                  </tspan>
               </text>
            </g>
            <g id="m1v1feks" class="measure">
               <g id="m1v0o8ba" class="mNum autogenerated">
                  <text x="1094" y="3191" text-anchor="middle" font-size="0px">
                     <tspan id="t19c5lxk" class="text">
                        <tspan font-size="324px" class="text">6</tspan>
                     </tspan>
                  </text>
               </g>
               <g id="st3ztpg" class="staff">
                  <path d="M1094 3434 L6125 3434" stroke="currentColor" stroke-width="13" />
                  <path d="M1094 3614 L6125 3614" stroke="currentColor" stroke-width="13" />
                  <path d="M1094 3794 L6125 3794" stroke="currentColor" stroke-width="13" />
                  <path d="M1094 3974 L6125 3974" stroke="currentColor" stroke-width="13" />
                  <path d="M1094 4154 L6125 4154" stroke="currentColor" stroke-width="13" />
                  <g id="cqenv19" class="clef">
                     <use xlink:href="#E050-11s12ii" x="1184" y="3974" height="720px" width="720px" />
                  </g>
                  <g id="k18cz9vn" class="keySig">
                     <g id="k94x0hh" class="keyAccid">
                        <use xlink:href="#E260-11s12ii" x="1829" y="3794" height="720px" width="720px" />
                     </g>
                     <g id="k7tfn5j" class="keyAccid">
                        <use xlink:href="#E260-11s12ii" x="2009" y="3524" height="720px" width="720px" />
                     </g>
                  </g>
                  <g id="mkewl6o" class="meterSig">
                     <use xlink:href="#E086-11s12ii" x="2317" y="3614" height="720px" width="720px" />
                     <use xlink:href="#E088-11s12ii" x="2324" y="3974" height="720px" width="720px" />
                  </g>
                  <g id="lgnn8b6" class="layer">
                     <g id="bb2wpys" class="beam">
                        <polygon points="2866,4199 3966,4379 3966,4289 2866,4109" />
                        <g id="nx0rktc" class="note">
                           <g class="notehead">
                              <use xlink:href="#E0A4-11s12ii" x="2866" y="3614" height="720px" width="720px" />
                           </g>
                           <g id="skaoxgg" class="stem">
                              <rect x="2866" y="3642" height="539" width="18" />
                           </g>
                        </g>
                        <g id="nu6ey3u" class="note">
                           <g class="notehead">
                              <use xlink:href="#E0A4-11s12ii" x="3407" y="3704" height="720px" width="720px" />
                           </g>
                           <g id="s19lpldt" class="stem">
                              <rect x="3407" y="3732" height="539" width="18" />
                           </g>
                        </g>
                        <g id="nx4ozsv" class="note">
                           <g class="notehead">
                              <use xlink:href="#E0A4-11s12ii" x="3948" y="3794" height="720px" width="720px" />
                           </g>
                           <g id="s1q3kre7" class="stem">
                              <rect x="3948" y="3822" height="539" width="18" />
                           </g>
                           <g id="aww40c2" class="accid" />
                        </g>
                     </g>
                     <g id="b1ml6wqm" class="beam">
                        <polygon points="4489,4334 5589,4334 5589,4244 4489,4244" />
                        <g id="n1i7eggq" class="note">
                           <g class="notehead">
                              <use xlink:href="#E0A4-11s12ii" x="4489" y="3704" height="720px" width="720px" />
                           </g>
                           <g id="spt8hbt" class="stem">
                              <rect x="4489" y="3732" height="584" width="18" />
                           </g>
                        </g>
                        <g id="n15s3t2" class="note">
                           <g class="notehead">
                              <use xlink:href="#E0A4-11s12ii" x="5030" y="3614" height="720px" width="720px" />
                           </g>
                           <g id="sp6hrlw" class="stem">
                              <rect x="5030" y="3642" height="674" width="18" />
                           </g>
                        </g>
                        <g id="nb3mtae" class="note">
                           <g class="notehead">
                              <use xlink:href="#E0A4-11s12ii" x="5571" y="3704" height="720px" width="720px" />
                           </g>
                           <g id="s1wa4piw" class="stem">
                              <rect x="5571" y="3732" height="584" width="18" />
                           </g>
                        </g>
                     </g>
                  </g>
               </g>
               <g id="buz0w7b" class="barLine">
                  <path d="M6112 3434 L6112 4154" stroke="currentColor" stroke-width="27" />
               </g>
            </g>
            <g id="m112ei78" class="measure">
               <g id="s1glxtx1" class="staff">
                  <path d="M6125 3434 L8990 3434" stroke="currentColor" stroke-width="13" />
                  <path d="M6125 3614 L8990 3614" stroke="currentColor" stroke-width="13" />
                  <path d="M6125 3794 L8990 3794" stroke="currentColor" stroke-width="13" />
                  <path d="M6125 3974 L8990 3974" stroke="currentColor" stroke-width="13" />
                  <path d="M6125 4154 L8990 4154" stroke="currentColor" stroke-width="13" />
                  <g id="l7e0ftc" class="layer">
                     <g id="b3gaqco" class="beam">
                        <polygon points="6295,4334 7395,4334 7395,4244 6295,4244" />
                        <g id="nsfm6qz" class="note">
                           <g class="notehead">
                              <use xlink:href="#E0A4-11s12ii" x="6295" y="3614" height="720px" width="720px" />
                           </g>
                           <g id="s1dnfube" class="stem">
                              <rect x="6295" y="3642" height="674" width="18" />
                           </g>
                        </g>
                        <g id="n1ut4gdy" class="note">
                           <g class="notehead">
                              <use xlink:href="#E0A4-11s12ii" x="6836" y="3704" height="720px" width="720px" />
                           </g>
                           <g id="snmmavt" class="stem">
                              <rect x="6836" y="3732" height="584" width="18" />
                           </g>
                        </g>
                        <g id="nlr7q7q" class="note">
                           <g class="notehead">
                              <use xlink:href="#E0A4-11s12ii" x="7377" y="3614" height="720px" width="720px" />
                           </g>
                           <g id="s99z0iq" class="stem">
                              <rect x="7377" y="3642" height="674" width="18" />
                           </g>
                        </g>
                     </g>
                     <g id="n11umvkm" class="note">
                        <g class="notehead">
                           <use xlink:href="#E0A4-11s12ii" x="7918" y="3794" height="720px" width="720px" />
                        </g>
                        <g id="d11i3aiv" class="dots">
                           <ellipse cx="8234" cy="3704" rx="36" ry="36" />
                        </g>
                        <g id="s1wc7zfz" class="stem">
                           <rect x="7918" y="3822" height="572" width="18" />
                        </g>
                        <g id="a18xhyg4" class="accid" />
                     </g>
                  </g>
               </g>
               <g id="b1gjtnao" class="barLine">
                  <path d="M8977 3434 L8977 4154" stroke="currentColor" stroke-width="27" />
               </g>
            </g>
            <g id="s1tudt7l" class="sb" />
            <g id="m7zapqr" class="measure">
               <g id="s1qdlnx9" class="staff">
                  <path d="M8990 3434 L11855 3434" stroke="currentColor" stroke-width="13" />
                  <path d="M8990 3614 L11855 3614" stroke="currentColor" stroke-width="13" />
                  <path d="M8990 3794 L11855 3794" stroke="currentColor" stroke-width="13" />
                  <path d="M8990 3974 L11855 3974" stroke="currentColor" stroke-width="13" />
                  <path d="M8990 4154 L11855 4154" stroke="currentColor" stroke-width="13" />
                  <g id="lisb4ci" class="layer">
                     <g id="nflx7xp" class="note">
                        <g class="notehead">
                           <use xlink:href="#E0A4-11s12ii" x="9160" y="3974" height="720px" width="720px" />
                        </g>
                        <g id="d19bh3d8" class="dots">
                           <ellipse cx="9476" cy="3884" rx="36" ry="36" />
                        </g>
                        <g id="spsem7f" class="stem">
                           <rect x="9368" y="3344" height="602" width="18" />
                        </g>
                     </g>
                     <g id="bgkqqty" class="beam">
                        <polygon points="10219,4379 11319,4199 11319,4109 10219,4289" />
                        <g id="n1t8ffwo" class="note">
                           <g class="notehead">
                              <use xlink:href="#E0A4-11s12ii" x="10219" y="3794" height="720px" width="720px" />
                           </g>
                           <g id="s1hvug4l" class="stem">
                              <rect x="10219" y="3822" height="539" width="18" />
                           </g>
                           <g id="a1yoi2ct" class="accid" />
                        </g>
                        <g id="n1lkm8h5" class="note">
                           <g class="notehead">
                              <use xlink:href="#E0A4-11s12ii" x="10760" y="3704" height="720px" width="720px" />
                           </g>
                           <g id="s1qjbon2" class="stem">
                              <rect x="10760" y="3732" height="539" width="18" />
                           </g>
                        </g>
                        <g id="nkoe7am" class="note">
                           <g class="notehead">
                              <use xlink:href="#E0A4-11s12ii" x="11301" y="3614" height="720px" width="720px" />
                           </g>
                           <g id="shtnqwi" class="stem">
                              <rect x="11301" y="3642" height="539" width="18" />
                           </g>
                        </g>
                     </g>
                  </g>
               </g>
               <g id="b1v65jpn" class="barLine">
                  <path d="M11842 3434 L11842 4154" stroke="currentColor" stroke-width="27" />
               </g>
            </g>
            <g id="mu4jvon" class="measure">
               <g id="sxe4xje" class="staff">
                  <path d="M11855 3434 L15284 3434" stroke="currentColor" stroke-width="13" />
                  <path d="M11855 3614 L15284 3614" stroke="currentColor" stroke-width="13" />
                  <path d="M11855 3794 L15284 3794" stroke="currentColor" stroke-width="13" />
                  <path d="M11855 3974 L15284 3974" stroke="currentColor" stroke-width="13" />
                  <path d="M11855 4154 L15284 4154" stroke="currentColor" stroke-width="13" />
                  <g id="ltjci4o" class="layer">
                     <g id="btg01cx" class="beam">
                        <polygon points="12025,4199 13125,4379 13125,4289 12025,4109" />
                        <g id="nwdxaeq" class="note">
                           <g class="notehead">
                              <use xlink:href="#E0A4-11s12ii" x="12025" y="3614" height="720px" width="720px" />
                           </g>
                           <g id="s5wo31m" class="stem">
                              <rect x="12025" y="3642" height="539" width="18" />
                           </g>
                        </g>
                        <g id="nnprgx0" class="note">
                           <g class="notehead">
                              <use xlink:href="#E0A4-11s12ii" x="12566" y="3704" height="720px" width="720px" />
                           </g>
                           <g id="s6wl2sj" class="stem">
                              <rect x="12566" y="3732" height="539" width="18" />
                           </g>
                        </g>
                        <g id="n2qf3lz" class="note">
                           <g class="notehead">
                              <use xlink:href="#E0A4-11s12ii" x="13107" y="3794" height="720px" width="720px" />
                           </g>
                           <g id="s5ovs98" class="stem">
                              <rect x="13107" y="3822" height="539" width="18" />
                           </g>
                           <g id="a2kwg7o" class="accid" />
                        </g>
                     </g>
                     <g id="b1pbei2m" class="beam">
                        <polygon points="13648,4334 14748,4334 14748,4244 13648,4244" />
                        <g id="nniao9t" class="note">
                           <g class="notehead">
                              <use xlink:href="#E0A4-11s12ii" x="13648" y="3704" height="720px" width="720px" />
                           </g>
                           <g id="s1d8qxr6" class="stem">
                              <rect x="13648" y="3732" height="584" width="18" />
                           </g>
                        </g>
                        <g id="nivc4dw" class="note">
                           <g class="notehead">
                              <use xlink:href="#E0A4-11s12ii" x="14189" y="3614" height="720px" width="720px" />
                           </g>
                           <g id="s1p8obx2" class="stem">
                              <rect x="14189" y="3642" height="674" width="18" />
                           </g>
                        </g>
                        <g id="nqyfid" class="note">
                           <g class="notehead">
                              <use xlink:href="#E0A4-11s12ii" x="14730" y="3704" height="720px" width="720px" />
                           </g>
                           <g id="s5sxnmc" class="stem">
                              <rect x="14730" y="3732" height="584" width="18" />
                           </g>
                        </g>
                     </g>
                  </g>
               </g>
               <g id="b1ouuyyr" class="barLine">
                  <path d="M15271 3434 L15271 4154" stroke="currentColor" stroke-width="27" />
               </g>
            </g>
            <g id="mb0jniz" class="measure">
               <g id="s15jcwj" class="staff">
                  <path d="M15284 3434 L18149 3434" stroke="currentColor" stroke-width="13" />
                  <path d="M15284 3614 L18149 3614" stroke="currentColor" stroke-width="13" />
                  <path d="M15284 3794 L18149 3794" stroke="currentColor" stroke-width="13" />
                  <path d="M15284 3974 L18149 3974" stroke="currentColor" stroke-width="13" />
                  <path d="M15284 4154 L18149 4154" stroke="currentColor" stroke-width="13" />
                  <g id="l1d9evp7" class="layer">
                     <g id="b1c8gzzt" class="beam">
                        <polygon points="15454,4334 16554,4334 16554,4244 15454,4244" />
                        <g id="nb24a86" class="note">
                           <g class="notehead">
                              <use xlink:href="#E0A4-11s12ii" x="15454" y="3614" height="720px" width="720px" />
                           </g>
                           <g id="s158xl06" class="stem">
                              <rect x="15454" y="3642" height="674" width="18" />
                           </g>
                        </g>
                        <g id="n10klhpn" class="note">
                           <g class="notehead">
                              <use xlink:href="#E0A4-11s12ii" x="15995" y="3704" height="720px" width="720px" />
                           </g>
                           <g id="s1jfnma2" class="stem">
                              <rect x="15995" y="3732" height="584" width="18" />
                           </g>
                        </g>
                        <g id="n1nogsie" class="note">
                           <g class="notehead">
                              <use xlink:href="#E0A4-11s12ii" x="16536" y="3614" height="720px" width="720px" />
                           </g>
                           <g id="sj1m4qp" class="stem">
                              <rect x="16536" y="3642" height="674" width="18" />
                           </g>
                        </g>
                     </g>
                     <g id="n6pssjw" class="note">
                        <g class="notehead">
                           <use xlink:href="#E0A4-11s12ii" x="17077" y="3794" height="720px" width="720px" />
                        </g>
                        <g id="dcnzpr4" class="dots">
                           <ellipse cx="17393" cy="3704" rx="36" ry="36" />
                        </g>
                        <g id="s13kpnkr" class="stem">
                           <rect x="17077" y="3822" height="572" width="18" />
                        </g>
                        <g id="a1usboe4" class="accid" />
                     </g>
                  </g>
               </g>
               <g id="b230fd" class="barLine">
                  <path d="M18136 3434 L18136 4154" stroke="currentColor" stroke-width="27" />
               </g>
            </g>
            <g id="mqrx94z" class="measure">
               <g id="s1n71sfi" class="staff">
                  <path d="M18149 3434 L20004 3434" stroke="currentColor" stroke-width="13" />
                  <path d="M18149 3614 L20004 3614" stroke="currentColor" stroke-width="13" />
                  <path d="M18149 3794 L20004 3794" stroke="currentColor" stroke-width="13" />
                  <path d="M18149 3974 L20004 3974" stroke="currentColor" stroke-width="13" />
                  <path d="M18149 4154 L20004 4154" stroke="currentColor" stroke-width="13" />
                  <g id="m1il93ze" class="meterSig">
                     <use xlink:href="#E083-11s12ii" x="18229" y="3614" height="720px" width="720px" />
                     <use xlink:href="#E088-11s12ii" x="18232" y="3974" height="720px" width="720px" />
                  </g>
                  <g id="ljxz20v" class="layer">
                     <g id="n1g51h00" class="note">
                        <g class="notehead">
                           <use xlink:href="#E0A4-11s12ii" x="18770" y="3974" height="720px" width="720px" />
                        </g>
                        <g id="d15s55my" class="dots">
                           <ellipse cx="19086" cy="3884" rx="36" ry="36" />
                        </g>
                        <g id="s8u6m1j" class="stem">
                           <rect x="18978" y="3344" height="602" width="18" />
                        </g>
                     </g>
                  </g>
               </g>
               <g id="bj1wpqz" class="barLine">
                  <path d="M19829 3434 L19829 4154" stroke="currentColor" stroke-width="27" />
                  <path d="M19959 3434 L19959 4154" stroke="currentColor" stroke-width="90" />
               </g>
            </g>
            <g id="spa08rr" class="systemMilestoneEnd s133w1u7" />
         </g>
         <g id="pfg5ov0" class="pageMilestoneEnd swfulnh" />
         <g id="pjjlkvo" class="pageMilestoneEnd m1mf0c81" />
         <g id="pcmwtjh" class="pgHead">
            <text x="0" y="0" font-size="0px">
               <tspan id="r1w87vn5" class="rend" x="10000" y="277" text-anchor="middle">
                  <tspan id="t3evby3" class="text">
                     <tspan font-size="405px" class="text">Air n 73</tspan>
                  </tspan>
               </tspan>
            </text>
         </g>
         <g id="po8q2kx" class="pgFoot autogenerated">
            <g id="ff3anbd" class="fig">
               <g id="s18kr2e2" class="svg" transform="translate(7750, 28099) scale(10, 10)">
                  <g>
                     <path fill="#00000" d="M 17.11278,49.26451 V 10.367554 h 12.696511 c 3.288815,7.336676 6.71267,14.610456 10.127281,21.888976 3.419998,-7.484684 6.255515,-14.204887 9.58887,-21.909915 2.436207,0.103726 4.316952,0.08453 6.484294,-0.05808 V 49.264423 H 50.274275 C 50.145222,38.35639 50.016136,27.448368 49.887066,16.540329 45.003488,27.315459 39.967448,38.433564 35.083854,49.208695 34.678996,49.343717 34.426583,49.135619 34.021726,49.270644 29.46588,39.330716 24.910049,29.390805 20.354201,19.450876 20.224341,29.388756 20.09461,39.326619 19.964815,49.264497 H 17.11278 Z M 36.754144,39.324695 C 32.721221,30.512695 28.6883,21.700679 24.655394,12.888662 22.530527,12.750737 22.656775,12.71031 20.714356,12.813974 v 0.966497 c 4.612938,9.99784 9.609439,20.748709 13.87298,30.081745 0.722248,-1.512523 1.444528,-3.025014 2.166808,-4.537521 z m 25.738417,9.939815 c 0,-12.965651 0,-25.931305 0,-38.896956 10.084388,0 20.168791,0 30.253178,0 0,0.960416 0,1.920849 0,2.881265 -6.482825,0 -12.965652,0 -19.448478,0 0,4.802097 0,9.604178 0,14.406277 5.52241,0 11.044819,0 16.567229,0 0,0.960415 0,1.920832 0,2.881248 -5.52241,0 -11.044819,0 -16.567229,0 0,5.282306 0,10.564611 0,15.846917 6.963035,0 13.926068,0 20.889103,0 0,0.960416 0,1.920832 0,2.881249 -10.564597,0 -21.129207,0 -31.693803,0 z m 4.321874,-2.160937 c 0,-11.765131 0,-23.530263 0,-35.295394 -0.720312,0 -1.440625,0 -2.160937,0 0,11.765131 0,23.530263 0,35.295394 0.720312,0 1.440625,0 2.160937,0 z m 32.41413,2.160937 c 0,-12.965651 0,-25.931305 0,-38.896956 2.401045,0 4.802095,0 7.203135,0 0,12.965651 0,25.931305 0,38.896956 -2.40104,0 -4.80209,0 -7.203135,0 z m 2.881265,-2.160937 c 0,-11.765131 0,-23.530263 0,-35.295394 -0.72031,0 -1.44064,0 -2.160953,0 0,11.765131 0,23.530263 0,35.295394 0.720313,0 1.440643,0 2.160953,0 z" />
                     <path fill="#00000" d="m 346.3,6.7 c -3.1,0.5 -4.9,4.4 -2.7,6.8 1.2,1.4 2.7,2.4 4.1,3.5 -2.4,5.3 -7.7,8.3 -11.9,12.1 -3.7,2.8 -7,6.2 -9.7,9.9 -2.2,-0.8 -0.3,-6.8 -0.6,-9.5 0.1,-3.1 0.7,-6.4 2.9,-8.7 1.3,-1.9 3,-3.5 4.5,-5.2 1.2,-3.4 -3.2,-4.9 -5.8,-4.6 -7.3,-0.5 -14.6,2 -20,6.8 -5,4.6 -10,10.1 -11.5,17 -0.9,3.5 -0.2,7.5 2.8,9.9 2.5,2.8 7.4,2.9 9.8,-0.2 1.7,-2.3 3.2,-4.8 3.8,-7.6 -0.1,-2.6 -4.4,-2.3 -4.3,0.2 1.2,2.4 -0.9,4.7 -2.7,6.2 -1.7,0.9 -4.7,0.7 -4.8,-1.7 -1,-5.8 2.1,-11.3 5.2,-16.1 4,-5.8 9.8,-11.2 17.2,-11.8 1.6,0 8.1,-1.2 6.8,1.4 -2.8,2.8 -5.6,6.1 -6,10.3 -1.6,7.7 0.1,15.7 -2.3,23.2 -1.1,3.9 2,2.6 2.5,0.2 3.3,-7.4 8.9,-13.4 15.1,-18.5 4.2,-3.9 9.5,-7.1 11.9,-12.6 1.3,-3.6 1.2,-9 -2.7,-10.9 -0.6,-0.2 -1.2,-0.3 -1.8,-0.3 z m 66,14.5 c -2,0.8 -1.8,4.9 0.8,4.4 3.4,0.4 2.9,-6.2 -0.8,-4.4 z m 0.6,7.3 c -1.3,0.5 -7.6,0.5 -5.4,2.2 4,-0.3 0.7,4.5 0.6,6.7 -0.4,2.9 -2.4,5.9 -1.2,8.8 2.7,1.7 5.6,-0.8 6.8,-3.2 1.6,-1.4 -0.5,-3 -1.2,-0.9 -0.4,0.8 -2.4,3.5 -2.6,1.8 1.1,-5 2.7,-9.9 3.9,-14.9 l -0.1,-0.5 h -0.9 z m -65.1,0.2 c -6.5,1.6 -10.5,9.5 -8.2,15.7 2.1,3.4 7.4,2.9 10.1,0.4 2,-0.2 3.6,-5.3 1,-3.4 -1.4,2 -4,4.2 -6.5,2.8 -2.2,-1.9 -1.9,-5.7 1.7,-5.3 3.1,-0.9 6.9,-2.1 8.1,-5.5 0.9,-2.7 -1.6,-5.2 -4.3,-4.8 h -1.1 -0.7 z m 13.6,0 c -2.2,0 -8.5,1.8 -2.9,2.3 0.9,1.9 -1,4.9 -1.1,7.2 -0.5,2.9 -1.4,5.7 -1.7,8.7 3.7,0.7 3.8,-2.6 4.4,-5.3 0.9,-3.3 1.6,-7 4.1,-9.5 2.4,1.6 6.8,-0.7 3.7,-3.4 -2.9,-0.5 -4.8,2.4 -6.2,4.3 0,-1.2 2.4,-5 -0.2,-4.3 z m 15.8,0 c -6.4,1.3 -9.6,9.1 -7.7,14.9 1.9,4 7.7,3.9 11,1.7 4.1,-3 6,-8.9 4.4,-13.7 -1.3,-3 -4.8,-3.2 -7.6,-3 z m 17,0 c -2.3,0 -8.8,1.9 -3,2.4 0.4,2.5 -1,5.7 -1.4,8.4 -0.7,2.4 -1.8,7.5 2.1,7.2 3.8,-0.1 6.5,-3.5 8.5,-6.3 2,-3.2 4.5,-7 3.3,-10.9 -3.7,-3 -3.6,2.6 -3.1,5.1 -0.7,3.8 -2.7,7.9 -6.2,9.8 -3.6,0.6 -1,-4.3 -0.8,-6.1 0.6,-3.2 1.6,-6.3 1.9,-9.5 -0.4,0 -0.8,0 -1.1,0 z m 30.6,0 c -6.3,1.2 -9.5,8.9 -7.8,14.7 1.5,4 7.2,4.2 10.5,2.4 4.6,-2.8 6.6,-9.3 4.8,-14.3 -1.4,-2.8 -4.8,-3 -7.5,-2.8 z m -75.4,1.7 c 2.1,1.5 0.2,4.7 -1.6,5.7 -1.1,0.4 -5.5,3.4 -4.6,0.7 0.8,-2.7 2.2,-6.2 5.3,-6.6 l 0.9,0.1 z m 30.8,0 c 2.6,1.5 1.3,5.2 0.8,7.6 -0.8,2.7 -1.9,5.9 -4.7,7.1 -5.1,0.8 -4,-5.8 -2.8,-8.8 1,-2.8 3,-6.8 6.7,-5.8 z m 47.1,-0.1 c 2.9,0.7 2,4.7 1.5,6.8 -0.7,3 -1.8,6.7 -5,8 -4.7,0.8 -4,-5.1 -3,-7.9 0.9,-3 2.7,-7.3 6.5,-6.8 z m -88.1,5.9 c -0.3,1.3 0.9,-0.6 0,0 z m -1.1,2.4 c -0.2,0.5 0.5,-0.1 0,0 z m -1.3,4.5 c -0.3,1.3 0.8,-0.2 0,0 z" />
                     <text y="41" x="201" fill="#00000" style="font-style:italic;font-weight:normal;font-size:30px;line-height:125%;font-family:Times;text-anchor:middle" xml:space="preserve">engraved with</text>
                  </g>
               </g>
            </g>
         </g>
      </g>
   </svg>
</svg>
