<?xml version="1.0" encoding="UTF-8" standalone="no"?>
<svg width="2100px" height="2970px" version="1.1" xmlns="http://www.w3.org/2000/svg" xmlns:xlink="http://www.w3.org/1999/xlink" xmlns:mei="http://www.music-encoding.org/ns/mei" overflow="visible">
   <desc>Engraved by Verovio 3.13.1</desc>
   <defs>
      <symbol id="E260-1t1t60g" viewBox="0 0 1000 1000" overflow="inherit">
         <path transform="scale(1,-1)" d="M20 110c32 16 54 27 93 27c26 0 35 -3 54 -13c13 -7 24 -20 27 -38l4 -25c0 -28 -16 -57 -45 -89c-23 -25 -39 -44 -65 -68l-88 -79v644h20v-359zM90 106c-32 0 -48 -10 -70 -29v-194c31 31 54 59 71 84c21 32 32 59 32 84c0 9 1 16 1 20c0 14 -3 21 -11 30l-8 3z" />
      </symbol>
      <symbol id="E044-1t1t60g" viewBox="0 0 1000 1000" overflow="inherit">
         <path transform="scale(1,-1)" d="M0 0c0 28 22 50 50 50s50 -22 50 -50s-22 -50 -50 -50s-50 22 -50 50z" />
      </symbol>
      <symbol id="E050-1t1t60g" viewBox="0 0 1000 1000" overflow="inherit">
         <path transform="scale(1,-1)" d="M441 -245c-23 -4 -48 -6 -76 -6c-59 0 -102 7 -130 20c-88 42 -150 93 -187 154c-26 44 -43 103 -48 176c0 6 -1 13 -1 19c0 54 15 111 45 170c29 57 65 106 110 148s96 85 153 127c-3 16 -8 46 -13 92c-4 43 -5 73 -5 89c0 117 16 172 69 257c34 54 64 82 89 82 c21 0 43 -30 69 -92s39 -115 41 -159v-15c0 -109 -21 -162 -67 -241c-13 -20 -63 -90 -98 -118c-13 -9 -25 -19 -37 -29l31 -181c8 1 18 2 28 2c58 0 102 -12 133 -35c59 -43 92 -104 98 -184c1 -7 1 -15 1 -22c0 -123 -87 -209 -181 -248c8 -57 17 -110 25 -162 c5 -31 6 -58 6 -80c0 -30 -5 -53 -14 -70c-35 -64 -88 -99 -158 -103c-5 0 -11 -1 -16 -1c-37 0 -72 10 -108 27c-50 24 -77 59 -80 105v11c0 29 7 55 20 76c18 28 45 42 79 44h6c49 0 93 -42 97 -87v-9c0 -51 -34 -86 -105 -106c17 -24 51 -36 102 -36c62 0 116 43 140 85 c9 16 13 41 13 74c0 20 -1 42 -5 67c-8 53 -18 106 -26 159zM461 939c-95 0 -135 -175 -135 -286c0 -24 2 -48 5 -71c50 39 92 82 127 128c40 53 60 100 60 140v8c-4 53 -22 81 -55 81h-2zM406 119l54 -326c73 25 110 78 110 161c0 7 0 15 -1 23c-7 95 -57 142 -151 142h-12 zM382 117c-72 -2 -128 -47 -128 -120v-7c2 -46 43 -99 75 -115c-3 -2 -7 -5 -10 -10c-70 33 -116 88 -123 172v11c0 68 44 126 88 159c23 17 49 29 78 36l-29 170c-21 -13 -52 -37 -92 -73c-50 -44 -86 -84 -109 -119c-45 -69 -67 -130 -67 -182v-13c5 -68 35 -127 93 -176 s125 -73 203 -73c25 0 50 3 75 9c-19 111 -36 221 -54 331z" />
      </symbol>
      <symbol id="E082-1t1t60g" viewBox="0 0 1000 1000" overflow="inherit">
         <path transform="scale(1,-1)" d="M124 -185c-18 0 -55 -14 -65 -65h-36l-3 30c0 25 6 45 18 63c11 19 22 30 39 43l121 82l37 29c15 11 27 29 38 54c12 24 18 47 18 70c0 40 -19 88 -94 88c-25 0 -32 0 -50 -8c-14 -5 -23 -12 -26 -22c3 -9 7 -15 10 -18l24 -17c12 -7 17 -11 27 -21c5 -7 7 -16 7 -27 c0 -12 0 -57 -79 -74c-30 0 -76 26 -76 94c0 66 81 135 197 135c72 0 181 -32 181 -150c0 -53 -32 -95 -113 -133l-91 -41c-26 -11 -45 -23 -57 -37l49 7c84 0 115 -41 148 -41c20 0 33 20 39 61h35c0 -152 -68 -168 -114 -168c-17 0 -65 0 -79 7h10l-28 17 c-49 37 -69 40 -87 42z" />
      </symbol>
      <symbol id="E084-1t1t60g" viewBox="0 0 1000 1000" overflow="inherit">
         <path transform="scale(1,-1)" d="M20 -78c84 97 114 180 134 329h170c-13 -32 -82 -132 -99 -151l-84 -97c-33 -36 -59 -63 -80 -81h162v102l127 123v-225h57v-39h-57v-34c0 -43 19 -65 57 -65v-34h-244v36c48 0 60 26 60 70v27h-203v39z" />
      </symbol>
      <symbol id="E0A4-1t1t60g" viewBox="0 0 1000 1000" overflow="inherit">
         <path transform="scale(1,-1)" d="M0 -39c0 68 73 172 200 172c66 0 114 -37 114 -95c0 -84 -106 -171 -218 -171c-64 0 -96 30 -96 94z" />
      </symbol>
   </defs>
   <style type="text/css">g.page-margin{font-family:Times;} g.ending, g.fing, g.reh, g.tempo{font-weight:bold;} g.dir, g.dynam, g.mNum{font-style:italic;} g.label{font-weight:normal;}</style>
   <svg class="definition-scale" color="black" viewBox="0 0 21000 29700">
      <g class="page-margin" transform="translate(500, 500)">
         <g id="m1lqebgw" class="mdiv pageMilestone" />
         <g id="s1ud9nwa" class="score pageMilestone" />
         <g id="s1ptupnu" class="system">
            <g id="lkzu81z" class="label">
               <text x="1105" y="1537" text-anchor="end" font-size="0px">
                  <tspan id="t1bstn9y" class="text">
                     <tspan font-size="405px" class="text">Piano</tspan>
                  </tspan>
               </text>
            </g>
            <g id="s1irod0f" class="section systemMilestone" />
            <g id="pzo4oaw" class="pb" />
            <g id="m1ttqk85" class="measure">
               <g id="suh4t7g" class="staff">
                  <path d="M1285 1087 L4754 1087" stroke="currentColor" stroke-width="13" />
                  <path d="M1285 1267 L4754 1267" stroke="currentColor" stroke-width="13" />
                  <path d="M1285 1447 L4754 1447" stroke="currentColor" stroke-width="13" />
                  <path d="M1285 1627 L4754 1627" stroke="currentColor" stroke-width="13" />
                  <path d="M1285 1807 L4754 1807" stroke="currentColor" stroke-width="13" />
                  <g id="c1gd9hw3" class="clef">
                     <use xlink:href="#E050-1t1t60g" x="1375" y="1627" height="720px" width="720px" />
                  </g>
                  <g id="kmbe7y7" class="keySig">
                     <g id="kuaxihl" class="keyAccid">
                        <use xlink:href="#E260-1t1t60g" x="2020" y="1447" height="720px" width="720px" />
                     </g>
                     <g id="k1irs75f" class="keyAccid">
                        <use xlink:href="#E260-1t1t60g" x="2200" y="1177" height="720px" width="720px" />
                     </g>
                  </g>
                  <g id="m1nof9pk" class="meterSig">
                     <use xlink:href="#E082-1t1t60g" x="2508" y="1267" height="720px" width="720px" />
                     <use xlink:href="#E084-1t1t60g" x="2513" y="1627" height="720px" width="720px" />
                  </g>
                  <g id="l1hq6n2z" class="layer">
                     <g id="n10hv2nh" class="note">
                        <g class="notehead">
                           <use xlink:href="#E0A4-1t1t60g" x="3081" y="1267" height="720px" width="720px" />
                        </g>
                        <g id="s1tee694" class="stem">
                           <rect x="3081" y="1295" height="602" width="18" />
                        </g>
                     </g>
                     <g id="nt6ze1p" class="note">
                        <g class="notehead">
                           <use xlink:href="#E0A4-1t1t60g" x="3911" y="1267" height="720px" width="720px" />
                        </g>
                        <g id="s1waf1kk" class="stem">
                           <rect x="3911" y="1295" height="602" width="18" />
                        </g>
                     </g>
                  </g>
               </g>
               <g id="bchflt" class="barLine">
                  <path d="M4741 1087 L4741 1807" stroke="currentColor" stroke-width="27" />
               </g>
            </g>
            <g id="m1y7349y" class="measure">
               <g id="s1kwymm8" class="staff">
                  <path d="M4754 1087 L6860 1087" stroke="currentColor" stroke-width="13" />
                  <path d="M4754 1267 L6860 1267" stroke="currentColor" stroke-width="13" />
                  <path d="M4754 1447 L6860 1447" stroke="currentColor" stroke-width="13" />
                  <path d="M4754 1627 L6860 1627" stroke="currentColor" stroke-width="13" />
                  <path d="M4754 1807 L6860 1807" stroke="currentColor" stroke-width="13" />
                  <g id="l1ttkxps" class="layer">
                     <g id="bwy354x" class="beam">
                        <polygon points="4934,1897 5493,1987 5493,1897 4934,1807" />
                        <g id="n1rbfrnp" class="note">
                           <g class="notehead">
                              <use xlink:href="#E0A4-1t1t60g" x="4934" y="1267" height="720px" width="720px" />
                           </g>
                           <g id="smkib7g" class="stem">
                              <rect x="4934" y="1295" height="584" width="18" />
                           </g>
                        </g>
                        <g id="nxnm259" class="note">
                           <g class="notehead">
                              <use xlink:href="#E0A4-1t1t60g" x="5475" y="1357" height="720px" width="720px" />
                           </g>
                           <g id="s1kswwxk" class="stem">
                              <rect x="5475" y="1385" height="584" width="18" />
                           </g>
                        </g>
                     </g>
                     <g id="n4fjj1" class="note">
                        <g class="notehead">
                           <use xlink:href="#E0A4-1t1t60g" x="6017" y="1447" height="720px" width="720px" />
                        </g>
                        <g id="sf64mem" class="stem">
                           <rect x="6017" y="1475" height="572" width="18" />
                        </g>
                        <g id="a7rueqe" class="accid" />
                     </g>
                  </g>
               </g>
               <g id="b1bjinm6" class="barLine">
                  <path d="M6847 1087 L6847 1807" stroke="currentColor" stroke-width="27" />
               </g>
            </g>
            <g id="m130xf1o" class="measure">
               <g id="s6k2hfc" class="staff">
                  <path d="M6860 1087 L9219 1087" stroke="currentColor" stroke-width="13" />
                  <path d="M6860 1267 L9219 1267" stroke="currentColor" stroke-width="13" />
                  <path d="M6860 1447 L9219 1447" stroke="currentColor" stroke-width="13" />
                  <path d="M6860 1627 L9219 1627" stroke="currentColor" stroke-width="13" />
                  <path d="M6860 1807 L9219 1807" stroke="currentColor" stroke-width="13" />
                  <g id="l1sd3zrs" class="layer">
                     <g id="b189k0j5" class="beam">
                        <polygon points="7040,1987 7599,1897 7599,1807 7040,1897" />
                        <g id="n3lko0m" class="note">
                           <g class="notehead">
                              <use xlink:href="#E0A4-1t1t60g" x="7040" y="1357" height="720px" width="720px" />
                           </g>
                           <g id="s39s703" class="stem">
                              <rect x="7040" y="1385" height="584" width="18" />
                           </g>
                        </g>
                        <g id="n19f3if2" class="note">
                           <g class="notehead">
                              <use xlink:href="#E0A4-1t1t60g" x="7581" y="1267" height="720px" width="720px" />
                           </g>
                           <g id="s1fvmlh7" class="stem">
                              <rect x="7581" y="1295" height="584" width="18" />
                           </g>
                        </g>
                     </g>
                     <g id="bl858ba" class="beam">
                        <polygon points="8123,1987 8683,2167 8683,2077 8123,1897" />
                        <g id="n1b1tpuw" class="note">
                           <g class="notehead">
                              <use xlink:href="#E0A4-1t1t60g" x="8123" y="1267" height="720px" width="720px" />
                           </g>
                           <g id="ssjqrtw" class="stem">
                              <rect x="8123" y="1295" height="674" width="18" />
                           </g>
                        </g>
                        <g id="n3quenm" class="note">
                           <g class="notehead">
                              <use xlink:href="#E0A4-1t1t60g" x="8665" y="1627" height="720px" width="720px" />
                           </g>
                           <g id="sigajn3" class="stem">
                              <rect x="8665" y="1655" height="494" width="18" />
                           </g>
                        </g>
                     </g>
                  </g>
               </g>
               <g id="b1sspipy" class="barLine">
                  <path d="M9206 1087 L9206 1807" stroke="currentColor" stroke-width="27" />
               </g>
            </g>
            <g id="mv7ss4h" class="measure">
               <g id="sg2x194" class="staff">
                  <path d="M9219 1087 L11578 1087" stroke="currentColor" stroke-width="13" />
                  <path d="M9219 1267 L11578 1267" stroke="currentColor" stroke-width="13" />
                  <path d="M9219 1447 L11578 1447" stroke="currentColor" stroke-width="13" />
                  <path d="M9219 1627 L11578 1627" stroke="currentColor" stroke-width="13" />
                  <path d="M9219 1807 L11578 1807" stroke="currentColor" stroke-width="13" />
                  <g id="l1bodzgk" class="layer">
                     <g id="bvdq9fr" class="beam">
                        <polygon points="9607,997 10166,907 10166,997 9607,1087" />
                        <g id="n5zei50" class="note">
                           <g class="notehead">
                              <use xlink:href="#E0A4-1t1t60g" x="9399" y="1627" height="720px" width="720px" />
                           </g>
                           <g id="s1ab06g0" class="stem">
                              <rect x="9607" y="1015" height="584" width="18" />
                           </g>
                        </g>
                        <g id="nycui3d" class="note">
                           <g class="notehead">
                              <use xlink:href="#E0A4-1t1t60g" x="9940" y="1537" height="720px" width="720px" />
                           </g>
                           <g id="scird3g" class="stem">
                              <rect x="10148" y="925" height="584" width="18" />
                           </g>
                        </g>
                     </g>
                     <g id="b131h98i" class="beam">
                        <polygon points="10482,2032 11042,1942 11042,1852 10482,1942" />
                        <g id="nocgk02" class="note">
                           <g class="notehead">
                              <use xlink:href="#E0A4-1t1t60g" x="10482" y="1447" height="720px" width="720px" />
                           </g>
                           <g id="swtewk8" class="stem">
                              <rect x="10482" y="1475" height="539" width="18" />
                           </g>
                           <g id="a1am6oox" class="accid" />
                        </g>
                        <g id="n1yu6p4" class="note">
                           <g class="notehead">
                              <use xlink:href="#E0A4-1t1t60g" x="11024" y="1357" height="720px" width="720px" />
                           </g>
                           <g id="snk6mtf" class="stem">
                              <rect x="11024" y="1385" height="539" width="18" />
                           </g>
                        </g>
                     </g>
                  </g>
               </g>
               <g id="b1bk6ilx" class="barLine">
                  <path d="M11565 1087 L11565 1807" stroke="currentColor" stroke-width="27" />
               </g>
            </g>
            <g id="m1x9hpuc" class="measure">
               <g id="s1rt6n09" class="staff">
                  <path d="M11578 1087 L13431 1087" stroke="currentColor" stroke-width="13" />
                  <path d="M11578 1267 L13431 1267" stroke="currentColor" stroke-width="13" />
                  <path d="M11578 1447 L13431 1447" stroke="currentColor" stroke-width="13" />
                  <path d="M11578 1627 L13431 1627" stroke="currentColor" stroke-width="13" />
                  <path d="M11578 1807 L13431 1807" stroke="currentColor" stroke-width="13" />
                  <g id="l1n26jl5" class="layer">
                     <g id="n1d0j36u" class="note">
                        <g class="notehead">
                           <use xlink:href="#E0A4-1t1t60g" x="11758" y="1267" height="720px" width="720px" />
                        </g>
                        <g id="sb0wmj0" class="stem">
                           <rect x="11758" y="1295" height="602" width="18" />
                        </g>
                     </g>
                     <g id="n1a9v716" class="note">
                        <g class="notehead">
                           <use xlink:href="#E0A4-1t1t60g" x="12588" y="1267" height="720px" width="720px" />
                        </g>
                        <g id="s15dhsim" class="stem">
                           <rect x="12588" y="1295" height="602" width="18" />
                        </g>
                     </g>
                  </g>
               </g>
               <g id="b1bay66e" class="barLine">
                  <path d="M13418 1087 L13418 1807" stroke="currentColor" stroke-width="27" />
               </g>
            </g>
            <g id="m97xn9a" class="measure">
               <g id="s3beepb" class="staff">
                  <path d="M13431 1087 L15537 1087" stroke="currentColor" stroke-width="13" />
                  <path d="M13431 1267 L15537 1267" stroke="currentColor" stroke-width="13" />
                  <path d="M13431 1447 L15537 1447" stroke="currentColor" stroke-width="13" />
                  <path d="M13431 1627 L15537 1627" stroke="currentColor" stroke-width="13" />
                  <path d="M13431 1807 L15537 1807" stroke="currentColor" stroke-width="13" />
                  <g id="lvbls63" class="layer">
                     <g id="bqxo1ga" class="beam">
                        <polygon points="13611,1897 14170,1987 14170,1897 13611,1807" />
                        <g id="n6eeor" class="note">
                           <g class="notehead">
                              <use xlink:href="#E0A4-1t1t60g" x="13611" y="1267" height="720px" width="720px" />
                           </g>
                           <g id="s1xwyb7f" class="stem">
                              <rect x="13611" y="1295" height="584" width="18" />
                           </g>
                        </g>
                        <g id="n1lh4t6a" class="note">
                           <g class="notehead">
                              <use xlink:href="#E0A4-1t1t60g" x="14152" y="1357" height="720px" width="720px" />
                           </g>
                           <g id="sxa6hd7" class="stem">
                              <rect x="14152" y="1385" height="584" width="18" />
                           </g>
                        </g>
                     </g>
                     <g id="n1xpzzpv" class="note">
                        <g class="notehead">
                           <use xlink:href="#E0A4-1t1t60g" x="14694" y="1447" height="720px" width="720px" />
                        </g>
                        <g id="s1qi8u84" class="stem">
                           <rect x="14694" y="1475" height="572" width="18" />
                        </g>
                        <g id="ay4r1xd" class="accid" />
                     </g>
                  </g>
               </g>
               <g id="b100z2mx" class="barLine">
                  <path d="M15524 1087 L15524 1807" stroke="currentColor" stroke-width="27" />
               </g>
            </g>
            <g id="mio5nqw" class="measure">
               <g id="s1m0jbmm" class="staff">
                  <path d="M15537 1087 L17896 1087" stroke="currentColor" stroke-width="13" />
                  <path d="M15537 1267 L17896 1267" stroke="currentColor" stroke-width="13" />
                  <path d="M15537 1447 L17896 1447" stroke="currentColor" stroke-width="13" />
                  <path d="M15537 1627 L17896 1627" stroke="currentColor" stroke-width="13" />
                  <path d="M15537 1807 L17896 1807" stroke="currentColor" stroke-width="13" />
                  <g id="l1e7s8e0" class="layer">
                     <g id="b1eya7k6" class="beam">
                        <polygon points="15717,1987 16276,1897 16276,1807 15717,1897" />
                        <g id="nm4rtbx" class="note">
                           <g class="notehead">
                              <use xlink:href="#E0A4-1t1t60g" x="15717" y="1357" height="720px" width="720px" />
                           </g>
                           <g id="s1ugcgwm" class="stem">
                              <rect x="15717" y="1385" height="584" width="18" />
                           </g>
                        </g>
                        <g id="n1gg848s" class="note">
                           <g class="notehead">
                              <use xlink:href="#E0A4-1t1t60g" x="16258" y="1267" height="720px" width="720px" />
                           </g>
                           <g id="sg1u4o1" class="stem">
                              <rect x="16258" y="1295" height="584" width="18" />
                           </g>
                        </g>
                     </g>
                     <g id="b1g73nh1" class="beam">
                        <polygon points="16800,1897 17360,1987 17360,1897 16800,1807" />
                        <g id="nonfhp7" class="note">
                           <g class="notehead">
                              <use xlink:href="#E0A4-1t1t60g" x="16800" y="1267" height="720px" width="720px" />
                           </g>
                           <g id="s14ha1ek" class="stem">
                              <rect x="16800" y="1295" height="584" width="18" />
                           </g>
                        </g>
                        <g id="n57f7g3" class="note">
                           <g class="notehead">
                              <use xlink:href="#E0A4-1t1t60g" x="17342" y="1357" height="720px" width="720px" />
                           </g>
                           <g id="slncsg8" class="stem">
                              <rect x="17342" y="1385" height="584" width="18" />
                           </g>
                        </g>
                     </g>
                  </g>
               </g>
               <g id="b1b1yzjd" class="barLine">
                  <path d="M17883 1087 L17883 1807" stroke="currentColor" stroke-width="27" />
               </g>
            </g>
            <g id="mmcjozn" class="measure">
               <g id="s1kvvs9f" class="staff">
                  <path d="M17896 1087 L20002 1087" stroke="currentColor" stroke-width="13" />
                  <path d="M17896 1267 L20002 1267" stroke="currentColor" stroke-width="13" />
                  <path d="M17896 1447 L20002 1447" stroke="currentColor" stroke-width="13" />
                  <path d="M17896 1627 L20002 1627" stroke="currentColor" stroke-width="13" />
                  <path d="M17896 1807 L20002 1807" stroke="currentColor" stroke-width="13" />
                  <g id="lll19qw" class="layer">
                     <g id="b1cm9xaw" class="beam">
                        <polygon points="18284,862 18843,952 18843,1042 18284,952" />
                        <g id="n1xcwlzg" class="note">
                           <g class="notehead">
                              <use xlink:href="#E0A4-1t1t60g" x="18076" y="1447" height="720px" width="720px" />
                           </g>
                           <g id="s1wbf2j8" class="stem">
                              <rect x="18284" y="880" height="539" width="18" />
                           </g>
                           <g id="a4ojowj" class="accid" />
                        </g>
                        <g id="nfqjma" class="note">
                           <g class="notehead">
                              <use xlink:href="#E0A4-1t1t60g" x="18617" y="1537" height="720px" width="720px" />
                           </g>
                           <g id="s1qunby1" class="stem">
                              <rect x="18825" y="970" height="539" width="18" />
                           </g>
                        </g>
                     </g>
                     <g id="niaw74g" class="note">
                        <g class="notehead">
                           <use xlink:href="#E0A4-1t1t60g" x="19159" y="1627" height="720px" width="720px" />
                        </g>
                        <g id="s1kzc41p" class="stem">
                           <rect x="19367" y="997" height="602" width="18" />
                        </g>
                     </g>
                  </g>
               </g>
               <g id="b1ctxo6k" class="barLine">
                  <path d="M19989 1087 L19989 1807" stroke="currentColor" stroke-width="27" />
               </g>
            </g>
         </g>
         <g id="slqczfi" class="system">
            <g id="l24xpyj" class="labelAbbr">
               <text x="914" y="3810" text-anchor="end" font-size="0px">
                  <tspan id="t760t0f" class="text">
                     <tspan font-size="405px" class="text">Pno.</tspan>
                  </tspan>
               </text>
            </g>
            <g id="m1103bpf" class="measure">
               <g id="m1tt7vls" class="mNum autogenerated">
                  <text x="1094" y="3117" text-anchor="middle" font-size="0px">
                     <tspan id="t4pp4r6" class="text">
                        <tspan font-size="324px" class="text">9</tspan>
                     </tspan>
                  </text>
               </g>
               <g id="s13vkz2d" class="staff">
                  <path d="M1094 3360 L4993 3360" stroke="currentColor" stroke-width="13" />
                  <path d="M1094 3540 L4993 3540" stroke="currentColor" stroke-width="13" />
                  <path d="M1094 3720 L4993 3720" stroke="currentColor" stroke-width="13" />
                  <path d="M1094 3900 L4993 3900" stroke="currentColor" stroke-width="13" />
                  <path d="M1094 4080 L4993 4080" stroke="currentColor" stroke-width="13" />
                  <g id="c14pwv17" class="clef">
                     <use xlink:href="#E050-1t1t60g" x="1184" y="3900" height="720px" width="720px" />
                  </g>
                  <g id="k1bcn97b" class="keySig">
                     <g id="k1fyohr8" class="keyAccid">
                        <use xlink:href="#E260-1t1t60g" x="1829" y="3720" height="720px" width="720px" />
                     </g>
                     <g id="ktwvjwq" class="keyAccid">
                        <use xlink:href="#E260-1t1t60g" x="2009" y="3450" height="720px" width="720px" />
                     </g>
                  </g>
                  <g id="lb4j3t0" class="layer">
                     <g id="bevjmg6" class="beam">
                        <polygon points="2804,4305 3366,4305 3366,4215 2804,4215" />
                        <g id="n1v3w390" class="note">
                           <g class="notehead">
                              <use xlink:href="#E0A4-1t1t60g" x="2804" y="3720" height="720px" width="720px" />
                           </g>
                           <g id="s1w6pw8l" class="stem">
                              <rect x="2804" y="3748" height="539" width="18" />
                           </g>
                           <g id="avv00qm" class="accid" />
                        </g>
                        <g id="n1ptkigw" class="note">
                           <g class="notehead">
                              <use xlink:href="#E0A4-1t1t60g" x="3348" y="3720" height="720px" width="720px" />
                           </g>
                           <g id="s1cyr70f" class="stem">
                              <rect x="3348" y="3748" height="539" width="18" />
                           </g>
                           <g id="anl43sr" class="accid" />
                        </g>
                     </g>
                     <g id="bmw3nzp" class="beam">
                        <polygon points="3892,4260 4454,4170 4454,4080 3892,4170" />
                        <g id="n500a3q" class="note">
                           <g class="notehead">
                              <use xlink:href="#E0A4-1t1t60g" x="3892" y="3630" height="720px" width="720px" />
                           </g>
                           <g id="s5mqsx9" class="stem">
                              <rect x="3892" y="3658" height="584" width="18" />
                           </g>
                        </g>
                        <g id="nwxrcap" class="note">
                           <g class="notehead">
                              <use xlink:href="#E0A4-1t1t60g" x="4436" y="3540" height="720px" width="720px" />
                           </g>
                           <g id="s1pqt8dw" class="stem">
                              <rect x="4436" y="3568" height="584" width="18" />
                           </g>
                        </g>
                     </g>
                  </g>
               </g>
               <g id="b1mn56qp" class="barLine">
                  <path d="M2376 3360 L2376 4080" stroke="currentColor" stroke-width="90" />
                  <path d="M2506 3360 L2506 4080" stroke="currentColor" stroke-width="27" />
                  <use xlink:href="#E044-1t1t60g" x="2552" y="3630" height="720px" width="720px" />
                  <use xlink:href="#E044-1t1t60g" x="2552" y="3810" height="720px" width="720px" />
               </g>
               <g id="b3jek0" class="barLine">
                  <path d="M4980 3360 L4980 4080" stroke="currentColor" stroke-width="27" />
               </g>
            </g>
            <g id="s1ydbovb" class="sb" />
            <g id="m80mm0i" class="measure">
               <g id="s5bqnxy" class="staff">
                  <path d="M4993 3360 L7362 3360" stroke="currentColor" stroke-width="13" />
                  <path d="M4993 3540 L7362 3540" stroke="currentColor" stroke-width="13" />
                  <path d="M4993 3720 L7362 3720" stroke="currentColor" stroke-width="13" />
                  <path d="M4993 3900 L7362 3900" stroke="currentColor" stroke-width="13" />
                  <path d="M4993 4080 L7362 4080" stroke="currentColor" stroke-width="13" />
                  <g id="lruch38" class="layer">
                     <g id="bg2uvk" class="beam">
                        <polygon points="5173,4170 5735,4260 5735,4170 5173,4080" />
                        <g id="n1o4po95" class="note">
                           <g class="notehead">
                              <use xlink:href="#E0A4-1t1t60g" x="5173" y="3540" height="720px" width="720px" />
                           </g>
                           <g id="s18ar864" class="stem">
                              <rect x="5173" y="3568" height="584" width="18" />
                           </g>
                        </g>
                        <g id="nn3dl0e" class="note">
                           <g class="notehead">
                              <use xlink:href="#E0A4-1t1t60g" x="5717" y="3630" height="720px" width="720px" />
                           </g>
                           <g id="s19mv5g1" class="stem">
                              <rect x="5717" y="3658" height="584" width="18" />
                           </g>
                        </g>
                     </g>
                     <g id="b16ksk8f" class="beam">
                        <polygon points="6261,4125 6823,4125 6823,4035 6261,4035" />
                        <g id="n5ufj1w" class="note">
                           <g class="notehead">
                              <use xlink:href="#E0A4-1t1t60g" x="6261" y="3540" height="720px" width="720px" />
                           </g>
                           <g id="sl0xc6o" class="stem">
                              <rect x="6261" y="3568" height="539" width="18" />
                           </g>
                        </g>
                        <g id="nslbdno" class="note">
                           <g class="notehead">
                              <use xlink:href="#E0A4-1t1t60g" x="6805" y="3540" height="720px" width="720px" />
                           </g>
                           <g id="s1erjziw" class="stem">
                              <rect x="6805" y="3568" height="539" width="18" />
                           </g>
                        </g>
                     </g>
                  </g>
               </g>
               <g id="b1h75gko" class="barLine">
                  <path d="M7349 3360 L7349 4080" stroke="currentColor" stroke-width="27" />
               </g>
            </g>
            <g id="m8seuon" class="measure">
               <g id="snll48b" class="staff">
                  <path d="M7362 3360 L9731 3360" stroke="currentColor" stroke-width="13" />
                  <path d="M7362 3540 L9731 3540" stroke="currentColor" stroke-width="13" />
                  <path d="M7362 3720 L9731 3720" stroke="currentColor" stroke-width="13" />
                  <path d="M7362 3900 L9731 3900" stroke="currentColor" stroke-width="13" />
                  <path d="M7362 4080 L9731 4080" stroke="currentColor" stroke-width="13" />
                  <g id="l1ghfs97" class="layer">
                     <g id="b127tapw" class="beam">
                        <polygon points="7542,4305 8104,4305 8104,4215 7542,4215" />
                        <g id="nma6u0k" class="note">
                           <g class="notehead">
                              <use xlink:href="#E0A4-1t1t60g" x="7542" y="3720" height="720px" width="720px" />
                           </g>
                           <g id="s168jj3l" class="stem">
                              <rect x="7542" y="3748" height="539" width="18" />
                           </g>
                           <g id="ah64nb4" class="accid" />
                        </g>
                        <g id="nnfqsi1" class="note">
                           <g class="notehead">
                              <use xlink:href="#E0A4-1t1t60g" x="8086" y="3720" height="720px" width="720px" />
                           </g>
                           <g id="s19hnzrr" class="stem">
                              <rect x="8086" y="3748" height="539" width="18" />
                           </g>
                           <g id="a1a52si1" class="accid" />
                        </g>
                     </g>
                     <g id="bkmpnzm" class="beam">
                        <polygon points="8630,4260 9192,4170 9192,4080 8630,4170" />
                        <g id="nh4jh10" class="note">
                           <g class="notehead">
                              <use xlink:href="#E0A4-1t1t60g" x="8630" y="3630" height="720px" width="720px" />
                           </g>
                           <g id="s1gws2uj" class="stem">
                              <rect x="8630" y="3658" height="584" width="18" />
                           </g>
                        </g>
                        <g id="n10rwiae" class="note">
                           <g class="notehead">
                              <use xlink:href="#E0A4-1t1t60g" x="9174" y="3540" height="720px" width="720px" />
                           </g>
                           <g id="s8xv3w5" class="stem">
                              <rect x="9174" y="3568" height="584" width="18" />
                           </g>
                        </g>
                     </g>
                  </g>
               </g>
               <g id="bwf76fb" class="barLine">
                  <path d="M9718 3360 L9718 4080" stroke="currentColor" stroke-width="27" />
               </g>
            </g>
            <g id="m1jivpgz" class="measure">
               <g id="s1riefr3" class="staff">
                  <path d="M9731 3360 L12008 3360" stroke="currentColor" stroke-width="13" />
                  <path d="M9731 3540 L12008 3540" stroke="currentColor" stroke-width="13" />
                  <path d="M9731 3720 L12008 3720" stroke="currentColor" stroke-width="13" />
                  <path d="M9731 3900 L12008 3900" stroke="currentColor" stroke-width="13" />
                  <path d="M9731 4080 L12008 4080" stroke="currentColor" stroke-width="13" />
                  <g id="l1yw5ipv" class="layer">
                     <g id="b1syqvy7" class="beam">
                        <polygon points="9911,4170 10473,4260 10473,4170 9911,4080" />
                        <g id="n1fl7tqd" class="note">
                           <g class="notehead">
                              <use xlink:href="#E0A4-1t1t60g" x="9911" y="3540" height="720px" width="720px" />
                           </g>
                           <g id="sdqmi1o" class="stem">
                              <rect x="9911" y="3568" height="584" width="18" />
                           </g>
                        </g>
                        <g id="n19c24du" class="note">
                           <g class="notehead">
                              <use xlink:href="#E0A4-1t1t60g" x="10455" y="3630" height="720px" width="720px" />
                           </g>
                           <g id="s3aegi1" class="stem">
                              <rect x="10455" y="3658" height="584" width="18" />
                           </g>
                        </g>
                     </g>
                     <g id="nwlp78q" class="note">
                        <g class="notehead">
                           <use xlink:href="#E0A4-1t1t60g" x="10999" y="3540" height="720px" width="720px" />
                        </g>
                        <g id="sotev46" class="stem">
                           <rect x="10999" y="3568" height="602" width="18" />
                        </g>
                     </g>
                  </g>
               </g>
               <g id="bg4cks" class="barLine">
                  <path d="M11833 3360 L11833 4080" stroke="currentColor" stroke-width="27" />
                  <path d="M11963 3360 L11963 4080" stroke="currentColor" stroke-width="90" />
               </g>
            </g>
            <g id="soo5f68" class="systemMilestoneEnd s1irod0f" />
         </g>
         <g id="p1egpa90" class="pageMilestoneEnd s1ud9nwa" />
         <g id="p1hnlxm3" class="pageMilestoneEnd m1lqebgw" />
         <g id="p1gzeyxc" class="pgHead">
            <text x="0" y="0" font-size="0px">
               <tspan id="rl5fhck" class="rend" x="10000" y="279" text-anchor="middle">
                  <tspan id="tiy30ou" class="text">
                     <tspan font-size="405px" class="text">Air n 195</tspan>
                  </tspan>
               </tspan>
            </text>
         </g>
         <g id="p19ns04h" class="pgFoot autogenerated">
            <g id="f71yaxk" class="fig">
               <g id="s1cglnk9" class="svg" transform="translate(7750, 28099) scale(10, 10)">
                  <g>
                     <path fill="#00000" d="M 17.11278,49.26451 V 10.367554 h 12.696511 c 3.288815,7.336676 6.71267,14.610456 10.127281,21.888976 3.419998,-7.484684 6.255515,-14.204887 9.58887,-21.909915 2.436207,0.103726 4.316952,0.08453 6.484294,-0.05808 V 49.264423 H 50.274275 C 50.145222,38.35639 50.016136,27.448368 49.887066,16.540329 45.003488,27.315459 39.967448,38.433564 35.083854,49.208695 34.678996,49.343717 34.426583,49.135619 34.021726,49.270644 29.46588,39.330716 24.910049,29.390805 20.354201,19.450876 20.224341,29.388756 20.09461,39.326619 19.964815,49.264497 H 17.11278 Z M 36.754144,39.324695 C 32.721221,30.512695 28.6883,21.700679 24.655394,12.888662 22.530527,12.750737 22.656775,12.71031 20.714356,12.813974 v 0.966497 c 4.612938,9.99784 9.609439,20.748709 13.87298,30.081745 0.722248,-1.512523 1.444528,-3.025014 2.166808,-4.537521 z m 25.738417,9.939815 c 0,-12.965651 0,-25.931305 0,-38.896956 10.084388,0 20.168791,0 30.253178,0 0,0.960416 0,1.920849 0,2.881265 -6.482825,0 -12.965652,0 -19.448478,0 0,4.802097 0,9.604178 0,14.406277 5.52241,0 11.044819,0 16.567229,0 0,0.960415 0,1.920832 0,2.881248 -5.52241,0 -11.044819,0 -16.567229,0 0,5.282306 0,10.564611 0,15.846917 6.963035,0 13.926068,0 20.889103,0 0,0.960416 0,1.920832 0,2.881249 -10.564597,0 -21.129207,0 -31.693803,0 z m 4.321874,-2.160937 c 0,-11.765131 0,-23.530263 0,-35.295394 -0.720312,0 -1.440625,0 -2.160937,0 0,11.765131 0,23.530263 0,35.295394 0.720312,0 1.440625,0 2.160937,0 z m 32.41413,2.160937 c 0,-12.965651 0,-25.931305 0,-38.896956 2.401045,0 4.802095,0 7.203135,0 0,12.965651 0,25.931305 0,38.896956 -2.40104,0 -4.80209,0 -7.203135,0 z m 2.881265,-2.160937 c 0,-11.765131 0,-23.530263 0,-35.295394 -0.72031,0 -1.44064,0 -2.160953,0 0,11.765131 0,23.530263 0,35.295394 0.720313,0 1.440643,0 2.160953,0 z" />
                     <path fill="#00000" d="m 346.3,6.7 c -3.1,0.5 -4.9,4.4 -2.7,6.8 1.2,1.4 2.7,2.4 4.1,3.5 -2.4,5.3 -7.7,8.3 -11.9,12.1 -3.7,2.8 -7,6.2 -9.7,9.9 -2.2,-0.8 -0.3,-6.8 -0.6,-9.5 0.1,-3.1 0.7,-6.4 2.9,-8.7 1.3,-1.9 3,-3.5 4.5,-5.2 1.2,-3.4 -3.2,-4.9 -5.8,-4.6 -7.3,-0.5 -14.6,2 -20,6.8 -5,4.6 -10,10.1 -11.5,17 -0.9,3.5 -0.2,7.5 2.8,9.9 2.5,2.8 7.4,2.9 9.8,-0.2 1.7,-2.3 3.2,-4.8 3.8,-7.6 -0.1,-2.6 -4.4,-2.3 -4.3,0.2 1.2,2.4 -0.9,4.7 -2.7,6.2 -1.7,0.9 -4.7,0.7 -4.8,-1.7 -1,-5.8 2.1,-11.3 5.2,-16.1 4,-5.8 9.8,-11.2 17.2,-11.8 1.6,0 8.1,-1.2 6.8,1.4 -2.8,2.8 -5.6,6.1 -6,10.3 -1.6,7.7 0.1,15.7 -2.3,23.2 -1.1,3.9 2,2.6 2.5,0.2 3.3,-7.4 8.9,-13.4 15.1,-18.5 4.2,-3.9 9.5,-7.1 11.9,-12.6 1.3,-3.6 1.2,-9 -2.7,-10.9 -0.6,-0.2 -1.2,-0.3 -1.8,-0.3 z m 66,14.5 c -2,0.8 -1.8,4.9 0.8,4.4 3.4,0.4 2.9,-6.2 -0.8,-4.4 z m 0.6,7.3 c -1.3,0.5 -7.6,0.5 -5.4,2.2 4,-0.3 0.7,4.5 0.6,6.7 -0.4,2.9 -2.4,5.9 -1.2,8.8 2.7,1.7 5.6,-0.8 6.8,-3.2 1.6,-1.4 -0.5,-3 -1.2,-0.9 -0.4,0.8 -2.4,3.5 -2.6,1.8 1.1,-5 2.7,-9.9 3.9,-14.9 l -0.1,-0.5 h -0.9 z m -65.1,0.2 c -6.5,1.6 -10.5,9.5 -8.2,15.7 2.1,3.4 7.4,2.9 10.1,0.4 2,-0.2 3.6,-5.3 1,-3.4 -1.4,2 -4,4.2 -6.5,2.8 -2.2,-1.9 -1.9,-5.7 1.7,-5.3 3.1,-0.9 6.9,-2.1 8.1,-5.5 0.9,-2.7 -1.6,-5.2 -4.3,-4.8 h -1.1 -0.7 z m 13.6,0 c -2.2,0 -8.5,1.8 -2.9,2.3 0.9,1.9 -1,4.9 -1.1,7.2 -0.5,2.9 -1.4,5.7 -1.7,8.7 3.7,0.7 3.8,-2.6 4.4,-5.3 0.9,-3.3 1.6,-7 4.1,-9.5 2.4,1.6 6.8,-0.7 3.7,-3.4 -2.9,-0.5 -4.8,2.4 -6.2,4.3 0,-1.2 2.4,-5 -0.2,-4.3 z m 15.8,0 c -6.4,1.3 -9.6,9.1 -7.7,14.9 1.9,4 7.7,3.9 11,1.7 4.1,-3 6,-8.9 4.4,-13.7 -1.3,-3 -4.8,-3.2 -7.6,-3 z m 17,0 c -2.3,0 -8.8,1.9 -3,2.4 0.4,2.5 -1,5.7 -1.4,8.4 -0.7,2.4 -1.8,7.5 2.1,7.2 3.8,-0.1 6.5,-3.5 8.5,-6.3 2,-3.2 4.5,-7 3.3,-10.9 -3.7,-3 -3.6,2.6 -3.1,5.1 -0.7,3.8 -2.7,7.9 -6.2,9.8 -3.6,0.6 -1,-4.3 -0.8,-6.1 0.6,-3.2 1.6,-6.3 1.9,-9.5 -0.4,0 -0.8,0 -1.1,0 z m 30.6,0 c -6.3,1.2 -9.5,8.9 -7.8,14.7 1.5,4 7.2,4.2 10.5,2.4 4.6,-2.8 6.6,-9.3 4.8,-14.3 -1.4,-2.8 -4.8,-3 -7.5,-2.8 z m -75.4,1.7 c 2.1,1.5 0.2,4.7 -1.6,5.7 -1.1,0.4 -5.5,3.4 -4.6,0.7 0.8,-2.7 2.2,-6.2 5.3,-6.6 l 0.9,0.1 z m 30.8,0 c 2.6,1.5 1.3,5.2 0.8,7.6 -0.8,2.7 -1.9,5.9 -4.7,7.1 -5.1,0.8 -4,-5.8 -2.8,-8.8 1,-2.8 3,-6.8 6.7,-5.8 z m 47.1,-0.1 c 2.9,0.7 2,4.7 1.5,6.8 -0.7,3 -1.8,6.7 -5,8 -4.7,0.8 -4,-5.1 -3,-7.9 0.9,-3 2.7,-7.3 6.5,-6.8 z m -88.1,5.9 c -0.3,1.3 0.9,-0.6 0,0 z m -1.1,2.4 c -0.2,0.5 0.5,-0.1 0,0 z m -1.3,4.5 c -0.3,1.3 0.8,-0.2 0,0 z" />
                     <text y="41" x="201" fill="#00000" style="font-style:italic;font-weight:normal;font-size:30px;line-height:125%;font-family:Times;text-anchor:middle" xml:space="preserve">engraved with</text>
                  </g>
               </g>
            </g>
         </g>
      </g>
   </svg>
</svg>
