<?xml version="1.0" encoding="UTF-8" standalone="no"?>
<svg width="2100px" height="2970px" version="1.1" xmlns="http://www.w3.org/2000/svg" xmlns:xlink="http://www.w3.org/1999/xlink" xmlns:mei="http://www.music-encoding.org/ns/mei" overflow="visible">
   <desc>Engraved by Verovio 3.13.1</desc>
   <defs>
      <symbol id="E260-1ln0d70" viewBox="0 0 1000 1000" overflow="inherit">
         <path transform="scale(1,-1)" d="M20 110c32 16 54 27 93 27c26 0 35 -3 54 -13c13 -7 24 -20 27 -38l4 -25c0 -28 -16 -57 -45 -89c-23 -25 -39 -44 -65 -68l-88 -79v644h20v-359zM90 106c-32 0 -48 -10 -70 -29v-194c31 31 54 59 71 84c21 32 32 59 32 84c0 9 1 16 1 20c0 14 -3 21 -11 30l-8 3z" />
      </symbol>
      <symbol id="E044-1ln0d70" viewBox="0 0 1000 1000" overflow="inherit">
         <path transform="scale(1,-1)" d="M0 0c0 28 22 50 50 50s50 -22 50 -50s-22 -50 -50 -50s-50 22 -50 50z" />
      </symbol>
      <symbol id="E050-1ln0d70" viewBox="0 0 1000 1000" overflow="inherit">
         <path transform="scale(1,-1)" d="M441 -245c-23 -4 -48 -6 -76 -6c-59 0 -102 7 -130 20c-88 42 -150 93 -187 154c-26 44 -43 103 -48 176c0 6 -1 13 -1 19c0 54 15 111 45 170c29 57 65 106 110 148s96 85 153 127c-3 16 -8 46 -13 92c-4 43 -5 73 -5 89c0 117 16 172 69 257c34 54 64 82 89 82 c21 0 43 -30 69 -92s39 -115 41 -159v-15c0 -109 -21 -162 -67 -241c-13 -20 -63 -90 -98 -118c-13 -9 -25 -19 -37 -29l31 -181c8 1 18 2 28 2c58 0 102 -12 133 -35c59 -43 92 -104 98 -184c1 -7 1 -15 1 -22c0 -123 -87 -209 -181 -248c8 -57 17 -110 25 -162 c5 -31 6 -58 6 -80c0 -30 -5 -53 -14 -70c-35 -64 -88 -99 -158 -103c-5 0 -11 -1 -16 -1c-37 0 -72 10 -108 27c-50 24 -77 59 -80 105v11c0 29 7 55 20 76c18 28 45 42 79 44h6c49 0 93 -42 97 -87v-9c0 -51 -34 -86 -105 -106c17 -24 51 -36 102 -36c62 0 116 43 140 85 c9 16 13 41 13 74c0 20 -1 42 -5 67c-8 53 -18 106 -26 159zM461 939c-95 0 -135 -175 -135 -286c0 -24 2 -48 5 -71c50 39 92 82 127 128c40 53 60 100 60 140v8c-4 53 -22 81 -55 81h-2zM406 119l54 -326c73 25 110 78 110 161c0 7 0 15 -1 23c-7 95 -57 142 -151 142h-12 zM382 117c-72 -2 -128 -47 -128 -120v-7c2 -46 43 -99 75 -115c-3 -2 -7 -5 -10 -10c-70 33 -116 88 -123 172v11c0 68 44 126 88 159c23 17 49 29 78 36l-29 170c-21 -13 -52 -37 -92 -73c-50 -44 -86 -84 -109 -119c-45 -69 -67 -130 -67 -182v-13c5 -68 35 -127 93 -176 s125 -73 203 -73c25 0 50 3 75 9c-19 111 -36 221 -54 331z" />
      </symbol>
      <symbol id="E086-1ln0d70" viewBox="0 0 1000 1000" overflow="inherit">
         <path transform="scale(1,-1)" d="M284 -91c0 37 -28 92 -67 92c-35 0 -65 -54 -65 -111c0 -52 22 -104 68 -104c47 0 64 68 64 123zM230 214c-36 0 -90 -33 -90 -184l2 -36c40 24 81 36 120 36c80 0 140 -48 140 -121c0 -99 -99 -159 -182 -159c-160 0 -200 173 -200 244c0 21 2 43 7 71l10 35 c26 85 73 115 98 126c41 19 74 24 103 24c93 0 142 -63 142 -105c0 -58 -52 -72 -73 -72c-33 0 -59 24 -65 35c-3 5 -6 14 -7 25l11 30c6 15 9 27 9 35c0 11 -9 16 -25 16z" />
      </symbol>
      <symbol id="E088-1ln0d70" viewBox="0 0 1000 1000" overflow="inherit">
         <path transform="scale(1,-1)" d="M195 -214c76 0 88 58 90 68c0 34 -35 60 -57 73l-52 29c-21 10 -32 17 -34 20c-39 -33 -58 -54 -62 -92c5 -23 23 -98 115 -98zM301 135c0 61 -72 76 -113 76c-40 0 -77 -17 -77 -51c3 -21 15 -38 26 -50c17 -15 33 -26 48 -34l65 -28c34 27 51 56 51 87zM176 -250 c-57 0 -166 26 -166 132c0 47 30 86 89 116c-33 15 -79 60 -79 119c0 79 85 132 178 132h18c5 0 21 1 28 -1c25 0 126 -30 126 -110c0 -37 -23 -76 -69 -116c43 -25 83 -71 83 -119c0 -101 -118 -153 -208 -153z" />
      </symbol>
      <symbol id="E0A4-1ln0d70" viewBox="0 0 1000 1000" overflow="inherit">
         <path transform="scale(1,-1)" d="M0 -39c0 68 73 172 200 172c66 0 114 -37 114 -95c0 -84 -106 -171 -218 -171c-64 0 -96 30 -96 94z" />
      </symbol>
      <symbol id="E240-1ln0d70" viewBox="0 0 1000 1000" overflow="inherit">
         <path transform="scale(1,-1)" d="M179 -646c15 29 29 55 46 102c18 49 30 108 30 138c0 105 -80 173 -168 200c-18 5 -47 9 -87 16v190h22c8 0 33 -61 71 -95c4 -3 -2 3 61 -56c62 -58 122 -137 122 -241c0 -38 -13 -106 -35 -163c-20 -51 -43 -99 -66 -132c-6 -5 -10 -7 -13 -7s-5 2 -5 5l4 10 c1 3 14 25 18 33z" />
      </symbol>
      <symbol id="E241-1ln0d70" viewBox="0 0 1000 1000" overflow="inherit">
         <path transform="scale(1,-1)" d="M179 646c-4 8 -17 30 -18 33l-4 10c0 3 2 5 5 5s7 -2 13 -7c23 -33 46 -81 66 -132c22 -57 35 -125 35 -163c0 -104 -60 -183 -122 -241c-63 -59 -57 -53 -61 -56c-38 -34 -63 -95 -71 -95h-22v190c40 7 69 11 87 16c88 27 168 95 168 200c0 30 -12 89 -30 138 c-17 47 -31 73 -46 102z" />
      </symbol>
   </defs>
   <style type="text/css">g.page-margin{font-family:Times;} g.ending, g.fing, g.reh, g.tempo{font-weight:bold;} g.dir, g.dynam, g.mNum{font-style:italic;} g.label{font-weight:normal;}</style>
   <svg class="definition-scale" color="black" viewBox="0 0 21000 29700">
      <g class="page-margin" transform="translate(500, 500)">
         <g id="m15wgzqs" class="mdiv pageMilestone" />
         <g id="s230qbh" class="score pageMilestone" />
         <g id="s1w80f2z" class="system">
            <g id="ljalnz7" class="label">
               <text x="1105" y="1535" text-anchor="end" font-size="0px">
                  <tspan id="t1jf7fbt" class="text">
                     <tspan font-size="405px" class="text">Piano</tspan>
                  </tspan>
               </text>
            </g>
            <g id="s1rc55t3" class="section systemMilestone" />
            <g id="p1pw4008" class="pb" />
            <g id="m9jdda0" class="measure">
               <g id="sx74b8o" class="staff">
                  <path d="M1285 1085 L5765 1085" stroke="currentColor" stroke-width="13" />
                  <path d="M1285 1265 L5765 1265" stroke="currentColor" stroke-width="13" />
                  <path d="M1285 1445 L5765 1445" stroke="currentColor" stroke-width="13" />
                  <path d="M1285 1625 L5765 1625" stroke="currentColor" stroke-width="13" />
                  <path d="M1285 1805 L5765 1805" stroke="currentColor" stroke-width="13" />
                  <g id="c1blouvr" class="clef">
                     <use xlink:href="#E050-1ln0d70" x="1375" y="1625" height="720px" width="720px" />
                  </g>
                  <g id="kgbqkd8" class="keySig">
                     <g id="k13bwgdu" class="keyAccid">
                        <use xlink:href="#E260-1ln0d70" x="2020" y="1445" height="720px" width="720px" />
                     </g>
                     <g id="k1lsn86v" class="keyAccid">
                        <use xlink:href="#E260-1ln0d70" x="2200" y="1175" height="720px" width="720px" />
                     </g>
                  </g>
                  <g id="mt3t637" class="meterSig">
                     <use xlink:href="#E086-1ln0d70" x="2508" y="1265" height="720px" width="720px" />
                     <use xlink:href="#E088-1ln0d70" x="2515" y="1625" height="720px" width="720px" />
                  </g>
                  <g id="lxj9kbw" class="layer">
                     <g id="n1am9hel" class="note">
                        <g class="notehead">
                           <use xlink:href="#E0A4-1ln0d70" x="3070" y="1625" height="720px" width="720px" />
                        </g>
                        <g id="s18ray8i" class="stem">
                           <rect x="3278" y="995" height="602" width="18" />
                        </g>
                     </g>
                     <g id="n40ic77" class="note">
                        <g class="notehead">
                           <use xlink:href="#E0A4-1ln0d70" x="3882" y="1625" height="720px" width="720px" />
                        </g>
                        <g id="sca2524" class="stem">
                           <rect x="4090" y="995" height="602" width="18" />
                           <g id="fbrzjjq" class="flag">
                              <use xlink:href="#E240-1ln0d70" x="4090" y="995" height="720px" width="720px" />
                           </g>
                        </g>
                     </g>
                     <g id="n143jtfn" class="note">
                        <g class="notehead">
                           <use xlink:href="#E0A4-1ln0d70" x="4411" y="1625" height="720px" width="720px" />
                        </g>
                        <g id="sdmp1ir" class="stem">
                           <rect x="4619" y="995" height="602" width="18" />
                        </g>
                     </g>
                     <g id="n8rosda" class="note">
                        <g class="notehead">
                           <use xlink:href="#E0A4-1ln0d70" x="5223" y="1535" height="720px" width="720px" />
                        </g>
                        <g id="s11j2x6f" class="stem">
                           <rect x="5431" y="905" height="602" width="18" />
                           <g id="fjnqyym" class="flag">
                              <use xlink:href="#E240-1ln0d70" x="5431" y="905" height="720px" width="720px" />
                           </g>
                        </g>
                     </g>
                  </g>
               </g>
               <g id="b138duh5" class="barLine">
                  <path d="M5752 1085 L5752 1805" stroke="currentColor" stroke-width="27" />
               </g>
            </g>
            <g id="meqeb94" class="measure">
               <g id="s1vb6tlh" class="staff">
                  <path d="M5765 1085 L8338 1085" stroke="currentColor" stroke-width="13" />
                  <path d="M5765 1265 L8338 1265" stroke="currentColor" stroke-width="13" />
                  <path d="M5765 1445 L8338 1445" stroke="currentColor" stroke-width="13" />
                  <path d="M5765 1625 L8338 1625" stroke="currentColor" stroke-width="13" />
                  <path d="M5765 1805 L8338 1805" stroke="currentColor" stroke-width="13" />
                  <g id="ld5s2u4" class="layer">
                     <g id="n1kcyvrn" class="note">
                        <g class="notehead">
                           <use xlink:href="#E0A4-1ln0d70" x="5948" y="1445" height="720px" width="720px" />
                        </g>
                        <g id="s1dic07o" class="stem">
                           <rect x="5948" y="1473" height="572" width="18" />
                        </g>
                        <g id="a1doi02k" class="accid" />
                     </g>
                     <g id="nqngowf" class="note">
                        <g class="notehead">
                           <use xlink:href="#E0A4-1ln0d70" x="6760" y="1355" height="720px" width="720px" />
                        </g>
                        <g id="s104we8" class="stem">
                           <rect x="6760" y="1383" height="602" width="18" />
                           <g id="fuel1x1" class="flag">
                              <use xlink:href="#E241-1ln0d70" x="6760" y="1985" height="720px" width="720px" />
                           </g>
                        </g>
                     </g>
                     <g id="nwk332m" class="note">
                        <g class="notehead">
                           <use xlink:href="#E0A4-1ln0d70" x="7289" y="1265" height="720px" width="720px" />
                        </g>
                        <g id="d62md9t" class="dots">
                           <ellipse cx="7605" cy="1175" rx="36" ry="36" />
                        </g>
                        <g id="s1kfekzh" class="stem">
                           <rect x="7289" y="1293" height="602" width="18" />
                        </g>
                     </g>
                  </g>
               </g>
               <g id="but4juv" class="barLine">
                  <path d="M8325 1085 L8325 1805" stroke="currentColor" stroke-width="27" />
               </g>
            </g>
            <g id="mjp8zdj" class="measure">
               <g id="s1qpydfv" class="staff">
                  <path d="M8338 1085 L11216 1085" stroke="currentColor" stroke-width="13" />
                  <path d="M8338 1265 L11216 1265" stroke="currentColor" stroke-width="13" />
                  <path d="M8338 1445 L11216 1445" stroke="currentColor" stroke-width="13" />
                  <path d="M8338 1625 L11216 1625" stroke="currentColor" stroke-width="13" />
                  <path d="M8338 1805 L11216 1805" stroke="currentColor" stroke-width="13" />
                  <g id="loawkv9" class="layer">
                     <g id="nptfx96" class="note">
                        <g class="notehead">
                           <use xlink:href="#E0A4-1ln0d70" x="8521" y="1265" height="720px" width="720px" />
                        </g>
                        <g id="sc3xi6l" class="stem">
                           <rect x="8521" y="1293" height="602" width="18" />
                        </g>
                     </g>
                     <g id="n120cnbp" class="note">
                        <g class="notehead">
                           <use xlink:href="#E0A4-1ln0d70" x="9333" y="1265" height="720px" width="720px" />
                        </g>
                        <g id="s1f4cknk" class="stem">
                           <rect x="9333" y="1293" height="602" width="18" />
                           <g id="f1u88ru3" class="flag">
                              <use xlink:href="#E241-1ln0d70" x="9333" y="1895" height="720px" width="720px" />
                           </g>
                        </g>
                     </g>
                     <g id="nuazhup" class="note">
                        <g class="notehead">
                           <use xlink:href="#E0A4-1ln0d70" x="9862" y="1175" height="720px" width="720px" />
                        </g>
                        <g id="s15rghp6" class="stem">
                           <rect x="9862" y="1203" height="602" width="18" />
                        </g>
                        <g id="a1x0h5jt" class="accid" />
                     </g>
                     <g id="niy9w7k" class="note">
                        <g class="notehead">
                           <use xlink:href="#E0A4-1ln0d70" x="10674" y="1265" height="720px" width="720px" />
                        </g>
                        <g id="s97mbc8" class="stem">
                           <rect x="10674" y="1293" height="602" width="18" />
                           <g id="fc1p19y" class="flag">
                              <use xlink:href="#E241-1ln0d70" x="10674" y="1895" height="720px" width="720px" />
                           </g>
                        </g>
                     </g>
                  </g>
               </g>
               <g id="b1hpzx19" class="barLine">
                  <path d="M11203 1085 L11203 1805" stroke="currentColor" stroke-width="27" />
               </g>
            </g>
            <g id="mr8ienx" class="measure">
               <g id="ss5mjhd" class="staff">
                  <path d="M11216 1085 L14348 1085" stroke="currentColor" stroke-width="13" />
                  <path d="M11216 1265 L14348 1265" stroke="currentColor" stroke-width="13" />
                  <path d="M11216 1445 L14348 1445" stroke="currentColor" stroke-width="13" />
                  <path d="M11216 1625 L14348 1625" stroke="currentColor" stroke-width="13" />
                  <path d="M11216 1805 L14348 1805" stroke="currentColor" stroke-width="13" />
                  <g id="l1b0bzw0" class="layer">
                     <g id="nf80ngg" class="note">
                        <g class="notehead">
                           <use xlink:href="#E0A4-1ln0d70" x="11399" y="1355" height="720px" width="720px" />
                        </g>
                        <g id="seshcru" class="stem">
                           <rect x="11399" y="1383" height="602" width="18" />
                        </g>
                     </g>
                     <g id="nlyq762" class="note">
                        <g class="notehead">
                           <use xlink:href="#E0A4-1ln0d70" x="12211" y="1265" height="720px" width="720px" />
                        </g>
                        <g id="sbep1qt" class="stem">
                           <rect x="12211" y="1293" height="602" width="18" />
                           <g id="f6zlcg1" class="flag">
                              <use xlink:href="#E241-1ln0d70" x="12211" y="1895" height="720px" width="720px" />
                           </g>
                        </g>
                     </g>
                     <g id="nef2usf" class="note">
                        <g class="notehead">
                           <use xlink:href="#E0A4-1ln0d70" x="12740" y="1445" height="720px" width="720px" />
                        </g>
                        <g id="s1aieowa" class="stem">
                           <rect x="12740" y="1473" height="572" width="18" />
                        </g>
                        <g id="a1flpu0z" class="accid" />
                     </g>
                     <g id="n7h32xb" class="note">
                        <g class="notehead">
                           <use xlink:href="#E0A4-1ln0d70" x="13552" y="1535" height="720px" width="720px" />
                        </g>
                        <g id="s1gtlucq" class="stem">
                           <rect x="13760" y="905" height="602" width="18" />
                           <g id="f1my9frg" class="flag">
                              <use xlink:href="#E240-1ln0d70" x="13760" y="905" height="720px" width="720px" />
                           </g>
                        </g>
                     </g>
                  </g>
               </g>
               <g id="b1y4zfqy" class="barLine">
                  <path d="M14173 1085 L14173 1805" stroke="currentColor" stroke-width="27" />
                  <path d="M14303 1085 L14303 1805" stroke="currentColor" stroke-width="90" />
                  <use xlink:href="#E044-1ln0d70" x="14056" y="1355" height="720px" width="720px" />
                  <use xlink:href="#E044-1ln0d70" x="14056" y="1535" height="720px" width="720px" />
               </g>
            </g>
            <g id="mmslbz8" class="measure">
               <g id="s1docnvu" class="staff">
                  <path d="M14348 1085 L17084 1085" stroke="currentColor" stroke-width="13" />
                  <path d="M14348 1265 L17084 1265" stroke="currentColor" stroke-width="13" />
                  <path d="M14348 1445 L17084 1445" stroke="currentColor" stroke-width="13" />
                  <path d="M14348 1625 L17084 1625" stroke="currentColor" stroke-width="13" />
                  <path d="M14348 1805 L17084 1805" stroke="currentColor" stroke-width="13" />
                  <g id="l15h4mtx" class="layer">
                     <g id="noa60ci" class="note">
                        <g class="notehead">
                           <use xlink:href="#E0A4-1ln0d70" x="14531" y="1535" height="720px" width="720px" />
                        </g>
                        <g id="so8mi75" class="stem">
                           <rect x="14739" y="905" height="602" width="18" />
                        </g>
                     </g>
                     <g id="nzpb0wg" class="note">
                        <g class="notehead">
                           <use xlink:href="#E0A4-1ln0d70" x="15343" y="1355" height="720px" width="720px" />
                        </g>
                        <g id="sx2mcof" class="stem">
                           <rect x="15343" y="1383" height="602" width="18" />
                           <g id="f157jw4p" class="flag">
                              <use xlink:href="#E241-1ln0d70" x="15343" y="1985" height="720px" width="720px" />
                           </g>
                        </g>
                     </g>
                     <g id="n1t3738v" class="note">
                        <g class="notehead">
                           <use xlink:href="#E0A4-1ln0d70" x="15668" y="1355" height="540px" width="540px" />
                        </g>
                        <g id="sn348wr" class="stem">
                           <rect x="15819" y="928" height="406" width="18" />
                           <g id="flr4ihi" class="flag">
                              <use xlink:href="#E240-1ln0d70" x="15819" y="928" height="540px" width="540px" />
                           </g>
                        </g>
                     </g>
                     <g id="n1xikpk2" class="note">
                        <g class="notehead">
                           <use xlink:href="#E0A4-1ln0d70" x="16035" y="1445" height="720px" width="720px" />
                        </g>
                        <g id="daurej0" class="dots">
                           <ellipse cx="16351" cy="1355" rx="36" ry="36" />
                        </g>
                        <g id="s77zqkw" class="stem">
                           <rect x="16035" y="1473" height="572" width="18" />
                        </g>
                        <g id="acxfarp" class="accid" />
                     </g>
                  </g>
               </g>
               <g id="b5lv271" class="barLine">
                  <path d="M17071 1085 L17071 1805" stroke="currentColor" stroke-width="27" />
               </g>
            </g>
            <g id="mufbjtd" class="measure">
               <g id="setdv56" class="staff">
                  <path d="M17084 1085 L20003 1085" stroke="currentColor" stroke-width="13" />
                  <path d="M17084 1265 L20003 1265" stroke="currentColor" stroke-width="13" />
                  <path d="M17084 1445 L20003 1445" stroke="currentColor" stroke-width="13" />
                  <path d="M17084 1625 L20003 1625" stroke="currentColor" stroke-width="13" />
                  <path d="M17084 1805 L20003 1805" stroke="currentColor" stroke-width="13" />
                  <g id="l444606" class="layer">
                     <g id="nqwsyme" class="note">
                        <g class="notehead">
                           <use xlink:href="#E0A4-1ln0d70" x="17267" y="1535" height="720px" width="720px" />
                        </g>
                        <g id="s1hyll0s" class="stem">
                           <rect x="17475" y="905" height="602" width="18" />
                        </g>
                     </g>
                     <g id="n1rhg705" class="note">
                        <g class="notehead">
                           <use xlink:href="#E0A4-1ln0d70" x="18079" y="1625" height="720px" width="720px" />
                        </g>
                        <g id="sgt9ye6" class="stem">
                           <rect x="18287" y="995" height="602" width="18" />
                           <g id="f19pr0cc" class="flag">
                              <use xlink:href="#E240-1ln0d70" x="18287" y="995" height="720px" width="720px" />
                           </g>
                        </g>
                     </g>
                     <g id="n1tjuvvp" class="note">
                        <g class="notehead">
                           <use xlink:href="#E0A4-1ln0d70" x="18587" y="1445" height="540px" width="540px" />
                        </g>
                        <g id="s1ptgyv3" class="stem">
                           <rect x="18738" y="995" height="429" width="18" />
                           <g id="f18hv8sc" class="flag">
                              <use xlink:href="#E240-1ln0d70" x="18738" y="995" height="540px" width="540px" />
                           </g>
                        </g>
                        <g id="au5wq36" class="accid" />
                     </g>
                     <g id="n138rnvu" class="note">
                        <g class="notehead">
                           <use xlink:href="#E0A4-1ln0d70" x="18954" y="1535" height="720px" width="720px" />
                        </g>
                        <g id="d1ynlr2e" class="dots">
                           <ellipse cx="19270" cy="1535" rx="36" ry="36" />
                        </g>
                        <g id="sgr4n2i" class="stem">
                           <rect x="19162" y="905" height="602" width="18" />
                        </g>
                     </g>
                  </g>
               </g>
               <g id="bip5j5k" class="barLine">
                  <path d="M19990 1085 L19990 1805" stroke="currentColor" stroke-width="27" />
               </g>
            </g>
         </g>
         <g id="sg5nzdg" class="system">
            <g id="lc0vw09" class="labelAbbr">
               <text x="914" y="3884" text-anchor="end" font-size="0px">
                  <tspan id="t1uuzaj0" class="text">
                     <tspan font-size="405px" class="text">Pno.</tspan>
                  </tspan>
               </text>
            </g>
            <g id="m72uhlt" class="measure">
               <g id="m1l9d055" class="mNum autogenerated">
                  <text x="1094" y="3191" text-anchor="middle" font-size="0px">
                     <tspan id="t1cqo12e" class="text">
                        <tspan font-size="324px" class="text">7</tspan>
                     </tspan>
                  </text>
               </g>
               <g id="seiw2u5" class="staff">
                  <path d="M1094 3434 L5160 3434" stroke="currentColor" stroke-width="13" />
                  <path d="M1094 3614 L5160 3614" stroke="currentColor" stroke-width="13" />
                  <path d="M1094 3794 L5160 3794" stroke="currentColor" stroke-width="13" />
                  <path d="M1094 3974 L5160 3974" stroke="currentColor" stroke-width="13" />
                  <path d="M1094 4154 L5160 4154" stroke="currentColor" stroke-width="13" />
                  <g id="cjpgpwr" class="clef">
                     <use xlink:href="#E050-1ln0d70" x="1184" y="3974" height="720px" width="720px" />
                  </g>
                  <g id="kt20o8o" class="keySig">
                     <g id="k1af0423" class="keyAccid">
                        <use xlink:href="#E260-1ln0d70" x="1829" y="3794" height="720px" width="720px" />
                     </g>
                     <g id="kodqxxv" class="keyAccid">
                        <use xlink:href="#E260-1ln0d70" x="2009" y="3524" height="720px" width="720px" />
                     </g>
                  </g>
                  <g id="l13fvm4t" class="layer">
                     <g id="n1bttwhq" class="note">
                        <g class="notehead">
                           <use xlink:href="#E0A4-1ln0d70" x="2427" y="4244" height="720px" width="720px" />
                        </g>
                        <g id="svd206n" class="stem">
                           <rect x="2635" y="3614" height="602" width="18" />
                        </g>
                     </g>
                     <g id="n1ybewd7" class="note">
                        <g class="notehead">
                           <use xlink:href="#E0A4-1ln0d70" x="3250" y="3974" height="720px" width="720px" />
                        </g>
                        <g id="s17qwnzr" class="stem">
                           <rect x="3458" y="3344" height="602" width="18" />
                           <g id="f8gbxbr" class="flag">
                              <use xlink:href="#E240-1ln0d70" x="3458" y="3344" height="720px" width="720px" />
                           </g>
                        </g>
                     </g>
                     <g id="n1agd8p" class="note">
                        <g class="notehead">
                           <use xlink:href="#E0A4-1ln0d70" x="3787" y="4064" height="720px" width="720px" />
                        </g>
                        <g id="s17dcn0e" class="stem">
                           <rect x="3995" y="3434" height="602" width="18" />
                        </g>
                     </g>
                     <g id="nc5hsoa" class="note">
                        <g class="notehead">
                           <use xlink:href="#E0A4-1ln0d70" x="4610" y="3974" height="720px" width="720px" />
                        </g>
                        <g id="s1op2lm2" class="stem">
                           <rect x="4818" y="3344" height="602" width="18" />
                           <g id="f1s4v9iw" class="flag">
                              <use xlink:href="#E240-1ln0d70" x="4818" y="3344" height="720px" width="720px" />
                           </g>
                        </g>
                     </g>
                  </g>
               </g>
               <g id="b1dzkh8f" class="barLine">
                  <path d="M5147 3434 L5147 4154" stroke="currentColor" stroke-width="27" />
               </g>
            </g>
            <g id="stoh7wh" class="sb" />
            <g id="m1kdm5ws" class="measure">
               <g id="s1ujeq5h" class="staff">
                  <path d="M5160 3434 L8329 3434" stroke="currentColor" stroke-width="13" />
                  <path d="M5160 3614 L8329 3614" stroke="currentColor" stroke-width="13" />
                  <path d="M5160 3794 L8329 3794" stroke="currentColor" stroke-width="13" />
                  <path d="M5160 3974 L8329 3974" stroke="currentColor" stroke-width="13" />
                  <path d="M5160 4154 L8329 4154" stroke="currentColor" stroke-width="13" />
                  <g id="l6tlq1" class="layer">
                     <g id="bff6rep" class="beam">
                        <polygon points="5346,4424 6437,4244 6437,4154 5346,4334" />
                        <g id="n1qpiu5c" class="note">
                           <g class="notehead">
                              <use xlink:href="#E0A4-1ln0d70" x="5346" y="3884" height="720px" width="720px" />
                           </g>
                           <g id="s877onm" class="stem">
                              <rect x="5346" y="3912" height="494" width="18" />
                           </g>
                        </g>
                        <g id="n1gw3d3l" class="note">
                           <g class="notehead">
                              <use xlink:href="#E0A4-1ln0d70" x="5882" y="3794" height="720px" width="720px" />
                           </g>
                           <g id="s1qb8yxj" class="stem">
                              <rect x="5882" y="3822" height="495" width="18" />
                           </g>
                           <g id="a1hlapk5" class="accid" />
                        </g>
                        <g id="n1ej6711" class="note">
                           <g class="notehead">
                              <use xlink:href="#E0A4-1ln0d70" x="6419" y="3704" height="720px" width="720px" />
                           </g>
                           <g id="s1sr8r3p" class="stem">
                              <rect x="6419" y="3732" height="494" width="18" />
                           </g>
                        </g>
                     </g>
                     <g id="n3gfuis" class="note">
                        <g class="notehead">
                           <use xlink:href="#E0A4-1ln0d70" x="6955" y="3794" height="720px" width="720px" />
                        </g>
                        <g id="s1i5qz7y" class="stem">
                           <rect x="6955" y="3822" height="572" width="18" />
                        </g>
                        <g id="a8xt064" class="accid" />
                     </g>
                     <g id="n13o4i2j" class="note">
                        <g class="notehead">
                           <use xlink:href="#E0A4-1ln0d70" x="7779" y="3884" height="720px" width="720px" />
                        </g>
                        <g id="s17gxw2c" class="stem">
                           <rect x="7987" y="3254" height="602" width="18" />
                           <g id="f1whkr4a" class="flag">
                              <use xlink:href="#E240-1ln0d70" x="7987" y="3254" height="720px" width="720px" />
                           </g>
                        </g>
                     </g>
                  </g>
               </g>
               <g id="bprqlod" class="barLine">
                  <path d="M8316 3434 L8316 4154" stroke="currentColor" stroke-width="27" />
               </g>
            </g>
            <g id="m1p19qt0" class="measure">
               <g id="sibxkgx" class="staff">
                  <path d="M8329 3434 L11104 3434" stroke="currentColor" stroke-width="13" />
                  <path d="M8329 3614 L11104 3614" stroke="currentColor" stroke-width="13" />
                  <path d="M8329 3794 L11104 3794" stroke="currentColor" stroke-width="13" />
                  <path d="M8329 3974 L11104 3974" stroke="currentColor" stroke-width="13" />
                  <path d="M8329 4154 L11104 4154" stroke="currentColor" stroke-width="13" />
                  <g id="l1g6s5an" class="layer">
                     <g id="ndaf1br" class="note">
                        <g class="notehead">
                           <use xlink:href="#E0A4-1ln0d70" x="8515" y="3884" height="720px" width="720px" />
                        </g>
                        <g id="s1mih94y" class="stem">
                           <rect x="8723" y="3254" height="602" width="18" />
                        </g>
                     </g>
                     <g id="nr0lyl3" class="note">
                        <g class="notehead">
                           <use xlink:href="#E0A4-1ln0d70" x="9338" y="3704" height="720px" width="720px" />
                        </g>
                        <g id="su60ixi" class="stem">
                           <rect x="9338" y="3732" height="602" width="18" />
                           <g id="f10ps1f3" class="flag">
                              <use xlink:href="#E241-1ln0d70" x="9338" y="4334" height="720px" width="720px" />
                           </g>
                        </g>
                     </g>
                     <g id="n3iivsz" class="note">
                        <g class="notehead">
                           <use xlink:href="#E0A4-1ln0d70" x="9673" y="3704" height="540px" width="540px" />
                        </g>
                        <g id="s1b2aju8" class="stem">
                           <rect x="9824" y="3277" height="406" width="18" />
                           <g id="f1pgjltr" class="flag">
                              <use xlink:href="#E240-1ln0d70" x="9824" y="3277" height="540px" width="540px" />
                           </g>
                        </g>
                     </g>
                     <g id="n19q9fd4" class="note">
                        <g class="notehead">
                           <use xlink:href="#E0A4-1ln0d70" x="10040" y="3794" height="720px" width="720px" />
                        </g>
                        <g id="d10874bm" class="dots">
                           <ellipse cx="10356" cy="3704" rx="36" ry="36" />
                        </g>
                        <g id="s1ttuuea" class="stem">
                           <rect x="10040" y="3822" height="572" width="18" />
                        </g>
                        <g id="ab59nhs" class="accid" />
                     </g>
                  </g>
               </g>
               <g id="bjx3od8" class="barLine">
                  <path d="M11091 3434 L11091 4154" stroke="currentColor" stroke-width="27" />
               </g>
            </g>
            <g id="mg8ik7n" class="measure">
               <g id="seh86ic" class="staff">
                  <path d="M11104 3434 L14064 3434" stroke="currentColor" stroke-width="13" />
                  <path d="M11104 3614 L14064 3614" stroke="currentColor" stroke-width="13" />
                  <path d="M11104 3794 L14064 3794" stroke="currentColor" stroke-width="13" />
                  <path d="M11104 3974 L14064 3974" stroke="currentColor" stroke-width="13" />
                  <path d="M11104 4154 L14064 4154" stroke="currentColor" stroke-width="13" />
                  <g id="l12qoyuh" class="layer">
                     <g id="n1b3rxdr" class="note">
                        <g class="notehead">
                           <use xlink:href="#E0A4-1ln0d70" x="11290" y="3884" height="720px" width="720px" />
                        </g>
                        <g id="s133tjpf" class="stem">
                           <rect x="11498" y="3254" height="602" width="18" />
                        </g>
                     </g>
                     <g id="nqlq9ag" class="note">
                        <g class="notehead">
                           <use xlink:href="#E0A4-1ln0d70" x="12113" y="3974" height="720px" width="720px" />
                        </g>
                        <g id="srglf5l" class="stem">
                           <rect x="12321" y="3344" height="602" width="18" />
                           <g id="f1t1ax3z" class="flag">
                              <use xlink:href="#E240-1ln0d70" x="12321" y="3344" height="720px" width="720px" />
                           </g>
                        </g>
                     </g>
                     <g id="nclojdn" class="note">
                        <g class="notehead">
                           <use xlink:href="#E0A4-1ln0d70" x="12633" y="3794" height="540px" width="540px" />
                        </g>
                        <g id="s1qhdba6" class="stem">
                           <rect x="12784" y="3344" height="429" width="18" />
                           <g id="f1hvhsup" class="flag">
                              <use xlink:href="#E240-1ln0d70" x="12784" y="3344" height="540px" width="540px" />
                           </g>
                        </g>
                        <g id="aphap36" class="accid" />
                     </g>
                     <g id="n1e9o07l" class="note">
                        <g class="notehead">
                           <use xlink:href="#E0A4-1ln0d70" x="13000" y="3884" height="720px" width="720px" />
                        </g>
                        <g id="d1y9gt7p" class="dots">
                           <ellipse cx="13316" cy="3884" rx="36" ry="36" />
                        </g>
                        <g id="s16emh25" class="stem">
                           <rect x="13208" y="3254" height="602" width="18" />
                        </g>
                     </g>
                  </g>
               </g>
               <g id="b14spg7x" class="barLine">
                  <path d="M14051 3434 L14051 4154" stroke="currentColor" stroke-width="27" />
               </g>
            </g>
            <g id="m7g01ru" class="measure">
               <g id="sy2e9mv" class="staff">
                  <path d="M14064 3434 L16983 3434" stroke="currentColor" stroke-width="13" />
                  <path d="M14064 3614 L16983 3614" stroke="currentColor" stroke-width="13" />
                  <path d="M14064 3794 L16983 3794" stroke="currentColor" stroke-width="13" />
                  <path d="M14064 3974 L16983 3974" stroke="currentColor" stroke-width="13" />
                  <path d="M14064 4154 L16983 4154" stroke="currentColor" stroke-width="13" />
                  <g id="ljlssah" class="layer">
                     <g id="natx471" class="note">
                        <g class="notehead">
                           <use xlink:href="#E0A4-1ln0d70" x="14250" y="4244" height="720px" width="720px" />
                        </g>
                        <g id="s1s7zsn1" class="stem">
                           <rect x="14458" y="3614" height="602" width="18" />
                        </g>
                     </g>
                     <g id="nm4pvt" class="note">
                        <g class="notehead">
                           <use xlink:href="#E0A4-1ln0d70" x="15073" y="3974" height="720px" width="720px" />
                        </g>
                        <g id="s16vl7h1" class="stem">
                           <rect x="15281" y="3344" height="602" width="18" />
                           <g id="f1iv8jne" class="flag">
                              <use xlink:href="#E240-1ln0d70" x="15281" y="3344" height="720px" width="720px" />
                           </g>
                        </g>
                     </g>
                     <g id="ndvndxp" class="note">
                        <g class="notehead">
                           <use xlink:href="#E0A4-1ln0d70" x="15610" y="4064" height="720px" width="720px" />
                        </g>
                        <g id="sl1msi6" class="stem">
                           <rect x="15818" y="3434" height="602" width="18" />
                        </g>
                     </g>
                     <g id="n1uhu461" class="note">
                        <g class="notehead">
                           <use xlink:href="#E0A4-1ln0d70" x="16433" y="3974" height="720px" width="720px" />
                        </g>
                        <g id="sxsxo84" class="stem">
                           <rect x="16641" y="3344" height="602" width="18" />
                           <g id="f10v4gd1" class="flag">
                              <use xlink:href="#E240-1ln0d70" x="16641" y="3344" height="720px" width="720px" />
                           </g>
                        </g>
                     </g>
                  </g>
               </g>
               <g id="byormm3" class="barLine">
                  <path d="M16970 3434 L16970 4154" stroke="currentColor" stroke-width="27" />
               </g>
            </g>
            <g id="m1gy43td" class="measure">
               <g id="sjb6h47" class="staff">
                  <path d="M16983 3434 L20004 3434" stroke="currentColor" stroke-width="13" />
                  <path d="M16983 3614 L20004 3614" stroke="currentColor" stroke-width="13" />
                  <path d="M16983 3794 L20004 3794" stroke="currentColor" stroke-width="13" />
                  <path d="M16983 3974 L20004 3974" stroke="currentColor" stroke-width="13" />
                  <path d="M16983 4154 L20004 4154" stroke="currentColor" stroke-width="13" />
                  <g id="l14myfgg" class="layer">
                     <g id="bv8ca8f" class="beam">
                        <polygon points="17377,3209 18468,3209 18468,3299 17377,3299" />
                        <g id="n1vofgh1" class="note">
                           <g class="notehead">
                              <use xlink:href="#E0A4-1ln0d70" x="17169" y="3884" height="720px" width="720px" />
                           </g>
                           <g id="s1c4899j" class="stem">
                              <rect x="17377" y="3227" height="629" width="18" />
                           </g>
                        </g>
                        <g id="n1wan14u" class="note">
                           <g class="notehead">
                              <use xlink:href="#E0A4-1ln0d70" x="17705" y="3794" height="720px" width="720px" />
                           </g>
                           <g id="s1nlx378" class="stem">
                              <rect x="17913" y="3227" height="539" width="18" />
                           </g>
                           <g id="a1db7u20" class="accid" />
                        </g>
                        <g id="n1khbxtv" class="note">
                           <g class="notehead">
                              <use xlink:href="#E0A4-1ln0d70" x="18242" y="3884" height="720px" width="720px" />
                           </g>
                           <g id="sa1flkx" class="stem">
                              <rect x="18450" y="3227" height="629" width="18" />
                           </g>
                        </g>
                     </g>
                     <g id="n1021w5q" class="note">
                        <g class="notehead">
                           <use xlink:href="#E0A4-1ln0d70" x="18778" y="3974" height="720px" width="720px" />
                        </g>
                        <g id="d1wm8i58" class="dots">
                           <ellipse cx="19094" cy="3884" rx="36" ry="36" />
                        </g>
                        <g id="syvjd36" class="stem">
                           <rect x="18986" y="3344" height="602" width="18" />
                        </g>
                     </g>
                  </g>
               </g>
               <g id="bd48scv" class="barLine">
                  <path d="M19829 3434 L19829 4154" stroke="currentColor" stroke-width="27" />
                  <path d="M19959 3434 L19959 4154" stroke="currentColor" stroke-width="90" />
               </g>
            </g>
            <g id="s72n6zy" class="systemMilestoneEnd s1rc55t3" />
         </g>
         <g id="p15ic84h" class="pageMilestoneEnd s230qbh" />
         <g id="p120z3ej" class="pageMilestoneEnd m15wgzqs" />
         <g id="pp6k90e" class="pgHead">
            <text x="0" y="0" font-size="0px">
               <tspan id="rzq2tdq" class="rend" x="10000" y="277" text-anchor="middle">
                  <tspan id="t1ltrita" class="text">
                     <tspan font-size="405px" class="text">Air n 129</tspan>
                  </tspan>
               </tspan>
            </text>
         </g>
         <g id="p1fmls5e" class="pgFoot autogenerated">
            <g id="f127ts22" class="fig">
               <g id="sewf03r" class="svg" transform="translate(7750, 28099) scale(10, 10)">
                  <g>
                     <path fill="#00000" d="M 17.11278,49.26451 V 10.367554 h 12.696511 c 3.288815,7.336676 6.71267,14.610456 10.127281,21.888976 3.419998,-7.484684 6.255515,-14.204887 9.58887,-21.909915 2.436207,0.103726 4.316952,0.08453 6.484294,-0.05808 V 49.264423 H 50.274275 C 50.145222,38.35639 50.016136,27.448368 49.887066,16.540329 45.003488,27.315459 39.967448,38.433564 35.083854,49.208695 34.678996,49.343717 34.426583,49.135619 34.021726,49.270644 29.46588,39.330716 24.910049,29.390805 20.354201,19.450876 20.224341,29.388756 20.09461,39.326619 19.964815,49.264497 H 17.11278 Z M 36.754144,39.324695 C 32.721221,30.512695 28.6883,21.700679 24.655394,12.888662 22.530527,12.750737 22.656775,12.71031 20.714356,12.813974 v 0.966497 c 4.612938,9.99784 9.609439,20.748709 13.87298,30.081745 0.722248,-1.512523 1.444528,-3.025014 2.166808,-4.537521 z m 25.738417,9.939815 c 0,-12.965651 0,-25.931305 0,-38.896956 10.084388,0 20.168791,0 30.253178,0 0,0.960416 0,1.920849 0,2.881265 -6.482825,0 -12.965652,0 -19.448478,0 0,4.802097 0,9.604178 0,14.406277 5.52241,0 11.044819,0 16.567229,0 0,0.960415 0,1.920832 0,2.881248 -5.52241,0 -11.044819,0 -16.567229,0 0,5.282306 0,10.564611 0,15.846917 6.963035,0 13.926068,0 20.889103,0 0,0.960416 0,1.920832 0,2.881249 -10.564597,0 -21.129207,0 -31.693803,0 z m 4.321874,-2.160937 c 0,-11.765131 0,-23.530263 0,-35.295394 -0.720312,0 -1.440625,0 -2.160937,0 0,11.765131 0,23.530263 0,35.295394 0.720312,0 1.440625,0 2.160937,0 z m 32.41413,2.160937 c 0,-12.965651 0,-25.931305 0,-38.896956 2.401045,0 4.802095,0 7.203135,0 0,12.965651 0,25.931305 0,38.896956 -2.40104,0 -4.80209,0 -7.203135,0 z m 2.881265,-2.160937 c 0,-11.765131 0,-23.530263 0,-35.295394 -0.72031,0 -1.44064,0 -2.160953,0 0,11.765131 0,23.530263 0,35.295394 0.720313,0 1.440643,0 2.160953,0 z" />
                     <path fill="#00000" d="m 346.3,6.7 c -3.1,0.5 -4.9,4.4 -2.7,6.8 1.2,1.4 2.7,2.4 4.1,3.5 -2.4,5.3 -7.7,8.3 -11.9,12.1 -3.7,2.8 -7,6.2 -9.7,9.9 -2.2,-0.8 -0.3,-6.8 -0.6,-9.5 0.1,-3.1 0.7,-6.4 2.9,-8.7 1.3,-1.9 3,-3.5 4.5,-5.2 1.2,-3.4 -3.2,-4.9 -5.8,-4.6 -7.3,-0.5 -14.6,2 -20,6.8 -5,4.6 -10,10.1 -11.5,17 -0.9,3.5 -0.2,7.5 2.8,9.9 2.5,2.8 7.4,2.9 9.8,-0.2 1.7,-2.3 3.2,-4.8 3.8,-7.6 -0.1,-2.6 -4.4,-2.3 -4.3,0.2 1.2,2.4 -0.9,4.7 -2.7,6.2 -1.7,0.9 -4.7,0.7 -4.8,-1.7 -1,-5.8 2.1,-11.3 5.2,-16.1 4,-5.8 9.8,-11.2 17.2,-11.8 1.6,0 8.1,-1.2 6.8,1.4 -2.8,2.8 -5.6,6.1 -6,10.3 -1.6,7.7 0.1,15.7 -2.3,23.2 -1.1,3.9 2,2.6 2.5,0.2 3.3,-7.4 8.9,-13.4 15.1,-18.5 4.2,-3.9 9.5,-7.1 11.9,-12.6 1.3,-3.6 1.2,-9 -2.7,-10.9 -0.6,-0.2 -1.2,-0.3 -1.8,-0.3 z m 66,14.5 c -2,0.8 -1.8,4.9 0.8,4.4 3.4,0.4 2.9,-6.2 -0.8,-4.4 z m 0.6,7.3 c -1.3,0.5 -7.6,0.5 -5.4,2.2 4,-0.3 0.7,4.5 0.6,6.7 -0.4,2.9 -2.4,5.9 -1.2,8.8 2.7,1.7 5.6,-0.8 6.8,-3.2 1.6,-1.4 -0.5,-3 -1.2,-0.9 -0.4,0.8 -2.4,3.5 -2.6,1.8 1.1,-5 2.7,-9.9 3.9,-14.9 l -0.1,-0.5 h -0.9 z m -65.1,0.2 c -6.5,1.6 -10.5,9.5 -8.2,15.7 2.1,3.4 7.4,2.9 10.1,0.4 2,-0.2 3.6,-5.3 1,-3.4 -1.4,2 -4,4.2 -6.5,2.8 -2.2,-1.9 -1.9,-5.7 1.7,-5.3 3.1,-0.9 6.9,-2.1 8.1,-5.5 0.9,-2.7 -1.6,-5.2 -4.3,-4.8 h -1.1 -0.7 z m 13.6,0 c -2.2,0 -8.5,1.8 -2.9,2.3 0.9,1.9 -1,4.9 -1.1,7.2 -0.5,2.9 -1.4,5.7 -1.7,8.7 3.7,0.7 3.8,-2.6 4.4,-5.3 0.9,-3.3 1.6,-7 4.1,-9.5 2.4,1.6 6.8,-0.7 3.7,-3.4 -2.9,-0.5 -4.8,2.4 -6.2,4.3 0,-1.2 2.4,-5 -0.2,-4.3 z m 15.8,0 c -6.4,1.3 -9.6,9.1 -7.7,14.9 1.9,4 7.7,3.9 11,1.7 4.1,-3 6,-8.9 4.4,-13.7 -1.3,-3 -4.8,-3.2 -7.6,-3 z m 17,0 c -2.3,0 -8.8,1.9 -3,2.4 0.4,2.5 -1,5.7 -1.4,8.4 -0.7,2.4 -1.8,7.5 2.1,7.2 3.8,-0.1 6.5,-3.5 8.5,-6.3 2,-3.2 4.5,-7 3.3,-10.9 -3.7,-3 -3.6,2.6 -3.1,5.1 -0.7,3.8 -2.7,7.9 -6.2,9.8 -3.6,0.6 -1,-4.3 -0.8,-6.1 0.6,-3.2 1.6,-6.3 1.9,-9.5 -0.4,0 -0.8,0 -1.1,0 z m 30.6,0 c -6.3,1.2 -9.5,8.9 -7.8,14.7 1.5,4 7.2,4.2 10.5,2.4 4.6,-2.8 6.6,-9.3 4.8,-14.3 -1.4,-2.8 -4.8,-3 -7.5,-2.8 z m -75.4,1.7 c 2.1,1.5 0.2,4.7 -1.6,5.7 -1.1,0.4 -5.5,3.4 -4.6,0.7 0.8,-2.7 2.2,-6.2 5.3,-6.6 l 0.9,0.1 z m 30.8,0 c 2.6,1.5 1.3,5.2 0.8,7.6 -0.8,2.7 -1.9,5.9 -4.7,7.1 -5.1,0.8 -4,-5.8 -2.8,-8.8 1,-2.8 3,-6.8 6.7,-5.8 z m 47.1,-0.1 c 2.9,0.7 2,4.7 1.5,6.8 -0.7,3 -1.8,6.7 -5,8 -4.7,0.8 -4,-5.1 -3,-7.9 0.9,-3 2.7,-7.3 6.5,-6.8 z m -88.1,5.9 c -0.3,1.3 0.9,-0.6 0,0 z m -1.1,2.4 c -0.2,0.5 0.5,-0.1 0,0 z m -1.3,4.5 c -0.3,1.3 0.8,-0.2 0,0 z" />
                     <text y="41" x="201" fill="#00000" style="font-style:italic;font-weight:normal;font-size:30px;line-height:125%;font-family:Times;text-anchor:middle" xml:space="preserve">engraved with</text>
                  </g>
               </g>
            </g>
         </g>
      </g>
   </svg>
</svg>
