<?xml version="1.0" encoding="UTF-8" standalone="no"?>
<svg width="2100px" height="2970px" version="1.1" xmlns="http://www.w3.org/2000/svg" xmlns:xlink="http://www.w3.org/1999/xlink" xmlns:mei="http://www.music-encoding.org/ns/mei" overflow="visible">
   <desc>Engraved by Verovio 3.13.1</desc>
   <defs>
      <symbol id="E044-v2b4dj" viewBox="0 0 1000 1000" overflow="inherit">
         <path transform="scale(1,-1)" d="M0 0c0 28 22 50 50 50s50 -22 50 -50s-22 -50 -50 -50s-50 22 -50 50z" />
      </symbol>
      <symbol id="E050-v2b4dj" viewBox="0 0 1000 1000" overflow="inherit">
         <path transform="scale(1,-1)" d="M441 -245c-23 -4 -48 -6 -76 -6c-59 0 -102 7 -130 20c-88 42 -150 93 -187 154c-26 44 -43 103 -48 176c0 6 -1 13 -1 19c0 54 15 111 45 170c29 57 65 106 110 148s96 85 153 127c-3 16 -8 46 -13 92c-4 43 -5 73 -5 89c0 117 16 172 69 257c34 54 64 82 89 82 c21 0 43 -30 69 -92s39 -115 41 -159v-15c0 -109 -21 -162 -67 -241c-13 -20 -63 -90 -98 -118c-13 -9 -25 -19 -37 -29l31 -181c8 1 18 2 28 2c58 0 102 -12 133 -35c59 -43 92 -104 98 -184c1 -7 1 -15 1 -22c0 -123 -87 -209 -181 -248c8 -57 17 -110 25 -162 c5 -31 6 -58 6 -80c0 -30 -5 -53 -14 -70c-35 -64 -88 -99 -158 -103c-5 0 -11 -1 -16 -1c-37 0 -72 10 -108 27c-50 24 -77 59 -80 105v11c0 29 7 55 20 76c18 28 45 42 79 44h6c49 0 93 -42 97 -87v-9c0 -51 -34 -86 -105 -106c17 -24 51 -36 102 -36c62 0 116 43 140 85 c9 16 13 41 13 74c0 20 -1 42 -5 67c-8 53 -18 106 -26 159zM461 939c-95 0 -135 -175 -135 -286c0 -24 2 -48 5 -71c50 39 92 82 127 128c40 53 60 100 60 140v8c-4 53 -22 81 -55 81h-2zM406 119l54 -326c73 25 110 78 110 161c0 7 0 15 -1 23c-7 95 -57 142 -151 142h-12 zM382 117c-72 -2 -128 -47 -128 -120v-7c2 -46 43 -99 75 -115c-3 -2 -7 -5 -10 -10c-70 33 -116 88 -123 172v11c0 68 44 126 88 159c23 17 49 29 78 36l-29 170c-21 -13 -52 -37 -92 -73c-50 -44 -86 -84 -109 -119c-45 -69 -67 -130 -67 -182v-13c5 -68 35 -127 93 -176 s125 -73 203 -73c25 0 50 3 75 9c-19 111 -36 221 -54 331z" />
      </symbol>
      <symbol id="E082-v2b4dj" viewBox="0 0 1000 1000" overflow="inherit">
         <path transform="scale(1,-1)" d="M124 -185c-18 0 -55 -14 -65 -65h-36l-3 30c0 25 6 45 18 63c11 19 22 30 39 43l121 82l37 29c15 11 27 29 38 54c12 24 18 47 18 70c0 40 -19 88 -94 88c-25 0 -32 0 -50 -8c-14 -5 -23 -12 -26 -22c3 -9 7 -15 10 -18l24 -17c12 -7 17 -11 27 -21c5 -7 7 -16 7 -27 c0 -12 0 -57 -79 -74c-30 0 -76 26 -76 94c0 66 81 135 197 135c72 0 181 -32 181 -150c0 -53 -32 -95 -113 -133l-91 -41c-26 -11 -45 -23 -57 -37l49 7c84 0 115 -41 148 -41c20 0 33 20 39 61h35c0 -152 -68 -168 -114 -168c-17 0 -65 0 -79 7h10l-28 17 c-49 37 -69 40 -87 42z" />
      </symbol>
      <symbol id="E084-v2b4dj" viewBox="0 0 1000 1000" overflow="inherit">
         <path transform="scale(1,-1)" d="M20 -78c84 97 114 180 134 329h170c-13 -32 -82 -132 -99 -151l-84 -97c-33 -36 -59 -63 -80 -81h162v102l127 123v-225h57v-39h-57v-34c0 -43 19 -65 57 -65v-34h-244v36c48 0 60 26 60 70v27h-203v39z" />
      </symbol>
      <symbol id="E0A4-v2b4dj" viewBox="0 0 1000 1000" overflow="inherit">
         <path transform="scale(1,-1)" d="M0 -39c0 68 73 172 200 172c66 0 114 -37 114 -95c0 -84 -106 -171 -218 -171c-64 0 -96 30 -96 94z" />
      </symbol>
      <symbol id="E240-v2b4dj" viewBox="0 0 1000 1000" overflow="inherit">
         <path transform="scale(1,-1)" d="M179 -646c15 29 29 55 46 102c18 49 30 108 30 138c0 105 -80 173 -168 200c-18 5 -47 9 -87 16v190h22c8 0 33 -61 71 -95c4 -3 -2 3 61 -56c62 -58 122 -137 122 -241c0 -38 -13 -106 -35 -163c-20 -51 -43 -99 -66 -132c-6 -5 -10 -7 -13 -7s-5 2 -5 5l4 10 c1 3 14 25 18 33z" />
      </symbol>
      <symbol id="E262-v2b4dj" viewBox="0 0 1000 1000" overflow="inherit">
         <path transform="scale(1,-1)" d="M136 186v169h17v-164l44 14v-91l-44 -14v-165l44 12v-91l-44 -13v-155h-17v150l-76 -22v-155h-17v149l-43 -13v90l43 14v167l-43 -14v92l43 13v169h17v-163zM60 73v-167l76 22v168z" />
      </symbol>
   </defs>
   <style type="text/css">g.page-margin{font-family:Times;} g.ending, g.fing, g.reh, g.tempo{font-weight:bold;} g.dir, g.dynam, g.mNum{font-style:italic;} g.label{font-weight:normal;}</style>
   <svg class="definition-scale" color="black" viewBox="0 0 21000 29700">
      <g class="page-margin" transform="translate(500, 500)">
         <g id="m1eqdddy" class="mdiv pageMilestone" />
         <g id="s1df0tmq" class="score pageMilestone" />
         <g id="s3yti3l" class="system">
            <g id="l169smor" class="label">
               <text x="1105" y="1535" text-anchor="end" font-size="0px">
                  <tspan id="t18nl3xp" class="text">
                     <tspan font-size="405px" class="text">Piano</tspan>
                  </tspan>
               </text>
            </g>
            <g id="s1vdwuao" class="section systemMilestone" />
            <g id="pou84e3" class="pb" />
            <g id="mysp8wz" class="measure">
               <g id="sum25qh" class="staff">
                  <path d="M1285 1085 L4740 1085" stroke="currentColor" stroke-width="13" />
                  <path d="M1285 1265 L4740 1265" stroke="currentColor" stroke-width="13" />
                  <path d="M1285 1445 L4740 1445" stroke="currentColor" stroke-width="13" />
                  <path d="M1285 1625 L4740 1625" stroke="currentColor" stroke-width="13" />
                  <path d="M1285 1805 L4740 1805" stroke="currentColor" stroke-width="13" />
                  <g id="c1sztes3" class="clef">
                     <use xlink:href="#E050-v2b4dj" x="1375" y="1625" height="720px" width="720px" />
                  </g>
                  <g id="k15jio3q" class="keySig">
                     <g id="kyr9ncl" class="keyAccid">
                        <use xlink:href="#E262-v2b4dj" x="2020" y="1085" height="720px" width="720px" />
                     </g>
                  </g>
                  <g id="mdfv984" class="meterSig">
                     <use xlink:href="#E082-v2b4dj" x="2327" y="1265" height="720px" width="720px" />
                     <use xlink:href="#E084-v2b4dj" x="2332" y="1625" height="720px" width="720px" />
                  </g>
                  <g id="l1m7z5ar" class="layer">
                     <g id="nn0exuj" class="note">
                        <g class="notehead">
                           <use xlink:href="#E0A4-v2b4dj" x="2899" y="1535" height="720px" width="720px" />
                        </g>
                        <g id="stqiqz6" class="stem">
                           <rect x="3107" y="905" height="602" width="18" />
                        </g>
                     </g>
                     <g id="b1acw2cl" class="beam">
                        <polygon points="3901,905 4436,860 4436,950 3901,995" />
                        <g id="n1xyhm9l" class="note">
                           <g class="notehead">
                              <use xlink:href="#E0A4-v2b4dj" x="3693" y="1535" height="720px" width="720px" />
                           </g>
                           <g id="s1b93s7t" class="stem">
                              <rect x="3901" y="923" height="584" width="18" />
                           </g>
                        </g>
                        <g id="njjzcvk" class="note">
                           <g class="notehead">
                              <use xlink:href="#E0A4-v2b4dj" x="4210" y="1445" height="720px" width="720px" />
                           </g>
                           <g id="s1fndliy" class="stem">
                              <rect x="4418" y="878" height="539" width="18" />
                           </g>
                        </g>
                     </g>
                  </g>
               </g>
               <g id="bhujt49" class="barLine">
                  <path d="M4727 1085 L4727 1805" stroke="currentColor" stroke-width="27" />
               </g>
            </g>
            <g id="mc4k35c" class="measure">
               <g id="s1nmqx3y" class="staff">
                  <path d="M4740 1085 L7001 1085" stroke="currentColor" stroke-width="13" />
                  <path d="M4740 1265 L7001 1265" stroke="currentColor" stroke-width="13" />
                  <path d="M4740 1445 L7001 1445" stroke="currentColor" stroke-width="13" />
                  <path d="M4740 1625 L7001 1625" stroke="currentColor" stroke-width="13" />
                  <path d="M4740 1805 L7001 1805" stroke="currentColor" stroke-width="13" />
                  <g id="l3sllu7" class="layer">
                     <g id="b1wwq3vg" class="beam">
                        <polygon points="5127,950 5663,995 5663,1085 5127,1040" />
                        <g id="n1pksura" class="note">
                           <g class="notehead">
                              <use xlink:href="#E0A4-v2b4dj" x="4919" y="1625" height="720px" width="720px" />
                           </g>
                           <g id="s9yuj5j" class="stem">
                              <rect x="5127" y="968" height="629" width="18" />
                           </g>
                        </g>
                        <g id="nslz8si" class="note">
                           <g class="notehead">
                              <use xlink:href="#E0A4-v2b4dj" x="5437" y="1715" height="720px" width="720px" />
                           </g>
                           <g id="s12irkg1" class="stem">
                              <rect x="5645" y="1013" height="674" width="18" />
                           </g>
                           <g id="a2b4a6u" class="accid" />
                        </g>
                     </g>
                     <g id="b1x6uqix" class="beam">
                        <polygon points="6162,1040 6697,1040 6697,1130 6162,1130" />
                        <g id="n1270wcj" class="note">
                           <g class="notehead">
                              <use xlink:href="#E0A4-v2b4dj" x="5954" y="1625" height="720px" width="720px" />
                           </g>
                           <g id="s110u7wl" class="stem">
                              <rect x="6162" y="1058" height="539" width="18" />
                           </g>
                        </g>
                        <g id="nk4p7kd" class="note">
                           <g class="notehead">
                              <use xlink:href="#E0A4-v2b4dj" x="6471" y="1625" height="720px" width="720px" />
                           </g>
                           <g id="s1z0b08q" class="stem">
                              <rect x="6679" y="1058" height="539" width="18" />
                           </g>
                        </g>
                     </g>
                  </g>
               </g>
               <g id="b1hzjen9" class="barLine">
                  <path d="M6988 1085 L6988 1805" stroke="currentColor" stroke-width="27" />
               </g>
            </g>
            <g id="m161ul9m" class="measure">
               <g id="s1au9nph" class="staff">
                  <path d="M7001 1085 L9021 1085" stroke="currentColor" stroke-width="13" />
                  <path d="M7001 1265 L9021 1265" stroke="currentColor" stroke-width="13" />
                  <path d="M7001 1445 L9021 1445" stroke="currentColor" stroke-width="13" />
                  <path d="M7001 1625 L9021 1625" stroke="currentColor" stroke-width="13" />
                  <path d="M7001 1805 L9021 1805" stroke="currentColor" stroke-width="13" />
                  <g id="l1m9sdrl" class="layer">
                     <g id="n5mkwgv" class="note">
                        <g class="notehead">
                           <use xlink:href="#E0A4-v2b4dj" x="7180" y="1535" height="720px" width="720px" />
                        </g>
                        <g id="s2dp3q3" class="stem">
                           <rect x="7388" y="905" height="602" width="18" />
                        </g>
                     </g>
                     <g id="b1l0zbqs" class="beam">
                        <polygon points="8182,905 8717,860 8717,950 8182,995" />
                        <g id="nz8u48g" class="note">
                           <g class="notehead">
                              <use xlink:href="#E0A4-v2b4dj" x="7974" y="1535" height="720px" width="720px" />
                           </g>
                           <g id="s122pq7e" class="stem">
                              <rect x="8182" y="923" height="584" width="18" />
                           </g>
                        </g>
                        <g id="nittie7" class="note">
                           <g class="notehead">
                              <use xlink:href="#E0A4-v2b4dj" x="8491" y="1445" height="720px" width="720px" />
                           </g>
                           <g id="scr496i" class="stem">
                              <rect x="8699" y="878" height="539" width="18" />
                           </g>
                        </g>
                     </g>
                  </g>
               </g>
               <g id="b825es1" class="barLine">
                  <path d="M9008 1085 L9008 1805" stroke="currentColor" stroke-width="27" />
               </g>
            </g>
            <g id="ml0bp0j" class="measure">
               <g id="s13gczk3" class="staff">
                  <path d="M9021 1085 L11441 1085" stroke="currentColor" stroke-width="13" />
                  <path d="M9021 1265 L11441 1265" stroke="currentColor" stroke-width="13" />
                  <path d="M9021 1445 L11441 1445" stroke="currentColor" stroke-width="13" />
                  <path d="M9021 1625 L11441 1625" stroke="currentColor" stroke-width="13" />
                  <path d="M9021 1805 L11441 1805" stroke="currentColor" stroke-width="13" />
                  <g id="law3neh" class="layer">
                     <g id="n1ci3sht" class="note">
                        <g class="notehead">
                           <use xlink:href="#E0A4-v2b4dj" x="9109" y="1535" height="540px" width="540px" />
                        </g>
                        <g id="s1kw4dr7" class="stem">
                           <rect x="9260" y="1063" height="451" width="18" />
                           <g id="frymuwv" class="flag">
                              <use xlink:href="#E240-v2b4dj" x="9260" y="1063" height="540px" width="540px" />
                           </g>
                        </g>
                     </g>
                     <g id="na2hk2" class="note">
                        <g class="notehead">
                           <use xlink:href="#E0A4-v2b4dj" x="9476" y="1625" height="720px" width="720px" />
                        </g>
                        <g id="s103tykm" class="stem">
                           <rect x="9684" y="995" height="602" width="18" />
                        </g>
                     </g>
                     <g id="n5iiu2e" class="note">
                        <g class="notehead">
                           <use xlink:href="#E0A4-v2b4dj" x="10270" y="1625" height="720px" width="720px" />
                        </g>
                        <g id="s1xf3ubz" class="stem">
                           <rect x="10478" y="995" height="602" width="18" />
                        </g>
                     </g>
                  </g>
               </g>
               <g id="b1shez7p" class="barLine">
                  <path d="M11063 1085 L11063 1805" stroke="currentColor" stroke-width="27" />
                  <path d="M11193 1085 L11193 1805" stroke="currentColor" stroke-width="90" />
                  <path d="M11324 1085 L11324 1805" stroke="currentColor" stroke-width="27" />
                  <use xlink:href="#E044-v2b4dj" x="11369" y="1355" height="720px" width="720px" />
                  <use xlink:href="#E044-v2b4dj" x="11369" y="1535" height="720px" width="720px" />
                  <use xlink:href="#E044-v2b4dj" x="10946" y="1355" height="720px" width="720px" />
                  <use xlink:href="#E044-v2b4dj" x="10946" y="1535" height="720px" width="720px" />
               </g>
            </g>
            <g id="m10d666q" class="measure">
               <g id="s5qo5iu" class="staff">
                  <path d="M11441 1085 L13461 1085" stroke="currentColor" stroke-width="13" />
                  <path d="M11441 1265 L13461 1265" stroke="currentColor" stroke-width="13" />
                  <path d="M11441 1445 L13461 1445" stroke="currentColor" stroke-width="13" />
                  <path d="M11441 1625 L13461 1625" stroke="currentColor" stroke-width="13" />
                  <path d="M11441 1805 L13461 1805" stroke="currentColor" stroke-width="13" />
                  <g id="l13yg6ox" class="layer">
                     <g id="n1u07y68" class="note">
                        <g class="notehead">
                           <use xlink:href="#E0A4-v2b4dj" x="11620" y="1625" height="720px" width="720px" />
                        </g>
                        <g id="sgzcend" class="stem">
                           <rect x="11828" y="995" height="602" width="18" />
                        </g>
                     </g>
                     <g id="nf3asxl" class="note">
                        <g class="notehead">
                           <use xlink:href="#E0A4-v2b4dj" x="12047" y="1535" height="540px" width="540px" />
                        </g>
                        <g id="s4o816s" class="stem">
                           <rect x="12198" y="1063" height="451" width="18" />
                           <g id="f1xxytn4" class="flag">
                              <use xlink:href="#E240-v2b4dj" x="12198" y="1063" height="540px" width="540px" />
                           </g>
                        </g>
                     </g>
                     <g id="brq9uxw" class="beam">
                        <polygon points="12622,950 13157,995 13157,1085 12622,1040" />
                        <g id="n1g1848t" class="note">
                           <g class="notehead">
                              <use xlink:href="#E0A4-v2b4dj" x="12414" y="1625" height="720px" width="720px" />
                           </g>
                           <g id="s1nv2csm" class="stem">
                              <rect x="12622" y="968" height="629" width="18" />
                           </g>
                        </g>
                        <g id="nt7363u" class="note">
                           <g class="notehead">
                              <use xlink:href="#E0A4-v2b4dj" x="12931" y="1805" height="720px" width="720px" />
                           </g>
                           <g id="sqsi57k" class="stem">
                              <rect x="13139" y="1013" height="764" width="18" />
                           </g>
                        </g>
                     </g>
                  </g>
               </g>
               <g id="b1nls621" class="barLine">
                  <path d="M13448 1085 L13448 1805" stroke="currentColor" stroke-width="27" />
               </g>
            </g>
            <g id="m40qh9b" class="measure">
               <g id="s181dpl7" class="staff">
                  <path d="M13461 1085 L15481 1085" stroke="currentColor" stroke-width="13" />
                  <path d="M13461 1265 L15481 1265" stroke="currentColor" stroke-width="13" />
                  <path d="M13461 1445 L15481 1445" stroke="currentColor" stroke-width="13" />
                  <path d="M13461 1625 L15481 1625" stroke="currentColor" stroke-width="13" />
                  <path d="M13461 1805 L15481 1805" stroke="currentColor" stroke-width="13" />
                  <g id="l145nvzg" class="layer">
                     <g id="b1lqf33p" class="beam">
                        <polygon points="13848,995 14384,950 14384,1040 13848,1085" />
                        <g id="nqsylw1" class="note">
                           <g class="notehead">
                              <use xlink:href="#E0A4-v2b4dj" x="13640" y="1715" height="720px" width="720px" />
                           </g>
                           <g id="szlbw6t" class="stem">
                              <rect x="13848" y="1013" height="674" width="18" />
                           </g>
                           <g id="ai5sio1" class="accid" />
                        </g>
                        <g id="ngqtx2y" class="note">
                           <g class="notehead">
                              <use xlink:href="#E0A4-v2b4dj" x="14158" y="1625" height="720px" width="720px" />
                           </g>
                           <g id="s1epw6l2" class="stem">
                              <rect x="14366" y="968" height="629" width="18" />
                           </g>
                        </g>
                     </g>
                     <g id="n10jmug9" class="note">
                        <g class="notehead">
                           <use xlink:href="#E0A4-v2b4dj" x="14675" y="1535" height="720px" width="720px" />
                        </g>
                        <g id="s80krbu" class="stem">
                           <rect x="14883" y="905" height="602" width="18" />
                        </g>
                     </g>
                  </g>
               </g>
               <g id="b16psfvk" class="barLine">
                  <path d="M15468 1085 L15468 1805" stroke="currentColor" stroke-width="27" />
               </g>
            </g>
            <g id="mvkb74p" class="measure">
               <g id="s1wd07vd" class="staff">
                  <path d="M15481 1085 L17742 1085" stroke="currentColor" stroke-width="13" />
                  <path d="M15481 1265 L17742 1265" stroke="currentColor" stroke-width="13" />
                  <path d="M15481 1445 L17742 1445" stroke="currentColor" stroke-width="13" />
                  <path d="M15481 1625 L17742 1625" stroke="currentColor" stroke-width="13" />
                  <path d="M15481 1805 L17742 1805" stroke="currentColor" stroke-width="13" />
                  <g id="l1lb1joc" class="layer">
                     <g id="b16kk23y" class="beam">
                        <polygon points="15868,905 16404,860 16404,950 15868,995" />
                        <g id="ntyctra" class="note">
                           <g class="notehead">
                              <use xlink:href="#E0A4-v2b4dj" x="15660" y="1535" height="720px" width="720px" />
                           </g>
                           <g id="s8im6v9" class="stem">
                              <rect x="15868" y="923" height="584" width="18" />
                           </g>
                        </g>
                        <g id="nx83kgl" class="note">
                           <g class="notehead">
                              <use xlink:href="#E0A4-v2b4dj" x="16178" y="1445" height="720px" width="720px" />
                           </g>
                           <g id="s1qx8ce3" class="stem">
                              <rect x="16386" y="878" height="539" width="18" />
                           </g>
                        </g>
                     </g>
                     <g id="bazp1pn" class="beam">
                        <polygon points="16903,905 17438,860 17438,950 16903,995" />
                        <g id="nfmjb9q" class="note">
                           <g class="notehead">
                              <use xlink:href="#E0A4-v2b4dj" x="16695" y="1625" height="720px" width="720px" />
                           </g>
                           <g id="smdmylq" class="stem">
                              <rect x="16903" y="923" height="674" width="18" />
                           </g>
                        </g>
                        <g id="n1ca7v8n" class="note">
                           <g class="notehead">
                              <use xlink:href="#E0A4-v2b4dj" x="17212" y="1535" height="720px" width="720px" />
                           </g>
                           <g id="s1ydns1d" class="stem">
                              <rect x="17420" y="878" height="629" width="18" />
                           </g>
                        </g>
                     </g>
                  </g>
               </g>
               <g id="b1udv6ya" class="barLine">
                  <path d="M17729 1085 L17729 1805" stroke="currentColor" stroke-width="27" />
               </g>
            </g>
            <g id="m1eaeq14" class="measure">
               <g id="s1c87biq" class="staff">
                  <path d="M17742 1085 L20003 1085" stroke="currentColor" stroke-width="13" />
                  <path d="M17742 1265 L20003 1265" stroke="currentColor" stroke-width="13" />
                  <path d="M17742 1445 L20003 1445" stroke="currentColor" stroke-width="13" />
                  <path d="M17742 1625 L20003 1625" stroke="currentColor" stroke-width="13" />
                  <path d="M17742 1805 L20003 1805" stroke="currentColor" stroke-width="13" />
                  <g id="lrsuqld" class="layer">
                     <g id="b1mmcyu0" class="beam">
                        <polygon points="18129,950 18665,995 18665,1085 18129,1040" />
                        <g id="n14m0gcp" class="note">
                           <g class="notehead">
                              <use xlink:href="#E0A4-v2b4dj" x="17921" y="1625" height="720px" width="720px" />
                           </g>
                           <g id="s1hjqovk" class="stem">
                              <rect x="18129" y="968" height="629" width="18" />
                           </g>
                        </g>
                        <g id="n1y4si0h" class="note">
                           <g class="notehead">
                              <use xlink:href="#E0A4-v2b4dj" x="18439" y="1715" height="720px" width="720px" />
                           </g>
                           <g id="sm6d7ls" class="stem">
                              <rect x="18647" y="1013" height="674" width="18" />
                           </g>
                           <g id="axs23cj" class="accid" />
                        </g>
                     </g>
                     <g id="b1lvn96e" class="beam">
                        <polygon points="19164,1220 19699,1220 19699,1310 19164,1310" />
                        <g id="n1wzdfyq" class="note">
                           <g class="notehead">
                              <use xlink:href="#E0A4-v2b4dj" x="18956" y="1805" height="720px" width="720px" />
                           </g>
                           <g id="si1pdnm" class="stem">
                              <rect x="19164" y="1238" height="539" width="18" />
                           </g>
                        </g>
                        <g id="n1w88wzg" class="note">
                           <g class="notehead">
                              <use xlink:href="#E0A4-v2b4dj" x="19473" y="1805" height="720px" width="720px" />
                           </g>
                           <g id="s7q3uty" class="stem">
                              <rect x="19681" y="1238" height="539" width="18" />
                           </g>
                        </g>
                     </g>
                  </g>
               </g>
               <g id="bboqn6a" class="barLine">
                  <path d="M19990 1085 L19990 1805" stroke="currentColor" stroke-width="27" />
               </g>
            </g>
         </g>
         <g id="s55buk0" class="system">
            <g id="lgr4skh" class="labelAbbr">
               <text x="914" y="3884" text-anchor="end" font-size="0px">
                  <tspan id="t1enem11" class="text">
                     <tspan font-size="405px" class="text">Pno.</tspan>
                  </tspan>
               </text>
            </g>
            <g id="momkuug" class="measure">
               <g id="m1hylylz" class="mNum autogenerated">
                  <text x="1094" y="3191" text-anchor="middle" font-size="0px">
                     <tspan id="t1hqxfl3" class="text">
                        <tspan font-size="324px" class="text">9</tspan>
                     </tspan>
                  </text>
               </g>
               <g id="s1cmfjw6" class="staff">
                  <path d="M1094 3434 L4091 3434" stroke="currentColor" stroke-width="13" />
                  <path d="M1094 3614 L4091 3614" stroke="currentColor" stroke-width="13" />
                  <path d="M1094 3794 L4091 3794" stroke="currentColor" stroke-width="13" />
                  <path d="M1094 3974 L4091 3974" stroke="currentColor" stroke-width="13" />
                  <path d="M1094 4154 L4091 4154" stroke="currentColor" stroke-width="13" />
                  <g id="c1jfwd9c" class="clef">
                     <use xlink:href="#E050-v2b4dj" x="1184" y="3974" height="720px" width="720px" />
                  </g>
                  <g id="kg1fhps" class="keySig">
                     <g id="kzl24te" class="keyAccid">
                        <use xlink:href="#E262-v2b4dj" x="1829" y="3434" height="720px" width="720px" />
                     </g>
                  </g>
                  <g id="lf2th8q" class="layer">
                     <g id="nd4klxo" class="note">
                        <g class="notehead">
                           <use xlink:href="#E0A4-v2b4dj" x="2240" y="3974" height="720px" width="720px" />
                        </g>
                        <g id="s1jk2rim" class="stem">
                           <rect x="2448" y="3344" height="602" width="18" />
                        </g>
                     </g>
                     <g id="n1ky2a2q" class="note">
                        <g class="notehead">
                           <use xlink:href="#E0A4-v2b4dj" x="2671" y="3884" height="540px" width="540px" />
                        </g>
                        <g id="s6gp52f" class="stem">
                           <rect x="2822" y="3412" height="451" width="18" />
                           <g id="foba9c6" class="flag">
                              <use xlink:href="#E240-v2b4dj" x="2822" y="3412" height="540px" width="540px" />
                           </g>
                        </g>
                     </g>
                     <g id="b1wf0a0r" class="beam">
                        <polygon points="3246,3299 3784,3344 3784,3434 3246,3389" />
                        <g id="n9djgda" class="note">
                           <g class="notehead">
                              <use xlink:href="#E0A4-v2b4dj" x="3038" y="3974" height="720px" width="720px" />
                           </g>
                           <g id="s1ida2xc" class="stem">
                              <rect x="3246" y="3317" height="629" width="18" />
                           </g>
                        </g>
                        <g id="n1br75xn" class="note">
                           <g class="notehead">
                              <use xlink:href="#E0A4-v2b4dj" x="3558" y="4154" height="720px" width="720px" />
                           </g>
                           <g id="s1my6k6v" class="stem">
                              <rect x="3766" y="3362" height="764" width="18" />
                           </g>
                        </g>
                     </g>
                  </g>
               </g>
               <g id="b1iv7jny" class="barLine">
                  <path d="M4078 3434 L4078 4154" stroke="currentColor" stroke-width="27" />
               </g>
            </g>
            <g id="s2v7u4j" class="sb" />
            <g id="m1oba1d7" class="measure">
               <g id="s1v1oyl" class="staff">
                  <path d="M4091 3434 L6122 3434" stroke="currentColor" stroke-width="13" />
                  <path d="M4091 3614 L6122 3614" stroke="currentColor" stroke-width="13" />
                  <path d="M4091 3794 L6122 3794" stroke="currentColor" stroke-width="13" />
                  <path d="M4091 3974 L6122 3974" stroke="currentColor" stroke-width="13" />
                  <path d="M4091 4154 L6122 4154" stroke="currentColor" stroke-width="13" />
                  <g id="l18vhitq" class="layer">
                     <g id="b10rm7x7" class="beam">
                        <polygon points="4479,3344 5017,3299 5017,3389 4479,3434" />
                        <g id="nqw11pd" class="note">
                           <g class="notehead">
                              <use xlink:href="#E0A4-v2b4dj" x="4271" y="4064" height="720px" width="720px" />
                           </g>
                           <g id="s1d2s6xw" class="stem">
                              <rect x="4479" y="3362" height="674" width="18" />
                           </g>
                           <g id="a1yctqad" class="accid" />
                        </g>
                        <g id="n1014i17" class="note">
                           <g class="notehead">
                              <use xlink:href="#E0A4-v2b4dj" x="4791" y="3974" height="720px" width="720px" />
                           </g>
                           <g id="shxjig6" class="stem">
                              <rect x="4999" y="3317" height="629" width="18" />
                           </g>
                        </g>
                     </g>
                     <g id="ndvn92z" class="note">
                        <g class="notehead">
                           <use xlink:href="#E0A4-v2b4dj" x="5311" y="3884" height="720px" width="720px" />
                        </g>
                        <g id="s1pukg5t" class="stem">
                           <rect x="5519" y="3254" height="602" width="18" />
                        </g>
                     </g>
                  </g>
               </g>
               <g id="bhmqood" class="barLine">
                  <path d="M6109 3434 L6109 4154" stroke="currentColor" stroke-width="27" />
               </g>
            </g>
            <g id="m12ewxi8" class="measure">
               <g id="s6cfu12" class="staff">
                  <path d="M6122 3434 L8395 3434" stroke="currentColor" stroke-width="13" />
                  <path d="M6122 3614 L8395 3614" stroke="currentColor" stroke-width="13" />
                  <path d="M6122 3794 L8395 3794" stroke="currentColor" stroke-width="13" />
                  <path d="M6122 3974 L8395 3974" stroke="currentColor" stroke-width="13" />
                  <path d="M6122 4154 L8395 4154" stroke="currentColor" stroke-width="13" />
                  <g id="liocfma" class="layer">
                     <g id="b43rfxu" class="beam">
                        <polygon points="6510,3254 7048,3209 7048,3299 6510,3344" />
                        <g id="n1o59sxo" class="note">
                           <g class="notehead">
                              <use xlink:href="#E0A4-v2b4dj" x="6302" y="3884" height="720px" width="720px" />
                           </g>
                           <g id="s1uaszoh" class="stem">
                              <rect x="6510" y="3272" height="584" width="18" />
                           </g>
                        </g>
                        <g id="n1q6z3m9" class="note">
                           <g class="notehead">
                              <use xlink:href="#E0A4-v2b4dj" x="6822" y="3794" height="720px" width="720px" />
                           </g>
                           <g id="s143mvxz" class="stem">
                              <rect x="7030" y="3227" height="539" width="18" />
                           </g>
                        </g>
                     </g>
                     <g id="btfkklf" class="beam">
                        <polygon points="7550,3254 8088,3209 8088,3299 7550,3344" />
                        <g id="n1u5oqpo" class="note">
                           <g class="notehead">
                              <use xlink:href="#E0A4-v2b4dj" x="7342" y="3974" height="720px" width="720px" />
                           </g>
                           <g id="soyvidf" class="stem">
                              <rect x="7550" y="3272" height="674" width="18" />
                           </g>
                        </g>
                        <g id="n6rznf6" class="note">
                           <g class="notehead">
                              <use xlink:href="#E0A4-v2b4dj" x="7862" y="3884" height="720px" width="720px" />
                           </g>
                           <g id="s1qlh7ld" class="stem">
                              <rect x="8070" y="3227" height="629" width="18" />
                           </g>
                        </g>
                     </g>
                  </g>
               </g>
               <g id="b1f5oirc" class="barLine">
                  <path d="M8382 3434 L8382 4154" stroke="currentColor" stroke-width="27" />
               </g>
            </g>
            <g id="mq2i3gn" class="measure">
               <g id="sani27l" class="staff">
                  <path d="M8395 3434 L10588 3434" stroke="currentColor" stroke-width="13" />
                  <path d="M8395 3614 L10588 3614" stroke="currentColor" stroke-width="13" />
                  <path d="M8395 3794 L10588 3794" stroke="currentColor" stroke-width="13" />
                  <path d="M8395 3974 L10588 3974" stroke="currentColor" stroke-width="13" />
                  <path d="M8395 4154 L10588 4154" stroke="currentColor" stroke-width="13" />
                  <g id="l1cxpr1" class="layer">
                     <g id="b1lix7z1" class="beam">
                        <polygon points="8783,3299 9321,3344 9321,3434 8783,3389" />
                        <g id="n1862u1a" class="note">
                           <g class="notehead">
                              <use xlink:href="#E0A4-v2b4dj" x="8575" y="3974" height="720px" width="720px" />
                           </g>
                           <g id="s1r84f5e" class="stem">
                              <rect x="8783" y="3317" height="629" width="18" />
                           </g>
                        </g>
                        <g id="nftwvm" class="note">
                           <g class="notehead">
                              <use xlink:href="#E0A4-v2b4dj" x="9095" y="4064" height="720px" width="720px" />
                           </g>
                           <g id="sbtpcno" class="stem">
                              <rect x="9303" y="3362" height="674" width="18" />
                           </g>
                           <g id="a16p4t5n" class="accid" />
                        </g>
                     </g>
                     <g id="n1nkguyi" class="note">
                        <g class="notehead">
                           <use xlink:href="#E0A4-v2b4dj" x="9615" y="3974" height="720px" width="720px" />
                        </g>
                        <g id="sp1f96h" class="stem">
                           <rect x="9823" y="3344" height="602" width="18" />
                        </g>
                     </g>
                  </g>
               </g>
               <g id="bpsaips" class="barLine">
                  <path d="M10413 3434 L10413 4154" stroke="currentColor" stroke-width="27" />
                  <path d="M10543 3434 L10543 4154" stroke="currentColor" stroke-width="90" />
               </g>
            </g>
            <g id="s9z55ww" class="systemMilestoneEnd s1vdwuao" />
         </g>
         <g id="pgxn138" class="pageMilestoneEnd s1df0tmq" />
         <g id="p1bc96ek" class="pageMilestoneEnd m1eqdddy" />
         <g id="pjh4ejq" class="pgHead">
            <text x="0" y="0" font-size="0px">
               <tspan id="rt7rn4n" class="rend" x="10000" y="277" text-anchor="middle">
                  <tspan id="t1w3h4xb" class="text">
                     <tspan font-size="405px" class="text">Air n 74</tspan>
                  </tspan>
               </tspan>
            </text>
         </g>
         <g id="p1bdtq3d" class="pgFoot autogenerated">
            <g id="f1kzsoyz" class="fig">
               <g id="snnf30h" class="svg" transform="translate(7750, 28099) scale(10, 10)">
                  <g>
                     <path fill="#00000" d="M 17.11278,49.26451 V 10.367554 h 12.696511 c 3.288815,7.336676 6.71267,14.610456 10.127281,21.888976 3.419998,-7.484684 6.255515,-14.204887 9.58887,-21.909915 2.436207,0.103726 4.316952,0.08453 6.484294,-0.05808 V 49.264423 H 50.274275 C 50.145222,38.35639 50.016136,27.448368 49.887066,16.540329 45.003488,27.315459 39.967448,38.433564 35.083854,49.208695 34.678996,49.343717 34.426583,49.135619 34.021726,49.270644 29.46588,39.330716 24.910049,29.390805 20.354201,19.450876 20.224341,29.388756 20.09461,39.326619 19.964815,49.264497 H 17.11278 Z M 36.754144,39.324695 C 32.721221,30.512695 28.6883,21.700679 24.655394,12.888662 22.530527,12.750737 22.656775,12.71031 20.714356,12.813974 v 0.966497 c 4.612938,9.99784 9.609439,20.748709 13.87298,30.081745 0.722248,-1.512523 1.444528,-3.025014 2.166808,-4.537521 z m 25.738417,9.939815 c 0,-12.965651 0,-25.931305 0,-38.896956 10.084388,0 20.168791,0 30.253178,0 0,0.960416 0,1.920849 0,2.881265 -6.482825,0 -12.965652,0 -19.448478,0 0,4.802097 0,9.604178 0,14.406277 5.52241,0 11.044819,0 16.567229,0 0,0.960415 0,1.920832 0,2.881248 -5.52241,0 -11.044819,0 -16.567229,0 0,5.282306 0,10.564611 0,15.846917 6.963035,0 13.926068,0 20.889103,0 0,0.960416 0,1.920832 0,2.881249 -10.564597,0 -21.129207,0 -31.693803,0 z m 4.321874,-2.160937 c 0,-11.765131 0,-23.530263 0,-35.295394 -0.720312,0 -1.440625,0 -2.160937,0 0,11.765131 0,23.530263 0,35.295394 0.720312,0 1.440625,0 2.160937,0 z m 32.41413,2.160937 c 0,-12.965651 0,-25.931305 0,-38.896956 2.401045,0 4.802095,0 7.203135,0 0,12.965651 0,25.931305 0,38.896956 -2.40104,0 -4.80209,0 -7.203135,0 z m 2.881265,-2.160937 c 0,-11.765131 0,-23.530263 0,-35.295394 -0.72031,0 -1.44064,0 -2.160953,0 0,11.765131 0,23.530263 0,35.295394 0.720313,0 1.440643,0 2.160953,0 z" />
                     <path fill="#00000" d="m 346.3,6.7 c -3.1,0.5 -4.9,4.4 -2.7,6.8 1.2,1.4 2.7,2.4 4.1,3.5 -2.4,5.3 -7.7,8.3 -11.9,12.1 -3.7,2.8 -7,6.2 -9.7,9.9 -2.2,-0.8 -0.3,-6.8 -0.6,-9.5 0.1,-3.1 0.7,-6.4 2.9,-8.7 1.3,-1.9 3,-3.5 4.5,-5.2 1.2,-3.4 -3.2,-4.9 -5.8,-4.6 -7.3,-0.5 -14.6,2 -20,6.8 -5,4.6 -10,10.1 -11.5,17 -0.9,3.5 -0.2,7.5 2.8,9.9 2.5,2.8 7.4,2.9 9.8,-0.2 1.7,-2.3 3.2,-4.8 3.8,-7.6 -0.1,-2.6 -4.4,-2.3 -4.3,0.2 1.2,2.4 -0.9,4.7 -2.7,6.2 -1.7,0.9 -4.7,0.7 -4.8,-1.7 -1,-5.8 2.1,-11.3 5.2,-16.1 4,-5.8 9.8,-11.2 17.2,-11.8 1.6,0 8.1,-1.2 6.8,1.4 -2.8,2.8 -5.6,6.1 -6,10.3 -1.6,7.7 0.1,15.7 -2.3,23.2 -1.1,3.9 2,2.6 2.5,0.2 3.3,-7.4 8.9,-13.4 15.1,-18.5 4.2,-3.9 9.5,-7.1 11.9,-12.6 1.3,-3.6 1.2,-9 -2.7,-10.9 -0.6,-0.2 -1.2,-0.3 -1.8,-0.3 z m 66,14.5 c -2,0.8 -1.8,4.9 0.8,4.4 3.4,0.4 2.9,-6.2 -0.8,-4.4 z m 0.6,7.3 c -1.3,0.5 -7.6,0.5 -5.4,2.2 4,-0.3 0.7,4.5 0.6,6.7 -0.4,2.9 -2.4,5.9 -1.2,8.8 2.7,1.7 5.6,-0.8 6.8,-3.2 1.6,-1.4 -0.5,-3 -1.2,-0.9 -0.4,0.8 -2.4,3.5 -2.6,1.8 1.1,-5 2.7,-9.9 3.9,-14.9 l -0.1,-0.5 h -0.9 z m -65.1,0.2 c -6.5,1.6 -10.5,9.5 -8.2,15.7 2.1,3.4 7.4,2.9 10.1,0.4 2,-0.2 3.6,-5.3 1,-3.4 -1.4,2 -4,4.2 -6.5,2.8 -2.2,-1.9 -1.9,-5.7 1.7,-5.3 3.1,-0.9 6.9,-2.1 8.1,-5.5 0.9,-2.7 -1.6,-5.2 -4.3,-4.8 h -1.1 -0.7 z m 13.6,0 c -2.2,0 -8.5,1.8 -2.9,2.3 0.9,1.9 -1,4.9 -1.1,7.2 -0.5,2.9 -1.4,5.7 -1.7,8.7 3.7,0.7 3.8,-2.6 4.4,-5.3 0.9,-3.3 1.6,-7 4.1,-9.5 2.4,1.6 6.8,-0.7 3.7,-3.4 -2.9,-0.5 -4.8,2.4 -6.2,4.3 0,-1.2 2.4,-5 -0.2,-4.3 z m 15.8,0 c -6.4,1.3 -9.6,9.1 -7.7,14.9 1.9,4 7.7,3.9 11,1.7 4.1,-3 6,-8.9 4.4,-13.7 -1.3,-3 -4.8,-3.2 -7.6,-3 z m 17,0 c -2.3,0 -8.8,1.9 -3,2.4 0.4,2.5 -1,5.7 -1.4,8.4 -0.7,2.4 -1.8,7.5 2.1,7.2 3.8,-0.1 6.5,-3.5 8.5,-6.3 2,-3.2 4.5,-7 3.3,-10.9 -3.7,-3 -3.6,2.6 -3.1,5.1 -0.7,3.8 -2.7,7.9 -6.2,9.8 -3.6,0.6 -1,-4.3 -0.8,-6.1 0.6,-3.2 1.6,-6.3 1.9,-9.5 -0.4,0 -0.8,0 -1.1,0 z m 30.6,0 c -6.3,1.2 -9.5,8.9 -7.8,14.7 1.5,4 7.2,4.2 10.5,2.4 4.6,-2.8 6.6,-9.3 4.8,-14.3 -1.4,-2.8 -4.8,-3 -7.5,-2.8 z m -75.4,1.7 c 2.1,1.5 0.2,4.7 -1.6,5.7 -1.1,0.4 -5.5,3.4 -4.6,0.7 0.8,-2.7 2.2,-6.2 5.3,-6.6 l 0.9,0.1 z m 30.8,0 c 2.6,1.5 1.3,5.2 0.8,7.6 -0.8,2.7 -1.9,5.9 -4.7,7.1 -5.1,0.8 -4,-5.8 -2.8,-8.8 1,-2.8 3,-6.8 6.7,-5.8 z m 47.1,-0.1 c 2.9,0.7 2,4.7 1.5,6.8 -0.7,3 -1.8,6.7 -5,8 -4.7,0.8 -4,-5.1 -3,-7.9 0.9,-3 2.7,-7.3 6.5,-6.8 z m -88.1,5.9 c -0.3,1.3 0.9,-0.6 0,0 z m -1.1,2.4 c -0.2,0.5 0.5,-0.1 0,0 z m -1.3,4.5 c -0.3,1.3 0.8,-0.2 0,0 z" />
                     <text y="41" x="201" fill="#00000" style="font-style:italic;font-weight:normal;font-size:30px;line-height:125%;font-family:Times;text-anchor:middle" xml:space="preserve">engraved with</text>
                  </g>
               </g>
            </g>
         </g>
      </g>
   </svg>
</svg>
