<?xml version="1.0" encoding="UTF-8" standalone="no"?>
<svg width="2100px" height="2970px" version="1.1" xmlns="http://www.w3.org/2000/svg" xmlns:xlink="http://www.w3.org/1999/xlink" xmlns:mei="http://www.music-encoding.org/ns/mei" overflow="visible">
   <desc>Engraved by Verovio 3.13.1</desc>
   <defs>
      <symbol id="E240-1le16on" viewBox="0 0 1000 1000" overflow="inherit">
         <path transform="scale(1,-1)" d="M179 -646c15 29 29 55 46 102c18 49 30 108 30 138c0 105 -80 173 -168 200c-18 5 -47 9 -87 16v190h22c8 0 33 -61 71 -95c4 -3 -2 3 61 -56c62 -58 122 -137 122 -241c0 -38 -13 -106 -35 -163c-20 -51 -43 -99 -66 -132c-6 -5 -10 -7 -13 -7s-5 2 -5 5l4 10 c1 3 14 25 18 33z" />
      </symbol>
      <symbol id="E262-1le16on" viewBox="0 0 1000 1000" overflow="inherit">
         <path transform="scale(1,-1)" d="M136 186v169h17v-164l44 14v-91l-44 -14v-165l44 12v-91l-44 -13v-155h-17v150l-76 -22v-155h-17v149l-43 -13v90l43 14v167l-43 -14v92l43 13v169h17v-163zM60 73v-167l76 22v168z" />
      </symbol>
      <symbol id="E044-1le16on" viewBox="0 0 1000 1000" overflow="inherit">
         <path transform="scale(1,-1)" d="M0 0c0 28 22 50 50 50s50 -22 50 -50s-22 -50 -50 -50s-50 22 -50 50z" />
      </symbol>
      <symbol id="E050-1le16on" viewBox="0 0 1000 1000" overflow="inherit">
         <path transform="scale(1,-1)" d="M441 -245c-23 -4 -48 -6 -76 -6c-59 0 -102 7 -130 20c-88 42 -150 93 -187 154c-26 44 -43 103 -48 176c0 6 -1 13 -1 19c0 54 15 111 45 170c29 57 65 106 110 148s96 85 153 127c-3 16 -8 46 -13 92c-4 43 -5 73 -5 89c0 117 16 172 69 257c34 54 64 82 89 82 c21 0 43 -30 69 -92s39 -115 41 -159v-15c0 -109 -21 -162 -67 -241c-13 -20 -63 -90 -98 -118c-13 -9 -25 -19 -37 -29l31 -181c8 1 18 2 28 2c58 0 102 -12 133 -35c59 -43 92 -104 98 -184c1 -7 1 -15 1 -22c0 -123 -87 -209 -181 -248c8 -57 17 -110 25 -162 c5 -31 6 -58 6 -80c0 -30 -5 -53 -14 -70c-35 -64 -88 -99 -158 -103c-5 0 -11 -1 -16 -1c-37 0 -72 10 -108 27c-50 24 -77 59 -80 105v11c0 29 7 55 20 76c18 28 45 42 79 44h6c49 0 93 -42 97 -87v-9c0 -51 -34 -86 -105 -106c17 -24 51 -36 102 -36c62 0 116 43 140 85 c9 16 13 41 13 74c0 20 -1 42 -5 67c-8 53 -18 106 -26 159zM461 939c-95 0 -135 -175 -135 -286c0 -24 2 -48 5 -71c50 39 92 82 127 128c40 53 60 100 60 140v8c-4 53 -22 81 -55 81h-2zM406 119l54 -326c73 25 110 78 110 161c0 7 0 15 -1 23c-7 95 -57 142 -151 142h-12 zM382 117c-72 -2 -128 -47 -128 -120v-7c2 -46 43 -99 75 -115c-3 -2 -7 -5 -10 -10c-70 33 -116 88 -123 172v11c0 68 44 126 88 159c23 17 49 29 78 36l-29 170c-21 -13 -52 -37 -92 -73c-50 -44 -86 -84 -109 -119c-45 -69 -67 -130 -67 -182v-13c5 -68 35 -127 93 -176 s125 -73 203 -73c25 0 50 3 75 9c-19 111 -36 221 -54 331z" />
      </symbol>
      <symbol id="E086-1le16on" viewBox="0 0 1000 1000" overflow="inherit">
         <path transform="scale(1,-1)" d="M284 -91c0 37 -28 92 -67 92c-35 0 -65 -54 -65 -111c0 -52 22 -104 68 -104c47 0 64 68 64 123zM230 214c-36 0 -90 -33 -90 -184l2 -36c40 24 81 36 120 36c80 0 140 -48 140 -121c0 -99 -99 -159 -182 -159c-160 0 -200 173 -200 244c0 21 2 43 7 71l10 35 c26 85 73 115 98 126c41 19 74 24 103 24c93 0 142 -63 142 -105c0 -58 -52 -72 -73 -72c-33 0 -59 24 -65 35c-3 5 -6 14 -7 25l11 30c6 15 9 27 9 35c0 11 -9 16 -25 16z" />
      </symbol>
      <symbol id="E088-1le16on" viewBox="0 0 1000 1000" overflow="inherit">
         <path transform="scale(1,-1)" d="M195 -214c76 0 88 58 90 68c0 34 -35 60 -57 73l-52 29c-21 10 -32 17 -34 20c-39 -33 -58 -54 -62 -92c5 -23 23 -98 115 -98zM301 135c0 61 -72 76 -113 76c-40 0 -77 -17 -77 -51c3 -21 15 -38 26 -50c17 -15 33 -26 48 -34l65 -28c34 27 51 56 51 87zM176 -250 c-57 0 -166 26 -166 132c0 47 30 86 89 116c-33 15 -79 60 -79 119c0 79 85 132 178 132h18c5 0 21 1 28 -1c25 0 126 -30 126 -110c0 -37 -23 -76 -69 -116c43 -25 83 -71 83 -119c0 -101 -118 -153 -208 -153z" />
      </symbol>
      <symbol id="E0A4-1le16on" viewBox="0 0 1000 1000" overflow="inherit">
         <path transform="scale(1,-1)" d="M0 -39c0 68 73 172 200 172c66 0 114 -37 114 -95c0 -84 -106 -171 -218 -171c-64 0 -96 30 -96 94z" />
      </symbol>
   </defs>
   <style type="text/css">g.page-margin{font-family:Times;} g.ending, g.fing, g.reh, g.tempo{font-weight:bold;} g.dir, g.dynam, g.mNum{font-style:italic;} g.label{font-weight:normal;}</style>
   <svg class="definition-scale" color="black" viewBox="0 0 21000 29700">
      <g class="page-margin" transform="translate(500, 500)">
         <g id="m1fpexm6" class="mdiv pageMilestone" />
         <g id="s1mfob3t" class="score pageMilestone" />
         <g id="syvmnds" class="system">
            <g id="l1q153bl" class="label">
               <text x="1105" y="1535" text-anchor="end" font-size="0px">
                  <tspan id="tmytz2j" class="text">
                     <tspan font-size="405px" class="text">Piano</tspan>
                  </tspan>
               </text>
            </g>
            <g id="s1t80m7v" class="section systemMilestone" />
            <g id="p19pmi7c" class="pb" />
            <g id="mu53lrt" class="measure">
               <g id="s1ux2hze" class="staff">
                  <path d="M1285 1085 L5461 1085" stroke="currentColor" stroke-width="13" />
                  <path d="M1285 1265 L5461 1265" stroke="currentColor" stroke-width="13" />
                  <path d="M1285 1445 L5461 1445" stroke="currentColor" stroke-width="13" />
                  <path d="M1285 1625 L5461 1625" stroke="currentColor" stroke-width="13" />
                  <path d="M1285 1805 L5461 1805" stroke="currentColor" stroke-width="13" />
                  <g id="c1gdonr" class="clef">
                     <use xlink:href="#E050-1le16on" x="1375" y="1625" height="720px" width="720px" />
                  </g>
                  <g id="kovtkv" class="keySig">
                     <g id="ka70b0f" class="keyAccid">
                        <use xlink:href="#E262-1le16on" x="2020" y="1085" height="720px" width="720px" />
                     </g>
                  </g>
                  <g id="mrvk5w0" class="meterSig">
                     <use xlink:href="#E086-1le16on" x="2327" y="1265" height="720px" width="720px" />
                     <use xlink:href="#E088-1le16on" x="2334" y="1625" height="720px" width="720px" />
                  </g>
                  <g id="l4nh8xk" class="layer">
                     <g id="ndnbe3d" class="note">
                        <g class="notehead">
                           <use xlink:href="#E0A4-1le16on" x="2888" y="1625" height="720px" width="720px" />
                        </g>
                        <g id="st8yx6q" class="stem">
                           <rect x="3096" y="995" height="602" width="18" />
                        </g>
                     </g>
                     <g id="nhlx5p2" class="note">
                        <g class="notehead">
                           <use xlink:href="#E0A4-1le16on" x="3659" y="1535" height="720px" width="720px" />
                        </g>
                        <g id="smuo2oy" class="stem">
                           <rect x="3867" y="905" height="602" width="18" />
                           <g id="fd1674q" class="flag">
                              <use xlink:href="#E240-1le16on" x="3867" y="905" height="720px" width="720px" />
                           </g>
                        </g>
                     </g>
                     <g id="ndjaq45" class="note">
                        <g class="notehead">
                           <use xlink:href="#E0A4-1le16on" x="4162" y="1445" height="720px" width="720px" />
                        </g>
                        <g id="s1dnoon6" class="stem">
                           <rect x="4162" y="1473" height="572" width="18" />
                        </g>
                     </g>
                     <g id="ndr1117" class="note">
                        <g class="notehead">
                           <use xlink:href="#E0A4-1le16on" x="4934" y="1625" height="720px" width="720px" />
                        </g>
                        <g id="sj4qskb" class="stem">
                           <rect x="5142" y="995" height="602" width="18" />
                           <g id="f14ms44" class="flag">
                              <use xlink:href="#E240-1le16on" x="5142" y="995" height="720px" width="720px" />
                           </g>
                        </g>
                     </g>
                  </g>
               </g>
               <g id="bqjqohz" class="barLine">
                  <path d="M5448 1085 L5448 1805" stroke="currentColor" stroke-width="27" />
               </g>
            </g>
            <g id="m1bmmwbw" class="measure">
               <g id="s19jwhl2" class="staff">
                  <path d="M5461 1085 L8451 1085" stroke="currentColor" stroke-width="13" />
                  <path d="M5461 1265 L8451 1265" stroke="currentColor" stroke-width="13" />
                  <path d="M5461 1445 L8451 1445" stroke="currentColor" stroke-width="13" />
                  <path d="M5461 1625 L8451 1625" stroke="currentColor" stroke-width="13" />
                  <path d="M5461 1805 L8451 1805" stroke="currentColor" stroke-width="13" />
                  <g id="lngn4is" class="layer">
                     <g id="b1ac2q87" class="beam">
                        <polygon points="5851,860 6875,860 6875,950 5851,950" />
                        <g id="n1997eni" class="note">
                           <g class="notehead">
                              <use xlink:href="#E0A4-1le16on" x="5643" y="1535" height="720px" width="720px" />
                           </g>
                           <g id="s14tnbro" class="stem">
                              <rect x="5851" y="878" height="629" width="18" />
                           </g>
                        </g>
                        <g id="nhvzjfs" class="note">
                           <g class="notehead">
                              <use xlink:href="#E0A4-1le16on" x="6146" y="1445" height="720px" width="720px" />
                           </g>
                           <g id="sutci6b" class="stem">
                              <rect x="6354" y="878" height="539" width="18" />
                           </g>
                        </g>
                        <g id="n1cvqwc0" class="note">
                           <g class="notehead">
                              <use xlink:href="#E0A4-1le16on" x="6649" y="1535" height="720px" width="720px" />
                           </g>
                           <g id="s14em7xo" class="stem">
                              <rect x="6857" y="878" height="629" width="18" />
                           </g>
                        </g>
                     </g>
                     <g id="nwljmlp" class="note">
                        <g class="notehead">
                           <use xlink:href="#E0A4-1le16on" x="7152" y="1625" height="720px" width="720px" />
                        </g>
                        <g id="s1rt2gm" class="stem">
                           <rect x="7360" y="995" height="602" width="18" />
                        </g>
                     </g>
                     <g id="n1i8f8m5" class="note">
                        <g class="notehead">
                           <use xlink:href="#E0A4-1le16on" x="7924" y="1895" height="720px" width="720px" />
                        </g>
                        <g id="sf6un8z" class="stem">
                           <rect x="8132" y="1265" height="602" width="18" />
                           <g id="f5tm7c2" class="flag">
                              <use xlink:href="#E240-1le16on" x="8132" y="1265" height="720px" width="720px" />
                           </g>
                        </g>
                     </g>
                  </g>
               </g>
               <g id="b8mzyeb" class="barLine">
                  <path d="M8438 1085 L8438 1805" stroke="currentColor" stroke-width="27" />
               </g>
            </g>
            <g id="m1ggbz7" class="measure">
               <g id="s161jaj" class="staff">
                  <path d="M8451 1085 L11206 1085" stroke="currentColor" stroke-width="13" />
                  <path d="M8451 1265 L11206 1265" stroke="currentColor" stroke-width="13" />
                  <path d="M8451 1445 L11206 1445" stroke="currentColor" stroke-width="13" />
                  <path d="M8451 1625 L11206 1625" stroke="currentColor" stroke-width="13" />
                  <path d="M8451 1805 L11206 1805" stroke="currentColor" stroke-width="13" />
                  <g id="lurcjp8" class="layer">
                     <g id="nhrn6ah" class="note">
                        <g class="notehead">
                           <use xlink:href="#E0A4-1le16on" x="8633" y="1625" height="720px" width="720px" />
                        </g>
                        <g id="s1ov760k" class="stem">
                           <rect x="8841" y="995" height="602" width="18" />
                        </g>
                     </g>
                     <g id="nr2zddh" class="note">
                        <g class="notehead">
                           <use xlink:href="#E0A4-1le16on" x="9404" y="1535" height="720px" width="720px" />
                        </g>
                        <g id="sni8elq" class="stem">
                           <rect x="9612" y="905" height="602" width="18" />
                           <g id="fpsg2q0" class="flag">
                              <use xlink:href="#E240-1le16on" x="9612" y="905" height="720px" width="720px" />
                           </g>
                        </g>
                     </g>
                     <g id="n1b86oxy" class="note">
                        <g class="notehead">
                           <use xlink:href="#E0A4-1le16on" x="9907" y="1445" height="720px" width="720px" />
                        </g>
                        <g id="s1cn44hi" class="stem">
                           <rect x="9907" y="1473" height="572" width="18" />
                        </g>
                     </g>
                     <g id="nkpq574" class="note">
                        <g class="notehead">
                           <use xlink:href="#E0A4-1le16on" x="10679" y="1625" height="720px" width="720px" />
                        </g>
                        <g id="s6lrn6g" class="stem">
                           <rect x="10887" y="995" height="602" width="18" />
                           <g id="f14shzxr" class="flag">
                              <use xlink:href="#E240-1le16on" x="10887" y="995" height="720px" width="720px" />
                           </g>
                        </g>
                     </g>
                  </g>
               </g>
               <g id="bkiqs9w" class="barLine">
                  <path d="M11193 1085 L11193 1805" stroke="currentColor" stroke-width="27" />
               </g>
            </g>
            <g id="m1req128" class="measure">
               <g id="s2inlwp" class="staff">
                  <path d="M11206 1085 L14259 1085" stroke="currentColor" stroke-width="13" />
                  <path d="M11206 1265 L14259 1265" stroke="currentColor" stroke-width="13" />
                  <path d="M11206 1445 L14259 1445" stroke="currentColor" stroke-width="13" />
                  <path d="M11206 1625 L14259 1625" stroke="currentColor" stroke-width="13" />
                  <path d="M11206 1805 L14259 1805" stroke="currentColor" stroke-width="13" />
                  <g id="l1bhy4bs" class="layer">
                     <g id="bdivp99" class="beam">
                        <polygon points="11596,860 12620,860 12620,950 11596,950" />
                        <g id="ndpyta3" class="note">
                           <g class="notehead">
                              <use xlink:href="#E0A4-1le16on" x="11388" y="1535" height="720px" width="720px" />
                           </g>
                           <g id="srxknzq" class="stem">
                              <rect x="11596" y="878" height="629" width="18" />
                           </g>
                        </g>
                        <g id="n10m4kdg" class="note">
                           <g class="notehead">
                              <use xlink:href="#E0A4-1le16on" x="11891" y="1445" height="720px" width="720px" />
                           </g>
                           <g id="s17y8t5d" class="stem">
                              <rect x="12099" y="878" height="539" width="18" />
                           </g>
                        </g>
                        <g id="n8upiqa" class="note">
                           <g class="notehead">
                              <use xlink:href="#E0A4-1le16on" x="12394" y="1535" height="720px" width="720px" />
                           </g>
                           <g id="s1j3tx2u" class="stem">
                              <rect x="12602" y="878" height="629" width="18" />
                           </g>
                        </g>
                     </g>
                     <g id="nhklph1" class="note">
                        <g class="notehead">
                           <use xlink:href="#E0A4-1le16on" x="12897" y="1625" height="720px" width="720px" />
                        </g>
                        <g id="dk7kzi3" class="dots">
                           <ellipse cx="13213" cy="1535" rx="36" ry="36" />
                        </g>
                        <g id="sjf5lp0" class="stem">
                           <rect x="13105" y="995" height="602" width="18" />
                        </g>
                     </g>
                  </g>
               </g>
               <g id="b194rper" class="barLine">
                  <path d="M13881 1085 L13881 1805" stroke="currentColor" stroke-width="27" />
                  <path d="M14011 1085 L14011 1805" stroke="currentColor" stroke-width="90" />
                  <path d="M14142 1085 L14142 1805" stroke="currentColor" stroke-width="27" />
                  <use xlink:href="#E044-1le16on" x="14187" y="1355" height="720px" width="720px" />
                  <use xlink:href="#E044-1le16on" x="14187" y="1535" height="720px" width="720px" />
                  <use xlink:href="#E044-1le16on" x="13764" y="1355" height="720px" width="720px" />
                  <use xlink:href="#E044-1le16on" x="13764" y="1535" height="720px" width="720px" />
               </g>
            </g>
            <g id="m18ilnoc" class="measure">
               <g id="s136egnp" class="staff">
                  <path d="M14259 1085 L17014 1085" stroke="currentColor" stroke-width="13" />
                  <path d="M14259 1265 L17014 1265" stroke="currentColor" stroke-width="13" />
                  <path d="M14259 1445 L17014 1445" stroke="currentColor" stroke-width="13" />
                  <path d="M14259 1625 L17014 1625" stroke="currentColor" stroke-width="13" />
                  <path d="M14259 1805 L17014 1805" stroke="currentColor" stroke-width="13" />
                  <g id="l13saqvd" class="layer">
                     <g id="nyhb51w" class="note">
                        <g class="notehead">
                           <use xlink:href="#E0A4-1le16on" x="14441" y="1625" height="720px" width="720px" />
                        </g>
                        <g id="sra76du" class="stem">
                           <rect x="14649" y="995" height="602" width="18" />
                        </g>
                     </g>
                     <g id="n5awrc1" class="note">
                        <g class="notehead">
                           <use xlink:href="#E0A4-1le16on" x="15212" y="1535" height="720px" width="720px" />
                        </g>
                        <g id="s1py707a" class="stem">
                           <rect x="15420" y="905" height="602" width="18" />
                           <g id="f1o3ppqb" class="flag">
                              <use xlink:href="#E240-1le16on" x="15420" y="905" height="720px" width="720px" />
                           </g>
                        </g>
                     </g>
                     <g id="n6jw7ff" class="note">
                        <g class="notehead">
                           <use xlink:href="#E0A4-1le16on" x="15715" y="1625" height="720px" width="720px" />
                        </g>
                        <g id="skbkpfp" class="stem">
                           <rect x="15923" y="995" height="602" width="18" />
                        </g>
                     </g>
                     <g id="nw75evq" class="note">
                        <g class="notehead">
                           <use xlink:href="#E0A4-1le16on" x="16487" y="1895" height="720px" width="720px" />
                        </g>
                        <g id="sh78v1c" class="stem">
                           <rect x="16695" y="1265" height="602" width="18" />
                           <g id="fde8clr" class="flag">
                              <use xlink:href="#E240-1le16on" x="16695" y="1265" height="720px" width="720px" />
                           </g>
                        </g>
                     </g>
                  </g>
               </g>
               <g id="b1vzsq4y" class="barLine">
                  <path d="M17001 1085 L17001 1805" stroke="currentColor" stroke-width="27" />
               </g>
            </g>
            <g id="mu2g8uz" class="measure">
               <g id="s110nj3d" class="staff">
                  <path d="M17014 1085 L20004 1085" stroke="currentColor" stroke-width="13" />
                  <path d="M17014 1265 L20004 1265" stroke="currentColor" stroke-width="13" />
                  <path d="M17014 1445 L20004 1445" stroke="currentColor" stroke-width="13" />
                  <path d="M17014 1625 L20004 1625" stroke="currentColor" stroke-width="13" />
                  <path d="M17014 1805 L20004 1805" stroke="currentColor" stroke-width="13" />
                  <g id="l1uec6yi" class="layer">
                     <g id="bikv22l" class="beam">
                        <polygon points="17404,1175 18428,1085 18428,1175 17404,1265" />
                        <g id="ni26bof" class="note">
                           <g class="notehead">
                              <use xlink:href="#E0A4-1le16on" x="17196" y="1805" height="720px" width="720px" />
                           </g>
                           <g id="sw1n9ej" class="stem">
                              <rect x="17404" y="1193" height="584" width="18" />
                           </g>
                        </g>
                        <g id="n13ans1r" class="note">
                           <g class="notehead">
                              <use xlink:href="#E0A4-1le16on" x="17699" y="1805" height="720px" width="720px" />
                           </g>
                           <g id="sbe3pcl" class="stem">
                              <rect x="17907" y="1148" height="629" width="18" />
                           </g>
                        </g>
                        <g id="n11ml52a" class="note">
                           <g class="notehead">
                              <use xlink:href="#E0A4-1le16on" x="18202" y="1715" height="720px" width="720px" />
                           </g>
                           <g id="susqj31" class="stem">
                              <rect x="18410" y="1103" height="584" width="18" />
                           </g>
                           <g id="a71i9fj" class="accid" />
                        </g>
                     </g>
                     <g id="n10y2g7o" class="note">
                        <g class="notehead">
                           <use xlink:href="#E0A4-1le16on" x="18705" y="1625" height="720px" width="720px" />
                        </g>
                        <g id="sdi8okd" class="stem">
                           <rect x="18913" y="995" height="602" width="18" />
                        </g>
                     </g>
                     <g id="n1axx0o6" class="note">
                        <g class="notehead">
                           <use xlink:href="#E0A4-1le16on" x="19477" y="1895" height="720px" width="720px" />
                        </g>
                        <g id="somrcb1" class="stem">
                           <rect x="19685" y="1265" height="602" width="18" />
                           <g id="f1xcd7md" class="flag">
                              <use xlink:href="#E240-1le16on" x="19685" y="1265" height="720px" width="720px" />
                           </g>
                        </g>
                     </g>
                  </g>
               </g>
               <g id="b1n7mo0n" class="barLine">
                  <path d="M19991 1085 L19991 1805" stroke="currentColor" stroke-width="27" />
               </g>
            </g>
         </g>
         <g id="s13rtq98" class="system">
            <g id="lm026h" class="labelAbbr">
               <text x="914" y="3884" text-anchor="end" font-size="0px">
                  <tspan id="t1ew3yaj" class="text">
                     <tspan font-size="405px" class="text">Pno.</tspan>
                  </tspan>
               </text>
            </g>
            <g id="m1tu82h6" class="measure">
               <g id="monhq7k" class="mNum autogenerated">
                  <text x="1094" y="3191" text-anchor="middle" font-size="0px">
                     <tspan id="tpjwnpy" class="text">
                        <tspan font-size="324px" class="text">7</tspan>
                     </tspan>
                  </text>
               </g>
               <g id="st2269e" class="staff">
                  <path d="M1094 3434 L4792 3434" stroke="currentColor" stroke-width="13" />
                  <path d="M1094 3614 L4792 3614" stroke="currentColor" stroke-width="13" />
                  <path d="M1094 3794 L4792 3794" stroke="currentColor" stroke-width="13" />
                  <path d="M1094 3974 L4792 3974" stroke="currentColor" stroke-width="13" />
                  <path d="M1094 4154 L4792 4154" stroke="currentColor" stroke-width="13" />
                  <g id="c1j3smk2" class="clef">
                     <use xlink:href="#E050-1le16on" x="1184" y="3974" height="720px" width="720px" />
                  </g>
                  <g id="k1ov431" class="keySig">
                     <g id="kx4ohcd" class="keyAccid">
                        <use xlink:href="#E262-1le16on" x="1829" y="3434" height="720px" width="720px" />
                     </g>
                  </g>
                  <g id="l1rjcu8p" class="layer">
                     <g id="n1g6lb60" class="note">
                        <g class="notehead">
                           <use xlink:href="#E0A4-1le16on" x="2240" y="3974" height="720px" width="720px" />
                        </g>
                        <g id="slix9o7" class="stem">
                           <rect x="2448" y="3344" height="602" width="18" />
                        </g>
                     </g>
                     <g id="n1bs3lok" class="note">
                        <g class="notehead">
                           <use xlink:href="#E0A4-1le16on" x="3005" y="3884" height="720px" width="720px" />
                        </g>
                        <g id="s1wt5q4b" class="stem">
                           <rect x="3213" y="3254" height="602" width="18" />
                           <g id="ft4qnac" class="flag">
                              <use xlink:href="#E240-1le16on" x="3213" y="3254" height="720px" width="720px" />
                           </g>
                        </g>
                     </g>
                     <g id="n13qp6mg" class="note">
                        <g class="notehead">
                           <use xlink:href="#E0A4-1le16on" x="3504" y="3974" height="720px" width="720px" />
                        </g>
                        <g id="s1ec4s02" class="stem">
                           <rect x="3712" y="3344" height="602" width="18" />
                        </g>
                     </g>
                     <g id="n18lik2z" class="note">
                        <g class="notehead">
                           <use xlink:href="#E0A4-1le16on" x="4269" y="4244" height="720px" width="720px" />
                        </g>
                        <g id="s8qxr2b" class="stem">
                           <rect x="4477" y="3614" height="602" width="18" />
                           <g id="f1hmxlr1" class="flag">
                              <use xlink:href="#E240-1le16on" x="4477" y="3614" height="720px" width="720px" />
                           </g>
                        </g>
                     </g>
                  </g>
               </g>
               <g id="b13nt93a" class="barLine">
                  <path d="M4779 3434 L4779 4154" stroke="currentColor" stroke-width="27" />
               </g>
            </g>
            <g id="s16a27zx" class="sb" />
            <g id="m132ue7y" class="measure">
               <g id="s1ej4qtg" class="staff">
                  <path d="M4792 3434 L7620 3434" stroke="currentColor" stroke-width="13" />
                  <path d="M4792 3614 L7620 3614" stroke="currentColor" stroke-width="13" />
                  <path d="M4792 3794 L7620 3794" stroke="currentColor" stroke-width="13" />
                  <path d="M4792 3974 L7620 3974" stroke="currentColor" stroke-width="13" />
                  <path d="M4792 4154 L7620 4154" stroke="currentColor" stroke-width="13" />
                  <g id="l15z04dw" class="layer">
                     <g id="b15mdgby" class="beam">
                        <polygon points="5180,3524 6196,3434 6196,3524 5180,3614" />
                        <g id="n1bvwy14" class="note">
                           <g class="notehead">
                              <use xlink:href="#E0A4-1le16on" x="4972" y="4154" height="720px" width="720px" />
                           </g>
                           <g id="spwi0n8" class="stem">
                              <rect x="5180" y="3542" height="584" width="18" />
                           </g>
                        </g>
                        <g id="n1b6w3jv" class="note">
                           <g class="notehead">
                              <use xlink:href="#E0A4-1le16on" x="5471" y="4154" height="720px" width="720px" />
                           </g>
                           <g id="s16npadb" class="stem">
                              <rect x="5679" y="3497" height="629" width="18" />
                           </g>
                        </g>
                        <g id="n159l7u9" class="note">
                           <g class="notehead">
                              <use xlink:href="#E0A4-1le16on" x="5970" y="4064" height="720px" width="720px" />
                           </g>
                           <g id="stpt2k7" class="stem">
                              <rect x="6178" y="3452" height="584" width="18" />
                           </g>
                           <g id="apa0lna" class="accid" />
                        </g>
                     </g>
                     <g id="n1ogb9dm" class="note">
                        <g class="notehead">
                           <use xlink:href="#E0A4-1le16on" x="6469" y="3974" height="720px" width="720px" />
                        </g>
                        <g id="dm7ffpi" class="dots">
                           <ellipse cx="6785" cy="3884" rx="36" ry="36" />
                        </g>
                        <g id="s1vdsqqj" class="stem">
                           <rect x="6677" y="3344" height="602" width="18" />
                        </g>
                     </g>
                  </g>
               </g>
               <g id="b1moxmzb" class="barLine">
                  <path d="M7445 3434 L7445 4154" stroke="currentColor" stroke-width="27" />
                  <path d="M7575 3434 L7575 4154" stroke="currentColor" stroke-width="90" />
               </g>
            </g>
            <g id="shsmcl8" class="systemMilestoneEnd s1t80m7v" />
         </g>
         <g id="p104ptl0" class="pageMilestoneEnd s1mfob3t" />
         <g id="p1senkrh" class="pageMilestoneEnd m1fpexm6" />
         <g id="p1klnhpd" class="pgHead">
            <text x="0" y="0" font-size="0px">
               <tspan id="rbjgp3v" class="rend" x="10000" y="277" text-anchor="middle">
                  <tspan id="t1lbwfe6" class="text">
                     <tspan font-size="405px" class="text">Air n 34</tspan>
                  </tspan>
               </tspan>
            </text>
         </g>
         <g id="pmh25yt" class="pgFoot autogenerated">
            <g id="fox9fro" class="fig">
               <g id="s10b7f86" class="svg" transform="translate(7750, 28099) scale(10, 10)">
                  <g>
                     <path fill="#00000" d="M 17.11278,49.26451 V 10.367554 h 12.696511 c 3.288815,7.336676 6.71267,14.610456 10.127281,21.888976 3.419998,-7.484684 6.255515,-14.204887 9.58887,-21.909915 2.436207,0.103726 4.316952,0.08453 6.484294,-0.05808 V 49.264423 H 50.274275 C 50.145222,38.35639 50.016136,27.448368 49.887066,16.540329 45.003488,27.315459 39.967448,38.433564 35.083854,49.208695 34.678996,49.343717 34.426583,49.135619 34.021726,49.270644 29.46588,39.330716 24.910049,29.390805 20.354201,19.450876 20.224341,29.388756 20.09461,39.326619 19.964815,49.264497 H 17.11278 Z M 36.754144,39.324695 C 32.721221,30.512695 28.6883,21.700679 24.655394,12.888662 22.530527,12.750737 22.656775,12.71031 20.714356,12.813974 v 0.966497 c 4.612938,9.99784 9.609439,20.748709 13.87298,30.081745 0.722248,-1.512523 1.444528,-3.025014 2.166808,-4.537521 z m 25.738417,9.939815 c 0,-12.965651 0,-25.931305 0,-38.896956 10.084388,0 20.168791,0 30.253178,0 0,0.960416 0,1.920849 0,2.881265 -6.482825,0 -12.965652,0 -19.448478,0 0,4.802097 0,9.604178 0,14.406277 5.52241,0 11.044819,0 16.567229,0 0,0.960415 0,1.920832 0,2.881248 -5.52241,0 -11.044819,0 -16.567229,0 0,5.282306 0,10.564611 0,15.846917 6.963035,0 13.926068,0 20.889103,0 0,0.960416 0,1.920832 0,2.881249 -10.564597,0 -21.129207,0 -31.693803,0 z m 4.321874,-2.160937 c 0,-11.765131 0,-23.530263 0,-35.295394 -0.720312,0 -1.440625,0 -2.160937,0 0,11.765131 0,23.530263 0,35.295394 0.720312,0 1.440625,0 2.160937,0 z m 32.41413,2.160937 c 0,-12.965651 0,-25.931305 0,-38.896956 2.401045,0 4.802095,0 7.203135,0 0,12.965651 0,25.931305 0,38.896956 -2.40104,0 -4.80209,0 -7.203135,0 z m 2.881265,-2.160937 c 0,-11.765131 0,-23.530263 0,-35.295394 -0.72031,0 -1.44064,0 -2.160953,0 0,11.765131 0,23.530263 0,35.295394 0.720313,0 1.440643,0 2.160953,0 z" />
                     <path fill="#00000" d="m 346.3,6.7 c -3.1,0.5 -4.9,4.4 -2.7,6.8 1.2,1.4 2.7,2.4 4.1,3.5 -2.4,5.3 -7.7,8.3 -11.9,12.1 -3.7,2.8 -7,6.2 -9.7,9.9 -2.2,-0.8 -0.3,-6.8 -0.6,-9.5 0.1,-3.1 0.7,-6.4 2.9,-8.7 1.3,-1.9 3,-3.5 4.5,-5.2 1.2,-3.4 -3.2,-4.9 -5.8,-4.6 -7.3,-0.5 -14.6,2 -20,6.8 -5,4.6 -10,10.1 -11.5,17 -0.9,3.5 -0.2,7.5 2.8,9.9 2.5,2.8 7.4,2.9 9.8,-0.2 1.7,-2.3 3.2,-4.8 3.8,-7.6 -0.1,-2.6 -4.4,-2.3 -4.3,0.2 1.2,2.4 -0.9,4.7 -2.7,6.2 -1.7,0.9 -4.7,0.7 -4.8,-1.7 -1,-5.8 2.1,-11.3 5.2,-16.1 4,-5.8 9.8,-11.2 17.2,-11.8 1.6,0 8.1,-1.2 6.8,1.4 -2.8,2.8 -5.6,6.1 -6,10.3 -1.6,7.7 0.1,15.7 -2.3,23.2 -1.1,3.9 2,2.6 2.5,0.2 3.3,-7.4 8.9,-13.4 15.1,-18.5 4.2,-3.9 9.5,-7.1 11.9,-12.6 1.3,-3.6 1.2,-9 -2.7,-10.9 -0.6,-0.2 -1.2,-0.3 -1.8,-0.3 z m 66,14.5 c -2,0.8 -1.8,4.9 0.8,4.4 3.4,0.4 2.9,-6.2 -0.8,-4.4 z m 0.6,7.3 c -1.3,0.5 -7.6,0.5 -5.4,2.2 4,-0.3 0.7,4.5 0.6,6.7 -0.4,2.9 -2.4,5.9 -1.2,8.8 2.7,1.7 5.6,-0.8 6.8,-3.2 1.6,-1.4 -0.5,-3 -1.2,-0.9 -0.4,0.8 -2.4,3.5 -2.6,1.8 1.1,-5 2.7,-9.9 3.9,-14.9 l -0.1,-0.5 h -0.9 z m -65.1,0.2 c -6.5,1.6 -10.5,9.5 -8.2,15.7 2.1,3.4 7.4,2.9 10.1,0.4 2,-0.2 3.6,-5.3 1,-3.4 -1.4,2 -4,4.2 -6.5,2.8 -2.2,-1.9 -1.9,-5.7 1.7,-5.3 3.1,-0.9 6.9,-2.1 8.1,-5.5 0.9,-2.7 -1.6,-5.2 -4.3,-4.8 h -1.1 -0.7 z m 13.6,0 c -2.2,0 -8.5,1.8 -2.9,2.3 0.9,1.9 -1,4.9 -1.1,7.2 -0.5,2.9 -1.4,5.7 -1.7,8.7 3.7,0.7 3.8,-2.6 4.4,-5.3 0.9,-3.3 1.6,-7 4.1,-9.5 2.4,1.6 6.8,-0.7 3.7,-3.4 -2.9,-0.5 -4.8,2.4 -6.2,4.3 0,-1.2 2.4,-5 -0.2,-4.3 z m 15.8,0 c -6.4,1.3 -9.6,9.1 -7.7,14.9 1.9,4 7.7,3.9 11,1.7 4.1,-3 6,-8.9 4.4,-13.7 -1.3,-3 -4.8,-3.2 -7.6,-3 z m 17,0 c -2.3,0 -8.8,1.9 -3,2.4 0.4,2.5 -1,5.7 -1.4,8.4 -0.7,2.4 -1.8,7.5 2.1,7.2 3.8,-0.1 6.5,-3.5 8.5,-6.3 2,-3.2 4.5,-7 3.3,-10.9 -3.7,-3 -3.6,2.6 -3.1,5.1 -0.7,3.8 -2.7,7.9 -6.2,9.8 -3.6,0.6 -1,-4.3 -0.8,-6.1 0.6,-3.2 1.6,-6.3 1.9,-9.5 -0.4,0 -0.8,0 -1.1,0 z m 30.6,0 c -6.3,1.2 -9.5,8.9 -7.8,14.7 1.5,4 7.2,4.2 10.5,2.4 4.6,-2.8 6.6,-9.3 4.8,-14.3 -1.4,-2.8 -4.8,-3 -7.5,-2.8 z m -75.4,1.7 c 2.1,1.5 0.2,4.7 -1.6,5.7 -1.1,0.4 -5.5,3.4 -4.6,0.7 0.8,-2.7 2.2,-6.2 5.3,-6.6 l 0.9,0.1 z m 30.8,0 c 2.6,1.5 1.3,5.2 0.8,7.6 -0.8,2.7 -1.9,5.9 -4.7,7.1 -5.1,0.8 -4,-5.8 -2.8,-8.8 1,-2.8 3,-6.8 6.7,-5.8 z m 47.1,-0.1 c 2.9,0.7 2,4.7 1.5,6.8 -0.7,3 -1.8,6.7 -5,8 -4.7,0.8 -4,-5.1 -3,-7.9 0.9,-3 2.7,-7.3 6.5,-6.8 z m -88.1,5.9 c -0.3,1.3 0.9,-0.6 0,0 z m -1.1,2.4 c -0.2,0.5 0.5,-0.1 0,0 z m -1.3,4.5 c -0.3,1.3 0.8,-0.2 0,0 z" />
                     <text y="41" x="201" fill="#00000" style="font-style:italic;font-weight:normal;font-size:30px;line-height:125%;font-family:Times;text-anchor:middle" xml:space="preserve">engraved with</text>
                  </g>
               </g>
            </g>
         </g>
      </g>
   </svg>
</svg>
