<?xml version="1.0" encoding="UTF-8" standalone="no"?>
<svg width="2100px" height="2970px" version="1.1" xmlns="http://www.w3.org/2000/svg" xmlns:xlink="http://www.w3.org/1999/xlink" xmlns:mei="http://www.music-encoding.org/ns/mei" overflow="visible">
   <desc>Engraved by Verovio 3.13.1</desc>
   <defs>
      <symbol id="E260-1suv244" viewBox="0 0 1000 1000" overflow="inherit">
         <path transform="scale(1,-1)" d="M20 110c32 16 54 27 93 27c26 0 35 -3 54 -13c13 -7 24 -20 27 -38l4 -25c0 -28 -16 -57 -45 -89c-23 -25 -39 -44 -65 -68l-88 -79v644h20v-359zM90 106c-32 0 -48 -10 -70 -29v-194c31 31 54 59 71 84c21 32 32 59 32 84c0 9 1 16 1 20c0 14 -3 21 -11 30l-8 3z" />
      </symbol>
      <symbol id="E261-1suv244" viewBox="0 0 1000 1000" overflow="inherit">
         <path transform="scale(1,-1)" d="M0 -188v539h18v-191l139 22v-533h-17v186zM18 -100l122 17v176l-122 -19v-174z" />
      </symbol>
      <symbol id="E044-1suv244" viewBox="0 0 1000 1000" overflow="inherit">
         <path transform="scale(1,-1)" d="M0 0c0 28 22 50 50 50s50 -22 50 -50s-22 -50 -50 -50s-50 22 -50 50z" />
      </symbol>
      <symbol id="E050-1suv244" viewBox="0 0 1000 1000" overflow="inherit">
         <path transform="scale(1,-1)" d="M441 -245c-23 -4 -48 -6 -76 -6c-59 0 -102 7 -130 20c-88 42 -150 93 -187 154c-26 44 -43 103 -48 176c0 6 -1 13 -1 19c0 54 15 111 45 170c29 57 65 106 110 148s96 85 153 127c-3 16 -8 46 -13 92c-4 43 -5 73 -5 89c0 117 16 172 69 257c34 54 64 82 89 82 c21 0 43 -30 69 -92s39 -115 41 -159v-15c0 -109 -21 -162 -67 -241c-13 -20 -63 -90 -98 -118c-13 -9 -25 -19 -37 -29l31 -181c8 1 18 2 28 2c58 0 102 -12 133 -35c59 -43 92 -104 98 -184c1 -7 1 -15 1 -22c0 -123 -87 -209 -181 -248c8 -57 17 -110 25 -162 c5 -31 6 -58 6 -80c0 -30 -5 -53 -14 -70c-35 -64 -88 -99 -158 -103c-5 0 -11 -1 -16 -1c-37 0 -72 10 -108 27c-50 24 -77 59 -80 105v11c0 29 7 55 20 76c18 28 45 42 79 44h6c49 0 93 -42 97 -87v-9c0 -51 -34 -86 -105 -106c17 -24 51 -36 102 -36c62 0 116 43 140 85 c9 16 13 41 13 74c0 20 -1 42 -5 67c-8 53 -18 106 -26 159zM461 939c-95 0 -135 -175 -135 -286c0 -24 2 -48 5 -71c50 39 92 82 127 128c40 53 60 100 60 140v8c-4 53 -22 81 -55 81h-2zM406 119l54 -326c73 25 110 78 110 161c0 7 0 15 -1 23c-7 95 -57 142 -151 142h-12 zM382 117c-72 -2 -128 -47 -128 -120v-7c2 -46 43 -99 75 -115c-3 -2 -7 -5 -10 -10c-70 33 -116 88 -123 172v11c0 68 44 126 88 159c23 17 49 29 78 36l-29 170c-21 -13 -52 -37 -92 -73c-50 -44 -86 -84 -109 -119c-45 -69 -67 -130 -67 -182v-13c5 -68 35 -127 93 -176 s125 -73 203 -73c25 0 50 3 75 9c-19 111 -36 221 -54 331z" />
      </symbol>
      <symbol id="E082-1suv244" viewBox="0 0 1000 1000" overflow="inherit">
         <path transform="scale(1,-1)" d="M124 -185c-18 0 -55 -14 -65 -65h-36l-3 30c0 25 6 45 18 63c11 19 22 30 39 43l121 82l37 29c15 11 27 29 38 54c12 24 18 47 18 70c0 40 -19 88 -94 88c-25 0 -32 0 -50 -8c-14 -5 -23 -12 -26 -22c3 -9 7 -15 10 -18l24 -17c12 -7 17 -11 27 -21c5 -7 7 -16 7 -27 c0 -12 0 -57 -79 -74c-30 0 -76 26 -76 94c0 66 81 135 197 135c72 0 181 -32 181 -150c0 -53 -32 -95 -113 -133l-91 -41c-26 -11 -45 -23 -57 -37l49 7c84 0 115 -41 148 -41c20 0 33 20 39 61h35c0 -152 -68 -168 -114 -168c-17 0 -65 0 -79 7h10l-28 17 c-49 37 -69 40 -87 42z" />
      </symbol>
      <symbol id="E084-1suv244" viewBox="0 0 1000 1000" overflow="inherit">
         <path transform="scale(1,-1)" d="M20 -78c84 97 114 180 134 329h170c-13 -32 -82 -132 -99 -151l-84 -97c-33 -36 -59 -63 -80 -81h162v102l127 123v-225h57v-39h-57v-34c0 -43 19 -65 57 -65v-34h-244v36c48 0 60 26 60 70v27h-203v39z" />
      </symbol>
      <symbol id="E0A4-1suv244" viewBox="0 0 1000 1000" overflow="inherit">
         <path transform="scale(1,-1)" d="M0 -39c0 68 73 172 200 172c66 0 114 -37 114 -95c0 -84 -106 -171 -218 -171c-64 0 -96 30 -96 94z" />
      </symbol>
   </defs>
   <style type="text/css">g.page-margin{font-family:Times;} g.ending, g.fing, g.reh, g.tempo{font-weight:bold;} g.dir, g.dynam, g.mNum{font-style:italic;} g.label{font-weight:normal;}</style>
   <svg class="definition-scale" color="black" viewBox="0 0 21000 29700">
      <g class="page-margin" transform="translate(500, 500)">
         <g id="m82ilne" class="mdiv pageMilestone" />
         <g id="s1iwmtle" class="score pageMilestone" />
         <g id="spk76rk" class="system">
            <g id="l15fxxy" class="label">
               <text x="1105" y="1537" text-anchor="end" font-size="0px">
                  <tspan id="t5r1w5p" class="text">
                     <tspan font-size="405px" class="text">Piano</tspan>
                  </tspan>
               </text>
            </g>
            <g id="s1u66wre" class="section systemMilestone" />
            <g id="p1189i5i" class="pb" />
            <g id="meb2cxt" class="measure">
               <g id="sn0zdwb" class="staff">
                  <path d="M1285 1087 L5131 1087" stroke="currentColor" stroke-width="13" />
                  <path d="M1285 1267 L5131 1267" stroke="currentColor" stroke-width="13" />
                  <path d="M1285 1447 L5131 1447" stroke="currentColor" stroke-width="13" />
                  <path d="M1285 1627 L5131 1627" stroke="currentColor" stroke-width="13" />
                  <path d="M1285 1807 L5131 1807" stroke="currentColor" stroke-width="13" />
                  <g id="cp5r6ys" class="clef">
                     <use xlink:href="#E050-1suv244" x="1375" y="1627" height="720px" width="720px" />
                  </g>
                  <g id="kq0fret" class="keySig">
                     <g id="k1egna0t" class="keyAccid">
                        <use xlink:href="#E260-1suv244" x="2020" y="1447" height="720px" width="720px" />
                     </g>
                     <g id="k1ij322s" class="keyAccid">
                        <use xlink:href="#E260-1suv244" x="2200" y="1177" height="720px" width="720px" />
                     </g>
                  </g>
                  <g id="mnyry8n" class="meterSig">
                     <use xlink:href="#E082-1suv244" x="2508" y="1267" height="720px" width="720px" />
                     <use xlink:href="#E084-1suv244" x="2513" y="1627" height="720px" width="720px" />
                  </g>
                  <g id="llh9ckd" class="layer">
                     <g id="bp1djul" class="beam">
                        <polygon points="3289,1042 3816,1042 3816,1132 3289,1132" />
                        <g id="ncovp6k" class="note">
                           <g class="notehead">
                              <use xlink:href="#E0A4-1suv244" x="3081" y="1627" height="720px" width="720px" />
                           </g>
                           <g id="s1upr2dm" class="stem">
                              <rect x="3289" y="1060" height="539" width="18" />
                           </g>
                        </g>
                        <g id="nr6789y" class="note">
                           <g class="notehead">
                              <use xlink:href="#E0A4-1suv244" x="3590" y="1627" height="720px" width="720px" />
                           </g>
                           <g id="s50jwb2" class="stem">
                              <rect x="3798" y="1060" height="539" width="18" />
                           </g>
                        </g>
                     </g>
                     <g id="bz5fk8q" class="beam">
                        <polygon points="4099,1852 4626,1852 4626,1762 4099,1762" />
                        <g id="n1ucvlhz" class="note">
                           <g class="notehead">
                              <use xlink:href="#E0A4-1suv244" x="4099" y="1267" height="720px" width="720px" />
                           </g>
                           <g id="s3k232" class="stem">
                              <rect x="4099" y="1295" height="539" width="18" />
                           </g>
                        </g>
                        <g id="n1bitsif" class="note">
                           <g class="notehead">
                              <use xlink:href="#E0A4-1suv244" x="4608" y="1267" height="720px" width="720px" />
                           </g>
                           <g id="s1bho6ix" class="stem">
                              <rect x="4608" y="1295" height="539" width="18" />
                           </g>
                        </g>
                     </g>
                  </g>
               </g>
               <g id="btrk6d6" class="barLine">
                  <path d="M5118 1087 L5118 1807" stroke="currentColor" stroke-width="27" />
               </g>
            </g>
            <g id="m12aha2w" class="measure">
               <g id="s61tjkw" class="staff">
                  <path d="M5131 1087 L7123 1087" stroke="currentColor" stroke-width="13" />
                  <path d="M5131 1267 L7123 1267" stroke="currentColor" stroke-width="13" />
                  <path d="M5131 1447 L7123 1447" stroke="currentColor" stroke-width="13" />
                  <path d="M5131 1627 L7123 1627" stroke="currentColor" stroke-width="13" />
                  <path d="M5131 1807 L7123 1807" stroke="currentColor" stroke-width="13" />
                  <g id="l1nuq8m" class="layer">
                     <g id="b1iox2v1" class="beam">
                        <polygon points="5311,2032 5838,1987 5838,1897 5311,1942" />
                        <g id="n3hj5ut" class="note">
                           <g class="notehead">
                              <use xlink:href="#E0A4-1suv244" x="5311" y="1447" height="720px" width="720px" />
                           </g>
                           <g id="sqsyqqb" class="stem">
                              <rect x="5311" y="1475" height="539" width="18" />
                           </g>
                           <g id="a1dw5czp" class="accid" />
                        </g>
                        <g id="n1rfdymp" class="note">
                           <g class="notehead">
                              <use xlink:href="#E0A4-1suv244" x="5820" y="1357" height="720px" width="720px" />
                           </g>
                           <g id="sgvyasv" class="stem">
                              <rect x="5820" y="1385" height="584" width="18" />
                           </g>
                        </g>
                     </g>
                     <g id="n1ngwedo" class="note">
                        <g class="notehead">
                           <use xlink:href="#E0A4-1suv244" x="6329" y="1267" height="720px" width="720px" />
                        </g>
                        <g id="s1835l2b" class="stem">
                           <rect x="6329" y="1295" height="602" width="18" />
                        </g>
                     </g>
                  </g>
               </g>
               <g id="bbl5k5v" class="barLine">
                  <path d="M7110 1087 L7110 1807" stroke="currentColor" stroke-width="27" />
               </g>
            </g>
            <g id="m7vm7iu" class="measure">
               <g id="s1cwhfe6" class="staff">
                  <path d="M7123 1087 L9353 1087" stroke="currentColor" stroke-width="13" />
                  <path d="M7123 1267 L9353 1267" stroke="currentColor" stroke-width="13" />
                  <path d="M7123 1447 L9353 1447" stroke="currentColor" stroke-width="13" />
                  <path d="M7123 1627 L9353 1627" stroke="currentColor" stroke-width="13" />
                  <path d="M7123 1807 L9353 1807" stroke="currentColor" stroke-width="13" />
                  <g id="l1j3x7o" class="layer">
                     <g id="b8pyzvi" class="beam">
                        <polygon points="7303,1987 7830,2032 7830,1942 7303,1897" />
                        <g id="n1dofd5z" class="note">
                           <g class="notehead">
                              <use xlink:href="#E0A4-1suv244" x="7303" y="1357" height="720px" width="720px" />
                           </g>
                           <g id="s645ftt" class="stem">
                              <rect x="7303" y="1385" height="584" width="18" />
                           </g>
                        </g>
                        <g id="n1fmw59c" class="note">
                           <g class="notehead">
                              <use xlink:href="#E0A4-1suv244" x="7812" y="1447" height="720px" width="720px" />
                           </g>
                           <g id="s1otxt69" class="stem">
                              <rect x="7812" y="1475" height="539" width="18" />
                           </g>
                           <g id="a1lqjllm" class="accid" />
                        </g>
                     </g>
                     <g id="b4qrjyi" class="beam">
                        <polygon points="8321,1987 8848,1987 8848,1897 8321,1897" />
                        <g id="n1fog1b9" class="note">
                           <g class="notehead">
                              <use xlink:href="#E0A4-1suv244" x="8321" y="1357" height="720px" width="720px" />
                           </g>
                           <g id="srwwfay" class="stem">
                              <rect x="8321" y="1385" height="584" width="18" />
                           </g>
                        </g>
                        <g id="nzklweo" class="note">
                           <g class="notehead">
                              <use xlink:href="#E0A4-1suv244" x="8830" y="1357" height="720px" width="720px" />
                           </g>
                           <g id="s2l2u7k" class="stem">
                              <rect x="8830" y="1385" height="584" width="18" />
                           </g>
                        </g>
                     </g>
                  </g>
               </g>
               <g id="b1tgc7th" class="barLine">
                  <path d="M9340 1087 L9340 1807" stroke="currentColor" stroke-width="27" />
               </g>
            </g>
            <g id="mgfjz2z" class="measure">
               <g id="s1dj6zme" class="staff">
                  <path d="M9353 1087 L11710 1087" stroke="currentColor" stroke-width="13" />
                  <path d="M9353 1267 L11710 1267" stroke="currentColor" stroke-width="13" />
                  <path d="M9353 1447 L11710 1447" stroke="currentColor" stroke-width="13" />
                  <path d="M9353 1627 L11710 1627" stroke="currentColor" stroke-width="13" />
                  <path d="M9353 1807 L11710 1807" stroke="currentColor" stroke-width="13" />
                  <g id="l12ivyiw" class="layer">
                     <g id="b1ba7e5j" class="beam">
                        <polygon points="9741,862 10268,907 10268,997 9741,952" />
                        <g id="n17slw1s" class="note">
                           <g class="notehead">
                              <use xlink:href="#E0A4-1suv244" x="9533" y="1447" height="720px" width="720px" />
                           </g>
                           <g id="s1tvueeo" class="stem">
                              <rect x="9741" y="880" height="539" width="18" />
                           </g>
                           <g id="a1gowq8l" class="accid" />
                        </g>
                        <g id="ngod754" class="note">
                           <g class="notehead">
                              <use xlink:href="#E0A4-1suv244" x="10042" y="1537" height="720px" width="720px" />
                           </g>
                           <g id="sivtl1j" class="stem">
                              <rect x="10250" y="925" height="584" width="18" />
                           </g>
                        </g>
                     </g>
                     <g id="n1iocn5r" class="note">
                        <g class="notehead">
                           <use xlink:href="#E0A4-1suv244" x="10551" y="1627" height="720px" width="720px" />
                        </g>
                        <g id="sqxt7ke" class="stem">
                           <rect x="10759" y="997" height="602" width="18" />
                        </g>
                     </g>
                  </g>
               </g>
               <g id="b1q2v7g9" class="barLine">
                  <path d="M11332 1087 L11332 1807" stroke="currentColor" stroke-width="27" />
                  <path d="M11462 1087 L11462 1807" stroke="currentColor" stroke-width="90" />
                  <path d="M11593 1087 L11593 1807" stroke="currentColor" stroke-width="27" />
                  <use xlink:href="#E044-1suv244" x="11638" y="1357" height="720px" width="720px" />
                  <use xlink:href="#E044-1suv244" x="11638" y="1537" height="720px" width="720px" />
                  <use xlink:href="#E044-1suv244" x="11215" y="1357" height="720px" width="720px" />
                  <use xlink:href="#E044-1suv244" x="11215" y="1537" height="720px" width="720px" />
               </g>
            </g>
            <g id="mxzfkw2" class="measure">
               <g id="s1658wc9" class="staff">
                  <path d="M11710 1087 L13464 1087" stroke="currentColor" stroke-width="13" />
                  <path d="M11710 1267 L13464 1267" stroke="currentColor" stroke-width="13" />
                  <path d="M11710 1447 L13464 1447" stroke="currentColor" stroke-width="13" />
                  <path d="M11710 1627 L13464 1627" stroke="currentColor" stroke-width="13" />
                  <path d="M11710 1807 L13464 1807" stroke="currentColor" stroke-width="13" />
                  <g id="lnivnau" class="layer">
                     <g id="n10x8xc2" class="note">
                        <g class="notehead">
                           <use xlink:href="#E0A4-1suv244" x="11890" y="1627" height="720px" width="720px" />
                        </g>
                        <g id="s1nd1itc" class="stem">
                           <rect x="12098" y="997" height="602" width="18" />
                        </g>
                     </g>
                     <g id="nd6oo8c" class="note">
                        <g class="notehead">
                           <use xlink:href="#E0A4-1suv244" x="12670" y="1627" height="720px" width="720px" />
                        </g>
                        <g id="stqf4sn" class="stem">
                           <rect x="12878" y="997" height="602" width="18" />
                        </g>
                     </g>
                  </g>
               </g>
               <g id="bt29kv2" class="barLine">
                  <path d="M13451 1087 L13451 1807" stroke="currentColor" stroke-width="27" />
               </g>
            </g>
            <g id="m9769qs" class="measure">
               <g id="s14rjix3" class="staff">
                  <path d="M13464 1087 L15863 1087" stroke="currentColor" stroke-width="13" />
                  <path d="M13464 1267 L15863 1267" stroke="currentColor" stroke-width="13" />
                  <path d="M13464 1447 L15863 1447" stroke="currentColor" stroke-width="13" />
                  <path d="M13464 1627 L15863 1627" stroke="currentColor" stroke-width="13" />
                  <path d="M13464 1807 L15863 1807" stroke="currentColor" stroke-width="13" />
                  <g id="lg063v7" class="layer">
                     <g id="b1fsesrn" class="beam">
                        <polygon points="13852,1042 14718,1042 14718,1132 13852,1132" />
                        <polygon points="14370,1177 14718,1177 14718,1267 14370,1267" />
                        <g id="n1ioyvb5" class="note">
                           <g class="notehead">
                              <use xlink:href="#E0A4-1suv244" x="13644" y="1627" height="720px" width="720px" />
                           </g>
                           <g id="spc1hmz" class="stem">
                              <rect x="13852" y="1060" height="539" width="18" />
                           </g>
                        </g>
                        <g id="n1lgzphv" class="note">
                           <g class="notehead">
                              <use xlink:href="#E0A4-1suv244" x="14153" y="1627" height="720px" width="720px" />
                           </g>
                           <g id="s13o1skm" class="stem">
                              <rect x="14361" y="1060" height="539" width="18" />
                           </g>
                        </g>
                        <g id="n1j5vsxr" class="note">
                           <g class="notehead">
                              <use xlink:href="#E0A4-1suv244" x="14492" y="1627" height="720px" width="720px" />
                           </g>
                           <g id="s1lvrdol" class="stem">
                              <rect x="14700" y="1060" height="539" width="18" />
                           </g>
                        </g>
                     </g>
                     <g id="b1bxt23x" class="beam">
                        <polygon points="15039,907 15567,862 15567,952 15039,997" />
                        <g id="n18a8icm" class="note">
                           <g class="notehead">
                              <use xlink:href="#E0A4-1suv244" x="14831" y="1627" height="720px" width="720px" />
                           </g>
                           <g id="sfvahuk" class="stem">
                              <rect x="15039" y="925" height="674" width="18" />
                           </g>
                        </g>
                        <g id="ngz7kaq" class="note">
                           <g class="notehead">
                              <use xlink:href="#E0A4-1suv244" x="15341" y="1447" height="720px" width="720px" />
                           </g>
                           <g id="spagixm" class="stem">
                              <rect x="15549" y="880" height="539" width="18" />
                           </g>
                           <g id="akz3w0p" class="accid">
                              <use xlink:href="#E261-1suv244" x="15183" y="1447" height="720px" width="720px" />
                           </g>
                        </g>
                     </g>
                  </g>
               </g>
               <g id="b1u2whj4" class="barLine">
                  <path d="M15850 1087 L15850 1807" stroke="currentColor" stroke-width="27" />
               </g>
            </g>
            <g id="m1gubqsu" class="measure">
               <g id="smuq59k" class="staff">
                  <path d="M15863 1087 L18250 1087" stroke="currentColor" stroke-width="13" />
                  <path d="M15863 1267 L18250 1267" stroke="currentColor" stroke-width="13" />
                  <path d="M15863 1447 L18250 1447" stroke="currentColor" stroke-width="13" />
                  <path d="M15863 1627 L18250 1627" stroke="currentColor" stroke-width="13" />
                  <path d="M15863 1807 L18250 1807" stroke="currentColor" stroke-width="13" />
                  <g id="l1t3evi6" class="layer">
                     <g id="b1hxbbad" class="beam">
                        <polygon points="16408,862 16935,907 16935,997 16408,952" />
                        <g id="n1ufewhm" class="note">
                           <g class="notehead">
                              <use xlink:href="#E0A4-1suv244" x="16200" y="1447" height="720px" width="720px" />
                           </g>
                           <g id="s1kjs4hk" class="stem">
                              <rect x="16408" y="880" height="539" width="18" />
                           </g>
                           <g id="awdtpta" class="accid">
                              <use xlink:href="#E261-1suv244" x="16042" y="1447" height="720px" width="720px" />
                           </g>
                        </g>
                        <g id="n12lyoyo" class="note">
                           <g class="notehead">
                              <use xlink:href="#E0A4-1suv244" x="16709" y="1627" height="720px" width="720px" />
                           </g>
                           <g id="snnz7oq" class="stem">
                              <rect x="16917" y="925" height="674" width="18" />
                           </g>
                        </g>
                     </g>
                     <g id="bidhall" class="beam">
                        <polygon points="17426,907 17954,907 17954,997 17426,997" />
                        <g id="nakbw45" class="note">
                           <g class="notehead">
                              <use xlink:href="#E0A4-1suv244" x="17218" y="1537" height="720px" width="720px" />
                           </g>
                           <g id="s1n2o67u" class="stem">
                              <rect x="17426" y="925" height="584" width="18" />
                           </g>
                        </g>
                        <g id="n13nbc7y" class="note">
                           <g class="notehead">
                              <use xlink:href="#E0A4-1suv244" x="17728" y="1537" height="720px" width="720px" />
                           </g>
                           <g id="s1xgu0z3" class="stem">
                              <rect x="17936" y="925" height="584" width="18" />
                           </g>
                        </g>
                     </g>
                  </g>
               </g>
               <g id="b10zmsim" class="barLine">
                  <path d="M18237 1087 L18237 1807" stroke="currentColor" stroke-width="27" />
               </g>
            </g>
            <g id="mrk2wnc" class="measure">
               <g id="s6xd9cl" class="staff">
                  <path d="M18250 1087 L20004 1087" stroke="currentColor" stroke-width="13" />
                  <path d="M18250 1267 L20004 1267" stroke="currentColor" stroke-width="13" />
                  <path d="M18250 1447 L20004 1447" stroke="currentColor" stroke-width="13" />
                  <path d="M18250 1627 L20004 1627" stroke="currentColor" stroke-width="13" />
                  <path d="M18250 1807 L20004 1807" stroke="currentColor" stroke-width="13" />
                  <g id="l1x4em11" class="layer">
                     <g id="n8x61iu" class="note">
                        <g class="notehead">
                           <use xlink:href="#E0A4-1suv244" x="18430" y="1627" height="720px" width="720px" />
                        </g>
                        <g id="s19b9d2r" class="stem">
                           <rect x="18638" y="997" height="602" width="18" />
                        </g>
                     </g>
                     <g id="n1x1esec" class="note">
                        <g class="notehead">
                           <use xlink:href="#E0A4-1suv244" x="19210" y="1627" height="720px" width="720px" />
                        </g>
                        <g id="sskm10y" class="stem">
                           <rect x="19418" y="997" height="602" width="18" />
                        </g>
                     </g>
                  </g>
               </g>
               <g id="b6yluts" class="barLine">
                  <path d="M19991 1087 L19991 1807" stroke="currentColor" stroke-width="27" />
               </g>
            </g>
         </g>
         <g id="s1g0h2hp" class="system">
            <g id="lu0usge" class="labelAbbr">
               <text x="914" y="3886" text-anchor="end" font-size="0px">
                  <tspan id="tvrnayq" class="text">
                     <tspan font-size="405px" class="text">Pno.</tspan>
                  </tspan>
               </text>
            </g>
            <g id="m1kbp1kp" class="measure">
               <g id="mpe5b4l" class="mNum autogenerated">
                  <text x="1094" y="3193" text-anchor="middle" font-size="0px">
                     <tspan id="t188awgn" class="text">
                        <tspan font-size="324px" class="text">9</tspan>
                     </tspan>
                  </text>
               </g>
               <g id="scpwpzt" class="staff">
                  <path d="M1094 3436 L4652 3436" stroke="currentColor" stroke-width="13" />
                  <path d="M1094 3616 L4652 3616" stroke="currentColor" stroke-width="13" />
                  <path d="M1094 3796 L4652 3796" stroke="currentColor" stroke-width="13" />
                  <path d="M1094 3976 L4652 3976" stroke="currentColor" stroke-width="13" />
                  <path d="M1094 4156 L4652 4156" stroke="currentColor" stroke-width="13" />
                  <g id="cj4y8l8" class="clef">
                     <use xlink:href="#E050-1suv244" x="1184" y="3976" height="720px" width="720px" />
                  </g>
                  <g id="k10cs21q" class="keySig">
                     <g id="kd9nmfd" class="keyAccid">
                        <use xlink:href="#E260-1suv244" x="1829" y="3796" height="720px" width="720px" />
                     </g>
                     <g id="kxbgof3" class="keyAccid">
                        <use xlink:href="#E260-1suv244" x="2009" y="3526" height="720px" width="720px" />
                     </g>
                  </g>
                  <g id="l7eis4e" class="layer">
                     <g id="bcu5dxv" class="beam">
                        <polygon points="2629,3391 3500,3391 3500,3481 2629,3481" />
                        <polygon points="3150,3526 3500,3526 3500,3616 3150,3616" />
                        <g id="nmik6c3" class="note">
                           <g class="notehead">
                              <use xlink:href="#E0A4-1suv244" x="2421" y="3976" height="720px" width="720px" />
                           </g>
                           <g id="shbweh1" class="stem">
                              <rect x="2629" y="3409" height="539" width="18" />
                           </g>
                        </g>
                        <g id="ng520q6" class="note">
                           <g class="notehead">
                              <use xlink:href="#E0A4-1suv244" x="2933" y="3976" height="720px" width="720px" />
                           </g>
                           <g id="sr9ztnn" class="stem">
                              <rect x="3141" y="3409" height="539" width="18" />
                           </g>
                        </g>
                        <g id="n1joy74i" class="note">
                           <g class="notehead">
                              <use xlink:href="#E0A4-1suv244" x="3274" y="3976" height="720px" width="720px" />
                           </g>
                           <g id="swkia2i" class="stem">
                              <rect x="3482" y="3409" height="539" width="18" />
                           </g>
                        </g>
                     </g>
                     <g id="bjj1zlb" class="beam">
                        <polygon points="3823,3256 4353,3211 4353,3301 3823,3346" />
                        <g id="n1d22bnc" class="note">
                           <g class="notehead">
                              <use xlink:href="#E0A4-1suv244" x="3615" y="3976" height="720px" width="720px" />
                           </g>
                           <g id="s15f6wv3" class="stem">
                              <rect x="3823" y="3274" height="674" width="18" />
                           </g>
                        </g>
                        <g id="nyz9p35" class="note">
                           <g class="notehead">
                              <use xlink:href="#E0A4-1suv244" x="4127" y="3796" height="720px" width="720px" />
                           </g>
                           <g id="s5rnyki" class="stem">
                              <rect x="4335" y="3229" height="539" width="18" />
                           </g>
                           <g id="anfvudp" class="accid">
                              <use xlink:href="#E261-1suv244" x="3969" y="3796" height="720px" width="720px" />
                           </g>
                        </g>
                     </g>
                  </g>
               </g>
               <g id="bza4x9w" class="barLine">
                  <path d="M4639 3436 L4639 4156" stroke="currentColor" stroke-width="27" />
               </g>
            </g>
            <g id="s1yds7xa" class="sb" />
            <g id="m1vjgsni" class="measure">
               <g id="s160ap0z" class="staff">
                  <path d="M4652 3436 L6974 3436" stroke="currentColor" stroke-width="13" />
                  <path d="M4652 3616 L6974 3616" stroke="currentColor" stroke-width="13" />
                  <path d="M4652 3796 L6974 3796" stroke="currentColor" stroke-width="13" />
                  <path d="M4652 3976 L6974 3976" stroke="currentColor" stroke-width="13" />
                  <path d="M4652 4156 L6974 4156" stroke="currentColor" stroke-width="13" />
                  <g id="l1cmdspg" class="layer">
                     <g id="b1doj6oe" class="beam">
                        <polygon points="5198,3211 5728,3256 5728,3346 5198,3301" />
                        <g id="n2lveks" class="note">
                           <g class="notehead">
                              <use xlink:href="#E0A4-1suv244" x="4990" y="3796" height="720px" width="720px" />
                           </g>
                           <g id="sy1esmo" class="stem">
                              <rect x="5198" y="3229" height="539" width="18" />
                           </g>
                           <g id="a3lcgyv" class="accid">
                              <use xlink:href="#E261-1suv244" x="4832" y="3796" height="720px" width="720px" />
                           </g>
                        </g>
                        <g id="nr0y5z3" class="note">
                           <g class="notehead">
                              <use xlink:href="#E0A4-1suv244" x="5502" y="3886" height="720px" width="720px" />
                           </g>
                           <g id="s9we7wt" class="stem">
                              <rect x="5710" y="3274" height="584" width="18" />
                           </g>
                        </g>
                     </g>
                     <g id="n1nz2nud" class="note">
                        <g class="notehead">
                           <use xlink:href="#E0A4-1suv244" x="6014" y="3976" height="720px" width="720px" />
                        </g>
                        <g id="sm71tx3" class="stem">
                           <rect x="6222" y="3346" height="602" width="18" />
                        </g>
                     </g>
                  </g>
               </g>
               <g id="b1d8he34" class="barLine">
                  <path d="M6799 3436 L6799 4156" stroke="currentColor" stroke-width="27" />
                  <path d="M6929 3436 L6929 4156" stroke="currentColor" stroke-width="90" />
               </g>
            </g>
            <g id="s8a7e3e" class="systemMilestoneEnd s1u66wre" />
         </g>
         <g id="p1u6x6wp" class="pageMilestoneEnd s1iwmtle" />
         <g id="p1yfg8rf" class="pageMilestoneEnd m82ilne" />
         <g id="py0buph" class="pgHead">
            <text x="0" y="0" font-size="0px">
               <tspan id="r1h4jgrk" class="rend" x="10000" y="279" text-anchor="middle">
                  <tspan id="t9017y1" class="text">
                     <tspan font-size="405px" class="text">Air n 57</tspan>
                  </tspan>
               </tspan>
            </text>
         </g>
         <g id="p5vyaqk" class="pgFoot autogenerated">
            <g id="f7lwcpx" class="fig">
               <g id="steg08x" class="svg" transform="translate(7750, 28099) scale(10, 10)">
                  <g>
                     <path fill="#00000" d="M 17.11278,49.26451 V 10.367554 h 12.696511 c 3.288815,7.336676 6.71267,14.610456 10.127281,21.888976 3.419998,-7.484684 6.255515,-14.204887 9.58887,-21.909915 2.436207,0.103726 4.316952,0.08453 6.484294,-0.05808 V 49.264423 H 50.274275 C 50.145222,38.35639 50.016136,27.448368 49.887066,16.540329 45.003488,27.315459 39.967448,38.433564 35.083854,49.208695 34.678996,49.343717 34.426583,49.135619 34.021726,49.270644 29.46588,39.330716 24.910049,29.390805 20.354201,19.450876 20.224341,29.388756 20.09461,39.326619 19.964815,49.264497 H 17.11278 Z M 36.754144,39.324695 C 32.721221,30.512695 28.6883,21.700679 24.655394,12.888662 22.530527,12.750737 22.656775,12.71031 20.714356,12.813974 v 0.966497 c 4.612938,9.99784 9.609439,20.748709 13.87298,30.081745 0.722248,-1.512523 1.444528,-3.025014 2.166808,-4.537521 z m 25.738417,9.939815 c 0,-12.965651 0,-25.931305 0,-38.896956 10.084388,0 20.168791,0 30.253178,0 0,0.960416 0,1.920849 0,2.881265 -6.482825,0 -12.965652,0 -19.448478,0 0,4.802097 0,9.604178 0,14.406277 5.52241,0 11.044819,0 16.567229,0 0,0.960415 0,1.920832 0,2.881248 -5.52241,0 -11.044819,0 -16.567229,0 0,5.282306 0,10.564611 0,15.846917 6.963035,0 13.926068,0 20.889103,0 0,0.960416 0,1.920832 0,2.881249 -10.564597,0 -21.129207,0 -31.693803,0 z m 4.321874,-2.160937 c 0,-11.765131 0,-23.530263 0,-35.295394 -0.720312,0 -1.440625,0 -2.160937,0 0,11.765131 0,23.530263 0,35.295394 0.720312,0 1.440625,0 2.160937,0 z m 32.41413,2.160937 c 0,-12.965651 0,-25.931305 0,-38.896956 2.401045,0 4.802095,0 7.203135,0 0,12.965651 0,25.931305 0,38.896956 -2.40104,0 -4.80209,0 -7.203135,0 z m 2.881265,-2.160937 c 0,-11.765131 0,-23.530263 0,-35.295394 -0.72031,0 -1.44064,0 -2.160953,0 0,11.765131 0,23.530263 0,35.295394 0.720313,0 1.440643,0 2.160953,0 z" />
                     <path fill="#00000" d="m 346.3,6.7 c -3.1,0.5 -4.9,4.4 -2.7,6.8 1.2,1.4 2.7,2.4 4.1,3.5 -2.4,5.3 -7.7,8.3 -11.9,12.1 -3.7,2.8 -7,6.2 -9.7,9.9 -2.2,-0.8 -0.3,-6.8 -0.6,-9.5 0.1,-3.1 0.7,-6.4 2.9,-8.7 1.3,-1.9 3,-3.5 4.5,-5.2 1.2,-3.4 -3.2,-4.9 -5.8,-4.6 -7.3,-0.5 -14.6,2 -20,6.8 -5,4.6 -10,10.1 -11.5,17 -0.9,3.5 -0.2,7.5 2.8,9.9 2.5,2.8 7.4,2.9 9.8,-0.2 1.7,-2.3 3.2,-4.8 3.8,-7.6 -0.1,-2.6 -4.4,-2.3 -4.3,0.2 1.2,2.4 -0.9,4.7 -2.7,6.2 -1.7,0.9 -4.7,0.7 -4.8,-1.7 -1,-5.8 2.1,-11.3 5.2,-16.1 4,-5.8 9.8,-11.2 17.2,-11.8 1.6,0 8.1,-1.2 6.8,1.4 -2.8,2.8 -5.6,6.1 -6,10.3 -1.6,7.7 0.1,15.7 -2.3,23.2 -1.1,3.9 2,2.6 2.5,0.2 3.3,-7.4 8.9,-13.4 15.1,-18.5 4.2,-3.9 9.5,-7.1 11.9,-12.6 1.3,-3.6 1.2,-9 -2.7,-10.9 -0.6,-0.2 -1.2,-0.3 -1.8,-0.3 z m 66,14.5 c -2,0.8 -1.8,4.9 0.8,4.4 3.4,0.4 2.9,-6.2 -0.8,-4.4 z m 0.6,7.3 c -1.3,0.5 -7.6,0.5 -5.4,2.2 4,-0.3 0.7,4.5 0.6,6.7 -0.4,2.9 -2.4,5.9 -1.2,8.8 2.7,1.7 5.6,-0.8 6.8,-3.2 1.6,-1.4 -0.5,-3 -1.2,-0.9 -0.4,0.8 -2.4,3.5 -2.6,1.8 1.1,-5 2.7,-9.9 3.9,-14.9 l -0.1,-0.5 h -0.9 z m -65.1,0.2 c -6.5,1.6 -10.5,9.5 -8.2,15.7 2.1,3.4 7.4,2.9 10.1,0.4 2,-0.2 3.6,-5.3 1,-3.4 -1.4,2 -4,4.2 -6.5,2.8 -2.2,-1.9 -1.9,-5.7 1.7,-5.3 3.1,-0.9 6.9,-2.1 8.1,-5.5 0.9,-2.7 -1.6,-5.2 -4.3,-4.8 h -1.1 -0.7 z m 13.6,0 c -2.2,0 -8.5,1.8 -2.9,2.3 0.9,1.9 -1,4.9 -1.1,7.2 -0.5,2.9 -1.4,5.7 -1.7,8.7 3.7,0.7 3.8,-2.6 4.4,-5.3 0.9,-3.3 1.6,-7 4.1,-9.5 2.4,1.6 6.8,-0.7 3.7,-3.4 -2.9,-0.5 -4.8,2.4 -6.2,4.3 0,-1.2 2.4,-5 -0.2,-4.3 z m 15.8,0 c -6.4,1.3 -9.6,9.1 -7.7,14.9 1.9,4 7.7,3.9 11,1.7 4.1,-3 6,-8.9 4.4,-13.7 -1.3,-3 -4.8,-3.2 -7.6,-3 z m 17,0 c -2.3,0 -8.8,1.9 -3,2.4 0.4,2.5 -1,5.7 -1.4,8.4 -0.7,2.4 -1.8,7.5 2.1,7.2 3.8,-0.1 6.5,-3.5 8.5,-6.3 2,-3.2 4.5,-7 3.3,-10.9 -3.7,-3 -3.6,2.6 -3.1,5.1 -0.7,3.8 -2.7,7.9 -6.2,9.8 -3.6,0.6 -1,-4.3 -0.8,-6.1 0.6,-3.2 1.6,-6.3 1.9,-9.5 -0.4,0 -0.8,0 -1.1,0 z m 30.6,0 c -6.3,1.2 -9.5,8.9 -7.8,14.7 1.5,4 7.2,4.2 10.5,2.4 4.6,-2.8 6.6,-9.3 4.8,-14.3 -1.4,-2.8 -4.8,-3 -7.5,-2.8 z m -75.4,1.7 c 2.1,1.5 0.2,4.7 -1.6,5.7 -1.1,0.4 -5.5,3.4 -4.6,0.7 0.8,-2.7 2.2,-6.2 5.3,-6.6 l 0.9,0.1 z m 30.8,0 c 2.6,1.5 1.3,5.2 0.8,7.6 -0.8,2.7 -1.9,5.9 -4.7,7.1 -5.1,0.8 -4,-5.8 -2.8,-8.8 1,-2.8 3,-6.8 6.7,-5.8 z m 47.1,-0.1 c 2.9,0.7 2,4.7 1.5,6.8 -0.7,3 -1.8,6.7 -5,8 -4.7,0.8 -4,-5.1 -3,-7.9 0.9,-3 2.7,-7.3 6.5,-6.8 z m -88.1,5.9 c -0.3,1.3 0.9,-0.6 0,0 z m -1.1,2.4 c -0.2,0.5 0.5,-0.1 0,0 z m -1.3,4.5 c -0.3,1.3 0.8,-0.2 0,0 z" />
                     <text y="41" x="201" fill="#00000" style="font-style:italic;font-weight:normal;font-size:30px;line-height:125%;font-family:Times;text-anchor:middle" xml:space="preserve">engraved with</text>
                  </g>
               </g>
            </g>
         </g>
      </g>
   </svg>
</svg>
