<?xml version="1.0" encoding="UTF-8" standalone="no"?>
<svg width="2100px" height="2970px" version="1.1" xmlns="http://www.w3.org/2000/svg" xmlns:xlink="http://www.w3.org/1999/xlink" xmlns:mei="http://www.music-encoding.org/ns/mei" overflow="visible">
   <desc>Engraved by Verovio 3.13.1</desc>
   <defs>
      <symbol id="E044-shtge9" viewBox="0 0 1000 1000" overflow="inherit">
         <path transform="scale(1,-1)" d="M0 0c0 28 22 50 50 50s50 -22 50 -50s-22 -50 -50 -50s-50 22 -50 50z" />
      </symbol>
      <symbol id="E050-shtge9" viewBox="0 0 1000 1000" overflow="inherit">
         <path transform="scale(1,-1)" d="M441 -245c-23 -4 -48 -6 -76 -6c-59 0 -102 7 -130 20c-88 42 -150 93 -187 154c-26 44 -43 103 -48 176c0 6 -1 13 -1 19c0 54 15 111 45 170c29 57 65 106 110 148s96 85 153 127c-3 16 -8 46 -13 92c-4 43 -5 73 -5 89c0 117 16 172 69 257c34 54 64 82 89 82 c21 0 43 -30 69 -92s39 -115 41 -159v-15c0 -109 -21 -162 -67 -241c-13 -20 -63 -90 -98 -118c-13 -9 -25 -19 -37 -29l31 -181c8 1 18 2 28 2c58 0 102 -12 133 -35c59 -43 92 -104 98 -184c1 -7 1 -15 1 -22c0 -123 -87 -209 -181 -248c8 -57 17 -110 25 -162 c5 -31 6 -58 6 -80c0 -30 -5 -53 -14 -70c-35 -64 -88 -99 -158 -103c-5 0 -11 -1 -16 -1c-37 0 -72 10 -108 27c-50 24 -77 59 -80 105v11c0 29 7 55 20 76c18 28 45 42 79 44h6c49 0 93 -42 97 -87v-9c0 -51 -34 -86 -105 -106c17 -24 51 -36 102 -36c62 0 116 43 140 85 c9 16 13 41 13 74c0 20 -1 42 -5 67c-8 53 -18 106 -26 159zM461 939c-95 0 -135 -175 -135 -286c0 -24 2 -48 5 -71c50 39 92 82 127 128c40 53 60 100 60 140v8c-4 53 -22 81 -55 81h-2zM406 119l54 -326c73 25 110 78 110 161c0 7 0 15 -1 23c-7 95 -57 142 -151 142h-12 zM382 117c-72 -2 -128 -47 -128 -120v-7c2 -46 43 -99 75 -115c-3 -2 -7 -5 -10 -10c-70 33 -116 88 -123 172v11c0 68 44 126 88 159c23 17 49 29 78 36l-29 170c-21 -13 -52 -37 -92 -73c-50 -44 -86 -84 -109 -119c-45 -69 -67 -130 -67 -182v-13c5 -68 35 -127 93 -176 s125 -73 203 -73c25 0 50 3 75 9c-19 111 -36 221 -54 331z" />
      </symbol>
      <symbol id="E081-shtge9" viewBox="0 0 1000 1000" overflow="inherit">
         <path transform="scale(1,-1)" d="M68 -250v36c23 0 40 6 49 18c8 14 12 33 12 57v250l-82 -129l-27 13l107 255h128v-394c0 -24 5 -42 14 -53s25 -17 47 -17v-36h-248z" />
      </symbol>
      <symbol id="E082-shtge9" viewBox="0 0 1000 1000" overflow="inherit">
         <path transform="scale(1,-1)" d="M124 -185c-18 0 -55 -14 -65 -65h-36l-3 30c0 25 6 45 18 63c11 19 22 30 39 43l121 82l37 29c15 11 27 29 38 54c12 24 18 47 18 70c0 40 -19 88 -94 88c-25 0 -32 0 -50 -8c-14 -5 -23 -12 -26 -22c3 -9 7 -15 10 -18l24 -17c12 -7 17 -11 27 -21c5 -7 7 -16 7 -27 c0 -12 0 -57 -79 -74c-30 0 -76 26 -76 94c0 66 81 135 197 135c72 0 181 -32 181 -150c0 -53 -32 -95 -113 -133l-91 -41c-26 -11 -45 -23 -57 -37l49 7c84 0 115 -41 148 -41c20 0 33 20 39 61h35c0 -152 -68 -168 -114 -168c-17 0 -65 0 -79 7h10l-28 17 c-49 37 -69 40 -87 42z" />
      </symbol>
      <symbol id="E084-shtge9" viewBox="0 0 1000 1000" overflow="inherit">
         <path transform="scale(1,-1)" d="M20 -78c84 97 114 180 134 329h170c-13 -32 -82 -132 -99 -151l-84 -97c-33 -36 -59 -63 -80 -81h162v102l127 123v-225h57v-39h-57v-34c0 -43 19 -65 57 -65v-34h-244v36c48 0 60 26 60 70v27h-203v39z" />
      </symbol>
      <symbol id="E0A4-shtge9" viewBox="0 0 1000 1000" overflow="inherit">
         <path transform="scale(1,-1)" d="M0 -39c0 68 73 172 200 172c66 0 114 -37 114 -95c0 -84 -106 -171 -218 -171c-64 0 -96 30 -96 94z" />
      </symbol>
      <symbol id="E260-shtge9" viewBox="0 0 1000 1000" overflow="inherit">
         <path transform="scale(1,-1)" d="M20 110c32 16 54 27 93 27c26 0 35 -3 54 -13c13 -7 24 -20 27 -38l4 -25c0 -28 -16 -57 -45 -89c-23 -25 -39 -44 -65 -68l-88 -79v644h20v-359zM90 106c-32 0 -48 -10 -70 -29v-194c31 31 54 59 71 84c21 32 32 59 32 84c0 9 1 16 1 20c0 14 -3 21 -11 30l-8 3z" />
      </symbol>
   </defs>
   <style type="text/css">g.page-margin{font-family:Times;} g.ending, g.fing, g.reh, g.tempo{font-weight:bold;} g.dir, g.dynam, g.mNum{font-style:italic;} g.label{font-weight:normal;}</style>
   <svg class="definition-scale" color="black" viewBox="0 0 21000 29700">
      <g class="page-margin" transform="translate(500, 500)">
         <g id="m1bgr3yr" class="mdiv pageMilestone" />
         <g id="sagffz" class="score pageMilestone" />
         <g id="sogarm9" class="system">
            <g id="l1kvwvpe" class="label">
               <text x="1105" y="1535" text-anchor="end" font-size="0px">
                  <tspan id="tprbja" class="text">
                     <tspan font-size="405px" class="text">Piano</tspan>
                  </tspan>
               </text>
            </g>
            <g id="sz9y1gv" class="section systemMilestone" />
            <g id="pwiwihd" class="pb" />
            <g id="metypx2" class="measure">
               <g id="msbbgp6" class="mNum">
                  <text x="1285" y="842" text-anchor="middle" font-size="0px" />
               </g>
               <g id="s10fgwa0" class="staff">
                  <path d="M1285 1085 L4380 1085" stroke="currentColor" stroke-width="13" />
                  <path d="M1285 1265 L4380 1265" stroke="currentColor" stroke-width="13" />
                  <path d="M1285 1445 L4380 1445" stroke="currentColor" stroke-width="13" />
                  <path d="M1285 1625 L4380 1625" stroke="currentColor" stroke-width="13" />
                  <path d="M1285 1805 L4380 1805" stroke="currentColor" stroke-width="13" />
                  <g id="cfitrry" class="clef">
                     <use xlink:href="#E050-shtge9" x="1375" y="1625" height="720px" width="720px" />
                  </g>
                  <g id="k1ot1927" class="keySig">
                     <g id="k16szuft" class="keyAccid">
                        <use xlink:href="#E260-shtge9" x="2020" y="1445" height="720px" width="720px" />
                     </g>
                     <g id="ka33s4v" class="keyAccid">
                        <use xlink:href="#E260-shtge9" x="2200" y="1175" height="720px" width="720px" />
                     </g>
                  </g>
                  <g id="mbqbz1m" class="meterSig">
                     <use xlink:href="#E082-shtge9" x="2508" y="1265" height="720px" width="720px" />
                     <use xlink:href="#E084-shtge9" x="2513" y="1625" height="720px" width="720px" />
                  </g>
                  <g id="l190yw5q" class="layer">
                     <g id="b34lgo2" class="beam">
                        <polygon points="3083,1850 4018,1850 4018,1760 3083,1760" />
                        <polygon points="3643,1715 4018,1715 4018,1625 3643,1625" />
                        <g id="nqa5fgp" class="note">
                           <g class="notehead">
                              <use xlink:href="#E0A4-shtge9" x="3083" y="1265" height="720px" width="720px" />
                           </g>
                           <g id="s1asc11q" class="stem">
                              <rect x="3083" y="1293" height="539" width="18" />
                           </g>
                        </g>
                        <g id="n12jxv00" class="note">
                           <g class="notehead">
                              <use xlink:href="#E0A4-shtge9" x="3634" y="1175" height="720px" width="720px" />
                           </g>
                           <g id="s1pifl3b" class="stem">
                              <rect x="3634" y="1203" height="629" width="18" />
                           </g>
                           <g id="agtj2ri" class="accid" />
                        </g>
                        <g id="n94tgjy" class="note">
                           <g class="notehead">
                              <use xlink:href="#E0A4-shtge9" x="4000" y="1265" height="720px" width="720px" />
                           </g>
                           <g id="s150lkd" class="stem">
                              <rect x="4000" y="1293" height="539" width="18" />
                           </g>
                        </g>
                     </g>
                  </g>
               </g>
               <g id="bohx32k" class="barLine">
                  <path d="M4367 1085 L4367 1805" stroke="currentColor" stroke-width="27" />
               </g>
            </g>
            <g id="m1toy6xh" class="measure">
               <g id="s1cjgjd4" class="staff">
                  <path d="M4380 1085 L6776 1085" stroke="currentColor" stroke-width="13" />
                  <path d="M4380 1265 L6776 1265" stroke="currentColor" stroke-width="13" />
                  <path d="M4380 1445 L6776 1445" stroke="currentColor" stroke-width="13" />
                  <path d="M4380 1625 L6776 1625" stroke="currentColor" stroke-width="13" />
                  <path d="M4380 1805 L6776 1805" stroke="currentColor" stroke-width="13" />
                  <g id="lvi8kkc" class="layer">
                     <g id="bluk1bc" class="beam">
                        <polygon points="4562,1895 5131,2075 5131,1985 4562,1805" />
                        <g id="nb4whqt" class="note">
                           <g class="notehead">
                              <use xlink:href="#E0A4-shtge9" x="4562" y="1355" height="720px" width="720px" />
                           </g>
                           <g id="s1azpt98" class="stem">
                              <rect x="4562" y="1383" height="494" width="18" />
                           </g>
                        </g>
                        <g id="n1ad6roh" class="note">
                           <g class="notehead">
                              <use xlink:href="#E0A4-shtge9" x="5113" y="1535" height="720px" width="720px" />
                           </g>
                           <g id="s14yptqp" class="stem">
                              <rect x="5113" y="1563" height="494" width="18" />
                           </g>
                        </g>
                     </g>
                     <g id="b1raa6zp" class="beam">
                        <polygon points="5663,2030 6231,1940 6231,1850 5663,1940" />
                        <g id="n175n6xc" class="note">
                           <g class="notehead">
                              <use xlink:href="#E0A4-shtge9" x="5663" y="1445" height="720px" width="720px" />
                           </g>
                           <g id="s1tk7bwb" class="stem">
                              <rect x="5663" y="1473" height="539" width="18" />
                           </g>
                           <g id="a1xkji7n" class="accid" />
                        </g>
                        <g id="n154x6o4" class="note">
                           <g class="notehead">
                              <use xlink:href="#E0A4-shtge9" x="6213" y="1355" height="720px" width="720px" />
                           </g>
                           <g id="s1qu6dx5" class="stem">
                              <rect x="6213" y="1383" height="539" width="18" />
                           </g>
                        </g>
                     </g>
                  </g>
               </g>
               <g id="b1pl2bdo" class="barLine">
                  <path d="M6763 1085 L6763 1805" stroke="currentColor" stroke-width="27" />
               </g>
            </g>
            <g id="m45ozyc" class="measure">
               <g id="s8r9nm3" class="staff">
                  <path d="M6776 1085 L9099 1085" stroke="currentColor" stroke-width="13" />
                  <path d="M6776 1265 L9099 1265" stroke="currentColor" stroke-width="13" />
                  <path d="M6776 1445 L9099 1445" stroke="currentColor" stroke-width="13" />
                  <path d="M6776 1625 L9099 1625" stroke="currentColor" stroke-width="13" />
                  <path d="M6776 1805 L9099 1805" stroke="currentColor" stroke-width="13" />
                  <g id="l1ocbqie" class="layer">
                     <g id="n3exhcz" class="note">
                        <g class="notehead">
                           <use xlink:href="#E0A4-shtge9" x="6958" y="1265" height="720px" width="720px" />
                        </g>
                        <g id="s1xue8e" class="stem">
                           <rect x="6958" y="1293" height="602" width="18" />
                        </g>
                     </g>
                     <g id="b1s3mprh" class="beam">
                        <polygon points="7802,1850 8737,1850 8737,1760 7802,1760" />
                        <polygon points="8362,1715 8737,1715 8737,1625 8362,1625" />
                        <g id="n1fc5eap" class="note">
                           <g class="notehead">
                              <use xlink:href="#E0A4-shtge9" x="7802" y="1265" height="720px" width="720px" />
                           </g>
                           <g id="s3pnn6x" class="stem">
                              <rect x="7802" y="1293" height="539" width="18" />
                           </g>
                        </g>
                        <g id="nd269nx" class="note">
                           <g class="notehead">
                              <use xlink:href="#E0A4-shtge9" x="8353" y="1175" height="720px" width="720px" />
                           </g>
                           <g id="s8fxxl8" class="stem">
                              <rect x="8353" y="1203" height="629" width="18" />
                           </g>
                           <g id="a15e8wn0" class="accid" />
                        </g>
                        <g id="n1xx6qj" class="note">
                           <g class="notehead">
                              <use xlink:href="#E0A4-shtge9" x="8719" y="1265" height="720px" width="720px" />
                           </g>
                           <g id="s1tczlzs" class="stem">
                              <rect x="8719" y="1293" height="539" width="18" />
                           </g>
                        </g>
                     </g>
                  </g>
               </g>
               <g id="b1banoyl" class="barLine">
                  <path d="M9086 1085 L9086 1805" stroke="currentColor" stroke-width="27" />
               </g>
            </g>
            <g id="m1f34knr" class="measure">
               <g id="s2p33qf" class="staff">
                  <path d="M9099 1085 L11495 1085" stroke="currentColor" stroke-width="13" />
                  <path d="M9099 1265 L11495 1265" stroke="currentColor" stroke-width="13" />
                  <path d="M9099 1445 L11495 1445" stroke="currentColor" stroke-width="13" />
                  <path d="M9099 1625 L11495 1625" stroke="currentColor" stroke-width="13" />
                  <path d="M9099 1805 L11495 1805" stroke="currentColor" stroke-width="13" />
                  <g id="lt2gxgk" class="layer">
                     <g id="b1d5wt06" class="beam">
                        <polygon points="9281,1895 9850,2075 9850,1985 9281,1805" />
                        <g id="n1ehvp6d" class="note">
                           <g class="notehead">
                              <use xlink:href="#E0A4-shtge9" x="9281" y="1355" height="720px" width="720px" />
                           </g>
                           <g id="s1skj0jv" class="stem">
                              <rect x="9281" y="1383" height="494" width="18" />
                           </g>
                        </g>
                        <g id="nd9exm6" class="note">
                           <g class="notehead">
                              <use xlink:href="#E0A4-shtge9" x="9832" y="1535" height="720px" width="720px" />
                           </g>
                           <g id="srq32at" class="stem">
                              <rect x="9832" y="1563" height="494" width="18" />
                           </g>
                        </g>
                     </g>
                     <g id="bvx3r4r" class="beam">
                        <polygon points="10382,2030 10950,1940 10950,1850 10382,1940" />
                        <g id="n1yhnvi8" class="note">
                           <g class="notehead">
                              <use xlink:href="#E0A4-shtge9" x="10382" y="1445" height="720px" width="720px" />
                           </g>
                           <g id="s1tkwg2h" class="stem">
                              <rect x="10382" y="1473" height="539" width="18" />
                           </g>
                           <g id="a12nfsb5" class="accid" />
                        </g>
                        <g id="naey3px" class="note">
                           <g class="notehead">
                              <use xlink:href="#E0A4-shtge9" x="10932" y="1355" height="720px" width="720px" />
                           </g>
                           <g id="sgxx6zz" class="stem">
                              <rect x="10932" y="1383" height="539" width="18" />
                           </g>
                        </g>
                     </g>
                  </g>
               </g>
               <g id="b1pneq20" class="barLine">
                  <path d="M11482 1085 L11482 1805" stroke="currentColor" stroke-width="27" />
               </g>
            </g>
            <g id="m1umubpg" class="measure">
               <g id="sd5e7au" class="staff">
                  <path d="M11495 1085 L13154 1085" stroke="currentColor" stroke-width="13" />
                  <path d="M11495 1265 L13154 1265" stroke="currentColor" stroke-width="13" />
                  <path d="M11495 1445 L13154 1445" stroke="currentColor" stroke-width="13" />
                  <path d="M11495 1625 L13154 1625" stroke="currentColor" stroke-width="13" />
                  <path d="M11495 1805 L13154 1805" stroke="currentColor" stroke-width="13" />
                  <g id="m5xpol8" class="meterSig">
                     <use xlink:href="#E081-shtge9" x="11604" y="1265" height="720px" width="720px" />
                     <use xlink:href="#E084-shtge9" x="11571" y="1625" height="720px" width="720px" />
                  </g>
                  <g id="ljbq37b" class="layer">
                     <g id="n8klep1" class="note">
                        <g class="notehead">
                           <use xlink:href="#E0A4-shtge9" x="12135" y="1265" height="720px" width="720px" />
                        </g>
                        <g id="sv3ckul" class="stem">
                           <rect x="12135" y="1293" height="602" width="18" />
                        </g>
                     </g>
                  </g>
               </g>
               <g id="b1a2sksu" class="barLine">
                  <path d="M12979 1085 L12979 1805" stroke="currentColor" stroke-width="27" />
                  <path d="M13109 1085 L13109 1805" stroke="currentColor" stroke-width="90" />
                  <use xlink:href="#E044-shtge9" x="12862" y="1355" height="720px" width="720px" />
                  <use xlink:href="#E044-shtge9" x="12862" y="1535" height="720px" width="720px" />
               </g>
            </g>
            <g id="m6l0ynf" class="measure">
               <g id="s12lzowh" class="staff">
                  <path d="M13154 1085 L14633 1085" stroke="currentColor" stroke-width="13" />
                  <path d="M13154 1265 L14633 1265" stroke="currentColor" stroke-width="13" />
                  <path d="M13154 1445 L14633 1445" stroke="currentColor" stroke-width="13" />
                  <path d="M13154 1625 L14633 1625" stroke="currentColor" stroke-width="13" />
                  <path d="M13154 1805 L14633 1805" stroke="currentColor" stroke-width="13" />
                  <g id="l8fuoaq" class="layer">
                     <g id="b1574rr1" class="beam">
                        <polygon points="13336,1850 14271,1850 14271,1760 13336,1760" />
                        <polygon points="13896,1715 14271,1715 14271,1625 13896,1625" />
                        <g id="n1ncbwtc" class="note">
                           <g class="notehead">
                              <use xlink:href="#E0A4-shtge9" x="13336" y="1265" height="720px" width="720px" />
                           </g>
                           <g id="s14le8gz" class="stem">
                              <rect x="13336" y="1293" height="539" width="18" />
                           </g>
                        </g>
                        <g id="n103w345" class="note">
                           <g class="notehead">
                              <use xlink:href="#E0A4-shtge9" x="13887" y="1175" height="720px" width="720px" />
                           </g>
                           <g id="snoiieu" class="stem">
                              <rect x="13887" y="1203" height="629" width="18" />
                           </g>
                           <g id="a1izimdx" class="accid" />
                        </g>
                        <g id="n12vhhy9" class="note">
                           <g class="notehead">
                              <use xlink:href="#E0A4-shtge9" x="14253" y="1265" height="720px" width="720px" />
                           </g>
                           <g id="sj12mve" class="stem">
                              <rect x="14253" y="1293" height="539" width="18" />
                           </g>
                        </g>
                     </g>
                  </g>
               </g>
               <g id="b5dnvka" class="barLine">
                  <path d="M14620 1085 L14620 1805" stroke="currentColor" stroke-width="27" />
               </g>
            </g>
            <g id="mo3wgj3" class="measure">
               <g id="szmw4fh" class="staff">
                  <path d="M14633 1085 L17498 1085" stroke="currentColor" stroke-width="13" />
                  <path d="M14633 1265 L17498 1265" stroke="currentColor" stroke-width="13" />
                  <path d="M14633 1445 L17498 1445" stroke="currentColor" stroke-width="13" />
                  <path d="M14633 1625 L17498 1625" stroke="currentColor" stroke-width="13" />
                  <path d="M14633 1805 L17498 1805" stroke="currentColor" stroke-width="13" />
                  <g id="mifbq49" class="meterSig">
                     <use xlink:href="#E082-shtge9" x="14709" y="1265" height="720px" width="720px" />
                     <use xlink:href="#E084-shtge9" x="14714" y="1625" height="720px" width="720px" />
                  </g>
                  <g id="lezbfm0" class="layer">
                     <g id="bgwkum7" class="beam">
                        <polygon points="15284,1985 15853,1895 15853,1805 15284,1895" />
                        <g id="n18z7gml" class="note">
                           <g class="notehead">
                              <use xlink:href="#E0A4-shtge9" x="15284" y="1355" height="720px" width="720px" />
                           </g>
                           <g id="s1t3yo3" class="stem">
                              <rect x="15284" y="1383" height="584" width="18" />
                           </g>
                        </g>
                        <g id="nucchak" class="note">
                           <g class="notehead">
                              <use xlink:href="#E0A4-shtge9" x="15835" y="1265" height="720px" width="720px" />
                           </g>
                           <g id="s1xvztr4" class="stem">
                              <rect x="15835" y="1293" height="584" width="18" />
                           </g>
                        </g>
                     </g>
                     <g id="b1u33yfb" class="beam">
                        <polygon points="16593,860 17161,950 17161,1040 16593,950" />
                        <g id="n1j7iapv" class="note">
                           <g class="notehead">
                              <use xlink:href="#E0A4-shtge9" x="16385" y="1445" height="720px" width="720px" />
                           </g>
                           <g id="srp2xsf" class="stem">
                              <rect x="16593" y="878" height="539" width="18" />
                           </g>
                           <g id="avmvul1" class="accid" />
                        </g>
                        <g id="n1v28xug" class="note">
                           <g class="notehead">
                              <use xlink:href="#E0A4-shtge9" x="16935" y="1535" height="720px" width="720px" />
                           </g>
                           <g id="s1n301od" class="stem">
                              <rect x="17143" y="968" height="539" width="18" />
                           </g>
                        </g>
                     </g>
                  </g>
               </g>
               <g id="b1occj88" class="barLine">
                  <path d="M17485 1085 L17485 1805" stroke="currentColor" stroke-width="27" />
               </g>
            </g>
            <g id="m1wr6pel" class="measure">
               <g id="s1uktm65" class="staff">
                  <path d="M17498 1085 L20003 1085" stroke="currentColor" stroke-width="13" />
                  <path d="M17498 1265 L20003 1265" stroke="currentColor" stroke-width="13" />
                  <path d="M17498 1445 L20003 1445" stroke="currentColor" stroke-width="13" />
                  <path d="M17498 1625 L20003 1625" stroke="currentColor" stroke-width="13" />
                  <path d="M17498 1805 L20003 1805" stroke="currentColor" stroke-width="13" />
                  <g id="l133erj8" class="layer">
                     <g id="n1hm4196" class="note">
                        <g class="notehead">
                           <use xlink:href="#E0A4-shtge9" x="17680" y="1625" height="720px" width="720px" />
                        </g>
                        <g id="sdij0e4" class="stem">
                           <rect x="17888" y="995" height="602" width="18" />
                        </g>
                     </g>
                     <g id="b16tt131" class="beam">
                        <polygon points="18524,2120 19642,2120 19642,2030 18524,2030" />
                        <polygon points="18524,1985 18900,1985 18900,1895 18524,1895" />
                        <polygon points="18900,1985 19266,1985 19266,1895 18900,1895" />
                        <polygon points="19266,1985 19642,1985 19642,1895 19266,1895" />
                        <g id="nredbav" class="note">
                           <g class="notehead">
                              <use xlink:href="#E0A4-shtge9" x="18524" y="1535" height="720px" width="720px" />
                           </g>
                           <g id="s1f1p3ed" class="stem">
                              <rect x="18524" y="1563" height="539" width="18" />
                           </g>
                        </g>
                        <g id="n18swej6" class="note">
                           <g class="notehead">
                              <use xlink:href="#E0A4-shtge9" x="18891" y="1445" height="720px" width="720px" />
                           </g>
                           <g id="s15ix2m2" class="stem">
                              <rect x="18891" y="1473" height="629" width="18" />
                           </g>
                           <g id="ac7ic28" class="accid" />
                        </g>
                        <g id="n7w7k47" class="note">
                           <g class="notehead">
                              <use xlink:href="#E0A4-shtge9" x="19257" y="1355" height="720px" width="720px" />
                           </g>
                           <g id="s191crxa" class="stem">
                              <rect x="19257" y="1383" height="719" width="18" />
                           </g>
                        </g>
                        <g id="n1adh4g6" class="note">
                           <g class="notehead">
                              <use xlink:href="#E0A4-shtge9" x="19624" y="1535" height="720px" width="720px" />
                           </g>
                           <g id="sww31ul" class="stem">
                              <rect x="19624" y="1563" height="539" width="18" />
                           </g>
                        </g>
                     </g>
                  </g>
               </g>
               <g id="babho97" class="barLine">
                  <path d="M19990 1085 L19990 1805" stroke="currentColor" stroke-width="27" />
               </g>
            </g>
         </g>
         <g id="s1cigq3q" class="system">
            <g id="l1o63cdp" class="labelAbbr">
               <text x="914" y="3853" text-anchor="end" font-size="0px">
                  <tspan id="t156a9c7" class="text">
                     <tspan font-size="405px" class="text">Pno.</tspan>
                  </tspan>
               </text>
            </g>
            <g id="m18ka089" class="measure">
               <g id="m67ae5z" class="mNum autogenerated">
                  <text x="1094" y="3160" text-anchor="middle" font-size="0px">
                     <tspan id="t133jmb9" class="text">
                        <tspan font-size="324px" class="text">8</tspan>
                     </tspan>
                  </text>
               </g>
               <g id="sh0zqn1" class="staff">
                  <path d="M1094 3403 L4976 3403" stroke="currentColor" stroke-width="13" />
                  <path d="M1094 3583 L4976 3583" stroke="currentColor" stroke-width="13" />
                  <path d="M1094 3763 L4976 3763" stroke="currentColor" stroke-width="13" />
                  <path d="M1094 3943 L4976 3943" stroke="currentColor" stroke-width="13" />
                  <path d="M1094 4123 L4976 4123" stroke="currentColor" stroke-width="13" />
                  <g id="ccmzb7k" class="clef">
                     <use xlink:href="#E050-shtge9" x="1184" y="3943" height="720px" width="720px" />
                  </g>
                  <g id="ku347gg" class="keySig">
                     <g id="k1fkm8w3" class="keyAccid">
                        <use xlink:href="#E260-shtge9" x="1829" y="3763" height="720px" width="720px" />
                     </g>
                     <g id="kuzhc0e" class="keyAccid">
                        <use xlink:href="#E260-shtge9" x="2009" y="3493" height="720px" width="720px" />
                     </g>
                  </g>
                  <g id="l1nr5oqh" class="layer">
                     <g id="b1631pbk" class="beam">
                        <polygon points="2421,4213 3347,4303 3347,4213 2421,4123" />
                        <polygon points="2975,4133 3347,4168 3347,4078 2975,4043" />
                        <g id="n1uc6f5o" class="note">
                           <g class="notehead">
                              <use xlink:href="#E0A4-shtge9" x="2421" y="3583" height="720px" width="720px" />
                           </g>
                           <g id="s1yq4iin" class="stem">
                              <rect x="2421" y="3611" height="584" width="18" />
                           </g>
                        </g>
                        <g id="nau0xxb" class="note">
                           <g class="notehead">
                              <use xlink:href="#E0A4-shtge9" x="2966" y="3583" height="720px" width="720px" />
                           </g>
                           <g id="s5it7za" class="stem">
                              <rect x="2966" y="3611" height="639" width="18" />
                           </g>
                        </g>
                        <g id="nho0fu2" class="note">
                           <g class="notehead">
                              <use xlink:href="#E0A4-shtge9" x="3329" y="3673" height="720px" width="720px" />
                           </g>
                           <g id="s1j4kwev" class="stem">
                              <rect x="3329" y="3701" height="584" width="18" />
                           </g>
                        </g>
                     </g>
                     <g id="b1i8r59x" class="beam">
                        <polygon points="3900,3178 4826,3178 4826,3268 3900,3268" />
                        <polygon points="4454,3313 4826,3313 4826,3403 4454,3403" />
                        <g id="n1wxkir5" class="note">
                           <g class="notehead">
                              <use xlink:href="#E0A4-shtge9" x="3692" y="3763" height="720px" width="720px" />
                           </g>
                           <g id="s1hpqsv0" class="stem">
                              <rect x="3900" y="3196" height="539" width="18" />
                           </g>
                           <g id="a16hhxdn" class="accid" />
                        </g>
                        <g id="n1m17rjq" class="note">
                           <g class="notehead">
                              <use xlink:href="#E0A4-shtge9" x="4237" y="3853" height="720px" width="720px" />
                           </g>
                           <g id="s1dyjr1h" class="stem">
                              <rect x="4445" y="3196" height="629" width="18" />
                           </g>
                        </g>
                        <g id="n1igjxr2" class="note">
                           <g class="notehead">
                              <use xlink:href="#E0A4-shtge9" x="4600" y="3943" height="720px" width="720px" />
                           </g>
                           <g id="s77umjh" class="stem">
                              <rect x="4808" y="3196" height="719" width="18" />
                           </g>
                        </g>
                     </g>
                  </g>
               </g>
               <g id="b1ai192h" class="barLine">
                  <path d="M4963 3403 L4963 4123" stroke="currentColor" stroke-width="27" />
               </g>
            </g>
            <g id="s106phu3" class="sb" />
            <g id="m4sal38" class="measure">
               <g id="s1041stf" class="staff">
                  <path d="M4976 3403 L7711 3403" stroke="currentColor" stroke-width="13" />
                  <path d="M4976 3583 L7711 3583" stroke="currentColor" stroke-width="13" />
                  <path d="M4976 3763 L7711 3763" stroke="currentColor" stroke-width="13" />
                  <path d="M4976 3943 L7711 3943" stroke="currentColor" stroke-width="13" />
                  <path d="M4976 4123 L7711 4123" stroke="currentColor" stroke-width="13" />
                  <g id="l1izm11d" class="layer">
                     <g id="b19tr11" class="beam">
                        <polygon points="5364,3403 5927,3313 5927,3403 5364,3493" />
                        <g id="n1wnlzdq" class="note">
                           <g class="notehead">
                              <use xlink:href="#E0A4-shtge9" x="5156" y="4033" height="720px" width="720px" />
                           </g>
                           <g id="s17sj9to" class="stem">
                              <rect x="5364" y="3421" height="584" width="18" />
                           </g>
                        </g>
                        <g id="nwqkdkf" class="note">
                           <g class="notehead">
                              <use xlink:href="#E0A4-shtge9" x="5701" y="3943" height="720px" width="720px" />
                           </g>
                           <g id="s1lnvdao" class="stem">
                              <rect x="5909" y="3331" height="584" width="18" />
                           </g>
                        </g>
                     </g>
                     <g id="b1il93xe" class="beam">
                        <polygon points="6246,4438 7353,4438 7353,4348 6246,4348" />
                        <polygon points="6246,4303 6618,4303 6618,4213 6246,4213" />
                        <polygon points="6618,4303 6981,4303 6981,4213 6618,4213" />
                        <polygon points="6981,4303 7353,4303 7353,4213 6981,4213" />
                        <g id="nmef5pb" class="note">
                           <g class="notehead">
                              <use xlink:href="#E0A4-shtge9" x="6246" y="3853" height="720px" width="720px" />
                           </g>
                           <g id="s1jmj9je" class="stem">
                              <rect x="6246" y="3881" height="539" width="18" />
                           </g>
                        </g>
                        <g id="n1t1p96v" class="note">
                           <g class="notehead">
                              <use xlink:href="#E0A4-shtge9" x="6609" y="3763" height="720px" width="720px" />
                           </g>
                           <g id="s18xw7ht" class="stem">
                              <rect x="6609" y="3791" height="629" width="18" />
                           </g>
                           <g id="a1evqrfs" class="accid" />
                        </g>
                        <g id="n1sjimd7" class="note">
                           <g class="notehead">
                              <use xlink:href="#E0A4-shtge9" x="6972" y="3673" height="720px" width="720px" />
                           </g>
                           <g id="s1wjyvia" class="stem">
                              <rect x="6972" y="3701" height="719" width="18" />
                           </g>
                        </g>
                        <g id="nu9aoa3" class="note">
                           <g class="notehead">
                              <use xlink:href="#E0A4-shtge9" x="7335" y="3853" height="720px" width="720px" />
                           </g>
                           <g id="sxiq5fw" class="stem">
                              <rect x="7335" y="3881" height="539" width="18" />
                           </g>
                        </g>
                     </g>
                  </g>
               </g>
               <g id="bnqxo37" class="barLine">
                  <path d="M7698 3403 L7698 4123" stroke="currentColor" stroke-width="27" />
               </g>
            </g>
            <g id="m29ntuj" class="measure">
               <g id="s1cv1goy" class="staff">
                  <path d="M7711 3403 L10265 3403" stroke="currentColor" stroke-width="13" />
                  <path d="M7711 3583 L10265 3583" stroke="currentColor" stroke-width="13" />
                  <path d="M7711 3763 L10265 3763" stroke="currentColor" stroke-width="13" />
                  <path d="M7711 3943 L10265 3943" stroke="currentColor" stroke-width="13" />
                  <path d="M7711 4123 L10265 4123" stroke="currentColor" stroke-width="13" />
                  <g id="l1qnxxr6" class="layer">
                     <g id="bx0wm9b" class="beam">
                        <polygon points="7891,4213 8817,4303 8817,4213 7891,4123" />
                        <polygon points="8445,4133 8817,4168 8817,4078 8445,4043" />
                        <g id="n1h0j4bc" class="note">
                           <g class="notehead">
                              <use xlink:href="#E0A4-shtge9" x="7891" y="3583" height="720px" width="720px" />
                           </g>
                           <g id="s7ga7ge" class="stem">
                              <rect x="7891" y="3611" height="584" width="18" />
                           </g>
                        </g>
                        <g id="nagumn5" class="note">
                           <g class="notehead">
                              <use xlink:href="#E0A4-shtge9" x="8436" y="3583" height="720px" width="720px" />
                           </g>
                           <g id="s1c155qx" class="stem">
                              <rect x="8436" y="3611" height="639" width="18" />
                           </g>
                        </g>
                        <g id="n1shht8p" class="note">
                           <g class="notehead">
                              <use xlink:href="#E0A4-shtge9" x="8799" y="3673" height="720px" width="720px" />
                           </g>
                           <g id="s1n97tt4" class="stem">
                              <rect x="8799" y="3701" height="584" width="18" />
                           </g>
                        </g>
                     </g>
                     <g id="buixd79" class="beam">
                        <polygon points="9370,3178 9933,3268 9933,3358 9370,3268" />
                        <g id="n15nx0gc" class="note">
                           <g class="notehead">
                              <use xlink:href="#E0A4-shtge9" x="9162" y="3763" height="720px" width="720px" />
                           </g>
                           <g id="sjzrbqa" class="stem">
                              <rect x="9370" y="3196" height="539" width="18" />
                           </g>
                           <g id="a1rhpz5t" class="accid" />
                        </g>
                        <g id="n1i3qx2e" class="note">
                           <g class="notehead">
                              <use xlink:href="#E0A4-shtge9" x="9707" y="3853" height="720px" width="720px" />
                           </g>
                           <g id="s1mnddgi" class="stem">
                              <rect x="9915" y="3286" height="539" width="18" />
                           </g>
                        </g>
                     </g>
                  </g>
               </g>
               <g id="b16gp0og" class="barLine">
                  <path d="M10252 3403 L10252 4123" stroke="currentColor" stroke-width="27" />
               </g>
            </g>
            <g id="m1jf8tx" class="measure">
               <g id="s1gz793b" class="staff">
                  <path d="M10265 3403 L11914 3403" stroke="currentColor" stroke-width="13" />
                  <path d="M10265 3583 L11914 3583" stroke="currentColor" stroke-width="13" />
                  <path d="M10265 3763 L11914 3763" stroke="currentColor" stroke-width="13" />
                  <path d="M10265 3943 L11914 3943" stroke="currentColor" stroke-width="13" />
                  <path d="M10265 4123 L11914 4123" stroke="currentColor" stroke-width="13" />
                  <g id="morvpon" class="meterSig">
                     <use xlink:href="#E081-shtge9" x="10374" y="3583" height="720px" width="720px" />
                     <use xlink:href="#E084-shtge9" x="10341" y="3943" height="720px" width="720px" />
                  </g>
                  <g id="le62eoc" class="layer">
                     <g id="n1bab7jm" class="note">
                        <g class="notehead">
                           <use xlink:href="#E0A4-shtge9" x="10903" y="3943" height="720px" width="720px" />
                        </g>
                        <g id="s123ninj" class="stem">
                           <rect x="11111" y="3313" height="602" width="18" />
                        </g>
                     </g>
                  </g>
               </g>
               <g id="bxoqvtl" class="barLine">
                  <path d="M11739 3403 L11739 4123" stroke="currentColor" stroke-width="27" />
                  <path d="M11869 3403 L11869 4123" stroke="currentColor" stroke-width="90" />
               </g>
            </g>
            <g id="s1ofyedd" class="systemMilestoneEnd sz9y1gv" />
         </g>
         <g id="p16ah5m5" class="pageMilestoneEnd sagffz" />
         <g id="p17nckle" class="pageMilestoneEnd m1bgr3yr" />
         <g id="pco7ake" class="pgHead">
            <text x="0" y="0" font-size="0px">
               <tspan id="rzxdubx" class="rend" x="10000" y="277" text-anchor="middle">
                  <tspan id="tui644p" class="text">
                     <tspan font-size="405px" class="text">Air n 149</tspan>
                  </tspan>
               </tspan>
            </text>
         </g>
         <g id="p2ysv4f" class="pgFoot autogenerated">
            <g id="f11e0pcm" class="fig">
               <g id="svjo8m8" class="svg" transform="translate(7750, 28099) scale(10, 10)">
                  <g>
                     <path fill="#00000" d="M 17.11278,49.26451 V 10.367554 h 12.696511 c 3.288815,7.336676 6.71267,14.610456 10.127281,21.888976 3.419998,-7.484684 6.255515,-14.204887 9.58887,-21.909915 2.436207,0.103726 4.316952,0.08453 6.484294,-0.05808 V 49.264423 H 50.274275 C 50.145222,38.35639 50.016136,27.448368 49.887066,16.540329 45.003488,27.315459 39.967448,38.433564 35.083854,49.208695 34.678996,49.343717 34.426583,49.135619 34.021726,49.270644 29.46588,39.330716 24.910049,29.390805 20.354201,19.450876 20.224341,29.388756 20.09461,39.326619 19.964815,49.264497 H 17.11278 Z M 36.754144,39.324695 C 32.721221,30.512695 28.6883,21.700679 24.655394,12.888662 22.530527,12.750737 22.656775,12.71031 20.714356,12.813974 v 0.966497 c 4.612938,9.99784 9.609439,20.748709 13.87298,30.081745 0.722248,-1.512523 1.444528,-3.025014 2.166808,-4.537521 z m 25.738417,9.939815 c 0,-12.965651 0,-25.931305 0,-38.896956 10.084388,0 20.168791,0 30.253178,0 0,0.960416 0,1.920849 0,2.881265 -6.482825,0 -12.965652,0 -19.448478,0 0,4.802097 0,9.604178 0,14.406277 5.52241,0 11.044819,0 16.567229,0 0,0.960415 0,1.920832 0,2.881248 -5.52241,0 -11.044819,0 -16.567229,0 0,5.282306 0,10.564611 0,15.846917 6.963035,0 13.926068,0 20.889103,0 0,0.960416 0,1.920832 0,2.881249 -10.564597,0 -21.129207,0 -31.693803,0 z m 4.321874,-2.160937 c 0,-11.765131 0,-23.530263 0,-35.295394 -0.720312,0 -1.440625,0 -2.160937,0 0,11.765131 0,23.530263 0,35.295394 0.720312,0 1.440625,0 2.160937,0 z m 32.41413,2.160937 c 0,-12.965651 0,-25.931305 0,-38.896956 2.401045,0 4.802095,0 7.203135,0 0,12.965651 0,25.931305 0,38.896956 -2.40104,0 -4.80209,0 -7.203135,0 z m 2.881265,-2.160937 c 0,-11.765131 0,-23.530263 0,-35.295394 -0.72031,0 -1.44064,0 -2.160953,0 0,11.765131 0,23.530263 0,35.295394 0.720313,0 1.440643,0 2.160953,0 z" />
                     <path fill="#00000" d="m 346.3,6.7 c -3.1,0.5 -4.9,4.4 -2.7,6.8 1.2,1.4 2.7,2.4 4.1,3.5 -2.4,5.3 -7.7,8.3 -11.9,12.1 -3.7,2.8 -7,6.2 -9.7,9.9 -2.2,-0.8 -0.3,-6.8 -0.6,-9.5 0.1,-3.1 0.7,-6.4 2.9,-8.7 1.3,-1.9 3,-3.5 4.5,-5.2 1.2,-3.4 -3.2,-4.9 -5.8,-4.6 -7.3,-0.5 -14.6,2 -20,6.8 -5,4.6 -10,10.1 -11.5,17 -0.9,3.5 -0.2,7.5 2.8,9.9 2.5,2.8 7.4,2.9 9.8,-0.2 1.7,-2.3 3.2,-4.8 3.8,-7.6 -0.1,-2.6 -4.4,-2.3 -4.3,0.2 1.2,2.4 -0.9,4.7 -2.7,6.2 -1.7,0.9 -4.7,0.7 -4.8,-1.7 -1,-5.8 2.1,-11.3 5.2,-16.1 4,-5.8 9.8,-11.2 17.2,-11.8 1.6,0 8.1,-1.2 6.8,1.4 -2.8,2.8 -5.6,6.1 -6,10.3 -1.6,7.7 0.1,15.7 -2.3,23.2 -1.1,3.9 2,2.6 2.5,0.2 3.3,-7.4 8.9,-13.4 15.1,-18.5 4.2,-3.9 9.5,-7.1 11.9,-12.6 1.3,-3.6 1.2,-9 -2.7,-10.9 -0.6,-0.2 -1.2,-0.3 -1.8,-0.3 z m 66,14.5 c -2,0.8 -1.8,4.9 0.8,4.4 3.4,0.4 2.9,-6.2 -0.8,-4.4 z m 0.6,7.3 c -1.3,0.5 -7.6,0.5 -5.4,2.2 4,-0.3 0.7,4.5 0.6,6.7 -0.4,2.9 -2.4,5.9 -1.2,8.8 2.7,1.7 5.6,-0.8 6.8,-3.2 1.6,-1.4 -0.5,-3 -1.2,-0.9 -0.4,0.8 -2.4,3.5 -2.6,1.8 1.1,-5 2.7,-9.9 3.9,-14.9 l -0.1,-0.5 h -0.9 z m -65.1,0.2 c -6.5,1.6 -10.5,9.5 -8.2,15.7 2.1,3.4 7.4,2.9 10.1,0.4 2,-0.2 3.6,-5.3 1,-3.4 -1.4,2 -4,4.2 -6.5,2.8 -2.2,-1.9 -1.9,-5.7 1.7,-5.3 3.1,-0.9 6.9,-2.1 8.1,-5.5 0.9,-2.7 -1.6,-5.2 -4.3,-4.8 h -1.1 -0.7 z m 13.6,0 c -2.2,0 -8.5,1.8 -2.9,2.3 0.9,1.9 -1,4.9 -1.1,7.2 -0.5,2.9 -1.4,5.7 -1.7,8.7 3.7,0.7 3.8,-2.6 4.4,-5.3 0.9,-3.3 1.6,-7 4.1,-9.5 2.4,1.6 6.8,-0.7 3.7,-3.4 -2.9,-0.5 -4.8,2.4 -6.2,4.3 0,-1.2 2.4,-5 -0.2,-4.3 z m 15.8,0 c -6.4,1.3 -9.6,9.1 -7.7,14.9 1.9,4 7.7,3.9 11,1.7 4.1,-3 6,-8.9 4.4,-13.7 -1.3,-3 -4.8,-3.2 -7.6,-3 z m 17,0 c -2.3,0 -8.8,1.9 -3,2.4 0.4,2.5 -1,5.7 -1.4,8.4 -0.7,2.4 -1.8,7.5 2.1,7.2 3.8,-0.1 6.5,-3.5 8.5,-6.3 2,-3.2 4.5,-7 3.3,-10.9 -3.7,-3 -3.6,2.6 -3.1,5.1 -0.7,3.8 -2.7,7.9 -6.2,9.8 -3.6,0.6 -1,-4.3 -0.8,-6.1 0.6,-3.2 1.6,-6.3 1.9,-9.5 -0.4,0 -0.8,0 -1.1,0 z m 30.6,0 c -6.3,1.2 -9.5,8.9 -7.8,14.7 1.5,4 7.2,4.2 10.5,2.4 4.6,-2.8 6.6,-9.3 4.8,-14.3 -1.4,-2.8 -4.8,-3 -7.5,-2.8 z m -75.4,1.7 c 2.1,1.5 0.2,4.7 -1.6,5.7 -1.1,0.4 -5.5,3.4 -4.6,0.7 0.8,-2.7 2.2,-6.2 5.3,-6.6 l 0.9,0.1 z m 30.8,0 c 2.6,1.5 1.3,5.2 0.8,7.6 -0.8,2.7 -1.9,5.9 -4.7,7.1 -5.1,0.8 -4,-5.8 -2.8,-8.8 1,-2.8 3,-6.8 6.7,-5.8 z m 47.1,-0.1 c 2.9,0.7 2,4.7 1.5,6.8 -0.7,3 -1.8,6.7 -5,8 -4.7,0.8 -4,-5.1 -3,-7.9 0.9,-3 2.7,-7.3 6.5,-6.8 z m -88.1,5.9 c -0.3,1.3 0.9,-0.6 0,0 z m -1.1,2.4 c -0.2,0.5 0.5,-0.1 0,0 z m -1.3,4.5 c -0.3,1.3 0.8,-0.2 0,0 z" />
                     <text y="41" x="201" fill="#00000" style="font-style:italic;font-weight:normal;font-size:30px;line-height:125%;font-family:Times;text-anchor:middle" xml:space="preserve">engraved with</text>
                  </g>
               </g>
            </g>
         </g>
      </g>
   </svg>
</svg>
