<?xml version="1.0" encoding="UTF-8" standalone="no"?>
<svg width="2100px" height="2970px" version="1.1" xmlns="http://www.w3.org/2000/svg" xmlns:xlink="http://www.w3.org/1999/xlink" xmlns:mei="http://www.music-encoding.org/ns/mei" overflow="visible">
   <desc>Engraved by Verovio 3.13.1</desc>
   <defs>
      <symbol id="E655-hm6gce" viewBox="0 0 1000 1000" overflow="inherit">
         <path transform="scale(1,-1)" d="M217 245c-22 0 -39 -16 -39 -37c0 -18 21 -34 39 -35c20 0 35 18 35 37c0 21 -15 34 -35 35zM44 318c3 26 25 51 52 51c16 0 28 -4 32 -12c11 -14 14 -56 22 -76c6 -8 14 -12 25 -14l16 5c9 5 14 11 15 25c0 7 -2 13 -5 17l-11 18l-17 17l-9 22c0 28 25 47 53 47 s50 -23 50 -47c0 -20 -7 -25 -21 -39l-15 -20c-4 -7 -6 -13 -7 -18c1 -4 5 -11 5 -14l11 -11l14 -7c20 2 30 22 33 47c0 39 17 58 49 58c26 0 46 -21 46 -47c0 -29 -23 -46 -54 -46c-30 0 -45 -11 -48 -34l5 -12c1 -3 4 -5 7 -8c1 -2 6 -3 14 -5c10 2 17 6 23 12 c8 3 6 4 16 12l21 15c4 3 12 5 21 5c23 0 43 -26 44 -49c0 -20 -16 -41 -30 -49c-3 -1 -10 -3 -19 -4c-7 1 -16 7 -30 18l-26 19c-4 3 -11 4 -20 4c-8 0 -14 -1 -17 -4l-9 -19c2 -13 6 -21 14 -24l11 -4l27 -5c16 0 28 -4 37 -12c9 -6 13 -17 13 -34c0 -13 -5 -25 -14 -34 c-9 -8 -22 -13 -36 -16c-11 2 -23 8 -34 19c-8 11 -11 27 -11 47c0 11 -4 21 -7 27c-5 8 -14 12 -26 12c-19 0 -29 -15 -32 -31c3 -7 8 -14 11 -21c4 -8 8 -14 13 -21l8 -8l5 -10c3 -5 4 -13 5 -21c0 -26 -26 -39 -52 -39c-25 0 -45 15 -48 39c1 6 5 18 7 21 c11 14 22 29 33 43c2 4 3 10 4 19c0 17 -8 26 -24 29c-31 0 -40 -20 -40 -51s-17 -49 -48 -54c-33 7 -42 20 -50 52c3 31 25 46 66 46c19 0 37 12 37 31c0 8 -3 13 -8 16c-3 4 -8 7 -16 7c-10 0 -24 -6 -40 -18c-14 -9 -25 -16 -39 -21c-28 3 -45 20 -46 51 c0 26 18 47 44 47c19 0 31 -9 44 -19l18 -14l19 -7c18 4 26 12 26 23c0 23 -15 34 -46 34c-37 0 -57 14 -61 44z" />
      </symbol>
      <symbol id="E050-hm6gce" viewBox="0 0 1000 1000" overflow="inherit">
         <path transform="scale(1,-1)" d="M441 -245c-23 -4 -48 -6 -76 -6c-59 0 -102 7 -130 20c-88 42 -150 93 -187 154c-26 44 -43 103 -48 176c0 6 -1 13 -1 19c0 54 15 111 45 170c29 57 65 106 110 148s96 85 153 127c-3 16 -8 46 -13 92c-4 43 -5 73 -5 89c0 117 16 172 69 257c34 54 64 82 89 82 c21 0 43 -30 69 -92s39 -115 41 -159v-15c0 -109 -21 -162 -67 -241c-13 -20 -63 -90 -98 -118c-13 -9 -25 -19 -37 -29l31 -181c8 1 18 2 28 2c58 0 102 -12 133 -35c59 -43 92 -104 98 -184c1 -7 1 -15 1 -22c0 -123 -87 -209 -181 -248c8 -57 17 -110 25 -162 c5 -31 6 -58 6 -80c0 -30 -5 -53 -14 -70c-35 -64 -88 -99 -158 -103c-5 0 -11 -1 -16 -1c-37 0 -72 10 -108 27c-50 24 -77 59 -80 105v11c0 29 7 55 20 76c18 28 45 42 79 44h6c49 0 93 -42 97 -87v-9c0 -51 -34 -86 -105 -106c17 -24 51 -36 102 -36c62 0 116 43 140 85 c9 16 13 41 13 74c0 20 -1 42 -5 67c-8 53 -18 106 -26 159zM461 939c-95 0 -135 -175 -135 -286c0 -24 2 -48 5 -71c50 39 92 82 127 128c40 53 60 100 60 140v8c-4 53 -22 81 -55 81h-2zM406 119l54 -326c73 25 110 78 110 161c0 7 0 15 -1 23c-7 95 -57 142 -151 142h-12 zM382 117c-72 -2 -128 -47 -128 -120v-7c2 -46 43 -99 75 -115c-3 -2 -7 -5 -10 -10c-70 33 -116 88 -123 172v11c0 68 44 126 88 159c23 17 49 29 78 36l-29 170c-21 -13 -52 -37 -92 -73c-50 -44 -86 -84 -109 -119c-45 -69 -67 -130 -67 -182v-13c5 -68 35 -127 93 -176 s125 -73 203 -73c25 0 50 3 75 9c-19 111 -36 221 -54 331z" />
      </symbol>
      <symbol id="E082-hm6gce" viewBox="0 0 1000 1000" overflow="inherit">
         <path transform="scale(1,-1)" d="M124 -185c-18 0 -55 -14 -65 -65h-36l-3 30c0 25 6 45 18 63c11 19 22 30 39 43l121 82l37 29c15 11 27 29 38 54c12 24 18 47 18 70c0 40 -19 88 -94 88c-25 0 -32 0 -50 -8c-14 -5 -23 -12 -26 -22c3 -9 7 -15 10 -18l24 -17c12 -7 17 -11 27 -21c5 -7 7 -16 7 -27 c0 -12 0 -57 -79 -74c-30 0 -76 26 -76 94c0 66 81 135 197 135c72 0 181 -32 181 -150c0 -53 -32 -95 -113 -133l-91 -41c-26 -11 -45 -23 -57 -37l49 7c84 0 115 -41 148 -41c20 0 33 20 39 61h35c0 -152 -68 -168 -114 -168c-17 0 -65 0 -79 7h10l-28 17 c-49 37 -69 40 -87 42z" />
      </symbol>
      <symbol id="E084-hm6gce" viewBox="0 0 1000 1000" overflow="inherit">
         <path transform="scale(1,-1)" d="M20 -78c84 97 114 180 134 329h170c-13 -32 -82 -132 -99 -151l-84 -97c-33 -36 -59 -63 -80 -81h162v102l127 123v-225h57v-39h-57v-34c0 -43 19 -65 57 -65v-34h-244v36c48 0 60 26 60 70v27h-203v39z" />
      </symbol>
      <symbol id="E0A4-hm6gce" viewBox="0 0 1000 1000" overflow="inherit">
         <path transform="scale(1,-1)" d="M0 -39c0 68 73 172 200 172c66 0 114 -37 114 -95c0 -84 -106 -171 -218 -171c-64 0 -96 30 -96 94z" />
      </symbol>
   </defs>
   <style type="text/css">g.page-margin{font-family:Times;} g.ending, g.fing, g.reh, g.tempo{font-weight:bold;} g.dir, g.dynam, g.mNum{font-style:italic;} g.label{font-weight:normal;}</style>
   <svg class="definition-scale" color="black" viewBox="0 0 21000 29700">
      <g class="page-margin" transform="translate(500, 500)">
         <g id="mawujeh" class="mdiv pageMilestone" />
         <g id="sh50tbi" class="score pageMilestone" />
         <g id="s1xd31a6" class="system">
            <g id="l113avj0" class="label">
               <text x="1105" y="1535" text-anchor="end" font-size="0px">
                  <tspan id="t133fn9v" class="text">
                     <tspan font-size="405px" class="text">Piano</tspan>
                  </tspan>
               </text>
            </g>
            <g id="s108pd3q" class="section systemMilestone" />
            <g id="p1utwt32" class="pb" />
            <g id="m1gvrz2u" class="measure">
               <g id="sfeu3es" class="staff">
                  <path d="M1285 1085 L4639 1085" stroke="currentColor" stroke-width="13" />
                  <path d="M1285 1265 L4639 1265" stroke="currentColor" stroke-width="13" />
                  <path d="M1285 1445 L4639 1445" stroke="currentColor" stroke-width="13" />
                  <path d="M1285 1625 L4639 1625" stroke="currentColor" stroke-width="13" />
                  <path d="M1285 1805 L4639 1805" stroke="currentColor" stroke-width="13" />
                  <g id="ck0694n" class="clef">
                     <use xlink:href="#E050-hm6gce" x="1375" y="1625" height="720px" width="720px" />
                  </g>
                  <g id="k1hk0b51" class="keySig" />
                  <g id="m1xnc3m1" class="meterSig">
                     <use xlink:href="#E082-hm6gce" x="2006" y="1265" height="720px" width="720px" />
                     <use xlink:href="#E084-hm6gce" x="2011" y="1625" height="720px" width="720px" />
                  </g>
                  <g id="lk6qbyj" class="layer">
                     <g id="b1szwkis" class="beam">
                        <polygon points="2786,905 3316,860 3316,950 2786,995" />
                        <g id="nv5up6f" class="note">
                           <g class="notehead">
                              <use xlink:href="#E0A4-hm6gce" x="2578" y="1625" height="720px" width="720px" />
                           </g>
                           <g id="swncmx7" class="stem">
                              <rect x="2786" y="923" height="674" width="18" />
                           </g>
                        </g>
                        <g id="n1i8a2bm" class="note">
                           <g class="notehead">
                              <use xlink:href="#E0A4-hm6gce" x="3090" y="1535" height="720px" width="720px" />
                           </g>
                           <g id="sh0p7vk" class="stem">
                              <rect x="3298" y="878" height="629" width="18" />
                           </g>
                        </g>
                     </g>
                     <g id="bi1v17f" class="beam">
                        <polygon points="3810,860 4340,860 4340,950 3810,950" />
                        <g id="n148cbeh" class="note">
                           <g class="notehead">
                              <use xlink:href="#E0A4-hm6gce" x="3602" y="1445" height="720px" width="720px" />
                           </g>
                           <g id="s1nrm9d6" class="stem">
                              <rect x="3810" y="878" height="539" width="18" />
                           </g>
                        </g>
                        <g id="n15utpyo" class="note">
                           <g class="notehead">
                              <use xlink:href="#E0A4-hm6gce" x="4114" y="1445" height="720px" width="720px" />
                           </g>
                           <g id="s1q62zs9" class="stem">
                              <rect x="4322" y="878" height="539" width="18" />
                           </g>
                        </g>
                     </g>
                  </g>
               </g>
               <g id="pcsfke0" class="pedal">
                  <use xlink:href="#E655-hm6gce" x="2480" y="2150" height="720px" width="720px" />
               </g>
               <g id="b1scyum9" class="barLine">
                  <path d="M4626 1085 L4626 1805" stroke="currentColor" stroke-width="27" />
               </g>
            </g>
            <g id="m10gnzrk" class="measure">
               <g id="s1n5xtpr" class="staff">
                  <path d="M4639 1085 L6640 1085" stroke="currentColor" stroke-width="13" />
                  <path d="M4639 1265 L6640 1265" stroke="currentColor" stroke-width="13" />
                  <path d="M4639 1445 L6640 1445" stroke="currentColor" stroke-width="13" />
                  <path d="M4639 1625 L6640 1625" stroke="currentColor" stroke-width="13" />
                  <path d="M4639 1805 L6640 1805" stroke="currentColor" stroke-width="13" />
                  <g id="l1m68qv3" class="layer">
                     <g id="b1c44ua1" class="beam">
                        <polygon points="5026,860 5556,905 5556,995 5026,950" />
                        <g id="nr5udba" class="note">
                           <g class="notehead">
                              <use xlink:href="#E0A4-hm6gce" x="4818" y="1535" height="720px" width="720px" />
                           </g>
                           <g id="s1acoys" class="stem">
                              <rect x="5026" y="878" height="629" width="18" />
                           </g>
                        </g>
                        <g id="n15egpgd" class="note">
                           <g class="notehead">
                              <use xlink:href="#E0A4-hm6gce" x="5330" y="1625" height="720px" width="720px" />
                           </g>
                           <g id="s1ux1lo3" class="stem">
                              <rect x="5538" y="923" height="674" width="18" />
                           </g>
                        </g>
                     </g>
                     <g id="n1p7ce7p" class="note">
                        <g class="notehead">
                           <use xlink:href="#E0A4-hm6gce" x="5842" y="1265" height="720px" width="720px" />
                        </g>
                        <g id="s127erno" class="stem">
                           <rect x="5842" y="1293" height="602" width="18" />
                        </g>
                     </g>
                  </g>
               </g>
               <g id="b1yvdvlm" class="barLine">
                  <path d="M6627 1085 L6627 1805" stroke="currentColor" stroke-width="27" />
               </g>
            </g>
            <g id="mhl7xao" class="measure">
               <g id="s1ruy4j1" class="staff">
                  <path d="M6640 1085 L8880 1085" stroke="currentColor" stroke-width="13" />
                  <path d="M6640 1265 L8880 1265" stroke="currentColor" stroke-width="13" />
                  <path d="M6640 1445 L8880 1445" stroke="currentColor" stroke-width="13" />
                  <path d="M6640 1625 L8880 1625" stroke="currentColor" stroke-width="13" />
                  <path d="M6640 1805 L8880 1805" stroke="currentColor" stroke-width="13" />
                  <g id="lk0z5zu" class="layer">
                     <g id="b1j47k2a" class="beam">
                        <polygon points="7027,905 7557,860 7557,950 7027,995" />
                        <g id="nqzposd" class="note">
                           <g class="notehead">
                              <use xlink:href="#E0A4-hm6gce" x="6819" y="1625" height="720px" width="720px" />
                           </g>
                           <g id="s11vl6qc" class="stem">
                              <rect x="7027" y="923" height="674" width="18" />
                           </g>
                        </g>
                        <g id="n1hlexj7" class="note">
                           <g class="notehead">
                              <use xlink:href="#E0A4-hm6gce" x="7331" y="1535" height="720px" width="720px" />
                           </g>
                           <g id="sbqhbnk" class="stem">
                              <rect x="7539" y="878" height="629" width="18" />
                           </g>
                        </g>
                     </g>
                     <g id="be89dz1" class="beam">
                        <polygon points="8051,860 8581,860 8581,950 8051,950" />
                        <g id="n19m3gv6" class="note">
                           <g class="notehead">
                              <use xlink:href="#E0A4-hm6gce" x="7843" y="1445" height="720px" width="720px" />
                           </g>
                           <g id="s1iwdzd8" class="stem">
                              <rect x="8051" y="878" height="539" width="18" />
                           </g>
                        </g>
                        <g id="nctpe2b" class="note">
                           <g class="notehead">
                              <use xlink:href="#E0A4-hm6gce" x="8355" y="1445" height="720px" width="720px" />
                           </g>
                           <g id="s103bgyx" class="stem">
                              <rect x="8563" y="878" height="539" width="18" />
                           </g>
                        </g>
                     </g>
                  </g>
               </g>
               <g id="btyfhqt" class="barLine">
                  <path d="M8867 1085 L8867 1805" stroke="currentColor" stroke-width="27" />
               </g>
            </g>
            <g id="my6ch1e" class="measure">
               <g id="s149c2hk" class="staff">
                  <path d="M8880 1085 L11043 1085" stroke="currentColor" stroke-width="13" />
                  <path d="M8880 1265 L11043 1265" stroke="currentColor" stroke-width="13" />
                  <path d="M8880 1445 L11043 1445" stroke="currentColor" stroke-width="13" />
                  <path d="M8880 1625 L11043 1625" stroke="currentColor" stroke-width="13" />
                  <path d="M8880 1805 L11043 1805" stroke="currentColor" stroke-width="13" />
                  <g id="l100iutf" class="layer">
                     <g id="bfsrk20" class="beam">
                        <polygon points="9267,860 9797,905 9797,995 9267,950" />
                        <g id="n1019rfv" class="note">
                           <g class="notehead">
                              <use xlink:href="#E0A4-hm6gce" x="9059" y="1535" height="720px" width="720px" />
                           </g>
                           <g id="s1px9s1o" class="stem">
                              <rect x="9267" y="878" height="629" width="18" />
                           </g>
                        </g>
                        <g id="nrdqqsy" class="note">
                           <g class="notehead">
                              <use xlink:href="#E0A4-hm6gce" x="9571" y="1625" height="720px" width="720px" />
                           </g>
                           <g id="sg7y8nm" class="stem">
                              <rect x="9779" y="923" height="674" width="18" />
                           </g>
                        </g>
                     </g>
                     <g id="n1deou03" class="note">
                        <g class="notehead">
                           <use xlink:href="#E0A4-hm6gce" x="10083" y="1265" height="720px" width="720px" />
                        </g>
                        <g id="s1ydbk7r" class="stem">
                           <rect x="10083" y="1293" height="602" width="18" />
                        </g>
                     </g>
                  </g>
               </g>
               <g id="bizo2ca" class="barLine">
                  <path d="M10868 1085 L10868 1805" stroke="currentColor" stroke-width="27" />
                  <path d="M10998 1085 L10998 1805" stroke="currentColor" stroke-width="90" />
               </g>
            </g>
            <g id="mknoge8" class="measure">
               <g id="slxki0d" class="staff">
                  <path d="M11043 1085 L13283 1085" stroke="currentColor" stroke-width="13" />
                  <path d="M11043 1265 L13283 1265" stroke="currentColor" stroke-width="13" />
                  <path d="M11043 1445 L13283 1445" stroke="currentColor" stroke-width="13" />
                  <path d="M11043 1625 L13283 1625" stroke="currentColor" stroke-width="13" />
                  <path d="M11043 1805 L13283 1805" stroke="currentColor" stroke-width="13" />
                  <g id="lex5ebx" class="layer">
                     <g id="b1isoia2" class="beam">
                        <polygon points="11430,905 11960,860 11960,950 11430,995" />
                        <g id="n12b9eat" class="note">
                           <g class="notehead">
                              <use xlink:href="#E0A4-hm6gce" x="11222" y="1625" height="720px" width="720px" />
                           </g>
                           <g id="s6uzap5" class="stem">
                              <rect x="11430" y="923" height="674" width="18" />
                           </g>
                        </g>
                        <g id="nmj3tu9" class="note">
                           <g class="notehead">
                              <use xlink:href="#E0A4-hm6gce" x="11734" y="1535" height="720px" width="720px" />
                           </g>
                           <g id="s1utvx7x" class="stem">
                              <rect x="11942" y="878" height="629" width="18" />
                           </g>
                        </g>
                     </g>
                     <g id="b3fpthe" class="beam">
                        <polygon points="12454,860 12984,860 12984,950 12454,950" />
                        <g id="n1a7buh4" class="note">
                           <g class="notehead">
                              <use xlink:href="#E0A4-hm6gce" x="12246" y="1445" height="720px" width="720px" />
                           </g>
                           <g id="s3crolg" class="stem">
                              <rect x="12454" y="878" height="539" width="18" />
                           </g>
                        </g>
                        <g id="n1mv70si" class="note">
                           <g class="notehead">
                              <use xlink:href="#E0A4-hm6gce" x="12758" y="1445" height="720px" width="720px" />
                           </g>
                           <g id="sl91r05" class="stem">
                              <rect x="12966" y="878" height="539" width="18" />
                           </g>
                        </g>
                     </g>
                  </g>
               </g>
               <g id="b1yojkpj" class="barLine">
                  <path d="M13270 1085 L13270 1805" stroke="currentColor" stroke-width="27" />
               </g>
            </g>
            <g id="m1y5331q" class="measure">
               <g id="s1ab8q7d" class="staff">
                  <path d="M13283 1085 L15523 1085" stroke="currentColor" stroke-width="13" />
                  <path d="M13283 1265 L15523 1265" stroke="currentColor" stroke-width="13" />
                  <path d="M13283 1445 L15523 1445" stroke="currentColor" stroke-width="13" />
                  <path d="M13283 1625 L15523 1625" stroke="currentColor" stroke-width="13" />
                  <path d="M13283 1805 L15523 1805" stroke="currentColor" stroke-width="13" />
                  <g id="l1g96gx7" class="layer">
                     <g id="bnsfctm" class="beam">
                        <polygon points="13670,905 14200,905 14200,995 13670,995" />
                        <g id="nlbrpqc" class="note">
                           <g class="notehead">
                              <use xlink:href="#E0A4-hm6gce" x="13462" y="1535" height="720px" width="720px" />
                           </g>
                           <g id="se96mlp" class="stem">
                              <rect x="13670" y="923" height="584" width="18" />
                           </g>
                        </g>
                        <g id="nb42sm" class="note">
                           <g class="notehead">
                              <use xlink:href="#E0A4-hm6gce" x="13974" y="1535" height="720px" width="720px" />
                           </g>
                           <g id="s1e85au6" class="stem">
                              <rect x="14182" y="923" height="584" width="18" />
                           </g>
                        </g>
                     </g>
                     <g id="b347lbs" class="beam">
                        <polygon points="14694,905 15224,860 15224,950 14694,995" />
                        <g id="nakd0vc" class="note">
                           <g class="notehead">
                              <use xlink:href="#E0A4-hm6gce" x="14486" y="1805" height="720px" width="720px" />
                           </g>
                           <g id="sul0zj" class="stem">
                              <rect x="14694" y="923" height="854" width="18" />
                           </g>
                        </g>
                        <g id="n1xgzq20" class="note">
                           <g class="notehead">
                              <use xlink:href="#E0A4-hm6gce" x="14998" y="1535" height="720px" width="720px" />
                           </g>
                           <g id="sx7xe95" class="stem">
                              <rect x="15206" y="878" height="629" width="18" />
                           </g>
                        </g>
                     </g>
                  </g>
               </g>
               <g id="b150a2hn" class="barLine">
                  <path d="M15510 1085 L15510 1805" stroke="currentColor" stroke-width="27" />
               </g>
            </g>
            <g id="m1cor2p0" class="measure">
               <g id="scaau9c" class="staff">
                  <path d="M15523 1085 L17763 1085" stroke="currentColor" stroke-width="13" />
                  <path d="M15523 1265 L17763 1265" stroke="currentColor" stroke-width="13" />
                  <path d="M15523 1445 L17763 1445" stroke="currentColor" stroke-width="13" />
                  <path d="M15523 1625 L17763 1625" stroke="currentColor" stroke-width="13" />
                  <path d="M15523 1805 L17763 1805" stroke="currentColor" stroke-width="13" />
                  <g id="lv5ikne" class="layer">
                     <g id="b9cbb0b" class="beam">
                        <polygon points="15910,905 16440,905 16440,995 15910,995" />
                        <g id="n13zwl83" class="note">
                           <g class="notehead">
                              <use xlink:href="#E0A4-hm6gce" x="15702" y="1535" height="720px" width="720px" />
                           </g>
                           <g id="sw4sby2" class="stem">
                              <rect x="15910" y="923" height="584" width="18" />
                           </g>
                        </g>
                        <g id="n1al319x" class="note">
                           <g class="notehead">
                              <use xlink:href="#E0A4-hm6gce" x="16214" y="1535" height="720px" width="720px" />
                           </g>
                           <g id="s1ayn7lz" class="stem">
                              <rect x="16422" y="923" height="584" width="18" />
                           </g>
                        </g>
                     </g>
                     <g id="bnbprfp" class="beam">
                        <polygon points="16934,905 17464,860 17464,950 16934,995" />
                        <g id="nuhrdqs" class="note">
                           <g class="notehead">
                              <use xlink:href="#E0A4-hm6gce" x="16726" y="1625" height="720px" width="720px" />
                           </g>
                           <g id="s1rysvtv" class="stem">
                              <rect x="16934" y="923" height="674" width="18" />
                           </g>
                        </g>
                        <g id="nf9kgzt" class="note">
                           <g class="notehead">
                              <use xlink:href="#E0A4-hm6gce" x="17238" y="1535" height="720px" width="720px" />
                           </g>
                           <g id="sfmndqe" class="stem">
                              <rect x="17446" y="878" height="629" width="18" />
                           </g>
                        </g>
                     </g>
                  </g>
               </g>
               <g id="bn0qvb8" class="barLine">
                  <path d="M17750 1085 L17750 1805" stroke="currentColor" stroke-width="27" />
               </g>
            </g>
            <g id="m1q27ipb" class="measure">
               <g id="sr0478y" class="staff">
                  <path d="M17763 1085 L20003 1085" stroke="currentColor" stroke-width="13" />
                  <path d="M17763 1265 L20003 1265" stroke="currentColor" stroke-width="13" />
                  <path d="M17763 1445 L20003 1445" stroke="currentColor" stroke-width="13" />
                  <path d="M17763 1625 L20003 1625" stroke="currentColor" stroke-width="13" />
                  <path d="M17763 1805 L20003 1805" stroke="currentColor" stroke-width="13" />
                  <g id="lx71c" class="layer">
                     <g id="bvv1yzz" class="beam">
                        <polygon points="18150,905 18680,905 18680,995 18150,995" />
                        <g id="n8wozxb" class="note">
                           <g class="notehead">
                              <use xlink:href="#E0A4-hm6gce" x="17942" y="1535" height="720px" width="720px" />
                           </g>
                           <g id="s7j33yv" class="stem">
                              <rect x="18150" y="923" height="584" width="18" />
                           </g>
                        </g>
                        <g id="nhiiyqs" class="note">
                           <g class="notehead">
                              <use xlink:href="#E0A4-hm6gce" x="18454" y="1535" height="720px" width="720px" />
                           </g>
                           <g id="s1qk3iw5" class="stem">
                              <rect x="18662" y="923" height="584" width="18" />
                           </g>
                        </g>
                     </g>
                     <g id="bhrj3q3" class="beam">
                        <polygon points="19174,950 19704,995 19704,1085 19174,1040" />
                        <g id="n10qrwib" class="note">
                           <g class="notehead">
                              <use xlink:href="#E0A4-hm6gce" x="18966" y="1625" height="720px" width="720px" />
                           </g>
                           <g id="s1iphr9s" class="stem">
                              <rect x="19174" y="968" height="629" width="18" />
                           </g>
                        </g>
                        <g id="n1lo9imi" class="note">
                           <g class="notehead">
                              <use xlink:href="#E0A4-hm6gce" x="19478" y="1715" height="720px" width="720px" />
                           </g>
                           <g id="s2igxvi" class="stem">
                              <rect x="19686" y="1013" height="674" width="18" />
                           </g>
                        </g>
                     </g>
                  </g>
               </g>
               <g id="b1fcapds" class="barLine">
                  <path d="M19990 1085 L19990 1805" stroke="currentColor" stroke-width="27" />
               </g>
            </g>
         </g>
         <g id="s1vm5eqz" class="system">
            <g id="l9tyn7v" class="labelAbbr">
               <text x="914" y="3845" text-anchor="end" font-size="0px">
                  <tspan id="t1n2oyu4" class="text">
                     <tspan font-size="405px" class="text">Pno.</tspan>
                  </tspan>
               </text>
            </g>
            <g id="mjfagx6" class="measure">
               <g id="m37mb6" class="mNum autogenerated">
                  <text x="1094" y="3152" text-anchor="middle" font-size="0px">
                     <tspan id="ts34br5" class="text">
                        <tspan font-size="324px" class="text">9</tspan>
                     </tspan>
                  </text>
               </g>
               <g id="s1bs3v4n" class="staff">
                  <path d="M1094 3395 L3996 3395" stroke="currentColor" stroke-width="13" />
                  <path d="M1094 3575 L3996 3575" stroke="currentColor" stroke-width="13" />
                  <path d="M1094 3755 L3996 3755" stroke="currentColor" stroke-width="13" />
                  <path d="M1094 3935 L3996 3935" stroke="currentColor" stroke-width="13" />
                  <path d="M1094 4115 L3996 4115" stroke="currentColor" stroke-width="13" />
                  <g id="c4r24cu" class="clef">
                     <use xlink:href="#E050-hm6gce" x="1184" y="3935" height="720px" width="720px" />
                  </g>
                  <g id="k1dfbeqk" class="keySig" />
                  <g id="l1yz6erh" class="layer">
                     <g id="bni7du9" class="beam">
                        <polygon points="2127,3215 2661,3170 2661,3260 2127,3305" />
                        <g id="n1jcarzy" class="note">
                           <g class="notehead">
                              <use xlink:href="#E0A4-hm6gce" x="1919" y="3935" height="720px" width="720px" />
                           </g>
                           <g id="s59uzmr" class="stem">
                              <rect x="2127" y="3233" height="674" width="18" />
                           </g>
                        </g>
                        <g id="njyr0ke" class="note">
                           <g class="notehead">
                              <use xlink:href="#E0A4-hm6gce" x="2435" y="3845" height="720px" width="720px" />
                           </g>
                           <g id="sk090cd" class="stem">
                              <rect x="2643" y="3188" height="629" width="18" />
                           </g>
                        </g>
                     </g>
                     <g id="bte0ir9" class="beam">
                        <polygon points="3159,3170 3693,3170 3693,3260 3159,3260" />
                        <g id="n1iompph" class="note">
                           <g class="notehead">
                              <use xlink:href="#E0A4-hm6gce" x="2951" y="3755" height="720px" width="720px" />
                           </g>
                           <g id="sy1gy0p" class="stem">
                              <rect x="3159" y="3188" height="539" width="18" />
                           </g>
                        </g>
                        <g id="nxwmelt" class="note">
                           <g class="notehead">
                              <use xlink:href="#E0A4-hm6gce" x="3467" y="3755" height="720px" width="720px" />
                           </g>
                           <g id="sw42hp0" class="stem">
                              <rect x="3675" y="3188" height="539" width="18" />
                           </g>
                        </g>
                     </g>
                  </g>
               </g>
               <g id="b1xv3cp7" class="barLine">
                  <path d="M3983 3395 L3983 4115" stroke="currentColor" stroke-width="27" />
               </g>
            </g>
            <g id="s19eorxe" class="sb" />
            <g id="m14dthl0" class="measure">
               <g id="s192u0nr" class="staff">
                  <path d="M3996 3395 L6253 3395" stroke="currentColor" stroke-width="13" />
                  <path d="M3996 3575 L6253 3575" stroke="currentColor" stroke-width="13" />
                  <path d="M3996 3755 L6253 3755" stroke="currentColor" stroke-width="13" />
                  <path d="M3996 3935 L6253 3935" stroke="currentColor" stroke-width="13" />
                  <path d="M3996 4115 L6253 4115" stroke="currentColor" stroke-width="13" />
                  <g id="l1q6m29g" class="layer">
                     <g id="b1h01vb5" class="beam">
                        <polygon points="4384,3215 4918,3215 4918,3305 4384,3305" />
                        <g id="nnbm8l" class="note">
                           <g class="notehead">
                              <use xlink:href="#E0A4-hm6gce" x="4176" y="3845" height="720px" width="720px" />
                           </g>
                           <g id="s1s7jbrj" class="stem">
                              <rect x="4384" y="3233" height="584" width="18" />
                           </g>
                        </g>
                        <g id="n1d8j5pj" class="note">
                           <g class="notehead">
                              <use xlink:href="#E0A4-hm6gce" x="4692" y="3845" height="720px" width="720px" />
                           </g>
                           <g id="sax9xl8" class="stem">
                              <rect x="4900" y="3233" height="584" width="18" />
                           </g>
                        </g>
                     </g>
                     <g id="bw7zwv" class="beam">
                        <polygon points="5416,3215 5950,3170 5950,3260 5416,3305" />
                        <g id="n198lfq1" class="note">
                           <g class="notehead">
                              <use xlink:href="#E0A4-hm6gce" x="5208" y="4115" height="720px" width="720px" />
                           </g>
                           <g id="sj4ar3s" class="stem">
                              <rect x="5416" y="3233" height="854" width="18" />
                           </g>
                        </g>
                        <g id="np3ruqp" class="note">
                           <g class="notehead">
                              <use xlink:href="#E0A4-hm6gce" x="5724" y="3845" height="720px" width="720px" />
                           </g>
                           <g id="s105k23b" class="stem">
                              <rect x="5932" y="3188" height="629" width="18" />
                           </g>
                        </g>
                     </g>
                  </g>
               </g>
               <g id="b1ifj6lb" class="barLine">
                  <path d="M6240 3395 L6240 4115" stroke="currentColor" stroke-width="27" />
               </g>
            </g>
            <g id="m7av5w6" class="measure">
               <g id="s130u7c5" class="staff">
                  <path d="M6253 3395 L8510 3395" stroke="currentColor" stroke-width="13" />
                  <path d="M6253 3575 L8510 3575" stroke="currentColor" stroke-width="13" />
                  <path d="M6253 3755 L8510 3755" stroke="currentColor" stroke-width="13" />
                  <path d="M6253 3935 L8510 3935" stroke="currentColor" stroke-width="13" />
                  <path d="M6253 4115 L8510 4115" stroke="currentColor" stroke-width="13" />
                  <g id="ls6hnj8" class="layer">
                     <g id="b1m810zv" class="beam">
                        <polygon points="6641,3215 7175,3215 7175,3305 6641,3305" />
                        <g id="n1plxyee" class="note">
                           <g class="notehead">
                              <use xlink:href="#E0A4-hm6gce" x="6433" y="3845" height="720px" width="720px" />
                           </g>
                           <g id="s1qz46mi" class="stem">
                              <rect x="6641" y="3233" height="584" width="18" />
                           </g>
                        </g>
                        <g id="nlmmrl1" class="note">
                           <g class="notehead">
                              <use xlink:href="#E0A4-hm6gce" x="6949" y="3845" height="720px" width="720px" />
                           </g>
                           <g id="s158v443" class="stem">
                              <rect x="7157" y="3233" height="584" width="18" />
                           </g>
                        </g>
                     </g>
                     <g id="bzizgjx" class="beam">
                        <polygon points="7673,3215 8207,3170 8207,3260 7673,3305" />
                        <g id="n1kt5xvt" class="note">
                           <g class="notehead">
                              <use xlink:href="#E0A4-hm6gce" x="7465" y="3935" height="720px" width="720px" />
                           </g>
                           <g id="s7raukw" class="stem">
                              <rect x="7673" y="3233" height="674" width="18" />
                           </g>
                        </g>
                        <g id="n96sm3m" class="note">
                           <g class="notehead">
                              <use xlink:href="#E0A4-hm6gce" x="7981" y="3845" height="720px" width="720px" />
                           </g>
                           <g id="s1um3wd9" class="stem">
                              <rect x="8189" y="3188" height="629" width="18" />
                           </g>
                        </g>
                     </g>
                  </g>
               </g>
               <g id="bj22dls" class="barLine">
                  <path d="M8497 3395 L8497 4115" stroke="currentColor" stroke-width="27" />
               </g>
            </g>
            <g id="meyqdrq" class="measure">
               <g id="s8ir21x" class="staff">
                  <path d="M8510 3395 L10688 3395" stroke="currentColor" stroke-width="13" />
                  <path d="M8510 3575 L10688 3575" stroke="currentColor" stroke-width="13" />
                  <path d="M8510 3755 L10688 3755" stroke="currentColor" stroke-width="13" />
                  <path d="M8510 3935 L10688 3935" stroke="currentColor" stroke-width="13" />
                  <path d="M8510 4115 L10688 4115" stroke="currentColor" stroke-width="13" />
                  <g id="l1q1qhvx" class="layer">
                     <g id="boz28zi" class="beam">
                        <polygon points="8898,3215 9432,3215 9432,3305 8898,3305" />
                        <g id="n40kvxy" class="note">
                           <g class="notehead">
                              <use xlink:href="#E0A4-hm6gce" x="8690" y="3845" height="720px" width="720px" />
                           </g>
                           <g id="s1k67ttm" class="stem">
                              <rect x="8898" y="3233" height="584" width="18" />
                           </g>
                        </g>
                        <g id="ngt629i" class="note">
                           <g class="notehead">
                              <use xlink:href="#E0A4-hm6gce" x="9206" y="3845" height="720px" width="720px" />
                           </g>
                           <g id="swl0p5l" class="stem">
                              <rect x="9414" y="3233" height="584" width="18" />
                           </g>
                        </g>
                     </g>
                     <g id="nznnuwm" class="note">
                        <g class="notehead">
                           <use xlink:href="#E0A4-hm6gce" x="9722" y="3935" height="720px" width="720px" />
                        </g>
                        <g id="s8lj3qz" class="stem">
                           <rect x="9930" y="3305" height="602" width="18" />
                        </g>
                     </g>
                  </g>
               </g>
               <g id="b1qi2l9q" class="barLine">
                  <path d="M10513 3395 L10513 4115" stroke="currentColor" stroke-width="27" />
                  <path d="M10643 3395 L10643 4115" stroke="currentColor" stroke-width="90" />
               </g>
            </g>
            <g id="s1mxddhk" class="systemMilestoneEnd s108pd3q" />
         </g>
         <g id="p1rf7uyl" class="pageMilestoneEnd sh50tbi" />
         <g id="psxt4c2" class="pageMilestoneEnd mawujeh" />
         <g id="p6sjvht" class="pgHead">
            <text x="0" y="0" font-size="0px">
               <tspan id="rbx9oil" class="rend" x="10000" y="277" text-anchor="middle">
                  <tspan id="tlu8fo6" class="text">
                     <tspan font-size="405px" class="text">Air n 37</tspan>
                  </tspan>
               </tspan>
            </text>
         </g>
         <g id="p1407m28" class="pgFoot autogenerated">
            <g id="f6oa0kj" class="fig">
               <g id="s16u05k8" class="svg" transform="translate(7750, 28099) scale(10, 10)">
                  <g>
                     <path fill="#00000" d="M 17.11278,49.26451 V 10.367554 h 12.696511 c 3.288815,7.336676 6.71267,14.610456 10.127281,21.888976 3.419998,-7.484684 6.255515,-14.204887 9.58887,-21.909915 2.436207,0.103726 4.316952,0.08453 6.484294,-0.05808 V 49.264423 H 50.274275 C 50.145222,38.35639 50.016136,27.448368 49.887066,16.540329 45.003488,27.315459 39.967448,38.433564 35.083854,49.208695 34.678996,49.343717 34.426583,49.135619 34.021726,49.270644 29.46588,39.330716 24.910049,29.390805 20.354201,19.450876 20.224341,29.388756 20.09461,39.326619 19.964815,49.264497 H 17.11278 Z M 36.754144,39.324695 C 32.721221,30.512695 28.6883,21.700679 24.655394,12.888662 22.530527,12.750737 22.656775,12.71031 20.714356,12.813974 v 0.966497 c 4.612938,9.99784 9.609439,20.748709 13.87298,30.081745 0.722248,-1.512523 1.444528,-3.025014 2.166808,-4.537521 z m 25.738417,9.939815 c 0,-12.965651 0,-25.931305 0,-38.896956 10.084388,0 20.168791,0 30.253178,0 0,0.960416 0,1.920849 0,2.881265 -6.482825,0 -12.965652,0 -19.448478,0 0,4.802097 0,9.604178 0,14.406277 5.52241,0 11.044819,0 16.567229,0 0,0.960415 0,1.920832 0,2.881248 -5.52241,0 -11.044819,0 -16.567229,0 0,5.282306 0,10.564611 0,15.846917 6.963035,0 13.926068,0 20.889103,0 0,0.960416 0,1.920832 0,2.881249 -10.564597,0 -21.129207,0 -31.693803,0 z m 4.321874,-2.160937 c 0,-11.765131 0,-23.530263 0,-35.295394 -0.720312,0 -1.440625,0 -2.160937,0 0,11.765131 0,23.530263 0,35.295394 0.720312,0 1.440625,0 2.160937,0 z m 32.41413,2.160937 c 0,-12.965651 0,-25.931305 0,-38.896956 2.401045,0 4.802095,0 7.203135,0 0,12.965651 0,25.931305 0,38.896956 -2.40104,0 -4.80209,0 -7.203135,0 z m 2.881265,-2.160937 c 0,-11.765131 0,-23.530263 0,-35.295394 -0.72031,0 -1.44064,0 -2.160953,0 0,11.765131 0,23.530263 0,35.295394 0.720313,0 1.440643,0 2.160953,0 z" />
                     <path fill="#00000" d="m 346.3,6.7 c -3.1,0.5 -4.9,4.4 -2.7,6.8 1.2,1.4 2.7,2.4 4.1,3.5 -2.4,5.3 -7.7,8.3 -11.9,12.1 -3.7,2.8 -7,6.2 -9.7,9.9 -2.2,-0.8 -0.3,-6.8 -0.6,-9.5 0.1,-3.1 0.7,-6.4 2.9,-8.7 1.3,-1.9 3,-3.5 4.5,-5.2 1.2,-3.4 -3.2,-4.9 -5.8,-4.6 -7.3,-0.5 -14.6,2 -20,6.8 -5,4.6 -10,10.1 -11.5,17 -0.9,3.5 -0.2,7.5 2.8,9.9 2.5,2.8 7.4,2.9 9.8,-0.2 1.7,-2.3 3.2,-4.8 3.8,-7.6 -0.1,-2.6 -4.4,-2.3 -4.3,0.2 1.2,2.4 -0.9,4.7 -2.7,6.2 -1.7,0.9 -4.7,0.7 -4.8,-1.7 -1,-5.8 2.1,-11.3 5.2,-16.1 4,-5.8 9.8,-11.2 17.2,-11.8 1.6,0 8.1,-1.2 6.8,1.4 -2.8,2.8 -5.6,6.1 -6,10.3 -1.6,7.7 0.1,15.7 -2.3,23.2 -1.1,3.9 2,2.6 2.5,0.2 3.3,-7.4 8.9,-13.4 15.1,-18.5 4.2,-3.9 9.5,-7.1 11.9,-12.6 1.3,-3.6 1.2,-9 -2.7,-10.9 -0.6,-0.2 -1.2,-0.3 -1.8,-0.3 z m 66,14.5 c -2,0.8 -1.8,4.9 0.8,4.4 3.4,0.4 2.9,-6.2 -0.8,-4.4 z m 0.6,7.3 c -1.3,0.5 -7.6,0.5 -5.4,2.2 4,-0.3 0.7,4.5 0.6,6.7 -0.4,2.9 -2.4,5.9 -1.2,8.8 2.7,1.7 5.6,-0.8 6.8,-3.2 1.6,-1.4 -0.5,-3 -1.2,-0.9 -0.4,0.8 -2.4,3.5 -2.6,1.8 1.1,-5 2.7,-9.9 3.9,-14.9 l -0.1,-0.5 h -0.9 z m -65.1,0.2 c -6.5,1.6 -10.5,9.5 -8.2,15.7 2.1,3.4 7.4,2.9 10.1,0.4 2,-0.2 3.6,-5.3 1,-3.4 -1.4,2 -4,4.2 -6.5,2.8 -2.2,-1.9 -1.9,-5.7 1.7,-5.3 3.1,-0.9 6.9,-2.1 8.1,-5.5 0.9,-2.7 -1.6,-5.2 -4.3,-4.8 h -1.1 -0.7 z m 13.6,0 c -2.2,0 -8.5,1.8 -2.9,2.3 0.9,1.9 -1,4.9 -1.1,7.2 -0.5,2.9 -1.4,5.7 -1.7,8.7 3.7,0.7 3.8,-2.6 4.4,-5.3 0.9,-3.3 1.6,-7 4.1,-9.5 2.4,1.6 6.8,-0.7 3.7,-3.4 -2.9,-0.5 -4.8,2.4 -6.2,4.3 0,-1.2 2.4,-5 -0.2,-4.3 z m 15.8,0 c -6.4,1.3 -9.6,9.1 -7.7,14.9 1.9,4 7.7,3.9 11,1.7 4.1,-3 6,-8.9 4.4,-13.7 -1.3,-3 -4.8,-3.2 -7.6,-3 z m 17,0 c -2.3,0 -8.8,1.9 -3,2.4 0.4,2.5 -1,5.7 -1.4,8.4 -0.7,2.4 -1.8,7.5 2.1,7.2 3.8,-0.1 6.5,-3.5 8.5,-6.3 2,-3.2 4.5,-7 3.3,-10.9 -3.7,-3 -3.6,2.6 -3.1,5.1 -0.7,3.8 -2.7,7.9 -6.2,9.8 -3.6,0.6 -1,-4.3 -0.8,-6.1 0.6,-3.2 1.6,-6.3 1.9,-9.5 -0.4,0 -0.8,0 -1.1,0 z m 30.6,0 c -6.3,1.2 -9.5,8.9 -7.8,14.7 1.5,4 7.2,4.2 10.5,2.4 4.6,-2.8 6.6,-9.3 4.8,-14.3 -1.4,-2.8 -4.8,-3 -7.5,-2.8 z m -75.4,1.7 c 2.1,1.5 0.2,4.7 -1.6,5.7 -1.1,0.4 -5.5,3.4 -4.6,0.7 0.8,-2.7 2.2,-6.2 5.3,-6.6 l 0.9,0.1 z m 30.8,0 c 2.6,1.5 1.3,5.2 0.8,7.6 -0.8,2.7 -1.9,5.9 -4.7,7.1 -5.1,0.8 -4,-5.8 -2.8,-8.8 1,-2.8 3,-6.8 6.7,-5.8 z m 47.1,-0.1 c 2.9,0.7 2,4.7 1.5,6.8 -0.7,3 -1.8,6.7 -5,8 -4.7,0.8 -4,-5.1 -3,-7.9 0.9,-3 2.7,-7.3 6.5,-6.8 z m -88.1,5.9 c -0.3,1.3 0.9,-0.6 0,0 z m -1.1,2.4 c -0.2,0.5 0.5,-0.1 0,0 z m -1.3,4.5 c -0.3,1.3 0.8,-0.2 0,0 z" />
                     <text y="41" x="201" fill="#00000" style="font-style:italic;font-weight:normal;font-size:30px;line-height:125%;font-family:Times;text-anchor:middle" xml:space="preserve">engraved with</text>
                  </g>
               </g>
            </g>
         </g>
      </g>
   </svg>
</svg>
