<?xml version="1.0" encoding="UTF-8" standalone="no"?>
<svg width="2100px" height="2970px" version="1.1" xmlns="http://www.w3.org/2000/svg" xmlns:xlink="http://www.w3.org/1999/xlink" xmlns:mei="http://www.music-encoding.org/ns/mei" overflow="visible">
   <desc>Engraved by Verovio 3.13.1</desc>
   <defs>
      <symbol id="E044-1fg1sd9" viewBox="0 0 1000 1000" overflow="inherit">
         <path transform="scale(1,-1)" d="M0 0c0 28 22 50 50 50s50 -22 50 -50s-22 -50 -50 -50s-50 22 -50 50z" />
      </symbol>
      <symbol id="E050-1fg1sd9" viewBox="0 0 1000 1000" overflow="inherit">
         <path transform="scale(1,-1)" d="M441 -245c-23 -4 -48 -6 -76 -6c-59 0 -102 7 -130 20c-88 42 -150 93 -187 154c-26 44 -43 103 -48 176c0 6 -1 13 -1 19c0 54 15 111 45 170c29 57 65 106 110 148s96 85 153 127c-3 16 -8 46 -13 92c-4 43 -5 73 -5 89c0 117 16 172 69 257c34 54 64 82 89 82 c21 0 43 -30 69 -92s39 -115 41 -159v-15c0 -109 -21 -162 -67 -241c-13 -20 -63 -90 -98 -118c-13 -9 -25 -19 -37 -29l31 -181c8 1 18 2 28 2c58 0 102 -12 133 -35c59 -43 92 -104 98 -184c1 -7 1 -15 1 -22c0 -123 -87 -209 -181 -248c8 -57 17 -110 25 -162 c5 -31 6 -58 6 -80c0 -30 -5 -53 -14 -70c-35 -64 -88 -99 -158 -103c-5 0 -11 -1 -16 -1c-37 0 -72 10 -108 27c-50 24 -77 59 -80 105v11c0 29 7 55 20 76c18 28 45 42 79 44h6c49 0 93 -42 97 -87v-9c0 -51 -34 -86 -105 -106c17 -24 51 -36 102 -36c62 0 116 43 140 85 c9 16 13 41 13 74c0 20 -1 42 -5 67c-8 53 -18 106 -26 159zM461 939c-95 0 -135 -175 -135 -286c0 -24 2 -48 5 -71c50 39 92 82 127 128c40 53 60 100 60 140v8c-4 53 -22 81 -55 81h-2zM406 119l54 -326c73 25 110 78 110 161c0 7 0 15 -1 23c-7 95 -57 142 -151 142h-12 zM382 117c-72 -2 -128 -47 -128 -120v-7c2 -46 43 -99 75 -115c-3 -2 -7 -5 -10 -10c-70 33 -116 88 -123 172v11c0 68 44 126 88 159c23 17 49 29 78 36l-29 170c-21 -13 -52 -37 -92 -73c-50 -44 -86 -84 -109 -119c-45 -69 -67 -130 -67 -182v-13c5 -68 35 -127 93 -176 s125 -73 203 -73c25 0 50 3 75 9c-19 111 -36 221 -54 331z" />
      </symbol>
      <symbol id="E081-1fg1sd9" viewBox="0 0 1000 1000" overflow="inherit">
         <path transform="scale(1,-1)" d="M68 -250v36c23 0 40 6 49 18c8 14 12 33 12 57v250l-82 -129l-27 13l107 255h128v-394c0 -24 5 -42 14 -53s25 -17 47 -17v-36h-248z" />
      </symbol>
      <symbol id="E082-1fg1sd9" viewBox="0 0 1000 1000" overflow="inherit">
         <path transform="scale(1,-1)" d="M124 -185c-18 0 -55 -14 -65 -65h-36l-3 30c0 25 6 45 18 63c11 19 22 30 39 43l121 82l37 29c15 11 27 29 38 54c12 24 18 47 18 70c0 40 -19 88 -94 88c-25 0 -32 0 -50 -8c-14 -5 -23 -12 -26 -22c3 -9 7 -15 10 -18l24 -17c12 -7 17 -11 27 -21c5 -7 7 -16 7 -27 c0 -12 0 -57 -79 -74c-30 0 -76 26 -76 94c0 66 81 135 197 135c72 0 181 -32 181 -150c0 -53 -32 -95 -113 -133l-91 -41c-26 -11 -45 -23 -57 -37l49 7c84 0 115 -41 148 -41c20 0 33 20 39 61h35c0 -152 -68 -168 -114 -168c-17 0 -65 0 -79 7h10l-28 17 c-49 37 -69 40 -87 42z" />
      </symbol>
      <symbol id="E084-1fg1sd9" viewBox="0 0 1000 1000" overflow="inherit">
         <path transform="scale(1,-1)" d="M20 -78c84 97 114 180 134 329h170c-13 -32 -82 -132 -99 -151l-84 -97c-33 -36 -59 -63 -80 -81h162v102l127 123v-225h57v-39h-57v-34c0 -43 19 -65 57 -65v-34h-244v36c48 0 60 26 60 70v27h-203v39z" />
      </symbol>
      <symbol id="E0A4-1fg1sd9" viewBox="0 0 1000 1000" overflow="inherit">
         <path transform="scale(1,-1)" d="M0 -39c0 68 73 172 200 172c66 0 114 -37 114 -95c0 -84 -106 -171 -218 -171c-64 0 -96 30 -96 94z" />
      </symbol>
   </defs>
   <style type="text/css">g.page-margin{font-family:Times;} g.ending, g.fing, g.reh, g.tempo{font-weight:bold;} g.dir, g.dynam, g.mNum{font-style:italic;} g.label{font-weight:normal;}</style>
   <svg class="definition-scale" color="black" viewBox="0 0 21000 29700">
      <g class="page-margin" transform="translate(500, 500)">
         <g id="m1im047i" class="mdiv pageMilestone" />
         <g id="s14f1w33" class="score pageMilestone" />
         <g id="s2etvxu" class="system">
            <g id="lg4xkml" class="label">
               <text x="1105" y="1535" text-anchor="end" font-size="0px">
                  <tspan id="t1xwm0bc" class="text">
                     <tspan font-size="405px" class="text">Piano</tspan>
                  </tspan>
               </text>
            </g>
            <g id="s19c7v3w" class="section systemMilestone" />
            <g id="pfnba9g" class="pb" />
            <g id="mbyylkx" class="measure">
               <g id="mlt6w18" class="mNum">
                  <text x="1285" y="842" text-anchor="middle" font-size="0px" />
               </g>
               <g id="s1bbdp9q" class="staff">
                  <path d="M1285 1085 L3844 1085" stroke="currentColor" stroke-width="13" />
                  <path d="M1285 1265 L3844 1265" stroke="currentColor" stroke-width="13" />
                  <path d="M1285 1445 L3844 1445" stroke="currentColor" stroke-width="13" />
                  <path d="M1285 1625 L3844 1625" stroke="currentColor" stroke-width="13" />
                  <path d="M1285 1805 L3844 1805" stroke="currentColor" stroke-width="13" />
                  <g id="c1etg159" class="clef">
                     <use xlink:href="#E050-1fg1sd9" x="1375" y="1625" height="720px" width="720px" />
                  </g>
                  <g id="kn4cpf4" class="keySig" />
                  <g id="m1kn5gwj" class="meterSig">
                     <use xlink:href="#E082-1fg1sd9" x="2006" y="1265" height="720px" width="720px" />
                     <use xlink:href="#E084-1fg1sd9" x="2011" y="1625" height="720px" width="720px" />
                  </g>
                  <g id="lhqofiu" class="layer">
                     <g id="b1a07ujr" class="beam">
                        <polygon points="2581,1895 3492,2075 3492,1985 2581,1805" />
                        <polygon points="3126,1869 3492,1940 3492,1850 3126,1779" />
                        <g id="n1g61xcl" class="note">
                           <g class="notehead">
                              <use xlink:href="#E0A4-1fg1sd9" x="2581" y="1265" height="720px" width="720px" />
                           </g>
                           <g id="s11t1ay4" class="stem">
                              <rect x="2581" y="1293" height="584" width="18" />
                           </g>
                        </g>
                        <g id="n8chk8h" class="note">
                           <g class="notehead">
                              <use xlink:href="#E0A4-1fg1sd9" x="3117" y="1355" height="720px" width="720px" />
                           </g>
                           <g id="scj9xje" class="stem">
                              <rect x="3117" y="1383" height="603" width="18" />
                           </g>
                        </g>
                        <g id="n1h98ubq" class="note">
                           <g class="notehead">
                              <use xlink:href="#E0A4-1fg1sd9" x="3474" y="1445" height="720px" width="720px" />
                           </g>
                           <g id="s17424s2" class="stem">
                              <rect x="3474" y="1473" height="584" width="18" />
                           </g>
                        </g>
                     </g>
                  </g>
               </g>
               <g id="bykc75q" class="barLine">
                  <path d="M3831 1085 L3831 1805" stroke="currentColor" stroke-width="27" />
               </g>
            </g>
            <g id="mawqfit" class="measure">
               <g id="sirhp8l" class="staff">
                  <path d="M3844 1085 L6159 1085" stroke="currentColor" stroke-width="13" />
                  <path d="M3844 1265 L6159 1265" stroke="currentColor" stroke-width="13" />
                  <path d="M3844 1445 L6159 1445" stroke="currentColor" stroke-width="13" />
                  <path d="M3844 1625 L6159 1625" stroke="currentColor" stroke-width="13" />
                  <path d="M3844 1805 L6159 1805" stroke="currentColor" stroke-width="13" />
                  <g id="lmlzyif" class="layer">
                     <g id="bt6f73o" class="beam">
                        <polygon points="4234,905 4943,815 4943,905 4234,995" />
                        <polygon points="4717,978 4943,950 4943,1040 4717,1068" />
                        <g id="n1ltn44g" class="note">
                           <g class="notehead">
                              <use xlink:href="#E0A4-1fg1sd9" x="4026" y="1535" height="720px" width="720px" />
                           </g>
                           <g id="drgree0" class="dots">
                              <ellipse cx="4342" cy="1535" rx="36" ry="36" />
                           </g>
                           <g id="s1fgmlm1" class="stem">
                              <rect x="4234" y="923" height="584" width="18" />
                           </g>
                        </g>
                        <g id="n125k9uw" class="note">
                           <g class="notehead">
                              <use xlink:href="#E0A4-1fg1sd9" x="4717" y="1445" height="720px" width="720px" />
                           </g>
                           <g id="sq4q73i" class="stem">
                              <rect x="4925" y="833" height="584" width="18" />
                           </g>
                        </g>
                     </g>
                     <g id="btqy10w" class="beam">
                        <polygon points="5074,2030 5628,1985 5628,1895 5074,1940" />
                        <g id="n1qvq6dw" class="note">
                           <g class="notehead">
                              <use xlink:href="#E0A4-1fg1sd9" x="5074" y="1355" height="720px" width="720px" />
                           </g>
                           <g id="s154iyac" class="stem">
                              <rect x="5074" y="1383" height="629" width="18" />
                           </g>
                        </g>
                        <g id="n1vpee2a" class="note">
                           <g class="notehead">
                              <use xlink:href="#E0A4-1fg1sd9" x="5610" y="1265" height="720px" width="720px" />
                           </g>
                           <g id="sbhdybl" class="stem">
                              <rect x="5610" y="1293" height="674" width="18" />
                           </g>
                        </g>
                     </g>
                  </g>
               </g>
               <g id="b8w0pto" class="barLine">
                  <path d="M6146 1085 L6146 1805" stroke="currentColor" stroke-width="27" />
               </g>
            </g>
            <g id="mncuc1l" class="measure">
               <g id="slyqwv6" class="staff">
                  <path d="M6159 1085 L8676 1085" stroke="currentColor" stroke-width="13" />
                  <path d="M6159 1265 L8676 1265" stroke="currentColor" stroke-width="13" />
                  <path d="M6159 1445 L8676 1445" stroke="currentColor" stroke-width="13" />
                  <path d="M6159 1625 L8676 1625" stroke="currentColor" stroke-width="13" />
                  <path d="M6159 1805 L8676 1805" stroke="currentColor" stroke-width="13" />
                  <g id="l1jai9uo" class="layer">
                     <g id="b1vfapj7" class="beam">
                        <polygon points="6341,1985 6895,2030 6895,1940 6341,1895" />
                        <g id="n1yv17m1" class="note">
                           <g class="notehead">
                              <use xlink:href="#E0A4-1fg1sd9" x="6341" y="1265" height="720px" width="720px" />
                           </g>
                           <g id="s1b77ei6" class="stem">
                              <rect x="6341" y="1293" height="674" width="18" />
                           </g>
                        </g>
                        <g id="n11sx8po" class="note">
                           <g class="notehead">
                              <use xlink:href="#E0A4-1fg1sd9" x="6877" y="1355" height="720px" width="720px" />
                           </g>
                           <g id="s1svf4m1" class="stem">
                              <rect x="6877" y="1383" height="629" width="18" />
                           </g>
                        </g>
                     </g>
                     <g id="bnclnb" class="beam">
                        <polygon points="7413,1895 8324,2075 8324,1985 7413,1805" />
                        <polygon points="7958,1869 8324,1940 8324,1850 7958,1779" />
                        <g id="nm7g30n" class="note">
                           <g class="notehead">
                              <use xlink:href="#E0A4-1fg1sd9" x="7413" y="1265" height="720px" width="720px" />
                           </g>
                           <g id="s1wc17um" class="stem">
                              <rect x="7413" y="1293" height="584" width="18" />
                           </g>
                        </g>
                        <g id="n11uzi7i" class="note">
                           <g class="notehead">
                              <use xlink:href="#E0A4-1fg1sd9" x="7949" y="1355" height="720px" width="720px" />
                           </g>
                           <g id="sk2jhj0" class="stem">
                              <rect x="7949" y="1383" height="603" width="18" />
                           </g>
                        </g>
                        <g id="n1daqtgq" class="note">
                           <g class="notehead">
                              <use xlink:href="#E0A4-1fg1sd9" x="8306" y="1445" height="720px" width="720px" />
                           </g>
                           <g id="stkwiqx" class="stem">
                              <rect x="8306" y="1473" height="584" width="18" />
                           </g>
                        </g>
                     </g>
                  </g>
               </g>
               <g id="bzk5d5w" class="barLine">
                  <path d="M8663 1085 L8663 1805" stroke="currentColor" stroke-width="27" />
               </g>
            </g>
            <g id="milr573" class="measure">
               <g id="s17e6iyf" class="staff">
                  <path d="M8676 1085 L10991 1085" stroke="currentColor" stroke-width="13" />
                  <path d="M8676 1265 L10991 1265" stroke="currentColor" stroke-width="13" />
                  <path d="M8676 1445 L10991 1445" stroke="currentColor" stroke-width="13" />
                  <path d="M8676 1625 L10991 1625" stroke="currentColor" stroke-width="13" />
                  <path d="M8676 1805 L10991 1805" stroke="currentColor" stroke-width="13" />
                  <g id="l18djlnc" class="layer">
                     <g id="b86ppmg" class="beam">
                        <polygon points="9066,905 9775,815 9775,905 9066,995" />
                        <polygon points="9549,978 9775,950 9775,1040 9549,1068" />
                        <g id="n1rre9nd" class="note">
                           <g class="notehead">
                              <use xlink:href="#E0A4-1fg1sd9" x="8858" y="1535" height="720px" width="720px" />
                           </g>
                           <g id="de53cfj" class="dots">
                              <ellipse cx="9174" cy="1535" rx="36" ry="36" />
                           </g>
                           <g id="s1d5mej7" class="stem">
                              <rect x="9066" y="923" height="584" width="18" />
                           </g>
                        </g>
                        <g id="n1rcfk2j" class="note">
                           <g class="notehead">
                              <use xlink:href="#E0A4-1fg1sd9" x="9549" y="1445" height="720px" width="720px" />
                           </g>
                           <g id="srxuiwu" class="stem">
                              <rect x="9757" y="833" height="584" width="18" />
                           </g>
                        </g>
                     </g>
                     <g id="bbd1i2" class="beam">
                        <polygon points="9906,2030 10460,1985 10460,1895 9906,1940" />
                        <g id="njowohd" class="note">
                           <g class="notehead">
                              <use xlink:href="#E0A4-1fg1sd9" x="9906" y="1355" height="720px" width="720px" />
                           </g>
                           <g id="snsd97w" class="stem">
                              <rect x="9906" y="1383" height="629" width="18" />
                           </g>
                        </g>
                        <g id="nta9rj9" class="note">
                           <g class="notehead">
                              <use xlink:href="#E0A4-1fg1sd9" x="10442" y="1265" height="720px" width="720px" />
                           </g>
                           <g id="s10i9uxz" class="stem">
                              <rect x="10442" y="1293" height="674" width="18" />
                           </g>
                        </g>
                     </g>
                  </g>
               </g>
               <g id="bdtpjv6" class="barLine">
                  <path d="M10978 1085 L10978 1805" stroke="currentColor" stroke-width="27" />
               </g>
            </g>
            <g id="m16suhbd" class="measure">
               <g id="sktxwyp" class="staff">
                  <path d="M10991 1085 L13081 1085" stroke="currentColor" stroke-width="13" />
                  <path d="M10991 1265 L13081 1265" stroke="currentColor" stroke-width="13" />
                  <path d="M10991 1445 L13081 1445" stroke="currentColor" stroke-width="13" />
                  <path d="M10991 1625 L13081 1625" stroke="currentColor" stroke-width="13" />
                  <path d="M10991 1805 L13081 1805" stroke="currentColor" stroke-width="13" />
                  <g id="mtsz6qk" class="meterSig">
                     <use xlink:href="#E081-1fg1sd9" x="11100" y="1265" height="720px" width="720px" />
                     <use xlink:href="#E084-1fg1sd9" x="11067" y="1625" height="720px" width="720px" />
                  </g>
                  <g id="l1n8bab5" class="layer">
                     <g id="bfhknlw" class="beam">
                        <polygon points="11631,1985 12185,2030 12185,1940 11631,1895" />
                        <g id="n12hf3dd" class="note">
                           <g class="notehead">
                              <use xlink:href="#E0A4-1fg1sd9" x="11631" y="1265" height="720px" width="720px" />
                           </g>
                           <g id="s1swyyrn" class="stem">
                              <rect x="11631" y="1293" height="674" width="18" />
                           </g>
                        </g>
                        <g id="n180hmi2" class="note">
                           <g class="notehead">
                              <use xlink:href="#E0A4-1fg1sd9" x="12167" y="1355" height="720px" width="720px" />
                           </g>
                           <g id="sdshm6f" class="stem">
                              <rect x="12167" y="1383" height="629" width="18" />
                           </g>
                        </g>
                     </g>
                  </g>
               </g>
               <g id="b1f7bvbp" class="barLine">
                  <path d="M12703 1085 L12703 1805" stroke="currentColor" stroke-width="27" />
                  <path d="M12833 1085 L12833 1805" stroke="currentColor" stroke-width="90" />
                  <path d="M12964 1085 L12964 1805" stroke="currentColor" stroke-width="27" />
                  <use xlink:href="#E044-1fg1sd9" x="13009" y="1355" height="720px" width="720px" />
                  <use xlink:href="#E044-1fg1sd9" x="13009" y="1535" height="720px" width="720px" />
                  <use xlink:href="#E044-1fg1sd9" x="12586" y="1355" height="720px" width="720px" />
                  <use xlink:href="#E044-1fg1sd9" x="12586" y="1535" height="720px" width="720px" />
               </g>
            </g>
            <g id="m1e2s3sz" class="measure">
               <g id="sba1v2o" class="staff">
                  <path d="M13081 1085 L14526 1085" stroke="currentColor" stroke-width="13" />
                  <path d="M13081 1265 L14526 1265" stroke="currentColor" stroke-width="13" />
                  <path d="M13081 1445 L14526 1445" stroke="currentColor" stroke-width="13" />
                  <path d="M13081 1625 L14526 1625" stroke="currentColor" stroke-width="13" />
                  <path d="M13081 1805 L14526 1805" stroke="currentColor" stroke-width="13" />
                  <g id="ljfhxu2" class="layer">
                     <g id="b1ptc8gq" class="beam">
                        <polygon points="13263,1895 14174,2075 14174,1985 13263,1805" />
                        <polygon points="13808,1869 14174,1940 14174,1850 13808,1779" />
                        <g id="n8hjfe7" class="note">
                           <g class="notehead">
                              <use xlink:href="#E0A4-1fg1sd9" x="13263" y="1265" height="720px" width="720px" />
                           </g>
                           <g id="styiyjb" class="stem">
                              <rect x="13263" y="1293" height="584" width="18" />
                           </g>
                        </g>
                        <g id="ny85bbd" class="note">
                           <g class="notehead">
                              <use xlink:href="#E0A4-1fg1sd9" x="13799" y="1355" height="720px" width="720px" />
                           </g>
                           <g id="s1ilsqfp" class="stem">
                              <rect x="13799" y="1383" height="603" width="18" />
                           </g>
                        </g>
                        <g id="n2bzvtg" class="note">
                           <g class="notehead">
                              <use xlink:href="#E0A4-1fg1sd9" x="14156" y="1445" height="720px" width="720px" />
                           </g>
                           <g id="syojdff" class="stem">
                              <rect x="14156" y="1473" height="584" width="18" />
                           </g>
                        </g>
                     </g>
                  </g>
               </g>
               <g id="bgq1k45" class="barLine">
                  <path d="M14513 1085 L14513 1805" stroke="currentColor" stroke-width="27" />
               </g>
            </g>
            <g id="mus46px" class="measure">
               <g id="s1cd5w32" class="staff">
                  <path d="M14526 1085 L17310 1085" stroke="currentColor" stroke-width="13" />
                  <path d="M14526 1265 L17310 1265" stroke="currentColor" stroke-width="13" />
                  <path d="M14526 1445 L17310 1445" stroke="currentColor" stroke-width="13" />
                  <path d="M14526 1625 L17310 1625" stroke="currentColor" stroke-width="13" />
                  <path d="M14526 1805 L17310 1805" stroke="currentColor" stroke-width="13" />
                  <g id="m4tzk8y" class="meterSig">
                     <use xlink:href="#E082-1fg1sd9" x="14602" y="1265" height="720px" width="720px" />
                     <use xlink:href="#E084-1fg1sd9" x="14607" y="1625" height="720px" width="720px" />
                  </g>
                  <g id="l1fdetqz" class="layer">
                     <g id="bezhly1" class="beam">
                        <polygon points="15385,905 16094,995 16094,1085 15385,995" />
                        <polygon points="15868,1103 16094,1130 16094,1220 15868,1193" />
                        <g id="n4j22rb" class="note">
                           <g class="notehead">
                              <use xlink:href="#E0A4-1fg1sd9" x="15177" y="1535" height="720px" width="720px" />
                           </g>
                           <g id="d1blsadx" class="dots">
                              <ellipse cx="15493" cy="1535" rx="36" ry="36" />
                           </g>
                           <g id="s1ixa6n7" class="stem">
                              <rect x="15385" y="923" height="584" width="18" />
                           </g>
                        </g>
                        <g id="n1r7ojn1" class="note">
                           <g class="notehead">
                              <use xlink:href="#E0A4-1fg1sd9" x="15868" y="1625" height="720px" width="720px" />
                           </g>
                           <g id="s1ljcfkt" class="stem">
                              <rect x="16076" y="1013" height="584" width="18" />
                           </g>
                        </g>
                     </g>
                     <g id="b1pqm90" class="beam">
                        <polygon points="16433,995 16987,950 16987,1040 16433,1085" />
                        <g id="ngz3m5k" class="note">
                           <g class="notehead">
                              <use xlink:href="#E0A4-1fg1sd9" x="16225" y="1715" height="720px" width="720px" />
                           </g>
                           <g id="skv0v8e" class="stem">
                              <rect x="16433" y="1013" height="674" width="18" />
                           </g>
                        </g>
                        <g id="nxt71u3" class="note">
                           <g class="notehead">
                              <use xlink:href="#E0A4-1fg1sd9" x="16761" y="1625" height="720px" width="720px" />
                           </g>
                           <g id="snop2hl" class="stem">
                              <rect x="16969" y="968" height="629" width="18" />
                           </g>
                        </g>
                     </g>
                  </g>
               </g>
               <g id="b1y0b52w" class="barLine">
                  <path d="M17297 1085 L17297 1805" stroke="currentColor" stroke-width="27" />
               </g>
            </g>
            <g id="mjpdn6" class="measure">
               <g id="srrk145" class="staff">
                  <path d="M17310 1085 L20005 1085" stroke="currentColor" stroke-width="13" />
                  <path d="M17310 1265 L20005 1265" stroke="currentColor" stroke-width="13" />
                  <path d="M17310 1445 L20005 1445" stroke="currentColor" stroke-width="13" />
                  <path d="M17310 1625 L20005 1625" stroke="currentColor" stroke-width="13" />
                  <path d="M17310 1805 L20005 1805" stroke="currentColor" stroke-width="13" />
                  <g id="l1ag35zf" class="layer">
                     <g id="b1cshq2i" class="beam">
                        <polygon points="17492,2165 18224,1985 18224,1895 17492,2075" />
                        <polygon points="17492,2030 17858,1940 17858,1850 17492,1940" />
                        <g id="nm90qdk" class="note">
                           <g class="notehead">
                              <use xlink:href="#E0A4-1fg1sd9" x="17492" y="1535" height="720px" width="720px" />
                           </g>
                           <g id="s15wbk20" class="stem">
                              <rect x="17492" y="1563" height="584" width="18" />
                           </g>
                        </g>
                        <g id="n19tcknf" class="note">
                           <g class="notehead">
                              <use xlink:href="#E0A4-1fg1sd9" x="17849" y="1445" height="720px" width="720px" />
                           </g>
                           <g id="sxci9zk" class="stem">
                              <rect x="17849" y="1473" height="584" width="18" />
                           </g>
                        </g>
                        <g id="nh1gxbc" class="note">
                           <g class="notehead">
                              <use xlink:href="#E0A4-1fg1sd9" x="18206" y="1355" height="720px" width="720px" />
                           </g>
                           <g id="s1alipva" class="stem">
                              <rect x="18206" y="1383" height="584" width="18" />
                           </g>
                        </g>
                     </g>
                     <g id="bmhqav8" class="beam">
                        <polygon points="18742,1895 19653,2075 19653,1985 18742,1805" />
                        <polygon points="19287,1869 19653,1940 19653,1850 19287,1779" />
                        <g id="n1yonkk6" class="note">
                           <g class="notehead">
                              <use xlink:href="#E0A4-1fg1sd9" x="18742" y="1265" height="720px" width="720px" />
                           </g>
                           <g id="sytqtlh" class="stem">
                              <rect x="18742" y="1293" height="584" width="18" />
                           </g>
                        </g>
                        <g id="n1ufq342" class="note">
                           <g class="notehead">
                              <use xlink:href="#E0A4-1fg1sd9" x="19278" y="1355" height="720px" width="720px" />
                           </g>
                           <g id="s1xds9o8" class="stem">
                              <rect x="19278" y="1383" height="603" width="18" />
                           </g>
                        </g>
                        <g id="nhr4b92" class="note">
                           <g class="notehead">
                              <use xlink:href="#E0A4-1fg1sd9" x="19635" y="1445" height="720px" width="720px" />
                           </g>
                           <g id="s1a3sred" class="stem">
                              <rect x="19635" y="1473" height="584" width="18" />
                           </g>
                        </g>
                     </g>
                  </g>
               </g>
               <g id="b1xz7v7h" class="barLine">
                  <path d="M19992 1085 L19992 1805" stroke="currentColor" stroke-width="27" />
               </g>
            </g>
            <g id="sbtff0y" class="sb" />
         </g>
         <g id="s13x7es5" class="system">
            <g id="l1co8qcg" class="labelAbbr">
               <text x="914" y="3875" text-anchor="end" font-size="0px">
                  <tspan id="t11foho8" class="text">
                     <tspan font-size="405px" class="text">Pno.</tspan>
                  </tspan>
               </text>
            </g>
            <g id="m1ridior" class="measure">
               <g id="mfz1kyp" class="mNum autogenerated">
                  <text x="1094" y="3182" text-anchor="middle" font-size="0px">
                     <tspan id="tfjv859" class="text">
                        <tspan font-size="324px" class="text">8</tspan>
                     </tspan>
                  </text>
               </g>
               <g id="s15rozp1" class="staff">
                  <path d="M1094 3425 L4028 3425" stroke="currentColor" stroke-width="13" />
                  <path d="M1094 3605 L4028 3605" stroke="currentColor" stroke-width="13" />
                  <path d="M1094 3785 L4028 3785" stroke="currentColor" stroke-width="13" />
                  <path d="M1094 3965 L4028 3965" stroke="currentColor" stroke-width="13" />
                  <path d="M1094 4145 L4028 4145" stroke="currentColor" stroke-width="13" />
                  <g id="c191pf5n" class="clef">
                     <use xlink:href="#E050-1fg1sd9" x="1184" y="3965" height="720px" width="720px" />
                  </g>
                  <g id="kdch1ew" class="keySig" />
                  <g id="lll64st" class="layer">
                     <g id="bw26r61" class="beam">
                        <polygon points="2127,3245 2828,3335 2828,3425 2127,3335" />
                        <polygon points="2602,3443 2828,3470 2828,3560 2602,3533" />
                        <g id="n138btr7" class="note">
                           <g class="notehead">
                              <use xlink:href="#E0A4-1fg1sd9" x="1919" y="3875" height="720px" width="720px" />
                           </g>
                           <g id="duqw9ud" class="dots">
                              <ellipse cx="2235" cy="3875" rx="36" ry="36" />
                           </g>
                           <g id="syditl1" class="stem">
                              <rect x="2127" y="3263" height="584" width="18" />
                           </g>
                        </g>
                        <g id="nvbq85g" class="note">
                           <g class="notehead">
                              <use xlink:href="#E0A4-1fg1sd9" x="2602" y="3965" height="720px" width="720px" />
                           </g>
                           <g id="s1kycaad" class="stem">
                              <rect x="2810" y="3353" height="584" width="18" />
                           </g>
                        </g>
                     </g>
                     <g id="b4qt662" class="beam">
                        <polygon points="3163,3380 3711,3425 3711,3515 3163,3470" />
                        <g id="n1nuz47i" class="note">
                           <g class="notehead">
                              <use xlink:href="#E0A4-1fg1sd9" x="2955" y="4055" height="720px" width="720px" />
                           </g>
                           <g id="s1vkdp2h" class="stem">
                              <rect x="3163" y="3398" height="629" width="18" />
                           </g>
                        </g>
                        <g id="nzpjqbf" class="note">
                           <g class="notehead">
                              <use xlink:href="#E0A4-1fg1sd9" x="3485" y="4145" height="720px" width="720px" />
                           </g>
                           <g id="s1f4r59k" class="stem">
                              <rect x="3693" y="3443" height="674" width="18" />
                           </g>
                        </g>
                     </g>
                  </g>
               </g>
               <g id="brqy0w2" class="barLine">
                  <path d="M4015 3425 L4015 4145" stroke="currentColor" stroke-width="27" />
               </g>
            </g>
            <g id="mdig09x" class="measure">
               <g id="s1pmpnzr" class="staff">
                  <path d="M4028 3425 L5654 3425" stroke="currentColor" stroke-width="13" />
                  <path d="M4028 3605 L5654 3605" stroke="currentColor" stroke-width="13" />
                  <path d="M4028 3785 L5654 3785" stroke="currentColor" stroke-width="13" />
                  <path d="M4028 3965 L5654 3965" stroke="currentColor" stroke-width="13" />
                  <path d="M4028 4145 L5654 4145" stroke="currentColor" stroke-width="13" />
                  <g id="m1hoz1yl" class="meterSig">
                     <use xlink:href="#E081-1fg1sd9" x="4137" y="3605" height="720px" width="720px" />
                     <use xlink:href="#E084-1fg1sd9" x="4104" y="3965" height="720px" width="720px" />
                  </g>
                  <g id="lgc0il" class="layer">
                     <g id="nz1g6eb" class="note">
                        <g class="notehead">
                           <use xlink:href="#E0A4-1fg1sd9" x="4666" y="4235" height="720px" width="720px" />
                        </g>
                        <g id="s1mtaxt6" class="stem">
                           <rect x="4874" y="3605" height="602" width="18" />
                        </g>
                     </g>
                  </g>
               </g>
               <g id="b1676tnz" class="barLine">
                  <path d="M5479 3425 L5479 4145" stroke="currentColor" stroke-width="27" />
                  <path d="M5609 3425 L5609 4145" stroke="currentColor" stroke-width="90" />
               </g>
            </g>
            <g id="s1ivz03n" class="systemMilestoneEnd s19c7v3w" />
         </g>
         <g id="pp6m5la" class="pageMilestoneEnd s14f1w33" />
         <g id="p39dk6e" class="pageMilestoneEnd m1im047i" />
         <g id="p1i1xb0y" class="pgHead">
            <text x="0" y="0" font-size="0px">
               <tspan id="rxg3zr7" class="rend" x="10000" y="277" text-anchor="middle">
                  <tspan id="txe2eg8" class="text">
                     <tspan font-size="405px" class="text">Air n 148</tspan>
                  </tspan>
               </tspan>
            </text>
         </g>
         <g id="p1buovd6" class="pgFoot autogenerated">
            <g id="f1lr7144" class="fig">
               <g id="s1y97tfo" class="svg" transform="translate(7750, 28099) scale(10, 10)">
                  <g>
                     <path fill="#00000" d="M 17.11278,49.26451 V 10.367554 h 12.696511 c 3.288815,7.336676 6.71267,14.610456 10.127281,21.888976 3.419998,-7.484684 6.255515,-14.204887 9.58887,-21.909915 2.436207,0.103726 4.316952,0.08453 6.484294,-0.05808 V 49.264423 H 50.274275 C 50.145222,38.35639 50.016136,27.448368 49.887066,16.540329 45.003488,27.315459 39.967448,38.433564 35.083854,49.208695 34.678996,49.343717 34.426583,49.135619 34.021726,49.270644 29.46588,39.330716 24.910049,29.390805 20.354201,19.450876 20.224341,29.388756 20.09461,39.326619 19.964815,49.264497 H 17.11278 Z M 36.754144,39.324695 C 32.721221,30.512695 28.6883,21.700679 24.655394,12.888662 22.530527,12.750737 22.656775,12.71031 20.714356,12.813974 v 0.966497 c 4.612938,9.99784 9.609439,20.748709 13.87298,30.081745 0.722248,-1.512523 1.444528,-3.025014 2.166808,-4.537521 z m 25.738417,9.939815 c 0,-12.965651 0,-25.931305 0,-38.896956 10.084388,0 20.168791,0 30.253178,0 0,0.960416 0,1.920849 0,2.881265 -6.482825,0 -12.965652,0 -19.448478,0 0,4.802097 0,9.604178 0,14.406277 5.52241,0 11.044819,0 16.567229,0 0,0.960415 0,1.920832 0,2.881248 -5.52241,0 -11.044819,0 -16.567229,0 0,5.282306 0,10.564611 0,15.846917 6.963035,0 13.926068,0 20.889103,0 0,0.960416 0,1.920832 0,2.881249 -10.564597,0 -21.129207,0 -31.693803,0 z m 4.321874,-2.160937 c 0,-11.765131 0,-23.530263 0,-35.295394 -0.720312,0 -1.440625,0 -2.160937,0 0,11.765131 0,23.530263 0,35.295394 0.720312,0 1.440625,0 2.160937,0 z m 32.41413,2.160937 c 0,-12.965651 0,-25.931305 0,-38.896956 2.401045,0 4.802095,0 7.203135,0 0,12.965651 0,25.931305 0,38.896956 -2.40104,0 -4.80209,0 -7.203135,0 z m 2.881265,-2.160937 c 0,-11.765131 0,-23.530263 0,-35.295394 -0.72031,0 -1.44064,0 -2.160953,0 0,11.765131 0,23.530263 0,35.295394 0.720313,0 1.440643,0 2.160953,0 z" />
                     <path fill="#00000" d="m 346.3,6.7 c -3.1,0.5 -4.9,4.4 -2.7,6.8 1.2,1.4 2.7,2.4 4.1,3.5 -2.4,5.3 -7.7,8.3 -11.9,12.1 -3.7,2.8 -7,6.2 -9.7,9.9 -2.2,-0.8 -0.3,-6.8 -0.6,-9.5 0.1,-3.1 0.7,-6.4 2.9,-8.7 1.3,-1.9 3,-3.5 4.5,-5.2 1.2,-3.4 -3.2,-4.9 -5.8,-4.6 -7.3,-0.5 -14.6,2 -20,6.8 -5,4.6 -10,10.1 -11.5,17 -0.9,3.5 -0.2,7.5 2.8,9.9 2.5,2.8 7.4,2.9 9.8,-0.2 1.7,-2.3 3.2,-4.8 3.8,-7.6 -0.1,-2.6 -4.4,-2.3 -4.3,0.2 1.2,2.4 -0.9,4.7 -2.7,6.2 -1.7,0.9 -4.7,0.7 -4.8,-1.7 -1,-5.8 2.1,-11.3 5.2,-16.1 4,-5.8 9.8,-11.2 17.2,-11.8 1.6,0 8.1,-1.2 6.8,1.4 -2.8,2.8 -5.6,6.1 -6,10.3 -1.6,7.7 0.1,15.7 -2.3,23.2 -1.1,3.9 2,2.6 2.5,0.2 3.3,-7.4 8.9,-13.4 15.1,-18.5 4.2,-3.9 9.5,-7.1 11.9,-12.6 1.3,-3.6 1.2,-9 -2.7,-10.9 -0.6,-0.2 -1.2,-0.3 -1.8,-0.3 z m 66,14.5 c -2,0.8 -1.8,4.9 0.8,4.4 3.4,0.4 2.9,-6.2 -0.8,-4.4 z m 0.6,7.3 c -1.3,0.5 -7.6,0.5 -5.4,2.2 4,-0.3 0.7,4.5 0.6,6.7 -0.4,2.9 -2.4,5.9 -1.2,8.8 2.7,1.7 5.6,-0.8 6.8,-3.2 1.6,-1.4 -0.5,-3 -1.2,-0.9 -0.4,0.8 -2.4,3.5 -2.6,1.8 1.1,-5 2.7,-9.9 3.9,-14.9 l -0.1,-0.5 h -0.9 z m -65.1,0.2 c -6.5,1.6 -10.5,9.5 -8.2,15.7 2.1,3.4 7.4,2.9 10.1,0.4 2,-0.2 3.6,-5.3 1,-3.4 -1.4,2 -4,4.2 -6.5,2.8 -2.2,-1.9 -1.9,-5.7 1.7,-5.3 3.1,-0.9 6.9,-2.1 8.1,-5.5 0.9,-2.7 -1.6,-5.2 -4.3,-4.8 h -1.1 -0.7 z m 13.6,0 c -2.2,0 -8.5,1.8 -2.9,2.3 0.9,1.9 -1,4.9 -1.1,7.2 -0.5,2.9 -1.4,5.7 -1.7,8.7 3.7,0.7 3.8,-2.6 4.4,-5.3 0.9,-3.3 1.6,-7 4.1,-9.5 2.4,1.6 6.8,-0.7 3.7,-3.4 -2.9,-0.5 -4.8,2.4 -6.2,4.3 0,-1.2 2.4,-5 -0.2,-4.3 z m 15.8,0 c -6.4,1.3 -9.6,9.1 -7.7,14.9 1.9,4 7.7,3.9 11,1.7 4.1,-3 6,-8.9 4.4,-13.7 -1.3,-3 -4.8,-3.2 -7.6,-3 z m 17,0 c -2.3,0 -8.8,1.9 -3,2.4 0.4,2.5 -1,5.7 -1.4,8.4 -0.7,2.4 -1.8,7.5 2.1,7.2 3.8,-0.1 6.5,-3.5 8.5,-6.3 2,-3.2 4.5,-7 3.3,-10.9 -3.7,-3 -3.6,2.6 -3.1,5.1 -0.7,3.8 -2.7,7.9 -6.2,9.8 -3.6,0.6 -1,-4.3 -0.8,-6.1 0.6,-3.2 1.6,-6.3 1.9,-9.5 -0.4,0 -0.8,0 -1.1,0 z m 30.6,0 c -6.3,1.2 -9.5,8.9 -7.8,14.7 1.5,4 7.2,4.2 10.5,2.4 4.6,-2.8 6.6,-9.3 4.8,-14.3 -1.4,-2.8 -4.8,-3 -7.5,-2.8 z m -75.4,1.7 c 2.1,1.5 0.2,4.7 -1.6,5.7 -1.1,0.4 -5.5,3.4 -4.6,0.7 0.8,-2.7 2.2,-6.2 5.3,-6.6 l 0.9,0.1 z m 30.8,0 c 2.6,1.5 1.3,5.2 0.8,7.6 -0.8,2.7 -1.9,5.9 -4.7,7.1 -5.1,0.8 -4,-5.8 -2.8,-8.8 1,-2.8 3,-6.8 6.7,-5.8 z m 47.1,-0.1 c 2.9,0.7 2,4.7 1.5,6.8 -0.7,3 -1.8,6.7 -5,8 -4.7,0.8 -4,-5.1 -3,-7.9 0.9,-3 2.7,-7.3 6.5,-6.8 z m -88.1,5.9 c -0.3,1.3 0.9,-0.6 0,0 z m -1.1,2.4 c -0.2,0.5 0.5,-0.1 0,0 z m -1.3,4.5 c -0.3,1.3 0.8,-0.2 0,0 z" />
                     <text y="41" x="201" fill="#00000" style="font-style:italic;font-weight:normal;font-size:30px;line-height:125%;font-family:Times;text-anchor:middle" xml:space="preserve">engraved with</text>
                  </g>
               </g>
            </g>
         </g>
      </g>
   </svg>
</svg>
