<?xml version="1.0" encoding="UTF-8" standalone="no"?>
<svg width="2100px" height="2970px" version="1.1" xmlns="http://www.w3.org/2000/svg" xmlns:xlink="http://www.w3.org/1999/xlink" xmlns:mei="http://www.music-encoding.org/ns/mei" overflow="visible">
   <desc>Engraved by Verovio 3.13.1</desc>
   <defs>
      <symbol id="E044-1xy9owa" viewBox="0 0 1000 1000" overflow="inherit">
         <path transform="scale(1,-1)" d="M0 0c0 28 22 50 50 50s50 -22 50 -50s-22 -50 -50 -50s-50 22 -50 50z" />
      </symbol>
      <symbol id="E050-1xy9owa" viewBox="0 0 1000 1000" overflow="inherit">
         <path transform="scale(1,-1)" d="M441 -245c-23 -4 -48 -6 -76 -6c-59 0 -102 7 -130 20c-88 42 -150 93 -187 154c-26 44 -43 103 -48 176c0 6 -1 13 -1 19c0 54 15 111 45 170c29 57 65 106 110 148s96 85 153 127c-3 16 -8 46 -13 92c-4 43 -5 73 -5 89c0 117 16 172 69 257c34 54 64 82 89 82 c21 0 43 -30 69 -92s39 -115 41 -159v-15c0 -109 -21 -162 -67 -241c-13 -20 -63 -90 -98 -118c-13 -9 -25 -19 -37 -29l31 -181c8 1 18 2 28 2c58 0 102 -12 133 -35c59 -43 92 -104 98 -184c1 -7 1 -15 1 -22c0 -123 -87 -209 -181 -248c8 -57 17 -110 25 -162 c5 -31 6 -58 6 -80c0 -30 -5 -53 -14 -70c-35 -64 -88 -99 -158 -103c-5 0 -11 -1 -16 -1c-37 0 -72 10 -108 27c-50 24 -77 59 -80 105v11c0 29 7 55 20 76c18 28 45 42 79 44h6c49 0 93 -42 97 -87v-9c0 -51 -34 -86 -105 -106c17 -24 51 -36 102 -36c62 0 116 43 140 85 c9 16 13 41 13 74c0 20 -1 42 -5 67c-8 53 -18 106 -26 159zM461 939c-95 0 -135 -175 -135 -286c0 -24 2 -48 5 -71c50 39 92 82 127 128c40 53 60 100 60 140v8c-4 53 -22 81 -55 81h-2zM406 119l54 -326c73 25 110 78 110 161c0 7 0 15 -1 23c-7 95 -57 142 -151 142h-12 zM382 117c-72 -2 -128 -47 -128 -120v-7c2 -46 43 -99 75 -115c-3 -2 -7 -5 -10 -10c-70 33 -116 88 -123 172v11c0 68 44 126 88 159c23 17 49 29 78 36l-29 170c-21 -13 -52 -37 -92 -73c-50 -44 -86 -84 -109 -119c-45 -69 -67 -130 -67 -182v-13c5 -68 35 -127 93 -176 s125 -73 203 -73c25 0 50 3 75 9c-19 111 -36 221 -54 331z" />
      </symbol>
      <symbol id="E081-1xy9owa" viewBox="0 0 1000 1000" overflow="inherit">
         <path transform="scale(1,-1)" d="M68 -250v36c23 0 40 6 49 18c8 14 12 33 12 57v250l-82 -129l-27 13l107 255h128v-394c0 -24 5 -42 14 -53s25 -17 47 -17v-36h-248z" />
      </symbol>
      <symbol id="E082-1xy9owa" viewBox="0 0 1000 1000" overflow="inherit">
         <path transform="scale(1,-1)" d="M124 -185c-18 0 -55 -14 -65 -65h-36l-3 30c0 25 6 45 18 63c11 19 22 30 39 43l121 82l37 29c15 11 27 29 38 54c12 24 18 47 18 70c0 40 -19 88 -94 88c-25 0 -32 0 -50 -8c-14 -5 -23 -12 -26 -22c3 -9 7 -15 10 -18l24 -17c12 -7 17 -11 27 -21c5 -7 7 -16 7 -27 c0 -12 0 -57 -79 -74c-30 0 -76 26 -76 94c0 66 81 135 197 135c72 0 181 -32 181 -150c0 -53 -32 -95 -113 -133l-91 -41c-26 -11 -45 -23 -57 -37l49 7c84 0 115 -41 148 -41c20 0 33 20 39 61h35c0 -152 -68 -168 -114 -168c-17 0 -65 0 -79 7h10l-28 17 c-49 37 -69 40 -87 42z" />
      </symbol>
      <symbol id="E083-1xy9owa" viewBox="0 0 1000 1000" overflow="inherit">
         <path transform="scale(1,-1)" d="M208 250c97 0 177 -52 177 -116c0 -69 -40 -111 -118 -125c56 -5 125 -44 125 -116c0 -31 -10 -57 -31 -78c-19 -21 -45 -38 -78 -49l-50 -11c-15 -3 -36 -7 -55 -7c-50 0 -86 16 -113 38c-16 10 -23 18 -34 34c-7 13 -11 25 -11 38c0 43 27 83 68 83l3 -2 c61 0 75 -42 75 -70c0 -19 -24 -42 -26 -57c7 -17 20 -25 37 -25c44 0 94 29 94 78c0 75 -34 125 -138 125v36c84 0 131 22 131 98c0 54 -37 88 -87 88c-26 0 -43 -7 -51 -22c15 -22 44 -16 44 -70c0 -37 -37 -62 -71 -62c-22 0 -69 15 -69 76c0 79 101 116 178 116z" />
      </symbol>
      <symbol id="E084-1xy9owa" viewBox="0 0 1000 1000" overflow="inherit">
         <path transform="scale(1,-1)" d="M20 -78c84 97 114 180 134 329h170c-13 -32 -82 -132 -99 -151l-84 -97c-33 -36 -59 -63 -80 -81h162v102l127 123v-225h57v-39h-57v-34c0 -43 19 -65 57 -65v-34h-244v36c48 0 60 26 60 70v27h-203v39z" />
      </symbol>
      <symbol id="E088-1xy9owa" viewBox="0 0 1000 1000" overflow="inherit">
         <path transform="scale(1,-1)" d="M195 -214c76 0 88 58 90 68c0 34 -35 60 -57 73l-52 29c-21 10 -32 17 -34 20c-39 -33 -58 -54 -62 -92c5 -23 23 -98 115 -98zM301 135c0 61 -72 76 -113 76c-40 0 -77 -17 -77 -51c3 -21 15 -38 26 -50c17 -15 33 -26 48 -34l65 -28c34 27 51 56 51 87zM176 -250 c-57 0 -166 26 -166 132c0 47 30 86 89 116c-33 15 -79 60 -79 119c0 79 85 132 178 132h18c5 0 21 1 28 -1c25 0 126 -30 126 -110c0 -37 -23 -76 -69 -116c43 -25 83 -71 83 -119c0 -101 -118 -153 -208 -153z" />
      </symbol>
      <symbol id="E0A4-1xy9owa" viewBox="0 0 1000 1000" overflow="inherit">
         <path transform="scale(1,-1)" d="M0 -39c0 68 73 172 200 172c66 0 114 -37 114 -95c0 -84 -106 -171 -218 -171c-64 0 -96 30 -96 94z" />
      </symbol>
      <symbol id="E241-1xy9owa" viewBox="0 0 1000 1000" overflow="inherit">
         <path transform="scale(1,-1)" d="M179 646c-4 8 -17 30 -18 33l-4 10c0 3 2 5 5 5s7 -2 13 -7c23 -33 46 -81 66 -132c22 -57 35 -125 35 -163c0 -104 -60 -183 -122 -241c-63 -59 -57 -53 -61 -56c-38 -34 -63 -95 -71 -95h-22v190c40 7 69 11 87 16c88 27 168 95 168 200c0 30 -12 89 -30 138 c-17 47 -31 73 -46 102z" />
      </symbol>
   </defs>
   <style type="text/css">g.page-margin{font-family:Times;} g.ending, g.fing, g.reh, g.tempo{font-weight:bold;} g.dir, g.dynam, g.mNum{font-style:italic;} g.label{font-weight:normal;}</style>
   <svg class="definition-scale" color="black" viewBox="0 0 21000 29700">
      <g class="page-margin" transform="translate(500, 500)">
         <g id="m10km37b" class="mdiv pageMilestone" />
         <g id="skhaduz" class="score pageMilestone" />
         <g id="sacyb6u" class="system">
            <g id="lqyxc6i" class="label">
               <text x="1105" y="1535" text-anchor="end" font-size="0px">
                  <tspan id="t79dkxv" class="text">
                     <tspan font-size="405px" class="text">Piano</tspan>
                  </tspan>
               </text>
            </g>
            <g id="s16oc3i6" class="section systemMilestone" />
            <g id="p6k7w81" class="pb" />
            <g id="m1uzf2vl" class="measure">
               <g id="mdgccvj" class="mNum">
                  <text x="1285" y="842" text-anchor="middle" font-size="0px" />
               </g>
               <g id="sbgwhsi" class="staff">
                  <path d="M1285 1085 L3115 1085" stroke="currentColor" stroke-width="13" />
                  <path d="M1285 1265 L3115 1265" stroke="currentColor" stroke-width="13" />
                  <path d="M1285 1445 L3115 1445" stroke="currentColor" stroke-width="13" />
                  <path d="M1285 1625 L3115 1625" stroke="currentColor" stroke-width="13" />
                  <path d="M1285 1805 L3115 1805" stroke="currentColor" stroke-width="13" />
                  <g id="ck7lwk1" class="clef">
                     <use xlink:href="#E050-1xy9owa" x="1375" y="1625" height="720px" width="720px" />
                  </g>
                  <g id="k1mmitjp" class="keySig" />
                  <g id="m1arzf8a" class="meterSig">
                     <use xlink:href="#E082-1xy9owa" x="2006" y="1265" height="720px" width="720px" />
                     <use xlink:href="#E084-1xy9owa" x="2011" y="1625" height="720px" width="720px" />
                  </g>
                  <g id="l1qtpjhh" class="layer">
                     <g id="n116vptd" class="note">
                        <g class="notehead">
                           <use xlink:href="#E0A4-1xy9owa" x="2578" y="1085" height="720px" width="720px" />
                        </g>
                        <g id="s1d5xn5l" class="stem">
                           <rect x="2578" y="1113" height="602" width="18" />
                           <g id="fccfa7o" class="flag">
                              <use xlink:href="#E241-1xy9owa" x="2578" y="1715" height="720px" width="720px" />
                           </g>
                        </g>
                     </g>
                  </g>
               </g>
               <g id="b1yr8be" class="barLine">
                  <path d="M3102 1085 L3102 1805" stroke="currentColor" stroke-width="27" />
               </g>
            </g>
            <g id="menf09l" class="measure">
               <g id="stggtem" class="staff">
                  <path d="M3115 1085 L5157 1085" stroke="currentColor" stroke-width="13" />
                  <path d="M3115 1265 L5157 1265" stroke="currentColor" stroke-width="13" />
                  <path d="M3115 1445 L5157 1445" stroke="currentColor" stroke-width="13" />
                  <path d="M3115 1625 L5157 1625" stroke="currentColor" stroke-width="13" />
                  <path d="M3115 1805 L5157 1805" stroke="currentColor" stroke-width="13" />
                  <g id="l10qyzj4" class="layer">
                     <g id="bf6v7jw" class="beam">
                        <polygon points="3294,1895 3836,1940 3836,1850 3294,1805" />
                        <g id="n1i7ogiu" class="note">
                           <g class="notehead">
                              <use xlink:href="#E0A4-1xy9owa" x="3294" y="1175" height="720px" width="720px" />
                           </g>
                           <g id="stt36mi" class="stem">
                              <rect x="3294" y="1203" height="674" width="18" />
                           </g>
                        </g>
                        <g id="n5f4gy9" class="note">
                           <g class="notehead">
                              <use xlink:href="#E0A4-1xy9owa" x="3818" y="1265" height="720px" width="720px" />
                           </g>
                           <g id="s1qfso27" class="stem">
                              <rect x="3818" y="1293" height="629" width="18" />
                           </g>
                        </g>
                     </g>
                     <g id="n1bnhn1c" class="note">
                        <g class="notehead">
                           <use xlink:href="#E0A4-1xy9owa" x="4342" y="1085" height="720px" width="720px" />
                        </g>
                        <g id="s1b9o83d" class="stem">
                           <rect x="4342" y="1113" height="602" width="18" />
                        </g>
                     </g>
                  </g>
               </g>
               <g id="bgt0m5k" class="barLine">
                  <path d="M5144 1085 L5144 1805" stroke="currentColor" stroke-width="27" />
               </g>
            </g>
            <g id="m30hsur" class="measure">
               <g id="s1pzhgn2" class="staff">
                  <path d="M5157 1085 L7199 1085" stroke="currentColor" stroke-width="13" />
                  <path d="M5157 1265 L7199 1265" stroke="currentColor" stroke-width="13" />
                  <path d="M5157 1445 L7199 1445" stroke="currentColor" stroke-width="13" />
                  <path d="M5157 1625 L7199 1625" stroke="currentColor" stroke-width="13" />
                  <path d="M5157 1805 L7199 1805" stroke="currentColor" stroke-width="13" />
                  <g id="lh38vof" class="layer">
                     <g id="n1hquvhj" class="note">
                        <g class="notehead">
                           <use xlink:href="#E0A4-1xy9owa" x="5336" y="1265" height="720px" width="720px" />
                        </g>
                        <g id="skc3b6d" class="stem">
                           <rect x="5336" y="1293" height="602" width="18" />
                        </g>
                     </g>
                     <g id="bu1973s" class="beam">
                        <polygon points="6139,1985 6681,1985 6681,1895 6139,1895" />
                        <g id="n12u5t" class="note">
                           <g class="notehead">
                              <use xlink:href="#E0A4-1xy9owa" x="6139" y="1355" height="720px" width="720px" />
                           </g>
                           <g id="s11gj1i7" class="stem">
                              <rect x="6139" y="1383" height="584" width="18" />
                           </g>
                        </g>
                        <g id="n18e2giq" class="note">
                           <g class="notehead">
                              <use xlink:href="#E0A4-1xy9owa" x="6663" y="1355" height="720px" width="720px" />
                           </g>
                           <g id="s1t9f2kr" class="stem">
                              <rect x="6663" y="1383" height="584" width="18" />
                           </g>
                        </g>
                     </g>
                  </g>
               </g>
               <g id="bsz5h2n" class="barLine">
                  <path d="M7186 1085 L7186 1805" stroke="currentColor" stroke-width="27" />
               </g>
            </g>
            <g id="mwruzi8" class="measure">
               <g id="stlmm5k" class="staff">
                  <path d="M7199 1085 L9486 1085" stroke="currentColor" stroke-width="13" />
                  <path d="M7199 1265 L9486 1265" stroke="currentColor" stroke-width="13" />
                  <path d="M7199 1445 L9486 1445" stroke="currentColor" stroke-width="13" />
                  <path d="M7199 1625 L9486 1625" stroke="currentColor" stroke-width="13" />
                  <path d="M7199 1805 L9486 1805" stroke="currentColor" stroke-width="13" />
                  <g id="lz8yphb" class="layer">
                     <g id="brsqz1c" class="beam">
                        <polygon points="7378,1940 7920,1895 7920,1805 7378,1850" />
                        <g id="nfkektw" class="note">
                           <g class="notehead">
                              <use xlink:href="#E0A4-1xy9owa" x="7378" y="1265" height="720px" width="720px" />
                           </g>
                           <g id="s1fiyepr" class="stem">
                              <rect x="7378" y="1293" height="629" width="18" />
                           </g>
                        </g>
                        <g id="n1yfdt0p" class="note">
                           <g class="notehead">
                              <use xlink:href="#E0A4-1xy9owa" x="7902" y="1085" height="720px" width="720px" />
                           </g>
                           <g id="se7dux2" class="stem">
                              <rect x="7902" y="1113" height="764" width="18" />
                           </g>
                        </g>
                     </g>
                     <g id="b1bzm0fq" class="beam">
                        <polygon points="8426,1895 8967,1940 8967,1850 8426,1805" />
                        <g id="n1de7stz" class="note">
                           <g class="notehead">
                              <use xlink:href="#E0A4-1xy9owa" x="8426" y="1175" height="720px" width="720px" />
                           </g>
                           <g id="s3w5g19" class="stem">
                              <rect x="8426" y="1203" height="674" width="18" />
                           </g>
                        </g>
                        <g id="n13vhbba" class="note">
                           <g class="notehead">
                              <use xlink:href="#E0A4-1xy9owa" x="8949" y="1265" height="720px" width="720px" />
                           </g>
                           <g id="s15ltrvu" class="stem">
                              <rect x="8949" y="1293" height="629" width="18" />
                           </g>
                        </g>
                     </g>
                  </g>
               </g>
               <g id="b1mj3by5" class="barLine">
                  <path d="M9473 1085 L9473 1805" stroke="currentColor" stroke-width="27" />
               </g>
            </g>
            <g id="m1jks0we" class="measure">
               <g id="s1o5p1rc" class="staff">
                  <path d="M9486 1085 L11284 1085" stroke="currentColor" stroke-width="13" />
                  <path d="M9486 1265 L11284 1265" stroke="currentColor" stroke-width="13" />
                  <path d="M9486 1445 L11284 1445" stroke="currentColor" stroke-width="13" />
                  <path d="M9486 1625 L11284 1625" stroke="currentColor" stroke-width="13" />
                  <path d="M9486 1805 L11284 1805" stroke="currentColor" stroke-width="13" />
                  <g id="la25jgy" class="layer">
                     <g id="nqtxreq" class="note">
                        <g class="notehead">
                           <use xlink:href="#E0A4-1xy9owa" x="9665" y="1085" height="720px" width="720px" />
                        </g>
                        <g id="s8al4pu" class="stem">
                           <rect x="9665" y="1113" height="602" width="18" />
                        </g>
                     </g>
                     <g id="n1d3zc1o" class="note">
                        <g class="notehead">
                           <use xlink:href="#E0A4-1xy9owa" x="10468" y="1265" height="720px" width="720px" />
                        </g>
                        <g id="s1hft9cw" class="stem">
                           <rect x="10468" y="1293" height="602" width="18" />
                        </g>
                     </g>
                  </g>
               </g>
               <g id="b6fa7k9" class="barLine">
                  <path d="M11271 1085 L11271 1805" stroke="currentColor" stroke-width="27" />
               </g>
            </g>
            <g id="m1ojbf82" class="measure">
               <g id="s197kpaa" class="staff">
                  <path d="M11284 1085 L13660 1085" stroke="currentColor" stroke-width="13" />
                  <path d="M11284 1265 L13660 1265" stroke="currentColor" stroke-width="13" />
                  <path d="M11284 1445 L13660 1445" stroke="currentColor" stroke-width="13" />
                  <path d="M11284 1625 L13660 1625" stroke="currentColor" stroke-width="13" />
                  <path d="M11284 1805 L13660 1805" stroke="currentColor" stroke-width="13" />
                  <g id="m1v2j6xc" class="meterSig">
                     <use xlink:href="#E083-1xy9owa" x="11364" y="1265" height="720px" width="720px" />
                     <use xlink:href="#E088-1xy9owa" x="11367" y="1625" height="720px" width="720px" />
                  </g>
                  <g id="l18qzex2" class="layer">
                     <g id="bn02nab" class="beam">
                        <polygon points="11914,1985 12456,1985 12456,1895 11914,1895" />
                        <g id="n1fgv7zw" class="note">
                           <g class="notehead">
                              <use xlink:href="#E0A4-1xy9owa" x="11914" y="1355" height="720px" width="720px" />
                           </g>
                           <g id="s131z3tz" class="stem">
                              <rect x="11914" y="1383" height="584" width="18" />
                           </g>
                        </g>
                        <g id="n16s9j2g" class="note">
                           <g class="notehead">
                              <use xlink:href="#E0A4-1xy9owa" x="12438" y="1355" height="720px" width="720px" />
                           </g>
                           <g id="s1uyl4dz" class="stem">
                              <rect x="12438" y="1383" height="584" width="18" />
                           </g>
                        </g>
                     </g>
                     <g id="ni55tgy" class="note">
                        <g class="notehead">
                           <use xlink:href="#E0A4-1xy9owa" x="12962" y="1265" height="720px" width="720px" />
                        </g>
                        <g id="sfodzpv" class="stem">
                           <rect x="12962" y="1293" height="602" width="18" />
                           <g id="f7owju5" class="flag">
                              <use xlink:href="#E241-1xy9owa" x="12962" y="1895" height="720px" width="720px" />
                           </g>
                        </g>
                     </g>
                  </g>
               </g>
               <g id="b12g3psc" class="barLine">
                  <path d="M13485 1085 L13485 1805" stroke="currentColor" stroke-width="27" />
                  <path d="M13615 1085 L13615 1805" stroke="currentColor" stroke-width="90" />
                  <use xlink:href="#E044-1xy9owa" x="13368" y="1355" height="720px" width="720px" />
                  <use xlink:href="#E044-1xy9owa" x="13368" y="1535" height="720px" width="720px" />
               </g>
            </g>
            <g id="mas028e" class="measure">
               <g id="sk8iou0" class="staff">
                  <path d="M13660 1085 L15206 1085" stroke="currentColor" stroke-width="13" />
                  <path d="M13660 1265 L15206 1265" stroke="currentColor" stroke-width="13" />
                  <path d="M13660 1445 L15206 1445" stroke="currentColor" stroke-width="13" />
                  <path d="M13660 1625 L15206 1625" stroke="currentColor" stroke-width="13" />
                  <path d="M13660 1805 L15206 1805" stroke="currentColor" stroke-width="13" />
                  <g id="m1t9jatm" class="meterSig">
                     <use xlink:href="#E081-1xy9owa" x="13767" y="1265" height="720px" width="720px" />
                     <use xlink:href="#E088-1xy9owa" x="13743" y="1625" height="720px" width="720px" />
                  </g>
                  <g id="l1yxs9ij" class="layer">
                     <g id="n1y9g9mu" class="note">
                        <g class="notehead">
                           <use xlink:href="#E0A4-1xy9owa" x="14670" y="1265" height="720px" width="720px" />
                        </g>
                        <g id="s1hab3n" class="stem">
                           <rect x="14670" y="1293" height="602" width="18" />
                           <g id="fgz5xwg" class="flag">
                              <use xlink:href="#E241-1xy9owa" x="14670" y="1895" height="720px" width="720px" />
                           </g>
                        </g>
                     </g>
                  </g>
               </g>
               <g id="bybkc40" class="barLine">
                  <path d="M14244 1085 L14244 1805" stroke="currentColor" stroke-width="90" />
                  <path d="M14374 1085 L14374 1805" stroke="currentColor" stroke-width="27" />
                  <use xlink:href="#E044-1xy9owa" x="14420" y="1355" height="720px" width="720px" />
                  <use xlink:href="#E044-1xy9owa" x="14420" y="1535" height="720px" width="720px" />
               </g>
               <g id="b59ew16" class="barLine">
                  <path d="M15193 1085 L15193 1805" stroke="currentColor" stroke-width="27" />
               </g>
            </g>
            <g id="mqul8lb" class="measure">
               <g id="s1h469ok" class="staff">
                  <path d="M15206 1085 L17962 1085" stroke="currentColor" stroke-width="13" />
                  <path d="M15206 1265 L17962 1265" stroke="currentColor" stroke-width="13" />
                  <path d="M15206 1445 L17962 1445" stroke="currentColor" stroke-width="13" />
                  <path d="M15206 1625 L17962 1625" stroke="currentColor" stroke-width="13" />
                  <path d="M15206 1805 L17962 1805" stroke="currentColor" stroke-width="13" />
                  <g id="m1nl3btz" class="meterSig">
                     <use xlink:href="#E082-1xy9owa" x="15282" y="1265" height="720px" width="720px" />
                     <use xlink:href="#E084-1xy9owa" x="15287" y="1625" height="720px" width="720px" />
                  </g>
                  <g id="ljta5xp" class="layer">
                     <g id="bg5l3g1" class="beam">
                        <polygon points="16062,905 16604,860 16604,950 16062,995" />
                        <g id="n10vpy1r" class="note">
                           <g class="notehead">
                              <use xlink:href="#E0A4-1xy9owa" x="15854" y="1535" height="720px" width="720px" />
                           </g>
                           <g id="sxg7v8" class="stem">
                              <rect x="16062" y="923" height="584" width="18" />
                           </g>
                        </g>
                        <g id="nkrp0jq" class="note">
                           <g class="notehead">
                              <use xlink:href="#E0A4-1xy9owa" x="16378" y="1445" height="720px" width="720px" />
                           </g>
                           <g id="smm2see" class="stem">
                              <rect x="16586" y="878" height="539" width="18" />
                           </g>
                        </g>
                     </g>
                     <g id="b1ewjazd" class="beam">
                        <polygon points="17110,770 17651,815 17651,905 17110,860" />
                        <g id="n1xr0ddx" class="note">
                           <g class="notehead">
                              <use xlink:href="#E0A4-1xy9owa" x="16902" y="1355" height="720px" width="720px" />
                           </g>
                           <g id="sder6vt" class="stem">
                              <rect x="17110" y="788" height="539" width="18" />
                           </g>
                        </g>
                        <g id="n1w7y1tq" class="note">
                           <g class="notehead">
                              <use xlink:href="#E0A4-1xy9owa" x="17425" y="1535" height="720px" width="720px" />
                           </g>
                           <g id="sc064aj" class="stem">
                              <rect x="17633" y="833" height="674" width="18" />
                           </g>
                        </g>
                     </g>
                  </g>
               </g>
               <g id="byddwmr" class="barLine">
                  <path d="M17949 1085 L17949 1805" stroke="currentColor" stroke-width="27" />
               </g>
            </g>
            <g id="m6c0hfm" class="measure">
               <g id="s25scfo" class="staff">
                  <path d="M17962 1085 L20004 1085" stroke="currentColor" stroke-width="13" />
                  <path d="M17962 1265 L20004 1265" stroke="currentColor" stroke-width="13" />
                  <path d="M17962 1445 L20004 1445" stroke="currentColor" stroke-width="13" />
                  <path d="M17962 1625 L20004 1625" stroke="currentColor" stroke-width="13" />
                  <path d="M17962 1805 L20004 1805" stroke="currentColor" stroke-width="13" />
                  <g id="le54qxk" class="layer">
                     <g id="n1clw0q0" class="note">
                        <g class="notehead">
                           <use xlink:href="#E0A4-1xy9owa" x="18141" y="1265" height="720px" width="720px" />
                        </g>
                        <g id="s155uyqd" class="stem">
                           <rect x="18141" y="1293" height="602" width="18" />
                        </g>
                     </g>
                     <g id="b1jt1gdo" class="beam">
                        <polygon points="18944,2030 19486,1985 19486,1895 18944,1940" />
                        <g id="n1dlo5fl" class="note">
                           <g class="notehead">
                              <use xlink:href="#E0A4-1xy9owa" x="18944" y="1355" height="720px" width="720px" />
                           </g>
                           <g id="somfocv" class="stem">
                              <rect x="18944" y="1383" height="629" width="18" />
                           </g>
                        </g>
                        <g id="n5lhgj9" class="note">
                           <g class="notehead">
                              <use xlink:href="#E0A4-1xy9owa" x="19468" y="1085" height="720px" width="720px" />
                           </g>
                           <g id="s35tl6p" class="stem">
                              <rect x="19468" y="1113" height="854" width="18" />
                           </g>
                        </g>
                     </g>
                  </g>
               </g>
               <g id="b19e0yh4" class="barLine">
                  <path d="M19991 1085 L19991 1805" stroke="currentColor" stroke-width="27" />
               </g>
            </g>
         </g>
         <g id="sneupbc" class="system">
            <g id="l1gyfjuf" class="labelAbbr">
               <text x="914" y="3875" text-anchor="end" font-size="0px">
                  <tspan id="tw9n9ta" class="text">
                     <tspan font-size="405px" class="text">Pno.</tspan>
                  </tspan>
               </text>
            </g>
            <g id="m16q5ofy" class="measure">
               <g id="mwfh5hu" class="mNum autogenerated">
                  <text x="1094" y="3182" text-anchor="middle" font-size="0px">
                     <tspan id="t1r82p83" class="text">
                        <tspan font-size="324px" class="text">9</tspan>
                     </tspan>
                  </text>
               </g>
               <g id="scebu0c" class="staff">
                  <path d="M1094 3425 L4040 3425" stroke="currentColor" stroke-width="13" />
                  <path d="M1094 3605 L4040 3605" stroke="currentColor" stroke-width="13" />
                  <path d="M1094 3785 L4040 3785" stroke="currentColor" stroke-width="13" />
                  <path d="M1094 3965 L4040 3965" stroke="currentColor" stroke-width="13" />
                  <path d="M1094 4145 L4040 4145" stroke="currentColor" stroke-width="13" />
                  <g id="czowki8" class="clef">
                     <use xlink:href="#E050-1xy9owa" x="1184" y="3965" height="720px" width="720px" />
                  </g>
                  <g id="k1sk77ju" class="keySig" />
                  <g id="l12niejz" class="layer">
                     <g id="b18k8l9a" class="beam">
                        <polygon points="1919,4235 2464,4280 2464,4190 1919,4145" />
                        <g id="n1iefwrj" class="note">
                           <g class="notehead">
                              <use xlink:href="#E0A4-1xy9owa" x="1919" y="3515" height="720px" width="720px" />
                           </g>
                           <g id="s1f991rm" class="stem">
                              <rect x="1919" y="3543" height="674" width="18" />
                           </g>
                        </g>
                        <g id="n18ikufu" class="note">
                           <g class="notehead">
                              <use xlink:href="#E0A4-1xy9owa" x="2446" y="3605" height="720px" width="720px" />
                           </g>
                           <g id="scz3ytx" class="stem">
                              <rect x="2446" y="3633" height="629" width="18" />
                           </g>
                        </g>
                     </g>
                     <g id="bindox0" class="beam">
                        <polygon points="2973,4145 3518,4145 3518,4055 2973,4055" />
                        <g id="n1tuntdn" class="note">
                           <g class="notehead">
                              <use xlink:href="#E0A4-1xy9owa" x="2973" y="3515" height="720px" width="720px" />
                           </g>
                           <g id="s1ebxc46" class="stem">
                              <rect x="2973" y="3543" height="584" width="18" />
                           </g>
                        </g>
                        <g id="n1crrt04" class="note">
                           <g class="notehead">
                              <use xlink:href="#E0A4-1xy9owa" x="3500" y="3515" height="720px" width="720px" />
                           </g>
                           <g id="s17q35nq" class="stem">
                              <rect x="3500" y="3543" height="584" width="18" />
                           </g>
                        </g>
                     </g>
                  </g>
               </g>
               <g id="bttuary" class="barLine">
                  <path d="M4027 3425 L4027 4145" stroke="currentColor" stroke-width="27" />
               </g>
            </g>
            <g id="shd0y87" class="sb" />
            <g id="m14oe3il" class="measure">
               <g id="su5rhnm" class="staff">
                  <path d="M4040 3425 L6341 3425" stroke="currentColor" stroke-width="13" />
                  <path d="M4040 3605 L6341 3605" stroke="currentColor" stroke-width="13" />
                  <path d="M4040 3785 L6341 3785" stroke="currentColor" stroke-width="13" />
                  <path d="M4040 3965 L6341 3965" stroke="currentColor" stroke-width="13" />
                  <path d="M4040 4145 L6341 4145" stroke="currentColor" stroke-width="13" />
                  <g id="l1tm8yti" class="layer">
                     <g id="bgbcxa" class="beam">
                        <polygon points="4428,3245 4973,3200 4973,3290 4428,3335" />
                        <g id="n1iqwebt" class="note">
                           <g class="notehead">
                              <use xlink:href="#E0A4-1xy9owa" x="4220" y="3875" height="720px" width="720px" />
                           </g>
                           <g id="sdzaot9" class="stem">
                              <rect x="4428" y="3263" height="584" width="18" />
                           </g>
                        </g>
                        <g id="n1b1t50y" class="note">
                           <g class="notehead">
                              <use xlink:href="#E0A4-1xy9owa" x="4747" y="3785" height="720px" width="720px" />
                           </g>
                           <g id="s1nt01m2" class="stem">
                              <rect x="4955" y="3218" height="539" width="18" />
                           </g>
                        </g>
                     </g>
                     <g id="b1l3dyb9" class="beam">
                        <polygon points="5482,3110 6027,3155 6027,3245 5482,3200" />
                        <g id="nco39ha" class="note">
                           <g class="notehead">
                              <use xlink:href="#E0A4-1xy9owa" x="5274" y="3695" height="720px" width="720px" />
                           </g>
                           <g id="s1h2ud3a" class="stem">
                              <rect x="5482" y="3128" height="539" width="18" />
                           </g>
                        </g>
                        <g id="nzenxi3" class="note">
                           <g class="notehead">
                              <use xlink:href="#E0A4-1xy9owa" x="5801" y="3875" height="720px" width="720px" />
                           </g>
                           <g id="sm02ll2" class="stem">
                              <rect x="6009" y="3173" height="674" width="18" />
                           </g>
                        </g>
                     </g>
                  </g>
               </g>
               <g id="b21giz3" class="barLine">
                  <path d="M6328 3425 L6328 4145" stroke="currentColor" stroke-width="27" />
               </g>
            </g>
            <g id="msynzoh" class="measure">
               <g id="s10q4sfi" class="staff">
                  <path d="M6341 3425 L8396 3425" stroke="currentColor" stroke-width="13" />
                  <path d="M6341 3605 L8396 3605" stroke="currentColor" stroke-width="13" />
                  <path d="M6341 3785 L8396 3785" stroke="currentColor" stroke-width="13" />
                  <path d="M6341 3965 L8396 3965" stroke="currentColor" stroke-width="13" />
                  <path d="M6341 4145 L8396 4145" stroke="currentColor" stroke-width="13" />
                  <g id="l17qsrid" class="layer">
                     <g id="n1mlkye8" class="note">
                        <g class="notehead">
                           <use xlink:href="#E0A4-1xy9owa" x="6521" y="3605" height="720px" width="720px" />
                        </g>
                        <g id="svaqdm7" class="stem">
                           <rect x="6521" y="3633" height="602" width="18" />
                        </g>
                     </g>
                     <g id="bzvrisk" class="beam">
                        <polygon points="7329,4370 7874,4325 7874,4235 7329,4280" />
                        <g id="nr7bhk1" class="note">
                           <g class="notehead">
                              <use xlink:href="#E0A4-1xy9owa" x="7329" y="3695" height="720px" width="720px" />
                           </g>
                           <g id="sqtj15k" class="stem">
                              <rect x="7329" y="3723" height="629" width="18" />
                           </g>
                        </g>
                        <g id="na6gss8" class="note">
                           <g class="notehead">
                              <use xlink:href="#E0A4-1xy9owa" x="7856" y="3425" height="720px" width="720px" />
                           </g>
                           <g id="sre1e4h" class="stem">
                              <rect x="7856" y="3453" height="854" width="18" />
                           </g>
                        </g>
                     </g>
                  </g>
               </g>
               <g id="b526jlm" class="barLine">
                  <path d="M8383 3425 L8383 4145" stroke="currentColor" stroke-width="27" />
               </g>
            </g>
            <g id="mnomj4z" class="measure">
               <g id="s1b08k3j" class="staff">
                  <path d="M8396 3425 L10783 3425" stroke="currentColor" stroke-width="13" />
                  <path d="M8396 3605 L10783 3605" stroke="currentColor" stroke-width="13" />
                  <path d="M8396 3785 L10783 3785" stroke="currentColor" stroke-width="13" />
                  <path d="M8396 3965 L10783 3965" stroke="currentColor" stroke-width="13" />
                  <path d="M8396 4145 L10783 4145" stroke="currentColor" stroke-width="13" />
                  <g id="m939i5c" class="meterSig">
                     <use xlink:href="#E083-1xy9owa" x="8476" y="3605" height="720px" width="720px" />
                     <use xlink:href="#E088-1xy9owa" x="8479" y="3965" height="720px" width="720px" />
                  </g>
                  <g id="l1vcd6yr" class="layer">
                     <g id="br4g5fh" class="beam">
                        <polygon points="9027,4145 9572,4145 9572,4055 9027,4055" />
                        <g id="n3sa69t" class="note">
                           <g class="notehead">
                              <use xlink:href="#E0A4-1xy9owa" x="9027" y="3515" height="720px" width="720px" />
                           </g>
                           <g id="s1uftml9" class="stem">
                              <rect x="9027" y="3543" height="584" width="18" />
                           </g>
                        </g>
                        <g id="n1u4om9k" class="note">
                           <g class="notehead">
                              <use xlink:href="#E0A4-1xy9owa" x="9554" y="3515" height="720px" width="720px" />
                           </g>
                           <g id="sr5vymh" class="stem">
                              <rect x="9554" y="3543" height="584" width="18" />
                           </g>
                        </g>
                     </g>
                     <g id="n1x74s20" class="note">
                        <g class="notehead">
                           <use xlink:href="#E0A4-1xy9owa" x="10081" y="3605" height="720px" width="720px" />
                        </g>
                        <g id="s18qlx77" class="stem">
                           <rect x="10081" y="3633" height="602" width="18" />
                           <g id="f34svvp" class="flag">
                              <use xlink:href="#E241-1xy9owa" x="10081" y="4235" height="720px" width="720px" />
                           </g>
                        </g>
                     </g>
                  </g>
               </g>
               <g id="be1d2q3" class="barLine">
                  <path d="M10608 3425 L10608 4145" stroke="currentColor" stroke-width="27" />
                  <path d="M10738 3425 L10738 4145" stroke="currentColor" stroke-width="90" />
               </g>
            </g>
            <g id="s15vsfgs" class="systemMilestoneEnd s16oc3i6" />
         </g>
         <g id="pgko6j9" class="pageMilestoneEnd skhaduz" />
         <g id="puqeg1s" class="pageMilestoneEnd m10km37b" />
         <g id="pm4i5ew" class="pgHead">
            <text x="0" y="0" font-size="0px">
               <tspan id="rjls4kp" class="rend" x="10000" y="277" text-anchor="middle">
                  <tspan id="t112yckl" class="text">
                     <tspan font-size="405px" class="text">Air n 120</tspan>
                  </tspan>
               </tspan>
            </text>
         </g>
         <g id="p1rmfpl2" class="pgFoot autogenerated">
            <g id="f1ck35zd" class="fig">
               <g id="s14yo05y" class="svg" transform="translate(7750, 28099) scale(10, 10)">
                  <g>
                     <path fill="#00000" d="M 17.11278,49.26451 V 10.367554 h 12.696511 c 3.288815,7.336676 6.71267,14.610456 10.127281,21.888976 3.419998,-7.484684 6.255515,-14.204887 9.58887,-21.909915 2.436207,0.103726 4.316952,0.08453 6.484294,-0.05808 V 49.264423 H 50.274275 C 50.145222,38.35639 50.016136,27.448368 49.887066,16.540329 45.003488,27.315459 39.967448,38.433564 35.083854,49.208695 34.678996,49.343717 34.426583,49.135619 34.021726,49.270644 29.46588,39.330716 24.910049,29.390805 20.354201,19.450876 20.224341,29.388756 20.09461,39.326619 19.964815,49.264497 H 17.11278 Z M 36.754144,39.324695 C 32.721221,30.512695 28.6883,21.700679 24.655394,12.888662 22.530527,12.750737 22.656775,12.71031 20.714356,12.813974 v 0.966497 c 4.612938,9.99784 9.609439,20.748709 13.87298,30.081745 0.722248,-1.512523 1.444528,-3.025014 2.166808,-4.537521 z m 25.738417,9.939815 c 0,-12.965651 0,-25.931305 0,-38.896956 10.084388,0 20.168791,0 30.253178,0 0,0.960416 0,1.920849 0,2.881265 -6.482825,0 -12.965652,0 -19.448478,0 0,4.802097 0,9.604178 0,14.406277 5.52241,0 11.044819,0 16.567229,0 0,0.960415 0,1.920832 0,2.881248 -5.52241,0 -11.044819,0 -16.567229,0 0,5.282306 0,10.564611 0,15.846917 6.963035,0 13.926068,0 20.889103,0 0,0.960416 0,1.920832 0,2.881249 -10.564597,0 -21.129207,0 -31.693803,0 z m 4.321874,-2.160937 c 0,-11.765131 0,-23.530263 0,-35.295394 -0.720312,0 -1.440625,0 -2.160937,0 0,11.765131 0,23.530263 0,35.295394 0.720312,0 1.440625,0 2.160937,0 z m 32.41413,2.160937 c 0,-12.965651 0,-25.931305 0,-38.896956 2.401045,0 4.802095,0 7.203135,0 0,12.965651 0,25.931305 0,38.896956 -2.40104,0 -4.80209,0 -7.203135,0 z m 2.881265,-2.160937 c 0,-11.765131 0,-23.530263 0,-35.295394 -0.72031,0 -1.44064,0 -2.160953,0 0,11.765131 0,23.530263 0,35.295394 0.720313,0 1.440643,0 2.160953,0 z" />
                     <path fill="#00000" d="m 346.3,6.7 c -3.1,0.5 -4.9,4.4 -2.7,6.8 1.2,1.4 2.7,2.4 4.1,3.5 -2.4,5.3 -7.7,8.3 -11.9,12.1 -3.7,2.8 -7,6.2 -9.7,9.9 -2.2,-0.8 -0.3,-6.8 -0.6,-9.5 0.1,-3.1 0.7,-6.4 2.9,-8.7 1.3,-1.9 3,-3.5 4.5,-5.2 1.2,-3.4 -3.2,-4.9 -5.8,-4.6 -7.3,-0.5 -14.6,2 -20,6.8 -5,4.6 -10,10.1 -11.5,17 -0.9,3.5 -0.2,7.5 2.8,9.9 2.5,2.8 7.4,2.9 9.8,-0.2 1.7,-2.3 3.2,-4.8 3.8,-7.6 -0.1,-2.6 -4.4,-2.3 -4.3,0.2 1.2,2.4 -0.9,4.7 -2.7,6.2 -1.7,0.9 -4.7,0.7 -4.8,-1.7 -1,-5.8 2.1,-11.3 5.2,-16.1 4,-5.8 9.8,-11.2 17.2,-11.8 1.6,0 8.1,-1.2 6.8,1.4 -2.8,2.8 -5.6,6.1 -6,10.3 -1.6,7.7 0.1,15.7 -2.3,23.2 -1.1,3.9 2,2.6 2.5,0.2 3.3,-7.4 8.9,-13.4 15.1,-18.5 4.2,-3.9 9.5,-7.1 11.9,-12.6 1.3,-3.6 1.2,-9 -2.7,-10.9 -0.6,-0.2 -1.2,-0.3 -1.8,-0.3 z m 66,14.5 c -2,0.8 -1.8,4.9 0.8,4.4 3.4,0.4 2.9,-6.2 -0.8,-4.4 z m 0.6,7.3 c -1.3,0.5 -7.6,0.5 -5.4,2.2 4,-0.3 0.7,4.5 0.6,6.7 -0.4,2.9 -2.4,5.9 -1.2,8.8 2.7,1.7 5.6,-0.8 6.8,-3.2 1.6,-1.4 -0.5,-3 -1.2,-0.9 -0.4,0.8 -2.4,3.5 -2.6,1.8 1.1,-5 2.7,-9.9 3.9,-14.9 l -0.1,-0.5 h -0.9 z m -65.1,0.2 c -6.5,1.6 -10.5,9.5 -8.2,15.7 2.1,3.4 7.4,2.9 10.1,0.4 2,-0.2 3.6,-5.3 1,-3.4 -1.4,2 -4,4.2 -6.5,2.8 -2.2,-1.9 -1.9,-5.7 1.7,-5.3 3.1,-0.9 6.9,-2.1 8.1,-5.5 0.9,-2.7 -1.6,-5.2 -4.3,-4.8 h -1.1 -0.7 z m 13.6,0 c -2.2,0 -8.5,1.8 -2.9,2.3 0.9,1.9 -1,4.9 -1.1,7.2 -0.5,2.9 -1.4,5.7 -1.7,8.7 3.7,0.7 3.8,-2.6 4.4,-5.3 0.9,-3.3 1.6,-7 4.1,-9.5 2.4,1.6 6.8,-0.7 3.7,-3.4 -2.9,-0.5 -4.8,2.4 -6.2,4.3 0,-1.2 2.4,-5 -0.2,-4.3 z m 15.8,0 c -6.4,1.3 -9.6,9.1 -7.7,14.9 1.9,4 7.7,3.9 11,1.7 4.1,-3 6,-8.9 4.4,-13.7 -1.3,-3 -4.8,-3.2 -7.6,-3 z m 17,0 c -2.3,0 -8.8,1.9 -3,2.4 0.4,2.5 -1,5.7 -1.4,8.4 -0.7,2.4 -1.8,7.5 2.1,7.2 3.8,-0.1 6.5,-3.5 8.5,-6.3 2,-3.2 4.5,-7 3.3,-10.9 -3.7,-3 -3.6,2.6 -3.1,5.1 -0.7,3.8 -2.7,7.9 -6.2,9.8 -3.6,0.6 -1,-4.3 -0.8,-6.1 0.6,-3.2 1.6,-6.3 1.9,-9.5 -0.4,0 -0.8,0 -1.1,0 z m 30.6,0 c -6.3,1.2 -9.5,8.9 -7.8,14.7 1.5,4 7.2,4.2 10.5,2.4 4.6,-2.8 6.6,-9.3 4.8,-14.3 -1.4,-2.8 -4.8,-3 -7.5,-2.8 z m -75.4,1.7 c 2.1,1.5 0.2,4.7 -1.6,5.7 -1.1,0.4 -5.5,3.4 -4.6,0.7 0.8,-2.7 2.2,-6.2 5.3,-6.6 l 0.9,0.1 z m 30.8,0 c 2.6,1.5 1.3,5.2 0.8,7.6 -0.8,2.7 -1.9,5.9 -4.7,7.1 -5.1,0.8 -4,-5.8 -2.8,-8.8 1,-2.8 3,-6.8 6.7,-5.8 z m 47.1,-0.1 c 2.9,0.7 2,4.7 1.5,6.8 -0.7,3 -1.8,6.7 -5,8 -4.7,0.8 -4,-5.1 -3,-7.9 0.9,-3 2.7,-7.3 6.5,-6.8 z m -88.1,5.9 c -0.3,1.3 0.9,-0.6 0,0 z m -1.1,2.4 c -0.2,0.5 0.5,-0.1 0,0 z m -1.3,4.5 c -0.3,1.3 0.8,-0.2 0,0 z" />
                     <text y="41" x="201" fill="#00000" style="font-style:italic;font-weight:normal;font-size:30px;line-height:125%;font-family:Times;text-anchor:middle" xml:space="preserve">engraved with</text>
                  </g>
               </g>
            </g>
         </g>
      </g>
   </svg>
</svg>
