<?xml version="1.0" encoding="UTF-8" standalone="no"?>
<svg width="2100px" height="2970px" version="1.1" xmlns="http://www.w3.org/2000/svg" xmlns:xlink="http://www.w3.org/1999/xlink" xmlns:mei="http://www.music-encoding.org/ns/mei" overflow="visible">
   <desc>Engraved by Verovio 3.13.1</desc>
   <defs>
      <symbol id="E240-1ja1g2m" viewBox="0 0 1000 1000" overflow="inherit">
         <path transform="scale(1,-1)" d="M179 -646c15 29 29 55 46 102c18 49 30 108 30 138c0 105 -80 173 -168 200c-18 5 -47 9 -87 16v190h22c8 0 33 -61 71 -95c4 -3 -2 3 61 -56c62 -58 122 -137 122 -241c0 -38 -13 -106 -35 -163c-20 -51 -43 -99 -66 -132c-6 -5 -10 -7 -13 -7s-5 2 -5 5l4 10 c1 3 14 25 18 33z" />
      </symbol>
      <symbol id="E044-1ja1g2m" viewBox="0 0 1000 1000" overflow="inherit">
         <path transform="scale(1,-1)" d="M0 0c0 28 22 50 50 50s50 -22 50 -50s-22 -50 -50 -50s-50 22 -50 50z" />
      </symbol>
      <symbol id="E050-1ja1g2m" viewBox="0 0 1000 1000" overflow="inherit">
         <path transform="scale(1,-1)" d="M441 -245c-23 -4 -48 -6 -76 -6c-59 0 -102 7 -130 20c-88 42 -150 93 -187 154c-26 44 -43 103 -48 176c0 6 -1 13 -1 19c0 54 15 111 45 170c29 57 65 106 110 148s96 85 153 127c-3 16 -8 46 -13 92c-4 43 -5 73 -5 89c0 117 16 172 69 257c34 54 64 82 89 82 c21 0 43 -30 69 -92s39 -115 41 -159v-15c0 -109 -21 -162 -67 -241c-13 -20 -63 -90 -98 -118c-13 -9 -25 -19 -37 -29l31 -181c8 1 18 2 28 2c58 0 102 -12 133 -35c59 -43 92 -104 98 -184c1 -7 1 -15 1 -22c0 -123 -87 -209 -181 -248c8 -57 17 -110 25 -162 c5 -31 6 -58 6 -80c0 -30 -5 -53 -14 -70c-35 -64 -88 -99 -158 -103c-5 0 -11 -1 -16 -1c-37 0 -72 10 -108 27c-50 24 -77 59 -80 105v11c0 29 7 55 20 76c18 28 45 42 79 44h6c49 0 93 -42 97 -87v-9c0 -51 -34 -86 -105 -106c17 -24 51 -36 102 -36c62 0 116 43 140 85 c9 16 13 41 13 74c0 20 -1 42 -5 67c-8 53 -18 106 -26 159zM461 939c-95 0 -135 -175 -135 -286c0 -24 2 -48 5 -71c50 39 92 82 127 128c40 53 60 100 60 140v8c-4 53 -22 81 -55 81h-2zM406 119l54 -326c73 25 110 78 110 161c0 7 0 15 -1 23c-7 95 -57 142 -151 142h-12 zM382 117c-72 -2 -128 -47 -128 -120v-7c2 -46 43 -99 75 -115c-3 -2 -7 -5 -10 -10c-70 33 -116 88 -123 172v11c0 68 44 126 88 159c23 17 49 29 78 36l-29 170c-21 -13 -52 -37 -92 -73c-50 -44 -86 -84 -109 -119c-45 -69 -67 -130 -67 -182v-13c5 -68 35 -127 93 -176 s125 -73 203 -73c25 0 50 3 75 9c-19 111 -36 221 -54 331z" />
      </symbol>
      <symbol id="E082-1ja1g2m" viewBox="0 0 1000 1000" overflow="inherit">
         <path transform="scale(1,-1)" d="M124 -185c-18 0 -55 -14 -65 -65h-36l-3 30c0 25 6 45 18 63c11 19 22 30 39 43l121 82l37 29c15 11 27 29 38 54c12 24 18 47 18 70c0 40 -19 88 -94 88c-25 0 -32 0 -50 -8c-14 -5 -23 -12 -26 -22c3 -9 7 -15 10 -18l24 -17c12 -7 17 -11 27 -21c5 -7 7 -16 7 -27 c0 -12 0 -57 -79 -74c-30 0 -76 26 -76 94c0 66 81 135 197 135c72 0 181 -32 181 -150c0 -53 -32 -95 -113 -133l-91 -41c-26 -11 -45 -23 -57 -37l49 7c84 0 115 -41 148 -41c20 0 33 20 39 61h35c0 -152 -68 -168 -114 -168c-17 0 -65 0 -79 7h10l-28 17 c-49 37 -69 40 -87 42z" />
      </symbol>
      <symbol id="E084-1ja1g2m" viewBox="0 0 1000 1000" overflow="inherit">
         <path transform="scale(1,-1)" d="M20 -78c84 97 114 180 134 329h170c-13 -32 -82 -132 -99 -151l-84 -97c-33 -36 -59 -63 -80 -81h162v102l127 123v-225h57v-39h-57v-34c0 -43 19 -65 57 -65v-34h-244v36c48 0 60 26 60 70v27h-203v39z" />
      </symbol>
      <symbol id="E0A4-1ja1g2m" viewBox="0 0 1000 1000" overflow="inherit">
         <path transform="scale(1,-1)" d="M0 -39c0 68 73 172 200 172c66 0 114 -37 114 -95c0 -84 -106 -171 -218 -171c-64 0 -96 30 -96 94z" />
      </symbol>
   </defs>
   <style type="text/css">g.page-margin{font-family:Times;} g.ending, g.fing, g.reh, g.tempo{font-weight:bold;} g.dir, g.dynam, g.mNum{font-style:italic;} g.label{font-weight:normal;}</style>
   <svg class="definition-scale" color="black" viewBox="0 0 21000 29700">
      <g class="page-margin" transform="translate(500, 500)">
         <g id="mtim1lo" class="mdiv pageMilestone" />
         <g id="s7r7pna" class="score pageMilestone" />
         <g id="s3h54l7" class="system">
            <g id="llh919n" class="label">
               <text x="1105" y="1535" text-anchor="end" font-size="0px">
                  <tspan id="toa1mdp" class="text">
                     <tspan font-size="405px" class="text">Piano</tspan>
                  </tspan>
               </text>
            </g>
            <g id="s1xro3ni" class="section systemMilestone" />
            <g id="p1haz3x2" class="pb" />
            <g id="mtb4fki" class="measure">
               <g id="s1w7xmqv" class="staff">
                  <path d="M1285 1085 L5051 1085" stroke="currentColor" stroke-width="13" />
                  <path d="M1285 1265 L5051 1265" stroke="currentColor" stroke-width="13" />
                  <path d="M1285 1445 L5051 1445" stroke="currentColor" stroke-width="13" />
                  <path d="M1285 1625 L5051 1625" stroke="currentColor" stroke-width="13" />
                  <path d="M1285 1805 L5051 1805" stroke="currentColor" stroke-width="13" />
                  <g id="c1k7pkm2" class="clef">
                     <use xlink:href="#E050-1ja1g2m" x="1375" y="1625" height="720px" width="720px" />
                  </g>
                  <g id="kado7yu" class="keySig" />
                  <g id="mfpmn4k" class="meterSig">
                     <use xlink:href="#E082-1ja1g2m" x="2006" y="1265" height="720px" width="720px" />
                     <use xlink:href="#E084-1ja1g2m" x="2011" y="1625" height="720px" width="720px" />
                  </g>
                  <g id="l195yjhd" class="layer">
                     <g id="b1cpb94p" class="beam">
                        <polygon points="2582,2030 3545,2030 3545,1940 2582,1940" />
                        <polygon points="3158,1895 3545,1895 3545,1805 3158,1805" />
                        <g id="n1ihmjae" class="note">
                           <g class="notehead">
                              <use xlink:href="#E0A4-1ja1g2m" x="2582" y="1355" height="720px" width="720px" />
                           </g>
                           <g id="s1kbffj9" class="stem">
                              <rect x="2582" y="1383" height="629" width="18" />
                           </g>
                        </g>
                        <g id="n2klvnt" class="note">
                           <g class="notehead">
                              <use xlink:href="#E0A4-1ja1g2m" x="3149" y="1445" height="720px" width="720px" />
                           </g>
                           <g id="sh01a7f" class="stem">
                              <rect x="3149" y="1473" height="539" width="18" />
                           </g>
                        </g>
                        <g id="n1e7hoil" class="note">
                           <g class="notehead">
                              <use xlink:href="#E0A4-1ja1g2m" x="3527" y="1355" height="720px" width="720px" />
                           </g>
                           <g id="sptkr7l" class="stem">
                              <rect x="3527" y="1383" height="629" width="18" />
                           </g>
                        </g>
                     </g>
                     <g id="bg9cmdy" class="beam">
                        <polygon points="4113,950 4697,860 4697,950 4113,1040" />
                        <g id="n17l5u3u" class="note">
                           <g class="notehead">
                              <use xlink:href="#E0A4-1ja1g2m" x="3905" y="1535" height="720px" width="720px" />
                           </g>
                           <g id="skrq9gs" class="stem">
                              <rect x="4113" y="968" height="539" width="18" />
                           </g>
                        </g>
                        <g id="nidr8s2" class="note">
                           <g class="notehead">
                              <use xlink:href="#E0A4-1ja1g2m" x="4471" y="1445" height="720px" width="720px" />
                           </g>
                           <g id="s1tzd2bf" class="stem">
                              <rect x="4679" y="878" height="539" width="18" />
                           </g>
                        </g>
                     </g>
                  </g>
               </g>
               <g id="bqtxvch" class="barLine">
                  <path d="M5038 1085 L5038 1805" stroke="currentColor" stroke-width="27" />
               </g>
            </g>
            <g id="m415i5u" class="measure">
               <g id="s1859r3f" class="staff">
                  <path d="M5051 1085 L7267 1085" stroke="currentColor" stroke-width="13" />
                  <path d="M5051 1265 L7267 1265" stroke="currentColor" stroke-width="13" />
                  <path d="M5051 1445 L7267 1445" stroke="currentColor" stroke-width="13" />
                  <path d="M5051 1625 L7267 1625" stroke="currentColor" stroke-width="13" />
                  <path d="M5051 1805 L7267 1805" stroke="currentColor" stroke-width="13" />
                  <g id="l15gim5w" class="layer">
                     <g id="neg2s7k" class="note">
                        <g class="notehead">
                           <use xlink:href="#E0A4-1ja1g2m" x="5149" y="1535" height="540px" width="540px" />
                        </g>
                        <g id="s1rc3ubi" class="stem">
                           <rect x="5300" y="1063" height="451" width="18" />
                           <g id="f45ju0u" class="flag">
                              <use xlink:href="#E240-1ja1g2m" x="5300" y="1063" height="540px" width="540px" />
                           </g>
                        </g>
                     </g>
                     <g id="n22vwg2" class="note">
                        <g class="notehead">
                           <use xlink:href="#E0A4-1ja1g2m" x="5516" y="1625" height="720px" width="720px" />
                        </g>
                        <g id="s1acnucm" class="stem">
                           <rect x="5724" y="995" height="602" width="18" />
                        </g>
                     </g>
                     <g id="n148dg05" class="note">
                        <g class="notehead">
                           <use xlink:href="#E0A4-1ja1g2m" x="6385" y="1535" height="720px" width="720px" />
                        </g>
                        <g id="sb3ry5r" class="stem">
                           <rect x="6593" y="905" height="602" width="18" />
                        </g>
                     </g>
                  </g>
               </g>
               <g id="b16ikekp" class="barLine">
                  <path d="M7254 1085 L7254 1805" stroke="currentColor" stroke-width="27" />
               </g>
            </g>
            <g id="muokmq" class="measure">
               <g id="s84w3ej" class="staff">
                  <path d="M7267 1085 L9919 1085" stroke="currentColor" stroke-width="13" />
                  <path d="M7267 1265 L9919 1265" stroke="currentColor" stroke-width="13" />
                  <path d="M7267 1445 L9919 1445" stroke="currentColor" stroke-width="13" />
                  <path d="M7267 1625 L9919 1625" stroke="currentColor" stroke-width="13" />
                  <path d="M7267 1805 L9919 1805" stroke="currentColor" stroke-width="13" />
                  <g id="lgto2x2" class="layer">
                     <g id="b11oizef" class="beam">
                        <polygon points="7450,2030 8413,2030 8413,1940 7450,1940" />
                        <polygon points="8026,1895 8413,1895 8413,1805 8026,1805" />
                        <g id="n13l6y1m" class="note">
                           <g class="notehead">
                              <use xlink:href="#E0A4-1ja1g2m" x="7450" y="1355" height="720px" width="720px" />
                           </g>
                           <g id="s1m37s03" class="stem">
                              <rect x="7450" y="1383" height="629" width="18" />
                           </g>
                        </g>
                        <g id="n1rbg5re" class="note">
                           <g class="notehead">
                              <use xlink:href="#E0A4-1ja1g2m" x="8017" y="1445" height="720px" width="720px" />
                           </g>
                           <g id="s1tx4st1" class="stem">
                              <rect x="8017" y="1473" height="539" width="18" />
                           </g>
                        </g>
                        <g id="n1kjspw1" class="note">
                           <g class="notehead">
                              <use xlink:href="#E0A4-1ja1g2m" x="8395" y="1355" height="720px" width="720px" />
                           </g>
                           <g id="salet4k" class="stem">
                              <rect x="8395" y="1383" height="629" width="18" />
                           </g>
                        </g>
                     </g>
                     <g id="b14rh90i" class="beam">
                        <polygon points="8981,950 9565,860 9565,950 8981,1040" />
                        <g id="n11rj8zo" class="note">
                           <g class="notehead">
                              <use xlink:href="#E0A4-1ja1g2m" x="8773" y="1535" height="720px" width="720px" />
                           </g>
                           <g id="s7pj0ie" class="stem">
                              <rect x="8981" y="968" height="539" width="18" />
                           </g>
                        </g>
                        <g id="n1xe9l3k" class="note">
                           <g class="notehead">
                              <use xlink:href="#E0A4-1ja1g2m" x="9339" y="1445" height="720px" width="720px" />
                           </g>
                           <g id="s976nrr" class="stem">
                              <rect x="9547" y="878" height="539" width="18" />
                           </g>
                        </g>
                     </g>
                  </g>
               </g>
               <g id="btlpjzc" class="barLine">
                  <path d="M9906 1085 L9906 1805" stroke="currentColor" stroke-width="27" />
               </g>
            </g>
            <g id="m1hl2dnb" class="measure">
               <g id="s584v0w" class="staff">
                  <path d="M9919 1085 L12500 1085" stroke="currentColor" stroke-width="13" />
                  <path d="M9919 1265 L12500 1265" stroke="currentColor" stroke-width="13" />
                  <path d="M9919 1445 L12500 1445" stroke="currentColor" stroke-width="13" />
                  <path d="M9919 1625 L12500 1625" stroke="currentColor" stroke-width="13" />
                  <path d="M9919 1805 L12500 1805" stroke="currentColor" stroke-width="13" />
                  <g id="ld19jzh" class="layer">
                     <g id="n103m9x" class="note">
                        <g class="notehead">
                           <use xlink:href="#E0A4-1ja1g2m" x="10017" y="1535" height="540px" width="540px" />
                        </g>
                        <g id="s1vdif71" class="stem">
                           <rect x="10168" y="1063" height="451" width="18" />
                           <g id="f1m83od5" class="flag">
                              <use xlink:href="#E240-1ja1g2m" x="10168" y="1063" height="540px" width="540px" />
                           </g>
                        </g>
                     </g>
                     <g id="n17qsmpl" class="note">
                        <g class="notehead">
                           <use xlink:href="#E0A4-1ja1g2m" x="10384" y="1625" height="720px" width="720px" />
                        </g>
                        <g id="slpdkia" class="stem">
                           <rect x="10592" y="995" height="602" width="18" />
                        </g>
                     </g>
                     <g id="n1q0d2oz" class="note">
                        <g class="notehead">
                           <use xlink:href="#E0A4-1ja1g2m" x="11253" y="1535" height="720px" width="720px" />
                        </g>
                        <g id="s1gb5xnn" class="stem">
                           <rect x="11461" y="905" height="602" width="18" />
                        </g>
                     </g>
                  </g>
               </g>
               <g id="b1xbll09" class="barLine">
                  <path d="M12122 1085 L12122 1805" stroke="currentColor" stroke-width="27" />
                  <path d="M12252 1085 L12252 1805" stroke="currentColor" stroke-width="90" />
                  <path d="M12383 1085 L12383 1805" stroke="currentColor" stroke-width="27" />
                  <use xlink:href="#E044-1ja1g2m" x="12428" y="1355" height="720px" width="720px" />
                  <use xlink:href="#E044-1ja1g2m" x="12428" y="1535" height="720px" width="720px" />
                  <use xlink:href="#E044-1ja1g2m" x="12005" y="1355" height="720px" width="720px" />
                  <use xlink:href="#E044-1ja1g2m" x="12005" y="1535" height="720px" width="720px" />
               </g>
            </g>
            <g id="mkwxgfs" class="measure">
               <g id="s1rywwh7" class="staff">
                  <path d="M12500 1085 L15152 1085" stroke="currentColor" stroke-width="13" />
                  <path d="M12500 1265 L15152 1265" stroke="currentColor" stroke-width="13" />
                  <path d="M12500 1445 L15152 1445" stroke="currentColor" stroke-width="13" />
                  <path d="M12500 1625 L15152 1625" stroke="currentColor" stroke-width="13" />
                  <path d="M12500 1805 L15152 1805" stroke="currentColor" stroke-width="13" />
                  <g id="lv1vymi" class="layer">
                     <g id="b1073zs8" class="beam">
                        <polygon points="12683,1985 13646,1985 13646,1895 12683,1895" />
                        <polygon points="13259,1850 13646,1850 13646,1760 13259,1760" />
                        <g id="nnla39h" class="note">
                           <g class="notehead">
                              <use xlink:href="#E0A4-1ja1g2m" x="12683" y="1355" height="720px" width="720px" />
                           </g>
                           <g id="s1tb2o9s" class="stem">
                              <rect x="12683" y="1383" height="584" width="18" />
                           </g>
                        </g>
                        <g id="n13r7d0k" class="note">
                           <g class="notehead">
                              <use xlink:href="#E0A4-1ja1g2m" x="13250" y="1355" height="720px" width="720px" />
                           </g>
                           <g id="s66jbhj" class="stem">
                              <rect x="13250" y="1383" height="584" width="18" />
                           </g>
                        </g>
                        <g id="nmycs29" class="note">
                           <g class="notehead">
                              <use xlink:href="#E0A4-1ja1g2m" x="13628" y="1355" height="720px" width="720px" />
                           </g>
                           <g id="s1dgyxax" class="stem">
                              <rect x="13628" y="1383" height="584" width="18" />
                           </g>
                        </g>
                     </g>
                     <g id="b1jd3xhd" class="beam">
                        <polygon points="14006,2030 14590,1940 14590,1850 14006,1940" />
                        <g id="n1qor6vn" class="note">
                           <g class="notehead">
                              <use xlink:href="#E0A4-1ja1g2m" x="14006" y="1445" height="720px" width="720px" />
                           </g>
                           <g id="s788si7" class="stem">
                              <rect x="14006" y="1473" height="539" width="18" />
                           </g>
                        </g>
                        <g id="nilajf6" class="note">
                           <g class="notehead">
                              <use xlink:href="#E0A4-1ja1g2m" x="14572" y="1355" height="720px" width="720px" />
                           </g>
                           <g id="s1akamtm" class="stem">
                              <rect x="14572" y="1383" height="539" width="18" />
                           </g>
                        </g>
                     </g>
                  </g>
               </g>
               <g id="bi2amyg" class="barLine">
                  <path d="M15139 1085 L15139 1805" stroke="currentColor" stroke-width="27" />
               </g>
            </g>
            <g id="m1wy7htg" class="measure">
               <g id="s1d7a3mb" class="staff">
                  <path d="M15152 1085 L17540 1085" stroke="currentColor" stroke-width="13" />
                  <path d="M15152 1265 L17540 1265" stroke="currentColor" stroke-width="13" />
                  <path d="M15152 1445 L17540 1445" stroke="currentColor" stroke-width="13" />
                  <path d="M15152 1625 L17540 1625" stroke="currentColor" stroke-width="13" />
                  <path d="M15152 1805 L17540 1805" stroke="currentColor" stroke-width="13" />
                  <g id="l1b0cdh6" class="layer">
                     <g id="n3wir5z" class="note">
                        <g class="notehead">
                           <use xlink:href="#E0A4-1ja1g2m" x="15335" y="1265" height="720px" width="720px" />
                        </g>
                        <g id="s13dobkd" class="stem">
                           <rect x="15335" y="1293" height="602" width="18" />
                        </g>
                     </g>
                     <g id="b1k3ik3p" class="beam">
                        <polygon points="16205,2030 17167,2030 17167,1940 16205,1940" />
                        <polygon points="16780,1895 17167,1895 17167,1805 16780,1805" />
                        <g id="n18w306n" class="note">
                           <g class="notehead">
                              <use xlink:href="#E0A4-1ja1g2m" x="16205" y="1355" height="720px" width="720px" />
                           </g>
                           <g id="sy8m2ui" class="stem">
                              <rect x="16205" y="1383" height="629" width="18" />
                           </g>
                        </g>
                        <g id="n10meg3d" class="note">
                           <g class="notehead">
                              <use xlink:href="#E0A4-1ja1g2m" x="16771" y="1445" height="720px" width="720px" />
                           </g>
                           <g id="sehthwz" class="stem">
                              <rect x="16771" y="1473" height="539" width="18" />
                           </g>
                        </g>
                        <g id="n13aa5oh" class="note">
                           <g class="notehead">
                              <use xlink:href="#E0A4-1ja1g2m" x="17149" y="1355" height="720px" width="720px" />
                           </g>
                           <g id="srgs0bx" class="stem">
                              <rect x="17149" y="1383" height="629" width="18" />
                           </g>
                        </g>
                     </g>
                  </g>
               </g>
               <g id="bf5gbcx" class="barLine">
                  <path d="M17527 1085 L17527 1805" stroke="currentColor" stroke-width="27" />
               </g>
            </g>
            <g id="mk3i9mg" class="measure">
               <g id="s5qdjko" class="staff">
                  <path d="M17540 1085 L20003 1085" stroke="currentColor" stroke-width="13" />
                  <path d="M17540 1265 L20003 1265" stroke="currentColor" stroke-width="13" />
                  <path d="M17540 1445 L20003 1445" stroke="currentColor" stroke-width="13" />
                  <path d="M17540 1625 L20003 1625" stroke="currentColor" stroke-width="13" />
                  <path d="M17540 1805 L20003 1805" stroke="currentColor" stroke-width="13" />
                  <g id="l19cveub" class="layer">
                     <g id="b1toszy7" class="beam">
                        <polygon points="17931,950 18516,860 18516,950 17931,1040" />
                        <g id="n17om9c2" class="note">
                           <g class="notehead">
                              <use xlink:href="#E0A4-1ja1g2m" x="17723" y="1535" height="720px" width="720px" />
                           </g>
                           <g id="s1530asj" class="stem">
                              <rect x="17931" y="968" height="539" width="18" />
                           </g>
                        </g>
                        <g id="n1vx76u4" class="note">
                           <g class="notehead">
                              <use xlink:href="#E0A4-1ja1g2m" x="18290" y="1445" height="720px" width="720px" />
                           </g>
                           <g id="sivxb3r" class="stem">
                              <rect x="18498" y="878" height="539" width="18" />
                           </g>
                        </g>
                     </g>
                     <g id="b1lf02m6" class="beam">
                        <polygon points="19065,905 19649,995 19649,1085 19065,995" />
                        <g id="n1ums3ti" class="note">
                           <g class="notehead">
                              <use xlink:href="#E0A4-1ja1g2m" x="18857" y="1535" height="720px" width="720px" />
                           </g>
                           <g id="s12ielrj" class="stem">
                              <rect x="19065" y="923" height="584" width="18" />
                           </g>
                        </g>
                        <g id="nwv9xjo" class="note">
                           <g class="notehead">
                              <use xlink:href="#E0A4-1ja1g2m" x="19423" y="1625" height="720px" width="720px" />
                           </g>
                           <g id="s15j6d8r" class="stem">
                              <rect x="19631" y="1013" height="584" width="18" />
                           </g>
                        </g>
                     </g>
                  </g>
               </g>
               <g id="b1fhpung" class="barLine">
                  <path d="M19990 1085 L19990 1805" stroke="currentColor" stroke-width="27" />
               </g>
            </g>
         </g>
         <g id="sttbmr6" class="system">
            <g id="l8h3a1q" class="labelAbbr">
               <text x="914" y="3884" text-anchor="end" font-size="0px">
                  <tspan id="t1u29mnd" class="text">
                     <tspan font-size="405px" class="text">Pno.</tspan>
                  </tspan>
               </text>
            </g>
            <g id="m89kuc6" class="measure">
               <g id="mvzaith" class="mNum autogenerated">
                  <text x="1094" y="3191" text-anchor="middle" font-size="0px">
                     <tspan id="tj0s73o" class="text">
                        <tspan font-size="324px" class="text">8</tspan>
                     </tspan>
                  </text>
               </g>
               <g id="s3q0h6w" class="staff">
                  <path d="M1094 3434 L4350 3434" stroke="currentColor" stroke-width="13" />
                  <path d="M1094 3614 L4350 3614" stroke="currentColor" stroke-width="13" />
                  <path d="M1094 3794 L4350 3794" stroke="currentColor" stroke-width="13" />
                  <path d="M1094 3974 L4350 3974" stroke="currentColor" stroke-width="13" />
                  <path d="M1094 4154 L4350 4154" stroke="currentColor" stroke-width="13" />
                  <g id="c1n5ku6d" class="clef">
                     <use xlink:href="#E050-1ja1g2m" x="1184" y="3974" height="720px" width="720px" />
                  </g>
                  <g id="k8iig5k" class="keySig" />
                  <g id="l1qfvz4j" class="layer">
                     <g id="b1pc3f8o" class="beam">
                        <polygon points="1919,4334 2867,4334 2867,4244 1919,4244" />
                        <polygon points="2486,4199 2867,4199 2867,4109 2486,4109" />
                        <g id="na9m9iz" class="note">
                           <g class="notehead">
                              <use xlink:href="#E0A4-1ja1g2m" x="1919" y="3704" height="720px" width="720px" />
                           </g>
                           <g id="su4lpll" class="stem">
                              <rect x="1919" y="3732" height="584" width="18" />
                           </g>
                        </g>
                        <g id="ns76q1b" class="note">
                           <g class="notehead">
                              <use xlink:href="#E0A4-1ja1g2m" x="2477" y="3704" height="720px" width="720px" />
                           </g>
                           <g id="s15mwvqx" class="stem">
                              <rect x="2477" y="3732" height="584" width="18" />
                           </g>
                        </g>
                        <g id="n683ucx" class="note">
                           <g class="notehead">
                              <use xlink:href="#E0A4-1ja1g2m" x="2849" y="3704" height="720px" width="720px" />
                           </g>
                           <g id="sw6h8ts" class="stem">
                              <rect x="2849" y="3732" height="584" width="18" />
                           </g>
                        </g>
                     </g>
                     <g id="b1u8b1si" class="beam">
                        <polygon points="3221,4379 3797,4289 3797,4199 3221,4289" />
                        <g id="n3s08gi" class="note">
                           <g class="notehead">
                              <use xlink:href="#E0A4-1ja1g2m" x="3221" y="3794" height="720px" width="720px" />
                           </g>
                           <g id="s14soelc" class="stem">
                              <rect x="3221" y="3822" height="539" width="18" />
                           </g>
                        </g>
                        <g id="n1e40b1s" class="note">
                           <g class="notehead">
                              <use xlink:href="#E0A4-1ja1g2m" x="3779" y="3704" height="720px" width="720px" />
                           </g>
                           <g id="s187heic" class="stem">
                              <rect x="3779" y="3732" height="539" width="18" />
                           </g>
                        </g>
                     </g>
                  </g>
               </g>
               <g id="b2g2dsb" class="barLine">
                  <path d="M4337 3434 L4337 4154" stroke="currentColor" stroke-width="27" />
               </g>
            </g>
            <g id="sp3p3mu" class="sb" />
            <g id="mhgkpz5" class="measure">
               <g id="s10alhvh" class="staff">
                  <path d="M4350 3434 L6701 3434" stroke="currentColor" stroke-width="13" />
                  <path d="M4350 3614 L6701 3614" stroke="currentColor" stroke-width="13" />
                  <path d="M4350 3794 L6701 3794" stroke="currentColor" stroke-width="13" />
                  <path d="M4350 3974 L6701 3974" stroke="currentColor" stroke-width="13" />
                  <path d="M4350 4154 L6701 4154" stroke="currentColor" stroke-width="13" />
                  <g id="lghjwht" class="layer">
                     <g id="n3qsww" class="note">
                        <g class="notehead">
                           <use xlink:href="#E0A4-1ja1g2m" x="4530" y="3614" height="720px" width="720px" />
                        </g>
                        <g id="sqkc0j8" class="stem">
                           <rect x="4530" y="3642" height="602" width="18" />
                        </g>
                     </g>
                     <g id="bzxb2m5" class="beam">
                        <polygon points="5386,4379 6334,4379 6334,4289 5386,4289" />
                        <polygon points="5953,4244 6334,4244 6334,4154 5953,4154" />
                        <g id="nvpd0rm" class="note">
                           <g class="notehead">
                              <use xlink:href="#E0A4-1ja1g2m" x="5386" y="3704" height="720px" width="720px" />
                           </g>
                           <g id="seqm1ng" class="stem">
                              <rect x="5386" y="3732" height="629" width="18" />
                           </g>
                        </g>
                        <g id="nvejf1p" class="note">
                           <g class="notehead">
                              <use xlink:href="#E0A4-1ja1g2m" x="5944" y="3794" height="720px" width="720px" />
                           </g>
                           <g id="splt6no" class="stem">
                              <rect x="5944" y="3822" height="539" width="18" />
                           </g>
                        </g>
                        <g id="n96mvn1" class="note">
                           <g class="notehead">
                              <use xlink:href="#E0A4-1ja1g2m" x="6316" y="3704" height="720px" width="720px" />
                           </g>
                           <g id="sbhidjw" class="stem">
                              <rect x="6316" y="3732" height="629" width="18" />
                           </g>
                        </g>
                     </g>
                  </g>
               </g>
               <g id="b1dx72cq" class="barLine">
                  <path d="M6688 3434 L6688 4154" stroke="currentColor" stroke-width="27" />
               </g>
            </g>
            <g id="mt7gogd" class="measure">
               <g id="s1g5q295" class="staff">
                  <path d="M6701 3434 L9153 3434" stroke="currentColor" stroke-width="13" />
                  <path d="M6701 3614 L9153 3614" stroke="currentColor" stroke-width="13" />
                  <path d="M6701 3794 L9153 3794" stroke="currentColor" stroke-width="13" />
                  <path d="M6701 3974 L9153 3974" stroke="currentColor" stroke-width="13" />
                  <path d="M6701 4154 L9153 4154" stroke="currentColor" stroke-width="13" />
                  <g id="lrdyt0r" class="layer">
                     <g id="bqy3xo3" class="beam">
                        <polygon points="7089,3299 7665,3209 7665,3299 7089,3389" />
                        <g id="n15u9nri" class="note">
                           <g class="notehead">
                              <use xlink:href="#E0A4-1ja1g2m" x="6881" y="3884" height="720px" width="720px" />
                           </g>
                           <g id="siuycmh" class="stem">
                              <rect x="7089" y="3317" height="539" width="18" />
                           </g>
                        </g>
                        <g id="n1pth5vp" class="note">
                           <g class="notehead">
                              <use xlink:href="#E0A4-1ja1g2m" x="7439" y="3794" height="720px" width="720px" />
                           </g>
                           <g id="s18c708y" class="stem">
                              <rect x="7647" y="3227" height="539" width="18" />
                           </g>
                        </g>
                     </g>
                     <g id="n1s7guwr" class="note">
                        <g class="notehead">
                           <use xlink:href="#E0A4-1ja1g2m" x="7755" y="3794" height="540px" width="540px" />
                        </g>
                        <g id="sg4myq5" class="stem">
                           <rect x="7906" y="3344" height="429" width="18" />
                           <g id="f1bxo174" class="flag">
                              <use xlink:href="#E240-1ja1g2m" x="7906" y="3344" height="540px" width="540px" />
                           </g>
                        </g>
                     </g>
                     <g id="n1fs3c5o" class="note">
                        <g class="notehead">
                           <use xlink:href="#E0A4-1ja1g2m" x="8122" y="3884" height="720px" width="720px" />
                        </g>
                        <g id="s1jjvql2" class="stem">
                           <rect x="8330" y="3254" height="602" width="18" />
                        </g>
                     </g>
                  </g>
               </g>
               <g id="bjeg9vw" class="barLine">
                  <path d="M8978 3434 L8978 4154" stroke="currentColor" stroke-width="27" />
                  <path d="M9108 3434 L9108 4154" stroke="currentColor" stroke-width="90" />
               </g>
            </g>
            <g id="s1wunkz6" class="systemMilestoneEnd s1xro3ni" />
         </g>
         <g id="p1uxuudw" class="pageMilestoneEnd s7r7pna" />
         <g id="p1agrihg" class="pageMilestoneEnd mtim1lo" />
         <g id="pitkto" class="pgHead">
            <text x="0" y="0" font-size="0px">
               <tspan id="r1j5ylie" class="rend" x="10000" y="277" text-anchor="middle">
                  <tspan id="t1s44ya5" class="text">
                     <tspan font-size="405px" class="text">Air n 172b</tspan>
                  </tspan>
               </tspan>
            </text>
         </g>
         <g id="pfxvzj9" class="pgFoot autogenerated">
            <g id="f1yh5ihs" class="fig">
               <g id="sz7my1e" class="svg" transform="translate(7750, 28099) scale(10, 10)">
                  <g>
                     <path fill="#00000" d="M 17.11278,49.26451 V 10.367554 h 12.696511 c 3.288815,7.336676 6.71267,14.610456 10.127281,21.888976 3.419998,-7.484684 6.255515,-14.204887 9.58887,-21.909915 2.436207,0.103726 4.316952,0.08453 6.484294,-0.05808 V 49.264423 H 50.274275 C 50.145222,38.35639 50.016136,27.448368 49.887066,16.540329 45.003488,27.315459 39.967448,38.433564 35.083854,49.208695 34.678996,49.343717 34.426583,49.135619 34.021726,49.270644 29.46588,39.330716 24.910049,29.390805 20.354201,19.450876 20.224341,29.388756 20.09461,39.326619 19.964815,49.264497 H 17.11278 Z M 36.754144,39.324695 C 32.721221,30.512695 28.6883,21.700679 24.655394,12.888662 22.530527,12.750737 22.656775,12.71031 20.714356,12.813974 v 0.966497 c 4.612938,9.99784 9.609439,20.748709 13.87298,30.081745 0.722248,-1.512523 1.444528,-3.025014 2.166808,-4.537521 z m 25.738417,9.939815 c 0,-12.965651 0,-25.931305 0,-38.896956 10.084388,0 20.168791,0 30.253178,0 0,0.960416 0,1.920849 0,2.881265 -6.482825,0 -12.965652,0 -19.448478,0 0,4.802097 0,9.604178 0,14.406277 5.52241,0 11.044819,0 16.567229,0 0,0.960415 0,1.920832 0,2.881248 -5.52241,0 -11.044819,0 -16.567229,0 0,5.282306 0,10.564611 0,15.846917 6.963035,0 13.926068,0 20.889103,0 0,0.960416 0,1.920832 0,2.881249 -10.564597,0 -21.129207,0 -31.693803,0 z m 4.321874,-2.160937 c 0,-11.765131 0,-23.530263 0,-35.295394 -0.720312,0 -1.440625,0 -2.160937,0 0,11.765131 0,23.530263 0,35.295394 0.720312,0 1.440625,0 2.160937,0 z m 32.41413,2.160937 c 0,-12.965651 0,-25.931305 0,-38.896956 2.401045,0 4.802095,0 7.203135,0 0,12.965651 0,25.931305 0,38.896956 -2.40104,0 -4.80209,0 -7.203135,0 z m 2.881265,-2.160937 c 0,-11.765131 0,-23.530263 0,-35.295394 -0.72031,0 -1.44064,0 -2.160953,0 0,11.765131 0,23.530263 0,35.295394 0.720313,0 1.440643,0 2.160953,0 z" />
                     <path fill="#00000" d="m 346.3,6.7 c -3.1,0.5 -4.9,4.4 -2.7,6.8 1.2,1.4 2.7,2.4 4.1,3.5 -2.4,5.3 -7.7,8.3 -11.9,12.1 -3.7,2.8 -7,6.2 -9.7,9.9 -2.2,-0.8 -0.3,-6.8 -0.6,-9.5 0.1,-3.1 0.7,-6.4 2.9,-8.7 1.3,-1.9 3,-3.5 4.5,-5.2 1.2,-3.4 -3.2,-4.9 -5.8,-4.6 -7.3,-0.5 -14.6,2 -20,6.8 -5,4.6 -10,10.1 -11.5,17 -0.9,3.5 -0.2,7.5 2.8,9.9 2.5,2.8 7.4,2.9 9.8,-0.2 1.7,-2.3 3.2,-4.8 3.8,-7.6 -0.1,-2.6 -4.4,-2.3 -4.3,0.2 1.2,2.4 -0.9,4.7 -2.7,6.2 -1.7,0.9 -4.7,0.7 -4.8,-1.7 -1,-5.8 2.1,-11.3 5.2,-16.1 4,-5.8 9.8,-11.2 17.2,-11.8 1.6,0 8.1,-1.2 6.8,1.4 -2.8,2.8 -5.6,6.1 -6,10.3 -1.6,7.7 0.1,15.7 -2.3,23.2 -1.1,3.9 2,2.6 2.5,0.2 3.3,-7.4 8.9,-13.4 15.1,-18.5 4.2,-3.9 9.5,-7.1 11.9,-12.6 1.3,-3.6 1.2,-9 -2.7,-10.9 -0.6,-0.2 -1.2,-0.3 -1.8,-0.3 z m 66,14.5 c -2,0.8 -1.8,4.9 0.8,4.4 3.4,0.4 2.9,-6.2 -0.8,-4.4 z m 0.6,7.3 c -1.3,0.5 -7.6,0.5 -5.4,2.2 4,-0.3 0.7,4.5 0.6,6.7 -0.4,2.9 -2.4,5.9 -1.2,8.8 2.7,1.7 5.6,-0.8 6.8,-3.2 1.6,-1.4 -0.5,-3 -1.2,-0.9 -0.4,0.8 -2.4,3.5 -2.6,1.8 1.1,-5 2.7,-9.9 3.9,-14.9 l -0.1,-0.5 h -0.9 z m -65.1,0.2 c -6.5,1.6 -10.5,9.5 -8.2,15.7 2.1,3.4 7.4,2.9 10.1,0.4 2,-0.2 3.6,-5.3 1,-3.4 -1.4,2 -4,4.2 -6.5,2.8 -2.2,-1.9 -1.9,-5.7 1.7,-5.3 3.1,-0.9 6.9,-2.1 8.1,-5.5 0.9,-2.7 -1.6,-5.2 -4.3,-4.8 h -1.1 -0.7 z m 13.6,0 c -2.2,0 -8.5,1.8 -2.9,2.3 0.9,1.9 -1,4.9 -1.1,7.2 -0.5,2.9 -1.4,5.7 -1.7,8.7 3.7,0.7 3.8,-2.6 4.4,-5.3 0.9,-3.3 1.6,-7 4.1,-9.5 2.4,1.6 6.8,-0.7 3.7,-3.4 -2.9,-0.5 -4.8,2.4 -6.2,4.3 0,-1.2 2.4,-5 -0.2,-4.3 z m 15.8,0 c -6.4,1.3 -9.6,9.1 -7.7,14.9 1.9,4 7.7,3.9 11,1.7 4.1,-3 6,-8.9 4.4,-13.7 -1.3,-3 -4.8,-3.2 -7.6,-3 z m 17,0 c -2.3,0 -8.8,1.9 -3,2.4 0.4,2.5 -1,5.7 -1.4,8.4 -0.7,2.4 -1.8,7.5 2.1,7.2 3.8,-0.1 6.5,-3.5 8.5,-6.3 2,-3.2 4.5,-7 3.3,-10.9 -3.7,-3 -3.6,2.6 -3.1,5.1 -0.7,3.8 -2.7,7.9 -6.2,9.8 -3.6,0.6 -1,-4.3 -0.8,-6.1 0.6,-3.2 1.6,-6.3 1.9,-9.5 -0.4,0 -0.8,0 -1.1,0 z m 30.6,0 c -6.3,1.2 -9.5,8.9 -7.8,14.7 1.5,4 7.2,4.2 10.5,2.4 4.6,-2.8 6.6,-9.3 4.8,-14.3 -1.4,-2.8 -4.8,-3 -7.5,-2.8 z m -75.4,1.7 c 2.1,1.5 0.2,4.7 -1.6,5.7 -1.1,0.4 -5.5,3.4 -4.6,0.7 0.8,-2.7 2.2,-6.2 5.3,-6.6 l 0.9,0.1 z m 30.8,0 c 2.6,1.5 1.3,5.2 0.8,7.6 -0.8,2.7 -1.9,5.9 -4.7,7.1 -5.1,0.8 -4,-5.8 -2.8,-8.8 1,-2.8 3,-6.8 6.7,-5.8 z m 47.1,-0.1 c 2.9,0.7 2,4.7 1.5,6.8 -0.7,3 -1.8,6.7 -5,8 -4.7,0.8 -4,-5.1 -3,-7.9 0.9,-3 2.7,-7.3 6.5,-6.8 z m -88.1,5.9 c -0.3,1.3 0.9,-0.6 0,0 z m -1.1,2.4 c -0.2,0.5 0.5,-0.1 0,0 z m -1.3,4.5 c -0.3,1.3 0.8,-0.2 0,0 z" />
                     <text y="41" x="201" fill="#00000" style="font-style:italic;font-weight:normal;font-size:30px;line-height:125%;font-family:Times;text-anchor:middle" xml:space="preserve">engraved with</text>
                  </g>
               </g>
            </g>
         </g>
      </g>
   </svg>
</svg>
