<?xml version="1.0" encoding="UTF-8" standalone="no"?>
<svg width="2100px" height="2970px" version="1.1" xmlns="http://www.w3.org/2000/svg" xmlns:xlink="http://www.w3.org/1999/xlink" xmlns:mei="http://www.music-encoding.org/ns/mei" overflow="visible">
   <desc>Engraved by Verovio 3.13.1</desc>
   <defs>
      <symbol id="E044-16zbgh2" viewBox="0 0 1000 1000" overflow="inherit">
         <path transform="scale(1,-1)" d="M0 0c0 28 22 50 50 50s50 -22 50 -50s-22 -50 -50 -50s-50 22 -50 50z" />
      </symbol>
      <symbol id="E050-16zbgh2" viewBox="0 0 1000 1000" overflow="inherit">
         <path transform="scale(1,-1)" d="M441 -245c-23 -4 -48 -6 -76 -6c-59 0 -102 7 -130 20c-88 42 -150 93 -187 154c-26 44 -43 103 -48 176c0 6 -1 13 -1 19c0 54 15 111 45 170c29 57 65 106 110 148s96 85 153 127c-3 16 -8 46 -13 92c-4 43 -5 73 -5 89c0 117 16 172 69 257c34 54 64 82 89 82 c21 0 43 -30 69 -92s39 -115 41 -159v-15c0 -109 -21 -162 -67 -241c-13 -20 -63 -90 -98 -118c-13 -9 -25 -19 -37 -29l31 -181c8 1 18 2 28 2c58 0 102 -12 133 -35c59 -43 92 -104 98 -184c1 -7 1 -15 1 -22c0 -123 -87 -209 -181 -248c8 -57 17 -110 25 -162 c5 -31 6 -58 6 -80c0 -30 -5 -53 -14 -70c-35 -64 -88 -99 -158 -103c-5 0 -11 -1 -16 -1c-37 0 -72 10 -108 27c-50 24 -77 59 -80 105v11c0 29 7 55 20 76c18 28 45 42 79 44h6c49 0 93 -42 97 -87v-9c0 -51 -34 -86 -105 -106c17 -24 51 -36 102 -36c62 0 116 43 140 85 c9 16 13 41 13 74c0 20 -1 42 -5 67c-8 53 -18 106 -26 159zM461 939c-95 0 -135 -175 -135 -286c0 -24 2 -48 5 -71c50 39 92 82 127 128c40 53 60 100 60 140v8c-4 53 -22 81 -55 81h-2zM406 119l54 -326c73 25 110 78 110 161c0 7 0 15 -1 23c-7 95 -57 142 -151 142h-12 zM382 117c-72 -2 -128 -47 -128 -120v-7c2 -46 43 -99 75 -115c-3 -2 -7 -5 -10 -10c-70 33 -116 88 -123 172v11c0 68 44 126 88 159c23 17 49 29 78 36l-29 170c-21 -13 -52 -37 -92 -73c-50 -44 -86 -84 -109 -119c-45 -69 -67 -130 -67 -182v-13c5 -68 35 -127 93 -176 s125 -73 203 -73c25 0 50 3 75 9c-19 111 -36 221 -54 331z" />
      </symbol>
      <symbol id="E081-16zbgh2" viewBox="0 0 1000 1000" overflow="inherit">
         <path transform="scale(1,-1)" d="M68 -250v36c23 0 40 6 49 18c8 14 12 33 12 57v250l-82 -129l-27 13l107 255h128v-394c0 -24 5 -42 14 -53s25 -17 47 -17v-36h-248z" />
      </symbol>
      <symbol id="E082-16zbgh2" viewBox="0 0 1000 1000" overflow="inherit">
         <path transform="scale(1,-1)" d="M124 -185c-18 0 -55 -14 -65 -65h-36l-3 30c0 25 6 45 18 63c11 19 22 30 39 43l121 82l37 29c15 11 27 29 38 54c12 24 18 47 18 70c0 40 -19 88 -94 88c-25 0 -32 0 -50 -8c-14 -5 -23 -12 -26 -22c3 -9 7 -15 10 -18l24 -17c12 -7 17 -11 27 -21c5 -7 7 -16 7 -27 c0 -12 0 -57 -79 -74c-30 0 -76 26 -76 94c0 66 81 135 197 135c72 0 181 -32 181 -150c0 -53 -32 -95 -113 -133l-91 -41c-26 -11 -45 -23 -57 -37l49 7c84 0 115 -41 148 -41c20 0 33 20 39 61h35c0 -152 -68 -168 -114 -168c-17 0 -65 0 -79 7h10l-28 17 c-49 37 -69 40 -87 42z" />
      </symbol>
      <symbol id="E084-16zbgh2" viewBox="0 0 1000 1000" overflow="inherit">
         <path transform="scale(1,-1)" d="M20 -78c84 97 114 180 134 329h170c-13 -32 -82 -132 -99 -151l-84 -97c-33 -36 -59 -63 -80 -81h162v102l127 123v-225h57v-39h-57v-34c0 -43 19 -65 57 -65v-34h-244v36c48 0 60 26 60 70v27h-203v39z" />
      </symbol>
      <symbol id="E0A4-16zbgh2" viewBox="0 0 1000 1000" overflow="inherit">
         <path transform="scale(1,-1)" d="M0 -39c0 68 73 172 200 172c66 0 114 -37 114 -95c0 -84 -106 -171 -218 -171c-64 0 -96 30 -96 94z" />
      </symbol>
   </defs>
   <style type="text/css">g.page-margin{font-family:Times;} g.ending, g.fing, g.reh, g.tempo{font-weight:bold;} g.dir, g.dynam, g.mNum{font-style:italic;} g.label{font-weight:normal;}</style>
   <svg class="definition-scale" color="black" viewBox="0 0 21000 29700">
      <g class="page-margin" transform="translate(500, 500)">
         <g id="m173c9oc" class="mdiv pageMilestone" />
         <g id="sibjaxl" class="score pageMilestone" />
         <g id="skjqov0" class="system">
            <g id="lmup1pa" class="label">
               <text x="1105" y="1537" text-anchor="end" font-size="0px">
                  <tspan id="t11ediyj" class="text">
                     <tspan font-size="405px" class="text">Piano</tspan>
                  </tspan>
               </text>
            </g>
            <g id="seqgb6d" class="section systemMilestone" />
            <g id="p8oz6g2" class="pb" />
            <g id="m16odtvm" class="measure">
               <g id="m12kvwne" class="mNum">
                  <text x="1285" y="844" text-anchor="middle" font-size="0px" />
               </g>
               <g id="s2h1xl9" class="staff">
                  <path d="M1285 1087 L3628 1087" stroke="currentColor" stroke-width="13" />
                  <path d="M1285 1267 L3628 1267" stroke="currentColor" stroke-width="13" />
                  <path d="M1285 1447 L3628 1447" stroke="currentColor" stroke-width="13" />
                  <path d="M1285 1627 L3628 1627" stroke="currentColor" stroke-width="13" />
                  <path d="M1285 1807 L3628 1807" stroke="currentColor" stroke-width="13" />
                  <g id="c1ef64gq" class="clef">
                     <use xlink:href="#E050-16zbgh2" x="1375" y="1627" height="720px" width="720px" />
                  </g>
                  <g id="k1j3un0j" class="keySig" />
                  <g id="m8ft5lq" class="meterSig">
                     <use xlink:href="#E082-16zbgh2" x="2006" y="1267" height="720px" width="720px" />
                     <use xlink:href="#E084-16zbgh2" x="2011" y="1627" height="720px" width="720px" />
                  </g>
                  <g id="l1uc0w9q" class="layer">
                     <g id="bsz5uia" class="beam">
                        <polygon points="2578,2032 3114,1987 3114,1897 2578,1942" />
                        <g id="n1c5vzbr" class="note">
                           <g class="notehead">
                              <use xlink:href="#E0A4-16zbgh2" x="2578" y="1357" height="720px" width="720px" />
                           </g>
                           <g id="s1dwp1gk" class="stem">
                              <rect x="2578" y="1385" height="629" width="18" />
                           </g>
                        </g>
                        <g id="n1g5f03e" class="note">
                           <g class="notehead">
                              <use xlink:href="#E0A4-16zbgh2" x="3096" y="1267" height="720px" width="720px" />
                           </g>
                           <g id="s9maebb" class="stem">
                              <rect x="3096" y="1295" height="674" width="18" />
                           </g>
                        </g>
                     </g>
                  </g>
               </g>
               <g id="b1wlo3rf" class="barLine">
                  <path d="M3615 1087 L3615 1807" stroke="currentColor" stroke-width="27" />
               </g>
            </g>
            <g id="m1a0oat8" class="measure">
               <g id="s1n02gn5" class="staff">
                  <path d="M3628 1087 L5894 1087" stroke="currentColor" stroke-width="13" />
                  <path d="M3628 1267 L5894 1267" stroke="currentColor" stroke-width="13" />
                  <path d="M3628 1447 L5894 1447" stroke="currentColor" stroke-width="13" />
                  <path d="M3628 1627 L5894 1627" stroke="currentColor" stroke-width="13" />
                  <path d="M3628 1807 L5894 1807" stroke="currentColor" stroke-width="13" />
                  <g id="l1dqam8n" class="layer">
                     <g id="b9frpjo" class="beam">
                        <polygon points="3807,1807 4343,1807 4343,1717 3807,1717" />
                        <g id="nu6qc1k" class="note">
                           <g class="notehead">
                              <use xlink:href="#E0A4-16zbgh2" x="3807" y="1177" height="720px" width="720px" />
                           </g>
                           <g id="s1ufvtya" class="stem">
                              <rect x="3807" y="1205" height="584" width="18" />
                           </g>
                        </g>
                        <g id="nkrqi33" class="note">
                           <g class="notehead">
                              <use xlink:href="#E0A4-16zbgh2" x="4325" y="1177" height="720px" width="720px" />
                           </g>
                           <g id="shwago" class="stem">
                              <rect x="4325" y="1205" height="584" width="18" />
                           </g>
                        </g>
                     </g>
                     <g id="bbs8h9r" class="beam">
                        <polygon points="4844,1987 5380,2032 5380,1942 4844,1897" />
                        <g id="n12yj4da" class="note">
                           <g class="notehead">
                              <use xlink:href="#E0A4-16zbgh2" x="4844" y="1267" height="720px" width="720px" />
                           </g>
                           <g id="s16kly9p" class="stem">
                              <rect x="4844" y="1295" height="674" width="18" />
                           </g>
                        </g>
                        <g id="nuvireg" class="note">
                           <g class="notehead">
                              <use xlink:href="#E0A4-16zbgh2" x="5362" y="1357" height="720px" width="720px" />
                           </g>
                           <g id="s1hf5whc" class="stem">
                              <rect x="5362" y="1385" height="629" width="18" />
                           </g>
                        </g>
                     </g>
                  </g>
               </g>
               <g id="b1jrc6a6" class="barLine">
                  <path d="M5881 1087 L5881 1807" stroke="currentColor" stroke-width="27" />
               </g>
            </g>
            <g id="mp5ytmm" class="measure">
               <g id="srdlplf" class="staff">
                  <path d="M5894 1087 L7918 1087" stroke="currentColor" stroke-width="13" />
                  <path d="M5894 1267 L7918 1267" stroke="currentColor" stroke-width="13" />
                  <path d="M5894 1447 L7918 1447" stroke="currentColor" stroke-width="13" />
                  <path d="M5894 1627 L7918 1627" stroke="currentColor" stroke-width="13" />
                  <path d="M5894 1807 L7918 1807" stroke="currentColor" stroke-width="13" />
                  <g id="l1sc15w4" class="layer">
                     <g id="ns6exzx" class="note">
                        <g class="notehead">
                           <use xlink:href="#E0A4-16zbgh2" x="6073" y="1267" height="720px" width="720px" />
                        </g>
                        <g id="s1sleae4" class="stem">
                           <rect x="6073" y="1295" height="602" width="18" />
                        </g>
                     </g>
                     <g id="bv1wetu" class="beam">
                        <polygon points="6868,2032 7404,1987 7404,1897 6868,1942" />
                        <g id="nwmpbjk" class="note">
                           <g class="notehead">
                              <use xlink:href="#E0A4-16zbgh2" x="6868" y="1357" height="720px" width="720px" />
                           </g>
                           <g id="s1wu5cis" class="stem">
                              <rect x="6868" y="1385" height="629" width="18" />
                           </g>
                        </g>
                        <g id="n19n83u4" class="note">
                           <g class="notehead">
                              <use xlink:href="#E0A4-16zbgh2" x="7386" y="1267" height="720px" width="720px" />
                           </g>
                           <g id="s12gts1m" class="stem">
                              <rect x="7386" y="1295" height="674" width="18" />
                           </g>
                        </g>
                     </g>
                  </g>
               </g>
               <g id="b160kea1" class="barLine">
                  <path d="M7905 1087 L7905 1807" stroke="currentColor" stroke-width="27" />
               </g>
            </g>
            <g id="mm34bbc" class="measure">
               <g id="s5xcfrz" class="staff">
                  <path d="M7918 1087 L10184 1087" stroke="currentColor" stroke-width="13" />
                  <path d="M7918 1267 L10184 1267" stroke="currentColor" stroke-width="13" />
                  <path d="M7918 1447 L10184 1447" stroke="currentColor" stroke-width="13" />
                  <path d="M7918 1627 L10184 1627" stroke="currentColor" stroke-width="13" />
                  <path d="M7918 1807 L10184 1807" stroke="currentColor" stroke-width="13" />
                  <g id="l1079hwf" class="layer">
                     <g id="b1wbethr" class="beam">
                        <polygon points="8097,1807 8633,1807 8633,1717 8097,1717" />
                        <g id="n172c6co" class="note">
                           <g class="notehead">
                              <use xlink:href="#E0A4-16zbgh2" x="8097" y="1177" height="720px" width="720px" />
                           </g>
                           <g id="s1y1w83q" class="stem">
                              <rect x="8097" y="1205" height="584" width="18" />
                           </g>
                        </g>
                        <g id="n8xhpjm" class="note">
                           <g class="notehead">
                              <use xlink:href="#E0A4-16zbgh2" x="8615" y="1177" height="720px" width="720px" />
                           </g>
                           <g id="smiwiuk" class="stem">
                              <rect x="8615" y="1205" height="584" width="18" />
                           </g>
                        </g>
                     </g>
                     <g id="b1699mgd" class="beam">
                        <polygon points="9134,1987 9670,2032 9670,1942 9134,1897" />
                        <g id="n1mju9qe" class="note">
                           <g class="notehead">
                              <use xlink:href="#E0A4-16zbgh2" x="9134" y="1267" height="720px" width="720px" />
                           </g>
                           <g id="sfz6q62" class="stem">
                              <rect x="9134" y="1295" height="674" width="18" />
                           </g>
                        </g>
                        <g id="n1xft0st" class="note">
                           <g class="notehead">
                              <use xlink:href="#E0A4-16zbgh2" x="9652" y="1357" height="720px" width="720px" />
                           </g>
                           <g id="sefe2fw" class="stem">
                              <rect x="9652" y="1385" height="629" width="18" />
                           </g>
                        </g>
                     </g>
                  </g>
               </g>
               <g id="b11b3hn9" class="barLine">
                  <path d="M10171 1087 L10171 1807" stroke="currentColor" stroke-width="27" />
               </g>
            </g>
            <g id="m76iwai" class="measure">
               <g id="shrlyoh" class="staff">
                  <path d="M10184 1087 L11994 1087" stroke="currentColor" stroke-width="13" />
                  <path d="M10184 1267 L11994 1267" stroke="currentColor" stroke-width="13" />
                  <path d="M10184 1447 L11994 1447" stroke="currentColor" stroke-width="13" />
                  <path d="M10184 1627 L11994 1627" stroke="currentColor" stroke-width="13" />
                  <path d="M10184 1807 L11994 1807" stroke="currentColor" stroke-width="13" />
                  <g id="m3kf55y" class="meterSig">
                     <use xlink:href="#E081-16zbgh2" x="10293" y="1267" height="720px" width="720px" />
                     <use xlink:href="#E084-16zbgh2" x="10260" y="1627" height="720px" width="720px" />
                  </g>
                  <g id="ljrfoje" class="layer">
                     <g id="n157r07g" class="note">
                        <g class="notehead">
                           <use xlink:href="#E0A4-16zbgh2" x="10821" y="1267" height="720px" width="720px" />
                        </g>
                        <g id="s12ymku6" class="stem">
                           <rect x="10821" y="1295" height="602" width="18" />
                        </g>
                     </g>
                  </g>
               </g>
               <g id="b1xkmvui" class="barLine">
                  <path d="M11616 1087 L11616 1807" stroke="currentColor" stroke-width="27" />
                  <path d="M11746 1087 L11746 1807" stroke="currentColor" stroke-width="90" />
                  <path d="M11877 1087 L11877 1807" stroke="currentColor" stroke-width="27" />
                  <use xlink:href="#E044-16zbgh2" x="11922" y="1357" height="720px" width="720px" />
                  <use xlink:href="#E044-16zbgh2" x="11922" y="1537" height="720px" width="720px" />
                  <use xlink:href="#E044-16zbgh2" x="11499" y="1357" height="720px" width="720px" />
                  <use xlink:href="#E044-16zbgh2" x="11499" y="1537" height="720px" width="720px" />
               </g>
            </g>
            <g id="mfuj2qo" class="measure">
               <g id="sw8f8tq" class="staff">
                  <path d="M11994 1087 L13223 1087" stroke="currentColor" stroke-width="13" />
                  <path d="M11994 1267 L13223 1267" stroke="currentColor" stroke-width="13" />
                  <path d="M11994 1447 L13223 1447" stroke="currentColor" stroke-width="13" />
                  <path d="M11994 1627 L13223 1627" stroke="currentColor" stroke-width="13" />
                  <path d="M11994 1807 L13223 1807" stroke="currentColor" stroke-width="13" />
                  <g id="l1k5jl6g" class="layer">
                     <g id="b15lzfo1" class="beam">
                        <polygon points="12173,2032 12709,1987 12709,1897 12173,1942" />
                        <g id="n4ggorx" class="note">
                           <g class="notehead">
                              <use xlink:href="#E0A4-16zbgh2" x="12173" y="1357" height="720px" width="720px" />
                           </g>
                           <g id="s1xqbexe" class="stem">
                              <rect x="12173" y="1385" height="629" width="18" />
                           </g>
                        </g>
                        <g id="n14wg51g" class="note">
                           <g class="notehead">
                              <use xlink:href="#E0A4-16zbgh2" x="12691" y="1267" height="720px" width="720px" />
                           </g>
                           <g id="s1ipt3du" class="stem">
                              <rect x="12691" y="1295" height="674" width="18" />
                           </g>
                        </g>
                     </g>
                  </g>
               </g>
               <g id="b1kgrooj" class="barLine">
                  <path d="M13210 1087 L13210 1807" stroke="currentColor" stroke-width="27" />
               </g>
            </g>
            <g id="m189xvke" class="measure">
               <g id="s1ykcpvz" class="staff">
                  <path d="M13223 1087 L15716 1087" stroke="currentColor" stroke-width="13" />
                  <path d="M13223 1267 L15716 1267" stroke="currentColor" stroke-width="13" />
                  <path d="M13223 1447 L15716 1447" stroke="currentColor" stroke-width="13" />
                  <path d="M13223 1627 L15716 1627" stroke="currentColor" stroke-width="13" />
                  <path d="M13223 1807 L15716 1807" stroke="currentColor" stroke-width="13" />
                  <g id="m5pv87e" class="meterSig">
                     <use xlink:href="#E082-16zbgh2" x="13299" y="1267" height="720px" width="720px" />
                     <use xlink:href="#E084-16zbgh2" x="13304" y="1627" height="720px" width="720px" />
                  </g>
                  <g id="l10pkgl0" class="layer">
                     <g id="n1h4ofuv" class="note">
                        <g class="notehead">
                           <use xlink:href="#E0A4-16zbgh2" x="13871" y="1177" height="720px" width="720px" />
                        </g>
                        <g id="sj14y4j" class="stem">
                           <rect x="13871" y="1205" height="602" width="18" />
                        </g>
                     </g>
                     <g id="be4odsk" class="beam">
                        <polygon points="14666,1942 15202,1897 15202,1807 14666,1852" />
                        <g id="nhgi61j" class="note">
                           <g class="notehead">
                              <use xlink:href="#E0A4-16zbgh2" x="14666" y="1267" height="720px" width="720px" />
                           </g>
                           <g id="snopyon" class="stem">
                              <rect x="14666" y="1295" height="629" width="18" />
                           </g>
                        </g>
                        <g id="n171far5" class="note">
                           <g class="notehead">
                              <use xlink:href="#E0A4-16zbgh2" x="15184" y="1177" height="720px" width="720px" />
                           </g>
                           <g id="s1ng9hfp" class="stem">
                              <rect x="15184" y="1205" height="674" width="18" />
                           </g>
                        </g>
                     </g>
                  </g>
               </g>
               <g id="b1wbw6o3" class="barLine">
                  <path d="M15703 1087 L15703 1807" stroke="currentColor" stroke-width="27" />
               </g>
            </g>
            <g id="m12v293w" class="measure">
               <g id="syy4gp1" class="staff">
                  <path d="M15716 1087 L17740 1087" stroke="currentColor" stroke-width="13" />
                  <path d="M15716 1267 L17740 1267" stroke="currentColor" stroke-width="13" />
                  <path d="M15716 1447 L17740 1447" stroke="currentColor" stroke-width="13" />
                  <path d="M15716 1627 L17740 1627" stroke="currentColor" stroke-width="13" />
                  <path d="M15716 1807 L17740 1807" stroke="currentColor" stroke-width="13" />
                  <g id="l1qufwfo" class="layer">
                     <g id="n1ck2yjd" class="note">
                        <g class="notehead">
                           <use xlink:href="#E0A4-16zbgh2" x="15895" y="1537" height="720px" width="720px" />
                        </g>
                        <g id="s12kwxhs" class="stem">
                           <rect x="16103" y="907" height="602" width="18" />
                        </g>
                     </g>
                     <g id="b1rwsn5p" class="beam">
                        <polygon points="16690,1987 17226,2032 17226,1942 16690,1897" />
                        <g id="n14fzrcb" class="note">
                           <g class="notehead">
                              <use xlink:href="#E0A4-16zbgh2" x="16690" y="1267" height="720px" width="720px" />
                           </g>
                           <g id="s1e0m9jk" class="stem">
                              <rect x="16690" y="1295" height="674" width="18" />
                           </g>
                        </g>
                        <g id="n17m5snc" class="note">
                           <g class="notehead">
                              <use xlink:href="#E0A4-16zbgh2" x="17208" y="1357" height="720px" width="720px" />
                           </g>
                           <g id="s1xyxe3a" class="stem">
                              <rect x="17208" y="1385" height="629" width="18" />
                           </g>
                        </g>
                     </g>
                  </g>
               </g>
               <g id="bwfvi45" class="barLine">
                  <path d="M17727 1087 L17727 1807" stroke="currentColor" stroke-width="27" />
               </g>
            </g>
            <g id="m1kxxktg" class="measure">
               <g id="s1eg57ru" class="staff">
                  <path d="M17740 1087 L20006 1087" stroke="currentColor" stroke-width="13" />
                  <path d="M17740 1267 L20006 1267" stroke="currentColor" stroke-width="13" />
                  <path d="M17740 1447 L20006 1447" stroke="currentColor" stroke-width="13" />
                  <path d="M17740 1627 L20006 1627" stroke="currentColor" stroke-width="13" />
                  <path d="M17740 1807 L20006 1807" stroke="currentColor" stroke-width="13" />
                  <g id="lxin3bt" class="layer">
                     <g id="b1x0f5cn" class="beam">
                        <polygon points="18127,862 18663,907 18663,997 18127,952" />
                        <g id="nrzydg4" class="note">
                           <g class="notehead">
                              <use xlink:href="#E0A4-16zbgh2" x="17919" y="1447" height="720px" width="720px" />
                           </g>
                           <g id="swzwbk1" class="stem">
                              <rect x="18127" y="880" height="539" width="18" />
                           </g>
                        </g>
                        <g id="n1i456y9" class="note">
                           <g class="notehead">
                              <use xlink:href="#E0A4-16zbgh2" x="18437" y="1537" height="720px" width="720px" />
                           </g>
                           <g id="sk80uca" class="stem">
                              <rect x="18645" y="925" height="584" width="18" />
                           </g>
                        </g>
                     </g>
                     <g id="b1588t40" class="beam">
                        <polygon points="19164,907 19700,862 19700,952 19164,997" />
                        <g id="n1plysty" class="note">
                           <g class="notehead">
                              <use xlink:href="#E0A4-16zbgh2" x="18956" y="1627" height="720px" width="720px" />
                           </g>
                           <g id="s7h6rvh" class="stem">
                              <rect x="19164" y="925" height="674" width="18" />
                           </g>
                        </g>
                        <g id="n69hw2k" class="note">
                           <g class="notehead">
                              <use xlink:href="#E0A4-16zbgh2" x="19474" y="1537" height="720px" width="720px" />
                           </g>
                           <g id="sf9c907" class="stem">
                              <rect x="19682" y="880" height="629" width="18" />
                           </g>
                        </g>
                     </g>
                  </g>
               </g>
               <g id="b308u67" class="barLine">
                  <path d="M19993 1087 L19993 1807" stroke="currentColor" stroke-width="27" />
               </g>
            </g>
         </g>
         <g id="s1l9vhcd" class="system">
            <g id="l6xwixp" class="labelAbbr">
               <text x="914" y="3877" text-anchor="end" font-size="0px">
                  <tspan id="t8vtn7d" class="text">
                     <tspan font-size="405px" class="text">Pno.</tspan>
                  </tspan>
               </text>
            </g>
            <g id="mhrh861" class="measure">
               <g id="m334mfo" class="mNum autogenerated">
                  <text x="1094" y="3184" text-anchor="middle" font-size="0px">
                     <tspan id="t1hjgp64" class="text">
                        <tspan font-size="324px" class="text">9</tspan>
                     </tspan>
                  </text>
               </g>
               <g id="s1xzhslh" class="staff">
                  <path d="M1094 3427 L4024 3427" stroke="currentColor" stroke-width="13" />
                  <path d="M1094 3607 L4024 3607" stroke="currentColor" stroke-width="13" />
                  <path d="M1094 3787 L4024 3787" stroke="currentColor" stroke-width="13" />
                  <path d="M1094 3967 L4024 3967" stroke="currentColor" stroke-width="13" />
                  <path d="M1094 4147 L4024 4147" stroke="currentColor" stroke-width="13" />
                  <g id="cu43mz6" class="clef">
                     <use xlink:href="#E050-16zbgh2" x="1184" y="3967" height="720px" width="720px" />
                  </g>
                  <g id="knnrgne" class="keySig" />
                  <g id="l2qo4uu" class="layer">
                     <g id="bx6kwc9" class="beam">
                        <polygon points="2127,3112 2668,3157 2668,3247 2127,3202" />
                        <g id="n1mkui8c" class="note">
                           <g class="notehead">
                              <use xlink:href="#E0A4-16zbgh2" x="1919" y="3697" height="720px" width="720px" />
                           </g>
                           <g id="smjstwm" class="stem">
                              <rect x="2127" y="3130" height="539" width="18" />
                           </g>
                        </g>
                        <g id="n3d1ncu" class="note">
                           <g class="notehead">
                              <use xlink:href="#E0A4-16zbgh2" x="2442" y="3877" height="720px" width="720px" />
                           </g>
                           <g id="se6mew3" class="stem">
                              <rect x="2650" y="3175" height="674" width="18" />
                           </g>
                        </g>
                     </g>
                     <g id="baqhm35" class="beam">
                        <polygon points="2965,4372 3506,4327 3506,4237 2965,4282" />
                        <g id="n1ndk8wl" class="note">
                           <g class="notehead">
                              <use xlink:href="#E0A4-16zbgh2" x="2965" y="3697" height="720px" width="720px" />
                           </g>
                           <g id="s9pyc0e" class="stem">
                              <rect x="2965" y="3725" height="629" width="18" />
                           </g>
                        </g>
                        <g id="ncf8x5h" class="note">
                           <g class="notehead">
                              <use xlink:href="#E0A4-16zbgh2" x="3488" y="3607" height="720px" width="720px" />
                           </g>
                           <g id="sh82q7t" class="stem">
                              <rect x="3488" y="3635" height="674" width="18" />
                           </g>
                        </g>
                     </g>
                  </g>
               </g>
               <g id="b46tfxm" class="barLine">
                  <path d="M4011 3427 L4011 4147" stroke="currentColor" stroke-width="27" />
               </g>
            </g>
            <g id="sz43hkz" class="sb" />
            <g id="myw38rx" class="measure">
               <g id="s159v27b" class="staff">
                  <path d="M4024 3427 L6065 3427" stroke="currentColor" stroke-width="13" />
                  <path d="M4024 3607 L6065 3607" stroke="currentColor" stroke-width="13" />
                  <path d="M4024 3787 L6065 3787" stroke="currentColor" stroke-width="13" />
                  <path d="M4024 3967 L6065 3967" stroke="currentColor" stroke-width="13" />
                  <path d="M4024 4147 L6065 4147" stroke="currentColor" stroke-width="13" />
                  <g id="l14rq09k" class="layer">
                     <g id="n11ee4aa" class="note">
                        <g class="notehead">
                           <use xlink:href="#E0A4-16zbgh2" x="4204" y="3517" height="720px" width="720px" />
                        </g>
                        <g id="svuvf54" class="stem">
                           <rect x="4204" y="3545" height="602" width="18" />
                        </g>
                     </g>
                     <g id="bdu884k" class="beam">
                        <polygon points="5006,4282 5547,4237 5547,4147 5006,4192" />
                        <g id="n1l68aoh" class="note">
                           <g class="notehead">
                              <use xlink:href="#E0A4-16zbgh2" x="5006" y="3607" height="720px" width="720px" />
                           </g>
                           <g id="s1dkfyob" class="stem">
                              <rect x="5006" y="3635" height="629" width="18" />
                           </g>
                        </g>
                        <g id="nv8w1yk" class="note">
                           <g class="notehead">
                              <use xlink:href="#E0A4-16zbgh2" x="5529" y="3517" height="720px" width="720px" />
                           </g>
                           <g id="s1aw12tf" class="stem">
                              <rect x="5529" y="3545" height="674" width="18" />
                           </g>
                        </g>
                     </g>
                  </g>
               </g>
               <g id="b11s40l0" class="barLine">
                  <path d="M6052 3427 L6052 4147" stroke="currentColor" stroke-width="27" />
               </g>
            </g>
            <g id="m57skub" class="measure">
               <g id="s1d833h6" class="staff">
                  <path d="M6065 3427 L8106 3427" stroke="currentColor" stroke-width="13" />
                  <path d="M6065 3607 L8106 3607" stroke="currentColor" stroke-width="13" />
                  <path d="M6065 3787 L8106 3787" stroke="currentColor" stroke-width="13" />
                  <path d="M6065 3967 L8106 3967" stroke="currentColor" stroke-width="13" />
                  <path d="M6065 4147 L8106 4147" stroke="currentColor" stroke-width="13" />
                  <g id="ljyhxfu" class="layer">
                     <g id="nlpgci" class="note">
                        <g class="notehead">
                           <use xlink:href="#E0A4-16zbgh2" x="6245" y="3877" height="720px" width="720px" />
                        </g>
                        <g id="s8ebo6r" class="stem">
                           <rect x="6453" y="3247" height="602" width="18" />
                        </g>
                     </g>
                     <g id="bwp95rc" class="beam">
                        <polygon points="7047,4327 7588,4372 7588,4282 7047,4237" />
                        <g id="n1doa7p8" class="note">
                           <g class="notehead">
                              <use xlink:href="#E0A4-16zbgh2" x="7047" y="3607" height="720px" width="720px" />
                           </g>
                           <g id="sh1zh5o" class="stem">
                              <rect x="7047" y="3635" height="674" width="18" />
                           </g>
                        </g>
                        <g id="n11mqtja" class="note">
                           <g class="notehead">
                              <use xlink:href="#E0A4-16zbgh2" x="7570" y="3697" height="720px" width="720px" />
                           </g>
                           <g id="sbgky63" class="stem">
                              <rect x="7570" y="3725" height="629" width="18" />
                           </g>
                        </g>
                     </g>
                  </g>
               </g>
               <g id="buuhf22" class="barLine">
                  <path d="M8093 3427 L8093 4147" stroke="currentColor" stroke-width="27" />
               </g>
            </g>
            <g id="m171a1fo" class="measure">
               <g id="s1xvx580" class="staff">
                  <path d="M8106 3427 L10391 3427" stroke="currentColor" stroke-width="13" />
                  <path d="M8106 3607 L10391 3607" stroke="currentColor" stroke-width="13" />
                  <path d="M8106 3787 L10391 3787" stroke="currentColor" stroke-width="13" />
                  <path d="M8106 3967 L10391 3967" stroke="currentColor" stroke-width="13" />
                  <path d="M8106 4147 L10391 4147" stroke="currentColor" stroke-width="13" />
                  <g id="l1c1ur49" class="layer">
                     <g id="b1sq4bcm" class="beam">
                        <polygon points="8494,3202 9035,3247 9035,3337 8494,3292" />
                        <g id="n1xqi1y0" class="note">
                           <g class="notehead">
                              <use xlink:href="#E0A4-16zbgh2" x="8286" y="3787" height="720px" width="720px" />
                           </g>
                           <g id="ss6q8cg" class="stem">
                              <rect x="8494" y="3220" height="539" width="18" />
                           </g>
                        </g>
                        <g id="n1axl8mz" class="note">
                           <g class="notehead">
                              <use xlink:href="#E0A4-16zbgh2" x="8809" y="3877" height="720px" width="720px" />
                           </g>
                           <g id="s3zsswz" class="stem">
                              <rect x="9017" y="3265" height="584" width="18" />
                           </g>
                        </g>
                     </g>
                     <g id="bpxilqd" class="beam">
                        <polygon points="9540,3202 10081,3247 10081,3337 9540,3292" />
                        <g id="n13w5jfm" class="note">
                           <g class="notehead">
                              <use xlink:href="#E0A4-16zbgh2" x="9332" y="3877" height="720px" width="720px" />
                           </g>
                           <g id="s1lkmji8" class="stem">
                              <rect x="9540" y="3220" height="629" width="18" />
                           </g>
                        </g>
                        <g id="n3cfi7b" class="note">
                           <g class="notehead">
                              <use xlink:href="#E0A4-16zbgh2" x="9855" y="3967" height="720px" width="720px" />
                           </g>
                           <g id="s19witiq" class="stem">
                              <rect x="10063" y="3265" height="674" width="18" />
                           </g>
                        </g>
                     </g>
                  </g>
               </g>
               <g id="b336asu" class="barLine">
                  <path d="M10378 3427 L10378 4147" stroke="currentColor" stroke-width="27" />
               </g>
            </g>
            <g id="m1q8gpya" class="measure">
               <g id="s95paqm" class="staff">
                  <path d="M10391 3427 L12006 3427" stroke="currentColor" stroke-width="13" />
                  <path d="M10391 3607 L12006 3607" stroke="currentColor" stroke-width="13" />
                  <path d="M10391 3787 L12006 3787" stroke="currentColor" stroke-width="13" />
                  <path d="M10391 3967 L12006 3967" stroke="currentColor" stroke-width="13" />
                  <path d="M10391 4147 L12006 4147" stroke="currentColor" stroke-width="13" />
                  <g id="m1fyaqzj" class="meterSig">
                     <use xlink:href="#E081-16zbgh2" x="10500" y="3607" height="720px" width="720px" />
                     <use xlink:href="#E084-16zbgh2" x="10467" y="3967" height="720px" width="720px" />
                  </g>
                  <g id="l4lr1na" class="layer">
                     <g id="n11x74sd" class="note">
                        <g class="notehead">
                           <use xlink:href="#E0A4-16zbgh2" x="11029" y="3877" height="720px" width="720px" />
                        </g>
                        <g id="s10dh6rb" class="stem">
                           <rect x="11237" y="3247" height="602" width="18" />
                        </g>
                     </g>
                  </g>
               </g>
               <g id="b1p4iaov" class="barLine">
                  <path d="M11831 3427 L11831 4147" stroke="currentColor" stroke-width="27" />
                  <path d="M11961 3427 L11961 4147" stroke="currentColor" stroke-width="90" />
               </g>
            </g>
            <g id="s57ajr3" class="systemMilestoneEnd seqgb6d" />
         </g>
         <g id="p25vneu" class="pageMilestoneEnd sibjaxl" />
         <g id="p12ejovy" class="pageMilestoneEnd m173c9oc" />
         <g id="pcjij61" class="pgHead">
            <text x="0" y="0" font-size="0px">
               <tspan id="r1t918y6" class="rend" x="10000" y="279" text-anchor="middle">
                  <tspan id="t1uu4t3y" class="text">
                     <tspan font-size="405px" class="text">Air n 205</tspan>
                  </tspan>
               </tspan>
            </text>
         </g>
         <g id="p1bujj5c" class="pgFoot autogenerated">
            <g id="ftwgd9f" class="fig">
               <g id="s154dtwr" class="svg" transform="translate(7750, 28099) scale(10, 10)">
                  <g>
                     <path fill="#00000" d="M 17.11278,49.26451 V 10.367554 h 12.696511 c 3.288815,7.336676 6.71267,14.610456 10.127281,21.888976 3.419998,-7.484684 6.255515,-14.204887 9.58887,-21.909915 2.436207,0.103726 4.316952,0.08453 6.484294,-0.05808 V 49.264423 H 50.274275 C 50.145222,38.35639 50.016136,27.448368 49.887066,16.540329 45.003488,27.315459 39.967448,38.433564 35.083854,49.208695 34.678996,49.343717 34.426583,49.135619 34.021726,49.270644 29.46588,39.330716 24.910049,29.390805 20.354201,19.450876 20.224341,29.388756 20.09461,39.326619 19.964815,49.264497 H 17.11278 Z M 36.754144,39.324695 C 32.721221,30.512695 28.6883,21.700679 24.655394,12.888662 22.530527,12.750737 22.656775,12.71031 20.714356,12.813974 v 0.966497 c 4.612938,9.99784 9.609439,20.748709 13.87298,30.081745 0.722248,-1.512523 1.444528,-3.025014 2.166808,-4.537521 z m 25.738417,9.939815 c 0,-12.965651 0,-25.931305 0,-38.896956 10.084388,0 20.168791,0 30.253178,0 0,0.960416 0,1.920849 0,2.881265 -6.482825,0 -12.965652,0 -19.448478,0 0,4.802097 0,9.604178 0,14.406277 5.52241,0 11.044819,0 16.567229,0 0,0.960415 0,1.920832 0,2.881248 -5.52241,0 -11.044819,0 -16.567229,0 0,5.282306 0,10.564611 0,15.846917 6.963035,0 13.926068,0 20.889103,0 0,0.960416 0,1.920832 0,2.881249 -10.564597,0 -21.129207,0 -31.693803,0 z m 4.321874,-2.160937 c 0,-11.765131 0,-23.530263 0,-35.295394 -0.720312,0 -1.440625,0 -2.160937,0 0,11.765131 0,23.530263 0,35.295394 0.720312,0 1.440625,0 2.160937,0 z m 32.41413,2.160937 c 0,-12.965651 0,-25.931305 0,-38.896956 2.401045,0 4.802095,0 7.203135,0 0,12.965651 0,25.931305 0,38.896956 -2.40104,0 -4.80209,0 -7.203135,0 z m 2.881265,-2.160937 c 0,-11.765131 0,-23.530263 0,-35.295394 -0.72031,0 -1.44064,0 -2.160953,0 0,11.765131 0,23.530263 0,35.295394 0.720313,0 1.440643,0 2.160953,0 z" />
                     <path fill="#00000" d="m 346.3,6.7 c -3.1,0.5 -4.9,4.4 -2.7,6.8 1.2,1.4 2.7,2.4 4.1,3.5 -2.4,5.3 -7.7,8.3 -11.9,12.1 -3.7,2.8 -7,6.2 -9.7,9.9 -2.2,-0.8 -0.3,-6.8 -0.6,-9.5 0.1,-3.1 0.7,-6.4 2.9,-8.7 1.3,-1.9 3,-3.5 4.5,-5.2 1.2,-3.4 -3.2,-4.9 -5.8,-4.6 -7.3,-0.5 -14.6,2 -20,6.8 -5,4.6 -10,10.1 -11.5,17 -0.9,3.5 -0.2,7.5 2.8,9.9 2.5,2.8 7.4,2.9 9.8,-0.2 1.7,-2.3 3.2,-4.8 3.8,-7.6 -0.1,-2.6 -4.4,-2.3 -4.3,0.2 1.2,2.4 -0.9,4.7 -2.7,6.2 -1.7,0.9 -4.7,0.7 -4.8,-1.7 -1,-5.8 2.1,-11.3 5.2,-16.1 4,-5.8 9.8,-11.2 17.2,-11.8 1.6,0 8.1,-1.2 6.8,1.4 -2.8,2.8 -5.6,6.1 -6,10.3 -1.6,7.7 0.1,15.7 -2.3,23.2 -1.1,3.9 2,2.6 2.5,0.2 3.3,-7.4 8.9,-13.4 15.1,-18.5 4.2,-3.9 9.5,-7.1 11.9,-12.6 1.3,-3.6 1.2,-9 -2.7,-10.9 -0.6,-0.2 -1.2,-0.3 -1.8,-0.3 z m 66,14.5 c -2,0.8 -1.8,4.9 0.8,4.4 3.4,0.4 2.9,-6.2 -0.8,-4.4 z m 0.6,7.3 c -1.3,0.5 -7.6,0.5 -5.4,2.2 4,-0.3 0.7,4.5 0.6,6.7 -0.4,2.9 -2.4,5.9 -1.2,8.8 2.7,1.7 5.6,-0.8 6.8,-3.2 1.6,-1.4 -0.5,-3 -1.2,-0.9 -0.4,0.8 -2.4,3.5 -2.6,1.8 1.1,-5 2.7,-9.9 3.9,-14.9 l -0.1,-0.5 h -0.9 z m -65.1,0.2 c -6.5,1.6 -10.5,9.5 -8.2,15.7 2.1,3.4 7.4,2.9 10.1,0.4 2,-0.2 3.6,-5.3 1,-3.4 -1.4,2 -4,4.2 -6.5,2.8 -2.2,-1.9 -1.9,-5.7 1.7,-5.3 3.1,-0.9 6.9,-2.1 8.1,-5.5 0.9,-2.7 -1.6,-5.2 -4.3,-4.8 h -1.1 -0.7 z m 13.6,0 c -2.2,0 -8.5,1.8 -2.9,2.3 0.9,1.9 -1,4.9 -1.1,7.2 -0.5,2.9 -1.4,5.7 -1.7,8.7 3.7,0.7 3.8,-2.6 4.4,-5.3 0.9,-3.3 1.6,-7 4.1,-9.5 2.4,1.6 6.8,-0.7 3.7,-3.4 -2.9,-0.5 -4.8,2.4 -6.2,4.3 0,-1.2 2.4,-5 -0.2,-4.3 z m 15.8,0 c -6.4,1.3 -9.6,9.1 -7.7,14.9 1.9,4 7.7,3.9 11,1.7 4.1,-3 6,-8.9 4.4,-13.7 -1.3,-3 -4.8,-3.2 -7.6,-3 z m 17,0 c -2.3,0 -8.8,1.9 -3,2.4 0.4,2.5 -1,5.7 -1.4,8.4 -0.7,2.4 -1.8,7.5 2.1,7.2 3.8,-0.1 6.5,-3.5 8.5,-6.3 2,-3.2 4.5,-7 3.3,-10.9 -3.7,-3 -3.6,2.6 -3.1,5.1 -0.7,3.8 -2.7,7.9 -6.2,9.8 -3.6,0.6 -1,-4.3 -0.8,-6.1 0.6,-3.2 1.6,-6.3 1.9,-9.5 -0.4,0 -0.8,0 -1.1,0 z m 30.6,0 c -6.3,1.2 -9.5,8.9 -7.8,14.7 1.5,4 7.2,4.2 10.5,2.4 4.6,-2.8 6.6,-9.3 4.8,-14.3 -1.4,-2.8 -4.8,-3 -7.5,-2.8 z m -75.4,1.7 c 2.1,1.5 0.2,4.7 -1.6,5.7 -1.1,0.4 -5.5,3.4 -4.6,0.7 0.8,-2.7 2.2,-6.2 5.3,-6.6 l 0.9,0.1 z m 30.8,0 c 2.6,1.5 1.3,5.2 0.8,7.6 -0.8,2.7 -1.9,5.9 -4.7,7.1 -5.1,0.8 -4,-5.8 -2.8,-8.8 1,-2.8 3,-6.8 6.7,-5.8 z m 47.1,-0.1 c 2.9,0.7 2,4.7 1.5,6.8 -0.7,3 -1.8,6.7 -5,8 -4.7,0.8 -4,-5.1 -3,-7.9 0.9,-3 2.7,-7.3 6.5,-6.8 z m -88.1,5.9 c -0.3,1.3 0.9,-0.6 0,0 z m -1.1,2.4 c -0.2,0.5 0.5,-0.1 0,0 z m -1.3,4.5 c -0.3,1.3 0.8,-0.2 0,0 z" />
                     <text y="41" x="201" fill="#00000" style="font-style:italic;font-weight:normal;font-size:30px;line-height:125%;font-family:Times;text-anchor:middle" xml:space="preserve">engraved with</text>
                  </g>
               </g>
            </g>
         </g>
      </g>
   </svg>
</svg>
