<?xml version="1.0" encoding="UTF-8" standalone="no"?>
<svg width="2100px" height="2970px" version="1.1" xmlns="http://www.w3.org/2000/svg" xmlns:xlink="http://www.w3.org/1999/xlink" xmlns:mei="http://www.music-encoding.org/ns/mei" overflow="visible">
   <desc>Engraved by Verovio 3.13.1</desc>
   <defs>
      <symbol id="E044-b0g19h" viewBox="0 0 1000 1000" overflow="inherit">
         <path transform="scale(1,-1)" d="M0 0c0 28 22 50 50 50s50 -22 50 -50s-22 -50 -50 -50s-50 22 -50 50z" />
      </symbol>
      <symbol id="E050-b0g19h" viewBox="0 0 1000 1000" overflow="inherit">
         <path transform="scale(1,-1)" d="M441 -245c-23 -4 -48 -6 -76 -6c-59 0 -102 7 -130 20c-88 42 -150 93 -187 154c-26 44 -43 103 -48 176c0 6 -1 13 -1 19c0 54 15 111 45 170c29 57 65 106 110 148s96 85 153 127c-3 16 -8 46 -13 92c-4 43 -5 73 -5 89c0 117 16 172 69 257c34 54 64 82 89 82 c21 0 43 -30 69 -92s39 -115 41 -159v-15c0 -109 -21 -162 -67 -241c-13 -20 -63 -90 -98 -118c-13 -9 -25 -19 -37 -29l31 -181c8 1 18 2 28 2c58 0 102 -12 133 -35c59 -43 92 -104 98 -184c1 -7 1 -15 1 -22c0 -123 -87 -209 -181 -248c8 -57 17 -110 25 -162 c5 -31 6 -58 6 -80c0 -30 -5 -53 -14 -70c-35 -64 -88 -99 -158 -103c-5 0 -11 -1 -16 -1c-37 0 -72 10 -108 27c-50 24 -77 59 -80 105v11c0 29 7 55 20 76c18 28 45 42 79 44h6c49 0 93 -42 97 -87v-9c0 -51 -34 -86 -105 -106c17 -24 51 -36 102 -36c62 0 116 43 140 85 c9 16 13 41 13 74c0 20 -1 42 -5 67c-8 53 -18 106 -26 159zM461 939c-95 0 -135 -175 -135 -286c0 -24 2 -48 5 -71c50 39 92 82 127 128c40 53 60 100 60 140v8c-4 53 -22 81 -55 81h-2zM406 119l54 -326c73 25 110 78 110 161c0 7 0 15 -1 23c-7 95 -57 142 -151 142h-12 zM382 117c-72 -2 -128 -47 -128 -120v-7c2 -46 43 -99 75 -115c-3 -2 -7 -5 -10 -10c-70 33 -116 88 -123 172v11c0 68 44 126 88 159c23 17 49 29 78 36l-29 170c-21 -13 -52 -37 -92 -73c-50 -44 -86 -84 -109 -119c-45 -69 -67 -130 -67 -182v-13c5 -68 35 -127 93 -176 s125 -73 203 -73c25 0 50 3 75 9c-19 111 -36 221 -54 331z" />
      </symbol>
      <symbol id="E081-b0g19h" viewBox="0 0 1000 1000" overflow="inherit">
         <path transform="scale(1,-1)" d="M68 -250v36c23 0 40 6 49 18c8 14 12 33 12 57v250l-82 -129l-27 13l107 255h128v-394c0 -24 5 -42 14 -53s25 -17 47 -17v-36h-248z" />
      </symbol>
      <symbol id="E082-b0g19h" viewBox="0 0 1000 1000" overflow="inherit">
         <path transform="scale(1,-1)" d="M124 -185c-18 0 -55 -14 -65 -65h-36l-3 30c0 25 6 45 18 63c11 19 22 30 39 43l121 82l37 29c15 11 27 29 38 54c12 24 18 47 18 70c0 40 -19 88 -94 88c-25 0 -32 0 -50 -8c-14 -5 -23 -12 -26 -22c3 -9 7 -15 10 -18l24 -17c12 -7 17 -11 27 -21c5 -7 7 -16 7 -27 c0 -12 0 -57 -79 -74c-30 0 -76 26 -76 94c0 66 81 135 197 135c72 0 181 -32 181 -150c0 -53 -32 -95 -113 -133l-91 -41c-26 -11 -45 -23 -57 -37l49 7c84 0 115 -41 148 -41c20 0 33 20 39 61h35c0 -152 -68 -168 -114 -168c-17 0 -65 0 -79 7h10l-28 17 c-49 37 -69 40 -87 42z" />
      </symbol>
      <symbol id="E083-b0g19h" viewBox="0 0 1000 1000" overflow="inherit">
         <path transform="scale(1,-1)" d="M208 250c97 0 177 -52 177 -116c0 -69 -40 -111 -118 -125c56 -5 125 -44 125 -116c0 -31 -10 -57 -31 -78c-19 -21 -45 -38 -78 -49l-50 -11c-15 -3 -36 -7 -55 -7c-50 0 -86 16 -113 38c-16 10 -23 18 -34 34c-7 13 -11 25 -11 38c0 43 27 83 68 83l3 -2 c61 0 75 -42 75 -70c0 -19 -24 -42 -26 -57c7 -17 20 -25 37 -25c44 0 94 29 94 78c0 75 -34 125 -138 125v36c84 0 131 22 131 98c0 54 -37 88 -87 88c-26 0 -43 -7 -51 -22c15 -22 44 -16 44 -70c0 -37 -37 -62 -71 -62c-22 0 -69 15 -69 76c0 79 101 116 178 116z" />
      </symbol>
      <symbol id="E084-b0g19h" viewBox="0 0 1000 1000" overflow="inherit">
         <path transform="scale(1,-1)" d="M20 -78c84 97 114 180 134 329h170c-13 -32 -82 -132 -99 -151l-84 -97c-33 -36 -59 -63 -80 -81h162v102l127 123v-225h57v-39h-57v-34c0 -43 19 -65 57 -65v-34h-244v36c48 0 60 26 60 70v27h-203v39z" />
      </symbol>
      <symbol id="E088-b0g19h" viewBox="0 0 1000 1000" overflow="inherit">
         <path transform="scale(1,-1)" d="M195 -214c76 0 88 58 90 68c0 34 -35 60 -57 73l-52 29c-21 10 -32 17 -34 20c-39 -33 -58 -54 -62 -92c5 -23 23 -98 115 -98zM301 135c0 61 -72 76 -113 76c-40 0 -77 -17 -77 -51c3 -21 15 -38 26 -50c17 -15 33 -26 48 -34l65 -28c34 27 51 56 51 87zM176 -250 c-57 0 -166 26 -166 132c0 47 30 86 89 116c-33 15 -79 60 -79 119c0 79 85 132 178 132h18c5 0 21 1 28 -1c25 0 126 -30 126 -110c0 -37 -23 -76 -69 -116c43 -25 83 -71 83 -119c0 -101 -118 -153 -208 -153z" />
      </symbol>
      <symbol id="E0A4-b0g19h" viewBox="0 0 1000 1000" overflow="inherit">
         <path transform="scale(1,-1)" d="M0 -39c0 68 73 172 200 172c66 0 114 -37 114 -95c0 -84 -106 -171 -218 -171c-64 0 -96 30 -96 94z" />
      </symbol>
      <symbol id="E240-b0g19h" viewBox="0 0 1000 1000" overflow="inherit">
         <path transform="scale(1,-1)" d="M179 -646c15 29 29 55 46 102c18 49 30 108 30 138c0 105 -80 173 -168 200c-18 5 -47 9 -87 16v190h22c8 0 33 -61 71 -95c4 -3 -2 3 61 -56c62 -58 122 -137 122 -241c0 -38 -13 -106 -35 -163c-20 -51 -43 -99 -66 -132c-6 -5 -10 -7 -13 -7s-5 2 -5 5l4 10 c1 3 14 25 18 33z" />
      </symbol>
      <symbol id="E241-b0g19h" viewBox="0 0 1000 1000" overflow="inherit">
         <path transform="scale(1,-1)" d="M179 646c-4 8 -17 30 -18 33l-4 10c0 3 2 5 5 5s7 -2 13 -7c23 -33 46 -81 66 -132c22 -57 35 -125 35 -163c0 -104 -60 -183 -122 -241c-63 -59 -57 -53 -61 -56c-38 -34 -63 -95 -71 -95h-22v190c40 7 69 11 87 16c88 27 168 95 168 200c0 30 -12 89 -30 138 c-17 47 -31 73 -46 102z" />
      </symbol>
   </defs>
   <style type="text/css">g.page-margin{font-family:Times;} g.ending, g.fing, g.reh, g.tempo{font-weight:bold;} g.dir, g.dynam, g.mNum{font-style:italic;} g.label{font-weight:normal;}</style>
   <svg class="definition-scale" color="black" viewBox="0 0 21000 29700">
      <g class="page-margin" transform="translate(500, 500)">
         <g id="m18kry3g" class="mdiv pageMilestone" />
         <g id="s15rtv4b" class="score pageMilestone" />
         <g id="s1e20t4w" class="system">
            <g id="l1wi8nk6" class="label">
               <text x="1105" y="1535" text-anchor="end" font-size="0px">
                  <tspan id="ths055c" class="text">
                     <tspan font-size="405px" class="text">Piano</tspan>
                  </tspan>
               </text>
            </g>
            <g id="s1j501vc" class="section systemMilestone" />
            <g id="pn6k2py" class="pb" />
            <g id="m1apjzop" class="measure">
               <g id="m1gkyz4b" class="mNum">
                  <text x="1285" y="842" text-anchor="middle" font-size="0px" />
               </g>
               <g id="s1uyr7ky" class="staff">
                  <path d="M1285 1085 L3175 1085" stroke="currentColor" stroke-width="13" />
                  <path d="M1285 1265 L3175 1265" stroke="currentColor" stroke-width="13" />
                  <path d="M1285 1445 L3175 1445" stroke="currentColor" stroke-width="13" />
                  <path d="M1285 1625 L3175 1625" stroke="currentColor" stroke-width="13" />
                  <path d="M1285 1805 L3175 1805" stroke="currentColor" stroke-width="13" />
                  <g id="c1sookpz" class="clef">
                     <use xlink:href="#E050-b0g19h" x="1375" y="1625" height="720px" width="720px" />
                  </g>
                  <g id="k1im5p5s" class="keySig" />
                  <g id="m1fb41ze" class="meterSig">
                     <use xlink:href="#E082-b0g19h" x="2006" y="1265" height="720px" width="720px" />
                     <use xlink:href="#E084-b0g19h" x="2011" y="1625" height="720px" width="720px" />
                  </g>
                  <g id="l52uxwk" class="layer">
                     <g id="nhl2480" class="note">
                        <g class="notehead">
                           <use xlink:href="#E0A4-b0g19h" x="2581" y="1535" height="720px" width="720px" />
                        </g>
                        <g id="s3dm93c" class="stem">
                           <rect x="2789" y="905" height="602" width="18" />
                           <g id="f13cvs4w" class="flag">
                              <use xlink:href="#E240-b0g19h" x="2789" y="905" height="720px" width="720px" />
                           </g>
                        </g>
                     </g>
                  </g>
               </g>
               <g id="biiom41" class="barLine">
                  <path d="M3162 1085 L3162 1805" stroke="currentColor" stroke-width="27" />
               </g>
            </g>
            <g id="m1t2r839" class="measure">
               <g id="s3da8bb" class="staff">
                  <path d="M3175 1085 L5692 1085" stroke="currentColor" stroke-width="13" />
                  <path d="M3175 1265 L5692 1265" stroke="currentColor" stroke-width="13" />
                  <path d="M3175 1445 L5692 1445" stroke="currentColor" stroke-width="13" />
                  <path d="M3175 1625 L5692 1625" stroke="currentColor" stroke-width="13" />
                  <path d="M3175 1805 L5692 1805" stroke="currentColor" stroke-width="13" />
                  <g id="l1kq5kp1" class="layer">
                     <g id="bz8io0u" class="beam">
                        <polygon points="3357,1895 3956,1985 3956,1895 3357,1805" />
                        <g id="nmpr8t3" class="note">
                           <g class="notehead">
                              <use xlink:href="#E0A4-b0g19h" x="3357" y="1265" height="720px" width="720px" />
                           </g>
                           <g id="s1fnb38b" class="stem">
                              <rect x="3357" y="1293" height="584" width="18" />
                           </g>
                        </g>
                        <g id="n133880h" class="note">
                           <g class="notehead">
                              <use xlink:href="#E0A4-b0g19h" x="3938" y="1355" height="720px" width="720px" />
                           </g>
                           <g id="s1dflmol" class="stem">
                              <rect x="3938" y="1383" height="584" width="18" />
                           </g>
                        </g>
                     </g>
                     <g id="bsufqex" class="beam">
                        <polygon points="4518,1895 5117,1805 5117,1715 4518,1805" />
                        <g id="n192owlc" class="note">
                           <g class="notehead">
                              <use xlink:href="#E0A4-b0g19h" x="4518" y="1265" height="720px" width="720px" />
                           </g>
                           <g id="slnm9xi" class="stem">
                              <rect x="4518" y="1293" height="584" width="18" />
                           </g>
                        </g>
                        <g id="nri18lb" class="note">
                           <g class="notehead">
                              <use xlink:href="#E0A4-b0g19h" x="5099" y="1175" height="720px" width="720px" />
                           </g>
                           <g id="sjjbsp6" class="stem">
                              <rect x="5099" y="1203" height="584" width="18" />
                           </g>
                        </g>
                     </g>
                  </g>
               </g>
               <g id="bzno35a" class="barLine">
                  <path d="M5679 1085 L5679 1805" stroke="currentColor" stroke-width="27" />
               </g>
            </g>
            <g id="m1bkle1j" class="measure">
               <g id="s1pe8lrh" class="staff">
                  <path d="M5692 1085 L8209 1085" stroke="currentColor" stroke-width="13" />
                  <path d="M5692 1265 L8209 1265" stroke="currentColor" stroke-width="13" />
                  <path d="M5692 1445 L8209 1445" stroke="currentColor" stroke-width="13" />
                  <path d="M5692 1625 L8209 1625" stroke="currentColor" stroke-width="13" />
                  <path d="M5692 1805 L8209 1805" stroke="currentColor" stroke-width="13" />
                  <g id="l1wbwr74" class="layer">
                     <g id="b1ui48vb" class="beam">
                        <polygon points="5874,1670 6473,1670 6473,1580 5874,1580" />
                        <g id="n1mww337" class="note">
                           <g class="notehead">
                              <use xlink:href="#E0A4-b0g19h" x="5874" y="1085" height="720px" width="720px" />
                           </g>
                           <g id="sh6en4f" class="stem">
                              <rect x="5874" y="1113" height="539" width="18" />
                           </g>
                        </g>
                        <g id="n1roxucl" class="note">
                           <g class="notehead">
                              <use xlink:href="#E0A4-b0g19h" x="6455" y="1085" height="720px" width="720px" />
                           </g>
                           <g id="s1no1hj6" class="stem">
                              <rect x="6455" y="1113" height="539" width="18" />
                           </g>
                        </g>
                     </g>
                     <g id="bpmitzc" class="beam">
                        <polygon points="7035,1805 7634,1805 7634,1715 7035,1715" />
                        <g id="no4phxu" class="note">
                           <g class="notehead">
                              <use xlink:href="#E0A4-b0g19h" x="7035" y="1175" height="720px" width="720px" />
                           </g>
                           <g id="s31k0gn" class="stem">
                              <rect x="7035" y="1203" height="584" width="18" />
                           </g>
                        </g>
                        <g id="n125063b" class="note">
                           <g class="notehead">
                              <use xlink:href="#E0A4-b0g19h" x="7616" y="1175" height="720px" width="720px" />
                           </g>
                           <g id="s10eknmp" class="stem">
                              <rect x="7616" y="1203" height="584" width="18" />
                           </g>
                        </g>
                     </g>
                  </g>
               </g>
               <g id="b1gzuus4" class="barLine">
                  <path d="M8196 1085 L8196 1805" stroke="currentColor" stroke-width="27" />
               </g>
            </g>
            <g id="muyri1p" class="measure">
               <g id="s1n9flam" class="staff">
                  <path d="M8209 1085 L10726 1085" stroke="currentColor" stroke-width="13" />
                  <path d="M8209 1265 L10726 1265" stroke="currentColor" stroke-width="13" />
                  <path d="M8209 1445 L10726 1445" stroke="currentColor" stroke-width="13" />
                  <path d="M8209 1625 L10726 1625" stroke="currentColor" stroke-width="13" />
                  <path d="M8209 1805 L10726 1805" stroke="currentColor" stroke-width="13" />
                  <g id="l10eprmu" class="layer">
                     <g id="b14becea" class="beam">
                        <polygon points="8391,1895 8990,1985 8990,1895 8391,1805" />
                        <g id="n1xn111o" class="note">
                           <g class="notehead">
                              <use xlink:href="#E0A4-b0g19h" x="8391" y="1265" height="720px" width="720px" />
                           </g>
                           <g id="sjeunep" class="stem">
                              <rect x="8391" y="1293" height="584" width="18" />
                           </g>
                        </g>
                        <g id="ntemc0g" class="note">
                           <g class="notehead">
                              <use xlink:href="#E0A4-b0g19h" x="8972" y="1355" height="720px" width="720px" />
                           </g>
                           <g id="s1cyjur0" class="stem">
                              <rect x="8972" y="1383" height="584" width="18" />
                           </g>
                        </g>
                     </g>
                     <g id="bhxcva7" class="beam">
                        <polygon points="9552,1895 10151,1805 10151,1715 9552,1805" />
                        <g id="n167n99m" class="note">
                           <g class="notehead">
                              <use xlink:href="#E0A4-b0g19h" x="9552" y="1265" height="720px" width="720px" />
                           </g>
                           <g id="s1a08c0a" class="stem">
                              <rect x="9552" y="1293" height="584" width="18" />
                           </g>
                        </g>
                        <g id="n15mx107" class="note">
                           <g class="notehead">
                              <use xlink:href="#E0A4-b0g19h" x="10133" y="1175" height="720px" width="720px" />
                           </g>
                           <g id="s1a6oo56" class="stem">
                              <rect x="10133" y="1203" height="584" width="18" />
                           </g>
                        </g>
                     </g>
                  </g>
               </g>
               <g id="bu9mdoz" class="barLine">
                  <path d="M10713 1085 L10713 1805" stroke="currentColor" stroke-width="27" />
               </g>
            </g>
            <g id="mmi2e37" class="measure">
               <g id="s1933oau" class="staff">
                  <path d="M10726 1085 L13276 1085" stroke="currentColor" stroke-width="13" />
                  <path d="M10726 1265 L13276 1265" stroke="currentColor" stroke-width="13" />
                  <path d="M10726 1445 L13276 1445" stroke="currentColor" stroke-width="13" />
                  <path d="M10726 1625 L13276 1625" stroke="currentColor" stroke-width="13" />
                  <path d="M10726 1805 L13276 1805" stroke="currentColor" stroke-width="13" />
                  <g id="mqm3f1s" class="meterSig">
                     <use xlink:href="#E083-b0g19h" x="10806" y="1265" height="720px" width="720px" />
                     <use xlink:href="#E088-b0g19h" x="10809" y="1625" height="720px" width="720px" />
                  </g>
                  <g id="l111rxlb" class="layer">
                     <g id="b1j5d6hi" class="beam">
                        <polygon points="11359,1670 11958,1670 11958,1580 11359,1580" />
                        <g id="n1fc3w6s" class="note">
                           <g class="notehead">
                              <use xlink:href="#E0A4-b0g19h" x="11359" y="1085" height="720px" width="720px" />
                           </g>
                           <g id="s8uvpmh" class="stem">
                              <rect x="11359" y="1113" height="539" width="18" />
                           </g>
                        </g>
                        <g id="n1hl0emw" class="note">
                           <g class="notehead">
                              <use xlink:href="#E0A4-b0g19h" x="11940" y="1085" height="720px" width="720px" />
                           </g>
                           <g id="surgykm" class="stem">
                              <rect x="11940" y="1113" height="539" width="18" />
                           </g>
                        </g>
                     </g>
                     <g id="n1quhmfb" class="note">
                        <g class="notehead">
                           <use xlink:href="#E0A4-b0g19h" x="12520" y="1175" height="720px" width="720px" />
                        </g>
                        <g id="s18k1y9y" class="stem">
                           <rect x="12520" y="1203" height="602" width="18" />
                           <g id="f1ml0h16" class="flag">
                              <use xlink:href="#E241-b0g19h" x="12520" y="1805" height="720px" width="720px" />
                           </g>
                        </g>
                     </g>
                  </g>
               </g>
               <g id="b1winjp0" class="barLine">
                  <path d="M13101 1085 L13101 1805" stroke="currentColor" stroke-width="27" />
                  <path d="M13231 1085 L13231 1805" stroke="currentColor" stroke-width="90" />
                  <use xlink:href="#E044-b0g19h" x="12984" y="1355" height="720px" width="720px" />
                  <use xlink:href="#E044-b0g19h" x="12984" y="1535" height="720px" width="720px" />
               </g>
            </g>
            <g id="mtneu3a" class="measure">
               <g id="s1dj7ca3" class="staff">
                  <path d="M13276 1085 L14501 1085" stroke="currentColor" stroke-width="13" />
                  <path d="M13276 1265 L14501 1265" stroke="currentColor" stroke-width="13" />
                  <path d="M13276 1445 L14501 1445" stroke="currentColor" stroke-width="13" />
                  <path d="M13276 1625 L14501 1625" stroke="currentColor" stroke-width="13" />
                  <path d="M13276 1805 L14501 1805" stroke="currentColor" stroke-width="13" />
                  <g id="m176onp6" class="meterSig">
                     <use xlink:href="#E081-b0g19h" x="13383" y="1265" height="720px" width="720px" />
                     <use xlink:href="#E088-b0g19h" x="13359" y="1625" height="720px" width="720px" />
                  </g>
                  <g id="l1adkj9u" class="layer">
                     <g id="ntxntaj" class="note">
                        <g class="notehead">
                           <use xlink:href="#E0A4-b0g19h" x="13907" y="1535" height="720px" width="720px" />
                        </g>
                        <g id="sz6odfa" class="stem">
                           <rect x="14115" y="905" height="602" width="18" />
                           <g id="f18ag8lb" class="flag">
                              <use xlink:href="#E240-b0g19h" x="14115" y="905" height="720px" width="720px" />
                           </g>
                        </g>
                     </g>
                  </g>
               </g>
               <g id="b1i1mgqr" class="barLine">
                  <path d="M14488 1085 L14488 1805" stroke="currentColor" stroke-width="27" />
               </g>
            </g>
            <g id="m1uwhsli" class="measure">
               <g id="s1c76cko" class="staff">
                  <path d="M14501 1085 L17487 1085" stroke="currentColor" stroke-width="13" />
                  <path d="M14501 1265 L17487 1265" stroke="currentColor" stroke-width="13" />
                  <path d="M14501 1445 L17487 1445" stroke="currentColor" stroke-width="13" />
                  <path d="M14501 1625 L17487 1625" stroke="currentColor" stroke-width="13" />
                  <path d="M14501 1805 L17487 1805" stroke="currentColor" stroke-width="13" />
                  <g id="mtpa1aa" class="meterSig">
                     <use xlink:href="#E082-b0g19h" x="14577" y="1265" height="720px" width="720px" />
                     <use xlink:href="#E084-b0g19h" x="14582" y="1625" height="720px" width="720px" />
                  </g>
                  <g id="l4agpct" class="layer">
                     <g id="bn9nw3p" class="beam">
                        <polygon points="15152,1895 15751,1715 15751,1625 15152,1805" />
                        <g id="ndj43uq" class="note">
                           <g class="notehead">
                              <use xlink:href="#E0A4-b0g19h" x="15152" y="1265" height="720px" width="720px" />
                           </g>
                           <g id="s1ahgg3m" class="stem">
                              <rect x="15152" y="1293" height="584" width="18" />
                           </g>
                        </g>
                        <g id="n18lv4b7" class="note">
                           <g class="notehead">
                              <use xlink:href="#E0A4-b0g19h" x="15733" y="1085" height="720px" width="720px" />
                           </g>
                           <g id="s1hiz4zz" class="stem">
                              <rect x="15733" y="1113" height="584" width="18" />
                           </g>
                        </g>
                     </g>
                     <g id="bt6ebvm" class="beam">
                        <polygon points="16313,1805 16912,1895 16912,1805 16313,1715" />
                        <g id="n1age1dh" class="note">
                           <g class="notehead">
                              <use xlink:href="#E0A4-b0g19h" x="16313" y="1175" height="720px" width="720px" />
                           </g>
                           <g id="s1hvsma6" class="stem">
                              <rect x="16313" y="1203" height="584" width="18" />
                           </g>
                        </g>
                        <g id="n13hg448" class="note">
                           <g class="notehead">
                              <use xlink:href="#E0A4-b0g19h" x="16894" y="1265" height="720px" width="720px" />
                           </g>
                           <g id="s1puq9wx" class="stem">
                              <rect x="16894" y="1293" height="584" width="18" />
                           </g>
                        </g>
                     </g>
                  </g>
               </g>
               <g id="b1p6kfhn" class="barLine">
                  <path d="M17474 1085 L17474 1805" stroke="currentColor" stroke-width="27" />
               </g>
            </g>
            <g id="m12i971u" class="measure">
               <g id="s1hwtrog" class="staff">
                  <path d="M17487 1085 L20004 1085" stroke="currentColor" stroke-width="13" />
                  <path d="M17487 1265 L20004 1265" stroke="currentColor" stroke-width="13" />
                  <path d="M17487 1445 L20004 1445" stroke="currentColor" stroke-width="13" />
                  <path d="M17487 1625 L20004 1625" stroke="currentColor" stroke-width="13" />
                  <path d="M17487 1805 L20004 1805" stroke="currentColor" stroke-width="13" />
                  <g id="lf0r7ly" class="layer">
                     <g id="b1a8wbwn" class="beam">
                        <polygon points="17669,1985 18268,1895 18268,1805 17669,1895" />
                        <g id="n1u8s3p3" class="note">
                           <g class="notehead">
                              <use xlink:href="#E0A4-b0g19h" x="17669" y="1355" height="720px" width="720px" />
                           </g>
                           <g id="s1uw7839" class="stem">
                              <rect x="17669" y="1383" height="584" width="18" />
                           </g>
                        </g>
                        <g id="n5uys95" class="note">
                           <g class="notehead">
                              <use xlink:href="#E0A4-b0g19h" x="18250" y="1265" height="720px" width="720px" />
                           </g>
                           <g id="slfmcac" class="stem">
                              <rect x="18250" y="1293" height="584" width="18" />
                           </g>
                        </g>
                     </g>
                     <g id="bh8veu9" class="beam">
                        <polygon points="19038,905 19637,905 19637,995 19038,995" />
                        <g id="n1y7ev4g" class="note">
                           <g class="notehead">
                              <use xlink:href="#E0A4-b0g19h" x="18830" y="1535" height="720px" width="720px" />
                           </g>
                           <g id="s12rkomo" class="stem">
                              <rect x="19038" y="923" height="584" width="18" />
                           </g>
                        </g>
                        <g id="n13ggytr" class="note">
                           <g class="notehead">
                              <use xlink:href="#E0A4-b0g19h" x="19411" y="1535" height="720px" width="720px" />
                           </g>
                           <g id="slvcjtk" class="stem">
                              <rect x="19619" y="923" height="584" width="18" />
                           </g>
                        </g>
                     </g>
                  </g>
               </g>
               <g id="b1fcwv30" class="barLine">
                  <path d="M19991 1085 L19991 1805" stroke="currentColor" stroke-width="27" />
               </g>
            </g>
         </g>
         <g id="s1xcirr0" class="system">
            <g id="lttwonc" class="labelAbbr">
               <text x="914" y="3884" text-anchor="end" font-size="0px">
                  <tspan id="tu1do5r" class="text">
                     <tspan font-size="405px" class="text">Pno.</tspan>
                  </tspan>
               </text>
            </g>
            <g id="m1vopovt" class="measure">
               <g id="mpyq0da" class="mNum autogenerated">
                  <text x="1094" y="3191" text-anchor="middle" font-size="0px">
                     <tspan id="t1uww3k5" class="text">
                        <tspan font-size="324px" class="text">8</tspan>
                     </tspan>
                  </text>
               </g>
               <g id="skj0y8z" class="staff">
                  <path d="M1094 3434 L4423 3434" stroke="currentColor" stroke-width="13" />
                  <path d="M1094 3614 L4423 3614" stroke="currentColor" stroke-width="13" />
                  <path d="M1094 3794 L4423 3794" stroke="currentColor" stroke-width="13" />
                  <path d="M1094 3974 L4423 3974" stroke="currentColor" stroke-width="13" />
                  <path d="M1094 4154 L4423 4154" stroke="currentColor" stroke-width="13" />
                  <g id="c1lk13qy" class="clef">
                     <use xlink:href="#E050-b0g19h" x="1184" y="3974" height="720px" width="720px" />
                  </g>
                  <g id="k1ae5l53" class="keySig" />
                  <g id="lmatxbt" class="layer">
                     <g id="b1v5gih9" class="beam">
                        <polygon points="1919,4244 2895,4334 2895,4244 1919,4154" />
                        <polygon points="2503,4164 2895,4199 2895,4109 2503,4074" />
                        <g id="nk1ac5k" class="note">
                           <g class="notehead">
                              <use xlink:href="#E0A4-b0g19h" x="1919" y="3614" height="720px" width="720px" />
                           </g>
                           <g id="sb214ff" class="stem">
                              <rect x="1919" y="3642" height="584" width="18" />
                           </g>
                        </g>
                        <g id="nuczyyi" class="note">
                           <g class="notehead">
                              <use xlink:href="#E0A4-b0g19h" x="2494" y="3614" height="720px" width="720px" />
                           </g>
                           <g id="s1lo0dt6" class="stem">
                              <rect x="2494" y="3642" height="639" width="18" />
                           </g>
                        </g>
                        <g id="nrepph" class="note">
                           <g class="notehead">
                              <use xlink:href="#E0A4-b0g19h" x="2877" y="3704" height="720px" width="720px" />
                           </g>
                           <g id="sh1n1f9" class="stem">
                              <rect x="2877" y="3732" height="584" width="18" />
                           </g>
                        </g>
                     </g>
                     <g id="b1mtts14" class="beam">
                        <polygon points="3260,4244 3853,4154 3853,4064 3260,4154" />
                        <g id="n1e9ipus" class="note">
                           <g class="notehead">
                              <use xlink:href="#E0A4-b0g19h" x="3260" y="3614" height="720px" width="720px" />
                           </g>
                           <g id="s1v7wz60" class="stem">
                              <rect x="3260" y="3642" height="584" width="18" />
                           </g>
                        </g>
                        <g id="n1jvf2bf" class="note">
                           <g class="notehead">
                              <use xlink:href="#E0A4-b0g19h" x="3835" y="3524" height="720px" width="720px" />
                           </g>
                           <g id="s1ybk9hq" class="stem">
                              <rect x="3835" y="3552" height="584" width="18" />
                           </g>
                        </g>
                     </g>
                  </g>
               </g>
               <g id="bbcxh2k" class="barLine">
                  <path d="M4410 3434 L4410 4154" stroke="currentColor" stroke-width="27" />
               </g>
            </g>
            <g id="soll2uv" class="sb" />
            <g id="mdfstt0" class="measure">
               <g id="s1d6imw3" class="staff">
                  <path d="M4423 3434 L7107 3434" stroke="currentColor" stroke-width="13" />
                  <path d="M4423 3614 L7107 3614" stroke="currentColor" stroke-width="13" />
                  <path d="M4423 3794 L7107 3794" stroke="currentColor" stroke-width="13" />
                  <path d="M4423 3974 L7107 3974" stroke="currentColor" stroke-width="13" />
                  <path d="M4423 4154 L7107 4154" stroke="currentColor" stroke-width="13" />
                  <g id="lm5yypw" class="layer">
                     <g id="b107za71" class="beam">
                        <polygon points="4603,4379 5579,4379 5579,4289 4603,4289" />
                        <polygon points="5187,4244 5579,4244 5579,4154 5187,4154" />
                        <g id="n10z1baq" class="note">
                           <g class="notehead">
                              <use xlink:href="#E0A4-b0g19h" x="4603" y="3704" height="720px" width="720px" />
                           </g>
                           <g id="si3j8u1" class="stem">
                              <rect x="4603" y="3732" height="629" width="18" />
                           </g>
                        </g>
                        <g id="n1n028y0" class="note">
                           <g class="notehead">
                              <use xlink:href="#E0A4-b0g19h" x="5178" y="3794" height="720px" width="720px" />
                           </g>
                           <g id="s12sba7d" class="stem">
                              <rect x="5178" y="3822" height="539" width="18" />
                           </g>
                        </g>
                        <g id="n1w02p2x" class="note">
                           <g class="notehead">
                              <use xlink:href="#E0A4-b0g19h" x="5561" y="3704" height="720px" width="720px" />
                           </g>
                           <g id="s8v1ett" class="stem">
                              <rect x="5561" y="3732" height="629" width="18" />
                           </g>
                        </g>
                     </g>
                     <g id="b1n0gl7o" class="beam">
                        <polygon points="6152,3254 6745,3254 6745,3344 6152,3344" />
                        <g id="n1ncynuw" class="note">
                           <g class="notehead">
                              <use xlink:href="#E0A4-b0g19h" x="5944" y="3884" height="720px" width="720px" />
                           </g>
                           <g id="sgmy1mw" class="stem">
                              <rect x="6152" y="3272" height="584" width="18" />
                           </g>
                        </g>
                        <g id="n1443zuz" class="note">
                           <g class="notehead">
                              <use xlink:href="#E0A4-b0g19h" x="6519" y="3884" height="720px" width="720px" />
                           </g>
                           <g id="sb1s9cq" class="stem">
                              <rect x="6727" y="3272" height="584" width="18" />
                           </g>
                        </g>
                     </g>
                  </g>
               </g>
               <g id="b10k9r8y" class="barLine">
                  <path d="M7094 3434 L7094 4154" stroke="currentColor" stroke-width="27" />
               </g>
            </g>
            <g id="m16my55m" class="measure">
               <g id="s7801rq" class="staff">
                  <path d="M7107 3434 L9791 3434" stroke="currentColor" stroke-width="13" />
                  <path d="M7107 3614 L9791 3614" stroke="currentColor" stroke-width="13" />
                  <path d="M7107 3794 L9791 3794" stroke="currentColor" stroke-width="13" />
                  <path d="M7107 3974 L9791 3974" stroke="currentColor" stroke-width="13" />
                  <path d="M7107 4154 L9791 4154" stroke="currentColor" stroke-width="13" />
                  <g id="l1dcypqc" class="layer">
                     <g id="b1elnwqf" class="beam">
                        <polygon points="7287,4244 8263,4334 8263,4244 7287,4154" />
                        <polygon points="7871,4164 8263,4199 8263,4109 7871,4074" />
                        <g id="n97d7qg" class="note">
                           <g class="notehead">
                              <use xlink:href="#E0A4-b0g19h" x="7287" y="3614" height="720px" width="720px" />
                           </g>
                           <g id="s1c58m6f" class="stem">
                              <rect x="7287" y="3642" height="584" width="18" />
                           </g>
                        </g>
                        <g id="n1u1joo3" class="note">
                           <g class="notehead">
                              <use xlink:href="#E0A4-b0g19h" x="7862" y="3614" height="720px" width="720px" />
                           </g>
                           <g id="s1ypge1k" class="stem">
                              <rect x="7862" y="3642" height="639" width="18" />
                           </g>
                        </g>
                        <g id="n4texxc" class="note">
                           <g class="notehead">
                              <use xlink:href="#E0A4-b0g19h" x="8245" y="3704" height="720px" width="720px" />
                           </g>
                           <g id="s755zbr" class="stem">
                              <rect x="8245" y="3732" height="584" width="18" />
                           </g>
                        </g>
                     </g>
                     <g id="b1qg6xve" class="beam">
                        <polygon points="8628,4244 9221,4154 9221,4064 8628,4154" />
                        <g id="n11q8nbz" class="note">
                           <g class="notehead">
                              <use xlink:href="#E0A4-b0g19h" x="8628" y="3614" height="720px" width="720px" />
                           </g>
                           <g id="subguby" class="stem">
                              <rect x="8628" y="3642" height="584" width="18" />
                           </g>
                        </g>
                        <g id="nc3p9rp" class="note">
                           <g class="notehead">
                              <use xlink:href="#E0A4-b0g19h" x="9203" y="3524" height="720px" width="720px" />
                           </g>
                           <g id="s190x8g3" class="stem">
                              <rect x="9203" y="3552" height="584" width="18" />
                           </g>
                        </g>
                     </g>
                  </g>
               </g>
               <g id="buead7r" class="barLine">
                  <path d="M9778 3434 L9778 4154" stroke="currentColor" stroke-width="27" />
               </g>
            </g>
            <g id="m1kybpfn" class="measure">
               <g id="smdv38i" class="staff">
                  <path d="M9791 3434 L12054 3434" stroke="currentColor" stroke-width="13" />
                  <path d="M9791 3614 L12054 3614" stroke="currentColor" stroke-width="13" />
                  <path d="M9791 3794 L12054 3794" stroke="currentColor" stroke-width="13" />
                  <path d="M9791 3974 L12054 3974" stroke="currentColor" stroke-width="13" />
                  <path d="M9791 4154 L12054 4154" stroke="currentColor" stroke-width="13" />
                  <g id="m1800koe" class="meterSig">
                     <use xlink:href="#E083-b0g19h" x="9871" y="3614" height="720px" width="720px" />
                     <use xlink:href="#E088-b0g19h" x="9874" y="3974" height="720px" width="720px" />
                  </g>
                  <g id="l15xtfht" class="layer">
                     <g id="n1yr9mq7" class="note">
                        <g class="notehead">
                           <use xlink:href="#E0A4-b0g19h" x="10422" y="3704" height="720px" width="720px" />
                        </g>
                        <g id="s12xgl9g" class="stem">
                           <rect x="10422" y="3732" height="602" width="18" />
                        </g>
                     </g>
                     <g id="n8pjyjm" class="note">
                        <g class="notehead">
                           <use xlink:href="#E0A4-b0g19h" x="11304" y="3614" height="720px" width="720px" />
                        </g>
                        <g id="sqgkz8i" class="stem">
                           <rect x="11304" y="3642" height="602" width="18" />
                           <g id="fyoyh1y" class="flag">
                              <use xlink:href="#E241-b0g19h" x="11304" y="4244" height="720px" width="720px" />
                           </g>
                        </g>
                     </g>
                  </g>
               </g>
               <g id="b1a4v7rc" class="barLine">
                  <path d="M11879 3434 L11879 4154" stroke="currentColor" stroke-width="27" />
                  <path d="M12009 3434 L12009 4154" stroke="currentColor" stroke-width="90" />
               </g>
            </g>
            <g id="s1uhnuil" class="systemMilestoneEnd s1j501vc" />
         </g>
         <g id="p1bbteks" class="pageMilestoneEnd s15rtv4b" />
         <g id="p1i8viht" class="pageMilestoneEnd m18kry3g" />
         <g id="p1cjwsdf" class="pgHead">
            <text x="0" y="0" font-size="0px">
               <tspan id="r1koy49z" class="rend" x="10000" y="277" text-anchor="middle">
                  <tspan id="t1h68a2l" class="text">
                     <tspan font-size="405px" class="text">Air n 114</tspan>
                  </tspan>
               </tspan>
            </text>
         </g>
         <g id="p15v6n3e" class="pgFoot autogenerated">
            <g id="f1tb8uzo" class="fig">
               <g id="s1mrivf7" class="svg" transform="translate(7750, 28099) scale(10, 10)">
                  <g>
                     <path fill="#00000" d="M 17.11278,49.26451 V 10.367554 h 12.696511 c 3.288815,7.336676 6.71267,14.610456 10.127281,21.888976 3.419998,-7.484684 6.255515,-14.204887 9.58887,-21.909915 2.436207,0.103726 4.316952,0.08453 6.484294,-0.05808 V 49.264423 H 50.274275 C 50.145222,38.35639 50.016136,27.448368 49.887066,16.540329 45.003488,27.315459 39.967448,38.433564 35.083854,49.208695 34.678996,49.343717 34.426583,49.135619 34.021726,49.270644 29.46588,39.330716 24.910049,29.390805 20.354201,19.450876 20.224341,29.388756 20.09461,39.326619 19.964815,49.264497 H 17.11278 Z M 36.754144,39.324695 C 32.721221,30.512695 28.6883,21.700679 24.655394,12.888662 22.530527,12.750737 22.656775,12.71031 20.714356,12.813974 v 0.966497 c 4.612938,9.99784 9.609439,20.748709 13.87298,30.081745 0.722248,-1.512523 1.444528,-3.025014 2.166808,-4.537521 z m 25.738417,9.939815 c 0,-12.965651 0,-25.931305 0,-38.896956 10.084388,0 20.168791,0 30.253178,0 0,0.960416 0,1.920849 0,2.881265 -6.482825,0 -12.965652,0 -19.448478,0 0,4.802097 0,9.604178 0,14.406277 5.52241,0 11.044819,0 16.567229,0 0,0.960415 0,1.920832 0,2.881248 -5.52241,0 -11.044819,0 -16.567229,0 0,5.282306 0,10.564611 0,15.846917 6.963035,0 13.926068,0 20.889103,0 0,0.960416 0,1.920832 0,2.881249 -10.564597,0 -21.129207,0 -31.693803,0 z m 4.321874,-2.160937 c 0,-11.765131 0,-23.530263 0,-35.295394 -0.720312,0 -1.440625,0 -2.160937,0 0,11.765131 0,23.530263 0,35.295394 0.720312,0 1.440625,0 2.160937,0 z m 32.41413,2.160937 c 0,-12.965651 0,-25.931305 0,-38.896956 2.401045,0 4.802095,0 7.203135,0 0,12.965651 0,25.931305 0,38.896956 -2.40104,0 -4.80209,0 -7.203135,0 z m 2.881265,-2.160937 c 0,-11.765131 0,-23.530263 0,-35.295394 -0.72031,0 -1.44064,0 -2.160953,0 0,11.765131 0,23.530263 0,35.295394 0.720313,0 1.440643,0 2.160953,0 z" />
                     <path fill="#00000" d="m 346.3,6.7 c -3.1,0.5 -4.9,4.4 -2.7,6.8 1.2,1.4 2.7,2.4 4.1,3.5 -2.4,5.3 -7.7,8.3 -11.9,12.1 -3.7,2.8 -7,6.2 -9.7,9.9 -2.2,-0.8 -0.3,-6.8 -0.6,-9.5 0.1,-3.1 0.7,-6.4 2.9,-8.7 1.3,-1.9 3,-3.5 4.5,-5.2 1.2,-3.4 -3.2,-4.9 -5.8,-4.6 -7.3,-0.5 -14.6,2 -20,6.8 -5,4.6 -10,10.1 -11.5,17 -0.9,3.5 -0.2,7.5 2.8,9.9 2.5,2.8 7.4,2.9 9.8,-0.2 1.7,-2.3 3.2,-4.8 3.8,-7.6 -0.1,-2.6 -4.4,-2.3 -4.3,0.2 1.2,2.4 -0.9,4.7 -2.7,6.2 -1.7,0.9 -4.7,0.7 -4.8,-1.7 -1,-5.8 2.1,-11.3 5.2,-16.1 4,-5.8 9.8,-11.2 17.2,-11.8 1.6,0 8.1,-1.2 6.8,1.4 -2.8,2.8 -5.6,6.1 -6,10.3 -1.6,7.7 0.1,15.7 -2.3,23.2 -1.1,3.9 2,2.6 2.5,0.2 3.3,-7.4 8.9,-13.4 15.1,-18.5 4.2,-3.9 9.5,-7.1 11.9,-12.6 1.3,-3.6 1.2,-9 -2.7,-10.9 -0.6,-0.2 -1.2,-0.3 -1.8,-0.3 z m 66,14.5 c -2,0.8 -1.8,4.9 0.8,4.4 3.4,0.4 2.9,-6.2 -0.8,-4.4 z m 0.6,7.3 c -1.3,0.5 -7.6,0.5 -5.4,2.2 4,-0.3 0.7,4.5 0.6,6.7 -0.4,2.9 -2.4,5.9 -1.2,8.8 2.7,1.7 5.6,-0.8 6.8,-3.2 1.6,-1.4 -0.5,-3 -1.2,-0.9 -0.4,0.8 -2.4,3.5 -2.6,1.8 1.1,-5 2.7,-9.9 3.9,-14.9 l -0.1,-0.5 h -0.9 z m -65.1,0.2 c -6.5,1.6 -10.5,9.5 -8.2,15.7 2.1,3.4 7.4,2.9 10.1,0.4 2,-0.2 3.6,-5.3 1,-3.4 -1.4,2 -4,4.2 -6.5,2.8 -2.2,-1.9 -1.9,-5.7 1.7,-5.3 3.1,-0.9 6.9,-2.1 8.1,-5.5 0.9,-2.7 -1.6,-5.2 -4.3,-4.8 h -1.1 -0.7 z m 13.6,0 c -2.2,0 -8.5,1.8 -2.9,2.3 0.9,1.9 -1,4.9 -1.1,7.2 -0.5,2.9 -1.4,5.7 -1.7,8.7 3.7,0.7 3.8,-2.6 4.4,-5.3 0.9,-3.3 1.6,-7 4.1,-9.5 2.4,1.6 6.8,-0.7 3.7,-3.4 -2.9,-0.5 -4.8,2.4 -6.2,4.3 0,-1.2 2.4,-5 -0.2,-4.3 z m 15.8,0 c -6.4,1.3 -9.6,9.1 -7.7,14.9 1.9,4 7.7,3.9 11,1.7 4.1,-3 6,-8.9 4.4,-13.7 -1.3,-3 -4.8,-3.2 -7.6,-3 z m 17,0 c -2.3,0 -8.8,1.9 -3,2.4 0.4,2.5 -1,5.7 -1.4,8.4 -0.7,2.4 -1.8,7.5 2.1,7.2 3.8,-0.1 6.5,-3.5 8.5,-6.3 2,-3.2 4.5,-7 3.3,-10.9 -3.7,-3 -3.6,2.6 -3.1,5.1 -0.7,3.8 -2.7,7.9 -6.2,9.8 -3.6,0.6 -1,-4.3 -0.8,-6.1 0.6,-3.2 1.6,-6.3 1.9,-9.5 -0.4,0 -0.8,0 -1.1,0 z m 30.6,0 c -6.3,1.2 -9.5,8.9 -7.8,14.7 1.5,4 7.2,4.2 10.5,2.4 4.6,-2.8 6.6,-9.3 4.8,-14.3 -1.4,-2.8 -4.8,-3 -7.5,-2.8 z m -75.4,1.7 c 2.1,1.5 0.2,4.7 -1.6,5.7 -1.1,0.4 -5.5,3.4 -4.6,0.7 0.8,-2.7 2.2,-6.2 5.3,-6.6 l 0.9,0.1 z m 30.8,0 c 2.6,1.5 1.3,5.2 0.8,7.6 -0.8,2.7 -1.9,5.9 -4.7,7.1 -5.1,0.8 -4,-5.8 -2.8,-8.8 1,-2.8 3,-6.8 6.7,-5.8 z m 47.1,-0.1 c 2.9,0.7 2,4.7 1.5,6.8 -0.7,3 -1.8,6.7 -5,8 -4.7,0.8 -4,-5.1 -3,-7.9 0.9,-3 2.7,-7.3 6.5,-6.8 z m -88.1,5.9 c -0.3,1.3 0.9,-0.6 0,0 z m -1.1,2.4 c -0.2,0.5 0.5,-0.1 0,0 z m -1.3,4.5 c -0.3,1.3 0.8,-0.2 0,0 z" />
                     <text y="41" x="201" fill="#00000" style="font-style:italic;font-weight:normal;font-size:30px;line-height:125%;font-family:Times;text-anchor:middle" xml:space="preserve">engraved with</text>
                  </g>
               </g>
            </g>
         </g>
      </g>
   </svg>
</svg>
