<?xml version="1.0" encoding="UTF-8" standalone="no"?>
<svg width="2100px" height="2970px" version="1.1" xmlns="http://www.w3.org/2000/svg" xmlns:xlink="http://www.w3.org/1999/xlink" xmlns:mei="http://www.music-encoding.org/ns/mei" overflow="visible">
   <desc>Engraved by Verovio 3.13.1</desc>
   <defs>
      <symbol id="E044-ud5a5t" viewBox="0 0 1000 1000" overflow="inherit">
         <path transform="scale(1,-1)" d="M0 0c0 28 22 50 50 50s50 -22 50 -50s-22 -50 -50 -50s-50 22 -50 50z" />
      </symbol>
      <symbol id="E050-ud5a5t" viewBox="0 0 1000 1000" overflow="inherit">
         <path transform="scale(1,-1)" d="M441 -245c-23 -4 -48 -6 -76 -6c-59 0 -102 7 -130 20c-88 42 -150 93 -187 154c-26 44 -43 103 -48 176c0 6 -1 13 -1 19c0 54 15 111 45 170c29 57 65 106 110 148s96 85 153 127c-3 16 -8 46 -13 92c-4 43 -5 73 -5 89c0 117 16 172 69 257c34 54 64 82 89 82 c21 0 43 -30 69 -92s39 -115 41 -159v-15c0 -109 -21 -162 -67 -241c-13 -20 -63 -90 -98 -118c-13 -9 -25 -19 -37 -29l31 -181c8 1 18 2 28 2c58 0 102 -12 133 -35c59 -43 92 -104 98 -184c1 -7 1 -15 1 -22c0 -123 -87 -209 -181 -248c8 -57 17 -110 25 -162 c5 -31 6 -58 6 -80c0 -30 -5 -53 -14 -70c-35 -64 -88 -99 -158 -103c-5 0 -11 -1 -16 -1c-37 0 -72 10 -108 27c-50 24 -77 59 -80 105v11c0 29 7 55 20 76c18 28 45 42 79 44h6c49 0 93 -42 97 -87v-9c0 -51 -34 -86 -105 -106c17 -24 51 -36 102 -36c62 0 116 43 140 85 c9 16 13 41 13 74c0 20 -1 42 -5 67c-8 53 -18 106 -26 159zM461 939c-95 0 -135 -175 -135 -286c0 -24 2 -48 5 -71c50 39 92 82 127 128c40 53 60 100 60 140v8c-4 53 -22 81 -55 81h-2zM406 119l54 -326c73 25 110 78 110 161c0 7 0 15 -1 23c-7 95 -57 142 -151 142h-12 zM382 117c-72 -2 -128 -47 -128 -120v-7c2 -46 43 -99 75 -115c-3 -2 -7 -5 -10 -10c-70 33 -116 88 -123 172v11c0 68 44 126 88 159c23 17 49 29 78 36l-29 170c-21 -13 -52 -37 -92 -73c-50 -44 -86 -84 -109 -119c-45 -69 -67 -130 -67 -182v-13c5 -68 35 -127 93 -176 s125 -73 203 -73c25 0 50 3 75 9c-19 111 -36 221 -54 331z" />
      </symbol>
      <symbol id="E082-ud5a5t" viewBox="0 0 1000 1000" overflow="inherit">
         <path transform="scale(1,-1)" d="M124 -185c-18 0 -55 -14 -65 -65h-36l-3 30c0 25 6 45 18 63c11 19 22 30 39 43l121 82l37 29c15 11 27 29 38 54c12 24 18 47 18 70c0 40 -19 88 -94 88c-25 0 -32 0 -50 -8c-14 -5 -23 -12 -26 -22c3 -9 7 -15 10 -18l24 -17c12 -7 17 -11 27 -21c5 -7 7 -16 7 -27 c0 -12 0 -57 -79 -74c-30 0 -76 26 -76 94c0 66 81 135 197 135c72 0 181 -32 181 -150c0 -53 -32 -95 -113 -133l-91 -41c-26 -11 -45 -23 -57 -37l49 7c84 0 115 -41 148 -41c20 0 33 20 39 61h35c0 -152 -68 -168 -114 -168c-17 0 -65 0 -79 7h10l-28 17 c-49 37 -69 40 -87 42z" />
      </symbol>
      <symbol id="E084-ud5a5t" viewBox="0 0 1000 1000" overflow="inherit">
         <path transform="scale(1,-1)" d="M20 -78c84 97 114 180 134 329h170c-13 -32 -82 -132 -99 -151l-84 -97c-33 -36 -59 -63 -80 -81h162v102l127 123v-225h57v-39h-57v-34c0 -43 19 -65 57 -65v-34h-244v36c48 0 60 26 60 70v27h-203v39z" />
      </symbol>
      <symbol id="E0A4-ud5a5t" viewBox="0 0 1000 1000" overflow="inherit">
         <path transform="scale(1,-1)" d="M0 -39c0 68 73 172 200 172c66 0 114 -37 114 -95c0 -84 -106 -171 -218 -171c-64 0 -96 30 -96 94z" />
      </symbol>
   </defs>
   <style type="text/css">g.page-margin{font-family:Times;} g.ending, g.fing, g.reh, g.tempo{font-weight:bold;} g.dir, g.dynam, g.mNum{font-style:italic;} g.label{font-weight:normal;}</style>
   <svg class="definition-scale" color="black" viewBox="0 0 21000 29700">
      <g class="page-margin" transform="translate(500, 500)">
         <g id="m1wu1fjp" class="mdiv pageMilestone" />
         <g id="s1juyrq6" class="score pageMilestone" />
         <g id="s70g90a" class="system">
            <g id="lc9o7w4" class="label">
               <text x="1105" y="1535" text-anchor="end" font-size="0px">
                  <tspan id="t44g8qu" class="text">
                     <tspan font-size="405px" class="text">Piano</tspan>
                  </tspan>
               </text>
            </g>
            <g id="s8gbwfv" class="section systemMilestone" />
            <g id="p1qwj443" class="pb" />
            <g id="m6qbvol" class="measure">
               <g id="sgd5rz7" class="staff">
                  <path d="M1285 1085 L4872 1085" stroke="currentColor" stroke-width="13" />
                  <path d="M1285 1265 L4872 1265" stroke="currentColor" stroke-width="13" />
                  <path d="M1285 1445 L4872 1445" stroke="currentColor" stroke-width="13" />
                  <path d="M1285 1625 L4872 1625" stroke="currentColor" stroke-width="13" />
                  <path d="M1285 1805 L4872 1805" stroke="currentColor" stroke-width="13" />
                  <g id="cnrmgwg" class="clef">
                     <use xlink:href="#E050-ud5a5t" x="1375" y="1625" height="720px" width="720px" />
                  </g>
                  <g id="k1macfy0" class="keySig" />
                  <g id="m1oe3uxr" class="meterSig">
                     <use xlink:href="#E082-ud5a5t" x="2006" y="1265" height="720px" width="720px" />
                     <use xlink:href="#E084-ud5a5t" x="2011" y="1625" height="720px" width="720px" />
                  </g>
                  <g id="l1hkmbjc" class="layer">
                     <g id="b1gzn4aa" class="beam">
                        <polygon points="2581,1985 3475,1985 3475,1895 2581,1895" />
                        <polygon points="3116,1850 3475,1850 3475,1760 3116,1760" />
                        <g id="n1g7wbg8" class="note">
                           <g class="notehead">
                              <use xlink:href="#E0A4-ud5a5t" x="2581" y="1355" height="720px" width="720px" />
                           </g>
                           <g id="s1ulbrww" class="stem">
                              <rect x="2581" y="1383" height="584" width="18" />
                           </g>
                        </g>
                        <g id="n15l2un5" class="note">
                           <g class="notehead">
                              <use xlink:href="#E0A4-ud5a5t" x="3107" y="1265" height="720px" width="720px" />
                           </g>
                           <g id="snolskv" class="stem">
                              <rect x="3107" y="1293" height="674" width="18" />
                           </g>
                        </g>
                        <g id="nt0qgv1" class="note">
                           <g class="notehead">
                              <use xlink:href="#E0A4-ud5a5t" x="3457" y="1355" height="720px" width="720px" />
                           </g>
                           <g id="s1nu7nzd" class="stem">
                              <rect x="3457" y="1383" height="584" width="18" />
                           </g>
                        </g>
                     </g>
                     <g id="bm8mgdd" class="beam">
                        <polygon points="4016,860 4559,905 4559,995 4016,950" />
                        <g id="n1dvabzs" class="note">
                           <g class="notehead">
                              <use xlink:href="#E0A4-ud5a5t" x="3808" y="1445" height="720px" width="720px" />
                           </g>
                           <g id="s1qpw2wy" class="stem">
                              <rect x="4016" y="878" height="539" width="18" />
                           </g>
                        </g>
                        <g id="n1wxg5cj" class="note">
                           <g class="notehead">
                              <use xlink:href="#E0A4-ud5a5t" x="4333" y="1535" height="720px" width="720px" />
                           </g>
                           <g id="s18jlelr" class="stem">
                              <rect x="4541" y="923" height="584" width="18" />
                           </g>
                        </g>
                     </g>
                  </g>
               </g>
               <g id="b1btmg9t" class="barLine">
                  <path d="M4859 1085 L4859 1805" stroke="currentColor" stroke-width="27" />
               </g>
            </g>
            <g id="m1hxrvf" class="measure">
               <g id="ssg1ey2" class="staff">
                  <path d="M4872 1085 L7520 1085" stroke="currentColor" stroke-width="13" />
                  <path d="M4872 1265 L7520 1265" stroke="currentColor" stroke-width="13" />
                  <path d="M4872 1445 L7520 1445" stroke="currentColor" stroke-width="13" />
                  <path d="M4872 1625 L7520 1625" stroke="currentColor" stroke-width="13" />
                  <path d="M4872 1805 L7520 1805" stroke="currentColor" stroke-width="13" />
                  <g id="l14hylzc" class="layer">
                     <g id="bv7u2uc" class="beam">
                        <polygon points="5054,1895 5598,1940 5598,1850 5054,1805" />
                        <g id="n16av4sv" class="note">
                           <g class="notehead">
                              <use xlink:href="#E0A4-ud5a5t" x="5054" y="1175" height="720px" width="720px" />
                           </g>
                           <g id="sclutf6" class="stem">
                              <rect x="5054" y="1203" height="674" width="18" />
                           </g>
                        </g>
                        <g id="nuhomdf" class="note">
                           <g class="notehead">
                              <use xlink:href="#E0A4-ud5a5t" x="5580" y="1265" height="720px" width="720px" />
                           </g>
                           <g id="s1jeovm0" class="stem">
                              <rect x="5580" y="1293" height="629" width="18" />
                           </g>
                        </g>
                     </g>
                     <g id="b39mf11" class="beam">
                        <polygon points="6105,1895 7175,1940 7175,1850 6105,1805" />
                        <polygon points="6105,1760 6465,1776 6465,1686 6105,1670" />
                        <polygon points="6465,1776 6815,1790 6815,1700 6465,1686" />
                        <polygon points="6815,1790 7175,1805 7175,1715 6815,1700" />
                        <g id="nkjoaj6" class="note">
                           <g class="notehead">
                              <use xlink:href="#E0A4-ud5a5t" x="6105" y="1175" height="720px" width="720px" />
                           </g>
                           <g id="s1bte3cs" class="stem">
                              <rect x="6105" y="1203" height="674" width="18" />
                           </g>
                        </g>
                        <g id="n6hmcoh" class="note">
                           <g class="notehead">
                              <use xlink:href="#E0A4-ud5a5t" x="6456" y="1085" height="720px" width="720px" />
                           </g>
                           <g id="s1cutg9a" class="stem">
                              <rect x="6456" y="1113" height="780" width="18" />
                           </g>
                        </g>
                        <g id="ndaacy" class="note">
                           <g class="notehead">
                              <use xlink:href="#E0A4-ud5a5t" x="6806" y="1175" height="720px" width="720px" />
                           </g>
                           <g id="s18yim37" class="stem">
                              <rect x="6806" y="1203" height="704" width="18" />
                           </g>
                        </g>
                        <g id="nj8qwnu" class="note">
                           <g class="notehead">
                              <use xlink:href="#E0A4-ud5a5t" x="7157" y="1265" height="720px" width="720px" />
                           </g>
                           <g id="s1h7b6yb" class="stem">
                              <rect x="7157" y="1293" height="629" width="18" />
                           </g>
                        </g>
                     </g>
                  </g>
               </g>
               <g id="bbe1ig5" class="barLine">
                  <path d="M7507 1085 L7507 1805" stroke="currentColor" stroke-width="27" />
               </g>
            </g>
            <g id="m1px8t7b" class="measure">
               <g id="s14xs4xq" class="staff">
                  <path d="M7520 1085 L9993 1085" stroke="currentColor" stroke-width="13" />
                  <path d="M7520 1265 L9993 1265" stroke="currentColor" stroke-width="13" />
                  <path d="M7520 1445 L9993 1445" stroke="currentColor" stroke-width="13" />
                  <path d="M7520 1625 L9993 1625" stroke="currentColor" stroke-width="13" />
                  <path d="M7520 1805 L9993 1805" stroke="currentColor" stroke-width="13" />
                  <g id="l1byx20o" class="layer">
                     <g id="b1be4v5r" class="beam">
                        <polygon points="7702,1985 8596,1985 8596,1895 7702,1895" />
                        <polygon points="8237,1850 8596,1850 8596,1760 8237,1760" />
                        <g id="n1vp1avv" class="note">
                           <g class="notehead">
                              <use xlink:href="#E0A4-ud5a5t" x="7702" y="1355" height="720px" width="720px" />
                           </g>
                           <g id="seyrylz" class="stem">
                              <rect x="7702" y="1383" height="584" width="18" />
                           </g>
                        </g>
                        <g id="n1kyx1jg" class="note">
                           <g class="notehead">
                              <use xlink:href="#E0A4-ud5a5t" x="8228" y="1265" height="720px" width="720px" />
                           </g>
                           <g id="s1g7fn8n" class="stem">
                              <rect x="8228" y="1293" height="674" width="18" />
                           </g>
                        </g>
                        <g id="n1lkr6u1" class="note">
                           <g class="notehead">
                              <use xlink:href="#E0A4-ud5a5t" x="8578" y="1355" height="720px" width="720px" />
                           </g>
                           <g id="s6k4pvj" class="stem">
                              <rect x="8578" y="1383" height="584" width="18" />
                           </g>
                        </g>
                     </g>
                     <g id="bx6pjku" class="beam">
                        <polygon points="9137,860 9680,905 9680,995 9137,950" />
                        <g id="n18jgfn4" class="note">
                           <g class="notehead">
                              <use xlink:href="#E0A4-ud5a5t" x="8929" y="1445" height="720px" width="720px" />
                           </g>
                           <g id="s1rz7ogo" class="stem">
                              <rect x="9137" y="878" height="539" width="18" />
                           </g>
                        </g>
                        <g id="n6t1lxu" class="note">
                           <g class="notehead">
                              <use xlink:href="#E0A4-ud5a5t" x="9454" y="1535" height="720px" width="720px" />
                           </g>
                           <g id="s1afud44" class="stem">
                              <rect x="9662" y="923" height="584" width="18" />
                           </g>
                        </g>
                     </g>
                  </g>
               </g>
               <g id="b17m53zz" class="barLine">
                  <path d="M9980 1085 L9980 1805" stroke="currentColor" stroke-width="27" />
               </g>
            </g>
            <g id="m1psnwas" class="measure">
               <g id="spi3iqx" class="staff">
                  <path d="M9993 1085 L12410 1085" stroke="currentColor" stroke-width="13" />
                  <path d="M9993 1265 L12410 1265" stroke="currentColor" stroke-width="13" />
                  <path d="M9993 1445 L12410 1445" stroke="currentColor" stroke-width="13" />
                  <path d="M9993 1625 L12410 1625" stroke="currentColor" stroke-width="13" />
                  <path d="M9993 1805 L12410 1805" stroke="currentColor" stroke-width="13" />
                  <g id="lelbzza" class="layer">
                     <g id="bf6t5bu" class="beam">
                        <polygon points="10175,1895 10719,1940 10719,1850 10175,1805" />
                        <g id="nq97w6u" class="note">
                           <g class="notehead">
                              <use xlink:href="#E0A4-ud5a5t" x="10175" y="1175" height="720px" width="720px" />
                           </g>
                           <g id="spi9agm" class="stem">
                              <rect x="10175" y="1203" height="674" width="18" />
                           </g>
                        </g>
                        <g id="nsipwi6" class="note">
                           <g class="notehead">
                              <use xlink:href="#E0A4-ud5a5t" x="10701" y="1265" height="720px" width="720px" />
                           </g>
                           <g id="s1yvd0vw" class="stem">
                              <rect x="10701" y="1293" height="629" width="18" />
                           </g>
                        </g>
                     </g>
                     <g id="n1it47fb" class="note">
                        <g class="notehead">
                           <use xlink:href="#E0A4-ud5a5t" x="11226" y="1175" height="720px" width="720px" />
                        </g>
                        <g id="spq1izd" class="stem">
                           <rect x="11226" y="1203" height="602" width="18" />
                        </g>
                     </g>
                  </g>
               </g>
               <g id="b1vxtfdl" class="barLine">
                  <path d="M12032 1085 L12032 1805" stroke="currentColor" stroke-width="27" />
                  <path d="M12162 1085 L12162 1805" stroke="currentColor" stroke-width="90" />
                  <path d="M12293 1085 L12293 1805" stroke="currentColor" stroke-width="27" />
                  <use xlink:href="#E044-ud5a5t" x="12338" y="1355" height="720px" width="720px" />
                  <use xlink:href="#E044-ud5a5t" x="12338" y="1535" height="720px" width="720px" />
                  <use xlink:href="#E044-ud5a5t" x="11915" y="1355" height="720px" width="720px" />
                  <use xlink:href="#E044-ud5a5t" x="11915" y="1535" height="720px" width="720px" />
               </g>
            </g>
            <g id="mvg92dh" class="measure">
               <g id="s1dgv2np" class="staff">
                  <path d="M12410 1085 L14883 1085" stroke="currentColor" stroke-width="13" />
                  <path d="M12410 1265 L14883 1265" stroke="currentColor" stroke-width="13" />
                  <path d="M12410 1445 L14883 1445" stroke="currentColor" stroke-width="13" />
                  <path d="M12410 1625 L14883 1625" stroke="currentColor" stroke-width="13" />
                  <path d="M12410 1805 L14883 1805" stroke="currentColor" stroke-width="13" />
                  <g id="l1ocsste" class="layer">
                     <g id="bsxaioy" class="beam">
                        <polygon points="12592,1985 13486,1985 13486,1895 12592,1895" />
                        <polygon points="13127,1850 13486,1850 13486,1760 13127,1760" />
                        <g id="n1orvbmv" class="note">
                           <g class="notehead">
                              <use xlink:href="#E0A4-ud5a5t" x="12592" y="1355" height="720px" width="720px" />
                           </g>
                           <g id="s11s4ptj" class="stem">
                              <rect x="12592" y="1383" height="584" width="18" />
                           </g>
                        </g>
                        <g id="nj3kfhy" class="note">
                           <g class="notehead">
                              <use xlink:href="#E0A4-ud5a5t" x="13118" y="1265" height="720px" width="720px" />
                           </g>
                           <g id="sjtbemp" class="stem">
                              <rect x="13118" y="1293" height="674" width="18" />
                           </g>
                        </g>
                        <g id="nd6dxt" class="note">
                           <g class="notehead">
                              <use xlink:href="#E0A4-ud5a5t" x="13468" y="1355" height="720px" width="720px" />
                           </g>
                           <g id="s9vbyt2" class="stem">
                              <rect x="13468" y="1383" height="584" width="18" />
                           </g>
                        </g>
                     </g>
                     <g id="b1dddv6k" class="beam">
                        <polygon points="14027,860 14570,905 14570,995 14027,950" />
                        <g id="n19annzn" class="note">
                           <g class="notehead">
                              <use xlink:href="#E0A4-ud5a5t" x="13819" y="1445" height="720px" width="720px" />
                           </g>
                           <g id="s9kfxaq" class="stem">
                              <rect x="14027" y="878" height="539" width="18" />
                           </g>
                        </g>
                        <g id="nzdpfko" class="note">
                           <g class="notehead">
                              <use xlink:href="#E0A4-ud5a5t" x="14344" y="1535" height="720px" width="720px" />
                           </g>
                           <g id="s1ij8gon" class="stem">
                              <rect x="14552" y="923" height="584" width="18" />
                           </g>
                        </g>
                     </g>
                  </g>
               </g>
               <g id="b1skivzu" class="barLine">
                  <path d="M14870 1085 L14870 1805" stroke="currentColor" stroke-width="27" />
               </g>
            </g>
            <g id="m1mfi0ku" class="measure">
               <g id="ss18ezr" class="staff">
                  <path d="M14883 1085 L17531 1085" stroke="currentColor" stroke-width="13" />
                  <path d="M14883 1265 L17531 1265" stroke="currentColor" stroke-width="13" />
                  <path d="M14883 1445 L17531 1445" stroke="currentColor" stroke-width="13" />
                  <path d="M14883 1625 L17531 1625" stroke="currentColor" stroke-width="13" />
                  <path d="M14883 1805 L17531 1805" stroke="currentColor" stroke-width="13" />
                  <g id="lql47d8" class="layer">
                     <g id="bsloztw" class="beam">
                        <polygon points="15273,770 15817,815 15817,905 15273,860" />
                        <g id="ngpyvzw" class="note">
                           <g class="notehead">
                              <use xlink:href="#E0A4-ud5a5t" x="15065" y="1355" height="720px" width="720px" />
                           </g>
                           <g id="s1f9y52o" class="stem">
                              <rect x="15273" y="788" height="539" width="18" />
                           </g>
                        </g>
                        <g id="nbidgfa" class="note">
                           <g class="notehead">
                              <use xlink:href="#E0A4-ud5a5t" x="15591" y="1535" height="720px" width="720px" />
                           </g>
                           <g id="s11vm95q" class="stem">
                              <rect x="15799" y="833" height="674" width="18" />
                           </g>
                        </g>
                     </g>
                     <g id="b150cod9" class="beam">
                        <polygon points="16324,770 17394,770 17394,860 16324,860" />
                        <polygon points="16324,905 16684,905 16684,995 16324,995" />
                        <polygon points="16684,905 17034,905 17034,995 16684,995" />
                        <polygon points="17034,905 17394,905 17394,995 17034,995" />
                        <g id="n12nbv3" class="note">
                           <g class="notehead">
                              <use xlink:href="#E0A4-ud5a5t" x="16116" y="1625" height="720px" width="720px" />
                           </g>
                           <g id="sxcxhr6" class="stem">
                              <rect x="16324" y="788" height="809" width="18" />
                           </g>
                        </g>
                        <g id="ne083hv" class="note">
                           <g class="notehead">
                              <use xlink:href="#E0A4-ud5a5t" x="16467" y="1535" height="720px" width="720px" />
                           </g>
                           <g id="srmzl2f" class="stem">
                              <rect x="16675" y="788" height="719" width="18" />
                           </g>
                        </g>
                        <g id="nyo186n" class="note">
                           <g class="notehead">
                              <use xlink:href="#E0A4-ud5a5t" x="16817" y="1355" height="720px" width="720px" />
                           </g>
                           <g id="s7uanem" class="stem">
                              <rect x="17025" y="788" height="539" width="18" />
                           </g>
                        </g>
                        <g id="nt4f1ze" class="note">
                           <g class="notehead">
                              <use xlink:href="#E0A4-ud5a5t" x="17168" y="1535" height="720px" width="720px" />
                           </g>
                           <g id="s1h2rz0d" class="stem">
                              <rect x="17376" y="788" height="719" width="18" />
                           </g>
                        </g>
                     </g>
                  </g>
               </g>
               <g id="b1v37rco" class="barLine">
                  <path d="M17518 1085 L17518 1805" stroke="currentColor" stroke-width="27" />
               </g>
            </g>
            <g id="m107o4v4" class="measure">
               <g id="sgjn6e4" class="staff">
                  <path d="M17531 1085 L20004 1085" stroke="currentColor" stroke-width="13" />
                  <path d="M17531 1265 L20004 1265" stroke="currentColor" stroke-width="13" />
                  <path d="M17531 1445 L20004 1445" stroke="currentColor" stroke-width="13" />
                  <path d="M17531 1625 L20004 1625" stroke="currentColor" stroke-width="13" />
                  <path d="M17531 1805 L20004 1805" stroke="currentColor" stroke-width="13" />
                  <g id="lclcsp5" class="layer">
                     <g id="bf11xzf" class="beam">
                        <polygon points="17713,1985 18607,1985 18607,1895 17713,1895" />
                        <polygon points="18248,1850 18607,1850 18607,1760 18248,1760" />
                        <g id="n2kr8eq" class="note">
                           <g class="notehead">
                              <use xlink:href="#E0A4-ud5a5t" x="17713" y="1355" height="720px" width="720px" />
                           </g>
                           <g id="s11vx6ne" class="stem">
                              <rect x="17713" y="1383" height="584" width="18" />
                           </g>
                        </g>
                        <g id="nuo965x" class="note">
                           <g class="notehead">
                              <use xlink:href="#E0A4-ud5a5t" x="18239" y="1265" height="720px" width="720px" />
                           </g>
                           <g id="smealz9" class="stem">
                              <rect x="18239" y="1293" height="674" width="18" />
                           </g>
                        </g>
                        <g id="n1mfdtg0" class="note">
                           <g class="notehead">
                              <use xlink:href="#E0A4-ud5a5t" x="18589" y="1355" height="720px" width="720px" />
                           </g>
                           <g id="s1xlg2bx" class="stem">
                              <rect x="18589" y="1383" height="584" width="18" />
                           </g>
                        </g>
                     </g>
                     <g id="b131feib" class="beam">
                        <polygon points="19148,860 19691,905 19691,995 19148,950" />
                        <g id="n7vz6so" class="note">
                           <g class="notehead">
                              <use xlink:href="#E0A4-ud5a5t" x="18940" y="1445" height="720px" width="720px" />
                           </g>
                           <g id="s1wxse1b" class="stem">
                              <rect x="19148" y="878" height="539" width="18" />
                           </g>
                        </g>
                        <g id="n1yab46w" class="note">
                           <g class="notehead">
                              <use xlink:href="#E0A4-ud5a5t" x="19465" y="1535" height="720px" width="720px" />
                           </g>
                           <g id="s8awo42" class="stem">
                              <rect x="19673" y="923" height="584" width="18" />
                           </g>
                        </g>
                     </g>
                  </g>
               </g>
               <g id="b1xxgjbf" class="barLine">
                  <path d="M19991 1085 L19991 1805" stroke="currentColor" stroke-width="27" />
               </g>
            </g>
            <g id="s1is6z9f" class="sb" />
         </g>
         <g id="s1fvhmwf" class="system">
            <g id="l1koaepf" class="labelAbbr">
               <text x="914" y="3884" text-anchor="end" font-size="0px">
                  <tspan id="t11v1t54" class="text">
                     <tspan font-size="405px" class="text">Pno.</tspan>
                  </tspan>
               </text>
            </g>
            <g id="m61ifu4" class="measure">
               <g id="m1emyg3u" class="mNum autogenerated">
                  <text x="1094" y="3191" text-anchor="middle" font-size="0px">
                     <tspan id="t1o53330" class="text">
                        <tspan font-size="324px" class="text">8</tspan>
                     </tspan>
                  </text>
               </g>
               <g id="s1v4gnwx" class="staff">
                  <path d="M1094 3434 L3932 3434" stroke="currentColor" stroke-width="13" />
                  <path d="M1094 3614 L3932 3614" stroke="currentColor" stroke-width="13" />
                  <path d="M1094 3794 L3932 3794" stroke="currentColor" stroke-width="13" />
                  <path d="M1094 3974 L3932 3974" stroke="currentColor" stroke-width="13" />
                  <path d="M1094 4154 L3932 4154" stroke="currentColor" stroke-width="13" />
                  <g id="c1mck4nu" class="clef">
                     <use xlink:href="#E050-ud5a5t" x="1184" y="3974" height="720px" width="720px" />
                  </g>
                  <g id="kjqqlnz" class="keySig" />
                  <g id="l1wyj5ij" class="layer">
                     <g id="b179dccb" class="beam">
                        <polygon points="1919,4334 2457,4379 2457,4289 1919,4244" />
                        <g id="n1i7vq0w" class="note">
                           <g class="notehead">
                              <use xlink:href="#E0A4-ud5a5t" x="1919" y="3704" height="720px" width="720px" />
                           </g>
                           <g id="srgn5jx" class="stem">
                              <rect x="1919" y="3732" height="584" width="18" />
                           </g>
                        </g>
                        <g id="nu8ruwx" class="note">
                           <g class="notehead">
                              <use xlink:href="#E0A4-ud5a5t" x="2439" y="3794" height="720px" width="720px" />
                           </g>
                           <g id="s12k9srt" class="stem">
                              <rect x="2439" y="3822" height="539" width="18" />
                           </g>
                        </g>
                     </g>
                     <g id="nz5lwhh" class="note">
                        <g class="notehead">
                           <use xlink:href="#E0A4-ud5a5t" x="2959" y="3884" height="720px" width="720px" />
                        </g>
                        <g id="su6572s" class="stem">
                           <rect x="3167" y="3254" height="602" width="18" />
                        </g>
                     </g>
                  </g>
               </g>
               <g id="b1sw0e42" class="barLine">
                  <path d="M3757 3434 L3757 4154" stroke="currentColor" stroke-width="27" />
                  <path d="M3887 3434 L3887 4154" stroke="currentColor" stroke-width="90" />
               </g>
            </g>
            <g id="sw295kd" class="systemMilestoneEnd s8gbwfv" />
         </g>
         <g id="ptrq7uc" class="pageMilestoneEnd s1juyrq6" />
         <g id="p1imfgr" class="pageMilestoneEnd m1wu1fjp" />
         <g id="p1ppbnmp" class="pgHead">
            <text x="0" y="0" font-size="0px">
               <tspan id="ruu30v9" class="rend" x="10000" y="277" text-anchor="middle">
                  <tspan id="t4ueqe7" class="text">
                     <tspan font-size="405px" class="text">Air n 141</tspan>
                  </tspan>
               </tspan>
            </text>
         </g>
         <g id="pful8o8" class="pgFoot autogenerated">
            <g id="f1lu5yzc" class="fig">
               <g id="su86d2g" class="svg" transform="translate(7750, 28099) scale(10, 10)">
                  <g>
                     <path fill="#00000" d="M 17.11278,49.26451 V 10.367554 h 12.696511 c 3.288815,7.336676 6.71267,14.610456 10.127281,21.888976 3.419998,-7.484684 6.255515,-14.204887 9.58887,-21.909915 2.436207,0.103726 4.316952,0.08453 6.484294,-0.05808 V 49.264423 H 50.274275 C 50.145222,38.35639 50.016136,27.448368 49.887066,16.540329 45.003488,27.315459 39.967448,38.433564 35.083854,49.208695 34.678996,49.343717 34.426583,49.135619 34.021726,49.270644 29.46588,39.330716 24.910049,29.390805 20.354201,19.450876 20.224341,29.388756 20.09461,39.326619 19.964815,49.264497 H 17.11278 Z M 36.754144,39.324695 C 32.721221,30.512695 28.6883,21.700679 24.655394,12.888662 22.530527,12.750737 22.656775,12.71031 20.714356,12.813974 v 0.966497 c 4.612938,9.99784 9.609439,20.748709 13.87298,30.081745 0.722248,-1.512523 1.444528,-3.025014 2.166808,-4.537521 z m 25.738417,9.939815 c 0,-12.965651 0,-25.931305 0,-38.896956 10.084388,0 20.168791,0 30.253178,0 0,0.960416 0,1.920849 0,2.881265 -6.482825,0 -12.965652,0 -19.448478,0 0,4.802097 0,9.604178 0,14.406277 5.52241,0 11.044819,0 16.567229,0 0,0.960415 0,1.920832 0,2.881248 -5.52241,0 -11.044819,0 -16.567229,0 0,5.282306 0,10.564611 0,15.846917 6.963035,0 13.926068,0 20.889103,0 0,0.960416 0,1.920832 0,2.881249 -10.564597,0 -21.129207,0 -31.693803,0 z m 4.321874,-2.160937 c 0,-11.765131 0,-23.530263 0,-35.295394 -0.720312,0 -1.440625,0 -2.160937,0 0,11.765131 0,23.530263 0,35.295394 0.720312,0 1.440625,0 2.160937,0 z m 32.41413,2.160937 c 0,-12.965651 0,-25.931305 0,-38.896956 2.401045,0 4.802095,0 7.203135,0 0,12.965651 0,25.931305 0,38.896956 -2.40104,0 -4.80209,0 -7.203135,0 z m 2.881265,-2.160937 c 0,-11.765131 0,-23.530263 0,-35.295394 -0.72031,0 -1.44064,0 -2.160953,0 0,11.765131 0,23.530263 0,35.295394 0.720313,0 1.440643,0 2.160953,0 z" />
                     <path fill="#00000" d="m 346.3,6.7 c -3.1,0.5 -4.9,4.4 -2.7,6.8 1.2,1.4 2.7,2.4 4.1,3.5 -2.4,5.3 -7.7,8.3 -11.9,12.1 -3.7,2.8 -7,6.2 -9.7,9.9 -2.2,-0.8 -0.3,-6.8 -0.6,-9.5 0.1,-3.1 0.7,-6.4 2.9,-8.7 1.3,-1.9 3,-3.5 4.5,-5.2 1.2,-3.4 -3.2,-4.9 -5.8,-4.6 -7.3,-0.5 -14.6,2 -20,6.8 -5,4.6 -10,10.1 -11.5,17 -0.9,3.5 -0.2,7.5 2.8,9.9 2.5,2.8 7.4,2.9 9.8,-0.2 1.7,-2.3 3.2,-4.8 3.8,-7.6 -0.1,-2.6 -4.4,-2.3 -4.3,0.2 1.2,2.4 -0.9,4.7 -2.7,6.2 -1.7,0.9 -4.7,0.7 -4.8,-1.7 -1,-5.8 2.1,-11.3 5.2,-16.1 4,-5.8 9.8,-11.2 17.2,-11.8 1.6,0 8.1,-1.2 6.8,1.4 -2.8,2.8 -5.6,6.1 -6,10.3 -1.6,7.7 0.1,15.7 -2.3,23.2 -1.1,3.9 2,2.6 2.5,0.2 3.3,-7.4 8.9,-13.4 15.1,-18.5 4.2,-3.9 9.5,-7.1 11.9,-12.6 1.3,-3.6 1.2,-9 -2.7,-10.9 -0.6,-0.2 -1.2,-0.3 -1.8,-0.3 z m 66,14.5 c -2,0.8 -1.8,4.9 0.8,4.4 3.4,0.4 2.9,-6.2 -0.8,-4.4 z m 0.6,7.3 c -1.3,0.5 -7.6,0.5 -5.4,2.2 4,-0.3 0.7,4.5 0.6,6.7 -0.4,2.9 -2.4,5.9 -1.2,8.8 2.7,1.7 5.6,-0.8 6.8,-3.2 1.6,-1.4 -0.5,-3 -1.2,-0.9 -0.4,0.8 -2.4,3.5 -2.6,1.8 1.1,-5 2.7,-9.9 3.9,-14.9 l -0.1,-0.5 h -0.9 z m -65.1,0.2 c -6.5,1.6 -10.5,9.5 -8.2,15.7 2.1,3.4 7.4,2.9 10.1,0.4 2,-0.2 3.6,-5.3 1,-3.4 -1.4,2 -4,4.2 -6.5,2.8 -2.2,-1.9 -1.9,-5.7 1.7,-5.3 3.1,-0.9 6.9,-2.1 8.1,-5.5 0.9,-2.7 -1.6,-5.2 -4.3,-4.8 h -1.1 -0.7 z m 13.6,0 c -2.2,0 -8.5,1.8 -2.9,2.3 0.9,1.9 -1,4.9 -1.1,7.2 -0.5,2.9 -1.4,5.7 -1.7,8.7 3.7,0.7 3.8,-2.6 4.4,-5.3 0.9,-3.3 1.6,-7 4.1,-9.5 2.4,1.6 6.8,-0.7 3.7,-3.4 -2.9,-0.5 -4.8,2.4 -6.2,4.3 0,-1.2 2.4,-5 -0.2,-4.3 z m 15.8,0 c -6.4,1.3 -9.6,9.1 -7.7,14.9 1.9,4 7.7,3.9 11,1.7 4.1,-3 6,-8.9 4.4,-13.7 -1.3,-3 -4.8,-3.2 -7.6,-3 z m 17,0 c -2.3,0 -8.8,1.9 -3,2.4 0.4,2.5 -1,5.7 -1.4,8.4 -0.7,2.4 -1.8,7.5 2.1,7.2 3.8,-0.1 6.5,-3.5 8.5,-6.3 2,-3.2 4.5,-7 3.3,-10.9 -3.7,-3 -3.6,2.6 -3.1,5.1 -0.7,3.8 -2.7,7.9 -6.2,9.8 -3.6,0.6 -1,-4.3 -0.8,-6.1 0.6,-3.2 1.6,-6.3 1.9,-9.5 -0.4,0 -0.8,0 -1.1,0 z m 30.6,0 c -6.3,1.2 -9.5,8.9 -7.8,14.7 1.5,4 7.2,4.2 10.5,2.4 4.6,-2.8 6.6,-9.3 4.8,-14.3 -1.4,-2.8 -4.8,-3 -7.5,-2.8 z m -75.4,1.7 c 2.1,1.5 0.2,4.7 -1.6,5.7 -1.1,0.4 -5.5,3.4 -4.6,0.7 0.8,-2.7 2.2,-6.2 5.3,-6.6 l 0.9,0.1 z m 30.8,0 c 2.6,1.5 1.3,5.2 0.8,7.6 -0.8,2.7 -1.9,5.9 -4.7,7.1 -5.1,0.8 -4,-5.8 -2.8,-8.8 1,-2.8 3,-6.8 6.7,-5.8 z m 47.1,-0.1 c 2.9,0.7 2,4.7 1.5,6.8 -0.7,3 -1.8,6.7 -5,8 -4.7,0.8 -4,-5.1 -3,-7.9 0.9,-3 2.7,-7.3 6.5,-6.8 z m -88.1,5.9 c -0.3,1.3 0.9,-0.6 0,0 z m -1.1,2.4 c -0.2,0.5 0.5,-0.1 0,0 z m -1.3,4.5 c -0.3,1.3 0.8,-0.2 0,0 z" />
                     <text y="41" x="201" fill="#00000" style="font-style:italic;font-weight:normal;font-size:30px;line-height:125%;font-family:Times;text-anchor:middle" xml:space="preserve">engraved with</text>
                  </g>
               </g>
            </g>
         </g>
      </g>
   </svg>
</svg>
