<?xml version="1.0" encoding="UTF-8" standalone="no"?>
<svg width="2100px" height="2970px" version="1.1" xmlns="http://www.w3.org/2000/svg" xmlns:xlink="http://www.w3.org/1999/xlink" xmlns:mei="http://www.music-encoding.org/ns/mei" overflow="visible">
   <desc>Engraved by Verovio 3.13.1</desc>
   <defs>
      <symbol id="E044-15jikf3" viewBox="0 0 1000 1000" overflow="inherit">
         <path transform="scale(1,-1)" d="M0 0c0 28 22 50 50 50s50 -22 50 -50s-22 -50 -50 -50s-50 22 -50 50z" />
      </symbol>
      <symbol id="E050-15jikf3" viewBox="0 0 1000 1000" overflow="inherit">
         <path transform="scale(1,-1)" d="M441 -245c-23 -4 -48 -6 -76 -6c-59 0 -102 7 -130 20c-88 42 -150 93 -187 154c-26 44 -43 103 -48 176c0 6 -1 13 -1 19c0 54 15 111 45 170c29 57 65 106 110 148s96 85 153 127c-3 16 -8 46 -13 92c-4 43 -5 73 -5 89c0 117 16 172 69 257c34 54 64 82 89 82 c21 0 43 -30 69 -92s39 -115 41 -159v-15c0 -109 -21 -162 -67 -241c-13 -20 -63 -90 -98 -118c-13 -9 -25 -19 -37 -29l31 -181c8 1 18 2 28 2c58 0 102 -12 133 -35c59 -43 92 -104 98 -184c1 -7 1 -15 1 -22c0 -123 -87 -209 -181 -248c8 -57 17 -110 25 -162 c5 -31 6 -58 6 -80c0 -30 -5 -53 -14 -70c-35 -64 -88 -99 -158 -103c-5 0 -11 -1 -16 -1c-37 0 -72 10 -108 27c-50 24 -77 59 -80 105v11c0 29 7 55 20 76c18 28 45 42 79 44h6c49 0 93 -42 97 -87v-9c0 -51 -34 -86 -105 -106c17 -24 51 -36 102 -36c62 0 116 43 140 85 c9 16 13 41 13 74c0 20 -1 42 -5 67c-8 53 -18 106 -26 159zM461 939c-95 0 -135 -175 -135 -286c0 -24 2 -48 5 -71c50 39 92 82 127 128c40 53 60 100 60 140v8c-4 53 -22 81 -55 81h-2zM406 119l54 -326c73 25 110 78 110 161c0 7 0 15 -1 23c-7 95 -57 142 -151 142h-12 zM382 117c-72 -2 -128 -47 -128 -120v-7c2 -46 43 -99 75 -115c-3 -2 -7 -5 -10 -10c-70 33 -116 88 -123 172v11c0 68 44 126 88 159c23 17 49 29 78 36l-29 170c-21 -13 -52 -37 -92 -73c-50 -44 -86 -84 -109 -119c-45 -69 -67 -130 -67 -182v-13c5 -68 35 -127 93 -176 s125 -73 203 -73c25 0 50 3 75 9c-19 111 -36 221 -54 331z" />
      </symbol>
      <symbol id="E081-15jikf3" viewBox="0 0 1000 1000" overflow="inherit">
         <path transform="scale(1,-1)" d="M68 -250v36c23 0 40 6 49 18c8 14 12 33 12 57v250l-82 -129l-27 13l107 255h128v-394c0 -24 5 -42 14 -53s25 -17 47 -17v-36h-248z" />
      </symbol>
      <symbol id="E082-15jikf3" viewBox="0 0 1000 1000" overflow="inherit">
         <path transform="scale(1,-1)" d="M124 -185c-18 0 -55 -14 -65 -65h-36l-3 30c0 25 6 45 18 63c11 19 22 30 39 43l121 82l37 29c15 11 27 29 38 54c12 24 18 47 18 70c0 40 -19 88 -94 88c-25 0 -32 0 -50 -8c-14 -5 -23 -12 -26 -22c3 -9 7 -15 10 -18l24 -17c12 -7 17 -11 27 -21c5 -7 7 -16 7 -27 c0 -12 0 -57 -79 -74c-30 0 -76 26 -76 94c0 66 81 135 197 135c72 0 181 -32 181 -150c0 -53 -32 -95 -113 -133l-91 -41c-26 -11 -45 -23 -57 -37l49 7c84 0 115 -41 148 -41c20 0 33 20 39 61h35c0 -152 -68 -168 -114 -168c-17 0 -65 0 -79 7h10l-28 17 c-49 37 -69 40 -87 42z" />
      </symbol>
      <symbol id="E084-15jikf3" viewBox="0 0 1000 1000" overflow="inherit">
         <path transform="scale(1,-1)" d="M20 -78c84 97 114 180 134 329h170c-13 -32 -82 -132 -99 -151l-84 -97c-33 -36 -59 -63 -80 -81h162v102l127 123v-225h57v-39h-57v-34c0 -43 19 -65 57 -65v-34h-244v36c48 0 60 26 60 70v27h-203v39z" />
      </symbol>
      <symbol id="E0A4-15jikf3" viewBox="0 0 1000 1000" overflow="inherit">
         <path transform="scale(1,-1)" d="M0 -39c0 68 73 172 200 172c66 0 114 -37 114 -95c0 -84 -106 -171 -218 -171c-64 0 -96 30 -96 94z" />
      </symbol>
   </defs>
   <style type="text/css">g.page-margin{font-family:Times;} g.ending, g.fing, g.reh, g.tempo{font-weight:bold;} g.dir, g.dynam, g.mNum{font-style:italic;} g.label{font-weight:normal;}</style>
   <svg class="definition-scale" color="black" viewBox="0 0 21000 29700">
      <g class="page-margin" transform="translate(500, 500)">
         <g id="mp0im25" class="mdiv pageMilestone" />
         <g id="s118hr9t" class="score pageMilestone" />
         <g id="s10z86vn" class="system">
            <g id="l7eps2m" class="label">
               <text x="1105" y="1535" text-anchor="end" font-size="0px">
                  <tspan id="t13sx9jn" class="text">
                     <tspan font-size="405px" class="text">Piano</tspan>
                  </tspan>
               </text>
            </g>
            <g id="stu5r2k" class="section systemMilestone" />
            <g id="prmvo4a" class="pb" />
            <g id="m1w5ys94" class="measure">
               <g id="mppjtzj" class="mNum">
                  <text x="1285" y="842" text-anchor="middle" font-size="0px" />
               </g>
               <g id="s3yzpq2" class="staff">
                  <path d="M1285 1085 L3675 1085" stroke="currentColor" stroke-width="13" />
                  <path d="M1285 1265 L3675 1265" stroke="currentColor" stroke-width="13" />
                  <path d="M1285 1445 L3675 1445" stroke="currentColor" stroke-width="13" />
                  <path d="M1285 1625 L3675 1625" stroke="currentColor" stroke-width="13" />
                  <path d="M1285 1805 L3675 1805" stroke="currentColor" stroke-width="13" />
                  <g id="c1ikvdvy" class="clef">
                     <use xlink:href="#E050-15jikf3" x="1375" y="1625" height="720px" width="720px" />
                  </g>
                  <g id="ktld5qq" class="keySig" />
                  <g id="mfyt0iy" class="meterSig">
                     <use xlink:href="#E082-15jikf3" x="2006" y="1265" height="720px" width="720px" />
                     <use xlink:href="#E084-15jikf3" x="2011" y="1625" height="720px" width="720px" />
                  </g>
                  <g id="l1sjrfzf" class="layer">
                     <g id="bgs9aop" class="beam">
                        <polygon points="2788,950 3347,860 3347,950 2788,1040" />
                        <g id="n1j47qgr" class="note">
                           <g class="notehead">
                              <use xlink:href="#E0A4-15jikf3" x="2580" y="1535" height="720px" width="720px" />
                           </g>
                           <g id="s1ya2ck9" class="stem">
                              <rect x="2788" y="968" height="539" width="18" />
                           </g>
                        </g>
                        <g id="n1blg1c4" class="note">
                           <g class="notehead">
                              <use xlink:href="#E0A4-15jikf3" x="3121" y="1445" height="720px" width="720px" />
                           </g>
                           <g id="s2978ot" class="stem">
                              <rect x="3329" y="878" height="539" width="18" />
                           </g>
                        </g>
                     </g>
                  </g>
               </g>
               <g id="bwygkn2" class="barLine">
                  <path d="M3662 1085 L3662 1805" stroke="currentColor" stroke-width="27" />
               </g>
            </g>
            <g id="m145w008" class="measure">
               <g id="s1xjxf7k" class="staff">
                  <path d="M3675 1085 L5780 1085" stroke="currentColor" stroke-width="13" />
                  <path d="M3675 1265 L5780 1265" stroke="currentColor" stroke-width="13" />
                  <path d="M3675 1445 L5780 1445" stroke="currentColor" stroke-width="13" />
                  <path d="M3675 1625 L5780 1625" stroke="currentColor" stroke-width="13" />
                  <path d="M3675 1805 L5780 1805" stroke="currentColor" stroke-width="13" />
                  <g id="l153jdu6" class="layer">
                     <g id="b149tp7q" class="beam">
                        <polygon points="4064,815 4623,995 4623,1085 4064,905" />
                        <g id="nq1qzoz" class="note">
                           <g class="notehead">
                              <use xlink:href="#E0A4-15jikf3" x="3856" y="1355" height="720px" width="720px" />
                           </g>
                           <g id="s1xyxrja" class="stem">
                              <rect x="4064" y="833" height="494" width="18" />
                           </g>
                        </g>
                        <g id="n1o1gj84" class="note">
                           <g class="notehead">
                              <use xlink:href="#E0A4-15jikf3" x="4397" y="1535" height="720px" width="720px" />
                           </g>
                           <g id="s1h4rt8l" class="stem">
                              <rect x="4605" y="1013" height="494" width="18" />
                           </g>
                        </g>
                     </g>
                     <g id="nrlmtha" class="note">
                        <g class="notehead">
                           <use xlink:href="#E0A4-15jikf3" x="4938" y="1625" height="720px" width="720px" />
                        </g>
                        <g id="s1ow9f4f" class="stem">
                           <rect x="5146" y="995" height="602" width="18" />
                        </g>
                     </g>
                  </g>
               </g>
               <g id="bew8sdn" class="barLine">
                  <path d="M5767 1085 L5767 1805" stroke="currentColor" stroke-width="27" />
               </g>
            </g>
            <g id="m1u6lnit" class="measure">
               <g id="siz873j" class="staff">
                  <path d="M5780 1085 L7885 1085" stroke="currentColor" stroke-width="13" />
                  <path d="M5780 1265 L7885 1265" stroke="currentColor" stroke-width="13" />
                  <path d="M5780 1445 L7885 1445" stroke="currentColor" stroke-width="13" />
                  <path d="M5780 1625 L7885 1625" stroke="currentColor" stroke-width="13" />
                  <path d="M5780 1805 L7885 1805" stroke="currentColor" stroke-width="13" />
                  <g id="l1h0fm4o" class="layer">
                     <g id="nsmcmml" class="note">
                        <g class="notehead">
                           <use xlink:href="#E0A4-15jikf3" x="5961" y="1535" height="720px" width="720px" />
                        </g>
                        <g id="sk8rvjh" class="stem">
                           <rect x="6169" y="905" height="602" width="18" />
                        </g>
                     </g>
                     <g id="bemdekm" class="beam">
                        <polygon points="6998,950 7557,860 7557,950 6998,1040" />
                        <g id="n9oo8g9" class="note">
                           <g class="notehead">
                              <use xlink:href="#E0A4-15jikf3" x="6790" y="1535" height="720px" width="720px" />
                           </g>
                           <g id="sw2raqp" class="stem">
                              <rect x="6998" y="968" height="539" width="18" />
                           </g>
                        </g>
                        <g id="n7v48nl" class="note">
                           <g class="notehead">
                              <use xlink:href="#E0A4-15jikf3" x="7331" y="1445" height="720px" width="720px" />
                           </g>
                           <g id="syzc4p7" class="stem">
                              <rect x="7539" y="878" height="539" width="18" />
                           </g>
                        </g>
                     </g>
                  </g>
               </g>
               <g id="b6kymwu" class="barLine">
                  <path d="M7872 1085 L7872 1805" stroke="currentColor" stroke-width="27" />
               </g>
            </g>
            <g id="mm125ld" class="measure">
               <g id="sdlr5nq" class="staff">
                  <path d="M7885 1085 L9990 1085" stroke="currentColor" stroke-width="13" />
                  <path d="M7885 1265 L9990 1265" stroke="currentColor" stroke-width="13" />
                  <path d="M7885 1445 L9990 1445" stroke="currentColor" stroke-width="13" />
                  <path d="M7885 1625 L9990 1625" stroke="currentColor" stroke-width="13" />
                  <path d="M7885 1805 L9990 1805" stroke="currentColor" stroke-width="13" />
                  <g id="lq8f4oc" class="layer">
                     <g id="b1pxj9hy" class="beam">
                        <polygon points="8274,815 8833,995 8833,1085 8274,905" />
                        <g id="nrfrffd" class="note">
                           <g class="notehead">
                              <use xlink:href="#E0A4-15jikf3" x="8066" y="1355" height="720px" width="720px" />
                           </g>
                           <g id="s1mip0yp" class="stem">
                              <rect x="8274" y="833" height="494" width="18" />
                           </g>
                        </g>
                        <g id="nrnqw7z" class="note">
                           <g class="notehead">
                              <use xlink:href="#E0A4-15jikf3" x="8607" y="1535" height="720px" width="720px" />
                           </g>
                           <g id="ssluvfh" class="stem">
                              <rect x="8815" y="1013" height="494" width="18" />
                           </g>
                        </g>
                     </g>
                     <g id="n1nzg0mz" class="note">
                        <g class="notehead">
                           <use xlink:href="#E0A4-15jikf3" x="9148" y="1625" height="720px" width="720px" />
                        </g>
                        <g id="s9lk4yz" class="stem">
                           <rect x="9356" y="995" height="602" width="18" />
                        </g>
                     </g>
                  </g>
               </g>
               <g id="b1bifa21" class="barLine">
                  <path d="M9977 1085 L9977 1805" stroke="currentColor" stroke-width="27" />
               </g>
            </g>
            <g id="m18knr6v" class="measure">
               <g id="s1eccfm4" class="staff">
                  <path d="M9990 1085 L11836 1085" stroke="currentColor" stroke-width="13" />
                  <path d="M9990 1265 L11836 1265" stroke="currentColor" stroke-width="13" />
                  <path d="M9990 1445 L11836 1445" stroke="currentColor" stroke-width="13" />
                  <path d="M9990 1625 L11836 1625" stroke="currentColor" stroke-width="13" />
                  <path d="M9990 1805 L11836 1805" stroke="currentColor" stroke-width="13" />
                  <g id="m1b13mdw" class="meterSig">
                     <use xlink:href="#E081-15jikf3" x="10099" y="1265" height="720px" width="720px" />
                     <use xlink:href="#E084-15jikf3" x="10066" y="1625" height="720px" width="720px" />
                  </g>
                  <g id="l19fvbud" class="layer">
                     <g id="n5nprsu" class="note">
                        <g class="notehead">
                           <use xlink:href="#E0A4-15jikf3" x="10629" y="1535" height="720px" width="720px" />
                        </g>
                        <g id="sqi0jg9" class="stem">
                           <rect x="10837" y="905" height="602" width="18" />
                        </g>
                     </g>
                  </g>
               </g>
               <g id="b18y0pg" class="barLine">
                  <path d="M11458 1085 L11458 1805" stroke="currentColor" stroke-width="27" />
                  <path d="M11588 1085 L11588 1805" stroke="currentColor" stroke-width="90" />
                  <path d="M11719 1085 L11719 1805" stroke="currentColor" stroke-width="27" />
                  <use xlink:href="#E044-15jikf3" x="11764" y="1355" height="720px" width="720px" />
                  <use xlink:href="#E044-15jikf3" x="11764" y="1535" height="720px" width="720px" />
                  <use xlink:href="#E044-15jikf3" x="11341" y="1355" height="720px" width="720px" />
                  <use xlink:href="#E044-15jikf3" x="11341" y="1535" height="720px" width="720px" />
               </g>
            </g>
            <g id="m1awsbi6" class="measure">
               <g id="s1ggfcil" class="staff">
                  <path d="M11836 1085 L13112 1085" stroke="currentColor" stroke-width="13" />
                  <path d="M11836 1265 L13112 1265" stroke="currentColor" stroke-width="13" />
                  <path d="M11836 1445 L13112 1445" stroke="currentColor" stroke-width="13" />
                  <path d="M11836 1625 L13112 1625" stroke="currentColor" stroke-width="13" />
                  <path d="M11836 1805 L13112 1805" stroke="currentColor" stroke-width="13" />
                  <g id="l1ud4it9" class="layer">
                     <g id="bm6plnj" class="beam">
                        <polygon points="12225,950 12784,860 12784,950 12225,1040" />
                        <g id="n1j7iwxa" class="note">
                           <g class="notehead">
                              <use xlink:href="#E0A4-15jikf3" x="12017" y="1535" height="720px" width="720px" />
                           </g>
                           <g id="sjrivmj" class="stem">
                              <rect x="12225" y="968" height="539" width="18" />
                           </g>
                        </g>
                        <g id="n60yu61" class="note">
                           <g class="notehead">
                              <use xlink:href="#E0A4-15jikf3" x="12558" y="1445" height="720px" width="720px" />
                           </g>
                           <g id="st37wmj" class="stem">
                              <rect x="12766" y="878" height="539" width="18" />
                           </g>
                        </g>
                     </g>
                  </g>
               </g>
               <g id="bim1u48" class="barLine">
                  <path d="M13099 1085 L13099 1805" stroke="currentColor" stroke-width="27" />
               </g>
            </g>
            <g id="mgzvion" class="measure">
               <g id="s1wvefzj" class="staff">
                  <path d="M13112 1085 L15434 1085" stroke="currentColor" stroke-width="13" />
                  <path d="M13112 1265 L15434 1265" stroke="currentColor" stroke-width="13" />
                  <path d="M13112 1445 L15434 1445" stroke="currentColor" stroke-width="13" />
                  <path d="M13112 1625 L15434 1625" stroke="currentColor" stroke-width="13" />
                  <path d="M13112 1805 L15434 1805" stroke="currentColor" stroke-width="13" />
                  <g id="m14uios5" class="meterSig">
                     <use xlink:href="#E082-15jikf3" x="13188" y="1265" height="720px" width="720px" />
                     <use xlink:href="#E084-15jikf3" x="13193" y="1625" height="720px" width="720px" />
                  </g>
                  <g id="l178ql06" class="layer">
                     <g id="ntwkmre" class="note">
                        <g class="notehead">
                           <use xlink:href="#E0A4-15jikf3" x="13762" y="1355" height="720px" width="720px" />
                        </g>
                        <g id="s5pe5n4" class="stem">
                           <rect x="13762" y="1383" height="602" width="18" />
                        </g>
                     </g>
                     <g id="nji1xic" class="note">
                        <g class="notehead">
                           <use xlink:href="#E0A4-15jikf3" x="14591" y="1265" height="720px" width="720px" />
                        </g>
                        <g id="s15r3qtf" class="stem">
                           <rect x="14591" y="1293" height="602" width="18" />
                        </g>
                     </g>
                  </g>
               </g>
               <g id="bkebriz" class="barLine">
                  <path d="M15421 1085 L15421 1805" stroke="currentColor" stroke-width="27" />
               </g>
            </g>
            <g id="m1lfql50" class="measure">
               <g id="s1ai6w15" class="staff">
                  <path d="M15434 1085 L17719 1085" stroke="currentColor" stroke-width="13" />
                  <path d="M15434 1265 L17719 1265" stroke="currentColor" stroke-width="13" />
                  <path d="M15434 1445 L17719 1445" stroke="currentColor" stroke-width="13" />
                  <path d="M15434 1625 L17719 1625" stroke="currentColor" stroke-width="13" />
                  <path d="M15434 1805 L17719 1805" stroke="currentColor" stroke-width="13" />
                  <g id="llk9wtc" class="layer">
                     <g id="n1pldplt" class="note">
                        <g class="notehead">
                           <use xlink:href="#E0A4-15jikf3" x="15615" y="1175" height="720px" width="720px" />
                        </g>
                        <g id="s13jqek7" class="stem">
                           <rect x="15615" y="1203" height="602" width="18" />
                        </g>
                     </g>
                     <g id="b1749wo4" class="beam">
                        <polygon points="16444,1850 17364,1850 17364,1760 16444,1760" />
                        <polygon points="16994,1715 17364,1715 17364,1625 16994,1625" />
                        <g id="n14r91xr" class="note">
                           <g class="notehead">
                              <use xlink:href="#E0A4-15jikf3" x="16444" y="1175" height="720px" width="720px" />
                           </g>
                           <g id="s1lkeurx" class="stem">
                              <rect x="16444" y="1203" height="629" width="18" />
                           </g>
                        </g>
                        <g id="ne1j1rj" class="note">
                           <g class="notehead">
                              <use xlink:href="#E0A4-15jikf3" x="16985" y="1265" height="720px" width="720px" />
                           </g>
                           <g id="s182s94" class="stem">
                              <rect x="16985" y="1293" height="539" width="18" />
                           </g>
                        </g>
                        <g id="n3jbuzq" class="note">
                           <g class="notehead">
                              <use xlink:href="#E0A4-15jikf3" x="17346" y="1175" height="720px" width="720px" />
                           </g>
                           <g id="svdo0q3" class="stem">
                              <rect x="17346" y="1203" height="629" width="18" />
                           </g>
                        </g>
                     </g>
                  </g>
               </g>
               <g id="beldn33" class="barLine">
                  <path d="M17706 1085 L17706 1805" stroke="currentColor" stroke-width="27" />
               </g>
            </g>
            <g id="m1y9gpft" class="measure">
               <g id="s1es46xe" class="staff">
                  <path d="M17719 1085 L20004 1085" stroke="currentColor" stroke-width="13" />
                  <path d="M17719 1265 L20004 1265" stroke="currentColor" stroke-width="13" />
                  <path d="M17719 1445 L20004 1445" stroke="currentColor" stroke-width="13" />
                  <path d="M17719 1625 L20004 1625" stroke="currentColor" stroke-width="13" />
                  <path d="M17719 1805 L20004 1805" stroke="currentColor" stroke-width="13" />
                  <g id="li6u2af" class="layer">
                     <g id="nd3qsaz" class="note">
                        <g class="notehead">
                           <use xlink:href="#E0A4-15jikf3" x="17900" y="1535" height="720px" width="720px" />
                        </g>
                        <g id="shyoodh" class="stem">
                           <rect x="18108" y="905" height="602" width="18" />
                        </g>
                     </g>
                     <g id="bxgcoyw" class="beam">
                        <polygon points="18937,860 19857,860 19857,950 18937,950" />
                        <polygon points="19487,995 19857,995 19857,1085 19487,1085" />
                        <g id="n1337fik" class="note">
                           <g class="notehead">
                              <use xlink:href="#E0A4-15jikf3" x="18729" y="1535" height="720px" width="720px" />
                           </g>
                           <g id="s1iu47b3" class="stem">
                              <rect x="18937" y="878" height="629" width="18" />
                           </g>
                        </g>
                        <g id="n18r09j4" class="note">
                           <g class="notehead">
                              <use xlink:href="#E0A4-15jikf3" x="19270" y="1445" height="720px" width="720px" />
                           </g>
                           <g id="s10639sf" class="stem">
                              <rect x="19478" y="878" height="539" width="18" />
                           </g>
                        </g>
                        <g id="nberno1" class="note">
                           <g class="notehead">
                              <use xlink:href="#E0A4-15jikf3" x="19631" y="1535" height="720px" width="720px" />
                           </g>
                           <g id="s1kkqpye" class="stem">
                              <rect x="19839" y="878" height="629" width="18" />
                           </g>
                        </g>
                     </g>
                  </g>
               </g>
               <g id="b1aq2lt3" class="barLine">
                  <path d="M19991 1085 L19991 1805" stroke="currentColor" stroke-width="27" />
               </g>
            </g>
         </g>
         <g id="s5wjnns" class="system">
            <g id="ljkmp1b" class="labelAbbr">
               <text x="914" y="3884" text-anchor="end" font-size="0px">
                  <tspan id="t35g38x" class="text">
                     <tspan font-size="405px" class="text">Pno.</tspan>
                  </tspan>
               </text>
            </g>
            <g id="m1hal50e" class="measure">
               <g id="m1xg015j" class="mNum autogenerated">
                  <text x="1094" y="3191" text-anchor="middle" font-size="0px">
                     <tspan id="tzkyf95" class="text">
                        <tspan font-size="324px" class="text">9</tspan>
                     </tspan>
                  </text>
               </g>
               <g id="s143sesb" class="staff">
                  <path d="M1094 3434 L4092 3434" stroke="currentColor" stroke-width="13" />
                  <path d="M1094 3614 L4092 3614" stroke="currentColor" stroke-width="13" />
                  <path d="M1094 3794 L4092 3794" stroke="currentColor" stroke-width="13" />
                  <path d="M1094 3974 L4092 3974" stroke="currentColor" stroke-width="13" />
                  <path d="M1094 4154 L4092 4154" stroke="currentColor" stroke-width="13" />
                  <g id="c11tbysp" class="clef">
                     <use xlink:href="#E050-15jikf3" x="1184" y="3974" height="720px" width="720px" />
                  </g>
                  <g id="k1p34jv0" class="keySig" />
                  <g id="l19ur93a" class="layer">
                     <g id="b1p0ilab" class="beam">
                        <polygon points="2127,3209 2685,3254 2685,3344 2127,3299" />
                        <g id="nseqzv0" class="note">
                           <g class="notehead">
                              <use xlink:href="#E0A4-15jikf3" x="1919" y="3884" height="720px" width="720px" />
                           </g>
                           <g id="s8jk7zi" class="stem">
                              <rect x="2127" y="3227" height="629" width="18" />
                           </g>
                        </g>
                        <g id="n1nid92i" class="note">
                           <g class="notehead">
                              <use xlink:href="#E0A4-15jikf3" x="2459" y="3974" height="720px" width="720px" />
                           </g>
                           <g id="s11z9ffb" class="stem">
                              <rect x="2667" y="3272" height="674" width="18" />
                           </g>
                        </g>
                     </g>
                     <g id="ban220d" class="beam">
                        <polygon points="3207,3254 3765,3254 3765,3344 3207,3344" />
                        <g id="ngo7bjr" class="note">
                           <g class="notehead">
                              <use xlink:href="#E0A4-15jikf3" x="2999" y="3884" height="720px" width="720px" />
                           </g>
                           <g id="sqxn3wk" class="stem">
                              <rect x="3207" y="3272" height="584" width="18" />
                           </g>
                        </g>
                        <g id="npx89o8" class="note">
                           <g class="notehead">
                              <use xlink:href="#E0A4-15jikf3" x="3539" y="3884" height="720px" width="720px" />
                           </g>
                           <g id="s17j35o7" class="stem">
                              <rect x="3747" y="3272" height="584" width="18" />
                           </g>
                        </g>
                     </g>
                  </g>
               </g>
               <g id="b1ky60kv" class="barLine">
                  <path d="M4079 3434 L4079 4154" stroke="currentColor" stroke-width="27" />
               </g>
            </g>
            <g id="m1kimms8" class="measure">
               <g id="sqk2fli" class="staff">
                  <path d="M4092 3434 L5941 3434" stroke="currentColor" stroke-width="13" />
                  <path d="M4092 3614 L5941 3614" stroke="currentColor" stroke-width="13" />
                  <path d="M4092 3794 L5941 3794" stroke="currentColor" stroke-width="13" />
                  <path d="M4092 3974 L5941 3974" stroke="currentColor" stroke-width="13" />
                  <path d="M4092 4154 L5941 4154" stroke="currentColor" stroke-width="13" />
                  <g id="l15r2gbc" class="layer">
                     <g id="n18a5mns" class="note">
                        <g class="notehead">
                           <use xlink:href="#E0A4-15jikf3" x="4272" y="3704" height="720px" width="720px" />
                        </g>
                        <g id="s1anitci" class="stem">
                           <rect x="4272" y="3732" height="602" width="18" />
                        </g>
                     </g>
                     <g id="n1xdmzwq" class="note">
                        <g class="notehead">
                           <use xlink:href="#E0A4-15jikf3" x="5100" y="3614" height="720px" width="720px" />
                        </g>
                        <g id="s17a67z" class="stem">
                           <rect x="5100" y="3642" height="602" width="18" />
                        </g>
                     </g>
                  </g>
               </g>
               <g id="bhwmitw" class="barLine">
                  <path d="M5928 3434 L5928 4154" stroke="currentColor" stroke-width="27" />
               </g>
            </g>
            <g id="s1mql1bt" class="sb" />
            <g id="mstejwu" class="measure">
               <g id="s1cwh6c8" class="staff">
                  <path d="M5941 3434 L8222 3434" stroke="currentColor" stroke-width="13" />
                  <path d="M5941 3614 L8222 3614" stroke="currentColor" stroke-width="13" />
                  <path d="M5941 3794 L8222 3794" stroke="currentColor" stroke-width="13" />
                  <path d="M5941 3974 L8222 3974" stroke="currentColor" stroke-width="13" />
                  <path d="M5941 4154 L8222 4154" stroke="currentColor" stroke-width="13" />
                  <g id="ln7wc4s" class="layer">
                     <g id="nqwyw2y" class="note">
                        <g class="notehead">
                           <use xlink:href="#E0A4-15jikf3" x="6121" y="3524" height="720px" width="720px" />
                        </g>
                        <g id="soissgi" class="stem">
                           <rect x="6121" y="3552" height="602" width="18" />
                        </g>
                     </g>
                     <g id="b1vb29ib" class="beam">
                        <polygon points="6949,4199 7867,4199 7867,4109 6949,4109" />
                        <polygon points="7498,4064 7867,4064 7867,3974 7498,3974" />
                        <g id="n5einog" class="note">
                           <g class="notehead">
                              <use xlink:href="#E0A4-15jikf3" x="6949" y="3524" height="720px" width="720px" />
                           </g>
                           <g id="s1tdv9f5" class="stem">
                              <rect x="6949" y="3552" height="629" width="18" />
                           </g>
                        </g>
                        <g id="nyeolsd" class="note">
                           <g class="notehead">
                              <use xlink:href="#E0A4-15jikf3" x="7489" y="3614" height="720px" width="720px" />
                           </g>
                           <g id="sgeezzl" class="stem">
                              <rect x="7489" y="3642" height="539" width="18" />
                           </g>
                        </g>
                        <g id="nlspti0" class="note">
                           <g class="notehead">
                              <use xlink:href="#E0A4-15jikf3" x="7849" y="3524" height="720px" width="720px" />
                           </g>
                           <g id="s1gn6aso" class="stem">
                              <rect x="7849" y="3552" height="629" width="18" />
                           </g>
                        </g>
                     </g>
                  </g>
               </g>
               <g id="b72h18r" class="barLine">
                  <path d="M8209 3434 L8209 4154" stroke="currentColor" stroke-width="27" />
               </g>
            </g>
            <g id="mdvpaxq" class="measure">
               <g id="s1pjv7mk" class="staff">
                  <path d="M8222 3434 L10323 3434" stroke="currentColor" stroke-width="13" />
                  <path d="M8222 3614 L10323 3614" stroke="currentColor" stroke-width="13" />
                  <path d="M8222 3794 L10323 3794" stroke="currentColor" stroke-width="13" />
                  <path d="M8222 3974 L10323 3974" stroke="currentColor" stroke-width="13" />
                  <path d="M8222 4154 L10323 4154" stroke="currentColor" stroke-width="13" />
                  <g id="l1411pqb" class="layer">
                     <g id="b1jg4pat" class="beam">
                        <polygon points="8610,3254 9168,3254 9168,3344 8610,3344" />
                        <g id="nbfyloe" class="note">
                           <g class="notehead">
                              <use xlink:href="#E0A4-15jikf3" x="8402" y="3884" height="720px" width="720px" />
                           </g>
                           <g id="scdxgsr" class="stem">
                              <rect x="8610" y="3272" height="584" width="18" />
                           </g>
                        </g>
                        <g id="n4zrxh2" class="note">
                           <g class="notehead">
                              <use xlink:href="#E0A4-15jikf3" x="8942" y="3884" height="720px" width="720px" />
                           </g>
                           <g id="stwi9vx" class="stem">
                              <rect x="9150" y="3272" height="584" width="18" />
                           </g>
                        </g>
                     </g>
                     <g id="ntol5vf" class="note">
                        <g class="notehead">
                           <use xlink:href="#E0A4-15jikf3" x="9482" y="3974" height="720px" width="720px" />
                        </g>
                        <g id="sdc1l9s" class="stem">
                           <rect x="9690" y="3344" height="602" width="18" />
                        </g>
                     </g>
                  </g>
               </g>
               <g id="b1i629t1" class="barLine">
                  <path d="M10310 3434 L10310 4154" stroke="currentColor" stroke-width="27" />
               </g>
            </g>
            <g id="mm3ctmv" class="measure">
               <g id="spiyyj0" class="staff">
                  <path d="M10323 3434 L11964 3434" stroke="currentColor" stroke-width="13" />
                  <path d="M10323 3614 L11964 3614" stroke="currentColor" stroke-width="13" />
                  <path d="M10323 3794 L11964 3794" stroke="currentColor" stroke-width="13" />
                  <path d="M10323 3974 L11964 3974" stroke="currentColor" stroke-width="13" />
                  <path d="M10323 4154 L11964 4154" stroke="currentColor" stroke-width="13" />
                  <g id="m1gs3qro" class="meterSig">
                     <use xlink:href="#E081-15jikf3" x="10432" y="3614" height="720px" width="720px" />
                     <use xlink:href="#E084-15jikf3" x="10399" y="3974" height="720px" width="720px" />
                  </g>
                  <g id="lswqc3l" class="layer">
                     <g id="ncfq8r7" class="note">
                        <g class="notehead">
                           <use xlink:href="#E0A4-15jikf3" x="10961" y="3884" height="720px" width="720px" />
                        </g>
                        <g id="sbs7wng" class="stem">
                           <rect x="11169" y="3254" height="602" width="18" />
                        </g>
                     </g>
                  </g>
               </g>
               <g id="bgfftwc" class="barLine">
                  <path d="M11789 3434 L11789 4154" stroke="currentColor" stroke-width="27" />
                  <path d="M11919 3434 L11919 4154" stroke="currentColor" stroke-width="90" />
               </g>
            </g>
            <g id="s1mp1y7v" class="systemMilestoneEnd stu5r2k" />
         </g>
         <g id="pfx0phh" class="pageMilestoneEnd s118hr9t" />
         <g id="p7dnm3l" class="pageMilestoneEnd mp0im25" />
         <g id="pzbr6vc" class="pgHead">
            <text x="0" y="0" font-size="0px">
               <tspan id="rqqc9hg" class="rend" x="10000" y="277" text-anchor="middle">
                  <tspan id="t16ul0pc" class="text">
                     <tspan font-size="405px" class="text">Air n 218</tspan>
                  </tspan>
               </tspan>
            </text>
         </g>
         <g id="p5jmxmi" class="pgFoot autogenerated">
            <g id="f12zfvec" class="fig">
               <g id="sprjoey" class="svg" transform="translate(7750, 28099) scale(10, 10)">
                  <g>
                     <path fill="#00000" d="M 17.11278,49.26451 V 10.367554 h 12.696511 c 3.288815,7.336676 6.71267,14.610456 10.127281,21.888976 3.419998,-7.484684 6.255515,-14.204887 9.58887,-21.909915 2.436207,0.103726 4.316952,0.08453 6.484294,-0.05808 V 49.264423 H 50.274275 C 50.145222,38.35639 50.016136,27.448368 49.887066,16.540329 45.003488,27.315459 39.967448,38.433564 35.083854,49.208695 34.678996,49.343717 34.426583,49.135619 34.021726,49.270644 29.46588,39.330716 24.910049,29.390805 20.354201,19.450876 20.224341,29.388756 20.09461,39.326619 19.964815,49.264497 H 17.11278 Z M 36.754144,39.324695 C 32.721221,30.512695 28.6883,21.700679 24.655394,12.888662 22.530527,12.750737 22.656775,12.71031 20.714356,12.813974 v 0.966497 c 4.612938,9.99784 9.609439,20.748709 13.87298,30.081745 0.722248,-1.512523 1.444528,-3.025014 2.166808,-4.537521 z m 25.738417,9.939815 c 0,-12.965651 0,-25.931305 0,-38.896956 10.084388,0 20.168791,0 30.253178,0 0,0.960416 0,1.920849 0,2.881265 -6.482825,0 -12.965652,0 -19.448478,0 0,4.802097 0,9.604178 0,14.406277 5.52241,0 11.044819,0 16.567229,0 0,0.960415 0,1.920832 0,2.881248 -5.52241,0 -11.044819,0 -16.567229,0 0,5.282306 0,10.564611 0,15.846917 6.963035,0 13.926068,0 20.889103,0 0,0.960416 0,1.920832 0,2.881249 -10.564597,0 -21.129207,0 -31.693803,0 z m 4.321874,-2.160937 c 0,-11.765131 0,-23.530263 0,-35.295394 -0.720312,0 -1.440625,0 -2.160937,0 0,11.765131 0,23.530263 0,35.295394 0.720312,0 1.440625,0 2.160937,0 z m 32.41413,2.160937 c 0,-12.965651 0,-25.931305 0,-38.896956 2.401045,0 4.802095,0 7.203135,0 0,12.965651 0,25.931305 0,38.896956 -2.40104,0 -4.80209,0 -7.203135,0 z m 2.881265,-2.160937 c 0,-11.765131 0,-23.530263 0,-35.295394 -0.72031,0 -1.44064,0 -2.160953,0 0,11.765131 0,23.530263 0,35.295394 0.720313,0 1.440643,0 2.160953,0 z" />
                     <path fill="#00000" d="m 346.3,6.7 c -3.1,0.5 -4.9,4.4 -2.7,6.8 1.2,1.4 2.7,2.4 4.1,3.5 -2.4,5.3 -7.7,8.3 -11.9,12.1 -3.7,2.8 -7,6.2 -9.7,9.9 -2.2,-0.8 -0.3,-6.8 -0.6,-9.5 0.1,-3.1 0.7,-6.4 2.9,-8.7 1.3,-1.9 3,-3.5 4.5,-5.2 1.2,-3.4 -3.2,-4.9 -5.8,-4.6 -7.3,-0.5 -14.6,2 -20,6.8 -5,4.6 -10,10.1 -11.5,17 -0.9,3.5 -0.2,7.5 2.8,9.9 2.5,2.8 7.4,2.9 9.8,-0.2 1.7,-2.3 3.2,-4.8 3.8,-7.6 -0.1,-2.6 -4.4,-2.3 -4.3,0.2 1.2,2.4 -0.9,4.7 -2.7,6.2 -1.7,0.9 -4.7,0.7 -4.8,-1.7 -1,-5.8 2.1,-11.3 5.2,-16.1 4,-5.8 9.8,-11.2 17.2,-11.8 1.6,0 8.1,-1.2 6.8,1.4 -2.8,2.8 -5.6,6.1 -6,10.3 -1.6,7.7 0.1,15.7 -2.3,23.2 -1.1,3.9 2,2.6 2.5,0.2 3.3,-7.4 8.9,-13.4 15.1,-18.5 4.2,-3.9 9.5,-7.1 11.9,-12.6 1.3,-3.6 1.2,-9 -2.7,-10.9 -0.6,-0.2 -1.2,-0.3 -1.8,-0.3 z m 66,14.5 c -2,0.8 -1.8,4.9 0.8,4.4 3.4,0.4 2.9,-6.2 -0.8,-4.4 z m 0.6,7.3 c -1.3,0.5 -7.6,0.5 -5.4,2.2 4,-0.3 0.7,4.5 0.6,6.7 -0.4,2.9 -2.4,5.9 -1.2,8.8 2.7,1.7 5.6,-0.8 6.8,-3.2 1.6,-1.4 -0.5,-3 -1.2,-0.9 -0.4,0.8 -2.4,3.5 -2.6,1.8 1.1,-5 2.7,-9.9 3.9,-14.9 l -0.1,-0.5 h -0.9 z m -65.1,0.2 c -6.5,1.6 -10.5,9.5 -8.2,15.7 2.1,3.4 7.4,2.9 10.1,0.4 2,-0.2 3.6,-5.3 1,-3.4 -1.4,2 -4,4.2 -6.5,2.8 -2.2,-1.9 -1.9,-5.7 1.7,-5.3 3.1,-0.9 6.9,-2.1 8.1,-5.5 0.9,-2.7 -1.6,-5.2 -4.3,-4.8 h -1.1 -0.7 z m 13.6,0 c -2.2,0 -8.5,1.8 -2.9,2.3 0.9,1.9 -1,4.9 -1.1,7.2 -0.5,2.9 -1.4,5.7 -1.7,8.7 3.7,0.7 3.8,-2.6 4.4,-5.3 0.9,-3.3 1.6,-7 4.1,-9.5 2.4,1.6 6.8,-0.7 3.7,-3.4 -2.9,-0.5 -4.8,2.4 -6.2,4.3 0,-1.2 2.4,-5 -0.2,-4.3 z m 15.8,0 c -6.4,1.3 -9.6,9.1 -7.7,14.9 1.9,4 7.7,3.9 11,1.7 4.1,-3 6,-8.9 4.4,-13.7 -1.3,-3 -4.8,-3.2 -7.6,-3 z m 17,0 c -2.3,0 -8.8,1.9 -3,2.4 0.4,2.5 -1,5.7 -1.4,8.4 -0.7,2.4 -1.8,7.5 2.1,7.2 3.8,-0.1 6.5,-3.5 8.5,-6.3 2,-3.2 4.5,-7 3.3,-10.9 -3.7,-3 -3.6,2.6 -3.1,5.1 -0.7,3.8 -2.7,7.9 -6.2,9.8 -3.6,0.6 -1,-4.3 -0.8,-6.1 0.6,-3.2 1.6,-6.3 1.9,-9.5 -0.4,0 -0.8,0 -1.1,0 z m 30.6,0 c -6.3,1.2 -9.5,8.9 -7.8,14.7 1.5,4 7.2,4.2 10.5,2.4 4.6,-2.8 6.6,-9.3 4.8,-14.3 -1.4,-2.8 -4.8,-3 -7.5,-2.8 z m -75.4,1.7 c 2.1,1.5 0.2,4.7 -1.6,5.7 -1.1,0.4 -5.5,3.4 -4.6,0.7 0.8,-2.7 2.2,-6.2 5.3,-6.6 l 0.9,0.1 z m 30.8,0 c 2.6,1.5 1.3,5.2 0.8,7.6 -0.8,2.7 -1.9,5.9 -4.7,7.1 -5.1,0.8 -4,-5.8 -2.8,-8.8 1,-2.8 3,-6.8 6.7,-5.8 z m 47.1,-0.1 c 2.9,0.7 2,4.7 1.5,6.8 -0.7,3 -1.8,6.7 -5,8 -4.7,0.8 -4,-5.1 -3,-7.9 0.9,-3 2.7,-7.3 6.5,-6.8 z m -88.1,5.9 c -0.3,1.3 0.9,-0.6 0,0 z m -1.1,2.4 c -0.2,0.5 0.5,-0.1 0,0 z m -1.3,4.5 c -0.3,1.3 0.8,-0.2 0,0 z" />
                     <text y="41" x="201" fill="#00000" style="font-style:italic;font-weight:normal;font-size:30px;line-height:125%;font-family:Times;text-anchor:middle" xml:space="preserve">engraved with</text>
                  </g>
               </g>
            </g>
         </g>
      </g>
   </svg>
</svg>
