<?xml version="1.0" encoding="UTF-8" standalone="no"?>
<svg width="2100px" height="2970px" version="1.1" xmlns="http://www.w3.org/2000/svg" xmlns:xlink="http://www.w3.org/1999/xlink" xmlns:mei="http://www.music-encoding.org/ns/mei" overflow="visible">
   <desc>Engraved by Verovio 3.13.1</desc>
   <defs>
      <symbol id="E044-bt041b" viewBox="0 0 1000 1000" overflow="inherit">
         <path transform="scale(1,-1)" d="M0 0c0 28 22 50 50 50s50 -22 50 -50s-22 -50 -50 -50s-50 22 -50 50z" />
      </symbol>
      <symbol id="E050-bt041b" viewBox="0 0 1000 1000" overflow="inherit">
         <path transform="scale(1,-1)" d="M441 -245c-23 -4 -48 -6 -76 -6c-59 0 -102 7 -130 20c-88 42 -150 93 -187 154c-26 44 -43 103 -48 176c0 6 -1 13 -1 19c0 54 15 111 45 170c29 57 65 106 110 148s96 85 153 127c-3 16 -8 46 -13 92c-4 43 -5 73 -5 89c0 117 16 172 69 257c34 54 64 82 89 82 c21 0 43 -30 69 -92s39 -115 41 -159v-15c0 -109 -21 -162 -67 -241c-13 -20 -63 -90 -98 -118c-13 -9 -25 -19 -37 -29l31 -181c8 1 18 2 28 2c58 0 102 -12 133 -35c59 -43 92 -104 98 -184c1 -7 1 -15 1 -22c0 -123 -87 -209 -181 -248c8 -57 17 -110 25 -162 c5 -31 6 -58 6 -80c0 -30 -5 -53 -14 -70c-35 -64 -88 -99 -158 -103c-5 0 -11 -1 -16 -1c-37 0 -72 10 -108 27c-50 24 -77 59 -80 105v11c0 29 7 55 20 76c18 28 45 42 79 44h6c49 0 93 -42 97 -87v-9c0 -51 -34 -86 -105 -106c17 -24 51 -36 102 -36c62 0 116 43 140 85 c9 16 13 41 13 74c0 20 -1 42 -5 67c-8 53 -18 106 -26 159zM461 939c-95 0 -135 -175 -135 -286c0 -24 2 -48 5 -71c50 39 92 82 127 128c40 53 60 100 60 140v8c-4 53 -22 81 -55 81h-2zM406 119l54 -326c73 25 110 78 110 161c0 7 0 15 -1 23c-7 95 -57 142 -151 142h-12 zM382 117c-72 -2 -128 -47 -128 -120v-7c2 -46 43 -99 75 -115c-3 -2 -7 -5 -10 -10c-70 33 -116 88 -123 172v11c0 68 44 126 88 159c23 17 49 29 78 36l-29 170c-21 -13 -52 -37 -92 -73c-50 -44 -86 -84 -109 -119c-45 -69 -67 -130 -67 -182v-13c5 -68 35 -127 93 -176 s125 -73 203 -73c25 0 50 3 75 9c-19 111 -36 221 -54 331z" />
      </symbol>
      <symbol id="E082-bt041b" viewBox="0 0 1000 1000" overflow="inherit">
         <path transform="scale(1,-1)" d="M124 -185c-18 0 -55 -14 -65 -65h-36l-3 30c0 25 6 45 18 63c11 19 22 30 39 43l121 82l37 29c15 11 27 29 38 54c12 24 18 47 18 70c0 40 -19 88 -94 88c-25 0 -32 0 -50 -8c-14 -5 -23 -12 -26 -22c3 -9 7 -15 10 -18l24 -17c12 -7 17 -11 27 -21c5 -7 7 -16 7 -27 c0 -12 0 -57 -79 -74c-30 0 -76 26 -76 94c0 66 81 135 197 135c72 0 181 -32 181 -150c0 -53 -32 -95 -113 -133l-91 -41c-26 -11 -45 -23 -57 -37l49 7c84 0 115 -41 148 -41c20 0 33 20 39 61h35c0 -152 -68 -168 -114 -168c-17 0 -65 0 -79 7h10l-28 17 c-49 37 -69 40 -87 42z" />
      </symbol>
      <symbol id="E084-bt041b" viewBox="0 0 1000 1000" overflow="inherit">
         <path transform="scale(1,-1)" d="M20 -78c84 97 114 180 134 329h170c-13 -32 -82 -132 -99 -151l-84 -97c-33 -36 -59 -63 -80 -81h162v102l127 123v-225h57v-39h-57v-34c0 -43 19 -65 57 -65v-34h-244v36c48 0 60 26 60 70v27h-203v39z" />
      </symbol>
      <symbol id="E0A4-bt041b" viewBox="0 0 1000 1000" overflow="inherit">
         <path transform="scale(1,-1)" d="M0 -39c0 68 73 172 200 172c66 0 114 -37 114 -95c0 -84 -106 -171 -218 -171c-64 0 -96 30 -96 94z" />
      </symbol>
      <symbol id="E240-bt041b" viewBox="0 0 1000 1000" overflow="inherit">
         <path transform="scale(1,-1)" d="M179 -646c15 29 29 55 46 102c18 49 30 108 30 138c0 105 -80 173 -168 200c-18 5 -47 9 -87 16v190h22c8 0 33 -61 71 -95c4 -3 -2 3 61 -56c62 -58 122 -137 122 -241c0 -38 -13 -106 -35 -163c-20 -51 -43 -99 -66 -132c-6 -5 -10 -7 -13 -7s-5 2 -5 5l4 10 c1 3 14 25 18 33z" />
      </symbol>
   </defs>
   <style type="text/css">g.page-margin{font-family:Times;} g.ending, g.fing, g.reh, g.tempo{font-weight:bold;} g.dir, g.dynam, g.mNum{font-style:italic;} g.label{font-weight:normal;}</style>
   <svg class="definition-scale" color="black" viewBox="0 0 21000 29700">
      <g class="page-margin" transform="translate(500, 500)">
         <g id="mgx59ys" class="mdiv pageMilestone" />
         <g id="s1gcdeh7" class="score pageMilestone" />
         <g id="s1uj80b2" class="system">
            <g id="l1qbvk8a" class="label">
               <text x="1105" y="1535" text-anchor="end" font-size="0px">
                  <tspan id="tumz4ny" class="text">
                     <tspan font-size="405px" class="text">Piano</tspan>
                  </tspan>
               </text>
            </g>
            <g id="spqw9yd" class="section systemMilestone" />
            <g id="pv1ost1" class="pb" />
            <g id="m1796u0" class="measure">
               <g id="s6o7alt" class="staff">
                  <path d="M1285 1085 L4458 1085" stroke="currentColor" stroke-width="13" />
                  <path d="M1285 1265 L4458 1265" stroke="currentColor" stroke-width="13" />
                  <path d="M1285 1445 L4458 1445" stroke="currentColor" stroke-width="13" />
                  <path d="M1285 1625 L4458 1625" stroke="currentColor" stroke-width="13" />
                  <path d="M1285 1805 L4458 1805" stroke="currentColor" stroke-width="13" />
                  <g id="c3skaz9" class="clef">
                     <use xlink:href="#E050-bt041b" x="1375" y="1625" height="720px" width="720px" />
                  </g>
                  <g id="k1ow8s7c" class="keySig" />
                  <g id="m1w6sgju" class="meterSig">
                     <use xlink:href="#E082-bt041b" x="2006" y="1265" height="720px" width="720px" />
                     <use xlink:href="#E084-bt041b" x="2011" y="1625" height="720px" width="720px" />
                  </g>
                  <g id="lj5nyei" class="layer">
                     <g id="nu11blw" class="note">
                        <g class="notehead">
                           <use xlink:href="#E0A4-bt041b" x="2579" y="1265" height="720px" width="720px" />
                        </g>
                        <g id="s91dfre" class="stem">
                           <rect x="2579" y="1293" height="602" width="18" />
                        </g>
                     </g>
                     <g id="bstu9jh" class="beam">
                        <polygon points="3389,1940 3935,1895 3935,1805 3389,1850" />
                        <g id="n1hdli" class="note">
                           <g class="notehead">
                              <use xlink:href="#E0A4-bt041b" x="3389" y="1265" height="720px" width="720px" />
                           </g>
                           <g id="s1jb0sym" class="stem">
                              <rect x="3389" y="1293" height="629" width="18" />
                           </g>
                        </g>
                        <g id="n1p8zoa7" class="note">
                           <g class="notehead">
                              <use xlink:href="#E0A4-bt041b" x="3917" y="1175" height="720px" width="720px" />
                           </g>
                           <g id="s177txns" class="stem">
                              <rect x="3917" y="1203" height="674" width="18" />
                           </g>
                        </g>
                     </g>
                  </g>
               </g>
               <g id="b10l9azh" class="barLine">
                  <path d="M4445 1085 L4445 1805" stroke="currentColor" stroke-width="27" />
               </g>
            </g>
            <g id="m1r23tgf" class="measure">
               <g id="s1er4eri" class="staff">
                  <path d="M4458 1085 L6763 1085" stroke="currentColor" stroke-width="13" />
                  <path d="M4458 1265 L6763 1265" stroke="currentColor" stroke-width="13" />
                  <path d="M4458 1445 L6763 1445" stroke="currentColor" stroke-width="13" />
                  <path d="M4458 1625 L6763 1625" stroke="currentColor" stroke-width="13" />
                  <path d="M4458 1805 L6763 1805" stroke="currentColor" stroke-width="13" />
                  <g id="l1rs4sqe" class="layer">
                     <g id="bctk1x5" class="beam">
                        <polygon points="4638,1985 5184,2030 5184,1940 4638,1895" />
                        <g id="n8r3472" class="note">
                           <g class="notehead">
                              <use xlink:href="#E0A4-bt041b" x="4638" y="1355" height="720px" width="720px" />
                           </g>
                           <g id="sv32dm0" class="stem">
                              <rect x="4638" y="1383" height="584" width="18" />
                           </g>
                        </g>
                        <g id="n1nfqr63" class="note">
                           <g class="notehead">
                              <use xlink:href="#E0A4-bt041b" x="5166" y="1445" height="720px" width="720px" />
                           </g>
                           <g id="sv0nktz" class="stem">
                              <rect x="5166" y="1473" height="539" width="18" />
                           </g>
                        </g>
                     </g>
                     <g id="b120ta28" class="beam">
                        <polygon points="5694,1985 6240,1985 6240,1895 5694,1895" />
                        <g id="naprb09" class="note">
                           <g class="notehead">
                              <use xlink:href="#E0A4-bt041b" x="5694" y="1355" height="720px" width="720px" />
                           </g>
                           <g id="sqhderq" class="stem">
                              <rect x="5694" y="1383" height="584" width="18" />
                           </g>
                        </g>
                        <g id="nybbmos" class="note">
                           <g class="notehead">
                              <use xlink:href="#E0A4-bt041b" x="6222" y="1355" height="720px" width="720px" />
                           </g>
                           <g id="s1wouqnu" class="stem">
                              <rect x="6222" y="1383" height="584" width="18" />
                           </g>
                        </g>
                     </g>
                  </g>
               </g>
               <g id="bhlo8yc" class="barLine">
                  <path d="M6750 1085 L6750 1805" stroke="currentColor" stroke-width="27" />
               </g>
            </g>
            <g id="m14ab3nd" class="measure">
               <g id="s1abmwxb" class="staff">
                  <path d="M6763 1085 L8822 1085" stroke="currentColor" stroke-width="13" />
                  <path d="M6763 1265 L8822 1265" stroke="currentColor" stroke-width="13" />
                  <path d="M6763 1445 L8822 1445" stroke="currentColor" stroke-width="13" />
                  <path d="M6763 1625 L8822 1625" stroke="currentColor" stroke-width="13" />
                  <path d="M6763 1805 L8822 1805" stroke="currentColor" stroke-width="13" />
                  <g id="liqeott" class="layer">
                     <g id="nu3jyk6" class="note">
                        <g class="notehead">
                           <use xlink:href="#E0A4-bt041b" x="6943" y="1265" height="720px" width="720px" />
                        </g>
                        <g id="s1dm276p" class="stem">
                           <rect x="6943" y="1293" height="602" width="18" />
                        </g>
                     </g>
                     <g id="blj5htc" class="beam">
                        <polygon points="7753,1940 8299,1895 8299,1805 7753,1850" />
                        <g id="no5ts3z" class="note">
                           <g class="notehead">
                              <use xlink:href="#E0A4-bt041b" x="7753" y="1265" height="720px" width="720px" />
                           </g>
                           <g id="s1fizxtj" class="stem">
                              <rect x="7753" y="1293" height="629" width="18" />
                           </g>
                        </g>
                        <g id="nkxlsz5" class="note">
                           <g class="notehead">
                              <use xlink:href="#E0A4-bt041b" x="8281" y="1175" height="720px" width="720px" />
                           </g>
                           <g id="s1xmpcwd" class="stem">
                              <rect x="8281" y="1203" height="674" width="18" />
                           </g>
                        </g>
                     </g>
                  </g>
               </g>
               <g id="be3c8c6" class="barLine">
                  <path d="M8809 1085 L8809 1805" stroke="currentColor" stroke-width="27" />
               </g>
            </g>
            <g id="m1ebqygf" class="measure">
               <g id="siv313z" class="staff">
                  <path d="M8822 1085 L11277 1085" stroke="currentColor" stroke-width="13" />
                  <path d="M8822 1265 L11277 1265" stroke="currentColor" stroke-width="13" />
                  <path d="M8822 1445 L11277 1445" stroke="currentColor" stroke-width="13" />
                  <path d="M8822 1625 L11277 1625" stroke="currentColor" stroke-width="13" />
                  <path d="M8822 1805 L11277 1805" stroke="currentColor" stroke-width="13" />
                  <g id="lm3jws4" class="layer">
                     <g id="n10w3pbx" class="note">
                        <g class="notehead">
                           <use xlink:href="#E0A4-bt041b" x="8912" y="1265" height="540px" width="540px" />
                        </g>
                        <g id="sgiqyto" class="stem">
                           <rect x="9063" y="860" height="384" width="18" />
                           <g id="f5px66a" class="flag">
                              <use xlink:href="#E240-bt041b" x="9063" y="860" height="540px" width="540px" />
                           </g>
                        </g>
                     </g>
                     <g id="n1jvzbis" class="note">
                        <g class="notehead">
                           <use xlink:href="#E0A4-bt041b" x="9279" y="1355" height="720px" width="720px" />
                        </g>
                        <g id="s145c1sl" class="stem">
                           <rect x="9279" y="1383" height="602" width="18" />
                        </g>
                     </g>
                     <g id="n158xrns" class="note">
                        <g class="notehead">
                           <use xlink:href="#E0A4-bt041b" x="10089" y="1355" height="720px" width="720px" />
                        </g>
                        <g id="s1obm1g3" class="stem">
                           <rect x="10089" y="1383" height="602" width="18" />
                        </g>
                     </g>
                  </g>
               </g>
               <g id="b13pvozl" class="barLine">
                  <path d="M10899 1085 L10899 1805" stroke="currentColor" stroke-width="27" />
                  <path d="M11029 1085 L11029 1805" stroke="currentColor" stroke-width="90" />
                  <path d="M11160 1085 L11160 1805" stroke="currentColor" stroke-width="27" />
                  <use xlink:href="#E044-bt041b" x="11205" y="1355" height="720px" width="720px" />
                  <use xlink:href="#E044-bt041b" x="11205" y="1535" height="720px" width="720px" />
                  <use xlink:href="#E044-bt041b" x="10782" y="1355" height="720px" width="720px" />
                  <use xlink:href="#E044-bt041b" x="10782" y="1535" height="720px" width="720px" />
               </g>
            </g>
            <g id="mxlaa73" class="measure">
               <g id="satu682" class="staff">
                  <path d="M11277 1085 L13336 1085" stroke="currentColor" stroke-width="13" />
                  <path d="M11277 1265 L13336 1265" stroke="currentColor" stroke-width="13" />
                  <path d="M11277 1445 L13336 1445" stroke="currentColor" stroke-width="13" />
                  <path d="M11277 1625 L13336 1625" stroke="currentColor" stroke-width="13" />
                  <path d="M11277 1805 L13336 1805" stroke="currentColor" stroke-width="13" />
                  <g id="lgnwy9a" class="layer">
                     <g id="n1kkyusz" class="note">
                        <g class="notehead">
                           <use xlink:href="#E0A4-bt041b" x="11457" y="1355" height="720px" width="720px" />
                        </g>
                        <g id="s7mq69x" class="stem">
                           <rect x="11457" y="1383" height="602" width="18" />
                        </g>
                     </g>
                     <g id="nll1fv8" class="note">
                        <g class="notehead">
                           <use xlink:href="#E0A4-bt041b" x="11900" y="1265" height="540px" width="540px" />
                        </g>
                        <g id="sy57vi6" class="stem">
                           <rect x="12051" y="860" height="384" width="18" />
                           <g id="f15cxf" class="flag">
                              <use xlink:href="#E240-bt041b" x="12051" y="860" height="540px" width="540px" />
                           </g>
                        </g>
                     </g>
                     <g id="bfbzwgv" class="beam">
                        <polygon points="12267,2075 12813,2120 12813,2030 12267,1985" />
                        <g id="nvxgrdu" class="note">
                           <g class="notehead">
                              <use xlink:href="#E0A4-bt041b" x="12267" y="1355" height="720px" width="720px" />
                           </g>
                           <g id="s1qki8r1" class="stem">
                              <rect x="12267" y="1383" height="674" width="18" />
                           </g>
                        </g>
                        <g id="n1sbatz8" class="note">
                           <g class="notehead">
                              <use xlink:href="#E0A4-bt041b" x="12795" y="1535" height="720px" width="720px" />
                           </g>
                           <g id="s4v4fpi" class="stem">
                              <rect x="12795" y="1563" height="539" width="18" />
                           </g>
                        </g>
                     </g>
                  </g>
               </g>
               <g id="b1ox3fmo" class="barLine">
                  <path d="M13323 1085 L13323 1805" stroke="currentColor" stroke-width="27" />
               </g>
            </g>
            <g id="m1bx50xc" class="measure">
               <g id="sdfbel7" class="staff">
                  <path d="M13336 1085 L15395 1085" stroke="currentColor" stroke-width="13" />
                  <path d="M13336 1265 L15395 1265" stroke="currentColor" stroke-width="13" />
                  <path d="M13336 1445 L15395 1445" stroke="currentColor" stroke-width="13" />
                  <path d="M13336 1625 L15395 1625" stroke="currentColor" stroke-width="13" />
                  <path d="M13336 1805 L15395 1805" stroke="currentColor" stroke-width="13" />
                  <g id="l1y6yrxt" class="layer">
                     <g id="b1uf75gv" class="beam">
                        <polygon points="13516,2030 14062,1985 14062,1895 13516,1940" />
                        <g id="nee9xtt" class="note">
                           <g class="notehead">
                              <use xlink:href="#E0A4-bt041b" x="13516" y="1445" height="720px" width="720px" />
                           </g>
                           <g id="s1drb2rd" class="stem">
                              <rect x="13516" y="1473" height="539" width="18" />
                           </g>
                        </g>
                        <g id="n1taqgw3" class="note">
                           <g class="notehead">
                              <use xlink:href="#E0A4-bt041b" x="14044" y="1355" height="720px" width="720px" />
                           </g>
                           <g id="snsrqaj" class="stem">
                              <rect x="14044" y="1383" height="584" width="18" />
                           </g>
                        </g>
                     </g>
                     <g id="n1csj5qy" class="note">
                        <g class="notehead">
                           <use xlink:href="#E0A4-bt041b" x="14572" y="1265" height="720px" width="720px" />
                        </g>
                        <g id="s1k3cmib" class="stem">
                           <rect x="14572" y="1293" height="602" width="18" />
                        </g>
                     </g>
                  </g>
               </g>
               <g id="b3cxi8m" class="barLine">
                  <path d="M15382 1085 L15382 1805" stroke="currentColor" stroke-width="27" />
               </g>
            </g>
            <g id="my1ya9b" class="measure">
               <g id="s18lk205" class="staff">
                  <path d="M15395 1085 L17700 1085" stroke="currentColor" stroke-width="13" />
                  <path d="M15395 1265 L17700 1265" stroke="currentColor" stroke-width="13" />
                  <path d="M15395 1445 L17700 1445" stroke="currentColor" stroke-width="13" />
                  <path d="M15395 1625 L17700 1625" stroke="currentColor" stroke-width="13" />
                  <path d="M15395 1805 L17700 1805" stroke="currentColor" stroke-width="13" />
                  <g id="laxhwtn" class="layer">
                     <g id="b1txm3g2" class="beam">
                        <polygon points="15575,1940 16121,1895 16121,1805 15575,1850" />
                        <g id="n1g3q93f" class="note">
                           <g class="notehead">
                              <use xlink:href="#E0A4-bt041b" x="15575" y="1265" height="720px" width="720px" />
                           </g>
                           <g id="s1i4exfj" class="stem">
                              <rect x="15575" y="1293" height="629" width="18" />
                           </g>
                        </g>
                        <g id="n1ehty3v" class="note">
                           <g class="notehead">
                              <use xlink:href="#E0A4-bt041b" x="16103" y="1175" height="720px" width="720px" />
                           </g>
                           <g id="s19945mt" class="stem">
                              <rect x="16103" y="1203" height="674" width="18" />
                           </g>
                        </g>
                     </g>
                     <g id="bt6jbrt" class="beam">
                        <polygon points="16631,2030 17177,1985 17177,1895 16631,1940" />
                        <g id="n1h145ad" class="note">
                           <g class="notehead">
                              <use xlink:href="#E0A4-bt041b" x="16631" y="1355" height="720px" width="720px" />
                           </g>
                           <g id="s1fcs297" class="stem">
                              <rect x="16631" y="1383" height="629" width="18" />
                           </g>
                        </g>
                        <g id="n7le7ha" class="note">
                           <g class="notehead">
                              <use xlink:href="#E0A4-bt041b" x="17159" y="1265" height="720px" width="720px" />
                           </g>
                           <g id="s1g78vki" class="stem">
                              <rect x="17159" y="1293" height="674" width="18" />
                           </g>
                        </g>
                     </g>
                  </g>
               </g>
               <g id="bp70qhq" class="barLine">
                  <path d="M17687 1085 L17687 1805" stroke="currentColor" stroke-width="27" />
               </g>
            </g>
            <g id="m1i983nj" class="measure">
               <g id="s1hptl6" class="staff">
                  <path d="M17700 1085 L20005 1085" stroke="currentColor" stroke-width="13" />
                  <path d="M17700 1265 L20005 1265" stroke="currentColor" stroke-width="13" />
                  <path d="M17700 1445 L20005 1445" stroke="currentColor" stroke-width="13" />
                  <path d="M17700 1625 L20005 1625" stroke="currentColor" stroke-width="13" />
                  <path d="M17700 1805 L20005 1805" stroke="currentColor" stroke-width="13" />
                  <g id="l1oj9z5w" class="layer">
                     <g id="b853ib6" class="beam">
                        <polygon points="17880,1985 18426,2030 18426,1940 17880,1895" />
                        <g id="n18w5uw0" class="note">
                           <g class="notehead">
                              <use xlink:href="#E0A4-bt041b" x="17880" y="1355" height="720px" width="720px" />
                           </g>
                           <g id="so4gzzd" class="stem">
                              <rect x="17880" y="1383" height="584" width="18" />
                           </g>
                        </g>
                        <g id="n154bce9" class="note">
                           <g class="notehead">
                              <use xlink:href="#E0A4-bt041b" x="18408" y="1445" height="720px" width="720px" />
                           </g>
                           <g id="s16n08t9" class="stem">
                              <rect x="18408" y="1473" height="539" width="18" />
                           </g>
                        </g>
                     </g>
                     <g id="b1ar271v" class="beam">
                        <polygon points="19144,905 19690,905 19690,995 19144,995" />
                        <g id="n1qsy1x7" class="note">
                           <g class="notehead">
                              <use xlink:href="#E0A4-bt041b" x="18936" y="1535" height="720px" width="720px" />
                           </g>
                           <g id="sc65fw1" class="stem">
                              <rect x="19144" y="923" height="584" width="18" />
                           </g>
                        </g>
                        <g id="nhobc7" class="note">
                           <g class="notehead">
                              <use xlink:href="#E0A4-bt041b" x="19464" y="1535" height="720px" width="720px" />
                           </g>
                           <g id="s19r69ll" class="stem">
                              <rect x="19672" y="923" height="584" width="18" />
                           </g>
                        </g>
                     </g>
                  </g>
               </g>
               <g id="b86uwao" class="barLine">
                  <path d="M19992 1085 L19992 1805" stroke="currentColor" stroke-width="27" />
               </g>
            </g>
         </g>
         <g id="s11x56vt" class="system">
            <g id="l93jzri" class="labelAbbr">
               <text x="914" y="3875" text-anchor="end" font-size="0px">
                  <tspan id="t14esk1n" class="text">
                     <tspan font-size="405px" class="text">Pno.</tspan>
                  </tspan>
               </text>
            </g>
            <g id="m9bjr2j" class="measure">
               <g id="m1qs2614" class="mNum autogenerated">
                  <text x="1094" y="3182" text-anchor="middle" font-size="0px">
                     <tspan id="t1skiv9n" class="text">
                        <tspan font-size="324px" class="text">9</tspan>
                     </tspan>
                  </text>
               </g>
               <g id="s1h599x6" class="staff">
                  <path d="M1094 3425 L3802 3425" stroke="currentColor" stroke-width="13" />
                  <path d="M1094 3605 L3802 3605" stroke="currentColor" stroke-width="13" />
                  <path d="M1094 3785 L3802 3785" stroke="currentColor" stroke-width="13" />
                  <path d="M1094 3965 L3802 3965" stroke="currentColor" stroke-width="13" />
                  <path d="M1094 4145 L3802 4145" stroke="currentColor" stroke-width="13" />
                  <g id="ccth0fr" class="clef">
                     <use xlink:href="#E050-bt041b" x="1184" y="3965" height="720px" width="720px" />
                  </g>
                  <g id="k1faeytk" class="keySig" />
                  <g id="l191l3aj" class="layer">
                     <g id="ngg5lqc" class="note">
                        <g class="notehead">
                           <use xlink:href="#E0A4-bt041b" x="1919" y="3695" height="720px" width="720px" />
                        </g>
                        <g id="snfemcm" class="stem">
                           <rect x="1919" y="3723" height="602" width="18" />
                        </g>
                     </g>
                     <g id="n1x3plyr" class="note">
                        <g class="notehead">
                           <use xlink:href="#E0A4-bt041b" x="2364" y="3605" height="540px" width="540px" />
                        </g>
                        <g id="ss068kw" class="stem">
                           <rect x="2515" y="3200" height="384" width="18" />
                           <g id="f1entn9q" class="flag">
                              <use xlink:href="#E240-bt041b" x="2515" y="3200" height="540px" width="540px" />
                           </g>
                        </g>
                     </g>
                     <g id="b11ock43" class="beam">
                        <polygon points="2731,4415 3278,4460 3278,4370 2731,4325" />
                        <g id="nc41e11" class="note">
                           <g class="notehead">
                              <use xlink:href="#E0A4-bt041b" x="2731" y="3695" height="720px" width="720px" />
                           </g>
                           <g id="sddfaka" class="stem">
                              <rect x="2731" y="3723" height="674" width="18" />
                           </g>
                        </g>
                        <g id="n13bivqk" class="note">
                           <g class="notehead">
                              <use xlink:href="#E0A4-bt041b" x="3260" y="3875" height="720px" width="720px" />
                           </g>
                           <g id="s143zr9n" class="stem">
                              <rect x="3260" y="3903" height="539" width="18" />
                           </g>
                        </g>
                     </g>
                  </g>
               </g>
               <g id="b1y3gt71" class="barLine">
                  <path d="M3789 3425 L3789 4145" stroke="currentColor" stroke-width="27" />
               </g>
            </g>
            <g id="s1sp6qq5" class="sb" />
            <g id="mpxtive" class="measure">
               <g id="s1xbk5fy" class="staff">
                  <path d="M3802 3425 L5865 3425" stroke="currentColor" stroke-width="13" />
                  <path d="M3802 3605 L5865 3605" stroke="currentColor" stroke-width="13" />
                  <path d="M3802 3785 L5865 3785" stroke="currentColor" stroke-width="13" />
                  <path d="M3802 3965 L5865 3965" stroke="currentColor" stroke-width="13" />
                  <path d="M3802 4145 L5865 4145" stroke="currentColor" stroke-width="13" />
                  <g id="ldlx8lo" class="layer">
                     <g id="b1ybtm7l" class="beam">
                        <polygon points="3982,4370 4529,4325 4529,4235 3982,4280" />
                        <g id="n1ytpyd7" class="note">
                           <g class="notehead">
                              <use xlink:href="#E0A4-bt041b" x="3982" y="3785" height="720px" width="720px" />
                           </g>
                           <g id="s1l2bj3h" class="stem">
                              <rect x="3982" y="3813" height="539" width="18" />
                           </g>
                        </g>
                        <g id="n1kn9p" class="note">
                           <g class="notehead">
                              <use xlink:href="#E0A4-bt041b" x="4511" y="3695" height="720px" width="720px" />
                           </g>
                           <g id="s1rw8vj6" class="stem">
                              <rect x="4511" y="3723" height="584" width="18" />
                           </g>
                        </g>
                     </g>
                     <g id="ngd4u88" class="note">
                        <g class="notehead">
                           <use xlink:href="#E0A4-bt041b" x="5040" y="3605" height="720px" width="720px" />
                        </g>
                        <g id="sypvsfs" class="stem">
                           <rect x="5040" y="3633" height="602" width="18" />
                        </g>
                     </g>
                  </g>
               </g>
               <g id="b1yswfh2" class="barLine">
                  <path d="M5852 3425 L5852 4145" stroke="currentColor" stroke-width="27" />
               </g>
            </g>
            <g id="md56xer" class="measure">
               <g id="s13ajmsp" class="staff">
                  <path d="M5865 3425 L8174 3425" stroke="currentColor" stroke-width="13" />
                  <path d="M5865 3605 L8174 3605" stroke="currentColor" stroke-width="13" />
                  <path d="M5865 3785 L8174 3785" stroke="currentColor" stroke-width="13" />
                  <path d="M5865 3965 L8174 3965" stroke="currentColor" stroke-width="13" />
                  <path d="M5865 4145 L8174 4145" stroke="currentColor" stroke-width="13" />
                  <g id="lvytd88" class="layer">
                     <g id="b1r7tkpo" class="beam">
                        <polygon points="6045,4280 6592,4235 6592,4145 6045,4190" />
                        <g id="n154impu" class="note">
                           <g class="notehead">
                              <use xlink:href="#E0A4-bt041b" x="6045" y="3605" height="720px" width="720px" />
                           </g>
                           <g id="s1yfqsos" class="stem">
                              <rect x="6045" y="3633" height="629" width="18" />
                           </g>
                        </g>
                        <g id="np1gcmp" class="note">
                           <g class="notehead">
                              <use xlink:href="#E0A4-bt041b" x="6574" y="3515" height="720px" width="720px" />
                           </g>
                           <g id="s13d0mvt" class="stem">
                              <rect x="6574" y="3543" height="674" width="18" />
                           </g>
                        </g>
                     </g>
                     <g id="bwgzqys" class="beam">
                        <polygon points="7103,4370 7650,4325 7650,4235 7103,4280" />
                        <g id="n4u95z3" class="note">
                           <g class="notehead">
                              <use xlink:href="#E0A4-bt041b" x="7103" y="3695" height="720px" width="720px" />
                           </g>
                           <g id="sx2cpi5" class="stem">
                              <rect x="7103" y="3723" height="629" width="18" />
                           </g>
                        </g>
                        <g id="n6it6to" class="note">
                           <g class="notehead">
                              <use xlink:href="#E0A4-bt041b" x="7632" y="3605" height="720px" width="720px" />
                           </g>
                           <g id="sg8fjx0" class="stem">
                              <rect x="7632" y="3633" height="674" width="18" />
                           </g>
                        </g>
                     </g>
                  </g>
               </g>
               <g id="b5wjfhy" class="barLine">
                  <path d="M8161 3425 L8161 4145" stroke="currentColor" stroke-width="27" />
               </g>
            </g>
            <g id="m135cqtb" class="measure">
               <g id="s6qwmky" class="staff">
                  <path d="M8174 3425 L10399 3425" stroke="currentColor" stroke-width="13" />
                  <path d="M8174 3605 L10399 3605" stroke="currentColor" stroke-width="13" />
                  <path d="M8174 3785 L10399 3785" stroke="currentColor" stroke-width="13" />
                  <path d="M8174 3965 L10399 3965" stroke="currentColor" stroke-width="13" />
                  <path d="M8174 4145 L10399 4145" stroke="currentColor" stroke-width="13" />
                  <g id="l1o73vbk" class="layer">
                     <g id="b1ivg9at" class="beam">
                        <polygon points="8354,4325 8901,4370 8901,4280 8354,4235" />
                        <g id="n1a56eqv" class="note">
                           <g class="notehead">
                              <use xlink:href="#E0A4-bt041b" x="8354" y="3695" height="720px" width="720px" />
                           </g>
                           <g id="s1i5ktje" class="stem">
                              <rect x="8354" y="3723" height="584" width="18" />
                           </g>
                        </g>
                        <g id="n14mw3oq" class="note">
                           <g class="notehead">
                              <use xlink:href="#E0A4-bt041b" x="8883" y="3785" height="720px" width="720px" />
                           </g>
                           <g id="sxj7ou4" class="stem">
                              <rect x="8883" y="3813" height="539" width="18" />
                           </g>
                        </g>
                     </g>
                     <g id="nebjhc6" class="note">
                        <g class="notehead">
                           <use xlink:href="#E0A4-bt041b" x="9412" y="3695" height="720px" width="720px" />
                        </g>
                        <g id="saz7lub" class="stem">
                           <rect x="9412" y="3723" height="602" width="18" />
                        </g>
                     </g>
                  </g>
               </g>
               <g id="b16w2g0w" class="barLine">
                  <path d="M10224 3425 L10224 4145" stroke="currentColor" stroke-width="27" />
                  <path d="M10354 3425 L10354 4145" stroke="currentColor" stroke-width="90" />
               </g>
            </g>
            <g id="s1tkktna" class="systemMilestoneEnd spqw9yd" />
         </g>
         <g id="ptm3qpc" class="pageMilestoneEnd s1gcdeh7" />
         <g id="p1fy9xbv" class="pageMilestoneEnd mgx59ys" />
         <g id="p1ve614l" class="pgHead">
            <text x="0" y="0" font-size="0px">
               <tspan id="roadl82" class="rend" x="10000" y="277" text-anchor="middle">
                  <tspan id="t1b3vs3d" class="text">
                     <tspan font-size="405px" class="text">Air n 74</tspan>
                  </tspan>
               </tspan>
            </text>
         </g>
         <g id="p1wpro3d" class="pgFoot autogenerated">
            <g id="fnejslz" class="fig">
               <g id="sqzsref" class="svg" transform="translate(7750, 28099) scale(10, 10)">
                  <g>
                     <path fill="#00000" d="M 17.11278,49.26451 V 10.367554 h 12.696511 c 3.288815,7.336676 6.71267,14.610456 10.127281,21.888976 3.419998,-7.484684 6.255515,-14.204887 9.58887,-21.909915 2.436207,0.103726 4.316952,0.08453 6.484294,-0.05808 V 49.264423 H 50.274275 C 50.145222,38.35639 50.016136,27.448368 49.887066,16.540329 45.003488,27.315459 39.967448,38.433564 35.083854,49.208695 34.678996,49.343717 34.426583,49.135619 34.021726,49.270644 29.46588,39.330716 24.910049,29.390805 20.354201,19.450876 20.224341,29.388756 20.09461,39.326619 19.964815,49.264497 H 17.11278 Z M 36.754144,39.324695 C 32.721221,30.512695 28.6883,21.700679 24.655394,12.888662 22.530527,12.750737 22.656775,12.71031 20.714356,12.813974 v 0.966497 c 4.612938,9.99784 9.609439,20.748709 13.87298,30.081745 0.722248,-1.512523 1.444528,-3.025014 2.166808,-4.537521 z m 25.738417,9.939815 c 0,-12.965651 0,-25.931305 0,-38.896956 10.084388,0 20.168791,0 30.253178,0 0,0.960416 0,1.920849 0,2.881265 -6.482825,0 -12.965652,0 -19.448478,0 0,4.802097 0,9.604178 0,14.406277 5.52241,0 11.044819,0 16.567229,0 0,0.960415 0,1.920832 0,2.881248 -5.52241,0 -11.044819,0 -16.567229,0 0,5.282306 0,10.564611 0,15.846917 6.963035,0 13.926068,0 20.889103,0 0,0.960416 0,1.920832 0,2.881249 -10.564597,0 -21.129207,0 -31.693803,0 z m 4.321874,-2.160937 c 0,-11.765131 0,-23.530263 0,-35.295394 -0.720312,0 -1.440625,0 -2.160937,0 0,11.765131 0,23.530263 0,35.295394 0.720312,0 1.440625,0 2.160937,0 z m 32.41413,2.160937 c 0,-12.965651 0,-25.931305 0,-38.896956 2.401045,0 4.802095,0 7.203135,0 0,12.965651 0,25.931305 0,38.896956 -2.40104,0 -4.80209,0 -7.203135,0 z m 2.881265,-2.160937 c 0,-11.765131 0,-23.530263 0,-35.295394 -0.72031,0 -1.44064,0 -2.160953,0 0,11.765131 0,23.530263 0,35.295394 0.720313,0 1.440643,0 2.160953,0 z" />
                     <path fill="#00000" d="m 346.3,6.7 c -3.1,0.5 -4.9,4.4 -2.7,6.8 1.2,1.4 2.7,2.4 4.1,3.5 -2.4,5.3 -7.7,8.3 -11.9,12.1 -3.7,2.8 -7,6.2 -9.7,9.9 -2.2,-0.8 -0.3,-6.8 -0.6,-9.5 0.1,-3.1 0.7,-6.4 2.9,-8.7 1.3,-1.9 3,-3.5 4.5,-5.2 1.2,-3.4 -3.2,-4.9 -5.8,-4.6 -7.3,-0.5 -14.6,2 -20,6.8 -5,4.6 -10,10.1 -11.5,17 -0.9,3.5 -0.2,7.5 2.8,9.9 2.5,2.8 7.4,2.9 9.8,-0.2 1.7,-2.3 3.2,-4.8 3.8,-7.6 -0.1,-2.6 -4.4,-2.3 -4.3,0.2 1.2,2.4 -0.9,4.7 -2.7,6.2 -1.7,0.9 -4.7,0.7 -4.8,-1.7 -1,-5.8 2.1,-11.3 5.2,-16.1 4,-5.8 9.8,-11.2 17.2,-11.8 1.6,0 8.1,-1.2 6.8,1.4 -2.8,2.8 -5.6,6.1 -6,10.3 -1.6,7.7 0.1,15.7 -2.3,23.2 -1.1,3.9 2,2.6 2.5,0.2 3.3,-7.4 8.9,-13.4 15.1,-18.5 4.2,-3.9 9.5,-7.1 11.9,-12.6 1.3,-3.6 1.2,-9 -2.7,-10.9 -0.6,-0.2 -1.2,-0.3 -1.8,-0.3 z m 66,14.5 c -2,0.8 -1.8,4.9 0.8,4.4 3.4,0.4 2.9,-6.2 -0.8,-4.4 z m 0.6,7.3 c -1.3,0.5 -7.6,0.5 -5.4,2.2 4,-0.3 0.7,4.5 0.6,6.7 -0.4,2.9 -2.4,5.9 -1.2,8.8 2.7,1.7 5.6,-0.8 6.8,-3.2 1.6,-1.4 -0.5,-3 -1.2,-0.9 -0.4,0.8 -2.4,3.5 -2.6,1.8 1.1,-5 2.7,-9.9 3.9,-14.9 l -0.1,-0.5 h -0.9 z m -65.1,0.2 c -6.5,1.6 -10.5,9.5 -8.2,15.7 2.1,3.4 7.4,2.9 10.1,0.4 2,-0.2 3.6,-5.3 1,-3.4 -1.4,2 -4,4.2 -6.5,2.8 -2.2,-1.9 -1.9,-5.7 1.7,-5.3 3.1,-0.9 6.9,-2.1 8.1,-5.5 0.9,-2.7 -1.6,-5.2 -4.3,-4.8 h -1.1 -0.7 z m 13.6,0 c -2.2,0 -8.5,1.8 -2.9,2.3 0.9,1.9 -1,4.9 -1.1,7.2 -0.5,2.9 -1.4,5.7 -1.7,8.7 3.7,0.7 3.8,-2.6 4.4,-5.3 0.9,-3.3 1.6,-7 4.1,-9.5 2.4,1.6 6.8,-0.7 3.7,-3.4 -2.9,-0.5 -4.8,2.4 -6.2,4.3 0,-1.2 2.4,-5 -0.2,-4.3 z m 15.8,0 c -6.4,1.3 -9.6,9.1 -7.7,14.9 1.9,4 7.7,3.9 11,1.7 4.1,-3 6,-8.9 4.4,-13.7 -1.3,-3 -4.8,-3.2 -7.6,-3 z m 17,0 c -2.3,0 -8.8,1.9 -3,2.4 0.4,2.5 -1,5.7 -1.4,8.4 -0.7,2.4 -1.8,7.5 2.1,7.2 3.8,-0.1 6.5,-3.5 8.5,-6.3 2,-3.2 4.5,-7 3.3,-10.9 -3.7,-3 -3.6,2.6 -3.1,5.1 -0.7,3.8 -2.7,7.9 -6.2,9.8 -3.6,0.6 -1,-4.3 -0.8,-6.1 0.6,-3.2 1.6,-6.3 1.9,-9.5 -0.4,0 -0.8,0 -1.1,0 z m 30.6,0 c -6.3,1.2 -9.5,8.9 -7.8,14.7 1.5,4 7.2,4.2 10.5,2.4 4.6,-2.8 6.6,-9.3 4.8,-14.3 -1.4,-2.8 -4.8,-3 -7.5,-2.8 z m -75.4,1.7 c 2.1,1.5 0.2,4.7 -1.6,5.7 -1.1,0.4 -5.5,3.4 -4.6,0.7 0.8,-2.7 2.2,-6.2 5.3,-6.6 l 0.9,0.1 z m 30.8,0 c 2.6,1.5 1.3,5.2 0.8,7.6 -0.8,2.7 -1.9,5.9 -4.7,7.1 -5.1,0.8 -4,-5.8 -2.8,-8.8 1,-2.8 3,-6.8 6.7,-5.8 z m 47.1,-0.1 c 2.9,0.7 2,4.7 1.5,6.8 -0.7,3 -1.8,6.7 -5,8 -4.7,0.8 -4,-5.1 -3,-7.9 0.9,-3 2.7,-7.3 6.5,-6.8 z m -88.1,5.9 c -0.3,1.3 0.9,-0.6 0,0 z m -1.1,2.4 c -0.2,0.5 0.5,-0.1 0,0 z m -1.3,4.5 c -0.3,1.3 0.8,-0.2 0,0 z" />
                     <text y="41" x="201" fill="#00000" style="font-style:italic;font-weight:normal;font-size:30px;line-height:125%;font-family:Times;text-anchor:middle" xml:space="preserve">engraved with</text>
                  </g>
               </g>
            </g>
         </g>
      </g>
   </svg>
</svg>
