<?xml version="1.0" encoding="UTF-8" standalone="no"?>
<svg width="2100px" height="2970px" version="1.1" xmlns="http://www.w3.org/2000/svg" xmlns:xlink="http://www.w3.org/1999/xlink" xmlns:mei="http://www.music-encoding.org/ns/mei" overflow="visible">
   <desc>Engraved by Verovio 3.13.1</desc>
   <defs>
      <symbol id="E044-1hoka4y" viewBox="0 0 1000 1000" overflow="inherit">
         <path transform="scale(1,-1)" d="M0 0c0 28 22 50 50 50s50 -22 50 -50s-22 -50 -50 -50s-50 22 -50 50z" />
      </symbol>
      <symbol id="E050-1hoka4y" viewBox="0 0 1000 1000" overflow="inherit">
         <path transform="scale(1,-1)" d="M441 -245c-23 -4 -48 -6 -76 -6c-59 0 -102 7 -130 20c-88 42 -150 93 -187 154c-26 44 -43 103 -48 176c0 6 -1 13 -1 19c0 54 15 111 45 170c29 57 65 106 110 148s96 85 153 127c-3 16 -8 46 -13 92c-4 43 -5 73 -5 89c0 117 16 172 69 257c34 54 64 82 89 82 c21 0 43 -30 69 -92s39 -115 41 -159v-15c0 -109 -21 -162 -67 -241c-13 -20 -63 -90 -98 -118c-13 -9 -25 -19 -37 -29l31 -181c8 1 18 2 28 2c58 0 102 -12 133 -35c59 -43 92 -104 98 -184c1 -7 1 -15 1 -22c0 -123 -87 -209 -181 -248c8 -57 17 -110 25 -162 c5 -31 6 -58 6 -80c0 -30 -5 -53 -14 -70c-35 -64 -88 -99 -158 -103c-5 0 -11 -1 -16 -1c-37 0 -72 10 -108 27c-50 24 -77 59 -80 105v11c0 29 7 55 20 76c18 28 45 42 79 44h6c49 0 93 -42 97 -87v-9c0 -51 -34 -86 -105 -106c17 -24 51 -36 102 -36c62 0 116 43 140 85 c9 16 13 41 13 74c0 20 -1 42 -5 67c-8 53 -18 106 -26 159zM461 939c-95 0 -135 -175 -135 -286c0 -24 2 -48 5 -71c50 39 92 82 127 128c40 53 60 100 60 140v8c-4 53 -22 81 -55 81h-2zM406 119l54 -326c73 25 110 78 110 161c0 7 0 15 -1 23c-7 95 -57 142 -151 142h-12 zM382 117c-72 -2 -128 -47 -128 -120v-7c2 -46 43 -99 75 -115c-3 -2 -7 -5 -10 -10c-70 33 -116 88 -123 172v11c0 68 44 126 88 159c23 17 49 29 78 36l-29 170c-21 -13 -52 -37 -92 -73c-50 -44 -86 -84 -109 -119c-45 -69 -67 -130 -67 -182v-13c5 -68 35 -127 93 -176 s125 -73 203 -73c25 0 50 3 75 9c-19 111 -36 221 -54 331z" />
      </symbol>
      <symbol id="E082-1hoka4y" viewBox="0 0 1000 1000" overflow="inherit">
         <path transform="scale(1,-1)" d="M124 -185c-18 0 -55 -14 -65 -65h-36l-3 30c0 25 6 45 18 63c11 19 22 30 39 43l121 82l37 29c15 11 27 29 38 54c12 24 18 47 18 70c0 40 -19 88 -94 88c-25 0 -32 0 -50 -8c-14 -5 -23 -12 -26 -22c3 -9 7 -15 10 -18l24 -17c12 -7 17 -11 27 -21c5 -7 7 -16 7 -27 c0 -12 0 -57 -79 -74c-30 0 -76 26 -76 94c0 66 81 135 197 135c72 0 181 -32 181 -150c0 -53 -32 -95 -113 -133l-91 -41c-26 -11 -45 -23 -57 -37l49 7c84 0 115 -41 148 -41c20 0 33 20 39 61h35c0 -152 -68 -168 -114 -168c-17 0 -65 0 -79 7h10l-28 17 c-49 37 -69 40 -87 42z" />
      </symbol>
      <symbol id="E084-1hoka4y" viewBox="0 0 1000 1000" overflow="inherit">
         <path transform="scale(1,-1)" d="M20 -78c84 97 114 180 134 329h170c-13 -32 -82 -132 -99 -151l-84 -97c-33 -36 -59 -63 -80 -81h162v102l127 123v-225h57v-39h-57v-34c0 -43 19 -65 57 -65v-34h-244v36c48 0 60 26 60 70v27h-203v39z" />
      </symbol>
      <symbol id="E0A4-1hoka4y" viewBox="0 0 1000 1000" overflow="inherit">
         <path transform="scale(1,-1)" d="M0 -39c0 68 73 172 200 172c66 0 114 -37 114 -95c0 -84 -106 -171 -218 -171c-64 0 -96 30 -96 94z" />
      </symbol>
   </defs>
   <style type="text/css">g.page-margin{font-family:Times;} g.ending, g.fing, g.reh, g.tempo{font-weight:bold;} g.dir, g.dynam, g.mNum{font-style:italic;} g.label{font-weight:normal;}</style>
   <svg class="definition-scale" color="black" viewBox="0 0 21000 29700">
      <g class="page-margin" transform="translate(500, 500)">
         <g id="m1k9nnaq" class="mdiv pageMilestone" />
         <g id="sou35pe" class="score pageMilestone" />
         <g id="s1u4ub0c" class="system">
            <g id="l1dn7bde" class="label">
               <text x="1105" y="1535" text-anchor="end" font-size="0px">
                  <tspan id="t1290abj" class="text">
                     <tspan font-size="405px" class="text">Piano</tspan>
                  </tspan>
               </text>
            </g>
            <g id="sldhjoo" class="section systemMilestone" />
            <g id="p1iqepha" class="pb" />
            <g id="m1on0u8e" class="measure">
               <g id="s1os79w" class="staff">
                  <path d="M1285 1085 L5030 1085" stroke="currentColor" stroke-width="13" />
                  <path d="M1285 1265 L5030 1265" stroke="currentColor" stroke-width="13" />
                  <path d="M1285 1445 L5030 1445" stroke="currentColor" stroke-width="13" />
                  <path d="M1285 1625 L5030 1625" stroke="currentColor" stroke-width="13" />
                  <path d="M1285 1805 L5030 1805" stroke="currentColor" stroke-width="13" />
                  <g id="cgulmwv" class="clef">
                     <use xlink:href="#E050-1hoka4y" x="1375" y="1625" height="720px" width="720px" />
                  </g>
                  <g id="ko78l2e" class="keySig" />
                  <g id="m1ppq5gp" class="meterSig">
                     <use xlink:href="#E082-1hoka4y" x="2006" y="1265" height="720px" width="720px" />
                     <use xlink:href="#E084-1hoka4y" x="2011" y="1625" height="720px" width="720px" />
                  </g>
                  <g id="l1odkxhm" class="layer">
                     <g id="b1ric0ql" class="beam">
                        <polygon points="2582,1850 3536,1850 3536,1760 2582,1760" />
                        <polygon points="3153,1715 3536,1715 3536,1625 3153,1625" />
                        <g id="n13bxhck" class="note">
                           <g class="notehead">
                              <use xlink:href="#E0A4-1hoka4y" x="2582" y="1265" height="720px" width="720px" />
                           </g>
                           <g id="sv5y2qj" class="stem">
                              <rect x="2582" y="1293" height="539" width="18" />
                           </g>
                        </g>
                        <g id="n5eql7c" class="note">
                           <g class="notehead">
                              <use xlink:href="#E0A4-1hoka4y" x="3144" y="1265" height="720px" width="720px" />
                           </g>
                           <g id="s1ikkv2n" class="stem">
                              <rect x="3144" y="1293" height="539" width="18" />
                           </g>
                        </g>
                        <g id="n1uoub7j" class="note">
                           <g class="notehead">
                              <use xlink:href="#E0A4-1hoka4y" x="3518" y="1175" height="720px" width="720px" />
                           </g>
                           <g id="s1hgtgva" class="stem">
                              <rect x="3518" y="1203" height="629" width="18" />
                           </g>
                        </g>
                     </g>
                     <g id="bn3edr9" class="beam">
                        <polygon points="3893,1670 4473,1850 4473,1760 3893,1580" />
                        <g id="n14vzlkk" class="note">
                           <g class="notehead">
                              <use xlink:href="#E0A4-1hoka4y" x="3893" y="1085" height="720px" width="720px" />
                           </g>
                           <g id="sps5s4d" class="stem">
                              <rect x="3893" y="1113" height="539" width="18" />
                           </g>
                        </g>
                        <g id="nax9bo6" class="note">
                           <g class="notehead">
                              <use xlink:href="#E0A4-1hoka4y" x="4455" y="1265" height="720px" width="720px" />
                           </g>
                           <g id="snuq3n4" class="stem">
                              <rect x="4455" y="1293" height="539" width="18" />
                           </g>
                        </g>
                     </g>
                  </g>
               </g>
               <g id="b14j8ruk" class="barLine">
                  <path d="M5017 1085 L5017 1805" stroke="currentColor" stroke-width="27" />
               </g>
            </g>
            <g id="m277gpa" class="measure">
               <g id="s1qijf7" class="staff">
                  <path d="M5030 1085 L7211 1085" stroke="currentColor" stroke-width="13" />
                  <path d="M5030 1265 L7211 1265" stroke="currentColor" stroke-width="13" />
                  <path d="M5030 1445 L7211 1445" stroke="currentColor" stroke-width="13" />
                  <path d="M5030 1625 L7211 1625" stroke="currentColor" stroke-width="13" />
                  <path d="M5030 1805 L7211 1805" stroke="currentColor" stroke-width="13" />
                  <g id="lrs5frc" class="layer">
                     <g id="bmuravw" class="beam">
                        <polygon points="5213,1805 5793,1985 5793,1895 5213,1715" />
                        <g id="n17zrh2h" class="note">
                           <g class="notehead">
                              <use xlink:href="#E0A4-1hoka4y" x="5213" y="1175" height="720px" width="720px" />
                           </g>
                           <g id="s6en0ha" class="stem">
                              <rect x="5213" y="1203" height="584" width="18" />
                           </g>
                        </g>
                        <g id="n1vj9g56" class="note">
                           <g class="notehead">
                              <use xlink:href="#E0A4-1hoka4y" x="5775" y="1355" height="720px" width="720px" />
                           </g>
                           <g id="sh6t6ju" class="stem">
                              <rect x="5775" y="1383" height="584" width="18" />
                           </g>
                        </g>
                     </g>
                     <g id="njirdfy" class="note">
                        <g class="notehead">
                           <use xlink:href="#E0A4-1hoka4y" x="6337" y="1265" height="720px" width="720px" />
                        </g>
                        <g id="soxkfwg" class="stem">
                           <rect x="6337" y="1293" height="602" width="18" />
                        </g>
                     </g>
                  </g>
               </g>
               <g id="b1js87cg" class="barLine">
                  <path d="M7198 1085 L7198 1805" stroke="currentColor" stroke-width="27" />
               </g>
            </g>
            <g id="m14tjbbl" class="measure">
               <g id="s1u4aili" class="staff">
                  <path d="M7211 1085 L10029 1085" stroke="currentColor" stroke-width="13" />
                  <path d="M7211 1265 L10029 1265" stroke="currentColor" stroke-width="13" />
                  <path d="M7211 1445 L10029 1445" stroke="currentColor" stroke-width="13" />
                  <path d="M7211 1625 L10029 1625" stroke="currentColor" stroke-width="13" />
                  <path d="M7211 1805 L10029 1805" stroke="currentColor" stroke-width="13" />
                  <g id="lulpj65" class="layer">
                     <g id="b11a2k77" class="beam">
                        <polygon points="7394,1850 8348,1850 8348,1760 7394,1760" />
                        <polygon points="7965,1715 8348,1715 8348,1625 7965,1625" />
                        <g id="n6cpxr4" class="note">
                           <g class="notehead">
                              <use xlink:href="#E0A4-1hoka4y" x="7394" y="1265" height="720px" width="720px" />
                           </g>
                           <g id="skgt2a3" class="stem">
                              <rect x="7394" y="1293" height="539" width="18" />
                           </g>
                        </g>
                        <g id="n1kx9mc9" class="note">
                           <g class="notehead">
                              <use xlink:href="#E0A4-1hoka4y" x="7956" y="1265" height="720px" width="720px" />
                           </g>
                           <g id="s5wnppr" class="stem">
                              <rect x="7956" y="1293" height="539" width="18" />
                           </g>
                        </g>
                        <g id="n13qplwo" class="note">
                           <g class="notehead">
                              <use xlink:href="#E0A4-1hoka4y" x="8330" y="1175" height="720px" width="720px" />
                           </g>
                           <g id="s1gdi6f5" class="stem">
                              <rect x="8330" y="1203" height="629" width="18" />
                           </g>
                        </g>
                     </g>
                     <g id="bndg3z4" class="beam">
                        <polygon points="8705,1715 9660,1805 9660,1715 8705,1625" />
                        <polygon points="9276,1634 9660,1670 9660,1580 9276,1544" />
                        <g id="n2dul2a" class="note">
                           <g class="notehead">
                              <use xlink:href="#E0A4-1hoka4y" x="8705" y="1085" height="720px" width="720px" />
                           </g>
                           <g id="svsu6dq" class="stem">
                              <rect x="8705" y="1113" height="584" width="18" />
                           </g>
                        </g>
                        <g id="n1dy5dol" class="note">
                           <g class="notehead">
                              <use xlink:href="#E0A4-1hoka4y" x="9267" y="1085" height="720px" width="720px" />
                           </g>
                           <g id="s1idg4vp" class="stem">
                              <rect x="9267" y="1113" height="638" width="18" />
                           </g>
                        </g>
                        <g id="n1j1a2v2" class="note">
                           <g class="notehead">
                              <use xlink:href="#E0A4-1hoka4y" x="9642" y="1175" height="720px" width="720px" />
                           </g>
                           <g id="s192fgg6" class="stem">
                              <rect x="9642" y="1203" height="584" width="18" />
                           </g>
                        </g>
                     </g>
                  </g>
               </g>
               <g id="b87ml9z" class="barLine">
                  <path d="M10016 1085 L10016 1805" stroke="currentColor" stroke-width="27" />
               </g>
            </g>
            <g id="mfwojv4" class="measure">
               <g id="s1u8v3ni" class="staff">
                  <path d="M10029 1085 L12372 1085" stroke="currentColor" stroke-width="13" />
                  <path d="M10029 1265 L12372 1265" stroke="currentColor" stroke-width="13" />
                  <path d="M10029 1445 L12372 1445" stroke="currentColor" stroke-width="13" />
                  <path d="M10029 1625 L12372 1625" stroke="currentColor" stroke-width="13" />
                  <path d="M10029 1805 L12372 1805" stroke="currentColor" stroke-width="13" />
                  <g id="l1icspia" class="layer">
                     <g id="b124gmdp" class="beam">
                        <polygon points="10212,1895 10792,1985 10792,1895 10212,1805" />
                        <g id="n1w97st5" class="note">
                           <g class="notehead">
                              <use xlink:href="#E0A4-1hoka4y" x="10212" y="1265" height="720px" width="720px" />
                           </g>
                           <g id="s9b2fvf" class="stem">
                              <rect x="10212" y="1293" height="584" width="18" />
                           </g>
                        </g>
                        <g id="n1jezlgj" class="note">
                           <g class="notehead">
                              <use xlink:href="#E0A4-1hoka4y" x="10774" y="1355" height="720px" width="720px" />
                           </g>
                           <g id="s1hh10z3" class="stem">
                              <rect x="10774" y="1383" height="584" width="18" />
                           </g>
                        </g>
                     </g>
                     <g id="nd0uayx" class="note">
                        <g class="notehead">
                           <use xlink:href="#E0A4-1hoka4y" x="11336" y="1265" height="720px" width="720px" />
                        </g>
                        <g id="s1wdurqh" class="stem">
                           <rect x="11336" y="1293" height="602" width="18" />
                        </g>
                     </g>
                  </g>
               </g>
               <g id="b1p3kheh" class="barLine">
                  <path d="M12197 1085 L12197 1805" stroke="currentColor" stroke-width="27" />
                  <path d="M12327 1085 L12327 1805" stroke="currentColor" stroke-width="90" />
                  <use xlink:href="#E044-1hoka4y" x="12080" y="1355" height="720px" width="720px" />
                  <use xlink:href="#E044-1hoka4y" x="12080" y="1535" height="720px" width="720px" />
               </g>
            </g>
            <g id="mv2lh9r" class="measure">
               <g id="svx9thb" class="staff">
                  <path d="M12372 1085 L15003 1085" stroke="currentColor" stroke-width="13" />
                  <path d="M12372 1265 L15003 1265" stroke="currentColor" stroke-width="13" />
                  <path d="M12372 1445 L15003 1445" stroke="currentColor" stroke-width="13" />
                  <path d="M12372 1625 L15003 1625" stroke="currentColor" stroke-width="13" />
                  <path d="M12372 1805 L15003 1805" stroke="currentColor" stroke-width="13" />
                  <g id="l1o90mdg" class="layer">
                     <g id="b1mwaasg" class="beam">
                        <polygon points="12555,1850 13509,1850 13509,1760 12555,1760" />
                        <polygon points="13126,1715 13509,1715 13509,1625 13126,1625" />
                        <g id="n9kvxpa" class="note">
                           <g class="notehead">
                              <use xlink:href="#E0A4-1hoka4y" x="12555" y="1265" height="720px" width="720px" />
                           </g>
                           <g id="s15s2f8b" class="stem">
                              <rect x="12555" y="1293" height="539" width="18" />
                           </g>
                        </g>
                        <g id="n28waav" class="note">
                           <g class="notehead">
                              <use xlink:href="#E0A4-1hoka4y" x="13117" y="1265" height="720px" width="720px" />
                           </g>
                           <g id="s1e5vqio" class="stem">
                              <rect x="13117" y="1293" height="539" width="18" />
                           </g>
                        </g>
                        <g id="n1lw5ukh" class="note">
                           <g class="notehead">
                              <use xlink:href="#E0A4-1hoka4y" x="13491" y="1175" height="720px" width="720px" />
                           </g>
                           <g id="s1lknw9q" class="stem">
                              <rect x="13491" y="1203" height="629" width="18" />
                           </g>
                        </g>
                     </g>
                     <g id="b195qnvu" class="beam">
                        <polygon points="13866,1670 14446,1670 14446,1580 13866,1580" />
                        <g id="n1cnkvci" class="note">
                           <g class="notehead">
                              <use xlink:href="#E0A4-1hoka4y" x="13866" y="1085" height="720px" width="720px" />
                           </g>
                           <g id="sd8ztci" class="stem">
                              <rect x="13866" y="1113" height="539" width="18" />
                           </g>
                        </g>
                        <g id="nyt9ipe" class="note">
                           <g class="notehead">
                              <use xlink:href="#E0A4-1hoka4y" x="14428" y="1085" height="720px" width="720px" />
                           </g>
                           <g id="s1m83wxz" class="stem">
                              <rect x="14428" y="1113" height="539" width="18" />
                           </g>
                        </g>
                     </g>
                  </g>
               </g>
               <g id="b1891ovk" class="barLine">
                  <path d="M14990 1085 L14990 1805" stroke="currentColor" stroke-width="27" />
               </g>
            </g>
            <g id="mrcjh9e" class="measure">
               <g id="s1v8crgw" class="staff">
                  <path d="M15003 1085 L17184 1085" stroke="currentColor" stroke-width="13" />
                  <path d="M15003 1265 L17184 1265" stroke="currentColor" stroke-width="13" />
                  <path d="M15003 1445 L17184 1445" stroke="currentColor" stroke-width="13" />
                  <path d="M15003 1625 L17184 1625" stroke="currentColor" stroke-width="13" />
                  <path d="M15003 1805 L17184 1805" stroke="currentColor" stroke-width="13" />
                  <g class="ledgerLines above">
                     <path d="M16262 905 L16584 905" stroke="currentColor" stroke-width="22" />
                  </g>
                  <g id="l1iaie30" class="layer">
                     <g id="bv60i35" class="beam">
                        <polygon points="15186,1715 15766,1625 15766,1535 15186,1625" />
                        <g id="nwkzql8" class="note">
                           <g class="notehead">
                              <use xlink:href="#E0A4-1hoka4y" x="15186" y="1085" height="720px" width="720px" />
                           </g>
                           <g id="skzab70" class="stem">
                              <rect x="15186" y="1113" height="584" width="18" />
                           </g>
                        </g>
                        <g id="n4yw05k" class="note">
                           <g class="notehead">
                              <use xlink:href="#E0A4-1hoka4y" x="15748" y="995" height="720px" width="720px" />
                           </g>
                           <g id="s176yn1e" class="stem">
                              <rect x="15748" y="1023" height="584" width="18" />
                           </g>
                        </g>
                     </g>
                     <g id="n374ccy" class="note">
                        <g class="notehead">
                           <use xlink:href="#E0A4-1hoka4y" x="16310" y="905" height="720px" width="720px" />
                        </g>
                        <g id="sodv7p9" class="stem">
                           <rect x="16310" y="933" height="602" width="18" />
                        </g>
                     </g>
                  </g>
               </g>
               <g id="b1h2hffh" class="barLine">
                  <path d="M17171 1085 L17171 1805" stroke="currentColor" stroke-width="27" />
               </g>
            </g>
            <g id="m154lfru" class="measure">
               <g id="s2ve92k" class="staff">
                  <path d="M17184 1085 L20002 1085" stroke="currentColor" stroke-width="13" />
                  <path d="M17184 1265 L20002 1265" stroke="currentColor" stroke-width="13" />
                  <path d="M17184 1445 L20002 1445" stroke="currentColor" stroke-width="13" />
                  <path d="M17184 1625 L20002 1625" stroke="currentColor" stroke-width="13" />
                  <path d="M17184 1805 L20002 1805" stroke="currentColor" stroke-width="13" />
                  <g id="l12hqoxu" class="layer">
                     <g id="b7n2nun" class="beam">
                        <polygon points="17367,1850 18321,1850 18321,1760 17367,1760" />
                        <polygon points="17938,1715 18321,1715 18321,1625 17938,1625" />
                        <g id="nd8weuw" class="note">
                           <g class="notehead">
                              <use xlink:href="#E0A4-1hoka4y" x="17367" y="1265" height="720px" width="720px" />
                           </g>
                           <g id="s1k790wb" class="stem">
                              <rect x="17367" y="1293" height="539" width="18" />
                           </g>
                        </g>
                        <g id="nrl0htj" class="note">
                           <g class="notehead">
                              <use xlink:href="#E0A4-1hoka4y" x="17929" y="1265" height="720px" width="720px" />
                           </g>
                           <g id="s1svfogh" class="stem">
                              <rect x="17929" y="1293" height="539" width="18" />
                           </g>
                        </g>
                        <g id="n173l93p" class="note">
                           <g class="notehead">
                              <use xlink:href="#E0A4-1hoka4y" x="18303" y="1175" height="720px" width="720px" />
                           </g>
                           <g id="svgi78z" class="stem">
                              <rect x="18303" y="1203" height="629" width="18" />
                           </g>
                        </g>
                     </g>
                     <g id="bce9etq" class="beam">
                        <polygon points="18678,1895 19633,1985 19633,1895 18678,1805" />
                        <polygon points="19249,1814 19633,1850 19633,1760 19249,1724" />
                        <g id="n6nth66" class="note">
                           <g class="notehead">
                              <use xlink:href="#E0A4-1hoka4y" x="18678" y="1265" height="720px" width="720px" />
                           </g>
                           <g id="s177gggn" class="stem">
                              <rect x="18678" y="1293" height="584" width="18" />
                           </g>
                        </g>
                        <g id="n14gdhjo" class="note">
                           <g class="notehead">
                              <use xlink:href="#E0A4-1hoka4y" x="19240" y="1265" height="720px" width="720px" />
                           </g>
                           <g id="s1677vth" class="stem">
                              <rect x="19240" y="1293" height="638" width="18" />
                           </g>
                        </g>
                        <g id="n99nfog" class="note">
                           <g class="notehead">
                              <use xlink:href="#E0A4-1hoka4y" x="19615" y="1355" height="720px" width="720px" />
                           </g>
                           <g id="s1o3zlqr" class="stem">
                              <rect x="19615" y="1383" height="584" width="18" />
                           </g>
                        </g>
                     </g>
                  </g>
               </g>
               <g id="b1vuekr" class="barLine">
                  <path d="M19989 1085 L19989 1805" stroke="currentColor" stroke-width="27" />
               </g>
            </g>
         </g>
         <g id="snazg01" class="system">
            <g id="lb996h3" class="labelAbbr">
               <text x="914" y="3884" text-anchor="end" font-size="0px">
                  <tspan id="t6qqy00" class="text">
                     <tspan font-size="405px" class="text">Pno.</tspan>
                  </tspan>
               </text>
            </g>
            <g id="m1ve9q7a" class="measure">
               <g id="mndj2a2" class="mNum autogenerated">
                  <text x="1094" y="3191" text-anchor="middle" font-size="0px">
                     <tspan id="t1ig2u1q" class="text">
                        <tspan font-size="324px" class="text">8</tspan>
                     </tspan>
                  </text>
               </g>
               <g id="sg8me2" class="staff">
                  <path d="M1094 3434 L4337 3434" stroke="currentColor" stroke-width="13" />
                  <path d="M1094 3614 L4337 3614" stroke="currentColor" stroke-width="13" />
                  <path d="M1094 3794 L4337 3794" stroke="currentColor" stroke-width="13" />
                  <path d="M1094 3974 L4337 3974" stroke="currentColor" stroke-width="13" />
                  <path d="M1094 4154 L4337 4154" stroke="currentColor" stroke-width="13" />
                  <g id="c1aj3log" class="clef">
                     <use xlink:href="#E050-1hoka4y" x="1184" y="3974" height="720px" width="720px" />
                  </g>
                  <g id="k1e3j5yq" class="keySig" />
                  <g id="l1lbal6b" class="layer">
                     <g id="buqzwft" class="beam">
                        <polygon points="1919,4199 2492,4199 2492,4109 1919,4109" />
                        <g id="n1kweoxq" class="note">
                           <g class="notehead">
                              <use xlink:href="#E0A4-1hoka4y" x="1919" y="3614" height="720px" width="720px" />
                           </g>
                           <g id="srvvmn9" class="stem">
                              <rect x="1919" y="3642" height="539" width="18" />
                           </g>
                        </g>
                        <g id="nee3vrz" class="note">
                           <g class="notehead">
                              <use xlink:href="#E0A4-1hoka4y" x="2474" y="3614" height="720px" width="720px" />
                           </g>
                           <g id="sgrrxj3" class="stem">
                              <rect x="2474" y="3642" height="539" width="18" />
                           </g>
                        </g>
                     </g>
                     <g id="bbeafe0" class="beam">
                        <polygon points="3029,4424 3972,4424 3972,4334 3029,4334" />
                        <polygon points="3593,4289 3972,4289 3972,4199 3593,4199" />
                        <g id="n40zt5y" class="note">
                           <g class="notehead">
                              <use xlink:href="#E0A4-1hoka4y" x="3029" y="3884" height="720px" width="720px" />
                           </g>
                           <g id="s1ulelff" class="stem">
                              <rect x="3029" y="3912" height="494" width="18" />
                           </g>
                        </g>
                        <g id="n13vzr92" class="note">
                           <g class="notehead">
                              <use xlink:href="#E0A4-1hoka4y" x="3584" y="3794" height="720px" width="720px" />
                           </g>
                           <g id="sgw5y54" class="stem">
                              <rect x="3584" y="3822" height="584" width="18" />
                           </g>
                        </g>
                        <g id="n1wlmujv" class="note">
                           <g class="notehead">
                              <use xlink:href="#E0A4-1hoka4y" x="3954" y="3704" height="720px" width="720px" />
                           </g>
                           <g id="su8lgtg" class="stem">
                              <rect x="3954" y="3732" height="674" width="18" />
                           </g>
                        </g>
                     </g>
                  </g>
               </g>
               <g id="b8ugv0c" class="barLine">
                  <path d="M4324 3434 L4324 4154" stroke="currentColor" stroke-width="27" />
               </g>
            </g>
            <g id="s1515yfh" class="sb" />
            <g id="m1pcotqw" class="measure">
               <g id="s1bi31j0" class="staff">
                  <path d="M4337 3434 L7120 3434" stroke="currentColor" stroke-width="13" />
                  <path d="M4337 3614 L7120 3614" stroke="currentColor" stroke-width="13" />
                  <path d="M4337 3794 L7120 3794" stroke="currentColor" stroke-width="13" />
                  <path d="M4337 3974 L7120 3974" stroke="currentColor" stroke-width="13" />
                  <path d="M4337 4154 L7120 4154" stroke="currentColor" stroke-width="13" />
                  <g id="l17w2i95" class="layer">
                     <g id="bb2v68y" class="beam">
                        <polygon points="4517,4199 5460,4199 5460,4109 4517,4109" />
                        <polygon points="5081,4064 5460,4064 5460,3974 5081,3974" />
                        <g id="n11wm5w9" class="note">
                           <g class="notehead">
                              <use xlink:href="#E0A4-1hoka4y" x="4517" y="3614" height="720px" width="720px" />
                           </g>
                           <g id="s10aqa8u" class="stem">
                              <rect x="4517" y="3642" height="539" width="18" />
                           </g>
                        </g>
                        <g id="ngms4vq" class="note">
                           <g class="notehead">
                              <use xlink:href="#E0A4-1hoka4y" x="5072" y="3614" height="720px" width="720px" />
                           </g>
                           <g id="s1r8a62x" class="stem">
                              <rect x="5072" y="3642" height="539" width="18" />
                           </g>
                        </g>
                        <g id="n161txvz" class="note">
                           <g class="notehead">
                              <use xlink:href="#E0A4-1hoka4y" x="5442" y="3524" height="720px" width="720px" />
                           </g>
                           <g id="s1ks6sqi" class="stem">
                              <rect x="5442" y="3552" height="629" width="18" />
                           </g>
                        </g>
                     </g>
                     <g id="bhu2izp" class="beam">
                        <polygon points="5812,4244 6755,4334 6755,4244 5812,4154" />
                        <polygon points="6376,4163 6755,4199 6755,4109 6376,4073" />
                        <g id="n1agkezl" class="note">
                           <g class="notehead">
                              <use xlink:href="#E0A4-1hoka4y" x="5812" y="3614" height="720px" width="720px" />
                           </g>
                           <g id="sf8j3ih" class="stem">
                              <rect x="5812" y="3642" height="584" width="18" />
                           </g>
                        </g>
                        <g id="n1oiulxd" class="note">
                           <g class="notehead">
                              <use xlink:href="#E0A4-1hoka4y" x="6367" y="3614" height="720px" width="720px" />
                           </g>
                           <g id="srxoy7k" class="stem">
                              <rect x="6367" y="3642" height="638" width="18" />
                           </g>
                        </g>
                        <g id="nbdxbtc" class="note">
                           <g class="notehead">
                              <use xlink:href="#E0A4-1hoka4y" x="6737" y="3704" height="720px" width="720px" />
                           </g>
                           <g id="srhc3zy" class="stem">
                              <rect x="6737" y="3732" height="584" width="18" />
                           </g>
                        </g>
                     </g>
                  </g>
               </g>
               <g id="bkltlp4" class="barLine">
                  <path d="M7107 3434 L7107 4154" stroke="currentColor" stroke-width="27" />
               </g>
            </g>
            <g id="mxw24t4" class="measure">
               <g id="s1yxvk0a" class="staff">
                  <path d="M7120 3434 L9436 3434" stroke="currentColor" stroke-width="13" />
                  <path d="M7120 3614 L9436 3614" stroke="currentColor" stroke-width="13" />
                  <path d="M7120 3794 L9436 3794" stroke="currentColor" stroke-width="13" />
                  <path d="M7120 3974 L9436 3974" stroke="currentColor" stroke-width="13" />
                  <path d="M7120 4154 L9436 4154" stroke="currentColor" stroke-width="13" />
                  <g id="l13nmqp1" class="layer">
                     <g id="b8i1nmc" class="beam">
                        <polygon points="7300,4244 7873,4424 7873,4334 7300,4154" />
                        <g id="n1pkqxwc" class="note">
                           <g class="notehead">
                              <use xlink:href="#E0A4-1hoka4y" x="7300" y="3614" height="720px" width="720px" />
                           </g>
                           <g id="s19hse77" class="stem">
                              <rect x="7300" y="3642" height="584" width="18" />
                           </g>
                        </g>
                        <g id="n14rj7tf" class="note">
                           <g class="notehead">
                              <use xlink:href="#E0A4-1hoka4y" x="7855" y="3884" height="720px" width="720px" />
                           </g>
                           <g id="s3ds5za" class="stem">
                              <rect x="7855" y="3912" height="494" width="18" />
                           </g>
                        </g>
                     </g>
                     <g id="n15kmwt8" class="note">
                        <g class="notehead">
                           <use xlink:href="#E0A4-1hoka4y" x="8410" y="3614" height="720px" width="720px" />
                        </g>
                        <g id="s1u4gnkq" class="stem">
                           <rect x="8410" y="3642" height="602" width="18" />
                        </g>
                     </g>
                  </g>
               </g>
               <g id="bvefgl9" class="barLine">
                  <path d="M9261 3434 L9261 4154" stroke="currentColor" stroke-width="27" />
                  <path d="M9391 3434 L9391 4154" stroke="currentColor" stroke-width="90" />
               </g>
            </g>
            <g id="s1v2m6wk" class="systemMilestoneEnd sldhjoo" />
         </g>
         <g id="psj09lv" class="pageMilestoneEnd sou35pe" />
         <g id="p51agvq" class="pageMilestoneEnd m1k9nnaq" />
         <g id="p1vof85h" class="pgHead">
            <text x="0" y="0" font-size="0px">
               <tspan id="rp58vgr" class="rend" x="10000" y="277" text-anchor="middle">
                  <tspan id="t1uz05yh" class="text">
                     <tspan font-size="405px" class="text">Air n 119</tspan>
                  </tspan>
               </tspan>
            </text>
         </g>
         <g id="p1f1r85s" class="pgFoot autogenerated">
            <g id="fgnk95o" class="fig">
               <g id="sx13od4" class="svg" transform="translate(7750, 28099) scale(10, 10)">
                  <g>
                     <path fill="#00000" d="M 17.11278,49.26451 V 10.367554 h 12.696511 c 3.288815,7.336676 6.71267,14.610456 10.127281,21.888976 3.419998,-7.484684 6.255515,-14.204887 9.58887,-21.909915 2.436207,0.103726 4.316952,0.08453 6.484294,-0.05808 V 49.264423 H 50.274275 C 50.145222,38.35639 50.016136,27.448368 49.887066,16.540329 45.003488,27.315459 39.967448,38.433564 35.083854,49.208695 34.678996,49.343717 34.426583,49.135619 34.021726,49.270644 29.46588,39.330716 24.910049,29.390805 20.354201,19.450876 20.224341,29.388756 20.09461,39.326619 19.964815,49.264497 H 17.11278 Z M 36.754144,39.324695 C 32.721221,30.512695 28.6883,21.700679 24.655394,12.888662 22.530527,12.750737 22.656775,12.71031 20.714356,12.813974 v 0.966497 c 4.612938,9.99784 9.609439,20.748709 13.87298,30.081745 0.722248,-1.512523 1.444528,-3.025014 2.166808,-4.537521 z m 25.738417,9.939815 c 0,-12.965651 0,-25.931305 0,-38.896956 10.084388,0 20.168791,0 30.253178,0 0,0.960416 0,1.920849 0,2.881265 -6.482825,0 -12.965652,0 -19.448478,0 0,4.802097 0,9.604178 0,14.406277 5.52241,0 11.044819,0 16.567229,0 0,0.960415 0,1.920832 0,2.881248 -5.52241,0 -11.044819,0 -16.567229,0 0,5.282306 0,10.564611 0,15.846917 6.963035,0 13.926068,0 20.889103,0 0,0.960416 0,1.920832 0,2.881249 -10.564597,0 -21.129207,0 -31.693803,0 z m 4.321874,-2.160937 c 0,-11.765131 0,-23.530263 0,-35.295394 -0.720312,0 -1.440625,0 -2.160937,0 0,11.765131 0,23.530263 0,35.295394 0.720312,0 1.440625,0 2.160937,0 z m 32.41413,2.160937 c 0,-12.965651 0,-25.931305 0,-38.896956 2.401045,0 4.802095,0 7.203135,0 0,12.965651 0,25.931305 0,38.896956 -2.40104,0 -4.80209,0 -7.203135,0 z m 2.881265,-2.160937 c 0,-11.765131 0,-23.530263 0,-35.295394 -0.72031,0 -1.44064,0 -2.160953,0 0,11.765131 0,23.530263 0,35.295394 0.720313,0 1.440643,0 2.160953,0 z" />
                     <path fill="#00000" d="m 346.3,6.7 c -3.1,0.5 -4.9,4.4 -2.7,6.8 1.2,1.4 2.7,2.4 4.1,3.5 -2.4,5.3 -7.7,8.3 -11.9,12.1 -3.7,2.8 -7,6.2 -9.7,9.9 -2.2,-0.8 -0.3,-6.8 -0.6,-9.5 0.1,-3.1 0.7,-6.4 2.9,-8.7 1.3,-1.9 3,-3.5 4.5,-5.2 1.2,-3.4 -3.2,-4.9 -5.8,-4.6 -7.3,-0.5 -14.6,2 -20,6.8 -5,4.6 -10,10.1 -11.5,17 -0.9,3.5 -0.2,7.5 2.8,9.9 2.5,2.8 7.4,2.9 9.8,-0.2 1.7,-2.3 3.2,-4.8 3.8,-7.6 -0.1,-2.6 -4.4,-2.3 -4.3,0.2 1.2,2.4 -0.9,4.7 -2.7,6.2 -1.7,0.9 -4.7,0.7 -4.8,-1.7 -1,-5.8 2.1,-11.3 5.2,-16.1 4,-5.8 9.8,-11.2 17.2,-11.8 1.6,0 8.1,-1.2 6.8,1.4 -2.8,2.8 -5.6,6.1 -6,10.3 -1.6,7.7 0.1,15.7 -2.3,23.2 -1.1,3.9 2,2.6 2.5,0.2 3.3,-7.4 8.9,-13.4 15.1,-18.5 4.2,-3.9 9.5,-7.1 11.9,-12.6 1.3,-3.6 1.2,-9 -2.7,-10.9 -0.6,-0.2 -1.2,-0.3 -1.8,-0.3 z m 66,14.5 c -2,0.8 -1.8,4.9 0.8,4.4 3.4,0.4 2.9,-6.2 -0.8,-4.4 z m 0.6,7.3 c -1.3,0.5 -7.6,0.5 -5.4,2.2 4,-0.3 0.7,4.5 0.6,6.7 -0.4,2.9 -2.4,5.9 -1.2,8.8 2.7,1.7 5.6,-0.8 6.8,-3.2 1.6,-1.4 -0.5,-3 -1.2,-0.9 -0.4,0.8 -2.4,3.5 -2.6,1.8 1.1,-5 2.7,-9.9 3.9,-14.9 l -0.1,-0.5 h -0.9 z m -65.1,0.2 c -6.5,1.6 -10.5,9.5 -8.2,15.7 2.1,3.4 7.4,2.9 10.1,0.4 2,-0.2 3.6,-5.3 1,-3.4 -1.4,2 -4,4.2 -6.5,2.8 -2.2,-1.9 -1.9,-5.7 1.7,-5.3 3.1,-0.9 6.9,-2.1 8.1,-5.5 0.9,-2.7 -1.6,-5.2 -4.3,-4.8 h -1.1 -0.7 z m 13.6,0 c -2.2,0 -8.5,1.8 -2.9,2.3 0.9,1.9 -1,4.9 -1.1,7.2 -0.5,2.9 -1.4,5.7 -1.7,8.7 3.7,0.7 3.8,-2.6 4.4,-5.3 0.9,-3.3 1.6,-7 4.1,-9.5 2.4,1.6 6.8,-0.7 3.7,-3.4 -2.9,-0.5 -4.8,2.4 -6.2,4.3 0,-1.2 2.4,-5 -0.2,-4.3 z m 15.8,0 c -6.4,1.3 -9.6,9.1 -7.7,14.9 1.9,4 7.7,3.9 11,1.7 4.1,-3 6,-8.9 4.4,-13.7 -1.3,-3 -4.8,-3.2 -7.6,-3 z m 17,0 c -2.3,0 -8.8,1.9 -3,2.4 0.4,2.5 -1,5.7 -1.4,8.4 -0.7,2.4 -1.8,7.5 2.1,7.2 3.8,-0.1 6.5,-3.5 8.5,-6.3 2,-3.2 4.5,-7 3.3,-10.9 -3.7,-3 -3.6,2.6 -3.1,5.1 -0.7,3.8 -2.7,7.9 -6.2,9.8 -3.6,0.6 -1,-4.3 -0.8,-6.1 0.6,-3.2 1.6,-6.3 1.9,-9.5 -0.4,0 -0.8,0 -1.1,0 z m 30.6,0 c -6.3,1.2 -9.5,8.9 -7.8,14.7 1.5,4 7.2,4.2 10.5,2.4 4.6,-2.8 6.6,-9.3 4.8,-14.3 -1.4,-2.8 -4.8,-3 -7.5,-2.8 z m -75.4,1.7 c 2.1,1.5 0.2,4.7 -1.6,5.7 -1.1,0.4 -5.5,3.4 -4.6,0.7 0.8,-2.7 2.2,-6.2 5.3,-6.6 l 0.9,0.1 z m 30.8,0 c 2.6,1.5 1.3,5.2 0.8,7.6 -0.8,2.7 -1.9,5.9 -4.7,7.1 -5.1,0.8 -4,-5.8 -2.8,-8.8 1,-2.8 3,-6.8 6.7,-5.8 z m 47.1,-0.1 c 2.9,0.7 2,4.7 1.5,6.8 -0.7,3 -1.8,6.7 -5,8 -4.7,0.8 -4,-5.1 -3,-7.9 0.9,-3 2.7,-7.3 6.5,-6.8 z m -88.1,5.9 c -0.3,1.3 0.9,-0.6 0,0 z m -1.1,2.4 c -0.2,0.5 0.5,-0.1 0,0 z m -1.3,4.5 c -0.3,1.3 0.8,-0.2 0,0 z" />
                     <text y="41" x="201" fill="#00000" style="font-style:italic;font-weight:normal;font-size:30px;line-height:125%;font-family:Times;text-anchor:middle" xml:space="preserve">engraved with</text>
                  </g>
               </g>
            </g>
         </g>
      </g>
   </svg>
</svg>
