<?xml version="1.0" encoding="UTF-8" standalone="no"?>
<svg width="2100px" height="2970px" version="1.1" xmlns="http://www.w3.org/2000/svg" xmlns:xlink="http://www.w3.org/1999/xlink" xmlns:mei="http://www.music-encoding.org/ns/mei" overflow="visible">
   <desc>Engraved by Verovio 3.13.1</desc>
   <defs>
      <symbol id="E240-f9x3ce" viewBox="0 0 1000 1000" overflow="inherit">
         <path transform="scale(1,-1)" d="M179 -646c15 29 29 55 46 102c18 49 30 108 30 138c0 105 -80 173 -168 200c-18 5 -47 9 -87 16v190h22c8 0 33 -61 71 -95c4 -3 -2 3 61 -56c62 -58 122 -137 122 -241c0 -38 -13 -106 -35 -163c-20 -51 -43 -99 -66 -132c-6 -5 -10 -7 -13 -7s-5 2 -5 5l4 10 c1 3 14 25 18 33z" />
      </symbol>
      <symbol id="E262-f9x3ce" viewBox="0 0 1000 1000" overflow="inherit">
         <path transform="scale(1,-1)" d="M136 186v169h17v-164l44 14v-91l-44 -14v-165l44 12v-91l-44 -13v-155h-17v150l-76 -22v-155h-17v149l-43 -13v90l43 14v167l-43 -14v92l43 13v169h17v-163zM60 73v-167l76 22v168z" />
      </symbol>
      <symbol id="E044-f9x3ce" viewBox="0 0 1000 1000" overflow="inherit">
         <path transform="scale(1,-1)" d="M0 0c0 28 22 50 50 50s50 -22 50 -50s-22 -50 -50 -50s-50 22 -50 50z" />
      </symbol>
      <symbol id="E050-f9x3ce" viewBox="0 0 1000 1000" overflow="inherit">
         <path transform="scale(1,-1)" d="M441 -245c-23 -4 -48 -6 -76 -6c-59 0 -102 7 -130 20c-88 42 -150 93 -187 154c-26 44 -43 103 -48 176c0 6 -1 13 -1 19c0 54 15 111 45 170c29 57 65 106 110 148s96 85 153 127c-3 16 -8 46 -13 92c-4 43 -5 73 -5 89c0 117 16 172 69 257c34 54 64 82 89 82 c21 0 43 -30 69 -92s39 -115 41 -159v-15c0 -109 -21 -162 -67 -241c-13 -20 -63 -90 -98 -118c-13 -9 -25 -19 -37 -29l31 -181c8 1 18 2 28 2c58 0 102 -12 133 -35c59 -43 92 -104 98 -184c1 -7 1 -15 1 -22c0 -123 -87 -209 -181 -248c8 -57 17 -110 25 -162 c5 -31 6 -58 6 -80c0 -30 -5 -53 -14 -70c-35 -64 -88 -99 -158 -103c-5 0 -11 -1 -16 -1c-37 0 -72 10 -108 27c-50 24 -77 59 -80 105v11c0 29 7 55 20 76c18 28 45 42 79 44h6c49 0 93 -42 97 -87v-9c0 -51 -34 -86 -105 -106c17 -24 51 -36 102 -36c62 0 116 43 140 85 c9 16 13 41 13 74c0 20 -1 42 -5 67c-8 53 -18 106 -26 159zM461 939c-95 0 -135 -175 -135 -286c0 -24 2 -48 5 -71c50 39 92 82 127 128c40 53 60 100 60 140v8c-4 53 -22 81 -55 81h-2zM406 119l54 -326c73 25 110 78 110 161c0 7 0 15 -1 23c-7 95 -57 142 -151 142h-12 zM382 117c-72 -2 -128 -47 -128 -120v-7c2 -46 43 -99 75 -115c-3 -2 -7 -5 -10 -10c-70 33 -116 88 -123 172v11c0 68 44 126 88 159c23 17 49 29 78 36l-29 170c-21 -13 -52 -37 -92 -73c-50 -44 -86 -84 -109 -119c-45 -69 -67 -130 -67 -182v-13c5 -68 35 -127 93 -176 s125 -73 203 -73c25 0 50 3 75 9c-19 111 -36 221 -54 331z" />
      </symbol>
      <symbol id="E082-f9x3ce" viewBox="0 0 1000 1000" overflow="inherit">
         <path transform="scale(1,-1)" d="M124 -185c-18 0 -55 -14 -65 -65h-36l-3 30c0 25 6 45 18 63c11 19 22 30 39 43l121 82l37 29c15 11 27 29 38 54c12 24 18 47 18 70c0 40 -19 88 -94 88c-25 0 -32 0 -50 -8c-14 -5 -23 -12 -26 -22c3 -9 7 -15 10 -18l24 -17c12 -7 17 -11 27 -21c5 -7 7 -16 7 -27 c0 -12 0 -57 -79 -74c-30 0 -76 26 -76 94c0 66 81 135 197 135c72 0 181 -32 181 -150c0 -53 -32 -95 -113 -133l-91 -41c-26 -11 -45 -23 -57 -37l49 7c84 0 115 -41 148 -41c20 0 33 20 39 61h35c0 -152 -68 -168 -114 -168c-17 0 -65 0 -79 7h10l-28 17 c-49 37 -69 40 -87 42z" />
      </symbol>
      <symbol id="E084-f9x3ce" viewBox="0 0 1000 1000" overflow="inherit">
         <path transform="scale(1,-1)" d="M20 -78c84 97 114 180 134 329h170c-13 -32 -82 -132 -99 -151l-84 -97c-33 -36 -59 -63 -80 -81h162v102l127 123v-225h57v-39h-57v-34c0 -43 19 -65 57 -65v-34h-244v36c48 0 60 26 60 70v27h-203v39z" />
      </symbol>
      <symbol id="E0A3-f9x3ce" viewBox="0 0 1000 1000" overflow="inherit">
         <path transform="scale(1,-1)" d="M278 64c0 22 -17 39 -43 39c-12 0 -26 -3 -41 -10c-85 -43 -165 -94 -165 -156c5 -25 15 -32 49 -32c67 11 200 95 200 159zM0 -36c0 68 73 174 200 174c66 0 114 -39 114 -97c0 -84 -106 -173 -218 -173c-64 0 -96 32 -96 96z" />
      </symbol>
      <symbol id="E0A4-f9x3ce" viewBox="0 0 1000 1000" overflow="inherit">
         <path transform="scale(1,-1)" d="M0 -39c0 68 73 172 200 172c66 0 114 -37 114 -95c0 -84 -106 -171 -218 -171c-64 0 -96 30 -96 94z" />
      </symbol>
   </defs>
   <style type="text/css">g.page-margin{font-family:Times;} g.ending, g.fing, g.reh, g.tempo{font-weight:bold;} g.dir, g.dynam, g.mNum{font-style:italic;} g.label{font-weight:normal;}</style>
   <svg class="definition-scale" color="black" viewBox="0 0 21000 29700">
      <g class="page-margin" transform="translate(500, 500)">
         <g id="mxzp68v" class="mdiv pageMilestone" />
         <g id="s1psc1lc" class="score pageMilestone" />
         <g id="s1wvpp1x" class="system">
            <g id="l11kg9hf" class="label">
               <text x="1105" y="1535" text-anchor="end" font-size="0px">
                  <tspan id="t1ig7lrs" class="text">
                     <tspan font-size="405px" class="text">Piano</tspan>
                  </tspan>
               </text>
            </g>
            <g id="s4b0fzu" class="section systemMilestone" />
            <g id="p1wwdhlm" class="pb" />
            <g id="m6ynhv2" class="measure">
               <g id="snyqv2t" class="staff">
                  <path d="M1285 1085 L5126 1085" stroke="currentColor" stroke-width="13" />
                  <path d="M1285 1265 L5126 1265" stroke="currentColor" stroke-width="13" />
                  <path d="M1285 1445 L5126 1445" stroke="currentColor" stroke-width="13" />
                  <path d="M1285 1625 L5126 1625" stroke="currentColor" stroke-width="13" />
                  <path d="M1285 1805 L5126 1805" stroke="currentColor" stroke-width="13" />
                  <g id="c1v43b3u" class="clef">
                     <use xlink:href="#E050-f9x3ce" x="1375" y="1625" height="720px" width="720px" />
                  </g>
                  <g id="k1u6cpx8" class="keySig">
                     <g id="k74fa7q" class="keyAccid">
                        <use xlink:href="#E262-f9x3ce" x="2020" y="1085" height="720px" width="720px" />
                     </g>
                  </g>
                  <g id="mbtfp6t" class="meterSig">
                     <use xlink:href="#E082-f9x3ce" x="2327" y="1265" height="720px" width="720px" />
                     <use xlink:href="#E084-f9x3ce" x="2332" y="1625" height="720px" width="720px" />
                  </g>
                  <g id="l1djjh60" class="layer">
                     <g id="b1evhaya" class="beam">
                        <polygon points="3110,1220 3681,1040 3681,1130 3110,1310" />
                        <g id="n1le5z4i" class="note">
                           <g class="notehead">
                              <use xlink:href="#E0A4-f9x3ce" x="2902" y="1895" height="720px" width="720px" />
                           </g>
                           <g id="s15qkmzv" class="stem">
                              <rect x="3110" y="1238" height="629" width="18" />
                           </g>
                        </g>
                        <g id="n1mqu37f" class="note">
                           <g class="notehead">
                              <use xlink:href="#E0A4-f9x3ce" x="3455" y="1625" height="720px" width="720px" />
                           </g>
                           <g id="s7llk4l" class="stem">
                              <rect x="3663" y="1058" height="539" width="18" />
                           </g>
                        </g>
                     </g>
                     <g id="bkz47w7" class="beam">
                        <polygon points="4216,1040 4786,1040 4786,1130 4216,1130" />
                        <g id="ninsu0l" class="note">
                           <g class="notehead">
                              <use xlink:href="#E0A4-f9x3ce" x="4008" y="1625" height="720px" width="720px" />
                           </g>
                           <g id="s1xkwke3" class="stem">
                              <rect x="4216" y="1058" height="539" width="18" />
                           </g>
                        </g>
                        <g id="n17yoxke" class="note">
                           <g class="notehead">
                              <use xlink:href="#E0A4-f9x3ce" x="4560" y="1625" height="720px" width="720px" />
                           </g>
                           <g id="stwgmk9" class="stem">
                              <rect x="4768" y="1058" height="539" width="18" />
                           </g>
                        </g>
                     </g>
                  </g>
               </g>
               <g id="b8plsym" class="barLine">
                  <path d="M5113 1085 L5113 1805" stroke="currentColor" stroke-width="27" />
               </g>
            </g>
            <g id="m1wehfrz" class="measure">
               <g id="s13i1fwd" class="staff">
                  <path d="M5126 1085 L7898 1085" stroke="currentColor" stroke-width="13" />
                  <path d="M5126 1265 L7898 1265" stroke="currentColor" stroke-width="13" />
                  <path d="M5126 1445 L7898 1445" stroke="currentColor" stroke-width="13" />
                  <path d="M5126 1625 L7898 1625" stroke="currentColor" stroke-width="13" />
                  <path d="M5126 1805 L7898 1805" stroke="currentColor" stroke-width="13" />
                  <g id="l1x1ygjh" class="layer">
                     <g id="bou2foe" class="beam">
                        <polygon points="5516,950 6638,995 6638,1085 5516,1040" />
                        <polygon points="5516,1085 5893,1100 5893,1190 5516,1175" />
                        <polygon points="5893,1100 6261,1115 6261,1205 5893,1190" />
                        <polygon points="6261,1115 6638,1130 6638,1220 6261,1205" />
                        <g id="nprac2z" class="note">
                           <g class="notehead">
                              <use xlink:href="#E0A4-f9x3ce" x="5308" y="1625" height="720px" width="720px" />
                           </g>
                           <g id="s1oqctcl" class="stem">
                              <rect x="5516" y="968" height="629" width="18" />
                           </g>
                        </g>
                        <g id="nl11izi" class="note">
                           <g class="notehead">
                              <use xlink:href="#E0A4-f9x3ce" x="5676" y="1715" height="720px" width="720px" />
                           </g>
                           <g id="svojeyh" class="stem">
                              <rect x="5884" y="983" height="704" width="18" />
                           </g>
                           <g id="abllz5t" class="accid" />
                        </g>
                        <g id="n2mv106" class="note">
                           <g class="notehead">
                              <use xlink:href="#E0A4-f9x3ce" x="6044" y="1805" height="720px" width="720px" />
                           </g>
                           <g id="s1bda80h" class="stem">
                              <rect x="6252" y="998" height="779" width="18" />
                           </g>
                        </g>
                        <g id="nejypbv" class="note">
                           <g class="notehead">
                              <use xlink:href="#E0A4-f9x3ce" x="6412" y="1715" height="720px" width="720px" />
                           </g>
                           <g id="s1481jtx" class="stem">
                              <rect x="6620" y="1013" height="674" width="18" />
                           </g>
                           <g id="arrt4wq" class="accid" />
                        </g>
                     </g>
                     <g id="bk8xrjj" class="beam">
                        <polygon points="6987,1040 7558,1040 7558,1130 6987,1130" />
                        <g id="nb4tpp1" class="note">
                           <g class="notehead">
                              <use xlink:href="#E0A4-f9x3ce" x="6779" y="1625" height="720px" width="720px" />
                           </g>
                           <g id="svvrlux" class="stem">
                              <rect x="6987" y="1058" height="539" width="18" />
                           </g>
                        </g>
                        <g id="nw7qd0e" class="note">
                           <g class="notehead">
                              <use xlink:href="#E0A4-f9x3ce" x="7332" y="1625" height="720px" width="720px" />
                           </g>
                           <g id="s1b85cqu" class="stem">
                              <rect x="7540" y="1058" height="539" width="18" />
                           </g>
                        </g>
                     </g>
                  </g>
               </g>
               <g id="bc1lgi0" class="barLine">
                  <path d="M7885 1085 L7885 1805" stroke="currentColor" stroke-width="27" />
               </g>
            </g>
            <g id="m1kfrii1" class="measure">
               <g id="s15xnqpt" class="staff">
                  <path d="M7898 1085 L10304 1085" stroke="currentColor" stroke-width="13" />
                  <path d="M7898 1265 L10304 1265" stroke="currentColor" stroke-width="13" />
                  <path d="M7898 1445 L10304 1445" stroke="currentColor" stroke-width="13" />
                  <path d="M7898 1625 L10304 1625" stroke="currentColor" stroke-width="13" />
                  <path d="M7898 1805 L10304 1805" stroke="currentColor" stroke-width="13" />
                  <g id="lctvudz" class="layer">
                     <g id="b1lrbkbs" class="beam">
                        <polygon points="8288,1220 8859,1040 8859,1130 8288,1310" />
                        <g id="nh0fh90" class="note">
                           <g class="notehead">
                              <use xlink:href="#E0A4-f9x3ce" x="8080" y="1895" height="720px" width="720px" />
                           </g>
                           <g id="sw5zxam" class="stem">
                              <rect x="8288" y="1238" height="629" width="18" />
                           </g>
                        </g>
                        <g id="n485c13" class="note">
                           <g class="notehead">
                              <use xlink:href="#E0A4-f9x3ce" x="8633" y="1625" height="720px" width="720px" />
                           </g>
                           <g id="syub4u2" class="stem">
                              <rect x="8841" y="1058" height="539" width="18" />
                           </g>
                        </g>
                     </g>
                     <g id="bgaz6qq" class="beam">
                        <polygon points="9394,1040 9964,1040 9964,1130 9394,1130" />
                        <g id="n182ygid" class="note">
                           <g class="notehead">
                              <use xlink:href="#E0A4-f9x3ce" x="9186" y="1625" height="720px" width="720px" />
                           </g>
                           <g id="su8duu1" class="stem">
                              <rect x="9394" y="1058" height="539" width="18" />
                           </g>
                        </g>
                        <g id="n1yy3wnj" class="note">
                           <g class="notehead">
                              <use xlink:href="#E0A4-f9x3ce" x="9738" y="1625" height="720px" width="720px" />
                           </g>
                           <g id="st479w7" class="stem">
                              <rect x="9946" y="1058" height="539" width="18" />
                           </g>
                        </g>
                     </g>
                  </g>
               </g>
               <g id="b1u1iqdq" class="barLine">
                  <path d="M10291 1085 L10291 1805" stroke="currentColor" stroke-width="27" />
               </g>
            </g>
            <g id="m1whamk7" class="measure">
               <g id="sq5dzv8" class="staff">
                  <path d="M10304 1085 L13182 1085" stroke="currentColor" stroke-width="13" />
                  <path d="M10304 1265 L13182 1265" stroke="currentColor" stroke-width="13" />
                  <path d="M10304 1445 L13182 1445" stroke="currentColor" stroke-width="13" />
                  <path d="M10304 1625 L13182 1625" stroke="currentColor" stroke-width="13" />
                  <path d="M10304 1805 L13182 1805" stroke="currentColor" stroke-width="13" />
                  <g id="lmkhanz" class="layer">
                     <g id="b3x4d0a" class="beam">
                        <polygon points="10694,950 11816,995 11816,1085 10694,1040" />
                        <polygon points="10694,1085 11071,1100 11071,1190 10694,1175" />
                        <polygon points="11071,1100 11439,1115 11439,1205 11071,1190" />
                        <polygon points="11439,1115 11816,1130 11816,1220 11439,1205" />
                        <g id="n6o2poj" class="note">
                           <g class="notehead">
                              <use xlink:href="#E0A4-f9x3ce" x="10486" y="1625" height="720px" width="720px" />
                           </g>
                           <g id="sknu0jl" class="stem">
                              <rect x="10694" y="968" height="629" width="18" />
                           </g>
                        </g>
                        <g id="n1nalb9h" class="note">
                           <g class="notehead">
                              <use xlink:href="#E0A4-f9x3ce" x="10854" y="1715" height="720px" width="720px" />
                           </g>
                           <g id="sstivts" class="stem">
                              <rect x="11062" y="983" height="704" width="18" />
                           </g>
                           <g id="a1wa76ul" class="accid" />
                        </g>
                        <g id="n1y766kn" class="note">
                           <g class="notehead">
                              <use xlink:href="#E0A4-f9x3ce" x="11222" y="1805" height="720px" width="720px" />
                           </g>
                           <g id="s1oqy6nu" class="stem">
                              <rect x="11430" y="998" height="779" width="18" />
                           </g>
                        </g>
                        <g id="n1te2shc" class="note">
                           <g class="notehead">
                              <use xlink:href="#E0A4-f9x3ce" x="11590" y="1715" height="720px" width="720px" />
                           </g>
                           <g id="sgxt9ds" class="stem">
                              <rect x="11798" y="1013" height="674" width="18" />
                           </g>
                           <g id="aw1gnsy" class="accid" />
                        </g>
                     </g>
                     <g id="n76klfq" class="note">
                        <g class="notehead">
                           <use xlink:href="#E0A4-f9x3ce" x="11957" y="1625" height="720px" width="720px" />
                        </g>
                        <g id="sbzxjst" class="stem">
                           <rect x="12165" y="995" height="602" width="18" />
                        </g>
                     </g>
                  </g>
               </g>
               <g id="b12awotc" class="barLine">
                  <path d="M12804 1085 L12804 1805" stroke="currentColor" stroke-width="27" />
                  <path d="M12934 1085 L12934 1805" stroke="currentColor" stroke-width="90" />
                  <path d="M13065 1085 L13065 1805" stroke="currentColor" stroke-width="27" />
                  <use xlink:href="#E044-f9x3ce" x="13110" y="1355" height="720px" width="720px" />
                  <use xlink:href="#E044-f9x3ce" x="13110" y="1535" height="720px" width="720px" />
                  <use xlink:href="#E044-f9x3ce" x="12687" y="1355" height="720px" width="720px" />
                  <use xlink:href="#E044-f9x3ce" x="12687" y="1535" height="720px" width="720px" />
               </g>
            </g>
            <g id="mhxj6v6" class="measure">
               <g id="svtu1rh" class="staff">
                  <path d="M13182 1085 L15588 1085" stroke="currentColor" stroke-width="13" />
                  <path d="M13182 1265 L15588 1265" stroke="currentColor" stroke-width="13" />
                  <path d="M13182 1445 L15588 1445" stroke="currentColor" stroke-width="13" />
                  <path d="M13182 1625 L15588 1625" stroke="currentColor" stroke-width="13" />
                  <path d="M13182 1805 L15588 1805" stroke="currentColor" stroke-width="13" />
                  <g id="lrs8z9" class="layer">
                     <g id="b15b9wtd" class="beam">
                        <polygon points="13572,1220 14143,1040 14143,1130 13572,1310" />
                        <g id="new9981" class="note">
                           <g class="notehead">
                              <use xlink:href="#E0A4-f9x3ce" x="13364" y="1895" height="720px" width="720px" />
                           </g>
                           <g id="sqrbivx" class="stem">
                              <rect x="13572" y="1238" height="629" width="18" />
                           </g>
                        </g>
                        <g id="n1gppxp8" class="note">
                           <g class="notehead">
                              <use xlink:href="#E0A4-f9x3ce" x="13917" y="1625" height="720px" width="720px" />
                           </g>
                           <g id="s118xc42" class="stem">
                              <rect x="14125" y="1058" height="539" width="18" />
                           </g>
                        </g>
                     </g>
                     <g id="b1y39rhb" class="beam">
                        <polygon points="14678,995 15248,905 15248,995 14678,1085" />
                        <g id="n1sdnhlh" class="note">
                           <g class="notehead">
                              <use xlink:href="#E0A4-f9x3ce" x="14470" y="1625" height="720px" width="720px" />
                           </g>
                           <g id="snzm14g" class="stem">
                              <rect x="14678" y="1013" height="584" width="18" />
                           </g>
                        </g>
                        <g id="njnajqi" class="note">
                           <g class="notehead">
                              <use xlink:href="#E0A4-f9x3ce" x="15022" y="1535" height="720px" width="720px" />
                           </g>
                           <g id="s1raklb7" class="stem">
                              <rect x="15230" y="923" height="584" width="18" />
                           </g>
                        </g>
                     </g>
                  </g>
               </g>
               <g id="b1u6xixn" class="barLine">
                  <path d="M15575 1085 L15575 1805" stroke="currentColor" stroke-width="27" />
               </g>
            </g>
            <g id="m1g60k6u" class="measure">
               <g id="s166r9o3" class="staff">
                  <path d="M15588 1085 L17416 1085" stroke="currentColor" stroke-width="13" />
                  <path d="M15588 1265 L17416 1265" stroke="currentColor" stroke-width="13" />
                  <path d="M15588 1445 L17416 1445" stroke="currentColor" stroke-width="13" />
                  <path d="M15588 1625 L17416 1625" stroke="currentColor" stroke-width="13" />
                  <path d="M15588 1805 L17416 1805" stroke="currentColor" stroke-width="13" />
                  <g id="l1g4spff" class="layer">
                     <g id="n19r5h3h" class="note">
                        <g class="notehead">
                           <use xlink:href="#E0A4-f9x3ce" x="15770" y="1895" height="720px" width="720px" />
                        </g>
                        <g id="d12amhl7" class="dots">
                           <ellipse cx="16086" cy="1895" rx="36" ry="36" />
                        </g>
                        <g id="sch0mod" class="stem">
                           <rect x="15978" y="1265" height="602" width="18" />
                        </g>
                     </g>
                     <g id="n1rhjfs3" class="note">
                        <g class="notehead">
                           <use xlink:href="#E0A4-f9x3ce" x="16850" y="1895" height="720px" width="720px" />
                        </g>
                        <g id="s1pgn4uv" class="stem">
                           <rect x="17058" y="1265" height="602" width="18" />
                           <g id="fxgfvt6" class="flag">
                              <use xlink:href="#E240-f9x3ce" x="17058" y="1265" height="720px" width="720px" />
                           </g>
                        </g>
                     </g>
                  </g>
               </g>
               <g id="b1a1f87y" class="barLine">
                  <path d="M17403 1085 L17403 1805" stroke="currentColor" stroke-width="27" />
               </g>
            </g>
            <g id="mq2kncn" class="measure">
               <g id="swzoeaj" class="staff">
                  <path d="M17416 1085 L20005 1085" stroke="currentColor" stroke-width="13" />
                  <path d="M17416 1265 L20005 1265" stroke="currentColor" stroke-width="13" />
                  <path d="M17416 1445 L20005 1445" stroke="currentColor" stroke-width="13" />
                  <path d="M17416 1625 L20005 1625" stroke="currentColor" stroke-width="13" />
                  <path d="M17416 1805 L20005 1805" stroke="currentColor" stroke-width="13" />
                  <g id="lk391fq" class="layer">
                     <g id="b1b5nnvu" class="beam">
                        <polygon points="17806,1085 18745,1085 18745,1175 17806,1175" />
                        <polygon points="18368,1220 18745,1220 18745,1310 18368,1310" />
                        <g id="n1i6c4lv" class="note">
                           <g class="notehead">
                              <use xlink:href="#E0A4-f9x3ce" x="17598" y="1805" height="720px" width="720px" />
                           </g>
                           <g id="s1hzq37t" class="stem">
                              <rect x="17806" y="1103" height="674" width="18" />
                           </g>
                        </g>
                        <g id="nbhcixd" class="note">
                           <g class="notehead">
                              <use xlink:href="#E0A4-f9x3ce" x="18151" y="1715" height="720px" width="720px" />
                           </g>
                           <g id="s1ahsiff" class="stem">
                              <rect x="18359" y="1103" height="584" width="18" />
                           </g>
                           <g id="a81gzdx" class="accid" />
                        </g>
                        <g id="nl4ysy6" class="note">
                           <g class="notehead">
                              <use xlink:href="#E0A4-f9x3ce" x="18519" y="1805" height="720px" width="720px" />
                           </g>
                           <g id="s1e7jxup" class="stem">
                              <rect x="18727" y="1103" height="674" width="18" />
                           </g>
                        </g>
                     </g>
                     <g id="bfg1htl" class="beam">
                        <polygon points="19094,1265 19665,1265 19665,1355 19094,1355" />
                        <g id="n1uumcoc" class="note">
                           <g class="notehead">
                              <use xlink:href="#E0A4-f9x3ce" x="18886" y="1895" height="720px" width="720px" />
                           </g>
                           <g id="soour84" class="stem">
                              <rect x="19094" y="1283" height="584" width="18" />
                           </g>
                        </g>
                        <g id="n1i0vjia" class="note">
                           <g class="notehead">
                              <use xlink:href="#E0A4-f9x3ce" x="19439" y="1895" height="720px" width="720px" />
                           </g>
                           <g id="se9s4fk" class="stem">
                              <rect x="19647" y="1283" height="584" width="18" />
                           </g>
                        </g>
                     </g>
                  </g>
               </g>
               <g id="bdb7lgj" class="barLine">
                  <path d="M19992 1085 L19992 1805" stroke="currentColor" stroke-width="27" />
               </g>
            </g>
         </g>
         <g id="s9mvskw" class="system">
            <g id="l8n7btv" class="labelAbbr">
               <text x="914" y="3884" text-anchor="end" font-size="0px">
                  <tspan id="t8gnmwe" class="text">
                     <tspan font-size="405px" class="text">Pno.</tspan>
                  </tspan>
               </text>
            </g>
            <g id="me4ewrn" class="measure">
               <g id="m1tyxien" class="mNum autogenerated">
                  <text x="1094" y="3191" text-anchor="middle" font-size="0px">
                     <tspan id="t1izx0o5" class="text">
                        <tspan font-size="324px" class="text">8</tspan>
                     </tspan>
                  </text>
               </g>
               <g id="s185u7cj" class="staff">
                  <path d="M1094 3434 L4622 3434" stroke="currentColor" stroke-width="13" />
                  <path d="M1094 3614 L4622 3614" stroke="currentColor" stroke-width="13" />
                  <path d="M1094 3794 L4622 3794" stroke="currentColor" stroke-width="13" />
                  <path d="M1094 3974 L4622 3974" stroke="currentColor" stroke-width="13" />
                  <path d="M1094 4154 L4622 4154" stroke="currentColor" stroke-width="13" />
                  <g id="cyyynbh" class="clef">
                     <use xlink:href="#E050-f9x3ce" x="1184" y="3974" height="720px" width="720px" />
                  </g>
                  <g id="k1uo97zr" class="keySig">
                     <g id="k12x1cda" class="keyAccid">
                        <use xlink:href="#E262-f9x3ce" x="1829" y="3434" height="720px" width="720px" />
                     </g>
                  </g>
                  <g id="ln4i0pp" class="layer">
                     <g id="b16zfhm0" class="beam">
                        <polygon points="2448,3434 3377,3434 3377,3524 2448,3524" />
                        <polygon points="3004,3569 3377,3569 3377,3659 3004,3659" />
                        <g id="n1s5d24b" class="note">
                           <g class="notehead">
                              <use xlink:href="#E0A4-f9x3ce" x="2240" y="4154" height="720px" width="720px" />
                           </g>
                           <g id="s430tlu" class="stem">
                              <rect x="2448" y="3452" height="674" width="18" />
                           </g>
                        </g>
                        <g id="n1mbtqxw" class="note">
                           <g class="notehead">
                              <use xlink:href="#E0A4-f9x3ce" x="2787" y="4064" height="720px" width="720px" />
                           </g>
                           <g id="s1f0wy22" class="stem">
                              <rect x="2995" y="3452" height="584" width="18" />
                           </g>
                           <g id="aq5tfrb" class="accid" />
                        </g>
                        <g id="nkhkses" class="note">
                           <g class="notehead">
                              <use xlink:href="#E0A4-f9x3ce" x="3151" y="4154" height="720px" width="720px" />
                           </g>
                           <g id="s5l2aqg" class="stem">
                              <rect x="3359" y="3452" height="674" width="18" />
                           </g>
                        </g>
                     </g>
                     <g id="bw52yw9" class="beam">
                        <polygon points="3723,3614 4288,3614 4288,3704 3723,3704" />
                        <g id="npv6tjz" class="note">
                           <g class="notehead">
                              <use xlink:href="#E0A4-f9x3ce" x="3515" y="4244" height="720px" width="720px" />
                           </g>
                           <g id="s1wq9w78" class="stem">
                              <rect x="3723" y="3632" height="584" width="18" />
                           </g>
                        </g>
                        <g id="n14aepy2" class="note">
                           <g class="notehead">
                              <use xlink:href="#E0A4-f9x3ce" x="4062" y="4244" height="720px" width="720px" />
                           </g>
                           <g id="s247b0d" class="stem">
                              <rect x="4270" y="3632" height="584" width="18" />
                           </g>
                        </g>
                     </g>
                  </g>
               </g>
               <g id="boydzyj" class="barLine">
                  <path d="M4609 3434 L4609 4154" stroke="currentColor" stroke-width="27" />
               </g>
            </g>
            <g id="s19chdl" class="sb" />
            <g id="mq4wzw4" class="measure">
               <g id="s1724fmf" class="staff">
                  <path d="M4622 3434 L7003 3434" stroke="currentColor" stroke-width="13" />
                  <path d="M4622 3614 L7003 3614" stroke="currentColor" stroke-width="13" />
                  <path d="M4622 3794 L7003 3794" stroke="currentColor" stroke-width="13" />
                  <path d="M4622 3974 L7003 3974" stroke="currentColor" stroke-width="13" />
                  <path d="M4622 4154 L7003 4154" stroke="currentColor" stroke-width="13" />
                  <g id="lufoc4z" class="layer">
                     <g id="blad9ql" class="beam">
                        <polygon points="5010,3569 5575,3389 5575,3479 5010,3659" />
                        <g id="n1i4dryp" class="note">
                           <g class="notehead">
                              <use xlink:href="#E0A4-f9x3ce" x="4802" y="4244" height="720px" width="720px" />
                           </g>
                           <g id="sbirhrb" class="stem">
                              <rect x="5010" y="3587" height="629" width="18" />
                           </g>
                        </g>
                        <g id="npn8awj" class="note">
                           <g class="notehead">
                              <use xlink:href="#E0A4-f9x3ce" x="5349" y="3974" height="720px" width="720px" />
                           </g>
                           <g id="s1wr4a85" class="stem">
                              <rect x="5557" y="3407" height="539" width="18" />
                           </g>
                        </g>
                     </g>
                     <g id="b1y2q6c6" class="beam">
                        <polygon points="6104,3344 6669,3254 6669,3344 6104,3434" />
                        <g id="n1bu5dot" class="note">
                           <g class="notehead">
                              <use xlink:href="#E0A4-f9x3ce" x="5896" y="3974" height="720px" width="720px" />
                           </g>
                           <g id="s18he7kb" class="stem">
                              <rect x="6104" y="3362" height="584" width="18" />
                           </g>
                        </g>
                        <g id="n1ttfby8" class="note">
                           <g class="notehead">
                              <use xlink:href="#E0A4-f9x3ce" x="6443" y="3884" height="720px" width="720px" />
                           </g>
                           <g id="s16auhua" class="stem">
                              <rect x="6651" y="3272" height="584" width="18" />
                           </g>
                        </g>
                     </g>
                  </g>
               </g>
               <g id="bownt4p" class="barLine">
                  <path d="M6990 3434 L6990 4154" stroke="currentColor" stroke-width="27" />
               </g>
            </g>
            <g id="mpzhl2" class="measure">
               <g id="smcnamp" class="staff">
                  <path d="M7003 3434 L8812 3434" stroke="currentColor" stroke-width="13" />
                  <path d="M7003 3614 L8812 3614" stroke="currentColor" stroke-width="13" />
                  <path d="M7003 3794 L8812 3794" stroke="currentColor" stroke-width="13" />
                  <path d="M7003 3974 L8812 3974" stroke="currentColor" stroke-width="13" />
                  <path d="M7003 4154 L8812 4154" stroke="currentColor" stroke-width="13" />
                  <g id="lcs5kcv" class="layer">
                     <g id="n1i201ky" class="note">
                        <g class="notehead">
                           <use xlink:href="#E0A4-f9x3ce" x="7183" y="4244" height="720px" width="720px" />
                        </g>
                        <g id="d1r8wztx" class="dots">
                           <ellipse cx="7499" cy="4244" rx="36" ry="36" />
                        </g>
                        <g id="s151jcbm" class="stem">
                           <rect x="7391" y="3614" height="602" width="18" />
                        </g>
                     </g>
                     <g id="n1xdb9os" class="note">
                        <g class="notehead">
                           <use xlink:href="#E0A4-f9x3ce" x="8252" y="4244" height="720px" width="720px" />
                        </g>
                        <g id="smow2d3" class="stem">
                           <rect x="8460" y="3614" height="602" width="18" />
                           <g id="f9472wl" class="flag">
                              <use xlink:href="#E240-f9x3ce" x="8460" y="3614" height="720px" width="720px" />
                           </g>
                        </g>
                     </g>
                  </g>
               </g>
               <g id="bq7w7cd" class="barLine">
                  <path d="M8799 3434 L8799 4154" stroke="currentColor" stroke-width="27" />
               </g>
            </g>
            <g id="m12b4yvk" class="measure">
               <g id="sy8d4ch" class="staff">
                  <path d="M8812 3434 L11374 3434" stroke="currentColor" stroke-width="13" />
                  <path d="M8812 3614 L11374 3614" stroke="currentColor" stroke-width="13" />
                  <path d="M8812 3794 L11374 3794" stroke="currentColor" stroke-width="13" />
                  <path d="M8812 3974 L11374 3974" stroke="currentColor" stroke-width="13" />
                  <path d="M8812 4154 L11374 4154" stroke="currentColor" stroke-width="13" />
                  <g id="l1b26gt0" class="layer">
                     <g id="brry7u5" class="beam">
                        <polygon points="9200,3434 10129,3434 10129,3524 9200,3524" />
                        <polygon points="9756,3569 10129,3569 10129,3659 9756,3659" />
                        <g id="n1wqoe5f" class="note">
                           <g class="notehead">
                              <use xlink:href="#E0A4-f9x3ce" x="8992" y="4154" height="720px" width="720px" />
                           </g>
                           <g id="sjredw" class="stem">
                              <rect x="9200" y="3452" height="674" width="18" />
                           </g>
                        </g>
                        <g id="n1dalien" class="note">
                           <g class="notehead">
                              <use xlink:href="#E0A4-f9x3ce" x="9539" y="4064" height="720px" width="720px" />
                           </g>
                           <g id="s1rvkibr" class="stem">
                              <rect x="9747" y="3452" height="584" width="18" />
                           </g>
                           <g id="ai1uqyr" class="accid" />
                        </g>
                        <g id="n1u37frb" class="note">
                           <g class="notehead">
                              <use xlink:href="#E0A4-f9x3ce" x="9903" y="4154" height="720px" width="720px" />
                           </g>
                           <g id="so7vaip" class="stem">
                              <rect x="10111" y="3452" height="674" width="18" />
                           </g>
                        </g>
                     </g>
                     <g id="b1ndl1vg" class="beam">
                        <polygon points="10475,3614 11040,3614 11040,3704 10475,3704" />
                        <g id="n1yhpm3b" class="note">
                           <g class="notehead">
                              <use xlink:href="#E0A4-f9x3ce" x="10267" y="4244" height="720px" width="720px" />
                           </g>
                           <g id="sft5kko" class="stem">
                              <rect x="10475" y="3632" height="584" width="18" />
                           </g>
                        </g>
                        <g id="n1r6nydg" class="note">
                           <g class="notehead">
                              <use xlink:href="#E0A4-f9x3ce" x="10814" y="4244" height="720px" width="720px" />
                           </g>
                           <g id="s10gufcf" class="stem">
                              <rect x="11022" y="3632" height="584" width="18" />
                           </g>
                        </g>
                     </g>
                  </g>
               </g>
               <g id="bcs9h1s" class="barLine">
                  <path d="M11361 3434 L11361 4154" stroke="currentColor" stroke-width="27" />
               </g>
            </g>
            <g id="mjkbbpc" class="measure">
               <g id="s1ltdowb" class="staff">
                  <path d="M11374 3434 L13005 3434" stroke="currentColor" stroke-width="13" />
                  <path d="M11374 3614 L13005 3614" stroke="currentColor" stroke-width="13" />
                  <path d="M11374 3794 L13005 3794" stroke="currentColor" stroke-width="13" />
                  <path d="M11374 3974 L13005 3974" stroke="currentColor" stroke-width="13" />
                  <path d="M11374 4154 L13005 4154" stroke="currentColor" stroke-width="13" />
                  <g id="lmuf8vj" class="layer">
                     <g id="n1sdvcv6" class="note">
                        <g class="notehead">
                           <use xlink:href="#E0A3-f9x3ce" x="11554" y="3974" height="720px" width="720px" />
                        </g>
                        <g id="sedmarr" class="stem">
                           <rect x="11762" y="3344" height="602" width="18" />
                        </g>
                     </g>
                  </g>
               </g>
               <g id="b6c59w1" class="barLine">
                  <path d="M12830 3434 L12830 4154" stroke="currentColor" stroke-width="27" />
                  <path d="M12960 3434 L12960 4154" stroke="currentColor" stroke-width="90" />
               </g>
            </g>
            <g id="s80dtqh" class="systemMilestoneEnd s4b0fzu" />
         </g>
         <g id="pna06p6" class="pageMilestoneEnd s1psc1lc" />
         <g id="pymeqnu" class="pageMilestoneEnd mxzp68v" />
         <g id="pat3040" class="pgHead">
            <text x="0" y="0" font-size="0px">
               <tspan id="r1hmcxml" class="rend" x="10000" y="277" text-anchor="middle">
                  <tspan id="t18fmzp8" class="text">
                     <tspan font-size="405px" class="text">Air n 8</tspan>
                  </tspan>
               </tspan>
            </text>
         </g>
         <g id="pyfz6h8" class="pgFoot autogenerated">
            <g id="frrv7g1" class="fig">
               <g id="s19xxrz1" class="svg" transform="translate(7750, 28099) scale(10, 10)">
                  <g>
                     <path fill="#00000" d="M 17.11278,49.26451 V 10.367554 h 12.696511 c 3.288815,7.336676 6.71267,14.610456 10.127281,21.888976 3.419998,-7.484684 6.255515,-14.204887 9.58887,-21.909915 2.436207,0.103726 4.316952,0.08453 6.484294,-0.05808 V 49.264423 H 50.274275 C 50.145222,38.35639 50.016136,27.448368 49.887066,16.540329 45.003488,27.315459 39.967448,38.433564 35.083854,49.208695 34.678996,49.343717 34.426583,49.135619 34.021726,49.270644 29.46588,39.330716 24.910049,29.390805 20.354201,19.450876 20.224341,29.388756 20.09461,39.326619 19.964815,49.264497 H 17.11278 Z M 36.754144,39.324695 C 32.721221,30.512695 28.6883,21.700679 24.655394,12.888662 22.530527,12.750737 22.656775,12.71031 20.714356,12.813974 v 0.966497 c 4.612938,9.99784 9.609439,20.748709 13.87298,30.081745 0.722248,-1.512523 1.444528,-3.025014 2.166808,-4.537521 z m 25.738417,9.939815 c 0,-12.965651 0,-25.931305 0,-38.896956 10.084388,0 20.168791,0 30.253178,0 0,0.960416 0,1.920849 0,2.881265 -6.482825,0 -12.965652,0 -19.448478,0 0,4.802097 0,9.604178 0,14.406277 5.52241,0 11.044819,0 16.567229,0 0,0.960415 0,1.920832 0,2.881248 -5.52241,0 -11.044819,0 -16.567229,0 0,5.282306 0,10.564611 0,15.846917 6.963035,0 13.926068,0 20.889103,0 0,0.960416 0,1.920832 0,2.881249 -10.564597,0 -21.129207,0 -31.693803,0 z m 4.321874,-2.160937 c 0,-11.765131 0,-23.530263 0,-35.295394 -0.720312,0 -1.440625,0 -2.160937,0 0,11.765131 0,23.530263 0,35.295394 0.720312,0 1.440625,0 2.160937,0 z m 32.41413,2.160937 c 0,-12.965651 0,-25.931305 0,-38.896956 2.401045,0 4.802095,0 7.203135,0 0,12.965651 0,25.931305 0,38.896956 -2.40104,0 -4.80209,0 -7.203135,0 z m 2.881265,-2.160937 c 0,-11.765131 0,-23.530263 0,-35.295394 -0.72031,0 -1.44064,0 -2.160953,0 0,11.765131 0,23.530263 0,35.295394 0.720313,0 1.440643,0 2.160953,0 z" />
                     <path fill="#00000" d="m 346.3,6.7 c -3.1,0.5 -4.9,4.4 -2.7,6.8 1.2,1.4 2.7,2.4 4.1,3.5 -2.4,5.3 -7.7,8.3 -11.9,12.1 -3.7,2.8 -7,6.2 -9.7,9.9 -2.2,-0.8 -0.3,-6.8 -0.6,-9.5 0.1,-3.1 0.7,-6.4 2.9,-8.7 1.3,-1.9 3,-3.5 4.5,-5.2 1.2,-3.4 -3.2,-4.9 -5.8,-4.6 -7.3,-0.5 -14.6,2 -20,6.8 -5,4.6 -10,10.1 -11.5,17 -0.9,3.5 -0.2,7.5 2.8,9.9 2.5,2.8 7.4,2.9 9.8,-0.2 1.7,-2.3 3.2,-4.8 3.8,-7.6 -0.1,-2.6 -4.4,-2.3 -4.3,0.2 1.2,2.4 -0.9,4.7 -2.7,6.2 -1.7,0.9 -4.7,0.7 -4.8,-1.7 -1,-5.8 2.1,-11.3 5.2,-16.1 4,-5.8 9.8,-11.2 17.2,-11.8 1.6,0 8.1,-1.2 6.8,1.4 -2.8,2.8 -5.6,6.1 -6,10.3 -1.6,7.7 0.1,15.7 -2.3,23.2 -1.1,3.9 2,2.6 2.5,0.2 3.3,-7.4 8.9,-13.4 15.1,-18.5 4.2,-3.9 9.5,-7.1 11.9,-12.6 1.3,-3.6 1.2,-9 -2.7,-10.9 -0.6,-0.2 -1.2,-0.3 -1.8,-0.3 z m 66,14.5 c -2,0.8 -1.8,4.9 0.8,4.4 3.4,0.4 2.9,-6.2 -0.8,-4.4 z m 0.6,7.3 c -1.3,0.5 -7.6,0.5 -5.4,2.2 4,-0.3 0.7,4.5 0.6,6.7 -0.4,2.9 -2.4,5.9 -1.2,8.8 2.7,1.7 5.6,-0.8 6.8,-3.2 1.6,-1.4 -0.5,-3 -1.2,-0.9 -0.4,0.8 -2.4,3.5 -2.6,1.8 1.1,-5 2.7,-9.9 3.9,-14.9 l -0.1,-0.5 h -0.9 z m -65.1,0.2 c -6.5,1.6 -10.5,9.5 -8.2,15.7 2.1,3.4 7.4,2.9 10.1,0.4 2,-0.2 3.6,-5.3 1,-3.4 -1.4,2 -4,4.2 -6.5,2.8 -2.2,-1.9 -1.9,-5.7 1.7,-5.3 3.1,-0.9 6.9,-2.1 8.1,-5.5 0.9,-2.7 -1.6,-5.2 -4.3,-4.8 h -1.1 -0.7 z m 13.6,0 c -2.2,0 -8.5,1.8 -2.9,2.3 0.9,1.9 -1,4.9 -1.1,7.2 -0.5,2.9 -1.4,5.7 -1.7,8.7 3.7,0.7 3.8,-2.6 4.4,-5.3 0.9,-3.3 1.6,-7 4.1,-9.5 2.4,1.6 6.8,-0.7 3.7,-3.4 -2.9,-0.5 -4.8,2.4 -6.2,4.3 0,-1.2 2.4,-5 -0.2,-4.3 z m 15.8,0 c -6.4,1.3 -9.6,9.1 -7.7,14.9 1.9,4 7.7,3.9 11,1.7 4.1,-3 6,-8.9 4.4,-13.7 -1.3,-3 -4.8,-3.2 -7.6,-3 z m 17,0 c -2.3,0 -8.8,1.9 -3,2.4 0.4,2.5 -1,5.7 -1.4,8.4 -0.7,2.4 -1.8,7.5 2.1,7.2 3.8,-0.1 6.5,-3.5 8.5,-6.3 2,-3.2 4.5,-7 3.3,-10.9 -3.7,-3 -3.6,2.6 -3.1,5.1 -0.7,3.8 -2.7,7.9 -6.2,9.8 -3.6,0.6 -1,-4.3 -0.8,-6.1 0.6,-3.2 1.6,-6.3 1.9,-9.5 -0.4,0 -0.8,0 -1.1,0 z m 30.6,0 c -6.3,1.2 -9.5,8.9 -7.8,14.7 1.5,4 7.2,4.2 10.5,2.4 4.6,-2.8 6.6,-9.3 4.8,-14.3 -1.4,-2.8 -4.8,-3 -7.5,-2.8 z m -75.4,1.7 c 2.1,1.5 0.2,4.7 -1.6,5.7 -1.1,0.4 -5.5,3.4 -4.6,0.7 0.8,-2.7 2.2,-6.2 5.3,-6.6 l 0.9,0.1 z m 30.8,0 c 2.6,1.5 1.3,5.2 0.8,7.6 -0.8,2.7 -1.9,5.9 -4.7,7.1 -5.1,0.8 -4,-5.8 -2.8,-8.8 1,-2.8 3,-6.8 6.7,-5.8 z m 47.1,-0.1 c 2.9,0.7 2,4.7 1.5,6.8 -0.7,3 -1.8,6.7 -5,8 -4.7,0.8 -4,-5.1 -3,-7.9 0.9,-3 2.7,-7.3 6.5,-6.8 z m -88.1,5.9 c -0.3,1.3 0.9,-0.6 0,0 z m -1.1,2.4 c -0.2,0.5 0.5,-0.1 0,0 z m -1.3,4.5 c -0.3,1.3 0.8,-0.2 0,0 z" />
                     <text y="41" x="201" fill="#00000" style="font-style:italic;font-weight:normal;font-size:30px;line-height:125%;font-family:Times;text-anchor:middle" xml:space="preserve">engraved with</text>
                  </g>
               </g>
            </g>
         </g>
      </g>
   </svg>
</svg>
