<?xml version="1.0" encoding="UTF-8" standalone="no"?>
<svg width="2100px" height="2970px" version="1.1" xmlns="http://www.w3.org/2000/svg" xmlns:xlink="http://www.w3.org/1999/xlink" xmlns:mei="http://www.music-encoding.org/ns/mei" overflow="visible">
   <desc>Engraved by Verovio 3.13.1</desc>
   <defs>
      <symbol id="E260-6tn6h3" viewBox="0 0 1000 1000" overflow="inherit">
         <path transform="scale(1,-1)" d="M20 110c32 16 54 27 93 27c26 0 35 -3 54 -13c13 -7 24 -20 27 -38l4 -25c0 -28 -16 -57 -45 -89c-23 -25 -39 -44 -65 -68l-88 -79v644h20v-359zM90 106c-32 0 -48 -10 -70 -29v-194c31 31 54 59 71 84c21 32 32 59 32 84c0 9 1 16 1 20c0 14 -3 21 -11 30l-8 3z" />
      </symbol>
      <symbol id="E044-6tn6h3" viewBox="0 0 1000 1000" overflow="inherit">
         <path transform="scale(1,-1)" d="M0 0c0 28 22 50 50 50s50 -22 50 -50s-22 -50 -50 -50s-50 22 -50 50z" />
      </symbol>
      <symbol id="E050-6tn6h3" viewBox="0 0 1000 1000" overflow="inherit">
         <path transform="scale(1,-1)" d="M441 -245c-23 -4 -48 -6 -76 -6c-59 0 -102 7 -130 20c-88 42 -150 93 -187 154c-26 44 -43 103 -48 176c0 6 -1 13 -1 19c0 54 15 111 45 170c29 57 65 106 110 148s96 85 153 127c-3 16 -8 46 -13 92c-4 43 -5 73 -5 89c0 117 16 172 69 257c34 54 64 82 89 82 c21 0 43 -30 69 -92s39 -115 41 -159v-15c0 -109 -21 -162 -67 -241c-13 -20 -63 -90 -98 -118c-13 -9 -25 -19 -37 -29l31 -181c8 1 18 2 28 2c58 0 102 -12 133 -35c59 -43 92 -104 98 -184c1 -7 1 -15 1 -22c0 -123 -87 -209 -181 -248c8 -57 17 -110 25 -162 c5 -31 6 -58 6 -80c0 -30 -5 -53 -14 -70c-35 -64 -88 -99 -158 -103c-5 0 -11 -1 -16 -1c-37 0 -72 10 -108 27c-50 24 -77 59 -80 105v11c0 29 7 55 20 76c18 28 45 42 79 44h6c49 0 93 -42 97 -87v-9c0 -51 -34 -86 -105 -106c17 -24 51 -36 102 -36c62 0 116 43 140 85 c9 16 13 41 13 74c0 20 -1 42 -5 67c-8 53 -18 106 -26 159zM461 939c-95 0 -135 -175 -135 -286c0 -24 2 -48 5 -71c50 39 92 82 127 128c40 53 60 100 60 140v8c-4 53 -22 81 -55 81h-2zM406 119l54 -326c73 25 110 78 110 161c0 7 0 15 -1 23c-7 95 -57 142 -151 142h-12 zM382 117c-72 -2 -128 -47 -128 -120v-7c2 -46 43 -99 75 -115c-3 -2 -7 -5 -10 -10c-70 33 -116 88 -123 172v11c0 68 44 126 88 159c23 17 49 29 78 36l-29 170c-21 -13 -52 -37 -92 -73c-50 -44 -86 -84 -109 -119c-45 -69 -67 -130 -67 -182v-13c5 -68 35 -127 93 -176 s125 -73 203 -73c25 0 50 3 75 9c-19 111 -36 221 -54 331z" />
      </symbol>
      <symbol id="E082-6tn6h3" viewBox="0 0 1000 1000" overflow="inherit">
         <path transform="scale(1,-1)" d="M124 -185c-18 0 -55 -14 -65 -65h-36l-3 30c0 25 6 45 18 63c11 19 22 30 39 43l121 82l37 29c15 11 27 29 38 54c12 24 18 47 18 70c0 40 -19 88 -94 88c-25 0 -32 0 -50 -8c-14 -5 -23 -12 -26 -22c3 -9 7 -15 10 -18l24 -17c12 -7 17 -11 27 -21c5 -7 7 -16 7 -27 c0 -12 0 -57 -79 -74c-30 0 -76 26 -76 94c0 66 81 135 197 135c72 0 181 -32 181 -150c0 -53 -32 -95 -113 -133l-91 -41c-26 -11 -45 -23 -57 -37l49 7c84 0 115 -41 148 -41c20 0 33 20 39 61h35c0 -152 -68 -168 -114 -168c-17 0 -65 0 -79 7h10l-28 17 c-49 37 -69 40 -87 42z" />
      </symbol>
      <symbol id="E084-6tn6h3" viewBox="0 0 1000 1000" overflow="inherit">
         <path transform="scale(1,-1)" d="M20 -78c84 97 114 180 134 329h170c-13 -32 -82 -132 -99 -151l-84 -97c-33 -36 -59 -63 -80 -81h162v102l127 123v-225h57v-39h-57v-34c0 -43 19 -65 57 -65v-34h-244v36c48 0 60 26 60 70v27h-203v39z" />
      </symbol>
      <symbol id="E0A4-6tn6h3" viewBox="0 0 1000 1000" overflow="inherit">
         <path transform="scale(1,-1)" d="M0 -39c0 68 73 172 200 172c66 0 114 -37 114 -95c0 -84 -106 -171 -218 -171c-64 0 -96 30 -96 94z" />
      </symbol>
   </defs>
   <style type="text/css">g.page-margin{font-family:Times;} g.ending, g.fing, g.reh, g.tempo{font-weight:bold;} g.dir, g.dynam, g.mNum{font-style:italic;} g.label{font-weight:normal;}</style>
   <svg class="definition-scale" color="black" viewBox="0 0 21000 29700">
      <g class="page-margin" transform="translate(500, 500)">
         <g id="myxts2a" class="mdiv pageMilestone" />
         <g id="s1kpbzku" class="score pageMilestone" />
         <g id="snhmv52" class="system">
            <g id="lztwm2j" class="label">
               <text x="1105" y="1535" text-anchor="end" font-size="0px">
                  <tspan id="t1cg0bdu" class="text">
                     <tspan font-size="405px" class="text">Piano</tspan>
                  </tspan>
               </text>
            </g>
            <g id="s1o92dj3" class="section systemMilestone" />
            <g id="mx5dvr3" class="measure">
               <g id="skdp7u6" class="staff">
                  <path d="M1285 1085 L5461 1085" stroke="currentColor" stroke-width="13" />
                  <path d="M1285 1265 L5461 1265" stroke="currentColor" stroke-width="13" />
                  <path d="M1285 1445 L5461 1445" stroke="currentColor" stroke-width="13" />
                  <path d="M1285 1625 L5461 1625" stroke="currentColor" stroke-width="13" />
                  <path d="M1285 1805 L5461 1805" stroke="currentColor" stroke-width="13" />
                  <g id="cqapfjt" class="clef">
                     <use xlink:href="#E050-6tn6h3" x="1375" y="1625" height="720px" width="720px" />
                  </g>
                  <g id="k1tioqtx" class="keySig">
                     <g id="k4ho3oc" class="keyAccid">
                        <use xlink:href="#E260-6tn6h3" x="2020" y="1445" height="720px" width="720px" />
                     </g>
                     <g id="k1iextk2" class="keyAccid">
                        <use xlink:href="#E260-6tn6h3" x="2200" y="1175" height="720px" width="720px" />
                     </g>
                  </g>
                  <g id="mfp9ud8" class="meterSig">
                     <use xlink:href="#E082-6tn6h3" x="2508" y="1265" height="720px" width="720px" />
                     <use xlink:href="#E084-6tn6h3" x="2513" y="1625" height="720px" width="720px" />
                  </g>
                  <g id="l5c1mda" class="layer">
                     <g id="bokc1g9" class="beam">
                        <polygon points="3290,860 4218,860 4218,950 3290,950" />
                        <polygon points="3845,995 4218,995 4218,1085 3845,1085" />
                        <g id="n14br5cm" class="note">
                           <g class="notehead">
                              <use xlink:href="#E0A4-6tn6h3" x="3082" y="1445" height="720px" width="720px" />
                           </g>
                           <g id="s1vg3r1o" class="stem">
                              <rect x="3290" y="878" height="539" width="18" />
                           </g>
                           <g id="arzbngg" class="accid" />
                        </g>
                        <g id="n6xa7hz" class="note">
                           <g class="notehead">
                              <use xlink:href="#E0A4-6tn6h3" x="3628" y="1535" height="720px" width="720px" />
                           </g>
                           <g id="s1c4i7m0" class="stem">
                              <rect x="3836" y="878" height="629" width="18" />
                           </g>
                        </g>
                        <g id="n5bcezw" class="note">
                           <g class="notehead">
                              <use xlink:href="#E0A4-6tn6h3" x="3992" y="1445" height="720px" width="720px" />
                           </g>
                           <g id="s1gpbxz1" class="stem">
                              <rect x="4200" y="878" height="539" width="18" />
                           </g>
                           <g id="a10qpuw6" class="accid" />
                        </g>
                     </g>
                     <g id="b6wwy67" class="beam">
                        <polygon points="4564,995 5128,905 5128,995 4564,1085" />
                        <g id="n1u3ymoi" class="note">
                           <g class="notehead">
                              <use xlink:href="#E0A4-6tn6h3" x="4356" y="1625" height="720px" width="720px" />
                           </g>
                           <g id="s1p1t2kw" class="stem">
                              <rect x="4564" y="1013" height="584" width="18" />
                           </g>
                        </g>
                        <g id="n1ytckjx" class="note">
                           <g class="notehead">
                              <use xlink:href="#E0A4-6tn6h3" x="4902" y="1535" height="720px" width="720px" />
                           </g>
                           <g id="svmkwj7" class="stem">
                              <rect x="5110" y="923" height="584" width="18" />
                           </g>
                        </g>
                     </g>
                  </g>
               </g>
               <g id="bypn7o1" class="barLine">
                  <path d="M5448 1085 L5448 1805" stroke="currentColor" stroke-width="27" />
               </g>
            </g>
            <g id="m1x44qq6" class="measure">
               <g id="s1tkg7dl" class="staff">
                  <path d="M5461 1085 L7840 1085" stroke="currentColor" stroke-width="13" />
                  <path d="M5461 1265 L7840 1265" stroke="currentColor" stroke-width="13" />
                  <path d="M5461 1445 L7840 1445" stroke="currentColor" stroke-width="13" />
                  <path d="M5461 1625 L7840 1625" stroke="currentColor" stroke-width="13" />
                  <path d="M5461 1805 L7840 1805" stroke="currentColor" stroke-width="13" />
                  <g id="lv0t2oq" class="layer">
                     <g id="br6ngdd" class="beam">
                        <polygon points="5850,1265 6414,1265 6414,1355 5850,1355" />
                        <g id="nsrq2aw" class="note">
                           <g class="notehead">
                              <use xlink:href="#E0A4-6tn6h3" x="5642" y="1895" height="720px" width="720px" />
                           </g>
                           <g id="sftxucy" class="stem">
                              <rect x="5850" y="1283" height="584" width="18" />
                           </g>
                        </g>
                        <g id="n1ometto" class="note">
                           <g class="notehead">
                              <use xlink:href="#E0A4-6tn6h3" x="6188" y="1895" height="720px" width="720px" />
                           </g>
                           <g id="syi74oh" class="stem">
                              <rect x="6396" y="1283" height="584" width="18" />
                           </g>
                        </g>
                     </g>
                     <g id="b1cqwxbb" class="beam">
                        <polygon points="6942,1040 7506,1040 7506,1130 6942,1130" />
                        <g id="n1slhwqs" class="note">
                           <g class="notehead">
                              <use xlink:href="#E0A4-6tn6h3" x="6734" y="1625" height="720px" width="720px" />
                           </g>
                           <g id="s18ijotv" class="stem">
                              <rect x="6942" y="1058" height="539" width="18" />
                           </g>
                        </g>
                        <g id="n759jjo" class="note">
                           <g class="notehead">
                              <use xlink:href="#E0A4-6tn6h3" x="7280" y="1625" height="720px" width="720px" />
                           </g>
                           <g id="s1ew6vkc" class="stem">
                              <rect x="7488" y="1058" height="539" width="18" />
                           </g>
                        </g>
                     </g>
                  </g>
               </g>
               <g id="baxl9rs" class="barLine">
                  <path d="M7827 1085 L7827 1805" stroke="currentColor" stroke-width="27" />
               </g>
            </g>
            <g id="mh8cd7k" class="measure">
               <g id="sley3l6" class="staff">
                  <path d="M7840 1085 L10400 1085" stroke="currentColor" stroke-width="13" />
                  <path d="M7840 1265 L10400 1265" stroke="currentColor" stroke-width="13" />
                  <path d="M7840 1445 L10400 1445" stroke="currentColor" stroke-width="13" />
                  <path d="M7840 1625 L10400 1625" stroke="currentColor" stroke-width="13" />
                  <path d="M7840 1805 L10400 1805" stroke="currentColor" stroke-width="13" />
                  <g id="lgfio2l" class="layer">
                     <g id="b9vb7b3" class="beam">
                        <polygon points="8229,860 9157,860 9157,950 8229,950" />
                        <polygon points="8784,995 9157,995 9157,1085 8784,1085" />
                        <g id="n17yf6me" class="note">
                           <g class="notehead">
                              <use xlink:href="#E0A4-6tn6h3" x="8021" y="1445" height="720px" width="720px" />
                           </g>
                           <g id="s134qqyl" class="stem">
                              <rect x="8229" y="878" height="539" width="18" />
                           </g>
                           <g id="awu4ri3" class="accid" />
                        </g>
                        <g id="n8j746l" class="note">
                           <g class="notehead">
                              <use xlink:href="#E0A4-6tn6h3" x="8567" y="1535" height="720px" width="720px" />
                           </g>
                           <g id="s19aawfj" class="stem">
                              <rect x="8775" y="878" height="629" width="18" />
                           </g>
                        </g>
                        <g id="n1ybt9fs" class="note">
                           <g class="notehead">
                              <use xlink:href="#E0A4-6tn6h3" x="8931" y="1445" height="720px" width="720px" />
                           </g>
                           <g id="sojzylu" class="stem">
                              <rect x="9139" y="878" height="539" width="18" />
                           </g>
                           <g id="a1ou5qiv" class="accid" />
                        </g>
                     </g>
                     <g id="bz2biyd" class="beam">
                        <polygon points="9503,995 10067,905 10067,995 9503,1085" />
                        <g id="n1o62dcp" class="note">
                           <g class="notehead">
                              <use xlink:href="#E0A4-6tn6h3" x="9295" y="1625" height="720px" width="720px" />
                           </g>
                           <g id="s3vn3hz" class="stem">
                              <rect x="9503" y="1013" height="584" width="18" />
                           </g>
                        </g>
                        <g id="njoc4wo" class="note">
                           <g class="notehead">
                              <use xlink:href="#E0A4-6tn6h3" x="9841" y="1535" height="720px" width="720px" />
                           </g>
                           <g id="s19sq10r" class="stem">
                              <rect x="10049" y="923" height="584" width="18" />
                           </g>
                        </g>
                     </g>
                  </g>
               </g>
               <g id="b1ekbbph" class="barLine">
                  <path d="M10387 1085 L10387 1805" stroke="currentColor" stroke-width="27" />
               </g>
            </g>
            <g id="m8g46hw" class="measure">
               <g id="syhjobe" class="staff">
                  <path d="M10400 1085 L12687 1085" stroke="currentColor" stroke-width="13" />
                  <path d="M10400 1265 L12687 1265" stroke="currentColor" stroke-width="13" />
                  <path d="M10400 1445 L12687 1445" stroke="currentColor" stroke-width="13" />
                  <path d="M10400 1625 L12687 1625" stroke="currentColor" stroke-width="13" />
                  <path d="M10400 1805 L12687 1805" stroke="currentColor" stroke-width="13" />
                  <g id="l1g977a8" class="layer">
                     <g id="b96bgff" class="beam">
                        <polygon points="10789,1265 11353,1265 11353,1355 10789,1355" />
                        <g id="n13a5r5y" class="note">
                           <g class="notehead">
                              <use xlink:href="#E0A4-6tn6h3" x="10581" y="1895" height="720px" width="720px" />
                           </g>
                           <g id="s14r23qw" class="stem">
                              <rect x="10789" y="1283" height="584" width="18" />
                           </g>
                        </g>
                        <g id="n1a8hy0b" class="note">
                           <g class="notehead">
                              <use xlink:href="#E0A4-6tn6h3" x="11127" y="1895" height="720px" width="720px" />
                           </g>
                           <g id="s9ajb2p" class="stem">
                              <rect x="11335" y="1283" height="584" width="18" />
                           </g>
                        </g>
                     </g>
                     <g id="nysxjci" class="note">
                        <g class="notehead">
                           <use xlink:href="#E0A4-6tn6h3" x="11673" y="1625" height="720px" width="720px" />
                        </g>
                        <g id="s1p0sl8s" class="stem">
                           <rect x="11881" y="995" height="602" width="18" />
                        </g>
                     </g>
                  </g>
               </g>
               <g id="darn134" class="dir fine">
                  <text x="12512" y="867" text-anchor="end" font-size="0px">
                     <tspan id="rfuitib" class="rend">
                        <tspan id="t1kt96jx" class="text">
                           <tspan font-size="405px" class="text">Fine</tspan>
                        </tspan>
                     </tspan>
                  </text>
               </g>
               <g id="b148bb01" class="barLine">
                  <path d="M12512 1085 L12512 1805" stroke="currentColor" stroke-width="27" />
                  <path d="M12642 1085 L12642 1805" stroke="currentColor" stroke-width="90" />
                  <use xlink:href="#E044-6tn6h3" x="12395" y="1355" height="720px" width="720px" />
                  <use xlink:href="#E044-6tn6h3" x="12395" y="1535" height="720px" width="720px" />
               </g>
            </g>
            <g id="mw1rfku" class="measure">
               <g id="s1yednls" class="staff">
                  <path d="M12687 1085 L15247 1085" stroke="currentColor" stroke-width="13" />
                  <path d="M12687 1265 L15247 1265" stroke="currentColor" stroke-width="13" />
                  <path d="M12687 1445 L15247 1445" stroke="currentColor" stroke-width="13" />
                  <path d="M12687 1625 L15247 1625" stroke="currentColor" stroke-width="13" />
                  <path d="M12687 1805 L15247 1805" stroke="currentColor" stroke-width="13" />
                  <g id="l14v1men" class="layer">
                     <g id="b1fuj5ii" class="beam">
                        <polygon points="12868,2030 13796,2030 13796,1940 12868,1940" />
                        <polygon points="13423,1895 13796,1895 13796,1805 13423,1805" />
                        <g id="n1pqsql4" class="note">
                           <g class="notehead">
                              <use xlink:href="#E0A4-6tn6h3" x="12868" y="1445" height="720px" width="720px" />
                           </g>
                           <g id="s1dfcgsq" class="stem">
                              <rect x="12868" y="1473" height="539" width="18" />
                           </g>
                           <g id="a1bcfyr7" class="accid" />
                        </g>
                        <g id="n1vu6m2p" class="note">
                           <g class="notehead">
                              <use xlink:href="#E0A4-6tn6h3" x="13414" y="1445" height="720px" width="720px" />
                           </g>
                           <g id="s1y8cwb9" class="stem">
                              <rect x="13414" y="1473" height="539" width="18" />
                           </g>
                           <g id="a1xiul5" class="accid" />
                        </g>
                        <g id="nsx1ae2" class="note">
                           <g class="notehead">
                              <use xlink:href="#E0A4-6tn6h3" x="13778" y="1445" height="720px" width="720px" />
                           </g>
                           <g id="se1gyli" class="stem">
                              <rect x="13778" y="1473" height="539" width="18" />
                           </g>
                           <g id="a1kzcm63" class="accid" />
                        </g>
                     </g>
                     <g id="b1xzmn5z" class="beam">
                        <polygon points="14142,2030 14706,1850 14706,1760 14142,1940" />
                        <g id="n7v80kf" class="note">
                           <g class="notehead">
                              <use xlink:href="#E0A4-6tn6h3" x="14142" y="1445" height="720px" width="720px" />
                           </g>
                           <g id="s11ucsu" class="stem">
                              <rect x="14142" y="1473" height="539" width="18" />
                           </g>
                           <g id="agk6jy" class="accid" />
                        </g>
                        <g id="nq5hin9" class="note">
                           <g class="notehead">
                              <use xlink:href="#E0A4-6tn6h3" x="14688" y="1265" height="720px" width="720px" />
                           </g>
                           <g id="svgllw2" class="stem">
                              <rect x="14688" y="1293" height="539" width="18" />
                           </g>
                        </g>
                     </g>
                  </g>
               </g>
               <g id="b1dijwd9" class="barLine">
                  <path d="M15234 1085 L15234 1805" stroke="currentColor" stroke-width="27" />
               </g>
            </g>
            <g id="m195w32n" class="measure">
               <g id="s1g1g6ze" class="staff">
                  <path d="M15247 1085 L17626 1085" stroke="currentColor" stroke-width="13" />
                  <path d="M15247 1265 L17626 1265" stroke="currentColor" stroke-width="13" />
                  <path d="M15247 1445 L17626 1445" stroke="currentColor" stroke-width="13" />
                  <path d="M15247 1625 L17626 1625" stroke="currentColor" stroke-width="13" />
                  <path d="M15247 1805 L17626 1805" stroke="currentColor" stroke-width="13" />
                  <g id="l127z7pt" class="layer">
                     <g id="bp6iiqb" class="beam">
                        <polygon points="15428,1940 15992,2030 15992,1940 15428,1850" />
                        <g id="nn03j7" class="note">
                           <g class="notehead">
                              <use xlink:href="#E0A4-6tn6h3" x="15428" y="1355" height="720px" width="720px" />
                           </g>
                           <g id="syi0wf7" class="stem">
                              <rect x="15428" y="1383" height="539" width="18" />
                           </g>
                        </g>
                        <g id="n1876y82" class="note">
                           <g class="notehead">
                              <use xlink:href="#E0A4-6tn6h3" x="15974" y="1445" height="720px" width="720px" />
                           </g>
                           <g id="stugak9" class="stem">
                              <rect x="15974" y="1473" height="539" width="18" />
                           </g>
                           <g id="ak2adtn" class="accid" />
                        </g>
                     </g>
                     <g id="bs5f2q8" class="beam">
                        <polygon points="16520,2075 17084,1895 17084,1805 16520,1985" />
                        <g id="nsprnnr" class="note">
                           <g class="notehead">
                              <use xlink:href="#E0A4-6tn6h3" x="16520" y="1535" height="720px" width="720px" />
                           </g>
                           <g id="swibp8i" class="stem">
                              <rect x="16520" y="1563" height="494" width="18" />
                           </g>
                        </g>
                        <g id="nmtlbrq" class="note">
                           <g class="notehead">
                              <use xlink:href="#E0A4-6tn6h3" x="17066" y="1265" height="720px" width="720px" />
                           </g>
                           <g id="s1el8z54" class="stem">
                              <rect x="17066" y="1293" height="584" width="18" />
                           </g>
                        </g>
                     </g>
                  </g>
               </g>
               <g id="b1u06f5g" class="barLine">
                  <path d="M17613 1085 L17613 1805" stroke="currentColor" stroke-width="27" />
               </g>
            </g>
            <g id="mvc635z" class="measure">
               <g id="s14esfjc" class="staff">
                  <path d="M17626 1085 L20005 1085" stroke="currentColor" stroke-width="13" />
                  <path d="M17626 1265 L20005 1265" stroke="currentColor" stroke-width="13" />
                  <path d="M17626 1445 L20005 1445" stroke="currentColor" stroke-width="13" />
                  <path d="M17626 1625 L20005 1625" stroke="currentColor" stroke-width="13" />
                  <path d="M17626 1805 L20005 1805" stroke="currentColor" stroke-width="13" />
                  <g id="lxbc82f" class="layer">
                     <g id="bnv7vqx" class="beam">
                        <polygon points="17807,1940 18371,2030 18371,1940 17807,1850" />
                        <g id="n9pway5" class="note">
                           <g class="notehead">
                              <use xlink:href="#E0A4-6tn6h3" x="17807" y="1355" height="720px" width="720px" />
                           </g>
                           <g id="sgogujf" class="stem">
                              <rect x="17807" y="1383" height="539" width="18" />
                           </g>
                        </g>
                        <g id="n1a6vmev" class="note">
                           <g class="notehead">
                              <use xlink:href="#E0A4-6tn6h3" x="18353" y="1445" height="720px" width="720px" />
                           </g>
                           <g id="stnp4zy" class="stem">
                              <rect x="18353" y="1473" height="539" width="18" />
                           </g>
                           <g id="auybziq" class="accid" />
                        </g>
                     </g>
                     <g id="b1ll9c2y" class="beam">
                        <polygon points="18899,2075 19463,1895 19463,1805 18899,1985" />
                        <g id="n1dtu4p0" class="note">
                           <g class="notehead">
                              <use xlink:href="#E0A4-6tn6h3" x="18899" y="1535" height="720px" width="720px" />
                           </g>
                           <g id="shkvup8" class="stem">
                              <rect x="18899" y="1563" height="494" width="18" />
                           </g>
                        </g>
                        <g id="n18mbxku" class="note">
                           <g class="notehead">
                              <use xlink:href="#E0A4-6tn6h3" x="19445" y="1265" height="720px" width="720px" />
                           </g>
                           <g id="s151y7xu" class="stem">
                              <rect x="19445" y="1293" height="584" width="18" />
                           </g>
                        </g>
                     </g>
                  </g>
               </g>
               <g id="b1wlwboq" class="barLine">
                  <path d="M19992 1085 L19992 1805" stroke="currentColor" stroke-width="27" />
               </g>
            </g>
         </g>
         <g id="soi9amh" class="system">
            <g id="l1jmil2a" class="labelAbbr">
               <text x="914" y="3884" text-anchor="end" font-size="0px">
                  <tspan id="tixphvf" class="text">
                     <tspan font-size="405px" class="text">Pno.</tspan>
                  </tspan>
               </text>
            </g>
            <g id="m8dwoq4" class="measure">
               <g id="mniyafu" class="mNum autogenerated">
                  <text x="1094" y="3191" text-anchor="middle" font-size="0px">
                     <tspan id="t7lemc1" class="text">
                        <tspan font-size="324px" class="text">8</tspan>
                     </tspan>
                  </text>
               </g>
               <g id="sctivkk" class="staff">
                  <path d="M1094 3434 L4523 3434" stroke="currentColor" stroke-width="13" />
                  <path d="M1094 3614 L4523 3614" stroke="currentColor" stroke-width="13" />
                  <path d="M1094 3794 L4523 3794" stroke="currentColor" stroke-width="13" />
                  <path d="M1094 3974 L4523 3974" stroke="currentColor" stroke-width="13" />
                  <path d="M1094 4154 L4523 4154" stroke="currentColor" stroke-width="13" />
                  <g id="c1li485p" class="clef">
                     <use xlink:href="#E050-6tn6h3" x="1184" y="3974" height="720px" width="720px" />
                  </g>
                  <g id="k1g5dmk0" class="keySig">
                     <g id="k1pp1scg" class="keyAccid">
                        <use xlink:href="#E260-6tn6h3" x="1829" y="3794" height="720px" width="720px" />
                     </g>
                     <g id="k7anxbg" class="keyAccid">
                        <use xlink:href="#E260-6tn6h3" x="2009" y="3524" height="720px" width="720px" />
                     </g>
                  </g>
                  <g id="l1mazpr9" class="layer">
                     <g id="bs8z9nk" class="beam">
                        <polygon points="2421,4289 2984,4379 2984,4289 2421,4199" />
                        <g id="nu40mdg" class="note">
                           <g class="notehead">
                              <use xlink:href="#E0A4-6tn6h3" x="2421" y="3704" height="720px" width="720px" />
                           </g>
                           <g id="slv9n52" class="stem">
                              <rect x="2421" y="3732" height="539" width="18" />
                           </g>
                        </g>
                        <g id="n16s8zcp" class="note">
                           <g class="notehead">
                              <use xlink:href="#E0A4-6tn6h3" x="2966" y="3794" height="720px" width="720px" />
                           </g>
                           <g id="s1fpqvlt" class="stem">
                              <rect x="2966" y="3822" height="539" width="18" />
                           </g>
                           <g id="a9u2qoq" class="accid" />
                        </g>
                     </g>
                     <g id="n14uux9f" class="note">
                        <g class="notehead">
                           <use xlink:href="#E0A4-6tn6h3" x="3511" y="3884" height="720px" width="720px" />
                        </g>
                        <g id="sl5nvh7" class="stem">
                           <rect x="3719" y="3254" height="602" width="18" />
                        </g>
                     </g>
                  </g>
               </g>
               <g id="bnjpff8" class="barLine">
                  <path d="M4348 3434 L4348 4154" stroke="currentColor" stroke-width="27" />
                  <path d="M4478 3434 L4478 4154" stroke="currentColor" stroke-width="90" />
               </g>
            </g>
            <g id="s108nx3e" class="systemMilestoneEnd s1o92dj3" />
         </g>
         <g id="p1rv771t" class="pageMilestoneEnd s1kpbzku" />
         <g id="p1ybgu0l" class="pageMilestoneEnd myxts2a" />
         <g id="p14d1dfr" class="pgHead">
            <text x="0" y="0" font-size="0px">
               <tspan id="rm3bazz" class="rend" x="10000" y="277" text-anchor="middle">
                  <tspan id="t1kgdjj8" class="text">
                     <tspan font-size="405px" class="text">Air n 194</tspan>
                  </tspan>
               </tspan>
            </text>
         </g>
         <g id="p1h6uiyr" class="pgFoot autogenerated">
            <g id="f1owgmsl" class="fig">
               <g id="suv4azr" class="svg" transform="translate(7750, 28099) scale(10, 10)">
                  <g>
                     <path fill="#00000" d="M 17.11278,49.26451 V 10.367554 h 12.696511 c 3.288815,7.336676 6.71267,14.610456 10.127281,21.888976 3.419998,-7.484684 6.255515,-14.204887 9.58887,-21.909915 2.436207,0.103726 4.316952,0.08453 6.484294,-0.05808 V 49.264423 H 50.274275 C 50.145222,38.35639 50.016136,27.448368 49.887066,16.540329 45.003488,27.315459 39.967448,38.433564 35.083854,49.208695 34.678996,49.343717 34.426583,49.135619 34.021726,49.270644 29.46588,39.330716 24.910049,29.390805 20.354201,19.450876 20.224341,29.388756 20.09461,39.326619 19.964815,49.264497 H 17.11278 Z M 36.754144,39.324695 C 32.721221,30.512695 28.6883,21.700679 24.655394,12.888662 22.530527,12.750737 22.656775,12.71031 20.714356,12.813974 v 0.966497 c 4.612938,9.99784 9.609439,20.748709 13.87298,30.081745 0.722248,-1.512523 1.444528,-3.025014 2.166808,-4.537521 z m 25.738417,9.939815 c 0,-12.965651 0,-25.931305 0,-38.896956 10.084388,0 20.168791,0 30.253178,0 0,0.960416 0,1.920849 0,2.881265 -6.482825,0 -12.965652,0 -19.448478,0 0,4.802097 0,9.604178 0,14.406277 5.52241,0 11.044819,0 16.567229,0 0,0.960415 0,1.920832 0,2.881248 -5.52241,0 -11.044819,0 -16.567229,0 0,5.282306 0,10.564611 0,15.846917 6.963035,0 13.926068,0 20.889103,0 0,0.960416 0,1.920832 0,2.881249 -10.564597,0 -21.129207,0 -31.693803,0 z m 4.321874,-2.160937 c 0,-11.765131 0,-23.530263 0,-35.295394 -0.720312,0 -1.440625,0 -2.160937,0 0,11.765131 0,23.530263 0,35.295394 0.720312,0 1.440625,0 2.160937,0 z m 32.41413,2.160937 c 0,-12.965651 0,-25.931305 0,-38.896956 2.401045,0 4.802095,0 7.203135,0 0,12.965651 0,25.931305 0,38.896956 -2.40104,0 -4.80209,0 -7.203135,0 z m 2.881265,-2.160937 c 0,-11.765131 0,-23.530263 0,-35.295394 -0.72031,0 -1.44064,0 -2.160953,0 0,11.765131 0,23.530263 0,35.295394 0.720313,0 1.440643,0 2.160953,0 z" />
                     <path fill="#00000" d="m 346.3,6.7 c -3.1,0.5 -4.9,4.4 -2.7,6.8 1.2,1.4 2.7,2.4 4.1,3.5 -2.4,5.3 -7.7,8.3 -11.9,12.1 -3.7,2.8 -7,6.2 -9.7,9.9 -2.2,-0.8 -0.3,-6.8 -0.6,-9.5 0.1,-3.1 0.7,-6.4 2.9,-8.7 1.3,-1.9 3,-3.5 4.5,-5.2 1.2,-3.4 -3.2,-4.9 -5.8,-4.6 -7.3,-0.5 -14.6,2 -20,6.8 -5,4.6 -10,10.1 -11.5,17 -0.9,3.5 -0.2,7.5 2.8,9.9 2.5,2.8 7.4,2.9 9.8,-0.2 1.7,-2.3 3.2,-4.8 3.8,-7.6 -0.1,-2.6 -4.4,-2.3 -4.3,0.2 1.2,2.4 -0.9,4.7 -2.7,6.2 -1.7,0.9 -4.7,0.7 -4.8,-1.7 -1,-5.8 2.1,-11.3 5.2,-16.1 4,-5.8 9.8,-11.2 17.2,-11.8 1.6,0 8.1,-1.2 6.8,1.4 -2.8,2.8 -5.6,6.1 -6,10.3 -1.6,7.7 0.1,15.7 -2.3,23.2 -1.1,3.9 2,2.6 2.5,0.2 3.3,-7.4 8.9,-13.4 15.1,-18.5 4.2,-3.9 9.5,-7.1 11.9,-12.6 1.3,-3.6 1.2,-9 -2.7,-10.9 -0.6,-0.2 -1.2,-0.3 -1.8,-0.3 z m 66,14.5 c -2,0.8 -1.8,4.9 0.8,4.4 3.4,0.4 2.9,-6.2 -0.8,-4.4 z m 0.6,7.3 c -1.3,0.5 -7.6,0.5 -5.4,2.2 4,-0.3 0.7,4.5 0.6,6.7 -0.4,2.9 -2.4,5.9 -1.2,8.8 2.7,1.7 5.6,-0.8 6.8,-3.2 1.6,-1.4 -0.5,-3 -1.2,-0.9 -0.4,0.8 -2.4,3.5 -2.6,1.8 1.1,-5 2.7,-9.9 3.9,-14.9 l -0.1,-0.5 h -0.9 z m -65.1,0.2 c -6.5,1.6 -10.5,9.5 -8.2,15.7 2.1,3.4 7.4,2.9 10.1,0.4 2,-0.2 3.6,-5.3 1,-3.4 -1.4,2 -4,4.2 -6.5,2.8 -2.2,-1.9 -1.9,-5.7 1.7,-5.3 3.1,-0.9 6.9,-2.1 8.1,-5.5 0.9,-2.7 -1.6,-5.2 -4.3,-4.8 h -1.1 -0.7 z m 13.6,0 c -2.2,0 -8.5,1.8 -2.9,2.3 0.9,1.9 -1,4.9 -1.1,7.2 -0.5,2.9 -1.4,5.7 -1.7,8.7 3.7,0.7 3.8,-2.6 4.4,-5.3 0.9,-3.3 1.6,-7 4.1,-9.5 2.4,1.6 6.8,-0.7 3.7,-3.4 -2.9,-0.5 -4.8,2.4 -6.2,4.3 0,-1.2 2.4,-5 -0.2,-4.3 z m 15.8,0 c -6.4,1.3 -9.6,9.1 -7.7,14.9 1.9,4 7.7,3.9 11,1.7 4.1,-3 6,-8.9 4.4,-13.7 -1.3,-3 -4.8,-3.2 -7.6,-3 z m 17,0 c -2.3,0 -8.8,1.9 -3,2.4 0.4,2.5 -1,5.7 -1.4,8.4 -0.7,2.4 -1.8,7.5 2.1,7.2 3.8,-0.1 6.5,-3.5 8.5,-6.3 2,-3.2 4.5,-7 3.3,-10.9 -3.7,-3 -3.6,2.6 -3.1,5.1 -0.7,3.8 -2.7,7.9 -6.2,9.8 -3.6,0.6 -1,-4.3 -0.8,-6.1 0.6,-3.2 1.6,-6.3 1.9,-9.5 -0.4,0 -0.8,0 -1.1,0 z m 30.6,0 c -6.3,1.2 -9.5,8.9 -7.8,14.7 1.5,4 7.2,4.2 10.5,2.4 4.6,-2.8 6.6,-9.3 4.8,-14.3 -1.4,-2.8 -4.8,-3 -7.5,-2.8 z m -75.4,1.7 c 2.1,1.5 0.2,4.7 -1.6,5.7 -1.1,0.4 -5.5,3.4 -4.6,0.7 0.8,-2.7 2.2,-6.2 5.3,-6.6 l 0.9,0.1 z m 30.8,0 c 2.6,1.5 1.3,5.2 0.8,7.6 -0.8,2.7 -1.9,5.9 -4.7,7.1 -5.1,0.8 -4,-5.8 -2.8,-8.8 1,-2.8 3,-6.8 6.7,-5.8 z m 47.1,-0.1 c 2.9,0.7 2,4.7 1.5,6.8 -0.7,3 -1.8,6.7 -5,8 -4.7,0.8 -4,-5.1 -3,-7.9 0.9,-3 2.7,-7.3 6.5,-6.8 z m -88.1,5.9 c -0.3,1.3 0.9,-0.6 0,0 z m -1.1,2.4 c -0.2,0.5 0.5,-0.1 0,0 z m -1.3,4.5 c -0.3,1.3 0.8,-0.2 0,0 z" />
                     <text y="41" x="201" fill="#00000" style="font-style:italic;font-weight:normal;font-size:30px;line-height:125%;font-family:Times;text-anchor:middle" xml:space="preserve">engraved with</text>
                  </g>
               </g>
            </g>
         </g>
      </g>
   </svg>
</svg>
