<?xml version="1.0" encoding="UTF-8" standalone="no"?>
<svg width="2100px" height="2970px" version="1.1" xmlns="http://www.w3.org/2000/svg" xmlns:xlink="http://www.w3.org/1999/xlink" xmlns:mei="http://www.music-encoding.org/ns/mei" overflow="visible">
   <desc>Engraved by Verovio 3.13.1</desc>
   <defs>
      <symbol id="E044-9kmqk2" viewBox="0 0 1000 1000" overflow="inherit">
         <path transform="scale(1,-1)" d="M0 0c0 28 22 50 50 50s50 -22 50 -50s-22 -50 -50 -50s-50 22 -50 50z" />
      </symbol>
      <symbol id="E050-9kmqk2" viewBox="0 0 1000 1000" overflow="inherit">
         <path transform="scale(1,-1)" d="M441 -245c-23 -4 -48 -6 -76 -6c-59 0 -102 7 -130 20c-88 42 -150 93 -187 154c-26 44 -43 103 -48 176c0 6 -1 13 -1 19c0 54 15 111 45 170c29 57 65 106 110 148s96 85 153 127c-3 16 -8 46 -13 92c-4 43 -5 73 -5 89c0 117 16 172 69 257c34 54 64 82 89 82 c21 0 43 -30 69 -92s39 -115 41 -159v-15c0 -109 -21 -162 -67 -241c-13 -20 -63 -90 -98 -118c-13 -9 -25 -19 -37 -29l31 -181c8 1 18 2 28 2c58 0 102 -12 133 -35c59 -43 92 -104 98 -184c1 -7 1 -15 1 -22c0 -123 -87 -209 -181 -248c8 -57 17 -110 25 -162 c5 -31 6 -58 6 -80c0 -30 -5 -53 -14 -70c-35 -64 -88 -99 -158 -103c-5 0 -11 -1 -16 -1c-37 0 -72 10 -108 27c-50 24 -77 59 -80 105v11c0 29 7 55 20 76c18 28 45 42 79 44h6c49 0 93 -42 97 -87v-9c0 -51 -34 -86 -105 -106c17 -24 51 -36 102 -36c62 0 116 43 140 85 c9 16 13 41 13 74c0 20 -1 42 -5 67c-8 53 -18 106 -26 159zM461 939c-95 0 -135 -175 -135 -286c0 -24 2 -48 5 -71c50 39 92 82 127 128c40 53 60 100 60 140v8c-4 53 -22 81 -55 81h-2zM406 119l54 -326c73 25 110 78 110 161c0 7 0 15 -1 23c-7 95 -57 142 -151 142h-12 zM382 117c-72 -2 -128 -47 -128 -120v-7c2 -46 43 -99 75 -115c-3 -2 -7 -5 -10 -10c-70 33 -116 88 -123 172v11c0 68 44 126 88 159c23 17 49 29 78 36l-29 170c-21 -13 -52 -37 -92 -73c-50 -44 -86 -84 -109 -119c-45 -69 -67 -130 -67 -182v-13c5 -68 35 -127 93 -176 s125 -73 203 -73c25 0 50 3 75 9c-19 111 -36 221 -54 331z" />
      </symbol>
      <symbol id="E081-9kmqk2" viewBox="0 0 1000 1000" overflow="inherit">
         <path transform="scale(1,-1)" d="M68 -250v36c23 0 40 6 49 18c8 14 12 33 12 57v250l-82 -129l-27 13l107 255h128v-394c0 -24 5 -42 14 -53s25 -17 47 -17v-36h-248z" />
      </symbol>
      <symbol id="E085-9kmqk2" viewBox="0 0 1000 1000" overflow="inherit">
         <path transform="scale(1,-1)" d="M161 38c-14 0 -56 -5 -92 -51h-32l5 263c55 -11 108 -18 158 -18c40 0 85 6 134 17c-8 -52 -39 -114 -159 -114l-50 2c-19 2 -31 4 -49 10l-5 -111c38 26 81 39 129 39c94 0 177 -64 177 -159c0 -100 -98 -166 -211 -166c-88 0 -146 53 -146 115c0 53 39 83 75 83 c37 0 69 -32 69 -72c0 -4 -1 -10 -4 -18l-27 -37c-2 -3 -3 -8 -3 -14c0 -15 12 -23 36 -23c74 0 92 77 92 132s-35 122 -97 122z" />
      </symbol>
      <symbol id="E086-9kmqk2" viewBox="0 0 1000 1000" overflow="inherit">
         <path transform="scale(1,-1)" d="M284 -91c0 37 -28 92 -67 92c-35 0 -65 -54 -65 -111c0 -52 22 -104 68 -104c47 0 64 68 64 123zM230 214c-36 0 -90 -33 -90 -184l2 -36c40 24 81 36 120 36c80 0 140 -48 140 -121c0 -99 -99 -159 -182 -159c-160 0 -200 173 -200 244c0 21 2 43 7 71l10 35 c26 85 73 115 98 126c41 19 74 24 103 24c93 0 142 -63 142 -105c0 -58 -52 -72 -73 -72c-33 0 -59 24 -65 35c-3 5 -6 14 -7 25l11 30c6 15 9 27 9 35c0 11 -9 16 -25 16z" />
      </symbol>
      <symbol id="E088-9kmqk2" viewBox="0 0 1000 1000" overflow="inherit">
         <path transform="scale(1,-1)" d="M195 -214c76 0 88 58 90 68c0 34 -35 60 -57 73l-52 29c-21 10 -32 17 -34 20c-39 -33 -58 -54 -62 -92c5 -23 23 -98 115 -98zM301 135c0 61 -72 76 -113 76c-40 0 -77 -17 -77 -51c3 -21 15 -38 26 -50c17 -15 33 -26 48 -34l65 -28c34 27 51 56 51 87zM176 -250 c-57 0 -166 26 -166 132c0 47 30 86 89 116c-33 15 -79 60 -79 119c0 79 85 132 178 132h18c5 0 21 1 28 -1c25 0 126 -30 126 -110c0 -37 -23 -76 -69 -116c43 -25 83 -71 83 -119c0 -101 -118 -153 -208 -153z" />
      </symbol>
      <symbol id="E0A4-9kmqk2" viewBox="0 0 1000 1000" overflow="inherit">
         <path transform="scale(1,-1)" d="M0 -39c0 68 73 172 200 172c66 0 114 -37 114 -95c0 -84 -106 -171 -218 -171c-64 0 -96 30 -96 94z" />
      </symbol>
      <symbol id="E240-9kmqk2" viewBox="0 0 1000 1000" overflow="inherit">
         <path transform="scale(1,-1)" d="M179 -646c15 29 29 55 46 102c18 49 30 108 30 138c0 105 -80 173 -168 200c-18 5 -47 9 -87 16v190h22c8 0 33 -61 71 -95c4 -3 -2 3 61 -56c62 -58 122 -137 122 -241c0 -38 -13 -106 -35 -163c-20 -51 -43 -99 -66 -132c-6 -5 -10 -7 -13 -7s-5 2 -5 5l4 10 c1 3 14 25 18 33z" />
      </symbol>
      <symbol id="E241-9kmqk2" viewBox="0 0 1000 1000" overflow="inherit">
         <path transform="scale(1,-1)" d="M179 646c-4 8 -17 30 -18 33l-4 10c0 3 2 5 5 5s7 -2 13 -7c23 -33 46 -81 66 -132c22 -57 35 -125 35 -163c0 -104 -60 -183 -122 -241c-63 -59 -57 -53 -61 -56c-38 -34 -63 -95 -71 -95h-22v190c40 7 69 11 87 16c88 27 168 95 168 200c0 30 -12 89 -30 138 c-17 47 -31 73 -46 102z" />
      </symbol>
      <symbol id="E260-9kmqk2" viewBox="0 0 1000 1000" overflow="inherit">
         <path transform="scale(1,-1)" d="M20 110c32 16 54 27 93 27c26 0 35 -3 54 -13c13 -7 24 -20 27 -38l4 -25c0 -28 -16 -57 -45 -89c-23 -25 -39 -44 -65 -68l-88 -79v644h20v-359zM90 106c-32 0 -48 -10 -70 -29v-194c31 31 54 59 71 84c21 32 32 59 32 84c0 9 1 16 1 20c0 14 -3 21 -11 30l-8 3z" />
      </symbol>
   </defs>
   <style type="text/css">g.page-margin{font-family:Times;} g.ending, g.fing, g.reh, g.tempo{font-weight:bold;} g.dir, g.dynam, g.mNum{font-style:italic;} g.label{font-weight:normal;}</style>
   <svg class="definition-scale" color="black" viewBox="0 0 21000 29700">
      <g class="page-margin" transform="translate(500, 500)">
         <g id="mmozuaa" class="mdiv pageMilestone" />
         <g id="s1ddb5uu" class="score pageMilestone" />
         <g id="s1jo08ei" class="system">
            <g id="l1qdplkq" class="label">
               <text x="1105" y="1535" text-anchor="end" font-size="0px">
                  <tspan id="t1ifk81f" class="text">
                     <tspan font-size="405px" class="text">Piano</tspan>
                  </tspan>
               </text>
            </g>
            <g id="s1eboic1" class="section systemMilestone" />
            <g id="p1u452ti" class="pb" />
            <g id="mi42pgd" class="measure">
               <g id="m1dhl4pd" class="mNum">
                  <text x="1285" y="842" text-anchor="middle" font-size="0px" />
               </g>
               <g id="s6ltga4" class="staff">
                  <path d="M1285 1085 L3748 1085" stroke="currentColor" stroke-width="13" />
                  <path d="M1285 1265 L3748 1265" stroke="currentColor" stroke-width="13" />
                  <path d="M1285 1445 L3748 1445" stroke="currentColor" stroke-width="13" />
                  <path d="M1285 1625 L3748 1625" stroke="currentColor" stroke-width="13" />
                  <path d="M1285 1805 L3748 1805" stroke="currentColor" stroke-width="13" />
                  <g id="c1h7m2m9" class="clef">
                     <use xlink:href="#E050-9kmqk2" x="1375" y="1625" height="720px" width="720px" />
                  </g>
                  <g id="k3iksp4" class="keySig">
                     <g id="k1bhuu0r" class="keyAccid">
                        <use xlink:href="#E260-9kmqk2" x="2020" y="1445" height="720px" width="720px" />
                     </g>
                     <g id="kv37ddn" class="keyAccid">
                        <use xlink:href="#E260-9kmqk2" x="2200" y="1175" height="720px" width="720px" />
                     </g>
                  </g>
                  <g id="m18sek2j" class="meterSig">
                     <use xlink:href="#E086-9kmqk2" x="2508" y="1265" height="720px" width="720px" />
                     <use xlink:href="#E088-9kmqk2" x="2515" y="1625" height="720px" width="720px" />
                  </g>
                  <g id="l1ahcrji" class="layer">
                     <g id="n183v1an" class="note">
                        <g class="notehead">
                           <use xlink:href="#E0A4-9kmqk2" x="3074" y="1625" height="720px" width="720px" />
                        </g>
                        <g id="szxgqdv" class="stem">
                           <rect x="3282" y="995" height="602" width="18" />
                           <g id="f8t9dwa" class="flag">
                              <use xlink:href="#E240-9kmqk2" x="3282" y="995" height="720px" width="720px" />
                           </g>
                        </g>
                     </g>
                  </g>
               </g>
               <g id="b92ngte" class="barLine">
                  <path d="M3735 1085 L3735 1805" stroke="currentColor" stroke-width="27" />
               </g>
            </g>
            <g id="m1yahqv9" class="measure">
               <g id="sz7phal" class="staff">
                  <path d="M3748 1085 L6963 1085" stroke="currentColor" stroke-width="13" />
                  <path d="M3748 1265 L6963 1265" stroke="currentColor" stroke-width="13" />
                  <path d="M3748 1445 L6963 1445" stroke="currentColor" stroke-width="13" />
                  <path d="M3748 1625 L6963 1625" stroke="currentColor" stroke-width="13" />
                  <path d="M3748 1805 L6963 1805" stroke="currentColor" stroke-width="13" />
                  <g id="l1p0sefs" class="layer">
                     <g id="n17n58nz" class="note">
                        <g class="notehead">
                           <use xlink:href="#E0A4-9kmqk2" x="3935" y="1625" height="720px" width="720px" />
                        </g>
                        <g id="sxxxwr5" class="stem">
                           <rect x="4143" y="995" height="602" width="18" />
                        </g>
                     </g>
                     <g id="nc6mir" class="note">
                        <g class="notehead">
                           <use xlink:href="#E0A4-9kmqk2" x="4949" y="1265" height="720px" width="720px" />
                        </g>
                        <g id="sy3t4r8" class="stem">
                           <rect x="4949" y="1293" height="602" width="18" />
                           <g id="fvfhwwu" class="flag">
                              <use xlink:href="#E241-9kmqk2" x="4949" y="1895" height="720px" width="720px" />
                           </g>
                        </g>
                     </g>
                     <g id="n11sgmln" class="note">
                        <g class="notehead">
                           <use xlink:href="#E0A4-9kmqk2" x="5289" y="1265" height="540px" width="540px" />
                        </g>
                        <g id="s1wfpkny" class="stem">
                           <rect x="5440" y="860" height="384" width="18" />
                           <g id="f2he0b8" class="flag">
                              <use xlink:href="#E240-9kmqk2" x="5440" y="860" height="540px" width="540px" />
                           </g>
                        </g>
                     </g>
                     <g id="nqq9n2m" class="note">
                        <g class="notehead">
                           <use xlink:href="#E0A4-9kmqk2" x="5656" y="1355" height="720px" width="720px" />
                        </g>
                        <g id="dqd84x0" class="dots">
                           <ellipse cx="5972" cy="1355" rx="36" ry="36" />
                        </g>
                        <g id="s1gpzy6z" class="stem">
                           <rect x="5656" y="1383" height="602" width="18" />
                        </g>
                     </g>
                  </g>
               </g>
               <g id="b20d79u" class="barLine">
                  <path d="M6950 1085 L6950 1805" stroke="currentColor" stroke-width="27" />
               </g>
            </g>
            <g id="m1wy6oyn" class="measure">
               <g id="sv2lj6j" class="staff">
                  <path d="M6963 1085 L10822 1085" stroke="currentColor" stroke-width="13" />
                  <path d="M6963 1265 L10822 1265" stroke="currentColor" stroke-width="13" />
                  <path d="M6963 1445 L10822 1445" stroke="currentColor" stroke-width="13" />
                  <path d="M6963 1625 L10822 1625" stroke="currentColor" stroke-width="13" />
                  <path d="M6963 1805 L10822 1805" stroke="currentColor" stroke-width="13" />
                  <g id="l1tulr4t" class="layer">
                     <g id="b1jlio4k" class="beam">
                        <polygon points="7150,1850 8490,2030 8490,1940 7150,1760" />
                        <g id="n1io2ssk" class="note">
                           <g class="notehead">
                              <use xlink:href="#E0A4-9kmqk2" x="7150" y="1265" height="720px" width="720px" />
                           </g>
                           <g id="s1upa7ya" class="stem">
                              <rect x="7150" y="1293" height="539" width="18" />
                           </g>
                        </g>
                        <g id="n1oc4xci" class="note">
                           <g class="notehead">
                              <use xlink:href="#E0A4-9kmqk2" x="7811" y="1355" height="720px" width="720px" />
                           </g>
                           <g id="s1990qe3" class="stem">
                              <rect x="7811" y="1383" height="539" width="18" />
                           </g>
                        </g>
                        <g id="na6aocu" class="note">
                           <g class="notehead">
                              <use xlink:href="#E0A4-9kmqk2" x="8472" y="1445" height="720px" width="720px" />
                           </g>
                           <g id="sio7thg" class="stem">
                              <rect x="8472" y="1473" height="539" width="18" />
                           </g>
                           <g id="a13z2mcb" class="accid" />
                        </g>
                     </g>
                     <g id="n1ohunbt" class="note">
                        <g class="notehead">
                           <use xlink:href="#E0A4-9kmqk2" x="9134" y="1535" height="720px" width="720px" />
                        </g>
                        <g id="s2r5dgu" class="stem">
                           <rect x="9342" y="905" height="602" width="18" />
                        </g>
                     </g>
                     <g id="nkxyg7b" class="note">
                        <g class="notehead">
                           <use xlink:href="#E0A4-9kmqk2" x="10148" y="1625" height="720px" width="720px" />
                        </g>
                        <g id="s1n07k57" class="stem">
                           <rect x="10356" y="995" height="602" width="18" />
                           <g id="fk0z48q" class="flag">
                              <use xlink:href="#E240-9kmqk2" x="10356" y="995" height="720px" width="720px" />
                           </g>
                        </g>
                     </g>
                  </g>
               </g>
               <g id="b117nz1l" class="barLine">
                  <path d="M10809 1085 L10809 1805" stroke="currentColor" stroke-width="27" />
               </g>
            </g>
            <g id="m1be586g" class="measure">
               <g id="stshde8" class="staff">
                  <path d="M10822 1085 L14037 1085" stroke="currentColor" stroke-width="13" />
                  <path d="M10822 1265 L14037 1265" stroke="currentColor" stroke-width="13" />
                  <path d="M10822 1445 L14037 1445" stroke="currentColor" stroke-width="13" />
                  <path d="M10822 1625 L14037 1625" stroke="currentColor" stroke-width="13" />
                  <path d="M10822 1805 L14037 1805" stroke="currentColor" stroke-width="13" />
                  <g id="lacp2vi" class="layer">
                     <g id="nny98oh" class="note">
                        <g class="notehead">
                           <use xlink:href="#E0A4-9kmqk2" x="11009" y="1625" height="720px" width="720px" />
                        </g>
                        <g id="s18mnivf" class="stem">
                           <rect x="11217" y="995" height="602" width="18" />
                        </g>
                     </g>
                     <g id="n1ts691g" class="note">
                        <g class="notehead">
                           <use xlink:href="#E0A4-9kmqk2" x="12023" y="1265" height="720px" width="720px" />
                        </g>
                        <g id="s14b87y8" class="stem">
                           <rect x="12023" y="1293" height="602" width="18" />
                           <g id="fk00alu" class="flag">
                              <use xlink:href="#E241-9kmqk2" x="12023" y="1895" height="720px" width="720px" />
                           </g>
                        </g>
                     </g>
                     <g id="nibqaye" class="note">
                        <g class="notehead">
                           <use xlink:href="#E0A4-9kmqk2" x="12363" y="1265" height="540px" width="540px" />
                        </g>
                        <g id="s9ubg9k" class="stem">
                           <rect x="12514" y="860" height="384" width="18" />
                           <g id="f1n3l828" class="flag">
                              <use xlink:href="#E240-9kmqk2" x="12514" y="860" height="540px" width="540px" />
                           </g>
                        </g>
                     </g>
                     <g id="n1qr5ve5" class="note">
                        <g class="notehead">
                           <use xlink:href="#E0A4-9kmqk2" x="12730" y="1355" height="720px" width="720px" />
                        </g>
                        <g id="dkz9sqv" class="dots">
                           <ellipse cx="13046" cy="1355" rx="36" ry="36" />
                        </g>
                        <g id="s1w00qm8" class="stem">
                           <rect x="12730" y="1383" height="602" width="18" />
                        </g>
                     </g>
                  </g>
               </g>
               <g id="b219yc3" class="barLine">
                  <path d="M14024 1085 L14024 1805" stroke="currentColor" stroke-width="27" />
               </g>
            </g>
            <g id="m992rdl" class="measure">
               <g id="syj0fng" class="staff">
                  <path d="M14037 1085 L17846 1085" stroke="currentColor" stroke-width="13" />
                  <path d="M14037 1265 L17846 1265" stroke="currentColor" stroke-width="13" />
                  <path d="M14037 1445 L17846 1445" stroke="currentColor" stroke-width="13" />
                  <path d="M14037 1625 L17846 1625" stroke="currentColor" stroke-width="13" />
                  <path d="M14037 1805 L17846 1805" stroke="currentColor" stroke-width="13" />
                  <g id="m1hpk3d5" class="meterSig">
                     <use xlink:href="#E085-9kmqk2" x="14122" y="1265" height="720px" width="720px" />
                     <use xlink:href="#E088-9kmqk2" x="14120" y="1625" height="720px" width="720px" />
                  </g>
                  <g id="l1qovszr" class="layer">
                     <g id="by302ep" class="beam">
                        <polygon points="14673,1850 16013,2030 16013,1940 14673,1760" />
                        <g id="n1t5pgnl" class="note">
                           <g class="notehead">
                              <use xlink:href="#E0A4-9kmqk2" x="14673" y="1265" height="720px" width="720px" />
                           </g>
                           <g id="s18n5fvo" class="stem">
                              <rect x="14673" y="1293" height="539" width="18" />
                           </g>
                        </g>
                        <g id="n16t352w" class="note">
                           <g class="notehead">
                              <use xlink:href="#E0A4-9kmqk2" x="15334" y="1355" height="720px" width="720px" />
                           </g>
                           <g id="s1m3091s" class="stem">
                              <rect x="15334" y="1383" height="539" width="18" />
                           </g>
                        </g>
                        <g id="nhmgeiz" class="note">
                           <g class="notehead">
                              <use xlink:href="#E0A4-9kmqk2" x="15995" y="1445" height="720px" width="720px" />
                           </g>
                           <g id="syrz7yx" class="stem">
                              <rect x="15995" y="1473" height="539" width="18" />
                           </g>
                           <g id="am3mv7g" class="accid" />
                        </g>
                     </g>
                     <g id="n1l08j2e" class="note">
                        <g class="notehead">
                           <use xlink:href="#E0A4-9kmqk2" x="16657" y="1535" height="720px" width="720px" />
                        </g>
                        <g id="sxc75jn" class="stem">
                           <rect x="16865" y="905" height="602" width="18" />
                        </g>
                     </g>
                  </g>
               </g>
               <g id="bhj0k57" class="barLine">
                  <path d="M17671 1085 L17671 1805" stroke="currentColor" stroke-width="27" />
                  <path d="M17801 1085 L17801 1805" stroke="currentColor" stroke-width="90" />
                  <use xlink:href="#E044-9kmqk2" x="17554" y="1355" height="720px" width="720px" />
                  <use xlink:href="#E044-9kmqk2" x="17554" y="1535" height="720px" width="720px" />
               </g>
            </g>
            <g id="m1egacnc" class="measure">
               <g id="s1idadhi" class="staff">
                  <path d="M17846 1085 L20003 1085" stroke="currentColor" stroke-width="13" />
                  <path d="M17846 1265 L20003 1265" stroke="currentColor" stroke-width="13" />
                  <path d="M17846 1445 L20003 1445" stroke="currentColor" stroke-width="13" />
                  <path d="M17846 1625 L20003 1625" stroke="currentColor" stroke-width="13" />
                  <path d="M17846 1805 L20003 1805" stroke="currentColor" stroke-width="13" />
                  <g id="m1a0w7ks" class="meterSig">
                     <use xlink:href="#E081-9kmqk2" x="17953" y="1265" height="720px" width="720px" />
                     <use xlink:href="#E088-9kmqk2" x="17929" y="1625" height="720px" width="720px" />
                  </g>
                  <g id="l1vvsc1e" class="layer">
                     <g id="n1jjuh52" class="note">
                        <g class="notehead">
                           <use xlink:href="#E0A4-9kmqk2" x="18873" y="1625" height="720px" width="720px" />
                        </g>
                        <g id="s11669us" class="stem">
                           <rect x="19081" y="995" height="602" width="18" />
                           <g id="f15wj7tl" class="flag">
                              <use xlink:href="#E240-9kmqk2" x="19081" y="995" height="720px" width="720px" />
                           </g>
                        </g>
                     </g>
                  </g>
                  <g id="m11y7v2f" class="meterSig">
                     <use xlink:href="#E086-9kmqk2" x="19624" y="1265" height="720px" width="720px" />
                     <use xlink:href="#E088-9kmqk2" x="19631" y="1625" height="720px" width="720px" />
                  </g>
               </g>
               <g id="bz398fq" class="barLine">
                  <path d="M18430 1085 L18430 1805" stroke="currentColor" stroke-width="90" />
                  <path d="M18560 1085 L18560 1805" stroke="currentColor" stroke-width="27" />
                  <use xlink:href="#E044-9kmqk2" x="18606" y="1355" height="720px" width="720px" />
                  <use xlink:href="#E044-9kmqk2" x="18606" y="1535" height="720px" width="720px" />
               </g>
               <g id="b15wdx1m" class="barLine">
                  <path d="M19535 1085 L19535 1805" stroke="currentColor" stroke-width="27" />
               </g>
            </g>
         </g>
         <g id="spja336" class="system">
            <g id="lq9rxp1" class="labelAbbr">
               <text x="914" y="3884" text-anchor="end" font-size="0px">
                  <tspan id="t1ohlxx5" class="text">
                     <tspan font-size="405px" class="text">Pno.</tspan>
                  </tspan>
               </text>
            </g>
            <g id="m1kipbs9" class="measure">
               <g id="mvat4ki" class="mNum autogenerated">
                  <text x="1094" y="3191" text-anchor="middle" font-size="0px">
                     <tspan id="t63ffkv" class="text">
                        <tspan font-size="324px" class="text">6</tspan>
                     </tspan>
                  </text>
               </g>
               <g id="sphln7o" class="staff">
                  <path d="M1094 3434 L5485 3434" stroke="currentColor" stroke-width="13" />
                  <path d="M1094 3614 L5485 3614" stroke="currentColor" stroke-width="13" />
                  <path d="M1094 3794 L5485 3794" stroke="currentColor" stroke-width="13" />
                  <path d="M1094 3974 L5485 3974" stroke="currentColor" stroke-width="13" />
                  <path d="M1094 4154 L5485 4154" stroke="currentColor" stroke-width="13" />
                  <g id="cn5nd72" class="clef">
                     <use xlink:href="#E050-9kmqk2" x="1184" y="3974" height="720px" width="720px" />
                  </g>
                  <g id="k1efwhy3" class="keySig">
                     <g id="kp0pako" class="keyAccid">
                        <use xlink:href="#E260-9kmqk2" x="1829" y="3794" height="720px" width="720px" />
                     </g>
                     <g id="k3jueiz" class="keyAccid">
                        <use xlink:href="#E260-9kmqk2" x="2009" y="3524" height="720px" width="720px" />
                     </g>
                  </g>
                  <g id="mh9zw2l" class="meterSig">
                     <use xlink:href="#E086-9kmqk2" x="2317" y="3614" height="720px" width="720px" />
                     <use xlink:href="#E088-9kmqk2" x="2324" y="3974" height="720px" width="720px" />
                  </g>
                  <g id="lzvhiwg" class="layer">
                     <g id="n1lh9rdj" class="note">
                        <g class="notehead">
                           <use xlink:href="#E0A4-9kmqk2" x="2867" y="3884" height="720px" width="720px" />
                        </g>
                        <g id="s1w52e3b" class="stem">
                           <rect x="3075" y="3254" height="602" width="18" />
                        </g>
                     </g>
                     <g id="njzbcmb" class="note">
                        <g class="notehead">
                           <use xlink:href="#E0A4-9kmqk2" x="3656" y="3884" height="720px" width="720px" />
                        </g>
                        <g id="sdvq8bw" class="stem">
                           <rect x="3864" y="3254" height="602" width="18" />
                           <g id="f14m511c" class="flag">
                              <use xlink:href="#E240-9kmqk2" x="3864" y="3254" height="720px" width="720px" />
                           </g>
                        </g>
                     </g>
                     <g id="n1vdq8qt" class="note">
                        <g class="notehead">
                           <use xlink:href="#E0A4-9kmqk2" x="4169" y="3884" height="720px" width="720px" />
                        </g>
                        <g id="sjp4zgk" class="stem">
                           <rect x="4377" y="3254" height="602" width="18" />
                        </g>
                     </g>
                     <g id="nh5iujg" class="note">
                        <g class="notehead">
                           <use xlink:href="#E0A4-9kmqk2" x="4958" y="3794" height="720px" width="720px" />
                        </g>
                        <g id="s1yz4hl1" class="stem">
                           <rect x="4958" y="3822" height="572" width="18" />
                           <g id="f168l37z" class="flag">
                              <use xlink:href="#E241-9kmqk2" x="4958" y="4394" height="720px" width="720px" />
                           </g>
                        </g>
                        <g id="a114fi8v" class="accid" />
                     </g>
                  </g>
               </g>
               <g id="b1h2ttel" class="barLine">
                  <path d="M5472 3434 L5472 4154" stroke="currentColor" stroke-width="27" />
               </g>
            </g>
            <g id="mkw2ofy" class="measure">
               <g id="snnp7o4" class="staff">
                  <path d="M5485 3434 L8274 3434" stroke="currentColor" stroke-width="13" />
                  <path d="M5485 3614 L8274 3614" stroke="currentColor" stroke-width="13" />
                  <path d="M5485 3794 L8274 3794" stroke="currentColor" stroke-width="13" />
                  <path d="M5485 3974 L8274 3974" stroke="currentColor" stroke-width="13" />
                  <path d="M5485 4154 L8274 4154" stroke="currentColor" stroke-width="13" />
                  <g id="lz2308u" class="layer">
                     <g id="n1dadpd9" class="note">
                        <g class="notehead">
                           <use xlink:href="#E0A4-9kmqk2" x="5656" y="3974" height="720px" width="720px" />
                        </g>
                        <g id="s1mw6qbz" class="stem">
                           <rect x="5864" y="3344" height="602" width="18" />
                        </g>
                     </g>
                     <g id="n1gm0mn" class="note">
                        <g class="notehead">
                           <use xlink:href="#E0A4-9kmqk2" x="6445" y="3884" height="720px" width="720px" />
                        </g>
                        <g id="s1jpea8i" class="stem">
                           <rect x="6653" y="3254" height="602" width="18" />
                           <g id="fv9nbqn" class="flag">
                              <use xlink:href="#E240-9kmqk2" x="6653" y="3254" height="720px" width="720px" />
                           </g>
                        </g>
                     </g>
                     <g id="nby6uy9" class="note">
                        <g class="notehead">
                           <use xlink:href="#E0A4-9kmqk2" x="6958" y="3794" height="720px" width="720px" />
                        </g>
                        <g id="swsza9s" class="stem">
                           <rect x="6958" y="3822" height="572" width="18" />
                        </g>
                        <g id="a15hstee" class="accid" />
                     </g>
                     <g id="n1nl1utn" class="note">
                        <g class="notehead">
                           <use xlink:href="#E0A4-9kmqk2" x="7747" y="3794" height="720px" width="720px" />
                        </g>
                        <g id="s1srp7mi" class="stem">
                           <rect x="7747" y="3822" height="572" width="18" />
                           <g id="f1ux4aqh" class="flag">
                              <use xlink:href="#E241-9kmqk2" x="7747" y="4394" height="720px" width="720px" />
                           </g>
                        </g>
                        <g id="a8q4b4f" class="accid" />
                     </g>
                  </g>
               </g>
               <g id="b5qumi1" class="barLine">
                  <path d="M8261 3434 L8261 4154" stroke="currentColor" stroke-width="27" />
               </g>
            </g>
            <g id="saar19s" class="sb" />
            <g id="m1e6hd2s" class="measure">
               <g id="sv4678g" class="staff">
                  <path d="M8274 3434 L11302 3434" stroke="currentColor" stroke-width="13" />
                  <path d="M8274 3614 L11302 3614" stroke="currentColor" stroke-width="13" />
                  <path d="M8274 3794 L11302 3794" stroke="currentColor" stroke-width="13" />
                  <path d="M8274 3974 L11302 3974" stroke="currentColor" stroke-width="13" />
                  <path d="M8274 4154 L11302 4154" stroke="currentColor" stroke-width="13" />
                  <g id="lbbgx5u" class="layer">
                     <g id="bg12tko" class="beam">
                        <polygon points="8653,3209 9699,3209 9699,3299 8653,3299" />
                        <g id="ncdxdey" class="note">
                           <g class="notehead">
                              <use xlink:href="#E0A4-9kmqk2" x="8445" y="3884" height="720px" width="720px" />
                           </g>
                           <g id="shaagec" class="stem">
                              <rect x="8653" y="3227" height="629" width="18" />
                           </g>
                        </g>
                        <g id="n1ndhju" class="note">
                           <g class="notehead">
                              <use xlink:href="#E0A4-9kmqk2" x="8959" y="3794" height="720px" width="720px" />
                           </g>
                           <g id="s1j4rml" class="stem">
                              <rect x="9167" y="3227" height="539" width="18" />
                           </g>
                           <g id="a1dxjab1" class="accid" />
                        </g>
                        <g id="nmvxvek" class="note">
                           <g class="notehead">
                              <use xlink:href="#E0A4-9kmqk2" x="9473" y="3974" height="720px" width="720px" />
                           </g>
                           <g id="s1cx8y9g" class="stem">
                              <rect x="9681" y="3227" height="719" width="18" />
                           </g>
                        </g>
                     </g>
                     <g id="nzz5g8w" class="note">
                        <g class="notehead">
                           <use xlink:href="#E0A4-9kmqk2" x="9987" y="4064" height="720px" width="720px" />
                        </g>
                        <g id="s1qm4qnr" class="stem">
                           <rect x="10195" y="3434" height="602" width="18" />
                        </g>
                     </g>
                     <g id="n2kcxn8" class="note">
                        <g class="notehead">
                           <use xlink:href="#E0A4-9kmqk2" x="10775" y="3974" height="720px" width="720px" />
                        </g>
                        <g id="s12t24bl" class="stem">
                           <rect x="10983" y="3344" height="602" width="18" />
                           <g id="fsaokxr" class="flag">
                              <use xlink:href="#E240-9kmqk2" x="10983" y="3344" height="720px" width="720px" />
                           </g>
                        </g>
                     </g>
                  </g>
               </g>
               <g id="bhwlzq0" class="barLine">
                  <path d="M11289 3434 L11289 4154" stroke="currentColor" stroke-width="27" />
               </g>
            </g>
            <g id="m1w597x1" class="measure">
               <g id="sffjjqq" class="staff">
                  <path d="M11302 3434 L14091 3434" stroke="currentColor" stroke-width="13" />
                  <path d="M11302 3614 L14091 3614" stroke="currentColor" stroke-width="13" />
                  <path d="M11302 3794 L14091 3794" stroke="currentColor" stroke-width="13" />
                  <path d="M11302 3974 L14091 3974" stroke="currentColor" stroke-width="13" />
                  <path d="M11302 4154 L14091 4154" stroke="currentColor" stroke-width="13" />
                  <g id="lifoz8w" class="layer">
                     <g id="n15tgebp" class="note">
                        <g class="notehead">
                           <use xlink:href="#E0A4-9kmqk2" x="11473" y="3884" height="720px" width="720px" />
                        </g>
                        <g id="snbdi7a" class="stem">
                           <rect x="11681" y="3254" height="602" width="18" />
                        </g>
                     </g>
                     <g id="nglj6p9" class="note">
                        <g class="notehead">
                           <use xlink:href="#E0A4-9kmqk2" x="12262" y="3884" height="720px" width="720px" />
                        </g>
                        <g id="skdfsi1" class="stem">
                           <rect x="12470" y="3254" height="602" width="18" />
                           <g id="fcnkj04" class="flag">
                              <use xlink:href="#E240-9kmqk2" x="12470" y="3254" height="720px" width="720px" />
                           </g>
                        </g>
                     </g>
                     <g id="n1g844in" class="note">
                        <g class="notehead">
                           <use xlink:href="#E0A4-9kmqk2" x="12775" y="3884" height="720px" width="720px" />
                        </g>
                        <g id="s1bgsq5j" class="stem">
                           <rect x="12983" y="3254" height="602" width="18" />
                        </g>
                     </g>
                     <g id="n877kdn" class="note">
                        <g class="notehead">
                           <use xlink:href="#E0A4-9kmqk2" x="13564" y="3794" height="720px" width="720px" />
                        </g>
                        <g id="s1ip0hnl" class="stem">
                           <rect x="13564" y="3822" height="572" width="18" />
                           <g id="fu8v8y1" class="flag">
                              <use xlink:href="#E241-9kmqk2" x="13564" y="4394" height="720px" width="720px" />
                           </g>
                        </g>
                        <g id="aqk6v5m" class="accid" />
                     </g>
                  </g>
               </g>
               <g id="blc6mn2" class="barLine">
                  <path d="M14078 3434 L14078 4154" stroke="currentColor" stroke-width="27" />
               </g>
            </g>
            <g id="m1v3k82" class="measure">
               <g id="s9splgc" class="staff">
                  <path d="M14091 3434 L16880 3434" stroke="currentColor" stroke-width="13" />
                  <path d="M14091 3614 L16880 3614" stroke="currentColor" stroke-width="13" />
                  <path d="M14091 3794 L16880 3794" stroke="currentColor" stroke-width="13" />
                  <path d="M14091 3974 L16880 3974" stroke="currentColor" stroke-width="13" />
                  <path d="M14091 4154 L16880 4154" stroke="currentColor" stroke-width="13" />
                  <g id="l1nkh4b7" class="layer">
                     <g id="n19i369e" class="note">
                        <g class="notehead">
                           <use xlink:href="#E0A4-9kmqk2" x="14262" y="3974" height="720px" width="720px" />
                        </g>
                        <g id="s3i5bj" class="stem">
                           <rect x="14470" y="3344" height="602" width="18" />
                        </g>
                     </g>
                     <g id="n4xujzr" class="note">
                        <g class="notehead">
                           <use xlink:href="#E0A4-9kmqk2" x="15051" y="3884" height="720px" width="720px" />
                        </g>
                        <g id="s1lr87ka" class="stem">
                           <rect x="15259" y="3254" height="602" width="18" />
                           <g id="fyqmlmb" class="flag">
                              <use xlink:href="#E240-9kmqk2" x="15259" y="3254" height="720px" width="720px" />
                           </g>
                        </g>
                     </g>
                     <g id="nzyri0s" class="note">
                        <g class="notehead">
                           <use xlink:href="#E0A4-9kmqk2" x="15564" y="3794" height="720px" width="720px" />
                        </g>
                        <g id="sm0szv0" class="stem">
                           <rect x="15564" y="3822" height="572" width="18" />
                        </g>
                        <g id="a4t7ji6" class="accid" />
                     </g>
                     <g id="nywboxd" class="note">
                        <g class="notehead">
                           <use xlink:href="#E0A4-9kmqk2" x="16353" y="3794" height="720px" width="720px" />
                        </g>
                        <g id="s1fx97uy" class="stem">
                           <rect x="16353" y="3822" height="572" width="18" />
                           <g id="fnj7g6p" class="flag">
                              <use xlink:href="#E241-9kmqk2" x="16353" y="4394" height="720px" width="720px" />
                           </g>
                        </g>
                        <g id="azbrlyn" class="accid" />
                     </g>
                  </g>
               </g>
               <g id="b1xdxukw" class="barLine">
                  <path d="M16867 3434 L16867 4154" stroke="currentColor" stroke-width="27" />
               </g>
            </g>
            <g id="m1bd69dg" class="measure">
               <g id="s1t9o2oh" class="staff">
                  <path d="M16880 3434 L20005 3434" stroke="currentColor" stroke-width="13" />
                  <path d="M16880 3614 L20005 3614" stroke="currentColor" stroke-width="13" />
                  <path d="M16880 3794 L20005 3794" stroke="currentColor" stroke-width="13" />
                  <path d="M16880 3974 L20005 3974" stroke="currentColor" stroke-width="13" />
                  <path d="M16880 4154 L20005 4154" stroke="currentColor" stroke-width="13" />
                  <g id="m1uisvm1" class="meterSig">
                     <use xlink:href="#E085-9kmqk2" x="16965" y="3614" height="720px" width="720px" />
                     <use xlink:href="#E088-9kmqk2" x="16963" y="3974" height="720px" width="720px" />
                  </g>
                  <g id="lno7nne" class="layer">
                     <g id="b1s1vvde" class="beam">
                        <polygon points="17708,3209 18754,3209 18754,3299 17708,3299" />
                        <g id="nno2dum" class="note">
                           <g class="notehead">
                              <use xlink:href="#E0A4-9kmqk2" x="17500" y="3884" height="720px" width="720px" />
                           </g>
                           <g id="s1wf3e96" class="stem">
                              <rect x="17708" y="3227" height="629" width="18" />
                           </g>
                        </g>
                        <g id="n15uo4qe" class="note">
                           <g class="notehead">
                              <use xlink:href="#E0A4-9kmqk2" x="18014" y="3794" height="720px" width="720px" />
                           </g>
                           <g id="s1vncar5" class="stem">
                              <rect x="18222" y="3227" height="539" width="18" />
                           </g>
                           <g id="a2bd6wm" class="accid" />
                        </g>
                        <g id="nbuqza9" class="note">
                           <g class="notehead">
                              <use xlink:href="#E0A4-9kmqk2" x="18528" y="3884" height="720px" width="720px" />
                           </g>
                           <g id="s16e5rtq" class="stem">
                              <rect x="18736" y="3227" height="629" width="18" />
                           </g>
                        </g>
                     </g>
                     <g id="nigosxf" class="note">
                        <g class="notehead">
                           <use xlink:href="#E0A4-9kmqk2" x="19042" y="3974" height="720px" width="720px" />
                        </g>
                        <g id="svpo4dm" class="stem">
                           <rect x="19250" y="3344" height="602" width="18" />
                        </g>
                     </g>
                  </g>
               </g>
               <g id="b1g0l6mc" class="barLine">
                  <path d="M19830 3434 L19830 4154" stroke="currentColor" stroke-width="27" />
                  <path d="M19960 3434 L19960 4154" stroke="currentColor" stroke-width="90" />
               </g>
            </g>
            <g id="s1yww7tp" class="systemMilestoneEnd s1eboic1" />
         </g>
         <g id="pii4tyw" class="pageMilestoneEnd s1ddb5uu" />
         <g id="p19tttzd" class="pageMilestoneEnd mmozuaa" />
         <g id="p1cfkajt" class="pgHead">
            <text x="0" y="0" font-size="0px">
               <tspan id="rpysfkp" class="rend" x="10000" y="277" text-anchor="middle">
                  <tspan id="tmb0f25" class="text">
                     <tspan font-size="405px" class="text">Air n 171</tspan>
                  </tspan>
               </tspan>
            </text>
         </g>
         <g id="pfnnqr7" class="pgFoot autogenerated">
            <g id="f1bdqfi4" class="fig">
               <g id="s1aapuns" class="svg" transform="translate(7750, 28099) scale(10, 10)">
                  <g>
                     <path fill="#00000" d="M 17.11278,49.26451 V 10.367554 h 12.696511 c 3.288815,7.336676 6.71267,14.610456 10.127281,21.888976 3.419998,-7.484684 6.255515,-14.204887 9.58887,-21.909915 2.436207,0.103726 4.316952,0.08453 6.484294,-0.05808 V 49.264423 H 50.274275 C 50.145222,38.35639 50.016136,27.448368 49.887066,16.540329 45.003488,27.315459 39.967448,38.433564 35.083854,49.208695 34.678996,49.343717 34.426583,49.135619 34.021726,49.270644 29.46588,39.330716 24.910049,29.390805 20.354201,19.450876 20.224341,29.388756 20.09461,39.326619 19.964815,49.264497 H 17.11278 Z M 36.754144,39.324695 C 32.721221,30.512695 28.6883,21.700679 24.655394,12.888662 22.530527,12.750737 22.656775,12.71031 20.714356,12.813974 v 0.966497 c 4.612938,9.99784 9.609439,20.748709 13.87298,30.081745 0.722248,-1.512523 1.444528,-3.025014 2.166808,-4.537521 z m 25.738417,9.939815 c 0,-12.965651 0,-25.931305 0,-38.896956 10.084388,0 20.168791,0 30.253178,0 0,0.960416 0,1.920849 0,2.881265 -6.482825,0 -12.965652,0 -19.448478,0 0,4.802097 0,9.604178 0,14.406277 5.52241,0 11.044819,0 16.567229,0 0,0.960415 0,1.920832 0,2.881248 -5.52241,0 -11.044819,0 -16.567229,0 0,5.282306 0,10.564611 0,15.846917 6.963035,0 13.926068,0 20.889103,0 0,0.960416 0,1.920832 0,2.881249 -10.564597,0 -21.129207,0 -31.693803,0 z m 4.321874,-2.160937 c 0,-11.765131 0,-23.530263 0,-35.295394 -0.720312,0 -1.440625,0 -2.160937,0 0,11.765131 0,23.530263 0,35.295394 0.720312,0 1.440625,0 2.160937,0 z m 32.41413,2.160937 c 0,-12.965651 0,-25.931305 0,-38.896956 2.401045,0 4.802095,0 7.203135,0 0,12.965651 0,25.931305 0,38.896956 -2.40104,0 -4.80209,0 -7.203135,0 z m 2.881265,-2.160937 c 0,-11.765131 0,-23.530263 0,-35.295394 -0.72031,0 -1.44064,0 -2.160953,0 0,11.765131 0,23.530263 0,35.295394 0.720313,0 1.440643,0 2.160953,0 z" />
                     <path fill="#00000" d="m 346.3,6.7 c -3.1,0.5 -4.9,4.4 -2.7,6.8 1.2,1.4 2.7,2.4 4.1,3.5 -2.4,5.3 -7.7,8.3 -11.9,12.1 -3.7,2.8 -7,6.2 -9.7,9.9 -2.2,-0.8 -0.3,-6.8 -0.6,-9.5 0.1,-3.1 0.7,-6.4 2.9,-8.7 1.3,-1.9 3,-3.5 4.5,-5.2 1.2,-3.4 -3.2,-4.9 -5.8,-4.6 -7.3,-0.5 -14.6,2 -20,6.8 -5,4.6 -10,10.1 -11.5,17 -0.9,3.5 -0.2,7.5 2.8,9.9 2.5,2.8 7.4,2.9 9.8,-0.2 1.7,-2.3 3.2,-4.8 3.8,-7.6 -0.1,-2.6 -4.4,-2.3 -4.3,0.2 1.2,2.4 -0.9,4.7 -2.7,6.2 -1.7,0.9 -4.7,0.7 -4.8,-1.7 -1,-5.8 2.1,-11.3 5.2,-16.1 4,-5.8 9.8,-11.2 17.2,-11.8 1.6,0 8.1,-1.2 6.8,1.4 -2.8,2.8 -5.6,6.1 -6,10.3 -1.6,7.7 0.1,15.7 -2.3,23.2 -1.1,3.9 2,2.6 2.5,0.2 3.3,-7.4 8.9,-13.4 15.1,-18.5 4.2,-3.9 9.5,-7.1 11.9,-12.6 1.3,-3.6 1.2,-9 -2.7,-10.9 -0.6,-0.2 -1.2,-0.3 -1.8,-0.3 z m 66,14.5 c -2,0.8 -1.8,4.9 0.8,4.4 3.4,0.4 2.9,-6.2 -0.8,-4.4 z m 0.6,7.3 c -1.3,0.5 -7.6,0.5 -5.4,2.2 4,-0.3 0.7,4.5 0.6,6.7 -0.4,2.9 -2.4,5.9 -1.2,8.8 2.7,1.7 5.6,-0.8 6.8,-3.2 1.6,-1.4 -0.5,-3 -1.2,-0.9 -0.4,0.8 -2.4,3.5 -2.6,1.8 1.1,-5 2.7,-9.9 3.9,-14.9 l -0.1,-0.5 h -0.9 z m -65.1,0.2 c -6.5,1.6 -10.5,9.5 -8.2,15.7 2.1,3.4 7.4,2.9 10.1,0.4 2,-0.2 3.6,-5.3 1,-3.4 -1.4,2 -4,4.2 -6.5,2.8 -2.2,-1.9 -1.9,-5.7 1.7,-5.3 3.1,-0.9 6.9,-2.1 8.1,-5.5 0.9,-2.7 -1.6,-5.2 -4.3,-4.8 h -1.1 -0.7 z m 13.6,0 c -2.2,0 -8.5,1.8 -2.9,2.3 0.9,1.9 -1,4.9 -1.1,7.2 -0.5,2.9 -1.4,5.7 -1.7,8.7 3.7,0.7 3.8,-2.6 4.4,-5.3 0.9,-3.3 1.6,-7 4.1,-9.5 2.4,1.6 6.8,-0.7 3.7,-3.4 -2.9,-0.5 -4.8,2.4 -6.2,4.3 0,-1.2 2.4,-5 -0.2,-4.3 z m 15.8,0 c -6.4,1.3 -9.6,9.1 -7.7,14.9 1.9,4 7.7,3.9 11,1.7 4.1,-3 6,-8.9 4.4,-13.7 -1.3,-3 -4.8,-3.2 -7.6,-3 z m 17,0 c -2.3,0 -8.8,1.9 -3,2.4 0.4,2.5 -1,5.7 -1.4,8.4 -0.7,2.4 -1.8,7.5 2.1,7.2 3.8,-0.1 6.5,-3.5 8.5,-6.3 2,-3.2 4.5,-7 3.3,-10.9 -3.7,-3 -3.6,2.6 -3.1,5.1 -0.7,3.8 -2.7,7.9 -6.2,9.8 -3.6,0.6 -1,-4.3 -0.8,-6.1 0.6,-3.2 1.6,-6.3 1.9,-9.5 -0.4,0 -0.8,0 -1.1,0 z m 30.6,0 c -6.3,1.2 -9.5,8.9 -7.8,14.7 1.5,4 7.2,4.2 10.5,2.4 4.6,-2.8 6.6,-9.3 4.8,-14.3 -1.4,-2.8 -4.8,-3 -7.5,-2.8 z m -75.4,1.7 c 2.1,1.5 0.2,4.7 -1.6,5.7 -1.1,0.4 -5.5,3.4 -4.6,0.7 0.8,-2.7 2.2,-6.2 5.3,-6.6 l 0.9,0.1 z m 30.8,0 c 2.6,1.5 1.3,5.2 0.8,7.6 -0.8,2.7 -1.9,5.9 -4.7,7.1 -5.1,0.8 -4,-5.8 -2.8,-8.8 1,-2.8 3,-6.8 6.7,-5.8 z m 47.1,-0.1 c 2.9,0.7 2,4.7 1.5,6.8 -0.7,3 -1.8,6.7 -5,8 -4.7,0.8 -4,-5.1 -3,-7.9 0.9,-3 2.7,-7.3 6.5,-6.8 z m -88.1,5.9 c -0.3,1.3 0.9,-0.6 0,0 z m -1.1,2.4 c -0.2,0.5 0.5,-0.1 0,0 z m -1.3,4.5 c -0.3,1.3 0.8,-0.2 0,0 z" />
                     <text y="41" x="201" fill="#00000" style="font-style:italic;font-weight:normal;font-size:30px;line-height:125%;font-family:Times;text-anchor:middle" xml:space="preserve">engraved with</text>
                  </g>
               </g>
            </g>
         </g>
      </g>
   </svg>
</svg>
