<?xml version="1.0" encoding="UTF-8" standalone="no"?>
<svg width="2100px" height="2970px" version="1.1" xmlns="http://www.w3.org/2000/svg" xmlns:xlink="http://www.w3.org/1999/xlink" xmlns:mei="http://www.music-encoding.org/ns/mei" overflow="visible">
   <desc>Engraved by Verovio 3.13.1</desc>
   <defs>
      <symbol id="E240-1as9hh8" viewBox="0 0 1000 1000" overflow="inherit">
         <path transform="scale(1,-1)" d="M179 -646c15 29 29 55 46 102c18 49 30 108 30 138c0 105 -80 173 -168 200c-18 5 -47 9 -87 16v190h22c8 0 33 -61 71 -95c4 -3 -2 3 61 -56c62 -58 122 -137 122 -241c0 -38 -13 -106 -35 -163c-20 -51 -43 -99 -66 -132c-6 -5 -10 -7 -13 -7s-5 2 -5 5l4 10 c1 3 14 25 18 33z" />
      </symbol>
      <symbol id="E262-1as9hh8" viewBox="0 0 1000 1000" overflow="inherit">
         <path transform="scale(1,-1)" d="M136 186v169h17v-164l44 14v-91l-44 -14v-165l44 12v-91l-44 -13v-155h-17v150l-76 -22v-155h-17v149l-43 -13v90l43 14v167l-43 -14v92l43 13v169h17v-163zM60 73v-167l76 22v168z" />
      </symbol>
      <symbol id="E044-1as9hh8" viewBox="0 0 1000 1000" overflow="inherit">
         <path transform="scale(1,-1)" d="M0 0c0 28 22 50 50 50s50 -22 50 -50s-22 -50 -50 -50s-50 22 -50 50z" />
      </symbol>
      <symbol id="E050-1as9hh8" viewBox="0 0 1000 1000" overflow="inherit">
         <path transform="scale(1,-1)" d="M441 -245c-23 -4 -48 -6 -76 -6c-59 0 -102 7 -130 20c-88 42 -150 93 -187 154c-26 44 -43 103 -48 176c0 6 -1 13 -1 19c0 54 15 111 45 170c29 57 65 106 110 148s96 85 153 127c-3 16 -8 46 -13 92c-4 43 -5 73 -5 89c0 117 16 172 69 257c34 54 64 82 89 82 c21 0 43 -30 69 -92s39 -115 41 -159v-15c0 -109 -21 -162 -67 -241c-13 -20 -63 -90 -98 -118c-13 -9 -25 -19 -37 -29l31 -181c8 1 18 2 28 2c58 0 102 -12 133 -35c59 -43 92 -104 98 -184c1 -7 1 -15 1 -22c0 -123 -87 -209 -181 -248c8 -57 17 -110 25 -162 c5 -31 6 -58 6 -80c0 -30 -5 -53 -14 -70c-35 -64 -88 -99 -158 -103c-5 0 -11 -1 -16 -1c-37 0 -72 10 -108 27c-50 24 -77 59 -80 105v11c0 29 7 55 20 76c18 28 45 42 79 44h6c49 0 93 -42 97 -87v-9c0 -51 -34 -86 -105 -106c17 -24 51 -36 102 -36c62 0 116 43 140 85 c9 16 13 41 13 74c0 20 -1 42 -5 67c-8 53 -18 106 -26 159zM461 939c-95 0 -135 -175 -135 -286c0 -24 2 -48 5 -71c50 39 92 82 127 128c40 53 60 100 60 140v8c-4 53 -22 81 -55 81h-2zM406 119l54 -326c73 25 110 78 110 161c0 7 0 15 -1 23c-7 95 -57 142 -151 142h-12 zM382 117c-72 -2 -128 -47 -128 -120v-7c2 -46 43 -99 75 -115c-3 -2 -7 -5 -10 -10c-70 33 -116 88 -123 172v11c0 68 44 126 88 159c23 17 49 29 78 36l-29 170c-21 -13 -52 -37 -92 -73c-50 -44 -86 -84 -109 -119c-45 -69 -67 -130 -67 -182v-13c5 -68 35 -127 93 -176 s125 -73 203 -73c25 0 50 3 75 9c-19 111 -36 221 -54 331z" />
      </symbol>
      <symbol id="E081-1as9hh8" viewBox="0 0 1000 1000" overflow="inherit">
         <path transform="scale(1,-1)" d="M68 -250v36c23 0 40 6 49 18c8 14 12 33 12 57v250l-82 -129l-27 13l107 255h128v-394c0 -24 5 -42 14 -53s25 -17 47 -17v-36h-248z" />
      </symbol>
      <symbol id="E082-1as9hh8" viewBox="0 0 1000 1000" overflow="inherit">
         <path transform="scale(1,-1)" d="M124 -185c-18 0 -55 -14 -65 -65h-36l-3 30c0 25 6 45 18 63c11 19 22 30 39 43l121 82l37 29c15 11 27 29 38 54c12 24 18 47 18 70c0 40 -19 88 -94 88c-25 0 -32 0 -50 -8c-14 -5 -23 -12 -26 -22c3 -9 7 -15 10 -18l24 -17c12 -7 17 -11 27 -21c5 -7 7 -16 7 -27 c0 -12 0 -57 -79 -74c-30 0 -76 26 -76 94c0 66 81 135 197 135c72 0 181 -32 181 -150c0 -53 -32 -95 -113 -133l-91 -41c-26 -11 -45 -23 -57 -37l49 7c84 0 115 -41 148 -41c20 0 33 20 39 61h35c0 -152 -68 -168 -114 -168c-17 0 -65 0 -79 7h10l-28 17 c-49 37 -69 40 -87 42z" />
      </symbol>
      <symbol id="E083-1as9hh8" viewBox="0 0 1000 1000" overflow="inherit">
         <path transform="scale(1,-1)" d="M208 250c97 0 177 -52 177 -116c0 -69 -40 -111 -118 -125c56 -5 125 -44 125 -116c0 -31 -10 -57 -31 -78c-19 -21 -45 -38 -78 -49l-50 -11c-15 -3 -36 -7 -55 -7c-50 0 -86 16 -113 38c-16 10 -23 18 -34 34c-7 13 -11 25 -11 38c0 43 27 83 68 83l3 -2 c61 0 75 -42 75 -70c0 -19 -24 -42 -26 -57c7 -17 20 -25 37 -25c44 0 94 29 94 78c0 75 -34 125 -138 125v36c84 0 131 22 131 98c0 54 -37 88 -87 88c-26 0 -43 -7 -51 -22c15 -22 44 -16 44 -70c0 -37 -37 -62 -71 -62c-22 0 -69 15 -69 76c0 79 101 116 178 116z" />
      </symbol>
      <symbol id="E084-1as9hh8" viewBox="0 0 1000 1000" overflow="inherit">
         <path transform="scale(1,-1)" d="M20 -78c84 97 114 180 134 329h170c-13 -32 -82 -132 -99 -151l-84 -97c-33 -36 -59 -63 -80 -81h162v102l127 123v-225h57v-39h-57v-34c0 -43 19 -65 57 -65v-34h-244v36c48 0 60 26 60 70v27h-203v39z" />
      </symbol>
      <symbol id="E088-1as9hh8" viewBox="0 0 1000 1000" overflow="inherit">
         <path transform="scale(1,-1)" d="M195 -214c76 0 88 58 90 68c0 34 -35 60 -57 73l-52 29c-21 10 -32 17 -34 20c-39 -33 -58 -54 -62 -92c5 -23 23 -98 115 -98zM301 135c0 61 -72 76 -113 76c-40 0 -77 -17 -77 -51c3 -21 15 -38 26 -50c17 -15 33 -26 48 -34l65 -28c34 27 51 56 51 87zM176 -250 c-57 0 -166 26 -166 132c0 47 30 86 89 116c-33 15 -79 60 -79 119c0 79 85 132 178 132h18c5 0 21 1 28 -1c25 0 126 -30 126 -110c0 -37 -23 -76 -69 -116c43 -25 83 -71 83 -119c0 -101 -118 -153 -208 -153z" />
      </symbol>
      <symbol id="E0A4-1as9hh8" viewBox="0 0 1000 1000" overflow="inherit">
         <path transform="scale(1,-1)" d="M0 -39c0 68 73 172 200 172c66 0 114 -37 114 -95c0 -84 -106 -171 -218 -171c-64 0 -96 30 -96 94z" />
      </symbol>
   </defs>
   <style type="text/css">g.page-margin{font-family:Times;} g.ending, g.fing, g.reh, g.tempo{font-weight:bold;} g.dir, g.dynam, g.mNum{font-style:italic;} g.label{font-weight:normal;}</style>
   <svg class="definition-scale" color="black" viewBox="0 0 21000 29700">
      <g class="page-margin" transform="translate(500, 500)">
         <g id="m182lw50" class="mdiv pageMilestone" />
         <g id="s199aeiz" class="score pageMilestone" />
         <g id="s19w2m4y" class="system">
            <g id="l1m9s8mx" class="label">
               <text x="1105" y="1537" text-anchor="end" font-size="0px">
                  <tspan id="t12on0y6" class="text">
                     <tspan font-size="405px" class="text">Piano</tspan>
                  </tspan>
               </text>
            </g>
            <g id="sneg7g2" class="section systemMilestone" />
            <g id="po6wpq7" class="pb" />
            <g id="mqcxg73" class="measure">
               <g id="sdxni27" class="staff">
                  <path d="M1285 1087 L5575 1087" stroke="currentColor" stroke-width="13" />
                  <path d="M1285 1267 L5575 1267" stroke="currentColor" stroke-width="13" />
                  <path d="M1285 1447 L5575 1447" stroke="currentColor" stroke-width="13" />
                  <path d="M1285 1627 L5575 1627" stroke="currentColor" stroke-width="13" />
                  <path d="M1285 1807 L5575 1807" stroke="currentColor" stroke-width="13" />
                  <g id="c1xa9pl2" class="clef">
                     <use xlink:href="#E050-1as9hh8" x="1375" y="1627" height="720px" width="720px" />
                  </g>
                  <g id="k1021mzn" class="keySig">
                     <g id="k1tzslmq" class="keyAccid">
                        <use xlink:href="#E262-1as9hh8" x="2020" y="1087" height="720px" width="720px" />
                     </g>
                  </g>
                  <g id="m19jzt3c" class="meterSig">
                     <use xlink:href="#E082-1as9hh8" x="2327" y="1267" height="720px" width="720px" />
                     <use xlink:href="#E084-1as9hh8" x="2332" y="1627" height="720px" width="720px" />
                  </g>
                  <g id="l1d023dk" class="layer">
                     <g id="bwtwzfl" class="beam">
                        <polygon points="3112,997 4152,907 4152,997 3112,1087" />
                        <polygon points="3735,1078 4152,1042 4152,1132 3735,1168" />
                        <g id="njvm5kt" class="note">
                           <g class="notehead">
                              <use xlink:href="#E0A4-1as9hh8" x="2904" y="1627" height="720px" width="720px" />
                           </g>
                           <g id="s10qqz1y" class="stem">
                              <rect x="3112" y="1015" height="584" width="18" />
                           </g>
                        </g>
                        <g id="nhc6ptk" class="note">
                           <g class="notehead">
                              <use xlink:href="#E0A4-1as9hh8" x="3518" y="1627" height="720px" width="720px" />
                           </g>
                           <g id="s1d5atlr" class="stem">
                              <rect x="3726" y="961" height="638" width="18" />
                           </g>
                        </g>
                        <g id="n1t4skyw" class="note">
                           <g class="notehead">
                              <use xlink:href="#E0A4-1as9hh8" x="3926" y="1537" height="720px" width="720px" />
                           </g>
                           <g id="s4o5ezs" class="stem">
                              <rect x="4134" y="925" height="584" width="18" />
                           </g>
                        </g>
                     </g>
                     <g id="b1otn90v" class="beam">
                        <polygon points="4543,862 5174,862 5174,952 4543,952" />
                        <g id="n5ap0ub" class="note">
                           <g class="notehead">
                              <use xlink:href="#E0A4-1as9hh8" x="4335" y="1447" height="720px" width="720px" />
                           </g>
                           <g id="s1crkhg6" class="stem">
                              <rect x="4543" y="880" height="539" width="18" />
                           </g>
                        </g>
                        <g id="nqo432y" class="note">
                           <g class="notehead">
                              <use xlink:href="#E0A4-1as9hh8" x="4948" y="1447" height="720px" width="720px" />
                           </g>
                           <g id="s1j62mwv" class="stem">
                              <rect x="5156" y="880" height="539" width="18" />
                           </g>
                        </g>
                     </g>
                  </g>
               </g>
               <g id="b1a82qn2" class="barLine">
                  <path d="M5562 1087 L5562 1807" stroke="currentColor" stroke-width="27" />
               </g>
            </g>
            <g id="m1xf3f0s" class="measure">
               <g id="s1e995mh" class="staff">
                  <path d="M5575 1087 L7941 1087" stroke="currentColor" stroke-width="13" />
                  <path d="M5575 1267 L7941 1267" stroke="currentColor" stroke-width="13" />
                  <path d="M5575 1447 L7941 1447" stroke="currentColor" stroke-width="13" />
                  <path d="M5575 1627 L7941 1627" stroke="currentColor" stroke-width="13" />
                  <path d="M5575 1807 L7941 1807" stroke="currentColor" stroke-width="13" />
                  <g id="l1wt8h3m" class="layer">
                     <g id="b1jo90ui" class="beam">
                        <polygon points="5967,907 6599,907 6599,997 5967,997" />
                        <g id="n6qz93s" class="note">
                           <g class="notehead">
                              <use xlink:href="#E0A4-1as9hh8" x="5759" y="1537" height="720px" width="720px" />
                           </g>
                           <g id="s17ye60x" class="stem">
                              <rect x="5967" y="925" height="584" width="18" />
                           </g>
                        </g>
                        <g id="n1150hmc" class="note">
                           <g class="notehead">
                              <use xlink:href="#E0A4-1as9hh8" x="6373" y="1537" height="720px" width="720px" />
                           </g>
                           <g id="ssj8dew" class="stem">
                              <rect x="6581" y="925" height="584" width="18" />
                           </g>
                        </g>
                     </g>
                     <g id="nouwelm" class="note">
                        <g class="notehead">
                           <use xlink:href="#E0A4-1as9hh8" x="6987" y="1627" height="720px" width="720px" />
                        </g>
                        <g id="s1sgjndc" class="stem">
                           <rect x="7195" y="997" height="602" width="18" />
                        </g>
                     </g>
                  </g>
               </g>
               <g id="b1pt7s6q" class="barLine">
                  <path d="M7928 1087 L7928 1807" stroke="currentColor" stroke-width="27" />
               </g>
            </g>
            <g id="m1c31zak" class="measure">
               <g id="s15q9xn7" class="staff">
                  <path d="M7941 1087 L10307 1087" stroke="currentColor" stroke-width="13" />
                  <path d="M7941 1267 L10307 1267" stroke="currentColor" stroke-width="13" />
                  <path d="M7941 1447 L10307 1447" stroke="currentColor" stroke-width="13" />
                  <path d="M7941 1627 L10307 1627" stroke="currentColor" stroke-width="13" />
                  <path d="M7941 1807 L10307 1807" stroke="currentColor" stroke-width="13" />
                  <g id="lzwfl48" class="layer">
                     <g id="b1af9w7d" class="beam">
                        <polygon points="8333,997 8965,907 8965,997 8333,1087" />
                        <g id="n1ocnayn" class="note">
                           <g class="notehead">
                              <use xlink:href="#E0A4-1as9hh8" x="8125" y="1627" height="720px" width="720px" />
                           </g>
                           <g id="sf9ayv6" class="stem">
                              <rect x="8333" y="1015" height="584" width="18" />
                           </g>
                        </g>
                        <g id="nikfwwn" class="note">
                           <g class="notehead">
                              <use xlink:href="#E0A4-1as9hh8" x="8739" y="1537" height="720px" width="720px" />
                           </g>
                           <g id="sxv40nn" class="stem">
                              <rect x="8947" y="925" height="584" width="18" />
                           </g>
                        </g>
                     </g>
                     <g id="n8k212q" class="note">
                        <g class="notehead">
                           <use xlink:href="#E0A4-1as9hh8" x="9353" y="1447" height="720px" width="720px" />
                        </g>
                        <g id="s1jks4u1" class="stem">
                           <rect x="9353" y="1475" height="572" width="18" />
                        </g>
                     </g>
                  </g>
               </g>
               <g id="b1ts2jkq" class="barLine">
                  <path d="M10294 1087 L10294 1807" stroke="currentColor" stroke-width="27" />
               </g>
            </g>
            <g id="mxxulyb" class="measure">
               <g id="stc2dju" class="staff">
                  <path d="M10307 1087 L12971 1087" stroke="currentColor" stroke-width="13" />
                  <path d="M10307 1267 L12971 1267" stroke="currentColor" stroke-width="13" />
                  <path d="M10307 1447 L12971 1447" stroke="currentColor" stroke-width="13" />
                  <path d="M10307 1627 L12971 1627" stroke="currentColor" stroke-width="13" />
                  <path d="M10307 1807 L12971 1807" stroke="currentColor" stroke-width="13" />
                  <g id="m1h9jler" class="meterSig">
                     <use xlink:href="#E083-1as9hh8" x="10387" y="1267" height="720px" width="720px" />
                     <use xlink:href="#E088-1as9hh8" x="10390" y="1627" height="720px" width="720px" />
                  </g>
                  <g id="l116sif8" class="layer">
                     <g id="b1f91y89" class="beam">
                        <polygon points="11150,907 11782,907 11782,997 11150,997" />
                        <g id="n1ix4en2" class="note">
                           <g class="notehead">
                              <use xlink:href="#E0A4-1as9hh8" x="10942" y="1537" height="720px" width="720px" />
                           </g>
                           <g id="s1i4kxzm" class="stem">
                              <rect x="11150" y="925" height="584" width="18" />
                           </g>
                        </g>
                        <g id="n112gzwa" class="note">
                           <g class="notehead">
                              <use xlink:href="#E0A4-1as9hh8" x="11556" y="1537" height="720px" width="720px" />
                           </g>
                           <g id="s1dttrhe" class="stem">
                              <rect x="11764" y="925" height="584" width="18" />
                           </g>
                        </g>
                     </g>
                     <g id="n1tot7pm" class="note">
                        <g class="notehead">
                           <use xlink:href="#E0A4-1as9hh8" x="12170" y="1627" height="720px" width="720px" />
                        </g>
                        <g id="sqcsq3e" class="stem">
                           <rect x="12378" y="997" height="602" width="18" />
                           <g id="fqoqemt" class="flag">
                              <use xlink:href="#E240-1as9hh8" x="12378" y="997" height="720px" width="720px" />
                           </g>
                        </g>
                     </g>
                  </g>
               </g>
               <g id="b10xt71h" class="barLine">
                  <path d="M12796 1087 L12796 1807" stroke="currentColor" stroke-width="27" />
                  <path d="M12926 1087 L12926 1807" stroke="currentColor" stroke-width="90" />
                  <use xlink:href="#E044-1as9hh8" x="12679" y="1357" height="720px" width="720px" />
                  <use xlink:href="#E044-1as9hh8" x="12679" y="1537" height="720px" width="720px" />
               </g>
            </g>
            <g id="mhagtyo" class="measure">
               <g id="s4myd8w" class="staff">
                  <path d="M12971 1087 L14231 1087" stroke="currentColor" stroke-width="13" />
                  <path d="M12971 1267 L14231 1267" stroke="currentColor" stroke-width="13" />
                  <path d="M12971 1447 L14231 1447" stroke="currentColor" stroke-width="13" />
                  <path d="M12971 1627 L14231 1627" stroke="currentColor" stroke-width="13" />
                  <path d="M12971 1807 L14231 1807" stroke="currentColor" stroke-width="13" />
                  <g id="m1s3a8n0" class="meterSig">
                     <use xlink:href="#E081-1as9hh8" x="13078" y="1267" height="720px" width="720px" />
                     <use xlink:href="#E088-1as9hh8" x="13054" y="1627" height="720px" width="720px" />
                  </g>
                  <g id="l1h66w8h" class="layer">
                     <g id="ne5vhdz" class="note">
                        <g class="notehead">
                           <use xlink:href="#E0A4-1as9hh8" x="13604" y="1627" height="720px" width="720px" />
                        </g>
                        <g id="skyxmxd" class="stem">
                           <rect x="13812" y="997" height="602" width="18" />
                           <g id="f1sopuoj" class="flag">
                              <use xlink:href="#E240-1as9hh8" x="13812" y="997" height="720px" width="720px" />
                           </g>
                        </g>
                     </g>
                  </g>
               </g>
               <g id="b1qdg7xx" class="barLine">
                  <path d="M14218 1087 L14218 1807" stroke="currentColor" stroke-width="27" />
               </g>
            </g>
            <g id="m6nswn7" class="measure">
               <g id="s3hqti0" class="staff">
                  <path d="M14231 1087 L17352 1087" stroke="currentColor" stroke-width="13" />
                  <path d="M14231 1267 L17352 1267" stroke="currentColor" stroke-width="13" />
                  <path d="M14231 1447 L17352 1447" stroke="currentColor" stroke-width="13" />
                  <path d="M14231 1627 L17352 1627" stroke="currentColor" stroke-width="13" />
                  <path d="M14231 1807 L17352 1807" stroke="currentColor" stroke-width="13" />
                  <g id="m3iwqct" class="meterSig">
                     <use xlink:href="#E082-1as9hh8" x="14307" y="1267" height="720px" width="720px" />
                     <use xlink:href="#E084-1as9hh8" x="14312" y="1627" height="720px" width="720px" />
                  </g>
                  <g id="lnuppsl" class="layer">
                     <g id="b1dd340e" class="beam">
                        <polygon points="14884,2032 15516,1942 15516,1852 14884,1942" />
                        <g id="n10wz8tu" class="note">
                           <g class="notehead">
                              <use xlink:href="#E0A4-1as9hh8" x="14884" y="1447" height="720px" width="720px" />
                           </g>
                           <g id="sr02qp9" class="stem">
                              <rect x="14884" y="1475" height="539" width="18" />
                           </g>
                        </g>
                        <g id="n16ro15e" class="note">
                           <g class="notehead">
                              <use xlink:href="#E0A4-1as9hh8" x="15498" y="1357" height="720px" width="720px" />
                           </g>
                           <g id="sywk2sj" class="stem">
                              <rect x="15498" y="1385" height="539" width="18" />
                           </g>
                        </g>
                     </g>
                     <g id="b1wfarvx" class="beam">
                        <polygon points="16112,1852 16743,1852 16743,1762 16112,1762" />
                        <g id="n1b4ti5f" class="note">
                           <g class="notehead">
                              <use xlink:href="#E0A4-1as9hh8" x="16112" y="1267" height="720px" width="720px" />
                           </g>
                           <g id="s1ek4nw8" class="stem">
                              <rect x="16112" y="1295" height="539" width="18" />
                           </g>
                        </g>
                        <g id="n16li46w" class="note">
                           <g class="notehead">
                              <use xlink:href="#E0A4-1as9hh8" x="16725" y="1267" height="720px" width="720px" />
                           </g>
                           <g id="snb63h3" class="stem">
                              <rect x="16725" y="1295" height="539" width="18" />
                           </g>
                        </g>
                     </g>
                  </g>
               </g>
               <g id="bv2gxo1" class="barLine">
                  <path d="M17339 1087 L17339 1807" stroke="currentColor" stroke-width="27" />
               </g>
            </g>
            <g id="mk0f61n" class="measure">
               <g id="s15p31fw" class="staff">
                  <path d="M17352 1087 L20004 1087" stroke="currentColor" stroke-width="13" />
                  <path d="M17352 1267 L20004 1267" stroke="currentColor" stroke-width="13" />
                  <path d="M17352 1447 L20004 1447" stroke="currentColor" stroke-width="13" />
                  <path d="M17352 1627 L20004 1627" stroke="currentColor" stroke-width="13" />
                  <path d="M17352 1807 L20004 1807" stroke="currentColor" stroke-width="13" />
                  <g id="l1h0e30m" class="layer">
                     <g id="behagbl" class="beam">
                        <polygon points="17536,1942 18168,2032 18168,1942 17536,1852" />
                        <g id="nxv054p" class="note">
                           <g class="notehead">
                              <use xlink:href="#E0A4-1as9hh8" x="17536" y="1357" height="720px" width="720px" />
                           </g>
                           <g id="svtfhdg" class="stem">
                              <rect x="17536" y="1385" height="539" width="18" />
                           </g>
                        </g>
                        <g id="n1yz4woh" class="note">
                           <g class="notehead">
                              <use xlink:href="#E0A4-1as9hh8" x="18150" y="1447" height="720px" width="720px" />
                           </g>
                           <g id="sn2tg40" class="stem">
                              <rect x="18150" y="1475" height="539" width="18" />
                           </g>
                        </g>
                     </g>
                     <g id="b1sowomi" class="beam">
                        <polygon points="18972,907 19603,907 19603,997 18972,997" />
                        <g id="n18dzyl4" class="note">
                           <g class="notehead">
                              <use xlink:href="#E0A4-1as9hh8" x="18764" y="1537" height="720px" width="720px" />
                           </g>
                           <g id="s8lnbve" class="stem">
                              <rect x="18972" y="925" height="584" width="18" />
                           </g>
                        </g>
                        <g id="nmbdbxq" class="note">
                           <g class="notehead">
                              <use xlink:href="#E0A4-1as9hh8" x="19377" y="1537" height="720px" width="720px" />
                           </g>
                           <g id="su7fevo" class="stem">
                              <rect x="19585" y="925" height="584" width="18" />
                           </g>
                        </g>
                     </g>
                  </g>
               </g>
               <g id="bybh8ca" class="barLine">
                  <path d="M19991 1087 L19991 1807" stroke="currentColor" stroke-width="27" />
               </g>
            </g>
         </g>
         <g id="sfhzdil" class="system">
            <g id="l1daw73x" class="labelAbbr">
               <text x="914" y="3886" text-anchor="end" font-size="0px">
                  <tspan id="tdrqth4" class="text">
                     <tspan font-size="405px" class="text">Pno.</tspan>
                  </tspan>
               </text>
            </g>
            <g id="m1a81vx8" class="measure">
               <g id="mrn37e6" class="mNum autogenerated">
                  <text x="1094" y="3193" text-anchor="middle" font-size="0px">
                     <tspan id="tl2iwog" class="text">
                        <tspan font-size="324px" class="text">8</tspan>
                     </tspan>
                  </text>
               </g>
               <g id="sw5jimi" class="staff">
                  <path d="M1094 3436 L4657 3436" stroke="currentColor" stroke-width="13" />
                  <path d="M1094 3616 L4657 3616" stroke="currentColor" stroke-width="13" />
                  <path d="M1094 3796 L4657 3796" stroke="currentColor" stroke-width="13" />
                  <path d="M1094 3976 L4657 3976" stroke="currentColor" stroke-width="13" />
                  <path d="M1094 4156 L4657 4156" stroke="currentColor" stroke-width="13" />
                  <g id="c1e1d0dk" class="clef">
                     <use xlink:href="#E050-1as9hh8" x="1184" y="3976" height="720px" width="720px" />
                  </g>
                  <g id="k4iz89a" class="keySig">
                     <g id="k1uw2shm" class="keyAccid">
                        <use xlink:href="#E262-1as9hh8" x="1829" y="3436" height="720px" width="720px" />
                     </g>
                  </g>
                  <g id="l1s77gta" class="layer">
                     <g id="buiwu73" class="beam">
                        <polygon points="2240,4336 2859,4336 2859,4246 2240,4246" />
                        <g id="n1vu0lu3" class="note">
                           <g class="notehead">
                              <use xlink:href="#E0A4-1as9hh8" x="2240" y="3706" height="720px" width="720px" />
                           </g>
                           <g id="s1y7nbq0" class="stem">
                              <rect x="2240" y="3734" height="584" width="18" />
                           </g>
                        </g>
                        <g id="npd9ahy" class="note">
                           <g class="notehead">
                              <use xlink:href="#E0A4-1as9hh8" x="2841" y="3706" height="720px" width="720px" />
                           </g>
                           <g id="s1a5lafe" class="stem">
                              <rect x="2841" y="3734" height="584" width="18" />
                           </g>
                        </g>
                     </g>
                     <g id="bsukobs" class="beam">
                        <polygon points="3442,4336 4061,4336 4061,4246 3442,4246" />
                        <g id="n1wus6sh" class="note">
                           <g class="notehead">
                              <use xlink:href="#E0A4-1as9hh8" x="3442" y="3706" height="720px" width="720px" />
                           </g>
                           <g id="s1av9bwd" class="stem">
                              <rect x="3442" y="3734" height="584" width="18" />
                           </g>
                        </g>
                        <g id="n1imuqkj" class="note">
                           <g class="notehead">
                              <use xlink:href="#E0A4-1as9hh8" x="4043" y="3706" height="720px" width="720px" />
                           </g>
                           <g id="s1f42yep" class="stem">
                              <rect x="4043" y="3734" height="584" width="18" />
                           </g>
                        </g>
                     </g>
                  </g>
               </g>
               <g id="bx1e25m" class="barLine">
                  <path d="M4644 3436 L4644 4156" stroke="currentColor" stroke-width="27" />
               </g>
            </g>
            <g id="m12n5mko" class="measure">
               <g id="sazb3we" class="staff">
                  <path d="M4657 3436 L6694 3436" stroke="currentColor" stroke-width="13" />
                  <path d="M4657 3616 L6694 3616" stroke="currentColor" stroke-width="13" />
                  <path d="M4657 3796 L6694 3796" stroke="currentColor" stroke-width="13" />
                  <path d="M4657 3976 L6694 3976" stroke="currentColor" stroke-width="13" />
                  <path d="M4657 4156 L6694 4156" stroke="currentColor" stroke-width="13" />
                  <g id="l18kv37o" class="layer">
                     <g id="nki2kk5" class="note">
                        <g class="notehead">
                           <use xlink:href="#E0A4-1as9hh8" x="4837" y="3526" height="720px" width="720px" />
                        </g>
                        <g id="s1lpn97d" class="stem">
                           <rect x="4837" y="3554" height="602" width="18" />
                        </g>
                     </g>
                     <g id="n1uefchz" class="note">
                        <g class="notehead">
                           <use xlink:href="#E0A4-1as9hh8" x="5759" y="3616" height="720px" width="720px" />
                        </g>
                        <g id="s1bz21ej" class="stem">
                           <rect x="5759" y="3644" height="602" width="18" />
                        </g>
                     </g>
                  </g>
               </g>
               <g id="b1kbrjlo" class="barLine">
                  <path d="M6681 3436 L6681 4156" stroke="currentColor" stroke-width="27" />
               </g>
            </g>
            <g id="s1mbu73g" class="sb" />
            <g id="m1qcc62d" class="measure">
               <g id="schbum1" class="staff">
                  <path d="M6694 3436 L9011 3436" stroke="currentColor" stroke-width="13" />
                  <path d="M6694 3616 L9011 3616" stroke="currentColor" stroke-width="13" />
                  <path d="M6694 3796 L9011 3796" stroke="currentColor" stroke-width="13" />
                  <path d="M6694 3976 L9011 3976" stroke="currentColor" stroke-width="13" />
                  <path d="M6694 4156 L9011 4156" stroke="currentColor" stroke-width="13" />
                  <g id="ldh98g0" class="layer">
                     <g id="bcp5p2u" class="beam">
                        <polygon points="7082,3346 7701,3256 7701,3346 7082,3436" />
                        <g id="nxwqx41" class="note">
                           <g class="notehead">
                              <use xlink:href="#E0A4-1as9hh8" x="6874" y="3976" height="720px" width="720px" />
                           </g>
                           <g id="s15jcl75" class="stem">
                              <rect x="7082" y="3364" height="584" width="18" />
                           </g>
                        </g>
                        <g id="n1g216xf" class="note">
                           <g class="notehead">
                              <use xlink:href="#E0A4-1as9hh8" x="7475" y="3886" height="720px" width="720px" />
                           </g>
                           <g id="s1wus82h" class="stem">
                              <rect x="7683" y="3274" height="584" width="18" />
                           </g>
                        </g>
                     </g>
                     <g id="n1n2094r" class="note">
                        <g class="notehead">
                           <use xlink:href="#E0A4-1as9hh8" x="8076" y="3796" height="720px" width="720px" />
                        </g>
                        <g id="s1skuf9l" class="stem">
                           <rect x="8076" y="3824" height="572" width="18" />
                        </g>
                     </g>
                  </g>
               </g>
               <g id="bucf68z" class="barLine">
                  <path d="M8998 3436 L8998 4156" stroke="currentColor" stroke-width="27" />
               </g>
            </g>
            <g id="m1yvq00s" class="measure">
               <g id="s1264f6d" class="staff">
                  <path d="M9011 3436 L11608 3436" stroke="currentColor" stroke-width="13" />
                  <path d="M9011 3616 L11608 3616" stroke="currentColor" stroke-width="13" />
                  <path d="M9011 3796 L11608 3796" stroke="currentColor" stroke-width="13" />
                  <path d="M9011 3976 L11608 3976" stroke="currentColor" stroke-width="13" />
                  <path d="M9011 4156 L11608 4156" stroke="currentColor" stroke-width="13" />
                  <g id="l1vetvw" class="layer">
                     <g id="b5jed7y" class="beam">
                        <polygon points="9399,3256 10018,3346 10018,3436 9399,3346" />
                        <g id="n1e1iwvx" class="note">
                           <g class="notehead">
                              <use xlink:href="#E0A4-1as9hh8" x="9191" y="3886" height="720px" width="720px" />
                           </g>
                           <g id="s2caf9i" class="stem">
                              <rect x="9399" y="3274" height="584" width="18" />
                           </g>
                        </g>
                        <g id="nnhdy3i" class="note">
                           <g class="notehead">
                              <use xlink:href="#E0A4-1as9hh8" x="9792" y="3976" height="720px" width="720px" />
                           </g>
                           <g id="s1c2c7it" class="stem">
                              <rect x="10000" y="3364" height="584" width="18" />
                           </g>
                        </g>
                     </g>
                     <g id="b1ssfkk4" class="beam">
                        <polygon points="10601,3256 11220,3256 11220,3346 10601,3346" />
                        <g id="ne14is0" class="note">
                           <g class="notehead">
                              <use xlink:href="#E0A4-1as9hh8" x="10393" y="3886" height="720px" width="720px" />
                           </g>
                           <g id="s69qpjk" class="stem">
                              <rect x="10601" y="3274" height="584" width="18" />
                           </g>
                        </g>
                        <g id="n1l80nnq" class="note">
                           <g class="notehead">
                              <use xlink:href="#E0A4-1as9hh8" x="10994" y="3886" height="720px" width="720px" />
                           </g>
                           <g id="sw9tluc" class="stem">
                              <rect x="11202" y="3274" height="584" width="18" />
                           </g>
                        </g>
                     </g>
                  </g>
               </g>
               <g id="b1ca85ww" class="barLine">
                  <path d="M11595 3436 L11595 4156" stroke="currentColor" stroke-width="27" />
               </g>
            </g>
            <g id="m1ehfwrv" class="measure">
               <g id="sr3edx9" class="staff">
                  <path d="M11608 3436 L13925 3436" stroke="currentColor" stroke-width="13" />
                  <path d="M11608 3616 L13925 3616" stroke="currentColor" stroke-width="13" />
                  <path d="M11608 3796 L13925 3796" stroke="currentColor" stroke-width="13" />
                  <path d="M11608 3976 L13925 3976" stroke="currentColor" stroke-width="13" />
                  <path d="M11608 4156 L13925 4156" stroke="currentColor" stroke-width="13" />
                  <g id="l1uawfzf" class="layer">
                     <g id="b1aidgrc" class="beam">
                        <polygon points="11996,3346 12615,3256 12615,3346 11996,3436" />
                        <g id="nlljckh" class="note">
                           <g class="notehead">
                              <use xlink:href="#E0A4-1as9hh8" x="11788" y="3976" height="720px" width="720px" />
                           </g>
                           <g id="stefk90" class="stem">
                              <rect x="11996" y="3364" height="584" width="18" />
                           </g>
                        </g>
                        <g id="nv4a2j" class="note">
                           <g class="notehead">
                              <use xlink:href="#E0A4-1as9hh8" x="12389" y="3886" height="720px" width="720px" />
                           </g>
                           <g id="s1dln0or" class="stem">
                              <rect x="12597" y="3274" height="584" width="18" />
                           </g>
                        </g>
                     </g>
                     <g id="n1f6e5dz" class="note">
                        <g class="notehead">
                           <use xlink:href="#E0A4-1as9hh8" x="12990" y="3796" height="720px" width="720px" />
                        </g>
                        <g id="sijmv0o" class="stem">
                           <rect x="12990" y="3824" height="572" width="18" />
                        </g>
                     </g>
                  </g>
               </g>
               <g id="bb0tfj8" class="barLine">
                  <path d="M13912 3436 L13912 4156" stroke="currentColor" stroke-width="27" />
               </g>
            </g>
            <g id="m1mv6uvv" class="measure">
               <g id="s3q0zr5" class="staff">
                  <path d="M13925 3436 L16404 3436" stroke="currentColor" stroke-width="13" />
                  <path d="M13925 3616 L16404 3616" stroke="currentColor" stroke-width="13" />
                  <path d="M13925 3796 L16404 3796" stroke="currentColor" stroke-width="13" />
                  <path d="M13925 3976 L16404 3976" stroke="currentColor" stroke-width="13" />
                  <path d="M13925 4156 L16404 4156" stroke="currentColor" stroke-width="13" />
                  <g id="l1a48mpl" class="layer">
                     <g id="b1bf4oln" class="beam">
                        <polygon points="14313,3256 14932,3256 14932,3346 14313,3346" />
                        <g id="n167ip8d" class="note">
                           <g class="notehead">
                              <use xlink:href="#E0A4-1as9hh8" x="14105" y="3886" height="720px" width="720px" />
                           </g>
                           <g id="s1yu5wkd" class="stem">
                              <rect x="14313" y="3274" height="584" width="18" />
                           </g>
                        </g>
                        <g id="n1nbukrj" class="note">
                           <g class="notehead">
                              <use xlink:href="#E0A4-1as9hh8" x="14706" y="3886" height="720px" width="720px" />
                           </g>
                           <g id="s1y01qp1" class="stem">
                              <rect x="14914" y="3274" height="584" width="18" />
                           </g>
                        </g>
                     </g>
                     <g id="nlnh1wn" class="note">
                        <g class="notehead">
                           <use xlink:href="#E0A4-1as9hh8" x="15307" y="3976" height="720px" width="720px" />
                        </g>
                        <g id="s161xixo" class="stem">
                           <rect x="15515" y="3346" height="602" width="18" />
                        </g>
                     </g>
                  </g>
               </g>
               <g id="bg4z7nn" class="barLine">
                  <path d="M16229 3436 L16229 4156" stroke="currentColor" stroke-width="27" />
                  <path d="M16359 3436 L16359 4156" stroke="currentColor" stroke-width="90" />
               </g>
            </g>
            <g id="sa2pi9d" class="systemMilestoneEnd sneg7g2" />
         </g>
         <g id="p1iasxp8" class="pageMilestoneEnd s199aeiz" />
         <g id="p1qjhy0x" class="pageMilestoneEnd m182lw50" />
         <g id="pkfxmlu" class="pgHead">
            <text x="0" y="0" font-size="0px">
               <tspan id="r1ssp3t0" class="rend" x="10000" y="279" text-anchor="middle">
                  <tspan id="turnaf1" class="text">
                     <tspan font-size="405px" class="text">Air n 25</tspan>
                  </tspan>
               </tspan>
            </text>
         </g>
         <g id="p19noxyj" class="pgFoot autogenerated">
            <g id="fftj0dl" class="fig">
               <g id="sz5bklo" class="svg" transform="translate(7750, 28099) scale(10, 10)">
                  <g>
                     <path fill="#00000" d="M 17.11278,49.26451 V 10.367554 h 12.696511 c 3.288815,7.336676 6.71267,14.610456 10.127281,21.888976 3.419998,-7.484684 6.255515,-14.204887 9.58887,-21.909915 2.436207,0.103726 4.316952,0.08453 6.484294,-0.05808 V 49.264423 H 50.274275 C 50.145222,38.35639 50.016136,27.448368 49.887066,16.540329 45.003488,27.315459 39.967448,38.433564 35.083854,49.208695 34.678996,49.343717 34.426583,49.135619 34.021726,49.270644 29.46588,39.330716 24.910049,29.390805 20.354201,19.450876 20.224341,29.388756 20.09461,39.326619 19.964815,49.264497 H 17.11278 Z M 36.754144,39.324695 C 32.721221,30.512695 28.6883,21.700679 24.655394,12.888662 22.530527,12.750737 22.656775,12.71031 20.714356,12.813974 v 0.966497 c 4.612938,9.99784 9.609439,20.748709 13.87298,30.081745 0.722248,-1.512523 1.444528,-3.025014 2.166808,-4.537521 z m 25.738417,9.939815 c 0,-12.965651 0,-25.931305 0,-38.896956 10.084388,0 20.168791,0 30.253178,0 0,0.960416 0,1.920849 0,2.881265 -6.482825,0 -12.965652,0 -19.448478,0 0,4.802097 0,9.604178 0,14.406277 5.52241,0 11.044819,0 16.567229,0 0,0.960415 0,1.920832 0,2.881248 -5.52241,0 -11.044819,0 -16.567229,0 0,5.282306 0,10.564611 0,15.846917 6.963035,0 13.926068,0 20.889103,0 0,0.960416 0,1.920832 0,2.881249 -10.564597,0 -21.129207,0 -31.693803,0 z m 4.321874,-2.160937 c 0,-11.765131 0,-23.530263 0,-35.295394 -0.720312,0 -1.440625,0 -2.160937,0 0,11.765131 0,23.530263 0,35.295394 0.720312,0 1.440625,0 2.160937,0 z m 32.41413,2.160937 c 0,-12.965651 0,-25.931305 0,-38.896956 2.401045,0 4.802095,0 7.203135,0 0,12.965651 0,25.931305 0,38.896956 -2.40104,0 -4.80209,0 -7.203135,0 z m 2.881265,-2.160937 c 0,-11.765131 0,-23.530263 0,-35.295394 -0.72031,0 -1.44064,0 -2.160953,0 0,11.765131 0,23.530263 0,35.295394 0.720313,0 1.440643,0 2.160953,0 z" />
                     <path fill="#00000" d="m 346.3,6.7 c -3.1,0.5 -4.9,4.4 -2.7,6.8 1.2,1.4 2.7,2.4 4.1,3.5 -2.4,5.3 -7.7,8.3 -11.9,12.1 -3.7,2.8 -7,6.2 -9.7,9.9 -2.2,-0.8 -0.3,-6.8 -0.6,-9.5 0.1,-3.1 0.7,-6.4 2.9,-8.7 1.3,-1.9 3,-3.5 4.5,-5.2 1.2,-3.4 -3.2,-4.9 -5.8,-4.6 -7.3,-0.5 -14.6,2 -20,6.8 -5,4.6 -10,10.1 -11.5,17 -0.9,3.5 -0.2,7.5 2.8,9.9 2.5,2.8 7.4,2.9 9.8,-0.2 1.7,-2.3 3.2,-4.8 3.8,-7.6 -0.1,-2.6 -4.4,-2.3 -4.3,0.2 1.2,2.4 -0.9,4.7 -2.7,6.2 -1.7,0.9 -4.7,0.7 -4.8,-1.7 -1,-5.8 2.1,-11.3 5.2,-16.1 4,-5.8 9.8,-11.2 17.2,-11.8 1.6,0 8.1,-1.2 6.8,1.4 -2.8,2.8 -5.6,6.1 -6,10.3 -1.6,7.7 0.1,15.7 -2.3,23.2 -1.1,3.9 2,2.6 2.5,0.2 3.3,-7.4 8.9,-13.4 15.1,-18.5 4.2,-3.9 9.5,-7.1 11.9,-12.6 1.3,-3.6 1.2,-9 -2.7,-10.9 -0.6,-0.2 -1.2,-0.3 -1.8,-0.3 z m 66,14.5 c -2,0.8 -1.8,4.9 0.8,4.4 3.4,0.4 2.9,-6.2 -0.8,-4.4 z m 0.6,7.3 c -1.3,0.5 -7.6,0.5 -5.4,2.2 4,-0.3 0.7,4.5 0.6,6.7 -0.4,2.9 -2.4,5.9 -1.2,8.8 2.7,1.7 5.6,-0.8 6.8,-3.2 1.6,-1.4 -0.5,-3 -1.2,-0.9 -0.4,0.8 -2.4,3.5 -2.6,1.8 1.1,-5 2.7,-9.9 3.9,-14.9 l -0.1,-0.5 h -0.9 z m -65.1,0.2 c -6.5,1.6 -10.5,9.5 -8.2,15.7 2.1,3.4 7.4,2.9 10.1,0.4 2,-0.2 3.6,-5.3 1,-3.4 -1.4,2 -4,4.2 -6.5,2.8 -2.2,-1.9 -1.9,-5.7 1.7,-5.3 3.1,-0.9 6.9,-2.1 8.1,-5.5 0.9,-2.7 -1.6,-5.2 -4.3,-4.8 h -1.1 -0.7 z m 13.6,0 c -2.2,0 -8.5,1.8 -2.9,2.3 0.9,1.9 -1,4.9 -1.1,7.2 -0.5,2.9 -1.4,5.7 -1.7,8.7 3.7,0.7 3.8,-2.6 4.4,-5.3 0.9,-3.3 1.6,-7 4.1,-9.5 2.4,1.6 6.8,-0.7 3.7,-3.4 -2.9,-0.5 -4.8,2.4 -6.2,4.3 0,-1.2 2.4,-5 -0.2,-4.3 z m 15.8,0 c -6.4,1.3 -9.6,9.1 -7.7,14.9 1.9,4 7.7,3.9 11,1.7 4.1,-3 6,-8.9 4.4,-13.7 -1.3,-3 -4.8,-3.2 -7.6,-3 z m 17,0 c -2.3,0 -8.8,1.9 -3,2.4 0.4,2.5 -1,5.7 -1.4,8.4 -0.7,2.4 -1.8,7.5 2.1,7.2 3.8,-0.1 6.5,-3.5 8.5,-6.3 2,-3.2 4.5,-7 3.3,-10.9 -3.7,-3 -3.6,2.6 -3.1,5.1 -0.7,3.8 -2.7,7.9 -6.2,9.8 -3.6,0.6 -1,-4.3 -0.8,-6.1 0.6,-3.2 1.6,-6.3 1.9,-9.5 -0.4,0 -0.8,0 -1.1,0 z m 30.6,0 c -6.3,1.2 -9.5,8.9 -7.8,14.7 1.5,4 7.2,4.2 10.5,2.4 4.6,-2.8 6.6,-9.3 4.8,-14.3 -1.4,-2.8 -4.8,-3 -7.5,-2.8 z m -75.4,1.7 c 2.1,1.5 0.2,4.7 -1.6,5.7 -1.1,0.4 -5.5,3.4 -4.6,0.7 0.8,-2.7 2.2,-6.2 5.3,-6.6 l 0.9,0.1 z m 30.8,0 c 2.6,1.5 1.3,5.2 0.8,7.6 -0.8,2.7 -1.9,5.9 -4.7,7.1 -5.1,0.8 -4,-5.8 -2.8,-8.8 1,-2.8 3,-6.8 6.7,-5.8 z m 47.1,-0.1 c 2.9,0.7 2,4.7 1.5,6.8 -0.7,3 -1.8,6.7 -5,8 -4.7,0.8 -4,-5.1 -3,-7.9 0.9,-3 2.7,-7.3 6.5,-6.8 z m -88.1,5.9 c -0.3,1.3 0.9,-0.6 0,0 z m -1.1,2.4 c -0.2,0.5 0.5,-0.1 0,0 z m -1.3,4.5 c -0.3,1.3 0.8,-0.2 0,0 z" />
                     <text y="41" x="201" fill="#00000" style="font-style:italic;font-weight:normal;font-size:30px;line-height:125%;font-family:Times;text-anchor:middle" xml:space="preserve">engraved with</text>
                  </g>
               </g>
            </g>
         </g>
      </g>
   </svg>
</svg>
