<?xml version="1.0" encoding="UTF-8" standalone="no"?>
<svg width="2100px" height="2970px" version="1.1" xmlns="http://www.w3.org/2000/svg" xmlns:xlink="http://www.w3.org/1999/xlink" xmlns:mei="http://www.music-encoding.org/ns/mei" overflow="visible">
   <desc>Engraved by Verovio 3.13.1</desc>
   <defs>
      <symbol id="E044-6ydeoz" viewBox="0 0 1000 1000" overflow="inherit">
         <path transform="scale(1,-1)" d="M0 0c0 28 22 50 50 50s50 -22 50 -50s-22 -50 -50 -50s-50 22 -50 50z" />
      </symbol>
      <symbol id="E050-6ydeoz" viewBox="0 0 1000 1000" overflow="inherit">
         <path transform="scale(1,-1)" d="M441 -245c-23 -4 -48 -6 -76 -6c-59 0 -102 7 -130 20c-88 42 -150 93 -187 154c-26 44 -43 103 -48 176c0 6 -1 13 -1 19c0 54 15 111 45 170c29 57 65 106 110 148s96 85 153 127c-3 16 -8 46 -13 92c-4 43 -5 73 -5 89c0 117 16 172 69 257c34 54 64 82 89 82 c21 0 43 -30 69 -92s39 -115 41 -159v-15c0 -109 -21 -162 -67 -241c-13 -20 -63 -90 -98 -118c-13 -9 -25 -19 -37 -29l31 -181c8 1 18 2 28 2c58 0 102 -12 133 -35c59 -43 92 -104 98 -184c1 -7 1 -15 1 -22c0 -123 -87 -209 -181 -248c8 -57 17 -110 25 -162 c5 -31 6 -58 6 -80c0 -30 -5 -53 -14 -70c-35 -64 -88 -99 -158 -103c-5 0 -11 -1 -16 -1c-37 0 -72 10 -108 27c-50 24 -77 59 -80 105v11c0 29 7 55 20 76c18 28 45 42 79 44h6c49 0 93 -42 97 -87v-9c0 -51 -34 -86 -105 -106c17 -24 51 -36 102 -36c62 0 116 43 140 85 c9 16 13 41 13 74c0 20 -1 42 -5 67c-8 53 -18 106 -26 159zM461 939c-95 0 -135 -175 -135 -286c0 -24 2 -48 5 -71c50 39 92 82 127 128c40 53 60 100 60 140v8c-4 53 -22 81 -55 81h-2zM406 119l54 -326c73 25 110 78 110 161c0 7 0 15 -1 23c-7 95 -57 142 -151 142h-12 zM382 117c-72 -2 -128 -47 -128 -120v-7c2 -46 43 -99 75 -115c-3 -2 -7 -5 -10 -10c-70 33 -116 88 -123 172v11c0 68 44 126 88 159c23 17 49 29 78 36l-29 170c-21 -13 -52 -37 -92 -73c-50 -44 -86 -84 -109 -119c-45 -69 -67 -130 -67 -182v-13c5 -68 35 -127 93 -176 s125 -73 203 -73c25 0 50 3 75 9c-19 111 -36 221 -54 331z" />
      </symbol>
      <symbol id="E081-6ydeoz" viewBox="0 0 1000 1000" overflow="inherit">
         <path transform="scale(1,-1)" d="M68 -250v36c23 0 40 6 49 18c8 14 12 33 12 57v250l-82 -129l-27 13l107 255h128v-394c0 -24 5 -42 14 -53s25 -17 47 -17v-36h-248z" />
      </symbol>
      <symbol id="E082-6ydeoz" viewBox="0 0 1000 1000" overflow="inherit">
         <path transform="scale(1,-1)" d="M124 -185c-18 0 -55 -14 -65 -65h-36l-3 30c0 25 6 45 18 63c11 19 22 30 39 43l121 82l37 29c15 11 27 29 38 54c12 24 18 47 18 70c0 40 -19 88 -94 88c-25 0 -32 0 -50 -8c-14 -5 -23 -12 -26 -22c3 -9 7 -15 10 -18l24 -17c12 -7 17 -11 27 -21c5 -7 7 -16 7 -27 c0 -12 0 -57 -79 -74c-30 0 -76 26 -76 94c0 66 81 135 197 135c72 0 181 -32 181 -150c0 -53 -32 -95 -113 -133l-91 -41c-26 -11 -45 -23 -57 -37l49 7c84 0 115 -41 148 -41c20 0 33 20 39 61h35c0 -152 -68 -168 -114 -168c-17 0 -65 0 -79 7h10l-28 17 c-49 37 -69 40 -87 42z" />
      </symbol>
      <symbol id="E084-6ydeoz" viewBox="0 0 1000 1000" overflow="inherit">
         <path transform="scale(1,-1)" d="M20 -78c84 97 114 180 134 329h170c-13 -32 -82 -132 -99 -151l-84 -97c-33 -36 -59 -63 -80 -81h162v102l127 123v-225h57v-39h-57v-34c0 -43 19 -65 57 -65v-34h-244v36c48 0 60 26 60 70v27h-203v39z" />
      </symbol>
      <symbol id="E0A4-6ydeoz" viewBox="0 0 1000 1000" overflow="inherit">
         <path transform="scale(1,-1)" d="M0 -39c0 68 73 172 200 172c66 0 114 -37 114 -95c0 -84 -106 -171 -218 -171c-64 0 -96 30 -96 94z" />
      </symbol>
      <symbol id="E260-6ydeoz" viewBox="0 0 1000 1000" overflow="inherit">
         <path transform="scale(1,-1)" d="M20 110c32 16 54 27 93 27c26 0 35 -3 54 -13c13 -7 24 -20 27 -38l4 -25c0 -28 -16 -57 -45 -89c-23 -25 -39 -44 -65 -68l-88 -79v644h20v-359zM90 106c-32 0 -48 -10 -70 -29v-194c31 31 54 59 71 84c21 32 32 59 32 84c0 9 1 16 1 20c0 14 -3 21 -11 30l-8 3z" />
      </symbol>
   </defs>
   <style type="text/css">g.page-margin{font-family:Times;} g.ending, g.fing, g.reh, g.tempo{font-weight:bold;} g.dir, g.dynam, g.mNum{font-style:italic;} g.label{font-weight:normal;}</style>
   <svg class="definition-scale" color="black" viewBox="0 0 21000 29700">
      <g class="page-margin" transform="translate(500, 500)">
         <g id="m1x2fqtj" class="mdiv pageMilestone" />
         <g id="s1ypoh8u" class="score pageMilestone" />
         <g id="s1vf20bm" class="system">
            <g id="ljss88l" class="label">
               <text x="1105" y="1535" text-anchor="end" font-size="0px">
                  <tspan id="t65ujch" class="text">
                     <tspan font-size="405px" class="text">Piano</tspan>
                  </tspan>
               </text>
            </g>
            <g id="s117haao" class="section systemMilestone" />
            <g id="p1tvqh56" class="pb" />
            <g id="mjtic0q" class="measure">
               <g id="mjj8sjv" class="mNum">
                  <text x="1285" y="842" text-anchor="middle" font-size="0px" />
               </g>
               <g id="sa8lgzd" class="staff">
                  <path d="M1285 1085 L4417 1085" stroke="currentColor" stroke-width="13" />
                  <path d="M1285 1265 L4417 1265" stroke="currentColor" stroke-width="13" />
                  <path d="M1285 1445 L4417 1445" stroke="currentColor" stroke-width="13" />
                  <path d="M1285 1625 L4417 1625" stroke="currentColor" stroke-width="13" />
                  <path d="M1285 1805 L4417 1805" stroke="currentColor" stroke-width="13" />
                  <g id="cgcrxd3" class="clef">
                     <use xlink:href="#E050-6ydeoz" x="1375" y="1625" height="720px" width="720px" />
                  </g>
                  <g id="kayulno" class="keySig">
                     <g id="kcrewz5" class="keyAccid">
                        <use xlink:href="#E260-6ydeoz" x="2020" y="1445" height="720px" width="720px" />
                     </g>
                     <g id="k1mup9d6" class="keyAccid">
                        <use xlink:href="#E260-6ydeoz" x="2200" y="1175" height="720px" width="720px" />
                     </g>
                  </g>
                  <g id="mqb37a7" class="meterSig">
                     <use xlink:href="#E082-6ydeoz" x="2508" y="1265" height="720px" width="720px" />
                     <use xlink:href="#E084-6ydeoz" x="2513" y="1625" height="720px" width="720px" />
                  </g>
                  <g id="li4do85" class="layer">
                     <g id="b11pmqxa" class="beam">
                        <polygon points="3087,1895 4046,1985 4046,1895 3087,1805" />
                        <polygon points="3660,1814 4046,1850 4046,1760 3660,1724" />
                        <g id="nwlkzt0" class="note">
                           <g class="notehead">
                              <use xlink:href="#E0A4-6ydeoz" x="3087" y="1265" height="720px" width="720px" />
                           </g>
                           <g id="srhpp2v" class="stem">
                              <rect x="3087" y="1293" height="584" width="18" />
                           </g>
                        </g>
                        <g id="n1qbgxkf" class="note">
                           <g class="notehead">
                              <use xlink:href="#E0A4-6ydeoz" x="3651" y="1265" height="720px" width="720px" />
                           </g>
                           <g id="s14z3sut" class="stem">
                              <rect x="3651" y="1293" height="638" width="18" />
                           </g>
                        </g>
                        <g id="nym0hka" class="note">
                           <g class="notehead">
                              <use xlink:href="#E0A4-6ydeoz" x="4028" y="1355" height="720px" width="720px" />
                           </g>
                           <g id="s18rvq5" class="stem">
                              <rect x="4028" y="1383" height="584" width="18" />
                           </g>
                        </g>
                     </g>
                  </g>
               </g>
               <g id="b7id103" class="barLine">
                  <path d="M4404 1085 L4404 1805" stroke="currentColor" stroke-width="27" />
               </g>
            </g>
            <g id="m1vc9742" class="measure">
               <g id="s1yhdamb" class="staff">
                  <path d="M4417 1085 L7439 1085" stroke="currentColor" stroke-width="13" />
                  <path d="M4417 1265 L7439 1265" stroke="currentColor" stroke-width="13" />
                  <path d="M4417 1445 L7439 1445" stroke="currentColor" stroke-width="13" />
                  <path d="M4417 1625 L7439 1625" stroke="currentColor" stroke-width="13" />
                  <path d="M4417 1805 L7439 1805" stroke="currentColor" stroke-width="13" />
                  <g id="l1aimdck" class="layer">
                     <g id="bglocva" class="beam">
                        <polygon points="4603,2120 5562,2120 5562,2030 4603,2030" />
                        <polygon points="5176,1985 5562,1985 5562,1895 5176,1895" />
                        <g id="n1ypmv7b" class="note">
                           <g class="notehead">
                              <use xlink:href="#E0A4-6ydeoz" x="4603" y="1265" height="720px" width="720px" />
                           </g>
                           <g id="s17ctgbc" class="stem">
                              <rect x="4603" y="1293" height="809" width="18" />
                           </g>
                        </g>
                        <g id="nml6y1m" class="note">
                           <g class="notehead">
                              <use xlink:href="#E0A4-6ydeoz" x="5167" y="1535" height="720px" width="720px" />
                           </g>
                           <g id="s1rmn6nc" class="stem">
                              <rect x="5167" y="1563" height="539" width="18" />
                           </g>
                        </g>
                        <g id="n1dzco7t" class="note">
                           <g class="notehead">
                              <use xlink:href="#E0A4-6ydeoz" x="5544" y="1445" height="720px" width="720px" />
                           </g>
                           <g id="sh4x5lq" class="stem">
                              <rect x="5544" y="1473" height="629" width="18" />
                           </g>
                           <g id="a1lfrnen" class="accid" />
                        </g>
                     </g>
                     <g id="b1cyyjw9" class="beam">
                        <polygon points="5920,2075 7068,2120 7068,2030 5920,1985" />
                        <polygon points="5920,1940 6306,1956 6306,1866 5920,1850" />
                        <polygon points="6306,1956 6682,1970 6682,1880 6306,1866" />
                        <polygon points="6682,1970 7068,1985 7068,1895 6682,1880" />
                        <g id="nk8r73c" class="note">
                           <g class="notehead">
                              <use xlink:href="#E0A4-6ydeoz" x="5920" y="1355" height="720px" width="720px" />
                           </g>
                           <g id="s19t0098" class="stem">
                              <rect x="5920" y="1383" height="674" width="18" />
                           </g>
                        </g>
                        <g id="npr55dw" class="note">
                           <g class="notehead">
                              <use xlink:href="#E0A4-6ydeoz" x="6297" y="1265" height="720px" width="720px" />
                           </g>
                           <g id="skumdls" class="stem">
                              <rect x="6297" y="1293" height="780" width="18" />
                           </g>
                        </g>
                        <g id="nykvlt7" class="note">
                           <g class="notehead">
                              <use xlink:href="#E0A4-6ydeoz" x="6673" y="1355" height="720px" width="720px" />
                           </g>
                           <g id="s17fb35s" class="stem">
                              <rect x="6673" y="1383" height="704" width="18" />
                           </g>
                        </g>
                        <g id="nrjwpck" class="note">
                           <g class="notehead">
                              <use xlink:href="#E0A4-6ydeoz" x="7050" y="1445" height="720px" width="720px" />
                           </g>
                           <g id="s1spjumz" class="stem">
                              <rect x="7050" y="1473" height="629" width="18" />
                           </g>
                           <g id="a1sbixd8" class="accid" />
                        </g>
                     </g>
                  </g>
               </g>
               <g id="b9f54un" class="barLine">
                  <path d="M7426 1085 L7426 1805" stroke="currentColor" stroke-width="27" />
               </g>
            </g>
            <g id="ma8bszy" class="measure">
               <g id="ssy7tla" class="staff">
                  <path d="M7439 1085 L10273 1085" stroke="currentColor" stroke-width="13" />
                  <path d="M7439 1265 L10273 1265" stroke="currentColor" stroke-width="13" />
                  <path d="M7439 1445 L10273 1445" stroke="currentColor" stroke-width="13" />
                  <path d="M7439 1625 L10273 1625" stroke="currentColor" stroke-width="13" />
                  <path d="M7439 1805 L10273 1805" stroke="currentColor" stroke-width="13" />
                  <g id="l1ipifvj" class="layer">
                     <g id="bia62p6" class="beam">
                        <polygon points="7833,905 8604,905 8604,995 7833,995" />
                        <polygon points="7833,1040 8218,1040 8218,1130 7833,1130" />
                        <g id="nq3le8c" class="note">
                           <g class="notehead">
                              <use xlink:href="#E0A4-6ydeoz" x="7625" y="1535" height="720px" width="720px" />
                           </g>
                           <g id="s10jlxpy" class="stem">
                              <rect x="7833" y="923" height="584" width="18" />
                           </g>
                        </g>
                        <g id="n1s5mglk" class="note">
                           <g class="notehead">
                              <use xlink:href="#E0A4-6ydeoz" x="8001" y="1625" height="720px" width="720px" />
                           </g>
                           <g id="s1mc762q" class="stem">
                              <rect x="8209" y="923" height="674" width="18" />
                           </g>
                        </g>
                        <g id="nnooh84" class="note">
                           <g class="notehead">
                              <use xlink:href="#E0A4-6ydeoz" x="8378" y="1535" height="720px" width="720px" />
                           </g>
                           <g id="s4d50sm" class="stem">
                              <rect x="8586" y="923" height="584" width="18" />
                           </g>
                        </g>
                     </g>
                     <g id="b1yywvl7" class="beam">
                        <polygon points="8942,1895 9901,1985 9901,1895 8942,1805" />
                        <polygon points="9516,1815 9901,1850 9901,1760 9516,1725" />
                        <g id="nbcc28w" class="note">
                           <g class="notehead">
                              <use xlink:href="#E0A4-6ydeoz" x="8942" y="1265" height="720px" width="720px" />
                           </g>
                           <g id="s1ji4dm9" class="stem">
                              <rect x="8942" y="1293" height="584" width="18" />
                           </g>
                        </g>
                        <g id="n1de5qvm" class="note">
                           <g class="notehead">
                              <use xlink:href="#E0A4-6ydeoz" x="9507" y="1265" height="720px" width="720px" />
                           </g>
                           <g id="s7jdc3f" class="stem">
                              <rect x="9507" y="1293" height="639" width="18" />
                           </g>
                        </g>
                        <g id="nbelkur" class="note">
                           <g class="notehead">
                              <use xlink:href="#E0A4-6ydeoz" x="9883" y="1355" height="720px" width="720px" />
                           </g>
                           <g id="s1s7mwde" class="stem">
                              <rect x="9883" y="1383" height="584" width="18" />
                           </g>
                        </g>
                     </g>
                  </g>
               </g>
               <g id="b1krt98t" class="barLine">
                  <path d="M10260 1085 L10260 1805" stroke="currentColor" stroke-width="27" />
               </g>
            </g>
            <g id="m3r2b39" class="measure">
               <g id="sddbovp" class="staff">
                  <path d="M10273 1085 L13295 1085" stroke="currentColor" stroke-width="13" />
                  <path d="M10273 1265 L13295 1265" stroke="currentColor" stroke-width="13" />
                  <path d="M10273 1445 L13295 1445" stroke="currentColor" stroke-width="13" />
                  <path d="M10273 1625 L13295 1625" stroke="currentColor" stroke-width="13" />
                  <path d="M10273 1805 L13295 1805" stroke="currentColor" stroke-width="13" />
                  <g id="liyf7vp" class="layer">
                     <g id="bfup081" class="beam">
                        <polygon points="10459,2120 11418,2120 11418,2030 10459,2030" />
                        <polygon points="11032,1985 11418,1985 11418,1895 11032,1895" />
                        <g id="n17wbq10" class="note">
                           <g class="notehead">
                              <use xlink:href="#E0A4-6ydeoz" x="10459" y="1265" height="720px" width="720px" />
                           </g>
                           <g id="s1o0mcjf" class="stem">
                              <rect x="10459" y="1293" height="809" width="18" />
                           </g>
                        </g>
                        <g id="n1g8vmnn" class="note">
                           <g class="notehead">
                              <use xlink:href="#E0A4-6ydeoz" x="11023" y="1535" height="720px" width="720px" />
                           </g>
                           <g id="sbvkbk9" class="stem">
                              <rect x="11023" y="1563" height="539" width="18" />
                           </g>
                        </g>
                        <g id="n1nmtnun" class="note">
                           <g class="notehead">
                              <use xlink:href="#E0A4-6ydeoz" x="11400" y="1445" height="720px" width="720px" />
                           </g>
                           <g id="s13lu2s2" class="stem">
                              <rect x="11400" y="1473" height="629" width="18" />
                           </g>
                           <g id="a98x7p7" class="accid" />
                        </g>
                     </g>
                     <g id="b3872m7" class="beam">
                        <polygon points="11776,2075 12924,2120 12924,2030 11776,1985" />
                        <polygon points="11776,1940 12162,1956 12162,1866 11776,1850" />
                        <polygon points="12162,1956 12538,1970 12538,1880 12162,1866" />
                        <polygon points="12538,1970 12924,1985 12924,1895 12538,1880" />
                        <g id="n12nvi5j" class="note">
                           <g class="notehead">
                              <use xlink:href="#E0A4-6ydeoz" x="11776" y="1355" height="720px" width="720px" />
                           </g>
                           <g id="se47exz" class="stem">
                              <rect x="11776" y="1383" height="674" width="18" />
                           </g>
                        </g>
                        <g id="nnls3fg" class="note">
                           <g class="notehead">
                              <use xlink:href="#E0A4-6ydeoz" x="12153" y="1265" height="720px" width="720px" />
                           </g>
                           <g id="s1hrqvzm" class="stem">
                              <rect x="12153" y="1293" height="780" width="18" />
                           </g>
                        </g>
                        <g id="nymuffc" class="note">
                           <g class="notehead">
                              <use xlink:href="#E0A4-6ydeoz" x="12529" y="1355" height="720px" width="720px" />
                           </g>
                           <g id="srmb44f" class="stem">
                              <rect x="12529" y="1383" height="704" width="18" />
                           </g>
                        </g>
                        <g id="n1op3sq9" class="note">
                           <g class="notehead">
                              <use xlink:href="#E0A4-6ydeoz" x="12906" y="1445" height="720px" width="720px" />
                           </g>
                           <g id="sr4keem" class="stem">
                              <rect x="12906" y="1473" height="629" width="18" />
                           </g>
                           <g id="a1c4t303" class="accid" />
                        </g>
                     </g>
                  </g>
               </g>
               <g id="b1ms7hq8" class="barLine">
                  <path d="M13282 1085 L13282 1805" stroke="currentColor" stroke-width="27" />
               </g>
            </g>
            <g id="m1lzd1u2" class="measure">
               <g id="s1c5zp91" class="staff">
                  <path d="M13295 1085 L15184 1085" stroke="currentColor" stroke-width="13" />
                  <path d="M13295 1265 L15184 1265" stroke="currentColor" stroke-width="13" />
                  <path d="M13295 1445 L15184 1445" stroke="currentColor" stroke-width="13" />
                  <path d="M13295 1625 L15184 1625" stroke="currentColor" stroke-width="13" />
                  <path d="M13295 1805 L15184 1805" stroke="currentColor" stroke-width="13" />
                  <g id="mqn7o6k" class="meterSig">
                     <use xlink:href="#E081-6ydeoz" x="13404" y="1265" height="720px" width="720px" />
                     <use xlink:href="#E084-6ydeoz" x="13371" y="1625" height="720px" width="720px" />
                  </g>
                  <g id="l1ruy34l" class="layer">
                     <g id="n3cu2bh" class="note">
                        <g class="notehead">
                           <use xlink:href="#E0A4-6ydeoz" x="13939" y="1535" height="720px" width="720px" />
                        </g>
                        <g id="skxvh3d" class="stem">
                           <rect x="14147" y="905" height="602" width="18" />
                        </g>
                     </g>
                  </g>
               </g>
               <g id="bqu24je" class="barLine">
                  <path d="M14806 1085 L14806 1805" stroke="currentColor" stroke-width="27" />
                  <path d="M14936 1085 L14936 1805" stroke="currentColor" stroke-width="90" />
                  <path d="M15067 1085 L15067 1805" stroke="currentColor" stroke-width="27" />
                  <use xlink:href="#E044-6ydeoz" x="15112" y="1355" height="720px" width="720px" />
                  <use xlink:href="#E044-6ydeoz" x="15112" y="1535" height="720px" width="720px" />
                  <use xlink:href="#E044-6ydeoz" x="14689" y="1355" height="720px" width="720px" />
                  <use xlink:href="#E044-6ydeoz" x="14689" y="1535" height="720px" width="720px" />
               </g>
            </g>
            <g id="m12d1p0o" class="measure">
               <g id="s1drhu6u" class="staff">
                  <path d="M15184 1085 L16700 1085" stroke="currentColor" stroke-width="13" />
                  <path d="M15184 1265 L16700 1265" stroke="currentColor" stroke-width="13" />
                  <path d="M15184 1445 L16700 1445" stroke="currentColor" stroke-width="13" />
                  <path d="M15184 1625 L16700 1625" stroke="currentColor" stroke-width="13" />
                  <path d="M15184 1805 L16700 1805" stroke="currentColor" stroke-width="13" />
                  <g id="l11hblvt" class="layer">
                     <g id="bej0vve" class="beam">
                        <polygon points="15578,995 16537,815 16537,905 15578,1085" />
                        <polygon points="16151,1023 16537,950 16537,1040 16151,1113" />
                        <g id="ngzdypu" class="note">
                           <g class="notehead">
                              <use xlink:href="#E0A4-6ydeoz" x="15370" y="1625" height="720px" width="720px" />
                           </g>
                           <g id="sqf2ib" class="stem">
                              <rect x="15578" y="1013" height="584" width="18" />
                           </g>
                        </g>
                        <g id="n1ovlzc0" class="note">
                           <g class="notehead">
                              <use xlink:href="#E0A4-6ydeoz" x="15934" y="1535" height="720px" width="720px" />
                           </g>
                           <g id="s1yxvelu" class="stem">
                              <rect x="16142" y="906" height="601" width="18" />
                           </g>
                        </g>
                        <g id="nopcwl" class="note">
                           <g class="notehead">
                              <use xlink:href="#E0A4-6ydeoz" x="16311" y="1445" height="720px" width="720px" />
                           </g>
                           <g id="st6if0f" class="stem">
                              <rect x="16519" y="833" height="584" width="18" />
                           </g>
                           <g id="a1ibnak4" class="accid" />
                        </g>
                     </g>
                  </g>
               </g>
               <g id="b16x7w6w" class="barLine">
                  <path d="M16687 1085 L16687 1805" stroke="currentColor" stroke-width="27" />
               </g>
            </g>
            <g id="mk42u8b" class="measure">
               <g id="s4hr4g7" class="staff">
                  <path d="M16700 1085 L20003 1085" stroke="currentColor" stroke-width="13" />
                  <path d="M16700 1265 L20003 1265" stroke="currentColor" stroke-width="13" />
                  <path d="M16700 1445 L20003 1445" stroke="currentColor" stroke-width="13" />
                  <path d="M16700 1625 L20003 1625" stroke="currentColor" stroke-width="13" />
                  <path d="M16700 1805 L20003 1805" stroke="currentColor" stroke-width="13" />
                  <g id="mtkkzgg" class="meterSig">
                     <use xlink:href="#E082-6ydeoz" x="16776" y="1265" height="720px" width="720px" />
                     <use xlink:href="#E084-6ydeoz" x="16781" y="1625" height="720px" width="720px" />
                  </g>
                  <g id="litz8xh" class="layer">
                     <g id="b170ky06" class="beam">
                        <polygon points="17355,2075 17937,1895 17937,1805 17355,1985" />
                        <g id="n94o4q5" class="note">
                           <g class="notehead">
                              <use xlink:href="#E0A4-6ydeoz" x="17355" y="1535" height="720px" width="720px" />
                           </g>
                           <g id="s813wi8" class="stem">
                              <rect x="17355" y="1563" height="494" width="18" />
                           </g>
                        </g>
                        <g id="n117n4rn" class="note">
                           <g class="notehead">
                              <use xlink:href="#E0A4-6ydeoz" x="17919" y="1265" height="720px" width="720px" />
                           </g>
                           <g id="sjg5f2j" class="stem">
                              <rect x="17919" y="1293" height="584" width="18" />
                           </g>
                        </g>
                     </g>
                     <g id="bypo537" class="beam">
                        <polygon points="18484,2120 19631,2120 19631,2030 18484,2030" />
                        <polygon points="18484,1985 18870,1985 18870,1895 18484,1895" />
                        <polygon points="18870,1985 19246,1985 19246,1895 18870,1895" />
                        <polygon points="19246,1985 19631,1985 19631,1895 19246,1895" />
                        <g id="n13pw5io" class="note">
                           <g class="notehead">
                              <use xlink:href="#E0A4-6ydeoz" x="18484" y="1355" height="720px" width="720px" />
                           </g>
                           <g id="s1liyzv6" class="stem">
                              <rect x="18484" y="1383" height="719" width="18" />
                           </g>
                        </g>
                        <g id="n1xq80jd" class="note">
                           <g class="notehead">
                              <use xlink:href="#E0A4-6ydeoz" x="18861" y="1445" height="720px" width="720px" />
                           </g>
                           <g id="sirqdhm" class="stem">
                              <rect x="18861" y="1473" height="629" width="18" />
                           </g>
                           <g id="a1pbkb6i" class="accid" />
                        </g>
                        <g id="na47t9k" class="note">
                           <g class="notehead">
                              <use xlink:href="#E0A4-6ydeoz" x="19237" y="1535" height="720px" width="720px" />
                           </g>
                           <g id="s1o7d00c" class="stem">
                              <rect x="19237" y="1563" height="539" width="18" />
                           </g>
                        </g>
                        <g id="nxoc91g" class="note">
                           <g class="notehead">
                              <use xlink:href="#E0A4-6ydeoz" x="19613" y="1445" height="720px" width="720px" />
                           </g>
                           <g id="sbj1ykd" class="stem">
                              <rect x="19613" y="1473" height="629" width="18" />
                           </g>
                           <g id="a8q8asg" class="accid" />
                        </g>
                     </g>
                  </g>
               </g>
               <g id="b1r1mijg" class="barLine">
                  <path d="M19990 1085 L19990 1805" stroke="currentColor" stroke-width="27" />
               </g>
            </g>
            <g id="s1t69tjr" class="sb" />
         </g>
         <g id="s1r9xsdm" class="system">
            <g id="l13duyr7" class="labelAbbr">
               <text x="914" y="3830" text-anchor="end" font-size="0px">
                  <tspan id="t1emnw2" class="text">
                     <tspan font-size="405px" class="text">Pno.</tspan>
                  </tspan>
               </text>
            </g>
            <g id="mioio8u" class="measure">
               <g id="m185i3ac" class="mNum autogenerated">
                  <text x="1094" y="3137" text-anchor="middle" font-size="0px">
                     <tspan id="tigopav" class="text">
                        <tspan font-size="324px" class="text">7</tspan>
                     </tspan>
                  </text>
               </g>
               <g id="s5ik4f4" class="staff">
                  <path d="M1094 3380 L4996 3380" stroke="currentColor" stroke-width="13" />
                  <path d="M1094 3560 L4996 3560" stroke="currentColor" stroke-width="13" />
                  <path d="M1094 3740 L4996 3740" stroke="currentColor" stroke-width="13" />
                  <path d="M1094 3920 L4996 3920" stroke="currentColor" stroke-width="13" />
                  <path d="M1094 4100 L4996 4100" stroke="currentColor" stroke-width="13" />
                  <g id="cogxuit" class="clef">
                     <use xlink:href="#E050-6ydeoz" x="1184" y="3920" height="720px" width="720px" />
                  </g>
                  <g id="k32c171" class="keySig">
                     <g id="k1cwk793" class="keyAccid">
                        <use xlink:href="#E260-6ydeoz" x="1829" y="3740" height="720px" width="720px" />
                     </g>
                     <g id="k5sgiyo" class="keyAccid">
                        <use xlink:href="#E260-6ydeoz" x="2009" y="3470" height="720px" width="720px" />
                     </g>
                  </g>
                  <g id="lx3qycu" class="layer">
                     <g id="b1v1vwaw" class="beam">
                        <polygon points="2629,3200 3379,3200 3379,3290 2629,3290" />
                        <polygon points="2629,3335 3004,3335 3004,3425 2629,3425" />
                        <g id="n1ar2n5y" class="note">
                           <g class="notehead">
                              <use xlink:href="#E0A4-6ydeoz" x="2421" y="3920" height="720px" width="720px" />
                           </g>
                           <g id="sqx7tlo" class="stem">
                              <rect x="2629" y="3218" height="674" width="18" />
                           </g>
                        </g>
                        <g id="n1s14sou" class="note">
                           <g class="notehead">
                              <use xlink:href="#E0A4-6ydeoz" x="2787" y="3830" height="720px" width="720px" />
                           </g>
                           <g id="s1sbz52x" class="stem">
                              <rect x="2995" y="3218" height="584" width="18" />
                           </g>
                        </g>
                        <g id="npnuurz" class="note">
                           <g class="notehead">
                              <use xlink:href="#E0A4-6ydeoz" x="3153" y="4010" height="720px" width="720px" />
                           </g>
                           <g id="suens8s" class="stem">
                              <rect x="3361" y="3218" height="764" width="18" />
                           </g>
                        </g>
                     </g>
                     <g id="b1xks5rd" class="beam">
                        <polygon points="3910,3290 4843,3110 4843,3200 3910,3380" />
                        <polygon points="4468,3317 4843,3245 4843,3335 4468,3407" />
                        <g id="nviu5od" class="note">
                           <g class="notehead">
                              <use xlink:href="#E0A4-6ydeoz" x="3702" y="3920" height="720px" width="720px" />
                           </g>
                           <g id="s5969s9" class="stem">
                              <rect x="3910" y="3308" height="584" width="18" />
                           </g>
                        </g>
                        <g id="n1nsvke0" class="note">
                           <g class="notehead">
                              <use xlink:href="#E0A4-6ydeoz" x="4251" y="3830" height="720px" width="720px" />
                           </g>
                           <g id="s1f2wv4k" class="stem">
                              <rect x="4459" y="3200" height="602" width="18" />
                           </g>
                        </g>
                        <g id="nm9ja9m" class="note">
                           <g class="notehead">
                              <use xlink:href="#E0A4-6ydeoz" x="4617" y="3740" height="720px" width="720px" />
                           </g>
                           <g id="s1tckn39" class="stem">
                              <rect x="4825" y="3128" height="584" width="18" />
                           </g>
                           <g id="aa5f8l7" class="accid" />
                        </g>
                     </g>
                  </g>
               </g>
               <g id="b1p9bbag" class="barLine">
                  <path d="M4983 3380 L4983 4100" stroke="currentColor" stroke-width="27" />
               </g>
            </g>
            <g id="mo9giux" class="measure">
               <g id="s1shuddt" class="staff">
                  <path d="M4996 3380 L7751 3380" stroke="currentColor" stroke-width="13" />
                  <path d="M4996 3560 L7751 3560" stroke="currentColor" stroke-width="13" />
                  <path d="M4996 3740 L7751 3740" stroke="currentColor" stroke-width="13" />
                  <path d="M4996 3920 L7751 3920" stroke="currentColor" stroke-width="13" />
                  <path d="M4996 4100 L7751 4100" stroke="currentColor" stroke-width="13" />
                  <g id="ljs8i47" class="layer">
                     <g id="b1okwoqv" class="beam">
                        <polygon points="5176,4370 5743,4190 5743,4100 5176,4280" />
                        <g id="n1rmq5av" class="note">
                           <g class="notehead">
                              <use xlink:href="#E0A4-6ydeoz" x="5176" y="3830" height="720px" width="720px" />
                           </g>
                           <g id="s101veeo" class="stem">
                              <rect x="5176" y="3858" height="494" width="18" />
                           </g>
                        </g>
                        <g id="n13jzyy7" class="note">
                           <g class="notehead">
                              <use xlink:href="#E0A4-6ydeoz" x="5725" y="3560" height="720px" width="720px" />
                           </g>
                           <g id="sqw3h9q" class="stem">
                              <rect x="5725" y="3588" height="584" width="18" />
                           </g>
                        </g>
                     </g>
                     <g id="b4mk15k" class="beam">
                        <polygon points="6274,4415 7390,4415 7390,4325 6274,4325" />
                        <polygon points="6274,4280 6649,4280 6649,4190 6274,4190" />
                        <polygon points="6649,4280 7015,4280 7015,4190 6649,4190" />
                        <polygon points="7015,4280 7390,4280 7390,4190 7015,4190" />
                        <g id="nmp1g8s" class="note">
                           <g class="notehead">
                              <use xlink:href="#E0A4-6ydeoz" x="6274" y="3650" height="720px" width="720px" />
                           </g>
                           <g id="s1wc3npj" class="stem">
                              <rect x="6274" y="3678" height="719" width="18" />
                           </g>
                        </g>
                        <g id="n1bl3zmv" class="note">
                           <g class="notehead">
                              <use xlink:href="#E0A4-6ydeoz" x="6640" y="3740" height="720px" width="720px" />
                           </g>
                           <g id="s1g2n1gn" class="stem">
                              <rect x="6640" y="3768" height="629" width="18" />
                           </g>
                           <g id="a1w70ecd" class="accid" />
                        </g>
                        <g id="nzp37a5" class="note">
                           <g class="notehead">
                              <use xlink:href="#E0A4-6ydeoz" x="7006" y="3830" height="720px" width="720px" />
                           </g>
                           <g id="sirtc86" class="stem">
                              <rect x="7006" y="3858" height="539" width="18" />
                           </g>
                        </g>
                        <g id="n7pj8q0" class="note">
                           <g class="notehead">
                              <use xlink:href="#E0A4-6ydeoz" x="7372" y="3740" height="720px" width="720px" />
                           </g>
                           <g id="s931j62" class="stem">
                              <rect x="7372" y="3768" height="629" width="18" />
                           </g>
                           <g id="a1ojpwty" class="accid" />
                        </g>
                     </g>
                  </g>
               </g>
               <g id="b8pd98u" class="barLine">
                  <path d="M7738 3380 L7738 4100" stroke="currentColor" stroke-width="27" />
               </g>
            </g>
            <g id="m1w9uqhg" class="measure">
               <g id="s5ldss5" class="staff">
                  <path d="M7751 3380 L9407 3380" stroke="currentColor" stroke-width="13" />
                  <path d="M7751 3560 L9407 3560" stroke="currentColor" stroke-width="13" />
                  <path d="M7751 3740 L9407 3740" stroke="currentColor" stroke-width="13" />
                  <path d="M7751 3920 L9407 3920" stroke="currentColor" stroke-width="13" />
                  <path d="M7751 4100 L9407 4100" stroke="currentColor" stroke-width="13" />
                  <g id="m1610jws" class="meterSig">
                     <use xlink:href="#E081-6ydeoz" x="7860" y="3560" height="720px" width="720px" />
                     <use xlink:href="#E084-6ydeoz" x="7827" y="3920" height="720px" width="720px" />
                  </g>
                  <g id="l1xg1j11" class="layer">
                     <g id="n2kzcul" class="note">
                        <g class="notehead">
                           <use xlink:href="#E0A4-6ydeoz" x="8389" y="3920" height="720px" width="720px" />
                        </g>
                        <g id="sjv9x94" class="stem">
                           <rect x="8597" y="3290" height="602" width="18" />
                        </g>
                     </g>
                  </g>
               </g>
               <g id="b3cmkec" class="barLine">
                  <path d="M9232 3380 L9232 4100" stroke="currentColor" stroke-width="27" />
                  <path d="M9362 3380 L9362 4100" stroke="currentColor" stroke-width="90" />
               </g>
            </g>
            <g id="s1685nyq" class="systemMilestoneEnd s117haao" />
         </g>
         <g id="p15jvoi3" class="pageMilestoneEnd s1ypoh8u" />
         <g id="p1j3f9od" class="pageMilestoneEnd m1x2fqtj" />
         <g id="pk0jyu5" class="pgHead">
            <text x="0" y="0" font-size="0px">
               <tspan id="ri5qznq" class="rend" x="10000" y="277" text-anchor="middle">
                  <tspan id="t1cevfcn" class="text">
                     <tspan font-size="405px" class="text">Air n 210</tspan>
                  </tspan>
               </tspan>
            </text>
         </g>
         <g id="puqm3ey" class="pgFoot autogenerated">
            <g id="f65b4dz" class="fig">
               <g id="sdq2jg5" class="svg" transform="translate(7750, 28099) scale(10, 10)">
                  <g>
                     <path fill="#00000" d="M 17.11278,49.26451 V 10.367554 h 12.696511 c 3.288815,7.336676 6.71267,14.610456 10.127281,21.888976 3.419998,-7.484684 6.255515,-14.204887 9.58887,-21.909915 2.436207,0.103726 4.316952,0.08453 6.484294,-0.05808 V 49.264423 H 50.274275 C 50.145222,38.35639 50.016136,27.448368 49.887066,16.540329 45.003488,27.315459 39.967448,38.433564 35.083854,49.208695 34.678996,49.343717 34.426583,49.135619 34.021726,49.270644 29.46588,39.330716 24.910049,29.390805 20.354201,19.450876 20.224341,29.388756 20.09461,39.326619 19.964815,49.264497 H 17.11278 Z M 36.754144,39.324695 C 32.721221,30.512695 28.6883,21.700679 24.655394,12.888662 22.530527,12.750737 22.656775,12.71031 20.714356,12.813974 v 0.966497 c 4.612938,9.99784 9.609439,20.748709 13.87298,30.081745 0.722248,-1.512523 1.444528,-3.025014 2.166808,-4.537521 z m 25.738417,9.939815 c 0,-12.965651 0,-25.931305 0,-38.896956 10.084388,0 20.168791,0 30.253178,0 0,0.960416 0,1.920849 0,2.881265 -6.482825,0 -12.965652,0 -19.448478,0 0,4.802097 0,9.604178 0,14.406277 5.52241,0 11.044819,0 16.567229,0 0,0.960415 0,1.920832 0,2.881248 -5.52241,0 -11.044819,0 -16.567229,0 0,5.282306 0,10.564611 0,15.846917 6.963035,0 13.926068,0 20.889103,0 0,0.960416 0,1.920832 0,2.881249 -10.564597,0 -21.129207,0 -31.693803,0 z m 4.321874,-2.160937 c 0,-11.765131 0,-23.530263 0,-35.295394 -0.720312,0 -1.440625,0 -2.160937,0 0,11.765131 0,23.530263 0,35.295394 0.720312,0 1.440625,0 2.160937,0 z m 32.41413,2.160937 c 0,-12.965651 0,-25.931305 0,-38.896956 2.401045,0 4.802095,0 7.203135,0 0,12.965651 0,25.931305 0,38.896956 -2.40104,0 -4.80209,0 -7.203135,0 z m 2.881265,-2.160937 c 0,-11.765131 0,-23.530263 0,-35.295394 -0.72031,0 -1.44064,0 -2.160953,0 0,11.765131 0,23.530263 0,35.295394 0.720313,0 1.440643,0 2.160953,0 z" />
                     <path fill="#00000" d="m 346.3,6.7 c -3.1,0.5 -4.9,4.4 -2.7,6.8 1.2,1.4 2.7,2.4 4.1,3.5 -2.4,5.3 -7.7,8.3 -11.9,12.1 -3.7,2.8 -7,6.2 -9.7,9.9 -2.2,-0.8 -0.3,-6.8 -0.6,-9.5 0.1,-3.1 0.7,-6.4 2.9,-8.7 1.3,-1.9 3,-3.5 4.5,-5.2 1.2,-3.4 -3.2,-4.9 -5.8,-4.6 -7.3,-0.5 -14.6,2 -20,6.8 -5,4.6 -10,10.1 -11.5,17 -0.9,3.5 -0.2,7.5 2.8,9.9 2.5,2.8 7.4,2.9 9.8,-0.2 1.7,-2.3 3.2,-4.8 3.8,-7.6 -0.1,-2.6 -4.4,-2.3 -4.3,0.2 1.2,2.4 -0.9,4.7 -2.7,6.2 -1.7,0.9 -4.7,0.7 -4.8,-1.7 -1,-5.8 2.1,-11.3 5.2,-16.1 4,-5.8 9.8,-11.2 17.2,-11.8 1.6,0 8.1,-1.2 6.8,1.4 -2.8,2.8 -5.6,6.1 -6,10.3 -1.6,7.7 0.1,15.7 -2.3,23.2 -1.1,3.9 2,2.6 2.5,0.2 3.3,-7.4 8.9,-13.4 15.1,-18.5 4.2,-3.9 9.5,-7.1 11.9,-12.6 1.3,-3.6 1.2,-9 -2.7,-10.9 -0.6,-0.2 -1.2,-0.3 -1.8,-0.3 z m 66,14.5 c -2,0.8 -1.8,4.9 0.8,4.4 3.4,0.4 2.9,-6.2 -0.8,-4.4 z m 0.6,7.3 c -1.3,0.5 -7.6,0.5 -5.4,2.2 4,-0.3 0.7,4.5 0.6,6.7 -0.4,2.9 -2.4,5.9 -1.2,8.8 2.7,1.7 5.6,-0.8 6.8,-3.2 1.6,-1.4 -0.5,-3 -1.2,-0.9 -0.4,0.8 -2.4,3.5 -2.6,1.8 1.1,-5 2.7,-9.9 3.9,-14.9 l -0.1,-0.5 h -0.9 z m -65.1,0.2 c -6.5,1.6 -10.5,9.5 -8.2,15.7 2.1,3.4 7.4,2.9 10.1,0.4 2,-0.2 3.6,-5.3 1,-3.4 -1.4,2 -4,4.2 -6.5,2.8 -2.2,-1.9 -1.9,-5.7 1.7,-5.3 3.1,-0.9 6.9,-2.1 8.1,-5.5 0.9,-2.7 -1.6,-5.2 -4.3,-4.8 h -1.1 -0.7 z m 13.6,0 c -2.2,0 -8.5,1.8 -2.9,2.3 0.9,1.9 -1,4.9 -1.1,7.2 -0.5,2.9 -1.4,5.7 -1.7,8.7 3.7,0.7 3.8,-2.6 4.4,-5.3 0.9,-3.3 1.6,-7 4.1,-9.5 2.4,1.6 6.8,-0.7 3.7,-3.4 -2.9,-0.5 -4.8,2.4 -6.2,4.3 0,-1.2 2.4,-5 -0.2,-4.3 z m 15.8,0 c -6.4,1.3 -9.6,9.1 -7.7,14.9 1.9,4 7.7,3.9 11,1.7 4.1,-3 6,-8.9 4.4,-13.7 -1.3,-3 -4.8,-3.2 -7.6,-3 z m 17,0 c -2.3,0 -8.8,1.9 -3,2.4 0.4,2.5 -1,5.7 -1.4,8.4 -0.7,2.4 -1.8,7.5 2.1,7.2 3.8,-0.1 6.5,-3.5 8.5,-6.3 2,-3.2 4.5,-7 3.3,-10.9 -3.7,-3 -3.6,2.6 -3.1,5.1 -0.7,3.8 -2.7,7.9 -6.2,9.8 -3.6,0.6 -1,-4.3 -0.8,-6.1 0.6,-3.2 1.6,-6.3 1.9,-9.5 -0.4,0 -0.8,0 -1.1,0 z m 30.6,0 c -6.3,1.2 -9.5,8.9 -7.8,14.7 1.5,4 7.2,4.2 10.5,2.4 4.6,-2.8 6.6,-9.3 4.8,-14.3 -1.4,-2.8 -4.8,-3 -7.5,-2.8 z m -75.4,1.7 c 2.1,1.5 0.2,4.7 -1.6,5.7 -1.1,0.4 -5.5,3.4 -4.6,0.7 0.8,-2.7 2.2,-6.2 5.3,-6.6 l 0.9,0.1 z m 30.8,0 c 2.6,1.5 1.3,5.2 0.8,7.6 -0.8,2.7 -1.9,5.9 -4.7,7.1 -5.1,0.8 -4,-5.8 -2.8,-8.8 1,-2.8 3,-6.8 6.7,-5.8 z m 47.1,-0.1 c 2.9,0.7 2,4.7 1.5,6.8 -0.7,3 -1.8,6.7 -5,8 -4.7,0.8 -4,-5.1 -3,-7.9 0.9,-3 2.7,-7.3 6.5,-6.8 z m -88.1,5.9 c -0.3,1.3 0.9,-0.6 0,0 z m -1.1,2.4 c -0.2,0.5 0.5,-0.1 0,0 z m -1.3,4.5 c -0.3,1.3 0.8,-0.2 0,0 z" />
                     <text y="41" x="201" fill="#00000" style="font-style:italic;font-weight:normal;font-size:30px;line-height:125%;font-family:Times;text-anchor:middle" xml:space="preserve">engraved with</text>
                  </g>
               </g>
            </g>
         </g>
      </g>
   </svg>
</svg>
