<?xml version="1.0" encoding="UTF-8" standalone="no"?>
<svg width="2100px" height="2970px" version="1.1" xmlns="http://www.w3.org/2000/svg" xmlns:xlink="http://www.w3.org/1999/xlink" xmlns:mei="http://www.music-encoding.org/ns/mei" overflow="visible">
   <desc>Engraved by Verovio 3.13.1</desc>
   <defs>
      <symbol id="E260-z0bb3" viewBox="0 0 1000 1000" overflow="inherit">
         <path transform="scale(1,-1)" d="M20 110c32 16 54 27 93 27c26 0 35 -3 54 -13c13 -7 24 -20 27 -38l4 -25c0 -28 -16 -57 -45 -89c-23 -25 -39 -44 -65 -68l-88 -79v644h20v-359zM90 106c-32 0 -48 -10 -70 -29v-194c31 31 54 59 71 84c21 32 32 59 32 84c0 9 1 16 1 20c0 14 -3 21 -11 30l-8 3z" />
      </symbol>
      <symbol id="E044-z0bb3" viewBox="0 0 1000 1000" overflow="inherit">
         <path transform="scale(1,-1)" d="M0 0c0 28 22 50 50 50s50 -22 50 -50s-22 -50 -50 -50s-50 22 -50 50z" />
      </symbol>
      <symbol id="E050-z0bb3" viewBox="0 0 1000 1000" overflow="inherit">
         <path transform="scale(1,-1)" d="M441 -245c-23 -4 -48 -6 -76 -6c-59 0 -102 7 -130 20c-88 42 -150 93 -187 154c-26 44 -43 103 -48 176c0 6 -1 13 -1 19c0 54 15 111 45 170c29 57 65 106 110 148s96 85 153 127c-3 16 -8 46 -13 92c-4 43 -5 73 -5 89c0 117 16 172 69 257c34 54 64 82 89 82 c21 0 43 -30 69 -92s39 -115 41 -159v-15c0 -109 -21 -162 -67 -241c-13 -20 -63 -90 -98 -118c-13 -9 -25 -19 -37 -29l31 -181c8 1 18 2 28 2c58 0 102 -12 133 -35c59 -43 92 -104 98 -184c1 -7 1 -15 1 -22c0 -123 -87 -209 -181 -248c8 -57 17 -110 25 -162 c5 -31 6 -58 6 -80c0 -30 -5 -53 -14 -70c-35 -64 -88 -99 -158 -103c-5 0 -11 -1 -16 -1c-37 0 -72 10 -108 27c-50 24 -77 59 -80 105v11c0 29 7 55 20 76c18 28 45 42 79 44h6c49 0 93 -42 97 -87v-9c0 -51 -34 -86 -105 -106c17 -24 51 -36 102 -36c62 0 116 43 140 85 c9 16 13 41 13 74c0 20 -1 42 -5 67c-8 53 -18 106 -26 159zM461 939c-95 0 -135 -175 -135 -286c0 -24 2 -48 5 -71c50 39 92 82 127 128c40 53 60 100 60 140v8c-4 53 -22 81 -55 81h-2zM406 119l54 -326c73 25 110 78 110 161c0 7 0 15 -1 23c-7 95 -57 142 -151 142h-12 zM382 117c-72 -2 -128 -47 -128 -120v-7c2 -46 43 -99 75 -115c-3 -2 -7 -5 -10 -10c-70 33 -116 88 -123 172v11c0 68 44 126 88 159c23 17 49 29 78 36l-29 170c-21 -13 -52 -37 -92 -73c-50 -44 -86 -84 -109 -119c-45 -69 -67 -130 -67 -182v-13c5 -68 35 -127 93 -176 s125 -73 203 -73c25 0 50 3 75 9c-19 111 -36 221 -54 331z" />
      </symbol>
      <symbol id="E082-z0bb3" viewBox="0 0 1000 1000" overflow="inherit">
         <path transform="scale(1,-1)" d="M124 -185c-18 0 -55 -14 -65 -65h-36l-3 30c0 25 6 45 18 63c11 19 22 30 39 43l121 82l37 29c15 11 27 29 38 54c12 24 18 47 18 70c0 40 -19 88 -94 88c-25 0 -32 0 -50 -8c-14 -5 -23 -12 -26 -22c3 -9 7 -15 10 -18l24 -17c12 -7 17 -11 27 -21c5 -7 7 -16 7 -27 c0 -12 0 -57 -79 -74c-30 0 -76 26 -76 94c0 66 81 135 197 135c72 0 181 -32 181 -150c0 -53 -32 -95 -113 -133l-91 -41c-26 -11 -45 -23 -57 -37l49 7c84 0 115 -41 148 -41c20 0 33 20 39 61h35c0 -152 -68 -168 -114 -168c-17 0 -65 0 -79 7h10l-28 17 c-49 37 -69 40 -87 42z" />
      </symbol>
      <symbol id="E084-z0bb3" viewBox="0 0 1000 1000" overflow="inherit">
         <path transform="scale(1,-1)" d="M20 -78c84 97 114 180 134 329h170c-13 -32 -82 -132 -99 -151l-84 -97c-33 -36 -59 -63 -80 -81h162v102l127 123v-225h57v-39h-57v-34c0 -43 19 -65 57 -65v-34h-244v36c48 0 60 26 60 70v27h-203v39z" />
      </symbol>
      <symbol id="E0A4-z0bb3" viewBox="0 0 1000 1000" overflow="inherit">
         <path transform="scale(1,-1)" d="M0 -39c0 68 73 172 200 172c66 0 114 -37 114 -95c0 -84 -106 -171 -218 -171c-64 0 -96 30 -96 94z" />
      </symbol>
   </defs>
   <style type="text/css">g.page-margin{font-family:Times;} g.ending, g.fing, g.reh, g.tempo{font-weight:bold;} g.dir, g.dynam, g.mNum{font-style:italic;} g.label{font-weight:normal;}</style>
   <svg class="definition-scale" color="black" viewBox="0 0 21000 29700">
      <g class="page-margin" transform="translate(500, 500)">
         <g id="m1nom8r0" class="mdiv pageMilestone" />
         <g id="s1yxaizh" class="score pageMilestone" />
         <g id="s1d1fv15" class="system">
            <g id="leatdbj" class="label">
               <text x="1105" y="1535" text-anchor="end" font-size="0px">
                  <tspan id="t12h567t" class="text">
                     <tspan font-size="405px" class="text">Piano</tspan>
                  </tspan>
               </text>
            </g>
            <g id="s4bagnc" class="section systemMilestone" />
            <g id="p6x3rnc" class="pb" />
            <g id="m1hd4u8y" class="measure">
               <g id="sw6cv3o" class="staff">
                  <path d="M1285 1085 L5472 1085" stroke="currentColor" stroke-width="13" />
                  <path d="M1285 1265 L5472 1265" stroke="currentColor" stroke-width="13" />
                  <path d="M1285 1445 L5472 1445" stroke="currentColor" stroke-width="13" />
                  <path d="M1285 1625 L5472 1625" stroke="currentColor" stroke-width="13" />
                  <path d="M1285 1805 L5472 1805" stroke="currentColor" stroke-width="13" />
                  <g id="ch8rpc1" class="clef">
                     <use xlink:href="#E050-z0bb3" x="1375" y="1625" height="720px" width="720px" />
                  </g>
                  <g id="k1xylg60" class="keySig">
                     <g id="k1x52ohd" class="keyAccid">
                        <use xlink:href="#E260-z0bb3" x="2020" y="1445" height="720px" width="720px" />
                     </g>
                     <g id="k3rnzdf" class="keyAccid">
                        <use xlink:href="#E260-z0bb3" x="2200" y="1175" height="720px" width="720px" />
                     </g>
                  </g>
                  <g id="m1ja0gdb" class="meterSig">
                     <use xlink:href="#E082-z0bb3" x="2508" y="1265" height="720px" width="720px" />
                     <use xlink:href="#E084-z0bb3" x="2513" y="1625" height="720px" width="720px" />
                  </g>
                  <g id="lrlybgz" class="layer">
                     <g id="bpju04a" class="beam">
                        <polygon points="3083,2030 3610,1985 3610,1895 3083,1940" />
                        <g id="n1hoeu3e" class="note">
                           <g class="notehead">
                              <use xlink:href="#E0A4-z0bb3" x="3083" y="1445" height="720px" width="720px" />
                           </g>
                           <g id="s1pzrv24" class="stem">
                              <rect x="3083" y="1473" height="539" width="18" />
                           </g>
                           <g id="a1n1rgzz" class="accid" />
                        </g>
                        <g id="njldqdx" class="note">
                           <g class="notehead">
                              <use xlink:href="#E0A4-z0bb3" x="3592" y="1355" height="720px" width="720px" />
                           </g>
                           <g id="s1dork1k" class="stem">
                              <rect x="3592" y="1383" height="584" width="18" />
                           </g>
                        </g>
                     </g>
                     <g id="b1v1hrqe" class="beam">
                        <polygon points="4309,770 5345,815 5345,905 4309,860" />
                        <polygon points="4309,905 4657,920 4657,1010 4309,995" />
                        <polygon points="4657,920 4997,936 4997,1026 4657,1010" />
                        <polygon points="4997,936 5345,950 5345,1040 4997,1026" />
                        <g id="nazgd0g" class="note">
                           <g class="notehead">
                              <use xlink:href="#E0A4-z0bb3" x="4101" y="1445" height="720px" width="720px" />
                           </g>
                           <g id="s1y0ghll" class="stem">
                              <rect x="4309" y="788" height="629" width="18" />
                           </g>
                           <g id="a1w4y9xd" class="accid" />
                        </g>
                        <g id="n1whxlpl" class="note">
                           <g class="notehead">
                              <use xlink:href="#E0A4-z0bb3" x="4440" y="1535" height="720px" width="720px" />
                           </g>
                           <g id="sff0mcb" class="stem">
                              <rect x="4648" y="803" height="704" width="18" />
                           </g>
                        </g>
                        <g id="n8xtfv0" class="note">
                           <g class="notehead">
                              <use xlink:href="#E0A4-z0bb3" x="4780" y="1625" height="720px" width="720px" />
                           </g>
                           <g id="s1oqbpxq" class="stem">
                              <rect x="4988" y="819" height="778" width="18" />
                           </g>
                        </g>
                        <g id="n8ey69i" class="note">
                           <g class="notehead">
                              <use xlink:href="#E0A4-z0bb3" x="5119" y="1535" height="720px" width="720px" />
                           </g>
                           <g id="s107gzri" class="stem">
                              <rect x="5327" y="833" height="674" width="18" />
                           </g>
                        </g>
                     </g>
                  </g>
               </g>
               <g id="bwzgo4r" class="barLine">
                  <path d="M5459 1085 L5459 1805" stroke="currentColor" stroke-width="27" />
               </g>
            </g>
            <g id="m1wljm8a" class="measure">
               <g id="s1h8crbc" class="staff">
                  <path d="M5472 1085 L7702 1085" stroke="currentColor" stroke-width="13" />
                  <path d="M5472 1265 L7702 1265" stroke="currentColor" stroke-width="13" />
                  <path d="M5472 1445 L7702 1445" stroke="currentColor" stroke-width="13" />
                  <path d="M5472 1625 L7702 1625" stroke="currentColor" stroke-width="13" />
                  <path d="M5472 1805 L7702 1805" stroke="currentColor" stroke-width="13" />
                  <g id="lg9wwhp" class="layer">
                     <g id="b15tti82" class="beam">
                        <polygon points="5862,860 6389,905 6389,995 5862,950" />
                        <g id="n1by2jnb" class="note">
                           <g class="notehead">
                              <use xlink:href="#E0A4-z0bb3" x="5654" y="1445" height="720px" width="720px" />
                           </g>
                           <g id="s1gv194" class="stem">
                              <rect x="5862" y="878" height="539" width="18" />
                           </g>
                           <g id="a7l8cjy" class="accid" />
                        </g>
                        <g id="nxvbuy4" class="note">
                           <g class="notehead">
                              <use xlink:href="#E0A4-z0bb3" x="6163" y="1625" height="720px" width="720px" />
                           </g>
                           <g id="ssjoo0d" class="stem">
                              <rect x="6371" y="923" height="674" width="18" />
                           </g>
                        </g>
                     </g>
                     <g id="b1cnz62c" class="beam">
                        <polygon points="6672,1850 7198,1850 7198,1760 6672,1760" />
                        <g id="nd00kc3" class="note">
                           <g class="notehead">
                              <use xlink:href="#E0A4-z0bb3" x="6672" y="1265" height="720px" width="720px" />
                           </g>
                           <g id="syvk8mt" class="stem">
                              <rect x="6672" y="1293" height="539" width="18" />
                           </g>
                        </g>
                        <g id="n2kbpmc" class="note">
                           <g class="notehead">
                              <use xlink:href="#E0A4-z0bb3" x="7180" y="1265" height="720px" width="720px" />
                           </g>
                           <g id="s5cvm9b" class="stem">
                              <rect x="7180" y="1293" height="539" width="18" />
                           </g>
                        </g>
                     </g>
                  </g>
               </g>
               <g id="b18ayl2u" class="barLine">
                  <path d="M7689 1085 L7689 1805" stroke="currentColor" stroke-width="27" />
               </g>
            </g>
            <g id="m10yom5j" class="measure">
               <g id="spyndqp" class="staff">
                  <path d="M7702 1085 L10273 1085" stroke="currentColor" stroke-width="13" />
                  <path d="M7702 1265 L10273 1265" stroke="currentColor" stroke-width="13" />
                  <path d="M7702 1445 L10273 1445" stroke="currentColor" stroke-width="13" />
                  <path d="M7702 1625 L10273 1625" stroke="currentColor" stroke-width="13" />
                  <path d="M7702 1805 L10273 1805" stroke="currentColor" stroke-width="13" />
                  <g id="l1cp98th" class="layer">
                     <g id="b1bnt5vj" class="beam">
                        <polygon points="7884,2030 8411,1985 8411,1895 7884,1940" />
                        <g id="n12wmti7" class="note">
                           <g class="notehead">
                              <use xlink:href="#E0A4-z0bb3" x="7884" y="1445" height="720px" width="720px" />
                           </g>
                           <g id="syjtznn" class="stem">
                              <rect x="7884" y="1473" height="539" width="18" />
                           </g>
                           <g id="a8xhygu" class="accid" />
                        </g>
                        <g id="nyehv6v" class="note">
                           <g class="notehead">
                              <use xlink:href="#E0A4-z0bb3" x="8393" y="1355" height="720px" width="720px" />
                           </g>
                           <g id="s1t0ldj6" class="stem">
                              <rect x="8393" y="1383" height="584" width="18" />
                           </g>
                        </g>
                     </g>
                     <g id="b1rt609l" class="beam">
                        <polygon points="9110,770 10146,815 10146,905 9110,860" />
                        <polygon points="9110,905 9458,920 9458,1010 9110,995" />
                        <polygon points="9458,920 9798,936 9798,1026 9458,1010" />
                        <polygon points="9798,936 10146,950 10146,1040 9798,1026" />
                        <g id="n1a84ig8" class="note">
                           <g class="notehead">
                              <use xlink:href="#E0A4-z0bb3" x="8902" y="1445" height="720px" width="720px" />
                           </g>
                           <g id="s1hz9up7" class="stem">
                              <rect x="9110" y="788" height="629" width="18" />
                           </g>
                           <g id="a1kmssjg" class="accid" />
                        </g>
                        <g id="nhgulr8" class="note">
                           <g class="notehead">
                              <use xlink:href="#E0A4-z0bb3" x="9241" y="1535" height="720px" width="720px" />
                           </g>
                           <g id="smgfqhy" class="stem">
                              <rect x="9449" y="803" height="704" width="18" />
                           </g>
                        </g>
                        <g id="nsxf6qq" class="note">
                           <g class="notehead">
                              <use xlink:href="#E0A4-z0bb3" x="9581" y="1625" height="720px" width="720px" />
                           </g>
                           <g id="sgl01hy" class="stem">
                              <rect x="9789" y="819" height="778" width="18" />
                           </g>
                        </g>
                        <g id="nczdssr" class="note">
                           <g class="notehead">
                              <use xlink:href="#E0A4-z0bb3" x="9920" y="1535" height="720px" width="720px" />
                           </g>
                           <g id="s16r7jaa" class="stem">
                              <rect x="10128" y="833" height="674" width="18" />
                           </g>
                        </g>
                     </g>
                  </g>
               </g>
               <g id="bovcj03" class="barLine">
                  <path d="M10260 1085 L10260 1805" stroke="currentColor" stroke-width="27" />
               </g>
            </g>
            <g id="mze5vdh" class="measure">
               <g id="s1lm94h4" class="staff">
                  <path d="M10273 1085 L12631 1085" stroke="currentColor" stroke-width="13" />
                  <path d="M10273 1265 L12631 1265" stroke="currentColor" stroke-width="13" />
                  <path d="M10273 1445 L12631 1445" stroke="currentColor" stroke-width="13" />
                  <path d="M10273 1625 L12631 1625" stroke="currentColor" stroke-width="13" />
                  <path d="M10273 1805 L12631 1805" stroke="currentColor" stroke-width="13" />
                  <g id="lb7dvm5" class="layer">
                     <g id="b1svv3p3" class="beam">
                        <polygon points="10663,860 11190,905 11190,995 10663,950" />
                        <g id="nzo24ft" class="note">
                           <g class="notehead">
                              <use xlink:href="#E0A4-z0bb3" x="10455" y="1445" height="720px" width="720px" />
                           </g>
                           <g id="sfffo0v" class="stem">
                              <rect x="10663" y="878" height="539" width="18" />
                           </g>
                           <g id="a3pfnvu" class="accid" />
                        </g>
                        <g id="ny59n8x" class="note">
                           <g class="notehead">
                              <use xlink:href="#E0A4-z0bb3" x="10964" y="1625" height="720px" width="720px" />
                           </g>
                           <g id="sha0849" class="stem">
                              <rect x="11172" y="923" height="674" width="18" />
                           </g>
                        </g>
                     </g>
                     <g id="n1f74abw" class="note">
                        <g class="notehead">
                           <use xlink:href="#E0A4-z0bb3" x="11473" y="1265" height="720px" width="720px" />
                        </g>
                        <g id="s1y4reev" class="stem">
                           <rect x="11473" y="1293" height="602" width="18" />
                        </g>
                     </g>
                  </g>
               </g>
               <g id="bw1x3c9" class="barLine">
                  <path d="M12253 1085 L12253 1805" stroke="currentColor" stroke-width="27" />
                  <path d="M12383 1085 L12383 1805" stroke="currentColor" stroke-width="90" />
                  <path d="M12514 1085 L12514 1805" stroke="currentColor" stroke-width="27" />
                  <use xlink:href="#E044-z0bb3" x="12559" y="1355" height="720px" width="720px" />
                  <use xlink:href="#E044-z0bb3" x="12559" y="1535" height="720px" width="720px" />
                  <use xlink:href="#E044-z0bb3" x="12136" y="1355" height="720px" width="720px" />
                  <use xlink:href="#E044-z0bb3" x="12136" y="1535" height="720px" width="720px" />
               </g>
            </g>
            <g id="m1oa40n0" class="measure">
               <g id="s762p7x" class="staff">
                  <path d="M12631 1085 L14861 1085" stroke="currentColor" stroke-width="13" />
                  <path d="M12631 1265 L14861 1265" stroke="currentColor" stroke-width="13" />
                  <path d="M12631 1445 L14861 1445" stroke="currentColor" stroke-width="13" />
                  <path d="M12631 1625 L14861 1625" stroke="currentColor" stroke-width="13" />
                  <path d="M12631 1805 L14861 1805" stroke="currentColor" stroke-width="13" />
                  <g id="l1txcp6w" class="layer">
                     <g id="b1ogbtt1" class="beam">
                        <polygon points="12813,2030 13340,1985 13340,1895 12813,1940" />
                        <g id="n1iarcj2" class="note">
                           <g class="notehead">
                              <use xlink:href="#E0A4-z0bb3" x="12813" y="1445" height="720px" width="720px" />
                           </g>
                           <g id="s1kgtgs3" class="stem">
                              <rect x="12813" y="1473" height="539" width="18" />
                           </g>
                           <g id="a1922u0w" class="accid" />
                        </g>
                        <g id="n1707nxu" class="note">
                           <g class="notehead">
                              <use xlink:href="#E0A4-z0bb3" x="13322" y="1355" height="720px" width="720px" />
                           </g>
                           <g id="shtqxof" class="stem">
                              <rect x="13322" y="1383" height="584" width="18" />
                           </g>
                        </g>
                     </g>
                     <g id="byto826" class="beam">
                        <polygon points="13831,1985 14357,2030 14357,1940 13831,1895" />
                        <g id="n1y4dbuy" class="note">
                           <g class="notehead">
                              <use xlink:href="#E0A4-z0bb3" x="13831" y="1265" height="720px" width="720px" />
                           </g>
                           <g id="s1twe82c" class="stem">
                              <rect x="13831" y="1293" height="674" width="18" />
                           </g>
                        </g>
                        <g id="n1xaeq97" class="note">
                           <g class="notehead">
                              <use xlink:href="#E0A4-z0bb3" x="14339" y="1355" height="720px" width="720px" />
                           </g>
                           <g id="s10oa61c" class="stem">
                              <rect x="14339" y="1383" height="629" width="18" />
                           </g>
                        </g>
                     </g>
                  </g>
               </g>
               <g id="b624ncs" class="barLine">
                  <path d="M14848 1085 L14848 1805" stroke="currentColor" stroke-width="27" />
               </g>
            </g>
            <g id="m167yigt" class="measure">
               <g id="s7r0dse" class="staff">
                  <path d="M14861 1085 L17772 1085" stroke="currentColor" stroke-width="13" />
                  <path d="M14861 1265 L17772 1265" stroke="currentColor" stroke-width="13" />
                  <path d="M14861 1445 L17772 1445" stroke="currentColor" stroke-width="13" />
                  <path d="M14861 1625 L17772 1625" stroke="currentColor" stroke-width="13" />
                  <path d="M14861 1805 L17772 1805" stroke="currentColor" stroke-width="13" />
                  <g id="l4a8m3m" class="layer">
                     <g id="b1dyco69" class="beam">
                        <polygon points="15043,2165 16080,2210 16080,2120 15043,2075" />
                        <polygon points="15043,2030 15391,2045 15391,1955 15043,1940" />
                        <polygon points="15391,2045 15731,2060 15731,1970 15391,1955" />
                        <polygon points="15731,2060 16080,2075 16080,1985 15731,1970" />
                        <g id="n3mc6th" class="note">
                           <g class="notehead">
                              <use xlink:href="#E0A4-z0bb3" x="15043" y="1445" height="720px" width="720px" />
                           </g>
                           <g id="sixb3ie" class="stem">
                              <rect x="15043" y="1473" height="674" width="18" />
                           </g>
                           <g id="ahak1a2" class="accid" />
                        </g>
                        <g id="najcw4q" class="note">
                           <g class="notehead">
                              <use xlink:href="#E0A4-z0bb3" x="15382" y="1355" height="720px" width="720px" />
                           </g>
                           <g id="sofp1mb" class="stem">
                              <rect x="15382" y="1383" height="779" width="18" />
                           </g>
                        </g>
                        <g id="ncn3btx" class="note">
                           <g class="notehead">
                              <use xlink:href="#E0A4-z0bb3" x="15722" y="1445" height="720px" width="720px" />
                           </g>
                           <g id="s14oomtp" class="stem">
                              <rect x="15722" y="1473" height="704" width="18" />
                           </g>
                           <g id="a174o88l" class="accid" />
                        </g>
                        <g id="n13hkq8f" class="note">
                           <g class="notehead">
                              <use xlink:href="#E0A4-z0bb3" x="16062" y="1535" height="720px" width="720px" />
                           </g>
                           <g id="s2hq35l" class="stem">
                              <rect x="16062" y="1563" height="629" width="18" />
                           </g>
                        </g>
                     </g>
                     <g id="b1c0c0a8" class="beam">
                        <polygon points="16609,905 17646,860 17646,950 16609,995" />
                        <polygon points="16609,1040 16958,1025 16958,1115 16609,1130" />
                        <polygon points="16958,1025 17297,1011 17297,1101 16958,1115" />
                        <polygon points="17297,1011 17646,995 17646,1085 17297,1101" />
                        <g id="n1vjmg6m" class="note">
                           <g class="notehead">
                              <use xlink:href="#E0A4-z0bb3" x="16401" y="1625" height="720px" width="720px" />
                           </g>
                           <g id="semjby6" class="stem">
                              <rect x="16609" y="923" height="674" width="18" />
                           </g>
                        </g>
                        <g id="n1olb9b4" class="note">
                           <g class="notehead">
                              <use xlink:href="#E0A4-z0bb3" x="16741" y="1715" height="720px" width="720px" />
                           </g>
                           <g id="sw7mfsb" class="stem">
                              <rect x="16949" y="908" height="779" width="18" />
                           </g>
                        </g>
                        <g id="ngh1e35" class="note">
                           <g class="notehead">
                              <use xlink:href="#E0A4-z0bb3" x="17080" y="1625" height="720px" width="720px" />
                           </g>
                           <g id="s1p1hmhy" class="stem">
                              <rect x="17288" y="894" height="703" width="18" />
                           </g>
                        </g>
                        <g id="n1k4ahnr" class="note">
                           <g class="notehead">
                              <use xlink:href="#E0A4-z0bb3" x="17420" y="1535" height="720px" width="720px" />
                           </g>
                           <g id="s10jh30w" class="stem">
                              <rect x="17628" y="878" height="629" width="18" />
                           </g>
                        </g>
                     </g>
                  </g>
               </g>
               <g id="bp4hf93" class="barLine">
                  <path d="M17759 1085 L17759 1805" stroke="currentColor" stroke-width="27" />
               </g>
            </g>
            <g id="msu48hp" class="measure">
               <g id="sknh22b" class="staff">
                  <path d="M17772 1085 L20002 1085" stroke="currentColor" stroke-width="13" />
                  <path d="M17772 1265 L20002 1265" stroke="currentColor" stroke-width="13" />
                  <path d="M17772 1445 L20002 1445" stroke="currentColor" stroke-width="13" />
                  <path d="M17772 1625 L20002 1625" stroke="currentColor" stroke-width="13" />
                  <path d="M17772 1805 L20002 1805" stroke="currentColor" stroke-width="13" />
                  <g id="lxzutck" class="layer">
                     <g id="b19g0cap" class="beam">
                        <polygon points="17954,2030 18481,1985 18481,1895 17954,1940" />
                        <g id="n1weuczp" class="note">
                           <g class="notehead">
                              <use xlink:href="#E0A4-z0bb3" x="17954" y="1445" height="720px" width="720px" />
                           </g>
                           <g id="sc1xv7z" class="stem">
                              <rect x="17954" y="1473" height="539" width="18" />
                           </g>
                           <g id="ahoifst" class="accid" />
                        </g>
                        <g id="n1l9lyc3" class="note">
                           <g class="notehead">
                              <use xlink:href="#E0A4-z0bb3" x="18463" y="1355" height="720px" width="720px" />
                           </g>
                           <g id="s8az2j2" class="stem">
                              <rect x="18463" y="1383" height="584" width="18" />
                           </g>
                        </g>
                     </g>
                     <g id="bkd5tl9" class="beam">
                        <polygon points="18972,1985 19498,2030 19498,1940 18972,1895" />
                        <g id="n1bmwsdg" class="note">
                           <g class="notehead">
                              <use xlink:href="#E0A4-z0bb3" x="18972" y="1265" height="720px" width="720px" />
                           </g>
                           <g id="s10h83in" class="stem">
                              <rect x="18972" y="1293" height="674" width="18" />
                           </g>
                        </g>
                        <g id="n13nstpg" class="note">
                           <g class="notehead">
                              <use xlink:href="#E0A4-z0bb3" x="19480" y="1355" height="720px" width="720px" />
                           </g>
                           <g id="s2v73h6" class="stem">
                              <rect x="19480" y="1383" height="629" width="18" />
                           </g>
                        </g>
                     </g>
                  </g>
               </g>
               <g id="b11m9l0q" class="barLine">
                  <path d="M19989 1085 L19989 1805" stroke="currentColor" stroke-width="27" />
               </g>
            </g>
            <g id="s1be91ra" class="sb" />
         </g>
         <g id="ssigjtq" class="system">
            <g id="lgp3qu7" class="labelAbbr">
               <text x="914" y="3763" text-anchor="end" font-size="0px">
                  <tspan id="tql7kje" class="text">
                     <tspan font-size="405px" class="text">Pno.</tspan>
                  </tspan>
               </text>
            </g>
            <g id="mycvjg2" class="measure">
               <g id="mw40ha0" class="mNum autogenerated">
                  <text x="1094" y="3070" text-anchor="middle" font-size="0px">
                     <tspan id="tnft85o" class="text">
                        <tspan font-size="324px" class="text">8</tspan>
                     </tspan>
                  </text>
               </g>
               <g id="s11voqn2" class="staff">
                  <path d="M1094 3313 L4719 3313" stroke="currentColor" stroke-width="13" />
                  <path d="M1094 3493 L4719 3493" stroke="currentColor" stroke-width="13" />
                  <path d="M1094 3673 L4719 3673" stroke="currentColor" stroke-width="13" />
                  <path d="M1094 3853 L4719 3853" stroke="currentColor" stroke-width="13" />
                  <path d="M1094 4033 L4719 4033" stroke="currentColor" stroke-width="13" />
                  <g id="c1g6rkcu" class="clef">
                     <use xlink:href="#E050-z0bb3" x="1184" y="3853" height="720px" width="720px" />
                  </g>
                  <g id="kx5oz0h" class="keySig">
                     <g id="kwjls5z" class="keyAccid">
                        <use xlink:href="#E260-z0bb3" x="1829" y="3673" height="720px" width="720px" />
                     </g>
                     <g id="k10smn9k" class="keyAccid">
                        <use xlink:href="#E260-z0bb3" x="2009" y="3403" height="720px" width="720px" />
                     </g>
                  </g>
                  <g id="l6ak7gb" class="layer">
                     <g id="bx1y5nv" class="beam">
                        <polygon points="2421,4393 3450,4438 3450,4348 2421,4303" />
                        <polygon points="2421,4258 2767,4273 2767,4183 2421,4168" />
                        <polygon points="2767,4273 3104,4288 3104,4198 2767,4183" />
                        <polygon points="3104,4288 3450,4303 3450,4213 3104,4198" />
                        <g id="n1drv12u" class="note">
                           <g class="notehead">
                              <use xlink:href="#E0A4-z0bb3" x="2421" y="3673" height="720px" width="720px" />
                           </g>
                           <g id="s1ui6ei1" class="stem">
                              <rect x="2421" y="3701" height="674" width="18" />
                           </g>
                           <g id="a1welymd" class="accid" />
                        </g>
                        <g id="nlfa7g9" class="note">
                           <g class="notehead">
                              <use xlink:href="#E0A4-z0bb3" x="2758" y="3583" height="720px" width="720px" />
                           </g>
                           <g id="s1li7qru" class="stem">
                              <rect x="2758" y="3611" height="779" width="18" />
                           </g>
                        </g>
                        <g id="n15mxco5" class="note">
                           <g class="notehead">
                              <use xlink:href="#E0A4-z0bb3" x="3095" y="3673" height="720px" width="720px" />
                           </g>
                           <g id="s7mlw8x" class="stem">
                              <rect x="3095" y="3701" height="704" width="18" />
                           </g>
                           <g id="ah8qs4n" class="accid" />
                        </g>
                        <g id="n1h32lvd" class="note">
                           <g class="notehead">
                              <use xlink:href="#E0A4-z0bb3" x="3432" y="3763" height="720px" width="720px" />
                           </g>
                           <g id="s1jv5n7s" class="stem">
                              <rect x="3432" y="3791" height="629" width="18" />
                           </g>
                        </g>
                     </g>
                     <g id="n1pjdgbd" class="note">
                        <g class="notehead">
                           <use xlink:href="#E0A4-z0bb3" x="3769" y="3853" height="720px" width="720px" />
                        </g>
                        <g id="s1jqqv7k" class="stem">
                           <rect x="3977" y="3223" height="602" width="18" />
                        </g>
                     </g>
                  </g>
               </g>
               <g id="blt8pif" class="barLine">
                  <path d="M4544 3313 L4544 4033" stroke="currentColor" stroke-width="27" />
                  <path d="M4674 3313 L4674 4033" stroke="currentColor" stroke-width="90" />
               </g>
            </g>
            <g id="s1083wsf" class="systemMilestoneEnd s4bagnc" />
         </g>
         <g id="p9j3zjy" class="pageMilestoneEnd s1yxaizh" />
         <g id="p1vnry70" class="pageMilestoneEnd m1nom8r0" />
         <g id="p1dx8s4t" class="pgHead">
            <text x="0" y="0" font-size="0px">
               <tspan id="r1jonfjc" class="rend" x="10000" y="277" text-anchor="middle">
                  <tspan id="t1kai23q" class="text">
                     <tspan font-size="405px" class="text">Air n 187b</tspan>
                  </tspan>
               </tspan>
            </text>
         </g>
         <g id="pocm58y" class="pgFoot autogenerated">
            <g id="fkt2b56" class="fig">
               <g id="s123x7c4" class="svg" transform="translate(7750, 28099) scale(10, 10)">
                  <g>
                     <path fill="#00000" d="M 17.11278,49.26451 V 10.367554 h 12.696511 c 3.288815,7.336676 6.71267,14.610456 10.127281,21.888976 3.419998,-7.484684 6.255515,-14.204887 9.58887,-21.909915 2.436207,0.103726 4.316952,0.08453 6.484294,-0.05808 V 49.264423 H 50.274275 C 50.145222,38.35639 50.016136,27.448368 49.887066,16.540329 45.003488,27.315459 39.967448,38.433564 35.083854,49.208695 34.678996,49.343717 34.426583,49.135619 34.021726,49.270644 29.46588,39.330716 24.910049,29.390805 20.354201,19.450876 20.224341,29.388756 20.09461,39.326619 19.964815,49.264497 H 17.11278 Z M 36.754144,39.324695 C 32.721221,30.512695 28.6883,21.700679 24.655394,12.888662 22.530527,12.750737 22.656775,12.71031 20.714356,12.813974 v 0.966497 c 4.612938,9.99784 9.609439,20.748709 13.87298,30.081745 0.722248,-1.512523 1.444528,-3.025014 2.166808,-4.537521 z m 25.738417,9.939815 c 0,-12.965651 0,-25.931305 0,-38.896956 10.084388,0 20.168791,0 30.253178,0 0,0.960416 0,1.920849 0,2.881265 -6.482825,0 -12.965652,0 -19.448478,0 0,4.802097 0,9.604178 0,14.406277 5.52241,0 11.044819,0 16.567229,0 0,0.960415 0,1.920832 0,2.881248 -5.52241,0 -11.044819,0 -16.567229,0 0,5.282306 0,10.564611 0,15.846917 6.963035,0 13.926068,0 20.889103,0 0,0.960416 0,1.920832 0,2.881249 -10.564597,0 -21.129207,0 -31.693803,0 z m 4.321874,-2.160937 c 0,-11.765131 0,-23.530263 0,-35.295394 -0.720312,0 -1.440625,0 -2.160937,0 0,11.765131 0,23.530263 0,35.295394 0.720312,0 1.440625,0 2.160937,0 z m 32.41413,2.160937 c 0,-12.965651 0,-25.931305 0,-38.896956 2.401045,0 4.802095,0 7.203135,0 0,12.965651 0,25.931305 0,38.896956 -2.40104,0 -4.80209,0 -7.203135,0 z m 2.881265,-2.160937 c 0,-11.765131 0,-23.530263 0,-35.295394 -0.72031,0 -1.44064,0 -2.160953,0 0,11.765131 0,23.530263 0,35.295394 0.720313,0 1.440643,0 2.160953,0 z" />
                     <path fill="#00000" d="m 346.3,6.7 c -3.1,0.5 -4.9,4.4 -2.7,6.8 1.2,1.4 2.7,2.4 4.1,3.5 -2.4,5.3 -7.7,8.3 -11.9,12.1 -3.7,2.8 -7,6.2 -9.7,9.9 -2.2,-0.8 -0.3,-6.8 -0.6,-9.5 0.1,-3.1 0.7,-6.4 2.9,-8.7 1.3,-1.9 3,-3.5 4.5,-5.2 1.2,-3.4 -3.2,-4.9 -5.8,-4.6 -7.3,-0.5 -14.6,2 -20,6.8 -5,4.6 -10,10.1 -11.5,17 -0.9,3.5 -0.2,7.5 2.8,9.9 2.5,2.8 7.4,2.9 9.8,-0.2 1.7,-2.3 3.2,-4.8 3.8,-7.6 -0.1,-2.6 -4.4,-2.3 -4.3,0.2 1.2,2.4 -0.9,4.7 -2.7,6.2 -1.7,0.9 -4.7,0.7 -4.8,-1.7 -1,-5.8 2.1,-11.3 5.2,-16.1 4,-5.8 9.8,-11.2 17.2,-11.8 1.6,0 8.1,-1.2 6.8,1.4 -2.8,2.8 -5.6,6.1 -6,10.3 -1.6,7.7 0.1,15.7 -2.3,23.2 -1.1,3.9 2,2.6 2.5,0.2 3.3,-7.4 8.9,-13.4 15.1,-18.5 4.2,-3.9 9.5,-7.1 11.9,-12.6 1.3,-3.6 1.2,-9 -2.7,-10.9 -0.6,-0.2 -1.2,-0.3 -1.8,-0.3 z m 66,14.5 c -2,0.8 -1.8,4.9 0.8,4.4 3.4,0.4 2.9,-6.2 -0.8,-4.4 z m 0.6,7.3 c -1.3,0.5 -7.6,0.5 -5.4,2.2 4,-0.3 0.7,4.5 0.6,6.7 -0.4,2.9 -2.4,5.9 -1.2,8.8 2.7,1.7 5.6,-0.8 6.8,-3.2 1.6,-1.4 -0.5,-3 -1.2,-0.9 -0.4,0.8 -2.4,3.5 -2.6,1.8 1.1,-5 2.7,-9.9 3.9,-14.9 l -0.1,-0.5 h -0.9 z m -65.1,0.2 c -6.5,1.6 -10.5,9.5 -8.2,15.7 2.1,3.4 7.4,2.9 10.1,0.4 2,-0.2 3.6,-5.3 1,-3.4 -1.4,2 -4,4.2 -6.5,2.8 -2.2,-1.9 -1.9,-5.7 1.7,-5.3 3.1,-0.9 6.9,-2.1 8.1,-5.5 0.9,-2.7 -1.6,-5.2 -4.3,-4.8 h -1.1 -0.7 z m 13.6,0 c -2.2,0 -8.5,1.8 -2.9,2.3 0.9,1.9 -1,4.9 -1.1,7.2 -0.5,2.9 -1.4,5.7 -1.7,8.7 3.7,0.7 3.8,-2.6 4.4,-5.3 0.9,-3.3 1.6,-7 4.1,-9.5 2.4,1.6 6.8,-0.7 3.7,-3.4 -2.9,-0.5 -4.8,2.4 -6.2,4.3 0,-1.2 2.4,-5 -0.2,-4.3 z m 15.8,0 c -6.4,1.3 -9.6,9.1 -7.7,14.9 1.9,4 7.7,3.9 11,1.7 4.1,-3 6,-8.9 4.4,-13.7 -1.3,-3 -4.8,-3.2 -7.6,-3 z m 17,0 c -2.3,0 -8.8,1.9 -3,2.4 0.4,2.5 -1,5.7 -1.4,8.4 -0.7,2.4 -1.8,7.5 2.1,7.2 3.8,-0.1 6.5,-3.5 8.5,-6.3 2,-3.2 4.5,-7 3.3,-10.9 -3.7,-3 -3.6,2.6 -3.1,5.1 -0.7,3.8 -2.7,7.9 -6.2,9.8 -3.6,0.6 -1,-4.3 -0.8,-6.1 0.6,-3.2 1.6,-6.3 1.9,-9.5 -0.4,0 -0.8,0 -1.1,0 z m 30.6,0 c -6.3,1.2 -9.5,8.9 -7.8,14.7 1.5,4 7.2,4.2 10.5,2.4 4.6,-2.8 6.6,-9.3 4.8,-14.3 -1.4,-2.8 -4.8,-3 -7.5,-2.8 z m -75.4,1.7 c 2.1,1.5 0.2,4.7 -1.6,5.7 -1.1,0.4 -5.5,3.4 -4.6,0.7 0.8,-2.7 2.2,-6.2 5.3,-6.6 l 0.9,0.1 z m 30.8,0 c 2.6,1.5 1.3,5.2 0.8,7.6 -0.8,2.7 -1.9,5.9 -4.7,7.1 -5.1,0.8 -4,-5.8 -2.8,-8.8 1,-2.8 3,-6.8 6.7,-5.8 z m 47.1,-0.1 c 2.9,0.7 2,4.7 1.5,6.8 -0.7,3 -1.8,6.7 -5,8 -4.7,0.8 -4,-5.1 -3,-7.9 0.9,-3 2.7,-7.3 6.5,-6.8 z m -88.1,5.9 c -0.3,1.3 0.9,-0.6 0,0 z m -1.1,2.4 c -0.2,0.5 0.5,-0.1 0,0 z m -1.3,4.5 c -0.3,1.3 0.8,-0.2 0,0 z" />
                     <text y="41" x="201" fill="#00000" style="font-style:italic;font-weight:normal;font-size:30px;line-height:125%;font-family:Times;text-anchor:middle" xml:space="preserve">engraved with</text>
                  </g>
               </g>
            </g>
         </g>
      </g>
   </svg>
</svg>
