<?xml version="1.0" encoding="UTF-8" standalone="no"?>
<svg width="2100px" height="2970px" version="1.1" xmlns="http://www.w3.org/2000/svg" xmlns:xlink="http://www.w3.org/1999/xlink" xmlns:mei="http://www.music-encoding.org/ns/mei" overflow="visible">
   <desc>Engraved by Verovio 3.13.1</desc>
   <defs>
      <symbol id="E260-1qjelkk" viewBox="0 0 1000 1000" overflow="inherit">
         <path transform="scale(1,-1)" d="M20 110c32 16 54 27 93 27c26 0 35 -3 54 -13c13 -7 24 -20 27 -38l4 -25c0 -28 -16 -57 -45 -89c-23 -25 -39 -44 -65 -68l-88 -79v644h20v-359zM90 106c-32 0 -48 -10 -70 -29v-194c31 31 54 59 71 84c21 32 32 59 32 84c0 9 1 16 1 20c0 14 -3 21 -11 30l-8 3z" />
      </symbol>
      <symbol id="E050-1qjelkk" viewBox="0 0 1000 1000" overflow="inherit">
         <path transform="scale(1,-1)" d="M441 -245c-23 -4 -48 -6 -76 -6c-59 0 -102 7 -130 20c-88 42 -150 93 -187 154c-26 44 -43 103 -48 176c0 6 -1 13 -1 19c0 54 15 111 45 170c29 57 65 106 110 148s96 85 153 127c-3 16 -8 46 -13 92c-4 43 -5 73 -5 89c0 117 16 172 69 257c34 54 64 82 89 82 c21 0 43 -30 69 -92s39 -115 41 -159v-15c0 -109 -21 -162 -67 -241c-13 -20 -63 -90 -98 -118c-13 -9 -25 -19 -37 -29l31 -181c8 1 18 2 28 2c58 0 102 -12 133 -35c59 -43 92 -104 98 -184c1 -7 1 -15 1 -22c0 -123 -87 -209 -181 -248c8 -57 17 -110 25 -162 c5 -31 6 -58 6 -80c0 -30 -5 -53 -14 -70c-35 -64 -88 -99 -158 -103c-5 0 -11 -1 -16 -1c-37 0 -72 10 -108 27c-50 24 -77 59 -80 105v11c0 29 7 55 20 76c18 28 45 42 79 44h6c49 0 93 -42 97 -87v-9c0 -51 -34 -86 -105 -106c17 -24 51 -36 102 -36c62 0 116 43 140 85 c9 16 13 41 13 74c0 20 -1 42 -5 67c-8 53 -18 106 -26 159zM461 939c-95 0 -135 -175 -135 -286c0 -24 2 -48 5 -71c50 39 92 82 127 128c40 53 60 100 60 140v8c-4 53 -22 81 -55 81h-2zM406 119l54 -326c73 25 110 78 110 161c0 7 0 15 -1 23c-7 95 -57 142 -151 142h-12 zM382 117c-72 -2 -128 -47 -128 -120v-7c2 -46 43 -99 75 -115c-3 -2 -7 -5 -10 -10c-70 33 -116 88 -123 172v11c0 68 44 126 88 159c23 17 49 29 78 36l-29 170c-21 -13 -52 -37 -92 -73c-50 -44 -86 -84 -109 -119c-45 -69 -67 -130 -67 -182v-13c5 -68 35 -127 93 -176 s125 -73 203 -73c25 0 50 3 75 9c-19 111 -36 221 -54 331z" />
      </symbol>
      <symbol id="E081-1qjelkk" viewBox="0 0 1000 1000" overflow="inherit">
         <path transform="scale(1,-1)" d="M68 -250v36c23 0 40 6 49 18c8 14 12 33 12 57v250l-82 -129l-27 13l107 255h128v-394c0 -24 5 -42 14 -53s25 -17 47 -17v-36h-248z" />
      </symbol>
      <symbol id="E082-1qjelkk" viewBox="0 0 1000 1000" overflow="inherit">
         <path transform="scale(1,-1)" d="M124 -185c-18 0 -55 -14 -65 -65h-36l-3 30c0 25 6 45 18 63c11 19 22 30 39 43l121 82l37 29c15 11 27 29 38 54c12 24 18 47 18 70c0 40 -19 88 -94 88c-25 0 -32 0 -50 -8c-14 -5 -23 -12 -26 -22c3 -9 7 -15 10 -18l24 -17c12 -7 17 -11 27 -21c5 -7 7 -16 7 -27 c0 -12 0 -57 -79 -74c-30 0 -76 26 -76 94c0 66 81 135 197 135c72 0 181 -32 181 -150c0 -53 -32 -95 -113 -133l-91 -41c-26 -11 -45 -23 -57 -37l49 7c84 0 115 -41 148 -41c20 0 33 20 39 61h35c0 -152 -68 -168 -114 -168c-17 0 -65 0 -79 7h10l-28 17 c-49 37 -69 40 -87 42z" />
      </symbol>
      <symbol id="E084-1qjelkk" viewBox="0 0 1000 1000" overflow="inherit">
         <path transform="scale(1,-1)" d="M20 -78c84 97 114 180 134 329h170c-13 -32 -82 -132 -99 -151l-84 -97c-33 -36 -59 -63 -80 -81h162v102l127 123v-225h57v-39h-57v-34c0 -43 19 -65 57 -65v-34h-244v36c48 0 60 26 60 70v27h-203v39z" />
      </symbol>
      <symbol id="E0A4-1qjelkk" viewBox="0 0 1000 1000" overflow="inherit">
         <path transform="scale(1,-1)" d="M0 -39c0 68 73 172 200 172c66 0 114 -37 114 -95c0 -84 -106 -171 -218 -171c-64 0 -96 30 -96 94z" />
      </symbol>
   </defs>
   <style type="text/css">g.page-margin{font-family:Times;} g.ending, g.fing, g.reh, g.tempo{font-weight:bold;} g.dir, g.dynam, g.mNum{font-style:italic;} g.label{font-weight:normal;}</style>
   <svg class="definition-scale" color="black" viewBox="0 0 21000 29700">
      <g class="page-margin" transform="translate(500, 500)">
         <g id="mf7rtq2" class="mdiv pageMilestone" />
         <g id="s1tfd6du" class="score pageMilestone" />
         <g id="szlqxnw" class="system">
            <g id="lsqurrd" class="label">
               <text x="1105" y="1535" text-anchor="end" font-size="0px">
                  <tspan id="t17kptmi" class="text">
                     <tspan font-size="405px" class="text">Piano</tspan>
                  </tspan>
               </text>
            </g>
            <g id="s32lxhw" class="section systemMilestone" />
            <g id="p1rqfwt1" class="pb" />
            <g id="mpf08pg" class="measure">
               <g id="mnaxdqe" class="mNum">
                  <text x="1285" y="842" text-anchor="middle" font-size="0px" />
               </g>
               <g id="s2724wh" class="staff">
                  <path d="M1285 1085 L4008 1085" stroke="currentColor" stroke-width="13" />
                  <path d="M1285 1265 L4008 1265" stroke="currentColor" stroke-width="13" />
                  <path d="M1285 1445 L4008 1445" stroke="currentColor" stroke-width="13" />
                  <path d="M1285 1625 L4008 1625" stroke="currentColor" stroke-width="13" />
                  <path d="M1285 1805 L4008 1805" stroke="currentColor" stroke-width="13" />
                  <g id="cayx08y" class="clef">
                     <use xlink:href="#E050-1qjelkk" x="1375" y="1625" height="720px" width="720px" />
                  </g>
                  <g id="kepvsvx" class="keySig">
                     <g id="k4q2r3i" class="keyAccid">
                        <use xlink:href="#E260-1qjelkk" x="2020" y="1445" height="720px" width="720px" />
                     </g>
                  </g>
                  <g id="m2icxiu" class="meterSig">
                     <use xlink:href="#E082-1qjelkk" x="2328" y="1265" height="720px" width="720px" />
                     <use xlink:href="#E084-1qjelkk" x="2333" y="1625" height="720px" width="720px" />
                  </g>
                  <g id="l19xq30f" class="layer">
                     <g id="b3nk3xk" class="beam">
                        <polygon points="3109,995 3674,905 3674,995 3109,1085" />
                        <g id="n1afy5t4" class="note">
                           <g class="notehead">
                              <use xlink:href="#E0A4-1qjelkk" x="2901" y="1625" height="720px" width="720px" />
                           </g>
                           <g id="sx4g8ug" class="stem">
                              <rect x="3109" y="1013" height="584" width="18" />
                           </g>
                        </g>
                        <g id="nvqtjk9" class="note">
                           <g class="notehead">
                              <use xlink:href="#E0A4-1qjelkk" x="3448" y="1535" height="720px" width="720px" />
                           </g>
                           <g id="s14m7u9r" class="stem">
                              <rect x="3656" y="923" height="584" width="18" />
                           </g>
                        </g>
                     </g>
                  </g>
               </g>
               <g id="b1tol3x9" class="barLine">
                  <path d="M3995 1085 L3995 1805" stroke="currentColor" stroke-width="27" />
               </g>
            </g>
            <g id="m1up6mf" class="measure">
               <g id="s1s087xj" class="staff">
                  <path d="M4008 1085 L6388 1085" stroke="currentColor" stroke-width="13" />
                  <path d="M4008 1265 L6388 1265" stroke="currentColor" stroke-width="13" />
                  <path d="M4008 1445 L6388 1445" stroke="currentColor" stroke-width="13" />
                  <path d="M4008 1625 L6388 1625" stroke="currentColor" stroke-width="13" />
                  <path d="M4008 1805 L6388 1805" stroke="currentColor" stroke-width="13" />
                  <g id="lwt4olh" class="layer">
                     <g id="b5imlw0" class="beam">
                        <polygon points="4396,860 4961,860 4961,950 4396,950" />
                        <g id="nvq4ebt" class="note">
                           <g class="notehead">
                              <use xlink:href="#E0A4-1qjelkk" x="4188" y="1445" height="720px" width="720px" />
                           </g>
                           <g id="skh6l49" class="stem">
                              <rect x="4396" y="878" height="539" width="18" />
                           </g>
                           <g id="am5vg86" class="accid" />
                        </g>
                        <g id="nhxnu7i" class="note">
                           <g class="notehead">
                              <use xlink:href="#E0A4-1qjelkk" x="4735" y="1445" height="720px" width="720px" />
                           </g>
                           <g id="s19hvvvy" class="stem">
                              <rect x="4943" y="878" height="539" width="18" />
                           </g>
                           <g id="a17t8kqd" class="accid" />
                        </g>
                     </g>
                     <g id="b1r6arw" class="beam">
                        <polygon points="5490,905 6054,905 6054,995 5490,995" />
                        <g id="n1jcrdn6" class="note">
                           <g class="notehead">
                              <use xlink:href="#E0A4-1qjelkk" x="5282" y="1535" height="720px" width="720px" />
                           </g>
                           <g id="siyak7f" class="stem">
                              <rect x="5490" y="923" height="584" width="18" />
                           </g>
                        </g>
                        <g id="n1n2ym2n" class="note">
                           <g class="notehead">
                              <use xlink:href="#E0A4-1qjelkk" x="5828" y="1535" height="720px" width="720px" />
                           </g>
                           <g id="s1npi0sa" class="stem">
                              <rect x="6036" y="923" height="584" width="18" />
                           </g>
                        </g>
                     </g>
                  </g>
               </g>
               <g id="b1tvpet0" class="barLine">
                  <path d="M6375 1085 L6375 1805" stroke="currentColor" stroke-width="27" />
               </g>
            </g>
            <g id="me186gy" class="measure">
               <g id="s1ws02y2" class="staff">
                  <path d="M6388 1085 L8768 1085" stroke="currentColor" stroke-width="13" />
                  <path d="M6388 1265 L8768 1265" stroke="currentColor" stroke-width="13" />
                  <path d="M6388 1445 L8768 1445" stroke="currentColor" stroke-width="13" />
                  <path d="M6388 1625 L8768 1625" stroke="currentColor" stroke-width="13" />
                  <path d="M6388 1805 L8768 1805" stroke="currentColor" stroke-width="13" />
                  <g id="ls919sl" class="layer">
                     <g id="bowkia4" class="beam">
                        <polygon points="6776,995 7341,905 7341,995 6776,1085" />
                        <g id="nf1iqbe" class="note">
                           <g class="notehead">
                              <use xlink:href="#E0A4-1qjelkk" x="6568" y="1625" height="720px" width="720px" />
                           </g>
                           <g id="s15gu4eq" class="stem">
                              <rect x="6776" y="1013" height="584" width="18" />
                           </g>
                        </g>
                        <g id="n1k7r0cj" class="note">
                           <g class="notehead">
                              <use xlink:href="#E0A4-1qjelkk" x="7115" y="1535" height="720px" width="720px" />
                           </g>
                           <g id="s1y0t2qg" class="stem">
                              <rect x="7323" y="923" height="584" width="18" />
                           </g>
                        </g>
                     </g>
                     <g id="b1ll2ggy" class="beam">
                        <polygon points="7870,860 8434,860 8434,950 7870,950" />
                        <g id="n1r4csqc" class="note">
                           <g class="notehead">
                              <use xlink:href="#E0A4-1qjelkk" x="7662" y="1445" height="720px" width="720px" />
                           </g>
                           <g id="s1o523vu" class="stem">
                              <rect x="7870" y="878" height="539" width="18" />
                           </g>
                           <g id="a17k7hzq" class="accid" />
                        </g>
                        <g id="nsesxrs" class="note">
                           <g class="notehead">
                              <use xlink:href="#E0A4-1qjelkk" x="8208" y="1445" height="720px" width="720px" />
                           </g>
                           <g id="s9byxmo" class="stem">
                              <rect x="8416" y="878" height="539" width="18" />
                           </g>
                           <g id="av6mttl" class="accid" />
                        </g>
                     </g>
                  </g>
               </g>
               <g id="benrgw9" class="barLine">
                  <path d="M8755 1085 L8755 1805" stroke="currentColor" stroke-width="27" />
               </g>
            </g>
            <g id="m5c98yl" class="measure">
               <g id="s1ic9gef" class="staff">
                  <path d="M8768 1085 L10894 1085" stroke="currentColor" stroke-width="13" />
                  <path d="M8768 1265 L10894 1265" stroke="currentColor" stroke-width="13" />
                  <path d="M8768 1445 L10894 1445" stroke="currentColor" stroke-width="13" />
                  <path d="M8768 1625 L10894 1625" stroke="currentColor" stroke-width="13" />
                  <path d="M8768 1805 L10894 1805" stroke="currentColor" stroke-width="13" />
                  <g id="l1s1tpzd" class="layer">
                     <g id="nnlu9ht" class="note">
                        <g class="notehead">
                           <use xlink:href="#E0A4-1qjelkk" x="8948" y="1535" height="720px" width="720px" />
                        </g>
                        <g id="syamepf" class="stem">
                           <rect x="9156" y="905" height="602" width="18" />
                        </g>
                     </g>
                     <g id="b1hai1cw" class="beam">
                        <polygon points="9995,995 10560,905 10560,995 9995,1085" />
                        <g id="numhn6r" class="note">
                           <g class="notehead">
                              <use xlink:href="#E0A4-1qjelkk" x="9787" y="1625" height="720px" width="720px" />
                           </g>
                           <g id="s1urzs2v" class="stem">
                              <rect x="9995" y="1013" height="584" width="18" />
                           </g>
                        </g>
                        <g id="nl8lxe8" class="note">
                           <g class="notehead">
                              <use xlink:href="#E0A4-1qjelkk" x="10334" y="1535" height="720px" width="720px" />
                           </g>
                           <g id="swb5xcx" class="stem">
                              <rect x="10542" y="923" height="584" width="18" />
                           </g>
                        </g>
                     </g>
                  </g>
               </g>
               <g id="b12yr7vs" class="barLine">
                  <path d="M10881 1085 L10881 1805" stroke="currentColor" stroke-width="27" />
               </g>
            </g>
            <g id="mh3hfya" class="measure">
               <g id="svwn7do" class="staff">
                  <path d="M10894 1085 L13119 1085" stroke="currentColor" stroke-width="13" />
                  <path d="M10894 1265 L13119 1265" stroke="currentColor" stroke-width="13" />
                  <path d="M10894 1445 L13119 1445" stroke="currentColor" stroke-width="13" />
                  <path d="M10894 1625 L13119 1625" stroke="currentColor" stroke-width="13" />
                  <path d="M10894 1805 L13119 1805" stroke="currentColor" stroke-width="13" />
                  <g id="lrs0z1u" class="layer">
                     <g id="bl4o9hj" class="beam">
                        <polygon points="11282,860 11847,860 11847,950 11282,950" />
                        <g id="nxqolzh" class="note">
                           <g class="notehead">
                              <use xlink:href="#E0A4-1qjelkk" x="11074" y="1445" height="720px" width="720px" />
                           </g>
                           <g id="sig8ki7" class="stem">
                              <rect x="11282" y="878" height="539" width="18" />
                           </g>
                           <g id="a1t26vqo" class="accid" />
                        </g>
                        <g id="n1nlxl1d" class="note">
                           <g class="notehead">
                              <use xlink:href="#E0A4-1qjelkk" x="11621" y="1445" height="720px" width="720px" />
                           </g>
                           <g id="s1b5ls3t" class="stem">
                              <rect x="11829" y="878" height="539" width="18" />
                           </g>
                           <g id="a1bqcgey" class="accid" />
                        </g>
                     </g>
                     <g id="n1cj0zb4" class="note">
                        <g class="notehead">
                           <use xlink:href="#E0A4-1qjelkk" x="12168" y="1535" height="720px" width="720px" />
                        </g>
                        <g id="sel26pb" class="stem">
                           <rect x="12376" y="905" height="602" width="18" />
                        </g>
                     </g>
                  </g>
               </g>
               <g id="b19kvt4" class="barLine">
                  <path d="M13007 1085 L13007 1805" stroke="currentColor" stroke-width="27" />
                  <path d="M13106 1085 L13106 1805" stroke="currentColor" stroke-width="27" />
               </g>
            </g>
            <g id="mv9ukm3" class="measure">
               <g id="sk16b8u" class="staff">
                  <path d="M13119 1085 L15499 1085" stroke="currentColor" stroke-width="13" />
                  <path d="M13119 1265 L15499 1265" stroke="currentColor" stroke-width="13" />
                  <path d="M13119 1445 L15499 1445" stroke="currentColor" stroke-width="13" />
                  <path d="M13119 1625 L15499 1625" stroke="currentColor" stroke-width="13" />
                  <path d="M13119 1805 L15499 1805" stroke="currentColor" stroke-width="13" />
                  <g id="l15dodfh" class="layer">
                     <g id="bjsqjwr" class="beam">
                        <polygon points="13507,995 14072,905 14072,995 13507,1085" />
                        <g id="naekw67" class="note">
                           <g class="notehead">
                              <use xlink:href="#E0A4-1qjelkk" x="13299" y="1625" height="720px" width="720px" />
                           </g>
                           <g id="s1ex6cjl" class="stem">
                              <rect x="13507" y="1013" height="584" width="18" />
                           </g>
                        </g>
                        <g id="n1e2acjg" class="note">
                           <g class="notehead">
                              <use xlink:href="#E0A4-1qjelkk" x="13846" y="1535" height="720px" width="720px" />
                           </g>
                           <g id="s1udkmod" class="stem">
                              <rect x="14054" y="923" height="584" width="18" />
                           </g>
                        </g>
                     </g>
                     <g id="b1hfs7sw" class="beam">
                        <polygon points="14601,860 15165,860 15165,950 14601,950" />
                        <g id="n1dolglq" class="note">
                           <g class="notehead">
                              <use xlink:href="#E0A4-1qjelkk" x="14393" y="1445" height="720px" width="720px" />
                           </g>
                           <g id="snpznpk" class="stem">
                              <rect x="14601" y="878" height="539" width="18" />
                           </g>
                           <g id="ax1fvuu" class="accid" />
                        </g>
                        <g id="n10khsk3" class="note">
                           <g class="notehead">
                              <use xlink:href="#E0A4-1qjelkk" x="14939" y="1445" height="720px" width="720px" />
                           </g>
                           <g id="sagum9c" class="stem">
                              <rect x="15147" y="878" height="539" width="18" />
                           </g>
                           <g id="ad6ahnv" class="accid" />
                        </g>
                     </g>
                  </g>
               </g>
               <g id="b5y5tlp" class="barLine">
                  <path d="M15486 1085 L15486 1805" stroke="currentColor" stroke-width="27" />
               </g>
            </g>
            <g id="m1r0ci7t" class="measure">
               <g id="s1ckd1zv" class="staff">
                  <path d="M15499 1085 L17879 1085" stroke="currentColor" stroke-width="13" />
                  <path d="M15499 1265 L17879 1265" stroke="currentColor" stroke-width="13" />
                  <path d="M15499 1445 L17879 1445" stroke="currentColor" stroke-width="13" />
                  <path d="M15499 1625 L17879 1625" stroke="currentColor" stroke-width="13" />
                  <path d="M15499 1805 L17879 1805" stroke="currentColor" stroke-width="13" />
                  <g id="llndlt0" class="layer">
                     <g id="b1ws0i8p" class="beam">
                        <polygon points="15887,905 16452,905 16452,995 15887,995" />
                        <g id="nqcq2f6" class="note">
                           <g class="notehead">
                              <use xlink:href="#E0A4-1qjelkk" x="15679" y="1535" height="720px" width="720px" />
                           </g>
                           <g id="s1c9n1lo" class="stem">
                              <rect x="15887" y="923" height="584" width="18" />
                           </g>
                        </g>
                        <g id="n179wpwj" class="note">
                           <g class="notehead">
                              <use xlink:href="#E0A4-1qjelkk" x="16226" y="1535" height="720px" width="720px" />
                           </g>
                           <g id="skcrwh0" class="stem">
                              <rect x="16434" y="923" height="584" width="18" />
                           </g>
                        </g>
                     </g>
                     <g id="b9ba1qf" class="beam">
                        <polygon points="16981,1040 17545,1040 17545,1130 16981,1130" />
                        <g id="nwlxadn" class="note">
                           <g class="notehead">
                              <use xlink:href="#E0A4-1qjelkk" x="16773" y="1625" height="720px" width="720px" />
                           </g>
                           <g id="s3y41c3" class="stem">
                              <rect x="16981" y="1058" height="539" width="18" />
                           </g>
                        </g>
                        <g id="n98p9zk" class="note">
                           <g class="notehead">
                              <use xlink:href="#E0A4-1qjelkk" x="17319" y="1625" height="720px" width="720px" />
                           </g>
                           <g id="s1qpk3jo" class="stem">
                              <rect x="17527" y="1058" height="539" width="18" />
                           </g>
                        </g>
                     </g>
                  </g>
               </g>
               <g id="b93q1pm" class="barLine">
                  <path d="M17866 1085 L17866 1805" stroke="currentColor" stroke-width="27" />
               </g>
            </g>
            <g id="mupokoq" class="measure">
               <g id="smada2z" class="staff">
                  <path d="M17879 1085 L20005 1085" stroke="currentColor" stroke-width="13" />
                  <path d="M17879 1265 L20005 1265" stroke="currentColor" stroke-width="13" />
                  <path d="M17879 1445 L20005 1445" stroke="currentColor" stroke-width="13" />
                  <path d="M17879 1625 L20005 1625" stroke="currentColor" stroke-width="13" />
                  <path d="M17879 1805 L20005 1805" stroke="currentColor" stroke-width="13" />
                  <g id="l1xnlqmp" class="layer">
                     <g id="b18qfwl0" class="beam">
                        <polygon points="18267,1085 18832,1175 18832,1265 18267,1175" />
                        <g id="n1xqdvr9" class="note">
                           <g class="notehead">
                              <use xlink:href="#E0A4-1qjelkk" x="18059" y="1715" height="720px" width="720px" />
                           </g>
                           <g id="s1riij02" class="stem">
                              <rect x="18267" y="1103" height="584" width="18" />
                           </g>
                        </g>
                        <g id="n7qed0g" class="note">
                           <g class="notehead">
                              <use xlink:href="#E0A4-1qjelkk" x="18606" y="1805" height="720px" width="720px" />
                           </g>
                           <g id="szg9ocm" class="stem">
                              <rect x="18814" y="1193" height="584" width="18" />
                           </g>
                        </g>
                     </g>
                     <g id="n1qa949w" class="note">
                        <g class="notehead">
                           <use xlink:href="#E0A4-1qjelkk" x="19153" y="1895" height="720px" width="720px" />
                        </g>
                        <g id="s1s2cn0r" class="stem">
                           <rect x="19361" y="1265" height="602" width="18" />
                        </g>
                     </g>
                  </g>
               </g>
               <g id="b1beio1l" class="barLine">
                  <path d="M19992 1085 L19992 1805" stroke="currentColor" stroke-width="27" />
               </g>
            </g>
         </g>
         <g id="s15o56ut" class="system">
            <g id="l11oj8j7" class="labelAbbr">
               <text x="914" y="3884" text-anchor="end" font-size="0px">
                  <tspan id="tm1csj6" class="text">
                     <tspan font-size="405px" class="text">Pno.</tspan>
                  </tspan>
               </text>
            </g>
            <g id="m1x4rc5c" class="measure">
               <g id="mnttc1e" class="mNum autogenerated">
                  <text x="1094" y="3191" text-anchor="middle" font-size="0px">
                     <tspan id="t3davki" class="text">
                        <tspan font-size="324px" class="text">8</tspan>
                     </tspan>
                  </text>
               </g>
               <g id="s1lrkihz" class="staff">
                  <path d="M1094 3434 L4446 3434" stroke="currentColor" stroke-width="13" />
                  <path d="M1094 3614 L4446 3614" stroke="currentColor" stroke-width="13" />
                  <path d="M1094 3794 L4446 3794" stroke="currentColor" stroke-width="13" />
                  <path d="M1094 3974 L4446 3974" stroke="currentColor" stroke-width="13" />
                  <path d="M1094 4154 L4446 4154" stroke="currentColor" stroke-width="13" />
                  <g id="c32zsdp" class="clef">
                     <use xlink:href="#E050-1qjelkk" x="1184" y="3974" height="720px" width="720px" />
                  </g>
                  <g id="ki9jof1" class="keySig">
                     <g id="k1ikjeo" class="keyAccid">
                        <use xlink:href="#E260-1qjelkk" x="1829" y="3794" height="720px" width="720px" />
                     </g>
                  </g>
                  <g id="l15ialz0" class="layer">
                     <g id="b1uczdza" class="beam">
                        <polygon points="2449,3344 3015,3254 3015,3344 2449,3434" />
                        <g id="nckw36d" class="note">
                           <g class="notehead">
                              <use xlink:href="#E0A4-1qjelkk" x="2241" y="3974" height="720px" width="720px" />
                           </g>
                           <g id="s45waku" class="stem">
                              <rect x="2449" y="3362" height="584" width="18" />
                           </g>
                        </g>
                        <g id="n1pr99s3" class="note">
                           <g class="notehead">
                              <use xlink:href="#E0A4-1qjelkk" x="2789" y="3884" height="720px" width="720px" />
                           </g>
                           <g id="s17ztlqf" class="stem">
                              <rect x="2997" y="3272" height="584" width="18" />
                           </g>
                        </g>
                     </g>
                     <g id="b1fczu7e" class="beam">
                        <polygon points="3545,3209 4111,3209 4111,3299 3545,3299" />
                        <g id="nkklcg0" class="note">
                           <g class="notehead">
                              <use xlink:href="#E0A4-1qjelkk" x="3337" y="3794" height="720px" width="720px" />
                           </g>
                           <g id="s1kpeiw8" class="stem">
                              <rect x="3545" y="3227" height="539" width="18" />
                           </g>
                           <g id="a1y9lcc6" class="accid" />
                        </g>
                        <g id="nmxjubz" class="note">
                           <g class="notehead">
                              <use xlink:href="#E0A4-1qjelkk" x="3885" y="3794" height="720px" width="720px" />
                           </g>
                           <g id="slocv4a" class="stem">
                              <rect x="4093" y="3227" height="539" width="18" />
                           </g>
                           <g id="a14xuzix" class="accid" />
                        </g>
                     </g>
                  </g>
               </g>
               <g id="b1cgonvj" class="barLine">
                  <path d="M4433 3434 L4433 4154" stroke="currentColor" stroke-width="27" />
               </g>
            </g>
            <g id="m18tiqam" class="measure">
               <g id="shzhdn" class="staff">
                  <path d="M4446 3434 L6321 3434" stroke="currentColor" stroke-width="13" />
                  <path d="M4446 3614 L6321 3614" stroke="currentColor" stroke-width="13" />
                  <path d="M4446 3794 L6321 3794" stroke="currentColor" stroke-width="13" />
                  <path d="M4446 3974 L6321 3974" stroke="currentColor" stroke-width="13" />
                  <path d="M4446 4154 L6321 4154" stroke="currentColor" stroke-width="13" />
                  <g id="l1hbi4x9" class="layer">
                     <g id="nr9xvvl" class="note">
                        <g class="notehead">
                           <use xlink:href="#E0A4-1qjelkk" x="4626" y="3884" height="720px" width="720px" />
                        </g>
                        <g id="sgd0z80" class="stem">
                           <rect x="4834" y="3254" height="602" width="18" />
                        </g>
                     </g>
                     <g id="nbuzw1o" class="note">
                        <g class="notehead">
                           <use xlink:href="#E0A4-1qjelkk" x="5467" y="3974" height="720px" width="720px" />
                        </g>
                        <g id="sxqwasd" class="stem">
                           <rect x="5675" y="3344" height="602" width="18" />
                        </g>
                     </g>
                  </g>
               </g>
               <g id="bx8ns96" class="barLine">
                  <path d="M6308 3434 L6308 4154" stroke="currentColor" stroke-width="27" />
               </g>
            </g>
            <g id="s1oecyvt" class="sb" />
            <g id="mpiqzh6" class="measure">
               <g id="s1enrraw" class="staff">
                  <path d="M6321 3434 L8451 3434" stroke="currentColor" stroke-width="13" />
                  <path d="M6321 3614 L8451 3614" stroke="currentColor" stroke-width="13" />
                  <path d="M6321 3794 L8451 3794" stroke="currentColor" stroke-width="13" />
                  <path d="M6321 3974 L8451 3974" stroke="currentColor" stroke-width="13" />
                  <path d="M6321 4154 L8451 4154" stroke="currentColor" stroke-width="13" />
                  <g id="l14u27fn" class="layer">
                     <g id="n9ch8s4" class="note">
                        <g class="notehead">
                           <use xlink:href="#E0A4-1qjelkk" x="6501" y="4244" height="720px" width="720px" />
                        </g>
                        <g id="s13zqclr" class="stem">
                           <rect x="6709" y="3614" height="602" width="18" />
                        </g>
                     </g>
                     <g id="bnmcoeq" class="beam">
                        <polygon points="7550,3344 8116,3254 8116,3344 7550,3434" />
                        <g id="nolieqz" class="note">
                           <g class="notehead">
                              <use xlink:href="#E0A4-1qjelkk" x="7342" y="3974" height="720px" width="720px" />
                           </g>
                           <g id="s1xossxk" class="stem">
                              <rect x="7550" y="3362" height="584" width="18" />
                           </g>
                        </g>
                        <g id="n18v1v2g" class="note">
                           <g class="notehead">
                              <use xlink:href="#E0A4-1qjelkk" x="7890" y="3884" height="720px" width="720px" />
                           </g>
                           <g id="s54g0hx" class="stem">
                              <rect x="8098" y="3272" height="584" width="18" />
                           </g>
                        </g>
                     </g>
                  </g>
               </g>
               <g id="b1lprssb" class="barLine">
                  <path d="M8438 3434 L8438 4154" stroke="currentColor" stroke-width="27" />
               </g>
            </g>
            <g id="m1rijkzi" class="measure">
               <g id="sxmv4zr" class="staff">
                  <path d="M8451 3434 L10836 3434" stroke="currentColor" stroke-width="13" />
                  <path d="M8451 3614 L10836 3614" stroke="currentColor" stroke-width="13" />
                  <path d="M8451 3794 L10836 3794" stroke="currentColor" stroke-width="13" />
                  <path d="M8451 3974 L10836 3974" stroke="currentColor" stroke-width="13" />
                  <path d="M8451 4154 L10836 4154" stroke="currentColor" stroke-width="13" />
                  <g id="l15ta0m2" class="layer">
                     <g id="b11j6125" class="beam">
                        <polygon points="8839,3209 9405,3209 9405,3299 8839,3299" />
                        <g id="n1metfq8" class="note">
                           <g class="notehead">
                              <use xlink:href="#E0A4-1qjelkk" x="8631" y="3794" height="720px" width="720px" />
                           </g>
                           <g id="sixywmz" class="stem">
                              <rect x="8839" y="3227" height="539" width="18" />
                           </g>
                           <g id="a1wieg6y" class="accid" />
                        </g>
                        <g id="npnqzvb" class="note">
                           <g class="notehead">
                              <use xlink:href="#E0A4-1qjelkk" x="9179" y="3794" height="720px" width="720px" />
                           </g>
                           <g id="s1crjtqr" class="stem">
                              <rect x="9387" y="3227" height="539" width="18" />
                           </g>
                           <g id="awdwst4" class="accid" />
                        </g>
                     </g>
                     <g id="b1b1v5tr" class="beam">
                        <polygon points="9935,3254 10501,3254 10501,3344 9935,3344" />
                        <g id="nbfv3wr" class="note">
                           <g class="notehead">
                              <use xlink:href="#E0A4-1qjelkk" x="9727" y="3884" height="720px" width="720px" />
                           </g>
                           <g id="s13ofn1z" class="stem">
                              <rect x="9935" y="3272" height="584" width="18" />
                           </g>
                        </g>
                        <g id="n1vlp5fx" class="note">
                           <g class="notehead">
                              <use xlink:href="#E0A4-1qjelkk" x="10275" y="3884" height="720px" width="720px" />
                           </g>
                           <g id="s7n2e0c" class="stem">
                              <rect x="10483" y="3272" height="584" width="18" />
                           </g>
                        </g>
                     </g>
                  </g>
               </g>
               <g id="b1ehe52h" class="barLine">
                  <path d="M10823 3434 L10823 4154" stroke="currentColor" stroke-width="27" />
               </g>
            </g>
            <g id="mqb57j2" class="measure">
               <g id="sp646nr" class="staff">
                  <path d="M10836 3434 L13221 3434" stroke="currentColor" stroke-width="13" />
                  <path d="M10836 3614 L13221 3614" stroke="currentColor" stroke-width="13" />
                  <path d="M10836 3794 L13221 3794" stroke="currentColor" stroke-width="13" />
                  <path d="M10836 3974 L13221 3974" stroke="currentColor" stroke-width="13" />
                  <path d="M10836 4154 L13221 4154" stroke="currentColor" stroke-width="13" />
                  <g id="l1pofniw" class="layer">
                     <g id="b11vjctt" class="beam">
                        <polygon points="11224,3389 11790,3389 11790,3479 11224,3479" />
                        <g id="ns9ttkb" class="note">
                           <g class="notehead">
                              <use xlink:href="#E0A4-1qjelkk" x="11016" y="3974" height="720px" width="720px" />
                           </g>
                           <g id="sekn9ba" class="stem">
                              <rect x="11224" y="3407" height="539" width="18" />
                           </g>
                        </g>
                        <g id="nx9ut1y" class="note">
                           <g class="notehead">
                              <use xlink:href="#E0A4-1qjelkk" x="11564" y="3974" height="720px" width="720px" />
                           </g>
                           <g id="s1x0d4xa" class="stem">
                              <rect x="11772" y="3407" height="539" width="18" />
                           </g>
                        </g>
                     </g>
                     <g id="b1s0h5aj" class="beam">
                        <polygon points="12320,3344 12886,3434 12886,3524 12320,3434" />
                        <g id="nrnxut3" class="note">
                           <g class="notehead">
                              <use xlink:href="#E0A4-1qjelkk" x="12112" y="3974" height="720px" width="720px" />
                           </g>
                           <g id="siypv89" class="stem">
                              <rect x="12320" y="3362" height="584" width="18" />
                           </g>
                        </g>
                        <g id="n1p7q4u8" class="note">
                           <g class="notehead">
                              <use xlink:href="#E0A4-1qjelkk" x="12660" y="4064" height="720px" width="720px" />
                           </g>
                           <g id="sl465mf" class="stem">
                              <rect x="12868" y="3452" height="584" width="18" />
                           </g>
                        </g>
                     </g>
                  </g>
               </g>
               <g id="b1j9pxtu" class="barLine">
                  <path d="M13208 3434 L13208 4154" stroke="currentColor" stroke-width="27" />
               </g>
            </g>
            <g id="m1lkgd48" class="measure">
               <g id="s17vlnd6" class="staff">
                  <path d="M13221 3434 L14875 3434" stroke="currentColor" stroke-width="13" />
                  <path d="M13221 3614 L14875 3614" stroke="currentColor" stroke-width="13" />
                  <path d="M13221 3794 L14875 3794" stroke="currentColor" stroke-width="13" />
                  <path d="M13221 3974 L14875 3974" stroke="currentColor" stroke-width="13" />
                  <path d="M13221 4154 L14875 4154" stroke="currentColor" stroke-width="13" />
                  <g id="m1og3nj4" class="meterSig">
                     <use xlink:href="#E081-1qjelkk" x="13330" y="3614" height="720px" width="720px" />
                     <use xlink:href="#E084-1qjelkk" x="13297" y="3974" height="720px" width="720px" />
                  </g>
                  <g id="l1w8mbx3" class="layer">
                     <g id="n1o80x0d" class="note">
                        <g class="notehead">
                           <use xlink:href="#E0A4-1qjelkk" x="13859" y="3974" height="720px" width="720px" />
                        </g>
                        <g id="s1789dpo" class="stem">
                           <rect x="14067" y="3344" height="602" width="18" />
                        </g>
                     </g>
                  </g>
               </g>
               <g id="b14axdqc" class="barLine">
                  <path d="M14700 3434 L14700 4154" stroke="currentColor" stroke-width="27" />
                  <path d="M14830 3434 L14830 4154" stroke="currentColor" stroke-width="90" />
               </g>
            </g>
            <g id="s1v2cwni" class="systemMilestoneEnd s32lxhw" />
         </g>
         <g id="p11xc072" class="pageMilestoneEnd s1tfd6du" />
         <g id="pyko1k" class="pageMilestoneEnd mf7rtq2" />
         <g id="p1ofz08l" class="pgHead">
            <text x="0" y="0" font-size="0px">
               <tspan id="r1ommmnw" class="rend" x="10000" y="277" text-anchor="middle">
                  <tspan id="t5p98dm" class="text">
                     <tspan font-size="405px" class="text">Air n 122</tspan>
                  </tspan>
               </tspan>
            </text>
         </g>
         <g id="p19g5f7s" class="pgFoot autogenerated">
            <g id="foci20a" class="fig">
               <g id="sqqjgk0" class="svg" transform="translate(7750, 28099) scale(10, 10)">
                  <g>
                     <path fill="#00000" d="M 17.11278,49.26451 V 10.367554 h 12.696511 c 3.288815,7.336676 6.71267,14.610456 10.127281,21.888976 3.419998,-7.484684 6.255515,-14.204887 9.58887,-21.909915 2.436207,0.103726 4.316952,0.08453 6.484294,-0.05808 V 49.264423 H 50.274275 C 50.145222,38.35639 50.016136,27.448368 49.887066,16.540329 45.003488,27.315459 39.967448,38.433564 35.083854,49.208695 34.678996,49.343717 34.426583,49.135619 34.021726,49.270644 29.46588,39.330716 24.910049,29.390805 20.354201,19.450876 20.224341,29.388756 20.09461,39.326619 19.964815,49.264497 H 17.11278 Z M 36.754144,39.324695 C 32.721221,30.512695 28.6883,21.700679 24.655394,12.888662 22.530527,12.750737 22.656775,12.71031 20.714356,12.813974 v 0.966497 c 4.612938,9.99784 9.609439,20.748709 13.87298,30.081745 0.722248,-1.512523 1.444528,-3.025014 2.166808,-4.537521 z m 25.738417,9.939815 c 0,-12.965651 0,-25.931305 0,-38.896956 10.084388,0 20.168791,0 30.253178,0 0,0.960416 0,1.920849 0,2.881265 -6.482825,0 -12.965652,0 -19.448478,0 0,4.802097 0,9.604178 0,14.406277 5.52241,0 11.044819,0 16.567229,0 0,0.960415 0,1.920832 0,2.881248 -5.52241,0 -11.044819,0 -16.567229,0 0,5.282306 0,10.564611 0,15.846917 6.963035,0 13.926068,0 20.889103,0 0,0.960416 0,1.920832 0,2.881249 -10.564597,0 -21.129207,0 -31.693803,0 z m 4.321874,-2.160937 c 0,-11.765131 0,-23.530263 0,-35.295394 -0.720312,0 -1.440625,0 -2.160937,0 0,11.765131 0,23.530263 0,35.295394 0.720312,0 1.440625,0 2.160937,0 z m 32.41413,2.160937 c 0,-12.965651 0,-25.931305 0,-38.896956 2.401045,0 4.802095,0 7.203135,0 0,12.965651 0,25.931305 0,38.896956 -2.40104,0 -4.80209,0 -7.203135,0 z m 2.881265,-2.160937 c 0,-11.765131 0,-23.530263 0,-35.295394 -0.72031,0 -1.44064,0 -2.160953,0 0,11.765131 0,23.530263 0,35.295394 0.720313,0 1.440643,0 2.160953,0 z" />
                     <path fill="#00000" d="m 346.3,6.7 c -3.1,0.5 -4.9,4.4 -2.7,6.8 1.2,1.4 2.7,2.4 4.1,3.5 -2.4,5.3 -7.7,8.3 -11.9,12.1 -3.7,2.8 -7,6.2 -9.7,9.9 -2.2,-0.8 -0.3,-6.8 -0.6,-9.5 0.1,-3.1 0.7,-6.4 2.9,-8.7 1.3,-1.9 3,-3.5 4.5,-5.2 1.2,-3.4 -3.2,-4.9 -5.8,-4.6 -7.3,-0.5 -14.6,2 -20,6.8 -5,4.6 -10,10.1 -11.5,17 -0.9,3.5 -0.2,7.5 2.8,9.9 2.5,2.8 7.4,2.9 9.8,-0.2 1.7,-2.3 3.2,-4.8 3.8,-7.6 -0.1,-2.6 -4.4,-2.3 -4.3,0.2 1.2,2.4 -0.9,4.7 -2.7,6.2 -1.7,0.9 -4.7,0.7 -4.8,-1.7 -1,-5.8 2.1,-11.3 5.2,-16.1 4,-5.8 9.8,-11.2 17.2,-11.8 1.6,0 8.1,-1.2 6.8,1.4 -2.8,2.8 -5.6,6.1 -6,10.3 -1.6,7.7 0.1,15.7 -2.3,23.2 -1.1,3.9 2,2.6 2.5,0.2 3.3,-7.4 8.9,-13.4 15.1,-18.5 4.2,-3.9 9.5,-7.1 11.9,-12.6 1.3,-3.6 1.2,-9 -2.7,-10.9 -0.6,-0.2 -1.2,-0.3 -1.8,-0.3 z m 66,14.5 c -2,0.8 -1.8,4.9 0.8,4.4 3.4,0.4 2.9,-6.2 -0.8,-4.4 z m 0.6,7.3 c -1.3,0.5 -7.6,0.5 -5.4,2.2 4,-0.3 0.7,4.5 0.6,6.7 -0.4,2.9 -2.4,5.9 -1.2,8.8 2.7,1.7 5.6,-0.8 6.8,-3.2 1.6,-1.4 -0.5,-3 -1.2,-0.9 -0.4,0.8 -2.4,3.5 -2.6,1.8 1.1,-5 2.7,-9.9 3.9,-14.9 l -0.1,-0.5 h -0.9 z m -65.1,0.2 c -6.5,1.6 -10.5,9.5 -8.2,15.7 2.1,3.4 7.4,2.9 10.1,0.4 2,-0.2 3.6,-5.3 1,-3.4 -1.4,2 -4,4.2 -6.5,2.8 -2.2,-1.9 -1.9,-5.7 1.7,-5.3 3.1,-0.9 6.9,-2.1 8.1,-5.5 0.9,-2.7 -1.6,-5.2 -4.3,-4.8 h -1.1 -0.7 z m 13.6,0 c -2.2,0 -8.5,1.8 -2.9,2.3 0.9,1.9 -1,4.9 -1.1,7.2 -0.5,2.9 -1.4,5.7 -1.7,8.7 3.7,0.7 3.8,-2.6 4.4,-5.3 0.9,-3.3 1.6,-7 4.1,-9.5 2.4,1.6 6.8,-0.7 3.7,-3.4 -2.9,-0.5 -4.8,2.4 -6.2,4.3 0,-1.2 2.4,-5 -0.2,-4.3 z m 15.8,0 c -6.4,1.3 -9.6,9.1 -7.7,14.9 1.9,4 7.7,3.9 11,1.7 4.1,-3 6,-8.9 4.4,-13.7 -1.3,-3 -4.8,-3.2 -7.6,-3 z m 17,0 c -2.3,0 -8.8,1.9 -3,2.4 0.4,2.5 -1,5.7 -1.4,8.4 -0.7,2.4 -1.8,7.5 2.1,7.2 3.8,-0.1 6.5,-3.5 8.5,-6.3 2,-3.2 4.5,-7 3.3,-10.9 -3.7,-3 -3.6,2.6 -3.1,5.1 -0.7,3.8 -2.7,7.9 -6.2,9.8 -3.6,0.6 -1,-4.3 -0.8,-6.1 0.6,-3.2 1.6,-6.3 1.9,-9.5 -0.4,0 -0.8,0 -1.1,0 z m 30.6,0 c -6.3,1.2 -9.5,8.9 -7.8,14.7 1.5,4 7.2,4.2 10.5,2.4 4.6,-2.8 6.6,-9.3 4.8,-14.3 -1.4,-2.8 -4.8,-3 -7.5,-2.8 z m -75.4,1.7 c 2.1,1.5 0.2,4.7 -1.6,5.7 -1.1,0.4 -5.5,3.4 -4.6,0.7 0.8,-2.7 2.2,-6.2 5.3,-6.6 l 0.9,0.1 z m 30.8,0 c 2.6,1.5 1.3,5.2 0.8,7.6 -0.8,2.7 -1.9,5.9 -4.7,7.1 -5.1,0.8 -4,-5.8 -2.8,-8.8 1,-2.8 3,-6.8 6.7,-5.8 z m 47.1,-0.1 c 2.9,0.7 2,4.7 1.5,6.8 -0.7,3 -1.8,6.7 -5,8 -4.7,0.8 -4,-5.1 -3,-7.9 0.9,-3 2.7,-7.3 6.5,-6.8 z m -88.1,5.9 c -0.3,1.3 0.9,-0.6 0,0 z m -1.1,2.4 c -0.2,0.5 0.5,-0.1 0,0 z m -1.3,4.5 c -0.3,1.3 0.8,-0.2 0,0 z" />
                     <text y="41" x="201" fill="#00000" style="font-style:italic;font-weight:normal;font-size:30px;line-height:125%;font-family:Times;text-anchor:middle" xml:space="preserve">engraved with</text>
                  </g>
               </g>
            </g>
         </g>
      </g>
   </svg>
</svg>
