<?xml version="1.0" encoding="UTF-8" standalone="no"?>
<svg width="2100px" height="2970px" version="1.1" xmlns="http://www.w3.org/2000/svg" xmlns:xlink="http://www.w3.org/1999/xlink" xmlns:mei="http://www.music-encoding.org/ns/mei" overflow="visible">
   <desc>Engraved by Verovio 3.13.1</desc>
   <defs>
      <symbol id="E240-1qlaq23" viewBox="0 0 1000 1000" overflow="inherit">
         <path transform="scale(1,-1)" d="M179 -646c15 29 29 55 46 102c18 49 30 108 30 138c0 105 -80 173 -168 200c-18 5 -47 9 -87 16v190h22c8 0 33 -61 71 -95c4 -3 -2 3 61 -56c62 -58 122 -137 122 -241c0 -38 -13 -106 -35 -163c-20 -51 -43 -99 -66 -132c-6 -5 -10 -7 -13 -7s-5 2 -5 5l4 10 c1 3 14 25 18 33z" />
      </symbol>
      <symbol id="E241-1qlaq23" viewBox="0 0 1000 1000" overflow="inherit">
         <path transform="scale(1,-1)" d="M179 646c-4 8 -17 30 -18 33l-4 10c0 3 2 5 5 5s7 -2 13 -7c23 -33 46 -81 66 -132c22 -57 35 -125 35 -163c0 -104 -60 -183 -122 -241c-63 -59 -57 -53 -61 -56c-38 -34 -63 -95 -71 -95h-22v190c40 7 69 11 87 16c88 27 168 95 168 200c0 30 -12 89 -30 138 c-17 47 -31 73 -46 102z" />
      </symbol>
      <symbol id="E260-1qlaq23" viewBox="0 0 1000 1000" overflow="inherit">
         <path transform="scale(1,-1)" d="M20 110c32 16 54 27 93 27c26 0 35 -3 54 -13c13 -7 24 -20 27 -38l4 -25c0 -28 -16 -57 -45 -89c-23 -25 -39 -44 -65 -68l-88 -79v644h20v-359zM90 106c-32 0 -48 -10 -70 -29v-194c31 31 54 59 71 84c21 32 32 59 32 84c0 9 1 16 1 20c0 14 -3 21 -11 30l-8 3z" />
      </symbol>
      <symbol id="E044-1qlaq23" viewBox="0 0 1000 1000" overflow="inherit">
         <path transform="scale(1,-1)" d="M0 0c0 28 22 50 50 50s50 -22 50 -50s-22 -50 -50 -50s-50 22 -50 50z" />
      </symbol>
      <symbol id="E050-1qlaq23" viewBox="0 0 1000 1000" overflow="inherit">
         <path transform="scale(1,-1)" d="M441 -245c-23 -4 -48 -6 -76 -6c-59 0 -102 7 -130 20c-88 42 -150 93 -187 154c-26 44 -43 103 -48 176c0 6 -1 13 -1 19c0 54 15 111 45 170c29 57 65 106 110 148s96 85 153 127c-3 16 -8 46 -13 92c-4 43 -5 73 -5 89c0 117 16 172 69 257c34 54 64 82 89 82 c21 0 43 -30 69 -92s39 -115 41 -159v-15c0 -109 -21 -162 -67 -241c-13 -20 -63 -90 -98 -118c-13 -9 -25 -19 -37 -29l31 -181c8 1 18 2 28 2c58 0 102 -12 133 -35c59 -43 92 -104 98 -184c1 -7 1 -15 1 -22c0 -123 -87 -209 -181 -248c8 -57 17 -110 25 -162 c5 -31 6 -58 6 -80c0 -30 -5 -53 -14 -70c-35 -64 -88 -99 -158 -103c-5 0 -11 -1 -16 -1c-37 0 -72 10 -108 27c-50 24 -77 59 -80 105v11c0 29 7 55 20 76c18 28 45 42 79 44h6c49 0 93 -42 97 -87v-9c0 -51 -34 -86 -105 -106c17 -24 51 -36 102 -36c62 0 116 43 140 85 c9 16 13 41 13 74c0 20 -1 42 -5 67c-8 53 -18 106 -26 159zM461 939c-95 0 -135 -175 -135 -286c0 -24 2 -48 5 -71c50 39 92 82 127 128c40 53 60 100 60 140v8c-4 53 -22 81 -55 81h-2zM406 119l54 -326c73 25 110 78 110 161c0 7 0 15 -1 23c-7 95 -57 142 -151 142h-12 zM382 117c-72 -2 -128 -47 -128 -120v-7c2 -46 43 -99 75 -115c-3 -2 -7 -5 -10 -10c-70 33 -116 88 -123 172v11c0 68 44 126 88 159c23 17 49 29 78 36l-29 170c-21 -13 -52 -37 -92 -73c-50 -44 -86 -84 -109 -119c-45 -69 -67 -130 -67 -182v-13c5 -68 35 -127 93 -176 s125 -73 203 -73c25 0 50 3 75 9c-19 111 -36 221 -54 331z" />
      </symbol>
      <symbol id="E083-1qlaq23" viewBox="0 0 1000 1000" overflow="inherit">
         <path transform="scale(1,-1)" d="M208 250c97 0 177 -52 177 -116c0 -69 -40 -111 -118 -125c56 -5 125 -44 125 -116c0 -31 -10 -57 -31 -78c-19 -21 -45 -38 -78 -49l-50 -11c-15 -3 -36 -7 -55 -7c-50 0 -86 16 -113 38c-16 10 -23 18 -34 34c-7 13 -11 25 -11 38c0 43 27 83 68 83l3 -2 c61 0 75 -42 75 -70c0 -19 -24 -42 -26 -57c7 -17 20 -25 37 -25c44 0 94 29 94 78c0 75 -34 125 -138 125v36c84 0 131 22 131 98c0 54 -37 88 -87 88c-26 0 -43 -7 -51 -22c15 -22 44 -16 44 -70c0 -37 -37 -62 -71 -62c-22 0 -69 15 -69 76c0 79 101 116 178 116z" />
      </symbol>
      <symbol id="E086-1qlaq23" viewBox="0 0 1000 1000" overflow="inherit">
         <path transform="scale(1,-1)" d="M284 -91c0 37 -28 92 -67 92c-35 0 -65 -54 -65 -111c0 -52 22 -104 68 -104c47 0 64 68 64 123zM230 214c-36 0 -90 -33 -90 -184l2 -36c40 24 81 36 120 36c80 0 140 -48 140 -121c0 -99 -99 -159 -182 -159c-160 0 -200 173 -200 244c0 21 2 43 7 71l10 35 c26 85 73 115 98 126c41 19 74 24 103 24c93 0 142 -63 142 -105c0 -58 -52 -72 -73 -72c-33 0 -59 24 -65 35c-3 5 -6 14 -7 25l11 30c6 15 9 27 9 35c0 11 -9 16 -25 16z" />
      </symbol>
      <symbol id="E088-1qlaq23" viewBox="0 0 1000 1000" overflow="inherit">
         <path transform="scale(1,-1)" d="M195 -214c76 0 88 58 90 68c0 34 -35 60 -57 73l-52 29c-21 10 -32 17 -34 20c-39 -33 -58 -54 -62 -92c5 -23 23 -98 115 -98zM301 135c0 61 -72 76 -113 76c-40 0 -77 -17 -77 -51c3 -21 15 -38 26 -50c17 -15 33 -26 48 -34l65 -28c34 27 51 56 51 87zM176 -250 c-57 0 -166 26 -166 132c0 47 30 86 89 116c-33 15 -79 60 -79 119c0 79 85 132 178 132h18c5 0 21 1 28 -1c25 0 126 -30 126 -110c0 -37 -23 -76 -69 -116c43 -25 83 -71 83 -119c0 -101 -118 -153 -208 -153z" />
      </symbol>
      <symbol id="E0A4-1qlaq23" viewBox="0 0 1000 1000" overflow="inherit">
         <path transform="scale(1,-1)" d="M0 -39c0 68 73 172 200 172c66 0 114 -37 114 -95c0 -84 -106 -171 -218 -171c-64 0 -96 30 -96 94z" />
      </symbol>
   </defs>
   <style type="text/css">g.page-margin{font-family:Times;} g.ending, g.fing, g.reh, g.tempo{font-weight:bold;} g.dir, g.dynam, g.mNum{font-style:italic;} g.label{font-weight:normal;}</style>
   <svg class="definition-scale" color="black" viewBox="0 0 21000 29700">
      <g class="page-margin" transform="translate(500, 500)">
         <g id="m17oyku6" class="mdiv pageMilestone" />
         <g id="s1d2p1an" class="score pageMilestone" />
         <g id="s1dycggm" class="system">
            <g id="l1vtzup3" class="label">
               <text x="1105" y="1535" text-anchor="end" font-size="0px">
                  <tspan id="tgaez8d" class="text">
                     <tspan font-size="405px" class="text">Piano</tspan>
                  </tspan>
               </text>
            </g>
            <g id="szpktmz" class="section systemMilestone" />
            <g id="po4sh9" class="pb" />
            <g id="mx3flz1" class="measure">
               <g id="m1nn10h1" class="mNum">
                  <text x="1285" y="842" text-anchor="middle" font-size="0px" />
               </g>
               <g id="s1yvtykd" class="staff">
                  <path d="M1285 1085 L4908 1085" stroke="currentColor" stroke-width="13" />
                  <path d="M1285 1265 L4908 1265" stroke="currentColor" stroke-width="13" />
                  <path d="M1285 1445 L4908 1445" stroke="currentColor" stroke-width="13" />
                  <path d="M1285 1625 L4908 1625" stroke="currentColor" stroke-width="13" />
                  <path d="M1285 1805 L4908 1805" stroke="currentColor" stroke-width="13" />
                  <g id="c6arzml" class="clef">
                     <use xlink:href="#E050-1qlaq23" x="1375" y="1625" height="720px" width="720px" />
                  </g>
                  <g id="k1riglt3" class="keySig">
                     <g id="k4i48b8" class="keyAccid">
                        <use xlink:href="#E260-1qlaq23" x="2020" y="1445" height="720px" width="720px" />
                     </g>
                     <g id="khondsk" class="keyAccid">
                        <use xlink:href="#E260-1qlaq23" x="2200" y="1175" height="720px" width="720px" />
                     </g>
                  </g>
                  <g id="m9pxvg5" class="meterSig">
                     <use xlink:href="#E086-1qlaq23" x="2508" y="1265" height="720px" width="720px" />
                     <use xlink:href="#E088-1qlaq23" x="2515" y="1625" height="720px" width="720px" />
                  </g>
                  <g id="lebsozc" class="layer">
                     <g id="bizjo4c" class="beam">
                        <polygon points="3272,905 4511,905 4511,995 3272,995" />
                        <g id="n1xhs4hn" class="note">
                           <g class="notehead">
                              <use xlink:href="#E0A4-1qlaq23" x="3064" y="1625" height="720px" width="720px" />
                           </g>
                           <g id="s1fkj3ek" class="stem">
                              <rect x="3272" y="923" height="674" width="18" />
                           </g>
                        </g>
                        <g id="n1fe9gma" class="note">
                           <g class="notehead">
                              <use xlink:href="#E0A4-1qlaq23" x="3674" y="1535" height="720px" width="720px" />
                           </g>
                           <g id="s1wodedi" class="stem">
                              <rect x="3882" y="923" height="584" width="18" />
                           </g>
                        </g>
                        <g id="n1yd47wk" class="note">
                           <g class="notehead">
                              <use xlink:href="#E0A4-1qlaq23" x="4285" y="1625" height="720px" width="720px" />
                           </g>
                           <g id="s1fvplai" class="stem">
                              <rect x="4493" y="923" height="674" width="18" />
                           </g>
                        </g>
                     </g>
                  </g>
               </g>
               <g id="b1174m7n" class="barLine">
                  <path d="M4895 1085 L4895 1805" stroke="currentColor" stroke-width="27" />
               </g>
            </g>
            <g id="mjd4ndi" class="measure">
               <g id="s1aba7d5" class="staff">
                  <path d="M4908 1085 L8476 1085" stroke="currentColor" stroke-width="13" />
                  <path d="M4908 1265 L8476 1265" stroke="currentColor" stroke-width="13" />
                  <path d="M4908 1445 L8476 1445" stroke="currentColor" stroke-width="13" />
                  <path d="M4908 1625 L8476 1625" stroke="currentColor" stroke-width="13" />
                  <path d="M4908 1805 L8476 1805" stroke="currentColor" stroke-width="13" />
                  <g id="l1l8euo4" class="layer">
                     <g id="nafi6x4" class="note">
                        <g class="notehead">
                           <use xlink:href="#E0A4-1qlaq23" x="5085" y="1265" height="720px" width="720px" />
                        </g>
                        <g id="s1siz7v" class="stem">
                           <rect x="5085" y="1293" height="602" width="18" />
                        </g>
                     </g>
                     <g id="n1lhzrxh" class="note">
                        <g class="notehead">
                           <use xlink:href="#E0A4-1qlaq23" x="6021" y="1265" height="720px" width="720px" />
                        </g>
                        <g id="s1vtwml3" class="stem">
                           <rect x="6021" y="1293" height="602" width="18" />
                           <g id="fmqyihh" class="flag">
                              <use xlink:href="#E241-1qlaq23" x="6021" y="1895" height="720px" width="720px" />
                           </g>
                        </g>
                     </g>
                     <g id="b1455r9n" class="beam">
                        <polygon points="6631,1985 7870,1985 7870,1895 6631,1895" />
                        <g id="no529ik" class="note">
                           <g class="notehead">
                              <use xlink:href="#E0A4-1qlaq23" x="6631" y="1265" height="720px" width="720px" />
                           </g>
                           <g id="skuveh5" class="stem">
                              <rect x="6631" y="1293" height="674" width="18" />
                           </g>
                        </g>
                        <g id="n1hbgmnd" class="note">
                           <g class="notehead">
                              <use xlink:href="#E0A4-1qlaq23" x="7242" y="1355" height="720px" width="720px" />
                           </g>
                           <g id="s1syrq55" class="stem">
                              <rect x="7242" y="1383" height="584" width="18" />
                           </g>
                        </g>
                        <g id="ncftkn2" class="note">
                           <g class="notehead">
                              <use xlink:href="#E0A4-1qlaq23" x="7852" y="1265" height="720px" width="720px" />
                           </g>
                           <g id="sogl6jc" class="stem">
                              <rect x="7852" y="1293" height="674" width="18" />
                           </g>
                        </g>
                     </g>
                  </g>
               </g>
               <g id="b1q3sjx1" class="barLine">
                  <path d="M8463 1085 L8463 1805" stroke="currentColor" stroke-width="27" />
               </g>
            </g>
            <g id="m1el3hd5" class="measure">
               <g id="s17jdef0" class="staff">
                  <path d="M8476 1085 L12044 1085" stroke="currentColor" stroke-width="13" />
                  <path d="M8476 1265 L12044 1265" stroke="currentColor" stroke-width="13" />
                  <path d="M8476 1445 L12044 1445" stroke="currentColor" stroke-width="13" />
                  <path d="M8476 1625 L12044 1625" stroke="currentColor" stroke-width="13" />
                  <path d="M8476 1805 L12044 1805" stroke="currentColor" stroke-width="13" />
                  <g id="lrxawz" class="layer">
                     <g id="n1wo8elk" class="note">
                        <g class="notehead">
                           <use xlink:href="#E0A4-1qlaq23" x="8653" y="1445" height="720px" width="720px" />
                        </g>
                        <g id="s16h0qoc" class="stem">
                           <rect x="8653" y="1473" height="572" width="18" />
                        </g>
                        <g id="a1s1kmwf" class="accid" />
                     </g>
                     <g id="n1v70h8a" class="note">
                        <g class="notehead">
                           <use xlink:href="#E0A4-1qlaq23" x="9589" y="1535" height="720px" width="720px" />
                        </g>
                        <g id="s1nsi6lq" class="stem">
                           <rect x="9797" y="905" height="602" width="18" />
                           <g id="fgf57us" class="flag">
                              <use xlink:href="#E240-1qlaq23" x="9797" y="905" height="720px" width="720px" />
                           </g>
                        </g>
                     </g>
                     <g id="b1u3t8o2" class="beam">
                        <polygon points="10407,905 11646,905 11646,995 10407,995" />
                        <g id="nc4tdfs" class="note">
                           <g class="notehead">
                              <use xlink:href="#E0A4-1qlaq23" x="10199" y="1625" height="720px" width="720px" />
                           </g>
                           <g id="s1bdqm18" class="stem">
                              <rect x="10407" y="923" height="674" width="18" />
                           </g>
                        </g>
                        <g id="nd5n6d7" class="note">
                           <g class="notehead">
                              <use xlink:href="#E0A4-1qlaq23" x="10810" y="1535" height="720px" width="720px" />
                           </g>
                           <g id="secdhd3" class="stem">
                              <rect x="11018" y="923" height="584" width="18" />
                           </g>
                        </g>
                        <g id="n5q7n3n" class="note">
                           <g class="notehead">
                              <use xlink:href="#E0A4-1qlaq23" x="11420" y="1625" height="720px" width="720px" />
                           </g>
                           <g id="sqwres4" class="stem">
                              <rect x="11628" y="923" height="674" width="18" />
                           </g>
                        </g>
                     </g>
                  </g>
               </g>
               <g id="b1rzgs14" class="barLine">
                  <path d="M12031 1085 L12031 1805" stroke="currentColor" stroke-width="27" />
               </g>
            </g>
            <g id="m1mx7gn7" class="measure">
               <g id="s1j27ylw" class="staff">
                  <path d="M12044 1085 L15612 1085" stroke="currentColor" stroke-width="13" />
                  <path d="M12044 1265 L15612 1265" stroke="currentColor" stroke-width="13" />
                  <path d="M12044 1445 L15612 1445" stroke="currentColor" stroke-width="13" />
                  <path d="M12044 1625 L15612 1625" stroke="currentColor" stroke-width="13" />
                  <path d="M12044 1805 L15612 1805" stroke="currentColor" stroke-width="13" />
                  <g id="l3yn6t1" class="layer">
                     <g id="n17lt42u" class="note">
                        <g class="notehead">
                           <use xlink:href="#E0A4-1qlaq23" x="12221" y="1265" height="720px" width="720px" />
                        </g>
                        <g id="s1u8vk3v" class="stem">
                           <rect x="12221" y="1293" height="602" width="18" />
                        </g>
                     </g>
                     <g id="n1alnv82" class="note">
                        <g class="notehead">
                           <use xlink:href="#E0A4-1qlaq23" x="13157" y="1265" height="720px" width="720px" />
                        </g>
                        <g id="sxp4rp8" class="stem">
                           <rect x="13157" y="1293" height="602" width="18" />
                           <g id="fp6d9yl" class="flag">
                              <use xlink:href="#E241-1qlaq23" x="13157" y="1895" height="720px" width="720px" />
                           </g>
                        </g>
                     </g>
                     <g id="b1vxsvs3" class="beam">
                        <polygon points="13767,1985 15006,2165 15006,2075 13767,1895" />
                        <g id="n1j7gwez" class="note">
                           <g class="notehead">
                              <use xlink:href="#E0A4-1qlaq23" x="13767" y="1265" height="720px" width="720px" />
                           </g>
                           <g id="s9ructq" class="stem">
                              <rect x="13767" y="1293" height="674" width="18" />
                           </g>
                        </g>
                        <g id="n1odjmd4" class="note">
                           <g class="notehead">
                              <use xlink:href="#E0A4-1qlaq23" x="14378" y="1445" height="720px" width="720px" />
                           </g>
                           <g id="saqn2n4" class="stem">
                              <rect x="14378" y="1473" height="585" width="18" />
                           </g>
                           <g id="ab10qyr" class="accid" />
                        </g>
                        <g id="n19hlcbx" class="note">
                           <g class="notehead">
                              <use xlink:href="#E0A4-1qlaq23" x="14988" y="1625" height="720px" width="720px" />
                           </g>
                           <g id="s1eoisza" class="stem">
                              <rect x="14988" y="1653" height="494" width="18" />
                           </g>
                        </g>
                     </g>
                  </g>
               </g>
               <g id="bxofer3" class="barLine">
                  <path d="M15599 1085 L15599 1805" stroke="currentColor" stroke-width="27" />
               </g>
            </g>
            <g id="mctvrzi" class="measure">
               <g id="s1adyqed" class="staff">
                  <path d="M15612 1085 L17812 1085" stroke="currentColor" stroke-width="13" />
                  <path d="M15612 1265 L17812 1265" stroke="currentColor" stroke-width="13" />
                  <path d="M15612 1445 L17812 1445" stroke="currentColor" stroke-width="13" />
                  <path d="M15612 1625 L17812 1625" stroke="currentColor" stroke-width="13" />
                  <path d="M15612 1805 L17812 1805" stroke="currentColor" stroke-width="13" />
                  <g id="m1b26lwy" class="meterSig">
                     <use xlink:href="#E083-1qlaq23" x="15692" y="1265" height="720px" width="720px" />
                     <use xlink:href="#E088-1qlaq23" x="15695" y="1625" height="720px" width="720px" />
                  </g>
                  <g id="l1759yrq" class="layer">
                     <g id="n1qwlqf3" class="note">
                        <g class="notehead">
                           <use xlink:href="#E0A4-1qlaq23" x="16240" y="1535" height="720px" width="720px" />
                        </g>
                        <g id="drq9i5q" class="dots">
                           <ellipse cx="16556" cy="1535" rx="36" ry="36" />
                        </g>
                        <g id="s1u77z9i" class="stem">
                           <rect x="16448" y="905" height="602" width="18" />
                        </g>
                     </g>
                  </g>
               </g>
               <g id="b1l196vs" class="barLine">
                  <path d="M17434 1085 L17434 1805" stroke="currentColor" stroke-width="27" />
                  <path d="M17564 1085 L17564 1805" stroke="currentColor" stroke-width="90" />
                  <path d="M17695 1085 L17695 1805" stroke="currentColor" stroke-width="27" />
                  <use xlink:href="#E044-1qlaq23" x="17740" y="1355" height="720px" width="720px" />
                  <use xlink:href="#E044-1qlaq23" x="17740" y="1535" height="720px" width="720px" />
                  <use xlink:href="#E044-1qlaq23" x="17317" y="1355" height="720px" width="720px" />
                  <use xlink:href="#E044-1qlaq23" x="17317" y="1535" height="720px" width="720px" />
               </g>
            </g>
            <g id="m1mlmzx9" class="measure">
               <g id="s1fcp9mi" class="staff">
                  <path d="M17812 1085 L20003 1085" stroke="currentColor" stroke-width="13" />
                  <path d="M17812 1265 L20003 1265" stroke="currentColor" stroke-width="13" />
                  <path d="M17812 1445 L20003 1445" stroke="currentColor" stroke-width="13" />
                  <path d="M17812 1625 L20003 1625" stroke="currentColor" stroke-width="13" />
                  <path d="M17812 1805 L20003 1805" stroke="currentColor" stroke-width="13" />
                  <g id="l1n29w7x" class="layer">
                     <g id="njq74s1" class="note">
                        <g class="notehead">
                           <use xlink:href="#E0A4-1qlaq23" x="17989" y="1445" height="720px" width="720px" />
                        </g>
                        <g id="ssodoyy" class="stem">
                           <rect x="17989" y="1473" height="572" width="18" />
                        </g>
                        <g id="a6x5qux" class="accid" />
                     </g>
                     <g id="n1x3srmw" class="note">
                        <g class="notehead">
                           <use xlink:href="#E0A4-1qlaq23" x="18925" y="1625" height="720px" width="720px" />
                        </g>
                        <g id="s6r7dhg" class="stem">
                           <rect x="19133" y="995" height="602" width="18" />
                           <g id="f1f7udl0" class="flag">
                              <use xlink:href="#E240-1qlaq23" x="19133" y="995" height="720px" width="720px" />
                           </g>
                        </g>
                     </g>
                  </g>
                  <g id="m8j3fhl" class="meterSig">
                     <use xlink:href="#E086-1qlaq23" x="19624" y="1265" height="720px" width="720px" />
                     <use xlink:href="#E088-1qlaq23" x="19631" y="1625" height="720px" width="720px" />
                  </g>
               </g>
               <g id="buaw92n" class="barLine">
                  <path d="M19535 1085 L19535 1805" stroke="currentColor" stroke-width="27" />
               </g>
            </g>
         </g>
         <g id="sfdbz93" class="system">
            <g id="l1gx3633" class="labelAbbr">
               <text x="914" y="3808" text-anchor="end" font-size="0px">
                  <tspan id="txclbh7" class="text">
                     <tspan font-size="405px" class="text">Pno.</tspan>
                  </tspan>
               </text>
            </g>
            <g id="mmeyejf" class="measure">
               <g id="m1cxkuun" class="mNum autogenerated">
                  <text x="1094" y="3115" text-anchor="middle" font-size="0px">
                     <tspan id="t1mkia0i" class="text">
                        <tspan font-size="324px" class="text">6</tspan>
                     </tspan>
                  </text>
               </g>
               <g id="srvm28i" class="staff">
                  <path d="M1094 3358 L6342 3358" stroke="currentColor" stroke-width="13" />
                  <path d="M1094 3538 L6342 3538" stroke="currentColor" stroke-width="13" />
                  <path d="M1094 3718 L6342 3718" stroke="currentColor" stroke-width="13" />
                  <path d="M1094 3898 L6342 3898" stroke="currentColor" stroke-width="13" />
                  <path d="M1094 4078 L6342 4078" stroke="currentColor" stroke-width="13" />
                  <g id="c16j769v" class="clef">
                     <use xlink:href="#E050-1qlaq23" x="1184" y="3898" height="720px" width="720px" />
                  </g>
                  <g id="k1c8ixlu" class="keySig">
                     <g id="k7dsv48" class="keyAccid">
                        <use xlink:href="#E260-1qlaq23" x="1829" y="3718" height="720px" width="720px" />
                     </g>
                     <g id="k176ebsj" class="keyAccid">
                        <use xlink:href="#E260-1qlaq23" x="2009" y="3448" height="720px" width="720px" />
                     </g>
                  </g>
                  <g id="myjt0ti" class="meterSig">
                     <use xlink:href="#E086-1qlaq23" x="2317" y="3538" height="720px" width="720px" />
                     <use xlink:href="#E088-1qlaq23" x="2324" y="3898" height="720px" width="720px" />
                  </g>
                  <g id="l11gheit" class="layer">
                     <g id="nbnb9k4" class="note">
                        <g class="notehead">
                           <use xlink:href="#E0A4-1qlaq23" x="2876" y="3808" height="720px" width="720px" />
                        </g>
                        <g id="s1feccfy" class="stem">
                           <rect x="3084" y="3178" height="602" width="18" />
                        </g>
                     </g>
                     <g id="nfmui69" class="note">
                        <g class="notehead">
                           <use xlink:href="#E0A4-1qlaq23" x="3833" y="3718" height="720px" width="720px" />
                        </g>
                        <g id="s1yoyqby" class="stem">
                           <rect x="3833" y="3746" height="572" width="18" />
                           <g id="fgvhyz9" class="flag">
                              <use xlink:href="#E241-1qlaq23" x="3833" y="4318" height="720px" width="720px" />
                           </g>
                        </g>
                        <g id="a14rltgp" class="accid" />
                     </g>
                     <g id="bm6fzwe" class="beam">
                        <polygon points="4457,4348 5723,4348 5723,4258 4457,4258" />
                        <g id="nsg4zec" class="note">
                           <g class="notehead">
                              <use xlink:href="#E0A4-1qlaq23" x="4457" y="3628" height="720px" width="720px" />
                           </g>
                           <g id="sb51ppl" class="stem">
                              <rect x="4457" y="3656" height="674" width="18" />
                           </g>
                        </g>
                        <g id="n1i4idks" class="note">
                           <g class="notehead">
                              <use xlink:href="#E0A4-1qlaq23" x="5081" y="3808" height="720px" width="720px" />
                           </g>
                           <g id="s191zduh" class="stem">
                              <rect x="5081" y="3836" height="494" width="18" />
                           </g>
                        </g>
                        <g id="n12qfot6" class="note">
                           <g class="notehead">
                              <use xlink:href="#E0A4-1qlaq23" x="5705" y="3718" height="720px" width="720px" />
                           </g>
                           <g id="s1xxgdjv" class="stem">
                              <rect x="5705" y="3746" height="584" width="18" />
                           </g>
                           <g id="aw9bdt4" class="accid" />
                        </g>
                     </g>
                  </g>
               </g>
               <g id="b13ianx9" class="barLine">
                  <path d="M6329 3358 L6329 4078" stroke="currentColor" stroke-width="27" />
               </g>
            </g>
            <g id="mzqszy6" class="measure">
               <g id="s1lnujz2" class="staff">
                  <path d="M6342 3358 L9988 3358" stroke="currentColor" stroke-width="13" />
                  <path d="M6342 3538 L9988 3538" stroke="currentColor" stroke-width="13" />
                  <path d="M6342 3718 L9988 3718" stroke="currentColor" stroke-width="13" />
                  <path d="M6342 3898 L9988 3898" stroke="currentColor" stroke-width="13" />
                  <path d="M6342 4078 L9988 4078" stroke="currentColor" stroke-width="13" />
                  <g id="l1mzq7qv" class="layer">
                     <g id="b964jp1" class="beam">
                        <polygon points="6730,3178 7996,3178 7996,3268 6730,3268" />
                        <g id="nrb17o7" class="note">
                           <g class="notehead">
                              <use xlink:href="#E0A4-1qlaq23" x="6522" y="3898" height="720px" width="720px" />
                           </g>
                           <g id="sgbr8oo" class="stem">
                              <rect x="6730" y="3196" height="674" width="18" />
                           </g>
                        </g>
                        <g id="nj8djq2" class="note">
                           <g class="notehead">
                              <use xlink:href="#E0A4-1qlaq23" x="7146" y="3808" height="720px" width="720px" />
                           </g>
                           <g id="s1t2bkzt" class="stem">
                              <rect x="7354" y="3196" height="584" width="18" />
                           </g>
                        </g>
                        <g id="n1ocm9b" class="note">
                           <g class="notehead">
                              <use xlink:href="#E0A4-1qlaq23" x="7770" y="3988" height="720px" width="720px" />
                           </g>
                           <g id="statu59" class="stem">
                              <rect x="7978" y="3196" height="764" width="18" />
                           </g>
                        </g>
                     </g>
                     <g id="n5b19w9" class="note">
                        <g class="notehead">
                           <use xlink:href="#E0A4-1qlaq23" x="8394" y="3718" height="720px" width="720px" />
                        </g>
                        <g id="s16ac20u" class="stem">
                           <rect x="8394" y="3746" height="572" width="18" />
                        </g>
                        <g id="a1bsoqdp" class="accid" />
                     </g>
                     <g id="n1esoitx" class="note">
                        <g class="notehead">
                           <use xlink:href="#E0A4-1qlaq23" x="9351" y="3898" height="720px" width="720px" />
                        </g>
                        <g id="s1s83lzv" class="stem">
                           <rect x="9559" y="3268" height="602" width="18" />
                           <g id="f15p3co6" class="flag">
                              <use xlink:href="#E240-1qlaq23" x="9559" y="3268" height="720px" width="720px" />
                           </g>
                        </g>
                     </g>
                  </g>
               </g>
               <g id="b1ggmcl7" class="barLine">
                  <path d="M9975 3358 L9975 4078" stroke="currentColor" stroke-width="27" />
               </g>
            </g>
            <g id="s1ru0q90" class="sb" />
            <g id="m1nyfnv6" class="measure">
               <g id="s1styaym" class="staff">
                  <path d="M9988 3358 L13634 3358" stroke="currentColor" stroke-width="13" />
                  <path d="M9988 3538 L13634 3538" stroke="currentColor" stroke-width="13" />
                  <path d="M9988 3718 L13634 3718" stroke="currentColor" stroke-width="13" />
                  <path d="M9988 3898 L13634 3898" stroke="currentColor" stroke-width="13" />
                  <path d="M9988 4078 L13634 4078" stroke="currentColor" stroke-width="13" />
                  <g id="l2v1e9v" class="layer">
                     <g id="n1vuy4dv" class="note">
                        <g class="notehead">
                           <use xlink:href="#E0A4-1qlaq23" x="10168" y="3808" height="720px" width="720px" />
                        </g>
                        <g id="s1tgvl8l" class="stem">
                           <rect x="10376" y="3178" height="602" width="18" />
                        </g>
                     </g>
                     <g id="nygzy73" class="note">
                        <g class="notehead">
                           <use xlink:href="#E0A4-1qlaq23" x="11125" y="3718" height="720px" width="720px" />
                        </g>
                        <g id="sy8itkx" class="stem">
                           <rect x="11125" y="3746" height="572" width="18" />
                           <g id="f1qyfuw" class="flag">
                              <use xlink:href="#E241-1qlaq23" x="11125" y="4318" height="720px" width="720px" />
                           </g>
                        </g>
                        <g id="alzt5tj" class="accid" />
                     </g>
                     <g id="b1wpqm2s" class="beam">
                        <polygon points="11749,4348 13015,4348 13015,4258 11749,4258" />
                        <g id="n7x7353" class="note">
                           <g class="notehead">
                              <use xlink:href="#E0A4-1qlaq23" x="11749" y="3628" height="720px" width="720px" />
                           </g>
                           <g id="sqp56dm" class="stem">
                              <rect x="11749" y="3656" height="674" width="18" />
                           </g>
                        </g>
                        <g id="nmcklcz" class="note">
                           <g class="notehead">
                              <use xlink:href="#E0A4-1qlaq23" x="12373" y="3808" height="720px" width="720px" />
                           </g>
                           <g id="su9tb3j" class="stem">
                              <rect x="12373" y="3836" height="494" width="18" />
                           </g>
                        </g>
                        <g id="n1f6disu" class="note">
                           <g class="notehead">
                              <use xlink:href="#E0A4-1qlaq23" x="12997" y="3718" height="720px" width="720px" />
                           </g>
                           <g id="s1b7ie99" class="stem">
                              <rect x="12997" y="3746" height="584" width="18" />
                           </g>
                           <g id="a1eeot2o" class="accid" />
                        </g>
                     </g>
                  </g>
               </g>
               <g id="b1qzxpwa" class="barLine">
                  <path d="M13621 3358 L13621 4078" stroke="currentColor" stroke-width="27" />
               </g>
            </g>
            <g id="mc8ml6" class="measure">
               <g id="s1av7c2n" class="staff">
                  <path d="M13634 3358 L15661 3358" stroke="currentColor" stroke-width="13" />
                  <path d="M13634 3538 L15661 3538" stroke="currentColor" stroke-width="13" />
                  <path d="M13634 3718 L15661 3718" stroke="currentColor" stroke-width="13" />
                  <path d="M13634 3898 L15661 3898" stroke="currentColor" stroke-width="13" />
                  <path d="M13634 4078 L15661 4078" stroke="currentColor" stroke-width="13" />
                  <g id="m1kole7t" class="meterSig">
                     <use xlink:href="#E083-1qlaq23" x="13714" y="3538" height="720px" width="720px" />
                     <use xlink:href="#E088-1qlaq23" x="13717" y="3898" height="720px" width="720px" />
                  </g>
                  <g id="l1nups0x" class="layer">
                     <g id="n1k845jz" class="note">
                        <g class="notehead">
                           <use xlink:href="#E0A4-1qlaq23" x="14265" y="3898" height="720px" width="720px" />
                        </g>
                        <g id="d1e4rbso" class="dots">
                           <ellipse cx="14581" cy="3808" rx="36" ry="36" />
                        </g>
                        <g id="skdt8g3" class="stem">
                           <rect x="14473" y="3268" height="602" width="18" />
                        </g>
                     </g>
                  </g>
               </g>
               <g id="b1w0w530" class="barLine">
                  <path d="M15486 3358 L15486 4078" stroke="currentColor" stroke-width="27" />
                  <path d="M15616 3358 L15616 4078" stroke="currentColor" stroke-width="90" />
               </g>
            </g>
            <g id="sd9j0ck" class="systemMilestoneEnd szpktmz" />
         </g>
         <g id="p1ykhbji" class="pageMilestoneEnd s1d2p1an" />
         <g id="p10jeg7k" class="pageMilestoneEnd m17oyku6" />
         <g id="pxmbj87" class="pgHead">
            <text x="0" y="0" font-size="0px">
               <tspan id="r7g8of5" class="rend" x="10000" y="277" text-anchor="middle">
                  <tspan id="t1c5xkze" class="text">
                     <tspan font-size="405px" class="text">Air n 219</tspan>
                  </tspan>
               </tspan>
            </text>
         </g>
         <g id="p1t4qv9k" class="pgFoot autogenerated">
            <g id="f1psl7d1" class="fig">
               <g id="s1jisag7" class="svg" transform="translate(7750, 28099) scale(10, 10)">
                  <g>
                     <path fill="#00000" d="M 17.11278,49.26451 V 10.367554 h 12.696511 c 3.288815,7.336676 6.71267,14.610456 10.127281,21.888976 3.419998,-7.484684 6.255515,-14.204887 9.58887,-21.909915 2.436207,0.103726 4.316952,0.08453 6.484294,-0.05808 V 49.264423 H 50.274275 C 50.145222,38.35639 50.016136,27.448368 49.887066,16.540329 45.003488,27.315459 39.967448,38.433564 35.083854,49.208695 34.678996,49.343717 34.426583,49.135619 34.021726,49.270644 29.46588,39.330716 24.910049,29.390805 20.354201,19.450876 20.224341,29.388756 20.09461,39.326619 19.964815,49.264497 H 17.11278 Z M 36.754144,39.324695 C 32.721221,30.512695 28.6883,21.700679 24.655394,12.888662 22.530527,12.750737 22.656775,12.71031 20.714356,12.813974 v 0.966497 c 4.612938,9.99784 9.609439,20.748709 13.87298,30.081745 0.722248,-1.512523 1.444528,-3.025014 2.166808,-4.537521 z m 25.738417,9.939815 c 0,-12.965651 0,-25.931305 0,-38.896956 10.084388,0 20.168791,0 30.253178,0 0,0.960416 0,1.920849 0,2.881265 -6.482825,0 -12.965652,0 -19.448478,0 0,4.802097 0,9.604178 0,14.406277 5.52241,0 11.044819,0 16.567229,0 0,0.960415 0,1.920832 0,2.881248 -5.52241,0 -11.044819,0 -16.567229,0 0,5.282306 0,10.564611 0,15.846917 6.963035,0 13.926068,0 20.889103,0 0,0.960416 0,1.920832 0,2.881249 -10.564597,0 -21.129207,0 -31.693803,0 z m 4.321874,-2.160937 c 0,-11.765131 0,-23.530263 0,-35.295394 -0.720312,0 -1.440625,0 -2.160937,0 0,11.765131 0,23.530263 0,35.295394 0.720312,0 1.440625,0 2.160937,0 z m 32.41413,2.160937 c 0,-12.965651 0,-25.931305 0,-38.896956 2.401045,0 4.802095,0 7.203135,0 0,12.965651 0,25.931305 0,38.896956 -2.40104,0 -4.80209,0 -7.203135,0 z m 2.881265,-2.160937 c 0,-11.765131 0,-23.530263 0,-35.295394 -0.72031,0 -1.44064,0 -2.160953,0 0,11.765131 0,23.530263 0,35.295394 0.720313,0 1.440643,0 2.160953,0 z" />
                     <path fill="#00000" d="m 346.3,6.7 c -3.1,0.5 -4.9,4.4 -2.7,6.8 1.2,1.4 2.7,2.4 4.1,3.5 -2.4,5.3 -7.7,8.3 -11.9,12.1 -3.7,2.8 -7,6.2 -9.7,9.9 -2.2,-0.8 -0.3,-6.8 -0.6,-9.5 0.1,-3.1 0.7,-6.4 2.9,-8.7 1.3,-1.9 3,-3.5 4.5,-5.2 1.2,-3.4 -3.2,-4.9 -5.8,-4.6 -7.3,-0.5 -14.6,2 -20,6.8 -5,4.6 -10,10.1 -11.5,17 -0.9,3.5 -0.2,7.5 2.8,9.9 2.5,2.8 7.4,2.9 9.8,-0.2 1.7,-2.3 3.2,-4.8 3.8,-7.6 -0.1,-2.6 -4.4,-2.3 -4.3,0.2 1.2,2.4 -0.9,4.7 -2.7,6.2 -1.7,0.9 -4.7,0.7 -4.8,-1.7 -1,-5.8 2.1,-11.3 5.2,-16.1 4,-5.8 9.8,-11.2 17.2,-11.8 1.6,0 8.1,-1.2 6.8,1.4 -2.8,2.8 -5.6,6.1 -6,10.3 -1.6,7.7 0.1,15.7 -2.3,23.2 -1.1,3.9 2,2.6 2.5,0.2 3.3,-7.4 8.9,-13.4 15.1,-18.5 4.2,-3.9 9.5,-7.1 11.9,-12.6 1.3,-3.6 1.2,-9 -2.7,-10.9 -0.6,-0.2 -1.2,-0.3 -1.8,-0.3 z m 66,14.5 c -2,0.8 -1.8,4.9 0.8,4.4 3.4,0.4 2.9,-6.2 -0.8,-4.4 z m 0.6,7.3 c -1.3,0.5 -7.6,0.5 -5.4,2.2 4,-0.3 0.7,4.5 0.6,6.7 -0.4,2.9 -2.4,5.9 -1.2,8.8 2.7,1.7 5.6,-0.8 6.8,-3.2 1.6,-1.4 -0.5,-3 -1.2,-0.9 -0.4,0.8 -2.4,3.5 -2.6,1.8 1.1,-5 2.7,-9.9 3.9,-14.9 l -0.1,-0.5 h -0.9 z m -65.1,0.2 c -6.5,1.6 -10.5,9.5 -8.2,15.7 2.1,3.4 7.4,2.9 10.1,0.4 2,-0.2 3.6,-5.3 1,-3.4 -1.4,2 -4,4.2 -6.5,2.8 -2.2,-1.9 -1.9,-5.7 1.7,-5.3 3.1,-0.9 6.9,-2.1 8.1,-5.5 0.9,-2.7 -1.6,-5.2 -4.3,-4.8 h -1.1 -0.7 z m 13.6,0 c -2.2,0 -8.5,1.8 -2.9,2.3 0.9,1.9 -1,4.9 -1.1,7.2 -0.5,2.9 -1.4,5.7 -1.7,8.7 3.7,0.7 3.8,-2.6 4.4,-5.3 0.9,-3.3 1.6,-7 4.1,-9.5 2.4,1.6 6.8,-0.7 3.7,-3.4 -2.9,-0.5 -4.8,2.4 -6.2,4.3 0,-1.2 2.4,-5 -0.2,-4.3 z m 15.8,0 c -6.4,1.3 -9.6,9.1 -7.7,14.9 1.9,4 7.7,3.9 11,1.7 4.1,-3 6,-8.9 4.4,-13.7 -1.3,-3 -4.8,-3.2 -7.6,-3 z m 17,0 c -2.3,0 -8.8,1.9 -3,2.4 0.4,2.5 -1,5.7 -1.4,8.4 -0.7,2.4 -1.8,7.5 2.1,7.2 3.8,-0.1 6.5,-3.5 8.5,-6.3 2,-3.2 4.5,-7 3.3,-10.9 -3.7,-3 -3.6,2.6 -3.1,5.1 -0.7,3.8 -2.7,7.9 -6.2,9.8 -3.6,0.6 -1,-4.3 -0.8,-6.1 0.6,-3.2 1.6,-6.3 1.9,-9.5 -0.4,0 -0.8,0 -1.1,0 z m 30.6,0 c -6.3,1.2 -9.5,8.9 -7.8,14.7 1.5,4 7.2,4.2 10.5,2.4 4.6,-2.8 6.6,-9.3 4.8,-14.3 -1.4,-2.8 -4.8,-3 -7.5,-2.8 z m -75.4,1.7 c 2.1,1.5 0.2,4.7 -1.6,5.7 -1.1,0.4 -5.5,3.4 -4.6,0.7 0.8,-2.7 2.2,-6.2 5.3,-6.6 l 0.9,0.1 z m 30.8,0 c 2.6,1.5 1.3,5.2 0.8,7.6 -0.8,2.7 -1.9,5.9 -4.7,7.1 -5.1,0.8 -4,-5.8 -2.8,-8.8 1,-2.8 3,-6.8 6.7,-5.8 z m 47.1,-0.1 c 2.9,0.7 2,4.7 1.5,6.8 -0.7,3 -1.8,6.7 -5,8 -4.7,0.8 -4,-5.1 -3,-7.9 0.9,-3 2.7,-7.3 6.5,-6.8 z m -88.1,5.9 c -0.3,1.3 0.9,-0.6 0,0 z m -1.1,2.4 c -0.2,0.5 0.5,-0.1 0,0 z m -1.3,4.5 c -0.3,1.3 0.8,-0.2 0,0 z" />
                     <text y="41" x="201" fill="#00000" style="font-style:italic;font-weight:normal;font-size:30px;line-height:125%;font-family:Times;text-anchor:middle" xml:space="preserve">engraved with</text>
                  </g>
               </g>
            </g>
         </g>
      </g>
   </svg>
</svg>
