<?xml version="1.0" encoding="UTF-8" standalone="no"?>
<svg width="2100px" height="2970px" version="1.1" xmlns="http://www.w3.org/2000/svg" xmlns:xlink="http://www.w3.org/1999/xlink" xmlns:mei="http://www.music-encoding.org/ns/mei" overflow="visible">
   <desc>Engraved by Verovio 3.13.1</desc>
   <defs>
      <symbol id="E240-s6ouxw" viewBox="0 0 1000 1000" overflow="inherit">
         <path transform="scale(1,-1)" d="M179 -646c15 29 29 55 46 102c18 49 30 108 30 138c0 105 -80 173 -168 200c-18 5 -47 9 -87 16v190h22c8 0 33 -61 71 -95c4 -3 -2 3 61 -56c62 -58 122 -137 122 -241c0 -38 -13 -106 -35 -163c-20 -51 -43 -99 -66 -132c-6 -5 -10 -7 -13 -7s-5 2 -5 5l4 10 c1 3 14 25 18 33z" />
      </symbol>
      <symbol id="E262-s6ouxw" viewBox="0 0 1000 1000" overflow="inherit">
         <path transform="scale(1,-1)" d="M136 186v169h17v-164l44 14v-91l-44 -14v-165l44 12v-91l-44 -13v-155h-17v150l-76 -22v-155h-17v149l-43 -13v90l43 14v167l-43 -14v92l43 13v169h17v-163zM60 73v-167l76 22v168z" />
      </symbol>
      <symbol id="E044-s6ouxw" viewBox="0 0 1000 1000" overflow="inherit">
         <path transform="scale(1,-1)" d="M0 0c0 28 22 50 50 50s50 -22 50 -50s-22 -50 -50 -50s-50 22 -50 50z" />
      </symbol>
      <symbol id="E050-s6ouxw" viewBox="0 0 1000 1000" overflow="inherit">
         <path transform="scale(1,-1)" d="M441 -245c-23 -4 -48 -6 -76 -6c-59 0 -102 7 -130 20c-88 42 -150 93 -187 154c-26 44 -43 103 -48 176c0 6 -1 13 -1 19c0 54 15 111 45 170c29 57 65 106 110 148s96 85 153 127c-3 16 -8 46 -13 92c-4 43 -5 73 -5 89c0 117 16 172 69 257c34 54 64 82 89 82 c21 0 43 -30 69 -92s39 -115 41 -159v-15c0 -109 -21 -162 -67 -241c-13 -20 -63 -90 -98 -118c-13 -9 -25 -19 -37 -29l31 -181c8 1 18 2 28 2c58 0 102 -12 133 -35c59 -43 92 -104 98 -184c1 -7 1 -15 1 -22c0 -123 -87 -209 -181 -248c8 -57 17 -110 25 -162 c5 -31 6 -58 6 -80c0 -30 -5 -53 -14 -70c-35 -64 -88 -99 -158 -103c-5 0 -11 -1 -16 -1c-37 0 -72 10 -108 27c-50 24 -77 59 -80 105v11c0 29 7 55 20 76c18 28 45 42 79 44h6c49 0 93 -42 97 -87v-9c0 -51 -34 -86 -105 -106c17 -24 51 -36 102 -36c62 0 116 43 140 85 c9 16 13 41 13 74c0 20 -1 42 -5 67c-8 53 -18 106 -26 159zM461 939c-95 0 -135 -175 -135 -286c0 -24 2 -48 5 -71c50 39 92 82 127 128c40 53 60 100 60 140v8c-4 53 -22 81 -55 81h-2zM406 119l54 -326c73 25 110 78 110 161c0 7 0 15 -1 23c-7 95 -57 142 -151 142h-12 zM382 117c-72 -2 -128 -47 -128 -120v-7c2 -46 43 -99 75 -115c-3 -2 -7 -5 -10 -10c-70 33 -116 88 -123 172v11c0 68 44 126 88 159c23 17 49 29 78 36l-29 170c-21 -13 -52 -37 -92 -73c-50 -44 -86 -84 -109 -119c-45 -69 -67 -130 -67 -182v-13c5 -68 35 -127 93 -176 s125 -73 203 -73c25 0 50 3 75 9c-19 111 -36 221 -54 331z" />
      </symbol>
      <symbol id="E086-s6ouxw" viewBox="0 0 1000 1000" overflow="inherit">
         <path transform="scale(1,-1)" d="M284 -91c0 37 -28 92 -67 92c-35 0 -65 -54 -65 -111c0 -52 22 -104 68 -104c47 0 64 68 64 123zM230 214c-36 0 -90 -33 -90 -184l2 -36c40 24 81 36 120 36c80 0 140 -48 140 -121c0 -99 -99 -159 -182 -159c-160 0 -200 173 -200 244c0 21 2 43 7 71l10 35 c26 85 73 115 98 126c41 19 74 24 103 24c93 0 142 -63 142 -105c0 -58 -52 -72 -73 -72c-33 0 -59 24 -65 35c-3 5 -6 14 -7 25l11 30c6 15 9 27 9 35c0 11 -9 16 -25 16z" />
      </symbol>
      <symbol id="E088-s6ouxw" viewBox="0 0 1000 1000" overflow="inherit">
         <path transform="scale(1,-1)" d="M195 -214c76 0 88 58 90 68c0 34 -35 60 -57 73l-52 29c-21 10 -32 17 -34 20c-39 -33 -58 -54 -62 -92c5 -23 23 -98 115 -98zM301 135c0 61 -72 76 -113 76c-40 0 -77 -17 -77 -51c3 -21 15 -38 26 -50c17 -15 33 -26 48 -34l65 -28c34 27 51 56 51 87zM176 -250 c-57 0 -166 26 -166 132c0 47 30 86 89 116c-33 15 -79 60 -79 119c0 79 85 132 178 132h18c5 0 21 1 28 -1c25 0 126 -30 126 -110c0 -37 -23 -76 -69 -116c43 -25 83 -71 83 -119c0 -101 -118 -153 -208 -153z" />
      </symbol>
      <symbol id="E0A4-s6ouxw" viewBox="0 0 1000 1000" overflow="inherit">
         <path transform="scale(1,-1)" d="M0 -39c0 68 73 172 200 172c66 0 114 -37 114 -95c0 -84 -106 -171 -218 -171c-64 0 -96 30 -96 94z" />
      </symbol>
   </defs>
   <style type="text/css">g.page-margin{font-family:Times;} g.ending, g.fing, g.reh, g.tempo{font-weight:bold;} g.dir, g.dynam, g.mNum{font-style:italic;} g.label{font-weight:normal;}</style>
   <svg class="definition-scale" color="black" viewBox="0 0 21000 29700">
      <g class="page-margin" transform="translate(500, 500)">
         <g id="mi4chhd" class="mdiv pageMilestone" />
         <g id="sgftqkf" class="score pageMilestone" />
         <g id="sbjmgu4" class="system">
            <g id="l156gi3q" class="label">
               <text x="1105" y="1536" text-anchor="end" font-size="0px">
                  <tspan id="t1si38h0" class="text">
                     <tspan font-size="405px" class="text">Piano</tspan>
                  </tspan>
               </text>
            </g>
            <g id="s1uyomrr" class="section systemMilestone" />
            <g id="pzwpm2m" class="pb" />
            <g id="m11vkoky" class="measure">
               <g id="seem5h0" class="staff">
                  <path d="M1285 1086 L5845 1086" stroke="currentColor" stroke-width="13" />
                  <path d="M1285 1266 L5845 1266" stroke="currentColor" stroke-width="13" />
                  <path d="M1285 1446 L5845 1446" stroke="currentColor" stroke-width="13" />
                  <path d="M1285 1626 L5845 1626" stroke="currentColor" stroke-width="13" />
                  <path d="M1285 1806 L5845 1806" stroke="currentColor" stroke-width="13" />
                  <g id="cg7hgo1" class="clef">
                     <use xlink:href="#E050-s6ouxw" x="1375" y="1626" height="720px" width="720px" />
                  </g>
                  <g id="k7ocg10" class="keySig">
                     <g id="k1kk3omo" class="keyAccid">
                        <use xlink:href="#E262-s6ouxw" x="2020" y="1086" height="720px" width="720px" />
                     </g>
                  </g>
                  <g id="m1ra3161" class="meterSig">
                     <use xlink:href="#E086-s6ouxw" x="2327" y="1266" height="720px" width="720px" />
                     <use xlink:href="#E088-s6ouxw" x="2334" y="1626" height="720px" width="720px" />
                  </g>
                  <g id="l1p5e2wo" class="layer">
                     <g id="bnz81bk" class="beam">
                        <polygon points="2886,2031 3886,1851 3886,1761 2886,1941" />
                        <g id="ng2xn3v" class="note">
                           <g class="notehead">
                              <use xlink:href="#E0A4-s6ouxw" x="2886" y="1446" height="720px" width="720px" />
                           </g>
                           <g id="s1l55b6j" class="stem">
                              <rect x="2886" y="1474" height="539" width="18" />
                           </g>
                        </g>
                        <g id="nmkcfro" class="note">
                           <g class="notehead">
                              <use xlink:href="#E0A4-s6ouxw" x="3377" y="1356" height="720px" width="720px" />
                           </g>
                           <g id="s2wxufr" class="stem">
                              <rect x="3377" y="1384" height="539" width="18" />
                           </g>
                        </g>
                        <g id="ndbw203" class="note">
                           <g class="notehead">
                              <use xlink:href="#E0A4-s6ouxw" x="3868" y="1266" height="720px" width="720px" />
                           </g>
                           <g id="sz2hyn4" class="stem">
                              <rect x="3868" y="1294" height="539" width="18" />
                           </g>
                        </g>
                     </g>
                     <g id="b1fnivjq" class="beam">
                        <polygon points="4359,1851 5359,2031 5359,1941 4359,1761" />
                        <g id="n1bwpz54" class="note">
                           <g class="notehead">
                              <use xlink:href="#E0A4-s6ouxw" x="4359" y="1266" height="720px" width="720px" />
                           </g>
                           <g id="smqx99r" class="stem">
                              <rect x="4359" y="1294" height="539" width="18" />
                           </g>
                        </g>
                        <g id="n1j714qy" class="note">
                           <g class="notehead">
                              <use xlink:href="#E0A4-s6ouxw" x="4850" y="1356" height="720px" width="720px" />
                           </g>
                           <g id="sa2vzqo" class="stem">
                              <rect x="4850" y="1384" height="539" width="18" />
                           </g>
                        </g>
                        <g id="ntfn66x" class="note">
                           <g class="notehead">
                              <use xlink:href="#E0A4-s6ouxw" x="5341" y="1446" height="720px" width="720px" />
                           </g>
                           <g id="sstr045" class="stem">
                              <rect x="5341" y="1474" height="539" width="18" />
                           </g>
                        </g>
                     </g>
                  </g>
               </g>
               <g id="b1o37vll" class="barLine">
                  <path d="M5832 1086 L5832 1806" stroke="currentColor" stroke-width="27" />
               </g>
            </g>
            <g id="m4wfrh5" class="measure">
               <g id="sxv3mnu" class="staff">
                  <path d="M5845 1086 L8772 1086" stroke="currentColor" stroke-width="13" />
                  <path d="M5845 1266 L8772 1266" stroke="currentColor" stroke-width="13" />
                  <path d="M5845 1446 L8772 1446" stroke="currentColor" stroke-width="13" />
                  <path d="M5845 1626 L8772 1626" stroke="currentColor" stroke-width="13" />
                  <path d="M5845 1806 L8772 1806" stroke="currentColor" stroke-width="13" />
                  <g id="l1hi0za5" class="layer">
                     <g id="bs5uo7" class="beam">
                        <polygon points="6025,2076 7025,1896 7025,1806 6025,1986" />
                        <g id="n16m8i9r" class="note">
                           <g class="notehead">
                              <use xlink:href="#E0A4-s6ouxw" x="6025" y="1536" height="720px" width="720px" />
                           </g>
                           <g id="s1md2kii" class="stem">
                              <rect x="6025" y="1564" height="494" width="18" />
                           </g>
                        </g>
                        <g id="nmrtkbx" class="note">
                           <g class="notehead">
                              <use xlink:href="#E0A4-s6ouxw" x="6516" y="1446" height="720px" width="720px" />
                           </g>
                           <g id="s1mxcns0" class="stem">
                              <rect x="6516" y="1474" height="494" width="18" />
                           </g>
                        </g>
                        <g id="n1v4boa1" class="note">
                           <g class="notehead">
                              <use xlink:href="#E0A4-s6ouxw" x="7007" y="1356" height="720px" width="720px" />
                           </g>
                           <g id="s3ltrqh" class="stem">
                              <rect x="7007" y="1384" height="494" width="18" />
                           </g>
                        </g>
                     </g>
                     <g id="n1wota7j" class="note">
                        <g class="notehead">
                           <use xlink:href="#E0A4-s6ouxw" x="7498" y="1446" height="720px" width="720px" />
                        </g>
                        <g id="snba7mx" class="stem">
                           <rect x="7498" y="1474" height="572" width="18" />
                        </g>
                     </g>
                     <g id="n8jjvc7" class="note">
                        <g class="notehead">
                           <use xlink:href="#E0A4-s6ouxw" x="8251" y="1626" height="720px" width="720px" />
                        </g>
                        <g id="sqm5xwk" class="stem">
                           <rect x="8459" y="996" height="602" width="18" />
                           <g id="f72f1lp" class="flag">
                              <use xlink:href="#E240-s6ouxw" x="8459" y="996" height="720px" width="720px" />
                           </g>
                        </g>
                     </g>
                  </g>
               </g>
               <g id="b1vynmrs" class="barLine">
                  <path d="M8759 1086 L8759 1806" stroke="currentColor" stroke-width="27" />
               </g>
            </g>
            <g id="m1fmquy2" class="measure">
               <g id="s1ad0o26" class="staff">
                  <path d="M8772 1086 L11911 1086" stroke="currentColor" stroke-width="13" />
                  <path d="M8772 1266 L11911 1266" stroke="currentColor" stroke-width="13" />
                  <path d="M8772 1446 L11911 1446" stroke="currentColor" stroke-width="13" />
                  <path d="M8772 1626 L11911 1626" stroke="currentColor" stroke-width="13" />
                  <path d="M8772 1806 L11911 1806" stroke="currentColor" stroke-width="13" />
                  <g id="lrpgu1z" class="layer">
                     <g id="bf881s7" class="beam">
                        <polygon points="8952,2031 9952,1851 9952,1761 8952,1941" />
                        <g id="njixrz5" class="note">
                           <g class="notehead">
                              <use xlink:href="#E0A4-s6ouxw" x="8952" y="1446" height="720px" width="720px" />
                           </g>
                           <g id="s16ovqsk" class="stem">
                              <rect x="8952" y="1474" height="539" width="18" />
                           </g>
                        </g>
                        <g id="n1n2ic5p" class="note">
                           <g class="notehead">
                              <use xlink:href="#E0A4-s6ouxw" x="9443" y="1356" height="720px" width="720px" />
                           </g>
                           <g id="shx1iec" class="stem">
                              <rect x="9443" y="1384" height="539" width="18" />
                           </g>
                        </g>
                        <g id="n13mw5ch" class="note">
                           <g class="notehead">
                              <use xlink:href="#E0A4-s6ouxw" x="9934" y="1266" height="720px" width="720px" />
                           </g>
                           <g id="s1vb86gp" class="stem">
                              <rect x="9934" y="1294" height="539" width="18" />
                           </g>
                        </g>
                     </g>
                     <g id="b1qz6aee" class="beam">
                        <polygon points="10425,1851 11425,2031 11425,1941 10425,1761" />
                        <g id="n180he0q" class="note">
                           <g class="notehead">
                              <use xlink:href="#E0A4-s6ouxw" x="10425" y="1266" height="720px" width="720px" />
                           </g>
                           <g id="s1vi9s4b" class="stem">
                              <rect x="10425" y="1294" height="539" width="18" />
                           </g>
                        </g>
                        <g id="n1mawmxx" class="note">
                           <g class="notehead">
                              <use xlink:href="#E0A4-s6ouxw" x="10916" y="1356" height="720px" width="720px" />
                           </g>
                           <g id="sqx01vj" class="stem">
                              <rect x="10916" y="1384" height="539" width="18" />
                           </g>
                        </g>
                        <g id="nkiqqgf" class="note">
                           <g class="notehead">
                              <use xlink:href="#E0A4-s6ouxw" x="11407" y="1446" height="720px" width="720px" />
                           </g>
                           <g id="s8mcr9h" class="stem">
                              <rect x="11407" y="1474" height="539" width="18" />
                           </g>
                        </g>
                     </g>
                  </g>
               </g>
               <g id="b1kb9d16" class="barLine">
                  <path d="M11898 1086 L11898 1806" stroke="currentColor" stroke-width="27" />
               </g>
            </g>
            <g id="mkjm5c" class="measure">
               <g id="su6phkc" class="staff">
                  <path d="M11911 1086 L14902 1086" stroke="currentColor" stroke-width="13" />
                  <path d="M11911 1266 L14902 1266" stroke="currentColor" stroke-width="13" />
                  <path d="M11911 1446 L14902 1446" stroke="currentColor" stroke-width="13" />
                  <path d="M11911 1626 L14902 1626" stroke="currentColor" stroke-width="13" />
                  <path d="M11911 1806 L14902 1806" stroke="currentColor" stroke-width="13" />
                  <g id="l1r3lil2" class="layer">
                     <g id="b6w471x" class="beam">
                        <polygon points="12299,906 13299,906 13299,996 12299,996" />
                        <g id="ncefjgg" class="note">
                           <g class="notehead">
                              <use xlink:href="#E0A4-s6ouxw" x="12091" y="1536" height="720px" width="720px" />
                           </g>
                           <g id="s1enc08y" class="stem">
                              <rect x="12299" y="924" height="584" width="18" />
                           </g>
                        </g>
                        <g id="n1w6xfhq" class="note">
                           <g class="notehead">
                              <use xlink:href="#E0A4-s6ouxw" x="12582" y="1626" height="720px" width="720px" />
                           </g>
                           <g id="s1bttk7l" class="stem">
                              <rect x="12790" y="924" height="674" width="18" />
                           </g>
                        </g>
                        <g id="n1bvt6am" class="note">
                           <g class="notehead">
                              <use xlink:href="#E0A4-s6ouxw" x="13073" y="1536" height="720px" width="720px" />
                           </g>
                           <g id="s3s2vb9" class="stem">
                              <rect x="13281" y="924" height="584" width="18" />
                           </g>
                        </g>
                     </g>
                     <g id="n1q16s6t" class="note">
                        <g class="notehead">
                           <use xlink:href="#E0A4-s6ouxw" x="13564" y="1626" height="720px" width="720px" />
                        </g>
                        <g id="dham4h0" class="dots">
                           <ellipse cx="13880" cy="1536" rx="36" ry="36" />
                        </g>
                        <g id="s1k4bt9x" class="stem">
                           <rect x="13772" y="996" height="602" width="18" />
                        </g>
                     </g>
                  </g>
               </g>
               <g id="b4pdtpj" class="barLine">
                  <path d="M14524 1086 L14524 1806" stroke="currentColor" stroke-width="27" />
                  <path d="M14654 1086 L14654 1806" stroke="currentColor" stroke-width="90" />
                  <path d="M14785 1086 L14785 1806" stroke="currentColor" stroke-width="27" />
                  <use xlink:href="#E044-s6ouxw" x="14830" y="1356" height="720px" width="720px" />
                  <use xlink:href="#E044-s6ouxw" x="14830" y="1536" height="720px" width="720px" />
                  <use xlink:href="#E044-s6ouxw" x="14407" y="1356" height="720px" width="720px" />
                  <use xlink:href="#E044-s6ouxw" x="14407" y="1536" height="720px" width="720px" />
               </g>
            </g>
            <g id="m3n1qi1" class="measure">
               <g id="s1wruwlc" class="staff">
                  <path d="M14902 1086 L17603 1086" stroke="currentColor" stroke-width="13" />
                  <path d="M14902 1266 L17603 1266" stroke="currentColor" stroke-width="13" />
                  <path d="M14902 1446 L17603 1446" stroke="currentColor" stroke-width="13" />
                  <path d="M14902 1626 L17603 1626" stroke="currentColor" stroke-width="13" />
                  <path d="M14902 1806 L17603 1806" stroke="currentColor" stroke-width="13" />
                  <g id="lz9j60f" class="layer">
                     <g id="n1b0bpdm" class="note">
                        <g class="notehead">
                           <use xlink:href="#E0A4-s6ouxw" x="15082" y="1446" height="720px" width="720px" />
                        </g>
                        <g id="s19lenas" class="stem">
                           <rect x="15082" y="1474" height="572" width="18" />
                        </g>
                     </g>
                     <g id="n1ytts2t" class="note">
                        <g class="notehead">
                           <use xlink:href="#E0A4-s6ouxw" x="15835" y="1626" height="720px" width="720px" />
                        </g>
                        <g id="s1v14p7c" class="stem">
                           <rect x="16043" y="996" height="602" width="18" />
                           <g id="f1uterj5" class="flag">
                              <use xlink:href="#E240-s6ouxw" x="16043" y="996" height="720px" width="720px" />
                           </g>
                        </g>
                     </g>
                     <g id="n5c208z" class="note">
                        <g class="notehead">
                           <use xlink:href="#E0A4-s6ouxw" x="16329" y="1536" height="720px" width="720px" />
                        </g>
                        <g id="s1aapoy7" class="stem">
                           <rect x="16537" y="906" height="602" width="18" />
                        </g>
                     </g>
                     <g id="n1af0f6t" class="note">
                        <g class="notehead">
                           <use xlink:href="#E0A4-s6ouxw" x="17082" y="1536" height="720px" width="720px" />
                        </g>
                        <g id="sgkurv7" class="stem">
                           <rect x="17290" y="906" height="602" width="18" />
                           <g id="f1tfrdmu" class="flag">
                              <use xlink:href="#E240-s6ouxw" x="17290" y="906" height="720px" width="720px" />
                           </g>
                        </g>
                     </g>
                  </g>
               </g>
               <g id="b1eaf7m" class="barLine">
                  <path d="M17590 1086 L17590 1806" stroke="currentColor" stroke-width="27" />
               </g>
            </g>
            <g id="m1jn2qlz" class="measure">
               <g id="s15pa3tp" class="staff">
                  <path d="M17603 1086 L20003 1086" stroke="currentColor" stroke-width="13" />
                  <path d="M17603 1266 L20003 1266" stroke="currentColor" stroke-width="13" />
                  <path d="M17603 1446 L20003 1446" stroke="currentColor" stroke-width="13" />
                  <path d="M17603 1626 L20003 1626" stroke="currentColor" stroke-width="13" />
                  <path d="M17603 1806 L20003 1806" stroke="currentColor" stroke-width="13" />
                  <g id="lud7gx3" class="layer">
                     <g id="n4hzd3z" class="note">
                        <g class="notehead">
                           <use xlink:href="#E0A4-s6ouxw" x="17783" y="1446" height="720px" width="720px" />
                        </g>
                        <g id="sl6jk12" class="stem">
                           <rect x="17783" y="1474" height="572" width="18" />
                        </g>
                     </g>
                     <g id="nj1lh26" class="note">
                        <g class="notehead">
                           <use xlink:href="#E0A4-s6ouxw" x="18536" y="1626" height="720px" width="720px" />
                        </g>
                        <g id="s1342fa0" class="stem">
                           <rect x="18744" y="996" height="602" width="18" />
                           <g id="f1ijtzuz" class="flag">
                              <use xlink:href="#E240-s6ouxw" x="18744" y="996" height="720px" width="720px" />
                           </g>
                        </g>
                     </g>
                     <g id="ntgikkl" class="note">
                        <g class="notehead">
                           <use xlink:href="#E0A4-s6ouxw" x="19030" y="1536" height="720px" width="720px" />
                        </g>
                        <g id="dxo1esn" class="dots">
                           <ellipse cx="19346" cy="1536" rx="36" ry="36" />
                        </g>
                        <g id="s1ws66c3" class="stem">
                           <rect x="19238" y="906" height="602" width="18" />
                        </g>
                     </g>
                  </g>
               </g>
               <g id="beqj6aj" class="barLine">
                  <path d="M19990 1086 L19990 1806" stroke="currentColor" stroke-width="27" />
               </g>
            </g>
         </g>
         <g id="s8jzqv8" class="system">
            <g id="l1d68aao" class="labelAbbr">
               <text x="914" y="3885" text-anchor="end" font-size="0px">
                  <tspan id="tt8h8c0" class="text">
                     <tspan font-size="405px" class="text">Pno.</tspan>
                  </tspan>
               </text>
            </g>
            <g id="mf69yko" class="measure">
               <g id="mhjrjq4" class="mNum autogenerated">
                  <text x="1094" y="3192" text-anchor="middle" font-size="0px">
                     <tspan id="t1wk3898" class="text">
                        <tspan font-size="324px" class="text">7</tspan>
                     </tspan>
                  </text>
               </g>
               <g id="s1pwhebo" class="staff">
                  <path d="M1094 3435 L5211 3435" stroke="currentColor" stroke-width="13" />
                  <path d="M1094 3615 L5211 3615" stroke="currentColor" stroke-width="13" />
                  <path d="M1094 3795 L5211 3795" stroke="currentColor" stroke-width="13" />
                  <path d="M1094 3975 L5211 3975" stroke="currentColor" stroke-width="13" />
                  <path d="M1094 4155 L5211 4155" stroke="currentColor" stroke-width="13" />
                  <g id="cxxt95g" class="clef">
                     <use xlink:href="#E050-s6ouxw" x="1184" y="3975" height="720px" width="720px" />
                  </g>
                  <g id="k1vw70xb" class="keySig">
                     <g id="k4n7aie" class="keyAccid">
                        <use xlink:href="#E262-s6ouxw" x="1829" y="3435" height="720px" width="720px" />
                     </g>
                  </g>
                  <g id="l1yr6p4w" class="layer">
                     <g id="b1hwghji" class="beam">
                        <polygon points="2240,4380 3244,4200 3244,4110 2240,4290" />
                        <g id="n1k05qn4" class="note">
                           <g class="notehead">
                              <use xlink:href="#E0A4-s6ouxw" x="2240" y="3795" height="720px" width="720px" />
                           </g>
                           <g id="s5s3prv" class="stem">
                              <rect x="2240" y="3823" height="539" width="18" />
                           </g>
                        </g>
                        <g id="n7e16eg" class="note">
                           <g class="notehead">
                              <use xlink:href="#E0A4-s6ouxw" x="2733" y="3705" height="720px" width="720px" />
                           </g>
                           <g id="s13kfx5s" class="stem">
                              <rect x="2733" y="3733" height="539" width="18" />
                           </g>
                        </g>
                        <g id="nzmpdb4" class="note">
                           <g class="notehead">
                              <use xlink:href="#E0A4-s6ouxw" x="3226" y="3615" height="720px" width="720px" />
                           </g>
                           <g id="s1lbsnbu" class="stem">
                              <rect x="3226" y="3643" height="539" width="18" />
                           </g>
                        </g>
                     </g>
                     <g id="b13vbdvh" class="beam">
                        <polygon points="3719,4200 4723,4380 4723,4290 3719,4110" />
                        <g id="n6esd9" class="note">
                           <g class="notehead">
                              <use xlink:href="#E0A4-s6ouxw" x="3719" y="3615" height="720px" width="720px" />
                           </g>
                           <g id="skjikhz" class="stem">
                              <rect x="3719" y="3643" height="539" width="18" />
                           </g>
                        </g>
                        <g id="neld45" class="note">
                           <g class="notehead">
                              <use xlink:href="#E0A4-s6ouxw" x="4212" y="3705" height="720px" width="720px" />
                           </g>
                           <g id="szg5hqa" class="stem">
                              <rect x="4212" y="3733" height="539" width="18" />
                           </g>
                        </g>
                        <g id="n6u1cxz" class="note">
                           <g class="notehead">
                              <use xlink:href="#E0A4-s6ouxw" x="4705" y="3795" height="720px" width="720px" />
                           </g>
                           <g id="scp0z8q" class="stem">
                              <rect x="4705" y="3823" height="539" width="18" />
                           </g>
                        </g>
                     </g>
                  </g>
               </g>
               <g id="b1evqc3r" class="barLine">
                  <path d="M5198 3435 L5198 4155" stroke="currentColor" stroke-width="27" />
               </g>
            </g>
            <g id="sh38d1s" class="sb" />
            <g id="m3iqgvq" class="measure">
               <g id="szgtzdi" class="staff">
                  <path d="M5211 3435 L8149 3435" stroke="currentColor" stroke-width="13" />
                  <path d="M5211 3615 L8149 3615" stroke="currentColor" stroke-width="13" />
                  <path d="M5211 3795 L8149 3795" stroke="currentColor" stroke-width="13" />
                  <path d="M5211 3975 L8149 3975" stroke="currentColor" stroke-width="13" />
                  <path d="M5211 4155 L8149 4155" stroke="currentColor" stroke-width="13" />
                  <g id="lh9fwxw" class="layer">
                     <g id="b1q1ys53" class="beam">
                        <polygon points="5391,4425 6395,4245 6395,4155 5391,4335" />
                        <g id="n1oovoi2" class="note">
                           <g class="notehead">
                              <use xlink:href="#E0A4-s6ouxw" x="5391" y="3885" height="720px" width="720px" />
                           </g>
                           <g id="sdvizha" class="stem">
                              <rect x="5391" y="3913" height="494" width="18" />
                           </g>
                        </g>
                        <g id="n7kkhe2" class="note">
                           <g class="notehead">
                              <use xlink:href="#E0A4-s6ouxw" x="5884" y="3795" height="720px" width="720px" />
                           </g>
                           <g id="s11nuhwf" class="stem">
                              <rect x="5884" y="3823" height="494" width="18" />
                           </g>
                        </g>
                        <g id="nmtd4wc" class="note">
                           <g class="notehead">
                              <use xlink:href="#E0A4-s6ouxw" x="6377" y="3705" height="720px" width="720px" />
                           </g>
                           <g id="slvo1yf" class="stem">
                              <rect x="6377" y="3733" height="494" width="18" />
                           </g>
                        </g>
                     </g>
                     <g id="ncfrilo" class="note">
                        <g class="notehead">
                           <use xlink:href="#E0A4-s6ouxw" x="6870" y="3795" height="720px" width="720px" />
                        </g>
                        <g id="s1u6k23l" class="stem">
                           <rect x="6870" y="3823" height="572" width="18" />
                        </g>
                     </g>
                     <g id="n13i81oe" class="note">
                        <g class="notehead">
                           <use xlink:href="#E0A4-s6ouxw" x="7626" y="3975" height="720px" width="720px" />
                        </g>
                        <g id="s1mas5lw" class="stem">
                           <rect x="7834" y="3345" height="602" width="18" />
                           <g id="f1c2t1am" class="flag">
                              <use xlink:href="#E240-s6ouxw" x="7834" y="3345" height="720px" width="720px" />
                           </g>
                        </g>
                     </g>
                  </g>
               </g>
               <g id="b1g03i06" class="barLine">
                  <path d="M8136 3435 L8136 4155" stroke="currentColor" stroke-width="27" />
               </g>
            </g>
            <g id="mvm875i" class="measure">
               <g id="seoaaso" class="staff">
                  <path d="M8149 3435 L11300 3435" stroke="currentColor" stroke-width="13" />
                  <path d="M8149 3615 L11300 3615" stroke="currentColor" stroke-width="13" />
                  <path d="M8149 3795 L11300 3795" stroke="currentColor" stroke-width="13" />
                  <path d="M8149 3975 L11300 3975" stroke="currentColor" stroke-width="13" />
                  <path d="M8149 4155 L11300 4155" stroke="currentColor" stroke-width="13" />
                  <g id="lb3960m" class="layer">
                     <g id="bf3lt7v" class="beam">
                        <polygon points="8329,4380 9333,4200 9333,4110 8329,4290" />
                        <g id="ne6demo" class="note">
                           <g class="notehead">
                              <use xlink:href="#E0A4-s6ouxw" x="8329" y="3795" height="720px" width="720px" />
                           </g>
                           <g id="smap6mr" class="stem">
                              <rect x="8329" y="3823" height="539" width="18" />
                           </g>
                        </g>
                        <g id="n4xnpzq" class="note">
                           <g class="notehead">
                              <use xlink:href="#E0A4-s6ouxw" x="8822" y="3705" height="720px" width="720px" />
                           </g>
                           <g id="s1sbxcap" class="stem">
                              <rect x="8822" y="3733" height="539" width="18" />
                           </g>
                        </g>
                        <g id="n1jkk2mx" class="note">
                           <g class="notehead">
                              <use xlink:href="#E0A4-s6ouxw" x="9315" y="3615" height="720px" width="720px" />
                           </g>
                           <g id="s7clcq1" class="stem">
                              <rect x="9315" y="3643" height="539" width="18" />
                           </g>
                        </g>
                     </g>
                     <g id="b7ttvjo" class="beam">
                        <polygon points="9808,4200 10812,4380 10812,4290 9808,4110" />
                        <g id="nqp7g85" class="note">
                           <g class="notehead">
                              <use xlink:href="#E0A4-s6ouxw" x="9808" y="3615" height="720px" width="720px" />
                           </g>
                           <g id="srlk6b7" class="stem">
                              <rect x="9808" y="3643" height="539" width="18" />
                           </g>
                        </g>
                        <g id="n1bu14dh" class="note">
                           <g class="notehead">
                              <use xlink:href="#E0A4-s6ouxw" x="10301" y="3705" height="720px" width="720px" />
                           </g>
                           <g id="s1cxhoto" class="stem">
                              <rect x="10301" y="3733" height="539" width="18" />
                           </g>
                        </g>
                        <g id="n18nu10k" class="note">
                           <g class="notehead">
                              <use xlink:href="#E0A4-s6ouxw" x="10794" y="3795" height="720px" width="720px" />
                           </g>
                           <g id="s10srmwg" class="stem">
                              <rect x="10794" y="3823" height="539" width="18" />
                           </g>
                        </g>
                     </g>
                  </g>
               </g>
               <g id="b1e0ljl0" class="barLine">
                  <path d="M11287 3435 L11287 4155" stroke="currentColor" stroke-width="27" />
               </g>
            </g>
            <g id="my92hdr" class="measure">
               <g id="s9wlum6" class="staff">
                  <path d="M11300 3435 L14098 3435" stroke="currentColor" stroke-width="13" />
                  <path d="M11300 3615 L14098 3615" stroke="currentColor" stroke-width="13" />
                  <path d="M11300 3795 L14098 3795" stroke="currentColor" stroke-width="13" />
                  <path d="M11300 3975 L14098 3975" stroke="currentColor" stroke-width="13" />
                  <path d="M11300 4155 L14098 4155" stroke="currentColor" stroke-width="13" />
                  <g id="l1jg3cyp" class="layer">
                     <g id="b1ed0vco" class="beam">
                        <polygon points="11688,3255 12692,3255 12692,3345 11688,3345" />
                        <g id="n117w7mk" class="note">
                           <g class="notehead">
                              <use xlink:href="#E0A4-s6ouxw" x="11480" y="3885" height="720px" width="720px" />
                           </g>
                           <g id="s7h3zpx" class="stem">
                              <rect x="11688" y="3273" height="584" width="18" />
                           </g>
                        </g>
                        <g id="n1num9x8" class="note">
                           <g class="notehead">
                              <use xlink:href="#E0A4-s6ouxw" x="11973" y="3975" height="720px" width="720px" />
                           </g>
                           <g id="s11xqu09" class="stem">
                              <rect x="12181" y="3273" height="674" width="18" />
                           </g>
                        </g>
                        <g id="n1iye67m" class="note">
                           <g class="notehead">
                              <use xlink:href="#E0A4-s6ouxw" x="12466" y="3885" height="720px" width="720px" />
                           </g>
                           <g id="s164m15m" class="stem">
                              <rect x="12674" y="3273" height="584" width="18" />
                           </g>
                        </g>
                     </g>
                     <g id="n1vqmxit" class="note">
                        <g class="notehead">
                           <use xlink:href="#E0A4-s6ouxw" x="12959" y="3975" height="720px" width="720px" />
                        </g>
                        <g id="d17fsbay" class="dots">
                           <ellipse cx="13275" cy="3885" rx="36" ry="36" />
                        </g>
                        <g id="s106s52e" class="stem">
                           <rect x="13167" y="3345" height="602" width="18" />
                        </g>
                     </g>
                  </g>
               </g>
               <g id="b5oqc2c" class="barLine">
                  <path d="M13923 3435 L13923 4155" stroke="currentColor" stroke-width="27" />
                  <path d="M14053 3435 L14053 4155" stroke="currentColor" stroke-width="90" />
               </g>
            </g>
            <g id="s1glhwru" class="systemMilestoneEnd s1uyomrr" />
         </g>
         <g id="pnh27e0" class="pageMilestoneEnd sgftqkf" />
         <g id="p1mlop3g" class="pageMilestoneEnd mi4chhd" />
         <g id="pr1ac8s" class="pgHead">
            <text x="0" y="0" font-size="0px">
               <tspan id="r2shd2g" class="rend" x="10000" y="278" text-anchor="middle">
                  <tspan id="t1utg2gx" class="text">
                     <tspan font-size="405px" class="text">Air n 6b</tspan>
                  </tspan>
               </tspan>
            </text>
         </g>
         <g id="pt2bnvd" class="pgFoot autogenerated">
            <g id="foa2784" class="fig">
               <g id="syz6uha" class="svg" transform="translate(7750, 28099) scale(10, 10)">
                  <g>
                     <path fill="#00000" d="M 17.11278,49.26451 V 10.367554 h 12.696511 c 3.288815,7.336676 6.71267,14.610456 10.127281,21.888976 3.419998,-7.484684 6.255515,-14.204887 9.58887,-21.909915 2.436207,0.103726 4.316952,0.08453 6.484294,-0.05808 V 49.264423 H 50.274275 C 50.145222,38.35639 50.016136,27.448368 49.887066,16.540329 45.003488,27.315459 39.967448,38.433564 35.083854,49.208695 34.678996,49.343717 34.426583,49.135619 34.021726,49.270644 29.46588,39.330716 24.910049,29.390805 20.354201,19.450876 20.224341,29.388756 20.09461,39.326619 19.964815,49.264497 H 17.11278 Z M 36.754144,39.324695 C 32.721221,30.512695 28.6883,21.700679 24.655394,12.888662 22.530527,12.750737 22.656775,12.71031 20.714356,12.813974 v 0.966497 c 4.612938,9.99784 9.609439,20.748709 13.87298,30.081745 0.722248,-1.512523 1.444528,-3.025014 2.166808,-4.537521 z m 25.738417,9.939815 c 0,-12.965651 0,-25.931305 0,-38.896956 10.084388,0 20.168791,0 30.253178,0 0,0.960416 0,1.920849 0,2.881265 -6.482825,0 -12.965652,0 -19.448478,0 0,4.802097 0,9.604178 0,14.406277 5.52241,0 11.044819,0 16.567229,0 0,0.960415 0,1.920832 0,2.881248 -5.52241,0 -11.044819,0 -16.567229,0 0,5.282306 0,10.564611 0,15.846917 6.963035,0 13.926068,0 20.889103,0 0,0.960416 0,1.920832 0,2.881249 -10.564597,0 -21.129207,0 -31.693803,0 z m 4.321874,-2.160937 c 0,-11.765131 0,-23.530263 0,-35.295394 -0.720312,0 -1.440625,0 -2.160937,0 0,11.765131 0,23.530263 0,35.295394 0.720312,0 1.440625,0 2.160937,0 z m 32.41413,2.160937 c 0,-12.965651 0,-25.931305 0,-38.896956 2.401045,0 4.802095,0 7.203135,0 0,12.965651 0,25.931305 0,38.896956 -2.40104,0 -4.80209,0 -7.203135,0 z m 2.881265,-2.160937 c 0,-11.765131 0,-23.530263 0,-35.295394 -0.72031,0 -1.44064,0 -2.160953,0 0,11.765131 0,23.530263 0,35.295394 0.720313,0 1.440643,0 2.160953,0 z" />
                     <path fill="#00000" d="m 346.3,6.7 c -3.1,0.5 -4.9,4.4 -2.7,6.8 1.2,1.4 2.7,2.4 4.1,3.5 -2.4,5.3 -7.7,8.3 -11.9,12.1 -3.7,2.8 -7,6.2 -9.7,9.9 -2.2,-0.8 -0.3,-6.8 -0.6,-9.5 0.1,-3.1 0.7,-6.4 2.9,-8.7 1.3,-1.9 3,-3.5 4.5,-5.2 1.2,-3.4 -3.2,-4.9 -5.8,-4.6 -7.3,-0.5 -14.6,2 -20,6.8 -5,4.6 -10,10.1 -11.5,17 -0.9,3.5 -0.2,7.5 2.8,9.9 2.5,2.8 7.4,2.9 9.8,-0.2 1.7,-2.3 3.2,-4.8 3.8,-7.6 -0.1,-2.6 -4.4,-2.3 -4.3,0.2 1.2,2.4 -0.9,4.7 -2.7,6.2 -1.7,0.9 -4.7,0.7 -4.8,-1.7 -1,-5.8 2.1,-11.3 5.2,-16.1 4,-5.8 9.8,-11.2 17.2,-11.8 1.6,0 8.1,-1.2 6.8,1.4 -2.8,2.8 -5.6,6.1 -6,10.3 -1.6,7.7 0.1,15.7 -2.3,23.2 -1.1,3.9 2,2.6 2.5,0.2 3.3,-7.4 8.9,-13.4 15.1,-18.5 4.2,-3.9 9.5,-7.1 11.9,-12.6 1.3,-3.6 1.2,-9 -2.7,-10.9 -0.6,-0.2 -1.2,-0.3 -1.8,-0.3 z m 66,14.5 c -2,0.8 -1.8,4.9 0.8,4.4 3.4,0.4 2.9,-6.2 -0.8,-4.4 z m 0.6,7.3 c -1.3,0.5 -7.6,0.5 -5.4,2.2 4,-0.3 0.7,4.5 0.6,6.7 -0.4,2.9 -2.4,5.9 -1.2,8.8 2.7,1.7 5.6,-0.8 6.8,-3.2 1.6,-1.4 -0.5,-3 -1.2,-0.9 -0.4,0.8 -2.4,3.5 -2.6,1.8 1.1,-5 2.7,-9.9 3.9,-14.9 l -0.1,-0.5 h -0.9 z m -65.1,0.2 c -6.5,1.6 -10.5,9.5 -8.2,15.7 2.1,3.4 7.4,2.9 10.1,0.4 2,-0.2 3.6,-5.3 1,-3.4 -1.4,2 -4,4.2 -6.5,2.8 -2.2,-1.9 -1.9,-5.7 1.7,-5.3 3.1,-0.9 6.9,-2.1 8.1,-5.5 0.9,-2.7 -1.6,-5.2 -4.3,-4.8 h -1.1 -0.7 z m 13.6,0 c -2.2,0 -8.5,1.8 -2.9,2.3 0.9,1.9 -1,4.9 -1.1,7.2 -0.5,2.9 -1.4,5.7 -1.7,8.7 3.7,0.7 3.8,-2.6 4.4,-5.3 0.9,-3.3 1.6,-7 4.1,-9.5 2.4,1.6 6.8,-0.7 3.7,-3.4 -2.9,-0.5 -4.8,2.4 -6.2,4.3 0,-1.2 2.4,-5 -0.2,-4.3 z m 15.8,0 c -6.4,1.3 -9.6,9.1 -7.7,14.9 1.9,4 7.7,3.9 11,1.7 4.1,-3 6,-8.9 4.4,-13.7 -1.3,-3 -4.8,-3.2 -7.6,-3 z m 17,0 c -2.3,0 -8.8,1.9 -3,2.4 0.4,2.5 -1,5.7 -1.4,8.4 -0.7,2.4 -1.8,7.5 2.1,7.2 3.8,-0.1 6.5,-3.5 8.5,-6.3 2,-3.2 4.5,-7 3.3,-10.9 -3.7,-3 -3.6,2.6 -3.1,5.1 -0.7,3.8 -2.7,7.9 -6.2,9.8 -3.6,0.6 -1,-4.3 -0.8,-6.1 0.6,-3.2 1.6,-6.3 1.9,-9.5 -0.4,0 -0.8,0 -1.1,0 z m 30.6,0 c -6.3,1.2 -9.5,8.9 -7.8,14.7 1.5,4 7.2,4.2 10.5,2.4 4.6,-2.8 6.6,-9.3 4.8,-14.3 -1.4,-2.8 -4.8,-3 -7.5,-2.8 z m -75.4,1.7 c 2.1,1.5 0.2,4.7 -1.6,5.7 -1.1,0.4 -5.5,3.4 -4.6,0.7 0.8,-2.7 2.2,-6.2 5.3,-6.6 l 0.9,0.1 z m 30.8,0 c 2.6,1.5 1.3,5.2 0.8,7.6 -0.8,2.7 -1.9,5.9 -4.7,7.1 -5.1,0.8 -4,-5.8 -2.8,-8.8 1,-2.8 3,-6.8 6.7,-5.8 z m 47.1,-0.1 c 2.9,0.7 2,4.7 1.5,6.8 -0.7,3 -1.8,6.7 -5,8 -4.7,0.8 -4,-5.1 -3,-7.9 0.9,-3 2.7,-7.3 6.5,-6.8 z m -88.1,5.9 c -0.3,1.3 0.9,-0.6 0,0 z m -1.1,2.4 c -0.2,0.5 0.5,-0.1 0,0 z m -1.3,4.5 c -0.3,1.3 0.8,-0.2 0,0 z" />
                     <text y="41" x="201" fill="#00000" style="font-style:italic;font-weight:normal;font-size:30px;line-height:125%;font-family:Times;text-anchor:middle" xml:space="preserve">engraved with</text>
                  </g>
               </g>
            </g>
         </g>
      </g>
   </svg>
</svg>
