<?xml version="1.0" encoding="UTF-8" standalone="no"?>
<svg width="2100px" height="2970px" version="1.1" xmlns="http://www.w3.org/2000/svg" xmlns:xlink="http://www.w3.org/1999/xlink" xmlns:mei="http://www.music-encoding.org/ns/mei" overflow="visible">
   <desc>Engraved by Verovio 3.13.1</desc>
   <defs>
      <symbol id="E044-11xpvd" viewBox="0 0 1000 1000" overflow="inherit">
         <path transform="scale(1,-1)" d="M0 0c0 28 22 50 50 50s50 -22 50 -50s-22 -50 -50 -50s-50 22 -50 50z" />
      </symbol>
      <symbol id="E050-11xpvd" viewBox="0 0 1000 1000" overflow="inherit">
         <path transform="scale(1,-1)" d="M441 -245c-23 -4 -48 -6 -76 -6c-59 0 -102 7 -130 20c-88 42 -150 93 -187 154c-26 44 -43 103 -48 176c0 6 -1 13 -1 19c0 54 15 111 45 170c29 57 65 106 110 148s96 85 153 127c-3 16 -8 46 -13 92c-4 43 -5 73 -5 89c0 117 16 172 69 257c34 54 64 82 89 82 c21 0 43 -30 69 -92s39 -115 41 -159v-15c0 -109 -21 -162 -67 -241c-13 -20 -63 -90 -98 -118c-13 -9 -25 -19 -37 -29l31 -181c8 1 18 2 28 2c58 0 102 -12 133 -35c59 -43 92 -104 98 -184c1 -7 1 -15 1 -22c0 -123 -87 -209 -181 -248c8 -57 17 -110 25 -162 c5 -31 6 -58 6 -80c0 -30 -5 -53 -14 -70c-35 -64 -88 -99 -158 -103c-5 0 -11 -1 -16 -1c-37 0 -72 10 -108 27c-50 24 -77 59 -80 105v11c0 29 7 55 20 76c18 28 45 42 79 44h6c49 0 93 -42 97 -87v-9c0 -51 -34 -86 -105 -106c17 -24 51 -36 102 -36c62 0 116 43 140 85 c9 16 13 41 13 74c0 20 -1 42 -5 67c-8 53 -18 106 -26 159zM461 939c-95 0 -135 -175 -135 -286c0 -24 2 -48 5 -71c50 39 92 82 127 128c40 53 60 100 60 140v8c-4 53 -22 81 -55 81h-2zM406 119l54 -326c73 25 110 78 110 161c0 7 0 15 -1 23c-7 95 -57 142 -151 142h-12 zM382 117c-72 -2 -128 -47 -128 -120v-7c2 -46 43 -99 75 -115c-3 -2 -7 -5 -10 -10c-70 33 -116 88 -123 172v11c0 68 44 126 88 159c23 17 49 29 78 36l-29 170c-21 -13 -52 -37 -92 -73c-50 -44 -86 -84 -109 -119c-45 -69 -67 -130 -67 -182v-13c5 -68 35 -127 93 -176 s125 -73 203 -73c25 0 50 3 75 9c-19 111 -36 221 -54 331z" />
      </symbol>
      <symbol id="E081-11xpvd" viewBox="0 0 1000 1000" overflow="inherit">
         <path transform="scale(1,-1)" d="M68 -250v36c23 0 40 6 49 18c8 14 12 33 12 57v250l-82 -129l-27 13l107 255h128v-394c0 -24 5 -42 14 -53s25 -17 47 -17v-36h-248z" />
      </symbol>
      <symbol id="E082-11xpvd" viewBox="0 0 1000 1000" overflow="inherit">
         <path transform="scale(1,-1)" d="M124 -185c-18 0 -55 -14 -65 -65h-36l-3 30c0 25 6 45 18 63c11 19 22 30 39 43l121 82l37 29c15 11 27 29 38 54c12 24 18 47 18 70c0 40 -19 88 -94 88c-25 0 -32 0 -50 -8c-14 -5 -23 -12 -26 -22c3 -9 7 -15 10 -18l24 -17c12 -7 17 -11 27 -21c5 -7 7 -16 7 -27 c0 -12 0 -57 -79 -74c-30 0 -76 26 -76 94c0 66 81 135 197 135c72 0 181 -32 181 -150c0 -53 -32 -95 -113 -133l-91 -41c-26 -11 -45 -23 -57 -37l49 7c84 0 115 -41 148 -41c20 0 33 20 39 61h35c0 -152 -68 -168 -114 -168c-17 0 -65 0 -79 7h10l-28 17 c-49 37 -69 40 -87 42z" />
      </symbol>
      <symbol id="E084-11xpvd" viewBox="0 0 1000 1000" overflow="inherit">
         <path transform="scale(1,-1)" d="M20 -78c84 97 114 180 134 329h170c-13 -32 -82 -132 -99 -151l-84 -97c-33 -36 -59 -63 -80 -81h162v102l127 123v-225h57v-39h-57v-34c0 -43 19 -65 57 -65v-34h-244v36c48 0 60 26 60 70v27h-203v39z" />
      </symbol>
      <symbol id="E0A4-11xpvd" viewBox="0 0 1000 1000" overflow="inherit">
         <path transform="scale(1,-1)" d="M0 -39c0 68 73 172 200 172c66 0 114 -37 114 -95c0 -84 -106 -171 -218 -171c-64 0 -96 30 -96 94z" />
      </symbol>
      <symbol id="E260-11xpvd" viewBox="0 0 1000 1000" overflow="inherit">
         <path transform="scale(1,-1)" d="M20 110c32 16 54 27 93 27c26 0 35 -3 54 -13c13 -7 24 -20 27 -38l4 -25c0 -28 -16 -57 -45 -89c-23 -25 -39 -44 -65 -68l-88 -79v644h20v-359zM90 106c-32 0 -48 -10 -70 -29v-194c31 31 54 59 71 84c21 32 32 59 32 84c0 9 1 16 1 20c0 14 -3 21 -11 30l-8 3z" />
      </symbol>
   </defs>
   <style type="text/css">g.page-margin{font-family:Times;} g.ending, g.fing, g.reh, g.tempo{font-weight:bold;} g.dir, g.dynam, g.mNum{font-style:italic;} g.label{font-weight:normal;}</style>
   <svg class="definition-scale" color="black" viewBox="0 0 21000 29700">
      <g class="page-margin" transform="translate(500, 500)">
         <g id="m1krmjej" class="mdiv pageMilestone" />
         <g id="s3n7qus" class="score pageMilestone" />
         <g id="sy399r0" class="system">
            <g id="l1ly8cyy" class="label">
               <text x="1105" y="1535" text-anchor="end" font-size="0px">
                  <tspan id="tbybvkh" class="text">
                     <tspan font-size="405px" class="text">Piano</tspan>
                  </tspan>
               </text>
            </g>
            <g id="savfzjf" class="section systemMilestone" />
            <g id="pezm77l" class="pb" />
            <g id="mnt66zo" class="measure">
               <g id="m19spzya" class="mNum">
                  <text x="1285" y="842" text-anchor="middle" font-size="0px" />
               </g>
               <g id="sgdrden" class="staff">
                  <path d="M1285 1085 L4325 1085" stroke="currentColor" stroke-width="13" />
                  <path d="M1285 1265 L4325 1265" stroke="currentColor" stroke-width="13" />
                  <path d="M1285 1445 L4325 1445" stroke="currentColor" stroke-width="13" />
                  <path d="M1285 1625 L4325 1625" stroke="currentColor" stroke-width="13" />
                  <path d="M1285 1805 L4325 1805" stroke="currentColor" stroke-width="13" />
                  <g id="c1k9qtdv" class="clef">
                     <use xlink:href="#E050-11xpvd" x="1375" y="1625" height="720px" width="720px" />
                  </g>
                  <g id="k135vop4" class="keySig">
                     <g id="k1f1b38d" class="keyAccid">
                        <use xlink:href="#E260-11xpvd" x="2020" y="1445" height="720px" width="720px" />
                     </g>
                     <g id="k1i9ng2n" class="keyAccid">
                        <use xlink:href="#E260-11xpvd" x="2200" y="1175" height="720px" width="720px" />
                     </g>
                  </g>
                  <g id="m5p31wo" class="meterSig">
                     <use xlink:href="#E082-11xpvd" x="2508" y="1265" height="720px" width="720px" />
                     <use xlink:href="#E084-11xpvd" x="2513" y="1625" height="720px" width="720px" />
                  </g>
                  <g id="ljxcmfq" class="layer">
                     <g id="b1a7r8bm" class="beam">
                        <polygon points="3085,2030 3717,1940 3717,1850 3085,1940" />
                        <g id="n1rkdhtt" class="note">
                           <g class="notehead">
                              <use xlink:href="#E0A4-11xpvd" x="3085" y="1445" height="720px" width="720px" />
                           </g>
                           <g id="s13n45c7" class="stem">
                              <rect x="3085" y="1473" height="539" width="18" />
                           </g>
                           <g id="a1ul2xxt" class="accid" />
                        </g>
                        <g id="n4zgxrn" class="note">
                           <g class="notehead">
                              <use xlink:href="#E0A4-11xpvd" x="3699" y="1355" height="720px" width="720px" />
                           </g>
                           <g id="s8bie0h" class="stem">
                              <rect x="3699" y="1383" height="539" width="18" />
                           </g>
                        </g>
                     </g>
                  </g>
               </g>
               <g id="bdtc7ci" class="barLine">
                  <path d="M4312 1085 L4312 1805" stroke="currentColor" stroke-width="27" />
               </g>
            </g>
            <g id="mt160nw" class="measure">
               <g id="sqo4gju" class="staff">
                  <path d="M4325 1085 L7382 1085" stroke="currentColor" stroke-width="13" />
                  <path d="M4325 1265 L7382 1265" stroke="currentColor" stroke-width="13" />
                  <path d="M4325 1445 L7382 1445" stroke="currentColor" stroke-width="13" />
                  <path d="M4325 1625 L7382 1625" stroke="currentColor" stroke-width="13" />
                  <path d="M4325 1805 L7382 1805" stroke="currentColor" stroke-width="13" />
                  <g id="lz46ouj" class="layer">
                     <g id="byznfjm" class="beam">
                        <polygon points="4509,1850 5549,1850 5549,1760 4509,1760" />
                        <polygon points="5132,1715 5549,1715 5549,1625 5132,1625" />
                        <g id="nto8sat" class="note">
                           <g class="notehead">
                              <use xlink:href="#E0A4-11xpvd" x="4509" y="1265" height="720px" width="720px" />
                           </g>
                           <g id="s1ml0ljx" class="stem">
                              <rect x="4509" y="1293" height="539" width="18" />
                           </g>
                        </g>
                        <g id="n1g42dhc" class="note">
                           <g class="notehead">
                              <use xlink:href="#E0A4-11xpvd" x="5123" y="1175" height="720px" width="720px" />
                           </g>
                           <g id="s1ye366k" class="stem">
                              <rect x="5123" y="1203" height="629" width="18" />
                           </g>
                           <g id="a1h7ddvs" class="accid" />
                        </g>
                        <g id="n13bdtvt" class="note">
                           <g class="notehead">
                              <use xlink:href="#E0A4-11xpvd" x="5531" y="1265" height="720px" width="720px" />
                           </g>
                           <g id="s1yan43f" class="stem">
                              <rect x="5531" y="1293" height="539" width="18" />
                           </g>
                        </g>
                     </g>
                     <g id="b1f1mntl" class="beam">
                        <polygon points="5939,1985 6979,2075 6979,1985 5939,1895" />
                        <polygon points="6562,1905 6979,1940 6979,1850 6562,1815" />
                        <g id="n1594qjw" class="note">
                           <g class="notehead">
                              <use xlink:href="#E0A4-11xpvd" x="5939" y="1355" height="720px" width="720px" />
                           </g>
                           <g id="sa59tv6" class="stem">
                              <rect x="5939" y="1383" height="584" width="18" />
                           </g>
                        </g>
                        <g id="ncn53nm" class="note">
                           <g class="notehead">
                              <use xlink:href="#E0A4-11xpvd" x="6553" y="1265" height="720px" width="720px" />
                           </g>
                           <g id="s8o9y7a" class="stem">
                              <rect x="6553" y="1293" height="729" width="18" />
                           </g>
                        </g>
                        <g id="nhpv9bk" class="note">
                           <g class="notehead">
                              <use xlink:href="#E0A4-11xpvd" x="6961" y="1445" height="720px" width="720px" />
                           </g>
                           <g id="s13o39a9" class="stem">
                              <rect x="6961" y="1473" height="584" width="18" />
                           </g>
                           <g id="a1eu5d3r" class="accid" />
                        </g>
                     </g>
                  </g>
               </g>
               <g id="b2u2i6y" class="barLine">
                  <path d="M7369 1085 L7369 1805" stroke="currentColor" stroke-width="27" />
               </g>
            </g>
            <g id="mue4052" class="measure">
               <g id="s102bxi9" class="staff">
                  <path d="M7382 1085 L10033 1085" stroke="currentColor" stroke-width="13" />
                  <path d="M7382 1265 L10033 1265" stroke="currentColor" stroke-width="13" />
                  <path d="M7382 1445 L10033 1445" stroke="currentColor" stroke-width="13" />
                  <path d="M7382 1625 L10033 1625" stroke="currentColor" stroke-width="13" />
                  <path d="M7382 1805 L10033 1805" stroke="currentColor" stroke-width="13" />
                  <g id="l1vp40qs" class="layer">
                     <g id="b1qk8ru1" class="beam">
                        <polygon points="7774,905 8406,995 8406,1085 7774,995" />
                        <g id="nwdodo8" class="note">
                           <g class="notehead">
                              <use xlink:href="#E0A4-11xpvd" x="7566" y="1535" height="720px" width="720px" />
                           </g>
                           <g id="s1xp33dw" class="stem">
                              <rect x="7774" y="923" height="584" width="18" />
                           </g>
                        </g>
                        <g id="n1tk9y6j" class="note">
                           <g class="notehead">
                              <use xlink:href="#E0A4-11xpvd" x="8180" y="1625" height="720px" width="720px" />
                           </g>
                           <g id="s9j9pqo" class="stem">
                              <rect x="8388" y="1013" height="584" width="18" />
                           </g>
                        </g>
                     </g>
                     <g id="b18m95k3" class="beam">
                        <polygon points="8793,2030 9425,1940 9425,1850 8793,1940" />
                        <g id="n1ogc46e" class="note">
                           <g class="notehead">
                              <use xlink:href="#E0A4-11xpvd" x="8793" y="1445" height="720px" width="720px" />
                           </g>
                           <g id="sd1s22w" class="stem">
                              <rect x="8793" y="1473" height="539" width="18" />
                           </g>
                           <g id="akengyb" class="accid" />
                        </g>
                        <g id="n1ci4mhn" class="note">
                           <g class="notehead">
                              <use xlink:href="#E0A4-11xpvd" x="9407" y="1355" height="720px" width="720px" />
                           </g>
                           <g id="spjarfd" class="stem">
                              <rect x="9407" y="1383" height="539" width="18" />
                           </g>
                        </g>
                     </g>
                  </g>
               </g>
               <g id="b1yppi09" class="barLine">
                  <path d="M10020 1085 L10020 1805" stroke="currentColor" stroke-width="27" />
               </g>
            </g>
            <g id="m1ocgsed" class="measure">
               <g id="s6f4pr1" class="staff">
                  <path d="M10033 1085 L13090 1085" stroke="currentColor" stroke-width="13" />
                  <path d="M10033 1265 L13090 1265" stroke="currentColor" stroke-width="13" />
                  <path d="M10033 1445 L13090 1445" stroke="currentColor" stroke-width="13" />
                  <path d="M10033 1625 L13090 1625" stroke="currentColor" stroke-width="13" />
                  <path d="M10033 1805 L13090 1805" stroke="currentColor" stroke-width="13" />
                  <g id="lezyppj" class="layer">
                     <g id="bxtlp1p" class="beam">
                        <polygon points="10217,1850 11257,1850 11257,1760 10217,1760" />
                        <polygon points="10840,1715 11257,1715 11257,1625 10840,1625" />
                        <g id="n1f28rds" class="note">
                           <g class="notehead">
                              <use xlink:href="#E0A4-11xpvd" x="10217" y="1265" height="720px" width="720px" />
                           </g>
                           <g id="ssruokv" class="stem">
                              <rect x="10217" y="1293" height="539" width="18" />
                           </g>
                        </g>
                        <g id="neyfpuf" class="note">
                           <g class="notehead">
                              <use xlink:href="#E0A4-11xpvd" x="10831" y="1175" height="720px" width="720px" />
                           </g>
                           <g id="s18vjvjo" class="stem">
                              <rect x="10831" y="1203" height="629" width="18" />
                           </g>
                           <g id="a1sj7jt3" class="accid" />
                        </g>
                        <g id="n12isecm" class="note">
                           <g class="notehead">
                              <use xlink:href="#E0A4-11xpvd" x="11239" y="1265" height="720px" width="720px" />
                           </g>
                           <g id="s1ii3tew" class="stem">
                              <rect x="11239" y="1293" height="539" width="18" />
                           </g>
                        </g>
                     </g>
                     <g id="b1jo3044" class="beam">
                        <polygon points="11647,1985 12687,2075 12687,1985 11647,1895" />
                        <polygon points="12270,1905 12687,1940 12687,1850 12270,1815" />
                        <g id="n7jzg5l" class="note">
                           <g class="notehead">
                              <use xlink:href="#E0A4-11xpvd" x="11647" y="1355" height="720px" width="720px" />
                           </g>
                           <g id="sdeubkv" class="stem">
                              <rect x="11647" y="1383" height="584" width="18" />
                           </g>
                        </g>
                        <g id="n189p8mu" class="note">
                           <g class="notehead">
                              <use xlink:href="#E0A4-11xpvd" x="12261" y="1265" height="720px" width="720px" />
                           </g>
                           <g id="s1f0g6ku" class="stem">
                              <rect x="12261" y="1293" height="729" width="18" />
                           </g>
                        </g>
                        <g id="nw31pjs" class="note">
                           <g class="notehead">
                              <use xlink:href="#E0A4-11xpvd" x="12669" y="1445" height="720px" width="720px" />
                           </g>
                           <g id="sncmz31" class="stem">
                              <rect x="12669" y="1473" height="584" width="18" />
                           </g>
                           <g id="a1gg6gbk" class="accid" />
                        </g>
                     </g>
                  </g>
               </g>
               <g id="b1e05xei" class="barLine">
                  <path d="M13077 1085 L13077 1805" stroke="currentColor" stroke-width="27" />
               </g>
            </g>
            <g id="m1mtidem" class="measure">
               <g id="s1je5x8" class="staff">
                  <path d="M13090 1085 L15051 1085" stroke="currentColor" stroke-width="13" />
                  <path d="M13090 1265 L15051 1265" stroke="currentColor" stroke-width="13" />
                  <path d="M13090 1445 L15051 1445" stroke="currentColor" stroke-width="13" />
                  <path d="M13090 1625 L15051 1625" stroke="currentColor" stroke-width="13" />
                  <path d="M13090 1805 L15051 1805" stroke="currentColor" stroke-width="13" />
                  <g id="m14s66h6" class="meterSig">
                     <use xlink:href="#E081-11xpvd" x="13199" y="1265" height="720px" width="720px" />
                     <use xlink:href="#E084-11xpvd" x="13166" y="1625" height="720px" width="720px" />
                  </g>
                  <g id="l6vu7yz" class="layer">
                     <g id="ny9qxfw" class="note">
                        <g class="notehead">
                           <use xlink:href="#E0A4-11xpvd" x="13732" y="1535" height="720px" width="720px" />
                        </g>
                        <g id="s1iii94x" class="stem">
                           <rect x="13940" y="905" height="602" width="18" />
                        </g>
                     </g>
                  </g>
               </g>
               <g id="b1d58zb6" class="barLine">
                  <path d="M14673 1085 L14673 1805" stroke="currentColor" stroke-width="27" />
                  <path d="M14803 1085 L14803 1805" stroke="currentColor" stroke-width="90" />
                  <path d="M14934 1085 L14934 1805" stroke="currentColor" stroke-width="27" />
                  <use xlink:href="#E044-11xpvd" x="14979" y="1355" height="720px" width="720px" />
                  <use xlink:href="#E044-11xpvd" x="14979" y="1535" height="720px" width="720px" />
                  <use xlink:href="#E044-11xpvd" x="14556" y="1355" height="720px" width="720px" />
                  <use xlink:href="#E044-11xpvd" x="14556" y="1535" height="720px" width="720px" />
               </g>
            </g>
            <g id="m4jjk54" class="measure">
               <g id="saene8z" class="staff">
                  <path d="M15051 1085 L16475 1085" stroke="currentColor" stroke-width="13" />
                  <path d="M15051 1265 L16475 1265" stroke="currentColor" stroke-width="13" />
                  <path d="M15051 1445 L16475 1445" stroke="currentColor" stroke-width="13" />
                  <path d="M15051 1625 L16475 1625" stroke="currentColor" stroke-width="13" />
                  <path d="M15051 1805 L16475 1805" stroke="currentColor" stroke-width="13" />
                  <g id="le3lsq6" class="layer">
                     <g id="b1dwfi2o" class="beam">
                        <polygon points="15443,860 16075,1040 16075,1130 15443,950" />
                        <g id="nseymxs" class="note">
                           <g class="notehead">
                              <use xlink:href="#E0A4-11xpvd" x="15235" y="1445" height="720px" width="720px" />
                           </g>
                           <g id="sbbhmdn" class="stem">
                              <rect x="15443" y="878" height="539" width="18" />
                           </g>
                           <g id="alymdbd" class="accid" />
                        </g>
                        <g id="ng78p38" class="note">
                           <g class="notehead">
                              <use xlink:href="#E0A4-11xpvd" x="15849" y="1625" height="720px" width="720px" />
                           </g>
                           <g id="s1ifk0hh" class="stem">
                              <rect x="16057" y="1058" height="539" width="18" />
                           </g>
                        </g>
                     </g>
                  </g>
               </g>
               <g id="b52mkm5" class="barLine">
                  <path d="M16462 1085 L16462 1805" stroke="currentColor" stroke-width="27" />
               </g>
            </g>
            <g id="m1fbxb2l" class="measure">
               <g id="s3b9ym9" class="staff">
                  <path d="M16475 1085 L20001 1085" stroke="currentColor" stroke-width="13" />
                  <path d="M16475 1265 L20001 1265" stroke="currentColor" stroke-width="13" />
                  <path d="M16475 1445 L20001 1445" stroke="currentColor" stroke-width="13" />
                  <path d="M16475 1625 L20001 1625" stroke="currentColor" stroke-width="13" />
                  <path d="M16475 1805 L20001 1805" stroke="currentColor" stroke-width="13" />
                  <g id="mrrh5vb" class="meterSig">
                     <use xlink:href="#E082-11xpvd" x="16551" y="1265" height="720px" width="720px" />
                     <use xlink:href="#E084-11xpvd" x="16556" y="1625" height="720px" width="720px" />
                  </g>
                  <g id="lcyqem8" class="layer">
                     <g id="b401i7q" class="beam">
                        <polygon points="17128,2075 18168,2075 18168,1985 17128,1985" />
                        <polygon points="17751,1940 18168,1940 18168,1850 17751,1850" />
                        <g id="n1hrjezw" class="note">
                           <g class="notehead">
                              <use xlink:href="#E0A4-11xpvd" x="17128" y="1535" height="720px" width="720px" />
                           </g>
                           <g id="swkrt3a" class="stem">
                              <rect x="17128" y="1563" height="494" width="18" />
                           </g>
                        </g>
                        <g id="n1qsflak" class="note">
                           <g class="notehead">
                              <use xlink:href="#E0A4-11xpvd" x="17742" y="1445" height="720px" width="720px" />
                           </g>
                           <g id="sff1orv" class="stem">
                              <rect x="17742" y="1473" height="584" width="18" />
                           </g>
                           <g id="a1iumosa" class="accid" />
                        </g>
                        <g id="n9q4tck" class="note">
                           <g class="notehead">
                              <use xlink:href="#E0A4-11xpvd" x="18150" y="1355" height="720px" width="720px" />
                           </g>
                           <g id="s17rmg31" class="stem">
                              <rect x="18150" y="1383" height="674" width="18" />
                           </g>
                        </g>
                     </g>
                     <g id="bj3h5vl" class="beam">
                        <polygon points="18766,860 19806,860 19806,950 18766,950" />
                        <polygon points="19389,995 19806,995 19806,1085 19389,1085" />
                        <g id="n3eg2kt" class="note">
                           <g class="notehead">
                              <use xlink:href="#E0A4-11xpvd" x="18558" y="1535" height="720px" width="720px" />
                           </g>
                           <g id="s1syt5z0" class="stem">
                              <rect x="18766" y="878" height="629" width="18" />
                           </g>
                        </g>
                        <g id="n1g5i6e3" class="note">
                           <g class="notehead">
                              <use xlink:href="#E0A4-11xpvd" x="19172" y="1445" height="720px" width="720px" />
                           </g>
                           <g id="s1pgjmm5" class="stem">
                              <rect x="19380" y="878" height="539" width="18" />
                           </g>
                           <g id="asq85b9" class="accid" />
                        </g>
                        <g id="nx3qhy3" class="note">
                           <g class="notehead">
                              <use xlink:href="#E0A4-11xpvd" x="19580" y="1625" height="720px" width="720px" />
                           </g>
                           <g id="s1uy65df" class="stem">
                              <rect x="19788" y="878" height="719" width="18" />
                           </g>
                        </g>
                     </g>
                  </g>
               </g>
               <g id="buu0mcc" class="barLine">
                  <path d="M19988 1085 L19988 1805" stroke="currentColor" stroke-width="27" />
               </g>
            </g>
         </g>
         <g id="sbisxbh" class="system">
            <g id="l1m4ac01" class="labelAbbr">
               <text x="914" y="3884" text-anchor="end" font-size="0px">
                  <tspan id="trcjpcc" class="text">
                     <tspan font-size="405px" class="text">Pno.</tspan>
                  </tspan>
               </text>
            </g>
            <g id="mis0hgp" class="measure">
               <g id="mghcj7c" class="mNum autogenerated">
                  <text x="1094" y="3191" text-anchor="middle" font-size="0px">
                     <tspan id="t1ku9huq" class="text">
                        <tspan font-size="324px" class="text">7</tspan>
                     </tspan>
                  </text>
               </g>
               <g id="s1qgitvm" class="staff">
                  <path d="M1094 3434 L4838 3434" stroke="currentColor" stroke-width="13" />
                  <path d="M1094 3614 L4838 3614" stroke="currentColor" stroke-width="13" />
                  <path d="M1094 3794 L4838 3794" stroke="currentColor" stroke-width="13" />
                  <path d="M1094 3974 L4838 3974" stroke="currentColor" stroke-width="13" />
                  <path d="M1094 4154 L4838 4154" stroke="currentColor" stroke-width="13" />
                  <g id="c15dpqrx" class="clef">
                     <use xlink:href="#E050-11xpvd" x="1184" y="3974" height="720px" width="720px" />
                  </g>
                  <g id="k1ep6g1p" class="keySig">
                     <g id="k14osf7j" class="keyAccid">
                        <use xlink:href="#E260-11xpvd" x="1829" y="3794" height="720px" width="720px" />
                     </g>
                     <g id="k1kl7u0z" class="keyAccid">
                        <use xlink:href="#E260-11xpvd" x="2009" y="3524" height="720px" width="720px" />
                     </g>
                  </g>
                  <g id="l11a99f0" class="layer">
                     <g id="b1pnzw1a" class="beam">
                        <polygon points="2629,3434 3248,3344 3248,3434 2629,3524" />
                        <g id="nlwsa0t" class="note">
                           <g class="notehead">
                              <use xlink:href="#E0A4-11xpvd" x="2421" y="4064" height="720px" width="720px" />
                           </g>
                           <g id="s4ajdwk" class="stem">
                              <rect x="2629" y="3452" height="584" width="18" />
                           </g>
                        </g>
                        <g id="nyrbgxz" class="note">
                           <g class="notehead">
                              <use xlink:href="#E0A4-11xpvd" x="3022" y="3974" height="720px" width="720px" />
                           </g>
                           <g id="sulb3mk" class="stem">
                              <rect x="3230" y="3362" height="584" width="18" />
                           </g>
                        </g>
                     </g>
                     <g id="b1v8d3y5" class="beam">
                        <polygon points="3831,3209 4450,3389 4450,3479 3831,3299" />
                        <g id="n5ygkpl" class="note">
                           <g class="notehead">
                              <use xlink:href="#E0A4-11xpvd" x="3623" y="3794" height="720px" width="720px" />
                           </g>
                           <g id="semci6" class="stem">
                              <rect x="3831" y="3227" height="539" width="18" />
                           </g>
                           <g id="afac6dj" class="accid" />
                        </g>
                        <g id="ntisyxo" class="note">
                           <g class="notehead">
                              <use xlink:href="#E0A4-11xpvd" x="4224" y="3974" height="720px" width="720px" />
                           </g>
                           <g id="s1j3vg8o" class="stem">
                              <rect x="4432" y="3407" height="539" width="18" />
                           </g>
                        </g>
                     </g>
                  </g>
               </g>
               <g id="b1ywfp19" class="barLine">
                  <path d="M4825 3434 L4825 4154" stroke="currentColor" stroke-width="27" />
               </g>
            </g>
            <g id="sn3s3j4" class="sb" />
            <g id="m1ssbwd" class="measure">
               <g id="snbylet" class="staff">
                  <path d="M4838 3434 L7833 3434" stroke="currentColor" stroke-width="13" />
                  <path d="M4838 3614 L7833 3614" stroke="currentColor" stroke-width="13" />
                  <path d="M4838 3794 L7833 3794" stroke="currentColor" stroke-width="13" />
                  <path d="M4838 3974 L7833 3974" stroke="currentColor" stroke-width="13" />
                  <path d="M4838 4154 L7833 4154" stroke="currentColor" stroke-width="13" />
                  <g id="l1fbiab6" class="layer">
                     <g id="bglgoje" class="beam">
                        <polygon points="5018,4424 6037,4424 6037,4334 5018,4334" />
                        <polygon points="5628,4289 6037,4289 6037,4199 5628,4199" />
                        <g id="n15nxazi" class="note">
                           <g class="notehead">
                              <use xlink:href="#E0A4-11xpvd" x="5018" y="3884" height="720px" width="720px" />
                           </g>
                           <g id="s1k60lvq" class="stem">
                              <rect x="5018" y="3912" height="494" width="18" />
                           </g>
                        </g>
                        <g id="neneobg" class="note">
                           <g class="notehead">
                              <use xlink:href="#E0A4-11xpvd" x="5619" y="3794" height="720px" width="720px" />
                           </g>
                           <g id="sjxeu7w" class="stem">
                              <rect x="5619" y="3822" height="584" width="18" />
                           </g>
                           <g id="ayz07qw" class="accid" />
                        </g>
                        <g id="n7q1u15" class="note">
                           <g class="notehead">
                              <use xlink:href="#E0A4-11xpvd" x="6019" y="3704" height="720px" width="720px" />
                           </g>
                           <g id="s1prr170" class="stem">
                              <rect x="6019" y="3732" height="674" width="18" />
                           </g>
                        </g>
                     </g>
                     <g id="b185j82h" class="beam">
                        <polygon points="6627,3209 7646,3209 7646,3299 6627,3299" />
                        <polygon points="7237,3344 7646,3344 7646,3434 7237,3434" />
                        <g id="npju6y6" class="note">
                           <g class="notehead">
                              <use xlink:href="#E0A4-11xpvd" x="6419" y="3884" height="720px" width="720px" />
                           </g>
                           <g id="s1eo0ob" class="stem">
                              <rect x="6627" y="3227" height="629" width="18" />
                           </g>
                        </g>
                        <g id="n1p2cbzz" class="note">
                           <g class="notehead">
                              <use xlink:href="#E0A4-11xpvd" x="7020" y="3794" height="720px" width="720px" />
                           </g>
                           <g id="s4tx3pf" class="stem">
                              <rect x="7228" y="3227" height="539" width="18" />
                           </g>
                           <g id="a115r8n2" class="accid" />
                        </g>
                        <g id="n160ilc7" class="note">
                           <g class="notehead">
                              <use xlink:href="#E0A4-11xpvd" x="7420" y="3884" height="720px" width="720px" />
                           </g>
                           <g id="sa7mume" class="stem">
                              <rect x="7628" y="3227" height="629" width="18" />
                           </g>
                        </g>
                     </g>
                  </g>
               </g>
               <g id="b1v1iyq" class="barLine">
                  <path d="M7820 3434 L7820 4154" stroke="currentColor" stroke-width="27" />
               </g>
            </g>
            <g id="mvecsy7" class="measure">
               <g id="s1wgdkkk" class="staff">
                  <path d="M7833 3434 L9568 3434" stroke="currentColor" stroke-width="13" />
                  <path d="M7833 3614 L9568 3614" stroke="currentColor" stroke-width="13" />
                  <path d="M7833 3794 L9568 3794" stroke="currentColor" stroke-width="13" />
                  <path d="M7833 3974 L9568 3974" stroke="currentColor" stroke-width="13" />
                  <path d="M7833 4154 L9568 4154" stroke="currentColor" stroke-width="13" />
                  <g id="mlqac0g" class="meterSig">
                     <use xlink:href="#E081-11xpvd" x="7942" y="3614" height="720px" width="720px" />
                     <use xlink:href="#E084-11xpvd" x="7909" y="3974" height="720px" width="720px" />
                  </g>
                  <g id="l156ifge" class="layer">
                     <g id="nvfft13" class="note">
                        <g class="notehead">
                           <use xlink:href="#E0A4-11xpvd" x="8471" y="3974" height="720px" width="720px" />
                        </g>
                        <g id="s1yyeobn" class="stem">
                           <rect x="8679" y="3344" height="602" width="18" />
                        </g>
                     </g>
                  </g>
               </g>
               <g id="b1ogg3w7" class="barLine">
                  <path d="M9393 3434 L9393 4154" stroke="currentColor" stroke-width="27" />
                  <path d="M9523 3434 L9523 4154" stroke="currentColor" stroke-width="90" />
               </g>
            </g>
            <g id="s1ju45k9" class="systemMilestoneEnd savfzjf" />
         </g>
         <g id="pckje95" class="pageMilestoneEnd s3n7qus" />
         <g id="pite1w1" class="pageMilestoneEnd m1krmjej" />
         <g id="p9l06fq" class="pgHead">
            <text x="0" y="0" font-size="0px">
               <tspan id="r1f38msg" class="rend" x="10000" y="277" text-anchor="middle">
                  <tspan id="toiyty3" class="text">
                     <tspan font-size="405px" class="text">Air n 220</tspan>
                  </tspan>
               </tspan>
            </text>
         </g>
         <g id="p6rs1yd" class="pgFoot autogenerated">
            <g id="f1ppz8dj" class="fig">
               <g id="sqxan4z" class="svg" transform="translate(7750, 28099) scale(10, 10)">
                  <g>
                     <path fill="#00000" d="M 17.11278,49.26451 V 10.367554 h 12.696511 c 3.288815,7.336676 6.71267,14.610456 10.127281,21.888976 3.419998,-7.484684 6.255515,-14.204887 9.58887,-21.909915 2.436207,0.103726 4.316952,0.08453 6.484294,-0.05808 V 49.264423 H 50.274275 C 50.145222,38.35639 50.016136,27.448368 49.887066,16.540329 45.003488,27.315459 39.967448,38.433564 35.083854,49.208695 34.678996,49.343717 34.426583,49.135619 34.021726,49.270644 29.46588,39.330716 24.910049,29.390805 20.354201,19.450876 20.224341,29.388756 20.09461,39.326619 19.964815,49.264497 H 17.11278 Z M 36.754144,39.324695 C 32.721221,30.512695 28.6883,21.700679 24.655394,12.888662 22.530527,12.750737 22.656775,12.71031 20.714356,12.813974 v 0.966497 c 4.612938,9.99784 9.609439,20.748709 13.87298,30.081745 0.722248,-1.512523 1.444528,-3.025014 2.166808,-4.537521 z m 25.738417,9.939815 c 0,-12.965651 0,-25.931305 0,-38.896956 10.084388,0 20.168791,0 30.253178,0 0,0.960416 0,1.920849 0,2.881265 -6.482825,0 -12.965652,0 -19.448478,0 0,4.802097 0,9.604178 0,14.406277 5.52241,0 11.044819,0 16.567229,0 0,0.960415 0,1.920832 0,2.881248 -5.52241,0 -11.044819,0 -16.567229,0 0,5.282306 0,10.564611 0,15.846917 6.963035,0 13.926068,0 20.889103,0 0,0.960416 0,1.920832 0,2.881249 -10.564597,0 -21.129207,0 -31.693803,0 z m 4.321874,-2.160937 c 0,-11.765131 0,-23.530263 0,-35.295394 -0.720312,0 -1.440625,0 -2.160937,0 0,11.765131 0,23.530263 0,35.295394 0.720312,0 1.440625,0 2.160937,0 z m 32.41413,2.160937 c 0,-12.965651 0,-25.931305 0,-38.896956 2.401045,0 4.802095,0 7.203135,0 0,12.965651 0,25.931305 0,38.896956 -2.40104,0 -4.80209,0 -7.203135,0 z m 2.881265,-2.160937 c 0,-11.765131 0,-23.530263 0,-35.295394 -0.72031,0 -1.44064,0 -2.160953,0 0,11.765131 0,23.530263 0,35.295394 0.720313,0 1.440643,0 2.160953,0 z" />
                     <path fill="#00000" d="m 346.3,6.7 c -3.1,0.5 -4.9,4.4 -2.7,6.8 1.2,1.4 2.7,2.4 4.1,3.5 -2.4,5.3 -7.7,8.3 -11.9,12.1 -3.7,2.8 -7,6.2 -9.7,9.9 -2.2,-0.8 -0.3,-6.8 -0.6,-9.5 0.1,-3.1 0.7,-6.4 2.9,-8.7 1.3,-1.9 3,-3.5 4.5,-5.2 1.2,-3.4 -3.2,-4.9 -5.8,-4.6 -7.3,-0.5 -14.6,2 -20,6.8 -5,4.6 -10,10.1 -11.5,17 -0.9,3.5 -0.2,7.5 2.8,9.9 2.5,2.8 7.4,2.9 9.8,-0.2 1.7,-2.3 3.2,-4.8 3.8,-7.6 -0.1,-2.6 -4.4,-2.3 -4.3,0.2 1.2,2.4 -0.9,4.7 -2.7,6.2 -1.7,0.9 -4.7,0.7 -4.8,-1.7 -1,-5.8 2.1,-11.3 5.2,-16.1 4,-5.8 9.8,-11.2 17.2,-11.8 1.6,0 8.1,-1.2 6.8,1.4 -2.8,2.8 -5.6,6.1 -6,10.3 -1.6,7.7 0.1,15.7 -2.3,23.2 -1.1,3.9 2,2.6 2.5,0.2 3.3,-7.4 8.9,-13.4 15.1,-18.5 4.2,-3.9 9.5,-7.1 11.9,-12.6 1.3,-3.6 1.2,-9 -2.7,-10.9 -0.6,-0.2 -1.2,-0.3 -1.8,-0.3 z m 66,14.5 c -2,0.8 -1.8,4.9 0.8,4.4 3.4,0.4 2.9,-6.2 -0.8,-4.4 z m 0.6,7.3 c -1.3,0.5 -7.6,0.5 -5.4,2.2 4,-0.3 0.7,4.5 0.6,6.7 -0.4,2.9 -2.4,5.9 -1.2,8.8 2.7,1.7 5.6,-0.8 6.8,-3.2 1.6,-1.4 -0.5,-3 -1.2,-0.9 -0.4,0.8 -2.4,3.5 -2.6,1.8 1.1,-5 2.7,-9.9 3.9,-14.9 l -0.1,-0.5 h -0.9 z m -65.1,0.2 c -6.5,1.6 -10.5,9.5 -8.2,15.7 2.1,3.4 7.4,2.9 10.1,0.4 2,-0.2 3.6,-5.3 1,-3.4 -1.4,2 -4,4.2 -6.5,2.8 -2.2,-1.9 -1.9,-5.7 1.7,-5.3 3.1,-0.9 6.9,-2.1 8.1,-5.5 0.9,-2.7 -1.6,-5.2 -4.3,-4.8 h -1.1 -0.7 z m 13.6,0 c -2.2,0 -8.5,1.8 -2.9,2.3 0.9,1.9 -1,4.9 -1.1,7.2 -0.5,2.9 -1.4,5.7 -1.7,8.7 3.7,0.7 3.8,-2.6 4.4,-5.3 0.9,-3.3 1.6,-7 4.1,-9.5 2.4,1.6 6.8,-0.7 3.7,-3.4 -2.9,-0.5 -4.8,2.4 -6.2,4.3 0,-1.2 2.4,-5 -0.2,-4.3 z m 15.8,0 c -6.4,1.3 -9.6,9.1 -7.7,14.9 1.9,4 7.7,3.9 11,1.7 4.1,-3 6,-8.9 4.4,-13.7 -1.3,-3 -4.8,-3.2 -7.6,-3 z m 17,0 c -2.3,0 -8.8,1.9 -3,2.4 0.4,2.5 -1,5.7 -1.4,8.4 -0.7,2.4 -1.8,7.5 2.1,7.2 3.8,-0.1 6.5,-3.5 8.5,-6.3 2,-3.2 4.5,-7 3.3,-10.9 -3.7,-3 -3.6,2.6 -3.1,5.1 -0.7,3.8 -2.7,7.9 -6.2,9.8 -3.6,0.6 -1,-4.3 -0.8,-6.1 0.6,-3.2 1.6,-6.3 1.9,-9.5 -0.4,0 -0.8,0 -1.1,0 z m 30.6,0 c -6.3,1.2 -9.5,8.9 -7.8,14.7 1.5,4 7.2,4.2 10.5,2.4 4.6,-2.8 6.6,-9.3 4.8,-14.3 -1.4,-2.8 -4.8,-3 -7.5,-2.8 z m -75.4,1.7 c 2.1,1.5 0.2,4.7 -1.6,5.7 -1.1,0.4 -5.5,3.4 -4.6,0.7 0.8,-2.7 2.2,-6.2 5.3,-6.6 l 0.9,0.1 z m 30.8,0 c 2.6,1.5 1.3,5.2 0.8,7.6 -0.8,2.7 -1.9,5.9 -4.7,7.1 -5.1,0.8 -4,-5.8 -2.8,-8.8 1,-2.8 3,-6.8 6.7,-5.8 z m 47.1,-0.1 c 2.9,0.7 2,4.7 1.5,6.8 -0.7,3 -1.8,6.7 -5,8 -4.7,0.8 -4,-5.1 -3,-7.9 0.9,-3 2.7,-7.3 6.5,-6.8 z m -88.1,5.9 c -0.3,1.3 0.9,-0.6 0,0 z m -1.1,2.4 c -0.2,0.5 0.5,-0.1 0,0 z m -1.3,4.5 c -0.3,1.3 0.8,-0.2 0,0 z" />
                     <text y="41" x="201" fill="#00000" style="font-style:italic;font-weight:normal;font-size:30px;line-height:125%;font-family:Times;text-anchor:middle" xml:space="preserve">engraved with</text>
                  </g>
               </g>
            </g>
         </g>
      </g>
   </svg>
</svg>
