<?xml version="1.0" encoding="UTF-8" standalone="no"?>
<svg width="2100px" height="2970px" version="1.1" xmlns="http://www.w3.org/2000/svg" xmlns:xlink="http://www.w3.org/1999/xlink" xmlns:mei="http://www.music-encoding.org/ns/mei" overflow="visible">
   <desc>Engraved by Verovio 3.13.1</desc>
   <defs>
      <symbol id="E044-16da5sn" viewBox="0 0 1000 1000" overflow="inherit">
         <path transform="scale(1,-1)" d="M0 0c0 28 22 50 50 50s50 -22 50 -50s-22 -50 -50 -50s-50 22 -50 50z" />
      </symbol>
      <symbol id="E050-16da5sn" viewBox="0 0 1000 1000" overflow="inherit">
         <path transform="scale(1,-1)" d="M441 -245c-23 -4 -48 -6 -76 -6c-59 0 -102 7 -130 20c-88 42 -150 93 -187 154c-26 44 -43 103 -48 176c0 6 -1 13 -1 19c0 54 15 111 45 170c29 57 65 106 110 148s96 85 153 127c-3 16 -8 46 -13 92c-4 43 -5 73 -5 89c0 117 16 172 69 257c34 54 64 82 89 82 c21 0 43 -30 69 -92s39 -115 41 -159v-15c0 -109 -21 -162 -67 -241c-13 -20 -63 -90 -98 -118c-13 -9 -25 -19 -37 -29l31 -181c8 1 18 2 28 2c58 0 102 -12 133 -35c59 -43 92 -104 98 -184c1 -7 1 -15 1 -22c0 -123 -87 -209 -181 -248c8 -57 17 -110 25 -162 c5 -31 6 -58 6 -80c0 -30 -5 -53 -14 -70c-35 -64 -88 -99 -158 -103c-5 0 -11 -1 -16 -1c-37 0 -72 10 -108 27c-50 24 -77 59 -80 105v11c0 29 7 55 20 76c18 28 45 42 79 44h6c49 0 93 -42 97 -87v-9c0 -51 -34 -86 -105 -106c17 -24 51 -36 102 -36c62 0 116 43 140 85 c9 16 13 41 13 74c0 20 -1 42 -5 67c-8 53 -18 106 -26 159zM461 939c-95 0 -135 -175 -135 -286c0 -24 2 -48 5 -71c50 39 92 82 127 128c40 53 60 100 60 140v8c-4 53 -22 81 -55 81h-2zM406 119l54 -326c73 25 110 78 110 161c0 7 0 15 -1 23c-7 95 -57 142 -151 142h-12 zM382 117c-72 -2 -128 -47 -128 -120v-7c2 -46 43 -99 75 -115c-3 -2 -7 -5 -10 -10c-70 33 -116 88 -123 172v11c0 68 44 126 88 159c23 17 49 29 78 36l-29 170c-21 -13 -52 -37 -92 -73c-50 -44 -86 -84 -109 -119c-45 -69 -67 -130 -67 -182v-13c5 -68 35 -127 93 -176 s125 -73 203 -73c25 0 50 3 75 9c-19 111 -36 221 -54 331z" />
      </symbol>
      <symbol id="E086-16da5sn" viewBox="0 0 1000 1000" overflow="inherit">
         <path transform="scale(1,-1)" d="M284 -91c0 37 -28 92 -67 92c-35 0 -65 -54 -65 -111c0 -52 22 -104 68 -104c47 0 64 68 64 123zM230 214c-36 0 -90 -33 -90 -184l2 -36c40 24 81 36 120 36c80 0 140 -48 140 -121c0 -99 -99 -159 -182 -159c-160 0 -200 173 -200 244c0 21 2 43 7 71l10 35 c26 85 73 115 98 126c41 19 74 24 103 24c93 0 142 -63 142 -105c0 -58 -52 -72 -73 -72c-33 0 -59 24 -65 35c-3 5 -6 14 -7 25l11 30c6 15 9 27 9 35c0 11 -9 16 -25 16z" />
      </symbol>
      <symbol id="E088-16da5sn" viewBox="0 0 1000 1000" overflow="inherit">
         <path transform="scale(1,-1)" d="M195 -214c76 0 88 58 90 68c0 34 -35 60 -57 73l-52 29c-21 10 -32 17 -34 20c-39 -33 -58 -54 -62 -92c5 -23 23 -98 115 -98zM301 135c0 61 -72 76 -113 76c-40 0 -77 -17 -77 -51c3 -21 15 -38 26 -50c17 -15 33 -26 48 -34l65 -28c34 27 51 56 51 87zM176 -250 c-57 0 -166 26 -166 132c0 47 30 86 89 116c-33 15 -79 60 -79 119c0 79 85 132 178 132h18c5 0 21 1 28 -1c25 0 126 -30 126 -110c0 -37 -23 -76 -69 -116c43 -25 83 -71 83 -119c0 -101 -118 -153 -208 -153z" />
      </symbol>
      <symbol id="E0A4-16da5sn" viewBox="0 0 1000 1000" overflow="inherit">
         <path transform="scale(1,-1)" d="M0 -39c0 68 73 172 200 172c66 0 114 -37 114 -95c0 -84 -106 -171 -218 -171c-64 0 -96 30 -96 94z" />
      </symbol>
      <symbol id="E240-16da5sn" viewBox="0 0 1000 1000" overflow="inherit">
         <path transform="scale(1,-1)" d="M179 -646c15 29 29 55 46 102c18 49 30 108 30 138c0 105 -80 173 -168 200c-18 5 -47 9 -87 16v190h22c8 0 33 -61 71 -95c4 -3 -2 3 61 -56c62 -58 122 -137 122 -241c0 -38 -13 -106 -35 -163c-20 -51 -43 -99 -66 -132c-6 -5 -10 -7 -13 -7s-5 2 -5 5l4 10 c1 3 14 25 18 33z" />
      </symbol>
      <symbol id="E241-16da5sn" viewBox="0 0 1000 1000" overflow="inherit">
         <path transform="scale(1,-1)" d="M179 646c-4 8 -17 30 -18 33l-4 10c0 3 2 5 5 5s7 -2 13 -7c23 -33 46 -81 66 -132c22 -57 35 -125 35 -163c0 -104 -60 -183 -122 -241c-63 -59 -57 -53 -61 -56c-38 -34 -63 -95 -71 -95h-22v190c40 7 69 11 87 16c88 27 168 95 168 200c0 30 -12 89 -30 138 c-17 47 -31 73 -46 102z" />
      </symbol>
      <symbol id="E262-16da5sn" viewBox="0 0 1000 1000" overflow="inherit">
         <path transform="scale(1,-1)" d="M136 186v169h17v-164l44 14v-91l-44 -14v-165l44 12v-91l-44 -13v-155h-17v150l-76 -22v-155h-17v149l-43 -13v90l43 14v167l-43 -14v92l43 13v169h17v-163zM60 73v-167l76 22v168z" />
      </symbol>
      <symbol id="E655-16da5sn" viewBox="0 0 1000 1000" overflow="inherit">
         <path transform="scale(1,-1)" d="M217 245c-22 0 -39 -16 -39 -37c0 -18 21 -34 39 -35c20 0 35 18 35 37c0 21 -15 34 -35 35zM44 318c3 26 25 51 52 51c16 0 28 -4 32 -12c11 -14 14 -56 22 -76c6 -8 14 -12 25 -14l16 5c9 5 14 11 15 25c0 7 -2 13 -5 17l-11 18l-17 17l-9 22c0 28 25 47 53 47 s50 -23 50 -47c0 -20 -7 -25 -21 -39l-15 -20c-4 -7 -6 -13 -7 -18c1 -4 5 -11 5 -14l11 -11l14 -7c20 2 30 22 33 47c0 39 17 58 49 58c26 0 46 -21 46 -47c0 -29 -23 -46 -54 -46c-30 0 -45 -11 -48 -34l5 -12c1 -3 4 -5 7 -8c1 -2 6 -3 14 -5c10 2 17 6 23 12 c8 3 6 4 16 12l21 15c4 3 12 5 21 5c23 0 43 -26 44 -49c0 -20 -16 -41 -30 -49c-3 -1 -10 -3 -19 -4c-7 1 -16 7 -30 18l-26 19c-4 3 -11 4 -20 4c-8 0 -14 -1 -17 -4l-9 -19c2 -13 6 -21 14 -24l11 -4l27 -5c16 0 28 -4 37 -12c9 -6 13 -17 13 -34c0 -13 -5 -25 -14 -34 c-9 -8 -22 -13 -36 -16c-11 2 -23 8 -34 19c-8 11 -11 27 -11 47c0 11 -4 21 -7 27c-5 8 -14 12 -26 12c-19 0 -29 -15 -32 -31c3 -7 8 -14 11 -21c4 -8 8 -14 13 -21l8 -8l5 -10c3 -5 4 -13 5 -21c0 -26 -26 -39 -52 -39c-25 0 -45 15 -48 39c1 6 5 18 7 21 c11 14 22 29 33 43c2 4 3 10 4 19c0 17 -8 26 -24 29c-31 0 -40 -20 -40 -51s-17 -49 -48 -54c-33 7 -42 20 -50 52c3 31 25 46 66 46c19 0 37 12 37 31c0 8 -3 13 -8 16c-3 4 -8 7 -16 7c-10 0 -24 -6 -40 -18c-14 -9 -25 -16 -39 -21c-28 3 -45 20 -46 51 c0 26 18 47 44 47c19 0 31 -9 44 -19l18 -14l19 -7c18 4 26 12 26 23c0 23 -15 34 -46 34c-37 0 -57 14 -61 44z" />
      </symbol>
   </defs>
   <style type="text/css">g.page-margin{font-family:Times;} g.ending, g.fing, g.reh, g.tempo{font-weight:bold;} g.dir, g.dynam, g.mNum{font-style:italic;} g.label{font-weight:normal;}</style>
   <svg class="definition-scale" color="black" viewBox="0 0 21000 29700">
      <g class="page-margin" transform="translate(500, 500)">
         <g id="mqxjo28" class="mdiv pageMilestone" />
         <g id="s16qzms" class="score pageMilestone" />
         <g id="s2ehrue" class="system">
            <g id="l1j2qtlu" class="label">
               <text x="1105" y="1535" text-anchor="end" font-size="0px">
                  <tspan id="ty3for" class="text">
                     <tspan font-size="405px" class="text">Piano</tspan>
                  </tspan>
               </text>
            </g>
            <g id="s1xjvr7m" class="section systemMilestone" />
            <g id="p1tsv2lr" class="pb" />
            <g id="m10v1svd" class="measure">
               <g id="sm74fpy" class="staff">
                  <path d="M1285 1085 L5706 1085" stroke="currentColor" stroke-width="13" />
                  <path d="M1285 1265 L5706 1265" stroke="currentColor" stroke-width="13" />
                  <path d="M1285 1445 L5706 1445" stroke="currentColor" stroke-width="13" />
                  <path d="M1285 1625 L5706 1625" stroke="currentColor" stroke-width="13" />
                  <path d="M1285 1805 L5706 1805" stroke="currentColor" stroke-width="13" />
                  <g id="cx3pc01" class="clef">
                     <use xlink:href="#E050-16da5sn" x="1375" y="1625" height="720px" width="720px" />
                  </g>
                  <g id="k1n4wi74" class="keySig">
                     <g id="k1rfw1nu" class="keyAccid">
                        <use xlink:href="#E262-16da5sn" x="2020" y="1085" height="720px" width="720px" />
                     </g>
                  </g>
                  <g id="m13vu46v" class="meterSig">
                     <use xlink:href="#E086-16da5sn" x="2327" y="1265" height="720px" width="720px" />
                     <use xlink:href="#E088-16da5sn" x="2334" y="1625" height="720px" width="720px" />
                  </g>
                  <g id="lxxgst9" class="layer">
                     <g id="b1ygpcpo" class="beam">
                        <polygon points="3095,1040 4126,1040 4126,1130 3095,1130" />
                        <g id="nxq82gh" class="note">
                           <g class="notehead">
                              <use xlink:href="#E0A4-16da5sn" x="2887" y="1625" height="720px" width="720px" />
                           </g>
                           <g id="sdsxoxr" class="stem">
                              <rect x="3095" y="1058" height="539" width="18" />
                           </g>
                        </g>
                        <g id="n3t94gd" class="note">
                           <g class="notehead">
                              <use xlink:href="#E0A4-16da5sn" x="3393" y="1625" height="720px" width="720px" />
                           </g>
                           <g id="s8cjj6j" class="stem">
                              <rect x="3601" y="1058" height="539" width="18" />
                           </g>
                        </g>
                        <g id="nd2kl7b" class="note">
                           <g class="notehead">
                              <use xlink:href="#E0A4-16da5sn" x="3900" y="1625" height="720px" width="720px" />
                           </g>
                           <g id="s1rd8h6m" class="stem">
                              <rect x="4108" y="1058" height="539" width="18" />
                           </g>
                        </g>
                     </g>
                     <g id="nbcjc6v" class="note">
                        <g class="notehead">
                           <use xlink:href="#E0A4-16da5sn" x="4406" y="1625" height="720px" width="720px" />
                        </g>
                        <g id="ssl4401" class="stem">
                           <rect x="4614" y="995" height="602" width="18" />
                        </g>
                     </g>
                     <g id="njypadt" class="note">
                        <g class="notehead">
                           <use xlink:href="#E0A4-16da5sn" x="5182" y="1625" height="720px" width="720px" />
                        </g>
                        <g id="s3apfx8" class="stem">
                           <rect x="5390" y="995" height="602" width="18" />
                           <g id="f1jfeuzo" class="flag">
                              <use xlink:href="#E240-16da5sn" x="5390" y="995" height="720px" width="720px" />
                           </g>
                        </g>
                     </g>
                  </g>
               </g>
               <g id="posef3" class="pedal">
                  <use xlink:href="#E655-16da5sn" x="2788" y="2150" height="720px" width="720px" />
               </g>
               <g id="bn50zil" class="barLine">
                  <path d="M5693 1085 L5693 1805" stroke="currentColor" stroke-width="27" />
               </g>
            </g>
            <g id="md11e9q" class="measure">
               <g id="snegoij" class="staff">
                  <path d="M5706 1085 L8172 1085" stroke="currentColor" stroke-width="13" />
                  <path d="M5706 1265 L8172 1265" stroke="currentColor" stroke-width="13" />
                  <path d="M5706 1445 L8172 1445" stroke="currentColor" stroke-width="13" />
                  <path d="M5706 1625 L8172 1625" stroke="currentColor" stroke-width="13" />
                  <path d="M5706 1805 L8172 1805" stroke="currentColor" stroke-width="13" />
                  <g id="l11fx5mz" class="layer">
                     <g id="n7p5rd0" class="note">
                        <g class="notehead">
                           <use xlink:href="#E0A4-16da5sn" x="5887" y="1445" height="720px" width="720px" />
                        </g>
                        <g id="s1hceh5s" class="stem">
                           <rect x="5887" y="1473" height="572" width="18" />
                        </g>
                     </g>
                     <g id="n1clw2mg" class="note">
                        <g class="notehead">
                           <use xlink:href="#E0A4-16da5sn" x="6663" y="1445" height="720px" width="720px" />
                        </g>
                        <g id="sd2r5xi" class="stem">
                           <rect x="6663" y="1473" height="572" width="18" />
                           <g id="f14mgd28" class="flag">
                              <use xlink:href="#E241-16da5sn" x="6663" y="2045" height="720px" width="720px" />
                           </g>
                        </g>
                     </g>
                     <g id="ntmk7hk" class="note">
                        <g class="notehead">
                           <use xlink:href="#E0A4-16da5sn" x="7169" y="1535" height="720px" width="720px" />
                        </g>
                        <g id="do3ddmd" class="dots">
                           <ellipse cx="7485" cy="1535" rx="36" ry="36" />
                        </g>
                        <g id="s3dkscs" class="stem">
                           <rect x="7377" y="905" height="602" width="18" />
                        </g>
                     </g>
                  </g>
               </g>
               <g id="bs0khoc" class="barLine">
                  <path d="M8159 1085 L8159 1805" stroke="currentColor" stroke-width="27" />
               </g>
            </g>
            <g id="mwam965" class="measure">
               <g id="s1ay91my" class="staff">
                  <path d="M8172 1085 L11172 1085" stroke="currentColor" stroke-width="13" />
                  <path d="M8172 1265 L11172 1265" stroke="currentColor" stroke-width="13" />
                  <path d="M8172 1445 L11172 1445" stroke="currentColor" stroke-width="13" />
                  <path d="M8172 1625 L11172 1625" stroke="currentColor" stroke-width="13" />
                  <path d="M8172 1805 L11172 1805" stroke="currentColor" stroke-width="13" />
                  <g id="l1s1k46q" class="layer">
                     <g id="b17xac88" class="beam">
                        <polygon points="8561,1040 9592,1040 9592,1130 8561,1130" />
                        <g id="nzwdlnb" class="note">
                           <g class="notehead">
                              <use xlink:href="#E0A4-16da5sn" x="8353" y="1625" height="720px" width="720px" />
                           </g>
                           <g id="s19nz9cc" class="stem">
                              <rect x="8561" y="1058" height="539" width="18" />
                           </g>
                        </g>
                        <g id="n18857ls" class="note">
                           <g class="notehead">
                              <use xlink:href="#E0A4-16da5sn" x="8859" y="1625" height="720px" width="720px" />
                           </g>
                           <g id="s1jhx9ed" class="stem">
                              <rect x="9067" y="1058" height="539" width="18" />
                           </g>
                        </g>
                        <g id="n1u4p71r" class="note">
                           <g class="notehead">
                              <use xlink:href="#E0A4-16da5sn" x="9366" y="1625" height="720px" width="720px" />
                           </g>
                           <g id="s155sl2g" class="stem">
                              <rect x="9574" y="1058" height="539" width="18" />
                           </g>
                        </g>
                     </g>
                     <g id="n1wvfhy9" class="note">
                        <g class="notehead">
                           <use xlink:href="#E0A4-16da5sn" x="9872" y="1625" height="720px" width="720px" />
                        </g>
                        <g id="s1gbajgu" class="stem">
                           <rect x="10080" y="995" height="602" width="18" />
                        </g>
                     </g>
                     <g id="n467yjy" class="note">
                        <g class="notehead">
                           <use xlink:href="#E0A4-16da5sn" x="10648" y="1625" height="720px" width="720px" />
                        </g>
                        <g id="s6sqnf1" class="stem">
                           <rect x="10856" y="995" height="602" width="18" />
                           <g id="f1fzs1g5" class="flag">
                              <use xlink:href="#E240-16da5sn" x="10856" y="995" height="720px" width="720px" />
                           </g>
                        </g>
                     </g>
                  </g>
               </g>
               <g id="b164g0j" class="barLine">
                  <path d="M11159 1085 L11159 1805" stroke="currentColor" stroke-width="27" />
               </g>
            </g>
            <g id="ml5vmie" class="measure">
               <g id="s15raa92" class="staff">
                  <path d="M11172 1085 L14003 1085" stroke="currentColor" stroke-width="13" />
                  <path d="M11172 1265 L14003 1265" stroke="currentColor" stroke-width="13" />
                  <path d="M11172 1445 L14003 1445" stroke="currentColor" stroke-width="13" />
                  <path d="M11172 1625 L14003 1625" stroke="currentColor" stroke-width="13" />
                  <path d="M11172 1805 L14003 1805" stroke="currentColor" stroke-width="13" />
                  <g id="l1rt0zfd" class="layer">
                     <g id="n8dgpyr" class="note">
                        <g class="notehead">
                           <use xlink:href="#E0A4-16da5sn" x="11353" y="1445" height="720px" width="720px" />
                        </g>
                        <g id="s1k5ltjj" class="stem">
                           <rect x="11353" y="1473" height="572" width="18" />
                        </g>
                     </g>
                     <g id="n98zkb4" class="note">
                        <g class="notehead">
                           <use xlink:href="#E0A4-16da5sn" x="12129" y="1445" height="720px" width="720px" />
                        </g>
                        <g id="s1beowuj" class="stem">
                           <rect x="12129" y="1473" height="572" width="18" />
                           <g id="fpwru7d" class="flag">
                              <use xlink:href="#E241-16da5sn" x="12129" y="2045" height="720px" width="720px" />
                           </g>
                        </g>
                     </g>
                     <g id="nizaurk" class="note">
                        <g class="notehead">
                           <use xlink:href="#E0A4-16da5sn" x="12635" y="1535" height="720px" width="720px" />
                        </g>
                        <g id="d1qdp7l8" class="dots">
                           <ellipse cx="12951" cy="1535" rx="36" ry="36" />
                        </g>
                        <g id="s1b5s03d" class="stem">
                           <rect x="12843" y="905" height="602" width="18" />
                        </g>
                     </g>
                  </g>
               </g>
               <g id="bunafs4" class="barLine">
                  <path d="M13625 1085 L13625 1805" stroke="currentColor" stroke-width="27" />
                  <path d="M13755 1085 L13755 1805" stroke="currentColor" stroke-width="90" />
                  <path d="M13886 1085 L13886 1805" stroke="currentColor" stroke-width="27" />
                  <use xlink:href="#E044-16da5sn" x="13931" y="1355" height="720px" width="720px" />
                  <use xlink:href="#E044-16da5sn" x="13931" y="1535" height="720px" width="720px" />
                  <use xlink:href="#E044-16da5sn" x="13508" y="1355" height="720px" width="720px" />
                  <use xlink:href="#E044-16da5sn" x="13508" y="1535" height="720px" width="720px" />
               </g>
            </g>
            <g id="mwcgchk" class="measure">
               <g id="s1nr9709" class="staff">
                  <path d="M14003 1085 L17003 1085" stroke="currentColor" stroke-width="13" />
                  <path d="M14003 1265 L17003 1265" stroke="currentColor" stroke-width="13" />
                  <path d="M14003 1445 L17003 1445" stroke="currentColor" stroke-width="13" />
                  <path d="M14003 1625 L17003 1625" stroke="currentColor" stroke-width="13" />
                  <path d="M14003 1805 L17003 1805" stroke="currentColor" stroke-width="13" />
                  <g id="l1wvkv56" class="layer">
                     <g id="b1bth4b2" class="beam">
                        <polygon points="14392,1040 15423,860 15423,950 14392,1130" />
                        <g id="naiprh8" class="note">
                           <g class="notehead">
                              <use xlink:href="#E0A4-16da5sn" x="14184" y="1625" height="720px" width="720px" />
                           </g>
                           <g id="sa5yl5l" class="stem">
                              <rect x="14392" y="1058" height="539" width="18" />
                           </g>
                        </g>
                        <g id="nztygci" class="note">
                           <g class="notehead">
                              <use xlink:href="#E0A4-16da5sn" x="14690" y="1535" height="720px" width="720px" />
                           </g>
                           <g id="s17hijxr" class="stem">
                              <rect x="14898" y="969" height="538" width="18" />
                           </g>
                        </g>
                        <g id="n1yx90ts" class="note">
                           <g class="notehead">
                              <use xlink:href="#E0A4-16da5sn" x="15197" y="1445" height="720px" width="720px" />
                           </g>
                           <g id="sri1hvh" class="stem">
                              <rect x="15405" y="878" height="539" width="18" />
                           </g>
                        </g>
                     </g>
                     <g id="n1lp0fya" class="note">
                        <g class="notehead">
                           <use xlink:href="#E0A4-16da5sn" x="15703" y="1535" height="720px" width="720px" />
                        </g>
                        <g id="s1hrqjwi" class="stem">
                           <rect x="15911" y="905" height="602" width="18" />
                        </g>
                     </g>
                     <g id="nvbq1y4" class="note">
                        <g class="notehead">
                           <use xlink:href="#E0A4-16da5sn" x="16479" y="1535" height="720px" width="720px" />
                        </g>
                        <g id="szhcrvm" class="stem">
                           <rect x="16687" y="905" height="602" width="18" />
                           <g id="f1okszbz" class="flag">
                              <use xlink:href="#E240-16da5sn" x="16687" y="905" height="720px" width="720px" />
                           </g>
                        </g>
                     </g>
                  </g>
               </g>
               <g id="b7hsf6r" class="barLine">
                  <path d="M16990 1085 L16990 1805" stroke="currentColor" stroke-width="27" />
               </g>
            </g>
            <g id="mystqln" class="measure">
               <g id="s1qykhp2" class="staff">
                  <path d="M17003 1085 L20003 1085" stroke="currentColor" stroke-width="13" />
                  <path d="M17003 1265 L20003 1265" stroke="currentColor" stroke-width="13" />
                  <path d="M17003 1445 L20003 1445" stroke="currentColor" stroke-width="13" />
                  <path d="M17003 1625 L20003 1625" stroke="currentColor" stroke-width="13" />
                  <path d="M17003 1805 L20003 1805" stroke="currentColor" stroke-width="13" />
                  <g id="l9zn2bh" class="layer">
                     <g id="bxsxvo3" class="beam">
                        <polygon points="17392,1220 18423,1040 18423,1130 17392,1310" />
                        <g id="n1y4oju" class="note">
                           <g class="notehead">
                              <use xlink:href="#E0A4-16da5sn" x="17184" y="1805" height="720px" width="720px" />
                           </g>
                           <g id="sk4a6q4" class="stem">
                              <rect x="17392" y="1238" height="539" width="18" />
                           </g>
                        </g>
                        <g id="n6nptwy" class="note">
                           <g class="notehead">
                              <use xlink:href="#E0A4-16da5sn" x="17690" y="1715" height="720px" width="720px" />
                           </g>
                           <g id="s1yllb03" class="stem">
                              <rect x="17898" y="1149" height="538" width="18" />
                           </g>
                           <g id="a181sb8n" class="accid" />
                        </g>
                        <g id="n1ogujzz" class="note">
                           <g class="notehead">
                              <use xlink:href="#E0A4-16da5sn" x="18197" y="1625" height="720px" width="720px" />
                           </g>
                           <g id="sf765d6" class="stem">
                              <rect x="18405" y="1058" height="539" width="18" />
                           </g>
                        </g>
                     </g>
                     <g id="n1lhygk5" class="note">
                        <g class="notehead">
                           <use xlink:href="#E0A4-16da5sn" x="18703" y="1535" height="720px" width="720px" />
                        </g>
                        <g id="sj9z4u4" class="stem">
                           <rect x="18911" y="905" height="602" width="18" />
                        </g>
                     </g>
                     <g id="n9g7svu" class="note">
                        <g class="notehead">
                           <use xlink:href="#E0A4-16da5sn" x="19479" y="1535" height="720px" width="720px" />
                        </g>
                        <g id="sxa4z2m" class="stem">
                           <rect x="19687" y="905" height="602" width="18" />
                           <g id="fczw9bu" class="flag">
                              <use xlink:href="#E240-16da5sn" x="19687" y="905" height="720px" width="720px" />
                           </g>
                        </g>
                     </g>
                  </g>
               </g>
               <g id="b12myrkj" class="barLine">
                  <path d="M19990 1085 L19990 1805" stroke="currentColor" stroke-width="27" />
               </g>
            </g>
         </g>
         <g id="sk9ingf" class="system">
            <g id="l5sxwgi" class="labelAbbr">
               <text x="914" y="3815" text-anchor="end" font-size="0px">
                  <tspan id="tyyeim6" class="text">
                     <tspan font-size="405px" class="text">Pno.</tspan>
                  </tspan>
               </text>
            </g>
            <g id="mkdl5hq" class="measure">
               <g id="mk7abfk" class="mNum autogenerated">
                  <text x="1094" y="3122" text-anchor="middle" font-size="0px">
                     <tspan id="t1tbxgvo" class="text">
                        <tspan font-size="324px" class="text">7</tspan>
                     </tspan>
                  </text>
               </g>
               <g id="shb6jp" class="staff">
                  <path d="M1094 3365 L5056 3365" stroke="currentColor" stroke-width="13" />
                  <path d="M1094 3545 L5056 3545" stroke="currentColor" stroke-width="13" />
                  <path d="M1094 3725 L5056 3725" stroke="currentColor" stroke-width="13" />
                  <path d="M1094 3905 L5056 3905" stroke="currentColor" stroke-width="13" />
                  <path d="M1094 4085 L5056 4085" stroke="currentColor" stroke-width="13" />
                  <g id="c1c6gcg" class="clef">
                     <use xlink:href="#E050-16da5sn" x="1184" y="3905" height="720px" width="720px" />
                  </g>
                  <g id="ku65yry" class="keySig">
                     <g id="kc04sqi" class="keyAccid">
                        <use xlink:href="#E262-16da5sn" x="1829" y="3365" height="720px" width="720px" />
                     </g>
                  </g>
                  <g id="llbdl3g" class="layer">
                     <g id="bbno0cv" class="beam">
                        <polygon points="2448,3320 3478,3140 3478,3230 2448,3410" />
                        <g id="njcqp44" class="note">
                           <g class="notehead">
                              <use xlink:href="#E0A4-16da5sn" x="2240" y="3905" height="720px" width="720px" />
                           </g>
                           <g id="s11ahn6h" class="stem">
                              <rect x="2448" y="3338" height="539" width="18" />
                           </g>
                        </g>
                        <g id="n1sqholj" class="note">
                           <g class="notehead">
                              <use xlink:href="#E0A4-16da5sn" x="2746" y="3815" height="720px" width="720px" />
                           </g>
                           <g id="swrzg85" class="stem">
                              <rect x="2954" y="3248" height="539" width="18" />
                           </g>
                        </g>
                        <g id="n6xqvz7" class="note">
                           <g class="notehead">
                              <use xlink:href="#E0A4-16da5sn" x="3252" y="3725" height="720px" width="720px" />
                           </g>
                           <g id="s4dlni6" class="stem">
                              <rect x="3460" y="3158" height="539" width="18" />
                           </g>
                        </g>
                     </g>
                     <g id="n142a0cu" class="note">
                        <g class="notehead">
                           <use xlink:href="#E0A4-16da5sn" x="3758" y="3815" height="720px" width="720px" />
                        </g>
                        <g id="sj5ik33" class="stem">
                           <rect x="3966" y="3185" height="602" width="18" />
                        </g>
                     </g>
                     <g id="nyagt6l" class="note">
                        <g class="notehead">
                           <use xlink:href="#E0A4-16da5sn" x="4533" y="3815" height="720px" width="720px" />
                        </g>
                        <g id="s897pjv" class="stem">
                           <rect x="4741" y="3185" height="602" width="18" />
                           <g id="f1w1egl6" class="flag">
                              <use xlink:href="#E240-16da5sn" x="4741" y="3185" height="720px" width="720px" />
                           </g>
                        </g>
                     </g>
                  </g>
               </g>
               <g id="bzdosof" class="barLine">
                  <path d="M5043 3365 L5043 4085" stroke="currentColor" stroke-width="27" />
               </g>
            </g>
            <g id="s1dr7sea" class="sb" />
            <g id="m1yd7w1h" class="measure">
               <g id="s1an9p6t" class="staff">
                  <path d="M5056 3365 L7918 3365" stroke="currentColor" stroke-width="13" />
                  <path d="M5056 3545 L7918 3545" stroke="currentColor" stroke-width="13" />
                  <path d="M5056 3725 L7918 3725" stroke="currentColor" stroke-width="13" />
                  <path d="M5056 3905 L7918 3905" stroke="currentColor" stroke-width="13" />
                  <path d="M5056 4085 L7918 4085" stroke="currentColor" stroke-width="13" />
                  <g id="liqlq79" class="layer">
                     <g id="bfl4qm7" class="beam">
                        <polygon points="5444,3455 6474,3365 6474,3455 5444,3545" />
                        <g id="n1gqs99s" class="note">
                           <g class="notehead">
                              <use xlink:href="#E0A4-16da5sn" x="5236" y="4085" height="720px" width="720px" />
                           </g>
                           <g id="sw1ns44" class="stem">
                              <rect x="5444" y="3473" height="584" width="18" />
                           </g>
                        </g>
                        <g id="n76dj4l" class="note">
                           <g class="notehead">
                              <use xlink:href="#E0A4-16da5sn" x="5742" y="4085" height="720px" width="720px" />
                           </g>
                           <g id="skafj62" class="stem">
                              <rect x="5950" y="3428" height="629" width="18" />
                           </g>
                        </g>
                        <g id="nm1vox7" class="note">
                           <g class="notehead">
                              <use xlink:href="#E0A4-16da5sn" x="6248" y="3995" height="720px" width="720px" />
                           </g>
                           <g id="sf0gnci" class="stem">
                              <rect x="6456" y="3383" height="584" width="18" />
                           </g>
                           <g id="anjgcpk" class="accid" />
                        </g>
                     </g>
                     <g id="n2y7ixo" class="note">
                        <g class="notehead">
                           <use xlink:href="#E0A4-16da5sn" x="6754" y="3905" height="720px" width="720px" />
                        </g>
                        <g id="d1iphggb" class="dots">
                           <ellipse cx="7070" cy="3815" rx="36" ry="36" />
                        </g>
                        <g id="sy2t3pz" class="stem">
                           <rect x="6962" y="3275" height="602" width="18" />
                        </g>
                     </g>
                  </g>
               </g>
               <g id="b1ygk30j" class="barLine">
                  <path d="M7743 3365 L7743 4085" stroke="currentColor" stroke-width="27" />
                  <path d="M7873 3365 L7873 4085" stroke="currentColor" stroke-width="90" />
               </g>
            </g>
            <g id="s3fg3yy" class="systemMilestoneEnd s1xjvr7m" />
         </g>
         <g id="px52mrn" class="pageMilestoneEnd s16qzms" />
         <g id="pwukend" class="pageMilestoneEnd mqxjo28" />
         <g id="p1y5jb9e" class="pgHead">
            <text x="0" y="0" font-size="0px">
               <tspan id="r1j7znpa" class="rend" x="10000" y="277" text-anchor="middle">
                  <tspan id="trhfb4h" class="text">
                     <tspan font-size="405px" class="text">Air n 28</tspan>
                  </tspan>
               </tspan>
            </text>
         </g>
         <g id="p9au9j7" class="pgFoot autogenerated">
            <g id="f1sh80n4" class="fig">
               <g id="s1issad1" class="svg" transform="translate(7750, 28099) scale(10, 10)">
                  <g>
                     <path fill="#00000" d="M 17.11278,49.26451 V 10.367554 h 12.696511 c 3.288815,7.336676 6.71267,14.610456 10.127281,21.888976 3.419998,-7.484684 6.255515,-14.204887 9.58887,-21.909915 2.436207,0.103726 4.316952,0.08453 6.484294,-0.05808 V 49.264423 H 50.274275 C 50.145222,38.35639 50.016136,27.448368 49.887066,16.540329 45.003488,27.315459 39.967448,38.433564 35.083854,49.208695 34.678996,49.343717 34.426583,49.135619 34.021726,49.270644 29.46588,39.330716 24.910049,29.390805 20.354201,19.450876 20.224341,29.388756 20.09461,39.326619 19.964815,49.264497 H 17.11278 Z M 36.754144,39.324695 C 32.721221,30.512695 28.6883,21.700679 24.655394,12.888662 22.530527,12.750737 22.656775,12.71031 20.714356,12.813974 v 0.966497 c 4.612938,9.99784 9.609439,20.748709 13.87298,30.081745 0.722248,-1.512523 1.444528,-3.025014 2.166808,-4.537521 z m 25.738417,9.939815 c 0,-12.965651 0,-25.931305 0,-38.896956 10.084388,0 20.168791,0 30.253178,0 0,0.960416 0,1.920849 0,2.881265 -6.482825,0 -12.965652,0 -19.448478,0 0,4.802097 0,9.604178 0,14.406277 5.52241,0 11.044819,0 16.567229,0 0,0.960415 0,1.920832 0,2.881248 -5.52241,0 -11.044819,0 -16.567229,0 0,5.282306 0,10.564611 0,15.846917 6.963035,0 13.926068,0 20.889103,0 0,0.960416 0,1.920832 0,2.881249 -10.564597,0 -21.129207,0 -31.693803,0 z m 4.321874,-2.160937 c 0,-11.765131 0,-23.530263 0,-35.295394 -0.720312,0 -1.440625,0 -2.160937,0 0,11.765131 0,23.530263 0,35.295394 0.720312,0 1.440625,0 2.160937,0 z m 32.41413,2.160937 c 0,-12.965651 0,-25.931305 0,-38.896956 2.401045,0 4.802095,0 7.203135,0 0,12.965651 0,25.931305 0,38.896956 -2.40104,0 -4.80209,0 -7.203135,0 z m 2.881265,-2.160937 c 0,-11.765131 0,-23.530263 0,-35.295394 -0.72031,0 -1.44064,0 -2.160953,0 0,11.765131 0,23.530263 0,35.295394 0.720313,0 1.440643,0 2.160953,0 z" />
                     <path fill="#00000" d="m 346.3,6.7 c -3.1,0.5 -4.9,4.4 -2.7,6.8 1.2,1.4 2.7,2.4 4.1,3.5 -2.4,5.3 -7.7,8.3 -11.9,12.1 -3.7,2.8 -7,6.2 -9.7,9.9 -2.2,-0.8 -0.3,-6.8 -0.6,-9.5 0.1,-3.1 0.7,-6.4 2.9,-8.7 1.3,-1.9 3,-3.5 4.5,-5.2 1.2,-3.4 -3.2,-4.9 -5.8,-4.6 -7.3,-0.5 -14.6,2 -20,6.8 -5,4.6 -10,10.1 -11.5,17 -0.9,3.5 -0.2,7.5 2.8,9.9 2.5,2.8 7.4,2.9 9.8,-0.2 1.7,-2.3 3.2,-4.8 3.8,-7.6 -0.1,-2.6 -4.4,-2.3 -4.3,0.2 1.2,2.4 -0.9,4.7 -2.7,6.2 -1.7,0.9 -4.7,0.7 -4.8,-1.7 -1,-5.8 2.1,-11.3 5.2,-16.1 4,-5.8 9.8,-11.2 17.2,-11.8 1.6,0 8.1,-1.2 6.8,1.4 -2.8,2.8 -5.6,6.1 -6,10.3 -1.6,7.7 0.1,15.7 -2.3,23.2 -1.1,3.9 2,2.6 2.5,0.2 3.3,-7.4 8.9,-13.4 15.1,-18.5 4.2,-3.9 9.5,-7.1 11.9,-12.6 1.3,-3.6 1.2,-9 -2.7,-10.9 -0.6,-0.2 -1.2,-0.3 -1.8,-0.3 z m 66,14.5 c -2,0.8 -1.8,4.9 0.8,4.4 3.4,0.4 2.9,-6.2 -0.8,-4.4 z m 0.6,7.3 c -1.3,0.5 -7.6,0.5 -5.4,2.2 4,-0.3 0.7,4.5 0.6,6.7 -0.4,2.9 -2.4,5.9 -1.2,8.8 2.7,1.7 5.6,-0.8 6.8,-3.2 1.6,-1.4 -0.5,-3 -1.2,-0.9 -0.4,0.8 -2.4,3.5 -2.6,1.8 1.1,-5 2.7,-9.9 3.9,-14.9 l -0.1,-0.5 h -0.9 z m -65.1,0.2 c -6.5,1.6 -10.5,9.5 -8.2,15.7 2.1,3.4 7.4,2.9 10.1,0.4 2,-0.2 3.6,-5.3 1,-3.4 -1.4,2 -4,4.2 -6.5,2.8 -2.2,-1.9 -1.9,-5.7 1.7,-5.3 3.1,-0.9 6.9,-2.1 8.1,-5.5 0.9,-2.7 -1.6,-5.2 -4.3,-4.8 h -1.1 -0.7 z m 13.6,0 c -2.2,0 -8.5,1.8 -2.9,2.3 0.9,1.9 -1,4.9 -1.1,7.2 -0.5,2.9 -1.4,5.7 -1.7,8.7 3.7,0.7 3.8,-2.6 4.4,-5.3 0.9,-3.3 1.6,-7 4.1,-9.5 2.4,1.6 6.8,-0.7 3.7,-3.4 -2.9,-0.5 -4.8,2.4 -6.2,4.3 0,-1.2 2.4,-5 -0.2,-4.3 z m 15.8,0 c -6.4,1.3 -9.6,9.1 -7.7,14.9 1.9,4 7.7,3.9 11,1.7 4.1,-3 6,-8.9 4.4,-13.7 -1.3,-3 -4.8,-3.2 -7.6,-3 z m 17,0 c -2.3,0 -8.8,1.9 -3,2.4 0.4,2.5 -1,5.7 -1.4,8.4 -0.7,2.4 -1.8,7.5 2.1,7.2 3.8,-0.1 6.5,-3.5 8.5,-6.3 2,-3.2 4.5,-7 3.3,-10.9 -3.7,-3 -3.6,2.6 -3.1,5.1 -0.7,3.8 -2.7,7.9 -6.2,9.8 -3.6,0.6 -1,-4.3 -0.8,-6.1 0.6,-3.2 1.6,-6.3 1.9,-9.5 -0.4,0 -0.8,0 -1.1,0 z m 30.6,0 c -6.3,1.2 -9.5,8.9 -7.8,14.7 1.5,4 7.2,4.2 10.5,2.4 4.6,-2.8 6.6,-9.3 4.8,-14.3 -1.4,-2.8 -4.8,-3 -7.5,-2.8 z m -75.4,1.7 c 2.1,1.5 0.2,4.7 -1.6,5.7 -1.1,0.4 -5.5,3.4 -4.6,0.7 0.8,-2.7 2.2,-6.2 5.3,-6.6 l 0.9,0.1 z m 30.8,0 c 2.6,1.5 1.3,5.2 0.8,7.6 -0.8,2.7 -1.9,5.9 -4.7,7.1 -5.1,0.8 -4,-5.8 -2.8,-8.8 1,-2.8 3,-6.8 6.7,-5.8 z m 47.1,-0.1 c 2.9,0.7 2,4.7 1.5,6.8 -0.7,3 -1.8,6.7 -5,8 -4.7,0.8 -4,-5.1 -3,-7.9 0.9,-3 2.7,-7.3 6.5,-6.8 z m -88.1,5.9 c -0.3,1.3 0.9,-0.6 0,0 z m -1.1,2.4 c -0.2,0.5 0.5,-0.1 0,0 z m -1.3,4.5 c -0.3,1.3 0.8,-0.2 0,0 z" />
                     <text y="41" x="201" fill="#00000" style="font-style:italic;font-weight:normal;font-size:30px;line-height:125%;font-family:Times;text-anchor:middle" xml:space="preserve">engraved with</text>
                  </g>
               </g>
            </g>
         </g>
      </g>
   </svg>
</svg>
