<?xml version="1.0" encoding="UTF-8" standalone="no"?>
<svg width="2100px" height="2970px" version="1.1" xmlns="http://www.w3.org/2000/svg" xmlns:xlink="http://www.w3.org/1999/xlink" xmlns:mei="http://www.music-encoding.org/ns/mei" overflow="visible">
   <desc>Engraved by Verovio 3.13.1</desc>
   <defs>
      <symbol id="E044-jrv92g" viewBox="0 0 1000 1000" overflow="inherit">
         <path transform="scale(1,-1)" d="M0 0c0 28 22 50 50 50s50 -22 50 -50s-22 -50 -50 -50s-50 22 -50 50z" />
      </symbol>
      <symbol id="E050-jrv92g" viewBox="0 0 1000 1000" overflow="inherit">
         <path transform="scale(1,-1)" d="M441 -245c-23 -4 -48 -6 -76 -6c-59 0 -102 7 -130 20c-88 42 -150 93 -187 154c-26 44 -43 103 -48 176c0 6 -1 13 -1 19c0 54 15 111 45 170c29 57 65 106 110 148s96 85 153 127c-3 16 -8 46 -13 92c-4 43 -5 73 -5 89c0 117 16 172 69 257c34 54 64 82 89 82 c21 0 43 -30 69 -92s39 -115 41 -159v-15c0 -109 -21 -162 -67 -241c-13 -20 -63 -90 -98 -118c-13 -9 -25 -19 -37 -29l31 -181c8 1 18 2 28 2c58 0 102 -12 133 -35c59 -43 92 -104 98 -184c1 -7 1 -15 1 -22c0 -123 -87 -209 -181 -248c8 -57 17 -110 25 -162 c5 -31 6 -58 6 -80c0 -30 -5 -53 -14 -70c-35 -64 -88 -99 -158 -103c-5 0 -11 -1 -16 -1c-37 0 -72 10 -108 27c-50 24 -77 59 -80 105v11c0 29 7 55 20 76c18 28 45 42 79 44h6c49 0 93 -42 97 -87v-9c0 -51 -34 -86 -105 -106c17 -24 51 -36 102 -36c62 0 116 43 140 85 c9 16 13 41 13 74c0 20 -1 42 -5 67c-8 53 -18 106 -26 159zM461 939c-95 0 -135 -175 -135 -286c0 -24 2 -48 5 -71c50 39 92 82 127 128c40 53 60 100 60 140v8c-4 53 -22 81 -55 81h-2zM406 119l54 -326c73 25 110 78 110 161c0 7 0 15 -1 23c-7 95 -57 142 -151 142h-12 zM382 117c-72 -2 -128 -47 -128 -120v-7c2 -46 43 -99 75 -115c-3 -2 -7 -5 -10 -10c-70 33 -116 88 -123 172v11c0 68 44 126 88 159c23 17 49 29 78 36l-29 170c-21 -13 -52 -37 -92 -73c-50 -44 -86 -84 -109 -119c-45 -69 -67 -130 -67 -182v-13c5 -68 35 -127 93 -176 s125 -73 203 -73c25 0 50 3 75 9c-19 111 -36 221 -54 331z" />
      </symbol>
      <symbol id="E081-jrv92g" viewBox="0 0 1000 1000" overflow="inherit">
         <path transform="scale(1,-1)" d="M68 -250v36c23 0 40 6 49 18c8 14 12 33 12 57v250l-82 -129l-27 13l107 255h128v-394c0 -24 5 -42 14 -53s25 -17 47 -17v-36h-248z" />
      </symbol>
      <symbol id="E082-jrv92g" viewBox="0 0 1000 1000" overflow="inherit">
         <path transform="scale(1,-1)" d="M124 -185c-18 0 -55 -14 -65 -65h-36l-3 30c0 25 6 45 18 63c11 19 22 30 39 43l121 82l37 29c15 11 27 29 38 54c12 24 18 47 18 70c0 40 -19 88 -94 88c-25 0 -32 0 -50 -8c-14 -5 -23 -12 -26 -22c3 -9 7 -15 10 -18l24 -17c12 -7 17 -11 27 -21c5 -7 7 -16 7 -27 c0 -12 0 -57 -79 -74c-30 0 -76 26 -76 94c0 66 81 135 197 135c72 0 181 -32 181 -150c0 -53 -32 -95 -113 -133l-91 -41c-26 -11 -45 -23 -57 -37l49 7c84 0 115 -41 148 -41c20 0 33 20 39 61h35c0 -152 -68 -168 -114 -168c-17 0 -65 0 -79 7h10l-28 17 c-49 37 -69 40 -87 42z" />
      </symbol>
      <symbol id="E083-jrv92g" viewBox="0 0 1000 1000" overflow="inherit">
         <path transform="scale(1,-1)" d="M208 250c97 0 177 -52 177 -116c0 -69 -40 -111 -118 -125c56 -5 125 -44 125 -116c0 -31 -10 -57 -31 -78c-19 -21 -45 -38 -78 -49l-50 -11c-15 -3 -36 -7 -55 -7c-50 0 -86 16 -113 38c-16 10 -23 18 -34 34c-7 13 -11 25 -11 38c0 43 27 83 68 83l3 -2 c61 0 75 -42 75 -70c0 -19 -24 -42 -26 -57c7 -17 20 -25 37 -25c44 0 94 29 94 78c0 75 -34 125 -138 125v36c84 0 131 22 131 98c0 54 -37 88 -87 88c-26 0 -43 -7 -51 -22c15 -22 44 -16 44 -70c0 -37 -37 -62 -71 -62c-22 0 -69 15 -69 76c0 79 101 116 178 116z" />
      </symbol>
      <symbol id="E084-jrv92g" viewBox="0 0 1000 1000" overflow="inherit">
         <path transform="scale(1,-1)" d="M20 -78c84 97 114 180 134 329h170c-13 -32 -82 -132 -99 -151l-84 -97c-33 -36 -59 -63 -80 -81h162v102l127 123v-225h57v-39h-57v-34c0 -43 19 -65 57 -65v-34h-244v36c48 0 60 26 60 70v27h-203v39z" />
      </symbol>
      <symbol id="E088-jrv92g" viewBox="0 0 1000 1000" overflow="inherit">
         <path transform="scale(1,-1)" d="M195 -214c76 0 88 58 90 68c0 34 -35 60 -57 73l-52 29c-21 10 -32 17 -34 20c-39 -33 -58 -54 -62 -92c5 -23 23 -98 115 -98zM301 135c0 61 -72 76 -113 76c-40 0 -77 -17 -77 -51c3 -21 15 -38 26 -50c17 -15 33 -26 48 -34l65 -28c34 27 51 56 51 87zM176 -250 c-57 0 -166 26 -166 132c0 47 30 86 89 116c-33 15 -79 60 -79 119c0 79 85 132 178 132h18c5 0 21 1 28 -1c25 0 126 -30 126 -110c0 -37 -23 -76 -69 -116c43 -25 83 -71 83 -119c0 -101 -118 -153 -208 -153z" />
      </symbol>
      <symbol id="E0A4-jrv92g" viewBox="0 0 1000 1000" overflow="inherit">
         <path transform="scale(1,-1)" d="M0 -39c0 68 73 172 200 172c66 0 114 -37 114 -95c0 -84 -106 -171 -218 -171c-64 0 -96 30 -96 94z" />
      </symbol>
      <symbol id="E240-jrv92g" viewBox="0 0 1000 1000" overflow="inherit">
         <path transform="scale(1,-1)" d="M179 -646c15 29 29 55 46 102c18 49 30 108 30 138c0 105 -80 173 -168 200c-18 5 -47 9 -87 16v190h22c8 0 33 -61 71 -95c4 -3 -2 3 61 -56c62 -58 122 -137 122 -241c0 -38 -13 -106 -35 -163c-20 -51 -43 -99 -66 -132c-6 -5 -10 -7 -13 -7s-5 2 -5 5l4 10 c1 3 14 25 18 33z" />
      </symbol>
      <symbol id="E241-jrv92g" viewBox="0 0 1000 1000" overflow="inherit">
         <path transform="scale(1,-1)" d="M179 646c-4 8 -17 30 -18 33l-4 10c0 3 2 5 5 5s7 -2 13 -7c23 -33 46 -81 66 -132c22 -57 35 -125 35 -163c0 -104 -60 -183 -122 -241c-63 -59 -57 -53 -61 -56c-38 -34 -63 -95 -71 -95h-22v190c40 7 69 11 87 16c88 27 168 95 168 200c0 30 -12 89 -30 138 c-17 47 -31 73 -46 102z" />
      </symbol>
      <symbol id="E260-jrv92g" viewBox="0 0 1000 1000" overflow="inherit">
         <path transform="scale(1,-1)" d="M20 110c32 16 54 27 93 27c26 0 35 -3 54 -13c13 -7 24 -20 27 -38l4 -25c0 -28 -16 -57 -45 -89c-23 -25 -39 -44 -65 -68l-88 -79v644h20v-359zM90 106c-32 0 -48 -10 -70 -29v-194c31 31 54 59 71 84c21 32 32 59 32 84c0 9 1 16 1 20c0 14 -3 21 -11 30l-8 3z" />
      </symbol>
   </defs>
   <style type="text/css">g.page-margin{font-family:Times;} g.ending, g.fing, g.reh, g.tempo{font-weight:bold;} g.dir, g.dynam, g.mNum{font-style:italic;} g.label{font-weight:normal;}</style>
   <svg class="definition-scale" color="black" viewBox="0 0 21000 29700">
      <g class="page-margin" transform="translate(500, 500)">
         <g id="m13ccho3" class="mdiv pageMilestone" />
         <g id="s3ryw6" class="score pageMilestone" />
         <g id="s1xrfs6u" class="system">
            <g id="l1cw1ypi" class="label">
               <text x="1105" y="1536" text-anchor="end" font-size="0px">
                  <tspan id="t5c29lg" class="text">
                     <tspan font-size="405px" class="text">Piano</tspan>
                  </tspan>
               </text>
            </g>
            <g id="sqip6fo" class="section systemMilestone" />
            <g id="p1sdgjx2" class="pb" />
            <g id="mrpuwk6" class="measure">
               <g id="m13ofj4e" class="mNum">
                  <text x="1285" y="843" text-anchor="middle" font-size="0px" />
               </g>
               <g id="s1396wsn" class="staff">
                  <path d="M1285 1086 L3646 1086" stroke="currentColor" stroke-width="13" />
                  <path d="M1285 1266 L3646 1266" stroke="currentColor" stroke-width="13" />
                  <path d="M1285 1446 L3646 1446" stroke="currentColor" stroke-width="13" />
                  <path d="M1285 1626 L3646 1626" stroke="currentColor" stroke-width="13" />
                  <path d="M1285 1806 L3646 1806" stroke="currentColor" stroke-width="13" />
                  <g id="cge7oca" class="clef">
                     <use xlink:href="#E050-jrv92g" x="1375" y="1626" height="720px" width="720px" />
                  </g>
                  <g id="kuckl4z" class="keySig">
                     <g id="k7n7ff2" class="keyAccid">
                        <use xlink:href="#E260-jrv92g" x="2020" y="1446" height="720px" width="720px" />
                     </g>
                     <g id="kitsmy8" class="keyAccid">
                        <use xlink:href="#E260-jrv92g" x="2200" y="1176" height="720px" width="720px" />
                     </g>
                  </g>
                  <g id="m1eh4l28" class="meterSig">
                     <use xlink:href="#E082-jrv92g" x="2508" y="1266" height="720px" width="720px" />
                     <use xlink:href="#E084-jrv92g" x="2513" y="1626" height="720px" width="720px" />
                  </g>
                  <g id="l1816jdo" class="layer">
                     <g id="n15lpfl3" class="note">
                        <g class="notehead">
                           <use xlink:href="#E0A4-jrv92g" x="3082" y="1266" height="720px" width="720px" />
                        </g>
                        <g id="s111aogs" class="stem">
                           <rect x="3082" y="1294" height="602" width="18" />
                           <g id="fbepdk7" class="flag">
                              <use xlink:href="#E241-jrv92g" x="3082" y="1896" height="720px" width="720px" />
                           </g>
                        </g>
                     </g>
                  </g>
               </g>
               <g id="b1ihi0b1" class="barLine">
                  <path d="M3633 1086 L3633 1806" stroke="currentColor" stroke-width="27" />
               </g>
            </g>
            <g id="m1i0gan7" class="measure">
               <g id="s1uuiq17" class="staff">
                  <path d="M3646 1086 L6041 1086" stroke="currentColor" stroke-width="13" />
                  <path d="M3646 1266 L6041 1266" stroke="currentColor" stroke-width="13" />
                  <path d="M3646 1446 L6041 1446" stroke="currentColor" stroke-width="13" />
                  <path d="M3646 1626 L6041 1626" stroke="currentColor" stroke-width="13" />
                  <path d="M3646 1806 L6041 1806" stroke="currentColor" stroke-width="13" />
                  <g id="lwrgj1z" class="layer">
                     <g id="b17xzi91" class="beam">
                        <polygon points="3827,1896 4396,1806 4396,1716 3827,1806" />
                        <g id="n17ssy6r" class="note">
                           <g class="notehead">
                              <use xlink:href="#E0A4-jrv92g" x="3827" y="1266" height="720px" width="720px" />
                           </g>
                           <g id="s6gctiv" class="stem">
                              <rect x="3827" y="1294" height="584" width="18" />
                           </g>
                        </g>
                        <g id="n1qh2xzd" class="note">
                           <g class="notehead">
                              <use xlink:href="#E0A4-jrv92g" x="4378" y="1176" height="720px" width="720px" />
                           </g>
                           <g id="sd1kbrv" class="stem">
                              <rect x="4378" y="1204" height="584" width="18" />
                           </g>
                           <g id="awj6yf2" class="accid" />
                        </g>
                     </g>
                     <g id="bnss7tv" class="beam">
                        <polygon points="4928,1896 5496,1986 5496,1896 4928,1806" />
                        <g id="norcwwe" class="note">
                           <g class="notehead">
                              <use xlink:href="#E0A4-jrv92g" x="4928" y="1266" height="720px" width="720px" />
                           </g>
                           <g id="smco3fd" class="stem">
                              <rect x="4928" y="1294" height="584" width="18" />
                           </g>
                        </g>
                        <g id="n1wakdl3" class="note">
                           <g class="notehead">
                              <use xlink:href="#E0A4-jrv92g" x="5478" y="1356" height="720px" width="720px" />
                           </g>
                           <g id="s1nk5evp" class="stem">
                              <rect x="5478" y="1384" height="584" width="18" />
                           </g>
                        </g>
                     </g>
                  </g>
               </g>
               <g id="b18h1eub" class="barLine">
                  <path d="M6028 1086 L6028 1806" stroke="currentColor" stroke-width="27" />
               </g>
            </g>
            <g id="my5jrv4" class="measure">
               <g id="sisw8eu" class="staff">
                  <path d="M6041 1086 L8436 1086" stroke="currentColor" stroke-width="13" />
                  <path d="M6041 1266 L8436 1266" stroke="currentColor" stroke-width="13" />
                  <path d="M6041 1446 L8436 1446" stroke="currentColor" stroke-width="13" />
                  <path d="M6041 1626 L8436 1626" stroke="currentColor" stroke-width="13" />
                  <path d="M6041 1806 L8436 1806" stroke="currentColor" stroke-width="13" />
                  <g id="l1k2fwh5" class="layer">
                     <g id="bwr46fb" class="beam">
                        <polygon points="6222,2031 6791,1851 6791,1761 6222,1941" />
                        <g id="n1c3n0oc" class="note">
                           <g class="notehead">
                              <use xlink:href="#E0A4-jrv92g" x="6222" y="1446" height="720px" width="720px" />
                           </g>
                           <g id="sfo2hnr" class="stem">
                              <rect x="6222" y="1474" height="539" width="18" />
                           </g>
                           <g id="assfbt9" class="accid" />
                        </g>
                        <g id="nesivle" class="note">
                           <g class="notehead">
                              <use xlink:href="#E0A4-jrv92g" x="6773" y="1266" height="720px" width="720px" />
                           </g>
                           <g id="sbdkkva" class="stem">
                              <rect x="6773" y="1294" height="539" width="18" />
                           </g>
                        </g>
                     </g>
                     <g id="b1puijbj" class="beam">
                        <polygon points="7323,1986 7891,1896 7891,1806 7323,1896" />
                        <g id="nh1976z" class="note">
                           <g class="notehead">
                              <use xlink:href="#E0A4-jrv92g" x="7323" y="1356" height="720px" width="720px" />
                           </g>
                           <g id="s1chxjwm" class="stem">
                              <rect x="7323" y="1384" height="584" width="18" />
                           </g>
                        </g>
                        <g id="n1md169c" class="note">
                           <g class="notehead">
                              <use xlink:href="#E0A4-jrv92g" x="7873" y="1266" height="720px" width="720px" />
                           </g>
                           <g id="sodxv6w" class="stem">
                              <rect x="7873" y="1294" height="584" width="18" />
                           </g>
                        </g>
                     </g>
                  </g>
               </g>
               <g id="b1b3i388" class="barLine">
                  <path d="M8423 1086 L8423 1806" stroke="currentColor" stroke-width="27" />
               </g>
            </g>
            <g id="mi1eykj" class="measure">
               <g id="s1i62qgu" class="staff">
                  <path d="M8436 1086 L10831 1086" stroke="currentColor" stroke-width="13" />
                  <path d="M8436 1266 L10831 1266" stroke="currentColor" stroke-width="13" />
                  <path d="M8436 1446 L10831 1446" stroke="currentColor" stroke-width="13" />
                  <path d="M8436 1626 L10831 1626" stroke="currentColor" stroke-width="13" />
                  <path d="M8436 1806 L10831 1806" stroke="currentColor" stroke-width="13" />
                  <g id="l37hzn1" class="layer">
                     <g id="b1yrnhbe" class="beam">
                        <polygon points="8617,1896 9186,1806 9186,1716 8617,1806" />
                        <g id="nlyi1r" class="note">
                           <g class="notehead">
                              <use xlink:href="#E0A4-jrv92g" x="8617" y="1266" height="720px" width="720px" />
                           </g>
                           <g id="s1aa26v8" class="stem">
                              <rect x="8617" y="1294" height="584" width="18" />
                           </g>
                        </g>
                        <g id="n1l9q2ov" class="note">
                           <g class="notehead">
                              <use xlink:href="#E0A4-jrv92g" x="9168" y="1176" height="720px" width="720px" />
                           </g>
                           <g id="syoe0oj" class="stem">
                              <rect x="9168" y="1204" height="584" width="18" />
                           </g>
                           <g id="a1e600so" class="accid" />
                        </g>
                     </g>
                     <g id="b1afegvd" class="beam">
                        <polygon points="9718,1896 10286,1986 10286,1896 9718,1806" />
                        <g id="n1epot4f" class="note">
                           <g class="notehead">
                              <use xlink:href="#E0A4-jrv92g" x="9718" y="1266" height="720px" width="720px" />
                           </g>
                           <g id="slvg2ei" class="stem">
                              <rect x="9718" y="1294" height="584" width="18" />
                           </g>
                        </g>
                        <g id="n1evq8k1" class="note">
                           <g class="notehead">
                              <use xlink:href="#E0A4-jrv92g" x="10268" y="1356" height="720px" width="720px" />
                           </g>
                           <g id="s4e6428" class="stem">
                              <rect x="10268" y="1384" height="584" width="18" />
                           </g>
                        </g>
                     </g>
                  </g>
               </g>
               <g id="bwhhjmh" class="barLine">
                  <path d="M10818 1086 L10818 1806" stroke="currentColor" stroke-width="27" />
               </g>
            </g>
            <g id="m125e2q1" class="measure">
               <g id="s1sbwuux" class="staff">
                  <path d="M10831 1086 L13289 1086" stroke="currentColor" stroke-width="13" />
                  <path d="M10831 1266 L13289 1266" stroke="currentColor" stroke-width="13" />
                  <path d="M10831 1446 L13289 1446" stroke="currentColor" stroke-width="13" />
                  <path d="M10831 1626 L13289 1626" stroke="currentColor" stroke-width="13" />
                  <path d="M10831 1806 L13289 1806" stroke="currentColor" stroke-width="13" />
                  <g id="mudsoew" class="meterSig">
                     <use xlink:href="#E083-jrv92g" x="10911" y="1266" height="720px" width="720px" />
                     <use xlink:href="#E088-jrv92g" x="10914" y="1626" height="720px" width="720px" />
                  </g>
                  <g id="l1c67dof" class="layer">
                     <g id="b1u5ztqm" class="beam">
                        <polygon points="11463,2031 12032,1851 12032,1761 11463,1941" />
                        <g id="n106y4wq" class="note">
                           <g class="notehead">
                              <use xlink:href="#E0A4-jrv92g" x="11463" y="1446" height="720px" width="720px" />
                           </g>
                           <g id="s1xx8juo" class="stem">
                              <rect x="11463" y="1474" height="539" width="18" />
                           </g>
                           <g id="a1n0n5o7" class="accid" />
                        </g>
                        <g id="n1uxg9k9" class="note">
                           <g class="notehead">
                              <use xlink:href="#E0A4-jrv92g" x="12014" y="1266" height="720px" width="720px" />
                           </g>
                           <g id="sm7sro3" class="stem">
                              <rect x="12014" y="1294" height="539" width="18" />
                           </g>
                        </g>
                     </g>
                     <g id="n1ngdlew" class="note">
                        <g class="notehead">
                           <use xlink:href="#E0A4-jrv92g" x="12564" y="1356" height="720px" width="720px" />
                        </g>
                        <g id="s1ail7wn" class="stem">
                           <rect x="12564" y="1384" height="602" width="18" />
                           <g id="fdf0h46" class="flag">
                              <use xlink:href="#E241-jrv92g" x="12564" y="1986" height="720px" width="720px" />
                           </g>
                        </g>
                     </g>
                  </g>
               </g>
               <g id="b1dkk9wj" class="barLine">
                  <path d="M13114 1086 L13114 1806" stroke="currentColor" stroke-width="27" />
                  <path d="M13244 1086 L13244 1806" stroke="currentColor" stroke-width="90" />
                  <use xlink:href="#E044-jrv92g" x="12997" y="1356" height="720px" width="720px" />
                  <use xlink:href="#E044-jrv92g" x="12997" y="1536" height="720px" width="720px" />
               </g>
            </g>
            <g id="m1tjdsmi" class="measure">
               <g id="s1k133xt" class="staff">
                  <path d="M13289 1086 L14867 1086" stroke="currentColor" stroke-width="13" />
                  <path d="M13289 1266 L14867 1266" stroke="currentColor" stroke-width="13" />
                  <path d="M13289 1446 L14867 1446" stroke="currentColor" stroke-width="13" />
                  <path d="M13289 1626 L14867 1626" stroke="currentColor" stroke-width="13" />
                  <path d="M13289 1806 L14867 1806" stroke="currentColor" stroke-width="13" />
                  <g id="m1j1tyuv" class="meterSig">
                     <use xlink:href="#E081-jrv92g" x="13396" y="1266" height="720px" width="720px" />
                     <use xlink:href="#E088-jrv92g" x="13372" y="1626" height="720px" width="720px" />
                  </g>
                  <g id="l1om703z" class="layer">
                     <g id="n16573rc" class="note">
                        <g class="notehead">
                           <use xlink:href="#E0A4-jrv92g" x="14304" y="1266" height="720px" width="720px" />
                        </g>
                        <g id="s1uhxake" class="stem">
                           <rect x="14304" y="1294" height="602" width="18" />
                           <g id="f1t1x556" class="flag">
                              <use xlink:href="#E241-jrv92g" x="14304" y="1896" height="720px" width="720px" />
                           </g>
                        </g>
                     </g>
                  </g>
               </g>
               <g id="br0gr9r" class="barLine">
                  <path d="M13873 1086 L13873 1806" stroke="currentColor" stroke-width="90" />
                  <path d="M14003 1086 L14003 1806" stroke="currentColor" stroke-width="27" />
                  <use xlink:href="#E044-jrv92g" x="14049" y="1356" height="720px" width="720px" />
                  <use xlink:href="#E044-jrv92g" x="14049" y="1536" height="720px" width="720px" />
               </g>
               <g id="b1pfmid6" class="barLine">
                  <path d="M14854 1086 L14854 1806" stroke="currentColor" stroke-width="27" />
               </g>
            </g>
            <g id="m11usbnq" class="measure">
               <g id="spp2ow6" class="staff">
                  <path d="M14867 1086 L17612 1086" stroke="currentColor" stroke-width="13" />
                  <path d="M14867 1266 L17612 1266" stroke="currentColor" stroke-width="13" />
                  <path d="M14867 1446 L17612 1446" stroke="currentColor" stroke-width="13" />
                  <path d="M14867 1626 L17612 1626" stroke="currentColor" stroke-width="13" />
                  <path d="M14867 1806 L17612 1806" stroke="currentColor" stroke-width="13" />
                  <g id="m1rxhbfq" class="meterSig">
                     <use xlink:href="#E082-jrv92g" x="14943" y="1266" height="720px" width="720px" />
                     <use xlink:href="#E084-jrv92g" x="14948" y="1626" height="720px" width="720px" />
                  </g>
                  <g id="l1ic0djq" class="layer">
                     <g id="bslivvq" class="beam">
                        <polygon points="15517,1896 16086,1806 16086,1716 15517,1806" />
                        <g id="n1ci8cix" class="note">
                           <g class="notehead">
                              <use xlink:href="#E0A4-jrv92g" x="15517" y="1266" height="720px" width="720px" />
                           </g>
                           <g id="sg4kdlh" class="stem">
                              <rect x="15517" y="1294" height="584" width="18" />
                           </g>
                        </g>
                        <g id="n1m45vq7" class="note">
                           <g class="notehead">
                              <use xlink:href="#E0A4-jrv92g" x="16068" y="1176" height="720px" width="720px" />
                           </g>
                           <g id="s1s08ynq" class="stem">
                              <rect x="16068" y="1204" height="584" width="18" />
                           </g>
                           <g id="ajfgken" class="accid" />
                        </g>
                     </g>
                     <g id="n8gjitl" class="note">
                        <g class="notehead">
                           <use xlink:href="#E0A4-jrv92g" x="16387" y="1266" height="540px" width="540px" />
                        </g>
                        <g id="s1qapopf" class="stem">
                           <rect x="16538" y="861" height="384" width="18" />
                           <g id="fsnv4pj" class="flag">
                              <use xlink:href="#E240-jrv92g" x="16538" y="861" height="540px" width="540px" />
                           </g>
                        </g>
                     </g>
                     <g id="ntspgkw" class="note">
                        <g class="notehead">
                           <use xlink:href="#E0A4-jrv92g" x="16754" y="1356" height="720px" width="720px" />
                        </g>
                        <g id="srl1m5f" class="stem">
                           <rect x="16754" y="1384" height="602" width="18" />
                        </g>
                     </g>
                  </g>
               </g>
               <g id="bzohrl8" class="barLine">
                  <path d="M17599 1086 L17599 1806" stroke="currentColor" stroke-width="27" />
               </g>
            </g>
            <g id="my5sgug" class="measure">
               <g id="s1jbaygk" class="staff">
                  <path d="M17612 1086 L20007 1086" stroke="currentColor" stroke-width="13" />
                  <path d="M17612 1266 L20007 1266" stroke="currentColor" stroke-width="13" />
                  <path d="M17612 1446 L20007 1446" stroke="currentColor" stroke-width="13" />
                  <path d="M17612 1626 L20007 1626" stroke="currentColor" stroke-width="13" />
                  <path d="M17612 1806 L20007 1806" stroke="currentColor" stroke-width="13" />
                  <g id="l174yj3m" class="layer">
                     <g id="bo13zbk" class="beam">
                        <polygon points="18001,861 18570,951 18570,1041 18001,951" />
                        <g id="n1jdz27l" class="note">
                           <g class="notehead">
                              <use xlink:href="#E0A4-jrv92g" x="17793" y="1446" height="720px" width="720px" />
                           </g>
                           <g id="scb4gwg" class="stem">
                              <rect x="18001" y="879" height="539" width="18" />
                           </g>
                           <g id="a1762iyt" class="accid" />
                        </g>
                        <g id="n12dypg3" class="note">
                           <g class="notehead">
                              <use xlink:href="#E0A4-jrv92g" x="18344" y="1536" height="720px" width="720px" />
                           </g>
                           <g id="s19usss6" class="stem">
                              <rect x="18552" y="969" height="539" width="18" />
                           </g>
                        </g>
                     </g>
                     <g id="bkc3vx6" class="beam">
                        <polygon points="19102,1041 19670,861 19670,951 19102,1131" />
                        <g id="n5d83ei" class="note">
                           <g class="notehead">
                              <use xlink:href="#E0A4-jrv92g" x="18894" y="1626" height="720px" width="720px" />
                           </g>
                           <g id="s119zkhk" class="stem">
                              <rect x="19102" y="1059" height="539" width="18" />
                           </g>
                        </g>
                        <g id="n1p303ra" class="note">
                           <g class="notehead">
                              <use xlink:href="#E0A4-jrv92g" x="19444" y="1446" height="720px" width="720px" />
                           </g>
                           <g id="s114iegm" class="stem">
                              <rect x="19652" y="879" height="539" width="18" />
                           </g>
                           <g id="a28ixz7" class="accid" />
                        </g>
                     </g>
                  </g>
               </g>
               <g id="bz9wpe0" class="barLine">
                  <path d="M19994 1086 L19994 1806" stroke="currentColor" stroke-width="27" />
               </g>
            </g>
         </g>
         <g id="s13jygnj" class="system">
            <g id="l1ojctoi" class="labelAbbr">
               <text x="914" y="3885" text-anchor="end" font-size="0px">
                  <tspan id="t14csfoo" class="text">
                     <tspan font-size="405px" class="text">Pno.</tspan>
                  </tspan>
               </text>
            </g>
            <g id="myzhc31" class="measure">
               <g id="m1m8lm8k" class="mNum autogenerated">
                  <text x="1094" y="3192" text-anchor="middle" font-size="0px">
                     <tspan id="t7vhkv1" class="text">
                        <tspan font-size="324px" class="text">8</tspan>
                     </tspan>
                  </text>
               </g>
               <g id="sz8ae5i" class="staff">
                  <path d="M1094 3435 L4622 3435" stroke="currentColor" stroke-width="13" />
                  <path d="M1094 3615 L4622 3615" stroke="currentColor" stroke-width="13" />
                  <path d="M1094 3795 L4622 3795" stroke="currentColor" stroke-width="13" />
                  <path d="M1094 3975 L4622 3975" stroke="currentColor" stroke-width="13" />
                  <path d="M1094 4155 L4622 4155" stroke="currentColor" stroke-width="13" />
                  <g id="c1n77y59" class="clef">
                     <use xlink:href="#E050-jrv92g" x="1184" y="3975" height="720px" width="720px" />
                  </g>
                  <g id="k1nkzidw" class="keySig">
                     <g id="kfci6ze" class="keyAccid">
                        <use xlink:href="#E260-jrv92g" x="1829" y="3795" height="720px" width="720px" />
                     </g>
                     <g id="k1nkwi1w" class="keyAccid">
                        <use xlink:href="#E260-jrv92g" x="2009" y="3525" height="720px" width="720px" />
                     </g>
                  </g>
                  <g id="l1c6wwju" class="layer">
                     <g id="b1jbzxo8" class="beam">
                        <polygon points="2421,4335 2986,4245 2986,4155 2421,4245" />
                        <g id="n1wqog0m" class="note">
                           <g class="notehead">
                              <use xlink:href="#E0A4-jrv92g" x="2421" y="3705" height="720px" width="720px" />
                           </g>
                           <g id="s1q4vf1e" class="stem">
                              <rect x="2421" y="3733" height="584" width="18" />
                           </g>
                        </g>
                        <g id="n7hw9vg" class="note">
                           <g class="notehead">
                              <use xlink:href="#E0A4-jrv92g" x="2968" y="3615" height="720px" width="720px" />
                           </g>
                           <g id="sikzptg" class="stem">
                              <rect x="2968" y="3643" height="584" width="18" />
                           </g>
                        </g>
                     </g>
                     <g id="b1gigga8" class="beam">
                        <polygon points="3515,4245 4080,4335 4080,4245 3515,4155" />
                        <g id="n15c6zpq" class="note">
                           <g class="notehead">
                              <use xlink:href="#E0A4-jrv92g" x="3515" y="3615" height="720px" width="720px" />
                           </g>
                           <g id="s1ca6nos" class="stem">
                              <rect x="3515" y="3643" height="584" width="18" />
                           </g>
                        </g>
                        <g id="nwmgza1" class="note">
                           <g class="notehead">
                              <use xlink:href="#E0A4-jrv92g" x="4062" y="3705" height="720px" width="720px" />
                           </g>
                           <g id="sbezmq3" class="stem">
                              <rect x="4062" y="3733" height="584" width="18" />
                           </g>
                        </g>
                     </g>
                  </g>
               </g>
               <g id="b58qmc3" class="barLine">
                  <path d="M4609 3435 L4609 4155" stroke="currentColor" stroke-width="27" />
               </g>
            </g>
            <g id="s1oxl0u2" class="sb" />
            <g id="m1t6ouxb" class="measure">
               <g id="s1a0kfwr" class="staff">
                  <path d="M4622 3435 L7092 3435" stroke="currentColor" stroke-width="13" />
                  <path d="M4622 3615 L7092 3615" stroke="currentColor" stroke-width="13" />
                  <path d="M4622 3795 L7092 3795" stroke="currentColor" stroke-width="13" />
                  <path d="M4622 3975 L7092 3975" stroke="currentColor" stroke-width="13" />
                  <path d="M4622 4155 L7092 4155" stroke="currentColor" stroke-width="13" />
                  <g id="m28ehhp" class="meterSig">
                     <use xlink:href="#E083-jrv92g" x="4702" y="3615" height="720px" width="720px" />
                     <use xlink:href="#E088-jrv92g" x="4705" y="3975" height="720px" width="720px" />
                  </g>
                  <g id="l1kayknu" class="layer">
                     <g id="n1wgfjg9" class="note">
                        <g class="notehead">
                           <use xlink:href="#E0A4-jrv92g" x="5163" y="3705" height="540px" width="540px" />
                        </g>
                        <g id="sffrcq3" class="stem">
                           <rect x="5314" y="3278" height="406" width="18" />
                           <g id="fsjdhra" class="flag">
                              <use xlink:href="#E240-jrv92g" x="5314" y="3278" height="540px" width="540px" />
                           </g>
                        </g>
                     </g>
                     <g id="n10fc55v" class="note">
                        <g class="notehead">
                           <use xlink:href="#E0A4-jrv92g" x="5530" y="3795" height="720px" width="720px" />
                        </g>
                        <g id="sx9wngt" class="stem">
                           <rect x="5530" y="3823" height="572" width="18" />
                        </g>
                        <g id="annz68a" class="accid" />
                     </g>
                     <g id="nlndtw2" class="note">
                        <g class="notehead">
                           <use xlink:href="#E0A4-jrv92g" x="6370" y="3975" height="720px" width="720px" />
                        </g>
                        <g id="s1wuyywm" class="stem">
                           <rect x="6578" y="3345" height="602" width="18" />
                           <g id="f1sfc3qk" class="flag">
                              <use xlink:href="#E240-jrv92g" x="6578" y="3345" height="720px" width="720px" />
                           </g>
                        </g>
                     </g>
                  </g>
               </g>
               <g id="bkk8efq" class="barLine">
                  <path d="M6917 3435 L6917 4155" stroke="currentColor" stroke-width="27" />
                  <path d="M7047 3435 L7047 4155" stroke="currentColor" stroke-width="90" />
               </g>
            </g>
            <g id="s13vuvqq" class="systemMilestoneEnd sqip6fo" />
         </g>
         <g id="p2puga4" class="pageMilestoneEnd s3ryw6" />
         <g id="p16iluk5" class="pageMilestoneEnd m13ccho3" />
         <g id="p15jpvld" class="pgHead">
            <text x="0" y="0" font-size="0px">
               <tspan id="rbhqgnz" class="rend" x="10000" y="278" text-anchor="middle">
                  <tspan id="t1xn8khw" class="text">
                     <tspan font-size="405px" class="text">Air n 162b</tspan>
                  </tspan>
               </tspan>
            </text>
         </g>
         <g id="pcanjh0" class="pgFoot autogenerated">
            <g id="fot0mho" class="fig">
               <g id="s23pq47" class="svg" transform="translate(7750, 28099) scale(10, 10)">
                  <g>
                     <path fill="#00000" d="M 17.11278,49.26451 V 10.367554 h 12.696511 c 3.288815,7.336676 6.71267,14.610456 10.127281,21.888976 3.419998,-7.484684 6.255515,-14.204887 9.58887,-21.909915 2.436207,0.103726 4.316952,0.08453 6.484294,-0.05808 V 49.264423 H 50.274275 C 50.145222,38.35639 50.016136,27.448368 49.887066,16.540329 45.003488,27.315459 39.967448,38.433564 35.083854,49.208695 34.678996,49.343717 34.426583,49.135619 34.021726,49.270644 29.46588,39.330716 24.910049,29.390805 20.354201,19.450876 20.224341,29.388756 20.09461,39.326619 19.964815,49.264497 H 17.11278 Z M 36.754144,39.324695 C 32.721221,30.512695 28.6883,21.700679 24.655394,12.888662 22.530527,12.750737 22.656775,12.71031 20.714356,12.813974 v 0.966497 c 4.612938,9.99784 9.609439,20.748709 13.87298,30.081745 0.722248,-1.512523 1.444528,-3.025014 2.166808,-4.537521 z m 25.738417,9.939815 c 0,-12.965651 0,-25.931305 0,-38.896956 10.084388,0 20.168791,0 30.253178,0 0,0.960416 0,1.920849 0,2.881265 -6.482825,0 -12.965652,0 -19.448478,0 0,4.802097 0,9.604178 0,14.406277 5.52241,0 11.044819,0 16.567229,0 0,0.960415 0,1.920832 0,2.881248 -5.52241,0 -11.044819,0 -16.567229,0 0,5.282306 0,10.564611 0,15.846917 6.963035,0 13.926068,0 20.889103,0 0,0.960416 0,1.920832 0,2.881249 -10.564597,0 -21.129207,0 -31.693803,0 z m 4.321874,-2.160937 c 0,-11.765131 0,-23.530263 0,-35.295394 -0.720312,0 -1.440625,0 -2.160937,0 0,11.765131 0,23.530263 0,35.295394 0.720312,0 1.440625,0 2.160937,0 z m 32.41413,2.160937 c 0,-12.965651 0,-25.931305 0,-38.896956 2.401045,0 4.802095,0 7.203135,0 0,12.965651 0,25.931305 0,38.896956 -2.40104,0 -4.80209,0 -7.203135,0 z m 2.881265,-2.160937 c 0,-11.765131 0,-23.530263 0,-35.295394 -0.72031,0 -1.44064,0 -2.160953,0 0,11.765131 0,23.530263 0,35.295394 0.720313,0 1.440643,0 2.160953,0 z" />
                     <path fill="#00000" d="m 346.3,6.7 c -3.1,0.5 -4.9,4.4 -2.7,6.8 1.2,1.4 2.7,2.4 4.1,3.5 -2.4,5.3 -7.7,8.3 -11.9,12.1 -3.7,2.8 -7,6.2 -9.7,9.9 -2.2,-0.8 -0.3,-6.8 -0.6,-9.5 0.1,-3.1 0.7,-6.4 2.9,-8.7 1.3,-1.9 3,-3.5 4.5,-5.2 1.2,-3.4 -3.2,-4.9 -5.8,-4.6 -7.3,-0.5 -14.6,2 -20,6.8 -5,4.6 -10,10.1 -11.5,17 -0.9,3.5 -0.2,7.5 2.8,9.9 2.5,2.8 7.4,2.9 9.8,-0.2 1.7,-2.3 3.2,-4.8 3.8,-7.6 -0.1,-2.6 -4.4,-2.3 -4.3,0.2 1.2,2.4 -0.9,4.7 -2.7,6.2 -1.7,0.9 -4.7,0.7 -4.8,-1.7 -1,-5.8 2.1,-11.3 5.2,-16.1 4,-5.8 9.8,-11.2 17.2,-11.8 1.6,0 8.1,-1.2 6.8,1.4 -2.8,2.8 -5.6,6.1 -6,10.3 -1.6,7.7 0.1,15.7 -2.3,23.2 -1.1,3.9 2,2.6 2.5,0.2 3.3,-7.4 8.9,-13.4 15.1,-18.5 4.2,-3.9 9.5,-7.1 11.9,-12.6 1.3,-3.6 1.2,-9 -2.7,-10.9 -0.6,-0.2 -1.2,-0.3 -1.8,-0.3 z m 66,14.5 c -2,0.8 -1.8,4.9 0.8,4.4 3.4,0.4 2.9,-6.2 -0.8,-4.4 z m 0.6,7.3 c -1.3,0.5 -7.6,0.5 -5.4,2.2 4,-0.3 0.7,4.5 0.6,6.7 -0.4,2.9 -2.4,5.9 -1.2,8.8 2.7,1.7 5.6,-0.8 6.8,-3.2 1.6,-1.4 -0.5,-3 -1.2,-0.9 -0.4,0.8 -2.4,3.5 -2.6,1.8 1.1,-5 2.7,-9.9 3.9,-14.9 l -0.1,-0.5 h -0.9 z m -65.1,0.2 c -6.5,1.6 -10.5,9.5 -8.2,15.7 2.1,3.4 7.4,2.9 10.1,0.4 2,-0.2 3.6,-5.3 1,-3.4 -1.4,2 -4,4.2 -6.5,2.8 -2.2,-1.9 -1.9,-5.7 1.7,-5.3 3.1,-0.9 6.9,-2.1 8.1,-5.5 0.9,-2.7 -1.6,-5.2 -4.3,-4.8 h -1.1 -0.7 z m 13.6,0 c -2.2,0 -8.5,1.8 -2.9,2.3 0.9,1.9 -1,4.9 -1.1,7.2 -0.5,2.9 -1.4,5.7 -1.7,8.7 3.7,0.7 3.8,-2.6 4.4,-5.3 0.9,-3.3 1.6,-7 4.1,-9.5 2.4,1.6 6.8,-0.7 3.7,-3.4 -2.9,-0.5 -4.8,2.4 -6.2,4.3 0,-1.2 2.4,-5 -0.2,-4.3 z m 15.8,0 c -6.4,1.3 -9.6,9.1 -7.7,14.9 1.9,4 7.7,3.9 11,1.7 4.1,-3 6,-8.9 4.4,-13.7 -1.3,-3 -4.8,-3.2 -7.6,-3 z m 17,0 c -2.3,0 -8.8,1.9 -3,2.4 0.4,2.5 -1,5.7 -1.4,8.4 -0.7,2.4 -1.8,7.5 2.1,7.2 3.8,-0.1 6.5,-3.5 8.5,-6.3 2,-3.2 4.5,-7 3.3,-10.9 -3.7,-3 -3.6,2.6 -3.1,5.1 -0.7,3.8 -2.7,7.9 -6.2,9.8 -3.6,0.6 -1,-4.3 -0.8,-6.1 0.6,-3.2 1.6,-6.3 1.9,-9.5 -0.4,0 -0.8,0 -1.1,0 z m 30.6,0 c -6.3,1.2 -9.5,8.9 -7.8,14.7 1.5,4 7.2,4.2 10.5,2.4 4.6,-2.8 6.6,-9.3 4.8,-14.3 -1.4,-2.8 -4.8,-3 -7.5,-2.8 z m -75.4,1.7 c 2.1,1.5 0.2,4.7 -1.6,5.7 -1.1,0.4 -5.5,3.4 -4.6,0.7 0.8,-2.7 2.2,-6.2 5.3,-6.6 l 0.9,0.1 z m 30.8,0 c 2.6,1.5 1.3,5.2 0.8,7.6 -0.8,2.7 -1.9,5.9 -4.7,7.1 -5.1,0.8 -4,-5.8 -2.8,-8.8 1,-2.8 3,-6.8 6.7,-5.8 z m 47.1,-0.1 c 2.9,0.7 2,4.7 1.5,6.8 -0.7,3 -1.8,6.7 -5,8 -4.7,0.8 -4,-5.1 -3,-7.9 0.9,-3 2.7,-7.3 6.5,-6.8 z m -88.1,5.9 c -0.3,1.3 0.9,-0.6 0,0 z m -1.1,2.4 c -0.2,0.5 0.5,-0.1 0,0 z m -1.3,4.5 c -0.3,1.3 0.8,-0.2 0,0 z" />
                     <text y="41" x="201" fill="#00000" style="font-style:italic;font-weight:normal;font-size:30px;line-height:125%;font-family:Times;text-anchor:middle" xml:space="preserve">engraved with</text>
                  </g>
               </g>
            </g>
         </g>
      </g>
   </svg>
</svg>
