<?xml version="1.0" encoding="UTF-8" standalone="no"?>
<svg width="2100px" height="2970px" version="1.1" xmlns="http://www.w3.org/2000/svg" xmlns:xlink="http://www.w3.org/1999/xlink" xmlns:mei="http://www.music-encoding.org/ns/mei" overflow="visible">
   <desc>Engraved by Verovio 3.13.1</desc>
   <defs>
      <symbol id="E044-eg2gc5" viewBox="0 0 1000 1000" overflow="inherit">
         <path transform="scale(1,-1)" d="M0 0c0 28 22 50 50 50s50 -22 50 -50s-22 -50 -50 -50s-50 22 -50 50z" />
      </symbol>
      <symbol id="E050-eg2gc5" viewBox="0 0 1000 1000" overflow="inherit">
         <path transform="scale(1,-1)" d="M441 -245c-23 -4 -48 -6 -76 -6c-59 0 -102 7 -130 20c-88 42 -150 93 -187 154c-26 44 -43 103 -48 176c0 6 -1 13 -1 19c0 54 15 111 45 170c29 57 65 106 110 148s96 85 153 127c-3 16 -8 46 -13 92c-4 43 -5 73 -5 89c0 117 16 172 69 257c34 54 64 82 89 82 c21 0 43 -30 69 -92s39 -115 41 -159v-15c0 -109 -21 -162 -67 -241c-13 -20 -63 -90 -98 -118c-13 -9 -25 -19 -37 -29l31 -181c8 1 18 2 28 2c58 0 102 -12 133 -35c59 -43 92 -104 98 -184c1 -7 1 -15 1 -22c0 -123 -87 -209 -181 -248c8 -57 17 -110 25 -162 c5 -31 6 -58 6 -80c0 -30 -5 -53 -14 -70c-35 -64 -88 -99 -158 -103c-5 0 -11 -1 -16 -1c-37 0 -72 10 -108 27c-50 24 -77 59 -80 105v11c0 29 7 55 20 76c18 28 45 42 79 44h6c49 0 93 -42 97 -87v-9c0 -51 -34 -86 -105 -106c17 -24 51 -36 102 -36c62 0 116 43 140 85 c9 16 13 41 13 74c0 20 -1 42 -5 67c-8 53 -18 106 -26 159zM461 939c-95 0 -135 -175 -135 -286c0 -24 2 -48 5 -71c50 39 92 82 127 128c40 53 60 100 60 140v8c-4 53 -22 81 -55 81h-2zM406 119l54 -326c73 25 110 78 110 161c0 7 0 15 -1 23c-7 95 -57 142 -151 142h-12 zM382 117c-72 -2 -128 -47 -128 -120v-7c2 -46 43 -99 75 -115c-3 -2 -7 -5 -10 -10c-70 33 -116 88 -123 172v11c0 68 44 126 88 159c23 17 49 29 78 36l-29 170c-21 -13 -52 -37 -92 -73c-50 -44 -86 -84 -109 -119c-45 -69 -67 -130 -67 -182v-13c5 -68 35 -127 93 -176 s125 -73 203 -73c25 0 50 3 75 9c-19 111 -36 221 -54 331z" />
      </symbol>
      <symbol id="E081-eg2gc5" viewBox="0 0 1000 1000" overflow="inherit">
         <path transform="scale(1,-1)" d="M68 -250v36c23 0 40 6 49 18c8 14 12 33 12 57v250l-82 -129l-27 13l107 255h128v-394c0 -24 5 -42 14 -53s25 -17 47 -17v-36h-248z" />
      </symbol>
      <symbol id="E082-eg2gc5" viewBox="0 0 1000 1000" overflow="inherit">
         <path transform="scale(1,-1)" d="M124 -185c-18 0 -55 -14 -65 -65h-36l-3 30c0 25 6 45 18 63c11 19 22 30 39 43l121 82l37 29c15 11 27 29 38 54c12 24 18 47 18 70c0 40 -19 88 -94 88c-25 0 -32 0 -50 -8c-14 -5 -23 -12 -26 -22c3 -9 7 -15 10 -18l24 -17c12 -7 17 -11 27 -21c5 -7 7 -16 7 -27 c0 -12 0 -57 -79 -74c-30 0 -76 26 -76 94c0 66 81 135 197 135c72 0 181 -32 181 -150c0 -53 -32 -95 -113 -133l-91 -41c-26 -11 -45 -23 -57 -37l49 7c84 0 115 -41 148 -41c20 0 33 20 39 61h35c0 -152 -68 -168 -114 -168c-17 0 -65 0 -79 7h10l-28 17 c-49 37 -69 40 -87 42z" />
      </symbol>
      <symbol id="E084-eg2gc5" viewBox="0 0 1000 1000" overflow="inherit">
         <path transform="scale(1,-1)" d="M20 -78c84 97 114 180 134 329h170c-13 -32 -82 -132 -99 -151l-84 -97c-33 -36 -59 -63 -80 -81h162v102l127 123v-225h57v-39h-57v-34c0 -43 19 -65 57 -65v-34h-244v36c48 0 60 26 60 70v27h-203v39z" />
      </symbol>
      <symbol id="E086-eg2gc5" viewBox="0 0 1000 1000" overflow="inherit">
         <path transform="scale(1,-1)" d="M284 -91c0 37 -28 92 -67 92c-35 0 -65 -54 -65 -111c0 -52 22 -104 68 -104c47 0 64 68 64 123zM230 214c-36 0 -90 -33 -90 -184l2 -36c40 24 81 36 120 36c80 0 140 -48 140 -121c0 -99 -99 -159 -182 -159c-160 0 -200 173 -200 244c0 21 2 43 7 71l10 35 c26 85 73 115 98 126c41 19 74 24 103 24c93 0 142 -63 142 -105c0 -58 -52 -72 -73 -72c-33 0 -59 24 -65 35c-3 5 -6 14 -7 25l11 30c6 15 9 27 9 35c0 11 -9 16 -25 16z" />
      </symbol>
      <symbol id="E087-eg2gc5" viewBox="0 0 1000 1000" overflow="inherit">
         <path transform="scale(1,-1)" d="M350 125c-11 -9 -53 -46 -95 -46c-18 2 -33 8 -44 17c-17 19 -33 34 -48 45c-13 11 -27 17 -42 17c-23 0 -45 -22 -64 -66h-37v155h37c4 -18 11 -28 21 -30c8 1 15 3 22 8l10 5l14 10c3 2 14 6 21 7l11 2c8 1 33 1 42 1c39 0 57 -7 90 -43c11 -15 26 -23 44 -26 c27 3 45 29 54 70l38 -1c-1 -9 -11 -88 -29 -124c-5 -13 -12 -28 -21 -46l-33 -60c-55 -92 -69 -162 -69 -270h-174c0 45 11 86 33 122c23 35 59 74 106 117c99 84 113 96 113 136z" />
      </symbol>
      <symbol id="E0A4-eg2gc5" viewBox="0 0 1000 1000" overflow="inherit">
         <path transform="scale(1,-1)" d="M0 -39c0 68 73 172 200 172c66 0 114 -37 114 -95c0 -84 -106 -171 -218 -171c-64 0 -96 30 -96 94z" />
      </symbol>
      <symbol id="E240-eg2gc5" viewBox="0 0 1000 1000" overflow="inherit">
         <path transform="scale(1,-1)" d="M179 -646c15 29 29 55 46 102c18 49 30 108 30 138c0 105 -80 173 -168 200c-18 5 -47 9 -87 16v190h22c8 0 33 -61 71 -95c4 -3 -2 3 61 -56c62 -58 122 -137 122 -241c0 -38 -13 -106 -35 -163c-20 -51 -43 -99 -66 -132c-6 -5 -10 -7 -13 -7s-5 2 -5 5l4 10 c1 3 14 25 18 33z" />
      </symbol>
      <symbol id="E243-eg2gc5" viewBox="0 0 1000 1000" overflow="inherit">
         <path transform="scale(1,-1)" d="M216 730c-5 8 -10 13 -11 16l-4 10c0 3 2 5 5 5s7 -2 13 -7c35 -42 57 -101 57 -172c0 -34 -6 -65 -17 -94c10 -31 17 -64 17 -96c0 -104 -60 -183 -122 -241c-63 -59 -57 -53 -61 -56c-38 -34 -63 -95 -71 -95h-22v190v190c40 7 69 11 87 16c116 36 175 111 175 197 c0 44 -15 91 -46 137zM248 463c-23 -48 -58 -89 -94 -122c-63 -59 -57 -53 -61 -56c-30 -27 -44 -71 -53 -88c20 3 36 6 47 9c88 27 168 95 168 200c0 19 -3 39 -7 57z" />
      </symbol>
      <symbol id="E262-eg2gc5" viewBox="0 0 1000 1000" overflow="inherit">
         <path transform="scale(1,-1)" d="M136 186v169h17v-164l44 14v-91l-44 -14v-165l44 12v-91l-44 -13v-155h-17v150l-76 -22v-155h-17v149l-43 -13v90l43 14v167l-43 -14v92l43 13v169h17v-163zM60 73v-167l76 22v168z" />
      </symbol>
   </defs>
   <style type="text/css">g.page-margin{font-family:Times;} g.ending, g.fing, g.reh, g.tempo{font-weight:bold;} g.dir, g.dynam, g.mNum{font-style:italic;} g.label{font-weight:normal;}</style>
   <svg class="definition-scale" color="black" viewBox="0 0 21000 29700">
      <g class="page-margin" transform="translate(500, 500)">
         <g id="m15ids8b" class="mdiv pageMilestone" />
         <g id="s1u4pwtz" class="score pageMilestone" />
         <g id="s1kp8sx1" class="system">
            <g id="l1ds6y58" class="label">
               <text x="1105" y="1537" text-anchor="end" font-size="0px">
                  <tspan id="t1kgdk0" class="text">
                     <tspan font-size="405px" class="text">Piano</tspan>
                  </tspan>
               </text>
            </g>
            <g id="s1jnxhb6" class="section systemMilestone" />
            <g id="p3r8oag" class="pb" />
            <g id="mcmhqrl" class="measure">
               <g id="m1ehv5fb" class="mNum">
                  <text x="1285" y="844" text-anchor="middle" font-size="0px" />
               </g>
               <g id="s1npb9fo" class="staff">
                  <path d="M1285 1087 L3291 1087" stroke="currentColor" stroke-width="13" />
                  <path d="M1285 1267 L3291 1267" stroke="currentColor" stroke-width="13" />
                  <path d="M1285 1447 L3291 1447" stroke="currentColor" stroke-width="13" />
                  <path d="M1285 1627 L3291 1627" stroke="currentColor" stroke-width="13" />
                  <path d="M1285 1807 L3291 1807" stroke="currentColor" stroke-width="13" />
                  <g id="c1hbd0vi" class="clef">
                     <use xlink:href="#E050-eg2gc5" x="1375" y="1627" height="720px" width="720px" />
                  </g>
                  <g id="kf5dkir" class="keySig">
                     <g id="k7ewu9h" class="keyAccid">
                        <use xlink:href="#E262-eg2gc5" x="2020" y="1087" height="720px" width="720px" />
                     </g>
                  </g>
                  <g id="m5wmycd" class="meterSig">
                     <use xlink:href="#E082-eg2gc5" x="2327" y="1267" height="720px" width="720px" />
                     <use xlink:href="#E084-eg2gc5" x="2332" y="1627" height="720px" width="720px" />
                  </g>
                  <g id="lu30t1y" class="layer">
                     <g id="nnwyf25" class="note">
                        <g class="notehead">
                           <use xlink:href="#E0A4-eg2gc5" x="2905" y="1267" height="720px" width="720px" />
                        </g>
                        <g id="s1v6k9l4" class="stem">
                           <rect x="2905" y="1295" height="602" width="18" />
                           <g id="f17dh9k6" class="flag">
                              <use xlink:href="#E243-eg2gc5" x="2905" y="1897" height="720px" width="720px" />
                           </g>
                        </g>
                     </g>
                  </g>
               </g>
               <g id="b1g6weww" class="barLine">
                  <path d="M3278 1087 L3278 1807" stroke="currentColor" stroke-width="27" />
               </g>
            </g>
            <g id="m11owjfk" class="measure">
               <g id="sneto6a" class="staff">
                  <path d="M3291 1087 L5678 1087" stroke="currentColor" stroke-width="13" />
                  <path d="M3291 1267 L5678 1267" stroke="currentColor" stroke-width="13" />
                  <path d="M3291 1447 L5678 1447" stroke="currentColor" stroke-width="13" />
                  <path d="M3291 1627 L5678 1627" stroke="currentColor" stroke-width="13" />
                  <path d="M3291 1807 L5678 1807" stroke="currentColor" stroke-width="13" />
                  <g id="laq05bi" class="layer">
                     <g id="b170xdpe" class="beam">
                        <polygon points="3684,1042 4424,1042 4424,1132 3684,1132" />
                        <polygon points="4198,1177 4424,1177 4424,1267 4198,1267" />
                        <g id="nqbrdui" class="note">
                           <g class="notehead">
                              <use xlink:href="#E0A4-eg2gc5" x="3476" y="1627" height="720px" width="720px" />
                           </g>
                           <g id="d1sviepg" class="dots">
                              <ellipse cx="3792" cy="1537" rx="36" ry="36" />
                           </g>
                           <g id="s12871zr" class="stem">
                              <rect x="3684" y="1060" height="539" width="18" />
                           </g>
                        </g>
                        <g id="nxkcvip" class="note">
                           <g class="notehead">
                              <use xlink:href="#E0A4-eg2gc5" x="4198" y="1627" height="720px" width="720px" />
                           </g>
                           <g id="soejp5l" class="stem">
                              <rect x="4406" y="1060" height="539" width="18" />
                           </g>
                        </g>
                     </g>
                     <g id="bgkl5vz" class="beam">
                        <polygon points="4779,997 5519,907 5519,997 4779,1087" />
                        <polygon points="5293,1068 5519,1042 5519,1132 5293,1158" />
                        <g id="n18hvgwl" class="note">
                           <g class="notehead">
                              <use xlink:href="#E0A4-eg2gc5" x="4571" y="1627" height="720px" width="720px" />
                           </g>
                           <g id="d1cl4so1" class="dots">
                              <ellipse cx="4887" cy="1537" rx="36" ry="36" />
                           </g>
                           <g id="sl8cup0" class="stem">
                              <rect x="4779" y="1015" height="584" width="18" />
                           </g>
                        </g>
                        <g id="n1khgpex" class="note">
                           <g class="notehead">
                              <use xlink:href="#E0A4-eg2gc5" x="5293" y="1537" height="720px" width="720px" />
                           </g>
                           <g id="sthk1f6" class="stem">
                              <rect x="5501" y="925" height="584" width="18" />
                           </g>
                        </g>
                     </g>
                  </g>
               </g>
               <g id="b151oihb" class="barLine">
                  <path d="M5665 1087 L5665 1807" stroke="currentColor" stroke-width="27" />
               </g>
            </g>
            <g id="m2err9t" class="measure">
               <g id="se2oc6q" class="staff">
                  <path d="M5678 1087 L7829 1087" stroke="currentColor" stroke-width="13" />
                  <path d="M5678 1267 L7829 1267" stroke="currentColor" stroke-width="13" />
                  <path d="M5678 1447 L7829 1447" stroke="currentColor" stroke-width="13" />
                  <path d="M5678 1627 L7829 1627" stroke="currentColor" stroke-width="13" />
                  <path d="M5678 1807 L7829 1807" stroke="currentColor" stroke-width="13" />
                  <g id="l1upltvh" class="layer">
                     <g id="b1n1sntr" class="beam">
                        <polygon points="5863,2032 6603,1942 6603,1852 5863,1942" />
                        <polygon points="6377,1833 6603,1807 6603,1717 6377,1743" />
                        <g id="ni2u75g" class="note">
                           <g class="notehead">
                              <use xlink:href="#E0A4-eg2gc5" x="5863" y="1447" height="720px" width="720px" />
                           </g>
                           <g id="deks0gq" class="dots">
                              <ellipse cx="6179" cy="1357" rx="36" ry="36" />
                           </g>
                           <g id="sevtmk1" class="stem">
                              <rect x="5863" y="1475" height="539" width="18" />
                           </g>
                        </g>
                        <g id="n1lo20f4" class="note">
                           <g class="notehead">
                              <use xlink:href="#E0A4-eg2gc5" x="6585" y="1357" height="720px" width="720px" />
                           </g>
                           <g id="s6oti1a" class="stem">
                              <rect x="6585" y="1385" height="539" width="18" />
                           </g>
                        </g>
                     </g>
                     <g id="n1tuw0wo" class="note">
                        <g class="notehead">
                           <use xlink:href="#E0A4-eg2gc5" x="6958" y="1267" height="720px" width="720px" />
                        </g>
                        <g id="s1u73jsb" class="stem">
                           <rect x="6958" y="1295" height="602" width="18" />
                        </g>
                     </g>
                  </g>
               </g>
               <g id="bjmc6y9" class="barLine">
                  <path d="M7816 1087 L7816 1807" stroke="currentColor" stroke-width="27" />
               </g>
            </g>
            <g id="m7epjt3" class="measure">
               <g id="s10dwaq9" class="staff">
                  <path d="M7829 1087 L10216 1087" stroke="currentColor" stroke-width="13" />
                  <path d="M7829 1267 L10216 1267" stroke="currentColor" stroke-width="13" />
                  <path d="M7829 1447 L10216 1447" stroke="currentColor" stroke-width="13" />
                  <path d="M7829 1627 L10216 1627" stroke="currentColor" stroke-width="13" />
                  <path d="M7829 1807 L10216 1807" stroke="currentColor" stroke-width="13" />
                  <g id="lgfrrai" class="layer">
                     <g id="b84f1iv" class="beam">
                        <polygon points="8014,1852 8754,1852 8754,1762 8014,1762" />
                        <polygon points="8528,1717 8754,1717 8754,1627 8528,1627" />
                        <g id="n1ubgglj" class="note">
                           <g class="notehead">
                              <use xlink:href="#E0A4-eg2gc5" x="8014" y="1267" height="720px" width="720px" />
                           </g>
                           <g id="du0v7h7" class="dots">
                              <ellipse cx="8330" cy="1177" rx="36" ry="36" />
                           </g>
                           <g id="skab9co" class="stem">
                              <rect x="8014" y="1295" height="539" width="18" />
                           </g>
                        </g>
                        <g id="n1kujuqe" class="note">
                           <g class="notehead">
                              <use xlink:href="#E0A4-eg2gc5" x="8736" y="1267" height="720px" width="720px" />
                           </g>
                           <g id="sby53xt" class="stem">
                              <rect x="8736" y="1295" height="539" width="18" />
                           </g>
                        </g>
                     </g>
                     <g id="b17s720t" class="beam">
                        <polygon points="9109,1897 9849,1987 9849,1897 9109,1807" />
                        <polygon points="9623,1827 9849,1852 9849,1762 9623,1737" />
                        <g id="n3grhwj" class="note">
                           <g class="notehead">
                              <use xlink:href="#E0A4-eg2gc5" x="9109" y="1267" height="720px" width="720px" />
                           </g>
                           <g id="d1xvhz9w" class="dots">
                              <ellipse cx="9425" cy="1177" rx="36" ry="36" />
                           </g>
                           <g id="s1eczooi" class="stem">
                              <rect x="9109" y="1295" height="584" width="18" />
                           </g>
                        </g>
                        <g id="ny23n7y" class="note">
                           <g class="notehead">
                              <use xlink:href="#E0A4-eg2gc5" x="9831" y="1357" height="720px" width="720px" />
                           </g>
                           <g id="sr0ogpc" class="stem">
                              <rect x="9831" y="1385" height="584" width="18" />
                           </g>
                        </g>
                     </g>
                  </g>
               </g>
               <g id="b1ywegzn" class="barLine">
                  <path d="M10203 1087 L10203 1807" stroke="currentColor" stroke-width="27" />
               </g>
            </g>
            <g id="mzydeg5" class="measure">
               <g id="s1vq5uzh" class="staff">
                  <path d="M10216 1087 L13103 1087" stroke="currentColor" stroke-width="13" />
                  <path d="M10216 1267 L13103 1267" stroke="currentColor" stroke-width="13" />
                  <path d="M10216 1447 L13103 1447" stroke="currentColor" stroke-width="13" />
                  <path d="M10216 1627 L13103 1627" stroke="currentColor" stroke-width="13" />
                  <path d="M10216 1807 L13103 1807" stroke="currentColor" stroke-width="13" />
                  <g id="mczvmqn" class="meterSig">
                     <use xlink:href="#E087-eg2gc5" x="10405" y="1267" height="720px" width="720px" />
                     <use xlink:href="#E081-eg2gc5" x="10292" y="1627" height="720px" width="720px" />
                     <use xlink:href="#E086-eg2gc5" x="10533" y="1627" height="720px" width="720px" />
                  </g>
                  <g id="l1p3uhcv" class="layer">
                     <g id="b1yai76p" class="beam">
                        <polygon points="11097,2032 11837,1852 11837,1762 11097,1942" />
                        <polygon points="11611,1769 11837,1717 11837,1627 11611,1679" />
                        <g id="nt5p9bl" class="note">
                           <g class="notehead">
                              <use xlink:href="#E0A4-eg2gc5" x="11097" y="1447" height="720px" width="720px" />
                           </g>
                           <g id="d1jwwggg" class="dots">
                              <ellipse cx="11413" cy="1357" rx="36" ry="36" />
                           </g>
                           <g id="scxrca5" class="stem">
                              <rect x="11097" y="1475" height="539" width="18" />
                           </g>
                        </g>
                        <g id="nomnhmr" class="note">
                           <g class="notehead">
                              <use xlink:href="#E0A4-eg2gc5" x="11819" y="1267" height="720px" width="720px" />
                           </g>
                           <g id="s7ag3re" class="stem">
                              <rect x="11819" y="1295" height="539" width="18" />
                           </g>
                        </g>
                     </g>
                     <g id="n1fbx5no" class="note">
                        <g class="notehead">
                           <use xlink:href="#E0A4-eg2gc5" x="12192" y="1627" height="720px" width="720px" />
                        </g>
                        <g id="dapmum7" class="dots">
                           <ellipse cx="12666" cy="1537" rx="36" ry="36" />
                        </g>
                        <g id="sr6ypwv" class="stem">
                           <rect x="12400" y="997" height="602" width="18" />
                           <g id="f78uooq" class="flag">
                              <use xlink:href="#E240-eg2gc5" x="12400" y="997" height="720px" width="720px" />
                           </g>
                        </g>
                     </g>
                  </g>
               </g>
               <g id="b1y5nh6p" class="barLine">
                  <path d="M12928 1087 L12928 1807" stroke="currentColor" stroke-width="27" />
                  <path d="M13058 1087 L13058 1807" stroke="currentColor" stroke-width="90" />
                  <use xlink:href="#E044-eg2gc5" x="12811" y="1357" height="720px" width="720px" />
                  <use xlink:href="#E044-eg2gc5" x="12811" y="1537" height="720px" width="720px" />
               </g>
            </g>
            <g id="m3f3g31" class="measure">
               <g id="sqfvalk" class="staff">
                  <path d="M13103 1087 L14760 1087" stroke="currentColor" stroke-width="13" />
                  <path d="M13103 1267 L14760 1267" stroke="currentColor" stroke-width="13" />
                  <path d="M13103 1447 L14760 1447" stroke="currentColor" stroke-width="13" />
                  <path d="M13103 1627 L14760 1627" stroke="currentColor" stroke-width="13" />
                  <path d="M13103 1807 L14760 1807" stroke="currentColor" stroke-width="13" />
                  <g id="mj8vnwe" class="meterSig">
                     <use xlink:href="#E081-eg2gc5" x="13331" y="1267" height="720px" width="720px" />
                     <use xlink:href="#E081-eg2gc5" x="13179" y="1627" height="720px" width="720px" />
                     <use xlink:href="#E086-eg2gc5" x="13420" y="1627" height="720px" width="720px" />
                  </g>
                  <g id="lo88dzg" class="layer">
                     <g id="n1jni24f" class="note">
                        <g class="notehead">
                           <use xlink:href="#E0A4-eg2gc5" x="14374" y="1267" height="720px" width="720px" />
                        </g>
                        <g id="sh6zo69" class="stem">
                           <rect x="14374" y="1295" height="602" width="18" />
                           <g id="f12elmyy" class="flag">
                              <use xlink:href="#E243-eg2gc5" x="14374" y="1897" height="720px" width="720px" />
                           </g>
                        </g>
                     </g>
                  </g>
               </g>
               <g id="bs7uqko" class="barLine">
                  <path d="M13934 1087 L13934 1807" stroke="currentColor" stroke-width="90" />
                  <path d="M14064 1087 L14064 1807" stroke="currentColor" stroke-width="27" />
                  <use xlink:href="#E044-eg2gc5" x="14110" y="1357" height="720px" width="720px" />
                  <use xlink:href="#E044-eg2gc5" x="14110" y="1537" height="720px" width="720px" />
               </g>
               <g id="bbxqx5" class="barLine">
                  <path d="M14747 1087 L14747 1807" stroke="currentColor" stroke-width="27" />
               </g>
            </g>
            <g id="mypweac" class="measure">
               <g id="s1qwfqsa" class="staff">
                  <path d="M14760 1087 L17616 1087" stroke="currentColor" stroke-width="13" />
                  <path d="M14760 1267 L17616 1267" stroke="currentColor" stroke-width="13" />
                  <path d="M14760 1447 L17616 1447" stroke="currentColor" stroke-width="13" />
                  <path d="M14760 1627 L17616 1627" stroke="currentColor" stroke-width="13" />
                  <path d="M14760 1807 L17616 1807" stroke="currentColor" stroke-width="13" />
                  <g id="m1m88bd0" class="meterSig">
                     <use xlink:href="#E082-eg2gc5" x="14836" y="1267" height="720px" width="720px" />
                     <use xlink:href="#E084-eg2gc5" x="14841" y="1627" height="720px" width="720px" />
                  </g>
                  <g id="lfsdn6j" class="layer">
                     <g id="b36hspb" class="beam">
                        <polygon points="15414,1897 16154,1807 16154,1717 15414,1807" />
                        <polygon points="15928,1698 16154,1672 16154,1582 15928,1608" />
                        <g id="n19iov27" class="note">
                           <g class="notehead">
                              <use xlink:href="#E0A4-eg2gc5" x="15414" y="1267" height="720px" width="720px" />
                           </g>
                           <g id="dgfrzsc" class="dots">
                              <ellipse cx="15730" cy="1177" rx="36" ry="36" />
                           </g>
                           <g id="s1maed7m" class="stem">
                              <rect x="15414" y="1295" height="584" width="18" />
                           </g>
                        </g>
                        <g id="n9tosm0" class="note">
                           <g class="notehead">
                              <use xlink:href="#E0A4-eg2gc5" x="16136" y="1177" height="720px" width="720px" />
                           </g>
                           <g id="s1of4hvk" class="stem">
                              <rect x="16136" y="1205" height="584" width="18" />
                           </g>
                        </g>
                     </g>
                     <g id="b145oxdm" class="beam">
                        <polygon points="16509,1897 17249,1987 17249,1897 16509,1807" />
                        <polygon points="17023,1827 17249,1852 17249,1762 17023,1737" />
                        <g id="n13lliui" class="note">
                           <g class="notehead">
                              <use xlink:href="#E0A4-eg2gc5" x="16509" y="1267" height="720px" width="720px" />
                           </g>
                           <g id="djoxw78" class="dots">
                              <ellipse cx="16825" cy="1177" rx="36" ry="36" />
                           </g>
                           <g id="sgt8jb6" class="stem">
                              <rect x="16509" y="1295" height="584" width="18" />
                           </g>
                        </g>
                        <g id="n1tpwe9p" class="note">
                           <g class="notehead">
                              <use xlink:href="#E0A4-eg2gc5" x="17231" y="1357" height="720px" width="720px" />
                           </g>
                           <g id="s1b1vimr" class="stem">
                              <rect x="17231" y="1385" height="584" width="18" />
                           </g>
                        </g>
                     </g>
                  </g>
               </g>
               <g id="bmf09r6" class="barLine">
                  <path d="M17603 1087 L17603 1807" stroke="currentColor" stroke-width="27" />
               </g>
            </g>
            <g id="mcsmzv0" class="measure">
               <g id="s1sv6fyu" class="staff">
                  <path d="M17616 1087 L20003 1087" stroke="currentColor" stroke-width="13" />
                  <path d="M17616 1267 L20003 1267" stroke="currentColor" stroke-width="13" />
                  <path d="M17616 1447 L20003 1447" stroke="currentColor" stroke-width="13" />
                  <path d="M17616 1627 L20003 1627" stroke="currentColor" stroke-width="13" />
                  <path d="M17616 1807 L20003 1807" stroke="currentColor" stroke-width="13" />
                  <g id="lhuqwh1" class="layer">
                     <g id="bfnzl0f" class="beam">
                        <polygon points="17801,2032 18541,1852 18541,1762 17801,1942" />
                        <polygon points="18315,1769 18541,1717 18541,1627 18315,1679" />
                        <g id="nm2f706" class="note">
                           <g class="notehead">
                              <use xlink:href="#E0A4-eg2gc5" x="17801" y="1447" height="720px" width="720px" />
                           </g>
                           <g id="d13mk1r" class="dots">
                              <ellipse cx="18117" cy="1357" rx="36" ry="36" />
                           </g>
                           <g id="s1k6p11y" class="stem">
                              <rect x="17801" y="1475" height="539" width="18" />
                           </g>
                        </g>
                        <g id="n1d3nafb" class="note">
                           <g class="notehead">
                              <use xlink:href="#E0A4-eg2gc5" x="18523" y="1267" height="720px" width="720px" />
                           </g>
                           <g id="s96bbzr" class="stem">
                              <rect x="18523" y="1295" height="539" width="18" />
                           </g>
                        </g>
                     </g>
                     <g id="bbjmvix" class="beam">
                        <polygon points="18896,2167 19636,1987 19636,1897 18896,2077" />
                        <polygon points="19410,1904 19636,1852 19636,1762 19410,1814" />
                        <g id="njeomxo" class="note">
                           <g class="notehead">
                              <use xlink:href="#E0A4-eg2gc5" x="18896" y="1627" height="720px" width="720px" />
                           </g>
                           <g id="d15me1hj" class="dots">
                              <ellipse cx="19212" cy="1537" rx="36" ry="36" />
                           </g>
                           <g id="skhvuks" class="stem">
                              <rect x="18896" y="1655" height="494" width="18" />
                           </g>
                        </g>
                        <g id="nv6gx2x" class="note">
                           <g class="notehead">
                              <use xlink:href="#E0A4-eg2gc5" x="19618" y="1267" height="720px" width="720px" />
                           </g>
                           <g id="s1lyqls8" class="stem">
                              <rect x="19618" y="1295" height="674" width="18" />
                           </g>
                        </g>
                     </g>
                  </g>
               </g>
               <g id="b1ejmglm" class="barLine">
                  <path d="M19990 1087 L19990 1807" stroke="currentColor" stroke-width="27" />
               </g>
            </g>
            <g id="s1bu6sy6" class="sb" />
         </g>
         <g id="sn6jqyq" class="system">
            <g id="l170c90g" class="labelAbbr">
               <text x="914" y="3802" text-anchor="end" font-size="0px">
                  <tspan id="tixim2x" class="text">
                     <tspan font-size="405px" class="text">Pno.</tspan>
                  </tspan>
               </text>
            </g>
            <g id="m1vsiylf" class="measure">
               <g id="mglsha6" class="mNum autogenerated">
                  <text x="1094" y="3109" text-anchor="middle" font-size="0px">
                     <tspan id="tzemppm" class="text">
                        <tspan font-size="324px" class="text">8</tspan>
                     </tspan>
                  </text>
               </g>
               <g id="srata1z" class="staff">
                  <path d="M1094 3352 L4385 3352" stroke="currentColor" stroke-width="13" />
                  <path d="M1094 3532 L4385 3532" stroke="currentColor" stroke-width="13" />
                  <path d="M1094 3712 L4385 3712" stroke="currentColor" stroke-width="13" />
                  <path d="M1094 3892 L4385 3892" stroke="currentColor" stroke-width="13" />
                  <path d="M1094 4072 L4385 4072" stroke="currentColor" stroke-width="13" />
                  <g id="c1yf11py" class="clef">
                     <use xlink:href="#E050-eg2gc5" x="1184" y="3892" height="720px" width="720px" />
                  </g>
                  <g id="k10w437h" class="keySig">
                     <g id="k1ovgg9i" class="keyAccid">
                        <use xlink:href="#E262-eg2gc5" x="1829" y="3352" height="720px" width="720px" />
                     </g>
                  </g>
                  <g id="l1ks4pik" class="layer">
                     <g id="b1yunqgp" class="beam">
                        <polygon points="2240,4162 2961,4072 2961,3982 2240,4072" />
                        <polygon points="2735,3964 2961,3937 2961,3847 2735,3874" />
                        <g id="n1dfg9sy" class="note">
                           <g class="notehead">
                              <use xlink:href="#E0A4-eg2gc5" x="2240" y="3532" height="720px" width="720px" />
                           </g>
                           <g id="doko4wu" class="dots">
                              <ellipse cx="2556" cy="3442" rx="36" ry="36" />
                           </g>
                           <g id="s1q0qpg2" class="stem">
                              <rect x="2240" y="3560" height="584" width="18" />
                           </g>
                        </g>
                        <g id="njlof1g" class="note">
                           <g class="notehead">
                              <use xlink:href="#E0A4-eg2gc5" x="2943" y="3442" height="720px" width="720px" />
                           </g>
                           <g id="s1igc89o" class="stem">
                              <rect x="2943" y="3470" height="584" width="18" />
                           </g>
                        </g>
                     </g>
                     <g id="b15ci6p7" class="beam">
                        <polygon points="3306,4162 4027,4252 4027,4162 3306,4072" />
                        <polygon points="3801,4091 4027,4117 4027,4027 3801,4001" />
                        <g id="n1k81osv" class="note">
                           <g class="notehead">
                              <use xlink:href="#E0A4-eg2gc5" x="3306" y="3532" height="720px" width="720px" />
                           </g>
                           <g id="d14t6r0" class="dots">
                              <ellipse cx="3622" cy="3442" rx="36" ry="36" />
                           </g>
                           <g id="s12yx3tk" class="stem">
                              <rect x="3306" y="3560" height="584" width="18" />
                           </g>
                        </g>
                        <g id="nki5ny0" class="note">
                           <g class="notehead">
                              <use xlink:href="#E0A4-eg2gc5" x="4009" y="3622" height="720px" width="720px" />
                           </g>
                           <g id="su6zkmx" class="stem">
                              <rect x="4009" y="3650" height="584" width="18" />
                           </g>
                        </g>
                     </g>
                  </g>
               </g>
               <g id="bh96a1w" class="barLine">
                  <path d="M4372 3352 L4372 4072" stroke="currentColor" stroke-width="27" />
               </g>
            </g>
            <g id="myqowtk" class="measure">
               <g id="s1038b9h" class="staff">
                  <path d="M4385 3352 L7205 3352" stroke="currentColor" stroke-width="13" />
                  <path d="M4385 3532 L7205 3532" stroke="currentColor" stroke-width="13" />
                  <path d="M4385 3712 L7205 3712" stroke="currentColor" stroke-width="13" />
                  <path d="M4385 3892 L7205 3892" stroke="currentColor" stroke-width="13" />
                  <path d="M4385 4072 L7205 4072" stroke="currentColor" stroke-width="13" />
                  <g id="m19bqwyo" class="meterSig">
                     <use xlink:href="#E087-eg2gc5" x="4574" y="3532" height="720px" width="720px" />
                     <use xlink:href="#E081-eg2gc5" x="4461" y="3892" height="720px" width="720px" />
                     <use xlink:href="#E086-eg2gc5" x="4702" y="3892" height="720px" width="720px" />
                  </g>
                  <g id="l136hn2b" class="layer">
                     <g id="b1e58wms" class="beam">
                        <polygon points="5261,4297 5982,4117 5982,4027 5261,4207" />
                        <polygon points="5756,4036 5982,3982 5982,3892 5756,3946" />
                        <g id="n1ko2znu" class="note">
                           <g class="notehead">
                              <use xlink:href="#E0A4-eg2gc5" x="5261" y="3712" height="720px" width="720px" />
                           </g>
                           <g id="d1lzze4p" class="dots">
                              <ellipse cx="5577" cy="3622" rx="36" ry="36" />
                           </g>
                           <g id="s1bj6jgb" class="stem">
                              <rect x="5261" y="3740" height="539" width="18" />
                           </g>
                        </g>
                        <g id="n1dgriog" class="note">
                           <g class="notehead">
                              <use xlink:href="#E0A4-eg2gc5" x="5964" y="3532" height="720px" width="720px" />
                           </g>
                           <g id="s122u6xk" class="stem">
                              <rect x="5964" y="3560" height="539" width="18" />
                           </g>
                        </g>
                     </g>
                     <g id="n1pdo6b7" class="note">
                        <g class="notehead">
                           <use xlink:href="#E0A4-eg2gc5" x="6327" y="3892" height="720px" width="720px" />
                        </g>
                        <g id="d1yii6z6" class="dots">
                           <ellipse cx="6801" cy="3802" rx="36" ry="36" />
                        </g>
                        <g id="s1633vae" class="stem">
                           <rect x="6535" y="3262" height="602" width="18" />
                           <g id="f1pqckth" class="flag">
                              <use xlink:href="#E240-eg2gc5" x="6535" y="3262" height="720px" width="720px" />
                           </g>
                        </g>
                     </g>
                  </g>
               </g>
               <g id="b1p7c27w" class="barLine">
                  <path d="M7030 3352 L7030 4072" stroke="currentColor" stroke-width="27" />
                  <path d="M7160 3352 L7160 4072" stroke="currentColor" stroke-width="90" />
               </g>
            </g>
            <g id="s5yrjwo" class="systemMilestoneEnd s1jnxhb6" />
         </g>
         <g id="p1jt54na" class="pageMilestoneEnd s1u4pwtz" />
         <g id="pmc4lne" class="pageMilestoneEnd m15ids8b" />
         <g id="pzfr0tk" class="pgHead">
            <text x="0" y="0" font-size="0px">
               <tspan id="rzp9kms" class="rend" x="10000" y="279" text-anchor="middle">
                  <tspan id="t18qgszc" class="text">
                     <tspan font-size="405px" class="text">Air n 45</tspan>
                  </tspan>
               </tspan>
            </text>
         </g>
         <g id="ppwvbt9" class="pgFoot autogenerated">
            <g id="fm04kf" class="fig">
               <g id="s12gp8dl" class="svg" transform="translate(7750, 28099) scale(10, 10)">
                  <g>
                     <path fill="#00000" d="M 17.11278,49.26451 V 10.367554 h 12.696511 c 3.288815,7.336676 6.71267,14.610456 10.127281,21.888976 3.419998,-7.484684 6.255515,-14.204887 9.58887,-21.909915 2.436207,0.103726 4.316952,0.08453 6.484294,-0.05808 V 49.264423 H 50.274275 C 50.145222,38.35639 50.016136,27.448368 49.887066,16.540329 45.003488,27.315459 39.967448,38.433564 35.083854,49.208695 34.678996,49.343717 34.426583,49.135619 34.021726,49.270644 29.46588,39.330716 24.910049,29.390805 20.354201,19.450876 20.224341,29.388756 20.09461,39.326619 19.964815,49.264497 H 17.11278 Z M 36.754144,39.324695 C 32.721221,30.512695 28.6883,21.700679 24.655394,12.888662 22.530527,12.750737 22.656775,12.71031 20.714356,12.813974 v 0.966497 c 4.612938,9.99784 9.609439,20.748709 13.87298,30.081745 0.722248,-1.512523 1.444528,-3.025014 2.166808,-4.537521 z m 25.738417,9.939815 c 0,-12.965651 0,-25.931305 0,-38.896956 10.084388,0 20.168791,0 30.253178,0 0,0.960416 0,1.920849 0,2.881265 -6.482825,0 -12.965652,0 -19.448478,0 0,4.802097 0,9.604178 0,14.406277 5.52241,0 11.044819,0 16.567229,0 0,0.960415 0,1.920832 0,2.881248 -5.52241,0 -11.044819,0 -16.567229,0 0,5.282306 0,10.564611 0,15.846917 6.963035,0 13.926068,0 20.889103,0 0,0.960416 0,1.920832 0,2.881249 -10.564597,0 -21.129207,0 -31.693803,0 z m 4.321874,-2.160937 c 0,-11.765131 0,-23.530263 0,-35.295394 -0.720312,0 -1.440625,0 -2.160937,0 0,11.765131 0,23.530263 0,35.295394 0.720312,0 1.440625,0 2.160937,0 z m 32.41413,2.160937 c 0,-12.965651 0,-25.931305 0,-38.896956 2.401045,0 4.802095,0 7.203135,0 0,12.965651 0,25.931305 0,38.896956 -2.40104,0 -4.80209,0 -7.203135,0 z m 2.881265,-2.160937 c 0,-11.765131 0,-23.530263 0,-35.295394 -0.72031,0 -1.44064,0 -2.160953,0 0,11.765131 0,23.530263 0,35.295394 0.720313,0 1.440643,0 2.160953,0 z" />
                     <path fill="#00000" d="m 346.3,6.7 c -3.1,0.5 -4.9,4.4 -2.7,6.8 1.2,1.4 2.7,2.4 4.1,3.5 -2.4,5.3 -7.7,8.3 -11.9,12.1 -3.7,2.8 -7,6.2 -9.7,9.9 -2.2,-0.8 -0.3,-6.8 -0.6,-9.5 0.1,-3.1 0.7,-6.4 2.9,-8.7 1.3,-1.9 3,-3.5 4.5,-5.2 1.2,-3.4 -3.2,-4.9 -5.8,-4.6 -7.3,-0.5 -14.6,2 -20,6.8 -5,4.6 -10,10.1 -11.5,17 -0.9,3.5 -0.2,7.5 2.8,9.9 2.5,2.8 7.4,2.9 9.8,-0.2 1.7,-2.3 3.2,-4.8 3.8,-7.6 -0.1,-2.6 -4.4,-2.3 -4.3,0.2 1.2,2.4 -0.9,4.7 -2.7,6.2 -1.7,0.9 -4.7,0.7 -4.8,-1.7 -1,-5.8 2.1,-11.3 5.2,-16.1 4,-5.8 9.8,-11.2 17.2,-11.8 1.6,0 8.1,-1.2 6.8,1.4 -2.8,2.8 -5.6,6.1 -6,10.3 -1.6,7.7 0.1,15.7 -2.3,23.2 -1.1,3.9 2,2.6 2.5,0.2 3.3,-7.4 8.9,-13.4 15.1,-18.5 4.2,-3.9 9.5,-7.1 11.9,-12.6 1.3,-3.6 1.2,-9 -2.7,-10.9 -0.6,-0.2 -1.2,-0.3 -1.8,-0.3 z m 66,14.5 c -2,0.8 -1.8,4.9 0.8,4.4 3.4,0.4 2.9,-6.2 -0.8,-4.4 z m 0.6,7.3 c -1.3,0.5 -7.6,0.5 -5.4,2.2 4,-0.3 0.7,4.5 0.6,6.7 -0.4,2.9 -2.4,5.9 -1.2,8.8 2.7,1.7 5.6,-0.8 6.8,-3.2 1.6,-1.4 -0.5,-3 -1.2,-0.9 -0.4,0.8 -2.4,3.5 -2.6,1.8 1.1,-5 2.7,-9.9 3.9,-14.9 l -0.1,-0.5 h -0.9 z m -65.1,0.2 c -6.5,1.6 -10.5,9.5 -8.2,15.7 2.1,3.4 7.4,2.9 10.1,0.4 2,-0.2 3.6,-5.3 1,-3.4 -1.4,2 -4,4.2 -6.5,2.8 -2.2,-1.9 -1.9,-5.7 1.7,-5.3 3.1,-0.9 6.9,-2.1 8.1,-5.5 0.9,-2.7 -1.6,-5.2 -4.3,-4.8 h -1.1 -0.7 z m 13.6,0 c -2.2,0 -8.5,1.8 -2.9,2.3 0.9,1.9 -1,4.9 -1.1,7.2 -0.5,2.9 -1.4,5.7 -1.7,8.7 3.7,0.7 3.8,-2.6 4.4,-5.3 0.9,-3.3 1.6,-7 4.1,-9.5 2.4,1.6 6.8,-0.7 3.7,-3.4 -2.9,-0.5 -4.8,2.4 -6.2,4.3 0,-1.2 2.4,-5 -0.2,-4.3 z m 15.8,0 c -6.4,1.3 -9.6,9.1 -7.7,14.9 1.9,4 7.7,3.9 11,1.7 4.1,-3 6,-8.9 4.4,-13.7 -1.3,-3 -4.8,-3.2 -7.6,-3 z m 17,0 c -2.3,0 -8.8,1.9 -3,2.4 0.4,2.5 -1,5.7 -1.4,8.4 -0.7,2.4 -1.8,7.5 2.1,7.2 3.8,-0.1 6.5,-3.5 8.5,-6.3 2,-3.2 4.5,-7 3.3,-10.9 -3.7,-3 -3.6,2.6 -3.1,5.1 -0.7,3.8 -2.7,7.9 -6.2,9.8 -3.6,0.6 -1,-4.3 -0.8,-6.1 0.6,-3.2 1.6,-6.3 1.9,-9.5 -0.4,0 -0.8,0 -1.1,0 z m 30.6,0 c -6.3,1.2 -9.5,8.9 -7.8,14.7 1.5,4 7.2,4.2 10.5,2.4 4.6,-2.8 6.6,-9.3 4.8,-14.3 -1.4,-2.8 -4.8,-3 -7.5,-2.8 z m -75.4,1.7 c 2.1,1.5 0.2,4.7 -1.6,5.7 -1.1,0.4 -5.5,3.4 -4.6,0.7 0.8,-2.7 2.2,-6.2 5.3,-6.6 l 0.9,0.1 z m 30.8,0 c 2.6,1.5 1.3,5.2 0.8,7.6 -0.8,2.7 -1.9,5.9 -4.7,7.1 -5.1,0.8 -4,-5.8 -2.8,-8.8 1,-2.8 3,-6.8 6.7,-5.8 z m 47.1,-0.1 c 2.9,0.7 2,4.7 1.5,6.8 -0.7,3 -1.8,6.7 -5,8 -4.7,0.8 -4,-5.1 -3,-7.9 0.9,-3 2.7,-7.3 6.5,-6.8 z m -88.1,5.9 c -0.3,1.3 0.9,-0.6 0,0 z m -1.1,2.4 c -0.2,0.5 0.5,-0.1 0,0 z m -1.3,4.5 c -0.3,1.3 0.8,-0.2 0,0 z" />
                     <text y="41" x="201" fill="#00000" style="font-style:italic;font-weight:normal;font-size:30px;line-height:125%;font-family:Times;text-anchor:middle" xml:space="preserve">engraved with</text>
                  </g>
               </g>
            </g>
         </g>
      </g>
   </svg>
</svg>
