<?xml version="1.0" encoding="UTF-8" standalone="no"?>
<svg width="2100px" height="2970px" version="1.1" xmlns="http://www.w3.org/2000/svg" xmlns:xlink="http://www.w3.org/1999/xlink" xmlns:mei="http://www.music-encoding.org/ns/mei" overflow="visible">
   <desc>Engraved by Verovio 3.13.1</desc>
   <defs>
      <symbol id="E044-1tckipa" viewBox="0 0 1000 1000" overflow="inherit">
         <path transform="scale(1,-1)" d="M0 0c0 28 22 50 50 50s50 -22 50 -50s-22 -50 -50 -50s-50 22 -50 50z" />
      </symbol>
      <symbol id="E050-1tckipa" viewBox="0 0 1000 1000" overflow="inherit">
         <path transform="scale(1,-1)" d="M441 -245c-23 -4 -48 -6 -76 -6c-59 0 -102 7 -130 20c-88 42 -150 93 -187 154c-26 44 -43 103 -48 176c0 6 -1 13 -1 19c0 54 15 111 45 170c29 57 65 106 110 148s96 85 153 127c-3 16 -8 46 -13 92c-4 43 -5 73 -5 89c0 117 16 172 69 257c34 54 64 82 89 82 c21 0 43 -30 69 -92s39 -115 41 -159v-15c0 -109 -21 -162 -67 -241c-13 -20 -63 -90 -98 -118c-13 -9 -25 -19 -37 -29l31 -181c8 1 18 2 28 2c58 0 102 -12 133 -35c59 -43 92 -104 98 -184c1 -7 1 -15 1 -22c0 -123 -87 -209 -181 -248c8 -57 17 -110 25 -162 c5 -31 6 -58 6 -80c0 -30 -5 -53 -14 -70c-35 -64 -88 -99 -158 -103c-5 0 -11 -1 -16 -1c-37 0 -72 10 -108 27c-50 24 -77 59 -80 105v11c0 29 7 55 20 76c18 28 45 42 79 44h6c49 0 93 -42 97 -87v-9c0 -51 -34 -86 -105 -106c17 -24 51 -36 102 -36c62 0 116 43 140 85 c9 16 13 41 13 74c0 20 -1 42 -5 67c-8 53 -18 106 -26 159zM461 939c-95 0 -135 -175 -135 -286c0 -24 2 -48 5 -71c50 39 92 82 127 128c40 53 60 100 60 140v8c-4 53 -22 81 -55 81h-2zM406 119l54 -326c73 25 110 78 110 161c0 7 0 15 -1 23c-7 95 -57 142 -151 142h-12 zM382 117c-72 -2 -128 -47 -128 -120v-7c2 -46 43 -99 75 -115c-3 -2 -7 -5 -10 -10c-70 33 -116 88 -123 172v11c0 68 44 126 88 159c23 17 49 29 78 36l-29 170c-21 -13 -52 -37 -92 -73c-50 -44 -86 -84 -109 -119c-45 -69 -67 -130 -67 -182v-13c5 -68 35 -127 93 -176 s125 -73 203 -73c25 0 50 3 75 9c-19 111 -36 221 -54 331z" />
      </symbol>
      <symbol id="E083-1tckipa" viewBox="0 0 1000 1000" overflow="inherit">
         <path transform="scale(1,-1)" d="M208 250c97 0 177 -52 177 -116c0 -69 -40 -111 -118 -125c56 -5 125 -44 125 -116c0 -31 -10 -57 -31 -78c-19 -21 -45 -38 -78 -49l-50 -11c-15 -3 -36 -7 -55 -7c-50 0 -86 16 -113 38c-16 10 -23 18 -34 34c-7 13 -11 25 -11 38c0 43 27 83 68 83l3 -2 c61 0 75 -42 75 -70c0 -19 -24 -42 -26 -57c7 -17 20 -25 37 -25c44 0 94 29 94 78c0 75 -34 125 -138 125v36c84 0 131 22 131 98c0 54 -37 88 -87 88c-26 0 -43 -7 -51 -22c15 -22 44 -16 44 -70c0 -37 -37 -62 -71 -62c-22 0 -69 15 -69 76c0 79 101 116 178 116z" />
      </symbol>
      <symbol id="E086-1tckipa" viewBox="0 0 1000 1000" overflow="inherit">
         <path transform="scale(1,-1)" d="M284 -91c0 37 -28 92 -67 92c-35 0 -65 -54 -65 -111c0 -52 22 -104 68 -104c47 0 64 68 64 123zM230 214c-36 0 -90 -33 -90 -184l2 -36c40 24 81 36 120 36c80 0 140 -48 140 -121c0 -99 -99 -159 -182 -159c-160 0 -200 173 -200 244c0 21 2 43 7 71l10 35 c26 85 73 115 98 126c41 19 74 24 103 24c93 0 142 -63 142 -105c0 -58 -52 -72 -73 -72c-33 0 -59 24 -65 35c-3 5 -6 14 -7 25l11 30c6 15 9 27 9 35c0 11 -9 16 -25 16z" />
      </symbol>
      <symbol id="E088-1tckipa" viewBox="0 0 1000 1000" overflow="inherit">
         <path transform="scale(1,-1)" d="M195 -214c76 0 88 58 90 68c0 34 -35 60 -57 73l-52 29c-21 10 -32 17 -34 20c-39 -33 -58 -54 -62 -92c5 -23 23 -98 115 -98zM301 135c0 61 -72 76 -113 76c-40 0 -77 -17 -77 -51c3 -21 15 -38 26 -50c17 -15 33 -26 48 -34l65 -28c34 27 51 56 51 87zM176 -250 c-57 0 -166 26 -166 132c0 47 30 86 89 116c-33 15 -79 60 -79 119c0 79 85 132 178 132h18c5 0 21 1 28 -1c25 0 126 -30 126 -110c0 -37 -23 -76 -69 -116c43 -25 83 -71 83 -119c0 -101 -118 -153 -208 -153z" />
      </symbol>
      <symbol id="E0A4-1tckipa" viewBox="0 0 1000 1000" overflow="inherit">
         <path transform="scale(1,-1)" d="M0 -39c0 68 73 172 200 172c66 0 114 -37 114 -95c0 -84 -106 -171 -218 -171c-64 0 -96 30 -96 94z" />
      </symbol>
      <symbol id="E240-1tckipa" viewBox="0 0 1000 1000" overflow="inherit">
         <path transform="scale(1,-1)" d="M179 -646c15 29 29 55 46 102c18 49 30 108 30 138c0 105 -80 173 -168 200c-18 5 -47 9 -87 16v190h22c8 0 33 -61 71 -95c4 -3 -2 3 61 -56c62 -58 122 -137 122 -241c0 -38 -13 -106 -35 -163c-20 -51 -43 -99 -66 -132c-6 -5 -10 -7 -13 -7s-5 2 -5 5l4 10 c1 3 14 25 18 33z" />
      </symbol>
      <symbol id="E260-1tckipa" viewBox="0 0 1000 1000" overflow="inherit">
         <path transform="scale(1,-1)" d="M20 110c32 16 54 27 93 27c26 0 35 -3 54 -13c13 -7 24 -20 27 -38l4 -25c0 -28 -16 -57 -45 -89c-23 -25 -39 -44 -65 -68l-88 -79v644h20v-359zM90 106c-32 0 -48 -10 -70 -29v-194c31 31 54 59 71 84c21 32 32 59 32 84c0 9 1 16 1 20c0 14 -3 21 -11 30l-8 3z" />
      </symbol>
   </defs>
   <style type="text/css">g.page-margin{font-family:Times;} g.ending, g.fing, g.reh, g.tempo{font-weight:bold;} g.dir, g.dynam, g.mNum{font-style:italic;} g.label{font-weight:normal;}</style>
   <svg class="definition-scale" color="black" viewBox="0 0 21000 29700">
      <g class="page-margin" transform="translate(500, 500)">
         <g id="m17l0io4" class="mdiv pageMilestone" />
         <g id="s1qop8ke" class="score pageMilestone" />
         <g id="s1dqq0k" class="system">
            <g id="lqcnsz3" class="label">
               <text x="1105" y="1535" text-anchor="end" font-size="0px">
                  <tspan id="t19ppljo" class="text">
                     <tspan font-size="405px" class="text">Piano</tspan>
                  </tspan>
               </text>
            </g>
            <g id="sydyytt" class="section systemMilestone" />
            <g id="peoc60i" class="pb" />
            <g id="m1azr2zb" class="measure">
               <g id="m1e50ljg" class="mNum">
                  <text x="1285" y="842" text-anchor="middle" font-size="0px" />
               </g>
               <g id="sjunio8" class="staff">
                  <path d="M1285 1085 L4805 1085" stroke="currentColor" stroke-width="13" />
                  <path d="M1285 1265 L4805 1265" stroke="currentColor" stroke-width="13" />
                  <path d="M1285 1445 L4805 1445" stroke="currentColor" stroke-width="13" />
                  <path d="M1285 1625 L4805 1625" stroke="currentColor" stroke-width="13" />
                  <path d="M1285 1805 L4805 1805" stroke="currentColor" stroke-width="13" />
                  <g id="c16rj4tn" class="clef">
                     <use xlink:href="#E050-1tckipa" x="1375" y="1625" height="720px" width="720px" />
                  </g>
                  <g id="k1l7nsb9" class="keySig">
                     <g id="k1rlonzc" class="keyAccid">
                        <use xlink:href="#E260-1tckipa" x="2020" y="1445" height="720px" width="720px" />
                     </g>
                  </g>
                  <g id="mdq17ow" class="meterSig">
                     <use xlink:href="#E086-1tckipa" x="2328" y="1265" height="720px" width="720px" />
                     <use xlink:href="#E088-1tckipa" x="2335" y="1625" height="720px" width="720px" />
                  </g>
                  <g id="l1427tib" class="layer">
                     <g id="b1cwffw" class="beam">
                        <polygon points="2884,2075 4174,1895 4174,1805 2884,1985" />
                        <g id="nmt76ld" class="note">
                           <g class="notehead">
                              <use xlink:href="#E0A4-1tckipa" x="2884" y="1535" height="720px" width="720px" />
                           </g>
                           <g id="s1fp569i" class="stem">
                              <rect x="2884" y="1563" height="494" width="18" />
                           </g>
                        </g>
                        <g id="n5ozvra" class="note">
                           <g class="notehead">
                              <use xlink:href="#E0A4-1tckipa" x="3520" y="1445" height="720px" width="720px" />
                           </g>
                           <g id="s1er2c7a" class="stem">
                              <rect x="3520" y="1473" height="494" width="18" />
                           </g>
                           <g id="a11af9l1" class="accid" />
                        </g>
                        <g id="n1keyx0r" class="note">
                           <g class="notehead">
                              <use xlink:href="#E0A4-1tckipa" x="4156" y="1355" height="720px" width="720px" />
                           </g>
                           <g id="sa7nj6k" class="stem">
                              <rect x="4156" y="1383" height="494" width="18" />
                           </g>
                        </g>
                     </g>
                  </g>
               </g>
               <g id="b1x2q38c" class="barLine">
                  <path d="M4792 1085 L4792 1805" stroke="currentColor" stroke-width="27" />
               </g>
            </g>
            <g id="mek8cj9" class="measure">
               <g id="s4lzy7t" class="staff">
                  <path d="M4805 1085 L8147 1085" stroke="currentColor" stroke-width="13" />
                  <path d="M4805 1265 L8147 1265" stroke="currentColor" stroke-width="13" />
                  <path d="M4805 1445 L8147 1445" stroke="currentColor" stroke-width="13" />
                  <path d="M4805 1625 L8147 1625" stroke="currentColor" stroke-width="13" />
                  <path d="M4805 1805 L8147 1805" stroke="currentColor" stroke-width="13" />
                  <g id="ldbe4nt" class="layer">
                     <g id="no5tpe0" class="note">
                        <g class="notehead">
                           <use xlink:href="#E0A4-1tckipa" x="4982" y="1265" height="720px" width="720px" />
                        </g>
                        <g id="d4w7k5p" class="dots">
                           <ellipse cx="5298" cy="1175" rx="36" ry="36" />
                        </g>
                        <g id="s1p0r6x2" class="stem">
                           <rect x="4982" y="1293" height="602" width="18" />
                        </g>
                     </g>
                     <g id="bfcp897" class="beam">
                        <polygon points="6227,1985 7516,1985 7516,1895 6227,1895" />
                        <g id="n1edwcdj" class="note">
                           <g class="notehead">
                              <use xlink:href="#E0A4-1tckipa" x="6227" y="1355" height="720px" width="720px" />
                           </g>
                           <g id="s1l72tyc" class="stem">
                              <rect x="6227" y="1383" height="584" width="18" />
                           </g>
                        </g>
                        <g id="n1q4vaq6" class="note">
                           <g class="notehead">
                              <use xlink:href="#E0A4-1tckipa" x="6863" y="1265" height="720px" width="720px" />
                           </g>
                           <g id="s1cfwinu" class="stem">
                              <rect x="6863" y="1293" height="674" width="18" />
                           </g>
                        </g>
                        <g id="n7t5ju" class="note">
                           <g class="notehead">
                              <use xlink:href="#E0A4-1tckipa" x="7498" y="1355" height="720px" width="720px" />
                           </g>
                           <g id="s1eco25z" class="stem">
                              <rect x="7498" y="1383" height="584" width="18" />
                           </g>
                        </g>
                     </g>
                  </g>
               </g>
               <g id="b180f9rg" class="barLine">
                  <path d="M8134 1085 L8134 1805" stroke="currentColor" stroke-width="27" />
               </g>
            </g>
            <g id="mhrfiry" class="measure">
               <g id="srv160o" class="staff">
                  <path d="M8147 1085 L12153 1085" stroke="currentColor" stroke-width="13" />
                  <path d="M8147 1265 L12153 1265" stroke="currentColor" stroke-width="13" />
                  <path d="M8147 1445 L12153 1445" stroke="currentColor" stroke-width="13" />
                  <path d="M8147 1625 L12153 1625" stroke="currentColor" stroke-width="13" />
                  <path d="M8147 1805 L12153 1805" stroke="currentColor" stroke-width="13" />
                  <g id="l1qaijuc" class="layer">
                     <g id="b1v601jb" class="beam">
                        <polygon points="8532,860 9822,1040 9822,1130 8532,950" />
                        <g id="ndxusu3" class="note">
                           <g class="notehead">
                              <use xlink:href="#E0A4-1tckipa" x="8324" y="1445" height="720px" width="720px" />
                           </g>
                           <g id="s1lneutk" class="stem">
                              <rect x="8532" y="878" height="539" width="18" />
                           </g>
                           <g id="a1qy9rjx" class="accid" />
                        </g>
                        <g id="npiycv9" class="note">
                           <g class="notehead">
                              <use xlink:href="#E0A4-1tckipa" x="8960" y="1535" height="720px" width="720px" />
                           </g>
                           <g id="s69bcgs" class="stem">
                              <rect x="9168" y="968" height="539" width="18" />
                           </g>
                        </g>
                        <g id="n15mk9r1" class="note">
                           <g class="notehead">
                              <use xlink:href="#E0A4-1tckipa" x="9596" y="1625" height="720px" width="720px" />
                           </g>
                           <g id="ssbcidf" class="stem">
                              <rect x="9804" y="1058" height="539" width="18" />
                           </g>
                        </g>
                     </g>
                     <g id="bbhhysd" class="beam">
                        <polygon points="10232,2075 11522,1895 11522,1805 10232,1985" />
                        <g id="nw7atua" class="note">
                           <g class="notehead">
                              <use xlink:href="#E0A4-1tckipa" x="10232" y="1535" height="720px" width="720px" />
                           </g>
                           <g id="svjdl81" class="stem">
                              <rect x="10232" y="1563" height="494" width="18" />
                           </g>
                        </g>
                        <g id="nnugw1o" class="note">
                           <g class="notehead">
                              <use xlink:href="#E0A4-1tckipa" x="10868" y="1445" height="720px" width="720px" />
                           </g>
                           <g id="s7a2as1" class="stem">
                              <rect x="10868" y="1473" height="494" width="18" />
                           </g>
                           <g id="a1m262v9" class="accid" />
                        </g>
                        <g id="n1iwpd99" class="note">
                           <g class="notehead">
                              <use xlink:href="#E0A4-1tckipa" x="11504" y="1355" height="720px" width="720px" />
                           </g>
                           <g id="stp9jpi" class="stem">
                              <rect x="11504" y="1383" height="494" width="18" />
                           </g>
                        </g>
                     </g>
                  </g>
               </g>
               <g id="brwnfv1" class="barLine">
                  <path d="M12140 1085 L12140 1805" stroke="currentColor" stroke-width="27" />
               </g>
            </g>
            <g id="mfn96dh" class="measure">
               <g id="s1n0bf4t" class="staff">
                  <path d="M12153 1085 L15495 1085" stroke="currentColor" stroke-width="13" />
                  <path d="M12153 1265 L15495 1265" stroke="currentColor" stroke-width="13" />
                  <path d="M12153 1445 L15495 1445" stroke="currentColor" stroke-width="13" />
                  <path d="M12153 1625 L15495 1625" stroke="currentColor" stroke-width="13" />
                  <path d="M12153 1805 L15495 1805" stroke="currentColor" stroke-width="13" />
                  <g id="l1iit8fu" class="layer">
                     <g id="n14r7f1r" class="note">
                        <g class="notehead">
                           <use xlink:href="#E0A4-1tckipa" x="12330" y="1265" height="720px" width="720px" />
                        </g>
                        <g id="d1yg2xh5" class="dots">
                           <ellipse cx="12646" cy="1175" rx="36" ry="36" />
                        </g>
                        <g id="sr78fbt" class="stem">
                           <rect x="12330" y="1293" height="602" width="18" />
                        </g>
                     </g>
                     <g id="b11dbu3q" class="beam">
                        <polygon points="13575,1985 14864,2165 14864,2075 13575,1895" />
                        <g id="n1gs13wu" class="note">
                           <g class="notehead">
                              <use xlink:href="#E0A4-1tckipa" x="13575" y="1265" height="720px" width="720px" />
                           </g>
                           <g id="s12u2vcx" class="stem">
                              <rect x="13575" y="1293" height="674" width="18" />
                           </g>
                        </g>
                        <g id="nvsuxah" class="note">
                           <g class="notehead">
                              <use xlink:href="#E0A4-1tckipa" x="14211" y="1265" height="720px" width="720px" />
                           </g>
                           <g id="s1hekhs2" class="stem">
                              <rect x="14211" y="1293" height="765" width="18" />
                           </g>
                        </g>
                        <g id="n1hvev5y" class="note">
                           <g class="notehead">
                              <use xlink:href="#E0A4-1tckipa" x="14846" y="1625" height="720px" width="720px" />
                           </g>
                           <g id="smtxd3q" class="stem">
                              <rect x="14846" y="1653" height="494" width="18" />
                           </g>
                        </g>
                     </g>
                  </g>
               </g>
               <g id="b19kgxsj" class="barLine">
                  <path d="M15482 1085 L15482 1805" stroke="currentColor" stroke-width="27" />
               </g>
            </g>
            <g id="mxu67mo" class="measure">
               <g id="s99i814" class="staff">
                  <path d="M15495 1085 L17746 1085" stroke="currentColor" stroke-width="13" />
                  <path d="M15495 1265 L17746 1265" stroke="currentColor" stroke-width="13" />
                  <path d="M15495 1445 L17746 1445" stroke="currentColor" stroke-width="13" />
                  <path d="M15495 1625 L17746 1625" stroke="currentColor" stroke-width="13" />
                  <path d="M15495 1805 L17746 1805" stroke="currentColor" stroke-width="13" />
                  <g id="m16mbgpq" class="meterSig">
                     <use xlink:href="#E083-1tckipa" x="15575" y="1265" height="720px" width="720px" />
                     <use xlink:href="#E088-1tckipa" x="15578" y="1625" height="720px" width="720px" />
                  </g>
                  <g id="l1xng04h" class="layer">
                     <g id="n2kbsw7" class="note">
                        <g class="notehead">
                           <use xlink:href="#E0A4-1tckipa" x="16123" y="1535" height="720px" width="720px" />
                        </g>
                        <g id="dtxphda" class="dots">
                           <ellipse cx="16439" cy="1535" rx="36" ry="36" />
                        </g>
                        <g id="sadh9e3" class="stem">
                           <rect x="16331" y="905" height="602" width="18" />
                        </g>
                     </g>
                  </g>
               </g>
               <g id="b4bwacb" class="barLine">
                  <path d="M17368 1085 L17368 1805" stroke="currentColor" stroke-width="27" />
                  <path d="M17498 1085 L17498 1805" stroke="currentColor" stroke-width="90" />
                  <path d="M17629 1085 L17629 1805" stroke="currentColor" stroke-width="27" />
                  <use xlink:href="#E044-1tckipa" x="17674" y="1355" height="720px" width="720px" />
                  <use xlink:href="#E044-1tckipa" x="17674" y="1535" height="720px" width="720px" />
                  <use xlink:href="#E044-1tckipa" x="17251" y="1355" height="720px" width="720px" />
                  <use xlink:href="#E044-1tckipa" x="17251" y="1535" height="720px" width="720px" />
               </g>
            </g>
            <g id="mladxvc" class="measure">
               <g id="sliouxp" class="staff">
                  <path d="M17746 1085 L20003 1085" stroke="currentColor" stroke-width="13" />
                  <path d="M17746 1265 L20003 1265" stroke="currentColor" stroke-width="13" />
                  <path d="M17746 1445 L20003 1445" stroke="currentColor" stroke-width="13" />
                  <path d="M17746 1625 L20003 1625" stroke="currentColor" stroke-width="13" />
                  <path d="M17746 1805 L20003 1805" stroke="currentColor" stroke-width="13" />
                  <g id="lv7b8rg" class="layer">
                     <g id="nimu7kq" class="note">
                        <g class="notehead">
                           <use xlink:href="#E0A4-1tckipa" x="17923" y="1535" height="720px" width="720px" />
                        </g>
                        <g id="s1d9hgw3" class="stem">
                           <rect x="18131" y="905" height="602" width="18" />
                        </g>
                     </g>
                     <g id="npxam0c" class="note">
                        <g class="notehead">
                           <use xlink:href="#E0A4-1tckipa" x="18899" y="1625" height="720px" width="720px" />
                        </g>
                        <g id="sk4z5s8" class="stem">
                           <rect x="19107" y="995" height="602" width="18" />
                           <g id="f1vxpt5z" class="flag">
                              <use xlink:href="#E240-1tckipa" x="19107" y="995" height="720px" width="720px" />
                           </g>
                        </g>
                     </g>
                  </g>
                  <g id="m1m7t7ss" class="meterSig">
                     <use xlink:href="#E086-1tckipa" x="19624" y="1265" height="720px" width="720px" />
                     <use xlink:href="#E088-1tckipa" x="19631" y="1625" height="720px" width="720px" />
                  </g>
               </g>
               <g id="b1a23t1o" class="barLine">
                  <path d="M19535 1085 L19535 1805" stroke="currentColor" stroke-width="27" />
               </g>
            </g>
         </g>
         <g id="s1sfzmy5" class="system">
            <g id="ll1le4a" class="labelAbbr">
               <text x="914" y="3830" text-anchor="end" font-size="0px">
                  <tspan id="tbhn9kp" class="text">
                     <tspan font-size="405px" class="text">Pno.</tspan>
                  </tspan>
               </text>
            </g>
            <g id="mhzsm5o" class="measure">
               <g id="muzrtw5" class="mNum autogenerated">
                  <text x="1094" y="3137" text-anchor="middle" font-size="0px">
                     <tspan id="t8efnt" class="text">
                        <tspan font-size="324px" class="text">6</tspan>
                     </tspan>
                  </text>
               </g>
               <g id="spzsl1y" class="staff">
                  <path d="M1094 3380 L6567 3380" stroke="currentColor" stroke-width="13" />
                  <path d="M1094 3560 L6567 3560" stroke="currentColor" stroke-width="13" />
                  <path d="M1094 3740 L6567 3740" stroke="currentColor" stroke-width="13" />
                  <path d="M1094 3920 L6567 3920" stroke="currentColor" stroke-width="13" />
                  <path d="M1094 4100 L6567 4100" stroke="currentColor" stroke-width="13" />
                  <g id="ch4n5za" class="clef">
                     <use xlink:href="#E050-1tckipa" x="1184" y="3920" height="720px" width="720px" />
                  </g>
                  <g id="kahlqpx" class="keySig">
                     <g id="k1j9yr6t" class="keyAccid">
                        <use xlink:href="#E260-1tckipa" x="1829" y="3740" height="720px" width="720px" />
                     </g>
                  </g>
                  <g id="moshaag" class="meterSig">
                     <use xlink:href="#E086-1tckipa" x="2137" y="3560" height="720px" width="720px" />
                     <use xlink:href="#E088-1tckipa" x="2144" y="3920" height="720px" width="720px" />
                  </g>
                  <g id="l12q43qh" class="layer">
                     <g id="n1s2eq6x" class="note">
                        <g class="notehead">
                           <use xlink:href="#E0A4-1tckipa" x="2606" y="3740" height="540px" width="540px" />
                        </g>
                        <g id="skzgv73" class="stem">
                           <rect x="2757" y="3290" height="429" width="18" />
                           <g id="f1u1d3du" class="flag">
                              <use xlink:href="#E240-1tckipa" x="2757" y="3290" height="540px" width="540px" />
                           </g>
                        </g>
                        <g id="ad24m5d" class="accid" />
                     </g>
                     <g id="n1wvvmro" class="note">
                        <g class="notehead">
                           <use xlink:href="#E0A4-1tckipa" x="2973" y="3830" height="720px" width="720px" />
                        </g>
                        <g id="s6utr7d" class="stem">
                           <rect x="3181" y="3200" height="602" width="18" />
                        </g>
                     </g>
                     <g id="njd6jkc" class="note">
                        <g class="notehead">
                           <use xlink:href="#E0A4-1tckipa" x="3966" y="3920" height="720px" width="720px" />
                        </g>
                        <g id="s1dt8205" class="stem">
                           <rect x="4174" y="3290" height="602" width="18" />
                           <g id="fnudhev" class="flag">
                              <use xlink:href="#E240-1tckipa" x="4174" y="3290" height="720px" width="720px" />
                           </g>
                        </g>
                     </g>
                     <g id="be9h5tw" class="beam">
                        <polygon points="4821,3155 6133,3155 6133,3245 4821,3245" />
                        <g id="n1q8eojv" class="note">
                           <g class="notehead">
                              <use xlink:href="#E0A4-1tckipa" x="4613" y="3830" height="720px" width="720px" />
                           </g>
                           <g id="sngcg99" class="stem">
                              <rect x="4821" y="3173" height="629" width="18" />
                           </g>
                        </g>
                        <g id="nvid0xs" class="note">
                           <g class="notehead">
                              <use xlink:href="#E0A4-1tckipa" x="5260" y="3740" height="720px" width="720px" />
                           </g>
                           <g id="s18jnkib" class="stem">
                              <rect x="5468" y="3173" height="539" width="18" />
                           </g>
                           <g id="af3s4kr" class="accid" />
                        </g>
                        <g id="nrqsxyh" class="note">
                           <g class="notehead">
                              <use xlink:href="#E0A4-1tckipa" x="5907" y="3920" height="720px" width="720px" />
                           </g>
                           <g id="swjp27n" class="stem">
                              <rect x="6115" y="3173" height="719" width="18" />
                           </g>
                        </g>
                     </g>
                  </g>
               </g>
               <g id="b1rdfz2a" class="barLine">
                  <path d="M6554 3380 L6554 4100" stroke="currentColor" stroke-width="27" />
               </g>
            </g>
            <g id="mycstw6" class="measure">
               <g id="soo4xw6" class="staff">
                  <path d="M6567 3380 L10256 3380" stroke="currentColor" stroke-width="13" />
                  <path d="M6567 3560 L10256 3560" stroke="currentColor" stroke-width="13" />
                  <path d="M6567 3740 L10256 3740" stroke="currentColor" stroke-width="13" />
                  <path d="M6567 3920 L10256 3920" stroke="currentColor" stroke-width="13" />
                  <path d="M6567 4100 L10256 4100" stroke="currentColor" stroke-width="13" />
                  <g id="l1cd8545" class="layer">
                     <g id="n13hah5d" class="note">
                        <g class="notehead">
                           <use xlink:href="#E0A4-1tckipa" x="6747" y="4010" height="720px" width="720px" />
                        </g>
                        <g id="suep0sz" class="stem">
                           <rect x="6955" y="3380" height="602" width="18" />
                        </g>
                     </g>
                     <g id="nr32fff" class="note">
                        <g class="notehead">
                           <use xlink:href="#E0A4-1tckipa" x="7740" y="3920" height="720px" width="720px" />
                        </g>
                        <g id="scubg4s" class="stem">
                           <rect x="7948" y="3290" height="602" width="18" />
                           <g id="f1ahmvq0" class="flag">
                              <use xlink:href="#E240-1tckipa" x="7948" y="3290" height="720px" width="720px" />
                           </g>
                        </g>
                     </g>
                     <g id="n1jln86j" class="note">
                        <g class="notehead">
                           <use xlink:href="#E0A4-1tckipa" x="8236" y="3740" height="540px" width="540px" />
                        </g>
                        <g id="s1s81mxc" class="stem">
                           <rect x="8387" y="3290" height="429" width="18" />
                           <g id="f16e6q4c" class="flag">
                              <use xlink:href="#E240-1tckipa" x="8387" y="3290" height="540px" width="540px" />
                           </g>
                        </g>
                        <g id="a1k6jure" class="accid" />
                     </g>
                     <g id="n1ai8t1r" class="note">
                        <g class="notehead">
                           <use xlink:href="#E0A4-1tckipa" x="8603" y="3830" height="720px" width="720px" />
                        </g>
                        <g id="se73any" class="stem">
                           <rect x="8811" y="3200" height="602" width="18" />
                        </g>
                     </g>
                     <g id="nhhwdkb" class="note">
                        <g class="notehead">
                           <use xlink:href="#E0A4-1tckipa" x="9596" y="3920" height="720px" width="720px" />
                        </g>
                        <g id="s15qzd3e" class="stem">
                           <rect x="9804" y="3290" height="602" width="18" />
                           <g id="f77y3gi" class="flag">
                              <use xlink:href="#E240-1tckipa" x="9804" y="3290" height="720px" width="720px" />
                           </g>
                        </g>
                     </g>
                  </g>
               </g>
               <g id="bi0xp9r" class="barLine">
                  <path d="M10243 3380 L10243 4100" stroke="currentColor" stroke-width="27" />
               </g>
            </g>
            <g id="sdg3j98" class="sb" />
            <g id="mdyzvab" class="measure">
               <g id="sqygs6a" class="staff">
                  <path d="M10256 3380 L14307 3380" stroke="currentColor" stroke-width="13" />
                  <path d="M10256 3560 L14307 3560" stroke="currentColor" stroke-width="13" />
                  <path d="M10256 3740 L14307 3740" stroke="currentColor" stroke-width="13" />
                  <path d="M10256 3920 L14307 3920" stroke="currentColor" stroke-width="13" />
                  <path d="M10256 4100 L14307 4100" stroke="currentColor" stroke-width="13" />
                  <g id="l1irdi2b" class="layer">
                     <g id="n1gzp588" class="note">
                        <g class="notehead">
                           <use xlink:href="#E0A4-1tckipa" x="10346" y="3740" height="540px" width="540px" />
                        </g>
                        <g id="svd4uax" class="stem">
                           <rect x="10497" y="3290" height="429" width="18" />
                           <g id="fqxo0k1" class="flag">
                              <use xlink:href="#E240-1tckipa" x="10497" y="3290" height="540px" width="540px" />
                           </g>
                        </g>
                        <g id="aghxtf6" class="accid" />
                     </g>
                     <g id="n3g3grn" class="note">
                        <g class="notehead">
                           <use xlink:href="#E0A4-1tckipa" x="10713" y="3830" height="720px" width="720px" />
                        </g>
                        <g id="s1sqkar0" class="stem">
                           <rect x="10921" y="3200" height="602" width="18" />
                        </g>
                     </g>
                     <g id="n14bn987" class="note">
                        <g class="notehead">
                           <use xlink:href="#E0A4-1tckipa" x="11706" y="3920" height="720px" width="720px" />
                        </g>
                        <g id="sa5w0lj" class="stem">
                           <rect x="11914" y="3290" height="602" width="18" />
                           <g id="fa3whcd" class="flag">
                              <use xlink:href="#E240-1tckipa" x="11914" y="3290" height="720px" width="720px" />
                           </g>
                        </g>
                     </g>
                     <g id="b17y6q0g" class="beam">
                        <polygon points="12561,3155 13873,3155 13873,3245 12561,3245" />
                        <g id="nwabdi6" class="note">
                           <g class="notehead">
                              <use xlink:href="#E0A4-1tckipa" x="12353" y="3830" height="720px" width="720px" />
                           </g>
                           <g id="s1uyxkli" class="stem">
                              <rect x="12561" y="3173" height="629" width="18" />
                           </g>
                        </g>
                        <g id="no158g7" class="note">
                           <g class="notehead">
                              <use xlink:href="#E0A4-1tckipa" x="13000" y="3740" height="720px" width="720px" />
                           </g>
                           <g id="s9o56t" class="stem">
                              <rect x="13208" y="3173" height="539" width="18" />
                           </g>
                           <g id="a1nje55b" class="accid" />
                        </g>
                        <g id="n19glbyn" class="note">
                           <g class="notehead">
                              <use xlink:href="#E0A4-1tckipa" x="13647" y="3830" height="720px" width="720px" />
                           </g>
                           <g id="s1mp486p" class="stem">
                              <rect x="13855" y="3173" height="629" width="18" />
                           </g>
                        </g>
                     </g>
                  </g>
               </g>
               <g id="b1ninafu" class="barLine">
                  <path d="M14294 3380 L14294 4100" stroke="currentColor" stroke-width="27" />
               </g>
            </g>
            <g id="m65f3vb" class="measure">
               <g id="ss38nb6" class="staff">
                  <path d="M14307 3380 L16379 3380" stroke="currentColor" stroke-width="13" />
                  <path d="M14307 3560 L16379 3560" stroke="currentColor" stroke-width="13" />
                  <path d="M14307 3740 L16379 3740" stroke="currentColor" stroke-width="13" />
                  <path d="M14307 3920 L16379 3920" stroke="currentColor" stroke-width="13" />
                  <path d="M14307 4100 L16379 4100" stroke="currentColor" stroke-width="13" />
                  <g id="m80waiw" class="meterSig">
                     <use xlink:href="#E083-1tckipa" x="14387" y="3560" height="720px" width="720px" />
                     <use xlink:href="#E088-1tckipa" x="14390" y="3920" height="720px" width="720px" />
                  </g>
                  <g id="l1bm94po" class="layer">
                     <g id="n1teitfh" class="note">
                        <g class="notehead">
                           <use xlink:href="#E0A4-1tckipa" x="14938" y="3920" height="720px" width="720px" />
                        </g>
                        <g id="d1vl2wpq" class="dots">
                           <ellipse cx="15254" cy="3830" rx="36" ry="36" />
                        </g>
                        <g id="s17hncuw" class="stem">
                           <rect x="15146" y="3290" height="602" width="18" />
                        </g>
                     </g>
                  </g>
               </g>
               <g id="b1glofl7" class="barLine">
                  <path d="M16204 3380 L16204 4100" stroke="currentColor" stroke-width="27" />
                  <path d="M16334 3380 L16334 4100" stroke="currentColor" stroke-width="90" />
               </g>
            </g>
            <g id="s75ux5b" class="systemMilestoneEnd sydyytt" />
         </g>
         <g id="p4ig0l4" class="pageMilestoneEnd s1qop8ke" />
         <g id="p1x0hwu0" class="pageMilestoneEnd m17l0io4" />
         <g id="p1vi5vxj" class="pgHead">
            <text x="0" y="0" font-size="0px">
               <tspan id="r1invft8" class="rend" x="10000" y="277" text-anchor="middle">
                  <tspan id="t1rmzgh5" class="text">
                     <tspan font-size="405px" class="text">Air n 117</tspan>
                  </tspan>
               </tspan>
            </text>
         </g>
         <g id="p5n1p4h" class="pgFoot autogenerated">
            <g id="f15ry2g6" class="fig">
               <g id="s1qsy5rl" class="svg" transform="translate(7750, 28099) scale(10, 10)">
                  <g>
                     <path fill="#00000" d="M 17.11278,49.26451 V 10.367554 h 12.696511 c 3.288815,7.336676 6.71267,14.610456 10.127281,21.888976 3.419998,-7.484684 6.255515,-14.204887 9.58887,-21.909915 2.436207,0.103726 4.316952,0.08453 6.484294,-0.05808 V 49.264423 H 50.274275 C 50.145222,38.35639 50.016136,27.448368 49.887066,16.540329 45.003488,27.315459 39.967448,38.433564 35.083854,49.208695 34.678996,49.343717 34.426583,49.135619 34.021726,49.270644 29.46588,39.330716 24.910049,29.390805 20.354201,19.450876 20.224341,29.388756 20.09461,39.326619 19.964815,49.264497 H 17.11278 Z M 36.754144,39.324695 C 32.721221,30.512695 28.6883,21.700679 24.655394,12.888662 22.530527,12.750737 22.656775,12.71031 20.714356,12.813974 v 0.966497 c 4.612938,9.99784 9.609439,20.748709 13.87298,30.081745 0.722248,-1.512523 1.444528,-3.025014 2.166808,-4.537521 z m 25.738417,9.939815 c 0,-12.965651 0,-25.931305 0,-38.896956 10.084388,0 20.168791,0 30.253178,0 0,0.960416 0,1.920849 0,2.881265 -6.482825,0 -12.965652,0 -19.448478,0 0,4.802097 0,9.604178 0,14.406277 5.52241,0 11.044819,0 16.567229,0 0,0.960415 0,1.920832 0,2.881248 -5.52241,0 -11.044819,0 -16.567229,0 0,5.282306 0,10.564611 0,15.846917 6.963035,0 13.926068,0 20.889103,0 0,0.960416 0,1.920832 0,2.881249 -10.564597,0 -21.129207,0 -31.693803,0 z m 4.321874,-2.160937 c 0,-11.765131 0,-23.530263 0,-35.295394 -0.720312,0 -1.440625,0 -2.160937,0 0,11.765131 0,23.530263 0,35.295394 0.720312,0 1.440625,0 2.160937,0 z m 32.41413,2.160937 c 0,-12.965651 0,-25.931305 0,-38.896956 2.401045,0 4.802095,0 7.203135,0 0,12.965651 0,25.931305 0,38.896956 -2.40104,0 -4.80209,0 -7.203135,0 z m 2.881265,-2.160937 c 0,-11.765131 0,-23.530263 0,-35.295394 -0.72031,0 -1.44064,0 -2.160953,0 0,11.765131 0,23.530263 0,35.295394 0.720313,0 1.440643,0 2.160953,0 z" />
                     <path fill="#00000" d="m 346.3,6.7 c -3.1,0.5 -4.9,4.4 -2.7,6.8 1.2,1.4 2.7,2.4 4.1,3.5 -2.4,5.3 -7.7,8.3 -11.9,12.1 -3.7,2.8 -7,6.2 -9.7,9.9 -2.2,-0.8 -0.3,-6.8 -0.6,-9.5 0.1,-3.1 0.7,-6.4 2.9,-8.7 1.3,-1.9 3,-3.5 4.5,-5.2 1.2,-3.4 -3.2,-4.9 -5.8,-4.6 -7.3,-0.5 -14.6,2 -20,6.8 -5,4.6 -10,10.1 -11.5,17 -0.9,3.5 -0.2,7.5 2.8,9.9 2.5,2.8 7.4,2.9 9.8,-0.2 1.7,-2.3 3.2,-4.8 3.8,-7.6 -0.1,-2.6 -4.4,-2.3 -4.3,0.2 1.2,2.4 -0.9,4.7 -2.7,6.2 -1.7,0.9 -4.7,0.7 -4.8,-1.7 -1,-5.8 2.1,-11.3 5.2,-16.1 4,-5.8 9.8,-11.2 17.2,-11.8 1.6,0 8.1,-1.2 6.8,1.4 -2.8,2.8 -5.6,6.1 -6,10.3 -1.6,7.7 0.1,15.7 -2.3,23.2 -1.1,3.9 2,2.6 2.5,0.2 3.3,-7.4 8.9,-13.4 15.1,-18.5 4.2,-3.9 9.5,-7.1 11.9,-12.6 1.3,-3.6 1.2,-9 -2.7,-10.9 -0.6,-0.2 -1.2,-0.3 -1.8,-0.3 z m 66,14.5 c -2,0.8 -1.8,4.9 0.8,4.4 3.4,0.4 2.9,-6.2 -0.8,-4.4 z m 0.6,7.3 c -1.3,0.5 -7.6,0.5 -5.4,2.2 4,-0.3 0.7,4.5 0.6,6.7 -0.4,2.9 -2.4,5.9 -1.2,8.8 2.7,1.7 5.6,-0.8 6.8,-3.2 1.6,-1.4 -0.5,-3 -1.2,-0.9 -0.4,0.8 -2.4,3.5 -2.6,1.8 1.1,-5 2.7,-9.9 3.9,-14.9 l -0.1,-0.5 h -0.9 z m -65.1,0.2 c -6.5,1.6 -10.5,9.5 -8.2,15.7 2.1,3.4 7.4,2.9 10.1,0.4 2,-0.2 3.6,-5.3 1,-3.4 -1.4,2 -4,4.2 -6.5,2.8 -2.2,-1.9 -1.9,-5.7 1.7,-5.3 3.1,-0.9 6.9,-2.1 8.1,-5.5 0.9,-2.7 -1.6,-5.2 -4.3,-4.8 h -1.1 -0.7 z m 13.6,0 c -2.2,0 -8.5,1.8 -2.9,2.3 0.9,1.9 -1,4.9 -1.1,7.2 -0.5,2.9 -1.4,5.7 -1.7,8.7 3.7,0.7 3.8,-2.6 4.4,-5.3 0.9,-3.3 1.6,-7 4.1,-9.5 2.4,1.6 6.8,-0.7 3.7,-3.4 -2.9,-0.5 -4.8,2.4 -6.2,4.3 0,-1.2 2.4,-5 -0.2,-4.3 z m 15.8,0 c -6.4,1.3 -9.6,9.1 -7.7,14.9 1.9,4 7.7,3.9 11,1.7 4.1,-3 6,-8.9 4.4,-13.7 -1.3,-3 -4.8,-3.2 -7.6,-3 z m 17,0 c -2.3,0 -8.8,1.9 -3,2.4 0.4,2.5 -1,5.7 -1.4,8.4 -0.7,2.4 -1.8,7.5 2.1,7.2 3.8,-0.1 6.5,-3.5 8.5,-6.3 2,-3.2 4.5,-7 3.3,-10.9 -3.7,-3 -3.6,2.6 -3.1,5.1 -0.7,3.8 -2.7,7.9 -6.2,9.8 -3.6,0.6 -1,-4.3 -0.8,-6.1 0.6,-3.2 1.6,-6.3 1.9,-9.5 -0.4,0 -0.8,0 -1.1,0 z m 30.6,0 c -6.3,1.2 -9.5,8.9 -7.8,14.7 1.5,4 7.2,4.2 10.5,2.4 4.6,-2.8 6.6,-9.3 4.8,-14.3 -1.4,-2.8 -4.8,-3 -7.5,-2.8 z m -75.4,1.7 c 2.1,1.5 0.2,4.7 -1.6,5.7 -1.1,0.4 -5.5,3.4 -4.6,0.7 0.8,-2.7 2.2,-6.2 5.3,-6.6 l 0.9,0.1 z m 30.8,0 c 2.6,1.5 1.3,5.2 0.8,7.6 -0.8,2.7 -1.9,5.9 -4.7,7.1 -5.1,0.8 -4,-5.8 -2.8,-8.8 1,-2.8 3,-6.8 6.7,-5.8 z m 47.1,-0.1 c 2.9,0.7 2,4.7 1.5,6.8 -0.7,3 -1.8,6.7 -5,8 -4.7,0.8 -4,-5.1 -3,-7.9 0.9,-3 2.7,-7.3 6.5,-6.8 z m -88.1,5.9 c -0.3,1.3 0.9,-0.6 0,0 z m -1.1,2.4 c -0.2,0.5 0.5,-0.1 0,0 z m -1.3,4.5 c -0.3,1.3 0.8,-0.2 0,0 z" />
                     <text y="41" x="201" fill="#00000" style="font-style:italic;font-weight:normal;font-size:30px;line-height:125%;font-family:Times;text-anchor:middle" xml:space="preserve">engraved with</text>
                  </g>
               </g>
            </g>
         </g>
      </g>
   </svg>
</svg>
