<?xml version="1.0" encoding="UTF-8" standalone="no"?>
<svg width="2100px" height="2970px" version="1.1" xmlns="http://www.w3.org/2000/svg" xmlns:xlink="http://www.w3.org/1999/xlink" xmlns:mei="http://www.music-encoding.org/ns/mei" overflow="visible">
   <desc>Engraved by Verovio 3.13.1</desc>
   <defs>
      <symbol id="E240-xortag" viewBox="0 0 1000 1000" overflow="inherit">
         <path transform="scale(1,-1)" d="M179 -646c15 29 29 55 46 102c18 49 30 108 30 138c0 105 -80 173 -168 200c-18 5 -47 9 -87 16v190h22c8 0 33 -61 71 -95c4 -3 -2 3 61 -56c62 -58 122 -137 122 -241c0 -38 -13 -106 -35 -163c-20 -51 -43 -99 -66 -132c-6 -5 -10 -7 -13 -7s-5 2 -5 5l4 10 c1 3 14 25 18 33z" />
      </symbol>
      <symbol id="E241-xortag" viewBox="0 0 1000 1000" overflow="inherit">
         <path transform="scale(1,-1)" d="M179 646c-4 8 -17 30 -18 33l-4 10c0 3 2 5 5 5s7 -2 13 -7c23 -33 46 -81 66 -132c22 -57 35 -125 35 -163c0 -104 -60 -183 -122 -241c-63 -59 -57 -53 -61 -56c-38 -34 -63 -95 -71 -95h-22v190c40 7 69 11 87 16c88 27 168 95 168 200c0 30 -12 89 -30 138 c-17 47 -31 73 -46 102z" />
      </symbol>
      <symbol id="E260-xortag" viewBox="0 0 1000 1000" overflow="inherit">
         <path transform="scale(1,-1)" d="M20 110c32 16 54 27 93 27c26 0 35 -3 54 -13c13 -7 24 -20 27 -38l4 -25c0 -28 -16 -57 -45 -89c-23 -25 -39 -44 -65 -68l-88 -79v644h20v-359zM90 106c-32 0 -48 -10 -70 -29v-194c31 31 54 59 71 84c21 32 32 59 32 84c0 9 1 16 1 20c0 14 -3 21 -11 30l-8 3z" />
      </symbol>
      <symbol id="E4E6-xortag" viewBox="0 0 1000 1000" overflow="inherit">
         <path transform="scale(1,-1)" d="M0 123c7 34 33 56 69 60c29 -3 43 -9 53 -29c4 -8 7 -15 10 -22c0 -21 -1 -25 -11 -35c-5 -8 -18 -14 -40 -20l12 -3l15 -1c44 0 97 26 122 56c10 11 18 26 24 42c7 1 15 2 22 3l-140 -424h-36l111 330c-10 -6 -27 -12 -53 -16l-52 -8h-10l-20 1c-1 0 -8 3 -21 6 c-37 9 -55 28 -55 60z" />
      </symbol>
      <symbol id="E050-xortag" viewBox="0 0 1000 1000" overflow="inherit">
         <path transform="scale(1,-1)" d="M441 -245c-23 -4 -48 -6 -76 -6c-59 0 -102 7 -130 20c-88 42 -150 93 -187 154c-26 44 -43 103 -48 176c0 6 -1 13 -1 19c0 54 15 111 45 170c29 57 65 106 110 148s96 85 153 127c-3 16 -8 46 -13 92c-4 43 -5 73 -5 89c0 117 16 172 69 257c34 54 64 82 89 82 c21 0 43 -30 69 -92s39 -115 41 -159v-15c0 -109 -21 -162 -67 -241c-13 -20 -63 -90 -98 -118c-13 -9 -25 -19 -37 -29l31 -181c8 1 18 2 28 2c58 0 102 -12 133 -35c59 -43 92 -104 98 -184c1 -7 1 -15 1 -22c0 -123 -87 -209 -181 -248c8 -57 17 -110 25 -162 c5 -31 6 -58 6 -80c0 -30 -5 -53 -14 -70c-35 -64 -88 -99 -158 -103c-5 0 -11 -1 -16 -1c-37 0 -72 10 -108 27c-50 24 -77 59 -80 105v11c0 29 7 55 20 76c18 28 45 42 79 44h6c49 0 93 -42 97 -87v-9c0 -51 -34 -86 -105 -106c17 -24 51 -36 102 -36c62 0 116 43 140 85 c9 16 13 41 13 74c0 20 -1 42 -5 67c-8 53 -18 106 -26 159zM461 939c-95 0 -135 -175 -135 -286c0 -24 2 -48 5 -71c50 39 92 82 127 128c40 53 60 100 60 140v8c-4 53 -22 81 -55 81h-2zM406 119l54 -326c73 25 110 78 110 161c0 7 0 15 -1 23c-7 95 -57 142 -151 142h-12 zM382 117c-72 -2 -128 -47 -128 -120v-7c2 -46 43 -99 75 -115c-3 -2 -7 -5 -10 -10c-70 33 -116 88 -123 172v11c0 68 44 126 88 159c23 17 49 29 78 36l-29 170c-21 -13 -52 -37 -92 -73c-50 -44 -86 -84 -109 -119c-45 -69 -67 -130 -67 -182v-13c5 -68 35 -127 93 -176 s125 -73 203 -73c25 0 50 3 75 9c-19 111 -36 221 -54 331z" />
      </symbol>
      <symbol id="E082-xortag" viewBox="0 0 1000 1000" overflow="inherit">
         <path transform="scale(1,-1)" d="M124 -185c-18 0 -55 -14 -65 -65h-36l-3 30c0 25 6 45 18 63c11 19 22 30 39 43l121 82l37 29c15 11 27 29 38 54c12 24 18 47 18 70c0 40 -19 88 -94 88c-25 0 -32 0 -50 -8c-14 -5 -23 -12 -26 -22c3 -9 7 -15 10 -18l24 -17c12 -7 17 -11 27 -21c5 -7 7 -16 7 -27 c0 -12 0 -57 -79 -74c-30 0 -76 26 -76 94c0 66 81 135 197 135c72 0 181 -32 181 -150c0 -53 -32 -95 -113 -133l-91 -41c-26 -11 -45 -23 -57 -37l49 7c84 0 115 -41 148 -41c20 0 33 20 39 61h35c0 -152 -68 -168 -114 -168c-17 0 -65 0 -79 7h10l-28 17 c-49 37 -69 40 -87 42z" />
      </symbol>
      <symbol id="E084-xortag" viewBox="0 0 1000 1000" overflow="inherit">
         <path transform="scale(1,-1)" d="M20 -78c84 97 114 180 134 329h170c-13 -32 -82 -132 -99 -151l-84 -97c-33 -36 -59 -63 -80 -81h162v102l127 123v-225h57v-39h-57v-34c0 -43 19 -65 57 -65v-34h-244v36c48 0 60 26 60 70v27h-203v39z" />
      </symbol>
      <symbol id="E0A4-xortag" viewBox="0 0 1000 1000" overflow="inherit">
         <path transform="scale(1,-1)" d="M0 -39c0 68 73 172 200 172c66 0 114 -37 114 -95c0 -84 -106 -171 -218 -171c-64 0 -96 30 -96 94z" />
      </symbol>
   </defs>
   <style type="text/css">g.page-margin{font-family:Times;} g.ending, g.fing, g.reh, g.tempo{font-weight:bold;} g.dir, g.dynam, g.mNum{font-style:italic;} g.label{font-weight:normal;}</style>
   <svg class="definition-scale" color="black" viewBox="0 0 21000 29700">
      <g class="page-margin" transform="translate(500, 500)">
         <g id="m1gagrqs" class="mdiv pageMilestone" />
         <g id="s9owqf7" class="score pageMilestone" />
         <g id="snd4lvi" class="system">
            <g id="lqllk34" class="label">
               <text x="1105" y="1535" text-anchor="end" font-size="0px">
                  <tspan id="t1sk6vci" class="text">
                     <tspan font-size="405px" class="text">Piano</tspan>
                  </tspan>
               </text>
            </g>
            <g id="sdnxtrn" class="section systemMilestone" />
            <g id="pjf7jz1" class="pb" />
            <g id="m1au5ys2" class="measure">
               <g id="s2ccmzx" class="staff">
                  <path d="M1285 1085 L5330 1085" stroke="currentColor" stroke-width="13" />
                  <path d="M1285 1265 L5330 1265" stroke="currentColor" stroke-width="13" />
                  <path d="M1285 1445 L5330 1445" stroke="currentColor" stroke-width="13" />
                  <path d="M1285 1625 L5330 1625" stroke="currentColor" stroke-width="13" />
                  <path d="M1285 1805 L5330 1805" stroke="currentColor" stroke-width="13" />
                  <g id="c1lnn7v3" class="clef">
                     <use xlink:href="#E050-xortag" x="1375" y="1625" height="720px" width="720px" />
                  </g>
                  <g id="k17x46sq" class="keySig">
                     <g id="kfgbi9j" class="keyAccid">
                        <use xlink:href="#E260-xortag" x="2020" y="1445" height="720px" width="720px" />
                     </g>
                     <g id="kbmg4la" class="keyAccid">
                        <use xlink:href="#E260-xortag" x="2200" y="1175" height="720px" width="720px" />
                     </g>
                  </g>
                  <g id="muhozv4" class="meterSig">
                     <use xlink:href="#E082-xortag" x="2508" y="1265" height="720px" width="720px" />
                     <use xlink:href="#E084-xortag" x="2513" y="1625" height="720px" width="720px" />
                  </g>
                  <g id="ldu3nfk" class="layer">
                     <g id="b1fywv9u" class="beam">
                        <polygon points="3083,1850 3960,1850 3960,1760 3083,1760" />
                        <polygon points="3608,1715 3960,1715 3960,1625 3608,1625" />
                        <g id="n1dyv9x7" class="note">
                           <g class="notehead">
                              <use xlink:href="#E0A4-xortag" x="3083" y="1265" height="720px" width="720px" />
                           </g>
                           <g id="s1jit6np" class="stem">
                              <rect x="3083" y="1293" height="539" width="18" />
                           </g>
                        </g>
                        <g id="n4b0am" class="note">
                           <g class="notehead">
                              <use xlink:href="#E0A4-xortag" x="3599" y="1175" height="720px" width="720px" />
                           </g>
                           <g id="s1pftoq1" class="stem">
                              <rect x="3599" y="1203" height="629" width="18" />
                           </g>
                           <g id="ablp5wb" class="accid" />
                        </g>
                        <g id="n8qo0qk" class="note">
                           <g class="notehead">
                              <use xlink:href="#E0A4-xortag" x="3942" y="1265" height="720px" width="720px" />
                           </g>
                           <g id="se49e0x" class="stem">
                              <rect x="3942" y="1293" height="539" width="18" />
                           </g>
                        </g>
                     </g>
                     <g id="bcagugs" class="beam">
                        <polygon points="4285,2030 4819,1985 4819,1895 4285,1940" />
                        <g id="n1rimq3z" class="note">
                           <g class="notehead">
                              <use xlink:href="#E0A4-xortag" x="4285" y="1355" height="720px" width="720px" />
                           </g>
                           <g id="s157yeay" class="stem">
                              <rect x="4285" y="1383" height="629" width="18" />
                           </g>
                        </g>
                        <g id="n1ou9j2c" class="note">
                           <g class="notehead">
                              <use xlink:href="#E0A4-xortag" x="4801" y="1265" height="720px" width="720px" />
                           </g>
                           <g id="sygvko7" class="stem">
                              <rect x="4801" y="1293" height="674" width="18" />
                           </g>
                        </g>
                     </g>
                  </g>
               </g>
               <g id="b1l76md9" class="barLine">
                  <path d="M5317 1085 L5317 1805" stroke="currentColor" stroke-width="27" />
               </g>
            </g>
            <g id="mcv1w98" class="measure">
               <g id="s150v3g1" class="staff">
                  <path d="M5330 1085 L7930 1085" stroke="currentColor" stroke-width="13" />
                  <path d="M5330 1265 L7930 1265" stroke="currentColor" stroke-width="13" />
                  <path d="M5330 1445 L7930 1445" stroke="currentColor" stroke-width="13" />
                  <path d="M5330 1625 L7930 1625" stroke="currentColor" stroke-width="13" />
                  <path d="M5330 1805 L7930 1805" stroke="currentColor" stroke-width="13" />
                  <g id="l5z8pgf" class="layer">
                     <g id="b1ry2edd" class="beam">
                        <polygon points="5720,860 6597,860 6597,950 5720,950" />
                        <polygon points="6245,995 6597,995 6597,1085 6245,1085" />
                        <g id="nmrftf5" class="note">
                           <g class="notehead">
                              <use xlink:href="#E0A4-xortag" x="5512" y="1445" height="720px" width="720px" />
                           </g>
                           <g id="s16am9dz" class="stem">
                              <rect x="5720" y="878" height="539" width="18" />
                           </g>
                           <g id="a24selh" class="accid" />
                        </g>
                        <g id="ntdmd5z" class="note">
                           <g class="notehead">
                              <use xlink:href="#E0A4-xortag" x="6028" y="1535" height="720px" width="720px" />
                           </g>
                           <g id="s14ezaht" class="stem">
                              <rect x="6236" y="878" height="629" width="18" />
                           </g>
                        </g>
                        <g id="n5yfcf9" class="note">
                           <g class="notehead">
                              <use xlink:href="#E0A4-xortag" x="6371" y="1625" height="720px" width="720px" />
                           </g>
                           <g id="s103l8j7" class="stem">
                              <rect x="6579" y="878" height="719" width="18" />
                           </g>
                        </g>
                     </g>
                     <g id="b1lyqogx" class="beam">
                        <polygon points="6922,860 7799,860 7799,950 6922,950" />
                        <polygon points="7447,995 7799,995 7799,1085 7447,1085" />
                        <g id="n1vlqp7s" class="note">
                           <g class="notehead">
                              <use xlink:href="#E0A4-xortag" x="6714" y="1445" height="720px" width="720px" />
                           </g>
                           <g id="s18vqcfh" class="stem">
                              <rect x="6922" y="878" height="539" width="18" />
                           </g>
                           <g id="a1qnyqib" class="accid" />
                        </g>
                        <g id="n19cyqtr" class="note">
                           <g class="notehead">
                              <use xlink:href="#E0A4-xortag" x="7230" y="1535" height="720px" width="720px" />
                           </g>
                           <g id="s1jrbr28" class="stem">
                              <rect x="7438" y="878" height="629" width="18" />
                           </g>
                        </g>
                        <g id="n1lodyq5" class="note">
                           <g class="notehead">
                              <use xlink:href="#E0A4-xortag" x="7573" y="1625" height="720px" width="720px" />
                           </g>
                           <g id="s1s2hfqw" class="stem">
                              <rect x="7781" y="878" height="719" width="18" />
                           </g>
                        </g>
                     </g>
                  </g>
               </g>
               <g id="b1t8d1x2" class="barLine">
                  <path d="M7917 1085 L7917 1805" stroke="currentColor" stroke-width="27" />
               </g>
            </g>
            <g id="mhm67r4" class="measure">
               <g id="s1igydfn" class="staff">
                  <path d="M7930 1085 L10359 1085" stroke="currentColor" stroke-width="13" />
                  <path d="M7930 1265 L10359 1265" stroke="currentColor" stroke-width="13" />
                  <path d="M7930 1445 L10359 1445" stroke="currentColor" stroke-width="13" />
                  <path d="M7930 1625 L10359 1625" stroke="currentColor" stroke-width="13" />
                  <path d="M7930 1805 L10359 1805" stroke="currentColor" stroke-width="13" />
                  <g id="lo0800" class="layer">
                     <g id="bqsfenn" class="beam">
                        <polygon points="8320,1085 9197,905 9197,995 8320,1175" />
                        <polygon points="8845,1112 9197,1040 9197,1130 8845,1202" />
                        <g id="n1puppa1" class="note">
                           <g class="notehead">
                              <use xlink:href="#E0A4-xortag" x="8112" y="1715" height="720px" width="720px" />
                           </g>
                           <g id="s1a6golq" class="stem">
                              <rect x="8320" y="1103" height="584" width="18" />
                           </g>
                        </g>
                        <g id="n13xdwhg" class="note">
                           <g class="notehead">
                              <use xlink:href="#E0A4-xortag" x="8628" y="1625" height="720px" width="720px" />
                           </g>
                           <g id="s1ycscxz" class="stem">
                              <rect x="8836" y="995" height="602" width="18" />
                           </g>
                        </g>
                        <g id="n1qr9evx" class="note">
                           <g class="notehead">
                              <use xlink:href="#E0A4-xortag" x="8971" y="1535" height="720px" width="720px" />
                           </g>
                           <g id="s1bb2qhs" class="stem">
                              <rect x="9179" y="923" height="584" width="18" />
                           </g>
                        </g>
                     </g>
                     <g id="b1y4xxt" class="beam">
                        <polygon points="9522,860 10056,860 10056,950 9522,950" />
                        <g id="n9deb2l" class="note">
                           <g class="notehead">
                              <use xlink:href="#E0A4-xortag" x="9314" y="1445" height="720px" width="720px" />
                           </g>
                           <g id="s1mycv5" class="stem">
                              <rect x="9522" y="878" height="539" width="18" />
                           </g>
                           <g id="a1xy09e1" class="accid" />
                        </g>
                        <g id="nm4cf9c" class="note">
                           <g class="notehead">
                              <use xlink:href="#E0A4-xortag" x="9830" y="1445" height="720px" width="720px" />
                           </g>
                           <g id="s14rm7cq" class="stem">
                              <rect x="10038" y="878" height="539" width="18" />
                           </g>
                           <g id="aicezkw" class="accid" />
                        </g>
                     </g>
                  </g>
               </g>
               <g id="b1uk4way" class="barLine">
                  <path d="M10346 1085 L10346 1805" stroke="currentColor" stroke-width="27" />
               </g>
            </g>
            <g id="m1d6wi01" class="measure">
               <g id="sc21hnz" class="staff">
                  <path d="M10359 1085 L12788 1085" stroke="currentColor" stroke-width="13" />
                  <path d="M10359 1265 L12788 1265" stroke="currentColor" stroke-width="13" />
                  <path d="M10359 1445 L12788 1445" stroke="currentColor" stroke-width="13" />
                  <path d="M10359 1625 L12788 1625" stroke="currentColor" stroke-width="13" />
                  <path d="M10359 1805 L12788 1805" stroke="currentColor" stroke-width="13" />
                  <g id="l1tehf0a" class="layer">
                     <g id="bo6aa98" class="beam">
                        <polygon points="10541,1850 11418,1850 11418,1760 10541,1760" />
                        <polygon points="11066,1715 11418,1715 11418,1625 11066,1625" />
                        <g id="n1r50dub" class="note">
                           <g class="notehead">
                              <use xlink:href="#E0A4-xortag" x="10541" y="1265" height="720px" width="720px" />
                           </g>
                           <g id="s8993u0" class="stem">
                              <rect x="10541" y="1293" height="539" width="18" />
                           </g>
                        </g>
                        <g id="n1dvjlv6" class="note">
                           <g class="notehead">
                              <use xlink:href="#E0A4-xortag" x="11057" y="1175" height="720px" width="720px" />
                           </g>
                           <g id="s1t05frq" class="stem">
                              <rect x="11057" y="1203" height="629" width="18" />
                           </g>
                           <g id="a8np96n" class="accid" />
                        </g>
                        <g id="nuw23cc" class="note">
                           <g class="notehead">
                              <use xlink:href="#E0A4-xortag" x="11400" y="1265" height="720px" width="720px" />
                           </g>
                           <g id="s60zkm" class="stem">
                              <rect x="11400" y="1293" height="539" width="18" />
                           </g>
                        </g>
                     </g>
                     <g id="b1n029s6" class="beam">
                        <polygon points="11743,2030 12277,1985 12277,1895 11743,1940" />
                        <g id="n162mcwi" class="note">
                           <g class="notehead">
                              <use xlink:href="#E0A4-xortag" x="11743" y="1355" height="720px" width="720px" />
                           </g>
                           <g id="swtz7zr" class="stem">
                              <rect x="11743" y="1383" height="629" width="18" />
                           </g>
                        </g>
                        <g id="n300678" class="note">
                           <g class="notehead">
                              <use xlink:href="#E0A4-xortag" x="12259" y="1265" height="720px" width="720px" />
                           </g>
                           <g id="s1ys9kcz" class="stem">
                              <rect x="12259" y="1293" height="674" width="18" />
                           </g>
                        </g>
                     </g>
                  </g>
               </g>
               <g id="bk3na0l" class="barLine">
                  <path d="M12775 1085 L12775 1805" stroke="currentColor" stroke-width="27" />
               </g>
            </g>
            <g id="m1ixzrp9" class="measure">
               <g id="s1gbde45" class="staff">
                  <path d="M12788 1085 L15217 1085" stroke="currentColor" stroke-width="13" />
                  <path d="M12788 1265 L15217 1265" stroke="currentColor" stroke-width="13" />
                  <path d="M12788 1445 L15217 1445" stroke="currentColor" stroke-width="13" />
                  <path d="M12788 1625 L15217 1625" stroke="currentColor" stroke-width="13" />
                  <path d="M12788 1805 L15217 1805" stroke="currentColor" stroke-width="13" />
                  <g id="l19953f4" class="layer">
                     <g id="bo33ke4" class="beam">
                        <polygon points="12970,2030 13504,2030 13504,1940 12970,1940" />
                        <g id="ndb1hz6" class="note">
                           <g class="notehead">
                              <use xlink:href="#E0A4-xortag" x="12970" y="1445" height="720px" width="720px" />
                           </g>
                           <g id="s1khfio5" class="stem">
                              <rect x="12970" y="1473" height="539" width="18" />
                           </g>
                           <g id="a12t1rdx" class="accid" />
                        </g>
                        <g id="nx7693s" class="note">
                           <g class="notehead">
                              <use xlink:href="#E0A4-xortag" x="13486" y="1445" height="720px" width="720px" />
                           </g>
                           <g id="s1wj5cze" class="stem">
                              <rect x="13486" y="1473" height="539" width="18" />
                           </g>
                           <g id="a1wzqd6x" class="accid" />
                        </g>
                     </g>
                     <g id="b14lgabd" class="beam">
                        <polygon points="14002,1985 14879,1985 14879,1895 14002,1895" />
                        <polygon points="14527,1850 14879,1850 14879,1760 14527,1760" />
                        <g id="n1fgbn0e" class="note">
                           <g class="notehead">
                              <use xlink:href="#E0A4-xortag" x="14002" y="1355" height="720px" width="720px" />
                           </g>
                           <g id="sjr54g3" class="stem">
                              <rect x="14002" y="1383" height="584" width="18" />
                           </g>
                        </g>
                        <g id="n4tlm3f" class="note">
                           <g class="notehead">
                              <use xlink:href="#E0A4-xortag" x="14518" y="1265" height="720px" width="720px" />
                           </g>
                           <g id="s66tbi4" class="stem">
                              <rect x="14518" y="1293" height="674" width="18" />
                           </g>
                        </g>
                        <g id="npvez68" class="note">
                           <g class="notehead">
                              <use xlink:href="#E0A4-xortag" x="14861" y="1355" height="720px" width="720px" />
                           </g>
                           <g id="s12yzxyd" class="stem">
                              <rect x="14861" y="1383" height="584" width="18" />
                           </g>
                        </g>
                     </g>
                  </g>
               </g>
               <g id="be43yf0" class="barLine">
                  <path d="M15204 1085 L15204 1805" stroke="currentColor" stroke-width="27" />
               </g>
            </g>
            <g id="mvhxw6h" class="measure">
               <g id="sec6zcw" class="staff">
                  <path d="M15217 1085 L17574 1085" stroke="currentColor" stroke-width="13" />
                  <path d="M15217 1265 L17574 1265" stroke="currentColor" stroke-width="13" />
                  <path d="M15217 1445 L17574 1445" stroke="currentColor" stroke-width="13" />
                  <path d="M15217 1625 L17574 1625" stroke="currentColor" stroke-width="13" />
                  <path d="M15217 1805 L17574 1805" stroke="currentColor" stroke-width="13" />
                  <g id="lkbbciy" class="layer">
                     <g id="b1awanjr" class="beam">
                        <polygon points="15607,860 16141,905 16141,995 15607,950" />
                        <g id="n1n6zm2w" class="note">
                           <g class="notehead">
                              <use xlink:href="#E0A4-xortag" x="15399" y="1445" height="720px" width="720px" />
                           </g>
                           <g id="s5biy4b" class="stem">
                              <rect x="15607" y="878" height="539" width="18" />
                           </g>
                           <g id="a1wv69kv" class="accid" />
                        </g>
                        <g id="n1brsztf" class="note">
                           <g class="notehead">
                              <use xlink:href="#E0A4-xortag" x="15915" y="1535" height="720px" width="720px" />
                           </g>
                           <g id="s3tuckf" class="stem">
                              <rect x="16123" y="923" height="584" width="18" />
                           </g>
                        </g>
                     </g>
                     <g id="noqtbf5" class="note">
                        <g class="notehead">
                           <use xlink:href="#E0A4-xortag" x="16431" y="1625" height="720px" width="720px" />
                        </g>
                        <g id="sqym1ad" class="stem">
                           <rect x="16639" y="995" height="602" width="18" />
                           <g id="f19u202f" class="flag">
                              <use xlink:href="#E240-xortag" x="16639" y="995" height="720px" width="720px" />
                           </g>
                        </g>
                     </g>
                     <g id="rtqphx3" class="rest">
                        <use xlink:href="#E4E6-xortag" x="16947" y="1445" height="720px" width="720px" />
                     </g>
                  </g>
               </g>
               <g id="b18g6lbo" class="barLine">
                  <path d="M17462 1085 L17462 1805" stroke="currentColor" stroke-width="27" />
                  <path d="M17561 1085 L17561 1805" stroke="currentColor" stroke-width="27" />
               </g>
            </g>
            <g id="m1b88nps" class="measure">
               <g id="s3ele5h" class="staff">
                  <path d="M17574 1085 L20003 1085" stroke="currentColor" stroke-width="13" />
                  <path d="M17574 1265 L20003 1265" stroke="currentColor" stroke-width="13" />
                  <path d="M17574 1445 L20003 1445" stroke="currentColor" stroke-width="13" />
                  <path d="M17574 1625 L20003 1625" stroke="currentColor" stroke-width="13" />
                  <path d="M17574 1805 L20003 1805" stroke="currentColor" stroke-width="13" />
                  <g id="l1nzvsag" class="layer">
                     <g id="b11pkolh" class="beam">
                        <polygon points="17756,1850 18633,1850 18633,1760 17756,1760" />
                        <polygon points="18281,1715 18633,1715 18633,1625 18281,1625" />
                        <g id="n17yv0ah" class="note">
                           <g class="notehead">
                              <use xlink:href="#E0A4-xortag" x="17756" y="1265" height="720px" width="720px" />
                           </g>
                           <g id="s1kdon78" class="stem">
                              <rect x="17756" y="1293" height="539" width="18" />
                           </g>
                        </g>
                        <g id="ngs8lel" class="note">
                           <g class="notehead">
                              <use xlink:href="#E0A4-xortag" x="18272" y="1175" height="720px" width="720px" />
                           </g>
                           <g id="s1bk7um2" class="stem">
                              <rect x="18272" y="1203" height="629" width="18" />
                           </g>
                           <g id="a1vu2qi8" class="accid" />
                        </g>
                        <g id="ndvta4q" class="note">
                           <g class="notehead">
                              <use xlink:href="#E0A4-xortag" x="18615" y="1265" height="720px" width="720px" />
                           </g>
                           <g id="sitnjb1" class="stem">
                              <rect x="18615" y="1293" height="539" width="18" />
                           </g>
                        </g>
                     </g>
                     <g id="b1hlxu1n" class="beam">
                        <polygon points="18958,2030 19492,1985 19492,1895 18958,1940" />
                        <g id="nk2nj1i" class="note">
                           <g class="notehead">
                              <use xlink:href="#E0A4-xortag" x="18958" y="1355" height="720px" width="720px" />
                           </g>
                           <g id="sda1aj9" class="stem">
                              <rect x="18958" y="1383" height="629" width="18" />
                           </g>
                        </g>
                        <g id="n1tpl9td" class="note">
                           <g class="notehead">
                              <use xlink:href="#E0A4-xortag" x="19474" y="1175" height="720px" width="720px" />
                           </g>
                           <g id="s6rv2qj" class="stem">
                              <rect x="19474" y="1203" height="764" width="18" />
                           </g>
                           <g id="aifrktr" class="accid" />
                        </g>
                     </g>
                  </g>
               </g>
               <g id="be3n9u5" class="barLine">
                  <path d="M19990 1085 L19990 1805" stroke="currentColor" stroke-width="27" />
               </g>
            </g>
            <g id="s9grc18" class="sb" />
         </g>
         <g id="szvxy0z" class="system">
            <g id="lvb8pl5" class="labelAbbr">
               <text x="914" y="3884" text-anchor="end" font-size="0px">
                  <tspan id="to3f4vo" class="text">
                     <tspan font-size="405px" class="text">Pno.</tspan>
                  </tspan>
               </text>
            </g>
            <g id="m1jctivp" class="measure">
               <g id="m7wk35v" class="mNum autogenerated">
                  <text x="1094" y="3191" text-anchor="middle" font-size="0px">
                     <tspan id="tpty5cq" class="text">
                        <tspan font-size="324px" class="text">8</tspan>
                     </tspan>
                  </text>
               </g>
               <g id="s894pp1" class="staff">
                  <path d="M1094 3434 L4409 3434" stroke="currentColor" stroke-width="13" />
                  <path d="M1094 3614 L4409 3614" stroke="currentColor" stroke-width="13" />
                  <path d="M1094 3794 L4409 3794" stroke="currentColor" stroke-width="13" />
                  <path d="M1094 3974 L4409 3974" stroke="currentColor" stroke-width="13" />
                  <path d="M1094 4154 L4409 4154" stroke="currentColor" stroke-width="13" />
                  <g id="cwauu52" class="clef">
                     <use xlink:href="#E050-xortag" x="1184" y="3974" height="720px" width="720px" />
                  </g>
                  <g id="k1an8v14" class="keySig">
                     <g id="k1vzniz0" class="keyAccid">
                        <use xlink:href="#E260-xortag" x="1829" y="3794" height="720px" width="720px" />
                     </g>
                     <g id="kb0kb54" class="keyAccid">
                        <use xlink:href="#E260-xortag" x="2009" y="3524" height="720px" width="720px" />
                     </g>
                  </g>
                  <g id="l1usubsp" class="layer">
                     <g id="n1ewrpdc" class="note">
                        <g class="notehead">
                           <use xlink:href="#E0A4-xortag" x="2421" y="3614" height="720px" width="720px" />
                        </g>
                        <g id="skp0zhn" class="stem">
                           <rect x="2421" y="3642" height="602" width="18" />
                        </g>
                     </g>
                     <g id="b4k003f" class="beam">
                        <polygon points="3205,4199 4074,4199 4074,4109 3205,4109" />
                        <polygon points="3725,4064 4074,4064 4074,3974 3725,3974" />
                        <g id="n1kbaaqp" class="note">
                           <g class="notehead">
                              <use xlink:href="#E0A4-xortag" x="3205" y="3614" height="720px" width="720px" />
                           </g>
                           <g id="s3g5p0n" class="stem">
                              <rect x="3205" y="3642" height="539" width="18" />
                           </g>
                        </g>
                        <g id="ncef5i3" class="note">
                           <g class="notehead">
                              <use xlink:href="#E0A4-xortag" x="3716" y="3524" height="720px" width="720px" />
                           </g>
                           <g id="sqewu1y" class="stem">
                              <rect x="3716" y="3552" height="629" width="18" />
                           </g>
                           <g id="au6t5hy" class="accid" />
                        </g>
                        <g id="n1ngq5yi" class="note">
                           <g class="notehead">
                              <use xlink:href="#E0A4-xortag" x="4056" y="3614" height="720px" width="720px" />
                           </g>
                           <g id="s9lwfmy" class="stem">
                              <rect x="4056" y="3642" height="539" width="18" />
                           </g>
                        </g>
                     </g>
                  </g>
               </g>
               <g id="b10q1cl3" class="barLine">
                  <path d="M4396 3434 L4396 4154" stroke="currentColor" stroke-width="27" />
               </g>
            </g>
            <g id="moy1qwg" class="measure">
               <g id="secsbl3" class="staff">
                  <path d="M4409 3434 L6808 3434" stroke="currentColor" stroke-width="13" />
                  <path d="M4409 3614 L6808 3614" stroke="currentColor" stroke-width="13" />
                  <path d="M4409 3794 L6808 3794" stroke="currentColor" stroke-width="13" />
                  <path d="M4409 3974 L6808 3974" stroke="currentColor" stroke-width="13" />
                  <path d="M4409 4154 L6808 4154" stroke="currentColor" stroke-width="13" />
                  <g id="llpbcmz" class="layer">
                     <g id="b1l1hdqd" class="beam">
                        <polygon points="4589,4379 5118,4334 5118,4244 4589,4289" />
                        <g id="nqgovmz" class="note">
                           <g class="notehead">
                              <use xlink:href="#E0A4-xortag" x="4589" y="3704" height="720px" width="720px" />
                           </g>
                           <g id="s1su2y08" class="stem">
                              <rect x="4589" y="3732" height="629" width="18" />
                           </g>
                        </g>
                        <g id="nzxhcql" class="note">
                           <g class="notehead">
                              <use xlink:href="#E0A4-xortag" x="5100" y="3524" height="720px" width="720px" />
                           </g>
                           <g id="s18widvd" class="stem">
                              <rect x="5100" y="3552" height="764" width="18" />
                           </g>
                           <g id="a1gx5kg1" class="accid" />
                        </g>
                     </g>
                     <g id="n10ju8hn" class="note">
                        <g class="notehead">
                           <use xlink:href="#E0A4-xortag" x="5611" y="3614" height="720px" width="720px" />
                        </g>
                        <g id="s1cir7yi" class="stem">
                           <rect x="5611" y="3642" height="602" width="18" />
                           <g id="f35i52r" class="flag">
                              <use xlink:href="#E241-xortag" x="5611" y="4244" height="720px" width="720px" />
                           </g>
                        </g>
                     </g>
                     <g id="r1dgujxl" class="rest">
                        <use xlink:href="#E4E6-xortag" x="6122" y="3794" height="720px" width="720px" />
                     </g>
                  </g>
               </g>
               <g id="b14ipjdt" class="barLine">
                  <path d="M6633 3434 L6633 4154" stroke="currentColor" stroke-width="27" />
                  <path d="M6763 3434 L6763 4154" stroke="currentColor" stroke-width="90" />
               </g>
            </g>
            <g id="sl50f8o" class="systemMilestoneEnd sdnxtrn" />
         </g>
         <g id="p1qmf091" class="pageMilestoneEnd s9owqf7" />
         <g id="pz4wwm2" class="pageMilestoneEnd m1gagrqs" />
         <g id="p19j4efo" class="pgHead">
            <text x="0" y="0" font-size="0px">
               <tspan id="rn15vz8" class="rend" x="10000" y="277" text-anchor="middle">
                  <tspan id="t1lvwrj9" class="text">
                     <tspan font-size="405px" class="text">Air n 137</tspan>
                  </tspan>
               </tspan>
            </text>
         </g>
         <g id="pyd1kko" class="pgFoot autogenerated">
            <g id="fwcneuq" class="fig">
               <g id="svxildw" class="svg" transform="translate(7750, 28099) scale(10, 10)">
                  <g>
                     <path fill="#00000" d="M 17.11278,49.26451 V 10.367554 h 12.696511 c 3.288815,7.336676 6.71267,14.610456 10.127281,21.888976 3.419998,-7.484684 6.255515,-14.204887 9.58887,-21.909915 2.436207,0.103726 4.316952,0.08453 6.484294,-0.05808 V 49.264423 H 50.274275 C 50.145222,38.35639 50.016136,27.448368 49.887066,16.540329 45.003488,27.315459 39.967448,38.433564 35.083854,49.208695 34.678996,49.343717 34.426583,49.135619 34.021726,49.270644 29.46588,39.330716 24.910049,29.390805 20.354201,19.450876 20.224341,29.388756 20.09461,39.326619 19.964815,49.264497 H 17.11278 Z M 36.754144,39.324695 C 32.721221,30.512695 28.6883,21.700679 24.655394,12.888662 22.530527,12.750737 22.656775,12.71031 20.714356,12.813974 v 0.966497 c 4.612938,9.99784 9.609439,20.748709 13.87298,30.081745 0.722248,-1.512523 1.444528,-3.025014 2.166808,-4.537521 z m 25.738417,9.939815 c 0,-12.965651 0,-25.931305 0,-38.896956 10.084388,0 20.168791,0 30.253178,0 0,0.960416 0,1.920849 0,2.881265 -6.482825,0 -12.965652,0 -19.448478,0 0,4.802097 0,9.604178 0,14.406277 5.52241,0 11.044819,0 16.567229,0 0,0.960415 0,1.920832 0,2.881248 -5.52241,0 -11.044819,0 -16.567229,0 0,5.282306 0,10.564611 0,15.846917 6.963035,0 13.926068,0 20.889103,0 0,0.960416 0,1.920832 0,2.881249 -10.564597,0 -21.129207,0 -31.693803,0 z m 4.321874,-2.160937 c 0,-11.765131 0,-23.530263 0,-35.295394 -0.720312,0 -1.440625,0 -2.160937,0 0,11.765131 0,23.530263 0,35.295394 0.720312,0 1.440625,0 2.160937,0 z m 32.41413,2.160937 c 0,-12.965651 0,-25.931305 0,-38.896956 2.401045,0 4.802095,0 7.203135,0 0,12.965651 0,25.931305 0,38.896956 -2.40104,0 -4.80209,0 -7.203135,0 z m 2.881265,-2.160937 c 0,-11.765131 0,-23.530263 0,-35.295394 -0.72031,0 -1.44064,0 -2.160953,0 0,11.765131 0,23.530263 0,35.295394 0.720313,0 1.440643,0 2.160953,0 z" />
                     <path fill="#00000" d="m 346.3,6.7 c -3.1,0.5 -4.9,4.4 -2.7,6.8 1.2,1.4 2.7,2.4 4.1,3.5 -2.4,5.3 -7.7,8.3 -11.9,12.1 -3.7,2.8 -7,6.2 -9.7,9.9 -2.2,-0.8 -0.3,-6.8 -0.6,-9.5 0.1,-3.1 0.7,-6.4 2.9,-8.7 1.3,-1.9 3,-3.5 4.5,-5.2 1.2,-3.4 -3.2,-4.9 -5.8,-4.6 -7.3,-0.5 -14.6,2 -20,6.8 -5,4.6 -10,10.1 -11.5,17 -0.9,3.5 -0.2,7.5 2.8,9.9 2.5,2.8 7.4,2.9 9.8,-0.2 1.7,-2.3 3.2,-4.8 3.8,-7.6 -0.1,-2.6 -4.4,-2.3 -4.3,0.2 1.2,2.4 -0.9,4.7 -2.7,6.2 -1.7,0.9 -4.7,0.7 -4.8,-1.7 -1,-5.8 2.1,-11.3 5.2,-16.1 4,-5.8 9.8,-11.2 17.2,-11.8 1.6,0 8.1,-1.2 6.8,1.4 -2.8,2.8 -5.6,6.1 -6,10.3 -1.6,7.7 0.1,15.7 -2.3,23.2 -1.1,3.9 2,2.6 2.5,0.2 3.3,-7.4 8.9,-13.4 15.1,-18.5 4.2,-3.9 9.5,-7.1 11.9,-12.6 1.3,-3.6 1.2,-9 -2.7,-10.9 -0.6,-0.2 -1.2,-0.3 -1.8,-0.3 z m 66,14.5 c -2,0.8 -1.8,4.9 0.8,4.4 3.4,0.4 2.9,-6.2 -0.8,-4.4 z m 0.6,7.3 c -1.3,0.5 -7.6,0.5 -5.4,2.2 4,-0.3 0.7,4.5 0.6,6.7 -0.4,2.9 -2.4,5.9 -1.2,8.8 2.7,1.7 5.6,-0.8 6.8,-3.2 1.6,-1.4 -0.5,-3 -1.2,-0.9 -0.4,0.8 -2.4,3.5 -2.6,1.8 1.1,-5 2.7,-9.9 3.9,-14.9 l -0.1,-0.5 h -0.9 z m -65.1,0.2 c -6.5,1.6 -10.5,9.5 -8.2,15.7 2.1,3.4 7.4,2.9 10.1,0.4 2,-0.2 3.6,-5.3 1,-3.4 -1.4,2 -4,4.2 -6.5,2.8 -2.2,-1.9 -1.9,-5.7 1.7,-5.3 3.1,-0.9 6.9,-2.1 8.1,-5.5 0.9,-2.7 -1.6,-5.2 -4.3,-4.8 h -1.1 -0.7 z m 13.6,0 c -2.2,0 -8.5,1.8 -2.9,2.3 0.9,1.9 -1,4.9 -1.1,7.2 -0.5,2.9 -1.4,5.7 -1.7,8.7 3.7,0.7 3.8,-2.6 4.4,-5.3 0.9,-3.3 1.6,-7 4.1,-9.5 2.4,1.6 6.8,-0.7 3.7,-3.4 -2.9,-0.5 -4.8,2.4 -6.2,4.3 0,-1.2 2.4,-5 -0.2,-4.3 z m 15.8,0 c -6.4,1.3 -9.6,9.1 -7.7,14.9 1.9,4 7.7,3.9 11,1.7 4.1,-3 6,-8.9 4.4,-13.7 -1.3,-3 -4.8,-3.2 -7.6,-3 z m 17,0 c -2.3,0 -8.8,1.9 -3,2.4 0.4,2.5 -1,5.7 -1.4,8.4 -0.7,2.4 -1.8,7.5 2.1,7.2 3.8,-0.1 6.5,-3.5 8.5,-6.3 2,-3.2 4.5,-7 3.3,-10.9 -3.7,-3 -3.6,2.6 -3.1,5.1 -0.7,3.8 -2.7,7.9 -6.2,9.8 -3.6,0.6 -1,-4.3 -0.8,-6.1 0.6,-3.2 1.6,-6.3 1.9,-9.5 -0.4,0 -0.8,0 -1.1,0 z m 30.6,0 c -6.3,1.2 -9.5,8.9 -7.8,14.7 1.5,4 7.2,4.2 10.5,2.4 4.6,-2.8 6.6,-9.3 4.8,-14.3 -1.4,-2.8 -4.8,-3 -7.5,-2.8 z m -75.4,1.7 c 2.1,1.5 0.2,4.7 -1.6,5.7 -1.1,0.4 -5.5,3.4 -4.6,0.7 0.8,-2.7 2.2,-6.2 5.3,-6.6 l 0.9,0.1 z m 30.8,0 c 2.6,1.5 1.3,5.2 0.8,7.6 -0.8,2.7 -1.9,5.9 -4.7,7.1 -5.1,0.8 -4,-5.8 -2.8,-8.8 1,-2.8 3,-6.8 6.7,-5.8 z m 47.1,-0.1 c 2.9,0.7 2,4.7 1.5,6.8 -0.7,3 -1.8,6.7 -5,8 -4.7,0.8 -4,-5.1 -3,-7.9 0.9,-3 2.7,-7.3 6.5,-6.8 z m -88.1,5.9 c -0.3,1.3 0.9,-0.6 0,0 z m -1.1,2.4 c -0.2,0.5 0.5,-0.1 0,0 z m -1.3,4.5 c -0.3,1.3 0.8,-0.2 0,0 z" />
                     <text y="41" x="201" fill="#00000" style="font-style:italic;font-weight:normal;font-size:30px;line-height:125%;font-family:Times;text-anchor:middle" xml:space="preserve">engraved with</text>
                  </g>
               </g>
            </g>
         </g>
      </g>
   </svg>
</svg>
