<?xml version="1.0" encoding="UTF-8" standalone="no"?>
<svg width="2100px" height="2970px" version="1.1" xmlns="http://www.w3.org/2000/svg" xmlns:xlink="http://www.w3.org/1999/xlink" xmlns:mei="http://www.music-encoding.org/ns/mei" overflow="visible">
   <desc>Engraved by Verovio 3.13.1</desc>
   <defs>
      <symbol id="E044-1vj6c51" viewBox="0 0 1000 1000" overflow="inherit">
         <path transform="scale(1,-1)" d="M0 0c0 28 22 50 50 50s50 -22 50 -50s-22 -50 -50 -50s-50 22 -50 50z" />
      </symbol>
      <symbol id="E050-1vj6c51" viewBox="0 0 1000 1000" overflow="inherit">
         <path transform="scale(1,-1)" d="M441 -245c-23 -4 -48 -6 -76 -6c-59 0 -102 7 -130 20c-88 42 -150 93 -187 154c-26 44 -43 103 -48 176c0 6 -1 13 -1 19c0 54 15 111 45 170c29 57 65 106 110 148s96 85 153 127c-3 16 -8 46 -13 92c-4 43 -5 73 -5 89c0 117 16 172 69 257c34 54 64 82 89 82 c21 0 43 -30 69 -92s39 -115 41 -159v-15c0 -109 -21 -162 -67 -241c-13 -20 -63 -90 -98 -118c-13 -9 -25 -19 -37 -29l31 -181c8 1 18 2 28 2c58 0 102 -12 133 -35c59 -43 92 -104 98 -184c1 -7 1 -15 1 -22c0 -123 -87 -209 -181 -248c8 -57 17 -110 25 -162 c5 -31 6 -58 6 -80c0 -30 -5 -53 -14 -70c-35 -64 -88 -99 -158 -103c-5 0 -11 -1 -16 -1c-37 0 -72 10 -108 27c-50 24 -77 59 -80 105v11c0 29 7 55 20 76c18 28 45 42 79 44h6c49 0 93 -42 97 -87v-9c0 -51 -34 -86 -105 -106c17 -24 51 -36 102 -36c62 0 116 43 140 85 c9 16 13 41 13 74c0 20 -1 42 -5 67c-8 53 -18 106 -26 159zM461 939c-95 0 -135 -175 -135 -286c0 -24 2 -48 5 -71c50 39 92 82 127 128c40 53 60 100 60 140v8c-4 53 -22 81 -55 81h-2zM406 119l54 -326c73 25 110 78 110 161c0 7 0 15 -1 23c-7 95 -57 142 -151 142h-12 zM382 117c-72 -2 -128 -47 -128 -120v-7c2 -46 43 -99 75 -115c-3 -2 -7 -5 -10 -10c-70 33 -116 88 -123 172v11c0 68 44 126 88 159c23 17 49 29 78 36l-29 170c-21 -13 -52 -37 -92 -73c-50 -44 -86 -84 -109 -119c-45 -69 -67 -130 -67 -182v-13c5 -68 35 -127 93 -176 s125 -73 203 -73c25 0 50 3 75 9c-19 111 -36 221 -54 331z" />
      </symbol>
      <symbol id="E081-1vj6c51" viewBox="0 0 1000 1000" overflow="inherit">
         <path transform="scale(1,-1)" d="M68 -250v36c23 0 40 6 49 18c8 14 12 33 12 57v250l-82 -129l-27 13l107 255h128v-394c0 -24 5 -42 14 -53s25 -17 47 -17v-36h-248z" />
      </symbol>
      <symbol id="E082-1vj6c51" viewBox="0 0 1000 1000" overflow="inherit">
         <path transform="scale(1,-1)" d="M124 -185c-18 0 -55 -14 -65 -65h-36l-3 30c0 25 6 45 18 63c11 19 22 30 39 43l121 82l37 29c15 11 27 29 38 54c12 24 18 47 18 70c0 40 -19 88 -94 88c-25 0 -32 0 -50 -8c-14 -5 -23 -12 -26 -22c3 -9 7 -15 10 -18l24 -17c12 -7 17 -11 27 -21c5 -7 7 -16 7 -27 c0 -12 0 -57 -79 -74c-30 0 -76 26 -76 94c0 66 81 135 197 135c72 0 181 -32 181 -150c0 -53 -32 -95 -113 -133l-91 -41c-26 -11 -45 -23 -57 -37l49 7c84 0 115 -41 148 -41c20 0 33 20 39 61h35c0 -152 -68 -168 -114 -168c-17 0 -65 0 -79 7h10l-28 17 c-49 37 -69 40 -87 42z" />
      </symbol>
      <symbol id="E084-1vj6c51" viewBox="0 0 1000 1000" overflow="inherit">
         <path transform="scale(1,-1)" d="M20 -78c84 97 114 180 134 329h170c-13 -32 -82 -132 -99 -151l-84 -97c-33 -36 -59 -63 -80 -81h162v102l127 123v-225h57v-39h-57v-34c0 -43 19 -65 57 -65v-34h-244v36c48 0 60 26 60 70v27h-203v39z" />
      </symbol>
      <symbol id="E0A4-1vj6c51" viewBox="0 0 1000 1000" overflow="inherit">
         <path transform="scale(1,-1)" d="M0 -39c0 68 73 172 200 172c66 0 114 -37 114 -95c0 -84 -106 -171 -218 -171c-64 0 -96 30 -96 94z" />
      </symbol>
      <symbol id="E260-1vj6c51" viewBox="0 0 1000 1000" overflow="inherit">
         <path transform="scale(1,-1)" d="M20 110c32 16 54 27 93 27c26 0 35 -3 54 -13c13 -7 24 -20 27 -38l4 -25c0 -28 -16 -57 -45 -89c-23 -25 -39 -44 -65 -68l-88 -79v644h20v-359zM90 106c-32 0 -48 -10 -70 -29v-194c31 31 54 59 71 84c21 32 32 59 32 84c0 9 1 16 1 20c0 14 -3 21 -11 30l-8 3z" />
      </symbol>
   </defs>
   <style type="text/css">g.page-margin{font-family:Times;} g.ending, g.fing, g.reh, g.tempo{font-weight:bold;} g.dir, g.dynam, g.mNum{font-style:italic;} g.label{font-weight:normal;}</style>
   <svg class="definition-scale" color="black" viewBox="0 0 21000 29700">
      <g class="page-margin" transform="translate(500, 500)">
         <g id="mbwtaj7" class="mdiv pageMilestone" />
         <g id="sbkc140" class="score pageMilestone" />
         <g id="slxnszr" class="system">
            <g id="l77d4xh" class="label">
               <text x="1105" y="1535" text-anchor="end" font-size="0px">
                  <tspan id="t1n6l4d" class="text">
                     <tspan font-size="405px" class="text">Piano</tspan>
                  </tspan>
               </text>
            </g>
            <g id="s1dni08l" class="section systemMilestone" />
            <g id="p1dtw0bw" class="pb" />
            <g id="mlobr57" class="measure">
               <g id="miia1as" class="mNum">
                  <text x="1285" y="842" text-anchor="middle" font-size="0px" />
               </g>
               <g id="svhgl21" class="staff">
                  <path d="M1285 1085 L4125 1085" stroke="currentColor" stroke-width="13" />
                  <path d="M1285 1265 L4125 1265" stroke="currentColor" stroke-width="13" />
                  <path d="M1285 1445 L4125 1445" stroke="currentColor" stroke-width="13" />
                  <path d="M1285 1625 L4125 1625" stroke="currentColor" stroke-width="13" />
                  <path d="M1285 1805 L4125 1805" stroke="currentColor" stroke-width="13" />
                  <g id="csnadlc" class="clef">
                     <use xlink:href="#E050-1vj6c51" x="1375" y="1625" height="720px" width="720px" />
                  </g>
                  <g id="k1m6q4m1" class="keySig">
                     <g id="kxhzn2h" class="keyAccid">
                        <use xlink:href="#E260-1vj6c51" x="2020" y="1445" height="720px" width="720px" />
                     </g>
                     <g id="kcjow5i" class="keyAccid">
                        <use xlink:href="#E260-1vj6c51" x="2200" y="1175" height="720px" width="720px" />
                     </g>
                  </g>
                  <g id="mdvgcnj" class="meterSig">
                     <use xlink:href="#E082-1vj6c51" x="2508" y="1265" height="720px" width="720px" />
                     <use xlink:href="#E084-1vj6c51" x="2513" y="1625" height="720px" width="720px" />
                  </g>
                  <g id="l6jjav2" class="layer">
                     <g id="bit25wm" class="beam">
                        <polygon points="3288,1040 3822,1040 3822,1130 3288,1130" />
                        <g id="nw90fre" class="note">
                           <g class="notehead">
                              <use xlink:href="#E0A4-1vj6c51" x="3080" y="1625" height="720px" width="720px" />
                           </g>
                           <g id="scxcjmg" class="stem">
                              <rect x="3288" y="1058" height="539" width="18" />
                           </g>
                        </g>
                        <g id="n109efvj" class="note">
                           <g class="notehead">
                              <use xlink:href="#E0A4-1vj6c51" x="3596" y="1625" height="720px" width="720px" />
                           </g>
                           <g id="s4kjglx" class="stem">
                              <rect x="3804" y="1058" height="539" width="18" />
                           </g>
                        </g>
                     </g>
                  </g>
               </g>
               <g id="b1xsu8yx" class="barLine">
                  <path d="M4112 1085 L4112 1805" stroke="currentColor" stroke-width="27" />
               </g>
            </g>
            <g id="m12vok9" class="measure">
               <g id="s5eut06" class="staff">
                  <path d="M4125 1085 L6382 1085" stroke="currentColor" stroke-width="13" />
                  <path d="M4125 1265 L6382 1265" stroke="currentColor" stroke-width="13" />
                  <path d="M4125 1445 L6382 1445" stroke="currentColor" stroke-width="13" />
                  <path d="M4125 1625 L6382 1625" stroke="currentColor" stroke-width="13" />
                  <path d="M4125 1805 L6382 1805" stroke="currentColor" stroke-width="13" />
                  <g id="l1hp2zkn" class="layer">
                     <g id="b1muasgy" class="beam">
                        <polygon points="4512,860 5046,905 5046,995 4512,950" />
                        <g id="ncg1xta" class="note">
                           <g class="notehead">
                              <use xlink:href="#E0A4-1vj6c51" x="4304" y="1535" height="720px" width="720px" />
                           </g>
                           <g id="sjyf177" class="stem">
                              <rect x="4512" y="878" height="629" width="18" />
                           </g>
                        </g>
                        <g id="nbc8ioh" class="note">
                           <g class="notehead">
                              <use xlink:href="#E0A4-1vj6c51" x="4820" y="1625" height="720px" width="720px" />
                           </g>
                           <g id="srfo7j4" class="stem">
                              <rect x="5028" y="923" height="674" width="18" />
                           </g>
                        </g>
                     </g>
                     <g id="b1kdcvn7" class="beam">
                        <polygon points="5544,1040 6079,1085 6079,1175 5544,1130" />
                        <g id="n6e68h2" class="note">
                           <g class="notehead">
                              <use xlink:href="#E0A4-1vj6c51" x="5336" y="1715" height="720px" width="720px" />
                           </g>
                           <g id="s9tkxg1" class="stem">
                              <rect x="5544" y="1058" height="629" width="18" />
                           </g>
                        </g>
                        <g id="n86nm4t" class="note">
                           <g class="notehead">
                              <use xlink:href="#E0A4-1vj6c51" x="5853" y="1805" height="720px" width="720px" />
                           </g>
                           <g id="s4wysz7" class="stem">
                              <rect x="6061" y="1103" height="674" width="18" />
                           </g>
                           <g id="a1vexsd8" class="accid" />
                        </g>
                     </g>
                  </g>
               </g>
               <g id="bf9t5rz" class="barLine">
                  <path d="M6369 1085 L6369 1805" stroke="currentColor" stroke-width="27" />
               </g>
            </g>
            <g id="m6w6adt" class="measure">
               <g id="s1rx57ik" class="staff">
                  <path d="M6382 1085 L8399 1085" stroke="currentColor" stroke-width="13" />
                  <path d="M6382 1265 L8399 1265" stroke="currentColor" stroke-width="13" />
                  <path d="M6382 1445 L8399 1445" stroke="currentColor" stroke-width="13" />
                  <path d="M6382 1625 L8399 1625" stroke="currentColor" stroke-width="13" />
                  <path d="M6382 1805 L8399 1805" stroke="currentColor" stroke-width="13" />
                  <g id="lz783gk" class="layer">
                     <g id="n1ddqbb6" class="note">
                        <g class="notehead">
                           <use xlink:href="#E0A4-1vj6c51" x="6561" y="1895" height="720px" width="720px" />
                        </g>
                        <g id="s1hlbjb0" class="stem">
                           <rect x="6769" y="1265" height="602" width="18" />
                        </g>
                     </g>
                     <g id="b1k8azts" class="beam">
                        <polygon points="7562,1040 8096,1040 8096,1130 7562,1130" />
                        <g id="n1i3424q" class="note">
                           <g class="notehead">
                              <use xlink:href="#E0A4-1vj6c51" x="7354" y="1625" height="720px" width="720px" />
                           </g>
                           <g id="sb2ig7p" class="stem">
                              <rect x="7562" y="1058" height="539" width="18" />
                           </g>
                        </g>
                        <g id="nyiyfj6" class="note">
                           <g class="notehead">
                              <use xlink:href="#E0A4-1vj6c51" x="7870" y="1625" height="720px" width="720px" />
                           </g>
                           <g id="s1dj2pxi" class="stem">
                              <rect x="8078" y="1058" height="539" width="18" />
                           </g>
                        </g>
                     </g>
                  </g>
               </g>
               <g id="bwflahk" class="barLine">
                  <path d="M8386 1085 L8386 1805" stroke="currentColor" stroke-width="27" />
               </g>
            </g>
            <g id="mdgocgh" class="measure">
               <g id="s1ndyuq2" class="staff">
                  <path d="M8399 1085 L10416 1085" stroke="currentColor" stroke-width="13" />
                  <path d="M8399 1265 L10416 1265" stroke="currentColor" stroke-width="13" />
                  <path d="M8399 1445 L10416 1445" stroke="currentColor" stroke-width="13" />
                  <path d="M8399 1625 L10416 1625" stroke="currentColor" stroke-width="13" />
                  <path d="M8399 1805 L10416 1805" stroke="currentColor" stroke-width="13" />
                  <g id="l1e7jap1" class="layer">
                     <g id="b1ym7e7u" class="beam">
                        <polygon points="8786,860 9320,905 9320,995 8786,950" />
                        <g id="n17nl5cb" class="note">
                           <g class="notehead">
                              <use xlink:href="#E0A4-1vj6c51" x="8578" y="1535" height="720px" width="720px" />
                           </g>
                           <g id="siw5nos" class="stem">
                              <rect x="8786" y="878" height="629" width="18" />
                           </g>
                        </g>
                        <g id="nwg07xd" class="note">
                           <g class="notehead">
                              <use xlink:href="#E0A4-1vj6c51" x="9094" y="1625" height="720px" width="720px" />
                           </g>
                           <g id="s18tdrab" class="stem">
                              <rect x="9302" y="923" height="674" width="18" />
                           </g>
                        </g>
                     </g>
                     <g id="n1b7hdyu" class="note">
                        <g class="notehead">
                           <use xlink:href="#E0A4-1vj6c51" x="9610" y="1715" height="720px" width="720px" />
                        </g>
                        <g id="szx2alp" class="stem">
                           <rect x="9818" y="1085" height="602" width="18" />
                        </g>
                     </g>
                  </g>
               </g>
               <g id="b1jjzlt0" class="barLine">
                  <path d="M10403 1085 L10403 1805" stroke="currentColor" stroke-width="27" />
               </g>
            </g>
            <g id="m1ebvght" class="measure">
               <g id="s8gu73m" class="staff">
                  <path d="M10416 1085 L12021 1085" stroke="currentColor" stroke-width="13" />
                  <path d="M10416 1265 L12021 1265" stroke="currentColor" stroke-width="13" />
                  <path d="M10416 1445 L12021 1445" stroke="currentColor" stroke-width="13" />
                  <path d="M10416 1625 L12021 1625" stroke="currentColor" stroke-width="13" />
                  <path d="M10416 1805 L12021 1805" stroke="currentColor" stroke-width="13" />
                  <g id="mm9que1" class="meterSig">
                     <use xlink:href="#E081-1vj6c51" x="10525" y="1265" height="720px" width="720px" />
                     <use xlink:href="#E084-1vj6c51" x="10492" y="1625" height="720px" width="720px" />
                  </g>
                  <g id="l1x9j8xv" class="layer">
                     <g id="nq00sqk" class="note">
                        <g class="notehead">
                           <use xlink:href="#E0A4-1vj6c51" x="11053" y="1895" height="720px" width="720px" />
                        </g>
                        <g id="so9ykbm" class="stem">
                           <rect x="11261" y="1265" height="602" width="18" />
                        </g>
                     </g>
                  </g>
               </g>
               <g id="bxccdk4" class="barLine">
                  <path d="M11846 1085 L11846 1805" stroke="currentColor" stroke-width="27" />
                  <path d="M11976 1085 L11976 1805" stroke="currentColor" stroke-width="90" />
                  <use xlink:href="#E044-1vj6c51" x="11729" y="1355" height="720px" width="720px" />
                  <use xlink:href="#E044-1vj6c51" x="11729" y="1535" height="720px" width="720px" />
               </g>
            </g>
            <g id="m1ickhcu" class="measure">
               <g id="s1vdo4vg" class="staff">
                  <path d="M12021 1085 L13245 1085" stroke="currentColor" stroke-width="13" />
                  <path d="M12021 1265 L13245 1265" stroke="currentColor" stroke-width="13" />
                  <path d="M12021 1445 L13245 1445" stroke="currentColor" stroke-width="13" />
                  <path d="M12021 1625 L13245 1625" stroke="currentColor" stroke-width="13" />
                  <path d="M12021 1805 L13245 1805" stroke="currentColor" stroke-width="13" />
                  <g id="l1hs20ur" class="layer">
                     <g id="b6lw49d" class="beam">
                        <polygon points="12408,1040 12942,1040 12942,1130 12408,1130" />
                        <g id="nbcp99x" class="note">
                           <g class="notehead">
                              <use xlink:href="#E0A4-1vj6c51" x="12200" y="1625" height="720px" width="720px" />
                           </g>
                           <g id="sx5toee" class="stem">
                              <rect x="12408" y="1058" height="539" width="18" />
                           </g>
                        </g>
                        <g id="nakqt76" class="note">
                           <g class="notehead">
                              <use xlink:href="#E0A4-1vj6c51" x="12716" y="1625" height="720px" width="720px" />
                           </g>
                           <g id="s1kqitaf" class="stem">
                              <rect x="12924" y="1058" height="539" width="18" />
                           </g>
                        </g>
                     </g>
                  </g>
               </g>
               <g id="b1yaj5xa" class="barLine">
                  <path d="M13232 1085 L13232 1805" stroke="currentColor" stroke-width="27" />
               </g>
            </g>
            <g id="m1n5shjj" class="measure">
               <g id="s16z4lgj" class="staff">
                  <path d="M13245 1085 L15731 1085" stroke="currentColor" stroke-width="13" />
                  <path d="M13245 1265 L15731 1265" stroke="currentColor" stroke-width="13" />
                  <path d="M13245 1445 L15731 1445" stroke="currentColor" stroke-width="13" />
                  <path d="M13245 1625 L15731 1625" stroke="currentColor" stroke-width="13" />
                  <path d="M13245 1805 L15731 1805" stroke="currentColor" stroke-width="13" />
                  <g id="mucom97" class="meterSig">
                     <use xlink:href="#E082-1vj6c51" x="13321" y="1265" height="720px" width="720px" />
                     <use xlink:href="#E084-1vj6c51" x="13326" y="1625" height="720px" width="720px" />
                  </g>
                  <g id="l16lcp3k" class="layer">
                     <g id="n15lnkvj" class="note">
                        <g class="notehead">
                           <use xlink:href="#E0A4-1vj6c51" x="13893" y="1445" height="720px" width="720px" />
                        </g>
                        <g id="s19niv2j" class="stem">
                           <rect x="13893" y="1473" height="572" width="18" />
                        </g>
                        <g id="a14hwipe" class="accid" />
                     </g>
                     <g id="bzcw11s" class="beam">
                        <polygon points="14894,1040 15428,1040 15428,1130 14894,1130" />
                        <g id="n12od370" class="note">
                           <g class="notehead">
                              <use xlink:href="#E0A4-1vj6c51" x="14686" y="1625" height="720px" width="720px" />
                           </g>
                           <g id="scc6upu" class="stem">
                              <rect x="14894" y="1058" height="539" width="18" />
                           </g>
                        </g>
                        <g id="n1i2r0us" class="note">
                           <g class="notehead">
                              <use xlink:href="#E0A4-1vj6c51" x="15202" y="1625" height="720px" width="720px" />
                           </g>
                           <g id="sxwx9wq" class="stem">
                              <rect x="15410" y="1058" height="539" width="18" />
                           </g>
                        </g>
                     </g>
                  </g>
               </g>
               <g id="b1afnku0" class="barLine">
                  <path d="M15718 1085 L15718 1805" stroke="currentColor" stroke-width="27" />
               </g>
            </g>
            <g id="mesc6uv" class="measure">
               <g id="s1ka2z5z" class="staff">
                  <path d="M15731 1085 L17748 1085" stroke="currentColor" stroke-width="13" />
                  <path d="M15731 1265 L17748 1265" stroke="currentColor" stroke-width="13" />
                  <path d="M15731 1445 L17748 1445" stroke="currentColor" stroke-width="13" />
                  <path d="M15731 1625 L17748 1625" stroke="currentColor" stroke-width="13" />
                  <path d="M15731 1805 L17748 1805" stroke="currentColor" stroke-width="13" />
                  <g id="l1e55mfk" class="layer">
                     <g id="np9z122" class="note">
                        <g class="notehead">
                           <use xlink:href="#E0A4-1vj6c51" x="15910" y="1445" height="720px" width="720px" />
                        </g>
                        <g id="s1a0hqv2" class="stem">
                           <rect x="15910" y="1473" height="572" width="18" />
                        </g>
                        <g id="a1vzad2u" class="accid" />
                     </g>
                     <g id="bth934r" class="beam">
                        <polygon points="16911,1040 17445,1040 17445,1130 16911,1130" />
                        <g id="nqrct3x" class="note">
                           <g class="notehead">
                              <use xlink:href="#E0A4-1vj6c51" x="16703" y="1625" height="720px" width="720px" />
                           </g>
                           <g id="s1wm1omf" class="stem">
                              <rect x="16911" y="1058" height="539" width="18" />
                           </g>
                        </g>
                        <g id="nddrwir" class="note">
                           <g class="notehead">
                              <use xlink:href="#E0A4-1vj6c51" x="17219" y="1625" height="720px" width="720px" />
                           </g>
                           <g id="s184xezi" class="stem">
                              <rect x="17427" y="1058" height="539" width="18" />
                           </g>
                        </g>
                     </g>
                  </g>
               </g>
               <g id="b8it7ae" class="barLine">
                  <path d="M17735 1085 L17735 1805" stroke="currentColor" stroke-width="27" />
               </g>
            </g>
            <g id="m14st4h3" class="measure">
               <g id="s1ntpikm" class="staff">
                  <path d="M17748 1085 L20005 1085" stroke="currentColor" stroke-width="13" />
                  <path d="M17748 1265 L20005 1265" stroke="currentColor" stroke-width="13" />
                  <path d="M17748 1445 L20005 1445" stroke="currentColor" stroke-width="13" />
                  <path d="M17748 1625 L20005 1625" stroke="currentColor" stroke-width="13" />
                  <path d="M17748 1805 L20005 1805" stroke="currentColor" stroke-width="13" />
                  <g id="l1hrdi9h" class="layer">
                     <g id="b1d17can" class="beam">
                        <polygon points="18135,860 18669,905 18669,995 18135,950" />
                        <g id="n1b1qkmr" class="note">
                           <g class="notehead">
                              <use xlink:href="#E0A4-1vj6c51" x="17927" y="1445" height="720px" width="720px" />
                           </g>
                           <g id="spg0i73" class="stem">
                              <rect x="18135" y="878" height="539" width="18" />
                           </g>
                           <g id="a10ekf60" class="accid" />
                        </g>
                        <g id="nfq4m3q" class="note">
                           <g class="notehead">
                              <use xlink:href="#E0A4-1vj6c51" x="18443" y="1535" height="720px" width="720px" />
                           </g>
                           <g id="sez81d3" class="stem">
                              <rect x="18651" y="923" height="584" width="18" />
                           </g>
                        </g>
                     </g>
                     <g id="b1htvgao" class="beam">
                        <polygon points="19167,905 19702,860 19702,950 19167,995" />
                        <g id="n1lvwlg7" class="note">
                           <g class="notehead">
                              <use xlink:href="#E0A4-1vj6c51" x="18959" y="1625" height="720px" width="720px" />
                           </g>
                           <g id="s902gcn" class="stem">
                              <rect x="19167" y="923" height="674" width="18" />
                           </g>
                        </g>
                        <g id="nb3mmx5" class="note">
                           <g class="notehead">
                              <use xlink:href="#E0A4-1vj6c51" x="19476" y="1445" height="720px" width="720px" />
                           </g>
                           <g id="s2x9j6l" class="stem">
                              <rect x="19684" y="878" height="539" width="18" />
                           </g>
                           <g id="a1n4asoh" class="accid" />
                        </g>
                     </g>
                  </g>
               </g>
               <g id="b42u5nb" class="barLine">
                  <path d="M19992 1085 L19992 1805" stroke="currentColor" stroke-width="27" />
               </g>
            </g>
         </g>
         <g id="s1221w3l" class="system">
            <g id="l1aaeziz" class="labelAbbr">
               <text x="914" y="3860" text-anchor="end" font-size="0px">
                  <tspan id="th266n4" class="text">
                     <tspan font-size="405px" class="text">Pno.</tspan>
                  </tspan>
               </text>
            </g>
            <g id="mlspsbn" class="measure">
               <g id="m49cstc" class="mNum autogenerated">
                  <text x="1094" y="3167" text-anchor="middle" font-size="0px">
                     <tspan id="tqpjopf" class="text">
                        <tspan font-size="324px" class="text">9</tspan>
                     </tspan>
                  </text>
               </g>
               <g id="s1x258hy" class="staff">
                  <path d="M1094 3410 L4276 3410" stroke="currentColor" stroke-width="13" />
                  <path d="M1094 3590 L4276 3590" stroke="currentColor" stroke-width="13" />
                  <path d="M1094 3770 L4276 3770" stroke="currentColor" stroke-width="13" />
                  <path d="M1094 3950 L4276 3950" stroke="currentColor" stroke-width="13" />
                  <path d="M1094 4130 L4276 4130" stroke="currentColor" stroke-width="13" />
                  <g id="c1wc97ii" class="clef">
                     <use xlink:href="#E050-1vj6c51" x="1184" y="3950" height="720px" width="720px" />
                  </g>
                  <g id="kajfve5" class="keySig">
                     <g id="k15ya4k6" class="keyAccid">
                        <use xlink:href="#E260-1vj6c51" x="1829" y="3770" height="720px" width="720px" />
                     </g>
                     <g id="kefwez" class="keyAccid">
                        <use xlink:href="#E260-1vj6c51" x="2009" y="3500" height="720px" width="720px" />
                     </g>
                  </g>
                  <g id="lm0am4h" class="layer">
                     <g id="n1otcd4a" class="note">
                        <g class="notehead">
                           <use xlink:href="#E0A4-1vj6c51" x="2421" y="3860" height="720px" width="720px" />
                        </g>
                        <g id="sa1i5h3" class="stem">
                           <rect x="2629" y="3230" height="602" width="18" />
                        </g>
                     </g>
                     <g id="b1aieor6" class="beam">
                        <polygon points="3429,3365 3968,3365 3968,3455 3429,3455" />
                        <g id="nefn60y" class="note">
                           <g class="notehead">
                              <use xlink:href="#E0A4-1vj6c51" x="3221" y="3950" height="720px" width="720px" />
                           </g>
                           <g id="spwoerd" class="stem">
                              <rect x="3429" y="3383" height="539" width="18" />
                           </g>
                        </g>
                        <g id="nh7kpbb" class="note">
                           <g class="notehead">
                              <use xlink:href="#E0A4-1vj6c51" x="3742" y="3950" height="720px" width="720px" />
                           </g>
                           <g id="sobr6xt" class="stem">
                              <rect x="3950" y="3383" height="539" width="18" />
                           </g>
                        </g>
                     </g>
                  </g>
               </g>
               <g id="b4tfs6s" class="barLine">
                  <path d="M4263 3410 L4263 4130" stroke="currentColor" stroke-width="27" />
               </g>
            </g>
            <g id="sauagfl" class="sb" />
            <g id="m1px8s6f" class="measure">
               <g id="s1wovbn3" class="staff">
                  <path d="M4276 3410 L6553 3410" stroke="currentColor" stroke-width="13" />
                  <path d="M4276 3590 L6553 3590" stroke="currentColor" stroke-width="13" />
                  <path d="M4276 3770 L6553 3770" stroke="currentColor" stroke-width="13" />
                  <path d="M4276 3950 L6553 3950" stroke="currentColor" stroke-width="13" />
                  <path d="M4276 4130 L6553 4130" stroke="currentColor" stroke-width="13" />
                  <g id="l1fyf959" class="layer">
                     <g id="bvlvrbq" class="beam">
                        <polygon points="4664,3185 5203,3185 5203,3275 4664,3275" />
                        <g id="neaspee" class="note">
                           <g class="notehead">
                              <use xlink:href="#E0A4-1vj6c51" x="4456" y="3770" height="720px" width="720px" />
                           </g>
                           <g id="s1azxxb4" class="stem">
                              <rect x="4664" y="3203" height="539" width="18" />
                           </g>
                           <g id="a1uulokg" class="accid" />
                        </g>
                        <g id="nrb347j" class="note">
                           <g class="notehead">
                              <use xlink:href="#E0A4-1vj6c51" x="4977" y="3770" height="720px" width="720px" />
                           </g>
                           <g id="s1sjcfrr" class="stem">
                              <rect x="5185" y="3203" height="539" width="18" />
                           </g>
                           <g id="azpfv3t" class="accid" />
                        </g>
                     </g>
                     <g id="b1allbn5" class="beam">
                        <polygon points="5706,3365 6245,3365 6245,3455 5706,3455" />
                        <g id="n95wtpp" class="note">
                           <g class="notehead">
                              <use xlink:href="#E0A4-1vj6c51" x="5498" y="3950" height="720px" width="720px" />
                           </g>
                           <g id="s1abco3a" class="stem">
                              <rect x="5706" y="3383" height="539" width="18" />
                           </g>
                        </g>
                        <g id="n1qwnte7" class="note">
                           <g class="notehead">
                              <use xlink:href="#E0A4-1vj6c51" x="6019" y="3950" height="720px" width="720px" />
                           </g>
                           <g id="scdilgk" class="stem">
                              <rect x="6227" y="3383" height="539" width="18" />
                           </g>
                        </g>
                     </g>
                  </g>
               </g>
               <g id="b1i63xvy" class="barLine">
                  <path d="M6540 3410 L6540 4130" stroke="currentColor" stroke-width="27" />
               </g>
            </g>
            <g id="m1t39qw3" class="measure">
               <g id="sl91w4t" class="staff">
                  <path d="M6553 3410 L8588 3410" stroke="currentColor" stroke-width="13" />
                  <path d="M6553 3590 L8588 3590" stroke="currentColor" stroke-width="13" />
                  <path d="M6553 3770 L8588 3770" stroke="currentColor" stroke-width="13" />
                  <path d="M6553 3950 L8588 3950" stroke="currentColor" stroke-width="13" />
                  <path d="M6553 4130 L8588 4130" stroke="currentColor" stroke-width="13" />
                  <g id="l1o5mudo" class="layer">
                     <g id="n1sytgsp" class="note">
                        <g class="notehead">
                           <use xlink:href="#E0A4-1vj6c51" x="6733" y="3770" height="720px" width="720px" />
                        </g>
                        <g id="s1t2we9x" class="stem">
                           <rect x="6733" y="3798" height="572" width="18" />
                        </g>
                        <g id="a1tflxoo" class="accid" />
                     </g>
                     <g id="b1tcekn2" class="beam">
                        <polygon points="7741,3365 8280,3365 8280,3455 7741,3455" />
                        <g id="ny7ifke" class="note">
                           <g class="notehead">
                              <use xlink:href="#E0A4-1vj6c51" x="7533" y="3950" height="720px" width="720px" />
                           </g>
                           <g id="snaxgbm" class="stem">
                              <rect x="7741" y="3383" height="539" width="18" />
                           </g>
                        </g>
                        <g id="n1ccqe6y" class="note">
                           <g class="notehead">
                              <use xlink:href="#E0A4-1vj6c51" x="8054" y="3950" height="720px" width="720px" />
                           </g>
                           <g id="s1xupis4" class="stem">
                              <rect x="8262" y="3383" height="539" width="18" />
                           </g>
                        </g>
                     </g>
                  </g>
               </g>
               <g id="bznwd0z" class="barLine">
                  <path d="M8575 3410 L8575 4130" stroke="currentColor" stroke-width="27" />
               </g>
            </g>
            <g id="mmv7giq" class="measure">
               <g id="szsjxp6" class="staff">
                  <path d="M8588 3410 L10865 3410" stroke="currentColor" stroke-width="13" />
                  <path d="M8588 3590 L10865 3590" stroke="currentColor" stroke-width="13" />
                  <path d="M8588 3770 L10865 3770" stroke="currentColor" stroke-width="13" />
                  <path d="M8588 3950 L10865 3950" stroke="currentColor" stroke-width="13" />
                  <path d="M8588 4130 L10865 4130" stroke="currentColor" stroke-width="13" />
                  <g id="lqbgjpx" class="layer">
                     <g id="b12hviz3" class="beam">
                        <polygon points="8976,3185 9515,3230 9515,3320 8976,3275" />
                        <g id="n38m3ar" class="note">
                           <g class="notehead">
                              <use xlink:href="#E0A4-1vj6c51" x="8768" y="3770" height="720px" width="720px" />
                           </g>
                           <g id="s1ajwame" class="stem">
                              <rect x="8976" y="3203" height="539" width="18" />
                           </g>
                           <g id="a1xt1jrd" class="accid" />
                        </g>
                        <g id="n1va9x8h" class="note">
                           <g class="notehead">
                              <use xlink:href="#E0A4-1vj6c51" x="9289" y="3860" height="720px" width="720px" />
                           </g>
                           <g id="s1uyjbb" class="stem">
                              <rect x="9497" y="3248" height="584" width="18" />
                           </g>
                        </g>
                     </g>
                     <g id="b1h4bhve" class="beam">
                        <polygon points="10018,3095 10557,3140 10557,3230 10018,3185" />
                        <g id="n1fxuz1f" class="note">
                           <g class="notehead">
                              <use xlink:href="#E0A4-1vj6c51" x="9810" y="3680" height="720px" width="720px" />
                           </g>
                           <g id="stpl11o" class="stem">
                              <rect x="10018" y="3113" height="539" width="18" />
                           </g>
                        </g>
                        <g id="nj17t6i" class="note">
                           <g class="notehead">
                              <use xlink:href="#E0A4-1vj6c51" x="10331" y="4040" height="720px" width="720px" />
                           </g>
                           <g id="s930kj1" class="stem">
                              <rect x="10539" y="3158" height="854" width="18" />
                           </g>
                        </g>
                     </g>
                  </g>
               </g>
               <g id="bpp0lsw" class="barLine">
                  <path d="M10852 3410 L10852 4130" stroke="currentColor" stroke-width="27" />
               </g>
            </g>
            <g id="m15rueck" class="measure">
               <g id="scuu5et" class="staff">
                  <path d="M10865 3410 L12478 3410" stroke="currentColor" stroke-width="13" />
                  <path d="M10865 3590 L12478 3590" stroke="currentColor" stroke-width="13" />
                  <path d="M10865 3770 L12478 3770" stroke="currentColor" stroke-width="13" />
                  <path d="M10865 3950 L12478 3950" stroke="currentColor" stroke-width="13" />
                  <path d="M10865 4130 L12478 4130" stroke="currentColor" stroke-width="13" />
                  <g id="m7uxb11" class="meterSig">
                     <use xlink:href="#E081-1vj6c51" x="10974" y="3590" height="720px" width="720px" />
                     <use xlink:href="#E084-1vj6c51" x="10941" y="3950" height="720px" width="720px" />
                  </g>
                  <g id="l16kqlhg" class="layer">
                     <g id="ne474zk" class="note">
                        <g class="notehead">
                           <use xlink:href="#E0A4-1vj6c51" x="11503" y="3950" height="720px" width="720px" />
                        </g>
                        <g id="sai7k1w" class="stem">
                           <rect x="11711" y="3320" height="602" width="18" />
                        </g>
                     </g>
                  </g>
               </g>
               <g id="bu4r9lm" class="barLine">
                  <path d="M12303 3410 L12303 4130" stroke="currentColor" stroke-width="27" />
                  <path d="M12433 3410 L12433 4130" stroke="currentColor" stroke-width="90" />
               </g>
            </g>
            <g id="s1ylzy2y" class="systemMilestoneEnd s1dni08l" />
         </g>
         <g id="pue1j03" class="pageMilestoneEnd sbkc140" />
         <g id="prvppbq" class="pageMilestoneEnd mbwtaj7" />
         <g id="p1vruw37" class="pgHead">
            <text x="0" y="0" font-size="0px">
               <tspan id="r1dflha0" class="rend" x="10000" y="277" text-anchor="middle">
                  <tspan id="t1rucfk3" class="text">
                     <tspan font-size="405px" class="text">Air n 147b</tspan>
                  </tspan>
               </tspan>
            </text>
         </g>
         <g id="pn472hi" class="pgFoot autogenerated">
            <g id="fhlzq5m" class="fig">
               <g id="ssr65j0" class="svg" transform="translate(7750, 28099) scale(10, 10)">
                  <g>
                     <path fill="#00000" d="M 17.11278,49.26451 V 10.367554 h 12.696511 c 3.288815,7.336676 6.71267,14.610456 10.127281,21.888976 3.419998,-7.484684 6.255515,-14.204887 9.58887,-21.909915 2.436207,0.103726 4.316952,0.08453 6.484294,-0.05808 V 49.264423 H 50.274275 C 50.145222,38.35639 50.016136,27.448368 49.887066,16.540329 45.003488,27.315459 39.967448,38.433564 35.083854,49.208695 34.678996,49.343717 34.426583,49.135619 34.021726,49.270644 29.46588,39.330716 24.910049,29.390805 20.354201,19.450876 20.224341,29.388756 20.09461,39.326619 19.964815,49.264497 H 17.11278 Z M 36.754144,39.324695 C 32.721221,30.512695 28.6883,21.700679 24.655394,12.888662 22.530527,12.750737 22.656775,12.71031 20.714356,12.813974 v 0.966497 c 4.612938,9.99784 9.609439,20.748709 13.87298,30.081745 0.722248,-1.512523 1.444528,-3.025014 2.166808,-4.537521 z m 25.738417,9.939815 c 0,-12.965651 0,-25.931305 0,-38.896956 10.084388,0 20.168791,0 30.253178,0 0,0.960416 0,1.920849 0,2.881265 -6.482825,0 -12.965652,0 -19.448478,0 0,4.802097 0,9.604178 0,14.406277 5.52241,0 11.044819,0 16.567229,0 0,0.960415 0,1.920832 0,2.881248 -5.52241,0 -11.044819,0 -16.567229,0 0,5.282306 0,10.564611 0,15.846917 6.963035,0 13.926068,0 20.889103,0 0,0.960416 0,1.920832 0,2.881249 -10.564597,0 -21.129207,0 -31.693803,0 z m 4.321874,-2.160937 c 0,-11.765131 0,-23.530263 0,-35.295394 -0.720312,0 -1.440625,0 -2.160937,0 0,11.765131 0,23.530263 0,35.295394 0.720312,0 1.440625,0 2.160937,0 z m 32.41413,2.160937 c 0,-12.965651 0,-25.931305 0,-38.896956 2.401045,0 4.802095,0 7.203135,0 0,12.965651 0,25.931305 0,38.896956 -2.40104,0 -4.80209,0 -7.203135,0 z m 2.881265,-2.160937 c 0,-11.765131 0,-23.530263 0,-35.295394 -0.72031,0 -1.44064,0 -2.160953,0 0,11.765131 0,23.530263 0,35.295394 0.720313,0 1.440643,0 2.160953,0 z" />
                     <path fill="#00000" d="m 346.3,6.7 c -3.1,0.5 -4.9,4.4 -2.7,6.8 1.2,1.4 2.7,2.4 4.1,3.5 -2.4,5.3 -7.7,8.3 -11.9,12.1 -3.7,2.8 -7,6.2 -9.7,9.9 -2.2,-0.8 -0.3,-6.8 -0.6,-9.5 0.1,-3.1 0.7,-6.4 2.9,-8.7 1.3,-1.9 3,-3.5 4.5,-5.2 1.2,-3.4 -3.2,-4.9 -5.8,-4.6 -7.3,-0.5 -14.6,2 -20,6.8 -5,4.6 -10,10.1 -11.5,17 -0.9,3.5 -0.2,7.5 2.8,9.9 2.5,2.8 7.4,2.9 9.8,-0.2 1.7,-2.3 3.2,-4.8 3.8,-7.6 -0.1,-2.6 -4.4,-2.3 -4.3,0.2 1.2,2.4 -0.9,4.7 -2.7,6.2 -1.7,0.9 -4.7,0.7 -4.8,-1.7 -1,-5.8 2.1,-11.3 5.2,-16.1 4,-5.8 9.8,-11.2 17.2,-11.8 1.6,0 8.1,-1.2 6.8,1.4 -2.8,2.8 -5.6,6.1 -6,10.3 -1.6,7.7 0.1,15.7 -2.3,23.2 -1.1,3.9 2,2.6 2.5,0.2 3.3,-7.4 8.9,-13.4 15.1,-18.5 4.2,-3.9 9.5,-7.1 11.9,-12.6 1.3,-3.6 1.2,-9 -2.7,-10.9 -0.6,-0.2 -1.2,-0.3 -1.8,-0.3 z m 66,14.5 c -2,0.8 -1.8,4.9 0.8,4.4 3.4,0.4 2.9,-6.2 -0.8,-4.4 z m 0.6,7.3 c -1.3,0.5 -7.6,0.5 -5.4,2.2 4,-0.3 0.7,4.5 0.6,6.7 -0.4,2.9 -2.4,5.9 -1.2,8.8 2.7,1.7 5.6,-0.8 6.8,-3.2 1.6,-1.4 -0.5,-3 -1.2,-0.9 -0.4,0.8 -2.4,3.5 -2.6,1.8 1.1,-5 2.7,-9.9 3.9,-14.9 l -0.1,-0.5 h -0.9 z m -65.1,0.2 c -6.5,1.6 -10.5,9.5 -8.2,15.7 2.1,3.4 7.4,2.9 10.1,0.4 2,-0.2 3.6,-5.3 1,-3.4 -1.4,2 -4,4.2 -6.5,2.8 -2.2,-1.9 -1.9,-5.7 1.7,-5.3 3.1,-0.9 6.9,-2.1 8.1,-5.5 0.9,-2.7 -1.6,-5.2 -4.3,-4.8 h -1.1 -0.7 z m 13.6,0 c -2.2,0 -8.5,1.8 -2.9,2.3 0.9,1.9 -1,4.9 -1.1,7.2 -0.5,2.9 -1.4,5.7 -1.7,8.7 3.7,0.7 3.8,-2.6 4.4,-5.3 0.9,-3.3 1.6,-7 4.1,-9.5 2.4,1.6 6.8,-0.7 3.7,-3.4 -2.9,-0.5 -4.8,2.4 -6.2,4.3 0,-1.2 2.4,-5 -0.2,-4.3 z m 15.8,0 c -6.4,1.3 -9.6,9.1 -7.7,14.9 1.9,4 7.7,3.9 11,1.7 4.1,-3 6,-8.9 4.4,-13.7 -1.3,-3 -4.8,-3.2 -7.6,-3 z m 17,0 c -2.3,0 -8.8,1.9 -3,2.4 0.4,2.5 -1,5.7 -1.4,8.4 -0.7,2.4 -1.8,7.5 2.1,7.2 3.8,-0.1 6.5,-3.5 8.5,-6.3 2,-3.2 4.5,-7 3.3,-10.9 -3.7,-3 -3.6,2.6 -3.1,5.1 -0.7,3.8 -2.7,7.9 -6.2,9.8 -3.6,0.6 -1,-4.3 -0.8,-6.1 0.6,-3.2 1.6,-6.3 1.9,-9.5 -0.4,0 -0.8,0 -1.1,0 z m 30.6,0 c -6.3,1.2 -9.5,8.9 -7.8,14.7 1.5,4 7.2,4.2 10.5,2.4 4.6,-2.8 6.6,-9.3 4.8,-14.3 -1.4,-2.8 -4.8,-3 -7.5,-2.8 z m -75.4,1.7 c 2.1,1.5 0.2,4.7 -1.6,5.7 -1.1,0.4 -5.5,3.4 -4.6,0.7 0.8,-2.7 2.2,-6.2 5.3,-6.6 l 0.9,0.1 z m 30.8,0 c 2.6,1.5 1.3,5.2 0.8,7.6 -0.8,2.7 -1.9,5.9 -4.7,7.1 -5.1,0.8 -4,-5.8 -2.8,-8.8 1,-2.8 3,-6.8 6.7,-5.8 z m 47.1,-0.1 c 2.9,0.7 2,4.7 1.5,6.8 -0.7,3 -1.8,6.7 -5,8 -4.7,0.8 -4,-5.1 -3,-7.9 0.9,-3 2.7,-7.3 6.5,-6.8 z m -88.1,5.9 c -0.3,1.3 0.9,-0.6 0,0 z m -1.1,2.4 c -0.2,0.5 0.5,-0.1 0,0 z m -1.3,4.5 c -0.3,1.3 0.8,-0.2 0,0 z" />
                     <text y="41" x="201" fill="#00000" style="font-style:italic;font-weight:normal;font-size:30px;line-height:125%;font-family:Times;text-anchor:middle" xml:space="preserve">engraved with</text>
                  </g>
               </g>
            </g>
         </g>
      </g>
   </svg>
</svg>
