<?xml version="1.0" encoding="UTF-8" standalone="no"?>
<svg width="2100px" height="2970px" version="1.1" xmlns="http://www.w3.org/2000/svg" xmlns:xlink="http://www.w3.org/1999/xlink" xmlns:mei="http://www.music-encoding.org/ns/mei" overflow="visible">
   <desc>Engraved by Verovio 3.13.1</desc>
   <defs>
      <symbol id="E260-vffu7y" viewBox="0 0 1000 1000" overflow="inherit">
         <path transform="scale(1,-1)" d="M20 110c32 16 54 27 93 27c26 0 35 -3 54 -13c13 -7 24 -20 27 -38l4 -25c0 -28 -16 -57 -45 -89c-23 -25 -39 -44 -65 -68l-88 -79v644h20v-359zM90 106c-32 0 -48 -10 -70 -29v-194c31 31 54 59 71 84c21 32 32 59 32 84c0 9 1 16 1 20c0 14 -3 21 -11 30l-8 3z" />
      </symbol>
      <symbol id="E044-vffu7y" viewBox="0 0 1000 1000" overflow="inherit">
         <path transform="scale(1,-1)" d="M0 0c0 28 22 50 50 50s50 -22 50 -50s-22 -50 -50 -50s-50 22 -50 50z" />
      </symbol>
      <symbol id="E050-vffu7y" viewBox="0 0 1000 1000" overflow="inherit">
         <path transform="scale(1,-1)" d="M441 -245c-23 -4 -48 -6 -76 -6c-59 0 -102 7 -130 20c-88 42 -150 93 -187 154c-26 44 -43 103 -48 176c0 6 -1 13 -1 19c0 54 15 111 45 170c29 57 65 106 110 148s96 85 153 127c-3 16 -8 46 -13 92c-4 43 -5 73 -5 89c0 117 16 172 69 257c34 54 64 82 89 82 c21 0 43 -30 69 -92s39 -115 41 -159v-15c0 -109 -21 -162 -67 -241c-13 -20 -63 -90 -98 -118c-13 -9 -25 -19 -37 -29l31 -181c8 1 18 2 28 2c58 0 102 -12 133 -35c59 -43 92 -104 98 -184c1 -7 1 -15 1 -22c0 -123 -87 -209 -181 -248c8 -57 17 -110 25 -162 c5 -31 6 -58 6 -80c0 -30 -5 -53 -14 -70c-35 -64 -88 -99 -158 -103c-5 0 -11 -1 -16 -1c-37 0 -72 10 -108 27c-50 24 -77 59 -80 105v11c0 29 7 55 20 76c18 28 45 42 79 44h6c49 0 93 -42 97 -87v-9c0 -51 -34 -86 -105 -106c17 -24 51 -36 102 -36c62 0 116 43 140 85 c9 16 13 41 13 74c0 20 -1 42 -5 67c-8 53 -18 106 -26 159zM461 939c-95 0 -135 -175 -135 -286c0 -24 2 -48 5 -71c50 39 92 82 127 128c40 53 60 100 60 140v8c-4 53 -22 81 -55 81h-2zM406 119l54 -326c73 25 110 78 110 161c0 7 0 15 -1 23c-7 95 -57 142 -151 142h-12 zM382 117c-72 -2 -128 -47 -128 -120v-7c2 -46 43 -99 75 -115c-3 -2 -7 -5 -10 -10c-70 33 -116 88 -123 172v11c0 68 44 126 88 159c23 17 49 29 78 36l-29 170c-21 -13 -52 -37 -92 -73c-50 -44 -86 -84 -109 -119c-45 -69 -67 -130 -67 -182v-13c5 -68 35 -127 93 -176 s125 -73 203 -73c25 0 50 3 75 9c-19 111 -36 221 -54 331z" />
      </symbol>
      <symbol id="E081-vffu7y" viewBox="0 0 1000 1000" overflow="inherit">
         <path transform="scale(1,-1)" d="M68 -250v36c23 0 40 6 49 18c8 14 12 33 12 57v250l-82 -129l-27 13l107 255h128v-394c0 -24 5 -42 14 -53s25 -17 47 -17v-36h-248z" />
      </symbol>
      <symbol id="E082-vffu7y" viewBox="0 0 1000 1000" overflow="inherit">
         <path transform="scale(1,-1)" d="M124 -185c-18 0 -55 -14 -65 -65h-36l-3 30c0 25 6 45 18 63c11 19 22 30 39 43l121 82l37 29c15 11 27 29 38 54c12 24 18 47 18 70c0 40 -19 88 -94 88c-25 0 -32 0 -50 -8c-14 -5 -23 -12 -26 -22c3 -9 7 -15 10 -18l24 -17c12 -7 17 -11 27 -21c5 -7 7 -16 7 -27 c0 -12 0 -57 -79 -74c-30 0 -76 26 -76 94c0 66 81 135 197 135c72 0 181 -32 181 -150c0 -53 -32 -95 -113 -133l-91 -41c-26 -11 -45 -23 -57 -37l49 7c84 0 115 -41 148 -41c20 0 33 20 39 61h35c0 -152 -68 -168 -114 -168c-17 0 -65 0 -79 7h10l-28 17 c-49 37 -69 40 -87 42z" />
      </symbol>
      <symbol id="E084-vffu7y" viewBox="0 0 1000 1000" overflow="inherit">
         <path transform="scale(1,-1)" d="M20 -78c84 97 114 180 134 329h170c-13 -32 -82 -132 -99 -151l-84 -97c-33 -36 -59 -63 -80 -81h162v102l127 123v-225h57v-39h-57v-34c0 -43 19 -65 57 -65v-34h-244v36c48 0 60 26 60 70v27h-203v39z" />
      </symbol>
      <symbol id="E0A4-vffu7y" viewBox="0 0 1000 1000" overflow="inherit">
         <path transform="scale(1,-1)" d="M0 -39c0 68 73 172 200 172c66 0 114 -37 114 -95c0 -84 -106 -171 -218 -171c-64 0 -96 30 -96 94z" />
      </symbol>
   </defs>
   <style type="text/css">g.page-margin{font-family:Times;} g.ending, g.fing, g.reh, g.tempo{font-weight:bold;} g.dir, g.dynam, g.mNum{font-style:italic;} g.label{font-weight:normal;}</style>
   <svg class="definition-scale" color="black" viewBox="0 0 21000 29700">
      <g class="page-margin" transform="translate(500, 500)">
         <g id="m1s4drpq" class="mdiv pageMilestone" />
         <g id="s1gitw4k" class="score pageMilestone" />
         <g id="s1jrr298" class="system">
            <g id="l12o2mkl" class="label">
               <text x="1105" y="1535" text-anchor="end" font-size="0px">
                  <tspan id="t3odcqw" class="text">
                     <tspan font-size="405px" class="text">Piano</tspan>
                  </tspan>
               </text>
            </g>
            <g id="s1svclir" class="section systemMilestone" />
            <g id="p1iv5tkk" class="pb" />
            <g id="me5nn0o" class="measure">
               <g id="mafsweh" class="mNum">
                  <text x="1285" y="842" text-anchor="middle" font-size="0px" />
               </g>
               <g id="sinjvff" class="staff">
                  <path d="M1285 1085 L4301 1085" stroke="currentColor" stroke-width="13" />
                  <path d="M1285 1265 L4301 1265" stroke="currentColor" stroke-width="13" />
                  <path d="M1285 1445 L4301 1445" stroke="currentColor" stroke-width="13" />
                  <path d="M1285 1625 L4301 1625" stroke="currentColor" stroke-width="13" />
                  <path d="M1285 1805 L4301 1805" stroke="currentColor" stroke-width="13" />
                  <g id="cnff4ip" class="clef">
                     <use xlink:href="#E050-vffu7y" x="1375" y="1625" height="720px" width="720px" />
                  </g>
                  <g id="k12i8kjp" class="keySig">
                     <g id="k1yw40hm" class="keyAccid">
                        <use xlink:href="#E260-vffu7y" x="2020" y="1445" height="720px" width="720px" />
                     </g>
                     <g id="k3c5a5j" class="keyAccid">
                        <use xlink:href="#E260-vffu7y" x="2200" y="1175" height="720px" width="720px" />
                     </g>
                  </g>
                  <g id="m1ok1tqo" class="meterSig">
                     <use xlink:href="#E082-vffu7y" x="2508" y="1265" height="720px" width="720px" />
                     <use xlink:href="#E084-vffu7y" x="2513" y="1625" height="720px" width="720px" />
                  </g>
                  <g id="l899uz9" class="layer">
                     <g id="bzt02tk" class="beam">
                        <polygon points="3291,1040 3911,860 3911,950 3291,1130" />
                        <g id="ndy7ibs" class="note">
                           <g class="notehead">
                              <use xlink:href="#E0A4-vffu7y" x="3083" y="1625" height="720px" width="720px" />
                           </g>
                           <g id="s16xnadn" class="stem">
                              <rect x="3291" y="1058" height="539" width="18" />
                           </g>
                        </g>
                        <g id="nwuknqs" class="note">
                           <g class="notehead">
                              <use xlink:href="#E0A4-vffu7y" x="3685" y="1445" height="720px" width="720px" />
                           </g>
                           <g id="s5jxkb0" class="stem">
                              <rect x="3893" y="878" height="539" width="18" />
                           </g>
                           <g id="a12wniez" class="accid" />
                        </g>
                     </g>
                  </g>
               </g>
               <g id="b187pzb5" class="barLine">
                  <path d="M4288 1085 L4288 1805" stroke="currentColor" stroke-width="27" />
               </g>
            </g>
            <g id="m1covwve" class="measure">
               <g id="s1oz8ose" class="staff">
                  <path d="M4301 1085 L6905 1085" stroke="currentColor" stroke-width="13" />
                  <path d="M4301 1265 L6905 1265" stroke="currentColor" stroke-width="13" />
                  <path d="M4301 1445 L6905 1445" stroke="currentColor" stroke-width="13" />
                  <path d="M4301 1625 L6905 1625" stroke="currentColor" stroke-width="13" />
                  <path d="M4301 1805 L6905 1805" stroke="currentColor" stroke-width="13" />
                  <g id="lsvhl52" class="layer">
                     <g id="bolli2g" class="beam">
                        <polygon points="4691,995 5311,815 5311,905 4691,1085" />
                        <g id="nx2tgue" class="note">
                           <g class="notehead">
                              <use xlink:href="#E0A4-vffu7y" x="4483" y="1535" height="720px" width="720px" />
                           </g>
                           <g id="scys0cz" class="stem">
                              <rect x="4691" y="1013" height="494" width="18" />
                           </g>
                        </g>
                        <g id="nipe0ut" class="note">
                           <g class="notehead">
                              <use xlink:href="#E0A4-vffu7y" x="5085" y="1355" height="720px" width="720px" />
                           </g>
                           <g id="sc8ju3n" class="stem">
                              <rect x="5293" y="833" height="494" width="18" />
                           </g>
                        </g>
                     </g>
                     <g id="b4lv9wf" class="beam">
                        <polygon points="5896,1040 6516,860 6516,950 5896,1130" />
                        <g id="nnlrfyy" class="note">
                           <g class="notehead">
                              <use xlink:href="#E0A4-vffu7y" x="5688" y="1625" height="720px" width="720px" />
                           </g>
                           <g id="snpsbp4" class="stem">
                              <rect x="5896" y="1058" height="539" width="18" />
                           </g>
                        </g>
                        <g id="nxm1i5l" class="note">
                           <g class="notehead">
                              <use xlink:href="#E0A4-vffu7y" x="6290" y="1445" height="720px" width="720px" />
                           </g>
                           <g id="s1tl1lzr" class="stem">
                              <rect x="6498" y="878" height="539" width="18" />
                           </g>
                           <g id="ahmdxcp" class="accid" />
                        </g>
                     </g>
                  </g>
               </g>
               <g id="bvu9brg" class="barLine">
                  <path d="M6892 1085 L6892 1805" stroke="currentColor" stroke-width="27" />
               </g>
            </g>
            <g id="m19f3yoy" class="measure">
               <g id="sr19wlk" class="staff">
                  <path d="M6905 1085 L9228 1085" stroke="currentColor" stroke-width="13" />
                  <path d="M6905 1265 L9228 1265" stroke="currentColor" stroke-width="13" />
                  <path d="M6905 1445 L9228 1445" stroke="currentColor" stroke-width="13" />
                  <path d="M6905 1625 L9228 1625" stroke="currentColor" stroke-width="13" />
                  <path d="M6905 1805 L9228 1805" stroke="currentColor" stroke-width="13" />
                  <g id="llzh6oj" class="layer">
                     <g id="n9m4hsg" class="note">
                        <g class="notehead">
                           <use xlink:href="#E0A4-vffu7y" x="7087" y="1535" height="720px" width="720px" />
                        </g>
                        <g id="sllxlee" class="stem">
                           <rect x="7295" y="905" height="602" width="18" />
                        </g>
                     </g>
                     <g id="b19zn5ou" class="beam">
                        <polygon points="8218,1040 8839,860 8839,950 8218,1130" />
                        <g id="n1iwpj4g" class="note">
                           <g class="notehead">
                              <use xlink:href="#E0A4-vffu7y" x="8010" y="1625" height="720px" width="720px" />
                           </g>
                           <g id="s1eg3qtp" class="stem">
                              <rect x="8218" y="1058" height="539" width="18" />
                           </g>
                        </g>
                        <g id="n15i0wqm" class="note">
                           <g class="notehead">
                              <use xlink:href="#E0A4-vffu7y" x="8613" y="1445" height="720px" width="720px" />
                           </g>
                           <g id="s87kona" class="stem">
                              <rect x="8821" y="878" height="539" width="18" />
                           </g>
                           <g id="av18by" class="accid" />
                        </g>
                     </g>
                  </g>
               </g>
               <g id="buausoz" class="barLine">
                  <path d="M9215 1085 L9215 1805" stroke="currentColor" stroke-width="27" />
               </g>
            </g>
            <g id="m4ykrhw" class="measure">
               <g id="sjtbu2u" class="staff">
                  <path d="M9228 1085 L11832 1085" stroke="currentColor" stroke-width="13" />
                  <path d="M9228 1265 L11832 1265" stroke="currentColor" stroke-width="13" />
                  <path d="M9228 1445 L11832 1445" stroke="currentColor" stroke-width="13" />
                  <path d="M9228 1625 L11832 1625" stroke="currentColor" stroke-width="13" />
                  <path d="M9228 1805 L11832 1805" stroke="currentColor" stroke-width="13" />
                  <g id="l1bssbpq" class="layer">
                     <g id="b8i819a" class="beam">
                        <polygon points="9618,995 10238,815 10238,905 9618,1085" />
                        <g id="n1d8om7f" class="note">
                           <g class="notehead">
                              <use xlink:href="#E0A4-vffu7y" x="9410" y="1535" height="720px" width="720px" />
                           </g>
                           <g id="sisfaip" class="stem">
                              <rect x="9618" y="1013" height="494" width="18" />
                           </g>
                        </g>
                        <g id="nrbsr47" class="note">
                           <g class="notehead">
                              <use xlink:href="#E0A4-vffu7y" x="10012" y="1355" height="720px" width="720px" />
                           </g>
                           <g id="sz19jrx" class="stem">
                              <rect x="10220" y="833" height="494" width="18" />
                           </g>
                        </g>
                     </g>
                     <g id="bkpz0g7" class="beam">
                        <polygon points="10823,1040 11443,860 11443,950 10823,1130" />
                        <g id="n1vn7j42" class="note">
                           <g class="notehead">
                              <use xlink:href="#E0A4-vffu7y" x="10615" y="1625" height="720px" width="720px" />
                           </g>
                           <g id="s196qwuw" class="stem">
                              <rect x="10823" y="1058" height="539" width="18" />
                           </g>
                        </g>
                        <g id="n152hu7k" class="note">
                           <g class="notehead">
                              <use xlink:href="#E0A4-vffu7y" x="11217" y="1445" height="720px" width="720px" />
                           </g>
                           <g id="s1u02c1o" class="stem">
                              <rect x="11425" y="878" height="539" width="18" />
                           </g>
                           <g id="adw1kwh" class="accid" />
                        </g>
                     </g>
                  </g>
               </g>
               <g id="bk0u4f0" class="barLine">
                  <path d="M11819 1085 L11819 1805" stroke="currentColor" stroke-width="27" />
               </g>
            </g>
            <g id="m1lwsmdk" class="measure">
               <g id="s1y1f37g" class="staff">
                  <path d="M11832 1085 L13570 1085" stroke="currentColor" stroke-width="13" />
                  <path d="M11832 1265 L13570 1265" stroke="currentColor" stroke-width="13" />
                  <path d="M11832 1445 L13570 1445" stroke="currentColor" stroke-width="13" />
                  <path d="M11832 1625 L13570 1625" stroke="currentColor" stroke-width="13" />
                  <path d="M11832 1805 L13570 1805" stroke="currentColor" stroke-width="13" />
                  <g id="mnha4sr" class="meterSig">
                     <use xlink:href="#E081-vffu7y" x="11941" y="1265" height="720px" width="720px" />
                     <use xlink:href="#E084-vffu7y" x="11908" y="1625" height="720px" width="720px" />
                  </g>
                  <g id="ld82vwy" class="layer">
                     <g id="nenro3g" class="note">
                        <g class="notehead">
                           <use xlink:href="#E0A4-vffu7y" x="12472" y="1535" height="720px" width="720px" />
                        </g>
                        <g id="s10p9q26" class="stem">
                           <rect x="12680" y="905" height="602" width="18" />
                        </g>
                     </g>
                  </g>
               </g>
               <g id="bk573bm" class="barLine">
                  <path d="M13395 1085 L13395 1805" stroke="currentColor" stroke-width="27" />
                  <path d="M13525 1085 L13525 1805" stroke="currentColor" stroke-width="90" />
                  <use xlink:href="#E044-vffu7y" x="13278" y="1355" height="720px" width="720px" />
                  <use xlink:href="#E044-vffu7y" x="13278" y="1535" height="720px" width="720px" />
               </g>
            </g>
            <g id="mex4jhc" class="measure">
               <g id="s1s4pik" class="staff">
                  <path d="M13570 1085 L14688 1085" stroke="currentColor" stroke-width="13" />
                  <path d="M13570 1265 L14688 1265" stroke="currentColor" stroke-width="13" />
                  <path d="M13570 1445 L14688 1445" stroke="currentColor" stroke-width="13" />
                  <path d="M13570 1625 L14688 1625" stroke="currentColor" stroke-width="13" />
                  <path d="M13570 1805 L14688 1805" stroke="currentColor" stroke-width="13" />
                  <g id="ljejmm7" class="layer">
                     <g id="nsubgg1" class="note">
                        <g class="notehead">
                           <use xlink:href="#E0A4-vffu7y" x="13752" y="1445" height="720px" width="720px" />
                        </g>
                        <g id="sifbnpv" class="stem">
                           <rect x="13752" y="1473" height="572" width="18" />
                        </g>
                        <g id="akehowt" class="accid" />
                     </g>
                  </g>
               </g>
               <g id="b1tz525i" class="barLine">
                  <path d="M14675 1085 L14675 1805" stroke="currentColor" stroke-width="27" />
               </g>
            </g>
            <g id="my170hq" class="measure">
               <g id="s13945qb" class="staff">
                  <path d="M14688 1085 L17480 1085" stroke="currentColor" stroke-width="13" />
                  <path d="M14688 1265 L17480 1265" stroke="currentColor" stroke-width="13" />
                  <path d="M14688 1445 L17480 1445" stroke="currentColor" stroke-width="13" />
                  <path d="M14688 1625 L17480 1625" stroke="currentColor" stroke-width="13" />
                  <path d="M14688 1805 L17480 1805" stroke="currentColor" stroke-width="13" />
                  <g id="m1xr6g8u" class="meterSig">
                     <use xlink:href="#E082-vffu7y" x="14764" y="1265" height="720px" width="720px" />
                     <use xlink:href="#E084-vffu7y" x="14769" y="1625" height="720px" width="720px" />
                  </g>
                  <g id="lpgvj9x" class="layer">
                     <g id="bse8cym" class="beam">
                        <polygon points="15547,905 16167,905 16167,995 15547,995" />
                        <g id="naag1sv" class="note">
                           <g class="notehead">
                              <use xlink:href="#E0A4-vffu7y" x="15339" y="1535" height="720px" width="720px" />
                           </g>
                           <g id="s158m84c" class="stem">
                              <rect x="15547" y="923" height="584" width="18" />
                           </g>
                        </g>
                        <g id="n1hz01f3" class="note">
                           <g class="notehead">
                              <use xlink:href="#E0A4-vffu7y" x="15941" y="1535" height="720px" width="720px" />
                           </g>
                           <g id="s4ddku7" class="stem">
                              <rect x="16149" y="923" height="584" width="18" />
                           </g>
                        </g>
                     </g>
                     <g id="n1kxozqe" class="note">
                        <g class="notehead">
                           <use xlink:href="#E0A4-vffu7y" x="16544" y="1625" height="720px" width="720px" />
                        </g>
                        <g id="s1woa1o0" class="stem">
                           <rect x="16752" y="995" height="602" width="18" />
                        </g>
                     </g>
                  </g>
               </g>
               <g id="bv16yiz" class="barLine">
                  <path d="M17467 1085 L17467 1805" stroke="currentColor" stroke-width="27" />
               </g>
            </g>
            <g id="my0iu8l" class="measure">
               <g id="s2l9cxw" class="staff">
                  <path d="M17480 1085 L20003 1085" stroke="currentColor" stroke-width="13" />
                  <path d="M17480 1265 L20003 1265" stroke="currentColor" stroke-width="13" />
                  <path d="M17480 1445 L20003 1445" stroke="currentColor" stroke-width="13" />
                  <path d="M17480 1625 L20003 1625" stroke="currentColor" stroke-width="13" />
                  <path d="M17480 1805 L20003 1805" stroke="currentColor" stroke-width="13" />
                  <g id="le1pnjt" class="layer">
                     <g id="n9dqgmb" class="note">
                        <g class="notehead">
                           <use xlink:href="#E0A4-vffu7y" x="17662" y="1895" height="720px" width="720px" />
                        </g>
                        <g id="s1wsy9bo" class="stem">
                           <rect x="17870" y="1265" height="602" width="18" />
                        </g>
                     </g>
                     <g id="bolfzef" class="beam">
                        <polygon points="18793,995 19815,815 19815,905 18793,1085" />
                        <polygon points="19405,1022 19815,950 19815,1040 19405,1112" />
                        <g id="ndmv87o" class="note">
                           <g class="notehead">
                              <use xlink:href="#E0A4-vffu7y" x="18585" y="1625" height="720px" width="720px" />
                           </g>
                           <g id="s12o2w5x" class="stem">
                              <rect x="18793" y="1013" height="584" width="18" />
                           </g>
                        </g>
                        <g id="nfa1dza" class="note">
                           <g class="notehead">
                              <use xlink:href="#E0A4-vffu7y" x="19188" y="1535" height="720px" width="720px" />
                           </g>
                           <g id="s1srcf6k" class="stem">
                              <rect x="19396" y="905" height="602" width="18" />
                           </g>
                        </g>
                        <g id="n1yn6zaw" class="note">
                           <g class="notehead">
                              <use xlink:href="#E0A4-vffu7y" x="19589" y="1445" height="720px" width="720px" />
                           </g>
                           <g id="sytirsd" class="stem">
                              <rect x="19797" y="833" height="584" width="18" />
                           </g>
                           <g id="ar6zgu2" class="accid" />
                        </g>
                     </g>
                  </g>
               </g>
               <g id="b19rqkr3" class="barLine">
                  <path d="M19990 1085 L19990 1805" stroke="currentColor" stroke-width="27" />
               </g>
            </g>
         </g>
         <g id="sgvdfzg" class="system">
            <g id="liy9s1d" class="labelAbbr">
               <text x="914" y="3884" text-anchor="end" font-size="0px">
                  <tspan id="tgfclnm" class="text">
                     <tspan font-size="405px" class="text">Pno.</tspan>
                  </tspan>
               </text>
            </g>
            <g id="m1htabpm" class="measure">
               <g id="m13mqg0f" class="mNum autogenerated">
                  <text x="1094" y="3191" text-anchor="middle" font-size="0px">
                     <tspan id="t1utdh3k" class="text">
                        <tspan font-size="324px" class="text">8</tspan>
                     </tspan>
                  </text>
               </g>
               <g id="sk52kum" class="staff">
                  <path d="M1094 3434 L5222 3434" stroke="currentColor" stroke-width="13" />
                  <path d="M1094 3614 L5222 3614" stroke="currentColor" stroke-width="13" />
                  <path d="M1094 3794 L5222 3794" stroke="currentColor" stroke-width="13" />
                  <path d="M1094 3974 L5222 3974" stroke="currentColor" stroke-width="13" />
                  <path d="M1094 4154 L5222 4154" stroke="currentColor" stroke-width="13" />
                  <g id="c1e9hd1m" class="clef">
                     <use xlink:href="#E050-vffu7y" x="1184" y="3974" height="720px" width="720px" />
                  </g>
                  <g id="k1qo90m8" class="keySig">
                     <g id="k17hd3ev" class="keyAccid">
                        <use xlink:href="#E260-vffu7y" x="1829" y="3794" height="720px" width="720px" />
                     </g>
                     <g id="k1lzc712" class="keyAccid">
                        <use xlink:href="#E260-vffu7y" x="2009" y="3524" height="720px" width="720px" />
                     </g>
                  </g>
                  <g id="l1y7kzlm" class="layer">
                     <g id="bitywsx" class="beam">
                        <polygon points="2629,3344 3643,3164 3643,3254 2629,3434" />
                        <polygon points="3236,3371 3643,3299 3643,3389 3236,3461" />
                        <g id="n22alvy" class="note">
                           <g class="notehead">
                              <use xlink:href="#E0A4-vffu7y" x="2421" y="3974" height="720px" width="720px" />
                           </g>
                           <g id="s142wqmi" class="stem">
                              <rect x="2629" y="3362" height="584" width="18" />
                           </g>
                        </g>
                        <g id="n103dmt5" class="note">
                           <g class="notehead">
                              <use xlink:href="#E0A4-vffu7y" x="3019" y="3884" height="720px" width="720px" />
                           </g>
                           <g id="s1vc277b" class="stem">
                              <rect x="3227" y="3254" height="602" width="18" />
                           </g>
                        </g>
                        <g id="nidvofn" class="note">
                           <g class="notehead">
                              <use xlink:href="#E0A4-vffu7y" x="3417" y="3794" height="720px" width="720px" />
                           </g>
                           <g id="s1foe1u4" class="stem">
                              <rect x="3625" y="3182" height="584" width="18" />
                           </g>
                           <g id="asc3il1" class="accid" />
                        </g>
                     </g>
                     <g id="b1xh3x6p" class="beam">
                        <polygon points="4023,3344 5037,3164 5037,3254 4023,3434" />
                        <polygon points="4630,3371 5037,3299 5037,3389 4630,3461" />
                        <g id="n16v07j6" class="note">
                           <g class="notehead">
                              <use xlink:href="#E0A4-vffu7y" x="3815" y="3974" height="720px" width="720px" />
                           </g>
                           <g id="s1rfnlye" class="stem">
                              <rect x="4023" y="3362" height="584" width="18" />
                           </g>
                        </g>
                        <g id="n1fki540" class="note">
                           <g class="notehead">
                              <use xlink:href="#E0A4-vffu7y" x="4413" y="3884" height="720px" width="720px" />
                           </g>
                           <g id="s1ajf6pm" class="stem">
                              <rect x="4621" y="3254" height="602" width="18" />
                           </g>
                        </g>
                        <g id="n1qm5vcn" class="note">
                           <g class="notehead">
                              <use xlink:href="#E0A4-vffu7y" x="4811" y="3794" height="720px" width="720px" />
                           </g>
                           <g id="sij6ojn" class="stem">
                              <rect x="5019" y="3182" height="584" width="18" />
                           </g>
                           <g id="a1pu1opl" class="accid" />
                        </g>
                     </g>
                  </g>
               </g>
               <g id="b1odmjlx" class="barLine">
                  <path d="M5209 3434 L5209 4154" stroke="currentColor" stroke-width="27" />
               </g>
            </g>
            <g id="mq366cj" class="measure">
               <g id="s12nvdbt" class="staff">
                  <path d="M5222 3434 L7249 3434" stroke="currentColor" stroke-width="13" />
                  <path d="M5222 3614 L7249 3614" stroke="currentColor" stroke-width="13" />
                  <path d="M5222 3794 L7249 3794" stroke="currentColor" stroke-width="13" />
                  <path d="M5222 3974 L7249 3974" stroke="currentColor" stroke-width="13" />
                  <path d="M5222 4154 L7249 4154" stroke="currentColor" stroke-width="13" />
                  <g id="l1hrubb" class="layer">
                     <g id="n95177g" class="note">
                        <g class="notehead">
                           <use xlink:href="#E0A4-vffu7y" x="5402" y="3884" height="720px" width="720px" />
                        </g>
                        <g id="s126b4kt" class="stem">
                           <rect x="5610" y="3254" height="602" width="18" />
                        </g>
                     </g>
                     <g id="n54esqe" class="note">
                        <g class="notehead">
                           <use xlink:href="#E0A4-vffu7y" x="6319" y="3794" height="720px" width="720px" />
                        </g>
                        <g id="s1i4vmnd" class="stem">
                           <rect x="6319" y="3822" height="572" width="18" />
                        </g>
                        <g id="argyk6j" class="accid" />
                     </g>
                  </g>
               </g>
               <g id="belxrqp" class="barLine">
                  <path d="M7236 3434 L7236 4154" stroke="currentColor" stroke-width="27" />
               </g>
            </g>
            <g id="sc3l2a0" class="sb" />
            <g id="mtf510m" class="measure">
               <g id="s6t6e36" class="staff">
                  <path d="M7249 3434 L9555 3434" stroke="currentColor" stroke-width="13" />
                  <path d="M7249 3614 L9555 3614" stroke="currentColor" stroke-width="13" />
                  <path d="M7249 3794 L9555 3794" stroke="currentColor" stroke-width="13" />
                  <path d="M7249 3974 L9555 3974" stroke="currentColor" stroke-width="13" />
                  <path d="M7249 4154 L9555 4154" stroke="currentColor" stroke-width="13" />
                  <g id="l1683yo0" class="layer">
                     <g id="b1tul6ne" class="beam">
                        <polygon points="7637,3254 8253,3254 8253,3344 7637,3344" />
                        <g id="n17glwsb" class="note">
                           <g class="notehead">
                              <use xlink:href="#E0A4-vffu7y" x="7429" y="3884" height="720px" width="720px" />
                           </g>
                           <g id="snyvqp5" class="stem">
                              <rect x="7637" y="3272" height="584" width="18" />
                           </g>
                        </g>
                        <g id="nwcoqh0" class="note">
                           <g class="notehead">
                              <use xlink:href="#E0A4-vffu7y" x="8027" y="3884" height="720px" width="720px" />
                           </g>
                           <g id="s119fs5d" class="stem">
                              <rect x="8235" y="3272" height="584" width="18" />
                           </g>
                        </g>
                     </g>
                     <g id="n1ubvbia" class="note">
                        <g class="notehead">
                           <use xlink:href="#E0A4-vffu7y" x="8625" y="3974" height="720px" width="720px" />
                        </g>
                        <g id="sjsqfeg" class="stem">
                           <rect x="8833" y="3344" height="602" width="18" />
                        </g>
                     </g>
                  </g>
               </g>
               <g id="b14icqmz" class="barLine">
                  <path d="M9542 3434 L9542 4154" stroke="currentColor" stroke-width="27" />
               </g>
            </g>
            <g id="mf7ea13" class="measure">
               <g id="s12i4axh" class="staff">
                  <path d="M9555 3434 L12059 3434" stroke="currentColor" stroke-width="13" />
                  <path d="M9555 3614 L12059 3614" stroke="currentColor" stroke-width="13" />
                  <path d="M9555 3794 L12059 3794" stroke="currentColor" stroke-width="13" />
                  <path d="M9555 3974 L12059 3974" stroke="currentColor" stroke-width="13" />
                  <path d="M9555 4154 L12059 4154" stroke="currentColor" stroke-width="13" />
                  <g id="l1cp1mto" class="layer">
                     <g id="n19pzcwd" class="note">
                        <g class="notehead">
                           <use xlink:href="#E0A4-vffu7y" x="9735" y="4244" height="720px" width="720px" />
                        </g>
                        <g id="s1ffo8hu" class="stem">
                           <rect x="9943" y="3614" height="602" width="18" />
                        </g>
                     </g>
                     <g id="bix96qy" class="beam">
                        <polygon points="10860,3344 11874,3164 11874,3254 10860,3434" />
                        <polygon points="11467,3371 11874,3299 11874,3389 11467,3461" />
                        <g id="n5kaugr" class="note">
                           <g class="notehead">
                              <use xlink:href="#E0A4-vffu7y" x="10652" y="3974" height="720px" width="720px" />
                           </g>
                           <g id="s1vi44tw" class="stem">
                              <rect x="10860" y="3362" height="584" width="18" />
                           </g>
                        </g>
                        <g id="n1tc3p6t" class="note">
                           <g class="notehead">
                              <use xlink:href="#E0A4-vffu7y" x="11250" y="3884" height="720px" width="720px" />
                           </g>
                           <g id="s12bte2x" class="stem">
                              <rect x="11458" y="3254" height="602" width="18" />
                           </g>
                        </g>
                        <g id="n17j6q9q" class="note">
                           <g class="notehead">
                              <use xlink:href="#E0A4-vffu7y" x="11648" y="3794" height="720px" width="720px" />
                           </g>
                           <g id="s195id60" class="stem">
                              <rect x="11856" y="3182" height="584" width="18" />
                           </g>
                           <g id="ae5xmos" class="accid" />
                        </g>
                     </g>
                  </g>
               </g>
               <g id="b1bi2s07" class="barLine">
                  <path d="M12046 3434 L12046 4154" stroke="currentColor" stroke-width="27" />
               </g>
            </g>
            <g id="m1cenm7d" class="measure">
               <g id="s1akaac1" class="staff">
                  <path d="M12059 3434 L14365 3434" stroke="currentColor" stroke-width="13" />
                  <path d="M12059 3614 L14365 3614" stroke="currentColor" stroke-width="13" />
                  <path d="M12059 3794 L14365 3794" stroke="currentColor" stroke-width="13" />
                  <path d="M12059 3974 L14365 3974" stroke="currentColor" stroke-width="13" />
                  <path d="M12059 4154 L14365 4154" stroke="currentColor" stroke-width="13" />
                  <g id="l1dai70" class="layer">
                     <g id="b14vzre0" class="beam">
                        <polygon points="12447,3254 13063,3254 13063,3344 12447,3344" />
                        <g id="n2mundp" class="note">
                           <g class="notehead">
                              <use xlink:href="#E0A4-vffu7y" x="12239" y="3884" height="720px" width="720px" />
                           </g>
                           <g id="sy5967o" class="stem">
                              <rect x="12447" y="3272" height="584" width="18" />
                           </g>
                        </g>
                        <g id="n143v3j6" class="note">
                           <g class="notehead">
                              <use xlink:href="#E0A4-vffu7y" x="12837" y="3884" height="720px" width="720px" />
                           </g>
                           <g id="s1u656k6" class="stem">
                              <rect x="13045" y="3272" height="584" width="18" />
                           </g>
                        </g>
                     </g>
                     <g id="npslxta" class="note">
                        <g class="notehead">
                           <use xlink:href="#E0A4-vffu7y" x="13435" y="3974" height="720px" width="720px" />
                        </g>
                        <g id="s1ejvn7s" class="stem">
                           <rect x="13643" y="3344" height="602" width="18" />
                        </g>
                     </g>
                  </g>
               </g>
               <g id="temtfm4" class="tie">
                  <path d="M13706,4019 C14023,4126 14640,4126 14958,4019 C14649,4174 14014,4174 13706,4019" stroke="currentColor" stroke-linecap="round" stroke-linejoin="round" stroke-width="9" />
               </g>
               <g id="btrso25" class="barLine">
                  <path d="M14352 3434 L14352 4154" stroke="currentColor" stroke-width="27" />
               </g>
            </g>
            <g id="m1i44he8" class="measure">
               <g id="s16aeo8v" class="staff">
                  <path d="M14365 3434 L16095 3434" stroke="currentColor" stroke-width="13" />
                  <path d="M14365 3614 L16095 3614" stroke="currentColor" stroke-width="13" />
                  <path d="M14365 3794 L16095 3794" stroke="currentColor" stroke-width="13" />
                  <path d="M14365 3974 L16095 3974" stroke="currentColor" stroke-width="13" />
                  <path d="M14365 4154 L16095 4154" stroke="currentColor" stroke-width="13" />
                  <g id="m1j2lq5h" class="meterSig">
                     <use xlink:href="#E081-vffu7y" x="14474" y="3614" height="720px" width="720px" />
                     <use xlink:href="#E084-vffu7y" x="14441" y="3974" height="720px" width="720px" />
                  </g>
                  <g id="l14pv3q8" class="layer">
                     <g id="nkxhca3" class="note">
                        <g class="notehead">
                           <use xlink:href="#E0A4-vffu7y" x="15003" y="3974" height="720px" width="720px" />
                        </g>
                        <g id="s1mvpyyq" class="stem">
                           <rect x="15211" y="3344" height="602" width="18" />
                        </g>
                     </g>
                  </g>
               </g>
               <g id="b1rh2aul" class="barLine">
                  <path d="M15920 3434 L15920 4154" stroke="currentColor" stroke-width="27" />
                  <path d="M16050 3434 L16050 4154" stroke="currentColor" stroke-width="90" />
               </g>
            </g>
            <g id="sononhu" class="systemMilestoneEnd s1svclir" />
         </g>
         <g id="p1t27k4e" class="pageMilestoneEnd s1gitw4k" />
         <g id="pthhq1m" class="pageMilestoneEnd m1s4drpq" />
         <g id="p2ckkht" class="pgHead">
            <text x="0" y="0" font-size="0px">
               <tspan id="rmmi869" class="rend" x="10000" y="277" text-anchor="middle">
                  <tspan id="t1yrl6jb" class="text">
                     <tspan font-size="405px" class="text">Air n 198</tspan>
                  </tspan>
               </tspan>
            </text>
         </g>
         <g id="p1nksxcs" class="pgFoot autogenerated">
            <g id="fvp79f2" class="fig">
               <g id="s1rs52no" class="svg" transform="translate(7750, 28099) scale(10, 10)">
                  <g>
                     <path fill="#00000" d="M 17.11278,49.26451 V 10.367554 h 12.696511 c 3.288815,7.336676 6.71267,14.610456 10.127281,21.888976 3.419998,-7.484684 6.255515,-14.204887 9.58887,-21.909915 2.436207,0.103726 4.316952,0.08453 6.484294,-0.05808 V 49.264423 H 50.274275 C 50.145222,38.35639 50.016136,27.448368 49.887066,16.540329 45.003488,27.315459 39.967448,38.433564 35.083854,49.208695 34.678996,49.343717 34.426583,49.135619 34.021726,49.270644 29.46588,39.330716 24.910049,29.390805 20.354201,19.450876 20.224341,29.388756 20.09461,39.326619 19.964815,49.264497 H 17.11278 Z M 36.754144,39.324695 C 32.721221,30.512695 28.6883,21.700679 24.655394,12.888662 22.530527,12.750737 22.656775,12.71031 20.714356,12.813974 v 0.966497 c 4.612938,9.99784 9.609439,20.748709 13.87298,30.081745 0.722248,-1.512523 1.444528,-3.025014 2.166808,-4.537521 z m 25.738417,9.939815 c 0,-12.965651 0,-25.931305 0,-38.896956 10.084388,0 20.168791,0 30.253178,0 0,0.960416 0,1.920849 0,2.881265 -6.482825,0 -12.965652,0 -19.448478,0 0,4.802097 0,9.604178 0,14.406277 5.52241,0 11.044819,0 16.567229,0 0,0.960415 0,1.920832 0,2.881248 -5.52241,0 -11.044819,0 -16.567229,0 0,5.282306 0,10.564611 0,15.846917 6.963035,0 13.926068,0 20.889103,0 0,0.960416 0,1.920832 0,2.881249 -10.564597,0 -21.129207,0 -31.693803,0 z m 4.321874,-2.160937 c 0,-11.765131 0,-23.530263 0,-35.295394 -0.720312,0 -1.440625,0 -2.160937,0 0,11.765131 0,23.530263 0,35.295394 0.720312,0 1.440625,0 2.160937,0 z m 32.41413,2.160937 c 0,-12.965651 0,-25.931305 0,-38.896956 2.401045,0 4.802095,0 7.203135,0 0,12.965651 0,25.931305 0,38.896956 -2.40104,0 -4.80209,0 -7.203135,0 z m 2.881265,-2.160937 c 0,-11.765131 0,-23.530263 0,-35.295394 -0.72031,0 -1.44064,0 -2.160953,0 0,11.765131 0,23.530263 0,35.295394 0.720313,0 1.440643,0 2.160953,0 z" />
                     <path fill="#00000" d="m 346.3,6.7 c -3.1,0.5 -4.9,4.4 -2.7,6.8 1.2,1.4 2.7,2.4 4.1,3.5 -2.4,5.3 -7.7,8.3 -11.9,12.1 -3.7,2.8 -7,6.2 -9.7,9.9 -2.2,-0.8 -0.3,-6.8 -0.6,-9.5 0.1,-3.1 0.7,-6.4 2.9,-8.7 1.3,-1.9 3,-3.5 4.5,-5.2 1.2,-3.4 -3.2,-4.9 -5.8,-4.6 -7.3,-0.5 -14.6,2 -20,6.8 -5,4.6 -10,10.1 -11.5,17 -0.9,3.5 -0.2,7.5 2.8,9.9 2.5,2.8 7.4,2.9 9.8,-0.2 1.7,-2.3 3.2,-4.8 3.8,-7.6 -0.1,-2.6 -4.4,-2.3 -4.3,0.2 1.2,2.4 -0.9,4.7 -2.7,6.2 -1.7,0.9 -4.7,0.7 -4.8,-1.7 -1,-5.8 2.1,-11.3 5.2,-16.1 4,-5.8 9.8,-11.2 17.2,-11.8 1.6,0 8.1,-1.2 6.8,1.4 -2.8,2.8 -5.6,6.1 -6,10.3 -1.6,7.7 0.1,15.7 -2.3,23.2 -1.1,3.9 2,2.6 2.5,0.2 3.3,-7.4 8.9,-13.4 15.1,-18.5 4.2,-3.9 9.5,-7.1 11.9,-12.6 1.3,-3.6 1.2,-9 -2.7,-10.9 -0.6,-0.2 -1.2,-0.3 -1.8,-0.3 z m 66,14.5 c -2,0.8 -1.8,4.9 0.8,4.4 3.4,0.4 2.9,-6.2 -0.8,-4.4 z m 0.6,7.3 c -1.3,0.5 -7.6,0.5 -5.4,2.2 4,-0.3 0.7,4.5 0.6,6.7 -0.4,2.9 -2.4,5.9 -1.2,8.8 2.7,1.7 5.6,-0.8 6.8,-3.2 1.6,-1.4 -0.5,-3 -1.2,-0.9 -0.4,0.8 -2.4,3.5 -2.6,1.8 1.1,-5 2.7,-9.9 3.9,-14.9 l -0.1,-0.5 h -0.9 z m -65.1,0.2 c -6.5,1.6 -10.5,9.5 -8.2,15.7 2.1,3.4 7.4,2.9 10.1,0.4 2,-0.2 3.6,-5.3 1,-3.4 -1.4,2 -4,4.2 -6.5,2.8 -2.2,-1.9 -1.9,-5.7 1.7,-5.3 3.1,-0.9 6.9,-2.1 8.1,-5.5 0.9,-2.7 -1.6,-5.2 -4.3,-4.8 h -1.1 -0.7 z m 13.6,0 c -2.2,0 -8.5,1.8 -2.9,2.3 0.9,1.9 -1,4.9 -1.1,7.2 -0.5,2.9 -1.4,5.7 -1.7,8.7 3.7,0.7 3.8,-2.6 4.4,-5.3 0.9,-3.3 1.6,-7 4.1,-9.5 2.4,1.6 6.8,-0.7 3.7,-3.4 -2.9,-0.5 -4.8,2.4 -6.2,4.3 0,-1.2 2.4,-5 -0.2,-4.3 z m 15.8,0 c -6.4,1.3 -9.6,9.1 -7.7,14.9 1.9,4 7.7,3.9 11,1.7 4.1,-3 6,-8.9 4.4,-13.7 -1.3,-3 -4.8,-3.2 -7.6,-3 z m 17,0 c -2.3,0 -8.8,1.9 -3,2.4 0.4,2.5 -1,5.7 -1.4,8.4 -0.7,2.4 -1.8,7.5 2.1,7.2 3.8,-0.1 6.5,-3.5 8.5,-6.3 2,-3.2 4.5,-7 3.3,-10.9 -3.7,-3 -3.6,2.6 -3.1,5.1 -0.7,3.8 -2.7,7.9 -6.2,9.8 -3.6,0.6 -1,-4.3 -0.8,-6.1 0.6,-3.2 1.6,-6.3 1.9,-9.5 -0.4,0 -0.8,0 -1.1,0 z m 30.6,0 c -6.3,1.2 -9.5,8.9 -7.8,14.7 1.5,4 7.2,4.2 10.5,2.4 4.6,-2.8 6.6,-9.3 4.8,-14.3 -1.4,-2.8 -4.8,-3 -7.5,-2.8 z m -75.4,1.7 c 2.1,1.5 0.2,4.7 -1.6,5.7 -1.1,0.4 -5.5,3.4 -4.6,0.7 0.8,-2.7 2.2,-6.2 5.3,-6.6 l 0.9,0.1 z m 30.8,0 c 2.6,1.5 1.3,5.2 0.8,7.6 -0.8,2.7 -1.9,5.9 -4.7,7.1 -5.1,0.8 -4,-5.8 -2.8,-8.8 1,-2.8 3,-6.8 6.7,-5.8 z m 47.1,-0.1 c 2.9,0.7 2,4.7 1.5,6.8 -0.7,3 -1.8,6.7 -5,8 -4.7,0.8 -4,-5.1 -3,-7.9 0.9,-3 2.7,-7.3 6.5,-6.8 z m -88.1,5.9 c -0.3,1.3 0.9,-0.6 0,0 z m -1.1,2.4 c -0.2,0.5 0.5,-0.1 0,0 z m -1.3,4.5 c -0.3,1.3 0.8,-0.2 0,0 z" />
                     <text y="41" x="201" fill="#00000" style="font-style:italic;font-weight:normal;font-size:30px;line-height:125%;font-family:Times;text-anchor:middle" xml:space="preserve">engraved with</text>
                  </g>
               </g>
            </g>
         </g>
      </g>
   </svg>
</svg>
