<?xml version="1.0" encoding="UTF-8" standalone="no"?>
<svg width="2100px" height="2970px" version="1.1" xmlns="http://www.w3.org/2000/svg" xmlns:xlink="http://www.w3.org/1999/xlink" xmlns:mei="http://www.music-encoding.org/ns/mei" overflow="visible">
   <desc>Engraved by Verovio 3.13.1</desc>
   <defs>
      <symbol id="E050-1w2vzi" viewBox="0 0 1000 1000" overflow="inherit">
         <path transform="scale(1,-1)" d="M441 -245c-23 -4 -48 -6 -76 -6c-59 0 -102 7 -130 20c-88 42 -150 93 -187 154c-26 44 -43 103 -48 176c0 6 -1 13 -1 19c0 54 15 111 45 170c29 57 65 106 110 148s96 85 153 127c-3 16 -8 46 -13 92c-4 43 -5 73 -5 89c0 117 16 172 69 257c34 54 64 82 89 82 c21 0 43 -30 69 -92s39 -115 41 -159v-15c0 -109 -21 -162 -67 -241c-13 -20 -63 -90 -98 -118c-13 -9 -25 -19 -37 -29l31 -181c8 1 18 2 28 2c58 0 102 -12 133 -35c59 -43 92 -104 98 -184c1 -7 1 -15 1 -22c0 -123 -87 -209 -181 -248c8 -57 17 -110 25 -162 c5 -31 6 -58 6 -80c0 -30 -5 -53 -14 -70c-35 -64 -88 -99 -158 -103c-5 0 -11 -1 -16 -1c-37 0 -72 10 -108 27c-50 24 -77 59 -80 105v11c0 29 7 55 20 76c18 28 45 42 79 44h6c49 0 93 -42 97 -87v-9c0 -51 -34 -86 -105 -106c17 -24 51 -36 102 -36c62 0 116 43 140 85 c9 16 13 41 13 74c0 20 -1 42 -5 67c-8 53 -18 106 -26 159zM461 939c-95 0 -135 -175 -135 -286c0 -24 2 -48 5 -71c50 39 92 82 127 128c40 53 60 100 60 140v8c-4 53 -22 81 -55 81h-2zM406 119l54 -326c73 25 110 78 110 161c0 7 0 15 -1 23c-7 95 -57 142 -151 142h-12 zM382 117c-72 -2 -128 -47 -128 -120v-7c2 -46 43 -99 75 -115c-3 -2 -7 -5 -10 -10c-70 33 -116 88 -123 172v11c0 68 44 126 88 159c23 17 49 29 78 36l-29 170c-21 -13 -52 -37 -92 -73c-50 -44 -86 -84 -109 -119c-45 -69 -67 -130 -67 -182v-13c5 -68 35 -127 93 -176 s125 -73 203 -73c25 0 50 3 75 9c-19 111 -36 221 -54 331z" />
      </symbol>
      <symbol id="E082-1w2vzi" viewBox="0 0 1000 1000" overflow="inherit">
         <path transform="scale(1,-1)" d="M124 -185c-18 0 -55 -14 -65 -65h-36l-3 30c0 25 6 45 18 63c11 19 22 30 39 43l121 82l37 29c15 11 27 29 38 54c12 24 18 47 18 70c0 40 -19 88 -94 88c-25 0 -32 0 -50 -8c-14 -5 -23 -12 -26 -22c3 -9 7 -15 10 -18l24 -17c12 -7 17 -11 27 -21c5 -7 7 -16 7 -27 c0 -12 0 -57 -79 -74c-30 0 -76 26 -76 94c0 66 81 135 197 135c72 0 181 -32 181 -150c0 -53 -32 -95 -113 -133l-91 -41c-26 -11 -45 -23 -57 -37l49 7c84 0 115 -41 148 -41c20 0 33 20 39 61h35c0 -152 -68 -168 -114 -168c-17 0 -65 0 -79 7h10l-28 17 c-49 37 -69 40 -87 42z" />
      </symbol>
      <symbol id="E084-1w2vzi" viewBox="0 0 1000 1000" overflow="inherit">
         <path transform="scale(1,-1)" d="M20 -78c84 97 114 180 134 329h170c-13 -32 -82 -132 -99 -151l-84 -97c-33 -36 -59 -63 -80 -81h162v102l127 123v-225h57v-39h-57v-34c0 -43 19 -65 57 -65v-34h-244v36c48 0 60 26 60 70v27h-203v39z" />
      </symbol>
      <symbol id="E0A4-1w2vzi" viewBox="0 0 1000 1000" overflow="inherit">
         <path transform="scale(1,-1)" d="M0 -39c0 68 73 172 200 172c66 0 114 -37 114 -95c0 -84 -106 -171 -218 -171c-64 0 -96 30 -96 94z" />
      </symbol>
      <symbol id="E262-1w2vzi" viewBox="0 0 1000 1000" overflow="inherit">
         <path transform="scale(1,-1)" d="M136 186v169h17v-164l44 14v-91l-44 -14v-165l44 12v-91l-44 -13v-155h-17v150l-76 -22v-155h-17v149l-43 -13v90l43 14v167l-43 -14v92l43 13v169h17v-163zM60 73v-167l76 22v168z" />
      </symbol>
   </defs>
   <style type="text/css">g.page-margin{font-family:Times;} g.ending, g.fing, g.reh, g.tempo{font-weight:bold;} g.dir, g.dynam, g.mNum{font-style:italic;} g.label{font-weight:normal;}</style>
   <svg class="definition-scale" color="black" viewBox="0 0 21000 29700">
      <g class="page-margin" transform="translate(500, 500)">
         <g id="mar4fhd" class="mdiv pageMilestone" />
         <g id="s1j2k5ol" class="score pageMilestone" />
         <g id="s1cd19s9" class="system">
            <g id="l11t8p74" class="label">
               <text x="1105" y="1535" text-anchor="end" font-size="0px">
                  <tspan id="t69gb4d" class="text">
                     <tspan font-size="405px" class="text">Piano</tspan>
                  </tspan>
               </text>
            </g>
            <g id="s54i0fw" class="section systemMilestone" />
            <g id="p151bu2z" class="pb" />
            <g id="m1qtyim9" class="measure">
               <g id="slv3art" class="staff">
                  <path d="M1285 1085 L5343 1085" stroke="currentColor" stroke-width="13" />
                  <path d="M1285 1265 L5343 1265" stroke="currentColor" stroke-width="13" />
                  <path d="M1285 1445 L5343 1445" stroke="currentColor" stroke-width="13" />
                  <path d="M1285 1625 L5343 1625" stroke="currentColor" stroke-width="13" />
                  <path d="M1285 1805 L5343 1805" stroke="currentColor" stroke-width="13" />
                  <g id="c1fyiolx" class="clef">
                     <use xlink:href="#E050-1w2vzi" x="1375" y="1625" height="720px" width="720px" />
                  </g>
                  <g id="k1sneisq" class="keySig">
                     <g id="k1xmb84h" class="keyAccid">
                        <use xlink:href="#E262-1w2vzi" x="2020" y="1085" height="720px" width="720px" />
                     </g>
                  </g>
                  <g id="mtqty5d" class="meterSig">
                     <use xlink:href="#E082-1w2vzi" x="2327" y="1265" height="720px" width="720px" />
                     <use xlink:href="#E084-1w2vzi" x="2332" y="1625" height="720px" width="720px" />
                  </g>
                  <g id="lkxrlc7" class="layer">
                     <g id="bgfwvql" class="beam">
                        <polygon points="3110,995 3689,905 3689,995 3110,1085" />
                        <g id="n15xu71o" class="note">
                           <g class="notehead">
                              <use xlink:href="#E0A4-1w2vzi" x="2902" y="1625" height="720px" width="720px" />
                           </g>
                           <g id="s1ha7clb" class="stem">
                              <rect x="3110" y="1013" height="584" width="18" />
                           </g>
                        </g>
                        <g id="n5buk35" class="note">
                           <g class="notehead">
                              <use xlink:href="#E0A4-1w2vzi" x="3463" y="1535" height="720px" width="720px" />
                           </g>
                           <g id="s2l8y7e" class="stem">
                              <rect x="3671" y="923" height="584" width="18" />
                           </g>
                        </g>
                     </g>
                     <g id="b6kwjnk" class="beam">
                        <polygon points="4231,860 5183,860 5183,950 4231,950" />
                        <polygon points="4801,995 5183,995 5183,1085 4801,1085" />
                        <g id="nvthuw9" class="note">
                           <g class="notehead">
                              <use xlink:href="#E0A4-1w2vzi" x="4023" y="1445" height="720px" width="720px" />
                           </g>
                           <g id="s1xxlbtr" class="stem">
                              <rect x="4231" y="878" height="539" width="18" />
                           </g>
                        </g>
                        <g id="ntm3ldp" class="note">
                           <g class="notehead">
                              <use xlink:href="#E0A4-1w2vzi" x="4584" y="1535" height="720px" width="720px" />
                           </g>
                           <g id="s6f3w3e" class="stem">
                              <rect x="4792" y="878" height="629" width="18" />
                           </g>
                        </g>
                        <g id="n1rjtvgw" class="note">
                           <g class="notehead">
                              <use xlink:href="#E0A4-1w2vzi" x="4957" y="1445" height="720px" width="720px" />
                           </g>
                           <g id="s1arq2s7" class="stem">
                              <rect x="5165" y="878" height="539" width="18" />
                           </g>
                        </g>
                     </g>
                  </g>
               </g>
               <g id="b1cjnwil" class="barLine">
                  <path d="M5330 1085 L5330 1805" stroke="currentColor" stroke-width="27" />
               </g>
            </g>
            <g id="mye2onz" class="measure">
               <g id="skjdtvg" class="staff">
                  <path d="M5343 1085 L7519 1085" stroke="currentColor" stroke-width="13" />
                  <path d="M5343 1265 L7519 1265" stroke="currentColor" stroke-width="13" />
                  <path d="M5343 1445 L7519 1445" stroke="currentColor" stroke-width="13" />
                  <path d="M5343 1625 L7519 1625" stroke="currentColor" stroke-width="13" />
                  <path d="M5343 1805 L7519 1805" stroke="currentColor" stroke-width="13" />
                  <g id="l693tgq" class="layer">
                     <g id="b5k07x1" class="beam">
                        <polygon points="5525,1940 6104,2030 6104,1940 5525,1850" />
                        <g id="n1ovlmpg" class="note">
                           <g class="notehead">
                              <use xlink:href="#E0A4-1w2vzi" x="5525" y="1355" height="720px" width="720px" />
                           </g>
                           <g id="s1o2qcnz" class="stem">
                              <rect x="5525" y="1383" height="539" width="18" />
                           </g>
                        </g>
                        <g id="n1laujjq" class="note">
                           <g class="notehead">
                              <use xlink:href="#E0A4-1w2vzi" x="6086" y="1445" height="720px" width="720px" />
                           </g>
                           <g id="s177l4h9" class="stem">
                              <rect x="6086" y="1473" height="539" width="18" />
                           </g>
                        </g>
                     </g>
                     <g id="n1to2b8c" class="note">
                        <g class="notehead">
                           <use xlink:href="#E0A4-1w2vzi" x="6646" y="1535" height="720px" width="720px" />
                        </g>
                        <g id="s1jepv26" class="stem">
                           <rect x="6854" y="905" height="602" width="18" />
                        </g>
                     </g>
                  </g>
               </g>
               <g id="byvb75l" class="barLine">
                  <path d="M7506 1085 L7506 1805" stroke="currentColor" stroke-width="27" />
               </g>
            </g>
            <g id="m1nqn90g" class="measure">
               <g id="s1gusa0a" class="staff">
                  <path d="M7519 1085 L10142 1085" stroke="currentColor" stroke-width="13" />
                  <path d="M7519 1265 L10142 1265" stroke="currentColor" stroke-width="13" />
                  <path d="M7519 1445 L10142 1445" stroke="currentColor" stroke-width="13" />
                  <path d="M7519 1625 L10142 1625" stroke="currentColor" stroke-width="13" />
                  <path d="M7519 1805 L10142 1805" stroke="currentColor" stroke-width="13" />
                  <g id="l6wrnz2" class="layer">
                     <g id="blgwh0o" class="beam">
                        <polygon points="7909,860 8861,860 8861,950 7909,950" />
                        <polygon points="8479,995 8861,995 8861,1085 8479,1085" />
                        <g id="n1hqmbwk" class="note">
                           <g class="notehead">
                              <use xlink:href="#E0A4-1w2vzi" x="7701" y="1445" height="720px" width="720px" />
                           </g>
                           <g id="s2128sn" class="stem">
                              <rect x="7909" y="878" height="539" width="18" />
                           </g>
                        </g>
                        <g id="nf80fqq" class="note">
                           <g class="notehead">
                              <use xlink:href="#E0A4-1w2vzi" x="8262" y="1535" height="720px" width="720px" />
                           </g>
                           <g id="sj9h3uj" class="stem">
                              <rect x="8470" y="878" height="629" width="18" />
                           </g>
                        </g>
                        <g id="nbq95qp" class="note">
                           <g class="notehead">
                              <use xlink:href="#E0A4-1w2vzi" x="8635" y="1445" height="720px" width="720px" />
                           </g>
                           <g id="szrdh35" class="stem">
                              <rect x="8843" y="878" height="539" width="18" />
                           </g>
                        </g>
                     </g>
                     <g id="bvu99mu" class="beam">
                        <polygon points="9216,1040 9795,1040 9795,1130 9216,1130" />
                        <g id="n15iibe2" class="note">
                           <g class="notehead">
                              <use xlink:href="#E0A4-1w2vzi" x="9008" y="1625" height="720px" width="720px" />
                           </g>
                           <g id="s1tf7s2i" class="stem">
                              <rect x="9216" y="1058" height="539" width="18" />
                           </g>
                        </g>
                        <g id="n1k6kz2h" class="note">
                           <g class="notehead">
                              <use xlink:href="#E0A4-1w2vzi" x="9569" y="1625" height="720px" width="720px" />
                           </g>
                           <g id="s6d059g" class="stem">
                              <rect x="9777" y="1058" height="539" width="18" />
                           </g>
                        </g>
                     </g>
                  </g>
               </g>
               <g id="b1scwuyt" class="barLine">
                  <path d="M10129 1085 L10129 1805" stroke="currentColor" stroke-width="27" />
               </g>
            </g>
            <g id="m1phja0n" class="measure">
               <g id="s4ugijk" class="staff">
                  <path d="M10142 1085 L12580 1085" stroke="currentColor" stroke-width="13" />
                  <path d="M10142 1265 L12580 1265" stroke="currentColor" stroke-width="13" />
                  <path d="M10142 1445 L12580 1445" stroke="currentColor" stroke-width="13" />
                  <path d="M10142 1625 L12580 1625" stroke="currentColor" stroke-width="13" />
                  <path d="M10142 1805 L12580 1805" stroke="currentColor" stroke-width="13" />
                  <g id="lac2hz6" class="layer">
                     <g id="bjyysuv" class="beam">
                        <polygon points="10532,905 11111,995 11111,1085 10532,995" />
                        <g id="nuyvj5t" class="note">
                           <g class="notehead">
                              <use xlink:href="#E0A4-1w2vzi" x="10324" y="1535" height="720px" width="720px" />
                           </g>
                           <g id="s1ujr70v" class="stem">
                              <rect x="10532" y="923" height="584" width="18" />
                           </g>
                        </g>
                        <g id="n14810ti" class="note">
                           <g class="notehead">
                              <use xlink:href="#E0A4-1w2vzi" x="10885" y="1625" height="720px" width="720px" />
                           </g>
                           <g id="s16j6kfh" class="stem">
                              <rect x="11093" y="1013" height="584" width="18" />
                           </g>
                        </g>
                     </g>
                     <g id="b1kznfie" class="beam">
                        <polygon points="11653,1085 12232,1265 12232,1355 11653,1175" />
                        <g id="ncvzqcg" class="note">
                           <g class="notehead">
                              <use xlink:href="#E0A4-1w2vzi" x="11445" y="1715" height="720px" width="720px" />
                           </g>
                           <g id="s1qjiu1n" class="stem">
                              <rect x="11653" y="1103" height="584" width="18" />
                           </g>
                           <g id="a130t0cd" class="accid" />
                        </g>
                        <g id="n1kia63o" class="note">
                           <g class="notehead">
                              <use xlink:href="#E0A4-1w2vzi" x="12006" y="1895" height="720px" width="720px" />
                           </g>
                           <g id="s1hdr7wp" class="stem">
                              <rect x="12214" y="1283" height="584" width="18" />
                           </g>
                        </g>
                     </g>
                  </g>
               </g>
               <g id="b10bb09m" class="barLine">
                  <path d="M12567 1085 L12567 1805" stroke="currentColor" stroke-width="27" />
               </g>
            </g>
            <g id="mc64xpq" class="measure">
               <g id="su4m2ay" class="staff">
                  <path d="M12580 1085 L15203 1085" stroke="currentColor" stroke-width="13" />
                  <path d="M12580 1265 L15203 1265" stroke="currentColor" stroke-width="13" />
                  <path d="M12580 1445 L15203 1445" stroke="currentColor" stroke-width="13" />
                  <path d="M12580 1625 L15203 1625" stroke="currentColor" stroke-width="13" />
                  <path d="M12580 1805 L15203 1805" stroke="currentColor" stroke-width="13" />
                  <g id="lqclhcu" class="layer">
                     <g id="bgd2zzf" class="beam">
                        <polygon points="12970,995 13549,905 13549,995 12970,1085" />
                        <g id="n1lfpc7a" class="note">
                           <g class="notehead">
                              <use xlink:href="#E0A4-1w2vzi" x="12762" y="1625" height="720px" width="720px" />
                           </g>
                           <g id="s1fjcdy6" class="stem">
                              <rect x="12970" y="1013" height="584" width="18" />
                           </g>
                        </g>
                        <g id="nu1k2n" class="note">
                           <g class="notehead">
                              <use xlink:href="#E0A4-1w2vzi" x="13323" y="1535" height="720px" width="720px" />
                           </g>
                           <g id="s1qyi5ou" class="stem">
                              <rect x="13531" y="923" height="584" width="18" />
                           </g>
                        </g>
                     </g>
                     <g id="b8shzvm" class="beam">
                        <polygon points="14091,860 15043,860 15043,950 14091,950" />
                        <polygon points="14661,995 15043,995 15043,1085 14661,1085" />
                        <g id="ngd9cas" class="note">
                           <g class="notehead">
                              <use xlink:href="#E0A4-1w2vzi" x="13883" y="1445" height="720px" width="720px" />
                           </g>
                           <g id="sx1hvv5" class="stem">
                              <rect x="14091" y="878" height="539" width="18" />
                           </g>
                        </g>
                        <g id="n1xv1rg1" class="note">
                           <g class="notehead">
                              <use xlink:href="#E0A4-1w2vzi" x="14444" y="1535" height="720px" width="720px" />
                           </g>
                           <g id="s1mijkh6" class="stem">
                              <rect x="14652" y="878" height="629" width="18" />
                           </g>
                        </g>
                        <g id="n1x3xm6d" class="note">
                           <g class="notehead">
                              <use xlink:href="#E0A4-1w2vzi" x="14817" y="1445" height="720px" width="720px" />
                           </g>
                           <g id="s15n5f6e" class="stem">
                              <rect x="15025" y="878" height="539" width="18" />
                           </g>
                        </g>
                     </g>
                  </g>
               </g>
               <g id="b1w9iewt" class="barLine">
                  <path d="M15190 1085 L15190 1805" stroke="currentColor" stroke-width="27" />
               </g>
            </g>
            <g id="mxea0nl" class="measure">
               <g id="s9qy4ma" class="staff">
                  <path d="M15203 1085 L17379 1085" stroke="currentColor" stroke-width="13" />
                  <path d="M15203 1265 L17379 1265" stroke="currentColor" stroke-width="13" />
                  <path d="M15203 1445 L17379 1445" stroke="currentColor" stroke-width="13" />
                  <path d="M15203 1625 L17379 1625" stroke="currentColor" stroke-width="13" />
                  <path d="M15203 1805 L17379 1805" stroke="currentColor" stroke-width="13" />
                  <g id="lvxkzwa" class="layer">
                     <g id="b7lr7vt" class="beam">
                        <polygon points="15385,1940 15964,2030 15964,1940 15385,1850" />
                        <g id="n6v58cp" class="note">
                           <g class="notehead">
                              <use xlink:href="#E0A4-1w2vzi" x="15385" y="1355" height="720px" width="720px" />
                           </g>
                           <g id="swcneh" class="stem">
                              <rect x="15385" y="1383" height="539" width="18" />
                           </g>
                        </g>
                        <g id="n1p5rpwq" class="note">
                           <g class="notehead">
                              <use xlink:href="#E0A4-1w2vzi" x="15946" y="1445" height="720px" width="720px" />
                           </g>
                           <g id="sh0ulrm" class="stem">
                              <rect x="15946" y="1473" height="539" width="18" />
                           </g>
                        </g>
                     </g>
                     <g id="n10ybsiz" class="note">
                        <g class="notehead">
                           <use xlink:href="#E0A4-1w2vzi" x="16506" y="1535" height="720px" width="720px" />
                        </g>
                        <g id="sum5tzm" class="stem">
                           <rect x="16714" y="905" height="602" width="18" />
                        </g>
                     </g>
                  </g>
               </g>
               <g id="b1vu18ed" class="barLine">
                  <path d="M17366 1085 L17366 1805" stroke="currentColor" stroke-width="27" />
               </g>
            </g>
            <g id="m1b98odj" class="measure">
               <g id="swh4pob" class="staff">
                  <path d="M17379 1085 L20002 1085" stroke="currentColor" stroke-width="13" />
                  <path d="M17379 1265 L20002 1265" stroke="currentColor" stroke-width="13" />
                  <path d="M17379 1445 L20002 1445" stroke="currentColor" stroke-width="13" />
                  <path d="M17379 1625 L20002 1625" stroke="currentColor" stroke-width="13" />
                  <path d="M17379 1805 L20002 1805" stroke="currentColor" stroke-width="13" />
                  <g id="lxmrvn6" class="layer">
                     <g id="byf3ccg" class="beam">
                        <polygon points="17561,1850 18513,1850 18513,1760 17561,1760" />
                        <polygon points="18131,1715 18513,1715 18513,1625 18131,1625" />
                        <g id="n1rnfvzd" class="note">
                           <g class="notehead">
                              <use xlink:href="#E0A4-1w2vzi" x="17561" y="1265" height="720px" width="720px" />
                           </g>
                           <g id="s1cf96mr" class="stem">
                              <rect x="17561" y="1293" height="539" width="18" />
                           </g>
                        </g>
                        <g id="ngvunjt" class="note">
                           <g class="notehead">
                              <use xlink:href="#E0A4-1w2vzi" x="18122" y="1265" height="720px" width="720px" />
                           </g>
                           <g id="shbkgq3" class="stem">
                              <rect x="18122" y="1293" height="539" width="18" />
                           </g>
                        </g>
                        <g id="nakxje7" class="note">
                           <g class="notehead">
                              <use xlink:href="#E0A4-1w2vzi" x="18495" y="1175" height="720px" width="720px" />
                           </g>
                           <g id="si4g6jj" class="stem">
                              <rect x="18495" y="1203" height="629" width="18" />
                           </g>
                        </g>
                     </g>
                     <g id="b1a0afai" class="beam">
                        <polygon points="18868,1895 19447,1985 19447,1895 18868,1805" />
                        <g id="n13hlvhh" class="note">
                           <g class="notehead">
                              <use xlink:href="#E0A4-1w2vzi" x="18868" y="1265" height="720px" width="720px" />
                           </g>
                           <g id="s1mgw7mf" class="stem">
                              <rect x="18868" y="1293" height="584" width="18" />
                           </g>
                        </g>
                        <g id="nai1zeo" class="note">
                           <g class="notehead">
                              <use xlink:href="#E0A4-1w2vzi" x="19429" y="1355" height="720px" width="720px" />
                           </g>
                           <g id="s18hcb4r" class="stem">
                              <rect x="19429" y="1383" height="584" width="18" />
                           </g>
                        </g>
                     </g>
                  </g>
               </g>
               <g id="b1xdg8am" class="barLine">
                  <path d="M19989 1085 L19989 1805" stroke="currentColor" stroke-width="27" />
               </g>
            </g>
         </g>
         <g id="s1lckovr" class="system">
            <g id="lsu8pzn" class="labelAbbr">
               <text x="914" y="3705" text-anchor="end" font-size="0px">
                  <tspan id="tm9o9s8" class="text">
                     <tspan font-size="405px" class="text">Pno.</tspan>
                  </tspan>
               </text>
            </g>
            <g id="mxuifmv" class="measure">
               <g id="my7bct8" class="mNum autogenerated">
                  <text x="1094" y="3012" text-anchor="middle" font-size="0px">
                     <tspan id="to2go7g" class="text">
                        <tspan font-size="324px" class="text">8</tspan>
                     </tspan>
                  </text>
               </g>
               <g id="s6lw0yn" class="staff">
                  <path d="M1094 3255 L4380 3255" stroke="currentColor" stroke-width="13" />
                  <path d="M1094 3435 L4380 3435" stroke="currentColor" stroke-width="13" />
                  <path d="M1094 3615 L4380 3615" stroke="currentColor" stroke-width="13" />
                  <path d="M1094 3795 L4380 3795" stroke="currentColor" stroke-width="13" />
                  <path d="M1094 3975 L4380 3975" stroke="currentColor" stroke-width="13" />
                  <g id="c3gihi6" class="clef">
                     <use xlink:href="#E050-1w2vzi" x="1184" y="3795" height="720px" width="720px" />
                  </g>
                  <g id="kkcvrir" class="keySig">
                     <g id="k1r8mrr9" class="keyAccid">
                        <use xlink:href="#E262-1w2vzi" x="1829" y="3255" height="720px" width="720px" />
                     </g>
                  </g>
                  <g id="l1dy3evs" class="layer">
                     <g id="b47rq1t" class="beam">
                        <polygon points="2448,3030 3022,3120 3022,3210 2448,3120" />
                        <g id="nwjmdbx" class="note">
                           <g class="notehead">
                              <use xlink:href="#E0A4-1w2vzi" x="2240" y="3615" height="720px" width="720px" />
                           </g>
                           <g id="s1i8ef3l" class="stem">
                              <rect x="2448" y="3048" height="539" width="18" />
                           </g>
                        </g>
                        <g id="n1r4en2u" class="note">
                           <g class="notehead">
                              <use xlink:href="#E0A4-1w2vzi" x="2796" y="3705" height="720px" width="720px" />
                           </g>
                           <g id="sdqqbyn" class="stem">
                              <rect x="3004" y="3138" height="539" width="18" />
                           </g>
                        </g>
                     </g>
                     <g id="n1byfl25" class="note">
                        <g class="notehead">
                           <use xlink:href="#E0A4-1w2vzi" x="3352" y="3795" height="720px" width="720px" />
                        </g>
                        <g id="sykd91p" class="stem">
                           <rect x="3560" y="3165" height="602" width="18" />
                        </g>
                     </g>
                  </g>
               </g>
               <g id="d1ljxlyf" class="dir fine">
                  <text x="4205" y="3037" text-anchor="end" font-size="0px">
                     <tspan id="r1z013ob" class="rend">
                        <tspan id="t1idqcqj" class="text">
                           <tspan font-size="405px" class="text">Fine</tspan>
                        </tspan>
                     </tspan>
                  </text>
               </g>
               <g id="b3r0sog" class="barLine">
                  <path d="M4205 3255 L4205 3975" stroke="currentColor" stroke-width="27" />
                  <path d="M4335 3255 L4335 3975" stroke="currentColor" stroke-width="90" />
               </g>
            </g>
            <g id="s16ghv6u" class="sb" />
            <g id="mvvvz55" class="measure">
               <g id="s77ow34" class="staff">
                  <path d="M4380 3255 L6722 3255" stroke="currentColor" stroke-width="13" />
                  <path d="M4380 3435 L6722 3435" stroke="currentColor" stroke-width="13" />
                  <path d="M4380 3615 L6722 3615" stroke="currentColor" stroke-width="13" />
                  <path d="M4380 3795 L6722 3795" stroke="currentColor" stroke-width="13" />
                  <path d="M4380 3975 L6722 3975" stroke="currentColor" stroke-width="13" />
                  <g id="l1riq8ej" class="layer">
                     <g id="b7pktr1" class="beam">
                        <polygon points="4560,4200 5504,4200 5504,4110 4560,4110" />
                        <polygon points="5125,4065 5504,4065 5504,3975 5125,3975" />
                        <g id="n1tsb3qb" class="note">
                           <g class="notehead">
                              <use xlink:href="#E0A4-1w2vzi" x="4560" y="3435" height="720px" width="720px" />
                           </g>
                           <g id="s1tngcqd" class="stem">
                              <rect x="4560" y="3463" height="719" width="18" />
                           </g>
                        </g>
                        <g id="nfqyrnx" class="note">
                           <g class="notehead">
                              <use xlink:href="#E0A4-1w2vzi" x="5116" y="3615" height="720px" width="720px" />
                           </g>
                           <g id="sszzdks" class="stem">
                              <rect x="5116" y="3643" height="539" width="18" />
                           </g>
                        </g>
                        <g id="napmrg6" class="note">
                           <g class="notehead">
                              <use xlink:href="#E0A4-1w2vzi" x="5486" y="3525" height="720px" width="720px" />
                           </g>
                           <g id="svqo8qg" class="stem">
                              <rect x="5486" y="3553" height="629" width="18" />
                           </g>
                        </g>
                     </g>
                     <g id="n1xzahfc" class="note">
                        <g class="notehead">
                           <use xlink:href="#E0A4-1w2vzi" x="5856" y="3435" height="720px" width="720px" />
                        </g>
                        <g id="srx5uhh" class="stem">
                           <rect x="5856" y="3463" height="602" width="18" />
                        </g>
                     </g>
                  </g>
               </g>
               <g id="bb68o8r" class="barLine">
                  <path d="M6709 3255 L6709 3975" stroke="currentColor" stroke-width="27" />
               </g>
            </g>
            <g id="mrdbx6e" class="measure">
               <g id="sc8khce" class="staff">
                  <path d="M6722 3255 L9064 3255" stroke="currentColor" stroke-width="13" />
                  <path d="M6722 3435 L9064 3435" stroke="currentColor" stroke-width="13" />
                  <path d="M6722 3615 L9064 3615" stroke="currentColor" stroke-width="13" />
                  <path d="M6722 3795 L9064 3795" stroke="currentColor" stroke-width="13" />
                  <path d="M6722 3975 L9064 3975" stroke="currentColor" stroke-width="13" />
                  <g id="laevx5h" class="layer">
                     <g id="bo2w5eh" class="beam">
                        <polygon points="6902,4200 7846,4200 7846,4110 6902,4110" />
                        <polygon points="7467,4065 7846,4065 7846,3975 7467,3975" />
                        <g id="n16bf11i" class="note">
                           <g class="notehead">
                              <use xlink:href="#E0A4-1w2vzi" x="6902" y="3435" height="720px" width="720px" />
                           </g>
                           <g id="s1ou1m3v" class="stem">
                              <rect x="6902" y="3463" height="719" width="18" />
                           </g>
                        </g>
                        <g id="n1jgdmor" class="note">
                           <g class="notehead">
                              <use xlink:href="#E0A4-1w2vzi" x="7458" y="3615" height="720px" width="720px" />
                           </g>
                           <g id="spckqb2" class="stem">
                              <rect x="7458" y="3643" height="539" width="18" />
                           </g>
                        </g>
                        <g id="n254qk4" class="note">
                           <g class="notehead">
                              <use xlink:href="#E0A4-1w2vzi" x="7828" y="3525" height="720px" width="720px" />
                           </g>
                           <g id="sbu4xg7" class="stem">
                              <rect x="7828" y="3553" height="629" width="18" />
                           </g>
                        </g>
                     </g>
                     <g id="nlijr7a" class="note">
                        <g class="notehead">
                           <use xlink:href="#E0A4-1w2vzi" x="8198" y="3435" height="720px" width="720px" />
                        </g>
                        <g id="s1xybdy4" class="stem">
                           <rect x="8198" y="3463" height="602" width="18" />
                        </g>
                     </g>
                  </g>
               </g>
               <g id="bwjitix" class="barLine">
                  <path d="M9051 3255 L9051 3975" stroke="currentColor" stroke-width="27" />
               </g>
            </g>
            <g id="m1axw9ww" class="measure">
               <g id="syw6309" class="staff">
                  <path d="M9064 3255 L11665 3255" stroke="currentColor" stroke-width="13" />
                  <path d="M9064 3435 L11665 3435" stroke="currentColor" stroke-width="13" />
                  <path d="M9064 3615 L11665 3615" stroke="currentColor" stroke-width="13" />
                  <path d="M9064 3795 L11665 3795" stroke="currentColor" stroke-width="13" />
                  <path d="M9064 3975 L11665 3975" stroke="currentColor" stroke-width="13" />
                  <g id="l1b2vjpx" class="layer">
                     <g id="b8aisbo" class="beam">
                        <polygon points="9244,4200 10188,4200 10188,4110 9244,4110" />
                        <polygon points="9809,4065 10188,4065 10188,3975 9809,3975" />
                        <g id="nv2vrz7" class="note">
                           <g class="notehead">
                              <use xlink:href="#E0A4-1w2vzi" x="9244" y="3435" height="720px" width="720px" />
                           </g>
                           <g id="sfk2vsv" class="stem">
                              <rect x="9244" y="3463" height="719" width="18" />
                           </g>
                        </g>
                        <g id="n1ia06ry" class="note">
                           <g class="notehead">
                              <use xlink:href="#E0A4-1w2vzi" x="9800" y="3615" height="720px" width="720px" />
                           </g>
                           <g id="s1furepm" class="stem">
                              <rect x="9800" y="3643" height="539" width="18" />
                           </g>
                        </g>
                        <g id="nn0jmv" class="note">
                           <g class="notehead">
                              <use xlink:href="#E0A4-1w2vzi" x="10170" y="3525" height="720px" width="720px" />
                           </g>
                           <g id="s10esqfo" class="stem">
                              <rect x="10170" y="3553" height="629" width="18" />
                           </g>
                        </g>
                     </g>
                     <g id="bagx7eg" class="beam">
                        <polygon points="10540,4020 11114,4020 11114,3930 10540,3930" />
                        <g id="n1k881p0" class="note">
                           <g class="notehead">
                              <use xlink:href="#E0A4-1w2vzi" x="10540" y="3435" height="720px" width="720px" />
                           </g>
                           <g id="snknncx" class="stem">
                              <rect x="10540" y="3463" height="539" width="18" />
                           </g>
                        </g>
                        <g id="n1k3s0km" class="note">
                           <g class="notehead">
                              <use xlink:href="#E0A4-1w2vzi" x="11096" y="3435" height="720px" width="720px" />
                           </g>
                           <g id="s2z14u1" class="stem">
                              <rect x="11096" y="3463" height="539" width="18" />
                           </g>
                        </g>
                     </g>
                  </g>
               </g>
               <g id="b1okuw3b" class="barLine">
                  <path d="M11652 3255 L11652 3975" stroke="currentColor" stroke-width="27" />
               </g>
            </g>
            <g id="m58ffnj" class="measure">
               <g id="s6kphx7" class="staff">
                  <path d="M11665 3255 L13985 3255" stroke="currentColor" stroke-width="13" />
                  <path d="M11665 3435 L13985 3435" stroke="currentColor" stroke-width="13" />
                  <path d="M11665 3615 L13985 3615" stroke="currentColor" stroke-width="13" />
                  <path d="M11665 3795 L13985 3795" stroke="currentColor" stroke-width="13" />
                  <path d="M11665 3975 L13985 3975" stroke="currentColor" stroke-width="13" />
                  <g id="loh3px7" class="layer">
                     <g id="bdciffp" class="beam">
                        <polygon points="11845,4200 12419,4110 12419,4020 11845,4110" />
                        <g id="n1lhqap" class="note">
                           <g class="notehead">
                              <use xlink:href="#E0A4-1w2vzi" x="11845" y="3615" height="720px" width="720px" />
                           </g>
                           <g id="sfmjieo" class="stem">
                              <rect x="11845" y="3643" height="539" width="18" />
                           </g>
                        </g>
                        <g id="n1l568eh" class="note">
                           <g class="notehead">
                              <use xlink:href="#E0A4-1w2vzi" x="12401" y="3525" height="720px" width="720px" />
                           </g>
                           <g id="sde26z0" class="stem">
                              <rect x="12401" y="3553" height="539" width="18" />
                           </g>
                        </g>
                     </g>
                     <g id="n19l3vr6" class="note">
                        <g class="notehead">
                           <use xlink:href="#E0A4-1w2vzi" x="12957" y="3435" height="720px" width="720px" />
                        </g>
                        <g id="s13n3xpj" class="stem">
                           <rect x="12957" y="3463" height="602" width="18" />
                        </g>
                     </g>
                  </g>
               </g>
               <g id="b1nztm8i" class="barLine">
                  <path d="M13810 3255 L13810 3975" stroke="currentColor" stroke-width="27" />
                  <path d="M13940 3255 L13940 3975" stroke="currentColor" stroke-width="90" />
               </g>
            </g>
            <g id="s1tz7eg0" class="systemMilestoneEnd s54i0fw" />
         </g>
         <g id="p1x59nbq" class="pageMilestoneEnd s1j2k5ol" />
         <g id="pvog537" class="pageMilestoneEnd mar4fhd" />
         <g id="p1d0emoe" class="pgHead">
            <text x="0" y="0" font-size="0px">
               <tspan id="rtfj28t" class="rend" x="10000" y="277" text-anchor="middle">
                  <tspan id="t1435ixh" class="text">
                     <tspan font-size="405px" class="text">Air n 22</tspan>
                  </tspan>
               </tspan>
            </text>
         </g>
         <g id="ps65asw" class="pgFoot autogenerated">
            <g id="f1r4yao" class="fig">
               <g id="s15xrauk" class="svg" transform="translate(7750, 28099) scale(10, 10)">
                  <g>
                     <path fill="#00000" d="M 17.11278,49.26451 V 10.367554 h 12.696511 c 3.288815,7.336676 6.71267,14.610456 10.127281,21.888976 3.419998,-7.484684 6.255515,-14.204887 9.58887,-21.909915 2.436207,0.103726 4.316952,0.08453 6.484294,-0.05808 V 49.264423 H 50.274275 C 50.145222,38.35639 50.016136,27.448368 49.887066,16.540329 45.003488,27.315459 39.967448,38.433564 35.083854,49.208695 34.678996,49.343717 34.426583,49.135619 34.021726,49.270644 29.46588,39.330716 24.910049,29.390805 20.354201,19.450876 20.224341,29.388756 20.09461,39.326619 19.964815,49.264497 H 17.11278 Z M 36.754144,39.324695 C 32.721221,30.512695 28.6883,21.700679 24.655394,12.888662 22.530527,12.750737 22.656775,12.71031 20.714356,12.813974 v 0.966497 c 4.612938,9.99784 9.609439,20.748709 13.87298,30.081745 0.722248,-1.512523 1.444528,-3.025014 2.166808,-4.537521 z m 25.738417,9.939815 c 0,-12.965651 0,-25.931305 0,-38.896956 10.084388,0 20.168791,0 30.253178,0 0,0.960416 0,1.920849 0,2.881265 -6.482825,0 -12.965652,0 -19.448478,0 0,4.802097 0,9.604178 0,14.406277 5.52241,0 11.044819,0 16.567229,0 0,0.960415 0,1.920832 0,2.881248 -5.52241,0 -11.044819,0 -16.567229,0 0,5.282306 0,10.564611 0,15.846917 6.963035,0 13.926068,0 20.889103,0 0,0.960416 0,1.920832 0,2.881249 -10.564597,0 -21.129207,0 -31.693803,0 z m 4.321874,-2.160937 c 0,-11.765131 0,-23.530263 0,-35.295394 -0.720312,0 -1.440625,0 -2.160937,0 0,11.765131 0,23.530263 0,35.295394 0.720312,0 1.440625,0 2.160937,0 z m 32.41413,2.160937 c 0,-12.965651 0,-25.931305 0,-38.896956 2.401045,0 4.802095,0 7.203135,0 0,12.965651 0,25.931305 0,38.896956 -2.40104,0 -4.80209,0 -7.203135,0 z m 2.881265,-2.160937 c 0,-11.765131 0,-23.530263 0,-35.295394 -0.72031,0 -1.44064,0 -2.160953,0 0,11.765131 0,23.530263 0,35.295394 0.720313,0 1.440643,0 2.160953,0 z" />
                     <path fill="#00000" d="m 346.3,6.7 c -3.1,0.5 -4.9,4.4 -2.7,6.8 1.2,1.4 2.7,2.4 4.1,3.5 -2.4,5.3 -7.7,8.3 -11.9,12.1 -3.7,2.8 -7,6.2 -9.7,9.9 -2.2,-0.8 -0.3,-6.8 -0.6,-9.5 0.1,-3.1 0.7,-6.4 2.9,-8.7 1.3,-1.9 3,-3.5 4.5,-5.2 1.2,-3.4 -3.2,-4.9 -5.8,-4.6 -7.3,-0.5 -14.6,2 -20,6.8 -5,4.6 -10,10.1 -11.5,17 -0.9,3.5 -0.2,7.5 2.8,9.9 2.5,2.8 7.4,2.9 9.8,-0.2 1.7,-2.3 3.2,-4.8 3.8,-7.6 -0.1,-2.6 -4.4,-2.3 -4.3,0.2 1.2,2.4 -0.9,4.7 -2.7,6.2 -1.7,0.9 -4.7,0.7 -4.8,-1.7 -1,-5.8 2.1,-11.3 5.2,-16.1 4,-5.8 9.8,-11.2 17.2,-11.8 1.6,0 8.1,-1.2 6.8,1.4 -2.8,2.8 -5.6,6.1 -6,10.3 -1.6,7.7 0.1,15.7 -2.3,23.2 -1.1,3.9 2,2.6 2.5,0.2 3.3,-7.4 8.9,-13.4 15.1,-18.5 4.2,-3.9 9.5,-7.1 11.9,-12.6 1.3,-3.6 1.2,-9 -2.7,-10.9 -0.6,-0.2 -1.2,-0.3 -1.8,-0.3 z m 66,14.5 c -2,0.8 -1.8,4.9 0.8,4.4 3.4,0.4 2.9,-6.2 -0.8,-4.4 z m 0.6,7.3 c -1.3,0.5 -7.6,0.5 -5.4,2.2 4,-0.3 0.7,4.5 0.6,6.7 -0.4,2.9 -2.4,5.9 -1.2,8.8 2.7,1.7 5.6,-0.8 6.8,-3.2 1.6,-1.4 -0.5,-3 -1.2,-0.9 -0.4,0.8 -2.4,3.5 -2.6,1.8 1.1,-5 2.7,-9.9 3.9,-14.9 l -0.1,-0.5 h -0.9 z m -65.1,0.2 c -6.5,1.6 -10.5,9.5 -8.2,15.7 2.1,3.4 7.4,2.9 10.1,0.4 2,-0.2 3.6,-5.3 1,-3.4 -1.4,2 -4,4.2 -6.5,2.8 -2.2,-1.9 -1.9,-5.7 1.7,-5.3 3.1,-0.9 6.9,-2.1 8.1,-5.5 0.9,-2.7 -1.6,-5.2 -4.3,-4.8 h -1.1 -0.7 z m 13.6,0 c -2.2,0 -8.5,1.8 -2.9,2.3 0.9,1.9 -1,4.9 -1.1,7.2 -0.5,2.9 -1.4,5.7 -1.7,8.7 3.7,0.7 3.8,-2.6 4.4,-5.3 0.9,-3.3 1.6,-7 4.1,-9.5 2.4,1.6 6.8,-0.7 3.7,-3.4 -2.9,-0.5 -4.8,2.4 -6.2,4.3 0,-1.2 2.4,-5 -0.2,-4.3 z m 15.8,0 c -6.4,1.3 -9.6,9.1 -7.7,14.9 1.9,4 7.7,3.9 11,1.7 4.1,-3 6,-8.9 4.4,-13.7 -1.3,-3 -4.8,-3.2 -7.6,-3 z m 17,0 c -2.3,0 -8.8,1.9 -3,2.4 0.4,2.5 -1,5.7 -1.4,8.4 -0.7,2.4 -1.8,7.5 2.1,7.2 3.8,-0.1 6.5,-3.5 8.5,-6.3 2,-3.2 4.5,-7 3.3,-10.9 -3.7,-3 -3.6,2.6 -3.1,5.1 -0.7,3.8 -2.7,7.9 -6.2,9.8 -3.6,0.6 -1,-4.3 -0.8,-6.1 0.6,-3.2 1.6,-6.3 1.9,-9.5 -0.4,0 -0.8,0 -1.1,0 z m 30.6,0 c -6.3,1.2 -9.5,8.9 -7.8,14.7 1.5,4 7.2,4.2 10.5,2.4 4.6,-2.8 6.6,-9.3 4.8,-14.3 -1.4,-2.8 -4.8,-3 -7.5,-2.8 z m -75.4,1.7 c 2.1,1.5 0.2,4.7 -1.6,5.7 -1.1,0.4 -5.5,3.4 -4.6,0.7 0.8,-2.7 2.2,-6.2 5.3,-6.6 l 0.9,0.1 z m 30.8,0 c 2.6,1.5 1.3,5.2 0.8,7.6 -0.8,2.7 -1.9,5.9 -4.7,7.1 -5.1,0.8 -4,-5.8 -2.8,-8.8 1,-2.8 3,-6.8 6.7,-5.8 z m 47.1,-0.1 c 2.9,0.7 2,4.7 1.5,6.8 -0.7,3 -1.8,6.7 -5,8 -4.7,0.8 -4,-5.1 -3,-7.9 0.9,-3 2.7,-7.3 6.5,-6.8 z m -88.1,5.9 c -0.3,1.3 0.9,-0.6 0,0 z m -1.1,2.4 c -0.2,0.5 0.5,-0.1 0,0 z m -1.3,4.5 c -0.3,1.3 0.8,-0.2 0,0 z" />
                     <text y="41" x="201" fill="#00000" style="font-style:italic;font-weight:normal;font-size:30px;line-height:125%;font-family:Times;text-anchor:middle" xml:space="preserve">engraved with</text>
                  </g>
               </g>
            </g>
         </g>
      </g>
   </svg>
</svg>
