<?xml version="1.0" encoding="UTF-8" standalone="no"?>
<svg width="2100px" height="2970px" version="1.1" xmlns="http://www.w3.org/2000/svg" xmlns:xlink="http://www.w3.org/1999/xlink" xmlns:mei="http://www.music-encoding.org/ns/mei" overflow="visible">
   <desc>Engraved by Verovio 3.13.1</desc>
   <defs>
      <symbol id="E044-vcc4ys" viewBox="0 0 1000 1000" overflow="inherit">
         <path transform="scale(1,-1)" d="M0 0c0 28 22 50 50 50s50 -22 50 -50s-22 -50 -50 -50s-50 22 -50 50z" />
      </symbol>
      <symbol id="E050-vcc4ys" viewBox="0 0 1000 1000" overflow="inherit">
         <path transform="scale(1,-1)" d="M441 -245c-23 -4 -48 -6 -76 -6c-59 0 -102 7 -130 20c-88 42 -150 93 -187 154c-26 44 -43 103 -48 176c0 6 -1 13 -1 19c0 54 15 111 45 170c29 57 65 106 110 148s96 85 153 127c-3 16 -8 46 -13 92c-4 43 -5 73 -5 89c0 117 16 172 69 257c34 54 64 82 89 82 c21 0 43 -30 69 -92s39 -115 41 -159v-15c0 -109 -21 -162 -67 -241c-13 -20 -63 -90 -98 -118c-13 -9 -25 -19 -37 -29l31 -181c8 1 18 2 28 2c58 0 102 -12 133 -35c59 -43 92 -104 98 -184c1 -7 1 -15 1 -22c0 -123 -87 -209 -181 -248c8 -57 17 -110 25 -162 c5 -31 6 -58 6 -80c0 -30 -5 -53 -14 -70c-35 -64 -88 -99 -158 -103c-5 0 -11 -1 -16 -1c-37 0 -72 10 -108 27c-50 24 -77 59 -80 105v11c0 29 7 55 20 76c18 28 45 42 79 44h6c49 0 93 -42 97 -87v-9c0 -51 -34 -86 -105 -106c17 -24 51 -36 102 -36c62 0 116 43 140 85 c9 16 13 41 13 74c0 20 -1 42 -5 67c-8 53 -18 106 -26 159zM461 939c-95 0 -135 -175 -135 -286c0 -24 2 -48 5 -71c50 39 92 82 127 128c40 53 60 100 60 140v8c-4 53 -22 81 -55 81h-2zM406 119l54 -326c73 25 110 78 110 161c0 7 0 15 -1 23c-7 95 -57 142 -151 142h-12 zM382 117c-72 -2 -128 -47 -128 -120v-7c2 -46 43 -99 75 -115c-3 -2 -7 -5 -10 -10c-70 33 -116 88 -123 172v11c0 68 44 126 88 159c23 17 49 29 78 36l-29 170c-21 -13 -52 -37 -92 -73c-50 -44 -86 -84 -109 -119c-45 -69 -67 -130 -67 -182v-13c5 -68 35 -127 93 -176 s125 -73 203 -73c25 0 50 3 75 9c-19 111 -36 221 -54 331z" />
      </symbol>
      <symbol id="E081-vcc4ys" viewBox="0 0 1000 1000" overflow="inherit">
         <path transform="scale(1,-1)" d="M68 -250v36c23 0 40 6 49 18c8 14 12 33 12 57v250l-82 -129l-27 13l107 255h128v-394c0 -24 5 -42 14 -53s25 -17 47 -17v-36h-248z" />
      </symbol>
      <symbol id="E082-vcc4ys" viewBox="0 0 1000 1000" overflow="inherit">
         <path transform="scale(1,-1)" d="M124 -185c-18 0 -55 -14 -65 -65h-36l-3 30c0 25 6 45 18 63c11 19 22 30 39 43l121 82l37 29c15 11 27 29 38 54c12 24 18 47 18 70c0 40 -19 88 -94 88c-25 0 -32 0 -50 -8c-14 -5 -23 -12 -26 -22c3 -9 7 -15 10 -18l24 -17c12 -7 17 -11 27 -21c5 -7 7 -16 7 -27 c0 -12 0 -57 -79 -74c-30 0 -76 26 -76 94c0 66 81 135 197 135c72 0 181 -32 181 -150c0 -53 -32 -95 -113 -133l-91 -41c-26 -11 -45 -23 -57 -37l49 7c84 0 115 -41 148 -41c20 0 33 20 39 61h35c0 -152 -68 -168 -114 -168c-17 0 -65 0 -79 7h10l-28 17 c-49 37 -69 40 -87 42z" />
      </symbol>
      <symbol id="E084-vcc4ys" viewBox="0 0 1000 1000" overflow="inherit">
         <path transform="scale(1,-1)" d="M20 -78c84 97 114 180 134 329h170c-13 -32 -82 -132 -99 -151l-84 -97c-33 -36 -59 -63 -80 -81h162v102l127 123v-225h57v-39h-57v-34c0 -43 19 -65 57 -65v-34h-244v36c48 0 60 26 60 70v27h-203v39z" />
      </symbol>
      <symbol id="E0A4-vcc4ys" viewBox="0 0 1000 1000" overflow="inherit">
         <path transform="scale(1,-1)" d="M0 -39c0 68 73 172 200 172c66 0 114 -37 114 -95c0 -84 -106 -171 -218 -171c-64 0 -96 30 -96 94z" />
      </symbol>
      <symbol id="E262-vcc4ys" viewBox="0 0 1000 1000" overflow="inherit">
         <path transform="scale(1,-1)" d="M136 186v169h17v-164l44 14v-91l-44 -14v-165l44 12v-91l-44 -13v-155h-17v150l-76 -22v-155h-17v149l-43 -13v90l43 14v167l-43 -14v92l43 13v169h17v-163zM60 73v-167l76 22v168z" />
      </symbol>
   </defs>
   <style type="text/css">g.page-margin{font-family:Times;} g.ending, g.fing, g.reh, g.tempo{font-weight:bold;} g.dir, g.dynam, g.mNum{font-style:italic;} g.label{font-weight:normal;}</style>
   <svg class="definition-scale" color="black" viewBox="0 0 21000 29700">
      <g class="page-margin" transform="translate(500, 500)">
         <g id="m1qtyrny" class="mdiv pageMilestone" />
         <g id="s17qk6hq" class="score pageMilestone" />
         <g id="s14dmoe3" class="system">
            <g id="l192awch" class="label">
               <text x="1105" y="1535" text-anchor="end" font-size="0px">
                  <tspan id="t1umxa6n" class="text">
                     <tspan font-size="405px" class="text">Piano</tspan>
                  </tspan>
               </text>
            </g>
            <g id="sn3ou64" class="section systemMilestone" />
            <g id="p1s5rw03" class="pb" />
            <g id="mca9lqm" class="measure">
               <g id="m1v5wcv8" class="mNum">
                  <text x="1285" y="842" text-anchor="middle" font-size="0px" />
               </g>
               <g id="s14aydck" class="staff">
                  <path d="M1285 1085 L4095 1085" stroke="currentColor" stroke-width="13" />
                  <path d="M1285 1265 L4095 1265" stroke="currentColor" stroke-width="13" />
                  <path d="M1285 1445 L4095 1445" stroke="currentColor" stroke-width="13" />
                  <path d="M1285 1625 L4095 1625" stroke="currentColor" stroke-width="13" />
                  <path d="M1285 1805 L4095 1805" stroke="currentColor" stroke-width="13" />
                  <g id="c1j52djz" class="clef">
                     <use xlink:href="#E050-vcc4ys" x="1375" y="1625" height="720px" width="720px" />
                  </g>
                  <g id="k2bvpwb" class="keySig">
                     <g id="k2cb75t" class="keyAccid">
                        <use xlink:href="#E262-vcc4ys" x="2020" y="1085" height="720px" width="720px" />
                     </g>
                  </g>
                  <g id="m1xzrjbi" class="meterSig">
                     <use xlink:href="#E082-vcc4ys" x="2327" y="1265" height="720px" width="720px" />
                     <use xlink:href="#E084-vcc4ys" x="2332" y="1625" height="720px" width="720px" />
                  </g>
                  <g id="lqkon8j" class="layer">
                     <g id="b11mhig5" class="beam">
                        <polygon points="3109,995 3718,1085 3718,1175 3109,1085" />
                        <g id="n1x0gxf0" class="note">
                           <g class="notehead">
                              <use xlink:href="#E0A4-vcc4ys" x="2901" y="1625" height="720px" width="720px" />
                           </g>
                           <g id="s55wop6" class="stem">
                              <rect x="3109" y="1013" height="584" width="18" />
                           </g>
                        </g>
                        <g id="n1d7c0y4" class="note">
                           <g class="notehead">
                              <use xlink:href="#E0A4-vcc4ys" x="3492" y="1715" height="720px" width="720px" />
                           </g>
                           <g id="s1yt7dxh" class="stem">
                              <rect x="3700" y="1103" height="584" width="18" />
                           </g>
                           <g id="a1pj4txi" class="accid" />
                        </g>
                     </g>
                  </g>
               </g>
               <g id="bovk82o" class="barLine">
                  <path d="M4082 1085 L4082 1805" stroke="currentColor" stroke-width="27" />
               </g>
            </g>
            <g id="m1lqjq9x" class="measure">
               <g id="s1t5nkxu" class="staff">
                  <path d="M4095 1085 L6376 1085" stroke="currentColor" stroke-width="13" />
                  <path d="M4095 1265 L6376 1265" stroke="currentColor" stroke-width="13" />
                  <path d="M4095 1445 L6376 1445" stroke="currentColor" stroke-width="13" />
                  <path d="M4095 1625 L6376 1625" stroke="currentColor" stroke-width="13" />
                  <path d="M4095 1805 L6376 1805" stroke="currentColor" stroke-width="13" />
                  <g id="l4xrg1e" class="layer">
                     <g id="b1r2xvbi" class="beam">
                        <polygon points="4484,995 5093,905 5093,995 4484,1085" />
                        <g id="ne1nbmk" class="note">
                           <g class="notehead">
                              <use xlink:href="#E0A4-vcc4ys" x="4276" y="1625" height="720px" width="720px" />
                           </g>
                           <g id="s3wt0dy" class="stem">
                              <rect x="4484" y="1013" height="584" width="18" />
                           </g>
                        </g>
                        <g id="n1cp6di1" class="note">
                           <g class="notehead">
                              <use xlink:href="#E0A4-vcc4ys" x="4867" y="1535" height="720px" width="720px" />
                           </g>
                           <g id="s1utyf7d" class="stem">
                              <rect x="5075" y="923" height="584" width="18" />
                           </g>
                        </g>
                     </g>
                     <g id="n1mru3e5" class="note">
                        <g class="notehead">
                           <use xlink:href="#E0A4-vcc4ys" x="5457" y="1535" height="720px" width="720px" />
                        </g>
                        <g id="s1xurrwy" class="stem">
                           <rect x="5665" y="905" height="602" width="18" />
                        </g>
                     </g>
                  </g>
               </g>
               <g id="buzwoa2" class="barLine">
                  <path d="M6363 1085 L6363 1805" stroke="currentColor" stroke-width="27" />
               </g>
            </g>
            <g id="m168annt" class="measure">
               <g id="s10d56jz" class="staff">
                  <path d="M6376 1085 L8657 1085" stroke="currentColor" stroke-width="13" />
                  <path d="M6376 1265 L8657 1265" stroke="currentColor" stroke-width="13" />
                  <path d="M6376 1445 L8657 1445" stroke="currentColor" stroke-width="13" />
                  <path d="M6376 1625 L8657 1625" stroke="currentColor" stroke-width="13" />
                  <path d="M6376 1805 L8657 1805" stroke="currentColor" stroke-width="13" />
                  <g id="le1h6wz" class="layer">
                     <g id="n1705ljy" class="note">
                        <g class="notehead">
                           <use xlink:href="#E0A4-vcc4ys" x="6557" y="1625" height="720px" width="720px" />
                        </g>
                        <g id="shq2j8y" class="stem">
                           <rect x="6765" y="995" height="602" width="18" />
                        </g>
                     </g>
                     <g id="brttcni" class="beam">
                        <polygon points="7671,995 8279,1085 8279,1175 7671,1085" />
                        <g id="ntat8m8" class="note">
                           <g class="notehead">
                              <use xlink:href="#E0A4-vcc4ys" x="7463" y="1625" height="720px" width="720px" />
                           </g>
                           <g id="s143qd3e" class="stem">
                              <rect x="7671" y="1013" height="584" width="18" />
                           </g>
                        </g>
                        <g id="nx1jhr1" class="note">
                           <g class="notehead">
                              <use xlink:href="#E0A4-vcc4ys" x="8053" y="1715" height="720px" width="720px" />
                           </g>
                           <g id="s115ha0q" class="stem">
                              <rect x="8261" y="1103" height="584" width="18" />
                           </g>
                           <g id="aftg3hd" class="accid" />
                        </g>
                     </g>
                  </g>
               </g>
               <g id="b1t91wu4" class="barLine">
                  <path d="M8644 1085 L8644 1805" stroke="currentColor" stroke-width="27" />
               </g>
            </g>
            <g id="mrohu9t" class="measure">
               <g id="sa6ar7i" class="staff">
                  <path d="M8657 1085 L10938 1085" stroke="currentColor" stroke-width="13" />
                  <path d="M8657 1265 L10938 1265" stroke="currentColor" stroke-width="13" />
                  <path d="M8657 1445 L10938 1445" stroke="currentColor" stroke-width="13" />
                  <path d="M8657 1625 L10938 1625" stroke="currentColor" stroke-width="13" />
                  <path d="M8657 1805 L10938 1805" stroke="currentColor" stroke-width="13" />
                  <g id="l23sa5z" class="layer">
                     <g id="b1ffhsaz" class="beam">
                        <polygon points="9046,995 9655,905 9655,995 9046,1085" />
                        <g id="ns7lpj4" class="note">
                           <g class="notehead">
                              <use xlink:href="#E0A4-vcc4ys" x="8838" y="1625" height="720px" width="720px" />
                           </g>
                           <g id="s1xg4pcx" class="stem">
                              <rect x="9046" y="1013" height="584" width="18" />
                           </g>
                        </g>
                        <g id="nkvhage" class="note">
                           <g class="notehead">
                              <use xlink:href="#E0A4-vcc4ys" x="9429" y="1535" height="720px" width="720px" />
                           </g>
                           <g id="sb306ph" class="stem">
                              <rect x="9637" y="923" height="584" width="18" />
                           </g>
                        </g>
                     </g>
                     <g id="nslkf7s" class="note">
                        <g class="notehead">
                           <use xlink:href="#E0A4-vcc4ys" x="10019" y="1535" height="720px" width="720px" />
                        </g>
                        <g id="s1dam086" class="stem">
                           <rect x="10227" y="905" height="602" width="18" />
                        </g>
                     </g>
                  </g>
               </g>
               <g id="bcybkcq" class="barLine">
                  <path d="M10925 1085 L10925 1805" stroke="currentColor" stroke-width="27" />
               </g>
            </g>
            <g id="m12j0hmk" class="measure">
               <g id="s1vjfyd2" class="staff">
                  <path d="M10938 1085 L12658 1085" stroke="currentColor" stroke-width="13" />
                  <path d="M10938 1265 L12658 1265" stroke="currentColor" stroke-width="13" />
                  <path d="M10938 1445 L12658 1445" stroke="currentColor" stroke-width="13" />
                  <path d="M10938 1625 L12658 1625" stroke="currentColor" stroke-width="13" />
                  <path d="M10938 1805 L12658 1805" stroke="currentColor" stroke-width="13" />
                  <g id="mhn1sub" class="meterSig">
                     <use xlink:href="#E081-vcc4ys" x="11047" y="1265" height="720px" width="720px" />
                     <use xlink:href="#E084-vcc4ys" x="11014" y="1625" height="720px" width="720px" />
                  </g>
                  <g id="l1sbdw0n" class="layer">
                     <g id="n1w0lylj" class="note">
                        <g class="notehead">
                           <use xlink:href="#E0A4-vcc4ys" x="11577" y="1625" height="720px" width="720px" />
                        </g>
                        <g id="syt6kuc" class="stem">
                           <rect x="11785" y="995" height="602" width="18" />
                        </g>
                     </g>
                  </g>
               </g>
               <g id="bqybmj7" class="barLine">
                  <path d="M12483 1085 L12483 1805" stroke="currentColor" stroke-width="27" />
                  <path d="M12613 1085 L12613 1805" stroke="currentColor" stroke-width="90" />
                  <use xlink:href="#E044-vcc4ys" x="12366" y="1355" height="720px" width="720px" />
                  <use xlink:href="#E044-vcc4ys" x="12366" y="1535" height="720px" width="720px" />
               </g>
            </g>
            <g id="mtxpmc4" class="measure">
               <g id="s1tr6ync" class="staff">
                  <path d="M12658 1085 L13758 1085" stroke="currentColor" stroke-width="13" />
                  <path d="M12658 1265 L13758 1265" stroke="currentColor" stroke-width="13" />
                  <path d="M12658 1445 L13758 1445" stroke="currentColor" stroke-width="13" />
                  <path d="M12658 1625 L13758 1625" stroke="currentColor" stroke-width="13" />
                  <path d="M12658 1805 L13758 1805" stroke="currentColor" stroke-width="13" />
                  <g id="lhsdsbf" class="layer">
                     <g id="nbr3ypm" class="note">
                        <g class="notehead">
                           <use xlink:href="#E0A4-vcc4ys" x="12839" y="1625" height="720px" width="720px" />
                        </g>
                        <g id="srtacym" class="stem">
                           <rect x="13047" y="995" height="602" width="18" />
                        </g>
                     </g>
                  </g>
               </g>
               <g id="bt70vdm" class="barLine">
                  <path d="M13745 1085 L13745 1805" stroke="currentColor" stroke-width="27" />
               </g>
            </g>
            <g id="m19dpw0q" class="measure">
               <g id="s5sjq9m" class="staff">
                  <path d="M13758 1085 L16783 1085" stroke="currentColor" stroke-width="13" />
                  <path d="M13758 1265 L16783 1265" stroke="currentColor" stroke-width="13" />
                  <path d="M13758 1445 L16783 1445" stroke="currentColor" stroke-width="13" />
                  <path d="M13758 1625 L16783 1625" stroke="currentColor" stroke-width="13" />
                  <path d="M13758 1805 L16783 1805" stroke="currentColor" stroke-width="13" />
                  <g id="mso6nxv" class="meterSig">
                     <use xlink:href="#E082-vcc4ys" x="13834" y="1265" height="720px" width="720px" />
                     <use xlink:href="#E084-vcc4ys" x="13839" y="1625" height="720px" width="720px" />
                  </g>
                  <g id="ljsvrmq" class="layer">
                     <g id="b5arc00" class="beam">
                        <polygon points="14616,995 15225,1175 15225,1265 14616,1085" />
                        <g id="n1a0472v" class="note">
                           <g class="notehead">
                              <use xlink:href="#E0A4-vcc4ys" x="14408" y="1625" height="720px" width="720px" />
                           </g>
                           <g id="s106zv4y" class="stem">
                              <rect x="14616" y="1013" height="584" width="18" />
                           </g>
                        </g>
                        <g id="n1yr10dm" class="note">
                           <g class="notehead">
                              <use xlink:href="#E0A4-vcc4ys" x="14999" y="1805" height="720px" width="720px" />
                           </g>
                           <g id="s1c8h6m4" class="stem">
                              <rect x="15207" y="1193" height="584" width="18" />
                           </g>
                        </g>
                     </g>
                     <g id="b1wq9y72" class="beam">
                        <polygon points="15797,1085 16405,995 16405,1085 15797,1175" />
                        <g id="nbx4fvt" class="note">
                           <g class="notehead">
                              <use xlink:href="#E0A4-vcc4ys" x="15589" y="1715" height="720px" width="720px" />
                           </g>
                           <g id="shqnau6" class="stem">
                              <rect x="15797" y="1103" height="584" width="18" />
                           </g>
                           <g id="apx0i6z" class="accid" />
                        </g>
                        <g id="n1v71qrt" class="note">
                           <g class="notehead">
                              <use xlink:href="#E0A4-vcc4ys" x="16179" y="1625" height="720px" width="720px" />
                           </g>
                           <g id="s1g7l0ao" class="stem">
                              <rect x="16387" y="1013" height="584" width="18" />
                           </g>
                        </g>
                     </g>
                  </g>
               </g>
               <g id="b1jl73xx" class="barLine">
                  <path d="M16770 1085 L16770 1805" stroke="currentColor" stroke-width="27" />
               </g>
            </g>
            <g id="mdltcfn" class="measure">
               <g id="s1el4gxf" class="staff">
                  <path d="M16783 1085 L20005 1085" stroke="currentColor" stroke-width="13" />
                  <path d="M16783 1265 L20005 1265" stroke="currentColor" stroke-width="13" />
                  <path d="M16783 1445 L20005 1445" stroke="currentColor" stroke-width="13" />
                  <path d="M16783 1625 L20005 1625" stroke="currentColor" stroke-width="13" />
                  <path d="M16783 1805 L20005 1805" stroke="currentColor" stroke-width="13" />
                  <g id="minuu0n" class="meterSig">
                     <use xlink:href="#E082-vcc4ys" x="16859" y="1265" height="720px" width="720px" />
                     <use xlink:href="#E084-vcc4ys" x="16864" y="1625" height="720px" width="720px" />
                  </g>
                  <g id="l1au0mp4" class="layer">
                     <g id="b1a6aezg" class="beam">
                        <polygon points="17641,860 18643,860 18643,950 17641,950" />
                        <polygon points="18241,995 18643,995 18643,1085 18241,1085" />
                        <g id="nn8pcl9" class="note">
                           <g class="notehead">
                              <use xlink:href="#E0A4-vcc4ys" x="17433" y="1535" height="720px" width="720px" />
                           </g>
                           <g id="sv3zh92" class="stem">
                              <rect x="17641" y="878" height="629" width="18" />
                           </g>
                        </g>
                        <g id="n1bon0pj" class="note">
                           <g class="notehead">
                              <use xlink:href="#E0A4-vcc4ys" x="18024" y="1445" height="720px" width="720px" />
                           </g>
                           <g id="scyajac" class="stem">
                              <rect x="18232" y="878" height="539" width="18" />
                           </g>
                        </g>
                        <g id="n1yzgoch" class="note">
                           <g class="notehead">
                              <use xlink:href="#E0A4-vcc4ys" x="18417" y="1535" height="720px" width="720px" />
                           </g>
                           <g id="s1y79qad" class="stem">
                              <rect x="18625" y="878" height="629" width="18" />
                           </g>
                        </g>
                     </g>
                     <g id="b1gk8nij" class="beam">
                        <polygon points="19019,995 19627,1085 19627,1175 19019,1085" />
                        <g id="n1mjt69h" class="note">
                           <g class="notehead">
                              <use xlink:href="#E0A4-vcc4ys" x="18811" y="1625" height="720px" width="720px" />
                           </g>
                           <g id="s17x4zx5" class="stem">
                              <rect x="19019" y="1013" height="584" width="18" />
                           </g>
                        </g>
                        <g id="n1vkjv6i" class="note">
                           <g class="notehead">
                              <use xlink:href="#E0A4-vcc4ys" x="19401" y="1715" height="720px" width="720px" />
                           </g>
                           <g id="szl5mt7" class="stem">
                              <rect x="19609" y="1103" height="584" width="18" />
                           </g>
                           <g id="aokzq31" class="accid" />
                        </g>
                     </g>
                  </g>
               </g>
               <g id="b12ryyye" class="barLine">
                  <path d="M19992 1085 L19992 1805" stroke="currentColor" stroke-width="27" />
               </g>
            </g>
         </g>
         <g id="s3lxk5w" class="system">
            <g id="l1twp4vh" class="labelAbbr">
               <text x="914" y="3884" text-anchor="end" font-size="0px">
                  <tspan id="t1dmgybz" class="text">
                     <tspan font-size="405px" class="text">Pno.</tspan>
                  </tspan>
               </text>
            </g>
            <g id="m1ubqjlu" class="measure">
               <g id="m5kv7um" class="mNum autogenerated">
                  <text x="1094" y="3191" text-anchor="middle" font-size="0px">
                     <tspan id="t1yub8dh" class="text">
                        <tspan font-size="324px" class="text">8</tspan>
                     </tspan>
                  </text>
               </g>
               <g id="srd5g2j" class="staff">
                  <path d="M1094 3434 L4331 3434" stroke="currentColor" stroke-width="13" />
                  <path d="M1094 3614 L4331 3614" stroke="currentColor" stroke-width="13" />
                  <path d="M1094 3794 L4331 3794" stroke="currentColor" stroke-width="13" />
                  <path d="M1094 3974 L4331 3974" stroke="currentColor" stroke-width="13" />
                  <path d="M1094 4154 L4331 4154" stroke="currentColor" stroke-width="13" />
                  <g id="c3hzba" class="clef">
                     <use xlink:href="#E050-vcc4ys" x="1184" y="3974" height="720px" width="720px" />
                  </g>
                  <g id="k1ce5lhk" class="keySig">
                     <g id="kzqx4zj" class="keyAccid">
                        <use xlink:href="#E262-vcc4ys" x="1829" y="3434" height="720px" width="720px" />
                     </g>
                  </g>
                  <g id="lyk856f" class="layer">
                     <g id="b163ijr4" class="beam">
                        <polygon points="2448,3524 3054,3614 3054,3704 2448,3614" />
                        <g id="ncrnr84" class="note">
                           <g class="notehead">
                              <use xlink:href="#E0A4-vcc4ys" x="2240" y="4154" height="720px" width="720px" />
                           </g>
                           <g id="smsqntz" class="stem">
                              <rect x="2448" y="3542" height="584" width="18" />
                           </g>
                        </g>
                        <g id="n1vz8v59" class="note">
                           <g class="notehead">
                              <use xlink:href="#E0A4-vcc4ys" x="2828" y="4244" height="720px" width="720px" />
                           </g>
                           <g id="sw8ssnp" class="stem">
                              <rect x="3036" y="3632" height="584" width="18" />
                           </g>
                        </g>
                     </g>
                     <g id="n1rhbcm" class="note">
                        <g class="notehead">
                           <use xlink:href="#E0A4-vcc4ys" x="3416" y="3974" height="720px" width="720px" />
                        </g>
                        <g id="sw4nv0n" class="stem">
                           <rect x="3624" y="3344" height="602" width="18" />
                        </g>
                     </g>
                  </g>
               </g>
               <g id="b1cmeloe" class="barLine">
                  <path d="M4318 3434 L4318 4154" stroke="currentColor" stroke-width="27" />
               </g>
            </g>
            <g id="momg460" class="measure">
               <g id="s1u9s1ef" class="staff">
                  <path d="M4331 3434 L6876 3434" stroke="currentColor" stroke-width="13" />
                  <path d="M4331 3614 L6876 3614" stroke="currentColor" stroke-width="13" />
                  <path d="M4331 3794 L6876 3794" stroke="currentColor" stroke-width="13" />
                  <path d="M4331 3974 L6876 3974" stroke="currentColor" stroke-width="13" />
                  <path d="M4331 4154 L6876 4154" stroke="currentColor" stroke-width="13" />
                  <g id="lxywp9h" class="layer">
                     <g id="bq2b2b2" class="beam">
                        <polygon points="4719,3344 5325,3524 5325,3614 4719,3434" />
                        <g id="n14r5czw" class="note">
                           <g class="notehead">
                              <use xlink:href="#E0A4-vcc4ys" x="4511" y="3974" height="720px" width="720px" />
                           </g>
                           <g id="sake45r" class="stem">
                              <rect x="4719" y="3362" height="584" width="18" />
                           </g>
                        </g>
                        <g id="n136icuk" class="note">
                           <g class="notehead">
                              <use xlink:href="#E0A4-vcc4ys" x="5099" y="4154" height="720px" width="720px" />
                           </g>
                           <g id="shnltrg" class="stem">
                              <rect x="5307" y="3542" height="584" width="18" />
                           </g>
                        </g>
                     </g>
                     <g id="b2ycrsp" class="beam">
                        <polygon points="5895,3434 6501,3344 6501,3434 5895,3524" />
                        <g id="nl4bb58" class="note">
                           <g class="notehead">
                              <use xlink:href="#E0A4-vcc4ys" x="5687" y="4064" height="720px" width="720px" />
                           </g>
                           <g id="s1x64xnv" class="stem">
                              <rect x="5895" y="3452" height="584" width="18" />
                           </g>
                           <g id="asdf4ml" class="accid" />
                        </g>
                        <g id="nnjjr8j" class="note">
                           <g class="notehead">
                              <use xlink:href="#E0A4-vcc4ys" x="6275" y="3974" height="720px" width="720px" />
                           </g>
                           <g id="siayxzc" class="stem">
                              <rect x="6483" y="3362" height="584" width="18" />
                           </g>
                        </g>
                     </g>
                  </g>
               </g>
               <g id="bif4iy9" class="barLine">
                  <path d="M6863 3434 L6863 4154" stroke="currentColor" stroke-width="27" />
               </g>
            </g>
            <g id="sq4tsw0" class="sb" />
            <g id="mcma1wr" class="measure">
               <g id="spvyc4s" class="staff">
                  <path d="M6876 3434 L9617 3434" stroke="currentColor" stroke-width="13" />
                  <path d="M6876 3614 L9617 3614" stroke="currentColor" stroke-width="13" />
                  <path d="M6876 3794 L9617 3794" stroke="currentColor" stroke-width="13" />
                  <path d="M6876 3974 L9617 3974" stroke="currentColor" stroke-width="13" />
                  <path d="M6876 4154 L9617 4154" stroke="currentColor" stroke-width="13" />
                  <g id="l1p54juh" class="layer">
                     <g id="bqbgm90" class="beam">
                        <polygon points="7264,3209 8262,3209 8262,3299 7264,3299" />
                        <polygon points="7861,3344 8262,3344 8262,3434 7861,3434" />
                        <g id="nodlewh" class="note">
                           <g class="notehead">
                              <use xlink:href="#E0A4-vcc4ys" x="7056" y="3884" height="720px" width="720px" />
                           </g>
                           <g id="s15fqxqs" class="stem">
                              <rect x="7264" y="3227" height="629" width="18" />
                           </g>
                        </g>
                        <g id="n1rjqh05" class="note">
                           <g class="notehead">
                              <use xlink:href="#E0A4-vcc4ys" x="7644" y="3794" height="720px" width="720px" />
                           </g>
                           <g id="s1rmxky3" class="stem">
                              <rect x="7852" y="3227" height="539" width="18" />
                           </g>
                        </g>
                        <g id="n139supo" class="note">
                           <g class="notehead">
                              <use xlink:href="#E0A4-vcc4ys" x="8036" y="3884" height="720px" width="720px" />
                           </g>
                           <g id="s1wmmvu7" class="stem">
                              <rect x="8244" y="3227" height="629" width="18" />
                           </g>
                        </g>
                     </g>
                     <g id="b1i12y3s" class="beam">
                        <polygon points="8636,3344 9242,3434 9242,3524 8636,3434" />
                        <g id="n1lvzccp" class="note">
                           <g class="notehead">
                              <use xlink:href="#E0A4-vcc4ys" x="8428" y="3974" height="720px" width="720px" />
                           </g>
                           <g id="s18a7ec9" class="stem">
                              <rect x="8636" y="3362" height="584" width="18" />
                           </g>
                        </g>
                        <g id="nkvd0um" class="note">
                           <g class="notehead">
                              <use xlink:href="#E0A4-vcc4ys" x="9016" y="4064" height="720px" width="720px" />
                           </g>
                           <g id="shgosda" class="stem">
                              <rect x="9224" y="3452" height="584" width="18" />
                           </g>
                           <g id="a12l1fgs" class="accid" />
                        </g>
                     </g>
                  </g>
               </g>
               <g id="bku9zma" class="barLine">
                  <path d="M9604 3434 L9604 4154" stroke="currentColor" stroke-width="27" />
               </g>
            </g>
            <g id="mhjxn23" class="measure">
               <g id="s88bfzo" class="staff">
                  <path d="M9617 3434 L11332 3434" stroke="currentColor" stroke-width="13" />
                  <path d="M9617 3614 L11332 3614" stroke="currentColor" stroke-width="13" />
                  <path d="M9617 3794 L11332 3794" stroke="currentColor" stroke-width="13" />
                  <path d="M9617 3974 L11332 3974" stroke="currentColor" stroke-width="13" />
                  <path d="M9617 4154 L11332 4154" stroke="currentColor" stroke-width="13" />
                  <g id="m165nw3p" class="meterSig">
                     <use xlink:href="#E081-vcc4ys" x="9726" y="3614" height="720px" width="720px" />
                     <use xlink:href="#E084-vcc4ys" x="9693" y="3974" height="720px" width="720px" />
                  </g>
                  <g id="l1ev92f8" class="layer">
                     <g id="n6tkrzb" class="note">
                        <g class="notehead">
                           <use xlink:href="#E0A4-vcc4ys" x="10255" y="3974" height="720px" width="720px" />
                        </g>
                        <g id="sy2ffq" class="stem">
                           <rect x="10463" y="3344" height="602" width="18" />
                        </g>
                     </g>
                  </g>
               </g>
               <g id="b78dex3" class="barLine">
                  <path d="M11157 3434 L11157 4154" stroke="currentColor" stroke-width="27" />
                  <path d="M11287 3434 L11287 4154" stroke="currentColor" stroke-width="90" />
               </g>
            </g>
            <g id="s1mveu2e" class="systemMilestoneEnd sn3ou64" />
         </g>
         <g id="povd88h" class="pageMilestoneEnd s17qk6hq" />
         <g id="p15ygqob" class="pageMilestoneEnd m1qtyrny" />
         <g id="p1hbbe0" class="pgHead">
            <text x="0" y="0" font-size="0px">
               <tspan id="rgsewxe" class="rend" x="10000" y="277" text-anchor="middle">
                  <tspan id="tuqu1ei" class="text">
                     <tspan font-size="405px" class="text">Air n 89</tspan>
                  </tspan>
               </tspan>
            </text>
         </g>
         <g id="p1cvz5w4" class="pgFoot autogenerated">
            <g id="fr33tcl" class="fig">
               <g id="s14amn6h" class="svg" transform="translate(7750, 28099) scale(10, 10)">
                  <g>
                     <path fill="#00000" d="M 17.11278,49.26451 V 10.367554 h 12.696511 c 3.288815,7.336676 6.71267,14.610456 10.127281,21.888976 3.419998,-7.484684 6.255515,-14.204887 9.58887,-21.909915 2.436207,0.103726 4.316952,0.08453 6.484294,-0.05808 V 49.264423 H 50.274275 C 50.145222,38.35639 50.016136,27.448368 49.887066,16.540329 45.003488,27.315459 39.967448,38.433564 35.083854,49.208695 34.678996,49.343717 34.426583,49.135619 34.021726,49.270644 29.46588,39.330716 24.910049,29.390805 20.354201,19.450876 20.224341,29.388756 20.09461,39.326619 19.964815,49.264497 H 17.11278 Z M 36.754144,39.324695 C 32.721221,30.512695 28.6883,21.700679 24.655394,12.888662 22.530527,12.750737 22.656775,12.71031 20.714356,12.813974 v 0.966497 c 4.612938,9.99784 9.609439,20.748709 13.87298,30.081745 0.722248,-1.512523 1.444528,-3.025014 2.166808,-4.537521 z m 25.738417,9.939815 c 0,-12.965651 0,-25.931305 0,-38.896956 10.084388,0 20.168791,0 30.253178,0 0,0.960416 0,1.920849 0,2.881265 -6.482825,0 -12.965652,0 -19.448478,0 0,4.802097 0,9.604178 0,14.406277 5.52241,0 11.044819,0 16.567229,0 0,0.960415 0,1.920832 0,2.881248 -5.52241,0 -11.044819,0 -16.567229,0 0,5.282306 0,10.564611 0,15.846917 6.963035,0 13.926068,0 20.889103,0 0,0.960416 0,1.920832 0,2.881249 -10.564597,0 -21.129207,0 -31.693803,0 z m 4.321874,-2.160937 c 0,-11.765131 0,-23.530263 0,-35.295394 -0.720312,0 -1.440625,0 -2.160937,0 0,11.765131 0,23.530263 0,35.295394 0.720312,0 1.440625,0 2.160937,0 z m 32.41413,2.160937 c 0,-12.965651 0,-25.931305 0,-38.896956 2.401045,0 4.802095,0 7.203135,0 0,12.965651 0,25.931305 0,38.896956 -2.40104,0 -4.80209,0 -7.203135,0 z m 2.881265,-2.160937 c 0,-11.765131 0,-23.530263 0,-35.295394 -0.72031,0 -1.44064,0 -2.160953,0 0,11.765131 0,23.530263 0,35.295394 0.720313,0 1.440643,0 2.160953,0 z" />
                     <path fill="#00000" d="m 346.3,6.7 c -3.1,0.5 -4.9,4.4 -2.7,6.8 1.2,1.4 2.7,2.4 4.1,3.5 -2.4,5.3 -7.7,8.3 -11.9,12.1 -3.7,2.8 -7,6.2 -9.7,9.9 -2.2,-0.8 -0.3,-6.8 -0.6,-9.5 0.1,-3.1 0.7,-6.4 2.9,-8.7 1.3,-1.9 3,-3.5 4.5,-5.2 1.2,-3.4 -3.2,-4.9 -5.8,-4.6 -7.3,-0.5 -14.6,2 -20,6.8 -5,4.6 -10,10.1 -11.5,17 -0.9,3.5 -0.2,7.5 2.8,9.9 2.5,2.8 7.4,2.9 9.8,-0.2 1.7,-2.3 3.2,-4.8 3.8,-7.6 -0.1,-2.6 -4.4,-2.3 -4.3,0.2 1.2,2.4 -0.9,4.7 -2.7,6.2 -1.7,0.9 -4.7,0.7 -4.8,-1.7 -1,-5.8 2.1,-11.3 5.2,-16.1 4,-5.8 9.8,-11.2 17.2,-11.8 1.6,0 8.1,-1.2 6.8,1.4 -2.8,2.8 -5.6,6.1 -6,10.3 -1.6,7.7 0.1,15.7 -2.3,23.2 -1.1,3.9 2,2.6 2.5,0.2 3.3,-7.4 8.9,-13.4 15.1,-18.5 4.2,-3.9 9.5,-7.1 11.9,-12.6 1.3,-3.6 1.2,-9 -2.7,-10.9 -0.6,-0.2 -1.2,-0.3 -1.8,-0.3 z m 66,14.5 c -2,0.8 -1.8,4.9 0.8,4.4 3.4,0.4 2.9,-6.2 -0.8,-4.4 z m 0.6,7.3 c -1.3,0.5 -7.6,0.5 -5.4,2.2 4,-0.3 0.7,4.5 0.6,6.7 -0.4,2.9 -2.4,5.9 -1.2,8.8 2.7,1.7 5.6,-0.8 6.8,-3.2 1.6,-1.4 -0.5,-3 -1.2,-0.9 -0.4,0.8 -2.4,3.5 -2.6,1.8 1.1,-5 2.7,-9.9 3.9,-14.9 l -0.1,-0.5 h -0.9 z m -65.1,0.2 c -6.5,1.6 -10.5,9.5 -8.2,15.7 2.1,3.4 7.4,2.9 10.1,0.4 2,-0.2 3.6,-5.3 1,-3.4 -1.4,2 -4,4.2 -6.5,2.8 -2.2,-1.9 -1.9,-5.7 1.7,-5.3 3.1,-0.9 6.9,-2.1 8.1,-5.5 0.9,-2.7 -1.6,-5.2 -4.3,-4.8 h -1.1 -0.7 z m 13.6,0 c -2.2,0 -8.5,1.8 -2.9,2.3 0.9,1.9 -1,4.9 -1.1,7.2 -0.5,2.9 -1.4,5.7 -1.7,8.7 3.7,0.7 3.8,-2.6 4.4,-5.3 0.9,-3.3 1.6,-7 4.1,-9.5 2.4,1.6 6.8,-0.7 3.7,-3.4 -2.9,-0.5 -4.8,2.4 -6.2,4.3 0,-1.2 2.4,-5 -0.2,-4.3 z m 15.8,0 c -6.4,1.3 -9.6,9.1 -7.7,14.9 1.9,4 7.7,3.9 11,1.7 4.1,-3 6,-8.9 4.4,-13.7 -1.3,-3 -4.8,-3.2 -7.6,-3 z m 17,0 c -2.3,0 -8.8,1.9 -3,2.4 0.4,2.5 -1,5.7 -1.4,8.4 -0.7,2.4 -1.8,7.5 2.1,7.2 3.8,-0.1 6.5,-3.5 8.5,-6.3 2,-3.2 4.5,-7 3.3,-10.9 -3.7,-3 -3.6,2.6 -3.1,5.1 -0.7,3.8 -2.7,7.9 -6.2,9.8 -3.6,0.6 -1,-4.3 -0.8,-6.1 0.6,-3.2 1.6,-6.3 1.9,-9.5 -0.4,0 -0.8,0 -1.1,0 z m 30.6,0 c -6.3,1.2 -9.5,8.9 -7.8,14.7 1.5,4 7.2,4.2 10.5,2.4 4.6,-2.8 6.6,-9.3 4.8,-14.3 -1.4,-2.8 -4.8,-3 -7.5,-2.8 z m -75.4,1.7 c 2.1,1.5 0.2,4.7 -1.6,5.7 -1.1,0.4 -5.5,3.4 -4.6,0.7 0.8,-2.7 2.2,-6.2 5.3,-6.6 l 0.9,0.1 z m 30.8,0 c 2.6,1.5 1.3,5.2 0.8,7.6 -0.8,2.7 -1.9,5.9 -4.7,7.1 -5.1,0.8 -4,-5.8 -2.8,-8.8 1,-2.8 3,-6.8 6.7,-5.8 z m 47.1,-0.1 c 2.9,0.7 2,4.7 1.5,6.8 -0.7,3 -1.8,6.7 -5,8 -4.7,0.8 -4,-5.1 -3,-7.9 0.9,-3 2.7,-7.3 6.5,-6.8 z m -88.1,5.9 c -0.3,1.3 0.9,-0.6 0,0 z m -1.1,2.4 c -0.2,0.5 0.5,-0.1 0,0 z m -1.3,4.5 c -0.3,1.3 0.8,-0.2 0,0 z" />
                     <text y="41" x="201" fill="#00000" style="font-style:italic;font-weight:normal;font-size:30px;line-height:125%;font-family:Times;text-anchor:middle" xml:space="preserve">engraved with</text>
                  </g>
               </g>
            </g>
         </g>
      </g>
   </svg>
</svg>
