<?xml version="1.0" encoding="UTF-8" standalone="no"?>
<svg width="2100px" height="2970px" version="1.1" xmlns="http://www.w3.org/2000/svg" xmlns:xlink="http://www.w3.org/1999/xlink" xmlns:mei="http://www.music-encoding.org/ns/mei" overflow="visible">
   <desc>Engraved by Verovio 3.13.1</desc>
   <defs>
      <symbol id="E044-ydt5tq" viewBox="0 0 1000 1000" overflow="inherit">
         <path transform="scale(1,-1)" d="M0 0c0 28 22 50 50 50s50 -22 50 -50s-22 -50 -50 -50s-50 22 -50 50z" />
      </symbol>
      <symbol id="E050-ydt5tq" viewBox="0 0 1000 1000" overflow="inherit">
         <path transform="scale(1,-1)" d="M441 -245c-23 -4 -48 -6 -76 -6c-59 0 -102 7 -130 20c-88 42 -150 93 -187 154c-26 44 -43 103 -48 176c0 6 -1 13 -1 19c0 54 15 111 45 170c29 57 65 106 110 148s96 85 153 127c-3 16 -8 46 -13 92c-4 43 -5 73 -5 89c0 117 16 172 69 257c34 54 64 82 89 82 c21 0 43 -30 69 -92s39 -115 41 -159v-15c0 -109 -21 -162 -67 -241c-13 -20 -63 -90 -98 -118c-13 -9 -25 -19 -37 -29l31 -181c8 1 18 2 28 2c58 0 102 -12 133 -35c59 -43 92 -104 98 -184c1 -7 1 -15 1 -22c0 -123 -87 -209 -181 -248c8 -57 17 -110 25 -162 c5 -31 6 -58 6 -80c0 -30 -5 -53 -14 -70c-35 -64 -88 -99 -158 -103c-5 0 -11 -1 -16 -1c-37 0 -72 10 -108 27c-50 24 -77 59 -80 105v11c0 29 7 55 20 76c18 28 45 42 79 44h6c49 0 93 -42 97 -87v-9c0 -51 -34 -86 -105 -106c17 -24 51 -36 102 -36c62 0 116 43 140 85 c9 16 13 41 13 74c0 20 -1 42 -5 67c-8 53 -18 106 -26 159zM461 939c-95 0 -135 -175 -135 -286c0 -24 2 -48 5 -71c50 39 92 82 127 128c40 53 60 100 60 140v8c-4 53 -22 81 -55 81h-2zM406 119l54 -326c73 25 110 78 110 161c0 7 0 15 -1 23c-7 95 -57 142 -151 142h-12 zM382 117c-72 -2 -128 -47 -128 -120v-7c2 -46 43 -99 75 -115c-3 -2 -7 -5 -10 -10c-70 33 -116 88 -123 172v11c0 68 44 126 88 159c23 17 49 29 78 36l-29 170c-21 -13 -52 -37 -92 -73c-50 -44 -86 -84 -109 -119c-45 -69 -67 -130 -67 -182v-13c5 -68 35 -127 93 -176 s125 -73 203 -73c25 0 50 3 75 9c-19 111 -36 221 -54 331z" />
      </symbol>
      <symbol id="E081-ydt5tq" viewBox="0 0 1000 1000" overflow="inherit">
         <path transform="scale(1,-1)" d="M68 -250v36c23 0 40 6 49 18c8 14 12 33 12 57v250l-82 -129l-27 13l107 255h128v-394c0 -24 5 -42 14 -53s25 -17 47 -17v-36h-248z" />
      </symbol>
      <symbol id="E082-ydt5tq" viewBox="0 0 1000 1000" overflow="inherit">
         <path transform="scale(1,-1)" d="M124 -185c-18 0 -55 -14 -65 -65h-36l-3 30c0 25 6 45 18 63c11 19 22 30 39 43l121 82l37 29c15 11 27 29 38 54c12 24 18 47 18 70c0 40 -19 88 -94 88c-25 0 -32 0 -50 -8c-14 -5 -23 -12 -26 -22c3 -9 7 -15 10 -18l24 -17c12 -7 17 -11 27 -21c5 -7 7 -16 7 -27 c0 -12 0 -57 -79 -74c-30 0 -76 26 -76 94c0 66 81 135 197 135c72 0 181 -32 181 -150c0 -53 -32 -95 -113 -133l-91 -41c-26 -11 -45 -23 -57 -37l49 7c84 0 115 -41 148 -41c20 0 33 20 39 61h35c0 -152 -68 -168 -114 -168c-17 0 -65 0 -79 7h10l-28 17 c-49 37 -69 40 -87 42z" />
      </symbol>
      <symbol id="E083-ydt5tq" viewBox="0 0 1000 1000" overflow="inherit">
         <path transform="scale(1,-1)" d="M208 250c97 0 177 -52 177 -116c0 -69 -40 -111 -118 -125c56 -5 125 -44 125 -116c0 -31 -10 -57 -31 -78c-19 -21 -45 -38 -78 -49l-50 -11c-15 -3 -36 -7 -55 -7c-50 0 -86 16 -113 38c-16 10 -23 18 -34 34c-7 13 -11 25 -11 38c0 43 27 83 68 83l3 -2 c61 0 75 -42 75 -70c0 -19 -24 -42 -26 -57c7 -17 20 -25 37 -25c44 0 94 29 94 78c0 75 -34 125 -138 125v36c84 0 131 22 131 98c0 54 -37 88 -87 88c-26 0 -43 -7 -51 -22c15 -22 44 -16 44 -70c0 -37 -37 -62 -71 -62c-22 0 -69 15 -69 76c0 79 101 116 178 116z" />
      </symbol>
      <symbol id="E084-ydt5tq" viewBox="0 0 1000 1000" overflow="inherit">
         <path transform="scale(1,-1)" d="M20 -78c84 97 114 180 134 329h170c-13 -32 -82 -132 -99 -151l-84 -97c-33 -36 -59 -63 -80 -81h162v102l127 123v-225h57v-39h-57v-34c0 -43 19 -65 57 -65v-34h-244v36c48 0 60 26 60 70v27h-203v39z" />
      </symbol>
      <symbol id="E088-ydt5tq" viewBox="0 0 1000 1000" overflow="inherit">
         <path transform="scale(1,-1)" d="M195 -214c76 0 88 58 90 68c0 34 -35 60 -57 73l-52 29c-21 10 -32 17 -34 20c-39 -33 -58 -54 -62 -92c5 -23 23 -98 115 -98zM301 135c0 61 -72 76 -113 76c-40 0 -77 -17 -77 -51c3 -21 15 -38 26 -50c17 -15 33 -26 48 -34l65 -28c34 27 51 56 51 87zM176 -250 c-57 0 -166 26 -166 132c0 47 30 86 89 116c-33 15 -79 60 -79 119c0 79 85 132 178 132h18c5 0 21 1 28 -1c25 0 126 -30 126 -110c0 -37 -23 -76 -69 -116c43 -25 83 -71 83 -119c0 -101 -118 -153 -208 -153z" />
      </symbol>
      <symbol id="E0A4-ydt5tq" viewBox="0 0 1000 1000" overflow="inherit">
         <path transform="scale(1,-1)" d="M0 -39c0 68 73 172 200 172c66 0 114 -37 114 -95c0 -84 -106 -171 -218 -171c-64 0 -96 30 -96 94z" />
      </symbol>
      <symbol id="E240-ydt5tq" viewBox="0 0 1000 1000" overflow="inherit">
         <path transform="scale(1,-1)" d="M179 -646c15 29 29 55 46 102c18 49 30 108 30 138c0 105 -80 173 -168 200c-18 5 -47 9 -87 16v190h22c8 0 33 -61 71 -95c4 -3 -2 3 61 -56c62 -58 122 -137 122 -241c0 -38 -13 -106 -35 -163c-20 -51 -43 -99 -66 -132c-6 -5 -10 -7 -13 -7s-5 2 -5 5l4 10 c1 3 14 25 18 33z" />
      </symbol>
      <symbol id="E260-ydt5tq" viewBox="0 0 1000 1000" overflow="inherit">
         <path transform="scale(1,-1)" d="M20 110c32 16 54 27 93 27c26 0 35 -3 54 -13c13 -7 24 -20 27 -38l4 -25c0 -28 -16 -57 -45 -89c-23 -25 -39 -44 -65 -68l-88 -79v644h20v-359zM90 106c-32 0 -48 -10 -70 -29v-194c31 31 54 59 71 84c21 32 32 59 32 84c0 9 1 16 1 20c0 14 -3 21 -11 30l-8 3z" />
      </symbol>
   </defs>
   <style type="text/css">g.page-margin{font-family:Times;} g.ending, g.fing, g.reh, g.tempo{font-weight:bold;} g.dir, g.dynam, g.mNum{font-style:italic;} g.label{font-weight:normal;}</style>
   <svg class="definition-scale" color="black" viewBox="0 0 21000 29700">
      <g class="page-margin" transform="translate(500, 500)">
         <g id="mkax50m" class="mdiv pageMilestone" />
         <g id="sbupc6h" class="score pageMilestone" />
         <g id="s1rx6xty" class="system">
            <g id="lfr1925" class="label">
               <text x="1105" y="1535" text-anchor="end" font-size="0px">
                  <tspan id="t1ixf2gp" class="text">
                     <tspan font-size="405px" class="text">Piano</tspan>
                  </tspan>
               </text>
            </g>
            <g id="s6r4ru9" class="section systemMilestone" />
            <g id="p1tm66j1" class="pb" />
            <g id="model8q" class="measure">
               <g id="m1g1kxgg" class="mNum">
                  <text x="1285" y="842" text-anchor="middle" font-size="0px" />
               </g>
               <g id="sty4sgi" class="staff">
                  <path d="M1285 1085 L3501 1085" stroke="currentColor" stroke-width="13" />
                  <path d="M1285 1265 L3501 1265" stroke="currentColor" stroke-width="13" />
                  <path d="M1285 1445 L3501 1445" stroke="currentColor" stroke-width="13" />
                  <path d="M1285 1625 L3501 1625" stroke="currentColor" stroke-width="13" />
                  <path d="M1285 1805 L3501 1805" stroke="currentColor" stroke-width="13" />
                  <g id="cqu00lm" class="clef">
                     <use xlink:href="#E050-ydt5tq" x="1375" y="1625" height="720px" width="720px" />
                  </g>
                  <g id="knn590j" class="keySig">
                     <g id="k1al875n" class="keyAccid">
                        <use xlink:href="#E260-ydt5tq" x="2020" y="1445" height="720px" width="720px" />
                     </g>
                  </g>
                  <g id="m1ymfnkz" class="meterSig">
                     <use xlink:href="#E082-ydt5tq" x="2328" y="1265" height="720px" width="720px" />
                     <use xlink:href="#E084-ydt5tq" x="2333" y="1625" height="720px" width="720px" />
                  </g>
                  <g id="l1wjnk5n" class="layer">
                     <g id="njnx1ko" class="note">
                        <g class="notehead">
                           <use xlink:href="#E0A4-ydt5tq" x="2905" y="1895" height="720px" width="720px" />
                        </g>
                        <g id="s1pdxien" class="stem">
                           <rect x="3113" y="1265" height="602" width="18" />
                           <g id="funxujs" class="flag">
                              <use xlink:href="#E240-ydt5tq" x="3113" y="1265" height="720px" width="720px" />
                           </g>
                        </g>
                     </g>
                  </g>
               </g>
               <g id="b12xcu39" class="barLine">
                  <path d="M3488 1085 L3488 1805" stroke="currentColor" stroke-width="27" />
               </g>
            </g>
            <g id="m1klkbhn" class="measure">
               <g id="s1s9uvm6" class="staff">
                  <path d="M3501 1085 L6027 1085" stroke="currentColor" stroke-width="13" />
                  <path d="M3501 1265 L6027 1265" stroke="currentColor" stroke-width="13" />
                  <path d="M3501 1445 L6027 1445" stroke="currentColor" stroke-width="13" />
                  <path d="M3501 1625 L6027 1625" stroke="currentColor" stroke-width="13" />
                  <path d="M3501 1805 L6027 1805" stroke="currentColor" stroke-width="13" />
                  <g id="ly4tbrt" class="layer">
                     <g id="b1e3maua" class="beam">
                        <polygon points="3893,995 4494,905 4494,995 3893,1085" />
                        <g id="ng1s81e" class="note">
                           <g class="notehead">
                              <use xlink:href="#E0A4-ydt5tq" x="3685" y="1625" height="720px" width="720px" />
                           </g>
                           <g id="sikd9v3" class="stem">
                              <rect x="3893" y="1013" height="584" width="18" />
                           </g>
                        </g>
                        <g id="ncyj3v9" class="note">
                           <g class="notehead">
                              <use xlink:href="#E0A4-ydt5tq" x="4268" y="1535" height="720px" width="720px" />
                           </g>
                           <g id="s1o1ngi7" class="stem">
                              <rect x="4476" y="923" height="584" width="18" />
                           </g>
                        </g>
                     </g>
                     <g id="bckr9yh" class="beam">
                        <polygon points="5058,860 5658,1040 5658,1130 5058,950" />
                        <g id="n1a17700" class="note">
                           <g class="notehead">
                              <use xlink:href="#E0A4-ydt5tq" x="4850" y="1445" height="720px" width="720px" />
                           </g>
                           <g id="s1wsxtwr" class="stem">
                              <rect x="5058" y="878" height="539" width="18" />
                           </g>
                           <g id="a1dkh4tc" class="accid" />
                        </g>
                        <g id="n1lyt9lm" class="note">
                           <g class="notehead">
                              <use xlink:href="#E0A4-ydt5tq" x="5432" y="1625" height="720px" width="720px" />
                           </g>
                           <g id="s11kokq7" class="stem">
                              <rect x="5640" y="1058" height="539" width="18" />
                           </g>
                        </g>
                     </g>
                  </g>
               </g>
               <g id="brsqt2p" class="barLine">
                  <path d="M6014 1085 L6014 1805" stroke="currentColor" stroke-width="27" />
               </g>
            </g>
            <g id="mli3h9x" class="measure">
               <g id="sk9ilo4" class="staff">
                  <path d="M6027 1085 L8282 1085" stroke="currentColor" stroke-width="13" />
                  <path d="M6027 1265 L8282 1265" stroke="currentColor" stroke-width="13" />
                  <path d="M6027 1445 L8282 1445" stroke="currentColor" stroke-width="13" />
                  <path d="M6027 1625 L8282 1625" stroke="currentColor" stroke-width="13" />
                  <path d="M6027 1805 L8282 1805" stroke="currentColor" stroke-width="13" />
                  <g id="l1blhg5n" class="layer">
                     <g id="n1gmnuyo" class="note">
                        <g class="notehead">
                           <use xlink:href="#E0A4-ydt5tq" x="6211" y="1715" height="720px" width="720px" />
                        </g>
                        <g id="s1ubk39k" class="stem">
                           <rect x="6419" y="1085" height="602" width="18" />
                        </g>
                     </g>
                     <g id="b13hdw5q" class="beam">
                        <polygon points="7312,995 7912,1175 7912,1265 7312,1085" />
                        <g id="npq8scl" class="note">
                           <g class="notehead">
                              <use xlink:href="#E0A4-ydt5tq" x="7104" y="1625" height="720px" width="720px" />
                           </g>
                           <g id="s1wsv4lp" class="stem">
                              <rect x="7312" y="1013" height="584" width="18" />
                           </g>
                        </g>
                        <g id="n110dflo" class="note">
                           <g class="notehead">
                              <use xlink:href="#E0A4-ydt5tq" x="7686" y="1895" height="720px" width="720px" />
                           </g>
                           <g id="sd6ms1c" class="stem">
                              <rect x="7894" y="1193" height="674" width="18" />
                           </g>
                        </g>
                     </g>
                  </g>
               </g>
               <g id="buttkrt" class="barLine">
                  <path d="M8269 1085 L8269 1805" stroke="currentColor" stroke-width="27" />
               </g>
            </g>
            <g id="m8wjrdb" class="measure">
               <g id="szqvgyq" class="staff">
                  <path d="M8282 1085 L10808 1085" stroke="currentColor" stroke-width="13" />
                  <path d="M8282 1265 L10808 1265" stroke="currentColor" stroke-width="13" />
                  <path d="M8282 1445 L10808 1445" stroke="currentColor" stroke-width="13" />
                  <path d="M8282 1625 L10808 1625" stroke="currentColor" stroke-width="13" />
                  <path d="M8282 1805 L10808 1805" stroke="currentColor" stroke-width="13" />
                  <g id="l1bmr9i" class="layer">
                     <g id="buoppfp" class="beam">
                        <polygon points="8674,995 9275,905 9275,995 8674,1085" />
                        <g id="n1a99rpj" class="note">
                           <g class="notehead">
                              <use xlink:href="#E0A4-ydt5tq" x="8466" y="1625" height="720px" width="720px" />
                           </g>
                           <g id="s32r76a" class="stem">
                              <rect x="8674" y="1013" height="584" width="18" />
                           </g>
                        </g>
                        <g id="n1w3pec9" class="note">
                           <g class="notehead">
                              <use xlink:href="#E0A4-ydt5tq" x="9049" y="1535" height="720px" width="720px" />
                           </g>
                           <g id="s1sf340q" class="stem">
                              <rect x="9257" y="923" height="584" width="18" />
                           </g>
                        </g>
                     </g>
                     <g id="b16sm8hh" class="beam">
                        <polygon points="9839,860 10439,1040 10439,1130 9839,950" />
                        <g id="n1wbcmlp" class="note">
                           <g class="notehead">
                              <use xlink:href="#E0A4-ydt5tq" x="9631" y="1445" height="720px" width="720px" />
                           </g>
                           <g id="skofriw" class="stem">
                              <rect x="9839" y="878" height="539" width="18" />
                           </g>
                           <g id="a10vpmcs" class="accid" />
                        </g>
                        <g id="n1vicz5d" class="note">
                           <g class="notehead">
                              <use xlink:href="#E0A4-ydt5tq" x="10213" y="1625" height="720px" width="720px" />
                           </g>
                           <g id="s1lcdia6" class="stem">
                              <rect x="10421" y="1058" height="539" width="18" />
                           </g>
                        </g>
                     </g>
                  </g>
               </g>
               <g id="blpawwt" class="barLine">
                  <path d="M10795 1085 L10795 1805" stroke="currentColor" stroke-width="27" />
               </g>
            </g>
            <g id="m1geniin" class="measure">
               <g id="suytfn3" class="staff">
                  <path d="M10808 1085 L13137 1085" stroke="currentColor" stroke-width="13" />
                  <path d="M10808 1265 L13137 1265" stroke="currentColor" stroke-width="13" />
                  <path d="M10808 1445 L13137 1445" stroke="currentColor" stroke-width="13" />
                  <path d="M10808 1625 L13137 1625" stroke="currentColor" stroke-width="13" />
                  <path d="M10808 1805 L13137 1805" stroke="currentColor" stroke-width="13" />
                  <g id="m1gelt2s" class="meterSig">
                     <use xlink:href="#E083-ydt5tq" x="10888" y="1265" height="720px" width="720px" />
                     <use xlink:href="#E088-ydt5tq" x="10891" y="1625" height="720px" width="720px" />
                  </g>
                  <g id="l18yy8io" class="layer">
                     <g id="n18dzyrk" class="note">
                        <g class="notehead">
                           <use xlink:href="#E0A4-ydt5tq" x="11443" y="1715" height="720px" width="720px" />
                        </g>
                        <g id="s1okikat" class="stem">
                           <rect x="11651" y="1085" height="602" width="18" />
                        </g>
                     </g>
                     <g id="n6tcmce" class="note">
                        <g class="notehead">
                           <use xlink:href="#E0A4-ydt5tq" x="12336" y="1625" height="720px" width="720px" />
                        </g>
                        <g id="s2xna2q" class="stem">
                           <rect x="12544" y="995" height="602" width="18" />
                           <g id="fhs79rj" class="flag">
                              <use xlink:href="#E240-ydt5tq" x="12544" y="995" height="720px" width="720px" />
                           </g>
                        </g>
                     </g>
                  </g>
               </g>
               <g id="bfesyi5" class="barLine">
                  <path d="M12962 1085 L12962 1805" stroke="currentColor" stroke-width="27" />
                  <path d="M13092 1085 L13092 1805" stroke="currentColor" stroke-width="90" />
                  <use xlink:href="#E044-ydt5tq" x="12845" y="1355" height="720px" width="720px" />
                  <use xlink:href="#E044-ydt5tq" x="12845" y="1535" height="720px" width="720px" />
               </g>
            </g>
            <g id="m13aijhl" class="measure">
               <g id="s1rcy003" class="staff">
                  <path d="M13137 1085 L14754 1085" stroke="currentColor" stroke-width="13" />
                  <path d="M13137 1265 L14754 1265" stroke="currentColor" stroke-width="13" />
                  <path d="M13137 1445 L14754 1445" stroke="currentColor" stroke-width="13" />
                  <path d="M13137 1625 L14754 1625" stroke="currentColor" stroke-width="13" />
                  <path d="M13137 1805 L14754 1805" stroke="currentColor" stroke-width="13" />
                  <g id="maagpes" class="meterSig">
                     <use xlink:href="#E081-ydt5tq" x="13244" y="1265" height="720px" width="720px" />
                     <use xlink:href="#E088-ydt5tq" x="13220" y="1625" height="720px" width="720px" />
                  </g>
                  <g id="ljaczhd" class="layer">
                     <g id="n30f26j" class="note">
                        <g class="notehead">
                           <use xlink:href="#E0A4-ydt5tq" x="14159" y="1895" height="720px" width="720px" />
                        </g>
                        <g id="s1j1ts4v" class="stem">
                           <rect x="14367" y="1265" height="602" width="18" />
                           <g id="f11lwmxt" class="flag">
                              <use xlink:href="#E240-ydt5tq" x="14367" y="1265" height="720px" width="720px" />
                           </g>
                        </g>
                     </g>
                  </g>
               </g>
               <g id="b1hab56j" class="barLine">
                  <path d="M13721 1085 L13721 1805" stroke="currentColor" stroke-width="90" />
                  <path d="M13851 1085 L13851 1805" stroke="currentColor" stroke-width="27" />
                  <use xlink:href="#E044-ydt5tq" x="13897" y="1355" height="720px" width="720px" />
                  <use xlink:href="#E044-ydt5tq" x="13897" y="1535" height="720px" width="720px" />
               </g>
               <g id="b2q7it3" class="barLine">
                  <path d="M14741 1085 L14741 1805" stroke="currentColor" stroke-width="27" />
               </g>
            </g>
            <g id="m1z0ymua" class="measure">
               <g id="sl58tkb" class="staff">
                  <path d="M14754 1085 L17749 1085" stroke="currentColor" stroke-width="13" />
                  <path d="M14754 1265 L17749 1265" stroke="currentColor" stroke-width="13" />
                  <path d="M14754 1445 L17749 1445" stroke="currentColor" stroke-width="13" />
                  <path d="M14754 1625 L17749 1625" stroke="currentColor" stroke-width="13" />
                  <path d="M14754 1805 L17749 1805" stroke="currentColor" stroke-width="13" />
                  <g id="m1kg7o4q" class="meterSig">
                     <use xlink:href="#E082-ydt5tq" x="14830" y="1265" height="720px" width="720px" />
                     <use xlink:href="#E084-ydt5tq" x="14835" y="1625" height="720px" width="720px" />
                  </g>
                  <g id="lhk54gn" class="layer">
                     <g id="b9xxx73" class="beam">
                        <polygon points="15615,995 16216,905 16216,995 15615,1085" />
                        <g id="n1lpygqf" class="note">
                           <g class="notehead">
                              <use xlink:href="#E0A4-ydt5tq" x="15407" y="1625" height="720px" width="720px" />
                           </g>
                           <g id="sly34vo" class="stem">
                              <rect x="15615" y="1013" height="584" width="18" />
                           </g>
                        </g>
                        <g id="n1jq3265" class="note">
                           <g class="notehead">
                              <use xlink:href="#E0A4-ydt5tq" x="15990" y="1535" height="720px" width="720px" />
                           </g>
                           <g id="s1s9bx1u" class="stem">
                              <rect x="16198" y="923" height="584" width="18" />
                           </g>
                        </g>
                     </g>
                     <g id="bjhwu4l" class="beam">
                        <polygon points="16780,860 17380,1040 17380,1130 16780,950" />
                        <g id="nrs99mu" class="note">
                           <g class="notehead">
                              <use xlink:href="#E0A4-ydt5tq" x="16572" y="1445" height="720px" width="720px" />
                           </g>
                           <g id="ssc2k50" class="stem">
                              <rect x="16780" y="878" height="539" width="18" />
                           </g>
                           <g id="a1rlcq3g" class="accid" />
                        </g>
                        <g id="npvtgaz" class="note">
                           <g class="notehead">
                              <use xlink:href="#E0A4-ydt5tq" x="17154" y="1625" height="720px" width="720px" />
                           </g>
                           <g id="s1hlhrr3" class="stem">
                              <rect x="17362" y="1058" height="539" width="18" />
                           </g>
                        </g>
                     </g>
                  </g>
               </g>
               <g id="b7vh895" class="barLine">
                  <path d="M17736 1085 L17736 1805" stroke="currentColor" stroke-width="27" />
               </g>
            </g>
            <g id="m1pk8oz8" class="measure">
               <g id="suuj4k2" class="staff">
                  <path d="M17749 1085 L20004 1085" stroke="currentColor" stroke-width="13" />
                  <path d="M17749 1265 L20004 1265" stroke="currentColor" stroke-width="13" />
                  <path d="M17749 1445 L20004 1445" stroke="currentColor" stroke-width="13" />
                  <path d="M17749 1625 L20004 1625" stroke="currentColor" stroke-width="13" />
                  <path d="M17749 1805 L20004 1805" stroke="currentColor" stroke-width="13" />
                  <g id="l1oe14a6" class="layer">
                     <g id="n1j9mmqn" class="note">
                        <g class="notehead">
                           <use xlink:href="#E0A4-ydt5tq" x="17933" y="1445" height="720px" width="720px" />
                        </g>
                        <g id="sog164y" class="stem">
                           <rect x="17933" y="1473" height="572" width="18" />
                        </g>
                        <g id="arbc97f" class="accid" />
                     </g>
                     <g id="bs41ddo" class="beam">
                        <polygon points="19034,905 19634,995 19634,1085 19034,995" />
                        <g id="npm1znk" class="note">
                           <g class="notehead">
                              <use xlink:href="#E0A4-ydt5tq" x="18826" y="1535" height="720px" width="720px" />
                           </g>
                           <g id="s1xix5a" class="stem">
                              <rect x="19034" y="923" height="584" width="18" />
                           </g>
                        </g>
                        <g id="n6i5o7m" class="note">
                           <g class="notehead">
                              <use xlink:href="#E0A4-ydt5tq" x="19408" y="1625" height="720px" width="720px" />
                           </g>
                           <g id="s1e1is5f" class="stem">
                              <rect x="19616" y="1013" height="584" width="18" />
                           </g>
                        </g>
                     </g>
                  </g>
               </g>
               <g id="bjitclr" class="barLine">
                  <path d="M19991 1085 L19991 1805" stroke="currentColor" stroke-width="27" />
               </g>
            </g>
         </g>
         <g id="s1e45jta" class="system">
            <g id="ldma5w7" class="labelAbbr">
               <text x="914" y="3884" text-anchor="end" font-size="0px">
                  <tspan id="ttwf0we" class="text">
                     <tspan font-size="405px" class="text">Pno.</tspan>
                  </tspan>
               </text>
            </g>
            <g id="m1rrutni" class="measure">
               <g id="m14lc10g" class="mNum autogenerated">
                  <text x="1094" y="3191" text-anchor="middle" font-size="0px">
                     <tspan id="t9vwqzj" class="text">
                        <tspan font-size="324px" class="text">8</tspan>
                     </tspan>
                  </text>
               </g>
               <g id="snb2e18" class="staff">
                  <path d="M1094 3434 L4534 3434" stroke="currentColor" stroke-width="13" />
                  <path d="M1094 3614 L4534 3614" stroke="currentColor" stroke-width="13" />
                  <path d="M1094 3794 L4534 3794" stroke="currentColor" stroke-width="13" />
                  <path d="M1094 3974 L4534 3974" stroke="currentColor" stroke-width="13" />
                  <path d="M1094 4154 L4534 4154" stroke="currentColor" stroke-width="13" />
                  <g id="c7b8f2p" class="clef">
                     <use xlink:href="#E050-ydt5tq" x="1184" y="3974" height="720px" width="720px" />
                  </g>
                  <g id="k1akcza3" class="keySig">
                     <g id="k1igk9bq" class="keyAccid">
                        <use xlink:href="#E260-ydt5tq" x="1829" y="3794" height="720px" width="720px" />
                     </g>
                  </g>
                  <g id="lxhz0b9" class="layer">
                     <g id="b1gqy1xz" class="beam">
                        <polygon points="2449,3254 3037,3434 3037,3524 2449,3344" />
                        <g id="n1o6z5y3" class="note">
                           <g class="notehead">
                              <use xlink:href="#E0A4-ydt5tq" x="2241" y="3884" height="720px" width="720px" />
                           </g>
                           <g id="s156ks88" class="stem">
                              <rect x="2449" y="3272" height="584" width="18" />
                           </g>
                        </g>
                        <g id="nfbu97j" class="note">
                           <g class="notehead">
                              <use xlink:href="#E0A4-ydt5tq" x="2811" y="4244" height="720px" width="720px" />
                           </g>
                           <g id="s1ellhz4" class="stem">
                              <rect x="3019" y="3452" height="764" width="18" />
                           </g>
                        </g>
                     </g>
                     <g id="bhqs4ef" class="beam">
                        <polygon points="3589,3344 4177,3254 4177,3344 3589,3434" />
                        <g id="njge4g6" class="note">
                           <g class="notehead">
                              <use xlink:href="#E0A4-ydt5tq" x="3381" y="3974" height="720px" width="720px" />
                           </g>
                           <g id="s1ps5xp9" class="stem">
                              <rect x="3589" y="3362" height="584" width="18" />
                           </g>
                        </g>
                        <g id="nfjetw" class="note">
                           <g class="notehead">
                              <use xlink:href="#E0A4-ydt5tq" x="3951" y="3884" height="720px" width="720px" />
                           </g>
                           <g id="savy04r" class="stem">
                              <rect x="4159" y="3272" height="584" width="18" />
                           </g>
                        </g>
                     </g>
                  </g>
               </g>
               <g id="buwyox6" class="barLine">
                  <path d="M4521 3434 L4521 4154" stroke="currentColor" stroke-width="27" />
               </g>
            </g>
            <g id="mtfjfdf" class="measure">
               <g id="s512urk" class="staff">
                  <path d="M4534 3434 L6741 3434" stroke="currentColor" stroke-width="13" />
                  <path d="M4534 3614 L6741 3614" stroke="currentColor" stroke-width="13" />
                  <path d="M4534 3794 L6741 3794" stroke="currentColor" stroke-width="13" />
                  <path d="M4534 3974 L6741 3974" stroke="currentColor" stroke-width="13" />
                  <path d="M4534 4154 L6741 4154" stroke="currentColor" stroke-width="13" />
                  <g id="l1ipde5v" class="layer">
                     <g id="b137fo7h" class="beam">
                        <polygon points="4922,3209 5510,3389 5510,3479 4922,3299" />
                        <g id="no6f9ip" class="note">
                           <g class="notehead">
                              <use xlink:href="#E0A4-ydt5tq" x="4714" y="3794" height="720px" width="720px" />
                           </g>
                           <g id="s36mvh8" class="stem">
                              <rect x="4922" y="3227" height="539" width="18" />
                           </g>
                           <g id="agsie1n" class="accid" />
                        </g>
                        <g id="n8r7u8x" class="note">
                           <g class="notehead">
                              <use xlink:href="#E0A4-ydt5tq" x="5284" y="3974" height="720px" width="720px" />
                           </g>
                           <g id="sg0eb4k" class="stem">
                              <rect x="5492" y="3407" height="539" width="18" />
                           </g>
                        </g>
                     </g>
                     <g id="nbbybeu" class="note">
                        <g class="notehead">
                           <use xlink:href="#E0A4-ydt5tq" x="5854" y="3794" height="720px" width="720px" />
                        </g>
                        <g id="soixjyn" class="stem">
                           <rect x="5854" y="3822" height="572" width="18" />
                        </g>
                        <g id="a1p3lh3s" class="accid" />
                     </g>
                  </g>
               </g>
               <g id="b13cs3ao" class="barLine">
                  <path d="M6728 3434 L6728 4154" stroke="currentColor" stroke-width="27" />
               </g>
            </g>
            <g id="sirw4e1" class="sb" />
            <g id="makaf7c" class="measure">
               <g id="s9t5y0e" class="staff">
                  <path d="M6741 3434 L9257 3434" stroke="currentColor" stroke-width="13" />
                  <path d="M6741 3614 L9257 3614" stroke="currentColor" stroke-width="13" />
                  <path d="M6741 3794 L9257 3794" stroke="currentColor" stroke-width="13" />
                  <path d="M6741 3974 L9257 3974" stroke="currentColor" stroke-width="13" />
                  <path d="M6741 4154 L9257 4154" stroke="currentColor" stroke-width="13" />
                  <g id="m1xxlpx3" class="meterSig">
                     <use xlink:href="#E083-ydt5tq" x="6821" y="3614" height="720px" width="720px" />
                     <use xlink:href="#E088-ydt5tq" x="6824" y="3974" height="720px" width="720px" />
                  </g>
                  <g id="lk502ag" class="layer">
                     <g id="b1u49k9y" class="beam">
                        <polygon points="7580,3254 8168,3254 8168,3344 7580,3344" />
                        <g id="ncgm2j1" class="note">
                           <g class="notehead">
                              <use xlink:href="#E0A4-ydt5tq" x="7372" y="3884" height="720px" width="720px" />
                           </g>
                           <g id="s19dksak" class="stem">
                              <rect x="7580" y="3272" height="584" width="18" />
                           </g>
                        </g>
                        <g id="nsh8gdu" class="note">
                           <g class="notehead">
                              <use xlink:href="#E0A4-ydt5tq" x="7942" y="3884" height="720px" width="720px" />
                           </g>
                           <g id="s7nkbjo" class="stem">
                              <rect x="8150" y="3272" height="584" width="18" />
                           </g>
                        </g>
                     </g>
                     <g id="n1mp6cdo" class="note">
                        <g class="notehead">
                           <use xlink:href="#E0A4-ydt5tq" x="8512" y="3974" height="720px" width="720px" />
                        </g>
                        <g id="sltgtll" class="stem">
                           <rect x="8720" y="3344" height="602" width="18" />
                           <g id="f1gjuazg" class="flag">
                              <use xlink:href="#E240-ydt5tq" x="8720" y="3344" height="720px" width="720px" />
                           </g>
                        </g>
                     </g>
                  </g>
               </g>
               <g id="b1ydnpui" class="barLine">
                  <path d="M9082 3434 L9082 4154" stroke="currentColor" stroke-width="27" />
                  <path d="M9212 3434 L9212 4154" stroke="currentColor" stroke-width="90" />
               </g>
            </g>
            <g id="slcs6xp" class="systemMilestoneEnd s6r4ru9" />
         </g>
         <g id="pzehulh" class="pageMilestoneEnd sbupc6h" />
         <g id="piyqsqn" class="pageMilestoneEnd mkax50m" />
         <g id="ptm5td6" class="pgHead">
            <text x="0" y="0" font-size="0px">
               <tspan id="rl16hbx" class="rend" x="10000" y="277" text-anchor="middle">
                  <tspan id="t1wvziss" class="text">
                     <tspan font-size="405px" class="text">Air n 111</tspan>
                  </tspan>
               </tspan>
            </text>
         </g>
         <g id="pzauqw" class="pgFoot autogenerated">
            <g id="f7bkwob" class="fig">
               <g id="sz0xcx9" class="svg" transform="translate(7750, 28099) scale(10, 10)">
                  <g>
                     <path fill="#00000" d="M 17.11278,49.26451 V 10.367554 h 12.696511 c 3.288815,7.336676 6.71267,14.610456 10.127281,21.888976 3.419998,-7.484684 6.255515,-14.204887 9.58887,-21.909915 2.436207,0.103726 4.316952,0.08453 6.484294,-0.05808 V 49.264423 H 50.274275 C 50.145222,38.35639 50.016136,27.448368 49.887066,16.540329 45.003488,27.315459 39.967448,38.433564 35.083854,49.208695 34.678996,49.343717 34.426583,49.135619 34.021726,49.270644 29.46588,39.330716 24.910049,29.390805 20.354201,19.450876 20.224341,29.388756 20.09461,39.326619 19.964815,49.264497 H 17.11278 Z M 36.754144,39.324695 C 32.721221,30.512695 28.6883,21.700679 24.655394,12.888662 22.530527,12.750737 22.656775,12.71031 20.714356,12.813974 v 0.966497 c 4.612938,9.99784 9.609439,20.748709 13.87298,30.081745 0.722248,-1.512523 1.444528,-3.025014 2.166808,-4.537521 z m 25.738417,9.939815 c 0,-12.965651 0,-25.931305 0,-38.896956 10.084388,0 20.168791,0 30.253178,0 0,0.960416 0,1.920849 0,2.881265 -6.482825,0 -12.965652,0 -19.448478,0 0,4.802097 0,9.604178 0,14.406277 5.52241,0 11.044819,0 16.567229,0 0,0.960415 0,1.920832 0,2.881248 -5.52241,0 -11.044819,0 -16.567229,0 0,5.282306 0,10.564611 0,15.846917 6.963035,0 13.926068,0 20.889103,0 0,0.960416 0,1.920832 0,2.881249 -10.564597,0 -21.129207,0 -31.693803,0 z m 4.321874,-2.160937 c 0,-11.765131 0,-23.530263 0,-35.295394 -0.720312,0 -1.440625,0 -2.160937,0 0,11.765131 0,23.530263 0,35.295394 0.720312,0 1.440625,0 2.160937,0 z m 32.41413,2.160937 c 0,-12.965651 0,-25.931305 0,-38.896956 2.401045,0 4.802095,0 7.203135,0 0,12.965651 0,25.931305 0,38.896956 -2.40104,0 -4.80209,0 -7.203135,0 z m 2.881265,-2.160937 c 0,-11.765131 0,-23.530263 0,-35.295394 -0.72031,0 -1.44064,0 -2.160953,0 0,11.765131 0,23.530263 0,35.295394 0.720313,0 1.440643,0 2.160953,0 z" />
                     <path fill="#00000" d="m 346.3,6.7 c -3.1,0.5 -4.9,4.4 -2.7,6.8 1.2,1.4 2.7,2.4 4.1,3.5 -2.4,5.3 -7.7,8.3 -11.9,12.1 -3.7,2.8 -7,6.2 -9.7,9.9 -2.2,-0.8 -0.3,-6.8 -0.6,-9.5 0.1,-3.1 0.7,-6.4 2.9,-8.7 1.3,-1.9 3,-3.5 4.5,-5.2 1.2,-3.4 -3.2,-4.9 -5.8,-4.6 -7.3,-0.5 -14.6,2 -20,6.8 -5,4.6 -10,10.1 -11.5,17 -0.9,3.5 -0.2,7.5 2.8,9.9 2.5,2.8 7.4,2.9 9.8,-0.2 1.7,-2.3 3.2,-4.8 3.8,-7.6 -0.1,-2.6 -4.4,-2.3 -4.3,0.2 1.2,2.4 -0.9,4.7 -2.7,6.2 -1.7,0.9 -4.7,0.7 -4.8,-1.7 -1,-5.8 2.1,-11.3 5.2,-16.1 4,-5.8 9.8,-11.2 17.2,-11.8 1.6,0 8.1,-1.2 6.8,1.4 -2.8,2.8 -5.6,6.1 -6,10.3 -1.6,7.7 0.1,15.7 -2.3,23.2 -1.1,3.9 2,2.6 2.5,0.2 3.3,-7.4 8.9,-13.4 15.1,-18.5 4.2,-3.9 9.5,-7.1 11.9,-12.6 1.3,-3.6 1.2,-9 -2.7,-10.9 -0.6,-0.2 -1.2,-0.3 -1.8,-0.3 z m 66,14.5 c -2,0.8 -1.8,4.9 0.8,4.4 3.4,0.4 2.9,-6.2 -0.8,-4.4 z m 0.6,7.3 c -1.3,0.5 -7.6,0.5 -5.4,2.2 4,-0.3 0.7,4.5 0.6,6.7 -0.4,2.9 -2.4,5.9 -1.2,8.8 2.7,1.7 5.6,-0.8 6.8,-3.2 1.6,-1.4 -0.5,-3 -1.2,-0.9 -0.4,0.8 -2.4,3.5 -2.6,1.8 1.1,-5 2.7,-9.9 3.9,-14.9 l -0.1,-0.5 h -0.9 z m -65.1,0.2 c -6.5,1.6 -10.5,9.5 -8.2,15.7 2.1,3.4 7.4,2.9 10.1,0.4 2,-0.2 3.6,-5.3 1,-3.4 -1.4,2 -4,4.2 -6.5,2.8 -2.2,-1.9 -1.9,-5.7 1.7,-5.3 3.1,-0.9 6.9,-2.1 8.1,-5.5 0.9,-2.7 -1.6,-5.2 -4.3,-4.8 h -1.1 -0.7 z m 13.6,0 c -2.2,0 -8.5,1.8 -2.9,2.3 0.9,1.9 -1,4.9 -1.1,7.2 -0.5,2.9 -1.4,5.7 -1.7,8.7 3.7,0.7 3.8,-2.6 4.4,-5.3 0.9,-3.3 1.6,-7 4.1,-9.5 2.4,1.6 6.8,-0.7 3.7,-3.4 -2.9,-0.5 -4.8,2.4 -6.2,4.3 0,-1.2 2.4,-5 -0.2,-4.3 z m 15.8,0 c -6.4,1.3 -9.6,9.1 -7.7,14.9 1.9,4 7.7,3.9 11,1.7 4.1,-3 6,-8.9 4.4,-13.7 -1.3,-3 -4.8,-3.2 -7.6,-3 z m 17,0 c -2.3,0 -8.8,1.9 -3,2.4 0.4,2.5 -1,5.7 -1.4,8.4 -0.7,2.4 -1.8,7.5 2.1,7.2 3.8,-0.1 6.5,-3.5 8.5,-6.3 2,-3.2 4.5,-7 3.3,-10.9 -3.7,-3 -3.6,2.6 -3.1,5.1 -0.7,3.8 -2.7,7.9 -6.2,9.8 -3.6,0.6 -1,-4.3 -0.8,-6.1 0.6,-3.2 1.6,-6.3 1.9,-9.5 -0.4,0 -0.8,0 -1.1,0 z m 30.6,0 c -6.3,1.2 -9.5,8.9 -7.8,14.7 1.5,4 7.2,4.2 10.5,2.4 4.6,-2.8 6.6,-9.3 4.8,-14.3 -1.4,-2.8 -4.8,-3 -7.5,-2.8 z m -75.4,1.7 c 2.1,1.5 0.2,4.7 -1.6,5.7 -1.1,0.4 -5.5,3.4 -4.6,0.7 0.8,-2.7 2.2,-6.2 5.3,-6.6 l 0.9,0.1 z m 30.8,0 c 2.6,1.5 1.3,5.2 0.8,7.6 -0.8,2.7 -1.9,5.9 -4.7,7.1 -5.1,0.8 -4,-5.8 -2.8,-8.8 1,-2.8 3,-6.8 6.7,-5.8 z m 47.1,-0.1 c 2.9,0.7 2,4.7 1.5,6.8 -0.7,3 -1.8,6.7 -5,8 -4.7,0.8 -4,-5.1 -3,-7.9 0.9,-3 2.7,-7.3 6.5,-6.8 z m -88.1,5.9 c -0.3,1.3 0.9,-0.6 0,0 z m -1.1,2.4 c -0.2,0.5 0.5,-0.1 0,0 z m -1.3,4.5 c -0.3,1.3 0.8,-0.2 0,0 z" />
                     <text y="41" x="201" fill="#00000" style="font-style:italic;font-weight:normal;font-size:30px;line-height:125%;font-family:Times;text-anchor:middle" xml:space="preserve">engraved with</text>
                  </g>
               </g>
            </g>
         </g>
      </g>
   </svg>
</svg>
