<?xml version="1.0" encoding="UTF-8" standalone="no"?>
<svg width="2100px" height="2970px" version="1.1" xmlns="http://www.w3.org/2000/svg" xmlns:xlink="http://www.w3.org/1999/xlink" xmlns:mei="http://www.music-encoding.org/ns/mei" overflow="visible">
   <desc>Engraved by Verovio 3.13.1</desc>
   <defs>
      <symbol id="E044-16z79de" viewBox="0 0 1000 1000" overflow="inherit">
         <path transform="scale(1,-1)" d="M0 0c0 28 22 50 50 50s50 -22 50 -50s-22 -50 -50 -50s-50 22 -50 50z" />
      </symbol>
      <symbol id="E050-16z79de" viewBox="0 0 1000 1000" overflow="inherit">
         <path transform="scale(1,-1)" d="M441 -245c-23 -4 -48 -6 -76 -6c-59 0 -102 7 -130 20c-88 42 -150 93 -187 154c-26 44 -43 103 -48 176c0 6 -1 13 -1 19c0 54 15 111 45 170c29 57 65 106 110 148s96 85 153 127c-3 16 -8 46 -13 92c-4 43 -5 73 -5 89c0 117 16 172 69 257c34 54 64 82 89 82 c21 0 43 -30 69 -92s39 -115 41 -159v-15c0 -109 -21 -162 -67 -241c-13 -20 -63 -90 -98 -118c-13 -9 -25 -19 -37 -29l31 -181c8 1 18 2 28 2c58 0 102 -12 133 -35c59 -43 92 -104 98 -184c1 -7 1 -15 1 -22c0 -123 -87 -209 -181 -248c8 -57 17 -110 25 -162 c5 -31 6 -58 6 -80c0 -30 -5 -53 -14 -70c-35 -64 -88 -99 -158 -103c-5 0 -11 -1 -16 -1c-37 0 -72 10 -108 27c-50 24 -77 59 -80 105v11c0 29 7 55 20 76c18 28 45 42 79 44h6c49 0 93 -42 97 -87v-9c0 -51 -34 -86 -105 -106c17 -24 51 -36 102 -36c62 0 116 43 140 85 c9 16 13 41 13 74c0 20 -1 42 -5 67c-8 53 -18 106 -26 159zM461 939c-95 0 -135 -175 -135 -286c0 -24 2 -48 5 -71c50 39 92 82 127 128c40 53 60 100 60 140v8c-4 53 -22 81 -55 81h-2zM406 119l54 -326c73 25 110 78 110 161c0 7 0 15 -1 23c-7 95 -57 142 -151 142h-12 zM382 117c-72 -2 -128 -47 -128 -120v-7c2 -46 43 -99 75 -115c-3 -2 -7 -5 -10 -10c-70 33 -116 88 -123 172v11c0 68 44 126 88 159c23 17 49 29 78 36l-29 170c-21 -13 -52 -37 -92 -73c-50 -44 -86 -84 -109 -119c-45 -69 -67 -130 -67 -182v-13c5 -68 35 -127 93 -176 s125 -73 203 -73c25 0 50 3 75 9c-19 111 -36 221 -54 331z" />
      </symbol>
      <symbol id="E081-16z79de" viewBox="0 0 1000 1000" overflow="inherit">
         <path transform="scale(1,-1)" d="M68 -250v36c23 0 40 6 49 18c8 14 12 33 12 57v250l-82 -129l-27 13l107 255h128v-394c0 -24 5 -42 14 -53s25 -17 47 -17v-36h-248z" />
      </symbol>
      <symbol id="E082-16z79de" viewBox="0 0 1000 1000" overflow="inherit">
         <path transform="scale(1,-1)" d="M124 -185c-18 0 -55 -14 -65 -65h-36l-3 30c0 25 6 45 18 63c11 19 22 30 39 43l121 82l37 29c15 11 27 29 38 54c12 24 18 47 18 70c0 40 -19 88 -94 88c-25 0 -32 0 -50 -8c-14 -5 -23 -12 -26 -22c3 -9 7 -15 10 -18l24 -17c12 -7 17 -11 27 -21c5 -7 7 -16 7 -27 c0 -12 0 -57 -79 -74c-30 0 -76 26 -76 94c0 66 81 135 197 135c72 0 181 -32 181 -150c0 -53 -32 -95 -113 -133l-91 -41c-26 -11 -45 -23 -57 -37l49 7c84 0 115 -41 148 -41c20 0 33 20 39 61h35c0 -152 -68 -168 -114 -168c-17 0 -65 0 -79 7h10l-28 17 c-49 37 -69 40 -87 42z" />
      </symbol>
      <symbol id="E084-16z79de" viewBox="0 0 1000 1000" overflow="inherit">
         <path transform="scale(1,-1)" d="M20 -78c84 97 114 180 134 329h170c-13 -32 -82 -132 -99 -151l-84 -97c-33 -36 -59 -63 -80 -81h162v102l127 123v-225h57v-39h-57v-34c0 -43 19 -65 57 -65v-34h-244v36c48 0 60 26 60 70v27h-203v39z" />
      </symbol>
      <symbol id="E0A4-16z79de" viewBox="0 0 1000 1000" overflow="inherit">
         <path transform="scale(1,-1)" d="M0 -39c0 68 73 172 200 172c66 0 114 -37 114 -95c0 -84 -106 -171 -218 -171c-64 0 -96 30 -96 94z" />
      </symbol>
      <symbol id="E260-16z79de" viewBox="0 0 1000 1000" overflow="inherit">
         <path transform="scale(1,-1)" d="M20 110c32 16 54 27 93 27c26 0 35 -3 54 -13c13 -7 24 -20 27 -38l4 -25c0 -28 -16 -57 -45 -89c-23 -25 -39 -44 -65 -68l-88 -79v644h20v-359zM90 106c-32 0 -48 -10 -70 -29v-194c31 31 54 59 71 84c21 32 32 59 32 84c0 9 1 16 1 20c0 14 -3 21 -11 30l-8 3z" />
      </symbol>
   </defs>
   <style type="text/css">g.page-margin{font-family:Times;} g.ending, g.fing, g.reh, g.tempo{font-weight:bold;} g.dir, g.dynam, g.mNum{font-style:italic;} g.label{font-weight:normal;}</style>
   <svg class="definition-scale" color="black" viewBox="0 0 21000 29700">
      <g class="page-margin" transform="translate(500, 500)">
         <g id="m138fnw7" class="mdiv pageMilestone" />
         <g id="sz4bror" class="score pageMilestone" />
         <g id="s1iile9c" class="system">
            <g id="l1q37cp" class="label">
               <text x="1105" y="1535" text-anchor="end" font-size="0px">
                  <tspan id="t1pglauh" class="text">
                     <tspan font-size="405px" class="text">Piano</tspan>
                  </tspan>
               </text>
            </g>
            <g id="scq5926" class="section systemMilestone" />
            <g id="p1wcif5u" class="pb" />
            <g id="m7c3qif" class="measure">
               <g id="mjj6a7p" class="mNum">
                  <text x="1285" y="842" text-anchor="middle" font-size="0px" />
               </g>
               <g id="s1lewpwq" class="staff">
                  <path d="M1285 1085 L4444 1085" stroke="currentColor" stroke-width="13" />
                  <path d="M1285 1265 L4444 1265" stroke="currentColor" stroke-width="13" />
                  <path d="M1285 1445 L4444 1445" stroke="currentColor" stroke-width="13" />
                  <path d="M1285 1625 L4444 1625" stroke="currentColor" stroke-width="13" />
                  <path d="M1285 1805 L4444 1805" stroke="currentColor" stroke-width="13" />
                  <g id="c83jxs6" class="clef">
                     <use xlink:href="#E050-16z79de" x="1375" y="1625" height="720px" width="720px" />
                  </g>
                  <g id="kln0k89" class="keySig">
                     <g id="k1j85mog" class="keyAccid">
                        <use xlink:href="#E260-16z79de" x="2020" y="1445" height="720px" width="720px" />
                     </g>
                  </g>
                  <g id="m1stjbcd" class="meterSig">
                     <use xlink:href="#E082-16z79de" x="2328" y="1265" height="720px" width="720px" />
                     <use xlink:href="#E084-16z79de" x="2333" y="1625" height="720px" width="720px" />
                  </g>
                  <g id="lurnxo5" class="layer">
                     <g id="b1trqw3f" class="beam">
                        <polygon points="3115,905 4276,860 4276,950 3115,995" />
                        <polygon points="3115,1040 3505,1025 3505,1115 3115,1130" />
                        <polygon points="3505,1025 3886,1010 3886,1100 3505,1115" />
                        <polygon points="3886,1010 4276,995 4276,1085 3886,1100" />
                        <g id="n1swp2nl" class="note">
                           <g class="notehead">
                              <use xlink:href="#E0A4-16z79de" x="2907" y="1625" height="720px" width="720px" />
                           </g>
                           <g id="s1i6mzto" class="stem">
                              <rect x="3115" y="923" height="674" width="18" />
                           </g>
                        </g>
                        <g id="nz5h42e" class="note">
                           <g class="notehead">
                              <use xlink:href="#E0A4-16z79de" x="3288" y="1715" height="720px" width="720px" />
                           </g>
                           <g id="s1j8ll0u" class="stem">
                              <rect x="3496" y="908" height="779" width="18" />
                           </g>
                        </g>
                        <g id="numu0qw" class="note">
                           <g class="notehead">
                              <use xlink:href="#E0A4-16z79de" x="3669" y="1625" height="720px" width="720px" />
                           </g>
                           <g id="snt1sxm" class="stem">
                              <rect x="3877" y="893" height="704" width="18" />
                           </g>
                        </g>
                        <g id="nhe24m7" class="note">
                           <g class="notehead">
                              <use xlink:href="#E0A4-16z79de" x="4050" y="1535" height="720px" width="720px" />
                           </g>
                           <g id="s7gcvzl" class="stem">
                              <rect x="4258" y="878" height="629" width="18" />
                           </g>
                        </g>
                     </g>
                  </g>
               </g>
               <g id="b1iiatgh" class="barLine">
                  <path d="M4431 1085 L4431 1805" stroke="currentColor" stroke-width="27" />
               </g>
            </g>
            <g id="m1iq2s8f" class="measure">
               <g id="stbnrzd" class="staff">
                  <path d="M4444 1085 L7311 1085" stroke="currentColor" stroke-width="13" />
                  <path d="M4444 1265 L7311 1265" stroke="currentColor" stroke-width="13" />
                  <path d="M4444 1445 L7311 1445" stroke="currentColor" stroke-width="13" />
                  <path d="M4444 1625 L7311 1625" stroke="currentColor" stroke-width="13" />
                  <path d="M4444 1805 L7311 1805" stroke="currentColor" stroke-width="13" />
                  <g id="l1nojkcw" class="layer">
                     <g id="b1biuiqa" class="beam">
                        <polygon points="4838,1085 5428,1085 5428,1175 4838,1175" />
                        <g id="n1hqvdwu" class="note">
                           <g class="notehead">
                              <use xlink:href="#E0A4-16z79de" x="4630" y="1715" height="720px" width="720px" />
                           </g>
                           <g id="s1rhzumt" class="stem">
                              <rect x="4838" y="1103" height="584" width="18" />
                           </g>
                        </g>
                        <g id="n1fog4m9" class="note">
                           <g class="notehead">
                              <use xlink:href="#E0A4-16z79de" x="5202" y="1715" height="720px" width="720px" />
                           </g>
                           <g id="s1lc2ep3" class="stem">
                              <rect x="5410" y="1103" height="584" width="18" />
                           </g>
                        </g>
                     </g>
                     <g id="bkqqaoy" class="beam">
                        <polygon points="5981,815 7143,770 7143,860 5981,905" />
                        <polygon points="5981,950 6371,936 6371,1026 5981,1040" />
                        <polygon points="6371,936 6753,920 6753,1010 6371,1026" />
                        <polygon points="6753,920 7143,905 7143,995 6753,1010" />
                        <g id="n1dwuoul" class="note">
                           <g class="notehead">
                              <use xlink:href="#E0A4-16z79de" x="5773" y="1625" height="720px" width="720px" />
                           </g>
                           <g id="svvqwrd" class="stem">
                              <rect x="5981" y="833" height="764" width="18" />
                           </g>
                        </g>
                        <g id="n12orr4w" class="note">
                           <g class="notehead">
                              <use xlink:href="#E0A4-16z79de" x="6154" y="1625" height="720px" width="720px" />
                           </g>
                           <g id="s1502bos" class="stem">
                              <rect x="6362" y="819" height="778" width="18" />
                           </g>
                        </g>
                        <g id="n18nazc3" class="note">
                           <g class="notehead">
                              <use xlink:href="#E0A4-16z79de" x="6536" y="1535" height="720px" width="720px" />
                           </g>
                           <g id="s1sv3kxj" class="stem">
                              <rect x="6744" y="803" height="704" width="18" />
                           </g>
                        </g>
                        <g id="n5w246l" class="note">
                           <g class="notehead">
                              <use xlink:href="#E0A4-16z79de" x="6917" y="1445" height="720px" width="720px" />
                           </g>
                           <g id="swowx73" class="stem">
                              <rect x="7125" y="788" height="629" width="18" />
                           </g>
                           <g id="afjk1rw" class="accid" />
                        </g>
                     </g>
                  </g>
               </g>
               <g id="bstit6i" class="barLine">
                  <path d="M7298 1085 L7298 1805" stroke="currentColor" stroke-width="27" />
               </g>
            </g>
            <g id="m4fsf3b" class="measure">
               <g id="s13wzfnq" class="staff">
                  <path d="M7311 1085 L10178 1085" stroke="currentColor" stroke-width="13" />
                  <path d="M7311 1265 L10178 1265" stroke="currentColor" stroke-width="13" />
                  <path d="M7311 1445 L10178 1445" stroke="currentColor" stroke-width="13" />
                  <path d="M7311 1625 L10178 1625" stroke="currentColor" stroke-width="13" />
                  <path d="M7311 1805 L10178 1805" stroke="currentColor" stroke-width="13" />
                  <g id="l3vsbgi" class="layer">
                     <g id="bqchkva" class="beam">
                        <polygon points="7705,905 8295,905 8295,995 7705,995" />
                        <g id="n1gue8nm" class="note">
                           <g class="notehead">
                              <use xlink:href="#E0A4-16z79de" x="7497" y="1535" height="720px" width="720px" />
                           </g>
                           <g id="sm1hdqa" class="stem">
                              <rect x="7705" y="923" height="584" width="18" />
                           </g>
                        </g>
                        <g id="n1tfjw78" class="note">
                           <g class="notehead">
                              <use xlink:href="#E0A4-16z79de" x="8069" y="1535" height="720px" width="720px" />
                           </g>
                           <g id="satq0t5" class="stem">
                              <rect x="8277" y="923" height="584" width="18" />
                           </g>
                        </g>
                     </g>
                     <g id="bdhqrmy" class="beam">
                        <polygon points="8848,905 10010,860 10010,950 8848,995" />
                        <polygon points="8848,1040 9238,1026 9238,1116 8848,1130" />
                        <polygon points="9238,1026 9620,1010 9620,1100 9238,1116" />
                        <polygon points="9620,1010 10010,995 10010,1085 9620,1100" />
                        <g id="nwqmwj" class="note">
                           <g class="notehead">
                              <use xlink:href="#E0A4-16z79de" x="8640" y="1625" height="720px" width="720px" />
                           </g>
                           <g id="s1vga01c" class="stem">
                              <rect x="8848" y="923" height="674" width="18" />
                           </g>
                        </g>
                        <g id="nsaw9gi" class="note">
                           <g class="notehead">
                              <use xlink:href="#E0A4-16z79de" x="9021" y="1715" height="720px" width="720px" />
                           </g>
                           <g id="s22rtah" class="stem">
                              <rect x="9229" y="909" height="778" width="18" />
                           </g>
                        </g>
                        <g id="nnqjmxi" class="note">
                           <g class="notehead">
                              <use xlink:href="#E0A4-16z79de" x="9403" y="1625" height="720px" width="720px" />
                           </g>
                           <g id="sqsnjkz" class="stem">
                              <rect x="9611" y="893" height="704" width="18" />
                           </g>
                        </g>
                        <g id="n79a9l" class="note">
                           <g class="notehead">
                              <use xlink:href="#E0A4-16z79de" x="9784" y="1535" height="720px" width="720px" />
                           </g>
                           <g id="siy04za" class="stem">
                              <rect x="9992" y="878" height="629" width="18" />
                           </g>
                        </g>
                     </g>
                  </g>
               </g>
               <g id="b1s8qubz" class="barLine">
                  <path d="M10165 1085 L10165 1805" stroke="currentColor" stroke-width="27" />
               </g>
            </g>
            <g id="m1eorr1p" class="measure">
               <g id="s15y58ky" class="staff">
                  <path d="M10178 1085 L13045 1085" stroke="currentColor" stroke-width="13" />
                  <path d="M10178 1265 L13045 1265" stroke="currentColor" stroke-width="13" />
                  <path d="M10178 1445 L13045 1445" stroke="currentColor" stroke-width="13" />
                  <path d="M10178 1625 L13045 1625" stroke="currentColor" stroke-width="13" />
                  <path d="M10178 1805 L13045 1805" stroke="currentColor" stroke-width="13" />
                  <g id="l1k173bs" class="layer">
                     <g id="bnqvvhl" class="beam">
                        <polygon points="10572,1085 11162,1085 11162,1175 10572,1175" />
                        <g id="n1nqmd17" class="note">
                           <g class="notehead">
                              <use xlink:href="#E0A4-16z79de" x="10364" y="1715" height="720px" width="720px" />
                           </g>
                           <g id="s1hm22g6" class="stem">
                              <rect x="10572" y="1103" height="584" width="18" />
                           </g>
                        </g>
                        <g id="n2dphxe" class="note">
                           <g class="notehead">
                              <use xlink:href="#E0A4-16z79de" x="10936" y="1715" height="720px" width="720px" />
                           </g>
                           <g id="s68gd9v" class="stem">
                              <rect x="11144" y="1103" height="584" width="18" />
                           </g>
                        </g>
                     </g>
                     <g id="b119qjb4" class="beam">
                        <polygon points="11715,815 12877,770 12877,860 11715,905" />
                        <polygon points="11715,950 12105,936 12105,1026 11715,1040" />
                        <polygon points="12105,936 12487,920 12487,1010 12105,1026" />
                        <polygon points="12487,920 12877,905 12877,995 12487,1010" />
                        <g id="n5nshns" class="note">
                           <g class="notehead">
                              <use xlink:href="#E0A4-16z79de" x="11507" y="1625" height="720px" width="720px" />
                           </g>
                           <g id="suhxl73" class="stem">
                              <rect x="11715" y="833" height="764" width="18" />
                           </g>
                        </g>
                        <g id="n1temscj" class="note">
                           <g class="notehead">
                              <use xlink:href="#E0A4-16z79de" x="11888" y="1625" height="720px" width="720px" />
                           </g>
                           <g id="s1cnxi47" class="stem">
                              <rect x="12096" y="819" height="778" width="18" />
                           </g>
                        </g>
                        <g id="n7alc5s" class="note">
                           <g class="notehead">
                              <use xlink:href="#E0A4-16z79de" x="12270" y="1535" height="720px" width="720px" />
                           </g>
                           <g id="syv0wg" class="stem">
                              <rect x="12478" y="803" height="704" width="18" />
                           </g>
                        </g>
                        <g id="n3fq9hm" class="note">
                           <g class="notehead">
                              <use xlink:href="#E0A4-16z79de" x="12651" y="1445" height="720px" width="720px" />
                           </g>
                           <g id="s1sa578m" class="stem">
                              <rect x="12859" y="788" height="629" width="18" />
                           </g>
                           <g id="anvyq4o" class="accid" />
                        </g>
                     </g>
                  </g>
               </g>
               <g id="bca31dd" class="barLine">
                  <path d="M13032 1085 L13032 1805" stroke="currentColor" stroke-width="27" />
               </g>
            </g>
            <g id="m10cvp6q" class="measure">
               <g id="s1lua83e" class="staff">
                  <path d="M13045 1085 L14945 1085" stroke="currentColor" stroke-width="13" />
                  <path d="M13045 1265 L14945 1265" stroke="currentColor" stroke-width="13" />
                  <path d="M13045 1445 L14945 1445" stroke="currentColor" stroke-width="13" />
                  <path d="M13045 1625 L14945 1625" stroke="currentColor" stroke-width="13" />
                  <path d="M13045 1805 L14945 1805" stroke="currentColor" stroke-width="13" />
                  <g id="m1hf7d8j" class="meterSig">
                     <use xlink:href="#E081-16z79de" x="13154" y="1265" height="720px" width="720px" />
                     <use xlink:href="#E084-16z79de" x="13121" y="1625" height="720px" width="720px" />
                  </g>
                  <g id="l1f4s1f6" class="layer">
                     <g id="nlfcazd" class="note">
                        <g class="notehead">
                           <use xlink:href="#E0A4-16z79de" x="13689" y="1535" height="720px" width="720px" />
                        </g>
                        <g id="s1do4cvq" class="stem">
                           <rect x="13897" y="905" height="602" width="18" />
                        </g>
                     </g>
                  </g>
               </g>
               <g id="bycgtur" class="barLine">
                  <path d="M14567 1085 L14567 1805" stroke="currentColor" stroke-width="27" />
                  <path d="M14697 1085 L14697 1805" stroke="currentColor" stroke-width="90" />
                  <path d="M14828 1085 L14828 1805" stroke="currentColor" stroke-width="27" />
                  <use xlink:href="#E044-16z79de" x="14873" y="1355" height="720px" width="720px" />
                  <use xlink:href="#E044-16z79de" x="14873" y="1535" height="720px" width="720px" />
                  <use xlink:href="#E044-16z79de" x="14450" y="1355" height="720px" width="720px" />
                  <use xlink:href="#E044-16z79de" x="14450" y="1535" height="720px" width="720px" />
               </g>
            </g>
            <g id="mfjmwhf" class="measure">
               <g id="s2i4ksc" class="staff">
                  <path d="M14945 1085 L16668 1085" stroke="currentColor" stroke-width="13" />
                  <path d="M14945 1265 L16668 1265" stroke="currentColor" stroke-width="13" />
                  <path d="M14945 1445 L16668 1445" stroke="currentColor" stroke-width="13" />
                  <path d="M14945 1625 L16668 1625" stroke="currentColor" stroke-width="13" />
                  <path d="M14945 1805 L16668 1805" stroke="currentColor" stroke-width="13" />
                  <g id="lun8zq9" class="layer">
                     <g id="bmviadc" class="beam">
                        <polygon points="15339,860 16500,860 16500,950 15339,950" />
                        <polygon points="15339,995 15729,995 15729,1085 15339,1085" />
                        <polygon points="15729,995 16110,995 16110,1085 15729,1085" />
                        <polygon points="16110,995 16500,995 16500,1085 16110,1085" />
                        <g id="nukl1i" class="note">
                           <g class="notehead">
                              <use xlink:href="#E0A4-16z79de" x="15131" y="1625" height="720px" width="720px" />
                           </g>
                           <g id="s1vlffk0" class="stem">
                              <rect x="15339" y="878" height="719" width="18" />
                           </g>
                        </g>
                        <g id="n1qi94qv" class="note">
                           <g class="notehead">
                              <use xlink:href="#E0A4-16z79de" x="15512" y="1535" height="720px" width="720px" />
                           </g>
                           <g id="s1fypeo6" class="stem">
                              <rect x="15720" y="878" height="629" width="18" />
                           </g>
                        </g>
                        <g id="n1eantfq" class="note">
                           <g class="notehead">
                              <use xlink:href="#E0A4-16z79de" x="15893" y="1445" height="720px" width="720px" />
                           </g>
                           <g id="slzt4ro" class="stem">
                              <rect x="16101" y="878" height="539" width="18" />
                           </g>
                           <g id="a1j8jtzq" class="accid" />
                        </g>
                        <g id="nz19tq6" class="note">
                           <g class="notehead">
                              <use xlink:href="#E0A4-16z79de" x="16274" y="1625" height="720px" width="720px" />
                           </g>
                           <g id="s1baup0a" class="stem">
                              <rect x="16482" y="878" height="719" width="18" />
                           </g>
                        </g>
                     </g>
                  </g>
               </g>
               <g id="buszo5y" class="barLine">
                  <path d="M16655 1085 L16655 1805" stroke="currentColor" stroke-width="27" />
               </g>
            </g>
            <g id="mtho12k" class="measure">
               <g id="s1mt8y7j" class="staff">
                  <path d="M16668 1085 L20004 1085" stroke="currentColor" stroke-width="13" />
                  <path d="M16668 1265 L20004 1265" stroke="currentColor" stroke-width="13" />
                  <path d="M16668 1445 L20004 1445" stroke="currentColor" stroke-width="13" />
                  <path d="M16668 1625 L20004 1625" stroke="currentColor" stroke-width="13" />
                  <path d="M16668 1805 L20004 1805" stroke="currentColor" stroke-width="13" />
                  <g id="m18dm874" class="meterSig">
                     <use xlink:href="#E082-16z79de" x="16744" y="1265" height="720px" width="720px" />
                     <use xlink:href="#E084-16z79de" x="16749" y="1625" height="720px" width="720px" />
                  </g>
                  <g id="l1kwckbn" class="layer">
                     <g id="b14t99k3" class="beam">
                        <polygon points="17531,860 18121,860 18121,950 17531,950" />
                        <g id="n1cetw4l" class="note">
                           <g class="notehead">
                              <use xlink:href="#E0A4-16z79de" x="17323" y="1445" height="720px" width="720px" />
                           </g>
                           <g id="sldr5af" class="stem">
                              <rect x="17531" y="878" height="539" width="18" />
                           </g>
                           <g id="a1d8d8v6" class="accid" />
                        </g>
                        <g id="nu91wut" class="note">
                           <g class="notehead">
                              <use xlink:href="#E0A4-16z79de" x="17895" y="1445" height="720px" width="720px" />
                           </g>
                           <g id="sz5l663" class="stem">
                              <rect x="18103" y="878" height="539" width="18" />
                           </g>
                           <g id="a16fsnrz" class="accid" />
                        </g>
                     </g>
                     <g id="b1stuy1e" class="beam">
                        <polygon points="18674,860 19836,860 19836,950 18674,950" />
                        <polygon points="18674,995 19064,995 19064,1085 18674,1085" />
                        <polygon points="19064,995 19446,995 19446,1085 19064,1085" />
                        <polygon points="19446,995 19836,995 19836,1085 19446,1085" />
                        <g id="nd7cqg0" class="note">
                           <g class="notehead">
                              <use xlink:href="#E0A4-16z79de" x="18466" y="1535" height="720px" width="720px" />
                           </g>
                           <g id="s1l2lrfk" class="stem">
                              <rect x="18674" y="878" height="629" width="18" />
                           </g>
                        </g>
                        <g id="nvztok9" class="note">
                           <g class="notehead">
                              <use xlink:href="#E0A4-16z79de" x="18847" y="1445" height="720px" width="720px" />
                           </g>
                           <g id="s1p3yn6i" class="stem">
                              <rect x="19055" y="878" height="539" width="18" />
                           </g>
                           <g id="afdcu7e" class="accid" />
                        </g>
                        <g id="n1rq7v75" class="note">
                           <g class="notehead">
                              <use xlink:href="#E0A4-16z79de" x="19229" y="1535" height="720px" width="720px" />
                           </g>
                           <g id="s1l2htrk" class="stem">
                              <rect x="19437" y="878" height="629" width="18" />
                           </g>
                        </g>
                        <g id="nks0n1a" class="note">
                           <g class="notehead">
                              <use xlink:href="#E0A4-16z79de" x="19610" y="1625" height="720px" width="720px" />
                           </g>
                           <g id="sr3odsg" class="stem">
                              <rect x="19818" y="878" height="719" width="18" />
                           </g>
                        </g>
                     </g>
                  </g>
               </g>
               <g id="b1hugpjy" class="barLine">
                  <path d="M19991 1085 L19991 1805" stroke="currentColor" stroke-width="27" />
               </g>
            </g>
            <g id="s1sf36de" class="sb" />
         </g>
         <g id="svz0b7g" class="system">
            <g id="l3y0hi9" class="labelAbbr">
               <text x="914" y="3884" text-anchor="end" font-size="0px">
                  <tspan id="t1tvkacs" class="text">
                     <tspan font-size="405px" class="text">Pno.</tspan>
                  </tspan>
               </text>
            </g>
            <g id="m1viw1tx" class="measure">
               <g id="m5fr48v" class="mNum autogenerated">
                  <text x="1094" y="3191" text-anchor="middle" font-size="0px">
                     <tspan id="t1xybb6e" class="text">
                        <tspan font-size="324px" class="text">7</tspan>
                     </tspan>
                  </text>
               </g>
               <g id="s1dv2mpy" class="staff">
                  <path d="M1094 3434 L4844 3434" stroke="currentColor" stroke-width="13" />
                  <path d="M1094 3614 L4844 3614" stroke="currentColor" stroke-width="13" />
                  <path d="M1094 3794 L4844 3794" stroke="currentColor" stroke-width="13" />
                  <path d="M1094 3974 L4844 3974" stroke="currentColor" stroke-width="13" />
                  <path d="M1094 4154 L4844 4154" stroke="currentColor" stroke-width="13" />
                  <g id="c1qx0i7m" class="clef">
                     <use xlink:href="#E050-16z79de" x="1184" y="3974" height="720px" width="720px" />
                  </g>
                  <g id="kl5qsud" class="keySig">
                     <g id="k11eytyj" class="keyAccid">
                        <use xlink:href="#E260-16z79de" x="1829" y="3794" height="720px" width="720px" />
                     </g>
                  </g>
                  <g id="l1z0l44h" class="layer">
                     <g id="b143cuj6" class="beam">
                        <polygon points="2449,3434 3022,3434 3022,3524 2449,3524" />
                        <g id="n1yox3uv" class="note">
                           <g class="notehead">
                              <use xlink:href="#E0A4-16z79de" x="2241" y="4064" height="720px" width="720px" />
                           </g>
                           <g id="s108oezx" class="stem">
                              <rect x="2449" y="3452" height="584" width="18" />
                           </g>
                        </g>
                        <g id="n1yvagok" class="note">
                           <g class="notehead">
                              <use xlink:href="#E0A4-16z79de" x="2796" y="4064" height="720px" width="720px" />
                           </g>
                           <g id="s6o7amf" class="stem">
                              <rect x="3004" y="3452" height="584" width="18" />
                           </g>
                        </g>
                     </g>
                     <g id="bdifngq" class="beam">
                        <polygon points="3559,3209 4687,3209 4687,3299 3559,3299" />
                        <polygon points="3559,3344 3938,3344 3938,3434 3559,3434" />
                        <polygon points="3938,3344 4308,3344 4308,3434 3938,3434" />
                        <polygon points="4308,3344 4687,3344 4687,3434 4308,3434" />
                        <g id="n1s3jm5j" class="note">
                           <g class="notehead">
                              <use xlink:href="#E0A4-16z79de" x="3351" y="3974" height="720px" width="720px" />
                           </g>
                           <g id="s1qbx90c" class="stem">
                              <rect x="3559" y="3227" height="719" width="18" />
                           </g>
                        </g>
                        <g id="n8wot4f" class="note">
                           <g class="notehead">
                              <use xlink:href="#E0A4-16z79de" x="3721" y="3884" height="720px" width="720px" />
                           </g>
                           <g id="se74wh" class="stem">
                              <rect x="3929" y="3227" height="629" width="18" />
                           </g>
                        </g>
                        <g id="ncaxj87" class="note">
                           <g class="notehead">
                              <use xlink:href="#E0A4-16z79de" x="4091" y="3794" height="720px" width="720px" />
                           </g>
                           <g id="s1ayqcq3" class="stem">
                              <rect x="4299" y="3227" height="539" width="18" />
                           </g>
                           <g id="a1t3xoj0" class="accid" />
                        </g>
                        <g id="n16o3toj" class="note">
                           <g class="notehead">
                              <use xlink:href="#E0A4-16z79de" x="4461" y="3974" height="720px" width="720px" />
                           </g>
                           <g id="s1n097v2" class="stem">
                              <rect x="4669" y="3227" height="719" width="18" />
                           </g>
                        </g>
                     </g>
                  </g>
               </g>
               <g id="btqboij" class="barLine">
                  <path d="M4831 3434 L4831 4154" stroke="currentColor" stroke-width="27" />
               </g>
            </g>
            <g id="m1o0s5tp" class="measure">
               <g id="sk10svf" class="staff">
                  <path d="M4844 3434 L7627 3434" stroke="currentColor" stroke-width="13" />
                  <path d="M4844 3614 L7627 3614" stroke="currentColor" stroke-width="13" />
                  <path d="M4844 3794 L7627 3794" stroke="currentColor" stroke-width="13" />
                  <path d="M4844 3974 L7627 3974" stroke="currentColor" stroke-width="13" />
                  <path d="M4844 4154 L7627 4154" stroke="currentColor" stroke-width="13" />
                  <g id="l1nmqp81" class="layer">
                     <g id="bra74wb" class="beam">
                        <polygon points="5232,3209 5805,3209 5805,3299 5232,3299" />
                        <g id="n1ju9gqc" class="note">
                           <g class="notehead">
                              <use xlink:href="#E0A4-16z79de" x="5024" y="3794" height="720px" width="720px" />
                           </g>
                           <g id="s12b9okz" class="stem">
                              <rect x="5232" y="3227" height="539" width="18" />
                           </g>
                           <g id="a1a2mcyb" class="accid" />
                        </g>
                        <g id="nhoayx7" class="note">
                           <g class="notehead">
                              <use xlink:href="#E0A4-16z79de" x="5579" y="3794" height="720px" width="720px" />
                           </g>
                           <g id="sh6fexz" class="stem">
                              <rect x="5787" y="3227" height="539" width="18" />
                           </g>
                           <g id="a2siury" class="accid" />
                        </g>
                     </g>
                     <g id="blkhwna" class="beam">
                        <polygon points="6342,3254 7470,3254 7470,3344 6342,3344" />
                        <polygon points="6342,3389 6721,3389 6721,3479 6342,3479" />
                        <polygon points="6721,3389 7091,3389 7091,3479 6721,3479" />
                        <polygon points="7091,3389 7470,3389 7470,3479 7091,3479" />
                        <g id="ndzg0q6" class="note">
                           <g class="notehead">
                              <use xlink:href="#E0A4-16z79de" x="6134" y="3884" height="720px" width="720px" />
                           </g>
                           <g id="s29xyax" class="stem">
                              <rect x="6342" y="3272" height="584" width="18" />
                           </g>
                        </g>
                        <g id="n1fy5234" class="note">
                           <g class="notehead">
                              <use xlink:href="#E0A4-16z79de" x="6504" y="3884" height="720px" width="720px" />
                           </g>
                           <g id="s1016uct" class="stem">
                              <rect x="6712" y="3272" height="584" width="18" />
                           </g>
                        </g>
                        <g id="n8mlj8x" class="note">
                           <g class="notehead">
                              <use xlink:href="#E0A4-16z79de" x="6874" y="3974" height="720px" width="720px" />
                           </g>
                           <g id="s1ur32gb" class="stem">
                              <rect x="7082" y="3272" height="674" width="18" />
                           </g>
                        </g>
                        <g id="nnvdwun" class="note">
                           <g class="notehead">
                              <use xlink:href="#E0A4-16z79de" x="7244" y="4064" height="720px" width="720px" />
                           </g>
                           <g id="sqtvuyi" class="stem">
                              <rect x="7452" y="3272" height="764" width="18" />
                           </g>
                        </g>
                     </g>
                  </g>
               </g>
               <g id="b6hwf7g" class="barLine">
                  <path d="M7614 3434 L7614 4154" stroke="currentColor" stroke-width="27" />
               </g>
            </g>
            <g id="m1w580p5" class="measure">
               <g id="s1wnx2rg" class="staff">
                  <path d="M7627 3434 L9292 3434" stroke="currentColor" stroke-width="13" />
                  <path d="M7627 3614 L9292 3614" stroke="currentColor" stroke-width="13" />
                  <path d="M7627 3794 L9292 3794" stroke="currentColor" stroke-width="13" />
                  <path d="M7627 3974 L9292 3974" stroke="currentColor" stroke-width="13" />
                  <path d="M7627 4154 L9292 4154" stroke="currentColor" stroke-width="13" />
                  <g id="m1d7i6qu" class="meterSig">
                     <use xlink:href="#E081-16z79de" x="7736" y="3614" height="720px" width="720px" />
                     <use xlink:href="#E084-16z79de" x="7703" y="3974" height="720px" width="720px" />
                  </g>
                  <g id="lmgli9e" class="layer">
                     <g id="n92gg9e" class="note">
                        <g class="notehead">
                           <use xlink:href="#E0A4-16z79de" x="8265" y="3974" height="720px" width="720px" />
                        </g>
                        <g id="s1f3npm0" class="stem">
                           <rect x="8473" y="3344" height="602" width="18" />
                        </g>
                     </g>
                  </g>
               </g>
               <g id="b17u0tzy" class="barLine">
                  <path d="M9117 3434 L9117 4154" stroke="currentColor" stroke-width="27" />
                  <path d="M9247 3434 L9247 4154" stroke="currentColor" stroke-width="90" />
               </g>
            </g>
            <g id="s1lb9ht5" class="systemMilestoneEnd scq5926" />
         </g>
         <g id="prj53d3" class="pageMilestoneEnd sz4bror" />
         <g id="p1gyixpx" class="pageMilestoneEnd m138fnw7" />
         <g id="pixyct4" class="pgHead">
            <text x="0" y="0" font-size="0px">
               <tspan id="r1i57etz" class="rend" x="10000" y="277" text-anchor="middle">
                  <tspan id="t15kwjun" class="text">
                     <tspan font-size="405px" class="text">Air n 209</tspan>
                  </tspan>
               </tspan>
            </text>
         </g>
         <g id="p1b0hq2c" class="pgFoot autogenerated">
            <g id="fu66yc6" class="fig">
               <g id="szzkklz" class="svg" transform="translate(7750, 28099) scale(10, 10)">
                  <g>
                     <path fill="#00000" d="M 17.11278,49.26451 V 10.367554 h 12.696511 c 3.288815,7.336676 6.71267,14.610456 10.127281,21.888976 3.419998,-7.484684 6.255515,-14.204887 9.58887,-21.909915 2.436207,0.103726 4.316952,0.08453 6.484294,-0.05808 V 49.264423 H 50.274275 C 50.145222,38.35639 50.016136,27.448368 49.887066,16.540329 45.003488,27.315459 39.967448,38.433564 35.083854,49.208695 34.678996,49.343717 34.426583,49.135619 34.021726,49.270644 29.46588,39.330716 24.910049,29.390805 20.354201,19.450876 20.224341,29.388756 20.09461,39.326619 19.964815,49.264497 H 17.11278 Z M 36.754144,39.324695 C 32.721221,30.512695 28.6883,21.700679 24.655394,12.888662 22.530527,12.750737 22.656775,12.71031 20.714356,12.813974 v 0.966497 c 4.612938,9.99784 9.609439,20.748709 13.87298,30.081745 0.722248,-1.512523 1.444528,-3.025014 2.166808,-4.537521 z m 25.738417,9.939815 c 0,-12.965651 0,-25.931305 0,-38.896956 10.084388,0 20.168791,0 30.253178,0 0,0.960416 0,1.920849 0,2.881265 -6.482825,0 -12.965652,0 -19.448478,0 0,4.802097 0,9.604178 0,14.406277 5.52241,0 11.044819,0 16.567229,0 0,0.960415 0,1.920832 0,2.881248 -5.52241,0 -11.044819,0 -16.567229,0 0,5.282306 0,10.564611 0,15.846917 6.963035,0 13.926068,0 20.889103,0 0,0.960416 0,1.920832 0,2.881249 -10.564597,0 -21.129207,0 -31.693803,0 z m 4.321874,-2.160937 c 0,-11.765131 0,-23.530263 0,-35.295394 -0.720312,0 -1.440625,0 -2.160937,0 0,11.765131 0,23.530263 0,35.295394 0.720312,0 1.440625,0 2.160937,0 z m 32.41413,2.160937 c 0,-12.965651 0,-25.931305 0,-38.896956 2.401045,0 4.802095,0 7.203135,0 0,12.965651 0,25.931305 0,38.896956 -2.40104,0 -4.80209,0 -7.203135,0 z m 2.881265,-2.160937 c 0,-11.765131 0,-23.530263 0,-35.295394 -0.72031,0 -1.44064,0 -2.160953,0 0,11.765131 0,23.530263 0,35.295394 0.720313,0 1.440643,0 2.160953,0 z" />
                     <path fill="#00000" d="m 346.3,6.7 c -3.1,0.5 -4.9,4.4 -2.7,6.8 1.2,1.4 2.7,2.4 4.1,3.5 -2.4,5.3 -7.7,8.3 -11.9,12.1 -3.7,2.8 -7,6.2 -9.7,9.9 -2.2,-0.8 -0.3,-6.8 -0.6,-9.5 0.1,-3.1 0.7,-6.4 2.9,-8.7 1.3,-1.9 3,-3.5 4.5,-5.2 1.2,-3.4 -3.2,-4.9 -5.8,-4.6 -7.3,-0.5 -14.6,2 -20,6.8 -5,4.6 -10,10.1 -11.5,17 -0.9,3.5 -0.2,7.5 2.8,9.9 2.5,2.8 7.4,2.9 9.8,-0.2 1.7,-2.3 3.2,-4.8 3.8,-7.6 -0.1,-2.6 -4.4,-2.3 -4.3,0.2 1.2,2.4 -0.9,4.7 -2.7,6.2 -1.7,0.9 -4.7,0.7 -4.8,-1.7 -1,-5.8 2.1,-11.3 5.2,-16.1 4,-5.8 9.8,-11.2 17.2,-11.8 1.6,0 8.1,-1.2 6.8,1.4 -2.8,2.8 -5.6,6.1 -6,10.3 -1.6,7.7 0.1,15.7 -2.3,23.2 -1.1,3.9 2,2.6 2.5,0.2 3.3,-7.4 8.9,-13.4 15.1,-18.5 4.2,-3.9 9.5,-7.1 11.9,-12.6 1.3,-3.6 1.2,-9 -2.7,-10.9 -0.6,-0.2 -1.2,-0.3 -1.8,-0.3 z m 66,14.5 c -2,0.8 -1.8,4.9 0.8,4.4 3.4,0.4 2.9,-6.2 -0.8,-4.4 z m 0.6,7.3 c -1.3,0.5 -7.6,0.5 -5.4,2.2 4,-0.3 0.7,4.5 0.6,6.7 -0.4,2.9 -2.4,5.9 -1.2,8.8 2.7,1.7 5.6,-0.8 6.8,-3.2 1.6,-1.4 -0.5,-3 -1.2,-0.9 -0.4,0.8 -2.4,3.5 -2.6,1.8 1.1,-5 2.7,-9.9 3.9,-14.9 l -0.1,-0.5 h -0.9 z m -65.1,0.2 c -6.5,1.6 -10.5,9.5 -8.2,15.7 2.1,3.4 7.4,2.9 10.1,0.4 2,-0.2 3.6,-5.3 1,-3.4 -1.4,2 -4,4.2 -6.5,2.8 -2.2,-1.9 -1.9,-5.7 1.7,-5.3 3.1,-0.9 6.9,-2.1 8.1,-5.5 0.9,-2.7 -1.6,-5.2 -4.3,-4.8 h -1.1 -0.7 z m 13.6,0 c -2.2,0 -8.5,1.8 -2.9,2.3 0.9,1.9 -1,4.9 -1.1,7.2 -0.5,2.9 -1.4,5.7 -1.7,8.7 3.7,0.7 3.8,-2.6 4.4,-5.3 0.9,-3.3 1.6,-7 4.1,-9.5 2.4,1.6 6.8,-0.7 3.7,-3.4 -2.9,-0.5 -4.8,2.4 -6.2,4.3 0,-1.2 2.4,-5 -0.2,-4.3 z m 15.8,0 c -6.4,1.3 -9.6,9.1 -7.7,14.9 1.9,4 7.7,3.9 11,1.7 4.1,-3 6,-8.9 4.4,-13.7 -1.3,-3 -4.8,-3.2 -7.6,-3 z m 17,0 c -2.3,0 -8.8,1.9 -3,2.4 0.4,2.5 -1,5.7 -1.4,8.4 -0.7,2.4 -1.8,7.5 2.1,7.2 3.8,-0.1 6.5,-3.5 8.5,-6.3 2,-3.2 4.5,-7 3.3,-10.9 -3.7,-3 -3.6,2.6 -3.1,5.1 -0.7,3.8 -2.7,7.9 -6.2,9.8 -3.6,0.6 -1,-4.3 -0.8,-6.1 0.6,-3.2 1.6,-6.3 1.9,-9.5 -0.4,0 -0.8,0 -1.1,0 z m 30.6,0 c -6.3,1.2 -9.5,8.9 -7.8,14.7 1.5,4 7.2,4.2 10.5,2.4 4.6,-2.8 6.6,-9.3 4.8,-14.3 -1.4,-2.8 -4.8,-3 -7.5,-2.8 z m -75.4,1.7 c 2.1,1.5 0.2,4.7 -1.6,5.7 -1.1,0.4 -5.5,3.4 -4.6,0.7 0.8,-2.7 2.2,-6.2 5.3,-6.6 l 0.9,0.1 z m 30.8,0 c 2.6,1.5 1.3,5.2 0.8,7.6 -0.8,2.7 -1.9,5.9 -4.7,7.1 -5.1,0.8 -4,-5.8 -2.8,-8.8 1,-2.8 3,-6.8 6.7,-5.8 z m 47.1,-0.1 c 2.9,0.7 2,4.7 1.5,6.8 -0.7,3 -1.8,6.7 -5,8 -4.7,0.8 -4,-5.1 -3,-7.9 0.9,-3 2.7,-7.3 6.5,-6.8 z m -88.1,5.9 c -0.3,1.3 0.9,-0.6 0,0 z m -1.1,2.4 c -0.2,0.5 0.5,-0.1 0,0 z m -1.3,4.5 c -0.3,1.3 0.8,-0.2 0,0 z" />
                     <text y="41" x="201" fill="#00000" style="font-style:italic;font-weight:normal;font-size:30px;line-height:125%;font-family:Times;text-anchor:middle" xml:space="preserve">engraved with</text>
                  </g>
               </g>
            </g>
         </g>
      </g>
   </svg>
</svg>
