<?xml version="1.0" encoding="UTF-8" standalone="no"?>
<svg width="2100px" height="2970px" version="1.1" xmlns="http://www.w3.org/2000/svg" xmlns:xlink="http://www.w3.org/1999/xlink" xmlns:mei="http://www.music-encoding.org/ns/mei" overflow="visible">
   <desc>Engraved by Verovio 3.13.1</desc>
   <defs>
      <symbol id="E044-18dbg8y" viewBox="0 0 1000 1000" overflow="inherit">
         <path transform="scale(1,-1)" d="M0 0c0 28 22 50 50 50s50 -22 50 -50s-22 -50 -50 -50s-50 22 -50 50z" />
      </symbol>
      <symbol id="E050-18dbg8y" viewBox="0 0 1000 1000" overflow="inherit">
         <path transform="scale(1,-1)" d="M441 -245c-23 -4 -48 -6 -76 -6c-59 0 -102 7 -130 20c-88 42 -150 93 -187 154c-26 44 -43 103 -48 176c0 6 -1 13 -1 19c0 54 15 111 45 170c29 57 65 106 110 148s96 85 153 127c-3 16 -8 46 -13 92c-4 43 -5 73 -5 89c0 117 16 172 69 257c34 54 64 82 89 82 c21 0 43 -30 69 -92s39 -115 41 -159v-15c0 -109 -21 -162 -67 -241c-13 -20 -63 -90 -98 -118c-13 -9 -25 -19 -37 -29l31 -181c8 1 18 2 28 2c58 0 102 -12 133 -35c59 -43 92 -104 98 -184c1 -7 1 -15 1 -22c0 -123 -87 -209 -181 -248c8 -57 17 -110 25 -162 c5 -31 6 -58 6 -80c0 -30 -5 -53 -14 -70c-35 -64 -88 -99 -158 -103c-5 0 -11 -1 -16 -1c-37 0 -72 10 -108 27c-50 24 -77 59 -80 105v11c0 29 7 55 20 76c18 28 45 42 79 44h6c49 0 93 -42 97 -87v-9c0 -51 -34 -86 -105 -106c17 -24 51 -36 102 -36c62 0 116 43 140 85 c9 16 13 41 13 74c0 20 -1 42 -5 67c-8 53 -18 106 -26 159zM461 939c-95 0 -135 -175 -135 -286c0 -24 2 -48 5 -71c50 39 92 82 127 128c40 53 60 100 60 140v8c-4 53 -22 81 -55 81h-2zM406 119l54 -326c73 25 110 78 110 161c0 7 0 15 -1 23c-7 95 -57 142 -151 142h-12 zM382 117c-72 -2 -128 -47 -128 -120v-7c2 -46 43 -99 75 -115c-3 -2 -7 -5 -10 -10c-70 33 -116 88 -123 172v11c0 68 44 126 88 159c23 17 49 29 78 36l-29 170c-21 -13 -52 -37 -92 -73c-50 -44 -86 -84 -109 -119c-45 -69 -67 -130 -67 -182v-13c5 -68 35 -127 93 -176 s125 -73 203 -73c25 0 50 3 75 9c-19 111 -36 221 -54 331z" />
      </symbol>
      <symbol id="E086-18dbg8y" viewBox="0 0 1000 1000" overflow="inherit">
         <path transform="scale(1,-1)" d="M284 -91c0 37 -28 92 -67 92c-35 0 -65 -54 -65 -111c0 -52 22 -104 68 -104c47 0 64 68 64 123zM230 214c-36 0 -90 -33 -90 -184l2 -36c40 24 81 36 120 36c80 0 140 -48 140 -121c0 -99 -99 -159 -182 -159c-160 0 -200 173 -200 244c0 21 2 43 7 71l10 35 c26 85 73 115 98 126c41 19 74 24 103 24c93 0 142 -63 142 -105c0 -58 -52 -72 -73 -72c-33 0 -59 24 -65 35c-3 5 -6 14 -7 25l11 30c6 15 9 27 9 35c0 11 -9 16 -25 16z" />
      </symbol>
      <symbol id="E088-18dbg8y" viewBox="0 0 1000 1000" overflow="inherit">
         <path transform="scale(1,-1)" d="M195 -214c76 0 88 58 90 68c0 34 -35 60 -57 73l-52 29c-21 10 -32 17 -34 20c-39 -33 -58 -54 -62 -92c5 -23 23 -98 115 -98zM301 135c0 61 -72 76 -113 76c-40 0 -77 -17 -77 -51c3 -21 15 -38 26 -50c17 -15 33 -26 48 -34l65 -28c34 27 51 56 51 87zM176 -250 c-57 0 -166 26 -166 132c0 47 30 86 89 116c-33 15 -79 60 -79 119c0 79 85 132 178 132h18c5 0 21 1 28 -1c25 0 126 -30 126 -110c0 -37 -23 -76 -69 -116c43 -25 83 -71 83 -119c0 -101 -118 -153 -208 -153z" />
      </symbol>
      <symbol id="E0A4-18dbg8y" viewBox="0 0 1000 1000" overflow="inherit">
         <path transform="scale(1,-1)" d="M0 -39c0 68 73 172 200 172c66 0 114 -37 114 -95c0 -84 -106 -171 -218 -171c-64 0 -96 30 -96 94z" />
      </symbol>
      <symbol id="E240-18dbg8y" viewBox="0 0 1000 1000" overflow="inherit">
         <path transform="scale(1,-1)" d="M179 -646c15 29 29 55 46 102c18 49 30 108 30 138c0 105 -80 173 -168 200c-18 5 -47 9 -87 16v190h22c8 0 33 -61 71 -95c4 -3 -2 3 61 -56c62 -58 122 -137 122 -241c0 -38 -13 -106 -35 -163c-20 -51 -43 -99 -66 -132c-6 -5 -10 -7 -13 -7s-5 2 -5 5l4 10 c1 3 14 25 18 33z" />
      </symbol>
      <symbol id="E241-18dbg8y" viewBox="0 0 1000 1000" overflow="inherit">
         <path transform="scale(1,-1)" d="M179 646c-4 8 -17 30 -18 33l-4 10c0 3 2 5 5 5s7 -2 13 -7c23 -33 46 -81 66 -132c22 -57 35 -125 35 -163c0 -104 -60 -183 -122 -241c-63 -59 -57 -53 -61 -56c-38 -34 -63 -95 -71 -95h-22v190c40 7 69 11 87 16c88 27 168 95 168 200c0 30 -12 89 -30 138 c-17 47 -31 73 -46 102z" />
      </symbol>
      <symbol id="E262-18dbg8y" viewBox="0 0 1000 1000" overflow="inherit">
         <path transform="scale(1,-1)" d="M136 186v169h17v-164l44 14v-91l-44 -14v-165l44 12v-91l-44 -13v-155h-17v150l-76 -22v-155h-17v149l-43 -13v90l43 14v167l-43 -14v92l43 13v169h17v-163zM60 73v-167l76 22v168z" />
      </symbol>
   </defs>
   <style type="text/css">g.page-margin{font-family:Times;} g.ending, g.fing, g.reh, g.tempo{font-weight:bold;} g.dir, g.dynam, g.mNum{font-style:italic;} g.label{font-weight:normal;}</style>
   <svg class="definition-scale" color="black" viewBox="0 0 21000 29700">
      <g class="page-margin" transform="translate(500, 500)">
         <g id="m1ghrjww" class="mdiv pageMilestone" />
         <g id="s1mkibd4" class="score pageMilestone" />
         <g id="s7h7ngr" class="system">
            <g id="l1oab788" class="label">
               <text x="1105" y="1535" text-anchor="end" font-size="0px">
                  <tspan id="ttqhfwz" class="text">
                     <tspan font-size="405px" class="text">Piano</tspan>
                  </tspan>
               </text>
            </g>
            <g id="s9vxw11" class="section systemMilestone" />
            <g id="p1hyaxfk" class="pb" />
            <g id="m9ljs48" class="measure">
               <g id="s9r0hwm" class="staff">
                  <path d="M1285 1085 L5140 1085" stroke="currentColor" stroke-width="13" />
                  <path d="M1285 1265 L5140 1265" stroke="currentColor" stroke-width="13" />
                  <path d="M1285 1445 L5140 1445" stroke="currentColor" stroke-width="13" />
                  <path d="M1285 1625 L5140 1625" stroke="currentColor" stroke-width="13" />
                  <path d="M1285 1805 L5140 1805" stroke="currentColor" stroke-width="13" />
                  <g id="c12ogwxk" class="clef">
                     <use xlink:href="#E050-18dbg8y" x="1375" y="1625" height="720px" width="720px" />
                  </g>
                  <g id="kmaqzne" class="keySig">
                     <g id="kh9grki" class="keyAccid">
                        <use xlink:href="#E262-18dbg8y" x="2020" y="1085" height="720px" width="720px" />
                     </g>
                  </g>
                  <g id="mevoy8v" class="meterSig">
                     <use xlink:href="#E086-18dbg8y" x="2327" y="1265" height="720px" width="720px" />
                     <use xlink:href="#E088-18dbg8y" x="2334" y="1625" height="720px" width="720px" />
                  </g>
                  <g id="lc7tpq6" class="layer">
                     <g id="n19gbmqw" class="note">
                        <g class="notehead">
                           <use xlink:href="#E0A4-18dbg8y" x="2888" y="1265" height="720px" width="720px" />
                        </g>
                        <g id="dw36sa7" class="dots">
                           <ellipse cx="3204" cy="1175" rx="36" ry="36" />
                        </g>
                        <g id="sls3yfa" class="stem">
                           <rect x="2888" y="1293" height="602" width="18" />
                        </g>
                     </g>
                     <g id="n17mx9qb" class="note">
                        <g class="notehead">
                           <use xlink:href="#E0A4-18dbg8y" x="3489" y="1355" height="540px" width="540px" />
                        </g>
                        <g id="s1v6hnsc" class="stem">
                           <rect x="3640" y="928" height="406" width="18" />
                           <g id="f1e77a67" class="flag">
                              <use xlink:href="#E240-18dbg8y" x="3640" y="928" height="540px" width="540px" />
                           </g>
                        </g>
                     </g>
                     <g id="n12wdemo" class="note">
                        <g class="notehead">
                           <use xlink:href="#E0A4-18dbg8y" x="3856" y="1445" height="720px" width="720px" />
                        </g>
                        <g id="s1kua8n6" class="stem">
                           <rect x="3856" y="1473" height="572" width="18" />
                        </g>
                     </g>
                     <g id="nj3iuu4" class="note">
                        <g class="notehead">
                           <use xlink:href="#E0A4-18dbg8y" x="4614" y="1535" height="720px" width="720px" />
                        </g>
                        <g id="s1n4qp10" class="stem">
                           <rect x="4822" y="905" height="602" width="18" />
                           <g id="f1kda4wr" class="flag">
                              <use xlink:href="#E240-18dbg8y" x="4822" y="905" height="720px" width="720px" />
                           </g>
                        </g>
                     </g>
                  </g>
               </g>
               <g id="b4zk0s3" class="barLine">
                  <path d="M5127 1085 L5127 1805" stroke="currentColor" stroke-width="27" />
               </g>
            </g>
            <g id="ma3x8q5" class="measure">
               <g id="s1iw9s21" class="staff">
                  <path d="M5140 1085 L7574 1085" stroke="currentColor" stroke-width="13" />
                  <path d="M5140 1265 L7574 1265" stroke="currentColor" stroke-width="13" />
                  <path d="M5140 1445 L7574 1445" stroke="currentColor" stroke-width="13" />
                  <path d="M5140 1625 L7574 1625" stroke="currentColor" stroke-width="13" />
                  <path d="M5140 1805 L7574 1805" stroke="currentColor" stroke-width="13" />
                  <g id="lolu1be" class="layer">
                     <g id="nzhm6lj" class="note">
                        <g class="notehead">
                           <use xlink:href="#E0A4-18dbg8y" x="5322" y="1625" height="720px" width="720px" />
                        </g>
                        <g id="d1jxg43g" class="dots">
                           <ellipse cx="5638" cy="1535" rx="36" ry="36" />
                        </g>
                        <g id="s1j78yex" class="stem">
                           <rect x="5530" y="995" height="602" width="18" />
                        </g>
                     </g>
                     <g id="n1a77yuc" class="note">
                        <g class="notehead">
                           <use xlink:href="#E0A4-18dbg8y" x="6290" y="1625" height="720px" width="720px" />
                        </g>
                        <g id="sojdmb7" class="stem">
                           <rect x="6498" y="995" height="602" width="18" />
                        </g>
                     </g>
                     <g id="nu2f0lm" class="note">
                        <g class="notehead">
                           <use xlink:href="#E0A4-18dbg8y" x="7048" y="1895" height="720px" width="720px" />
                        </g>
                        <g id="s1s7jsmu" class="stem">
                           <rect x="7256" y="1265" height="602" width="18" />
                           <g id="f1ngu0rp" class="flag">
                              <use xlink:href="#E240-18dbg8y" x="7256" y="1265" height="720px" width="720px" />
                           </g>
                        </g>
                     </g>
                  </g>
               </g>
               <g id="tap920w" class="tie">
                  <path d="M5593,1670 C5764,1776 6073,1776 6245,1670 C6090,1825 5747,1825 5593,1670" stroke="currentColor" stroke-linecap="round" stroke-linejoin="round" stroke-width="9" />
               </g>
               <g id="b24k2a1" class="barLine">
                  <path d="M7561 1085 L7561 1805" stroke="currentColor" stroke-width="27" />
               </g>
            </g>
            <g id="m1txssom" class="measure">
               <g id="s7r1ast" class="staff">
                  <path d="M7574 1085 L10280 1085" stroke="currentColor" stroke-width="13" />
                  <path d="M7574 1265 L10280 1265" stroke="currentColor" stroke-width="13" />
                  <path d="M7574 1445 L10280 1445" stroke="currentColor" stroke-width="13" />
                  <path d="M7574 1625 L10280 1625" stroke="currentColor" stroke-width="13" />
                  <path d="M7574 1805 L10280 1805" stroke="currentColor" stroke-width="13" />
                  <g id="l7jfhgy" class="layer">
                     <g id="n8dnwh2" class="note">
                        <g class="notehead">
                           <use xlink:href="#E0A4-18dbg8y" x="7756" y="1625" height="720px" width="720px" />
                        </g>
                        <g id="s120bvwv" class="stem">
                           <rect x="7964" y="995" height="602" width="18" />
                        </g>
                     </g>
                     <g id="n51euf1" class="note">
                        <g class="notehead">
                           <use xlink:href="#E0A4-18dbg8y" x="8514" y="1535" height="720px" width="720px" />
                        </g>
                        <g id="s1twpxcz" class="stem">
                           <rect x="8722" y="905" height="602" width="18" />
                           <g id="fnxvn2n" class="flag">
                              <use xlink:href="#E240-18dbg8y" x="8722" y="905" height="720px" width="720px" />
                           </g>
                        </g>
                     </g>
                     <g id="nwuxk8l" class="note">
                        <g class="notehead">
                           <use xlink:href="#E0A4-18dbg8y" x="9013" y="1445" height="720px" width="720px" />
                        </g>
                        <g id="snka4ir" class="stem">
                           <rect x="9013" y="1473" height="572" width="18" />
                        </g>
                     </g>
                     <g id="n1wd5haz" class="note">
                        <g class="notehead">
                           <use xlink:href="#E0A4-18dbg8y" x="9772" y="1355" height="720px" width="720px" />
                        </g>
                        <g id="s1mf2038" class="stem">
                           <rect x="9772" y="1383" height="602" width="18" />
                           <g id="f124nuy4" class="flag">
                              <use xlink:href="#E241-18dbg8y" x="9772" y="1985" height="720px" width="720px" />
                           </g>
                        </g>
                     </g>
                  </g>
               </g>
               <g id="b13n6mql" class="barLine">
                  <path d="M10267 1085 L10267 1805" stroke="currentColor" stroke-width="27" />
               </g>
            </g>
            <g id="mao2l3o" class="measure">
               <g id="s10xis4z" class="staff">
                  <path d="M10280 1085 L12410 1085" stroke="currentColor" stroke-width="13" />
                  <path d="M10280 1265 L12410 1265" stroke="currentColor" stroke-width="13" />
                  <path d="M10280 1445 L12410 1445" stroke="currentColor" stroke-width="13" />
                  <path d="M10280 1625 L12410 1625" stroke="currentColor" stroke-width="13" />
                  <path d="M10280 1805 L12410 1805" stroke="currentColor" stroke-width="13" />
                  <g id="l1ey7z2e" class="layer">
                     <g id="n19rlsp0" class="note">
                        <g class="notehead">
                           <use xlink:href="#E0A4-18dbg8y" x="10462" y="1265" height="720px" width="720px" />
                        </g>
                        <g id="d3nbjgs" class="dots">
                           <ellipse cx="10778" cy="1175" rx="36" ry="36" />
                        </g>
                        <g id="sszvnr" class="stem">
                           <rect x="10462" y="1293" height="602" width="18" />
                        </g>
                     </g>
                     <g id="n6xt3fx" class="note">
                        <g class="notehead">
                           <use xlink:href="#E0A4-18dbg8y" x="11430" y="1535" height="720px" width="720px" />
                        </g>
                        <g id="d1vy6ybz" class="dots">
                           <ellipse cx="11746" cy="1535" rx="36" ry="36" />
                        </g>
                        <g id="s11r58jx" class="stem">
                           <rect x="11638" y="905" height="602" width="18" />
                        </g>
                     </g>
                  </g>
               </g>
               <g id="b1ct7wuy" class="barLine">
                  <path d="M12397 1085 L12397 1805" stroke="currentColor" stroke-width="27" />
               </g>
            </g>
            <g id="m1a6cbvr" class="measure">
               <g id="s1w98t3g" class="staff">
                  <path d="M12410 1085 L14844 1085" stroke="currentColor" stroke-width="13" />
                  <path d="M12410 1265 L14844 1265" stroke="currentColor" stroke-width="13" />
                  <path d="M12410 1445 L14844 1445" stroke="currentColor" stroke-width="13" />
                  <path d="M12410 1625 L14844 1625" stroke="currentColor" stroke-width="13" />
                  <path d="M12410 1805 L14844 1805" stroke="currentColor" stroke-width="13" />
                  <g id="ly0w1dg" class="layer">
                     <g id="nwgiw2w" class="note">
                        <g class="notehead">
                           <use xlink:href="#E0A4-18dbg8y" x="12592" y="1265" height="720px" width="720px" />
                        </g>
                        <g id="d1c6pgx2" class="dots">
                           <ellipse cx="12908" cy="1175" rx="36" ry="36" />
                        </g>
                        <g id="s1jhc0xb" class="stem">
                           <rect x="12592" y="1293" height="602" width="18" />
                        </g>
                     </g>
                     <g id="n19mco2y" class="note">
                        <g class="notehead">
                           <use xlink:href="#E0A4-18dbg8y" x="13193" y="1355" height="540px" width="540px" />
                        </g>
                        <g id="s16nx4rr" class="stem">
                           <rect x="13344" y="928" height="406" width="18" />
                           <g id="f1uqxl9z" class="flag">
                              <use xlink:href="#E240-18dbg8y" x="13344" y="928" height="540px" width="540px" />
                           </g>
                        </g>
                     </g>
                     <g id="n1v0cc24" class="note">
                        <g class="notehead">
                           <use xlink:href="#E0A4-18dbg8y" x="13560" y="1445" height="720px" width="720px" />
                        </g>
                        <g id="s1wvt8mg" class="stem">
                           <rect x="13560" y="1473" height="572" width="18" />
                        </g>
                     </g>
                     <g id="n18tzost" class="note">
                        <g class="notehead">
                           <use xlink:href="#E0A4-18dbg8y" x="14318" y="1535" height="720px" width="720px" />
                        </g>
                        <g id="snd1g53" class="stem">
                           <rect x="14526" y="905" height="602" width="18" />
                           <g id="f1l7q9cj" class="flag">
                              <use xlink:href="#E240-18dbg8y" x="14526" y="905" height="720px" width="720px" />
                           </g>
                        </g>
                     </g>
                  </g>
               </g>
               <g id="b1lpz8hm" class="barLine">
                  <path d="M14831 1085 L14831 1805" stroke="currentColor" stroke-width="27" />
               </g>
            </g>
            <g id="m1iom1aj" class="measure">
               <g id="s4w2p3d" class="staff">
                  <path d="M14844 1085 L17278 1085" stroke="currentColor" stroke-width="13" />
                  <path d="M14844 1265 L17278 1265" stroke="currentColor" stroke-width="13" />
                  <path d="M14844 1445 L17278 1445" stroke="currentColor" stroke-width="13" />
                  <path d="M14844 1625 L17278 1625" stroke="currentColor" stroke-width="13" />
                  <path d="M14844 1805 L17278 1805" stroke="currentColor" stroke-width="13" />
                  <g id="lelac9d" class="layer">
                     <g id="n1x138qa" class="note">
                        <g class="notehead">
                           <use xlink:href="#E0A4-18dbg8y" x="15026" y="1625" height="720px" width="720px" />
                        </g>
                        <g id="d1ca7l8q" class="dots">
                           <ellipse cx="15342" cy="1535" rx="36" ry="36" />
                        </g>
                        <g id="s19ptps2" class="stem">
                           <rect x="15234" y="995" height="602" width="18" />
                        </g>
                     </g>
                     <g id="n2bhmzt" class="note">
                        <g class="notehead">
                           <use xlink:href="#E0A4-18dbg8y" x="15994" y="1625" height="720px" width="720px" />
                        </g>
                        <g id="sfxxn7f" class="stem">
                           <rect x="16202" y="995" height="602" width="18" />
                        </g>
                     </g>
                     <g id="n1cg1ym" class="note">
                        <g class="notehead">
                           <use xlink:href="#E0A4-18dbg8y" x="16752" y="1625" height="720px" width="720px" />
                        </g>
                        <g id="swhxy9v" class="stem">
                           <rect x="16960" y="995" height="602" width="18" />
                           <g id="fah7zbm" class="flag">
                              <use xlink:href="#E240-18dbg8y" x="16960" y="995" height="720px" width="720px" />
                           </g>
                        </g>
                     </g>
                  </g>
               </g>
               <g id="trzbio7" class="tie">
                  <path d="M15297,1670 C15468,1776 15777,1776 15949,1670 C15794,1825 15451,1825 15297,1670" stroke="currentColor" stroke-linecap="round" stroke-linejoin="round" stroke-width="9" />
               </g>
               <g id="b9w7tcr" class="barLine">
                  <path d="M17265 1085 L17265 1805" stroke="currentColor" stroke-width="27" />
               </g>
            </g>
            <g id="m15msc1z" class="measure">
               <g id="s1tc4efz" class="staff">
                  <path d="M17278 1085 L20002 1085" stroke="currentColor" stroke-width="13" />
                  <path d="M17278 1265 L20002 1265" stroke="currentColor" stroke-width="13" />
                  <path d="M17278 1445 L20002 1445" stroke="currentColor" stroke-width="13" />
                  <path d="M17278 1625 L20002 1625" stroke="currentColor" stroke-width="13" />
                  <path d="M17278 1805 L20002 1805" stroke="currentColor" stroke-width="13" />
                  <g id="l1iwtztr" class="layer">
                     <g id="n3avva6" class="note">
                        <g class="notehead">
                           <use xlink:href="#E0A4-18dbg8y" x="17460" y="1715" height="720px" width="720px" />
                        </g>
                        <g id="s17yxfcn" class="stem">
                           <rect x="17668" y="1085" height="602" width="18" />
                        </g>
                        <g id="a2kdkjz" class="accid" />
                     </g>
                     <g id="nvnlfbj" class="note">
                        <g class="notehead">
                           <use xlink:href="#E0A4-18dbg8y" x="18218" y="1715" height="720px" width="720px" />
                        </g>
                        <g id="sd1h08n" class="stem">
                           <rect x="18426" y="1085" height="602" width="18" />
                           <g id="fl5d7wj" class="flag">
                              <use xlink:href="#E240-18dbg8y" x="18426" y="1085" height="720px" width="720px" />
                           </g>
                        </g>
                        <g id="anp2f3z" class="accid" />
                     </g>
                     <g id="n13t9050" class="note">
                        <g class="notehead">
                           <use xlink:href="#E0A4-18dbg8y" x="18717" y="1625" height="720px" width="720px" />
                        </g>
                        <g id="sg44rqe" class="stem">
                           <rect x="18925" y="995" height="602" width="18" />
                        </g>
                     </g>
                     <g id="n8e40cc" class="note">
                        <g class="notehead">
                           <use xlink:href="#E0A4-18dbg8y" x="19476" y="1805" height="720px" width="720px" />
                        </g>
                        <g id="s51gsze" class="stem">
                           <rect x="19684" y="1175" height="602" width="18" />
                           <g id="f7yinwf" class="flag">
                              <use xlink:href="#E240-18dbg8y" x="19684" y="1175" height="720px" width="720px" />
                           </g>
                        </g>
                     </g>
                  </g>
               </g>
               <g id="b1o0uar3" class="barLine">
                  <path d="M19989 1085 L19989 1805" stroke="currentColor" stroke-width="27" />
               </g>
            </g>
         </g>
         <g id="s11t3m6s" class="system">
            <g id="lki0tzt" class="labelAbbr">
               <text x="914" y="3884" text-anchor="end" font-size="0px">
                  <tspan id="te9y52r" class="text">
                     <tspan font-size="405px" class="text">Pno.</tspan>
                  </tspan>
               </text>
            </g>
            <g id="m1eqjayz" class="measure">
               <g id="m1ms5of6" class="mNum autogenerated">
                  <text x="1094" y="3191" text-anchor="middle" font-size="0px">
                     <tspan id="tvzjsf8" class="text">
                        <tspan font-size="324px" class="text">8</tspan>
                     </tspan>
                  </text>
               </g>
               <g id="s1mhtcn" class="staff">
                  <path d="M1094 3434 L4542 3434" stroke="currentColor" stroke-width="13" />
                  <path d="M1094 3614 L4542 3614" stroke="currentColor" stroke-width="13" />
                  <path d="M1094 3794 L4542 3794" stroke="currentColor" stroke-width="13" />
                  <path d="M1094 3974 L4542 3974" stroke="currentColor" stroke-width="13" />
                  <path d="M1094 4154 L4542 4154" stroke="currentColor" stroke-width="13" />
                  <g id="cjyv4pf" class="clef">
                     <use xlink:href="#E050-18dbg8y" x="1184" y="3974" height="720px" width="720px" />
                  </g>
                  <g id="k10lw2v1" class="keySig">
                     <g id="kp3wxtj" class="keyAccid">
                        <use xlink:href="#E262-18dbg8y" x="1829" y="3434" height="720px" width="720px" />
                     </g>
                  </g>
                  <g id="l7u3t83" class="layer">
                     <g id="nwnn3q" class="note">
                        <g class="notehead">
                           <use xlink:href="#E0A4-18dbg8y" x="2240" y="4244" height="720px" width="720px" />
                        </g>
                        <g id="d11da1hc" class="dots">
                           <ellipse cx="2556" cy="4244" rx="36" ry="36" />
                        </g>
                        <g id="sh1c4kp" class="stem">
                           <rect x="2448" y="3614" height="602" width="18" />
                        </g>
                     </g>
                     <g id="nqe60g8" class="note">
                        <g class="notehead">
                           <use xlink:href="#E0A4-18dbg8y" x="3202" y="4244" height="720px" width="720px" />
                        </g>
                        <g id="d1be5g4v" class="dots">
                           <ellipse cx="3518" cy="4244" rx="36" ry="36" />
                        </g>
                        <g id="saeifp4" class="stem">
                           <rect x="3410" y="3614" height="602" width="18" />
                        </g>
                     </g>
                  </g>
               </g>
               <g id="bjb1bxw" class="barLine">
                  <path d="M4164 3434 L4164 4154" stroke="currentColor" stroke-width="27" />
                  <path d="M4294 3434 L4294 4154" stroke="currentColor" stroke-width="90" />
                  <path d="M4425 3434 L4425 4154" stroke="currentColor" stroke-width="27" />
                  <use xlink:href="#E044-18dbg8y" x="4470" y="3704" height="720px" width="720px" />
                  <use xlink:href="#E044-18dbg8y" x="4470" y="3884" height="720px" width="720px" />
                  <use xlink:href="#E044-18dbg8y" x="4047" y="3704" height="720px" width="720px" />
                  <use xlink:href="#E044-18dbg8y" x="4047" y="3884" height="720px" width="720px" />
               </g>
            </g>
            <g id="scvr9ky" class="sb" />
            <g id="m1n3izq0" class="measure">
               <g id="sgfgr1d" class="staff">
                  <path d="M4542 3434 L7687 3434" stroke="currentColor" stroke-width="13" />
                  <path d="M4542 3614 L7687 3614" stroke="currentColor" stroke-width="13" />
                  <path d="M4542 3794 L7687 3794" stroke="currentColor" stroke-width="13" />
                  <path d="M4542 3974 L7687 3974" stroke="currentColor" stroke-width="13" />
                  <path d="M4542 4154 L7687 4154" stroke="currentColor" stroke-width="13" />
                  <g id="l13vo292" class="layer">
                     <g id="b1wx16c2" class="beam">
                        <polygon points="4930,3389 5932,3389 5932,3479 4930,3479" />
                        <g id="n1wupkdd" class="note">
                           <g class="notehead">
                              <use xlink:href="#E0A4-18dbg8y" x="4722" y="3974" height="720px" width="720px" />
                           </g>
                           <g id="s1qfgspd" class="stem">
                              <rect x="4930" y="3407" height="539" width="18" />
                           </g>
                        </g>
                        <g id="nem7zsq" class="note">
                           <g class="notehead">
                              <use xlink:href="#E0A4-18dbg8y" x="5214" y="3974" height="720px" width="720px" />
                           </g>
                           <g id="s17y5b59" class="stem">
                              <rect x="5422" y="3407" height="539" width="18" />
                           </g>
                        </g>
                        <g id="n1wnp8k1" class="note">
                           <g class="notehead">
                              <use xlink:href="#E0A4-18dbg8y" x="5706" y="3974" height="720px" width="720px" />
                           </g>
                           <g id="sf0y82u" class="stem">
                              <rect x="5914" y="3407" height="539" width="18" />
                           </g>
                        </g>
                     </g>
                     <g id="b20gskp" class="beam">
                        <polygon points="6406,3254 7408,3254 7408,3344 6406,3344" />
                        <g id="n7gnklm" class="note">
                           <g class="notehead">
                              <use xlink:href="#E0A4-18dbg8y" x="6198" y="3884" height="720px" width="720px" />
                           </g>
                           <g id="s1s005h7" class="stem">
                              <rect x="6406" y="3272" height="584" width="18" />
                           </g>
                        </g>
                        <g id="nrvy2zn" class="note">
                           <g class="notehead">
                              <use xlink:href="#E0A4-18dbg8y" x="6690" y="3884" height="720px" width="720px" />
                           </g>
                           <g id="ssnpiq7" class="stem">
                              <rect x="6898" y="3272" height="584" width="18" />
                           </g>
                        </g>
                        <g id="nw7t2tt" class="note">
                           <g class="notehead">
                              <use xlink:href="#E0A4-18dbg8y" x="7182" y="3884" height="720px" width="720px" />
                           </g>
                           <g id="swpmh4y" class="stem">
                              <rect x="7390" y="3272" height="584" width="18" />
                           </g>
                        </g>
                     </g>
                  </g>
               </g>
               <g id="b19ib9uw" class="barLine">
                  <path d="M7674 3434 L7674 4154" stroke="currentColor" stroke-width="27" />
               </g>
            </g>
            <g id="mnhy0gx" class="measure">
               <g id="s14qgttm" class="staff">
                  <path d="M7687 3434 L10390 3434" stroke="currentColor" stroke-width="13" />
                  <path d="M7687 3614 L10390 3614" stroke="currentColor" stroke-width="13" />
                  <path d="M7687 3794 L10390 3794" stroke="currentColor" stroke-width="13" />
                  <path d="M7687 3974 L10390 3974" stroke="currentColor" stroke-width="13" />
                  <path d="M7687 4154 L10390 4154" stroke="currentColor" stroke-width="13" />
                  <g id="l11yel5u" class="layer">
                     <g id="n1j1zn3s" class="note">
                        <g class="notehead">
                           <use xlink:href="#E0A4-18dbg8y" x="7867" y="3614" height="720px" width="720px" />
                        </g>
                        <g id="sr2zm1a" class="stem">
                           <rect x="7867" y="3642" height="602" width="18" />
                        </g>
                     </g>
                     <g id="n1azvbc2" class="note">
                        <g class="notehead">
                           <use xlink:href="#E0A4-18dbg8y" x="8621" y="3974" height="720px" width="720px" />
                        </g>
                        <g id="s1a6c8pc" class="stem">
                           <rect x="8829" y="3344" height="602" width="18" />
                           <g id="f6px2hi" class="flag">
                              <use xlink:href="#E240-18dbg8y" x="8829" y="3344" height="720px" width="720px" />
                           </g>
                        </g>
                     </g>
                     <g id="nqp5ttz" class="note">
                        <g class="notehead">
                           <use xlink:href="#E0A4-18dbg8y" x="9113" y="4064" height="720px" width="720px" />
                        </g>
                        <g id="s12i5d8c" class="stem">
                           <rect x="9321" y="3434" height="602" width="18" />
                        </g>
                        <g id="aktgqfs" class="accid" />
                     </g>
                     <g id="nzcu694" class="note">
                        <g class="notehead">
                           <use xlink:href="#E0A4-18dbg8y" x="9867" y="4244" height="720px" width="720px" />
                        </g>
                        <g id="s1n5yqtk" class="stem">
                           <rect x="10075" y="3614" height="602" width="18" />
                           <g id="f1w5sud" class="flag">
                              <use xlink:href="#E240-18dbg8y" x="10075" y="3614" height="720px" width="720px" />
                           </g>
                        </g>
                     </g>
                  </g>
               </g>
               <g id="b49o875" class="barLine">
                  <path d="M10377 3434 L10377 4154" stroke="currentColor" stroke-width="27" />
               </g>
            </g>
            <g id="m1g9qb5q" class="measure">
               <g id="s1okhggi" class="staff">
                  <path d="M10390 3434 L13535 3434" stroke="currentColor" stroke-width="13" />
                  <path d="M10390 3614 L13535 3614" stroke="currentColor" stroke-width="13" />
                  <path d="M10390 3794 L13535 3794" stroke="currentColor" stroke-width="13" />
                  <path d="M10390 3974 L13535 3974" stroke="currentColor" stroke-width="13" />
                  <path d="M10390 4154 L13535 4154" stroke="currentColor" stroke-width="13" />
                  <g id="l17z6ub0" class="layer">
                     <g id="bx32pjz" class="beam">
                        <polygon points="10778,3389 11780,3389 11780,3479 10778,3479" />
                        <g id="n13n2ryf" class="note">
                           <g class="notehead">
                              <use xlink:href="#E0A4-18dbg8y" x="10570" y="3974" height="720px" width="720px" />
                           </g>
                           <g id="s1vkaczi" class="stem">
                              <rect x="10778" y="3407" height="539" width="18" />
                           </g>
                        </g>
                        <g id="n1taxtyu" class="note">
                           <g class="notehead">
                              <use xlink:href="#E0A4-18dbg8y" x="11062" y="3974" height="720px" width="720px" />
                           </g>
                           <g id="s85a9li" class="stem">
                              <rect x="11270" y="3407" height="539" width="18" />
                           </g>
                        </g>
                        <g id="ni64a5r" class="note">
                           <g class="notehead">
                              <use xlink:href="#E0A4-18dbg8y" x="11554" y="3974" height="720px" width="720px" />
                           </g>
                           <g id="sbuk72c" class="stem">
                              <rect x="11762" y="3407" height="539" width="18" />
                           </g>
                        </g>
                     </g>
                     <g id="bv6vnz6" class="beam">
                        <polygon points="12254,3254 13256,3254 13256,3344 12254,3344" />
                        <g id="n14ib0zf" class="note">
                           <g class="notehead">
                              <use xlink:href="#E0A4-18dbg8y" x="12046" y="3884" height="720px" width="720px" />
                           </g>
                           <g id="s1cc4bna" class="stem">
                              <rect x="12254" y="3272" height="584" width="18" />
                           </g>
                        </g>
                        <g id="n1hzsiva" class="note">
                           <g class="notehead">
                              <use xlink:href="#E0A4-18dbg8y" x="12538" y="3884" height="720px" width="720px" />
                           </g>
                           <g id="swllp27" class="stem">
                              <rect x="12746" y="3272" height="584" width="18" />
                           </g>
                        </g>
                        <g id="n19i5fsg" class="note">
                           <g class="notehead">
                              <use xlink:href="#E0A4-18dbg8y" x="13030" y="3884" height="720px" width="720px" />
                           </g>
                           <g id="s1ololr" class="stem">
                              <rect x="13238" y="3272" height="584" width="18" />
                           </g>
                        </g>
                     </g>
                  </g>
               </g>
               <g id="bd4mqe9" class="barLine">
                  <path d="M13522 3434 L13522 4154" stroke="currentColor" stroke-width="27" />
               </g>
            </g>
            <g id="m1q3y05a" class="measure">
               <g id="s1y2wn9r" class="staff">
                  <path d="M13535 3434 L16102 3434" stroke="currentColor" stroke-width="13" />
                  <path d="M13535 3614 L16102 3614" stroke="currentColor" stroke-width="13" />
                  <path d="M13535 3794 L16102 3794" stroke="currentColor" stroke-width="13" />
                  <path d="M13535 3974 L16102 3974" stroke="currentColor" stroke-width="13" />
                  <path d="M13535 4154 L16102 4154" stroke="currentColor" stroke-width="13" />
                  <g id="l10yil5b" class="layer">
                     <g id="nhyu4io" class="note">
                        <g class="notehead">
                           <use xlink:href="#E0A4-18dbg8y" x="13715" y="3614" height="720px" width="720px" />
                        </g>
                        <g id="sbhxpvs" class="stem">
                           <rect x="13715" y="3642" height="602" width="18" />
                        </g>
                     </g>
                     <g id="n6o3npu" class="note">
                        <g class="notehead">
                           <use xlink:href="#E0A4-18dbg8y" x="14469" y="4064" height="720px" width="720px" />
                        </g>
                        <g id="sq4u8j8" class="stem">
                           <rect x="14677" y="3434" height="602" width="18" />
                           <g id="f1wdi1c8" class="flag">
                              <use xlink:href="#E240-18dbg8y" x="14677" y="3434" height="720px" width="720px" />
                           </g>
                        </g>
                        <g id="a563od9" class="accid" />
                     </g>
                     <g id="n1v5xz4c" class="note">
                        <g class="notehead">
                           <use xlink:href="#E0A4-18dbg8y" x="14965" y="3974" height="720px" width="720px" />
                        </g>
                        <g id="dgrpac9" class="dots">
                           <ellipse cx="15281" cy="3884" rx="36" ry="36" />
                        </g>
                        <g id="s12tegvp" class="stem">
                           <rect x="15173" y="3344" height="602" width="18" />
                        </g>
                     </g>
                  </g>
               </g>
               <g id="b1h9ysjm" class="barLine">
                  <path d="M15927 3434 L15927 4154" stroke="currentColor" stroke-width="27" />
                  <path d="M16057 3434 L16057 4154" stroke="currentColor" stroke-width="90" />
               </g>
            </g>
            <g id="s1f7csgi" class="systemMilestoneEnd s9vxw11" />
         </g>
         <g id="p16dn1h3" class="pageMilestoneEnd s1mkibd4" />
         <g id="pe6ruae" class="pageMilestoneEnd m1ghrjww" />
         <g id="pwerl80" class="pgHead">
            <text x="0" y="0" font-size="0px">
               <tspan id="r1dl35yf" class="rend" x="10000" y="277" text-anchor="middle">
                  <tspan id="tidara6" class="text">
                     <tspan font-size="405px" class="text">Air n 29</tspan>
                  </tspan>
               </tspan>
            </text>
         </g>
         <g id="p1hul1hd" class="pgFoot autogenerated">
            <g id="fmnzk8c" class="fig">
               <g id="s1dr6bn9" class="svg" transform="translate(7750, 28099) scale(10, 10)">
                  <g>
                     <path fill="#00000" d="M 17.11278,49.26451 V 10.367554 h 12.696511 c 3.288815,7.336676 6.71267,14.610456 10.127281,21.888976 3.419998,-7.484684 6.255515,-14.204887 9.58887,-21.909915 2.436207,0.103726 4.316952,0.08453 6.484294,-0.05808 V 49.264423 H 50.274275 C 50.145222,38.35639 50.016136,27.448368 49.887066,16.540329 45.003488,27.315459 39.967448,38.433564 35.083854,49.208695 34.678996,49.343717 34.426583,49.135619 34.021726,49.270644 29.46588,39.330716 24.910049,29.390805 20.354201,19.450876 20.224341,29.388756 20.09461,39.326619 19.964815,49.264497 H 17.11278 Z M 36.754144,39.324695 C 32.721221,30.512695 28.6883,21.700679 24.655394,12.888662 22.530527,12.750737 22.656775,12.71031 20.714356,12.813974 v 0.966497 c 4.612938,9.99784 9.609439,20.748709 13.87298,30.081745 0.722248,-1.512523 1.444528,-3.025014 2.166808,-4.537521 z m 25.738417,9.939815 c 0,-12.965651 0,-25.931305 0,-38.896956 10.084388,0 20.168791,0 30.253178,0 0,0.960416 0,1.920849 0,2.881265 -6.482825,0 -12.965652,0 -19.448478,0 0,4.802097 0,9.604178 0,14.406277 5.52241,0 11.044819,0 16.567229,0 0,0.960415 0,1.920832 0,2.881248 -5.52241,0 -11.044819,0 -16.567229,0 0,5.282306 0,10.564611 0,15.846917 6.963035,0 13.926068,0 20.889103,0 0,0.960416 0,1.920832 0,2.881249 -10.564597,0 -21.129207,0 -31.693803,0 z m 4.321874,-2.160937 c 0,-11.765131 0,-23.530263 0,-35.295394 -0.720312,0 -1.440625,0 -2.160937,0 0,11.765131 0,23.530263 0,35.295394 0.720312,0 1.440625,0 2.160937,0 z m 32.41413,2.160937 c 0,-12.965651 0,-25.931305 0,-38.896956 2.401045,0 4.802095,0 7.203135,0 0,12.965651 0,25.931305 0,38.896956 -2.40104,0 -4.80209,0 -7.203135,0 z m 2.881265,-2.160937 c 0,-11.765131 0,-23.530263 0,-35.295394 -0.72031,0 -1.44064,0 -2.160953,0 0,11.765131 0,23.530263 0,35.295394 0.720313,0 1.440643,0 2.160953,0 z" />
                     <path fill="#00000" d="m 346.3,6.7 c -3.1,0.5 -4.9,4.4 -2.7,6.8 1.2,1.4 2.7,2.4 4.1,3.5 -2.4,5.3 -7.7,8.3 -11.9,12.1 -3.7,2.8 -7,6.2 -9.7,9.9 -2.2,-0.8 -0.3,-6.8 -0.6,-9.5 0.1,-3.1 0.7,-6.4 2.9,-8.7 1.3,-1.9 3,-3.5 4.5,-5.2 1.2,-3.4 -3.2,-4.9 -5.8,-4.6 -7.3,-0.5 -14.6,2 -20,6.8 -5,4.6 -10,10.1 -11.5,17 -0.9,3.5 -0.2,7.5 2.8,9.9 2.5,2.8 7.4,2.9 9.8,-0.2 1.7,-2.3 3.2,-4.8 3.8,-7.6 -0.1,-2.6 -4.4,-2.3 -4.3,0.2 1.2,2.4 -0.9,4.7 -2.7,6.2 -1.7,0.9 -4.7,0.7 -4.8,-1.7 -1,-5.8 2.1,-11.3 5.2,-16.1 4,-5.8 9.8,-11.2 17.2,-11.8 1.6,0 8.1,-1.2 6.8,1.4 -2.8,2.8 -5.6,6.1 -6,10.3 -1.6,7.7 0.1,15.7 -2.3,23.2 -1.1,3.9 2,2.6 2.5,0.2 3.3,-7.4 8.9,-13.4 15.1,-18.5 4.2,-3.9 9.5,-7.1 11.9,-12.6 1.3,-3.6 1.2,-9 -2.7,-10.9 -0.6,-0.2 -1.2,-0.3 -1.8,-0.3 z m 66,14.5 c -2,0.8 -1.8,4.9 0.8,4.4 3.4,0.4 2.9,-6.2 -0.8,-4.4 z m 0.6,7.3 c -1.3,0.5 -7.6,0.5 -5.4,2.2 4,-0.3 0.7,4.5 0.6,6.7 -0.4,2.9 -2.4,5.9 -1.2,8.8 2.7,1.7 5.6,-0.8 6.8,-3.2 1.6,-1.4 -0.5,-3 -1.2,-0.9 -0.4,0.8 -2.4,3.5 -2.6,1.8 1.1,-5 2.7,-9.9 3.9,-14.9 l -0.1,-0.5 h -0.9 z m -65.1,0.2 c -6.5,1.6 -10.5,9.5 -8.2,15.7 2.1,3.4 7.4,2.9 10.1,0.4 2,-0.2 3.6,-5.3 1,-3.4 -1.4,2 -4,4.2 -6.5,2.8 -2.2,-1.9 -1.9,-5.7 1.7,-5.3 3.1,-0.9 6.9,-2.1 8.1,-5.5 0.9,-2.7 -1.6,-5.2 -4.3,-4.8 h -1.1 -0.7 z m 13.6,0 c -2.2,0 -8.5,1.8 -2.9,2.3 0.9,1.9 -1,4.9 -1.1,7.2 -0.5,2.9 -1.4,5.7 -1.7,8.7 3.7,0.7 3.8,-2.6 4.4,-5.3 0.9,-3.3 1.6,-7 4.1,-9.5 2.4,1.6 6.8,-0.7 3.7,-3.4 -2.9,-0.5 -4.8,2.4 -6.2,4.3 0,-1.2 2.4,-5 -0.2,-4.3 z m 15.8,0 c -6.4,1.3 -9.6,9.1 -7.7,14.9 1.9,4 7.7,3.9 11,1.7 4.1,-3 6,-8.9 4.4,-13.7 -1.3,-3 -4.8,-3.2 -7.6,-3 z m 17,0 c -2.3,0 -8.8,1.9 -3,2.4 0.4,2.5 -1,5.7 -1.4,8.4 -0.7,2.4 -1.8,7.5 2.1,7.2 3.8,-0.1 6.5,-3.5 8.5,-6.3 2,-3.2 4.5,-7 3.3,-10.9 -3.7,-3 -3.6,2.6 -3.1,5.1 -0.7,3.8 -2.7,7.9 -6.2,9.8 -3.6,0.6 -1,-4.3 -0.8,-6.1 0.6,-3.2 1.6,-6.3 1.9,-9.5 -0.4,0 -0.8,0 -1.1,0 z m 30.6,0 c -6.3,1.2 -9.5,8.9 -7.8,14.7 1.5,4 7.2,4.2 10.5,2.4 4.6,-2.8 6.6,-9.3 4.8,-14.3 -1.4,-2.8 -4.8,-3 -7.5,-2.8 z m -75.4,1.7 c 2.1,1.5 0.2,4.7 -1.6,5.7 -1.1,0.4 -5.5,3.4 -4.6,0.7 0.8,-2.7 2.2,-6.2 5.3,-6.6 l 0.9,0.1 z m 30.8,0 c 2.6,1.5 1.3,5.2 0.8,7.6 -0.8,2.7 -1.9,5.9 -4.7,7.1 -5.1,0.8 -4,-5.8 -2.8,-8.8 1,-2.8 3,-6.8 6.7,-5.8 z m 47.1,-0.1 c 2.9,0.7 2,4.7 1.5,6.8 -0.7,3 -1.8,6.7 -5,8 -4.7,0.8 -4,-5.1 -3,-7.9 0.9,-3 2.7,-7.3 6.5,-6.8 z m -88.1,5.9 c -0.3,1.3 0.9,-0.6 0,0 z m -1.1,2.4 c -0.2,0.5 0.5,-0.1 0,0 z m -1.3,4.5 c -0.3,1.3 0.8,-0.2 0,0 z" />
                     <text y="41" x="201" fill="#00000" style="font-style:italic;font-weight:normal;font-size:30px;line-height:125%;font-family:Times;text-anchor:middle" xml:space="preserve">engraved with</text>
                  </g>
               </g>
            </g>
         </g>
      </g>
   </svg>
</svg>
