<?xml version="1.0" encoding="UTF-8" standalone="no"?>
<svg width="2100px" height="2970px" version="1.1" xmlns="http://www.w3.org/2000/svg" xmlns:xlink="http://www.w3.org/1999/xlink" xmlns:mei="http://www.music-encoding.org/ns/mei" overflow="visible">
   <desc>Engraved by Verovio 3.13.1</desc>
   <defs>
      <symbol id="E56D-1tmns67" viewBox="0 0 1000 1000" overflow="inherit">
         <path transform="scale(1,-1)" d="M0 21v59l121 143c4 4 8 7 11 9s7 3 11 4c5 0 13 -6 25 -17l107 -94v184h30v-159l58 69c11 13 19 20 23 20l24 -16l84 -75l31 -25c3 1 7 5 13 12l14 15l34 44v-55l-106 -125c-8 -11 -16 -16 -23 -16c-3 1 -5 3 -7 4c-6 4 -12 9 -18 14l-78 70c-14 14 -25 21 -34 21l-5 -2 l-5 -5l-5 -6v-184h-30v149l-36 -45c-10 -11 -18 -16 -24 -16l-7 2l-10 8l-10 8l-88 80c-7 7 -14 11 -20 13c-3 0 -9 -4 -17 -13z" />
      </symbol>
      <symbol id="E240-1tmns67" viewBox="0 0 1000 1000" overflow="inherit">
         <path transform="scale(1,-1)" d="M179 -646c15 29 29 55 46 102c18 49 30 108 30 138c0 105 -80 173 -168 200c-18 5 -47 9 -87 16v190h22c8 0 33 -61 71 -95c4 -3 -2 3 61 -56c62 -58 122 -137 122 -241c0 -38 -13 -106 -35 -163c-20 -51 -43 -99 -66 -132c-6 -5 -10 -7 -13 -7s-5 2 -5 5l4 10 c1 3 14 25 18 33z" />
      </symbol>
      <symbol id="E262-1tmns67" viewBox="0 0 1000 1000" overflow="inherit">
         <path transform="scale(1,-1)" d="M136 186v169h17v-164l44 14v-91l-44 -14v-165l44 12v-91l-44 -13v-155h-17v150l-76 -22v-155h-17v149l-43 -13v90l43 14v167l-43 -14v92l43 13v169h17v-163zM60 73v-167l76 22v168z" />
      </symbol>
      <symbol id="E044-1tmns67" viewBox="0 0 1000 1000" overflow="inherit">
         <path transform="scale(1,-1)" d="M0 0c0 28 22 50 50 50s50 -22 50 -50s-22 -50 -50 -50s-50 22 -50 50z" />
      </symbol>
      <symbol id="E050-1tmns67" viewBox="0 0 1000 1000" overflow="inherit">
         <path transform="scale(1,-1)" d="M441 -245c-23 -4 -48 -6 -76 -6c-59 0 -102 7 -130 20c-88 42 -150 93 -187 154c-26 44 -43 103 -48 176c0 6 -1 13 -1 19c0 54 15 111 45 170c29 57 65 106 110 148s96 85 153 127c-3 16 -8 46 -13 92c-4 43 -5 73 -5 89c0 117 16 172 69 257c34 54 64 82 89 82 c21 0 43 -30 69 -92s39 -115 41 -159v-15c0 -109 -21 -162 -67 -241c-13 -20 -63 -90 -98 -118c-13 -9 -25 -19 -37 -29l31 -181c8 1 18 2 28 2c58 0 102 -12 133 -35c59 -43 92 -104 98 -184c1 -7 1 -15 1 -22c0 -123 -87 -209 -181 -248c8 -57 17 -110 25 -162 c5 -31 6 -58 6 -80c0 -30 -5 -53 -14 -70c-35 -64 -88 -99 -158 -103c-5 0 -11 -1 -16 -1c-37 0 -72 10 -108 27c-50 24 -77 59 -80 105v11c0 29 7 55 20 76c18 28 45 42 79 44h6c49 0 93 -42 97 -87v-9c0 -51 -34 -86 -105 -106c17 -24 51 -36 102 -36c62 0 116 43 140 85 c9 16 13 41 13 74c0 20 -1 42 -5 67c-8 53 -18 106 -26 159zM461 939c-95 0 -135 -175 -135 -286c0 -24 2 -48 5 -71c50 39 92 82 127 128c40 53 60 100 60 140v8c-4 53 -22 81 -55 81h-2zM406 119l54 -326c73 25 110 78 110 161c0 7 0 15 -1 23c-7 95 -57 142 -151 142h-12 zM382 117c-72 -2 -128 -47 -128 -120v-7c2 -46 43 -99 75 -115c-3 -2 -7 -5 -10 -10c-70 33 -116 88 -123 172v11c0 68 44 126 88 159c23 17 49 29 78 36l-29 170c-21 -13 -52 -37 -92 -73c-50 -44 -86 -84 -109 -119c-45 -69 -67 -130 -67 -182v-13c5 -68 35 -127 93 -176 s125 -73 203 -73c25 0 50 3 75 9c-19 111 -36 221 -54 331z" />
      </symbol>
      <symbol id="E083-1tmns67" viewBox="0 0 1000 1000" overflow="inherit">
         <path transform="scale(1,-1)" d="M208 250c97 0 177 -52 177 -116c0 -69 -40 -111 -118 -125c56 -5 125 -44 125 -116c0 -31 -10 -57 -31 -78c-19 -21 -45 -38 -78 -49l-50 -11c-15 -3 -36 -7 -55 -7c-50 0 -86 16 -113 38c-16 10 -23 18 -34 34c-7 13 -11 25 -11 38c0 43 27 83 68 83l3 -2 c61 0 75 -42 75 -70c0 -19 -24 -42 -26 -57c7 -17 20 -25 37 -25c44 0 94 29 94 78c0 75 -34 125 -138 125v36c84 0 131 22 131 98c0 54 -37 88 -87 88c-26 0 -43 -7 -51 -22c15 -22 44 -16 44 -70c0 -37 -37 -62 -71 -62c-22 0 -69 15 -69 76c0 79 101 116 178 116z" />
      </symbol>
      <symbol id="E086-1tmns67" viewBox="0 0 1000 1000" overflow="inherit">
         <path transform="scale(1,-1)" d="M284 -91c0 37 -28 92 -67 92c-35 0 -65 -54 -65 -111c0 -52 22 -104 68 -104c47 0 64 68 64 123zM230 214c-36 0 -90 -33 -90 -184l2 -36c40 24 81 36 120 36c80 0 140 -48 140 -121c0 -99 -99 -159 -182 -159c-160 0 -200 173 -200 244c0 21 2 43 7 71l10 35 c26 85 73 115 98 126c41 19 74 24 103 24c93 0 142 -63 142 -105c0 -58 -52 -72 -73 -72c-33 0 -59 24 -65 35c-3 5 -6 14 -7 25l11 30c6 15 9 27 9 35c0 11 -9 16 -25 16z" />
      </symbol>
      <symbol id="E088-1tmns67" viewBox="0 0 1000 1000" overflow="inherit">
         <path transform="scale(1,-1)" d="M195 -214c76 0 88 58 90 68c0 34 -35 60 -57 73l-52 29c-21 10 -32 17 -34 20c-39 -33 -58 -54 -62 -92c5 -23 23 -98 115 -98zM301 135c0 61 -72 76 -113 76c-40 0 -77 -17 -77 -51c3 -21 15 -38 26 -50c17 -15 33 -26 48 -34l65 -28c34 27 51 56 51 87zM176 -250 c-57 0 -166 26 -166 132c0 47 30 86 89 116c-33 15 -79 60 -79 119c0 79 85 132 178 132h18c5 0 21 1 28 -1c25 0 126 -30 126 -110c0 -37 -23 -76 -69 -116c43 -25 83 -71 83 -119c0 -101 -118 -153 -208 -153z" />
      </symbol>
      <symbol id="E0A4-1tmns67" viewBox="0 0 1000 1000" overflow="inherit">
         <path transform="scale(1,-1)" d="M0 -39c0 68 73 172 200 172c66 0 114 -37 114 -95c0 -84 -106 -171 -218 -171c-64 0 -96 30 -96 94z" />
      </symbol>
   </defs>
   <style type="text/css">g.page-margin{font-family:Times;} g.ending, g.fing, g.reh, g.tempo{font-weight:bold;} g.dir, g.dynam, g.mNum{font-style:italic;} g.label{font-weight:normal;}</style>
   <svg class="definition-scale" color="black" viewBox="0 0 21000 29700">
      <g class="page-margin" transform="translate(500, 500)">
         <g id="m1ts4ggu" class="mdiv pageMilestone" />
         <g id="s6blobk" class="score pageMilestone" />
         <g id="sy03m4n" class="system">
            <g id="lj7fdg9" class="label">
               <text x="1105" y="1537" text-anchor="end" font-size="0px">
                  <tspan id="t1hnliwp" class="text">
                     <tspan font-size="405px" class="text">Piano</tspan>
                  </tspan>
               </text>
            </g>
            <g id="s1baot3z" class="section systemMilestone" />
            <g id="p1haxvk" class="pb" />
            <g id="m1v9m29o" class="measure">
               <g id="mu1wn5m" class="mNum">
                  <text x="1285" y="844" text-anchor="middle" font-size="0px" />
               </g>
               <g id="s1upb494" class="staff">
                  <path d="M1285 1087 L4439 1087" stroke="currentColor" stroke-width="13" />
                  <path d="M1285 1267 L4439 1267" stroke="currentColor" stroke-width="13" />
                  <path d="M1285 1447 L4439 1447" stroke="currentColor" stroke-width="13" />
                  <path d="M1285 1627 L4439 1627" stroke="currentColor" stroke-width="13" />
                  <path d="M1285 1807 L4439 1807" stroke="currentColor" stroke-width="13" />
                  <g id="cy24skv" class="clef">
                     <use xlink:href="#E050-1tmns67" x="1375" y="1627" height="720px" width="720px" />
                  </g>
                  <g id="k1k0fh9g" class="keySig">
                     <g id="k77obk9" class="keyAccid">
                        <use xlink:href="#E262-1tmns67" x="2020" y="1087" height="720px" width="720px" />
                     </g>
                  </g>
                  <g id="m9k78ab" class="meterSig">
                     <use xlink:href="#E086-1tmns67" x="2327" y="1267" height="720px" width="720px" />
                     <use xlink:href="#E088-1tmns67" x="2334" y="1627" height="720px" width="720px" />
                  </g>
                  <g id="lm96y7e" class="layer">
                     <g id="n1ar6mty" class="note">
                        <g class="notehead">
                           <use xlink:href="#E0A4-1tmns67" x="2883" y="1627" height="720px" width="720px" />
                        </g>
                        <g id="s1semq9v" class="stem">
                           <rect x="3091" y="997" height="602" width="18" />
                        </g>
                     </g>
                     <g id="n1a8i3ho" class="note">
                        <g class="notehead">
                           <use xlink:href="#E0A4-1tmns67" x="3817" y="1897" height="720px" width="720px" />
                        </g>
                        <g id="s1dbf14s" class="stem">
                           <rect x="4025" y="1267" height="602" width="18" />
                           <g id="f11c9e5f" class="flag">
                              <use xlink:href="#E240-1tmns67" x="4025" y="1267" height="720px" width="720px" />
                           </g>
                        </g>
                     </g>
                  </g>
               </g>
               <g id="b1nhzz0k" class="barLine">
                  <path d="M4426 1087 L4426 1807" stroke="currentColor" stroke-width="27" />
               </g>
            </g>
            <g id="mi4r88h" class="measure">
               <g id="s114omyw" class="staff">
                  <path d="M4439 1087 L8283 1087" stroke="currentColor" stroke-width="13" />
                  <path d="M4439 1267 L8283 1267" stroke="currentColor" stroke-width="13" />
                  <path d="M4439 1447 L8283 1447" stroke="currentColor" stroke-width="13" />
                  <path d="M4439 1627 L8283 1627" stroke="currentColor" stroke-width="13" />
                  <path d="M4439 1807 L8283 1807" stroke="currentColor" stroke-width="13" />
                  <g class="ledgerLines below">
                     <path d="M7004 1987 L7326 1987" stroke="currentColor" stroke-width="22" />
                     <path d="M7613 1987 L7935 1987" stroke="currentColor" stroke-width="22" />
                  </g>
                  <g id="liftorp" class="layer">
                     <g id="banes4e" class="beam">
                        <polygon points="4824,997 6060,1177 6060,1267 4824,1087" />
                        <g id="nquljml" class="note">
                           <g class="notehead">
                              <use xlink:href="#E0A4-1tmns67" x="4616" y="1627" height="720px" width="720px" />
                           </g>
                           <g id="sj0dtbu" class="stem">
                              <rect x="4824" y="1015" height="584" width="18" />
                           </g>
                        </g>
                        <g id="nqxka23" class="note">
                           <g class="notehead">
                              <use xlink:href="#E0A4-1tmns67" x="5225" y="1717" height="720px" width="720px" />
                           </g>
                           <g id="sctike" class="stem">
                              <rect x="5433" y="1105" height="584" width="18" />
                           </g>
                           <g id="a1x04f4p" class="accid" />
                        </g>
                        <g id="n1mcsm06" class="note">
                           <g class="notehead">
                              <use xlink:href="#E0A4-1tmns67" x="5834" y="1807" height="720px" width="720px" />
                           </g>
                           <g id="sp1xmjd" class="stem">
                              <rect x="6042" y="1195" height="584" width="18" />
                           </g>
                        </g>
                     </g>
                     <g id="b1wf6bdc" class="beam">
                        <polygon points="6651,1267 7887,1357 7887,1447 6651,1357" />
                        <g id="n7wmuph" class="note">
                           <g class="notehead">
                              <use xlink:href="#E0A4-1tmns67" x="6443" y="1897" height="720px" width="720px" />
                           </g>
                           <g id="s1yz11fm" class="stem">
                              <rect x="6651" y="1285" height="584" width="18" />
                           </g>
                        </g>
                        <g id="n3srtbi" class="note">
                           <g class="notehead">
                              <use xlink:href="#E0A4-1tmns67" x="7052" y="2077" height="720px" width="720px" />
                           </g>
                           <g id="s1oyog00" class="stem">
                              <rect x="7260" y="1330" height="719" width="18" />
                           </g>
                        </g>
                        <g id="nmial0r" class="note">
                           <g class="notehead">
                              <use xlink:href="#E0A4-1tmns67" x="7661" y="1987" height="720px" width="720px" />
                           </g>
                           <g id="slxuj3" class="stem">
                              <rect x="7869" y="1375" height="584" width="18" />
                           </g>
                        </g>
                     </g>
                  </g>
               </g>
               <g id="bww8sm4" class="barLine">
                  <path d="M8270 1087 L8270 1807" stroke="currentColor" stroke-width="27" />
               </g>
            </g>
            <g id="m1b879gr" class="measure">
               <g id="s6ypzxt" class="staff">
                  <path d="M8283 1087 L11491 1087" stroke="currentColor" stroke-width="13" />
                  <path d="M8283 1267 L11491 1267" stroke="currentColor" stroke-width="13" />
                  <path d="M8283 1447 L11491 1447" stroke="currentColor" stroke-width="13" />
                  <path d="M8283 1627 L11491 1627" stroke="currentColor" stroke-width="13" />
                  <path d="M8283 1807 L11491 1807" stroke="currentColor" stroke-width="13" />
                  <g id="l4ki3nx" class="layer">
                     <g id="nzdab4x" class="note">
                        <g class="notehead">
                           <use xlink:href="#E0A4-1tmns67" x="8460" y="1897" height="720px" width="720px" />
                        </g>
                        <g id="dkf0s3w" class="dots">
                           <ellipse cx="8776" cy="1897" rx="36" ry="36" />
                        </g>
                        <g id="s130t671" class="stem">
                           <rect x="8668" y="1267" height="602" width="18" />
                        </g>
                     </g>
                     <g id="bgk3tjq" class="beam">
                        <polygon points="9859,1267 11095,1087 11095,1177 9859,1357" />
                        <g id="n4rfb1g" class="note">
                           <g class="notehead">
                              <use xlink:href="#E0A4-1tmns67" x="9651" y="1897" height="720px" width="720px" />
                           </g>
                           <g id="s14o9iua" class="stem">
                              <rect x="9859" y="1285" height="584" width="18" />
                           </g>
                        </g>
                        <g id="n1x8ab18" class="note">
                           <g class="notehead">
                              <use xlink:href="#E0A4-1tmns67" x="10260" y="1807" height="720px" width="720px" />
                           </g>
                           <g id="s18muatd" class="stem">
                              <rect x="10468" y="1195" height="584" width="18" />
                           </g>
                        </g>
                        <g id="n138fu9q" class="note">
                           <g class="notehead">
                              <use xlink:href="#E0A4-1tmns67" x="10869" y="1717" height="720px" width="720px" />
                           </g>
                           <g id="scw5iq6" class="stem">
                              <rect x="11077" y="1105" height="584" width="18" />
                           </g>
                           <g id="awi9m8r" class="accid" />
                        </g>
                     </g>
                  </g>
               </g>
               <g id="bztyfvg" class="barLine">
                  <path d="M11478 1087 L11478 1807" stroke="currentColor" stroke-width="27" />
               </g>
            </g>
            <g id="my6uig9" class="measure">
               <g id="s18dlb37" class="staff">
                  <path d="M11491 1087 L15335 1087" stroke="currentColor" stroke-width="13" />
                  <path d="M11491 1267 L15335 1267" stroke="currentColor" stroke-width="13" />
                  <path d="M11491 1447 L15335 1447" stroke="currentColor" stroke-width="13" />
                  <path d="M11491 1627 L15335 1627" stroke="currentColor" stroke-width="13" />
                  <path d="M11491 1807 L15335 1807" stroke="currentColor" stroke-width="13" />
                  <g id="l1pdf5pl" class="layer">
                     <g id="b18436l9" class="beam">
                        <polygon points="11876,907 13112,907 13112,997 11876,997" />
                        <g id="n1pglf7m" class="note">
                           <g class="notehead">
                              <use xlink:href="#E0A4-1tmns67" x="11668" y="1807" height="720px" width="720px" />
                           </g>
                           <g id="s129j92u" class="stem">
                              <rect x="11876" y="925" height="854" width="18" />
                           </g>
                        </g>
                        <g id="n1vunxe3" class="note">
                           <g class="notehead">
                              <use xlink:href="#E0A4-1tmns67" x="12277" y="1537" height="720px" width="720px" />
                           </g>
                           <g id="s1jnr81v" class="stem">
                              <rect x="12485" y="925" height="584" width="18" />
                           </g>
                        </g>
                        <g id="n23xxsl" class="note">
                           <g class="notehead">
                              <use xlink:href="#E0A4-1tmns67" x="12886" y="1627" height="720px" width="720px" />
                           </g>
                           <g id="s9899ep" class="stem">
                              <rect x="13094" y="925" height="674" width="18" />
                           </g>
                        </g>
                     </g>
                     <g id="b4g4fi2" class="beam">
                        <polygon points="13703,1087 14939,1087 14939,1177 13703,1177" />
                        <g id="n12kzzij" class="note">
                           <g class="notehead">
                              <use xlink:href="#E0A4-1tmns67" x="13495" y="1717" height="720px" width="720px" />
                           </g>
                           <g id="s121yxrs" class="stem">
                              <rect x="13703" y="1105" height="584" width="18" />
                           </g>
                           <g id="atoj4r9" class="accid" />
                        </g>
                        <g id="n1we32il" class="note">
                           <g class="notehead">
                              <use xlink:href="#E0A4-1tmns67" x="14104" y="1807" height="720px" width="720px" />
                           </g>
                           <g id="scnkexn" class="stem">
                              <rect x="14312" y="1105" height="674" width="18" />
                           </g>
                        </g>
                        <g id="n6gj5us" class="note">
                           <g class="notehead">
                              <use xlink:href="#E0A4-1tmns67" x="14713" y="1717" height="720px" width="720px" />
                           </g>
                           <g id="s1hzp2q6" class="stem">
                              <rect x="14921" y="1105" height="584" width="18" />
                           </g>
                           <g id="a1msek3v" class="accid" />
                        </g>
                     </g>
                  </g>
               </g>
               <g id="b1baeje8" class="barLine">
                  <path d="M15322 1087 L15322 1807" stroke="currentColor" stroke-width="27" />
               </g>
            </g>
            <g id="m1ivyg3k" class="measure">
               <g id="s1h4x63y" class="staff">
                  <path d="M15335 1087 L17532 1087" stroke="currentColor" stroke-width="13" />
                  <path d="M15335 1267 L17532 1267" stroke="currentColor" stroke-width="13" />
                  <path d="M15335 1447 L17532 1447" stroke="currentColor" stroke-width="13" />
                  <path d="M15335 1627 L17532 1627" stroke="currentColor" stroke-width="13" />
                  <path d="M15335 1807 L17532 1807" stroke="currentColor" stroke-width="13" />
                  <g id="m1n6owjx" class="meterSig">
                     <use xlink:href="#E083-1tmns67" x="15415" y="1267" height="720px" width="720px" />
                     <use xlink:href="#E088-1tmns67" x="15418" y="1627" height="720px" width="720px" />
                  </g>
                  <g id="lomwo2a" class="layer">
                     <g id="n81f0ge" class="note">
                        <g class="notehead">
                           <use xlink:href="#E0A4-1tmns67" x="15963" y="1627" height="720px" width="720px" />
                        </g>
                        <g id="d6cz9vg" class="dots">
                           <ellipse cx="16279" cy="1537" rx="36" ry="36" />
                        </g>
                        <g id="slzws5h" class="stem">
                           <rect x="16171" y="997" height="602" width="18" />
                        </g>
                     </g>
                  </g>
               </g>
               <g id="b1ow236k" class="barLine">
                  <path d="M17154 1087 L17154 1807" stroke="currentColor" stroke-width="27" />
                  <path d="M17284 1087 L17284 1807" stroke="currentColor" stroke-width="90" />
                  <path d="M17415 1087 L17415 1807" stroke="currentColor" stroke-width="27" />
                  <use xlink:href="#E044-1tmns67" x="17460" y="1357" height="720px" width="720px" />
                  <use xlink:href="#E044-1tmns67" x="17460" y="1537" height="720px" width="720px" />
                  <use xlink:href="#E044-1tmns67" x="17037" y="1357" height="720px" width="720px" />
                  <use xlink:href="#E044-1tmns67" x="17037" y="1537" height="720px" width="720px" />
               </g>
            </g>
            <g id="muugoo4" class="measure">
               <g id="s12vf0c0" class="staff">
                  <path d="M17532 1087 L20004 1087" stroke="currentColor" stroke-width="13" />
                  <path d="M17532 1267 L20004 1267" stroke="currentColor" stroke-width="13" />
                  <path d="M17532 1447 L20004 1447" stroke="currentColor" stroke-width="13" />
                  <path d="M17532 1627 L20004 1627" stroke="currentColor" stroke-width="13" />
                  <path d="M17532 1807 L20004 1807" stroke="currentColor" stroke-width="13" />
                  <g id="l1ps8uk7" class="layer">
                     <g id="bxry6fh" class="beam">
                        <polygon points="17709,2032 18945,2032 18945,1942 17709,1942" />
                        <g id="n175433o" class="note">
                           <g class="notehead">
                              <use xlink:href="#E0A4-1tmns67" x="17709" y="1447" height="720px" width="720px" />
                           </g>
                           <g id="s7woz4t" class="stem">
                              <rect x="17709" y="1475" height="539" width="18" />
                           </g>
                        </g>
                        <g id="nqxp8ue" class="note">
                           <g class="notehead">
                              <use xlink:href="#E0A4-1tmns67" x="18318" y="1357" height="720px" width="720px" />
                           </g>
                           <g id="s19u5t2p" class="stem">
                              <rect x="18318" y="1385" height="629" width="18" />
                           </g>
                        </g>
                        <g id="nmwqmfk" class="note">
                           <g class="notehead">
                              <use xlink:href="#E0A4-1tmns67" x="18927" y="1447" height="720px" width="720px" />
                           </g>
                           <g id="s1kjfn6y" class="stem">
                              <rect x="18927" y="1475" height="539" width="18" />
                           </g>
                        </g>
                     </g>
                  </g>
                  <g id="mhyprdl" class="meterSig">
                     <use xlink:href="#E086-1tmns67" x="19625" y="1267" height="720px" width="720px" />
                     <use xlink:href="#E088-1tmns67" x="19632" y="1627" height="720px" width="720px" />
                  </g>
               </g>
               <g id="b1bvfqyz" class="barLine">
                  <path d="M19536 1087 L19536 1807" stroke="currentColor" stroke-width="27" />
               </g>
            </g>
         </g>
         <g id="sm0xhqe" class="system">
            <g id="l9bpofw" class="labelAbbr">
               <text x="914" y="3720" text-anchor="end" font-size="0px">
                  <tspan id="tzm3cmg" class="text">
                     <tspan font-size="405px" class="text">Pno.</tspan>
                  </tspan>
               </text>
            </g>
            <g id="m1qe1mqe" class="measure">
               <g id="m12az6f3" class="mNum autogenerated">
                  <text x="1094" y="3027" text-anchor="middle" font-size="0px">
                     <tspan id="t1mprldt" class="text">
                        <tspan font-size="324px" class="text">6</tspan>
                     </tspan>
                  </text>
               </g>
               <g id="s1b8gr0v" class="staff">
                  <path d="M1094 3270 L6440 3270" stroke="currentColor" stroke-width="13" />
                  <path d="M1094 3450 L6440 3450" stroke="currentColor" stroke-width="13" />
                  <path d="M1094 3630 L6440 3630" stroke="currentColor" stroke-width="13" />
                  <path d="M1094 3810 L6440 3810" stroke="currentColor" stroke-width="13" />
                  <path d="M1094 3990 L6440 3990" stroke="currentColor" stroke-width="13" />
                  <g id="c1o3mckn" class="clef">
                     <use xlink:href="#E050-1tmns67" x="1184" y="3810" height="720px" width="720px" />
                  </g>
                  <g id="kzkgmr1" class="keySig">
                     <g id="kyc7r4o" class="keyAccid">
                        <use xlink:href="#E262-1tmns67" x="1829" y="3270" height="720px" width="720px" />
                     </g>
                  </g>
                  <g id="mujoubu" class="meterSig">
                     <use xlink:href="#E086-1tmns67" x="2136" y="3450" height="720px" width="720px" />
                     <use xlink:href="#E088-1tmns67" x="2143" y="3810" height="720px" width="720px" />
                  </g>
                  <g id="ln2ow48" class="layer">
                     <g id="bbd6wod" class="beam">
                        <polygon points="2903,3045 4165,3225 4165,3315 2903,3135" />
                        <g id="n1vqkyt4" class="note">
                           <g class="notehead">
                              <use xlink:href="#E0A4-1tmns67" x="2695" y="3630" height="720px" width="720px" />
                           </g>
                           <g id="s1szpwi8" class="stem">
                              <rect x="2903" y="3063" height="539" width="18" />
                           </g>
                        </g>
                        <g id="nsr1oy4" class="note">
                           <g class="notehead">
                              <use xlink:href="#E0A4-1tmns67" x="3317" y="3720" height="720px" width="720px" />
                           </g>
                           <g id="s1ste8e8" class="stem">
                              <rect x="3525" y="3153" height="539" width="18" />
                           </g>
                        </g>
                        <g id="nbsdtll" class="note">
                           <g class="notehead">
                              <use xlink:href="#E0A4-1tmns67" x="3939" y="3810" height="720px" width="720px" />
                           </g>
                           <g id="s52hc36" class="stem">
                              <rect x="4147" y="3243" height="539" width="18" />
                           </g>
                        </g>
                     </g>
                     <g id="bwzb9og" class="beam">
                        <polygon points="4769,3270 6031,3090 6031,3180 4769,3360" />
                        <g id="n14fz2z1" class="note">
                           <g class="notehead">
                              <use xlink:href="#E0A4-1tmns67" x="4561" y="3900" height="720px" width="720px" />
                           </g>
                           <g id="stm0k70" class="stem">
                              <rect x="4769" y="3288" height="584" width="18" />
                           </g>
                           <g id="agna1ai" class="accid" />
                        </g>
                        <g id="nxqylpd" class="note">
                           <g class="notehead">
                              <use xlink:href="#E0A4-1tmns67" x="5183" y="3810" height="720px" width="720px" />
                           </g>
                           <g id="s64p5ru" class="stem">
                              <rect x="5391" y="3198" height="584" width="18" />
                           </g>
                        </g>
                        <g id="nmy24y2" class="note">
                           <g class="notehead">
                              <use xlink:href="#E0A4-1tmns67" x="5805" y="3720" height="720px" width="720px" />
                           </g>
                           <g id="s14l8o2t" class="stem">
                              <rect x="6013" y="3108" height="584" width="18" />
                           </g>
                        </g>
                     </g>
                  </g>
               </g>
               <g id="batoxin" class="barLine">
                  <path d="M6427 3270 L6427 3990" stroke="currentColor" stroke-width="27" />
               </g>
            </g>
            <g id="m1gem6ww" class="measure">
               <g id="s1xs89nx" class="staff">
                  <path d="M6440 3270 L9993 3270" stroke="currentColor" stroke-width="13" />
                  <path d="M6440 3450 L9993 3450" stroke="currentColor" stroke-width="13" />
                  <path d="M6440 3630 L9993 3630" stroke="currentColor" stroke-width="13" />
                  <path d="M6440 3810 L9993 3810" stroke="currentColor" stroke-width="13" />
                  <path d="M6440 3990 L9993 3990" stroke="currentColor" stroke-width="13" />
                  <g id="l4pacll" class="layer">
                     <g id="nftt1sa" class="note">
                        <g class="notehead">
                           <use xlink:href="#E0A4-1tmns67" x="6530" y="3720" height="540px" width="540px" />
                        </g>
                        <g id="sug421k" class="stem">
                           <rect x="6681" y="3248" height="451" width="18" />
                           <g id="fqbxkub" class="flag">
                              <use xlink:href="#E240-1tmns67" x="6681" y="3248" height="540px" width="540px" />
                           </g>
                        </g>
                     </g>
                     <g id="nafz6e3" class="note">
                        <g class="notehead">
                           <use xlink:href="#E0A4-1tmns67" x="6897" y="3810" height="720px" width="720px" />
                        </g>
                        <g id="dyaxqhw" class="dots">
                           <ellipse cx="7213" cy="3720" rx="36" ry="36" />
                        </g>
                        <g id="sljraeu" class="stem">
                           <rect x="7105" y="3180" height="602" width="18" />
                        </g>
                     </g>
                     <g id="b13u4k9f" class="beam">
                        <polygon points="8322,3225 9584,3225 9584,3315 8322,3315" />
                        <g id="nc131y3" class="note">
                           <g class="notehead">
                              <use xlink:href="#E0A4-1tmns67" x="8114" y="3810" height="720px" width="720px" />
                           </g>
                           <g id="sus2pb1" class="stem">
                              <rect x="8322" y="3243" height="539" width="18" />
                           </g>
                        </g>
                        <g id="n1iuilhs" class="note">
                           <g class="notehead">
                              <use xlink:href="#E0A4-1tmns67" x="8736" y="3900" height="720px" width="720px" />
                           </g>
                           <g id="s1tefstl" class="stem">
                              <rect x="8944" y="3243" height="629" width="18" />
                           </g>
                           <g id="a1302qwo" class="accid" />
                        </g>
                        <g id="n16uqlc0" class="note">
                           <g class="notehead">
                              <use xlink:href="#E0A4-1tmns67" x="9358" y="3810" height="720px" width="720px" />
                           </g>
                           <g id="s1l6w3vj" class="stem">
                              <rect x="9566" y="3243" height="539" width="18" />
                           </g>
                        </g>
                     </g>
                  </g>
               </g>
               <g id="b1kk2mqu" class="barLine">
                  <path d="M9980 3270 L9980 3990" stroke="currentColor" stroke-width="27" />
               </g>
            </g>
            <g id="se03115" class="sb" />
            <g id="m1bpr8hh" class="measure">
               <g id="sf6ct8x" class="staff">
                  <path d="M9993 3270 L13918 3270" stroke="currentColor" stroke-width="13" />
                  <path d="M9993 3450 L13918 3450" stroke="currentColor" stroke-width="13" />
                  <path d="M9993 3630 L13918 3630" stroke="currentColor" stroke-width="13" />
                  <path d="M9993 3810 L13918 3810" stroke="currentColor" stroke-width="13" />
                  <path d="M9993 3990 L13918 3990" stroke="currentColor" stroke-width="13" />
                  <g id="lqylmyk" class="layer">
                     <g id="blokrr2" class="beam">
                        <polygon points="10381,3090 11643,3090 11643,3180 10381,3180" />
                        <g id="nej8rg6" class="note">
                           <g class="notehead">
                              <use xlink:href="#E0A4-1tmns67" x="10173" y="3990" height="720px" width="720px" />
                           </g>
                           <g id="s1llhvcv" class="stem">
                              <rect x="10381" y="3108" height="854" width="18" />
                           </g>
                        </g>
                        <g id="n1ynlhed" class="note">
                           <g class="notehead">
                              <use xlink:href="#E0A4-1tmns67" x="10795" y="3720" height="720px" width="720px" />
                           </g>
                           <g id="shwh4bz" class="stem">
                              <rect x="11003" y="3108" height="584" width="18" />
                           </g>
                        </g>
                        <g id="n1lc8pvn" class="note">
                           <g class="notehead">
                              <use xlink:href="#E0A4-1tmns67" x="11417" y="3810" height="720px" width="720px" />
                           </g>
                           <g id="skk0s6y" class="stem">
                              <rect x="11625" y="3108" height="674" width="18" />
                           </g>
                        </g>
                     </g>
                     <g id="b1m3h7j" class="beam">
                        <polygon points="12247,3270 13509,3270 13509,3360 12247,3360" />
                        <g id="n647vj6" class="note">
                           <g class="notehead">
                              <use xlink:href="#E0A4-1tmns67" x="12039" y="3900" height="720px" width="720px" />
                           </g>
                           <g id="skgvy2o" class="stem">
                              <rect x="12247" y="3288" height="584" width="18" />
                           </g>
                           <g id="a1m1jgvy" class="accid" />
                        </g>
                        <g id="ne99jnr" class="note">
                           <g class="notehead">
                              <use xlink:href="#E0A4-1tmns67" x="12661" y="3990" height="720px" width="720px" />
                           </g>
                           <g id="sdgw4hm" class="stem">
                              <rect x="12869" y="3288" height="674" width="18" />
                           </g>
                        </g>
                        <g id="n1wj1jxy" class="note">
                           <g class="notehead">
                              <use xlink:href="#E0A4-1tmns67" x="13283" y="3900" height="720px" width="720px" />
                           </g>
                           <g id="s1f83qko" class="stem">
                              <rect x="13491" y="3288" height="584" width="18" />
                           </g>
                           <g id="a1cbndz8" class="accid" />
                        </g>
                     </g>
                  </g>
               </g>
               <g id="m1hffcuc" class="mordent">
                  <use xlink:href="#E56D-1tmns67" x="11941" y="3161" height="720px" width="720px" />
               </g>
               <g id="b1qcglaw" class="barLine">
                  <path d="M13905 3270 L13905 3990" stroke="currentColor" stroke-width="27" />
               </g>
            </g>
            <g id="mifn2fy" class="measure">
               <g id="s19d771i" class="staff">
                  <path d="M13918 3270 L15941 3270" stroke="currentColor" stroke-width="13" />
                  <path d="M13918 3450 L15941 3450" stroke="currentColor" stroke-width="13" />
                  <path d="M13918 3630 L15941 3630" stroke="currentColor" stroke-width="13" />
                  <path d="M13918 3810 L15941 3810" stroke="currentColor" stroke-width="13" />
                  <path d="M13918 3990 L15941 3990" stroke="currentColor" stroke-width="13" />
                  <g id="m1n9a9sb" class="meterSig">
                     <use xlink:href="#E083-1tmns67" x="13998" y="3450" height="720px" width="720px" />
                     <use xlink:href="#E088-1tmns67" x="14001" y="3810" height="720px" width="720px" />
                  </g>
                  <g id="l1q0rojm" class="layer">
                     <g id="nnfm66m" class="note">
                        <g class="notehead">
                           <use xlink:href="#E0A4-1tmns67" x="14549" y="3810" height="720px" width="720px" />
                        </g>
                        <g id="d3qjbua" class="dots">
                           <ellipse cx="14865" cy="3720" rx="36" ry="36" />
                        </g>
                        <g id="s12xac9l" class="stem">
                           <rect x="14757" y="3180" height="602" width="18" />
                        </g>
                     </g>
                  </g>
               </g>
               <g id="b5j5ev9" class="barLine">
                  <path d="M15766 3270 L15766 3990" stroke="currentColor" stroke-width="27" />
                  <path d="M15896 3270 L15896 3990" stroke="currentColor" stroke-width="90" />
               </g>
            </g>
            <g id="s3rii01" class="systemMilestoneEnd s1baot3z" />
         </g>
         <g id="p50dc2k" class="pageMilestoneEnd s6blobk" />
         <g id="p1gw7hme" class="pageMilestoneEnd m1ts4ggu" />
         <g id="p150oi2l" class="pgHead">
            <text x="0" y="0" font-size="0px">
               <tspan id="r6h80lx" class="rend" x="10000" y="279" text-anchor="middle">
                  <tspan id="t1y0m373" class="text">
                     <tspan font-size="405px" class="text">Air n 85</tspan>
                  </tspan>
               </tspan>
            </text>
         </g>
         <g id="p15e9vcq" class="pgFoot autogenerated">
            <g id="f4r2z89" class="fig">
               <g id="s1kcctj8" class="svg" transform="translate(7750, 28099) scale(10, 10)">
                  <g>
                     <path fill="#00000" d="M 17.11278,49.26451 V 10.367554 h 12.696511 c 3.288815,7.336676 6.71267,14.610456 10.127281,21.888976 3.419998,-7.484684 6.255515,-14.204887 9.58887,-21.909915 2.436207,0.103726 4.316952,0.08453 6.484294,-0.05808 V 49.264423 H 50.274275 C 50.145222,38.35639 50.016136,27.448368 49.887066,16.540329 45.003488,27.315459 39.967448,38.433564 35.083854,49.208695 34.678996,49.343717 34.426583,49.135619 34.021726,49.270644 29.46588,39.330716 24.910049,29.390805 20.354201,19.450876 20.224341,29.388756 20.09461,39.326619 19.964815,49.264497 H 17.11278 Z M 36.754144,39.324695 C 32.721221,30.512695 28.6883,21.700679 24.655394,12.888662 22.530527,12.750737 22.656775,12.71031 20.714356,12.813974 v 0.966497 c 4.612938,9.99784 9.609439,20.748709 13.87298,30.081745 0.722248,-1.512523 1.444528,-3.025014 2.166808,-4.537521 z m 25.738417,9.939815 c 0,-12.965651 0,-25.931305 0,-38.896956 10.084388,0 20.168791,0 30.253178,0 0,0.960416 0,1.920849 0,2.881265 -6.482825,0 -12.965652,0 -19.448478,0 0,4.802097 0,9.604178 0,14.406277 5.52241,0 11.044819,0 16.567229,0 0,0.960415 0,1.920832 0,2.881248 -5.52241,0 -11.044819,0 -16.567229,0 0,5.282306 0,10.564611 0,15.846917 6.963035,0 13.926068,0 20.889103,0 0,0.960416 0,1.920832 0,2.881249 -10.564597,0 -21.129207,0 -31.693803,0 z m 4.321874,-2.160937 c 0,-11.765131 0,-23.530263 0,-35.295394 -0.720312,0 -1.440625,0 -2.160937,0 0,11.765131 0,23.530263 0,35.295394 0.720312,0 1.440625,0 2.160937,0 z m 32.41413,2.160937 c 0,-12.965651 0,-25.931305 0,-38.896956 2.401045,0 4.802095,0 7.203135,0 0,12.965651 0,25.931305 0,38.896956 -2.40104,0 -4.80209,0 -7.203135,0 z m 2.881265,-2.160937 c 0,-11.765131 0,-23.530263 0,-35.295394 -0.72031,0 -1.44064,0 -2.160953,0 0,11.765131 0,23.530263 0,35.295394 0.720313,0 1.440643,0 2.160953,0 z" />
                     <path fill="#00000" d="m 346.3,6.7 c -3.1,0.5 -4.9,4.4 -2.7,6.8 1.2,1.4 2.7,2.4 4.1,3.5 -2.4,5.3 -7.7,8.3 -11.9,12.1 -3.7,2.8 -7,6.2 -9.7,9.9 -2.2,-0.8 -0.3,-6.8 -0.6,-9.5 0.1,-3.1 0.7,-6.4 2.9,-8.7 1.3,-1.9 3,-3.5 4.5,-5.2 1.2,-3.4 -3.2,-4.9 -5.8,-4.6 -7.3,-0.5 -14.6,2 -20,6.8 -5,4.6 -10,10.1 -11.5,17 -0.9,3.5 -0.2,7.5 2.8,9.9 2.5,2.8 7.4,2.9 9.8,-0.2 1.7,-2.3 3.2,-4.8 3.8,-7.6 -0.1,-2.6 -4.4,-2.3 -4.3,0.2 1.2,2.4 -0.9,4.7 -2.7,6.2 -1.7,0.9 -4.7,0.7 -4.8,-1.7 -1,-5.8 2.1,-11.3 5.2,-16.1 4,-5.8 9.8,-11.2 17.2,-11.8 1.6,0 8.1,-1.2 6.8,1.4 -2.8,2.8 -5.6,6.1 -6,10.3 -1.6,7.7 0.1,15.7 -2.3,23.2 -1.1,3.9 2,2.6 2.5,0.2 3.3,-7.4 8.9,-13.4 15.1,-18.5 4.2,-3.9 9.5,-7.1 11.9,-12.6 1.3,-3.6 1.2,-9 -2.7,-10.9 -0.6,-0.2 -1.2,-0.3 -1.8,-0.3 z m 66,14.5 c -2,0.8 -1.8,4.9 0.8,4.4 3.4,0.4 2.9,-6.2 -0.8,-4.4 z m 0.6,7.3 c -1.3,0.5 -7.6,0.5 -5.4,2.2 4,-0.3 0.7,4.5 0.6,6.7 -0.4,2.9 -2.4,5.9 -1.2,8.8 2.7,1.7 5.6,-0.8 6.8,-3.2 1.6,-1.4 -0.5,-3 -1.2,-0.9 -0.4,0.8 -2.4,3.5 -2.6,1.8 1.1,-5 2.7,-9.9 3.9,-14.9 l -0.1,-0.5 h -0.9 z m -65.1,0.2 c -6.5,1.6 -10.5,9.5 -8.2,15.7 2.1,3.4 7.4,2.9 10.1,0.4 2,-0.2 3.6,-5.3 1,-3.4 -1.4,2 -4,4.2 -6.5,2.8 -2.2,-1.9 -1.9,-5.7 1.7,-5.3 3.1,-0.9 6.9,-2.1 8.1,-5.5 0.9,-2.7 -1.6,-5.2 -4.3,-4.8 h -1.1 -0.7 z m 13.6,0 c -2.2,0 -8.5,1.8 -2.9,2.3 0.9,1.9 -1,4.9 -1.1,7.2 -0.5,2.9 -1.4,5.7 -1.7,8.7 3.7,0.7 3.8,-2.6 4.4,-5.3 0.9,-3.3 1.6,-7 4.1,-9.5 2.4,1.6 6.8,-0.7 3.7,-3.4 -2.9,-0.5 -4.8,2.4 -6.2,4.3 0,-1.2 2.4,-5 -0.2,-4.3 z m 15.8,0 c -6.4,1.3 -9.6,9.1 -7.7,14.9 1.9,4 7.7,3.9 11,1.7 4.1,-3 6,-8.9 4.4,-13.7 -1.3,-3 -4.8,-3.2 -7.6,-3 z m 17,0 c -2.3,0 -8.8,1.9 -3,2.4 0.4,2.5 -1,5.7 -1.4,8.4 -0.7,2.4 -1.8,7.5 2.1,7.2 3.8,-0.1 6.5,-3.5 8.5,-6.3 2,-3.2 4.5,-7 3.3,-10.9 -3.7,-3 -3.6,2.6 -3.1,5.1 -0.7,3.8 -2.7,7.9 -6.2,9.8 -3.6,0.6 -1,-4.3 -0.8,-6.1 0.6,-3.2 1.6,-6.3 1.9,-9.5 -0.4,0 -0.8,0 -1.1,0 z m 30.6,0 c -6.3,1.2 -9.5,8.9 -7.8,14.7 1.5,4 7.2,4.2 10.5,2.4 4.6,-2.8 6.6,-9.3 4.8,-14.3 -1.4,-2.8 -4.8,-3 -7.5,-2.8 z m -75.4,1.7 c 2.1,1.5 0.2,4.7 -1.6,5.7 -1.1,0.4 -5.5,3.4 -4.6,0.7 0.8,-2.7 2.2,-6.2 5.3,-6.6 l 0.9,0.1 z m 30.8,0 c 2.6,1.5 1.3,5.2 0.8,7.6 -0.8,2.7 -1.9,5.9 -4.7,7.1 -5.1,0.8 -4,-5.8 -2.8,-8.8 1,-2.8 3,-6.8 6.7,-5.8 z m 47.1,-0.1 c 2.9,0.7 2,4.7 1.5,6.8 -0.7,3 -1.8,6.7 -5,8 -4.7,0.8 -4,-5.1 -3,-7.9 0.9,-3 2.7,-7.3 6.5,-6.8 z m -88.1,5.9 c -0.3,1.3 0.9,-0.6 0,0 z m -1.1,2.4 c -0.2,0.5 0.5,-0.1 0,0 z m -1.3,4.5 c -0.3,1.3 0.8,-0.2 0,0 z" />
                     <text y="41" x="201" fill="#00000" style="font-style:italic;font-weight:normal;font-size:30px;line-height:125%;font-family:Times;text-anchor:middle" xml:space="preserve">engraved with</text>
                  </g>
               </g>
            </g>
         </g>
      </g>
   </svg>
</svg>
