<?xml version="1.0" encoding="UTF-8" standalone="no"?>
<svg width="2100px" height="2970px" version="1.1" xmlns="http://www.w3.org/2000/svg" xmlns:xlink="http://www.w3.org/1999/xlink" xmlns:mei="http://www.music-encoding.org/ns/mei" overflow="visible">
   <desc>Engraved by Verovio 3.13.1</desc>
   <defs>
      <symbol id="E260-1lket3d" viewBox="0 0 1000 1000" overflow="inherit">
         <path transform="scale(1,-1)" d="M20 110c32 16 54 27 93 27c26 0 35 -3 54 -13c13 -7 24 -20 27 -38l4 -25c0 -28 -16 -57 -45 -89c-23 -25 -39 -44 -65 -68l-88 -79v644h20v-359zM90 106c-32 0 -48 -10 -70 -29v-194c31 31 54 59 71 84c21 32 32 59 32 84c0 9 1 16 1 20c0 14 -3 21 -11 30l-8 3z" />
      </symbol>
      <symbol id="E044-1lket3d" viewBox="0 0 1000 1000" overflow="inherit">
         <path transform="scale(1,-1)" d="M0 0c0 28 22 50 50 50s50 -22 50 -50s-22 -50 -50 -50s-50 22 -50 50z" />
      </symbol>
      <symbol id="E050-1lket3d" viewBox="0 0 1000 1000" overflow="inherit">
         <path transform="scale(1,-1)" d="M441 -245c-23 -4 -48 -6 -76 -6c-59 0 -102 7 -130 20c-88 42 -150 93 -187 154c-26 44 -43 103 -48 176c0 6 -1 13 -1 19c0 54 15 111 45 170c29 57 65 106 110 148s96 85 153 127c-3 16 -8 46 -13 92c-4 43 -5 73 -5 89c0 117 16 172 69 257c34 54 64 82 89 82 c21 0 43 -30 69 -92s39 -115 41 -159v-15c0 -109 -21 -162 -67 -241c-13 -20 -63 -90 -98 -118c-13 -9 -25 -19 -37 -29l31 -181c8 1 18 2 28 2c58 0 102 -12 133 -35c59 -43 92 -104 98 -184c1 -7 1 -15 1 -22c0 -123 -87 -209 -181 -248c8 -57 17 -110 25 -162 c5 -31 6 -58 6 -80c0 -30 -5 -53 -14 -70c-35 -64 -88 -99 -158 -103c-5 0 -11 -1 -16 -1c-37 0 -72 10 -108 27c-50 24 -77 59 -80 105v11c0 29 7 55 20 76c18 28 45 42 79 44h6c49 0 93 -42 97 -87v-9c0 -51 -34 -86 -105 -106c17 -24 51 -36 102 -36c62 0 116 43 140 85 c9 16 13 41 13 74c0 20 -1 42 -5 67c-8 53 -18 106 -26 159zM461 939c-95 0 -135 -175 -135 -286c0 -24 2 -48 5 -71c50 39 92 82 127 128c40 53 60 100 60 140v8c-4 53 -22 81 -55 81h-2zM406 119l54 -326c73 25 110 78 110 161c0 7 0 15 -1 23c-7 95 -57 142 -151 142h-12 zM382 117c-72 -2 -128 -47 -128 -120v-7c2 -46 43 -99 75 -115c-3 -2 -7 -5 -10 -10c-70 33 -116 88 -123 172v11c0 68 44 126 88 159c23 17 49 29 78 36l-29 170c-21 -13 -52 -37 -92 -73c-50 -44 -86 -84 -109 -119c-45 -69 -67 -130 -67 -182v-13c5 -68 35 -127 93 -176 s125 -73 203 -73c25 0 50 3 75 9c-19 111 -36 221 -54 331z" />
      </symbol>
      <symbol id="E081-1lket3d" viewBox="0 0 1000 1000" overflow="inherit">
         <path transform="scale(1,-1)" d="M68 -250v36c23 0 40 6 49 18c8 14 12 33 12 57v250l-82 -129l-27 13l107 255h128v-394c0 -24 5 -42 14 -53s25 -17 47 -17v-36h-248z" />
      </symbol>
      <symbol id="E082-1lket3d" viewBox="0 0 1000 1000" overflow="inherit">
         <path transform="scale(1,-1)" d="M124 -185c-18 0 -55 -14 -65 -65h-36l-3 30c0 25 6 45 18 63c11 19 22 30 39 43l121 82l37 29c15 11 27 29 38 54c12 24 18 47 18 70c0 40 -19 88 -94 88c-25 0 -32 0 -50 -8c-14 -5 -23 -12 -26 -22c3 -9 7 -15 10 -18l24 -17c12 -7 17 -11 27 -21c5 -7 7 -16 7 -27 c0 -12 0 -57 -79 -74c-30 0 -76 26 -76 94c0 66 81 135 197 135c72 0 181 -32 181 -150c0 -53 -32 -95 -113 -133l-91 -41c-26 -11 -45 -23 -57 -37l49 7c84 0 115 -41 148 -41c20 0 33 20 39 61h35c0 -152 -68 -168 -114 -168c-17 0 -65 0 -79 7h10l-28 17 c-49 37 -69 40 -87 42z" />
      </symbol>
      <symbol id="E084-1lket3d" viewBox="0 0 1000 1000" overflow="inherit">
         <path transform="scale(1,-1)" d="M20 -78c84 97 114 180 134 329h170c-13 -32 -82 -132 -99 -151l-84 -97c-33 -36 -59 -63 -80 -81h162v102l127 123v-225h57v-39h-57v-34c0 -43 19 -65 57 -65v-34h-244v36c48 0 60 26 60 70v27h-203v39z" />
      </symbol>
      <symbol id="E0A4-1lket3d" viewBox="0 0 1000 1000" overflow="inherit">
         <path transform="scale(1,-1)" d="M0 -39c0 68 73 172 200 172c66 0 114 -37 114 -95c0 -84 -106 -171 -218 -171c-64 0 -96 30 -96 94z" />
      </symbol>
      <symbol id="E240-1lket3d" viewBox="0 0 1000 1000" overflow="inherit">
         <path transform="scale(1,-1)" d="M179 -646c15 29 29 55 46 102c18 49 30 108 30 138c0 105 -80 173 -168 200c-18 5 -47 9 -87 16v190h22c8 0 33 -61 71 -95c4 -3 -2 3 61 -56c62 -58 122 -137 122 -241c0 -38 -13 -106 -35 -163c-20 -51 -43 -99 -66 -132c-6 -5 -10 -7 -13 -7s-5 2 -5 5l4 10 c1 3 14 25 18 33z" />
      </symbol>
   </defs>
   <style type="text/css">g.page-margin{font-family:Times;} g.ending, g.fing, g.reh, g.tempo{font-weight:bold;} g.dir, g.dynam, g.mNum{font-style:italic;} g.label{font-weight:normal;}</style>
   <svg class="definition-scale" color="black" viewBox="0 0 21000 29700">
      <g class="page-margin" transform="translate(500, 500)">
         <g id="m1j71cxe" class="mdiv pageMilestone" />
         <g id="s1re2e3m" class="score pageMilestone" />
         <g id="s1kuee7b" class="system">
            <g id="lihpqgl" class="label">
               <text x="1105" y="1535" text-anchor="end" font-size="0px">
                  <tspan id="t19782gb" class="text">
                     <tspan font-size="405px" class="text">Piano</tspan>
                  </tspan>
               </text>
            </g>
            <g id="sx5r1p4" class="section systemMilestone" />
            <g id="pp4gjik" class="pb" />
            <g id="m1p95kmh" class="measure">
               <g id="m1w6exh4" class="mNum">
                  <text x="1285" y="842" text-anchor="middle" font-size="0px" />
               </g>
               <g id="sf2g8mb" class="staff">
                  <path d="M1285 1085 L4293 1085" stroke="currentColor" stroke-width="13" />
                  <path d="M1285 1265 L4293 1265" stroke="currentColor" stroke-width="13" />
                  <path d="M1285 1445 L4293 1445" stroke="currentColor" stroke-width="13" />
                  <path d="M1285 1625 L4293 1625" stroke="currentColor" stroke-width="13" />
                  <path d="M1285 1805 L4293 1805" stroke="currentColor" stroke-width="13" />
                  <g id="c18jkmta" class="clef">
                     <use xlink:href="#E050-1lket3d" x="1375" y="1625" height="720px" width="720px" />
                  </g>
                  <g id="k1b04mq5" class="keySig">
                     <g id="kxhfpxj" class="keyAccid">
                        <use xlink:href="#E260-1lket3d" x="2020" y="1445" height="720px" width="720px" />
                     </g>
                     <g id="kuyq1xj" class="keyAccid">
                        <use xlink:href="#E260-1lket3d" x="2200" y="1175" height="720px" width="720px" />
                     </g>
                  </g>
                  <g id="m6rxur" class="meterSig">
                     <use xlink:href="#E082-1lket3d" x="2508" y="1265" height="720px" width="720px" />
                     <use xlink:href="#E084-1lket3d" x="2513" y="1625" height="720px" width="720px" />
                  </g>
                  <g id="l19i0f4z" class="layer">
                     <g id="b1fxamem" class="beam">
                        <polygon points="3293,905 3908,905 3908,995 3293,995" />
                        <g id="n1fpuj2v" class="note">
                           <g class="notehead">
                              <use xlink:href="#E0A4-1lket3d" x="3085" y="1535" height="720px" width="720px" />
                           </g>
                           <g id="s1godb43" class="stem">
                              <rect x="3293" y="923" height="584" width="18" />
                           </g>
                        </g>
                        <g id="npa3r8g" class="note">
                           <g class="notehead">
                              <use xlink:href="#E0A4-1lket3d" x="3682" y="1535" height="720px" width="720px" />
                           </g>
                           <g id="sap68e5" class="stem">
                              <rect x="3890" y="923" height="584" width="18" />
                           </g>
                        </g>
                     </g>
                  </g>
               </g>
               <g id="b122szgx" class="barLine">
                  <path d="M4280 1085 L4280 1805" stroke="currentColor" stroke-width="27" />
               </g>
            </g>
            <g id="m1bcxbr1" class="measure">
               <g id="sw3tam9" class="staff">
                  <path d="M4293 1085 L7079 1085" stroke="currentColor" stroke-width="13" />
                  <path d="M4293 1265 L7079 1265" stroke="currentColor" stroke-width="13" />
                  <path d="M4293 1445 L7079 1445" stroke="currentColor" stroke-width="13" />
                  <path d="M4293 1625 L7079 1625" stroke="currentColor" stroke-width="13" />
                  <path d="M4293 1805 L7079 1805" stroke="currentColor" stroke-width="13" />
                  <g id="l18e0x18" class="layer">
                     <g id="bf431an" class="beam">
                        <polygon points="4477,2075 5092,1895 5092,1805 4477,1985" />
                        <g id="nmzj6gg" class="note">
                           <g class="notehead">
                              <use xlink:href="#E0A4-1lket3d" x="4477" y="1535" height="720px" width="720px" />
                           </g>
                           <g id="s1xnfxaz" class="stem">
                              <rect x="4477" y="1563" height="494" width="18" />
                           </g>
                        </g>
                        <g id="n6ixcay" class="note">
                           <g class="notehead">
                              <use xlink:href="#E0A4-1lket3d" x="5074" y="1265" height="720px" width="720px" />
                           </g>
                           <g id="s17h3j4v" class="stem">
                              <rect x="5074" y="1293" height="584" width="18" />
                           </g>
                        </g>
                     </g>
                     <g id="bap6two" class="beam">
                        <polygon points="5672,1895 6686,2075 6686,1985 5672,1805" />
                        <polygon points="6279,1869 6686,1940 6686,1850 6279,1779" />
                        <g id="n1myep1r" class="note">
                           <g class="notehead">
                              <use xlink:href="#E0A4-1lket3d" x="5672" y="1265" height="720px" width="720px" />
                           </g>
                           <g id="su1s1cu" class="stem">
                              <rect x="5672" y="1293" height="584" width="18" />
                           </g>
                        </g>
                        <g id="n1gs8554" class="note">
                           <g class="notehead">
                              <use xlink:href="#E0A4-1lket3d" x="6270" y="1355" height="720px" width="720px" />
                           </g>
                           <g id="sws19nz" class="stem">
                              <rect x="6270" y="1383" height="603" width="18" />
                           </g>
                        </g>
                        <g id="nt10l1o" class="note">
                           <g class="notehead">
                              <use xlink:href="#E0A4-1lket3d" x="6668" y="1445" height="720px" width="720px" />
                           </g>
                           <g id="s8diup8" class="stem">
                              <rect x="6668" y="1473" height="584" width="18" />
                           </g>
                           <g id="a1iplopv" class="accid" />
                        </g>
                     </g>
                  </g>
               </g>
               <g id="b3nmz0f" class="barLine">
                  <path d="M7066 1085 L7066 1805" stroke="currentColor" stroke-width="27" />
               </g>
            </g>
            <g id="m1ewqhbw" class="measure">
               <g id="s1seslds" class="staff">
                  <path d="M7079 1085 L9666 1085" stroke="currentColor" stroke-width="13" />
                  <path d="M7079 1265 L9666 1265" stroke="currentColor" stroke-width="13" />
                  <path d="M7079 1445 L9666 1445" stroke="currentColor" stroke-width="13" />
                  <path d="M7079 1625 L9666 1625" stroke="currentColor" stroke-width="13" />
                  <path d="M7079 1805 L9666 1805" stroke="currentColor" stroke-width="13" />
                  <g id="lv03r5m" class="layer">
                     <g id="btxfp1z" class="beam">
                        <polygon points="7471,905 8086,995 8086,1085 7471,995" />
                        <g id="n9i515p" class="note">
                           <g class="notehead">
                              <use xlink:href="#E0A4-1lket3d" x="7263" y="1535" height="720px" width="720px" />
                           </g>
                           <g id="s1hbxlsd" class="stem">
                              <rect x="7471" y="923" height="584" width="18" />
                           </g>
                        </g>
                        <g id="n1177b9" class="note">
                           <g class="notehead">
                              <use xlink:href="#E0A4-1lket3d" x="7860" y="1625" height="720px" width="720px" />
                           </g>
                           <g id="s1xaw5up" class="stem">
                              <rect x="8068" y="1013" height="584" width="18" />
                           </g>
                        </g>
                     </g>
                     <g id="b1p56dro" class="beam">
                        <polygon points="8666,905 9282,905 9282,995 8666,995" />
                        <g id="n1x9pyog" class="note">
                           <g class="notehead">
                              <use xlink:href="#E0A4-1lket3d" x="8458" y="1535" height="720px" width="720px" />
                           </g>
                           <g id="s1s50u6v" class="stem">
                              <rect x="8666" y="923" height="584" width="18" />
                           </g>
                        </g>
                        <g id="npcjge" class="note">
                           <g class="notehead">
                              <use xlink:href="#E0A4-1lket3d" x="9056" y="1535" height="720px" width="720px" />
                           </g>
                           <g id="s8ksb2l" class="stem">
                              <rect x="9264" y="923" height="584" width="18" />
                           </g>
                        </g>
                     </g>
                  </g>
               </g>
               <g id="b1jaanfp" class="barLine">
                  <path d="M9653 1085 L9653 1805" stroke="currentColor" stroke-width="27" />
               </g>
            </g>
            <g id="m1j3x0p1" class="measure">
               <g id="s1r1acos" class="staff">
                  <path d="M9666 1085 L12072 1085" stroke="currentColor" stroke-width="13" />
                  <path d="M9666 1265 L12072 1265" stroke="currentColor" stroke-width="13" />
                  <path d="M9666 1445 L12072 1445" stroke="currentColor" stroke-width="13" />
                  <path d="M9666 1625 L12072 1625" stroke="currentColor" stroke-width="13" />
                  <path d="M9666 1805 L12072 1805" stroke="currentColor" stroke-width="13" />
                  <g id="l18pjg33" class="layer">
                     <g id="b124dmko" class="beam">
                        <polygon points="9850,2075 10465,1895 10465,1805 9850,1985" />
                        <g id="n1a3pi0d" class="note">
                           <g class="notehead">
                              <use xlink:href="#E0A4-1lket3d" x="9850" y="1535" height="720px" width="720px" />
                           </g>
                           <g id="so7873m" class="stem">
                              <rect x="9850" y="1563" height="494" width="18" />
                           </g>
                        </g>
                        <g id="n1qk8tp2" class="note">
                           <g class="notehead">
                              <use xlink:href="#E0A4-1lket3d" x="10447" y="1265" height="720px" width="720px" />
                           </g>
                           <g id="s1g1qw6j" class="stem">
                              <rect x="10447" y="1293" height="584" width="18" />
                           </g>
                        </g>
                     </g>
                     <g id="n1nm7z7q" class="note">
                        <g class="notehead">
                           <use xlink:href="#E0A4-1lket3d" x="10776" y="1355" height="540px" width="540px" />
                        </g>
                        <g id="s8m2f1v" class="stem">
                           <rect x="10927" y="928" height="406" width="18" />
                           <g id="f1segta" class="flag">
                              <use xlink:href="#E240-1lket3d" x="10927" y="928" height="540px" width="540px" />
                           </g>
                        </g>
                     </g>
                     <g id="nuyb2z8" class="note">
                        <g class="notehead">
                           <use xlink:href="#E0A4-1lket3d" x="11143" y="1445" height="720px" width="720px" />
                        </g>
                        <g id="s3lk9wb" class="stem">
                           <rect x="11143" y="1473" height="572" width="18" />
                        </g>
                        <g id="a1ckdbbg" class="accid" />
                     </g>
                  </g>
               </g>
               <g id="but5bbq" class="barLine">
                  <path d="M12059 1085 L12059 1805" stroke="currentColor" stroke-width="27" />
               </g>
            </g>
            <g id="m1y2jltj" class="measure">
               <g id="sh29ngb" class="staff">
                  <path d="M12072 1085 L13805 1085" stroke="currentColor" stroke-width="13" />
                  <path d="M12072 1265 L13805 1265" stroke="currentColor" stroke-width="13" />
                  <path d="M12072 1445 L13805 1445" stroke="currentColor" stroke-width="13" />
                  <path d="M12072 1625 L13805 1625" stroke="currentColor" stroke-width="13" />
                  <path d="M12072 1805 L13805 1805" stroke="currentColor" stroke-width="13" />
                  <g id="m121l3ho" class="meterSig">
                     <use xlink:href="#E081-1lket3d" x="12181" y="1265" height="720px" width="720px" />
                     <use xlink:href="#E084-1lket3d" x="12148" y="1625" height="720px" width="720px" />
                  </g>
                  <g id="lnme3wx" class="layer">
                     <g id="nk1rxe0" class="note">
                        <g class="notehead">
                           <use xlink:href="#E0A4-1lket3d" x="12714" y="1535" height="720px" width="720px" />
                        </g>
                        <g id="stf4u5b" class="stem">
                           <rect x="12922" y="905" height="602" width="18" />
                        </g>
                     </g>
                  </g>
               </g>
               <g id="b3kwx1l" class="barLine">
                  <path d="M13630 1085 L13630 1805" stroke="currentColor" stroke-width="27" />
                  <path d="M13760 1085 L13760 1805" stroke="currentColor" stroke-width="90" />
                  <use xlink:href="#E044-1lket3d" x="13513" y="1355" height="720px" width="720px" />
                  <use xlink:href="#E044-1lket3d" x="13513" y="1535" height="720px" width="720px" />
               </g>
            </g>
            <g id="m1h2yrvu" class="measure">
               <g id="s1ij3l6t" class="staff">
                  <path d="M13805 1085 L15197 1085" stroke="currentColor" stroke-width="13" />
                  <path d="M13805 1265 L15197 1265" stroke="currentColor" stroke-width="13" />
                  <path d="M13805 1445 L15197 1445" stroke="currentColor" stroke-width="13" />
                  <path d="M13805 1625 L15197 1625" stroke="currentColor" stroke-width="13" />
                  <path d="M13805 1805 L15197 1805" stroke="currentColor" stroke-width="13" />
                  <g id="lxw10m2" class="layer">
                     <g id="b1m9tpum" class="beam">
                        <polygon points="14197,905 14812,905 14812,995 14197,995" />
                        <g id="nta1by8" class="note">
                           <g class="notehead">
                              <use xlink:href="#E0A4-1lket3d" x="13989" y="1535" height="720px" width="720px" />
                           </g>
                           <g id="s14jr5si" class="stem">
                              <rect x="14197" y="923" height="584" width="18" />
                           </g>
                        </g>
                        <g id="n8adep9" class="note">
                           <g class="notehead">
                              <use xlink:href="#E0A4-1lket3d" x="14586" y="1535" height="720px" width="720px" />
                           </g>
                           <g id="sbvz7pk" class="stem">
                              <rect x="14794" y="923" height="584" width="18" />
                           </g>
                        </g>
                     </g>
                  </g>
               </g>
               <g id="b42s5wi" class="barLine">
                  <path d="M15184 1085 L15184 1805" stroke="currentColor" stroke-width="27" />
               </g>
            </g>
            <g id="m2v06v" class="measure">
               <g id="suxe7bo" class="staff">
                  <path d="M15197 1085 L17695 1085" stroke="currentColor" stroke-width="13" />
                  <path d="M15197 1265 L17695 1265" stroke="currentColor" stroke-width="13" />
                  <path d="M15197 1445 L17695 1445" stroke="currentColor" stroke-width="13" />
                  <path d="M15197 1625 L17695 1625" stroke="currentColor" stroke-width="13" />
                  <path d="M15197 1805 L17695 1805" stroke="currentColor" stroke-width="13" />
                  <g id="mbh8lug" class="meterSig">
                     <use xlink:href="#E082-1lket3d" x="15273" y="1265" height="720px" width="720px" />
                     <use xlink:href="#E084-1lket3d" x="15278" y="1625" height="720px" width="720px" />
                  </g>
                  <g id="lu1gfzy" class="layer">
                     <g id="n1mu1ly4" class="note">
                        <g class="notehead">
                           <use xlink:href="#E0A4-1lket3d" x="15850" y="1445" height="720px" width="720px" />
                        </g>
                        <g id="s1v431ip" class="stem">
                           <rect x="15850" y="1473" height="572" width="18" />
                        </g>
                        <g id="a1mluqw8" class="accid" />
                     </g>
                     <g id="nf6xd25" class="note">
                        <g class="notehead">
                           <use xlink:href="#E0A4-1lket3d" x="16766" y="1625" height="720px" width="720px" />
                        </g>
                        <g id="sokjcor" class="stem">
                           <rect x="16974" y="995" height="602" width="18" />
                        </g>
                     </g>
                  </g>
               </g>
               <g id="b11a2e4e" class="barLine">
                  <path d="M17682 1085 L17682 1805" stroke="currentColor" stroke-width="27" />
               </g>
            </g>
            <g id="mio6rt6" class="measure">
               <g id="s1xfgoyn" class="staff">
                  <path d="M17695 1085 L20003 1085" stroke="currentColor" stroke-width="13" />
                  <path d="M17695 1265 L20003 1265" stroke="currentColor" stroke-width="13" />
                  <path d="M17695 1445 L20003 1445" stroke="currentColor" stroke-width="13" />
                  <path d="M17695 1625 L20003 1625" stroke="currentColor" stroke-width="13" />
                  <path d="M17695 1805 L20003 1805" stroke="currentColor" stroke-width="13" />
                  <g id="lctpvrh" class="layer">
                     <g id="nbbpfrm" class="note">
                        <g class="notehead">
                           <use xlink:href="#E0A4-1lket3d" x="17879" y="1715" height="720px" width="720px" />
                        </g>
                        <g id="siv7ss5" class="stem">
                           <rect x="18087" y="1085" height="602" width="18" />
                        </g>
                     </g>
                     <g id="bvmfvgd" class="beam">
                        <polygon points="19003,995 19619,905 19619,995 19003,1085" />
                        <g id="ne24tg7" class="note">
                           <g class="notehead">
                              <use xlink:href="#E0A4-1lket3d" x="18795" y="1625" height="720px" width="720px" />
                           </g>
                           <g id="sav30if" class="stem">
                              <rect x="19003" y="1013" height="584" width="18" />
                           </g>
                        </g>
                        <g id="n1ikr299" class="note">
                           <g class="notehead">
                              <use xlink:href="#E0A4-1lket3d" x="19393" y="1535" height="720px" width="720px" />
                           </g>
                           <g id="s1swx8x3" class="stem">
                              <rect x="19601" y="923" height="584" width="18" />
                           </g>
                        </g>
                     </g>
                  </g>
               </g>
               <g id="b1aw5yzf" class="barLine">
                  <path d="M19990 1085 L19990 1805" stroke="currentColor" stroke-width="27" />
               </g>
            </g>
         </g>
         <g id="s2abvkv" class="system">
            <g id="lrhuuf3" class="labelAbbr">
               <text x="914" y="3875" text-anchor="end" font-size="0px">
                  <tspan id="t1d1853" class="text">
                     <tspan font-size="405px" class="text">Pno.</tspan>
                  </tspan>
               </text>
            </g>
            <g id="m4cg6y0" class="measure">
               <g id="m1bc6422" class="mNum autogenerated">
                  <text x="1094" y="3182" text-anchor="middle" font-size="0px">
                     <tspan id="tx57l60" class="text">
                        <tspan font-size="324px" class="text">8</tspan>
                     </tspan>
                  </text>
               </g>
               <g id="sor9o8e" class="staff">
                  <path d="M1094 3425 L5172 3425" stroke="currentColor" stroke-width="13" />
                  <path d="M1094 3605 L5172 3605" stroke="currentColor" stroke-width="13" />
                  <path d="M1094 3785 L5172 3785" stroke="currentColor" stroke-width="13" />
                  <path d="M1094 3965 L5172 3965" stroke="currentColor" stroke-width="13" />
                  <path d="M1094 4145 L5172 4145" stroke="currentColor" stroke-width="13" />
                  <g id="cdzfwjo" class="clef">
                     <use xlink:href="#E050-1lket3d" x="1184" y="3965" height="720px" width="720px" />
                  </g>
                  <g id="k1htmkxh" class="keySig">
                     <g id="k26sscb" class="keyAccid">
                        <use xlink:href="#E260-1lket3d" x="1829" y="3785" height="720px" width="720px" />
                     </g>
                     <g id="k1owmx3b" class="keyAccid">
                        <use xlink:href="#E260-1lket3d" x="2009" y="3515" height="720px" width="720px" />
                     </g>
                  </g>
                  <g id="l1pln0bc" class="layer">
                     <g id="b1zisi5" class="beam">
                        <polygon points="2629,3200 3625,3200 3625,3290 2629,3290" />
                        <polygon points="3225,3335 3625,3335 3625,3425 3225,3425" />
                        <g id="no1irju" class="note">
                           <g class="notehead">
                              <use xlink:href="#E0A4-1lket3d" x="2421" y="3875" height="720px" width="720px" />
                           </g>
                           <g id="sxvgq16" class="stem">
                              <rect x="2629" y="3218" height="629" width="18" />
                           </g>
                        </g>
                        <g id="n1l5n9d9" class="note">
                           <g class="notehead">
                              <use xlink:href="#E0A4-1lket3d" x="3008" y="3785" height="720px" width="720px" />
                           </g>
                           <g id="s16n86qt" class="stem">
                              <rect x="3216" y="3218" height="539" width="18" />
                           </g>
                           <g id="a1ewvbjd" class="accid" />
                        </g>
                        <g id="nz2hs86" class="note">
                           <g class="notehead">
                              <use xlink:href="#E0A4-1lket3d" x="3399" y="3875" height="720px" width="720px" />
                           </g>
                           <g id="s1q8fpdx" class="stem">
                              <rect x="3607" y="3218" height="629" width="18" />
                           </g>
                        </g>
                     </g>
                     <g id="b1odmvjk" class="beam">
                        <polygon points="3998,3335 4994,3155 4994,3245 3998,3425" />
                        <polygon points="4594,3362 4994,3290 4994,3380 4594,3452" />
                        <g id="ntghx62" class="note">
                           <g class="notehead">
                              <use xlink:href="#E0A4-1lket3d" x="3790" y="3965" height="720px" width="720px" />
                           </g>
                           <g id="sfvib9o" class="stem">
                              <rect x="3998" y="3353" height="584" width="18" />
                           </g>
                        </g>
                        <g id="n10kz69d" class="note">
                           <g class="notehead">
                              <use xlink:href="#E0A4-1lket3d" x="4377" y="3875" height="720px" width="720px" />
                           </g>
                           <g id="s1cwoqik" class="stem">
                              <rect x="4585" y="3245" height="602" width="18" />
                           </g>
                        </g>
                        <g id="ny36jke" class="note">
                           <g class="notehead">
                              <use xlink:href="#E0A4-1lket3d" x="4768" y="3785" height="720px" width="720px" />
                           </g>
                           <g id="s14ozus9" class="stem">
                              <rect x="4976" y="3173" height="584" width="18" />
                           </g>
                           <g id="a1snuo0r" class="accid" />
                        </g>
                     </g>
                  </g>
               </g>
               <g id="bafeu7w" class="barLine">
                  <path d="M5159 3425 L5159 4145" stroke="currentColor" stroke-width="27" />
               </g>
            </g>
            <g id="s1q7qy6n" class="sb" />
            <g id="m1gddp70" class="measure">
               <g id="sbog522" class="staff">
                  <path d="M5172 3425 L7713 3425" stroke="currentColor" stroke-width="13" />
                  <path d="M5172 3605 L7713 3605" stroke="currentColor" stroke-width="13" />
                  <path d="M5172 3785 L7713 3785" stroke="currentColor" stroke-width="13" />
                  <path d="M5172 3965 L7713 3965" stroke="currentColor" stroke-width="13" />
                  <path d="M5172 4145 L7713 4145" stroke="currentColor" stroke-width="13" />
                  <g id="l1bzvhpa" class="layer">
                     <g id="b1dc7bfp" class="beam">
                        <polygon points="5560,3245 6165,3335 6165,3425 5560,3335" />
                        <g id="nntt1a8" class="note">
                           <g class="notehead">
                              <use xlink:href="#E0A4-1lket3d" x="5352" y="3875" height="720px" width="720px" />
                           </g>
                           <g id="s13r3dq8" class="stem">
                              <rect x="5560" y="3263" height="584" width="18" />
                           </g>
                        </g>
                        <g id="nbu81zi" class="note">
                           <g class="notehead">
                              <use xlink:href="#E0A4-1lket3d" x="5939" y="3965" height="720px" width="720px" />
                           </g>
                           <g id="sr9w3dt" class="stem">
                              <rect x="6147" y="3353" height="584" width="18" />
                           </g>
                        </g>
                     </g>
                     <g id="b15zed9c" class="beam">
                        <polygon points="6734,3245 7339,3245 7339,3335 6734,3335" />
                        <g id="ntkv6x4" class="note">
                           <g class="notehead">
                              <use xlink:href="#E0A4-1lket3d" x="6526" y="3875" height="720px" width="720px" />
                           </g>
                           <g id="s1463r4i" class="stem">
                              <rect x="6734" y="3263" height="584" width="18" />
                           </g>
                        </g>
                        <g id="n8mog7b" class="note">
                           <g class="notehead">
                              <use xlink:href="#E0A4-1lket3d" x="7113" y="3875" height="720px" width="720px" />
                           </g>
                           <g id="st9l9mk" class="stem">
                              <rect x="7321" y="3263" height="584" width="18" />
                           </g>
                        </g>
                     </g>
                  </g>
               </g>
               <g id="bqps8kw" class="barLine">
                  <path d="M7700 3425 L7700 4145" stroke="currentColor" stroke-width="27" />
               </g>
            </g>
            <g id="m1sye7ve" class="measure">
               <g id="s1jbaml0" class="staff">
                  <path d="M7713 3425 L9706 3425" stroke="currentColor" stroke-width="13" />
                  <path d="M7713 3605 L9706 3605" stroke="currentColor" stroke-width="13" />
                  <path d="M7713 3785 L9706 3785" stroke="currentColor" stroke-width="13" />
                  <path d="M7713 3965 L9706 3965" stroke="currentColor" stroke-width="13" />
                  <path d="M7713 4145 L9706 4145" stroke="currentColor" stroke-width="13" />
                  <g id="l14fn23r" class="layer">
                     <g id="n194yex5" class="note">
                        <g class="notehead">
                           <use xlink:href="#E0A4-1lket3d" x="7893" y="3785" height="720px" width="720px" />
                        </g>
                        <g id="sfglr5i" class="stem">
                           <rect x="7893" y="3813" height="572" width="18" />
                        </g>
                        <g id="ar0pz1u" class="accid" />
                     </g>
                     <g id="n1bs9u27" class="note">
                        <g class="notehead">
                           <use xlink:href="#E0A4-1lket3d" x="8793" y="3965" height="720px" width="720px" />
                        </g>
                        <g id="s7dr2pa" class="stem">
                           <rect x="9001" y="3335" height="602" width="18" />
                        </g>
                     </g>
                  </g>
               </g>
               <g id="b12qtpbl" class="barLine">
                  <path d="M9693 3425 L9693 4145" stroke="currentColor" stroke-width="27" />
               </g>
            </g>
            <g id="m76v2c3" class="measure">
               <g id="s1tvpy9l" class="staff">
                  <path d="M9706 3425 L11973 3425" stroke="currentColor" stroke-width="13" />
                  <path d="M9706 3605 L11973 3605" stroke="currentColor" stroke-width="13" />
                  <path d="M9706 3785 L11973 3785" stroke="currentColor" stroke-width="13" />
                  <path d="M9706 3965 L11973 3965" stroke="currentColor" stroke-width="13" />
                  <path d="M9706 4145 L11973 4145" stroke="currentColor" stroke-width="13" />
                  <g id="l1x2f38h" class="layer">
                     <g id="neu3qu6" class="note">
                        <g class="notehead">
                           <use xlink:href="#E0A4-1lket3d" x="9886" y="4055" height="720px" width="720px" />
                        </g>
                        <g id="s1xcuzkn" class="stem">
                           <rect x="10094" y="3425" height="602" width="18" />
                        </g>
                     </g>
                     <g id="b1f4bigh" class="beam">
                        <polygon points="10994,3335 11599,3245 11599,3335 10994,3425" />
                        <g id="nepj2mx" class="note">
                           <g class="notehead">
                              <use xlink:href="#E0A4-1lket3d" x="10786" y="3965" height="720px" width="720px" />
                           </g>
                           <g id="s1i65ypz" class="stem">
                              <rect x="10994" y="3353" height="584" width="18" />
                           </g>
                        </g>
                        <g id="n1yn9j6m" class="note">
                           <g class="notehead">
                              <use xlink:href="#E0A4-1lket3d" x="11373" y="3875" height="720px" width="720px" />
                           </g>
                           <g id="s1iziaw1" class="stem">
                              <rect x="11581" y="3263" height="584" width="18" />
                           </g>
                        </g>
                     </g>
                  </g>
               </g>
               <g id="b1jq0yus" class="barLine">
                  <path d="M11960 3425 L11960 4145" stroke="currentColor" stroke-width="27" />
               </g>
            </g>
            <g id="m1jw9fbi" class="measure">
               <g id="s72k2bu" class="staff">
                  <path d="M11973 3425 L13966 3425" stroke="currentColor" stroke-width="13" />
                  <path d="M11973 3605 L13966 3605" stroke="currentColor" stroke-width="13" />
                  <path d="M11973 3785 L13966 3785" stroke="currentColor" stroke-width="13" />
                  <path d="M11973 3965 L13966 3965" stroke="currentColor" stroke-width="13" />
                  <path d="M11973 4145 L13966 4145" stroke="currentColor" stroke-width="13" />
                  <g id="lab2sgq" class="layer">
                     <g id="n1f1z48i" class="note">
                        <g class="notehead">
                           <use xlink:href="#E0A4-1lket3d" x="12153" y="3875" height="720px" width="720px" />
                        </g>
                        <g id="spqpu36" class="stem">
                           <rect x="12361" y="3245" height="602" width="18" />
                        </g>
                     </g>
                     <g id="n1c11uqt" class="note">
                        <g class="notehead">
                           <use xlink:href="#E0A4-1lket3d" x="13053" y="3785" height="720px" width="720px" />
                        </g>
                        <g id="sd7ti0s" class="stem">
                           <rect x="13053" y="3813" height="572" width="18" />
                        </g>
                        <g id="avhjnut" class="accid" />
                     </g>
                  </g>
               </g>
               <g id="bstkui1" class="barLine">
                  <path d="M13953 3425 L13953 4145" stroke="currentColor" stroke-width="27" />
               </g>
            </g>
            <g id="mkffbwx" class="measure">
               <g id="s1t237qs" class="staff">
                  <path d="M13966 3425 L15679 3425" stroke="currentColor" stroke-width="13" />
                  <path d="M13966 3605 L15679 3605" stroke="currentColor" stroke-width="13" />
                  <path d="M13966 3785 L15679 3785" stroke="currentColor" stroke-width="13" />
                  <path d="M13966 3965 L15679 3965" stroke="currentColor" stroke-width="13" />
                  <path d="M13966 4145 L15679 4145" stroke="currentColor" stroke-width="13" />
                  <g id="ms7ghla" class="meterSig">
                     <use xlink:href="#E081-1lket3d" x="14075" y="3605" height="720px" width="720px" />
                     <use xlink:href="#E084-1lket3d" x="14042" y="3965" height="720px" width="720px" />
                  </g>
                  <g id="lp6f1hg" class="layer">
                     <g id="nkrqnyg" class="note">
                        <g class="notehead">
                           <use xlink:href="#E0A4-1lket3d" x="14604" y="3965" height="720px" width="720px" />
                        </g>
                        <g id="s120w43s" class="stem">
                           <rect x="14812" y="3335" height="602" width="18" />
                        </g>
                     </g>
                  </g>
               </g>
               <g id="b39e276" class="barLine">
                  <path d="M15504 3425 L15504 4145" stroke="currentColor" stroke-width="27" />
                  <path d="M15634 3425 L15634 4145" stroke="currentColor" stroke-width="90" />
               </g>
            </g>
            <g id="s2ej89t" class="systemMilestoneEnd sx5r1p4" />
         </g>
         <g id="ptawiln" class="pageMilestoneEnd s1re2e3m" />
         <g id="p1o0uwmy" class="pageMilestoneEnd m1j71cxe" />
         <g id="p9601nw" class="pgHead">
            <text x="0" y="0" font-size="0px">
               <tspan id="r8nxvwr" class="rend" x="10000" y="277" text-anchor="middle">
                  <tspan id="tewbnrp" class="text">
                     <tspan font-size="405px" class="text">Air n 223</tspan>
                  </tspan>
               </tspan>
            </text>
         </g>
         <g id="pr1mjry" class="pgFoot autogenerated">
            <g id="f1d0hcx7" class="fig">
               <g id="smme0z0" class="svg" transform="translate(7750, 28099) scale(10, 10)">
                  <g>
                     <path fill="#00000" d="M 17.11278,49.26451 V 10.367554 h 12.696511 c 3.288815,7.336676 6.71267,14.610456 10.127281,21.888976 3.419998,-7.484684 6.255515,-14.204887 9.58887,-21.909915 2.436207,0.103726 4.316952,0.08453 6.484294,-0.05808 V 49.264423 H 50.274275 C 50.145222,38.35639 50.016136,27.448368 49.887066,16.540329 45.003488,27.315459 39.967448,38.433564 35.083854,49.208695 34.678996,49.343717 34.426583,49.135619 34.021726,49.270644 29.46588,39.330716 24.910049,29.390805 20.354201,19.450876 20.224341,29.388756 20.09461,39.326619 19.964815,49.264497 H 17.11278 Z M 36.754144,39.324695 C 32.721221,30.512695 28.6883,21.700679 24.655394,12.888662 22.530527,12.750737 22.656775,12.71031 20.714356,12.813974 v 0.966497 c 4.612938,9.99784 9.609439,20.748709 13.87298,30.081745 0.722248,-1.512523 1.444528,-3.025014 2.166808,-4.537521 z m 25.738417,9.939815 c 0,-12.965651 0,-25.931305 0,-38.896956 10.084388,0 20.168791,0 30.253178,0 0,0.960416 0,1.920849 0,2.881265 -6.482825,0 -12.965652,0 -19.448478,0 0,4.802097 0,9.604178 0,14.406277 5.52241,0 11.044819,0 16.567229,0 0,0.960415 0,1.920832 0,2.881248 -5.52241,0 -11.044819,0 -16.567229,0 0,5.282306 0,10.564611 0,15.846917 6.963035,0 13.926068,0 20.889103,0 0,0.960416 0,1.920832 0,2.881249 -10.564597,0 -21.129207,0 -31.693803,0 z m 4.321874,-2.160937 c 0,-11.765131 0,-23.530263 0,-35.295394 -0.720312,0 -1.440625,0 -2.160937,0 0,11.765131 0,23.530263 0,35.295394 0.720312,0 1.440625,0 2.160937,0 z m 32.41413,2.160937 c 0,-12.965651 0,-25.931305 0,-38.896956 2.401045,0 4.802095,0 7.203135,0 0,12.965651 0,25.931305 0,38.896956 -2.40104,0 -4.80209,0 -7.203135,0 z m 2.881265,-2.160937 c 0,-11.765131 0,-23.530263 0,-35.295394 -0.72031,0 -1.44064,0 -2.160953,0 0,11.765131 0,23.530263 0,35.295394 0.720313,0 1.440643,0 2.160953,0 z" />
                     <path fill="#00000" d="m 346.3,6.7 c -3.1,0.5 -4.9,4.4 -2.7,6.8 1.2,1.4 2.7,2.4 4.1,3.5 -2.4,5.3 -7.7,8.3 -11.9,12.1 -3.7,2.8 -7,6.2 -9.7,9.9 -2.2,-0.8 -0.3,-6.8 -0.6,-9.5 0.1,-3.1 0.7,-6.4 2.9,-8.7 1.3,-1.9 3,-3.5 4.5,-5.2 1.2,-3.4 -3.2,-4.9 -5.8,-4.6 -7.3,-0.5 -14.6,2 -20,6.8 -5,4.6 -10,10.1 -11.5,17 -0.9,3.5 -0.2,7.5 2.8,9.9 2.5,2.8 7.4,2.9 9.8,-0.2 1.7,-2.3 3.2,-4.8 3.8,-7.6 -0.1,-2.6 -4.4,-2.3 -4.3,0.2 1.2,2.4 -0.9,4.7 -2.7,6.2 -1.7,0.9 -4.7,0.7 -4.8,-1.7 -1,-5.8 2.1,-11.3 5.2,-16.1 4,-5.8 9.8,-11.2 17.2,-11.8 1.6,0 8.1,-1.2 6.8,1.4 -2.8,2.8 -5.6,6.1 -6,10.3 -1.6,7.7 0.1,15.7 -2.3,23.2 -1.1,3.9 2,2.6 2.5,0.2 3.3,-7.4 8.9,-13.4 15.1,-18.5 4.2,-3.9 9.5,-7.1 11.9,-12.6 1.3,-3.6 1.2,-9 -2.7,-10.9 -0.6,-0.2 -1.2,-0.3 -1.8,-0.3 z m 66,14.5 c -2,0.8 -1.8,4.9 0.8,4.4 3.4,0.4 2.9,-6.2 -0.8,-4.4 z m 0.6,7.3 c -1.3,0.5 -7.6,0.5 -5.4,2.2 4,-0.3 0.7,4.5 0.6,6.7 -0.4,2.9 -2.4,5.9 -1.2,8.8 2.7,1.7 5.6,-0.8 6.8,-3.2 1.6,-1.4 -0.5,-3 -1.2,-0.9 -0.4,0.8 -2.4,3.5 -2.6,1.8 1.1,-5 2.7,-9.9 3.9,-14.9 l -0.1,-0.5 h -0.9 z m -65.1,0.2 c -6.5,1.6 -10.5,9.5 -8.2,15.7 2.1,3.4 7.4,2.9 10.1,0.4 2,-0.2 3.6,-5.3 1,-3.4 -1.4,2 -4,4.2 -6.5,2.8 -2.2,-1.9 -1.9,-5.7 1.7,-5.3 3.1,-0.9 6.9,-2.1 8.1,-5.5 0.9,-2.7 -1.6,-5.2 -4.3,-4.8 h -1.1 -0.7 z m 13.6,0 c -2.2,0 -8.5,1.8 -2.9,2.3 0.9,1.9 -1,4.9 -1.1,7.2 -0.5,2.9 -1.4,5.7 -1.7,8.7 3.7,0.7 3.8,-2.6 4.4,-5.3 0.9,-3.3 1.6,-7 4.1,-9.5 2.4,1.6 6.8,-0.7 3.7,-3.4 -2.9,-0.5 -4.8,2.4 -6.2,4.3 0,-1.2 2.4,-5 -0.2,-4.3 z m 15.8,0 c -6.4,1.3 -9.6,9.1 -7.7,14.9 1.9,4 7.7,3.9 11,1.7 4.1,-3 6,-8.9 4.4,-13.7 -1.3,-3 -4.8,-3.2 -7.6,-3 z m 17,0 c -2.3,0 -8.8,1.9 -3,2.4 0.4,2.5 -1,5.7 -1.4,8.4 -0.7,2.4 -1.8,7.5 2.1,7.2 3.8,-0.1 6.5,-3.5 8.5,-6.3 2,-3.2 4.5,-7 3.3,-10.9 -3.7,-3 -3.6,2.6 -3.1,5.1 -0.7,3.8 -2.7,7.9 -6.2,9.8 -3.6,0.6 -1,-4.3 -0.8,-6.1 0.6,-3.2 1.6,-6.3 1.9,-9.5 -0.4,0 -0.8,0 -1.1,0 z m 30.6,0 c -6.3,1.2 -9.5,8.9 -7.8,14.7 1.5,4 7.2,4.2 10.5,2.4 4.6,-2.8 6.6,-9.3 4.8,-14.3 -1.4,-2.8 -4.8,-3 -7.5,-2.8 z m -75.4,1.7 c 2.1,1.5 0.2,4.7 -1.6,5.7 -1.1,0.4 -5.5,3.4 -4.6,0.7 0.8,-2.7 2.2,-6.2 5.3,-6.6 l 0.9,0.1 z m 30.8,0 c 2.6,1.5 1.3,5.2 0.8,7.6 -0.8,2.7 -1.9,5.9 -4.7,7.1 -5.1,0.8 -4,-5.8 -2.8,-8.8 1,-2.8 3,-6.8 6.7,-5.8 z m 47.1,-0.1 c 2.9,0.7 2,4.7 1.5,6.8 -0.7,3 -1.8,6.7 -5,8 -4.7,0.8 -4,-5.1 -3,-7.9 0.9,-3 2.7,-7.3 6.5,-6.8 z m -88.1,5.9 c -0.3,1.3 0.9,-0.6 0,0 z m -1.1,2.4 c -0.2,0.5 0.5,-0.1 0,0 z m -1.3,4.5 c -0.3,1.3 0.8,-0.2 0,0 z" />
                     <text y="41" x="201" fill="#00000" style="font-style:italic;font-weight:normal;font-size:30px;line-height:125%;font-family:Times;text-anchor:middle" xml:space="preserve">engraved with</text>
                  </g>
               </g>
            </g>
         </g>
      </g>
   </svg>
</svg>
