<?xml version="1.0" encoding="UTF-8" standalone="no"?>
<svg width="2100px" height="2970px" version="1.1" xmlns="http://www.w3.org/2000/svg" xmlns:xlink="http://www.w3.org/1999/xlink" xmlns:mei="http://www.music-encoding.org/ns/mei" overflow="visible">
   <desc>Engraved by Verovio 3.13.1</desc>
   <defs>
      <symbol id="E050-1lkivq0" viewBox="0 0 1000 1000" overflow="inherit">
         <path transform="scale(1,-1)" d="M441 -245c-23 -4 -48 -6 -76 -6c-59 0 -102 7 -130 20c-88 42 -150 93 -187 154c-26 44 -43 103 -48 176c0 6 -1 13 -1 19c0 54 15 111 45 170c29 57 65 106 110 148s96 85 153 127c-3 16 -8 46 -13 92c-4 43 -5 73 -5 89c0 117 16 172 69 257c34 54 64 82 89 82 c21 0 43 -30 69 -92s39 -115 41 -159v-15c0 -109 -21 -162 -67 -241c-13 -20 -63 -90 -98 -118c-13 -9 -25 -19 -37 -29l31 -181c8 1 18 2 28 2c58 0 102 -12 133 -35c59 -43 92 -104 98 -184c1 -7 1 -15 1 -22c0 -123 -87 -209 -181 -248c8 -57 17 -110 25 -162 c5 -31 6 -58 6 -80c0 -30 -5 -53 -14 -70c-35 -64 -88 -99 -158 -103c-5 0 -11 -1 -16 -1c-37 0 -72 10 -108 27c-50 24 -77 59 -80 105v11c0 29 7 55 20 76c18 28 45 42 79 44h6c49 0 93 -42 97 -87v-9c0 -51 -34 -86 -105 -106c17 -24 51 -36 102 -36c62 0 116 43 140 85 c9 16 13 41 13 74c0 20 -1 42 -5 67c-8 53 -18 106 -26 159zM461 939c-95 0 -135 -175 -135 -286c0 -24 2 -48 5 -71c50 39 92 82 127 128c40 53 60 100 60 140v8c-4 53 -22 81 -55 81h-2zM406 119l54 -326c73 25 110 78 110 161c0 7 0 15 -1 23c-7 95 -57 142 -151 142h-12 zM382 117c-72 -2 -128 -47 -128 -120v-7c2 -46 43 -99 75 -115c-3 -2 -7 -5 -10 -10c-70 33 -116 88 -123 172v11c0 68 44 126 88 159c23 17 49 29 78 36l-29 170c-21 -13 -52 -37 -92 -73c-50 -44 -86 -84 -109 -119c-45 -69 -67 -130 -67 -182v-13c5 -68 35 -127 93 -176 s125 -73 203 -73c25 0 50 3 75 9c-19 111 -36 221 -54 331z" />
      </symbol>
      <symbol id="E084-1lkivq0" viewBox="0 0 1000 1000" overflow="inherit">
         <path transform="scale(1,-1)" d="M20 -78c84 97 114 180 134 329h170c-13 -32 -82 -132 -99 -151l-84 -97c-33 -36 -59 -63 -80 -81h162v102l127 123v-225h57v-39h-57v-34c0 -43 19 -65 57 -65v-34h-244v36c48 0 60 26 60 70v27h-203v39z" />
      </symbol>
      <symbol id="E0A4-1lkivq0" viewBox="0 0 1000 1000" overflow="inherit">
         <path transform="scale(1,-1)" d="M0 -39c0 68 73 172 200 172c66 0 114 -37 114 -95c0 -84 -106 -171 -218 -171c-64 0 -96 30 -96 94z" />
      </symbol>
      <symbol id="E241-1lkivq0" viewBox="0 0 1000 1000" overflow="inherit">
         <path transform="scale(1,-1)" d="M179 646c-4 8 -17 30 -18 33l-4 10c0 3 2 5 5 5s7 -2 13 -7c23 -33 46 -81 66 -132c22 -57 35 -125 35 -163c0 -104 -60 -183 -122 -241c-63 -59 -57 -53 -61 -56c-38 -34 -63 -95 -71 -95h-22v190c40 7 69 11 87 16c88 27 168 95 168 200c0 30 -12 89 -30 138 c-17 47 -31 73 -46 102z" />
      </symbol>
      <symbol id="E4E6-1lkivq0" viewBox="0 0 1000 1000" overflow="inherit">
         <path transform="scale(1,-1)" d="M0 123c7 34 33 56 69 60c29 -3 43 -9 53 -29c4 -8 7 -15 10 -22c0 -21 -1 -25 -11 -35c-5 -8 -18 -14 -40 -20l12 -3l15 -1c44 0 97 26 122 56c10 11 18 26 24 42c7 1 15 2 22 3l-140 -424h-36l111 330c-10 -6 -27 -12 -53 -16l-52 -8h-10l-20 1c-1 0 -8 3 -21 6 c-37 9 -55 28 -55 60z" />
      </symbol>
   </defs>
   <style type="text/css">g.page-margin{font-family:Times;} g.ending, g.fing, g.reh, g.tempo{font-weight:bold;} g.dir, g.dynam, g.mNum{font-style:italic;} g.label{font-weight:normal;}</style>
   <svg class="definition-scale" color="black" viewBox="0 0 21000 29700">
      <g class="page-margin" transform="translate(500, 500)">
         <g id="m1i3x5ey" class="mdiv pageMilestone" />
         <g id="s1cfeeu9" class="score pageMilestone" />
         <g id="szf39ea" class="system">
            <g id="s1qy6rcs" class="section systemMilestone" />
            <g id="m1iyzacs" class="measure">
               <g id="s17dfbu5" class="staff">
                  <path d="M0 2274 L1890 2274" stroke="currentColor" stroke-width="13" />
                  <path d="M0 2454 L1890 2454" stroke="currentColor" stroke-width="13" />
                  <path d="M0 2634 L1890 2634" stroke="currentColor" stroke-width="13" />
                  <path d="M0 2814 L1890 2814" stroke="currentColor" stroke-width="13" />
                  <path d="M0 2994 L1890 2994" stroke="currentColor" stroke-width="13" />
                  <g id="cclfdr8" class="clef">
                     <use xlink:href="#E050-1lkivq0" x="90" y="2814" height="720px" width="720px" />
                  </g>
                  <g id="k1igp3an" class="keySig" />
                  <g id="m1ipgxxe" class="meterSig">
                     <use xlink:href="#E084-1lkivq0" x="721" y="2454" height="720px" width="720px" />
                     <use xlink:href="#E084-1lkivq0" x="721" y="2814" height="720px" width="720px" />
                  </g>
                  <g id="l1ofamwd" class="layer">
                     <g id="nzo7y5z" class="note">
                        <g class="notehead">
                           <use xlink:href="#E0A4-1lkivq0" x="1309" y="2454" height="720px" width="720px" />
                        </g>
                        <g id="s150tqwu" class="stem">
                           <rect x="1309" y="2482" height="602" width="18" />
                           <g id="f1ntepe6" class="flag">
                              <use xlink:href="#E241-1lkivq0" x="1309" y="3084" height="720px" width="720px" />
                           </g>
                        </g>
                        <g id="v14k5wc" class="verse">
                           <g id="siop4da" class="syl">
                              <text x="1219" y="3546" font-size="0px">
                                 <tspan id="toxx5rn" class="text">
                                    <tspan font-size="405px" class="text">Me</tspan>
                                 </tspan>
                              </text>
                           </g>
                        </g>
                     </g>
                  </g>
               </g>
               <g id="t1ry7gwf" class="tempo" xml:lang="it">
                  <text x="747" y="1366" font-size="0px">
                     <tspan id="r1swrhmm" class="rend" font-weight="bold">
                        <tspan id="t1is0ptp" class="text">
                           <tspan font-size="405px" class="text">M. M. </tspan>
                        </tspan>
                     </tspan>
                     <tspan id="lj9ny3g" class="lb" />
                     <tspan id="rffcoui" class="rend">
                        <tspan id="t1v1jdce" class="text" x="747" y="1756">
                           <tspan font-size="405px" class="text"></tspan>
                        </tspan>
                     </tspan>
                     <tspan id="l11a8c7i" class="lb" />
                     <tspan id="rve5bre" class="rend">
                        <tspan id="t1s5idwl" class="text" x="747" y="2146">
                           <tspan font-size="405px" class="text"> = SS</tspan>
                        </tspan>
                     </tspan>
                  </text>
               </g>
               <g id="bmlulce" class="barLine">
                  <path d="M1877 2274 L1877 2994" stroke="currentColor" stroke-width="27" />
               </g>
            </g>
            <g id="m1vq6eqj" class="measure">
               <g id="s1mx0n2k" class="staff">
                  <path d="M1890 2274 L8048 2274" stroke="currentColor" stroke-width="13" />
                  <path d="M1890 2454 L8048 2454" stroke="currentColor" stroke-width="13" />
                  <path d="M1890 2634 L8048 2634" stroke="currentColor" stroke-width="13" />
                  <path d="M1890 2814 L8048 2814" stroke="currentColor" stroke-width="13" />
                  <path d="M1890 2994 L8048 2994" stroke="currentColor" stroke-width="13" />
                  <g id="lbr5srl" class="layer">
                     <g id="nlnvdrc" class="note">
                        <g class="notehead">
                           <use xlink:href="#E0A4-1lkivq0" x="2096" y="2544" height="720px" width="720px" />
                        </g>
                        <g id="s1kvosor" class="stem">
                           <rect x="2096" y="2572" height="602" width="18" />
                           <g id="fktsgsy" class="flag">
                              <use xlink:href="#E241-1lkivq0" x="2096" y="3174" height="720px" width="720px" />
                           </g>
                        </g>
                        <g id="vlpnwun" class="verse">
                           <g id="s1a4jcd2" class="syl">
                              <text x="1966" y="3546" font-size="0px">
                                 <tspan id="t149c9od" class="text">
                                    <tspan font-size="405px" class="text">oa'r</tspan>
                                 </tspan>
                              </text>
                           </g>
                        </g>
                     </g>
                     <g id="n5dq5n1" class="note">
                        <g class="notehead">
                           <use xlink:href="#E0A4-1lkivq0" x="2850" y="2634" height="720px" width="720px" />
                        </g>
                        <g id="s2aki0r" class="stem">
                           <rect x="2850" y="2662" height="572" width="18" />
                           <g id="f1qiic48" class="flag">
                              <use xlink:href="#E241-1lkivq0" x="2850" y="3234" height="720px" width="720px" />
                           </g>
                        </g>
                        <g id="vw7ly85" class="verse">
                           <g id="s12lkcc6" class="syl">
                              <text x="2760" y="3546" font-size="0px">
                                 <tspan id="t8q70au" class="text">
                                    <tspan font-size="405px" class="text">bu</tspan>
                                 </tspan>
                              </text>
                              <rect x="3264" y="3443" height="22" width="108" />
                           </g>
                        </g>
                     </g>
                     <g id="n1ce24ot" class="note">
                        <g class="notehead">
                           <use xlink:href="#E0A4-1lkivq0" x="3561" y="2544" height="720px" width="720px" />
                        </g>
                        <g id="sxumny6" class="stem">
                           <rect x="3561" y="2572" height="602" width="18" />
                           <g id="fip7rcn" class="flag">
                              <use xlink:href="#E241-1lkivq0" x="3561" y="3174" height="720px" width="720px" />
                           </g>
                        </g>
                        <g id="v8qegj4" class="verse">
                           <g id="s1ndcgkz" class="syl">
                              <text x="3471" y="3546" font-size="0px">
                                 <tspan id="t193haex" class="text">
                                    <tspan font-size="405px" class="text">ge</tspan>
                                 </tspan>
                              </text>
                              <rect x="3951" y="3443" height="22" width="108" />
                           </g>
                        </g>
                     </g>
                     <g id="n1sqy46d" class="note">
                        <g class="notehead">
                           <use xlink:href="#E0A4-1lkivq0" x="4246" y="2454" height="720px" width="720px" />
                        </g>
                        <g id="s2kk4up" class="stem">
                           <rect x="4246" y="2482" height="602" width="18" />
                           <g id="f17f1rp4" class="flag">
                              <use xlink:href="#E241-1lkivq0" x="4246" y="3084" height="720px" width="720px" />
                           </g>
                        </g>
                        <g id="vmjlg20" class="verse">
                           <g id="s18tezv9" class="syl">
                              <text x="4156" y="3546" font-size="0px">
                                 <tspan id="tmrap97" class="text">
                                    <tspan font-size="405px" class="text">lig</tspan>
                                 </tspan>
                              </text>
                           </g>
                        </g>
                     </g>
                     <g id="n17kpab3" class="note">
                        <g class="notehead">
                           <use xlink:href="#E0A4-1lkivq0" x="4860" y="2364" height="720px" width="720px" />
                        </g>
                        <g id="s1gj94yq" class="stem">
                           <rect x="4860" y="2392" height="602" width="18" />
                           <g id="f16gs1zi" class="flag">
                              <use xlink:href="#E241-1lkivq0" x="4860" y="2994" height="720px" width="720px" />
                           </g>
                        </g>
                        <g id="v9nltsi" class="verse">
                           <g id="s5vk3tw" class="syl">
                              <text x="4770" y="3546" font-size="0px">
                                 <tspan id="t1xd8tr2" class="text">
                                    <tspan font-size="405px" class="text">yaou</tspan>
                                 </tspan>
                              </text>
                              <rect x="5685" y="3443" height="22" width="108" />
                           </g>
                        </g>
                     </g>
                     <g id="nuy7qtl" class="note">
                        <g class="notehead">
                           <use xlink:href="#E0A4-1lkivq0" x="6009" y="2544" height="720px" width="720px" />
                        </g>
                        <g id="sixz2io" class="stem">
                           <rect x="6009" y="2572" height="602" width="18" />
                           <g id="f18e1mm8" class="flag">
                              <use xlink:href="#E241-1lkivq0" x="6009" y="3174" height="720px" width="720px" />
                           </g>
                        </g>
                        <g id="vbimply" class="verse">
                           <g id="snzw3fh" class="syl">
                              <text x="5919" y="3546" font-size="0px">
                                 <tspan id="t2afuu9" class="text">
                                    <tspan font-size="405px" class="text">ank</tspan>
                                 </tspan>
                              </text>
                           </g>
                        </g>
                     </g>
                     <g id="n1fs7oti" class="note">
                        <g class="notehead">
                           <use xlink:href="#E0A4-1lkivq0" x="6803" y="2454" height="720px" width="720px" />
                        </g>
                        <g id="sxuw9wl" class="stem">
                           <rect x="6803" y="2482" height="602" width="18" />
                        </g>
                        <g id="v1u7keuz" class="verse">
                           <g id="s15rlsr5" class="syl">
                              <text x="6713" y="3546" font-size="0px">
                                 <tspan id="t1safj3k" class="text">
                                    <tspan font-size="405px" class="text">flamm,</tspan>
                                 </tspan>
                              </text>
                           </g>
                        </g>
                     </g>
                  </g>
               </g>
               <g id="b1db7i2u" class="barLine">
                  <path d="M8035 2274 L8035 2994" stroke="currentColor" stroke-width="27" />
               </g>
            </g>
            <g id="m1jtmmn3" class="measure">
               <g id="s1s43d78" class="staff">
                  <path d="M8048 2274 L13237 2274" stroke="currentColor" stroke-width="13" />
                  <path d="M8048 2454 L13237 2454" stroke="currentColor" stroke-width="13" />
                  <path d="M8048 2634 L13237 2634" stroke="currentColor" stroke-width="13" />
                  <path d="M8048 2814 L13237 2814" stroke="currentColor" stroke-width="13" />
                  <path d="M8048 2994 L13237 2994" stroke="currentColor" stroke-width="13" />
                  <g id="lluwigu" class="layer">
                     <g id="nujjm8k" class="note">
                        <g class="notehead">
                           <use xlink:href="#E0A4-1lkivq0" x="8254" y="2184" height="720px" width="720px" />
                        </g>
                        <g id="s1gs1gep" class="stem">
                           <rect x="8254" y="2212" height="602" width="18" />
                           <g id="f2dzibd" class="flag">
                              <use xlink:href="#E241-1lkivq0" x="8254" y="2814" height="720px" width="720px" />
                           </g>
                        </g>
                        <g id="vzsae54" class="verse">
                           <g id="s1vapvy0" class="syl">
                              <text x="8164" y="3546" font-size="0px">
                                 <tspan id="tbuvtza" class="text">
                                    <tspan font-size="405px" class="text">was</tspan>
                                 </tspan>
                              </text>
                           </g>
                        </g>
                     </g>
                     <g id="nmwg3ju" class="note">
                        <g class="notehead">
                           <use xlink:href="#E0A4-1lkivq0" x="9077" y="2274" height="720px" width="720px" />
                        </g>
                        <g id="s17mnagi" class="stem">
                           <rect x="9077" y="2302" height="602" width="18" />
                           <g id="f1wablz8" class="flag">
                              <use xlink:href="#E241-1lkivq0" x="9077" y="2904" height="720px" width="720px" />
                           </g>
                        </g>
                        <g id="vxdkbdj" class="verse">
                           <g id="scpcf65" class="syl">
                              <text x="8987" y="3546" font-size="0px">
                                 <tspan id="t9lhoyr" class="text">
                                    <tspan font-size="405px" class="text">ma</tspan>
                                 </tspan>
                              </text>
                           </g>
                        </g>
                     </g>
                     <g id="n1s8zpsv" class="note">
                        <g class="notehead">
                           <use xlink:href="#E0A4-1lkivq0" x="9767" y="2364" height="720px" width="720px" />
                        </g>
                        <g id="s2c1k4e" class="stem">
                           <rect x="9767" y="2392" height="602" width="18" />
                           <g id="f1lo7fln" class="flag">
                              <use xlink:href="#E241-1lkivq0" x="9767" y="2994" height="720px" width="720px" />
                           </g>
                        </g>
                        <g id="v16ilep5" class="verse">
                           <g id="s1kjdmmy" class="syl">
                              <text x="9677" y="3546" font-size="0px">
                                 <tspan id="t19t93jc" class="text">
                                    <tspan font-size="405px" class="text">zad</tspan>
                                 </tspan>
                              </text>
                           </g>
                        </g>
                     </g>
                     <g id="n7u99jy" class="note">
                        <g class="notehead">
                           <use xlink:href="#E0A4-1lkivq0" x="10534" y="2454" height="720px" width="720px" />
                        </g>
                        <g id="swyfuno" class="stem">
                           <rect x="10534" y="2482" height="602" width="18" />
                           <g id="fk76pwl" class="flag">
                              <use xlink:href="#E241-1lkivq0" x="10534" y="3084" height="720px" width="720px" />
                           </g>
                        </g>
                        <g id="v1878vvg" class="verse">
                           <g id="s6cujq9" class="syl">
                              <text x="10444" y="3546" font-size="0px">
                                 <tspan id="t1j0e0rb" class="text">
                                    <tspan font-size="405px" class="text">ha</tspan>
                                 </tspan>
                              </text>
                           </g>
                        </g>
                     </g>
                     <g id="n1rbdl7e" class="note">
                        <g class="notehead">
                           <use xlink:href="#E0A4-1lkivq0" x="11102" y="2274" height="720px" width="720px" />
                        </g>
                        <g id="s1ojy6i4" class="stem">
                           <rect x="11102" y="2302" height="602" width="18" />
                           <g id="fo2w1nj" class="flag">
                              <use xlink:href="#E241-1lkivq0" x="11102" y="2904" height="720px" width="720px" />
                           </g>
                        </g>
                        <g id="v1emyb9v" class="verse">
                           <g id="s154zvlw" class="syl">
                              <text x="11007" y="3546" font-size="0px">
                                 <tspan id="t1slfsh" class="text">
                                    <tspan font-size="405px" class="text">ma</tspan>
                                 </tspan>
                              </text>
                           </g>
                        </g>
                     </g>
                     <g id="nzpos2j" class="note">
                        <g class="notehead">
                           <use xlink:href="#E0A4-1lkivq0" x="11787" y="2364" height="720px" width="720px" />
                        </g>
                        <g id="s10gbxgb" class="stem">
                           <rect x="11787" y="2392" height="602" width="18" />
                        </g>
                        <g id="vn9xdw6" class="verse">
                           <g id="ss8se3u" class="syl">
                              <text x="11697" y="3546" font-size="0px">
                                 <tspan id="t15gs6ia" class="text">
                                    <tspan font-size="405px" class="text">mam;</tspan>
                                 </tspan>
                              </text>
                           </g>
                        </g>
                     </g>
                     <g id="r1bjtzu" class="rest">
                        <use xlink:href="#E4E6-1lkivq0" x="12657" y="2634" height="720px" width="720px" />
                     </g>
                  </g>
               </g>
               <g id="byotbzy" class="barLine">
                  <path d="M13224 2274 L13224 2994" stroke="currentColor" stroke-width="27" />
               </g>
            </g>
            <g id="mw630ki" class="measure">
               <g id="s1v8uyti" class="staff">
                  <path d="M13237 2274 L20003 2274" stroke="currentColor" stroke-width="13" />
                  <path d="M13237 2454 L20003 2454" stroke="currentColor" stroke-width="13" />
                  <path d="M13237 2634 L20003 2634" stroke="currentColor" stroke-width="13" />
                  <path d="M13237 2814 L20003 2814" stroke="currentColor" stroke-width="13" />
                  <path d="M13237 2994 L20003 2994" stroke="currentColor" stroke-width="13" />
                  <g id="lh8usc0" class="layer">
                     <g id="nol1z79" class="note">
                        <g class="notehead">
                           <use xlink:href="#E0A4-1lkivq0" x="13443" y="2364" height="720px" width="720px" />
                        </g>
                        <g id="s1afp73n" class="stem">
                           <rect x="13443" y="2392" height="602" width="18" />
                           <g id="fbzdops" class="flag">
                              <use xlink:href="#E241-1lkivq0" x="13443" y="2994" height="720px" width="720px" />
                           </g>
                        </g>
                        <g id="v7ozixd" class="verse">
                           <g id="skw1dko" class="syl">
                              <text x="13353" y="3546" font-size="0px">
                                 <tspan id="tg700cz" class="text">
                                    <tspan font-size="405px" class="text">O</tspan>
                                 </tspan>
                              </text>
                              <rect x="13709" y="3443" height="22" width="108" />
                           </g>
                        </g>
                     </g>
                     <g id="n7ry3x8" class="note">
                        <g class="notehead">
                           <use xlink:href="#E0A4-1lkivq0" x="14011" y="2364" height="720px" width="720px" />
                        </g>
                        <g id="s16jwqip" class="stem">
                           <rect x="14011" y="2392" height="602" width="18" />
                           <g id="ffsyk45" class="flag">
                              <use xlink:href="#E241-1lkivq0" x="14011" y="2994" height="720px" width="720px" />
                           </g>
                        </g>
                        <g id="vqjose1" class="verse">
                           <g id="sse256w" class="syl">
                              <text x="13907" y="3546" font-size="0px">
                                 <tspan id="tcjhlf0" class="text">
                                    <tspan font-size="405px" class="text">bli</tspan>
                                 </tspan>
                              </text>
                              <rect x="14435" y="3443" height="22" width="108" />
                           </g>
                        </g>
                     </g>
                     <g id="nd8md4z" class="note">
                        <g class="notehead">
                           <use xlink:href="#E0A4-1lkivq0" x="14732" y="2364" height="720px" width="720px" />
                        </g>
                        <g id="sf60gay" class="stem">
                           <rect x="14732" y="2392" height="602" width="18" />
                           <g id="f1d7xzm7" class="flag">
                              <use xlink:href="#E241-1lkivq0" x="14732" y="2994" height="720px" width="720px" />
                           </g>
                        </g>
                        <g id="v1ao17a3" class="verse">
                           <g id="sye6nkq" class="syl">
                              <text x="14642" y="3546" font-size="0px">
                                 <tspan id="tswqvhm" class="text">
                                    <tspan font-size="405px" class="text">jet</tspan>
                                 </tspan>
                              </text>
                           </g>
                        </g>
                     </g>
                     <g id="n1nk8pls" class="note">
                        <g class="notehead">
                           <use xlink:href="#E0A4-1lkivq0" x="15320" y="2274" height="720px" width="720px" />
                        </g>
                        <g id="syqp870" class="stem">
                           <rect x="15320" y="2302" height="602" width="18" />
                           <g id="f1ohq85c" class="flag">
                              <use xlink:href="#E241-1lkivq0" x="15320" y="2904" height="720px" width="720px" />
                           </g>
                        </g>
                        <g id="v1x5czwi" class="verse">
                           <g id="s17ceki9" class="syl">
                              <text x="15230" y="3546" font-size="0px">
                                 <tspan id="t7jxl4h" class="text">
                                    <tspan font-size="405px" class="text">'oan</tspan>
                                 </tspan>
                              </text>
                           </g>
                        </g>
                     </g>
                     <g id="n1fht88m" class="note">
                        <g class="notehead">
                           <use xlink:href="#E0A4-1lkivq0" x="16197" y="2454" height="720px" width="720px" />
                        </g>
                        <g id="s1dmhjxz" class="stem">
                           <rect x="16197" y="2482" height="602" width="18" />
                        </g>
                        <g id="v5t1eyw" class="verse">
                           <g id="s1e3547x" class="syl">
                              <text x="16107" y="3546" font-size="0px">
                                 <tspan id="t147dew5" class="text">
                                    <tspan font-size="405px" class="text">da</tspan>
                                 </tspan>
                              </text>
                           </g>
                        </g>
                     </g>
                     <g id="n10805m2" class="note">
                        <g class="notehead">
                           <use xlink:href="#E0A4-1lkivq0" x="17067" y="2364" height="720px" width="720px" />
                        </g>
                        <g id="sbb87wc" class="stem">
                           <rect x="17067" y="2392" height="602" width="18" />
                           <g id="f1mh4knf" class="flag">
                              <use xlink:href="#E241-1lkivq0" x="17067" y="2994" height="720px" width="720px" />
                           </g>
                        </g>
                        <g id="v1e9tq20" class="verse">
                           <g id="s147fg67" class="syl">
                              <text x="16707" y="3546" font-size="0px">
                                 <tspan id="tg3niq6" class="text">
                                    <tspan font-size="405px" class="text">glask</tspan>
                                 </tspan>
                              </text>
                           </g>
                        </g>
                     </g>
                     <g id="njxrcmu" class="note">
                        <g class="notehead">
                           <use xlink:href="#E0A4-1lkivq0" x="17862" y="2454" height="720px" width="720px" />
                        </g>
                        <g id="snbsmjf" class="stem">
                           <rect x="17862" y="2482" height="602" width="18" />
                           <g id="f1nvrxbx" class="flag">
                              <use xlink:href="#E241-1lkivq0" x="17862" y="3084" height="720px" width="720px" />
                           </g>
                        </g>
                        <g id="vpexdfe" class="verse">
                           <g id="s20162n" class="syl">
                              <text x="17772" y="3546" font-size="0px">
                                 <tspan id="t1d79uyk" class="text">
                                    <tspan font-size="405px" class="text">ma</tspan>
                                 </tspan>
                              </text>
                           </g>
                        </g>
                     </g>
                     <g id="nrcpi04" class="note">
                        <g class="notehead">
                           <use xlink:href="#E0A4-1lkivq0" x="18553" y="2544" height="720px" width="720px" />
                        </g>
                        <g id="s10t8rmv" class="stem">
                           <rect x="18553" y="2572" height="602" width="18" />
                        </g>
                        <g id="vx2ejxt" class="verse">
                           <g id="s4pnt3v" class="syl">
                              <text x="18463" y="3546" font-size="0px">
                                 <tspan id="t514mqq" class="text">
                                    <tspan font-size="405px" class="text">boed,</tspan>
                                 </tspan>
                              </text>
                           </g>
                        </g>
                     </g>
                     <g id="r3fjmzk" class="rest">
                        <use xlink:href="#E4E6-1lkivq0" x="19423" y="2634" height="720px" width="720px" />
                     </g>
                  </g>
               </g>
               <g id="b12jlxg6" class="barLine">
                  <path d="M19990 2274 L19990 2994" stroke="currentColor" stroke-width="27" />
               </g>
            </g>
         </g>
         <g id="s1p28bjw" class="system">
            <g id="m9jfrwz" class="measure">
               <g id="m159qeh1" class="mNum autogenerated">
                  <text x="0" y="4371" text-anchor="middle" font-size="0px">
                     <tspan id="t131cqgx" class="text">
                        <tspan font-size="324px" class="text">5</tspan>
                     </tspan>
                  </text>
               </g>
               <g id="s139brdv" class="staff">
                  <path d="M0 4614 L6558 4614" stroke="currentColor" stroke-width="13" />
                  <path d="M0 4794 L6558 4794" stroke="currentColor" stroke-width="13" />
                  <path d="M0 4974 L6558 4974" stroke="currentColor" stroke-width="13" />
                  <path d="M0 5154 L6558 5154" stroke="currentColor" stroke-width="13" />
                  <path d="M0 5334 L6558 5334" stroke="currentColor" stroke-width="13" />
                  <g id="clxzcg8" class="clef">
                     <use xlink:href="#E050-1lkivq0" x="90" y="5154" height="720px" width="720px" />
                  </g>
                  <g id="kjkraj5" class="keySig" />
                  <g id="lgkspiu" class="layer">
                     <g id="n1mc6wpr" class="note">
                        <g class="notehead">
                           <use xlink:href="#E0A4-1lkivq0" x="825" y="4794" height="720px" width="720px" />
                        </g>
                        <g id="s467ze3" class="stem">
                           <rect x="825" y="4822" height="602" width="18" />
                           <g id="f1qciinr" class="flag">
                              <use xlink:href="#E241-1lkivq0" x="825" y="5424" height="720px" width="720px" />
                           </g>
                        </g>
                        <g id="vjh8esi" class="verse">
                           <g id="s1fa0epz" class="syl">
                              <text x="735" y="5886" font-size="0px">
                                 <tspan id="tbu728j" class="text">
                                    <tspan font-size="405px" class="text">Ka</tspan>
                                 </tspan>
                              </text>
                              <rect x="1249" y="5783" height="22" width="108" />
                           </g>
                        </g>
                     </g>
                     <g id="na2uy8c" class="note">
                        <g class="notehead">
                           <use xlink:href="#E0A4-1lkivq0" x="1501" y="4794" height="720px" width="720px" />
                        </g>
                        <g id="scofa2" class="stem">
                           <rect x="1501" y="4822" height="602" width="18" />
                           <g id="f18nethw" class="flag">
                              <use xlink:href="#E241-1lkivq0" x="1501" y="5424" height="720px" width="720px" />
                           </g>
                        </g>
                        <g id="v1f50hdr" class="verse">
                           <g id="s1suanrh" class="syl">
                              <text x="1411" y="5886" font-size="0px">
                                 <tspan id="tgxnmdn" class="text">
                                    <tspan font-size="405px" class="text">pabl</tspan>
                                 </tspan>
                              </text>
                           </g>
                        </g>
                     </g>
                     <g id="n1mzobrx" class="note">
                        <g class="notehead">
                           <use xlink:href="#E0A4-1lkivq0" x="2308" y="4974" height="720px" width="720px" />
                        </g>
                        <g id="s1iotp62" class="stem">
                           <rect x="2308" y="5002" height="572" width="18" />
                           <g id="f1pogbqy" class="flag">
                              <use xlink:href="#E241-1lkivq0" x="2308" y="5574" height="720px" width="720px" />
                           </g>
                        </g>
                        <g id="v15rej5j" class="verse">
                           <g id="s14zzwyp" class="syl">
                              <text x="2218" y="5886" font-size="0px">
                                 <tspan id="t8y7gwb" class="text">
                                    <tspan font-size="405px" class="text">d'hen</tspan>
                                 </tspan>
                              </text>
                           </g>
                        </g>
                     </g>
                     <g id="n1draiop" class="note">
                        <g class="notehead">
                           <use xlink:href="#E0A4-1lkivq0" x="3278" y="4884" height="720px" width="720px" />
                        </g>
                        <g id="s12xi1fy" class="stem">
                           <rect x="3278" y="4912" height="602" width="18" />
                           <g id="f1q1mz3c" class="flag">
                              <use xlink:href="#E241-1lkivq0" x="3278" y="5514" height="720px" width="720px" />
                           </g>
                        </g>
                        <g id="v1dsk6ss" class="verse">
                           <g id="s1svg9xu" class="syl">
                              <text x="3188" y="5886" font-size="0px">
                                 <tspan id="tng4gl6" class="text">
                                    <tspan font-size="405px" class="text">go</tspan>
                                 </tspan>
                              </text>
                              <rect x="3648" y="5783" height="22" width="108" />
                           </g>
                        </g>
                     </g>
                     <g id="n16ae0tx" class="note">
                        <g class="notehead">
                           <use xlink:href="#E0A4-1lkivq0" x="3900" y="4794" height="720px" width="720px" />
                        </g>
                        <g id="s5l0to5" class="stem">
                           <rect x="3900" y="4822" height="602" width="18" />
                           <g id="fq9yolh" class="flag">
                              <use xlink:href="#E241-1lkivq0" x="3900" y="5424" height="720px" width="720px" />
                           </g>
                        </g>
                        <g id="v2ayebj" class="verse">
                           <g id="s1ilstmw" class="syl">
                              <text x="3810" y="5886" font-size="0px">
                                 <tspan id="t12zipgr" class="text">
                                    <tspan font-size="405px" class="text">nit</tspan>
                                 </tspan>
                              </text>
                           </g>
                        </g>
                     </g>
                     <g id="n1ytw1ya" class="note">
                        <g class="notehead">
                           <use xlink:href="#E0A4-1lkivq0" x="4437" y="4704" height="720px" width="720px" />
                        </g>
                        <g id="s1u4b7ha" class="stem">
                           <rect x="4437" y="4732" height="602" width="18" />
                           <g id="fd27u5t" class="flag">
                              <use xlink:href="#E241-1lkivq0" x="4437" y="5334" height="720px" width="720px" />
                           </g>
                        </g>
                        <g id="v1hnjzz7" class="verse">
                           <g id="s1pvsjml" class="syl">
                              <text x="4347" y="5886" font-size="0px">
                                 <tspan id="t1js1o22" class="text">
                                    <tspan font-size="405px" class="text">ne</tspan>
                                 </tspan>
                              </text>
                           </g>
                        </g>
                     </g>
                     <g id="nm35ntd" class="note">
                        <g class="notehead">
                           <use xlink:href="#E0A4-1lkivq0" x="4933" y="4884" height="720px" width="720px" />
                        </g>
                        <g id="s1xgty7" class="stem">
                           <rect x="4933" y="4912" height="602" width="18" />
                           <g id="f1irbtwk" class="flag">
                              <use xlink:href="#E241-1lkivq0" x="4933" y="5514" height="720px" width="720px" />
                           </g>
                        </g>
                        <g id="vmtwkd8" class="verse">
                           <g id="s35ywa0" class="syl">
                              <text x="4838" y="5886" font-size="0px">
                                 <tspan id="t1sxdbjm" class="text">
                                    <tspan font-size="405px" class="text">oan</tspan>
                                 </tspan>
                              </text>
                           </g>
                        </g>
                     </g>
                     <g id="n1ib2f9g" class="note">
                        <g class="notehead">
                           <use xlink:href="#E0A4-1lkivq0" x="5622" y="4794" height="720px" width="720px" />
                        </g>
                        <g id="smrx0r0" class="stem">
                           <rect x="5622" y="4822" height="602" width="18" />
                        </g>
                        <g id="vn60iey" class="verse">
                           <g id="snje27z" class="syl">
                              <text x="5532" y="5886" font-size="0px">
                                 <tspan id="t1qta72s" class="text">
                                    <tspan font-size="405px" class="text">ket.</tspan>
                                 </tspan>
                              </text>
                           </g>
                        </g>
                     </g>
                  </g>
               </g>
               <g id="bg3fliq" class="barLine">
                  <path d="M6383 4614 L6383 5334" stroke="currentColor" stroke-width="27" />
                  <path d="M6513 4614 L6513 5334" stroke="currentColor" stroke-width="90" />
               </g>
            </g>
            <g id="s1dopoks" class="systemMilestoneEnd s1qy6rcs" />
         </g>
         <g id="p1dgc52i" class="pageMilestoneEnd s1cfeeu9" />
         <g id="p3wrxup" class="pageMilestoneEnd m1i3x5ey" />
         <g id="p1x11mho" class="pgHead autogenerated">
            <text x="0" y="0" font-size="0px">
               <tspan id="rhges3" class="rend" x="10000" y="414" text-anchor="middle">
                  <title class="labelAttr">title</title>
                  <tspan id="r1sqlvpf" class="rend">
                     <tspan id="tt1syn6" class="text">
                        <tspan font-size="607px" class="text">Ar Vinorezig</tspan>
                     </tspan>
                  </tspan>
               </tspan>
            </text>
            <text x="0" y="0" font-size="0px">
               <tspan id="rck35fy" class="rend" x="20000" y="824" text-anchor="end">
                  <title class="labelAttr">composer</title>
                  <tspan id="t1bjeepf" class="text">
                     <tspan font-size="405px" class="text">Collecté par Francois-Marie Luzel, 1913</tspan>
                  </tspan>
               </tspan>
            </text>
         </g>
         <g id="p1dtig0j" class="pgFoot autogenerated">
            <g id="fban9ng" class="fig">
               <g id="siwpy6x" class="svg" transform="translate(7750, 28099) scale(10, 10)">
                  <g>
                     <path fill="#00000" d="M 17.11278,49.26451 V 10.367554 h 12.696511 c 3.288815,7.336676 6.71267,14.610456 10.127281,21.888976 3.419998,-7.484684 6.255515,-14.204887 9.58887,-21.909915 2.436207,0.103726 4.316952,0.08453 6.484294,-0.05808 V 49.264423 H 50.274275 C 50.145222,38.35639 50.016136,27.448368 49.887066,16.540329 45.003488,27.315459 39.967448,38.433564 35.083854,49.208695 34.678996,49.343717 34.426583,49.135619 34.021726,49.270644 29.46588,39.330716 24.910049,29.390805 20.354201,19.450876 20.224341,29.388756 20.09461,39.326619 19.964815,49.264497 H 17.11278 Z M 36.754144,39.324695 C 32.721221,30.512695 28.6883,21.700679 24.655394,12.888662 22.530527,12.750737 22.656775,12.71031 20.714356,12.813974 v 0.966497 c 4.612938,9.99784 9.609439,20.748709 13.87298,30.081745 0.722248,-1.512523 1.444528,-3.025014 2.166808,-4.537521 z m 25.738417,9.939815 c 0,-12.965651 0,-25.931305 0,-38.896956 10.084388,0 20.168791,0 30.253178,0 0,0.960416 0,1.920849 0,2.881265 -6.482825,0 -12.965652,0 -19.448478,0 0,4.802097 0,9.604178 0,14.406277 5.52241,0 11.044819,0 16.567229,0 0,0.960415 0,1.920832 0,2.881248 -5.52241,0 -11.044819,0 -16.567229,0 0,5.282306 0,10.564611 0,15.846917 6.963035,0 13.926068,0 20.889103,0 0,0.960416 0,1.920832 0,2.881249 -10.564597,0 -21.129207,0 -31.693803,0 z m 4.321874,-2.160937 c 0,-11.765131 0,-23.530263 0,-35.295394 -0.720312,0 -1.440625,0 -2.160937,0 0,11.765131 0,23.530263 0,35.295394 0.720312,0 1.440625,0 2.160937,0 z m 32.41413,2.160937 c 0,-12.965651 0,-25.931305 0,-38.896956 2.401045,0 4.802095,0 7.203135,0 0,12.965651 0,25.931305 0,38.896956 -2.40104,0 -4.80209,0 -7.203135,0 z m 2.881265,-2.160937 c 0,-11.765131 0,-23.530263 0,-35.295394 -0.72031,0 -1.44064,0 -2.160953,0 0,11.765131 0,23.530263 0,35.295394 0.720313,0 1.440643,0 2.160953,0 z" />
                     <path fill="#00000" d="m 346.3,6.7 c -3.1,0.5 -4.9,4.4 -2.7,6.8 1.2,1.4 2.7,2.4 4.1,3.5 -2.4,5.3 -7.7,8.3 -11.9,12.1 -3.7,2.8 -7,6.2 -9.7,9.9 -2.2,-0.8 -0.3,-6.8 -0.6,-9.5 0.1,-3.1 0.7,-6.4 2.9,-8.7 1.3,-1.9 3,-3.5 4.5,-5.2 1.2,-3.4 -3.2,-4.9 -5.8,-4.6 -7.3,-0.5 -14.6,2 -20,6.8 -5,4.6 -10,10.1 -11.5,17 -0.9,3.5 -0.2,7.5 2.8,9.9 2.5,2.8 7.4,2.9 9.8,-0.2 1.7,-2.3 3.2,-4.8 3.8,-7.6 -0.1,-2.6 -4.4,-2.3 -4.3,0.2 1.2,2.4 -0.9,4.7 -2.7,6.2 -1.7,0.9 -4.7,0.7 -4.8,-1.7 -1,-5.8 2.1,-11.3 5.2,-16.1 4,-5.8 9.8,-11.2 17.2,-11.8 1.6,0 8.1,-1.2 6.8,1.4 -2.8,2.8 -5.6,6.1 -6,10.3 -1.6,7.7 0.1,15.7 -2.3,23.2 -1.1,3.9 2,2.6 2.5,0.2 3.3,-7.4 8.9,-13.4 15.1,-18.5 4.2,-3.9 9.5,-7.1 11.9,-12.6 1.3,-3.6 1.2,-9 -2.7,-10.9 -0.6,-0.2 -1.2,-0.3 -1.8,-0.3 z m 66,14.5 c -2,0.8 -1.8,4.9 0.8,4.4 3.4,0.4 2.9,-6.2 -0.8,-4.4 z m 0.6,7.3 c -1.3,0.5 -7.6,0.5 -5.4,2.2 4,-0.3 0.7,4.5 0.6,6.7 -0.4,2.9 -2.4,5.9 -1.2,8.8 2.7,1.7 5.6,-0.8 6.8,-3.2 1.6,-1.4 -0.5,-3 -1.2,-0.9 -0.4,0.8 -2.4,3.5 -2.6,1.8 1.1,-5 2.7,-9.9 3.9,-14.9 l -0.1,-0.5 h -0.9 z m -65.1,0.2 c -6.5,1.6 -10.5,9.5 -8.2,15.7 2.1,3.4 7.4,2.9 10.1,0.4 2,-0.2 3.6,-5.3 1,-3.4 -1.4,2 -4,4.2 -6.5,2.8 -2.2,-1.9 -1.9,-5.7 1.7,-5.3 3.1,-0.9 6.9,-2.1 8.1,-5.5 0.9,-2.7 -1.6,-5.2 -4.3,-4.8 h -1.1 -0.7 z m 13.6,0 c -2.2,0 -8.5,1.8 -2.9,2.3 0.9,1.9 -1,4.9 -1.1,7.2 -0.5,2.9 -1.4,5.7 -1.7,8.7 3.7,0.7 3.8,-2.6 4.4,-5.3 0.9,-3.3 1.6,-7 4.1,-9.5 2.4,1.6 6.8,-0.7 3.7,-3.4 -2.9,-0.5 -4.8,2.4 -6.2,4.3 0,-1.2 2.4,-5 -0.2,-4.3 z m 15.8,0 c -6.4,1.3 -9.6,9.1 -7.7,14.9 1.9,4 7.7,3.9 11,1.7 4.1,-3 6,-8.9 4.4,-13.7 -1.3,-3 -4.8,-3.2 -7.6,-3 z m 17,0 c -2.3,0 -8.8,1.9 -3,2.4 0.4,2.5 -1,5.7 -1.4,8.4 -0.7,2.4 -1.8,7.5 2.1,7.2 3.8,-0.1 6.5,-3.5 8.5,-6.3 2,-3.2 4.5,-7 3.3,-10.9 -3.7,-3 -3.6,2.6 -3.1,5.1 -0.7,3.8 -2.7,7.9 -6.2,9.8 -3.6,0.6 -1,-4.3 -0.8,-6.1 0.6,-3.2 1.6,-6.3 1.9,-9.5 -0.4,0 -0.8,0 -1.1,0 z m 30.6,0 c -6.3,1.2 -9.5,8.9 -7.8,14.7 1.5,4 7.2,4.2 10.5,2.4 4.6,-2.8 6.6,-9.3 4.8,-14.3 -1.4,-2.8 -4.8,-3 -7.5,-2.8 z m -75.4,1.7 c 2.1,1.5 0.2,4.7 -1.6,5.7 -1.1,0.4 -5.5,3.4 -4.6,0.7 0.8,-2.7 2.2,-6.2 5.3,-6.6 l 0.9,0.1 z m 30.8,0 c 2.6,1.5 1.3,5.2 0.8,7.6 -0.8,2.7 -1.9,5.9 -4.7,7.1 -5.1,0.8 -4,-5.8 -2.8,-8.8 1,-2.8 3,-6.8 6.7,-5.8 z m 47.1,-0.1 c 2.9,0.7 2,4.7 1.5,6.8 -0.7,3 -1.8,6.7 -5,8 -4.7,0.8 -4,-5.1 -3,-7.9 0.9,-3 2.7,-7.3 6.5,-6.8 z m -88.1,5.9 c -0.3,1.3 0.9,-0.6 0,0 z m -1.1,2.4 c -0.2,0.5 0.5,-0.1 0,0 z m -1.3,4.5 c -0.3,1.3 0.8,-0.2 0,0 z" />
                     <text y="41" x="201" fill="#00000" style="font-style:italic;font-weight:normal;font-size:30px;line-height:125%;font-family:Times;text-anchor:middle" xml:space="preserve">engraved with</text>
                  </g>
               </g>
            </g>
         </g>
      </g>
   </svg>
</svg>
