<?xml version="1.0" encoding="UTF-8" standalone="no"?>
<svg width="2100px" height="2970px" version="1.1" xmlns="http://www.w3.org/2000/svg" xmlns:xlink="http://www.w3.org/1999/xlink" xmlns:mei="http://www.music-encoding.org/ns/mei" overflow="visible">
   <desc>Engraved by Verovio 3.13.1</desc>
   <defs>
      <symbol id="E050-1fcmvx0" viewBox="0 0 1000 1000" overflow="inherit">
         <path transform="scale(1,-1)" d="M441 -245c-23 -4 -48 -6 -76 -6c-59 0 -102 7 -130 20c-88 42 -150 93 -187 154c-26 44 -43 103 -48 176c0 6 -1 13 -1 19c0 54 15 111 45 170c29 57 65 106 110 148s96 85 153 127c-3 16 -8 46 -13 92c-4 43 -5 73 -5 89c0 117 16 172 69 257c34 54 64 82 89 82 c21 0 43 -30 69 -92s39 -115 41 -159v-15c0 -109 -21 -162 -67 -241c-13 -20 -63 -90 -98 -118c-13 -9 -25 -19 -37 -29l31 -181c8 1 18 2 28 2c58 0 102 -12 133 -35c59 -43 92 -104 98 -184c1 -7 1 -15 1 -22c0 -123 -87 -209 -181 -248c8 -57 17 -110 25 -162 c5 -31 6 -58 6 -80c0 -30 -5 -53 -14 -70c-35 -64 -88 -99 -158 -103c-5 0 -11 -1 -16 -1c-37 0 -72 10 -108 27c-50 24 -77 59 -80 105v11c0 29 7 55 20 76c18 28 45 42 79 44h6c49 0 93 -42 97 -87v-9c0 -51 -34 -86 -105 -106c17 -24 51 -36 102 -36c62 0 116 43 140 85 c9 16 13 41 13 74c0 20 -1 42 -5 67c-8 53 -18 106 -26 159zM461 939c-95 0 -135 -175 -135 -286c0 -24 2 -48 5 -71c50 39 92 82 127 128c40 53 60 100 60 140v8c-4 53 -22 81 -55 81h-2zM406 119l54 -326c73 25 110 78 110 161c0 7 0 15 -1 23c-7 95 -57 142 -151 142h-12 zM382 117c-72 -2 -128 -47 -128 -120v-7c2 -46 43 -99 75 -115c-3 -2 -7 -5 -10 -10c-70 33 -116 88 -123 172v11c0 68 44 126 88 159c23 17 49 29 78 36l-29 170c-21 -13 -52 -37 -92 -73c-50 -44 -86 -84 -109 -119c-45 -69 -67 -130 -67 -182v-13c5 -68 35 -127 93 -176 s125 -73 203 -73c25 0 50 3 75 9c-19 111 -36 221 -54 331z" />
      </symbol>
      <symbol id="E084-1fcmvx0" viewBox="0 0 1000 1000" overflow="inherit">
         <path transform="scale(1,-1)" d="M20 -78c84 97 114 180 134 329h170c-13 -32 -82 -132 -99 -151l-84 -97c-33 -36 -59 -63 -80 -81h162v102l127 123v-225h57v-39h-57v-34c0 -43 19 -65 57 -65v-34h-244v36c48 0 60 26 60 70v27h-203v39z" />
      </symbol>
      <symbol id="E0A4-1fcmvx0" viewBox="0 0 1000 1000" overflow="inherit">
         <path transform="scale(1,-1)" d="M0 -39c0 68 73 172 200 172c66 0 114 -37 114 -95c0 -84 -106 -171 -218 -171c-64 0 -96 30 -96 94z" />
      </symbol>
      <symbol id="E241-1fcmvx0" viewBox="0 0 1000 1000" overflow="inherit">
         <path transform="scale(1,-1)" d="M179 646c-4 8 -17 30 -18 33l-4 10c0 3 2 5 5 5s7 -2 13 -7c23 -33 46 -81 66 -132c22 -57 35 -125 35 -163c0 -104 -60 -183 -122 -241c-63 -59 -57 -53 -61 -56c-38 -34 -63 -95 -71 -95h-22v190c40 7 69 11 87 16c88 27 168 95 168 200c0 30 -12 89 -30 138 c-17 47 -31 73 -46 102z" />
      </symbol>
      <symbol id="E4E6-1fcmvx0" viewBox="0 0 1000 1000" overflow="inherit">
         <path transform="scale(1,-1)" d="M0 123c7 34 33 56 69 60c29 -3 43 -9 53 -29c4 -8 7 -15 10 -22c0 -21 -1 -25 -11 -35c-5 -8 -18 -14 -40 -20l12 -3l15 -1c44 0 97 26 122 56c10 11 18 26 24 42c7 1 15 2 22 3l-140 -424h-36l111 330c-10 -6 -27 -12 -53 -16l-52 -8h-10l-20 1c-1 0 -8 3 -21 6 c-37 9 -55 28 -55 60z" />
      </symbol>
   </defs>
   <style type="text/css">g.page-margin{font-family:Times;} g.ending, g.fing, g.reh, g.tempo{font-weight:bold;} g.dir, g.dynam, g.mNum{font-style:italic;} g.label{font-weight:normal;}</style>
   <svg class="definition-scale" color="black" viewBox="0 0 21000 29700">
      <g class="page-margin" transform="translate(500, 500)">
         <g id="mglsb65" class="mdiv pageMilestone" />
         <g id="s1bn4r5p" class="score pageMilestone" />
         <g id="s1n3utk1" class="system">
            <g id="slfac29" class="section systemMilestone" />
            <g id="m19hc46v" class="measure">
               <g id="s1q6hdm3" class="staff">
                  <path d="M0 2274 L1890 2274" stroke="currentColor" stroke-width="13" />
                  <path d="M0 2454 L1890 2454" stroke="currentColor" stroke-width="13" />
                  <path d="M0 2634 L1890 2634" stroke="currentColor" stroke-width="13" />
                  <path d="M0 2814 L1890 2814" stroke="currentColor" stroke-width="13" />
                  <path d="M0 2994 L1890 2994" stroke="currentColor" stroke-width="13" />
                  <g id="co7z7ek" class="clef">
                     <use xlink:href="#E050-1fcmvx0" x="90" y="2814" height="720px" width="720px" />
                  </g>
                  <g id="kwx9wba" class="keySig" />
                  <g id="m1ew2n4i" class="meterSig">
                     <use xlink:href="#E084-1fcmvx0" x="721" y="2454" height="720px" width="720px" />
                     <use xlink:href="#E084-1fcmvx0" x="721" y="2814" height="720px" width="720px" />
                  </g>
                  <g id="l1ter7mu" class="layer">
                     <g id="n1oan80r" class="note">
                        <g class="notehead">
                           <use xlink:href="#E0A4-1fcmvx0" x="1309" y="2454" height="720px" width="720px" />
                        </g>
                        <g id="smgxj96" class="stem">
                           <rect x="1309" y="2482" height="602" width="18" />
                           <g id="f1jk4c8k" class="flag">
                              <use xlink:href="#E241-1fcmvx0" x="1309" y="3084" height="720px" width="720px" />
                           </g>
                        </g>
                        <g id="v1dcrcvu" class="verse">
                           <g id="s17e84dg" class="syl">
                              <text x="1219" y="3546" font-size="0px">
                                 <tspan id="t81equi" class="text">
                                    <tspan font-size="405px" class="text">Me</tspan>
                                 </tspan>
                              </text>
                           </g>
                        </g>
                     </g>
                  </g>
               </g>
               <g id="t1cbbolx" class="tempo" xml:lang="it">
                  <text x="747" y="1366" font-size="0px">
                     <tspan id="r1ikczft" class="rend" font-weight="bold">
                        <tspan id="t1pc70n6" class="text">
                           <tspan font-size="405px" class="text">M. M. </tspan>
                        </tspan>
                     </tspan>
                     <tspan id="l1r11ao8" class="lb" />
                     <tspan id="r1f9pvan" class="rend">
                        <tspan id="t1sav0wn" class="text" x="747" y="1756">
                           <tspan font-size="405px" class="text"></tspan>
                        </tspan>
                     </tspan>
                     <tspan id="l18w2u4z" class="lb" />
                     <tspan id="r4ynz6t" class="rend">
                        <tspan id="t1j7q1z6" class="text" x="747" y="2146">
                           <tspan font-size="405px" class="text"> = SS</tspan>
                        </tspan>
                     </tspan>
                  </text>
               </g>
               <g id="b1ry4rz6" class="barLine">
                  <path d="M1877 2274 L1877 2994" stroke="currentColor" stroke-width="27" />
               </g>
            </g>
            <g id="mh2t9df" class="measure">
               <g id="s19q9r33" class="staff">
                  <path d="M1890 2274 L8048 2274" stroke="currentColor" stroke-width="13" />
                  <path d="M1890 2454 L8048 2454" stroke="currentColor" stroke-width="13" />
                  <path d="M1890 2634 L8048 2634" stroke="currentColor" stroke-width="13" />
                  <path d="M1890 2814 L8048 2814" stroke="currentColor" stroke-width="13" />
                  <path d="M1890 2994 L8048 2994" stroke="currentColor" stroke-width="13" />
                  <g id="lspflr8" class="layer">
                     <g id="n1s1itdc" class="note">
                        <g class="notehead">
                           <use xlink:href="#E0A4-1fcmvx0" x="2096" y="2544" height="720px" width="720px" />
                        </g>
                        <g id="s1jcz304" class="stem">
                           <rect x="2096" y="2572" height="602" width="18" />
                           <g id="f1c1fgm5" class="flag">
                              <use xlink:href="#E241-1fcmvx0" x="2096" y="3174" height="720px" width="720px" />
                           </g>
                        </g>
                        <g id="vci85bu" class="verse">
                           <g id="s1akegjx" class="syl">
                              <text x="1966" y="3546" font-size="0px">
                                 <tspan id="tyr34d1" class="text">
                                    <tspan font-size="405px" class="text">oa'r</tspan>
                                 </tspan>
                              </text>
                           </g>
                        </g>
                     </g>
                     <g id="nq8rlm6" class="note">
                        <g class="notehead">
                           <use xlink:href="#E0A4-1fcmvx0" x="2850" y="2634" height="720px" width="720px" />
                        </g>
                        <g id="sf2p5m0" class="stem">
                           <rect x="2850" y="2662" height="572" width="18" />
                           <g id="fyyiw51" class="flag">
                              <use xlink:href="#E241-1fcmvx0" x="2850" y="3234" height="720px" width="720px" />
                           </g>
                        </g>
                        <g id="v1p1pn3g" class="verse">
                           <g id="s180mkrd" class="syl">
                              <text x="2760" y="3546" font-size="0px">
                                 <tspan id="tqx8tk5" class="text">
                                    <tspan font-size="405px" class="text">bu</tspan>
                                 </tspan>
                              </text>
                              <rect x="3264" y="3443" height="22" width="108" />
                           </g>
                        </g>
                     </g>
                     <g id="n4w1x05" class="note">
                        <g class="notehead">
                           <use xlink:href="#E0A4-1fcmvx0" x="3561" y="2544" height="720px" width="720px" />
                        </g>
                        <g id="s1ab7p1a" class="stem">
                           <rect x="3561" y="2572" height="602" width="18" />
                           <g id="fvbwphl" class="flag">
                              <use xlink:href="#E241-1fcmvx0" x="3561" y="3174" height="720px" width="720px" />
                           </g>
                        </g>
                        <g id="v1vgiowi" class="verse">
                           <g id="s1qiphki" class="syl">
                              <text x="3471" y="3546" font-size="0px">
                                 <tspan id="t1gx3zzw" class="text">
                                    <tspan font-size="405px" class="text">ge</tspan>
                                 </tspan>
                              </text>
                              <rect x="3951" y="3443" height="22" width="108" />
                           </g>
                        </g>
                     </g>
                     <g id="n17s0vnm" class="note">
                        <g class="notehead">
                           <use xlink:href="#E0A4-1fcmvx0" x="4246" y="2454" height="720px" width="720px" />
                        </g>
                        <g id="sdrsqtm" class="stem">
                           <rect x="4246" y="2482" height="602" width="18" />
                           <g id="f860oil" class="flag">
                              <use xlink:href="#E241-1fcmvx0" x="4246" y="3084" height="720px" width="720px" />
                           </g>
                        </g>
                        <g id="vhikp6g" class="verse">
                           <g id="s1oo74w1" class="syl">
                              <text x="4156" y="3546" font-size="0px">
                                 <tspan id="tebak6d" class="text">
                                    <tspan font-size="405px" class="text">lig</tspan>
                                 </tspan>
                              </text>
                           </g>
                        </g>
                     </g>
                     <g id="nuca4tl" class="note">
                        <g class="notehead">
                           <use xlink:href="#E0A4-1fcmvx0" x="4860" y="2364" height="720px" width="720px" />
                        </g>
                        <g id="srujm55" class="stem">
                           <rect x="4860" y="2392" height="602" width="18" />
                           <g id="f1x0oec2" class="flag">
                              <use xlink:href="#E241-1fcmvx0" x="4860" y="2994" height="720px" width="720px" />
                           </g>
                        </g>
                        <g id="v1pmreza" class="verse">
                           <g id="s1ee9uhh" class="syl">
                              <text x="4770" y="3546" font-size="0px">
                                 <tspan id="t1gzm77m" class="text">
                                    <tspan font-size="405px" class="text">yaou</tspan>
                                 </tspan>
                              </text>
                              <rect x="5685" y="3443" height="22" width="108" />
                           </g>
                        </g>
                     </g>
                     <g id="n1ypeqvj" class="note">
                        <g class="notehead">
                           <use xlink:href="#E0A4-1fcmvx0" x="6009" y="2544" height="720px" width="720px" />
                        </g>
                        <g id="s1gth6sf" class="stem">
                           <rect x="6009" y="2572" height="602" width="18" />
                           <g id="f11xjmgo" class="flag">
                              <use xlink:href="#E241-1fcmvx0" x="6009" y="3174" height="720px" width="720px" />
                           </g>
                        </g>
                        <g id="vr8b3ri" class="verse">
                           <g id="s4kke05" class="syl">
                              <text x="5919" y="3546" font-size="0px">
                                 <tspan id="t1lixihi" class="text">
                                    <tspan font-size="405px" class="text">ank</tspan>
                                 </tspan>
                              </text>
                           </g>
                        </g>
                     </g>
                     <g id="n55pv9y" class="note">
                        <g class="notehead">
                           <use xlink:href="#E0A4-1fcmvx0" x="6803" y="2454" height="720px" width="720px" />
                        </g>
                        <g id="s12yow4k" class="stem">
                           <rect x="6803" y="2482" height="602" width="18" />
                        </g>
                        <g id="vk0imo3" class="verse">
                           <g id="seolm4t" class="syl">
                              <text x="6713" y="3546" font-size="0px">
                                 <tspan id="t1c87vly" class="text">
                                    <tspan font-size="405px" class="text">flamm,</tspan>
                                 </tspan>
                              </text>
                           </g>
                        </g>
                     </g>
                  </g>
               </g>
               <g id="bnoiigs" class="barLine">
                  <path d="M8035 2274 L8035 2994" stroke="currentColor" stroke-width="27" />
               </g>
            </g>
            <g id="m150ymor" class="measure">
               <g id="slzpph2" class="staff">
                  <path d="M8048 2274 L13237 2274" stroke="currentColor" stroke-width="13" />
                  <path d="M8048 2454 L13237 2454" stroke="currentColor" stroke-width="13" />
                  <path d="M8048 2634 L13237 2634" stroke="currentColor" stroke-width="13" />
                  <path d="M8048 2814 L13237 2814" stroke="currentColor" stroke-width="13" />
                  <path d="M8048 2994 L13237 2994" stroke="currentColor" stroke-width="13" />
                  <g id="lq5vbux" class="layer">
                     <g id="n3sj3vq" class="note">
                        <g class="notehead">
                           <use xlink:href="#E0A4-1fcmvx0" x="8254" y="2184" height="720px" width="720px" />
                        </g>
                        <g id="s24hph2" class="stem">
                           <rect x="8254" y="2212" height="602" width="18" />
                           <g id="f1eq8kcw" class="flag">
                              <use xlink:href="#E241-1fcmvx0" x="8254" y="2814" height="720px" width="720px" />
                           </g>
                        </g>
                        <g id="v1bwxkpj" class="verse">
                           <g id="sg7t7uk" class="syl">
                              <text x="8164" y="3546" font-size="0px">
                                 <tspan id="t1ad4aft" class="text">
                                    <tspan font-size="405px" class="text">was</tspan>
                                 </tspan>
                              </text>
                           </g>
                        </g>
                     </g>
                     <g id="nhshp85" class="note">
                        <g class="notehead">
                           <use xlink:href="#E0A4-1fcmvx0" x="9077" y="2274" height="720px" width="720px" />
                        </g>
                        <g id="s1j65v74" class="stem">
                           <rect x="9077" y="2302" height="602" width="18" />
                           <g id="f15ez0om" class="flag">
                              <use xlink:href="#E241-1fcmvx0" x="9077" y="2904" height="720px" width="720px" />
                           </g>
                        </g>
                        <g id="v1f61ag0" class="verse">
                           <g id="s1iz90xr" class="syl">
                              <text x="8987" y="3546" font-size="0px">
                                 <tspan id="t1n4yrft" class="text">
                                    <tspan font-size="405px" class="text">ma</tspan>
                                 </tspan>
                              </text>
                           </g>
                        </g>
                     </g>
                     <g id="nvap1qd" class="note">
                        <g class="notehead">
                           <use xlink:href="#E0A4-1fcmvx0" x="9767" y="2364" height="720px" width="720px" />
                        </g>
                        <g id="s7sjnbg" class="stem">
                           <rect x="9767" y="2392" height="602" width="18" />
                           <g id="f1mytben" class="flag">
                              <use xlink:href="#E241-1fcmvx0" x="9767" y="2994" height="720px" width="720px" />
                           </g>
                        </g>
                        <g id="vlia7qc" class="verse">
                           <g id="s9b3ada" class="syl">
                              <text x="9677" y="3546" font-size="0px">
                                 <tspan id="tg6ppwq" class="text">
                                    <tspan font-size="405px" class="text">zad</tspan>
                                 </tspan>
                              </text>
                           </g>
                        </g>
                     </g>
                     <g id="nbxa0ng" class="note">
                        <g class="notehead">
                           <use xlink:href="#E0A4-1fcmvx0" x="10534" y="2454" height="720px" width="720px" />
                        </g>
                        <g id="sh60vi2" class="stem">
                           <rect x="10534" y="2482" height="602" width="18" />
                           <g id="fbzlnw6" class="flag">
                              <use xlink:href="#E241-1fcmvx0" x="10534" y="3084" height="720px" width="720px" />
                           </g>
                        </g>
                        <g id="v1azwue2" class="verse">
                           <g id="s1mjfnu0" class="syl">
                              <text x="10444" y="3546" font-size="0px">
                                 <tspan id="tlj3jlg" class="text">
                                    <tspan font-size="405px" class="text">ha</tspan>
                                 </tspan>
                              </text>
                           </g>
                        </g>
                     </g>
                     <g id="n131kjyh" class="note">
                        <g class="notehead">
                           <use xlink:href="#E0A4-1fcmvx0" x="11102" y="2274" height="720px" width="720px" />
                        </g>
                        <g id="s1df7g42" class="stem">
                           <rect x="11102" y="2302" height="602" width="18" />
                           <g id="f1qhl51y" class="flag">
                              <use xlink:href="#E241-1fcmvx0" x="11102" y="2904" height="720px" width="720px" />
                           </g>
                        </g>
                        <g id="vx83a9g" class="verse">
                           <g id="s1i8jaji" class="syl">
                              <text x="11007" y="3546" font-size="0px">
                                 <tspan id="t3wkefy" class="text">
                                    <tspan font-size="405px" class="text">ma</tspan>
                                 </tspan>
                              </text>
                           </g>
                        </g>
                     </g>
                     <g id="nfhd5u6" class="note">
                        <g class="notehead">
                           <use xlink:href="#E0A4-1fcmvx0" x="11787" y="2364" height="720px" width="720px" />
                        </g>
                        <g id="s1gp5m0q" class="stem">
                           <rect x="11787" y="2392" height="602" width="18" />
                        </g>
                        <g id="vc83hb7" class="verse">
                           <g id="s1orh5es" class="syl">
                              <text x="11697" y="3546" font-size="0px">
                                 <tspan id="tev5o9n" class="text">
                                    <tspan font-size="405px" class="text">mam;</tspan>
                                 </tspan>
                              </text>
                           </g>
                        </g>
                     </g>
                     <g id="r77zvvs" class="rest">
                        <use xlink:href="#E4E6-1fcmvx0" x="12657" y="2634" height="720px" width="720px" />
                     </g>
                  </g>
               </g>
               <g id="b11v8b15" class="barLine">
                  <path d="M13224 2274 L13224 2994" stroke="currentColor" stroke-width="27" />
               </g>
            </g>
            <g id="m1hyjkje" class="measure">
               <g id="symj389" class="staff">
                  <path d="M13237 2274 L20003 2274" stroke="currentColor" stroke-width="13" />
                  <path d="M13237 2454 L20003 2454" stroke="currentColor" stroke-width="13" />
                  <path d="M13237 2634 L20003 2634" stroke="currentColor" stroke-width="13" />
                  <path d="M13237 2814 L20003 2814" stroke="currentColor" stroke-width="13" />
                  <path d="M13237 2994 L20003 2994" stroke="currentColor" stroke-width="13" />
                  <g id="lvqrd9h" class="layer">
                     <g id="n1of4fg8" class="note">
                        <g class="notehead">
                           <use xlink:href="#E0A4-1fcmvx0" x="13443" y="2364" height="720px" width="720px" />
                        </g>
                        <g id="s1qrjb7g" class="stem">
                           <rect x="13443" y="2392" height="602" width="18" />
                           <g id="fd4op8d" class="flag">
                              <use xlink:href="#E241-1fcmvx0" x="13443" y="2994" height="720px" width="720px" />
                           </g>
                        </g>
                        <g id="v1fu7w9i" class="verse">
                           <g id="sg6wp5" class="syl">
                              <text x="13353" y="3546" font-size="0px">
                                 <tspan id="t18ohu9l" class="text">
                                    <tspan font-size="405px" class="text">O</tspan>
                                 </tspan>
                              </text>
                              <rect x="13709" y="3443" height="22" width="108" />
                           </g>
                        </g>
                     </g>
                     <g id="nimlfsl" class="note">
                        <g class="notehead">
                           <use xlink:href="#E0A4-1fcmvx0" x="14011" y="2364" height="720px" width="720px" />
                        </g>
                        <g id="s644uz1" class="stem">
                           <rect x="14011" y="2392" height="602" width="18" />
                           <g id="f1ezh9eg" class="flag">
                              <use xlink:href="#E241-1fcmvx0" x="14011" y="2994" height="720px" width="720px" />
                           </g>
                        </g>
                        <g id="v15riyd" class="verse">
                           <g id="sr62r41" class="syl">
                              <text x="13907" y="3546" font-size="0px">
                                 <tspan id="t13elzq2" class="text">
                                    <tspan font-size="405px" class="text">bli</tspan>
                                 </tspan>
                              </text>
                              <rect x="14435" y="3443" height="22" width="108" />
                           </g>
                        </g>
                     </g>
                     <g id="n1hla5s8" class="note">
                        <g class="notehead">
                           <use xlink:href="#E0A4-1fcmvx0" x="14732" y="2364" height="720px" width="720px" />
                        </g>
                        <g id="s10yfk3j" class="stem">
                           <rect x="14732" y="2392" height="602" width="18" />
                           <g id="fxieudi" class="flag">
                              <use xlink:href="#E241-1fcmvx0" x="14732" y="2994" height="720px" width="720px" />
                           </g>
                        </g>
                        <g id="v14y10wo" class="verse">
                           <g id="s1fpyu0u" class="syl">
                              <text x="14642" y="3546" font-size="0px">
                                 <tspan id="t1x3ml0f" class="text">
                                    <tspan font-size="405px" class="text">jet</tspan>
                                 </tspan>
                              </text>
                           </g>
                        </g>
                     </g>
                     <g id="nhfdgd4" class="note">
                        <g class="notehead">
                           <use xlink:href="#E0A4-1fcmvx0" x="15320" y="2274" height="720px" width="720px" />
                        </g>
                        <g id="s183bz75" class="stem">
                           <rect x="15320" y="2302" height="602" width="18" />
                           <g id="fwwffhx" class="flag">
                              <use xlink:href="#E241-1fcmvx0" x="15320" y="2904" height="720px" width="720px" />
                           </g>
                        </g>
                        <g id="vi9n1r7" class="verse">
                           <g id="s1tue2h9" class="syl">
                              <text x="15230" y="3546" font-size="0px">
                                 <tspan id="t1qvfwjz" class="text">
                                    <tspan font-size="405px" class="text">'oan</tspan>
                                 </tspan>
                              </text>
                           </g>
                        </g>
                     </g>
                     <g id="n1m5visc" class="note">
                        <g class="notehead">
                           <use xlink:href="#E0A4-1fcmvx0" x="16197" y="2454" height="720px" width="720px" />
                        </g>
                        <g id="s1dmxp3l" class="stem">
                           <rect x="16197" y="2482" height="602" width="18" />
                        </g>
                        <g id="v1wisy33" class="verse">
                           <g id="sj5dvkk" class="syl">
                              <text x="16107" y="3546" font-size="0px">
                                 <tspan id="t1vsydkw" class="text">
                                    <tspan font-size="405px" class="text">da</tspan>
                                 </tspan>
                              </text>
                           </g>
                        </g>
                     </g>
                     <g id="n11vhmsf" class="note">
                        <g class="notehead">
                           <use xlink:href="#E0A4-1fcmvx0" x="17067" y="2364" height="720px" width="720px" />
                        </g>
                        <g id="s1xdoxn8" class="stem">
                           <rect x="17067" y="2392" height="602" width="18" />
                           <g id="f10hhsmm" class="flag">
                              <use xlink:href="#E241-1fcmvx0" x="17067" y="2994" height="720px" width="720px" />
                           </g>
                        </g>
                        <g id="vevhkiu" class="verse">
                           <g id="sbf48vp" class="syl">
                              <text x="16707" y="3546" font-size="0px">
                                 <tspan id="tazv1sa" class="text">
                                    <tspan font-size="405px" class="text">glask</tspan>
                                 </tspan>
                              </text>
                           </g>
                        </g>
                     </g>
                     <g id="nvks0zb" class="note">
                        <g class="notehead">
                           <use xlink:href="#E0A4-1fcmvx0" x="17862" y="2454" height="720px" width="720px" />
                        </g>
                        <g id="sasywh4" class="stem">
                           <rect x="17862" y="2482" height="602" width="18" />
                           <g id="f72m8sm" class="flag">
                              <use xlink:href="#E241-1fcmvx0" x="17862" y="3084" height="720px" width="720px" />
                           </g>
                        </g>
                        <g id="v15wxgak" class="verse">
                           <g id="s1bc76vc" class="syl">
                              <text x="17772" y="3546" font-size="0px">
                                 <tspan id="ta259wk" class="text">
                                    <tspan font-size="405px" class="text">ma</tspan>
                                 </tspan>
                              </text>
                           </g>
                        </g>
                     </g>
                     <g id="nuzrcl0" class="note">
                        <g class="notehead">
                           <use xlink:href="#E0A4-1fcmvx0" x="18553" y="2544" height="720px" width="720px" />
                        </g>
                        <g id="styd68l" class="stem">
                           <rect x="18553" y="2572" height="602" width="18" />
                        </g>
                        <g id="v1h6wwop" class="verse">
                           <g id="s1oin62p" class="syl">
                              <text x="18463" y="3546" font-size="0px">
                                 <tspan id="t1r24zq" class="text">
                                    <tspan font-size="405px" class="text">boed,</tspan>
                                 </tspan>
                              </text>
                           </g>
                        </g>
                     </g>
                     <g id="ryy1lsv" class="rest">
                        <use xlink:href="#E4E6-1fcmvx0" x="19423" y="2634" height="720px" width="720px" />
                     </g>
                  </g>
               </g>
               <g id="b12hy9bo" class="barLine">
                  <path d="M19990 2274 L19990 2994" stroke="currentColor" stroke-width="27" />
               </g>
            </g>
         </g>
         <g id="s10dhyir" class="system">
            <g id="m1w091ls" class="measure">
               <g id="m1ubnp6u" class="mNum autogenerated">
                  <text x="0" y="4371" text-anchor="middle" font-size="0px">
                     <tspan id="t1g2ebp0" class="text">
                        <tspan font-size="324px" class="text">5</tspan>
                     </tspan>
                  </text>
               </g>
               <g id="s1g35rsx" class="staff">
                  <path d="M0 4614 L6558 4614" stroke="currentColor" stroke-width="13" />
                  <path d="M0 4794 L6558 4794" stroke="currentColor" stroke-width="13" />
                  <path d="M0 4974 L6558 4974" stroke="currentColor" stroke-width="13" />
                  <path d="M0 5154 L6558 5154" stroke="currentColor" stroke-width="13" />
                  <path d="M0 5334 L6558 5334" stroke="currentColor" stroke-width="13" />
                  <g id="crqp3hy" class="clef">
                     <use xlink:href="#E050-1fcmvx0" x="90" y="5154" height="720px" width="720px" />
                  </g>
                  <g id="ksz82ke" class="keySig" />
                  <g id="l1rhugzq" class="layer">
                     <g id="nc8hybx" class="note">
                        <g class="notehead">
                           <use xlink:href="#E0A4-1fcmvx0" x="825" y="4794" height="720px" width="720px" />
                        </g>
                        <g id="s1xjdbao" class="stem">
                           <rect x="825" y="4822" height="602" width="18" />
                           <g id="f1a5xg0j" class="flag">
                              <use xlink:href="#E241-1fcmvx0" x="825" y="5424" height="720px" width="720px" />
                           </g>
                        </g>
                        <g id="v18lvtxt" class="verse">
                           <g id="s1orvh11" class="syl">
                              <text x="735" y="5886" font-size="0px">
                                 <tspan id="t1sfrjo0" class="text">
                                    <tspan font-size="405px" class="text">Ka</tspan>
                                 </tspan>
                              </text>
                              <rect x="1249" y="5783" height="22" width="108" />
                           </g>
                        </g>
                     </g>
                     <g id="n1d3rx7" class="note">
                        <g class="notehead">
                           <use xlink:href="#E0A4-1fcmvx0" x="1501" y="4794" height="720px" width="720px" />
                        </g>
                        <g id="sobtyxl" class="stem">
                           <rect x="1501" y="4822" height="602" width="18" />
                           <g id="f1pvevkb" class="flag">
                              <use xlink:href="#E241-1fcmvx0" x="1501" y="5424" height="720px" width="720px" />
                           </g>
                        </g>
                        <g id="vvkc4vp" class="verse">
                           <g id="s1hjnwne" class="syl">
                              <text x="1411" y="5886" font-size="0px">
                                 <tspan id="tf63zmu" class="text">
                                    <tspan font-size="405px" class="text">pabl</tspan>
                                 </tspan>
                              </text>
                           </g>
                        </g>
                     </g>
                     <g id="n5yyiu6" class="note">
                        <g class="notehead">
                           <use xlink:href="#E0A4-1fcmvx0" x="2308" y="4974" height="720px" width="720px" />
                        </g>
                        <g id="sttt77w" class="stem">
                           <rect x="2308" y="5002" height="572" width="18" />
                           <g id="ff4zmgt" class="flag">
                              <use xlink:href="#E241-1fcmvx0" x="2308" y="5574" height="720px" width="720px" />
                           </g>
                        </g>
                        <g id="v1pjhls5" class="verse">
                           <g id="s1vl7at2" class="syl">
                              <text x="2218" y="5886" font-size="0px">
                                 <tspan id="tsrup7" class="text">
                                    <tspan font-size="405px" class="text">d'hen</tspan>
                                 </tspan>
                              </text>
                           </g>
                        </g>
                     </g>
                     <g id="n1nvu75z" class="note">
                        <g class="notehead">
                           <use xlink:href="#E0A4-1fcmvx0" x="3278" y="4884" height="720px" width="720px" />
                        </g>
                        <g id="s18644ag" class="stem">
                           <rect x="3278" y="4912" height="602" width="18" />
                           <g id="f1o5legl" class="flag">
                              <use xlink:href="#E241-1fcmvx0" x="3278" y="5514" height="720px" width="720px" />
                           </g>
                        </g>
                        <g id="vtjvgo0" class="verse">
                           <g id="szfl4um" class="syl">
                              <text x="3188" y="5886" font-size="0px">
                                 <tspan id="t1md9wc" class="text">
                                    <tspan font-size="405px" class="text">go</tspan>
                                 </tspan>
                              </text>
                              <rect x="3648" y="5783" height="22" width="108" />
                           </g>
                        </g>
                     </g>
                     <g id="ndul4j3" class="note">
                        <g class="notehead">
                           <use xlink:href="#E0A4-1fcmvx0" x="3900" y="4794" height="720px" width="720px" />
                        </g>
                        <g id="s17cm42n" class="stem">
                           <rect x="3900" y="4822" height="602" width="18" />
                           <g id="ftzk6d5" class="flag">
                              <use xlink:href="#E241-1fcmvx0" x="3900" y="5424" height="720px" width="720px" />
                           </g>
                        </g>
                        <g id="v1retgai" class="verse">
                           <g id="s1vir45x" class="syl">
                              <text x="3810" y="5886" font-size="0px">
                                 <tspan id="tx6svdj" class="text">
                                    <tspan font-size="405px" class="text">nit</tspan>
                                 </tspan>
                              </text>
                           </g>
                        </g>
                     </g>
                     <g id="n184httj" class="note">
                        <g class="notehead">
                           <use xlink:href="#E0A4-1fcmvx0" x="4437" y="4704" height="720px" width="720px" />
                        </g>
                        <g id="s7h9arg" class="stem">
                           <rect x="4437" y="4732" height="602" width="18" />
                           <g id="f14xtadg" class="flag">
                              <use xlink:href="#E241-1fcmvx0" x="4437" y="5334" height="720px" width="720px" />
                           </g>
                        </g>
                        <g id="v1ehgdqa" class="verse">
                           <g id="s1ogzye4" class="syl">
                              <text x="4347" y="5886" font-size="0px">
                                 <tspan id="t13szce" class="text">
                                    <tspan font-size="405px" class="text">ne</tspan>
                                 </tspan>
                              </text>
                           </g>
                        </g>
                     </g>
                     <g id="nhcnqk2" class="note">
                        <g class="notehead">
                           <use xlink:href="#E0A4-1fcmvx0" x="4933" y="4884" height="720px" width="720px" />
                        </g>
                        <g id="s178ovni" class="stem">
                           <rect x="4933" y="4912" height="602" width="18" />
                           <g id="f1i5rdlt" class="flag">
                              <use xlink:href="#E241-1fcmvx0" x="4933" y="5514" height="720px" width="720px" />
                           </g>
                        </g>
                        <g id="v139drc8" class="verse">
                           <g id="sbhezgq" class="syl">
                              <text x="4838" y="5886" font-size="0px">
                                 <tspan id="tveccbk" class="text">
                                    <tspan font-size="405px" class="text">oan</tspan>
                                 </tspan>
                              </text>
                           </g>
                        </g>
                     </g>
                     <g id="nugii2" class="note">
                        <g class="notehead">
                           <use xlink:href="#E0A4-1fcmvx0" x="5622" y="4794" height="720px" width="720px" />
                        </g>
                        <g id="sbhhq5s" class="stem">
                           <rect x="5622" y="4822" height="602" width="18" />
                        </g>
                        <g id="vxf4gat" class="verse">
                           <g id="s18yt1c9" class="syl">
                              <text x="5532" y="5886" font-size="0px">
                                 <tspan id="ts5dqdy" class="text">
                                    <tspan font-size="405px" class="text">ket.</tspan>
                                 </tspan>
                              </text>
                           </g>
                        </g>
                     </g>
                  </g>
               </g>
               <g id="b1cfu8e9" class="barLine">
                  <path d="M6383 4614 L6383 5334" stroke="currentColor" stroke-width="27" />
                  <path d="M6513 4614 L6513 5334" stroke="currentColor" stroke-width="90" />
               </g>
            </g>
            <g id="s1vd130z" class="systemMilestoneEnd slfac29" />
         </g>
         <g id="pgua4od" class="pageMilestoneEnd s1bn4r5p" />
         <g id="pucerur" class="pageMilestoneEnd mglsb65" />
         <g id="pe2zbnj" class="pgHead autogenerated">
            <text x="0" y="0" font-size="0px">
               <tspan id="r6wn435" class="rend" x="10000" y="414" text-anchor="middle">
                  <title class="labelAttr">title</title>
                  <tspan id="rxypo0t" class="rend">
                     <tspan id="t1gzbuws" class="text">
                        <tspan font-size="607px" class="text">Ar Vinorezig</tspan>
                     </tspan>
                  </tspan>
               </tspan>
            </text>
            <text x="0" y="0" font-size="0px">
               <tspan id="r1dt2rpy" class="rend" x="20000" y="824" text-anchor="end">
                  <title class="labelAttr">composer</title>
                  <tspan id="tcpq23s" class="text">
                     <tspan font-size="405px" class="text">Collecté par Francois-Marie Luzel, 1913</tspan>
                  </tspan>
               </tspan>
            </text>
         </g>
         <g id="p18064zz" class="pgFoot autogenerated">
            <g id="fp7cnbp" class="fig">
               <g id="s1l56q7o" class="svg" transform="translate(7750, 28099) scale(10, 10)">
                  <g>
                     <path fill="#00000" d="M 17.11278,49.26451 V 10.367554 h 12.696511 c 3.288815,7.336676 6.71267,14.610456 10.127281,21.888976 3.419998,-7.484684 6.255515,-14.204887 9.58887,-21.909915 2.436207,0.103726 4.316952,0.08453 6.484294,-0.05808 V 49.264423 H 50.274275 C 50.145222,38.35639 50.016136,27.448368 49.887066,16.540329 45.003488,27.315459 39.967448,38.433564 35.083854,49.208695 34.678996,49.343717 34.426583,49.135619 34.021726,49.270644 29.46588,39.330716 24.910049,29.390805 20.354201,19.450876 20.224341,29.388756 20.09461,39.326619 19.964815,49.264497 H 17.11278 Z M 36.754144,39.324695 C 32.721221,30.512695 28.6883,21.700679 24.655394,12.888662 22.530527,12.750737 22.656775,12.71031 20.714356,12.813974 v 0.966497 c 4.612938,9.99784 9.609439,20.748709 13.87298,30.081745 0.722248,-1.512523 1.444528,-3.025014 2.166808,-4.537521 z m 25.738417,9.939815 c 0,-12.965651 0,-25.931305 0,-38.896956 10.084388,0 20.168791,0 30.253178,0 0,0.960416 0,1.920849 0,2.881265 -6.482825,0 -12.965652,0 -19.448478,0 0,4.802097 0,9.604178 0,14.406277 5.52241,0 11.044819,0 16.567229,0 0,0.960415 0,1.920832 0,2.881248 -5.52241,0 -11.044819,0 -16.567229,0 0,5.282306 0,10.564611 0,15.846917 6.963035,0 13.926068,0 20.889103,0 0,0.960416 0,1.920832 0,2.881249 -10.564597,0 -21.129207,0 -31.693803,0 z m 4.321874,-2.160937 c 0,-11.765131 0,-23.530263 0,-35.295394 -0.720312,0 -1.440625,0 -2.160937,0 0,11.765131 0,23.530263 0,35.295394 0.720312,0 1.440625,0 2.160937,0 z m 32.41413,2.160937 c 0,-12.965651 0,-25.931305 0,-38.896956 2.401045,0 4.802095,0 7.203135,0 0,12.965651 0,25.931305 0,38.896956 -2.40104,0 -4.80209,0 -7.203135,0 z m 2.881265,-2.160937 c 0,-11.765131 0,-23.530263 0,-35.295394 -0.72031,0 -1.44064,0 -2.160953,0 0,11.765131 0,23.530263 0,35.295394 0.720313,0 1.440643,0 2.160953,0 z" />
                     <path fill="#00000" d="m 346.3,6.7 c -3.1,0.5 -4.9,4.4 -2.7,6.8 1.2,1.4 2.7,2.4 4.1,3.5 -2.4,5.3 -7.7,8.3 -11.9,12.1 -3.7,2.8 -7,6.2 -9.7,9.9 -2.2,-0.8 -0.3,-6.8 -0.6,-9.5 0.1,-3.1 0.7,-6.4 2.9,-8.7 1.3,-1.9 3,-3.5 4.5,-5.2 1.2,-3.4 -3.2,-4.9 -5.8,-4.6 -7.3,-0.5 -14.6,2 -20,6.8 -5,4.6 -10,10.1 -11.5,17 -0.9,3.5 -0.2,7.5 2.8,9.9 2.5,2.8 7.4,2.9 9.8,-0.2 1.7,-2.3 3.2,-4.8 3.8,-7.6 -0.1,-2.6 -4.4,-2.3 -4.3,0.2 1.2,2.4 -0.9,4.7 -2.7,6.2 -1.7,0.9 -4.7,0.7 -4.8,-1.7 -1,-5.8 2.1,-11.3 5.2,-16.1 4,-5.8 9.8,-11.2 17.2,-11.8 1.6,0 8.1,-1.2 6.8,1.4 -2.8,2.8 -5.6,6.1 -6,10.3 -1.6,7.7 0.1,15.7 -2.3,23.2 -1.1,3.9 2,2.6 2.5,0.2 3.3,-7.4 8.9,-13.4 15.1,-18.5 4.2,-3.9 9.5,-7.1 11.9,-12.6 1.3,-3.6 1.2,-9 -2.7,-10.9 -0.6,-0.2 -1.2,-0.3 -1.8,-0.3 z m 66,14.5 c -2,0.8 -1.8,4.9 0.8,4.4 3.4,0.4 2.9,-6.2 -0.8,-4.4 z m 0.6,7.3 c -1.3,0.5 -7.6,0.5 -5.4,2.2 4,-0.3 0.7,4.5 0.6,6.7 -0.4,2.9 -2.4,5.9 -1.2,8.8 2.7,1.7 5.6,-0.8 6.8,-3.2 1.6,-1.4 -0.5,-3 -1.2,-0.9 -0.4,0.8 -2.4,3.5 -2.6,1.8 1.1,-5 2.7,-9.9 3.9,-14.9 l -0.1,-0.5 h -0.9 z m -65.1,0.2 c -6.5,1.6 -10.5,9.5 -8.2,15.7 2.1,3.4 7.4,2.9 10.1,0.4 2,-0.2 3.6,-5.3 1,-3.4 -1.4,2 -4,4.2 -6.5,2.8 -2.2,-1.9 -1.9,-5.7 1.7,-5.3 3.1,-0.9 6.9,-2.1 8.1,-5.5 0.9,-2.7 -1.6,-5.2 -4.3,-4.8 h -1.1 -0.7 z m 13.6,0 c -2.2,0 -8.5,1.8 -2.9,2.3 0.9,1.9 -1,4.9 -1.1,7.2 -0.5,2.9 -1.4,5.7 -1.7,8.7 3.7,0.7 3.8,-2.6 4.4,-5.3 0.9,-3.3 1.6,-7 4.1,-9.5 2.4,1.6 6.8,-0.7 3.7,-3.4 -2.9,-0.5 -4.8,2.4 -6.2,4.3 0,-1.2 2.4,-5 -0.2,-4.3 z m 15.8,0 c -6.4,1.3 -9.6,9.1 -7.7,14.9 1.9,4 7.7,3.9 11,1.7 4.1,-3 6,-8.9 4.4,-13.7 -1.3,-3 -4.8,-3.2 -7.6,-3 z m 17,0 c -2.3,0 -8.8,1.9 -3,2.4 0.4,2.5 -1,5.7 -1.4,8.4 -0.7,2.4 -1.8,7.5 2.1,7.2 3.8,-0.1 6.5,-3.5 8.5,-6.3 2,-3.2 4.5,-7 3.3,-10.9 -3.7,-3 -3.6,2.6 -3.1,5.1 -0.7,3.8 -2.7,7.9 -6.2,9.8 -3.6,0.6 -1,-4.3 -0.8,-6.1 0.6,-3.2 1.6,-6.3 1.9,-9.5 -0.4,0 -0.8,0 -1.1,0 z m 30.6,0 c -6.3,1.2 -9.5,8.9 -7.8,14.7 1.5,4 7.2,4.2 10.5,2.4 4.6,-2.8 6.6,-9.3 4.8,-14.3 -1.4,-2.8 -4.8,-3 -7.5,-2.8 z m -75.4,1.7 c 2.1,1.5 0.2,4.7 -1.6,5.7 -1.1,0.4 -5.5,3.4 -4.6,0.7 0.8,-2.7 2.2,-6.2 5.3,-6.6 l 0.9,0.1 z m 30.8,0 c 2.6,1.5 1.3,5.2 0.8,7.6 -0.8,2.7 -1.9,5.9 -4.7,7.1 -5.1,0.8 -4,-5.8 -2.8,-8.8 1,-2.8 3,-6.8 6.7,-5.8 z m 47.1,-0.1 c 2.9,0.7 2,4.7 1.5,6.8 -0.7,3 -1.8,6.7 -5,8 -4.7,0.8 -4,-5.1 -3,-7.9 0.9,-3 2.7,-7.3 6.5,-6.8 z m -88.1,5.9 c -0.3,1.3 0.9,-0.6 0,0 z m -1.1,2.4 c -0.2,0.5 0.5,-0.1 0,0 z m -1.3,4.5 c -0.3,1.3 0.8,-0.2 0,0 z" />
                     <text y="41" x="201" fill="#00000" style="font-style:italic;font-weight:normal;font-size:30px;line-height:125%;font-family:Times;text-anchor:middle" xml:space="preserve">engraved with</text>
                  </g>
               </g>
            </g>
         </g>
      </g>
   </svg>
</svg>
