<?xml version="1.0" encoding="UTF-8"?>
<!DOCTYPE score-partwise PUBLIC "-//Recordare//DTD MusicXML 3.1 Partwise//EN" "http://www.musicxml.org/dtds/partwise.dtd">
<score-partwise version="3.1">
  <work>
    <work-title>Ar Gernez</work-title>
    </work>
  <identification>
    <creator type="composer">Collecté par Francois-Marie Luzel, 1913</creator><creator type="collection">Francois-Marie Luzel</creator>
    <creator type="poet">M. M.</creator>
    <encoding>
      <software>MuseScore 3.6.2</software>
      <encoding-date>2022-12-12</encoding-date>
      <supports element="accidental" type="yes"/>
      <supports element="beam" type="yes"/>
      <supports element="print" attribute="new-page" type="no"/>
      <supports element="print" attribute="new-system" type="no"/>
      <supports element="stem" type="yes"/>
      <encoder>Virginie Thion, IRISA, France</encoder></encoding>
    <source>Musiques bretonnes, Maurice Duhamel, Dastum</source>
    </identification>
  <defaults>
    <scaling>
      <millimeters>7</millimeters>
      <tenths>40</tenths>
      </scaling>
    <word-font font-family="Edwin" font-size="10"/>
    <lyric-font font-family="Edwin" font-size="10"/>
    </defaults>
  <credit page="1">
    <credit-type>title</credit-type>
    <credit-words   justify="left" valign="top" font-size="22">Ar Gernez (La Famine) - Version du Trégor</credit-words>
    </credit>
  <part-list>
    <score-part id="P1">
      <part-name>Piano</part-name>
      <part-abbreviation>Pia.</part-abbreviation>
      <score-instrument id="P1-I1">
        <instrument-name>Piano</instrument-name>
        </score-instrument>
      <midi-device id="P1-I1" port="1"></midi-device>
      <midi-instrument id="P1-I1">
        <midi-channel>1</midi-channel>
        <midi-program>1</midi-program>
        <volume>78.7402</volume>
        <pan>0</pan>
        </midi-instrument>
      </score-part>
    </part-list>
  <part id="P1">
    <measure number="1" >
      <print>
        </print>
      <attributes>
        <divisions>4</divisions>
        <key>
          <fifths>0</fifths>
          </key>
        <time>
          <beats>2</beats>
          <beat-type>4</beat-type>
          </time>
        <clef>
          <sign>G</sign>
          <line>2</line>
          </clef>
        </attributes>
      <direction placement="above">
        <direction-type>
          <metronome parentheses="no"  >
            <beat-unit>quarter</beat-unit>
            <per-minute>96</per-minute>
            </metronome>
          </direction-type>
        <sound tempo="96"/>
        </direction>
      <note  >
        <pitch>
          <step>A</step>
          <octave>4</octave>
          </pitch>
        <duration>4</duration>
        <voice>1</voice>
        <type>quarter</type>
        <stem>up</stem>
        <lyric number="1"   >
          <syllabic>begin</syllabic>
          <text>Meu</text>
          </lyric>
        </note>
      <note  >
        <pitch>
          <step>G</step>
          <octave>4</octave>
          </pitch>
        <duration>2</duration>
        <voice>1</voice>
        <type>eighth</type>
        <stem>up</stem>
        <lyric number="1"   >
          <syllabic>end</syllabic>
          <text>let</text>
          </lyric>
        </note>
      <note  >
        <pitch>
          <step>A</step>
          <octave>4</octave>
          </pitch>
        <duration>2</duration>
        <voice>1</voice>
        <type>eighth</type>
        <stem>up</stem>
        <lyric number="1"   >
          <syllabic>single</syllabic>
          <text>ra</text>
          </lyric>
        </note>
      </measure>
    <measure number="2" >
      <note  >
        <pitch>
          <step>C</step>
          <octave>5</octave>
          </pitch>
        <duration>2</duration>
        <voice>1</voice>
        <type>eighth</type>
        <stem>down</stem>
        <lyric number="1"   >
          <syllabic>begin</syllabic>
          <text>ve</text>
          </lyric>
        </note>
      <note  >
        <pitch>
          <step>B</step>
          <octave>4</octave>
          </pitch>
        <duration>2</duration>
        <voice>1</voice>
        <type>eighth</type>
        <stem>down</stem>
        <lyric number="1"   >
          <syllabic>end</syllabic>
          <text>zo</text>
          </lyric>
        </note>
      <note  >
        <pitch>
          <step>A</step>
          <octave>4</octave>
          </pitch>
        <duration>2</duration>
        <voice>1</voice>
        <type>eighth</type>
        <stem>up</stem>
        <lyric number="1"   >
          <syllabic>single</syllabic>
          <text>an</text>
          </lyric>
        </note>
      <note  >
        <pitch>
          <step>G</step>
          <octave>4</octave>
          </pitch>
        <duration>2</duration>
        <voice>1</voice>
        <type>eighth</type>
        <stem>up</stem>
        <lyric number="1"   >
          <syllabic>begin</syllabic>
          <text>Drin</text>
          </lyric>
        </note>
      </measure>
    <measure number="3" >
      <note  >
        <pitch>
          <step>E</step>
          <octave>4</octave>
          </pitch>
        <duration>2</duration>
        <voice>1</voice>
        <type>eighth</type>
        <stem>up</stem>
        <lyric number="1"   >
          <syllabic>end</syllabic>
          <text>ded,</text>
          </lyric>
        </note>
      <note  >
        <pitch>
          <step>A</step>
          <octave>4</octave>
          </pitch>
        <duration>2</duration>
        <voice>1</voice>
        <type>eighth</type>
        <stem>up</stem>
        <lyric number="1"   >
          <syllabic>single</syllabic>
          <text>Tri:</text>
          </lyric>
        </note>
      <note  >
        <pitch>
          <step>A</step>
          <octave>4</octave>
          </pitch>
        <duration>2</duration>
        <voice>1</voice>
        <type>eighth</type>
        <stem>up</stem>
        <lyric number="1"   >
          <syllabic>single</syllabic>
          <text>Tad,</text>
          </lyric>
        </note>
      <note  >
        <pitch>
          <step>G</step>
          <octave>4</octave>
          </pitch>
        <duration>2</duration>
        <voice>1</voice>
        <type>eighth</type>
        <stem>up</stem>
        <lyric number="1"   >
          <syllabic>single</syllabic>
          <text>Mab</text>
          </lyric>
        </note>
      </measure>
    <measure number="4" >
      <note  >
        <pitch>
          <step>A</step>
          <octave>4</octave>
          </pitch>
        <duration>4</duration>
        <voice>1</voice>
        <type>quarter</type>
        <stem>up</stem>
        <notations>
          <slur type="start" placement="below" number="1"/>
          </notations>
        <lyric number="1"   >
          <syllabic>single</syllabic>
          <text>ha</text>
          </lyric>
        </note>
      <note  >
        <pitch>
          <step>B</step>
          <octave>4</octave>
          </pitch>
        <duration>2</duration>
        <voice>1</voice>
        <type>eighth</type>
        <stem>up</stem>
        <notations>
          <slur type="stop" number="1"/>
          </notations>
        <lyric number="1"  >
          <syllabic>begin</syllabic>
          <text>Spe</text>
          </lyric>
        </note>
      <direction placement="below">
        <direction-type>
          <words  >red -</words>
          </direction-type>
        </direction>
      <note  >
        <pitch>
          <step>A</step>
          <octave>4</octave>
          </pitch>
        <duration>2</duration>
        <voice>1</voice>
        <type>eighth</type>
        <stem>up</stem>
        </note>
      <direction placement="below">
        <direction-type>
          <words  >San -</words>
          </direction-type>
        </direction>
      <note  >
        <pitch>
          <step>G</step>
          <octave>4</octave>
          </pitch>
        <duration>2</duration>
        <voice>1</voice>
        <type>eighth</type>
        <stem>up</stem>
        </note>
      </measure>
    <measure number="5" >
      <note  >
        <pitch>
          <step>A</step>
          <octave>4</octave>
          </pitch>
        <duration>4</duration>
        <voice>1</voice>
        <type>quarter</type>
        <stem>up</stem>
        <lyric number="1"   >
          <syllabic>single</syllabic>
          <text>tel,</text>
          </lyric>
        </note>
      <note  >
        <pitch>
          <step>A</step>
          <octave>4</octave>
          </pitch>
        <duration>2</duration>
        <voice>1</voice>
        <type>eighth</type>
        <stem>up</stem>
        <lyric number="1"   >
          <syllabic>single</syllabic>
          <text>D'ec'h</text>
          </lyric>
        </note>
      <note  >
        <pitch>
          <step>B</step>
          <octave>4</octave>
          </pitch>
        <duration>2</duration>
        <voice>1</voice>
        <type>eighth</type>
        <stem>up</stem>
        <lyric number="1"   >
          <syllabic>begin</syllabic>
          <text>i</text>
          </lyric>
        </note>
      </measure>
    <measure number="6" >
      <note  >
        <pitch>
          <step>C</step>
          <octave>5</octave>
          </pitch>
        <duration>2</duration>
        <voice>1</voice>
        <type>eighth</type>
        <stem>down</stem>
        <notations>
          <slur type="start" placement="above" number="1"/>
          </notations>
        <lyric number="1"   >
          <syllabic>end</syllabic>
          <text>we,</text>
          </lyric>
        </note>
      <note  >
        <pitch>
          <step>C</step>
          <octave>5</octave>
          </pitch>
        <duration>2</duration>
        <voice>1</voice>
        <type>eighth</type>
        <stem>down</stem>
        <lyric number="1"   >
          <syllabic>single</syllabic>
          <text>Gwerc'hez</text>
          </lyric>
        </note>
      <note  >
        <pitch>
          <step>C</step>
          <octave>5</octave>
          </pitch>
        <duration>2</duration>
        <voice>1</voice>
        <type>eighth</type>
        <stem>down</stem>
        <notations>
          <slur type="stop" number="1"/>
          </notations>
        </note>
      <note  >
        <pitch>
          <step>G</step>
          <octave>4</octave>
          </pitch>
        <duration>2</duration>
        <voice>1</voice>
        <type>eighth</type>
        <stem>up</stem>
        <lyric number="1"   >
          <syllabic>begin</syllabic>
          <text>fi</text>
          </lyric>
        </note>
      </measure>
    <measure number="7" >
      <note  >
        <pitch>
          <step>C</step>
          <octave>5</octave>
          </pitch>
        <duration>4</duration>
        <voice>1</voice>
        <type>quarter</type>
        <stem>down</stem>
        <lyric number="1"   >
          <syllabic>end</syllabic>
          <text>del,</text>
          </lyric>
        </note>
      <note  >
        <pitch>
          <step>C</step>
          <octave>5</octave>
          </pitch>
        <duration>2</duration>
        <voice>1</voice>
        <type>eighth</type>
        <stem>down</stem>
        <lyric number="1"   >
          <syllabic>single</syllabic>
          <text>Ha</text>
          </lyric>
        </note>
      <note  >
        <pitch>
          <step>B</step>
          <octave>4</octave>
          </pitch>
        <duration>2</duration>
        <voice>1</voice>
        <type>eighth</type>
        <stem>down</stem>
        <lyric number="1"   >
          <syllabic>single</syllabic>
          <text>pa</text>
          </lyric>
        </note>
      </measure>
    <measure number="8" >
      <note  >
        <pitch>
          <step>A</step>
          <octave>4</octave>
          </pitch>
        <duration>4</duration>
        <voice>1</voice>
        <type>quarter</type>
        <stem>up</stem>
        <notations>
          <slur type="start" placement="above" number="1"/>
          </notations>
        <lyric number="1"   >
          <syllabic>single</syllabic>
          <text>oc'h</text>
          </lyric>
        </note>
      <note  >
        <pitch>
          <step>B</step>
          <octave>4</octave>
          </pitch>
        <duration>2</duration>
        <voice>1</voice>
        <type>eighth</type>
        <stem>down</stem>
        <notations>
          <slur type="stop" number="1"/>
          </notations>
        <lyric number="1"   >
          <syllabic>single</syllabic>
          <text>'n em</text>
          </lyric>
        </note>
      <note  >
        <pitch>
          <step>C</step>
          <octave>5</octave>
          </pitch>
        <duration>2</duration>
        <voice>1</voice>
        <type>eighth</type>
        <stem>down</stem>
        <lyric number="1"   >
          <syllabic>begin</syllabic>
          <text>a</text>
          </lyric>
        </note>
      <note  >
        <pitch>
          <step>B</step>
          <octave>4</octave>
          </pitch>
        <duration>2</duration>
        <voice>1</voice>
        <type>eighth</type>
        <stem>down</stem>
        <lyric number="1"   >
          <syllabic>single</syllabic>
          <text>pa -</text>
          </lyric>
        </note>
      </measure>
    <measure number="9" >
      <note  >
        <pitch>
          <step>A</step>
          <octave>4</octave>
          </pitch>
        <duration>2</duration>
        <voice>1</voice>
        <type>eighth</type>
        <stem>up</stem>
        <lyric number="1"   >
          <syllabic>begin</syllabic>
          <text>ri</text>
          </lyric>
        </note>
      <note  >
        <pitch>
          <step>G</step>
          <octave>4</octave>
          </pitch>
        <duration>2</duration>
        <voice>1</voice>
        <type>eighth</type>
        <stem>up</stem>
        <lyric number="1"   >
          <syllabic>single</syllabic>
          <text>set</text>
          </lyric>
        </note>
      <note  >
        <pitch>
          <step>A</step>
          <octave>4</octave>
          </pitch>
        <duration>2</duration>
        <voice>1</voice>
        <type>eighth</type>
        <stem>up</stem>
        <lyric number="1"   >
          <syllabic>single</syllabic>
          <text>,Dec'h</text>
          </lyric>
        </note>
      <note  >
        <pitch>
          <step>B</step>
          <octave>4</octave>
          </pitch>
        <duration>2</duration>
        <voice>1</voice>
        <type>eighth</type>
        <stem>down</stem>
        <lyric number="1"   >
          <syllabic>single</syllabic>
          <text>i</text>
          </lyric>
        </note>
      <barline location="middle">
        <bar-style>regular</bar-style>
        </barline>
      <note  >
        <pitch>
          <step>C</step>
          <octave>5</octave>
          </pitch>
        <duration>2</duration>
        <voice>1</voice>
        <type>eighth</type>
        <stem>down</stem>
        <lyric number="1"   >
          <syllabic>single</syllabic>
          <text>we,Gwerc'hez</text>
          </lyric>
        </note>
      <note  >
        <pitch>
          <step>C</step>
          <octave>5</octave>
          </pitch>
        <duration>2</duration>
        <voice>1</voice>
        <type>eighth</type>
        <stem>down</stem>
        </note>
      <note  >
        <pitch>
          <step>C</step>
          <octave>5</octave>
          </pitch>
        <duration>2</duration>
        <voice>1</voice>
        <type>eighth</type>
        <stem>down</stem>
        </note>
      <note  >
        <pitch>
          <step>G</step>
          <octave>4</octave>
          </pitch>
        <duration>2</duration>
        <voice>1</voice>
        <type>eighth</type>
        <stem>up</stem>
        <lyric number="1"   >
          <syllabic>begin</syllabic>
          <text>fi</text>
          </lyric>
        </note>
      </measure>
    <measure number="10" >
      <note  >
        <pitch>
          <step>C</step>
          <octave>5</octave>
          </pitch>
        <duration>2</duration>
        <voice>1</voice>
        <type>eighth</type>
        <stem>down</stem>
        <lyric number="1"   >
          <syllabic>single</syllabic>
          <text>del</text>
          </lyric>
        </note>
      <note  >
        <pitch>
          <step>C</step>
          <octave>5</octave>
          </pitch>
        <duration>2</duration>
        <voice>1</voice>
        <type>eighth</type>
        <stem>down</stem>
        <lyric number="1"   >
          <syllabic>single</syllabic>
          <text>Ha</text>
          </lyric>
        </note>
      <note  >
        <pitch>
          <step>B</step>
          <octave>4</octave>
          </pitch>
        <duration>2</duration>
        <voice>1</voice>
        <type>eighth</type>
        <stem>down</stem>
        <lyric number="1"   >
          <syllabic>single</syllabic>
          <text>pa</text>
          </lyric>
        </note>
      </measure>
    <measure number="11" >
      <note  >
        <pitch>
          <step>A</step>
          <octave>4</octave>
          </pitch>
        <duration>2</duration>
        <voice>1</voice>
        <type>eighth</type>
        <stem>up</stem>
        <lyric number="1"   >
          <syllabic>single</syllabic>
          <text>oc'h</text>
          </lyric>
        </note>
      <note  >
        <pitch>
          <step>B</step>
          <octave>4</octave>
          </pitch>
        <duration>1</duration>
        <voice>1</voice>
        <type>16th</type>
        <stem>up</stem>
        <lyric number="1"   >
          <syllabic>single</syllabic>
          <text>'n</text>
          </lyric>
        </note>
      <note  >
        <pitch>
          <step>A</step>
          <octave>4</octave>
          </pitch>
        <duration>1</duration>
        <voice>1</voice>
        <type>16th</type>
        <stem>up</stem>
        <lyric number="1"   >
          <syllabic>begin</syllabic>
          <text>a</text>
          </lyric>
        </note>
      <note  >
        <pitch>
          <step>G</step>
          <octave>4</octave>
          </pitch>
        <duration>4</duration>
        <voice>1</voice>
        <type>quarter</type>
        <stem>up</stem>
        <notations>
          <slur type="start" placement="below" number="1"/>
          </notations>
        <lyric number="1"   >
          <syllabic>end</syllabic>
          <text>pa</text>
          </lyric>
        </note>
      <note  >
        <pitch>
          <step>A</step>
          <octave>4</octave>
          </pitch>
        <duration>2</duration>
        <voice>1</voice>
        <type>eighth</type>
        <stem>up</stem>
        <notations>
          <slur type="stop" number="1"/>
          </notations>
        <lyric number="1"   >
          <syllabic>single</syllabic>
          <text>ri</text>
          </lyric>
        </note>
      </measure>
    <measure number="12" >
      <note  >
        <pitch>
          <step>A</step>
          <octave>4</octave>
          </pitch>
        <duration>4</duration>
        <tie type="start"/>
        <voice>1</voice>
        <type>quarter</type>
        <stem>up</stem>
        <notations>
          <tied type="start"/>
          </notations>
        <lyric number="1"   >
          <syllabic>single</syllabic>
          <text>set.</text>
          </lyric>
        </note>
      <note  >
        <pitch>
          <step>A</step>
          <octave>4</octave>
          </pitch>
        <duration>2</duration>
        <tie type="stop"/>
        <voice>1</voice>
        <type>eighth</type>
        <stem>up</stem>
        <notations>
          <tied type="stop"/>
          </notations>
        </note>
      <note>
        <rest/>
        <duration>2</duration>
        <voice>1</voice>
        <type>eighth</type>
        </note>
      <barline location="right">
        <bar-style>light-light</bar-style>
        </barline>
      </measure>
    </part>
  </score-partwise>
