<?xml version="1.0" encoding="UTF-8" standalone="no"?>
<svg width="2100px" height="2970px" version="1.1" xmlns="http://www.w3.org/2000/svg" xmlns:xlink="http://www.w3.org/1999/xlink" xmlns:mei="http://www.music-encoding.org/ns/mei" overflow="visible">
   <desc>Engraved by Verovio 3.13.1</desc>
   <defs>
      <symbol id="E044-88737l" viewBox="0 0 1000 1000" overflow="inherit">
         <path transform="scale(1,-1)" d="M0 0c0 28 22 50 50 50s50 -22 50 -50s-22 -50 -50 -50s-50 22 -50 50z" />
      </symbol>
      <symbol id="E050-88737l" viewBox="0 0 1000 1000" overflow="inherit">
         <path transform="scale(1,-1)" d="M441 -245c-23 -4 -48 -6 -76 -6c-59 0 -102 7 -130 20c-88 42 -150 93 -187 154c-26 44 -43 103 -48 176c0 6 -1 13 -1 19c0 54 15 111 45 170c29 57 65 106 110 148s96 85 153 127c-3 16 -8 46 -13 92c-4 43 -5 73 -5 89c0 117 16 172 69 257c34 54 64 82 89 82 c21 0 43 -30 69 -92s39 -115 41 -159v-15c0 -109 -21 -162 -67 -241c-13 -20 -63 -90 -98 -118c-13 -9 -25 -19 -37 -29l31 -181c8 1 18 2 28 2c58 0 102 -12 133 -35c59 -43 92 -104 98 -184c1 -7 1 -15 1 -22c0 -123 -87 -209 -181 -248c8 -57 17 -110 25 -162 c5 -31 6 -58 6 -80c0 -30 -5 -53 -14 -70c-35 -64 -88 -99 -158 -103c-5 0 -11 -1 -16 -1c-37 0 -72 10 -108 27c-50 24 -77 59 -80 105v11c0 29 7 55 20 76c18 28 45 42 79 44h6c49 0 93 -42 97 -87v-9c0 -51 -34 -86 -105 -106c17 -24 51 -36 102 -36c62 0 116 43 140 85 c9 16 13 41 13 74c0 20 -1 42 -5 67c-8 53 -18 106 -26 159zM461 939c-95 0 -135 -175 -135 -286c0 -24 2 -48 5 -71c50 39 92 82 127 128c40 53 60 100 60 140v8c-4 53 -22 81 -55 81h-2zM406 119l54 -326c73 25 110 78 110 161c0 7 0 15 -1 23c-7 95 -57 142 -151 142h-12 zM382 117c-72 -2 -128 -47 -128 -120v-7c2 -46 43 -99 75 -115c-3 -2 -7 -5 -10 -10c-70 33 -116 88 -123 172v11c0 68 44 126 88 159c23 17 49 29 78 36l-29 170c-21 -13 -52 -37 -92 -73c-50 -44 -86 -84 -109 -119c-45 -69 -67 -130 -67 -182v-13c5 -68 35 -127 93 -176 s125 -73 203 -73c25 0 50 3 75 9c-19 111 -36 221 -54 331z" />
      </symbol>
      <symbol id="E081-88737l" viewBox="0 0 1000 1000" overflow="inherit">
         <path transform="scale(1,-1)" d="M68 -250v36c23 0 40 6 49 18c8 14 12 33 12 57v250l-82 -129l-27 13l107 255h128v-394c0 -24 5 -42 14 -53s25 -17 47 -17v-36h-248z" />
      </symbol>
      <symbol id="E085-88737l" viewBox="0 0 1000 1000" overflow="inherit">
         <path transform="scale(1,-1)" d="M161 38c-14 0 -56 -5 -92 -51h-32l5 263c55 -11 108 -18 158 -18c40 0 85 6 134 17c-8 -52 -39 -114 -159 -114l-50 2c-19 2 -31 4 -49 10l-5 -111c38 26 81 39 129 39c94 0 177 -64 177 -159c0 -100 -98 -166 -211 -166c-88 0 -146 53 -146 115c0 53 39 83 75 83 c37 0 69 -32 69 -72c0 -4 -1 -10 -4 -18l-27 -37c-2 -3 -3 -8 -3 -14c0 -15 12 -23 36 -23c74 0 92 77 92 132s-35 122 -97 122z" />
      </symbol>
      <symbol id="E086-88737l" viewBox="0 0 1000 1000" overflow="inherit">
         <path transform="scale(1,-1)" d="M284 -91c0 37 -28 92 -67 92c-35 0 -65 -54 -65 -111c0 -52 22 -104 68 -104c47 0 64 68 64 123zM230 214c-36 0 -90 -33 -90 -184l2 -36c40 24 81 36 120 36c80 0 140 -48 140 -121c0 -99 -99 -159 -182 -159c-160 0 -200 173 -200 244c0 21 2 43 7 71l10 35 c26 85 73 115 98 126c41 19 74 24 103 24c93 0 142 -63 142 -105c0 -58 -52 -72 -73 -72c-33 0 -59 24 -65 35c-3 5 -6 14 -7 25l11 30c6 15 9 27 9 35c0 11 -9 16 -25 16z" />
      </symbol>
      <symbol id="E088-88737l" viewBox="0 0 1000 1000" overflow="inherit">
         <path transform="scale(1,-1)" d="M195 -214c76 0 88 58 90 68c0 34 -35 60 -57 73l-52 29c-21 10 -32 17 -34 20c-39 -33 -58 -54 -62 -92c5 -23 23 -98 115 -98zM301 135c0 61 -72 76 -113 76c-40 0 -77 -17 -77 -51c3 -21 15 -38 26 -50c17 -15 33 -26 48 -34l65 -28c34 27 51 56 51 87zM176 -250 c-57 0 -166 26 -166 132c0 47 30 86 89 116c-33 15 -79 60 -79 119c0 79 85 132 178 132h18c5 0 21 1 28 -1c25 0 126 -30 126 -110c0 -37 -23 -76 -69 -116c43 -25 83 -71 83 -119c0 -101 -118 -153 -208 -153z" />
      </symbol>
      <symbol id="E0A4-88737l" viewBox="0 0 1000 1000" overflow="inherit">
         <path transform="scale(1,-1)" d="M0 -39c0 68 73 172 200 172c66 0 114 -37 114 -95c0 -84 -106 -171 -218 -171c-64 0 -96 30 -96 94z" />
      </symbol>
      <symbol id="E240-88737l" viewBox="0 0 1000 1000" overflow="inherit">
         <path transform="scale(1,-1)" d="M179 -646c15 29 29 55 46 102c18 49 30 108 30 138c0 105 -80 173 -168 200c-18 5 -47 9 -87 16v190h22c8 0 33 -61 71 -95c4 -3 -2 3 61 -56c62 -58 122 -137 122 -241c0 -38 -13 -106 -35 -163c-20 -51 -43 -99 -66 -132c-6 -5 -10 -7 -13 -7s-5 2 -5 5l4 10 c1 3 14 25 18 33z" />
      </symbol>
      <symbol id="E241-88737l" viewBox="0 0 1000 1000" overflow="inherit">
         <path transform="scale(1,-1)" d="M179 646c-4 8 -17 30 -18 33l-4 10c0 3 2 5 5 5s7 -2 13 -7c23 -33 46 -81 66 -132c22 -57 35 -125 35 -163c0 -104 -60 -183 -122 -241c-63 -59 -57 -53 -61 -56c-38 -34 -63 -95 -71 -95h-22v190c40 7 69 11 87 16c88 27 168 95 168 200c0 30 -12 89 -30 138 c-17 47 -31 73 -46 102z" />
      </symbol>
      <symbol id="E262-88737l" viewBox="0 0 1000 1000" overflow="inherit">
         <path transform="scale(1,-1)" d="M136 186v169h17v-164l44 14v-91l-44 -14v-165l44 12v-91l-44 -13v-155h-17v150l-76 -22v-155h-17v149l-43 -13v90l43 14v167l-43 -14v92l43 13v169h17v-163zM60 73v-167l76 22v168z" />
      </symbol>
   </defs>
   <style type="text/css">g.page-margin{font-family:Times;} g.ending, g.fing, g.reh, g.tempo{font-weight:bold;} g.dir, g.dynam, g.mNum{font-style:italic;} g.label{font-weight:normal;}</style>
   <svg class="definition-scale" color="black" viewBox="0 0 21000 29700">
      <g class="page-margin" transform="translate(500, 500)">
         <g id="m1stl88e" class="mdiv pageMilestone" />
         <g id="s1k8kaja" class="score pageMilestone" />
         <g id="s1lo7ep1" class="system">
            <g id="louktyt" class="label">
               <text x="1105" y="1535" text-anchor="end" font-size="0px">
                  <tspan id="t5trkyz" class="text">
                     <tspan font-size="405px" class="text">Piano</tspan>
                  </tspan>
               </text>
            </g>
            <g id="sb374cr" class="section systemMilestone" />
            <g id="prijv8" class="pb" />
            <g id="m531ry0" class="measure">
               <g id="mdwe4ti" class="mNum">
                  <text x="1285" y="842" text-anchor="middle" font-size="0px" />
               </g>
               <g id="sttmzxc" class="staff">
                  <path d="M1285 1085 L3436 1085" stroke="currentColor" stroke-width="13" />
                  <path d="M1285 1265 L3436 1265" stroke="currentColor" stroke-width="13" />
                  <path d="M1285 1445 L3436 1445" stroke="currentColor" stroke-width="13" />
                  <path d="M1285 1625 L3436 1625" stroke="currentColor" stroke-width="13" />
                  <path d="M1285 1805 L3436 1805" stroke="currentColor" stroke-width="13" />
                  <g id="c6icefw" class="clef">
                     <use xlink:href="#E050-88737l" x="1375" y="1625" height="720px" width="720px" />
                  </g>
                  <g id="kxghhub" class="keySig">
                     <g id="krb4l11" class="keyAccid">
                        <use xlink:href="#E262-88737l" x="2020" y="1085" height="720px" width="720px" />
                     </g>
                  </g>
                  <g id="ma5f2qe" class="meterSig">
                     <use xlink:href="#E086-88737l" x="2327" y="1265" height="720px" width="720px" />
                     <use xlink:href="#E088-88737l" x="2334" y="1625" height="720px" width="720px" />
                  </g>
                  <g id="l1t8g2gz" class="layer">
                     <g id="n13eisih" class="note">
                        <g class="notehead">
                           <use xlink:href="#E0A4-88737l" x="2889" y="1625" height="720px" width="720px" />
                        </g>
                        <g id="s1rdaj94" class="stem">
                           <rect x="3097" y="995" height="602" width="18" />
                           <g id="f1d3o7s1" class="flag">
                              <use xlink:href="#E240-88737l" x="3097" y="995" height="720px" width="720px" />
                           </g>
                        </g>
                     </g>
                  </g>
               </g>
               <g id="bo00uh5" class="barLine">
                  <path d="M3423 1085 L3423 1805" stroke="currentColor" stroke-width="27" />
               </g>
            </g>
            <g id="m1tc3thw" class="measure">
               <g id="s4bzl2g" class="staff">
                  <path d="M3436 1085 L6342 1085" stroke="currentColor" stroke-width="13" />
                  <path d="M3436 1265 L6342 1265" stroke="currentColor" stroke-width="13" />
                  <path d="M3436 1445 L6342 1445" stroke="currentColor" stroke-width="13" />
                  <path d="M3436 1625 L6342 1625" stroke="currentColor" stroke-width="13" />
                  <path d="M3436 1805 L6342 1805" stroke="currentColor" stroke-width="13" />
                  <g id="l1laaltd" class="layer">
                     <g id="n6rnxoc" class="note">
                        <g class="notehead">
                           <use xlink:href="#E0A4-88737l" x="3619" y="1535" height="720px" width="720px" />
                        </g>
                        <g id="se50oiv" class="stem">
                           <rect x="3827" y="905" height="602" width="18" />
                        </g>
                     </g>
                     <g id="nlw003k" class="note">
                        <g class="notehead">
                           <use xlink:href="#E0A4-88737l" x="4440" y="1445" height="720px" width="720px" />
                        </g>
                        <g id="sztn5yp" class="stem">
                           <rect x="4440" y="1473" height="572" width="18" />
                           <g id="f1h401ac" class="flag">
                              <use xlink:href="#E241-88737l" x="4440" y="2045" height="720px" width="720px" />
                           </g>
                        </g>
                     </g>
                     <g id="n1kq81fq" class="note">
                        <g class="notehead">
                           <use xlink:href="#E0A4-88737l" x="4974" y="1445" height="720px" width="720px" />
                        </g>
                        <g id="s3rq94e" class="stem">
                           <rect x="4974" y="1473" height="572" width="18" />
                        </g>
                     </g>
                     <g id="n1rgxv2u" class="note">
                        <g class="notehead">
                           <use xlink:href="#E0A4-88737l" x="5795" y="1535" height="720px" width="720px" />
                        </g>
                        <g id="s10889mx" class="stem">
                           <rect x="6003" y="905" height="602" width="18" />
                           <g id="f1nnfikt" class="flag">
                              <use xlink:href="#E240-88737l" x="6003" y="905" height="720px" width="720px" />
                           </g>
                        </g>
                     </g>
                  </g>
               </g>
               <g id="b565syo" class="barLine">
                  <path d="M6329 1085 L6329 1805" stroke="currentColor" stroke-width="27" />
               </g>
            </g>
            <g id="m1pixkqw" class="measure">
               <g id="s1ebxpf3" class="staff">
                  <path d="M6342 1085 L9496 1085" stroke="currentColor" stroke-width="13" />
                  <path d="M6342 1265 L9496 1265" stroke="currentColor" stroke-width="13" />
                  <path d="M6342 1445 L9496 1445" stroke="currentColor" stroke-width="13" />
                  <path d="M6342 1625 L9496 1625" stroke="currentColor" stroke-width="13" />
                  <path d="M6342 1805 L9496 1805" stroke="currentColor" stroke-width="13" />
                  <g id="l2nlfi7" class="layer">
                     <g id="b2nlbjk" class="beam">
                        <polygon points="6733,905 7820,905 7820,995 6733,995" />
                        <g id="n109mu0i" class="note">
                           <g class="notehead">
                              <use xlink:href="#E0A4-88737l" x="6525" y="1535" height="720px" width="720px" />
                           </g>
                           <g id="s1x1et4h" class="stem">
                              <rect x="6733" y="923" height="584" width="18" />
                           </g>
                        </g>
                        <g id="n1jy6iez" class="note">
                           <g class="notehead">
                              <use xlink:href="#E0A4-88737l" x="7059" y="1625" height="720px" width="720px" />
                           </g>
                           <g id="sa829r4" class="stem">
                              <rect x="7267" y="923" height="674" width="18" />
                           </g>
                        </g>
                        <g id="nj0dyf2" class="note">
                           <g class="notehead">
                              <use xlink:href="#E0A4-88737l" x="7594" y="1535" height="720px" width="720px" />
                           </g>
                           <g id="slky3f5" class="stem">
                              <rect x="7802" y="923" height="584" width="18" />
                           </g>
                        </g>
                     </g>
                     <g id="nzc4zb6" class="note">
                        <g class="notehead">
                           <use xlink:href="#E0A4-88737l" x="8128" y="1535" height="720px" width="720px" />
                        </g>
                        <g id="s1ybqgiz" class="stem">
                           <rect x="8336" y="905" height="602" width="18" />
                        </g>
                     </g>
                     <g id="n1yrbf4n" class="note">
                        <g class="notehead">
                           <use xlink:href="#E0A4-88737l" x="8949" y="1625" height="720px" width="720px" />
                        </g>
                        <g id="s7v6817" class="stem">
                           <rect x="9157" y="995" height="602" width="18" />
                           <g id="fy72tq2" class="flag">
                              <use xlink:href="#E240-88737l" x="9157" y="995" height="720px" width="720px" />
                           </g>
                        </g>
                     </g>
                  </g>
               </g>
               <g id="b1i2ic7q" class="barLine">
                  <path d="M9483 1085 L9483 1805" stroke="currentColor" stroke-width="27" />
               </g>
            </g>
            <g id="mkujlk4" class="measure">
               <g id="suv8pz8" class="staff">
                  <path d="M9496 1085 L12402 1085" stroke="currentColor" stroke-width="13" />
                  <path d="M9496 1265 L12402 1265" stroke="currentColor" stroke-width="13" />
                  <path d="M9496 1445 L12402 1445" stroke="currentColor" stroke-width="13" />
                  <path d="M9496 1625 L12402 1625" stroke="currentColor" stroke-width="13" />
                  <path d="M9496 1805 L12402 1805" stroke="currentColor" stroke-width="13" />
                  <g id="lrk83dd" class="layer">
                     <g id="nab6to2" class="note">
                        <g class="notehead">
                           <use xlink:href="#E0A4-88737l" x="9679" y="1535" height="720px" width="720px" />
                        </g>
                        <g id="s13othr2" class="stem">
                           <rect x="9887" y="905" height="602" width="18" />
                        </g>
                     </g>
                     <g id="noay4zo" class="note">
                        <g class="notehead">
                           <use xlink:href="#E0A4-88737l" x="10500" y="1445" height="720px" width="720px" />
                        </g>
                        <g id="srw14c8" class="stem">
                           <rect x="10500" y="1473" height="572" width="18" />
                           <g id="fd66c0d" class="flag">
                              <use xlink:href="#E241-88737l" x="10500" y="2045" height="720px" width="720px" />
                           </g>
                        </g>
                     </g>
                     <g id="n1x5ilaa" class="note">
                        <g class="notehead">
                           <use xlink:href="#E0A4-88737l" x="11034" y="1445" height="720px" width="720px" />
                        </g>
                        <g id="suyr7cw" class="stem">
                           <rect x="11034" y="1473" height="572" width="18" />
                        </g>
                     </g>
                     <g id="n16ou9gl" class="note">
                        <g class="notehead">
                           <use xlink:href="#E0A4-88737l" x="11855" y="1535" height="720px" width="720px" />
                        </g>
                        <g id="scffpuo" class="stem">
                           <rect x="12063" y="905" height="602" width="18" />
                           <g id="fyjmuvq" class="flag">
                              <use xlink:href="#E240-88737l" x="12063" y="905" height="720px" width="720px" />
                           </g>
                        </g>
                     </g>
                  </g>
               </g>
               <g id="bosxsqn" class="barLine">
                  <path d="M12389 1085 L12389 1805" stroke="currentColor" stroke-width="27" />
               </g>
            </g>
            <g id="muhijdl" class="measure">
               <g id="sltkxhn" class="staff">
                  <path d="M12402 1085 L15076 1085" stroke="currentColor" stroke-width="13" />
                  <path d="M12402 1265 L15076 1265" stroke="currentColor" stroke-width="13" />
                  <path d="M12402 1445 L15076 1445" stroke="currentColor" stroke-width="13" />
                  <path d="M12402 1625 L15076 1625" stroke="currentColor" stroke-width="13" />
                  <path d="M12402 1805 L15076 1805" stroke="currentColor" stroke-width="13" />
                  <g id="msk07oa" class="meterSig">
                     <use xlink:href="#E085-88737l" x="12487" y="1265" height="720px" width="720px" />
                     <use xlink:href="#E088-88737l" x="12485" y="1625" height="720px" width="720px" />
                  </g>
                  <g id="l1ova70z" class="layer">
                     <g id="n1yo55lz" class="note">
                        <g class="notehead">
                           <use xlink:href="#E0A4-88737l" x="13034" y="1535" height="720px" width="720px" />
                        </g>
                        <g id="d1miw281" class="dots">
                           <ellipse cx="13350" cy="1535" rx="36" ry="36" />
                        </g>
                        <g id="so9smtp" class="stem">
                           <rect x="13242" y="905" height="602" width="18" />
                        </g>
                     </g>
                     <g id="n1p10tgk" class="note">
                        <g class="notehead">
                           <use xlink:href="#E0A4-88737l" x="14080" y="1625" height="720px" width="720px" />
                        </g>
                        <g id="s1sz8zme" class="stem">
                           <rect x="14288" y="995" height="602" width="18" />
                        </g>
                     </g>
                  </g>
               </g>
               <g id="b1rtuzbv" class="barLine">
                  <path d="M14901 1085 L14901 1805" stroke="currentColor" stroke-width="27" />
                  <path d="M15031 1085 L15031 1805" stroke="currentColor" stroke-width="90" />
                  <use xlink:href="#E044-88737l" x="14784" y="1355" height="720px" width="720px" />
                  <use xlink:href="#E044-88737l" x="14784" y="1535" height="720px" width="720px" />
               </g>
            </g>
            <g id="mxrfyg2" class="measure">
               <g id="sp9c6vd" class="staff">
                  <path d="M15076 1085 L16641 1085" stroke="currentColor" stroke-width="13" />
                  <path d="M15076 1265 L16641 1265" stroke="currentColor" stroke-width="13" />
                  <path d="M15076 1445 L16641 1445" stroke="currentColor" stroke-width="13" />
                  <path d="M15076 1625 L16641 1625" stroke="currentColor" stroke-width="13" />
                  <path d="M15076 1805 L16641 1805" stroke="currentColor" stroke-width="13" />
                  <g id="m1r7rpms" class="meterSig">
                     <use xlink:href="#E081-88737l" x="15183" y="1265" height="720px" width="720px" />
                     <use xlink:href="#E088-88737l" x="15159" y="1625" height="720px" width="720px" />
                  </g>
                  <g id="lylmnlt" class="layer">
                     <g id="n1wub2cy" class="note">
                        <g class="notehead">
                           <use xlink:href="#E0A4-88737l" x="16094" y="1445" height="720px" width="720px" />
                        </g>
                        <g id="s1ynousr" class="stem">
                           <rect x="16094" y="1473" height="572" width="18" />
                           <g id="fcwig2t" class="flag">
                              <use xlink:href="#E241-88737l" x="16094" y="2045" height="720px" width="720px" />
                           </g>
                        </g>
                     </g>
                  </g>
               </g>
               <g id="bzop1wq" class="barLine">
                  <path d="M15660 1085 L15660 1805" stroke="currentColor" stroke-width="90" />
                  <path d="M15790 1085 L15790 1805" stroke="currentColor" stroke-width="27" />
                  <use xlink:href="#E044-88737l" x="15836" y="1355" height="720px" width="720px" />
                  <use xlink:href="#E044-88737l" x="15836" y="1535" height="720px" width="720px" />
               </g>
               <g id="brhpxoq" class="barLine">
                  <path d="M16628 1085 L16628 1805" stroke="currentColor" stroke-width="27" />
               </g>
            </g>
            <g id="m6m77by" class="measure">
               <g id="s1uls0yb" class="staff">
                  <path d="M16641 1085 L20002 1085" stroke="currentColor" stroke-width="13" />
                  <path d="M16641 1265 L20002 1265" stroke="currentColor" stroke-width="13" />
                  <path d="M16641 1445 L20002 1445" stroke="currentColor" stroke-width="13" />
                  <path d="M16641 1625 L20002 1625" stroke="currentColor" stroke-width="13" />
                  <path d="M16641 1805 L20002 1805" stroke="currentColor" stroke-width="13" />
                  <g id="mcf4af5" class="meterSig">
                     <use xlink:href="#E086-88737l" x="16717" y="1265" height="720px" width="720px" />
                     <use xlink:href="#E088-88737l" x="16724" y="1625" height="720px" width="720px" />
                  </g>
                  <g id="l1judxd4" class="layer">
                     <g id="n88xvxe" class="note">
                        <g class="notehead">
                           <use xlink:href="#E0A4-88737l" x="17279" y="1535" height="720px" width="720px" />
                        </g>
                        <g id="skc90mj" class="stem">
                           <rect x="17487" y="905" height="602" width="18" />
                        </g>
                     </g>
                     <g id="n1g7ya8g" class="note">
                        <g class="notehead">
                           <use xlink:href="#E0A4-88737l" x="18100" y="1625" height="720px" width="720px" />
                        </g>
                        <g id="s6g4gby" class="stem">
                           <rect x="18308" y="995" height="602" width="18" />
                           <g id="fgwv5bi" class="flag">
                              <use xlink:href="#E240-88737l" x="18308" y="995" height="720px" width="720px" />
                           </g>
                        </g>
                     </g>
                     <g id="ncivx2l" class="note">
                        <g class="notehead">
                           <use xlink:href="#E0A4-88737l" x="18634" y="1715" height="720px" width="720px" />
                        </g>
                        <g id="s5vcazf" class="stem">
                           <rect x="18842" y="1085" height="602" width="18" />
                        </g>
                        <g id="a36sm1h" class="accid" />
                     </g>
                     <g id="n1vofxuj" class="note">
                        <g class="notehead">
                           <use xlink:href="#E0A4-88737l" x="19455" y="1625" height="720px" width="720px" />
                        </g>
                        <g id="s4rm5zw" class="stem">
                           <rect x="19663" y="995" height="602" width="18" />
                           <g id="f19s732" class="flag">
                              <use xlink:href="#E240-88737l" x="19663" y="995" height="720px" width="720px" />
                           </g>
                        </g>
                     </g>
                  </g>
               </g>
               <g id="b1jx2oi6" class="barLine">
                  <path d="M19989 1085 L19989 1805" stroke="currentColor" stroke-width="27" />
               </g>
            </g>
         </g>
         <g id="s1ld7v8d" class="system">
            <g id="ldfci08" class="labelAbbr">
               <text x="914" y="3884" text-anchor="end" font-size="0px">
                  <tspan id="t1u48j9l" class="text">
                     <tspan font-size="405px" class="text">Pno.</tspan>
                  </tspan>
               </text>
            </g>
            <g id="m4dgmbq" class="measure">
               <g id="m6ireao" class="mNum autogenerated">
                  <text x="1094" y="3191" text-anchor="middle" font-size="0px">
                     <tspan id="txwrizr" class="text">
                        <tspan font-size="324px" class="text">7</tspan>
                     </tspan>
                  </text>
               </g>
               <g id="ss53kx5" class="staff">
                  <path d="M1094 3434 L5010 3434" stroke="currentColor" stroke-width="13" />
                  <path d="M1094 3614 L5010 3614" stroke="currentColor" stroke-width="13" />
                  <path d="M1094 3794 L5010 3794" stroke="currentColor" stroke-width="13" />
                  <path d="M1094 3974 L5010 3974" stroke="currentColor" stroke-width="13" />
                  <path d="M1094 4154 L5010 4154" stroke="currentColor" stroke-width="13" />
                  <g id="c17iypdb" class="clef">
                     <use xlink:href="#E050-88737l" x="1184" y="3974" height="720px" width="720px" />
                  </g>
                  <g id="k1eprk9e" class="keySig">
                     <g id="k5e0t9s" class="keyAccid">
                        <use xlink:href="#E262-88737l" x="1829" y="3434" height="720px" width="720px" />
                     </g>
                  </g>
                  <g id="lcg8q90" class="layer">
                     <g id="nzrfmlt" class="note">
                        <g class="notehead">
                           <use xlink:href="#E0A4-88737l" x="2249" y="3884" height="720px" width="720px" />
                        </g>
                        <g id="d7b91tc" class="dots">
                           <ellipse cx="2565" cy="3884" rx="36" ry="36" />
                        </g>
                        <g id="s15r2evi" class="stem">
                           <rect x="2457" y="3254" height="602" width="18" />
                        </g>
                     </g>
                     <g id="b1mqsrf4" class="beam">
                        <polygon points="3542,3389 4668,3209 4668,3299 3542,3479" />
                        <g id="n1p9i5h0" class="note">
                           <g class="notehead">
                              <use xlink:href="#E0A4-88737l" x="3334" y="3974" height="720px" width="720px" />
                           </g>
                           <g id="s1qpxt5o" class="stem">
                              <rect x="3542" y="3407" height="539" width="18" />
                           </g>
                        </g>
                        <g id="nxbcrw9" class="note">
                           <g class="notehead">
                              <use xlink:href="#E0A4-88737l" x="3888" y="3884" height="720px" width="720px" />
                           </g>
                           <g id="s15v9t51" class="stem">
                              <rect x="4096" y="3317" height="539" width="18" />
                           </g>
                        </g>
                        <g id="n1mn87sj" class="note">
                           <g class="notehead">
                              <use xlink:href="#E0A4-88737l" x="4442" y="3794" height="720px" width="720px" />
                           </g>
                           <g id="s6d7hqn" class="stem">
                              <rect x="4650" y="3227" height="539" width="18" />
                           </g>
                        </g>
                     </g>
                  </g>
               </g>
               <g id="b99i9p3" class="barLine">
                  <path d="M4997 3434 L4997 4154" stroke="currentColor" stroke-width="27" />
               </g>
            </g>
            <g id="sc8xc8s" class="sb" />
            <g id="m34jirl" class="measure">
               <g id="s1ejqood" class="staff">
                  <path d="M5010 3434 L8280 3434" stroke="currentColor" stroke-width="13" />
                  <path d="M5010 3614 L8280 3614" stroke="currentColor" stroke-width="13" />
                  <path d="M5010 3794 L8280 3794" stroke="currentColor" stroke-width="13" />
                  <path d="M5010 3974 L8280 3974" stroke="currentColor" stroke-width="13" />
                  <path d="M5010 4154 L8280 4154" stroke="currentColor" stroke-width="13" />
                  <g id="l1xml7xw" class="layer">
                     <g id="nv9kka5" class="note">
                        <g class="notehead">
                           <use xlink:href="#E0A4-88737l" x="5199" y="3794" height="720px" width="720px" />
                        </g>
                        <g id="s1c9g8jp" class="stem">
                           <rect x="5199" y="3822" height="572" width="18" />
                        </g>
                     </g>
                     <g id="nw315dj" class="note">
                        <g class="notehead">
                           <use xlink:href="#E0A4-88737l" x="6050" y="3884" height="720px" width="720px" />
                        </g>
                        <g id="sefqvwy" class="stem">
                           <rect x="6258" y="3254" height="602" width="18" />
                           <g id="f1iuiv1i" class="flag">
                              <use xlink:href="#E240-88737l" x="6258" y="3254" height="720px" width="720px" />
                           </g>
                        </g>
                     </g>
                     <g id="b1s7sg5u" class="beam">
                        <polygon points="6812,3254 7939,3254 7939,3344 6812,3344" />
                        <g id="ncax6h9" class="note">
                           <g class="notehead">
                              <use xlink:href="#E0A4-88737l" x="6604" y="3884" height="720px" width="720px" />
                           </g>
                           <g id="s1nkg583" class="stem">
                              <rect x="6812" y="3272" height="584" width="18" />
                           </g>
                        </g>
                        <g id="nhtl8w4" class="note">
                           <g class="notehead">
                              <use xlink:href="#E0A4-88737l" x="7158" y="3974" height="720px" width="720px" />
                           </g>
                           <g id="s135ydm7" class="stem">
                              <rect x="7366" y="3272" height="674" width="18" />
                           </g>
                        </g>
                        <g id="nd5ptfq" class="note">
                           <g class="notehead">
                              <use xlink:href="#E0A4-88737l" x="7713" y="3884" height="720px" width="720px" />
                           </g>
                           <g id="s5z125y" class="stem">
                              <rect x="7921" y="3272" height="584" width="18" />
                           </g>
                        </g>
                     </g>
                  </g>
               </g>
               <g id="bdnwtc9" class="barLine">
                  <path d="M8267 3434 L8267 4154" stroke="currentColor" stroke-width="27" />
               </g>
            </g>
            <g id="m1cn70ne" class="measure">
               <g id="s16y2ibl" class="staff">
                  <path d="M8280 3434 L11292 3434" stroke="currentColor" stroke-width="13" />
                  <path d="M8280 3614 L11292 3614" stroke="currentColor" stroke-width="13" />
                  <path d="M8280 3794 L11292 3794" stroke="currentColor" stroke-width="13" />
                  <path d="M8280 3974 L11292 3974" stroke="currentColor" stroke-width="13" />
                  <path d="M8280 4154 L11292 4154" stroke="currentColor" stroke-width="13" />
                  <g id="l1ad0reu" class="layer">
                     <g id="n2q8xvj" class="note">
                        <g class="notehead">
                           <use xlink:href="#E0A4-88737l" x="8469" y="3884" height="720px" width="720px" />
                        </g>
                        <g id="s1l40h2k" class="stem">
                           <rect x="8677" y="3254" height="602" width="18" />
                        </g>
                     </g>
                     <g id="n3s1byp" class="note">
                        <g class="notehead">
                           <use xlink:href="#E0A4-88737l" x="9320" y="3794" height="720px" width="720px" />
                        </g>
                        <g id="s1s9vjkv" class="stem">
                           <rect x="9320" y="3822" height="572" width="18" />
                           <g id="f1n3m55j" class="flag">
                              <use xlink:href="#E241-88737l" x="9320" y="4394" height="720px" width="720px" />
                           </g>
                        </g>
                     </g>
                     <g id="nz7z5zn" class="note">
                        <g class="notehead">
                           <use xlink:href="#E0A4-88737l" x="9874" y="3884" height="720px" width="720px" />
                        </g>
                        <g id="s1fdvshx" class="stem">
                           <rect x="10082" y="3254" height="602" width="18" />
                        </g>
                     </g>
                     <g id="n1vjmw1n" class="note">
                        <g class="notehead">
                           <use xlink:href="#E0A4-88737l" x="10725" y="3974" height="720px" width="720px" />
                        </g>
                        <g id="si404r4" class="stem">
                           <rect x="10933" y="3344" height="602" width="18" />
                           <g id="f1tsq5ce" class="flag">
                              <use xlink:href="#E240-88737l" x="10933" y="3344" height="720px" width="720px" />
                           </g>
                        </g>
                     </g>
                  </g>
               </g>
               <g id="b1hbzi9q" class="barLine">
                  <path d="M11279 3434 L11279 4154" stroke="currentColor" stroke-width="27" />
               </g>
            </g>
            <g id="m1l8hlcs" class="measure">
               <g id="s1s4ezoo" class="staff">
                  <path d="M11292 3434 L13984 3434" stroke="currentColor" stroke-width="13" />
                  <path d="M11292 3614 L13984 3614" stroke="currentColor" stroke-width="13" />
                  <path d="M11292 3794 L13984 3794" stroke="currentColor" stroke-width="13" />
                  <path d="M11292 3974 L13984 3974" stroke="currentColor" stroke-width="13" />
                  <path d="M11292 4154 L13984 4154" stroke="currentColor" stroke-width="13" />
                  <g id="lnx2993" class="layer">
                     <g id="n1s15q4r" class="note">
                        <g class="notehead">
                           <use xlink:href="#E0A4-88737l" x="11481" y="4064" height="720px" width="720px" />
                        </g>
                        <g id="sy5ytdm" class="stem">
                           <rect x="11689" y="3434" height="602" width="18" />
                        </g>
                        <g id="a1j12u8s" class="accid" />
                     </g>
                     <g id="noudxfi" class="note">
                        <g class="notehead">
                           <use xlink:href="#E0A4-88737l" x="12332" y="3974" height="720px" width="720px" />
                        </g>
                        <g id="s1729cip" class="stem">
                           <rect x="12540" y="3344" height="602" width="18" />
                           <g id="fh4tch4" class="flag">
                              <use xlink:href="#E240-88737l" x="12540" y="3344" height="720px" width="720px" />
                           </g>
                        </g>
                     </g>
                     <g id="nskvmgy" class="note">
                        <g class="notehead">
                           <use xlink:href="#E0A4-88737l" x="12886" y="3884" height="720px" width="720px" />
                        </g>
                        <g id="d1mox4p5" class="dots">
                           <ellipse cx="13202" cy="3884" rx="36" ry="36" />
                        </g>
                        <g id="s1hzzes3" class="stem">
                           <rect x="13094" y="3254" height="602" width="18" />
                        </g>
                     </g>
                  </g>
               </g>
               <g id="b14qhze5" class="barLine">
                  <path d="M13971 3434 L13971 4154" stroke="currentColor" stroke-width="27" />
               </g>
            </g>
            <g id="mw5vn0t" class="measure">
               <g id="s12u5efg" class="staff">
                  <path d="M13984 3434 L17254 3434" stroke="currentColor" stroke-width="13" />
                  <path d="M13984 3614 L17254 3614" stroke="currentColor" stroke-width="13" />
                  <path d="M13984 3794 L17254 3794" stroke="currentColor" stroke-width="13" />
                  <path d="M13984 3974 L17254 3974" stroke="currentColor" stroke-width="13" />
                  <path d="M13984 4154 L17254 4154" stroke="currentColor" stroke-width="13" />
                  <g id="ltpigtj" class="layer">
                     <g id="b1djgypz" class="beam">
                        <polygon points="14381,3389 15507,3209 15507,3299 14381,3479" />
                        <g id="nf57c8w" class="note">
                           <g class="notehead">
                              <use xlink:href="#E0A4-88737l" x="14173" y="3974" height="720px" width="720px" />
                           </g>
                           <g id="s6k7sn1" class="stem">
                              <rect x="14381" y="3407" height="539" width="18" />
                           </g>
                        </g>
                        <g id="n29h070" class="note">
                           <g class="notehead">
                              <use xlink:href="#E0A4-88737l" x="14727" y="3884" height="720px" width="720px" />
                           </g>
                           <g id="ssesr8h" class="stem">
                              <rect x="14935" y="3317" height="539" width="18" />
                           </g>
                        </g>
                        <g id="n1bjrckr" class="note">
                           <g class="notehead">
                              <use xlink:href="#E0A4-88737l" x="15281" y="3794" height="720px" width="720px" />
                           </g>
                           <g id="st7c11q" class="stem">
                              <rect x="15489" y="3227" height="539" width="18" />
                           </g>
                        </g>
                     </g>
                     <g id="nb6a96m" class="note">
                        <g class="notehead">
                           <use xlink:href="#E0A4-88737l" x="15836" y="3794" height="720px" width="720px" />
                        </g>
                        <g id="s7lduoe" class="stem">
                           <rect x="15836" y="3822" height="572" width="18" />
                        </g>
                     </g>
                     <g id="n868xd2" class="note">
                        <g class="notehead">
                           <use xlink:href="#E0A4-88737l" x="16687" y="3884" height="720px" width="720px" />
                        </g>
                        <g id="sxshu9v" class="stem">
                           <rect x="16895" y="3254" height="602" width="18" />
                           <g id="f16lxwbb" class="flag">
                              <use xlink:href="#E240-88737l" x="16895" y="3254" height="720px" width="720px" />
                           </g>
                        </g>
                     </g>
                  </g>
               </g>
               <g id="bu94js4" class="barLine">
                  <path d="M17241 3434 L17241 4154" stroke="currentColor" stroke-width="27" />
               </g>
            </g>
            <g id="m19n4m08" class="measure">
               <g id="s1d4xh4h" class="staff">
                  <path d="M17254 3434 L20003 3434" stroke="currentColor" stroke-width="13" />
                  <path d="M17254 3614 L20003 3614" stroke="currentColor" stroke-width="13" />
                  <path d="M17254 3794 L20003 3794" stroke="currentColor" stroke-width="13" />
                  <path d="M17254 3974 L20003 3974" stroke="currentColor" stroke-width="13" />
                  <path d="M17254 4154 L20003 4154" stroke="currentColor" stroke-width="13" />
                  <g id="m6oi2rk" class="meterSig">
                     <use xlink:href="#E085-88737l" x="17339" y="3614" height="720px" width="720px" />
                     <use xlink:href="#E088-88737l" x="17337" y="3974" height="720px" width="720px" />
                  </g>
                  <g id="lou4epj" class="layer">
                     <g id="n8zuqhy" class="note">
                        <g class="notehead">
                           <use xlink:href="#E0A4-88737l" x="17892" y="3974" height="720px" width="720px" />
                        </g>
                        <g id="d154z45e" class="dots">
                           <ellipse cx="18208" cy="3884" rx="36" ry="36" />
                        </g>
                        <g id="s1bdpod9" class="stem">
                           <rect x="18100" y="3344" height="602" width="18" />
                        </g>
                     </g>
                     <g id="n4g7s7p" class="note">
                        <g class="notehead">
                           <use xlink:href="#E0A4-88737l" x="18977" y="3704" height="720px" width="720px" />
                        </g>
                        <g id="ss45i1k" class="stem">
                           <rect x="18977" y="3732" height="602" width="18" />
                        </g>
                     </g>
                  </g>
               </g>
               <g id="b1pyan3s" class="barLine">
                  <path d="M19828 3434 L19828 4154" stroke="currentColor" stroke-width="27" />
                  <path d="M19958 3434 L19958 4154" stroke="currentColor" stroke-width="90" />
               </g>
            </g>
            <g id="sgfw3aa" class="systemMilestoneEnd sb374cr" />
         </g>
         <g id="pir57vw" class="pageMilestoneEnd s1k8kaja" />
         <g id="pt1j2j9" class="pageMilestoneEnd m1stl88e" />
         <g id="p1v3r1ia" class="pgHead">
            <text x="0" y="0" font-size="0px">
               <tspan id="rhlz8lu" class="rend" x="10000" y="277" text-anchor="middle">
                  <tspan id="tgpfbue" class="text">
                     <tspan font-size="405px" class="text">Air n 42</tspan>
                  </tspan>
               </tspan>
            </text>
         </g>
         <g id="p5vz5x9" class="pgFoot autogenerated">
            <g id="fj0a33o" class="fig">
               <g id="s1009zif" class="svg" transform="translate(7750, 28099) scale(10, 10)">
                  <g>
                     <path fill="#00000" d="M 17.11278,49.26451 V 10.367554 h 12.696511 c 3.288815,7.336676 6.71267,14.610456 10.127281,21.888976 3.419998,-7.484684 6.255515,-14.204887 9.58887,-21.909915 2.436207,0.103726 4.316952,0.08453 6.484294,-0.05808 V 49.264423 H 50.274275 C 50.145222,38.35639 50.016136,27.448368 49.887066,16.540329 45.003488,27.315459 39.967448,38.433564 35.083854,49.208695 34.678996,49.343717 34.426583,49.135619 34.021726,49.270644 29.46588,39.330716 24.910049,29.390805 20.354201,19.450876 20.224341,29.388756 20.09461,39.326619 19.964815,49.264497 H 17.11278 Z M 36.754144,39.324695 C 32.721221,30.512695 28.6883,21.700679 24.655394,12.888662 22.530527,12.750737 22.656775,12.71031 20.714356,12.813974 v 0.966497 c 4.612938,9.99784 9.609439,20.748709 13.87298,30.081745 0.722248,-1.512523 1.444528,-3.025014 2.166808,-4.537521 z m 25.738417,9.939815 c 0,-12.965651 0,-25.931305 0,-38.896956 10.084388,0 20.168791,0 30.253178,0 0,0.960416 0,1.920849 0,2.881265 -6.482825,0 -12.965652,0 -19.448478,0 0,4.802097 0,9.604178 0,14.406277 5.52241,0 11.044819,0 16.567229,0 0,0.960415 0,1.920832 0,2.881248 -5.52241,0 -11.044819,0 -16.567229,0 0,5.282306 0,10.564611 0,15.846917 6.963035,0 13.926068,0 20.889103,0 0,0.960416 0,1.920832 0,2.881249 -10.564597,0 -21.129207,0 -31.693803,0 z m 4.321874,-2.160937 c 0,-11.765131 0,-23.530263 0,-35.295394 -0.720312,0 -1.440625,0 -2.160937,0 0,11.765131 0,23.530263 0,35.295394 0.720312,0 1.440625,0 2.160937,0 z m 32.41413,2.160937 c 0,-12.965651 0,-25.931305 0,-38.896956 2.401045,0 4.802095,0 7.203135,0 0,12.965651 0,25.931305 0,38.896956 -2.40104,0 -4.80209,0 -7.203135,0 z m 2.881265,-2.160937 c 0,-11.765131 0,-23.530263 0,-35.295394 -0.72031,0 -1.44064,0 -2.160953,0 0,11.765131 0,23.530263 0,35.295394 0.720313,0 1.440643,0 2.160953,0 z" />
                     <path fill="#00000" d="m 346.3,6.7 c -3.1,0.5 -4.9,4.4 -2.7,6.8 1.2,1.4 2.7,2.4 4.1,3.5 -2.4,5.3 -7.7,8.3 -11.9,12.1 -3.7,2.8 -7,6.2 -9.7,9.9 -2.2,-0.8 -0.3,-6.8 -0.6,-9.5 0.1,-3.1 0.7,-6.4 2.9,-8.7 1.3,-1.9 3,-3.5 4.5,-5.2 1.2,-3.4 -3.2,-4.9 -5.8,-4.6 -7.3,-0.5 -14.6,2 -20,6.8 -5,4.6 -10,10.1 -11.5,17 -0.9,3.5 -0.2,7.5 2.8,9.9 2.5,2.8 7.4,2.9 9.8,-0.2 1.7,-2.3 3.2,-4.8 3.8,-7.6 -0.1,-2.6 -4.4,-2.3 -4.3,0.2 1.2,2.4 -0.9,4.7 -2.7,6.2 -1.7,0.9 -4.7,0.7 -4.8,-1.7 -1,-5.8 2.1,-11.3 5.2,-16.1 4,-5.8 9.8,-11.2 17.2,-11.8 1.6,0 8.1,-1.2 6.8,1.4 -2.8,2.8 -5.6,6.1 -6,10.3 -1.6,7.7 0.1,15.7 -2.3,23.2 -1.1,3.9 2,2.6 2.5,0.2 3.3,-7.4 8.9,-13.4 15.1,-18.5 4.2,-3.9 9.5,-7.1 11.9,-12.6 1.3,-3.6 1.2,-9 -2.7,-10.9 -0.6,-0.2 -1.2,-0.3 -1.8,-0.3 z m 66,14.5 c -2,0.8 -1.8,4.9 0.8,4.4 3.4,0.4 2.9,-6.2 -0.8,-4.4 z m 0.6,7.3 c -1.3,0.5 -7.6,0.5 -5.4,2.2 4,-0.3 0.7,4.5 0.6,6.7 -0.4,2.9 -2.4,5.9 -1.2,8.8 2.7,1.7 5.6,-0.8 6.8,-3.2 1.6,-1.4 -0.5,-3 -1.2,-0.9 -0.4,0.8 -2.4,3.5 -2.6,1.8 1.1,-5 2.7,-9.9 3.9,-14.9 l -0.1,-0.5 h -0.9 z m -65.1,0.2 c -6.5,1.6 -10.5,9.5 -8.2,15.7 2.1,3.4 7.4,2.9 10.1,0.4 2,-0.2 3.6,-5.3 1,-3.4 -1.4,2 -4,4.2 -6.5,2.8 -2.2,-1.9 -1.9,-5.7 1.7,-5.3 3.1,-0.9 6.9,-2.1 8.1,-5.5 0.9,-2.7 -1.6,-5.2 -4.3,-4.8 h -1.1 -0.7 z m 13.6,0 c -2.2,0 -8.5,1.8 -2.9,2.3 0.9,1.9 -1,4.9 -1.1,7.2 -0.5,2.9 -1.4,5.7 -1.7,8.7 3.7,0.7 3.8,-2.6 4.4,-5.3 0.9,-3.3 1.6,-7 4.1,-9.5 2.4,1.6 6.8,-0.7 3.7,-3.4 -2.9,-0.5 -4.8,2.4 -6.2,4.3 0,-1.2 2.4,-5 -0.2,-4.3 z m 15.8,0 c -6.4,1.3 -9.6,9.1 -7.7,14.9 1.9,4 7.7,3.9 11,1.7 4.1,-3 6,-8.9 4.4,-13.7 -1.3,-3 -4.8,-3.2 -7.6,-3 z m 17,0 c -2.3,0 -8.8,1.9 -3,2.4 0.4,2.5 -1,5.7 -1.4,8.4 -0.7,2.4 -1.8,7.5 2.1,7.2 3.8,-0.1 6.5,-3.5 8.5,-6.3 2,-3.2 4.5,-7 3.3,-10.9 -3.7,-3 -3.6,2.6 -3.1,5.1 -0.7,3.8 -2.7,7.9 -6.2,9.8 -3.6,0.6 -1,-4.3 -0.8,-6.1 0.6,-3.2 1.6,-6.3 1.9,-9.5 -0.4,0 -0.8,0 -1.1,0 z m 30.6,0 c -6.3,1.2 -9.5,8.9 -7.8,14.7 1.5,4 7.2,4.2 10.5,2.4 4.6,-2.8 6.6,-9.3 4.8,-14.3 -1.4,-2.8 -4.8,-3 -7.5,-2.8 z m -75.4,1.7 c 2.1,1.5 0.2,4.7 -1.6,5.7 -1.1,0.4 -5.5,3.4 -4.6,0.7 0.8,-2.7 2.2,-6.2 5.3,-6.6 l 0.9,0.1 z m 30.8,0 c 2.6,1.5 1.3,5.2 0.8,7.6 -0.8,2.7 -1.9,5.9 -4.7,7.1 -5.1,0.8 -4,-5.8 -2.8,-8.8 1,-2.8 3,-6.8 6.7,-5.8 z m 47.1,-0.1 c 2.9,0.7 2,4.7 1.5,6.8 -0.7,3 -1.8,6.7 -5,8 -4.7,0.8 -4,-5.1 -3,-7.9 0.9,-3 2.7,-7.3 6.5,-6.8 z m -88.1,5.9 c -0.3,1.3 0.9,-0.6 0,0 z m -1.1,2.4 c -0.2,0.5 0.5,-0.1 0,0 z m -1.3,4.5 c -0.3,1.3 0.8,-0.2 0,0 z" />
                     <text y="41" x="201" fill="#00000" style="font-style:italic;font-weight:normal;font-size:30px;line-height:125%;font-family:Times;text-anchor:middle" xml:space="preserve">engraved with</text>
                  </g>
               </g>
            </g>
         </g>
      </g>
   </svg>
</svg>
