<?xml version="1.0" encoding="UTF-8" standalone="no"?>
<svg width="2100px" height="2970px" version="1.1" xmlns="http://www.w3.org/2000/svg" xmlns:xlink="http://www.w3.org/1999/xlink" xmlns:mei="http://www.music-encoding.org/ns/mei" overflow="visible">
   <desc>Engraved by Verovio 3.13.1</desc>
   <defs>
      <symbol id="E044-1sincv4" viewBox="0 0 1000 1000" overflow="inherit">
         <path transform="scale(1,-1)" d="M0 0c0 28 22 50 50 50s50 -22 50 -50s-22 -50 -50 -50s-50 22 -50 50z" />
      </symbol>
      <symbol id="E050-1sincv4" viewBox="0 0 1000 1000" overflow="inherit">
         <path transform="scale(1,-1)" d="M441 -245c-23 -4 -48 -6 -76 -6c-59 0 -102 7 -130 20c-88 42 -150 93 -187 154c-26 44 -43 103 -48 176c0 6 -1 13 -1 19c0 54 15 111 45 170c29 57 65 106 110 148s96 85 153 127c-3 16 -8 46 -13 92c-4 43 -5 73 -5 89c0 117 16 172 69 257c34 54 64 82 89 82 c21 0 43 -30 69 -92s39 -115 41 -159v-15c0 -109 -21 -162 -67 -241c-13 -20 -63 -90 -98 -118c-13 -9 -25 -19 -37 -29l31 -181c8 1 18 2 28 2c58 0 102 -12 133 -35c59 -43 92 -104 98 -184c1 -7 1 -15 1 -22c0 -123 -87 -209 -181 -248c8 -57 17 -110 25 -162 c5 -31 6 -58 6 -80c0 -30 -5 -53 -14 -70c-35 -64 -88 -99 -158 -103c-5 0 -11 -1 -16 -1c-37 0 -72 10 -108 27c-50 24 -77 59 -80 105v11c0 29 7 55 20 76c18 28 45 42 79 44h6c49 0 93 -42 97 -87v-9c0 -51 -34 -86 -105 -106c17 -24 51 -36 102 -36c62 0 116 43 140 85 c9 16 13 41 13 74c0 20 -1 42 -5 67c-8 53 -18 106 -26 159zM461 939c-95 0 -135 -175 -135 -286c0 -24 2 -48 5 -71c50 39 92 82 127 128c40 53 60 100 60 140v8c-4 53 -22 81 -55 81h-2zM406 119l54 -326c73 25 110 78 110 161c0 7 0 15 -1 23c-7 95 -57 142 -151 142h-12 zM382 117c-72 -2 -128 -47 -128 -120v-7c2 -46 43 -99 75 -115c-3 -2 -7 -5 -10 -10c-70 33 -116 88 -123 172v11c0 68 44 126 88 159c23 17 49 29 78 36l-29 170c-21 -13 -52 -37 -92 -73c-50 -44 -86 -84 -109 -119c-45 -69 -67 -130 -67 -182v-13c5 -68 35 -127 93 -176 s125 -73 203 -73c25 0 50 3 75 9c-19 111 -36 221 -54 331z" />
      </symbol>
      <symbol id="E082-1sincv4" viewBox="0 0 1000 1000" overflow="inherit">
         <path transform="scale(1,-1)" d="M124 -185c-18 0 -55 -14 -65 -65h-36l-3 30c0 25 6 45 18 63c11 19 22 30 39 43l121 82l37 29c15 11 27 29 38 54c12 24 18 47 18 70c0 40 -19 88 -94 88c-25 0 -32 0 -50 -8c-14 -5 -23 -12 -26 -22c3 -9 7 -15 10 -18l24 -17c12 -7 17 -11 27 -21c5 -7 7 -16 7 -27 c0 -12 0 -57 -79 -74c-30 0 -76 26 -76 94c0 66 81 135 197 135c72 0 181 -32 181 -150c0 -53 -32 -95 -113 -133l-91 -41c-26 -11 -45 -23 -57 -37l49 7c84 0 115 -41 148 -41c20 0 33 20 39 61h35c0 -152 -68 -168 -114 -168c-17 0 -65 0 -79 7h10l-28 17 c-49 37 -69 40 -87 42z" />
      </symbol>
      <symbol id="E084-1sincv4" viewBox="0 0 1000 1000" overflow="inherit">
         <path transform="scale(1,-1)" d="M20 -78c84 97 114 180 134 329h170c-13 -32 -82 -132 -99 -151l-84 -97c-33 -36 -59 -63 -80 -81h162v102l127 123v-225h57v-39h-57v-34c0 -43 19 -65 57 -65v-34h-244v36c48 0 60 26 60 70v27h-203v39z" />
      </symbol>
      <symbol id="E0A4-1sincv4" viewBox="0 0 1000 1000" overflow="inherit">
         <path transform="scale(1,-1)" d="M0 -39c0 68 73 172 200 172c66 0 114 -37 114 -95c0 -84 -106 -171 -218 -171c-64 0 -96 30 -96 94z" />
      </symbol>
   </defs>
   <style type="text/css">g.page-margin{font-family:Times;} g.ending, g.fing, g.reh, g.tempo{font-weight:bold;} g.dir, g.dynam, g.mNum{font-style:italic;} g.label{font-weight:normal;}</style>
   <svg class="definition-scale" color="black" viewBox="0 0 21000 29700">
      <g class="page-margin" transform="translate(500, 500)">
         <g id="mk69pfg" class="mdiv pageMilestone" />
         <g id="s55vgyt" class="score pageMilestone" />
         <g id="s1mtaq4k" class="system">
            <g id="lwdbbh5" class="label">
               <text x="1105" y="1570" text-anchor="end" font-size="0px">
                  <tspan id="t1fezxsc" class="text">
                     <tspan font-size="405px" class="text">Piano</tspan>
                  </tspan>
               </text>
            </g>
            <g id="sv32y1t" class="section systemMilestone" />
            <g id="mo63lby" class="measure">
               <g id="s1v217pc" class="staff">
                  <path d="M1285 1120 L4738 1120" stroke="currentColor" stroke-width="13" />
                  <path d="M1285 1300 L4738 1300" stroke="currentColor" stroke-width="13" />
                  <path d="M1285 1480 L4738 1480" stroke="currentColor" stroke-width="13" />
                  <path d="M1285 1660 L4738 1660" stroke="currentColor" stroke-width="13" />
                  <path d="M1285 1840 L4738 1840" stroke="currentColor" stroke-width="13" />
                  <g id="c12o81w5" class="clef">
                     <use xlink:href="#E050-1sincv4" x="1375" y="1660" height="720px" width="720px" />
                  </g>
                  <g id="k9rlxx5" class="keySig" />
                  <g id="m10gsafc" class="meterSig">
                     <use xlink:href="#E082-1sincv4" x="2006" y="1300" height="720px" width="720px" />
                     <use xlink:href="#E084-1sincv4" x="2011" y="1660" height="720px" width="720px" />
                  </g>
                  <g id="ldceg6c" class="layer">
                     <g id="b1poh2k7" class="beam">
                        <polygon points="2593,2065 3435,2065 3435,1975 2593,1975" />
                        <polygon points="3086,1930 3435,1930 3435,1840 3086,1840" />
                        <g id="ntk2l5e" class="note">
                           <g class="notehead">
                              <use xlink:href="#E0A4-1sincv4" x="2593" y="1390" height="720px" width="720px" />
                           </g>
                           <g id="srg7w59" class="stem">
                              <rect x="2593" y="1418" height="629" width="18" />
                           </g>
                        </g>
                        <g id="n1eupyt9" class="note">
                           <g class="notehead">
                              <use xlink:href="#E0A4-1sincv4" x="3077" y="1480" height="720px" width="720px" />
                           </g>
                           <g id="s128t28n" class="stem">
                              <rect x="3077" y="1508" height="539" width="18" />
                           </g>
                        </g>
                        <g id="n7ms5yz" class="note">
                           <g class="notehead">
                              <use xlink:href="#E0A4-1sincv4" x="3417" y="1390" height="720px" width="720px" />
                           </g>
                           <g id="s1jdyba4" class="stem">
                              <rect x="3417" y="1418" height="629" width="18" />
                           </g>
                        </g>
                     </g>
                     <g id="b1odjkdg" class="beam">
                        <polygon points="3965,940 4467,895 4467,985 3965,1030" />
                        <g id="n1ugz99w" class="note">
                           <g class="notehead">
                              <use xlink:href="#E0A4-1sincv4" x="3757" y="1570" height="720px" width="720px" />
                           </g>
                           <g id="s1r2n5i9" class="stem">
                              <rect x="3965" y="958" height="584" width="18" />
                           </g>
                        </g>
                        <g id="nrwqayi" class="note">
                           <g class="notehead">
                              <use xlink:href="#E0A4-1sincv4" x="4241" y="1480" height="720px" width="720px" />
                           </g>
                           <g id="s35556n" class="stem">
                              <rect x="4449" y="913" height="539" width="18" />
                           </g>
                        </g>
                     </g>
                  </g>
               </g>
               <g id="bze9yf5" class="barLine">
                  <path d="M4725 1120 L4725 1840" stroke="currentColor" stroke-width="27" />
               </g>
            </g>
            <g id="me3vi07" class="measure">
               <g id="s1hjo8yk" class="staff">
                  <path d="M4738 1120 L6881 1120" stroke="currentColor" stroke-width="13" />
                  <path d="M4738 1300 L6881 1300" stroke="currentColor" stroke-width="13" />
                  <path d="M4738 1480 L6881 1480" stroke="currentColor" stroke-width="13" />
                  <path d="M4738 1660 L6881 1660" stroke="currentColor" stroke-width="13" />
                  <path d="M4738 1840 L6881 1840" stroke="currentColor" stroke-width="13" />
                  <g id="l7kbxj9" class="layer">
                     <g id="b1nnt35x" class="beam">
                        <polygon points="5140,1255 5642,1255 5642,1345 5140,1345" />
                        <g id="n1h98em" class="note">
                           <g class="notehead">
                              <use xlink:href="#E0A4-1sincv4" x="4932" y="1840" height="720px" width="720px" />
                           </g>
                           <g id="sf9qegq" class="stem">
                              <rect x="5140" y="1273" height="539" width="18" />
                           </g>
                        </g>
                        <g id="na768a0" class="note">
                           <g class="notehead">
                              <use xlink:href="#E0A4-1sincv4" x="5416" y="1840" height="720px" width="720px" />
                           </g>
                           <g id="s14sgdkr" class="stem">
                              <rect x="5624" y="1273" height="539" width="18" />
                           </g>
                        </g>
                     </g>
                     <g id="b1f6aemt" class="beam">
                        <polygon points="6108,940 6610,940 6610,1030 6108,1030" />
                        <g id="n85tysc" class="note">
                           <g class="notehead">
                              <use xlink:href="#E0A4-1sincv4" x="5900" y="1570" height="720px" width="720px" />
                           </g>
                           <g id="sbzj0tv" class="stem">
                              <rect x="6108" y="958" height="584" width="18" />
                           </g>
                        </g>
                        <g id="nxzg6hk" class="note">
                           <g class="notehead">
                              <use xlink:href="#E0A4-1sincv4" x="6384" y="1570" height="720px" width="720px" />
                           </g>
                           <g id="sq6k9kq" class="stem">
                              <rect x="6592" y="958" height="584" width="18" />
                           </g>
                        </g>
                     </g>
                  </g>
               </g>
               <g id="byabiy9" class="barLine">
                  <path d="M6868 1120 L6868 1840" stroke="currentColor" stroke-width="27" />
               </g>
            </g>
            <g id="m10xu96y" class="measure">
               <g id="s1layk4z" class="staff">
                  <path d="M6881 1120 L9220 1120" stroke="currentColor" stroke-width="13" />
                  <path d="M6881 1300 L9220 1300" stroke="currentColor" stroke-width="13" />
                  <path d="M6881 1480 L9220 1480" stroke="currentColor" stroke-width="13" />
                  <path d="M6881 1660 L9220 1660" stroke="currentColor" stroke-width="13" />
                  <path d="M6881 1840 L9220 1840" stroke="currentColor" stroke-width="13" />
                  <g id="l1ukdg0l" class="layer">
                     <g id="bsbm88v" class="beam">
                        <polygon points="7075,2065 7917,2065 7917,1975 7075,1975" />
                        <polygon points="7568,1930 7917,1930 7917,1840 7568,1840" />
                        <g id="n106l303" class="note">
                           <g class="notehead">
                              <use xlink:href="#E0A4-1sincv4" x="7075" y="1390" height="720px" width="720px" />
                           </g>
                           <g id="s12a5lum" class="stem">
                              <rect x="7075" y="1418" height="629" width="18" />
                           </g>
                        </g>
                        <g id="n1jo8s89" class="note">
                           <g class="notehead">
                              <use xlink:href="#E0A4-1sincv4" x="7559" y="1480" height="720px" width="720px" />
                           </g>
                           <g id="saoyvx6" class="stem">
                              <rect x="7559" y="1508" height="539" width="18" />
                           </g>
                        </g>
                        <g id="n1sr8w7r" class="note">
                           <g class="notehead">
                              <use xlink:href="#E0A4-1sincv4" x="7899" y="1390" height="720px" width="720px" />
                           </g>
                           <g id="sit17uf" class="stem">
                              <rect x="7899" y="1418" height="629" width="18" />
                           </g>
                        </g>
                     </g>
                     <g id="bhdelo1" class="beam">
                        <polygon points="8447,940 8949,895 8949,985 8447,1030" />
                        <g id="n1pi5s39" class="note">
                           <g class="notehead">
                              <use xlink:href="#E0A4-1sincv4" x="8239" y="1570" height="720px" width="720px" />
                           </g>
                           <g id="svoeekm" class="stem">
                              <rect x="8447" y="958" height="584" width="18" />
                           </g>
                        </g>
                        <g id="n1976d3u" class="note">
                           <g class="notehead">
                              <use xlink:href="#E0A4-1sincv4" x="8723" y="1480" height="720px" width="720px" />
                           </g>
                           <g id="s1rr1h94" class="stem">
                              <rect x="8931" y="913" height="539" width="18" />
                           </g>
                        </g>
                     </g>
                  </g>
               </g>
               <g id="b1nwbqr" class="barLine">
                  <path d="M9207 1120 L9207 1840" stroke="currentColor" stroke-width="27" />
               </g>
            </g>
            <g id="m1lkwhf2" class="measure">
               <g id="s1pxxvzd" class="staff">
                  <path d="M9220 1120 L11299 1120" stroke="currentColor" stroke-width="13" />
                  <path d="M9220 1300 L11299 1300" stroke="currentColor" stroke-width="13" />
                  <path d="M9220 1480 L11299 1480" stroke="currentColor" stroke-width="13" />
                  <path d="M9220 1660 L11299 1660" stroke="currentColor" stroke-width="13" />
                  <path d="M9220 1840 L11299 1840" stroke="currentColor" stroke-width="13" />
                  <g id="ltw70ny" class="layer">
                     <g id="b14vd5tz" class="beam">
                        <polygon points="9622,1255 10124,1255 10124,1345 9622,1345" />
                        <g id="n159d2ew" class="note">
                           <g class="notehead">
                              <use xlink:href="#E0A4-1sincv4" x="9414" y="1840" height="720px" width="720px" />
                           </g>
                           <g id="s6auer2" class="stem">
                              <rect x="9622" y="1273" height="539" width="18" />
                           </g>
                        </g>
                        <g id="n1bk572i" class="note">
                           <g class="notehead">
                              <use xlink:href="#E0A4-1sincv4" x="9898" y="1840" height="720px" width="720px" />
                           </g>
                           <g id="sglmk45" class="stem">
                              <rect x="10106" y="1273" height="539" width="18" />
                           </g>
                        </g>
                     </g>
                     <g id="n1xpf88c" class="note">
                        <g class="notehead">
                           <use xlink:href="#E0A4-1sincv4" x="10382" y="1570" height="720px" width="720px" />
                        </g>
                        <g id="s1ul86o0" class="stem">
                           <rect x="10590" y="940" height="602" width="18" />
                        </g>
                     </g>
                  </g>
               </g>
               <g id="d17rakqa" class="dir fine">
                  <text x="11124" y="812" text-anchor="end" font-size="0px">
                     <tspan id="r1e31aol" class="rend">
                        <tspan id="t173r5ko" class="text">
                           <tspan font-size="405px" class="text">Fine</tspan>
                        </tspan>
                     </tspan>
                  </text>
               </g>
               <g id="butky4o" class="barLine">
                  <path d="M11124 1120 L11124 1840" stroke="currentColor" stroke-width="27" />
                  <path d="M11254 1120 L11254 1840" stroke="currentColor" stroke-width="90" />
                  <use xlink:href="#E044-1sincv4" x="11007" y="1390" height="720px" width="720px" />
                  <use xlink:href="#E044-1sincv4" x="11007" y="1570" height="720px" width="720px" />
               </g>
            </g>
            <g id="m1wvjtzr" class="measure">
               <g id="sdlng1b" class="staff">
                  <path d="M11299 1120 L13638 1120" stroke="currentColor" stroke-width="13" />
                  <path d="M11299 1300 L13638 1300" stroke="currentColor" stroke-width="13" />
                  <path d="M11299 1480 L13638 1480" stroke="currentColor" stroke-width="13" />
                  <path d="M11299 1660 L13638 1660" stroke="currentColor" stroke-width="13" />
                  <path d="M11299 1840 L13638 1840" stroke="currentColor" stroke-width="13" />
                  <g id="l1goelqf" class="layer">
                     <g id="bzyl0bu" class="beam">
                        <polygon points="11493,2020 12335,2020 12335,1930 11493,1930" />
                        <polygon points="11986,1885 12335,1885 12335,1795 11986,1795" />
                        <g id="ndq7743" class="note">
                           <g class="notehead">
                              <use xlink:href="#E0A4-1sincv4" x="11493" y="1390" height="720px" width="720px" />
                           </g>
                           <g id="s1qwbjfa" class="stem">
                              <rect x="11493" y="1418" height="584" width="18" />
                           </g>
                        </g>
                        <g id="nb5j8yr" class="note">
                           <g class="notehead">
                              <use xlink:href="#E0A4-1sincv4" x="11977" y="1390" height="720px" width="720px" />
                           </g>
                           <g id="s5kzpup" class="stem">
                              <rect x="11977" y="1418" height="584" width="18" />
                           </g>
                        </g>
                        <g id="n1siq5p2" class="note">
                           <g class="notehead">
                              <use xlink:href="#E0A4-1sincv4" x="12317" y="1390" height="720px" width="720px" />
                           </g>
                           <g id="sdpcqkh" class="stem">
                              <rect x="12317" y="1418" height="584" width="18" />
                           </g>
                        </g>
                     </g>
                     <g id="b2z7ovw" class="beam">
                        <polygon points="12657,2065 13159,2020 13159,1930 12657,1975" />
                        <g id="nvkmtir" class="note">
                           <g class="notehead">
                              <use xlink:href="#E0A4-1sincv4" x="12657" y="1390" height="720px" width="720px" />
                           </g>
                           <g id="s62gywa" class="stem">
                              <rect x="12657" y="1418" height="629" width="18" />
                           </g>
                        </g>
                        <g id="n1fmsxqu" class="note">
                           <g class="notehead">
                              <use xlink:href="#E0A4-1sincv4" x="13141" y="1210" height="720px" width="720px" />
                           </g>
                           <g id="s1rlrv6v" class="stem">
                              <rect x="13141" y="1238" height="764" width="18" />
                           </g>
                        </g>
                     </g>
                  </g>
               </g>
               <g id="b1u09dxb" class="barLine">
                  <path d="M13625 1120 L13625 1840" stroke="currentColor" stroke-width="27" />
               </g>
            </g>
            <g id="mx61uwo" class="measure">
               <g id="s13brttb" class="staff">
                  <path d="M13638 1120 L15781 1120" stroke="currentColor" stroke-width="13" />
                  <path d="M13638 1300 L15781 1300" stroke="currentColor" stroke-width="13" />
                  <path d="M13638 1480 L15781 1480" stroke="currentColor" stroke-width="13" />
                  <path d="M13638 1660 L15781 1660" stroke="currentColor" stroke-width="13" />
                  <path d="M13638 1840 L15781 1840" stroke="currentColor" stroke-width="13" />
                  <g id="lmfvzuh" class="layer">
                     <g id="b18k035d" class="beam">
                        <polygon points="13832,2020 14334,2065 14334,1975 13832,1930" />
                        <g id="n42qghp" class="note">
                           <g class="notehead">
                              <use xlink:href="#E0A4-1sincv4" x="13832" y="1300" height="720px" width="720px" />
                           </g>
                           <g id="s5ldkty" class="stem">
                              <rect x="13832" y="1328" height="674" width="18" />
                           </g>
                        </g>
                        <g id="n1k1aai4" class="note">
                           <g class="notehead">
                              <use xlink:href="#E0A4-1sincv4" x="14316" y="1390" height="720px" width="720px" />
                           </g>
                           <g id="s3yjqse" class="stem">
                              <rect x="14316" y="1418" height="629" width="18" />
                           </g>
                        </g>
                     </g>
                     <g id="b13nawef" class="beam">
                        <polygon points="14800,2065 15302,2020 15302,1930 14800,1975" />
                        <g id="nl2pcyd" class="note">
                           <g class="notehead">
                              <use xlink:href="#E0A4-1sincv4" x="14800" y="1480" height="720px" width="720px" />
                           </g>
                           <g id="s16acei6" class="stem">
                              <rect x="14800" y="1508" height="539" width="18" />
                           </g>
                        </g>
                        <g id="n1gmksy3" class="note">
                           <g class="notehead">
                              <use xlink:href="#E0A4-1sincv4" x="15284" y="1210" height="720px" width="720px" />
                           </g>
                           <g id="sdyzygq" class="stem">
                              <rect x="15284" y="1238" height="764" width="18" />
                           </g>
                        </g>
                     </g>
                  </g>
               </g>
               <g id="bghuif1" class="barLine">
                  <path d="M15768 1120 L15768 1840" stroke="currentColor" stroke-width="27" />
               </g>
            </g>
            <g id="m1jyzg87" class="measure">
               <g id="shzzx2f" class="staff">
                  <path d="M15781 1120 L17924 1120" stroke="currentColor" stroke-width="13" />
                  <path d="M15781 1300 L17924 1300" stroke="currentColor" stroke-width="13" />
                  <path d="M15781 1480 L17924 1480" stroke="currentColor" stroke-width="13" />
                  <path d="M15781 1660 L17924 1660" stroke="currentColor" stroke-width="13" />
                  <path d="M15781 1840 L17924 1840" stroke="currentColor" stroke-width="13" />
                  <g id="ly291vw" class="layer">
                     <g id="b18r2pbw" class="beam">
                        <polygon points="15975,2020 16477,2065 16477,1975 15975,1930" />
                        <g id="n1nxne7x" class="note">
                           <g class="notehead">
                              <use xlink:href="#E0A4-1sincv4" x="15975" y="1300" height="720px" width="720px" />
                           </g>
                           <g id="s7dcicg" class="stem">
                              <rect x="15975" y="1328" height="674" width="18" />
                           </g>
                        </g>
                        <g id="n1albrq5" class="note">
                           <g class="notehead">
                              <use xlink:href="#E0A4-1sincv4" x="16459" y="1390" height="720px" width="720px" />
                           </g>
                           <g id="sav9ea5" class="stem">
                              <rect x="16459" y="1418" height="629" width="18" />
                           </g>
                        </g>
                     </g>
                     <g id="b1xzuvva" class="beam">
                        <polygon points="16943,2065 17445,2020 17445,1930 16943,1975" />
                        <g id="ng5uiqy" class="note">
                           <g class="notehead">
                              <use xlink:href="#E0A4-1sincv4" x="16943" y="1480" height="720px" width="720px" />
                           </g>
                           <g id="s1r6jcso" class="stem">
                              <rect x="16943" y="1508" height="539" width="18" />
                           </g>
                        </g>
                        <g id="n6i6dw9" class="note">
                           <g class="notehead">
                              <use xlink:href="#E0A4-1sincv4" x="17427" y="1210" height="720px" width="720px" />
                           </g>
                           <g id="s3fob0m" class="stem">
                              <rect x="17427" y="1238" height="764" width="18" />
                           </g>
                        </g>
                     </g>
                  </g>
               </g>
               <g id="b3584jg" class="barLine">
                  <path d="M17911 1120 L17911 1840" stroke="currentColor" stroke-width="27" />
               </g>
            </g>
            <g id="mwzzkbz" class="measure">
               <g id="s11yb8as" class="staff">
                  <path d="M17924 1120 L20003 1120" stroke="currentColor" stroke-width="13" />
                  <path d="M17924 1300 L20003 1300" stroke="currentColor" stroke-width="13" />
                  <path d="M17924 1480 L20003 1480" stroke="currentColor" stroke-width="13" />
                  <path d="M17924 1660 L20003 1660" stroke="currentColor" stroke-width="13" />
                  <path d="M17924 1840 L20003 1840" stroke="currentColor" stroke-width="13" />
                  <g id="l1qq04is" class="layer">
                     <g id="bcqfya8" class="beam">
                        <polygon points="18118,2020 18620,2065 18620,1975 18118,1930" />
                        <g id="n1mur3ux" class="note">
                           <g class="notehead">
                              <use xlink:href="#E0A4-1sincv4" x="18118" y="1300" height="720px" width="720px" />
                           </g>
                           <g id="s1j9k8pm" class="stem">
                              <rect x="18118" y="1328" height="674" width="18" />
                           </g>
                        </g>
                        <g id="nfwezkc" class="note">
                           <g class="notehead">
                              <use xlink:href="#E0A4-1sincv4" x="18602" y="1390" height="720px" width="720px" />
                           </g>
                           <g id="s7kk1ir" class="stem">
                              <rect x="18602" y="1418" height="629" width="18" />
                           </g>
                        </g>
                     </g>
                     <g id="nnsqpp5" class="note">
                        <g class="notehead">
                           <use xlink:href="#E0A4-1sincv4" x="19086" y="1480" height="720px" width="720px" />
                        </g>
                        <g id="s15k8z10" class="stem">
                           <rect x="19086" y="1508" height="572" width="18" />
                        </g>
                     </g>
                  </g>
               </g>
               <g id="b1r4gd45" class="barLine">
                  <path d="M19828 1120 L19828 1840" stroke="currentColor" stroke-width="27" />
                  <path d="M19958 1120 L19958 1840" stroke="currentColor" stroke-width="90" />
               </g>
            </g>
            <g id="s1xxfmcn" class="systemMilestoneEnd sv32y1t" />
         </g>
         <g id="p1kdpyu5" class="pageMilestoneEnd s55vgyt" />
         <g id="ph0zjvb" class="pageMilestoneEnd mk69pfg" />
         <g id="p1rfuo8n" class="pgHead">
            <text x="0" y="0" font-size="0px">
               <tspan id="rm0g4bt" class="rend" x="10000" y="277" text-anchor="middle">
                  <tspan id="tzzph25" class="text">
                     <tspan font-size="405px" class="text">Air n 194</tspan>
                  </tspan>
               </tspan>
            </text>
         </g>
         <g id="p5naf0w" class="pgFoot autogenerated">
            <g id="fizn0he" class="fig">
               <g id="s1ykhg63" class="svg" transform="translate(7750, 28099) scale(10, 10)">
                  <g>
                     <path fill="#00000" d="M 17.11278,49.26451 V 10.367554 h 12.696511 c 3.288815,7.336676 6.71267,14.610456 10.127281,21.888976 3.419998,-7.484684 6.255515,-14.204887 9.58887,-21.909915 2.436207,0.103726 4.316952,0.08453 6.484294,-0.05808 V 49.264423 H 50.274275 C 50.145222,38.35639 50.016136,27.448368 49.887066,16.540329 45.003488,27.315459 39.967448,38.433564 35.083854,49.208695 34.678996,49.343717 34.426583,49.135619 34.021726,49.270644 29.46588,39.330716 24.910049,29.390805 20.354201,19.450876 20.224341,29.388756 20.09461,39.326619 19.964815,49.264497 H 17.11278 Z M 36.754144,39.324695 C 32.721221,30.512695 28.6883,21.700679 24.655394,12.888662 22.530527,12.750737 22.656775,12.71031 20.714356,12.813974 v 0.966497 c 4.612938,9.99784 9.609439,20.748709 13.87298,30.081745 0.722248,-1.512523 1.444528,-3.025014 2.166808,-4.537521 z m 25.738417,9.939815 c 0,-12.965651 0,-25.931305 0,-38.896956 10.084388,0 20.168791,0 30.253178,0 0,0.960416 0,1.920849 0,2.881265 -6.482825,0 -12.965652,0 -19.448478,0 0,4.802097 0,9.604178 0,14.406277 5.52241,0 11.044819,0 16.567229,0 0,0.960415 0,1.920832 0,2.881248 -5.52241,0 -11.044819,0 -16.567229,0 0,5.282306 0,10.564611 0,15.846917 6.963035,0 13.926068,0 20.889103,0 0,0.960416 0,1.920832 0,2.881249 -10.564597,0 -21.129207,0 -31.693803,0 z m 4.321874,-2.160937 c 0,-11.765131 0,-23.530263 0,-35.295394 -0.720312,0 -1.440625,0 -2.160937,0 0,11.765131 0,23.530263 0,35.295394 0.720312,0 1.440625,0 2.160937,0 z m 32.41413,2.160937 c 0,-12.965651 0,-25.931305 0,-38.896956 2.401045,0 4.802095,0 7.203135,0 0,12.965651 0,25.931305 0,38.896956 -2.40104,0 -4.80209,0 -7.203135,0 z m 2.881265,-2.160937 c 0,-11.765131 0,-23.530263 0,-35.295394 -0.72031,0 -1.44064,0 -2.160953,0 0,11.765131 0,23.530263 0,35.295394 0.720313,0 1.440643,0 2.160953,0 z" />
                     <path fill="#00000" d="m 346.3,6.7 c -3.1,0.5 -4.9,4.4 -2.7,6.8 1.2,1.4 2.7,2.4 4.1,3.5 -2.4,5.3 -7.7,8.3 -11.9,12.1 -3.7,2.8 -7,6.2 -9.7,9.9 -2.2,-0.8 -0.3,-6.8 -0.6,-9.5 0.1,-3.1 0.7,-6.4 2.9,-8.7 1.3,-1.9 3,-3.5 4.5,-5.2 1.2,-3.4 -3.2,-4.9 -5.8,-4.6 -7.3,-0.5 -14.6,2 -20,6.8 -5,4.6 -10,10.1 -11.5,17 -0.9,3.5 -0.2,7.5 2.8,9.9 2.5,2.8 7.4,2.9 9.8,-0.2 1.7,-2.3 3.2,-4.8 3.8,-7.6 -0.1,-2.6 -4.4,-2.3 -4.3,0.2 1.2,2.4 -0.9,4.7 -2.7,6.2 -1.7,0.9 -4.7,0.7 -4.8,-1.7 -1,-5.8 2.1,-11.3 5.2,-16.1 4,-5.8 9.8,-11.2 17.2,-11.8 1.6,0 8.1,-1.2 6.8,1.4 -2.8,2.8 -5.6,6.1 -6,10.3 -1.6,7.7 0.1,15.7 -2.3,23.2 -1.1,3.9 2,2.6 2.5,0.2 3.3,-7.4 8.9,-13.4 15.1,-18.5 4.2,-3.9 9.5,-7.1 11.9,-12.6 1.3,-3.6 1.2,-9 -2.7,-10.9 -0.6,-0.2 -1.2,-0.3 -1.8,-0.3 z m 66,14.5 c -2,0.8 -1.8,4.9 0.8,4.4 3.4,0.4 2.9,-6.2 -0.8,-4.4 z m 0.6,7.3 c -1.3,0.5 -7.6,0.5 -5.4,2.2 4,-0.3 0.7,4.5 0.6,6.7 -0.4,2.9 -2.4,5.9 -1.2,8.8 2.7,1.7 5.6,-0.8 6.8,-3.2 1.6,-1.4 -0.5,-3 -1.2,-0.9 -0.4,0.8 -2.4,3.5 -2.6,1.8 1.1,-5 2.7,-9.9 3.9,-14.9 l -0.1,-0.5 h -0.9 z m -65.1,0.2 c -6.5,1.6 -10.5,9.5 -8.2,15.7 2.1,3.4 7.4,2.9 10.1,0.4 2,-0.2 3.6,-5.3 1,-3.4 -1.4,2 -4,4.2 -6.5,2.8 -2.2,-1.9 -1.9,-5.7 1.7,-5.3 3.1,-0.9 6.9,-2.1 8.1,-5.5 0.9,-2.7 -1.6,-5.2 -4.3,-4.8 h -1.1 -0.7 z m 13.6,0 c -2.2,0 -8.5,1.8 -2.9,2.3 0.9,1.9 -1,4.9 -1.1,7.2 -0.5,2.9 -1.4,5.7 -1.7,8.7 3.7,0.7 3.8,-2.6 4.4,-5.3 0.9,-3.3 1.6,-7 4.1,-9.5 2.4,1.6 6.8,-0.7 3.7,-3.4 -2.9,-0.5 -4.8,2.4 -6.2,4.3 0,-1.2 2.4,-5 -0.2,-4.3 z m 15.8,0 c -6.4,1.3 -9.6,9.1 -7.7,14.9 1.9,4 7.7,3.9 11,1.7 4.1,-3 6,-8.9 4.4,-13.7 -1.3,-3 -4.8,-3.2 -7.6,-3 z m 17,0 c -2.3,0 -8.8,1.9 -3,2.4 0.4,2.5 -1,5.7 -1.4,8.4 -0.7,2.4 -1.8,7.5 2.1,7.2 3.8,-0.1 6.5,-3.5 8.5,-6.3 2,-3.2 4.5,-7 3.3,-10.9 -3.7,-3 -3.6,2.6 -3.1,5.1 -0.7,3.8 -2.7,7.9 -6.2,9.8 -3.6,0.6 -1,-4.3 -0.8,-6.1 0.6,-3.2 1.6,-6.3 1.9,-9.5 -0.4,0 -0.8,0 -1.1,0 z m 30.6,0 c -6.3,1.2 -9.5,8.9 -7.8,14.7 1.5,4 7.2,4.2 10.5,2.4 4.6,-2.8 6.6,-9.3 4.8,-14.3 -1.4,-2.8 -4.8,-3 -7.5,-2.8 z m -75.4,1.7 c 2.1,1.5 0.2,4.7 -1.6,5.7 -1.1,0.4 -5.5,3.4 -4.6,0.7 0.8,-2.7 2.2,-6.2 5.3,-6.6 l 0.9,0.1 z m 30.8,0 c 2.6,1.5 1.3,5.2 0.8,7.6 -0.8,2.7 -1.9,5.9 -4.7,7.1 -5.1,0.8 -4,-5.8 -2.8,-8.8 1,-2.8 3,-6.8 6.7,-5.8 z m 47.1,-0.1 c 2.9,0.7 2,4.7 1.5,6.8 -0.7,3 -1.8,6.7 -5,8 -4.7,0.8 -4,-5.1 -3,-7.9 0.9,-3 2.7,-7.3 6.5,-6.8 z m -88.1,5.9 c -0.3,1.3 0.9,-0.6 0,0 z m -1.1,2.4 c -0.2,0.5 0.5,-0.1 0,0 z m -1.3,4.5 c -0.3,1.3 0.8,-0.2 0,0 z" />
                     <text y="41" x="201" fill="#00000" style="font-style:italic;font-weight:normal;font-size:30px;line-height:125%;font-family:Times;text-anchor:middle" xml:space="preserve">engraved with</text>
                  </g>
               </g>
            </g>
         </g>
      </g>
   </svg>
</svg>
