<?xml version="1.0" encoding="UTF-8" standalone="no"?>
<svg width="2100px" height="2970px" version="1.1" xmlns="http://www.w3.org/2000/svg" xmlns:xlink="http://www.w3.org/1999/xlink" xmlns:mei="http://www.music-encoding.org/ns/mei" overflow="visible">
   <desc>Engraved by Verovio 3.13.1</desc>
   <defs>
      <symbol id="E044-mwn6rf" viewBox="0 0 1000 1000" overflow="inherit">
         <path transform="scale(1,-1)" d="M0 0c0 28 22 50 50 50s50 -22 50 -50s-22 -50 -50 -50s-50 22 -50 50z" />
      </symbol>
      <symbol id="E050-mwn6rf" viewBox="0 0 1000 1000" overflow="inherit">
         <path transform="scale(1,-1)" d="M441 -245c-23 -4 -48 -6 -76 -6c-59 0 -102 7 -130 20c-88 42 -150 93 -187 154c-26 44 -43 103 -48 176c0 6 -1 13 -1 19c0 54 15 111 45 170c29 57 65 106 110 148s96 85 153 127c-3 16 -8 46 -13 92c-4 43 -5 73 -5 89c0 117 16 172 69 257c34 54 64 82 89 82 c21 0 43 -30 69 -92s39 -115 41 -159v-15c0 -109 -21 -162 -67 -241c-13 -20 -63 -90 -98 -118c-13 -9 -25 -19 -37 -29l31 -181c8 1 18 2 28 2c58 0 102 -12 133 -35c59 -43 92 -104 98 -184c1 -7 1 -15 1 -22c0 -123 -87 -209 -181 -248c8 -57 17 -110 25 -162 c5 -31 6 -58 6 -80c0 -30 -5 -53 -14 -70c-35 -64 -88 -99 -158 -103c-5 0 -11 -1 -16 -1c-37 0 -72 10 -108 27c-50 24 -77 59 -80 105v11c0 29 7 55 20 76c18 28 45 42 79 44h6c49 0 93 -42 97 -87v-9c0 -51 -34 -86 -105 -106c17 -24 51 -36 102 -36c62 0 116 43 140 85 c9 16 13 41 13 74c0 20 -1 42 -5 67c-8 53 -18 106 -26 159zM461 939c-95 0 -135 -175 -135 -286c0 -24 2 -48 5 -71c50 39 92 82 127 128c40 53 60 100 60 140v8c-4 53 -22 81 -55 81h-2zM406 119l54 -326c73 25 110 78 110 161c0 7 0 15 -1 23c-7 95 -57 142 -151 142h-12 zM382 117c-72 -2 -128 -47 -128 -120v-7c2 -46 43 -99 75 -115c-3 -2 -7 -5 -10 -10c-70 33 -116 88 -123 172v11c0 68 44 126 88 159c23 17 49 29 78 36l-29 170c-21 -13 -52 -37 -92 -73c-50 -44 -86 -84 -109 -119c-45 -69 -67 -130 -67 -182v-13c5 -68 35 -127 93 -176 s125 -73 203 -73c25 0 50 3 75 9c-19 111 -36 221 -54 331z" />
      </symbol>
      <symbol id="E082-mwn6rf" viewBox="0 0 1000 1000" overflow="inherit">
         <path transform="scale(1,-1)" d="M124 -185c-18 0 -55 -14 -65 -65h-36l-3 30c0 25 6 45 18 63c11 19 22 30 39 43l121 82l37 29c15 11 27 29 38 54c12 24 18 47 18 70c0 40 -19 88 -94 88c-25 0 -32 0 -50 -8c-14 -5 -23 -12 -26 -22c3 -9 7 -15 10 -18l24 -17c12 -7 17 -11 27 -21c5 -7 7 -16 7 -27 c0 -12 0 -57 -79 -74c-30 0 -76 26 -76 94c0 66 81 135 197 135c72 0 181 -32 181 -150c0 -53 -32 -95 -113 -133l-91 -41c-26 -11 -45 -23 -57 -37l49 7c84 0 115 -41 148 -41c20 0 33 20 39 61h35c0 -152 -68 -168 -114 -168c-17 0 -65 0 -79 7h10l-28 17 c-49 37 -69 40 -87 42z" />
      </symbol>
      <symbol id="E084-mwn6rf" viewBox="0 0 1000 1000" overflow="inherit">
         <path transform="scale(1,-1)" d="M20 -78c84 97 114 180 134 329h170c-13 -32 -82 -132 -99 -151l-84 -97c-33 -36 -59 -63 -80 -81h162v102l127 123v-225h57v-39h-57v-34c0 -43 19 -65 57 -65v-34h-244v36c48 0 60 26 60 70v27h-203v39z" />
      </symbol>
      <symbol id="E0A4-mwn6rf" viewBox="0 0 1000 1000" overflow="inherit">
         <path transform="scale(1,-1)" d="M0 -39c0 68 73 172 200 172c66 0 114 -37 114 -95c0 -84 -106 -171 -218 -171c-64 0 -96 30 -96 94z" />
      </symbol>
   </defs>
   <style type="text/css">g.page-margin{font-family:Times;} g.ending, g.fing, g.reh, g.tempo{font-weight:bold;} g.dir, g.dynam, g.mNum{font-style:italic;} g.label{font-weight:normal;}</style>
   <svg class="definition-scale" color="black" viewBox="0 0 21000 29700">
      <g class="page-margin" transform="translate(500, 500)">
         <g id="m1cw27i1" class="mdiv pageMilestone" />
         <g id="slzf3xi" class="score pageMilestone" />
         <g id="s12338v1" class="system">
            <g id="l14tw0s0" class="label">
               <text x="1105" y="1535" text-anchor="end" font-size="0px">
                  <tspan id="t1djfjco" class="text">
                     <tspan font-size="405px" class="text">Piano</tspan>
                  </tspan>
               </text>
            </g>
            <g id="shjifcm" class="section systemMilestone" />
            <g id="mcb20up" class="measure">
               <g id="s1qp5i0r" class="staff">
                  <path d="M1285 1085 L5027 1085" stroke="currentColor" stroke-width="13" />
                  <path d="M1285 1265 L5027 1265" stroke="currentColor" stroke-width="13" />
                  <path d="M1285 1445 L5027 1445" stroke="currentColor" stroke-width="13" />
                  <path d="M1285 1625 L5027 1625" stroke="currentColor" stroke-width="13" />
                  <path d="M1285 1805 L5027 1805" stroke="currentColor" stroke-width="13" />
                  <g id="c1cvpo0t" class="clef">
                     <use xlink:href="#E050-mwn6rf" x="1375" y="1625" height="720px" width="720px" />
                  </g>
                  <g id="ker0s7l" class="keySig" />
                  <g id="mxkoolh" class="meterSig">
                     <use xlink:href="#E082-mwn6rf" x="2006" y="1265" height="720px" width="720px" />
                     <use xlink:href="#E084-mwn6rf" x="2011" y="1625" height="720px" width="720px" />
                  </g>
                  <g id="l1u1pd6c" class="layer">
                     <g id="b1rg6v1w" class="beam">
                        <polygon points="2789,905 3743,815 3743,905 2789,995" />
                        <polygon points="3360,986 3743,950 3743,1040 3360,1076" />
                        <g id="n1n13g04" class="note">
                           <g class="notehead">
                              <use xlink:href="#E0A4-mwn6rf" x="2581" y="1535" height="720px" width="720px" />
                           </g>
                           <g id="s1eehs70" class="stem">
                              <rect x="2789" y="923" height="584" width="18" />
                           </g>
                        </g>
                        <g id="nir4aek" class="note">
                           <g class="notehead">
                              <use xlink:href="#E0A4-mwn6rf" x="3143" y="1535" height="720px" width="720px" />
                           </g>
                           <g id="si9fe8k" class="stem">
                              <rect x="3351" y="869" height="638" width="18" />
                           </g>
                        </g>
                        <g id="n8d14sy" class="note">
                           <g class="notehead">
                              <use xlink:href="#E0A4-mwn6rf" x="3517" y="1445" height="720px" width="720px" />
                           </g>
                           <g id="silv7ur" class="stem">
                              <rect x="3725" y="833" height="584" width="18" />
                           </g>
                        </g>
                     </g>
                     <g id="b1xsqnpz" class="beam">
                        <polygon points="3891,1985 4471,1985 4471,1895 3891,1895" />
                        <g id="nu75bbs" class="note">
                           <g class="notehead">
                              <use xlink:href="#E0A4-mwn6rf" x="3891" y="1355" height="720px" width="720px" />
                           </g>
                           <g id="sfhhbnc" class="stem">
                              <rect x="3891" y="1383" height="584" width="18" />
                           </g>
                        </g>
                        <g id="n1wiy61k" class="note">
                           <g class="notehead">
                              <use xlink:href="#E0A4-mwn6rf" x="4453" y="1355" height="720px" width="720px" />
                           </g>
                           <g id="scg5t30" class="stem">
                              <rect x="4453" y="1383" height="584" width="18" />
                           </g>
                        </g>
                     </g>
                  </g>
               </g>
               <g id="bzw4sh1" class="barLine">
                  <path d="M5014 1085 L5014 1805" stroke="currentColor" stroke-width="27" />
               </g>
            </g>
            <g id="m1pb9is1" class="measure">
               <g id="s1bt02sg" class="staff">
                  <path d="M5027 1085 L7207 1085" stroke="currentColor" stroke-width="13" />
                  <path d="M5027 1265 L7207 1265" stroke="currentColor" stroke-width="13" />
                  <path d="M5027 1445 L7207 1445" stroke="currentColor" stroke-width="13" />
                  <path d="M5027 1625 L7207 1625" stroke="currentColor" stroke-width="13" />
                  <path d="M5027 1805 L7207 1805" stroke="currentColor" stroke-width="13" />
                  <g id="l19m6tcc" class="layer">
                     <g id="b1rv717d" class="beam">
                        <polygon points="5417,860 5997,950 5997,1040 5417,950" />
                        <g id="n1ck9u1" class="note">
                           <g class="notehead">
                              <use xlink:href="#E0A4-mwn6rf" x="5209" y="1445" height="720px" width="720px" />
                           </g>
                           <g id="s1ryolig" class="stem">
                              <rect x="5417" y="878" height="539" width="18" />
                           </g>
                        </g>
                        <g id="nr5qyld" class="note">
                           <g class="notehead">
                              <use xlink:href="#E0A4-mwn6rf" x="5771" y="1535" height="720px" width="720px" />
                           </g>
                           <g id="s825msw" class="stem">
                              <rect x="5979" y="968" height="539" width="18" />
                           </g>
                        </g>
                     </g>
                     <g id="nyvdyxo" class="note">
                        <g class="notehead">
                           <use xlink:href="#E0A4-mwn6rf" x="6332" y="1445" height="720px" width="720px" />
                        </g>
                        <g id="snr4qzz" class="stem">
                           <rect x="6332" y="1473" height="572" width="18" />
                        </g>
                     </g>
                  </g>
               </g>
               <g id="b9vza6z" class="barLine">
                  <path d="M7194 1085 L7194 1805" stroke="currentColor" stroke-width="27" />
               </g>
            </g>
            <g id="m18dy7mr" class="measure">
               <g id="sr932dm" class="staff">
                  <path d="M7207 1085 L9835 1085" stroke="currentColor" stroke-width="13" />
                  <path d="M7207 1265 L9835 1265" stroke="currentColor" stroke-width="13" />
                  <path d="M7207 1445 L9835 1445" stroke="currentColor" stroke-width="13" />
                  <path d="M7207 1625 L9835 1625" stroke="currentColor" stroke-width="13" />
                  <path d="M7207 1805 L9835 1805" stroke="currentColor" stroke-width="13" />
                  <g id="ltpg61n" class="layer">
                     <g id="b1implm2" class="beam">
                        <polygon points="7597,905 8551,815 8551,905 7597,995" />
                        <polygon points="8168,986 8551,950 8551,1040 8168,1076" />
                        <g id="nn8fazo" class="note">
                           <g class="notehead">
                              <use xlink:href="#E0A4-mwn6rf" x="7389" y="1535" height="720px" width="720px" />
                           </g>
                           <g id="sox917q" class="stem">
                              <rect x="7597" y="923" height="584" width="18" />
                           </g>
                        </g>
                        <g id="nf7eaay" class="note">
                           <g class="notehead">
                              <use xlink:href="#E0A4-mwn6rf" x="7951" y="1535" height="720px" width="720px" />
                           </g>
                           <g id="s1n5mq4m" class="stem">
                              <rect x="8159" y="869" height="638" width="18" />
                           </g>
                        </g>
                        <g id="n38i115" class="note">
                           <g class="notehead">
                              <use xlink:href="#E0A4-mwn6rf" x="8325" y="1445" height="720px" width="720px" />
                           </g>
                           <g id="smah6eh" class="stem">
                              <rect x="8533" y="833" height="584" width="18" />
                           </g>
                        </g>
                     </g>
                     <g id="bqguo7t" class="beam">
                        <polygon points="8699,1985 9279,1985 9279,1895 8699,1895" />
                        <g id="n1jn2gg9" class="note">
                           <g class="notehead">
                              <use xlink:href="#E0A4-mwn6rf" x="8699" y="1355" height="720px" width="720px" />
                           </g>
                           <g id="snqz2zk" class="stem">
                              <rect x="8699" y="1383" height="584" width="18" />
                           </g>
                        </g>
                        <g id="n1fr2ff0" class="note">
                           <g class="notehead">
                              <use xlink:href="#E0A4-mwn6rf" x="9261" y="1355" height="720px" width="720px" />
                           </g>
                           <g id="s2tbh2c" class="stem">
                              <rect x="9261" y="1383" height="584" width="18" />
                           </g>
                        </g>
                     </g>
                  </g>
               </g>
               <g id="b1qq4yvb" class="barLine">
                  <path d="M9822 1085 L9822 1805" stroke="currentColor" stroke-width="27" />
               </g>
            </g>
            <g id="m1rhgagj" class="measure">
               <g id="s13alpya" class="staff">
                  <path d="M9835 1085 L12380 1085" stroke="currentColor" stroke-width="13" />
                  <path d="M9835 1265 L12380 1265" stroke="currentColor" stroke-width="13" />
                  <path d="M9835 1445 L12380 1445" stroke="currentColor" stroke-width="13" />
                  <path d="M9835 1625 L12380 1625" stroke="currentColor" stroke-width="13" />
                  <path d="M9835 1805 L12380 1805" stroke="currentColor" stroke-width="13" />
                  <g id="luqx5gj" class="layer">
                     <g id="b8iliiu" class="beam">
                        <polygon points="10225,860 10805,950 10805,1040 10225,950" />
                        <g id="n1ocwz5a" class="note">
                           <g class="notehead">
                              <use xlink:href="#E0A4-mwn6rf" x="10017" y="1445" height="720px" width="720px" />
                           </g>
                           <g id="s1atzlmb" class="stem">
                              <rect x="10225" y="878" height="539" width="18" />
                           </g>
                        </g>
                        <g id="n14wu7qv" class="note">
                           <g class="notehead">
                              <use xlink:href="#E0A4-mwn6rf" x="10579" y="1535" height="720px" width="720px" />
                           </g>
                           <g id="s8ojw27" class="stem">
                              <rect x="10787" y="968" height="539" width="18" />
                           </g>
                        </g>
                     </g>
                     <g id="n1pnvgwv" class="note">
                        <g class="notehead">
                           <use xlink:href="#E0A4-mwn6rf" x="11140" y="1445" height="720px" width="720px" />
                        </g>
                        <g id="swz8yap" class="stem">
                           <rect x="11140" y="1473" height="572" width="18" />
                        </g>
                     </g>
                  </g>
               </g>
               <g id="b4f9yl3" class="barLine">
                  <path d="M12002 1085 L12002 1805" stroke="currentColor" stroke-width="27" />
                  <path d="M12132 1085 L12132 1805" stroke="currentColor" stroke-width="90" />
                  <path d="M12263 1085 L12263 1805" stroke="currentColor" stroke-width="27" />
                  <use xlink:href="#E044-mwn6rf" x="12308" y="1355" height="720px" width="720px" />
                  <use xlink:href="#E044-mwn6rf" x="12308" y="1535" height="720px" width="720px" />
                  <use xlink:href="#E044-mwn6rf" x="11885" y="1355" height="720px" width="720px" />
                  <use xlink:href="#E044-mwn6rf" x="11885" y="1535" height="720px" width="720px" />
               </g>
            </g>
            <g id="m1qnlgyq" class="measure">
               <g id="s1n8gywi" class="staff">
                  <path d="M12380 1085 L15008 1085" stroke="currentColor" stroke-width="13" />
                  <path d="M12380 1265 L15008 1265" stroke="currentColor" stroke-width="13" />
                  <path d="M12380 1445 L15008 1445" stroke="currentColor" stroke-width="13" />
                  <path d="M12380 1625 L15008 1625" stroke="currentColor" stroke-width="13" />
                  <path d="M12380 1805 L15008 1805" stroke="currentColor" stroke-width="13" />
                  <g id="ln0alc1" class="layer">
                     <g id="b3yu43z" class="beam">
                        <polygon points="12770,905 13724,815 13724,905 12770,995" />
                        <polygon points="13341,986 13724,950 13724,1040 13341,1076" />
                        <g id="nb4c9cb" class="note">
                           <g class="notehead">
                              <use xlink:href="#E0A4-mwn6rf" x="12562" y="1535" height="720px" width="720px" />
                           </g>
                           <g id="s1au0vw2" class="stem">
                              <rect x="12770" y="923" height="584" width="18" />
                           </g>
                        </g>
                        <g id="nwi0s6g" class="note">
                           <g class="notehead">
                              <use xlink:href="#E0A4-mwn6rf" x="13124" y="1535" height="720px" width="720px" />
                           </g>
                           <g id="s1myatxe" class="stem">
                              <rect x="13332" y="869" height="638" width="18" />
                           </g>
                        </g>
                        <g id="n18lyaiu" class="note">
                           <g class="notehead">
                              <use xlink:href="#E0A4-mwn6rf" x="13498" y="1445" height="720px" width="720px" />
                           </g>
                           <g id="ssxod5y" class="stem">
                              <rect x="13706" y="833" height="584" width="18" />
                           </g>
                        </g>
                     </g>
                     <g id="b10mfxft" class="beam">
                        <polygon points="14080,905 14660,995 14660,1085 14080,995" />
                        <g id="nbre4am" class="note">
                           <g class="notehead">
                              <use xlink:href="#E0A4-mwn6rf" x="13872" y="1535" height="720px" width="720px" />
                           </g>
                           <g id="sa9tnqy" class="stem">
                              <rect x="14080" y="923" height="584" width="18" />
                           </g>
                        </g>
                        <g id="ndj6c9a" class="note">
                           <g class="notehead">
                              <use xlink:href="#E0A4-mwn6rf" x="14434" y="1625" height="720px" width="720px" />
                           </g>
                           <g id="sl75ewn" class="stem">
                              <rect x="14642" y="1013" height="584" width="18" />
                           </g>
                        </g>
                     </g>
                  </g>
               </g>
               <g id="by0q34i" class="barLine">
                  <path d="M14995 1085 L14995 1805" stroke="currentColor" stroke-width="27" />
               </g>
            </g>
            <g id="maoxcuy" class="measure">
               <g id="sq78afb" class="staff">
                  <path d="M15008 1085 L17374 1085" stroke="currentColor" stroke-width="13" />
                  <path d="M15008 1265 L17374 1265" stroke="currentColor" stroke-width="13" />
                  <path d="M15008 1445 L17374 1445" stroke="currentColor" stroke-width="13" />
                  <path d="M15008 1625 L17374 1625" stroke="currentColor" stroke-width="13" />
                  <path d="M15008 1805 L17374 1805" stroke="currentColor" stroke-width="13" />
                  <g id="lqqx08c" class="layer">
                     <g id="b1pwxr6d" class="beam">
                        <polygon points="15398,905 16352,815 16352,905 15398,995" />
                        <polygon points="15969,986 16352,950 16352,1040 15969,1076" />
                        <g id="n4130kp" class="note">
                           <g class="notehead">
                              <use xlink:href="#E0A4-mwn6rf" x="15190" y="1535" height="720px" width="720px" />
                           </g>
                           <g id="s9rvh0b" class="stem">
                              <rect x="15398" y="923" height="584" width="18" />
                           </g>
                        </g>
                        <g id="n1lgg8dj" class="note">
                           <g class="notehead">
                              <use xlink:href="#E0A4-mwn6rf" x="15752" y="1535" height="720px" width="720px" />
                           </g>
                           <g id="sygfd4y" class="stem">
                              <rect x="15960" y="869" height="638" width="18" />
                           </g>
                        </g>
                        <g id="n1dtmf0p" class="note">
                           <g class="notehead">
                              <use xlink:href="#E0A4-mwn6rf" x="16126" y="1445" height="720px" width="720px" />
                           </g>
                           <g id="s17o1ebz" class="stem">
                              <rect x="16334" y="833" height="584" width="18" />
                           </g>
                        </g>
                     </g>
                     <g id="niomn3l" class="note">
                        <g class="notehead">
                           <use xlink:href="#E0A4-mwn6rf" x="16500" y="1625" height="720px" width="720px" />
                        </g>
                        <g id="s1i1n7ih" class="stem">
                           <rect x="16708" y="995" height="602" width="18" />
                        </g>
                     </g>
                  </g>
               </g>
               <g id="bx8ei7h" class="barLine">
                  <path d="M17361 1085 L17361 1805" stroke="currentColor" stroke-width="27" />
               </g>
            </g>
            <g id="mj1fxqh" class="measure">
               <g id="s14kjxv3" class="staff">
                  <path d="M17374 1085 L20002 1085" stroke="currentColor" stroke-width="13" />
                  <path d="M17374 1265 L20002 1265" stroke="currentColor" stroke-width="13" />
                  <path d="M17374 1445 L20002 1445" stroke="currentColor" stroke-width="13" />
                  <path d="M17374 1625 L20002 1625" stroke="currentColor" stroke-width="13" />
                  <path d="M17374 1805 L20002 1805" stroke="currentColor" stroke-width="13" />
                  <g id="l357fd9" class="layer">
                     <g id="b3svng2" class="beam">
                        <polygon points="17556,1985 18510,1985 18510,1895 17556,1895" />
                        <polygon points="18127,1850 18510,1850 18510,1760 18127,1760" />
                        <g id="nwpgzhd" class="note">
                           <g class="notehead">
                              <use xlink:href="#E0A4-mwn6rf" x="17556" y="1355" height="720px" width="720px" />
                           </g>
                           <g id="s96x9wc" class="stem">
                              <rect x="17556" y="1383" height="584" width="18" />
                           </g>
                        </g>
                        <g id="np5apmm" class="note">
                           <g class="notehead">
                              <use xlink:href="#E0A4-mwn6rf" x="18118" y="1355" height="720px" width="720px" />
                           </g>
                           <g id="sap7f7h" class="stem">
                              <rect x="18118" y="1383" height="584" width="18" />
                           </g>
                        </g>
                        <g id="n1kt5eng" class="note">
                           <g class="notehead">
                              <use xlink:href="#E0A4-mwn6rf" x="18492" y="1355" height="720px" width="720px" />
                           </g>
                           <g id="sg4dbwf" class="stem">
                              <rect x="18492" y="1383" height="584" width="18" />
                           </g>
                        </g>
                     </g>
                     <g id="by9yvmn" class="beam">
                        <polygon points="18866,2030 19446,2030 19446,1940 18866,1940" />
                        <g id="nze5yde" class="note">
                           <g class="notehead">
                              <use xlink:href="#E0A4-mwn6rf" x="18866" y="1445" height="720px" width="720px" />
                           </g>
                           <g id="s17l0qh1" class="stem">
                              <rect x="18866" y="1473" height="539" width="18" />
                           </g>
                        </g>
                        <g id="nhcueux" class="note">
                           <g class="notehead">
                              <use xlink:href="#E0A4-mwn6rf" x="19428" y="1445" height="720px" width="720px" />
                           </g>
                           <g id="s1flg0k4" class="stem">
                              <rect x="19428" y="1473" height="539" width="18" />
                           </g>
                        </g>
                     </g>
                  </g>
               </g>
               <g id="bjq9ddj" class="barLine">
                  <path d="M19989 1085 L19989 1805" stroke="currentColor" stroke-width="27" />
               </g>
            </g>
         </g>
         <g id="s1tt9ma4" class="system">
            <g id="lzj291v" class="labelAbbr">
               <text x="914" y="3884" text-anchor="end" font-size="0px">
                  <tspan id="tf2tywy" class="text">
                     <tspan font-size="405px" class="text">Pno.</tspan>
                  </tspan>
               </text>
            </g>
            <g id="m1kctsq1" class="measure">
               <g id="m1vl0klr" class="mNum autogenerated">
                  <text x="1094" y="3191" text-anchor="middle" font-size="0px">
                     <tspan id="t1yn1wsf" class="text">
                        <tspan font-size="324px" class="text">8</tspan>
                     </tspan>
                  </text>
               </g>
               <g id="ssl6625" class="staff">
                  <path d="M1094 3434 L4062 3434" stroke="currentColor" stroke-width="13" />
                  <path d="M1094 3614 L4062 3614" stroke="currentColor" stroke-width="13" />
                  <path d="M1094 3794 L4062 3794" stroke="currentColor" stroke-width="13" />
                  <path d="M1094 3974 L4062 3974" stroke="currentColor" stroke-width="13" />
                  <path d="M1094 4154 L4062 4154" stroke="currentColor" stroke-width="13" />
                  <g id="cyf2bjk" class="clef">
                     <use xlink:href="#E050-mwn6rf" x="1184" y="3974" height="720px" width="720px" />
                  </g>
                  <g id="k1b1nd72" class="keySig" />
                  <g id="lavpm4z" class="layer">
                     <g id="b16l7cvc" class="beam">
                        <polygon points="2127,3254 2702,3344 2702,3434 2127,3344" />
                        <g id="n12891rm" class="note">
                           <g class="notehead">
                              <use xlink:href="#E0A4-mwn6rf" x="1919" y="3884" height="720px" width="720px" />
                           </g>
                           <g id="sc46gla" class="stem">
                              <rect x="2127" y="3272" height="584" width="18" />
                           </g>
                        </g>
                        <g id="n186xn4u" class="note">
                           <g class="notehead">
                              <use xlink:href="#E0A4-mwn6rf" x="2476" y="3974" height="720px" width="720px" />
                           </g>
                           <g id="ssf0xw9" class="stem">
                              <rect x="2684" y="3362" height="584" width="18" />
                           </g>
                        </g>
                     </g>
                     <g id="n15yvc2z" class="note">
                        <g class="notehead">
                           <use xlink:href="#E0A4-mwn6rf" x="3033" y="3884" height="720px" width="720px" />
                        </g>
                        <g id="sjid50z" class="stem">
                           <rect x="3241" y="3254" height="602" width="18" />
                        </g>
                     </g>
                  </g>
               </g>
               <g id="bif8gvl" class="barLine">
                  <path d="M3887 3434 L3887 4154" stroke="currentColor" stroke-width="27" />
                  <path d="M4017 3434 L4017 4154" stroke="currentColor" stroke-width="90" />
               </g>
            </g>
            <g id="sqn9zev" class="systemMilestoneEnd shjifcm" />
         </g>
         <g id="p8va3ch" class="pageMilestoneEnd slzf3xi" />
         <g id="phb91ba" class="pageMilestoneEnd m1cw27i1" />
         <g id="puwgy8u" class="pgHead">
            <text x="0" y="0" font-size="0px">
               <tspan id="rtv4zyo" class="rend" x="10000" y="277" text-anchor="middle">
                  <tspan id="tefm369" class="text">
                     <tspan font-size="405px" class="text">Air n 201</tspan>
                  </tspan>
               </tspan>
            </text>
         </g>
         <g id="pwn0w99" class="pgFoot autogenerated">
            <g id="fwbh22j" class="fig">
               <g id="s1eaypzm" class="svg" transform="translate(7750, 28099) scale(10, 10)">
                  <g>
                     <path fill="#00000" d="M 17.11278,49.26451 V 10.367554 h 12.696511 c 3.288815,7.336676 6.71267,14.610456 10.127281,21.888976 3.419998,-7.484684 6.255515,-14.204887 9.58887,-21.909915 2.436207,0.103726 4.316952,0.08453 6.484294,-0.05808 V 49.264423 H 50.274275 C 50.145222,38.35639 50.016136,27.448368 49.887066,16.540329 45.003488,27.315459 39.967448,38.433564 35.083854,49.208695 34.678996,49.343717 34.426583,49.135619 34.021726,49.270644 29.46588,39.330716 24.910049,29.390805 20.354201,19.450876 20.224341,29.388756 20.09461,39.326619 19.964815,49.264497 H 17.11278 Z M 36.754144,39.324695 C 32.721221,30.512695 28.6883,21.700679 24.655394,12.888662 22.530527,12.750737 22.656775,12.71031 20.714356,12.813974 v 0.966497 c 4.612938,9.99784 9.609439,20.748709 13.87298,30.081745 0.722248,-1.512523 1.444528,-3.025014 2.166808,-4.537521 z m 25.738417,9.939815 c 0,-12.965651 0,-25.931305 0,-38.896956 10.084388,0 20.168791,0 30.253178,0 0,0.960416 0,1.920849 0,2.881265 -6.482825,0 -12.965652,0 -19.448478,0 0,4.802097 0,9.604178 0,14.406277 5.52241,0 11.044819,0 16.567229,0 0,0.960415 0,1.920832 0,2.881248 -5.52241,0 -11.044819,0 -16.567229,0 0,5.282306 0,10.564611 0,15.846917 6.963035,0 13.926068,0 20.889103,0 0,0.960416 0,1.920832 0,2.881249 -10.564597,0 -21.129207,0 -31.693803,0 z m 4.321874,-2.160937 c 0,-11.765131 0,-23.530263 0,-35.295394 -0.720312,0 -1.440625,0 -2.160937,0 0,11.765131 0,23.530263 0,35.295394 0.720312,0 1.440625,0 2.160937,0 z m 32.41413,2.160937 c 0,-12.965651 0,-25.931305 0,-38.896956 2.401045,0 4.802095,0 7.203135,0 0,12.965651 0,25.931305 0,38.896956 -2.40104,0 -4.80209,0 -7.203135,0 z m 2.881265,-2.160937 c 0,-11.765131 0,-23.530263 0,-35.295394 -0.72031,0 -1.44064,0 -2.160953,0 0,11.765131 0,23.530263 0,35.295394 0.720313,0 1.440643,0 2.160953,0 z" />
                     <path fill="#00000" d="m 346.3,6.7 c -3.1,0.5 -4.9,4.4 -2.7,6.8 1.2,1.4 2.7,2.4 4.1,3.5 -2.4,5.3 -7.7,8.3 -11.9,12.1 -3.7,2.8 -7,6.2 -9.7,9.9 -2.2,-0.8 -0.3,-6.8 -0.6,-9.5 0.1,-3.1 0.7,-6.4 2.9,-8.7 1.3,-1.9 3,-3.5 4.5,-5.2 1.2,-3.4 -3.2,-4.9 -5.8,-4.6 -7.3,-0.5 -14.6,2 -20,6.8 -5,4.6 -10,10.1 -11.5,17 -0.9,3.5 -0.2,7.5 2.8,9.9 2.5,2.8 7.4,2.9 9.8,-0.2 1.7,-2.3 3.2,-4.8 3.8,-7.6 -0.1,-2.6 -4.4,-2.3 -4.3,0.2 1.2,2.4 -0.9,4.7 -2.7,6.2 -1.7,0.9 -4.7,0.7 -4.8,-1.7 -1,-5.8 2.1,-11.3 5.2,-16.1 4,-5.8 9.8,-11.2 17.2,-11.8 1.6,0 8.1,-1.2 6.8,1.4 -2.8,2.8 -5.6,6.1 -6,10.3 -1.6,7.7 0.1,15.7 -2.3,23.2 -1.1,3.9 2,2.6 2.5,0.2 3.3,-7.4 8.9,-13.4 15.1,-18.5 4.2,-3.9 9.5,-7.1 11.9,-12.6 1.3,-3.6 1.2,-9 -2.7,-10.9 -0.6,-0.2 -1.2,-0.3 -1.8,-0.3 z m 66,14.5 c -2,0.8 -1.8,4.9 0.8,4.4 3.4,0.4 2.9,-6.2 -0.8,-4.4 z m 0.6,7.3 c -1.3,0.5 -7.6,0.5 -5.4,2.2 4,-0.3 0.7,4.5 0.6,6.7 -0.4,2.9 -2.4,5.9 -1.2,8.8 2.7,1.7 5.6,-0.8 6.8,-3.2 1.6,-1.4 -0.5,-3 -1.2,-0.9 -0.4,0.8 -2.4,3.5 -2.6,1.8 1.1,-5 2.7,-9.9 3.9,-14.9 l -0.1,-0.5 h -0.9 z m -65.1,0.2 c -6.5,1.6 -10.5,9.5 -8.2,15.7 2.1,3.4 7.4,2.9 10.1,0.4 2,-0.2 3.6,-5.3 1,-3.4 -1.4,2 -4,4.2 -6.5,2.8 -2.2,-1.9 -1.9,-5.7 1.7,-5.3 3.1,-0.9 6.9,-2.1 8.1,-5.5 0.9,-2.7 -1.6,-5.2 -4.3,-4.8 h -1.1 -0.7 z m 13.6,0 c -2.2,0 -8.5,1.8 -2.9,2.3 0.9,1.9 -1,4.9 -1.1,7.2 -0.5,2.9 -1.4,5.7 -1.7,8.7 3.7,0.7 3.8,-2.6 4.4,-5.3 0.9,-3.3 1.6,-7 4.1,-9.5 2.4,1.6 6.8,-0.7 3.7,-3.4 -2.9,-0.5 -4.8,2.4 -6.2,4.3 0,-1.2 2.4,-5 -0.2,-4.3 z m 15.8,0 c -6.4,1.3 -9.6,9.1 -7.7,14.9 1.9,4 7.7,3.9 11,1.7 4.1,-3 6,-8.9 4.4,-13.7 -1.3,-3 -4.8,-3.2 -7.6,-3 z m 17,0 c -2.3,0 -8.8,1.9 -3,2.4 0.4,2.5 -1,5.7 -1.4,8.4 -0.7,2.4 -1.8,7.5 2.1,7.2 3.8,-0.1 6.5,-3.5 8.5,-6.3 2,-3.2 4.5,-7 3.3,-10.9 -3.7,-3 -3.6,2.6 -3.1,5.1 -0.7,3.8 -2.7,7.9 -6.2,9.8 -3.6,0.6 -1,-4.3 -0.8,-6.1 0.6,-3.2 1.6,-6.3 1.9,-9.5 -0.4,0 -0.8,0 -1.1,0 z m 30.6,0 c -6.3,1.2 -9.5,8.9 -7.8,14.7 1.5,4 7.2,4.2 10.5,2.4 4.6,-2.8 6.6,-9.3 4.8,-14.3 -1.4,-2.8 -4.8,-3 -7.5,-2.8 z m -75.4,1.7 c 2.1,1.5 0.2,4.7 -1.6,5.7 -1.1,0.4 -5.5,3.4 -4.6,0.7 0.8,-2.7 2.2,-6.2 5.3,-6.6 l 0.9,0.1 z m 30.8,0 c 2.6,1.5 1.3,5.2 0.8,7.6 -0.8,2.7 -1.9,5.9 -4.7,7.1 -5.1,0.8 -4,-5.8 -2.8,-8.8 1,-2.8 3,-6.8 6.7,-5.8 z m 47.1,-0.1 c 2.9,0.7 2,4.7 1.5,6.8 -0.7,3 -1.8,6.7 -5,8 -4.7,0.8 -4,-5.1 -3,-7.9 0.9,-3 2.7,-7.3 6.5,-6.8 z m -88.1,5.9 c -0.3,1.3 0.9,-0.6 0,0 z m -1.1,2.4 c -0.2,0.5 0.5,-0.1 0,0 z m -1.3,4.5 c -0.3,1.3 0.8,-0.2 0,0 z" />
                     <text y="41" x="201" fill="#00000" style="font-style:italic;font-weight:normal;font-size:30px;line-height:125%;font-family:Times;text-anchor:middle" xml:space="preserve">engraved with</text>
                  </g>
               </g>
            </g>
         </g>
      </g>
   </svg>
</svg>
