<?xml version="1.0" encoding="UTF-8" standalone="no"?>
<svg width="2100px" height="2970px" version="1.1" xmlns="http://www.w3.org/2000/svg" xmlns:xlink="http://www.w3.org/1999/xlink" xmlns:mei="http://www.music-encoding.org/ns/mei" overflow="visible">
   <desc>Engraved by Verovio 3.13.1</desc>
   <defs>
      <symbol id="E044-ahzw7v" viewBox="0 0 1000 1000" overflow="inherit">
         <path transform="scale(1,-1)" d="M0 0c0 28 22 50 50 50s50 -22 50 -50s-22 -50 -50 -50s-50 22 -50 50z" />
      </symbol>
      <symbol id="E050-ahzw7v" viewBox="0 0 1000 1000" overflow="inherit">
         <path transform="scale(1,-1)" d="M441 -245c-23 -4 -48 -6 -76 -6c-59 0 -102 7 -130 20c-88 42 -150 93 -187 154c-26 44 -43 103 -48 176c0 6 -1 13 -1 19c0 54 15 111 45 170c29 57 65 106 110 148s96 85 153 127c-3 16 -8 46 -13 92c-4 43 -5 73 -5 89c0 117 16 172 69 257c34 54 64 82 89 82 c21 0 43 -30 69 -92s39 -115 41 -159v-15c0 -109 -21 -162 -67 -241c-13 -20 -63 -90 -98 -118c-13 -9 -25 -19 -37 -29l31 -181c8 1 18 2 28 2c58 0 102 -12 133 -35c59 -43 92 -104 98 -184c1 -7 1 -15 1 -22c0 -123 -87 -209 -181 -248c8 -57 17 -110 25 -162 c5 -31 6 -58 6 -80c0 -30 -5 -53 -14 -70c-35 -64 -88 -99 -158 -103c-5 0 -11 -1 -16 -1c-37 0 -72 10 -108 27c-50 24 -77 59 -80 105v11c0 29 7 55 20 76c18 28 45 42 79 44h6c49 0 93 -42 97 -87v-9c0 -51 -34 -86 -105 -106c17 -24 51 -36 102 -36c62 0 116 43 140 85 c9 16 13 41 13 74c0 20 -1 42 -5 67c-8 53 -18 106 -26 159zM461 939c-95 0 -135 -175 -135 -286c0 -24 2 -48 5 -71c50 39 92 82 127 128c40 53 60 100 60 140v8c-4 53 -22 81 -55 81h-2zM406 119l54 -326c73 25 110 78 110 161c0 7 0 15 -1 23c-7 95 -57 142 -151 142h-12 zM382 117c-72 -2 -128 -47 -128 -120v-7c2 -46 43 -99 75 -115c-3 -2 -7 -5 -10 -10c-70 33 -116 88 -123 172v11c0 68 44 126 88 159c23 17 49 29 78 36l-29 170c-21 -13 -52 -37 -92 -73c-50 -44 -86 -84 -109 -119c-45 -69 -67 -130 -67 -182v-13c5 -68 35 -127 93 -176 s125 -73 203 -73c25 0 50 3 75 9c-19 111 -36 221 -54 331z" />
      </symbol>
      <symbol id="E082-ahzw7v" viewBox="0 0 1000 1000" overflow="inherit">
         <path transform="scale(1,-1)" d="M124 -185c-18 0 -55 -14 -65 -65h-36l-3 30c0 25 6 45 18 63c11 19 22 30 39 43l121 82l37 29c15 11 27 29 38 54c12 24 18 47 18 70c0 40 -19 88 -94 88c-25 0 -32 0 -50 -8c-14 -5 -23 -12 -26 -22c3 -9 7 -15 10 -18l24 -17c12 -7 17 -11 27 -21c5 -7 7 -16 7 -27 c0 -12 0 -57 -79 -74c-30 0 -76 26 -76 94c0 66 81 135 197 135c72 0 181 -32 181 -150c0 -53 -32 -95 -113 -133l-91 -41c-26 -11 -45 -23 -57 -37l49 7c84 0 115 -41 148 -41c20 0 33 20 39 61h35c0 -152 -68 -168 -114 -168c-17 0 -65 0 -79 7h10l-28 17 c-49 37 -69 40 -87 42z" />
      </symbol>
      <symbol id="E084-ahzw7v" viewBox="0 0 1000 1000" overflow="inherit">
         <path transform="scale(1,-1)" d="M20 -78c84 97 114 180 134 329h170c-13 -32 -82 -132 -99 -151l-84 -97c-33 -36 -59 -63 -80 -81h162v102l127 123v-225h57v-39h-57v-34c0 -43 19 -65 57 -65v-34h-244v36c48 0 60 26 60 70v27h-203v39z" />
      </symbol>
      <symbol id="E0A4-ahzw7v" viewBox="0 0 1000 1000" overflow="inherit">
         <path transform="scale(1,-1)" d="M0 -39c0 68 73 172 200 172c66 0 114 -37 114 -95c0 -84 -106 -171 -218 -171c-64 0 -96 30 -96 94z" />
      </symbol>
   </defs>
   <style type="text/css">g.page-margin{font-family:Times;} g.ending, g.fing, g.reh, g.tempo{font-weight:bold;} g.dir, g.dynam, g.mNum{font-style:italic;} g.label{font-weight:normal;}</style>
   <svg class="definition-scale" color="black" viewBox="0 0 21000 29700">
      <g class="page-margin" transform="translate(500, 500)">
         <g id="m1w0un1n" class="mdiv pageMilestone" />
         <g id="s1q5tq8g" class="score pageMilestone" />
         <g id="sj9doar" class="system">
            <g id="l373v7" class="label">
               <text x="1105" y="1535" text-anchor="end" font-size="0px">
                  <tspan id="t1mqtion" class="text">
                     <tspan font-size="405px" class="text">Piano</tspan>
                  </tspan>
               </text>
            </g>
            <g id="sa9y85y" class="section systemMilestone" />
            <g id="p9sncks" class="pb" />
            <g id="m6tcaar" class="measure">
               <g id="s1te1vxs" class="staff">
                  <path d="M1285 1085 L4994 1085" stroke="currentColor" stroke-width="13" />
                  <path d="M1285 1265 L4994 1265" stroke="currentColor" stroke-width="13" />
                  <path d="M1285 1445 L4994 1445" stroke="currentColor" stroke-width="13" />
                  <path d="M1285 1625 L4994 1625" stroke="currentColor" stroke-width="13" />
                  <path d="M1285 1805 L4994 1805" stroke="currentColor" stroke-width="13" />
                  <g id="caquf5o" class="clef">
                     <use xlink:href="#E050-ahzw7v" x="1375" y="1625" height="720px" width="720px" />
                  </g>
                  <g id="km7wnm6" class="keySig" />
                  <g id="mhty5fv" class="meterSig">
                     <use xlink:href="#E082-ahzw7v" x="2006" y="1265" height="720px" width="720px" />
                     <use xlink:href="#E084-ahzw7v" x="2011" y="1625" height="720px" width="720px" />
                  </g>
                  <g id="lolncyp" class="layer">
                     <g id="b1unvun6" class="beam">
                        <polygon points="2582,2030 3114,1985 3114,1895 2582,1940" />
                        <g id="nbvzboi" class="note">
                           <g class="notehead">
                              <use xlink:href="#E0A4-ahzw7v" x="2582" y="1355" height="720px" width="720px" />
                           </g>
                           <g id="s16b2lp3" class="stem">
                              <rect x="2582" y="1383" height="629" width="18" />
                           </g>
                        </g>
                        <g id="n1e9ubur" class="note">
                           <g class="notehead">
                              <use xlink:href="#E0A4-ahzw7v" x="3096" y="1265" height="720px" width="720px" />
                           </g>
                           <g id="st6b1f4" class="stem">
                              <rect x="3096" y="1293" height="674" width="18" />
                           </g>
                        </g>
                     </g>
                     <g id="boqme7d" class="beam">
                        <polygon points="3610,2120 4656,2120 4656,2030 3610,2030" />
                        <polygon points="3610,1985 3962,1985 3962,1895 3610,1895" />
                        <polygon points="3962,1985 4304,1985 4304,1895 3962,1895" />
                        <polygon points="4304,1985 4656,1985 4656,1895 4304,1895" />
                        <g id="n44h9bn" class="note">
                           <g class="notehead">
                              <use xlink:href="#E0A4-ahzw7v" x="3610" y="1355" height="720px" width="720px" />
                           </g>
                           <g id="s1ytqrx6" class="stem">
                              <rect x="3610" y="1383" height="719" width="18" />
                           </g>
                        </g>
                        <g id="n15wbh3r" class="note">
                           <g class="notehead">
                              <use xlink:href="#E0A4-ahzw7v" x="3953" y="1445" height="720px" width="720px" />
                           </g>
                           <g id="s6jv9pi" class="stem">
                              <rect x="3953" y="1473" height="629" width="18" />
                           </g>
                        </g>
                        <g id="n1rz3mnq" class="note">
                           <g class="notehead">
                              <use xlink:href="#E0A4-ahzw7v" x="4295" y="1535" height="720px" width="720px" />
                           </g>
                           <g id="smt8is4" class="stem">
                              <rect x="4295" y="1563" height="539" width="18" />
                           </g>
                        </g>
                        <g id="n1psi1ya" class="note">
                           <g class="notehead">
                              <use xlink:href="#E0A4-ahzw7v" x="4638" y="1445" height="720px" width="720px" />
                           </g>
                           <g id="spk88lj" class="stem">
                              <rect x="4638" y="1473" height="629" width="18" />
                           </g>
                        </g>
                     </g>
                  </g>
               </g>
               <g id="bta9cci" class="barLine">
                  <path d="M4981 1085 L4981 1805" stroke="currentColor" stroke-width="27" />
               </g>
            </g>
            <g id="m1wnkue2" class="measure">
               <g id="syel4ij" class="staff">
                  <path d="M4994 1085 L7589 1085" stroke="currentColor" stroke-width="13" />
                  <path d="M4994 1265 L7589 1265" stroke="currentColor" stroke-width="13" />
                  <path d="M4994 1445 L7589 1445" stroke="currentColor" stroke-width="13" />
                  <path d="M4994 1625 L7589 1625" stroke="currentColor" stroke-width="13" />
                  <path d="M4994 1805 L7589 1805" stroke="currentColor" stroke-width="13" />
                  <g id="l1r8c6hd" class="layer">
                     <g id="b1qwtz9w" class="beam">
                        <polygon points="5177,2075 5709,2120 5709,2030 5177,1985" />
                        <g id="n1sufph" class="note">
                           <g class="notehead">
                              <use xlink:href="#E0A4-ahzw7v" x="5177" y="1355" height="720px" width="720px" />
                           </g>
                           <g id="s1ipsahv" class="stem">
                              <rect x="5177" y="1383" height="674" width="18" />
                           </g>
                        </g>
                        <g id="n1qm5iej" class="note">
                           <g class="notehead">
                              <use xlink:href="#E0A4-ahzw7v" x="5691" y="1535" height="720px" width="720px" />
                           </g>
                           <g id="s16mnbti" class="stem">
                              <rect x="5691" y="1563" height="539" width="18" />
                           </g>
                        </g>
                     </g>
                     <g id="b1f7vxoc" class="beam">
                        <polygon points="6205,1895 7251,1940 7251,1850 6205,1805" />
                        <polygon points="6205,1760 6557,1776 6557,1686 6205,1670" />
                        <polygon points="6557,1776 6899,1790 6899,1700 6557,1686" />
                        <polygon points="6899,1790 7251,1805 7251,1715 6899,1700" />
                        <g id="n17g2dir" class="note">
                           <g class="notehead">
                              <use xlink:href="#E0A4-ahzw7v" x="6205" y="1175" height="720px" width="720px" />
                           </g>
                           <g id="szrqvgz" class="stem">
                              <rect x="6205" y="1203" height="674" width="18" />
                           </g>
                        </g>
                        <g id="n1eyk7b1" class="note">
                           <g class="notehead">
                              <use xlink:href="#E0A4-ahzw7v" x="6548" y="1085" height="720px" width="720px" />
                           </g>
                           <g id="s1nqksie" class="stem">
                              <rect x="6548" y="1113" height="780" width="18" />
                           </g>
                        </g>
                        <g id="n1tv52j4" class="note">
                           <g class="notehead">
                              <use xlink:href="#E0A4-ahzw7v" x="6890" y="1175" height="720px" width="720px" />
                           </g>
                           <g id="s1ylak7b" class="stem">
                              <rect x="6890" y="1203" height="704" width="18" />
                           </g>
                        </g>
                        <g id="nwel3sk" class="note">
                           <g class="notehead">
                              <use xlink:href="#E0A4-ahzw7v" x="7233" y="1265" height="720px" width="720px" />
                           </g>
                           <g id="s1vy4mwv" class="stem">
                              <rect x="7233" y="1293" height="629" width="18" />
                           </g>
                        </g>
                     </g>
                  </g>
               </g>
               <g id="b1bb8kva" class="barLine">
                  <path d="M7576 1085 L7576 1805" stroke="currentColor" stroke-width="27" />
               </g>
            </g>
            <g id="m1si5ho2" class="measure">
               <g id="s1wcnt0q" class="staff">
                  <path d="M7589 1085 L10184 1085" stroke="currentColor" stroke-width="13" />
                  <path d="M7589 1265 L10184 1265" stroke="currentColor" stroke-width="13" />
                  <path d="M7589 1445 L10184 1445" stroke="currentColor" stroke-width="13" />
                  <path d="M7589 1625 L10184 1625" stroke="currentColor" stroke-width="13" />
                  <path d="M7589 1805 L10184 1805" stroke="currentColor" stroke-width="13" />
                  <g id="l1i3j8yb" class="layer">
                     <g id="blpch6c" class="beam">
                        <polygon points="7772,2030 8304,1985 8304,1895 7772,1940" />
                        <g id="nflmbua" class="note">
                           <g class="notehead">
                              <use xlink:href="#E0A4-ahzw7v" x="7772" y="1355" height="720px" width="720px" />
                           </g>
                           <g id="sfm686v" class="stem">
                              <rect x="7772" y="1383" height="629" width="18" />
                           </g>
                        </g>
                        <g id="n5fazwf" class="note">
                           <g class="notehead">
                              <use xlink:href="#E0A4-ahzw7v" x="8286" y="1265" height="720px" width="720px" />
                           </g>
                           <g id="s1csr1kb" class="stem">
                              <rect x="8286" y="1293" height="674" width="18" />
                           </g>
                        </g>
                     </g>
                     <g id="b1g7fgpx" class="beam">
                        <polygon points="8800,2120 9846,2120 9846,2030 8800,2030" />
                        <polygon points="8800,1985 9152,1985 9152,1895 8800,1895" />
                        <polygon points="9152,1985 9494,1985 9494,1895 9152,1895" />
                        <polygon points="9494,1985 9846,1985 9846,1895 9494,1895" />
                        <g id="n8punvq" class="note">
                           <g class="notehead">
                              <use xlink:href="#E0A4-ahzw7v" x="8800" y="1355" height="720px" width="720px" />
                           </g>
                           <g id="s1ije6yb" class="stem">
                              <rect x="8800" y="1383" height="719" width="18" />
                           </g>
                        </g>
                        <g id="n1w4ros" class="note">
                           <g class="notehead">
                              <use xlink:href="#E0A4-ahzw7v" x="9143" y="1445" height="720px" width="720px" />
                           </g>
                           <g id="s5xa6bv" class="stem">
                              <rect x="9143" y="1473" height="629" width="18" />
                           </g>
                        </g>
                        <g id="nv5o0s7" class="note">
                           <g class="notehead">
                              <use xlink:href="#E0A4-ahzw7v" x="9485" y="1535" height="720px" width="720px" />
                           </g>
                           <g id="s4grqcs" class="stem">
                              <rect x="9485" y="1563" height="539" width="18" />
                           </g>
                        </g>
                        <g id="n1dq2yj3" class="note">
                           <g class="notehead">
                              <use xlink:href="#E0A4-ahzw7v" x="9828" y="1445" height="720px" width="720px" />
                           </g>
                           <g id="s13van0t" class="stem">
                              <rect x="9828" y="1473" height="629" width="18" />
                           </g>
                        </g>
                     </g>
                  </g>
               </g>
               <g id="b1h6asad" class="barLine">
                  <path d="M10171 1085 L10171 1805" stroke="currentColor" stroke-width="27" />
               </g>
            </g>
            <g id="ml914df" class="measure">
               <g id="s1clgje6" class="staff">
                  <path d="M10184 1085 L12562 1085" stroke="currentColor" stroke-width="13" />
                  <path d="M10184 1265 L12562 1265" stroke="currentColor" stroke-width="13" />
                  <path d="M10184 1445 L12562 1445" stroke="currentColor" stroke-width="13" />
                  <path d="M10184 1625 L12562 1625" stroke="currentColor" stroke-width="13" />
                  <path d="M10184 1805 L12562 1805" stroke="currentColor" stroke-width="13" />
                  <g id="l1orj9r4" class="layer">
                     <g id="b8xgcr4" class="beam">
                        <polygon points="10367,2075 10899,2120 10899,2030 10367,1985" />
                        <g id="n1lkuwca" class="note">
                           <g class="notehead">
                              <use xlink:href="#E0A4-ahzw7v" x="10367" y="1355" height="720px" width="720px" />
                           </g>
                           <g id="s1drizw9" class="stem">
                              <rect x="10367" y="1383" height="674" width="18" />
                           </g>
                        </g>
                        <g id="n19gkv5q" class="note">
                           <g class="notehead">
                              <use xlink:href="#E0A4-ahzw7v" x="10881" y="1535" height="720px" width="720px" />
                           </g>
                           <g id="s67cea3" class="stem">
                              <rect x="10881" y="1563" height="539" width="18" />
                           </g>
                        </g>
                     </g>
                     <g id="n1bwuj1s" class="note">
                        <g class="notehead">
                           <use xlink:href="#E0A4-ahzw7v" x="11395" y="1175" height="720px" width="720px" />
                        </g>
                        <g id="s6gebdu" class="stem">
                           <rect x="11395" y="1203" height="602" width="18" />
                        </g>
                     </g>
                  </g>
               </g>
               <g id="b1otz686" class="barLine">
                  <path d="M12184 1085 L12184 1805" stroke="currentColor" stroke-width="27" />
                  <path d="M12314 1085 L12314 1805" stroke="currentColor" stroke-width="90" />
                  <path d="M12445 1085 L12445 1805" stroke="currentColor" stroke-width="27" />
                  <use xlink:href="#E044-ahzw7v" x="12490" y="1355" height="720px" width="720px" />
                  <use xlink:href="#E044-ahzw7v" x="12490" y="1535" height="720px" width="720px" />
                  <use xlink:href="#E044-ahzw7v" x="12067" y="1355" height="720px" width="720px" />
                  <use xlink:href="#E044-ahzw7v" x="12067" y="1535" height="720px" width="720px" />
               </g>
            </g>
            <g id="m346bup" class="measure">
               <g id="sddvzs7" class="staff">
                  <path d="M12562 1085 L14814 1085" stroke="currentColor" stroke-width="13" />
                  <path d="M12562 1265 L14814 1265" stroke="currentColor" stroke-width="13" />
                  <path d="M12562 1445 L14814 1445" stroke="currentColor" stroke-width="13" />
                  <path d="M12562 1625 L14814 1625" stroke="currentColor" stroke-width="13" />
                  <path d="M12562 1805 L14814 1805" stroke="currentColor" stroke-width="13" />
                  <g id="l15j2e4y" class="layer">
                     <g id="bd73adx" class="beam">
                        <polygon points="12745,2030 13277,1985 13277,1895 12745,1940" />
                        <g id="nxawnuq" class="note">
                           <g class="notehead">
                              <use xlink:href="#E0A4-ahzw7v" x="12745" y="1355" height="720px" width="720px" />
                           </g>
                           <g id="sgto1sk" class="stem">
                              <rect x="12745" y="1383" height="629" width="18" />
                           </g>
                        </g>
                        <g id="na4a33z" class="note">
                           <g class="notehead">
                              <use xlink:href="#E0A4-ahzw7v" x="13259" y="1265" height="720px" width="720px" />
                           </g>
                           <g id="s15vldef" class="stem">
                              <rect x="13259" y="1293" height="674" width="18" />
                           </g>
                        </g>
                     </g>
                     <g id="b1dq158r" class="beam">
                        <polygon points="13773,1895 14305,1940 14305,1850 13773,1805" />
                        <g id="n4o1sag" class="note">
                           <g class="notehead">
                              <use xlink:href="#E0A4-ahzw7v" x="13773" y="1175" height="720px" width="720px" />
                           </g>
                           <g id="s7hmhsr" class="stem">
                              <rect x="13773" y="1203" height="674" width="18" />
                           </g>
                        </g>
                        <g id="n1ugv0ii" class="note">
                           <g class="notehead">
                              <use xlink:href="#E0A4-ahzw7v" x="14287" y="1265" height="720px" width="720px" />
                           </g>
                           <g id="s1r099g8" class="stem">
                              <rect x="14287" y="1293" height="629" width="18" />
                           </g>
                        </g>
                     </g>
                  </g>
               </g>
               <g id="b4tsysm" class="barLine">
                  <path d="M14801 1085 L14801 1805" stroke="currentColor" stroke-width="27" />
               </g>
            </g>
            <g id="m1295u8v" class="measure">
               <g id="s1u3j6ti" class="staff">
                  <path d="M14814 1085 L17752 1085" stroke="currentColor" stroke-width="13" />
                  <path d="M14814 1265 L17752 1265" stroke="currentColor" stroke-width="13" />
                  <path d="M14814 1445 L17752 1445" stroke="currentColor" stroke-width="13" />
                  <path d="M14814 1625 L17752 1625" stroke="currentColor" stroke-width="13" />
                  <path d="M14814 1805 L17752 1805" stroke="currentColor" stroke-width="13" />
                  <g id="l12u9xgn" class="layer">
                     <g id="b10f2u0b" class="beam">
                        <polygon points="14997,2075 16043,2120 16043,2030 14997,1985" />
                        <polygon points="14997,1940 15349,1956 15349,1866 14997,1850" />
                        <polygon points="15349,1956 15691,1970 15691,1880 15349,1866" />
                        <polygon points="15691,1970 16043,1985 16043,1895 15691,1880" />
                        <g id="n1ur1t56" class="note">
                           <g class="notehead">
                              <use xlink:href="#E0A4-ahzw7v" x="14997" y="1355" height="720px" width="720px" />
                           </g>
                           <g id="s4spq37" class="stem">
                              <rect x="14997" y="1383" height="674" width="18" />
                           </g>
                        </g>
                        <g id="ni9qnwt" class="note">
                           <g class="notehead">
                              <use xlink:href="#E0A4-ahzw7v" x="15340" y="1265" height="720px" width="720px" />
                           </g>
                           <g id="sbuzwi2" class="stem">
                              <rect x="15340" y="1293" height="780" width="18" />
                           </g>
                        </g>
                        <g id="n1834bak" class="note">
                           <g class="notehead">
                              <use xlink:href="#E0A4-ahzw7v" x="15682" y="1355" height="720px" width="720px" />
                           </g>
                           <g id="sxc24lu" class="stem">
                              <rect x="15682" y="1383" height="704" width="18" />
                           </g>
                        </g>
                        <g id="n1i2d60j" class="note">
                           <g class="notehead">
                              <use xlink:href="#E0A4-ahzw7v" x="16025" y="1445" height="720px" width="720px" />
                           </g>
                           <g id="s327wx0" class="stem">
                              <rect x="16025" y="1473" height="629" width="18" />
                           </g>
                        </g>
                     </g>
                     <g id="b16kp6sf" class="beam">
                        <polygon points="16576,815 17622,770 17622,860 16576,905" />
                        <polygon points="16576,950 16927,936 16927,1026 16576,1040" />
                        <polygon points="16927,936 17270,921 17270,1011 16927,1026" />
                        <polygon points="17270,921 17622,905 17622,995 17270,1011" />
                        <g id="ncos76g" class="note">
                           <g class="notehead">
                              <use xlink:href="#E0A4-ahzw7v" x="16368" y="1535" height="720px" width="720px" />
                           </g>
                           <g id="su4sfp8" class="stem">
                              <rect x="16576" y="833" height="674" width="18" />
                           </g>
                        </g>
                        <g id="n6zuwlt" class="note">
                           <g class="notehead">
                              <use xlink:href="#E0A4-ahzw7v" x="16710" y="1625" height="720px" width="720px" />
                           </g>
                           <g id="spauvi" class="stem">
                              <rect x="16918" y="819" height="778" width="18" />
                           </g>
                        </g>
                        <g id="njwujba" class="note">
                           <g class="notehead">
                              <use xlink:href="#E0A4-ahzw7v" x="17053" y="1535" height="720px" width="720px" />
                           </g>
                           <g id="s7ge1mf" class="stem">
                              <rect x="17261" y="804" height="703" width="18" />
                           </g>
                        </g>
                        <g id="nq5wuey" class="note">
                           <g class="notehead">
                              <use xlink:href="#E0A4-ahzw7v" x="17396" y="1445" height="720px" width="720px" />
                           </g>
                           <g id="s1w77a8u" class="stem">
                              <rect x="17604" y="788" height="629" width="18" />
                           </g>
                        </g>
                     </g>
                  </g>
               </g>
               <g id="bdx9hqx" class="barLine">
                  <path d="M17739 1085 L17739 1805" stroke="currentColor" stroke-width="27" />
               </g>
            </g>
            <g id="mtesc91" class="measure">
               <g id="s2zl139" class="staff">
                  <path d="M17752 1085 L20004 1085" stroke="currentColor" stroke-width="13" />
                  <path d="M17752 1265 L20004 1265" stroke="currentColor" stroke-width="13" />
                  <path d="M17752 1445 L20004 1445" stroke="currentColor" stroke-width="13" />
                  <path d="M17752 1625 L20004 1625" stroke="currentColor" stroke-width="13" />
                  <path d="M17752 1805 L20004 1805" stroke="currentColor" stroke-width="13" />
                  <g id="l12lgqg5" class="layer">
                     <g id="b1tzw4n6" class="beam">
                        <polygon points="17935,2030 18467,1985 18467,1895 17935,1940" />
                        <g id="n1giq1la" class="note">
                           <g class="notehead">
                              <use xlink:href="#E0A4-ahzw7v" x="17935" y="1355" height="720px" width="720px" />
                           </g>
                           <g id="sfrcqtx" class="stem">
                              <rect x="17935" y="1383" height="629" width="18" />
                           </g>
                        </g>
                        <g id="n78gjyf" class="note">
                           <g class="notehead">
                              <use xlink:href="#E0A4-ahzw7v" x="18449" y="1265" height="720px" width="720px" />
                           </g>
                           <g id="s1viwwyu" class="stem">
                              <rect x="18449" y="1293" height="674" width="18" />
                           </g>
                        </g>
                     </g>
                     <g id="b1rs5r6p" class="beam">
                        <polygon points="18963,1895 19495,1940 19495,1850 18963,1805" />
                        <g id="nodbjn9" class="note">
                           <g class="notehead">
                              <use xlink:href="#E0A4-ahzw7v" x="18963" y="1175" height="720px" width="720px" />
                           </g>
                           <g id="sd7m45u" class="stem">
                              <rect x="18963" y="1203" height="674" width="18" />
                           </g>
                        </g>
                        <g id="n19k6kz3" class="note">
                           <g class="notehead">
                              <use xlink:href="#E0A4-ahzw7v" x="19477" y="1265" height="720px" width="720px" />
                           </g>
                           <g id="so48hpl" class="stem">
                              <rect x="19477" y="1293" height="629" width="18" />
                           </g>
                        </g>
                     </g>
                  </g>
               </g>
               <g id="b19ujf4u" class="barLine">
                  <path d="M19991 1085 L19991 1805" stroke="currentColor" stroke-width="27" />
               </g>
            </g>
            <g id="sf21dzx" class="sb" />
         </g>
         <g id="s1hmxvq" class="system">
            <g id="l1c7b7yg" class="labelAbbr">
               <text x="914" y="3884" text-anchor="end" font-size="0px">
                  <tspan id="t1r9l2yj" class="text">
                     <tspan font-size="405px" class="text">Pno.</tspan>
                  </tspan>
               </text>
            </g>
            <g id="mqyfpxy" class="measure">
               <g id="m94kzdo" class="mNum autogenerated">
                  <text x="1094" y="3191" text-anchor="middle" font-size="0px">
                     <tspan id="t1uefhbo" class="text">
                        <tspan font-size="324px" class="text">8</tspan>
                     </tspan>
                  </text>
               </g>
               <g id="s9a6xu8" class="staff">
                  <path d="M1094 3434 L4224 3434" stroke="currentColor" stroke-width="13" />
                  <path d="M1094 3614 L4224 3614" stroke="currentColor" stroke-width="13" />
                  <path d="M1094 3794 L4224 3794" stroke="currentColor" stroke-width="13" />
                  <path d="M1094 3974 L4224 3974" stroke="currentColor" stroke-width="13" />
                  <path d="M1094 4154 L4224 4154" stroke="currentColor" stroke-width="13" />
                  <g id="c1b5tw1k" class="clef">
                     <use xlink:href="#E050-ahzw7v" x="1184" y="3974" height="720px" width="720px" />
                  </g>
                  <g id="k19z85vx" class="keySig" />
                  <g id="l1lieb6z" class="layer">
                     <g id="b1rzvfro" class="beam">
                        <polygon points="1919,4424 2951,4469 2951,4379 1919,4334" />
                        <polygon points="1919,4289 2266,4304 2266,4214 1919,4199" />
                        <polygon points="2266,4304 2604,4319 2604,4229 2266,4214" />
                        <polygon points="2604,4319 2951,4334 2951,4244 2604,4229" />
                        <g id="n11te6k6" class="note">
                           <g class="notehead">
                              <use xlink:href="#E0A4-ahzw7v" x="1919" y="3704" height="720px" width="720px" />
                           </g>
                           <g id="s1rhigyd" class="stem">
                              <rect x="1919" y="3732" height="674" width="18" />
                           </g>
                        </g>
                        <g id="n1njmypk" class="note">
                           <g class="notehead">
                              <use xlink:href="#E0A4-ahzw7v" x="2257" y="3614" height="720px" width="720px" />
                           </g>
                           <g id="s4s5o6p" class="stem">
                              <rect x="2257" y="3642" height="779" width="18" />
                           </g>
                        </g>
                        <g id="nuhgqop" class="note">
                           <g class="notehead">
                              <use xlink:href="#E0A4-ahzw7v" x="2595" y="3704" height="720px" width="720px" />
                           </g>
                           <g id="s1q9l1nj" class="stem">
                              <rect x="2595" y="3732" height="704" width="18" />
                           </g>
                        </g>
                        <g id="n1u46p1e" class="note">
                           <g class="notehead">
                              <use xlink:href="#E0A4-ahzw7v" x="2933" y="3794" height="720px" width="720px" />
                           </g>
                           <g id="sw5jsm2" class="stem">
                              <rect x="2933" y="3822" height="629" width="18" />
                           </g>
                        </g>
                     </g>
                     <g id="n1egmmoe" class="note">
                        <g class="notehead">
                           <use xlink:href="#E0A4-ahzw7v" x="3271" y="3884" height="720px" width="720px" />
                        </g>
                        <g id="sk2d7j3" class="stem">
                           <rect x="3479" y="3254" height="602" width="18" />
                        </g>
                     </g>
                  </g>
               </g>
               <g id="b1egsax6" class="barLine">
                  <path d="M4049 3434 L4049 4154" stroke="currentColor" stroke-width="27" />
                  <path d="M4179 3434 L4179 4154" stroke="currentColor" stroke-width="90" />
               </g>
            </g>
            <g id="sllclmr" class="systemMilestoneEnd sa9y85y" />
         </g>
         <g id="p1krc0ye" class="pageMilestoneEnd s1q5tq8g" />
         <g id="p16cg29f" class="pageMilestoneEnd m1w0un1n" />
         <g id="paeigpg" class="pgHead">
            <text x="0" y="0" font-size="0px">
               <tspan id="rioi9cn" class="rend" x="10000" y="277" text-anchor="middle">
                  <tspan id="t2hyn7v" class="text">
                     <tspan font-size="405px" class="text">Air n 140</tspan>
                  </tspan>
               </tspan>
            </text>
         </g>
         <g id="p5erkqn" class="pgFoot autogenerated">
            <g id="ftrtsj5" class="fig">
               <g id="sp8bskx" class="svg" transform="translate(7750, 28099) scale(10, 10)">
                  <g>
                     <path fill="#00000" d="M 17.11278,49.26451 V 10.367554 h 12.696511 c 3.288815,7.336676 6.71267,14.610456 10.127281,21.888976 3.419998,-7.484684 6.255515,-14.204887 9.58887,-21.909915 2.436207,0.103726 4.316952,0.08453 6.484294,-0.05808 V 49.264423 H 50.274275 C 50.145222,38.35639 50.016136,27.448368 49.887066,16.540329 45.003488,27.315459 39.967448,38.433564 35.083854,49.208695 34.678996,49.343717 34.426583,49.135619 34.021726,49.270644 29.46588,39.330716 24.910049,29.390805 20.354201,19.450876 20.224341,29.388756 20.09461,39.326619 19.964815,49.264497 H 17.11278 Z M 36.754144,39.324695 C 32.721221,30.512695 28.6883,21.700679 24.655394,12.888662 22.530527,12.750737 22.656775,12.71031 20.714356,12.813974 v 0.966497 c 4.612938,9.99784 9.609439,20.748709 13.87298,30.081745 0.722248,-1.512523 1.444528,-3.025014 2.166808,-4.537521 z m 25.738417,9.939815 c 0,-12.965651 0,-25.931305 0,-38.896956 10.084388,0 20.168791,0 30.253178,0 0,0.960416 0,1.920849 0,2.881265 -6.482825,0 -12.965652,0 -19.448478,0 0,4.802097 0,9.604178 0,14.406277 5.52241,0 11.044819,0 16.567229,0 0,0.960415 0,1.920832 0,2.881248 -5.52241,0 -11.044819,0 -16.567229,0 0,5.282306 0,10.564611 0,15.846917 6.963035,0 13.926068,0 20.889103,0 0,0.960416 0,1.920832 0,2.881249 -10.564597,0 -21.129207,0 -31.693803,0 z m 4.321874,-2.160937 c 0,-11.765131 0,-23.530263 0,-35.295394 -0.720312,0 -1.440625,0 -2.160937,0 0,11.765131 0,23.530263 0,35.295394 0.720312,0 1.440625,0 2.160937,0 z m 32.41413,2.160937 c 0,-12.965651 0,-25.931305 0,-38.896956 2.401045,0 4.802095,0 7.203135,0 0,12.965651 0,25.931305 0,38.896956 -2.40104,0 -4.80209,0 -7.203135,0 z m 2.881265,-2.160937 c 0,-11.765131 0,-23.530263 0,-35.295394 -0.72031,0 -1.44064,0 -2.160953,0 0,11.765131 0,23.530263 0,35.295394 0.720313,0 1.440643,0 2.160953,0 z" />
                     <path fill="#00000" d="m 346.3,6.7 c -3.1,0.5 -4.9,4.4 -2.7,6.8 1.2,1.4 2.7,2.4 4.1,3.5 -2.4,5.3 -7.7,8.3 -11.9,12.1 -3.7,2.8 -7,6.2 -9.7,9.9 -2.2,-0.8 -0.3,-6.8 -0.6,-9.5 0.1,-3.1 0.7,-6.4 2.9,-8.7 1.3,-1.9 3,-3.5 4.5,-5.2 1.2,-3.4 -3.2,-4.9 -5.8,-4.6 -7.3,-0.5 -14.6,2 -20,6.8 -5,4.6 -10,10.1 -11.5,17 -0.9,3.5 -0.2,7.5 2.8,9.9 2.5,2.8 7.4,2.9 9.8,-0.2 1.7,-2.3 3.2,-4.8 3.8,-7.6 -0.1,-2.6 -4.4,-2.3 -4.3,0.2 1.2,2.4 -0.9,4.7 -2.7,6.2 -1.7,0.9 -4.7,0.7 -4.8,-1.7 -1,-5.8 2.1,-11.3 5.2,-16.1 4,-5.8 9.8,-11.2 17.2,-11.8 1.6,0 8.1,-1.2 6.8,1.4 -2.8,2.8 -5.6,6.1 -6,10.3 -1.6,7.7 0.1,15.7 -2.3,23.2 -1.1,3.9 2,2.6 2.5,0.2 3.3,-7.4 8.9,-13.4 15.1,-18.5 4.2,-3.9 9.5,-7.1 11.9,-12.6 1.3,-3.6 1.2,-9 -2.7,-10.9 -0.6,-0.2 -1.2,-0.3 -1.8,-0.3 z m 66,14.5 c -2,0.8 -1.8,4.9 0.8,4.4 3.4,0.4 2.9,-6.2 -0.8,-4.4 z m 0.6,7.3 c -1.3,0.5 -7.6,0.5 -5.4,2.2 4,-0.3 0.7,4.5 0.6,6.7 -0.4,2.9 -2.4,5.9 -1.2,8.8 2.7,1.7 5.6,-0.8 6.8,-3.2 1.6,-1.4 -0.5,-3 -1.2,-0.9 -0.4,0.8 -2.4,3.5 -2.6,1.8 1.1,-5 2.7,-9.9 3.9,-14.9 l -0.1,-0.5 h -0.9 z m -65.1,0.2 c -6.5,1.6 -10.5,9.5 -8.2,15.7 2.1,3.4 7.4,2.9 10.1,0.4 2,-0.2 3.6,-5.3 1,-3.4 -1.4,2 -4,4.2 -6.5,2.8 -2.2,-1.9 -1.9,-5.7 1.7,-5.3 3.1,-0.9 6.9,-2.1 8.1,-5.5 0.9,-2.7 -1.6,-5.2 -4.3,-4.8 h -1.1 -0.7 z m 13.6,0 c -2.2,0 -8.5,1.8 -2.9,2.3 0.9,1.9 -1,4.9 -1.1,7.2 -0.5,2.9 -1.4,5.7 -1.7,8.7 3.7,0.7 3.8,-2.6 4.4,-5.3 0.9,-3.3 1.6,-7 4.1,-9.5 2.4,1.6 6.8,-0.7 3.7,-3.4 -2.9,-0.5 -4.8,2.4 -6.2,4.3 0,-1.2 2.4,-5 -0.2,-4.3 z m 15.8,0 c -6.4,1.3 -9.6,9.1 -7.7,14.9 1.9,4 7.7,3.9 11,1.7 4.1,-3 6,-8.9 4.4,-13.7 -1.3,-3 -4.8,-3.2 -7.6,-3 z m 17,0 c -2.3,0 -8.8,1.9 -3,2.4 0.4,2.5 -1,5.7 -1.4,8.4 -0.7,2.4 -1.8,7.5 2.1,7.2 3.8,-0.1 6.5,-3.5 8.5,-6.3 2,-3.2 4.5,-7 3.3,-10.9 -3.7,-3 -3.6,2.6 -3.1,5.1 -0.7,3.8 -2.7,7.9 -6.2,9.8 -3.6,0.6 -1,-4.3 -0.8,-6.1 0.6,-3.2 1.6,-6.3 1.9,-9.5 -0.4,0 -0.8,0 -1.1,0 z m 30.6,0 c -6.3,1.2 -9.5,8.9 -7.8,14.7 1.5,4 7.2,4.2 10.5,2.4 4.6,-2.8 6.6,-9.3 4.8,-14.3 -1.4,-2.8 -4.8,-3 -7.5,-2.8 z m -75.4,1.7 c 2.1,1.5 0.2,4.7 -1.6,5.7 -1.1,0.4 -5.5,3.4 -4.6,0.7 0.8,-2.7 2.2,-6.2 5.3,-6.6 l 0.9,0.1 z m 30.8,0 c 2.6,1.5 1.3,5.2 0.8,7.6 -0.8,2.7 -1.9,5.9 -4.7,7.1 -5.1,0.8 -4,-5.8 -2.8,-8.8 1,-2.8 3,-6.8 6.7,-5.8 z m 47.1,-0.1 c 2.9,0.7 2,4.7 1.5,6.8 -0.7,3 -1.8,6.7 -5,8 -4.7,0.8 -4,-5.1 -3,-7.9 0.9,-3 2.7,-7.3 6.5,-6.8 z m -88.1,5.9 c -0.3,1.3 0.9,-0.6 0,0 z m -1.1,2.4 c -0.2,0.5 0.5,-0.1 0,0 z m -1.3,4.5 c -0.3,1.3 0.8,-0.2 0,0 z" />
                     <text y="41" x="201" fill="#00000" style="font-style:italic;font-weight:normal;font-size:30px;line-height:125%;font-family:Times;text-anchor:middle" xml:space="preserve">engraved with</text>
                  </g>
               </g>
            </g>
         </g>
      </g>
   </svg>
</svg>
