<?xml version="1.0" encoding="UTF-8" standalone="no"?>
<svg width="2100px" height="2970px" version="1.1" xmlns="http://www.w3.org/2000/svg" xmlns:xlink="http://www.w3.org/1999/xlink" xmlns:mei="http://www.music-encoding.org/ns/mei" overflow="visible">
   <desc>Engraved by Verovio 3.13.1</desc>
   <defs>
      <symbol id="E262-1auqqt2" viewBox="0 0 1000 1000" overflow="inherit">
         <path transform="scale(1,-1)" d="M136 186v169h17v-164l44 14v-91l-44 -14v-165l44 12v-91l-44 -13v-155h-17v150l-76 -22v-155h-17v149l-43 -13v90l43 14v167l-43 -14v92l43 13v169h17v-163zM60 73v-167l76 22v168z" />
      </symbol>
      <symbol id="E044-1auqqt2" viewBox="0 0 1000 1000" overflow="inherit">
         <path transform="scale(1,-1)" d="M0 0c0 28 22 50 50 50s50 -22 50 -50s-22 -50 -50 -50s-50 22 -50 50z" />
      </symbol>
      <symbol id="E050-1auqqt2" viewBox="0 0 1000 1000" overflow="inherit">
         <path transform="scale(1,-1)" d="M441 -245c-23 -4 -48 -6 -76 -6c-59 0 -102 7 -130 20c-88 42 -150 93 -187 154c-26 44 -43 103 -48 176c0 6 -1 13 -1 19c0 54 15 111 45 170c29 57 65 106 110 148s96 85 153 127c-3 16 -8 46 -13 92c-4 43 -5 73 -5 89c0 117 16 172 69 257c34 54 64 82 89 82 c21 0 43 -30 69 -92s39 -115 41 -159v-15c0 -109 -21 -162 -67 -241c-13 -20 -63 -90 -98 -118c-13 -9 -25 -19 -37 -29l31 -181c8 1 18 2 28 2c58 0 102 -12 133 -35c59 -43 92 -104 98 -184c1 -7 1 -15 1 -22c0 -123 -87 -209 -181 -248c8 -57 17 -110 25 -162 c5 -31 6 -58 6 -80c0 -30 -5 -53 -14 -70c-35 -64 -88 -99 -158 -103c-5 0 -11 -1 -16 -1c-37 0 -72 10 -108 27c-50 24 -77 59 -80 105v11c0 29 7 55 20 76c18 28 45 42 79 44h6c49 0 93 -42 97 -87v-9c0 -51 -34 -86 -105 -106c17 -24 51 -36 102 -36c62 0 116 43 140 85 c9 16 13 41 13 74c0 20 -1 42 -5 67c-8 53 -18 106 -26 159zM461 939c-95 0 -135 -175 -135 -286c0 -24 2 -48 5 -71c50 39 92 82 127 128c40 53 60 100 60 140v8c-4 53 -22 81 -55 81h-2zM406 119l54 -326c73 25 110 78 110 161c0 7 0 15 -1 23c-7 95 -57 142 -151 142h-12 zM382 117c-72 -2 -128 -47 -128 -120v-7c2 -46 43 -99 75 -115c-3 -2 -7 -5 -10 -10c-70 33 -116 88 -123 172v11c0 68 44 126 88 159c23 17 49 29 78 36l-29 170c-21 -13 -52 -37 -92 -73c-50 -44 -86 -84 -109 -119c-45 -69 -67 -130 -67 -182v-13c5 -68 35 -127 93 -176 s125 -73 203 -73c25 0 50 3 75 9c-19 111 -36 221 -54 331z" />
      </symbol>
      <symbol id="E082-1auqqt2" viewBox="0 0 1000 1000" overflow="inherit">
         <path transform="scale(1,-1)" d="M124 -185c-18 0 -55 -14 -65 -65h-36l-3 30c0 25 6 45 18 63c11 19 22 30 39 43l121 82l37 29c15 11 27 29 38 54c12 24 18 47 18 70c0 40 -19 88 -94 88c-25 0 -32 0 -50 -8c-14 -5 -23 -12 -26 -22c3 -9 7 -15 10 -18l24 -17c12 -7 17 -11 27 -21c5 -7 7 -16 7 -27 c0 -12 0 -57 -79 -74c-30 0 -76 26 -76 94c0 66 81 135 197 135c72 0 181 -32 181 -150c0 -53 -32 -95 -113 -133l-91 -41c-26 -11 -45 -23 -57 -37l49 7c84 0 115 -41 148 -41c20 0 33 20 39 61h35c0 -152 -68 -168 -114 -168c-17 0 -65 0 -79 7h10l-28 17 c-49 37 -69 40 -87 42z" />
      </symbol>
      <symbol id="E084-1auqqt2" viewBox="0 0 1000 1000" overflow="inherit">
         <path transform="scale(1,-1)" d="M20 -78c84 97 114 180 134 329h170c-13 -32 -82 -132 -99 -151l-84 -97c-33 -36 -59 -63 -80 -81h162v102l127 123v-225h57v-39h-57v-34c0 -43 19 -65 57 -65v-34h-244v36c48 0 60 26 60 70v27h-203v39z" />
      </symbol>
      <symbol id="E0A4-1auqqt2" viewBox="0 0 1000 1000" overflow="inherit">
         <path transform="scale(1,-1)" d="M0 -39c0 68 73 172 200 172c66 0 114 -37 114 -95c0 -84 -106 -171 -218 -171c-64 0 -96 30 -96 94z" />
      </symbol>
   </defs>
   <style type="text/css">g.page-margin{font-family:Times;} g.ending, g.fing, g.reh, g.tempo{font-weight:bold;} g.dir, g.dynam, g.mNum{font-style:italic;} g.label{font-weight:normal;}</style>
   <svg class="definition-scale" color="black" viewBox="0 0 21000 29700">
      <g class="page-margin" transform="translate(500, 500)">
         <g id="m3jauz2" class="mdiv pageMilestone" />
         <g id="s1n67ue2" class="score pageMilestone" />
         <g id="s1s24lbu" class="system">
            <g id="lvaloij" class="label">
               <text x="1105" y="1537" text-anchor="end" font-size="0px">
                  <tspan id="t13p14kb" class="text">
                     <tspan font-size="405px" class="text">Piano</tspan>
                  </tspan>
               </text>
            </g>
            <g id="s1m7wzpw" class="section systemMilestone" />
            <g id="pzet2z3" class="pb" />
            <g id="mcsz0gd" class="measure">
               <g id="s1okltyr" class="staff">
                  <path d="M1285 1087 L4919 1087" stroke="currentColor" stroke-width="13" />
                  <path d="M1285 1267 L4919 1267" stroke="currentColor" stroke-width="13" />
                  <path d="M1285 1447 L4919 1447" stroke="currentColor" stroke-width="13" />
                  <path d="M1285 1627 L4919 1627" stroke="currentColor" stroke-width="13" />
                  <path d="M1285 1807 L4919 1807" stroke="currentColor" stroke-width="13" />
                  <g id="c9povxg" class="clef">
                     <use xlink:href="#E050-1auqqt2" x="1375" y="1627" height="720px" width="720px" />
                  </g>
                  <g id="kq7owq5" class="keySig">
                     <g id="k12rsaoi" class="keyAccid">
                        <use xlink:href="#E262-1auqqt2" x="2020" y="1087" height="720px" width="720px" />
                     </g>
                  </g>
                  <g id="m5sqt8b" class="meterSig">
                     <use xlink:href="#E082-1auqqt2" x="2327" y="1267" height="720px" width="720px" />
                     <use xlink:href="#E084-1auqqt2" x="2332" y="1627" height="720px" width="720px" />
                  </g>
                  <g id="ll5ts74" class="layer">
                     <g id="b1uwnvu" class="beam">
                        <polygon points="3107,1042 3627,1042 3627,1132 3107,1132" />
                        <g id="n3xwwog" class="note">
                           <g class="notehead">
                              <use xlink:href="#E0A4-1auqqt2" x="2899" y="1627" height="720px" width="720px" />
                           </g>
                           <g id="s1p60tot" class="stem">
                              <rect x="3107" y="1060" height="539" width="18" />
                           </g>
                        </g>
                        <g id="n12s0qwk" class="note">
                           <g class="notehead">
                              <use xlink:href="#E0A4-1auqqt2" x="3401" y="1627" height="720px" width="720px" />
                           </g>
                           <g id="s43vln0" class="stem">
                              <rect x="3609" y="1060" height="539" width="18" />
                           </g>
                        </g>
                     </g>
                     <g id="bnilnwp" class="beam">
                        <polygon points="4110,907 4630,862 4630,952 4110,997" />
                        <g id="naopiem" class="note">
                           <g class="notehead">
                              <use xlink:href="#E0A4-1auqqt2" x="3902" y="1627" height="720px" width="720px" />
                           </g>
                           <g id="s1mhwzj7" class="stem">
                              <rect x="4110" y="925" height="674" width="18" />
                           </g>
                        </g>
                        <g id="n5kz22u" class="note">
                           <g class="notehead">
                              <use xlink:href="#E0A4-1auqqt2" x="4404" y="1537" height="720px" width="720px" />
                           </g>
                           <g id="s1wnmqsg" class="stem">
                              <rect x="4612" y="880" height="629" width="18" />
                           </g>
                        </g>
                     </g>
                  </g>
               </g>
               <g id="b1qlur85" class="barLine">
                  <path d="M4906 1087 L4906 1807" stroke="currentColor" stroke-width="27" />
               </g>
            </g>
            <g id="mb4oovp" class="measure">
               <g id="s1ee1wml" class="staff">
                  <path d="M4919 1087 L7118 1087" stroke="currentColor" stroke-width="13" />
                  <path d="M4919 1267 L7118 1267" stroke="currentColor" stroke-width="13" />
                  <path d="M4919 1447 L7118 1447" stroke="currentColor" stroke-width="13" />
                  <path d="M4919 1627 L7118 1627" stroke="currentColor" stroke-width="13" />
                  <path d="M4919 1807 L7118 1807" stroke="currentColor" stroke-width="13" />
                  <g id="llgbtim" class="layer">
                     <g id="b675w86" class="beam">
                        <polygon points="5306,862 5826,907 5826,997 5306,952" />
                        <g id="n1po0qk6" class="note">
                           <g class="notehead">
                              <use xlink:href="#E0A4-1auqqt2" x="5098" y="1447" height="720px" width="720px" />
                           </g>
                           <g id="sofp95r" class="stem">
                              <rect x="5306" y="880" height="539" width="18" />
                           </g>
                        </g>
                        <g id="n26pean" class="note">
                           <g class="notehead">
                              <use xlink:href="#E0A4-1auqqt2" x="5600" y="1537" height="720px" width="720px" />
                           </g>
                           <g id="s1b2izzh" class="stem">
                              <rect x="5808" y="925" height="584" width="18" />
                           </g>
                        </g>
                     </g>
                     <g id="bmy8ur7" class="beam">
                        <polygon points="6309,727 6829,682 6829,772 6309,817" />
                        <g id="n1jroxxy" class="note">
                           <g class="notehead">
                              <use xlink:href="#E0A4-1auqqt2" x="6101" y="1627" height="720px" width="720px" />
                           </g>
                           <g id="s1jfd2h4" class="stem">
                              <rect x="6309" y="745" height="854" width="18" />
                           </g>
                        </g>
                        <g id="n3pv03c" class="note">
                           <g class="notehead">
                              <use xlink:href="#E0A4-1auqqt2" x="6603" y="1267" height="720px" width="720px" />
                           </g>
                           <g id="si76idh" class="stem">
                              <rect x="6811" y="700" height="539" width="18" />
                           </g>
                        </g>
                     </g>
                  </g>
               </g>
               <g id="bw72i80" class="barLine">
                  <path d="M7105 1087 L7105 1807" stroke="currentColor" stroke-width="27" />
               </g>
            </g>
            <g id="m1yq10gt" class="measure">
               <g id="spdxnl" class="staff">
                  <path d="M7118 1087 L9245 1087" stroke="currentColor" stroke-width="13" />
                  <path d="M7118 1267 L9245 1267" stroke="currentColor" stroke-width="13" />
                  <path d="M7118 1447 L9245 1447" stroke="currentColor" stroke-width="13" />
                  <path d="M7118 1627 L9245 1627" stroke="currentColor" stroke-width="13" />
                  <path d="M7118 1807 L9245 1807" stroke="currentColor" stroke-width="13" />
                  <g id="l1jyu1dh" class="layer">
                     <g id="bg5l8y1" class="beam">
                        <polygon points="7297,1987 7817,2032 7817,1942 7297,1897" />
                        <g id="n1yspovy" class="note">
                           <g class="notehead">
                              <use xlink:href="#E0A4-1auqqt2" x="7297" y="1267" height="720px" width="720px" />
                           </g>
                           <g id="s15116xs" class="stem">
                              <rect x="7297" y="1295" height="674" width="18" />
                           </g>
                        </g>
                        <g id="nuadgz4" class="note">
                           <g class="notehead">
                              <use xlink:href="#E0A4-1auqqt2" x="7799" y="1357" height="720px" width="720px" />
                           </g>
                           <g id="sr91024" class="stem">
                              <rect x="7799" y="1385" height="629" width="18" />
                           </g>
                           <g id="a1tebyvd" class="accid">
                              <use xlink:href="#E262-1auqqt2" x="7613" y="1357" height="720px" width="720px" />
                           </g>
                        </g>
                     </g>
                     <g id="n137vw5m" class="note">
                        <g class="notehead">
                           <use xlink:href="#E0A4-1auqqt2" x="8300" y="1267" height="720px" width="720px" />
                        </g>
                        <g id="skqflz" class="stem">
                           <rect x="8300" y="1295" height="602" width="18" />
                        </g>
                     </g>
                  </g>
               </g>
               <g id="boh5ij0" class="barLine">
                  <path d="M9070 1087 L9070 1807" stroke="currentColor" stroke-width="27" />
                  <path d="M9200 1087 L9200 1807" stroke="currentColor" stroke-width="90" />
                  <use xlink:href="#E044-1auqqt2" x="8953" y="1357" height="720px" width="720px" />
                  <use xlink:href="#E044-1auqqt2" x="8953" y="1537" height="720px" width="720px" />
               </g>
            </g>
            <g id="m1fd2rqm" class="measure">
               <g id="sjn16ze" class="staff">
                  <path d="M9245 1087 L11444 1087" stroke="currentColor" stroke-width="13" />
                  <path d="M9245 1267 L11444 1267" stroke="currentColor" stroke-width="13" />
                  <path d="M9245 1447 L11444 1447" stroke="currentColor" stroke-width="13" />
                  <path d="M9245 1627 L11444 1627" stroke="currentColor" stroke-width="13" />
                  <path d="M9245 1807 L11444 1807" stroke="currentColor" stroke-width="13" />
                  <g id="l6981vv" class="layer">
                     <g id="b197vup0" class="beam">
                        <polygon points="9632,1042 10152,1042 10152,1132 9632,1132" />
                        <g id="nbbs6je" class="note">
                           <g class="notehead">
                              <use xlink:href="#E0A4-1auqqt2" x="9424" y="1627" height="720px" width="720px" />
                           </g>
                           <g id="s11sjdsq" class="stem">
                              <rect x="9632" y="1060" height="539" width="18" />
                           </g>
                        </g>
                        <g id="nluvy6c" class="note">
                           <g class="notehead">
                              <use xlink:href="#E0A4-1auqqt2" x="9926" y="1627" height="720px" width="720px" />
                           </g>
                           <g id="s1jv68ga" class="stem">
                              <rect x="10134" y="1060" height="539" width="18" />
                           </g>
                        </g>
                     </g>
                     <g id="bljh0wh" class="beam">
                        <polygon points="10635,907 11155,862 11155,952 10635,997" />
                        <g id="n19nkjqn" class="note">
                           <g class="notehead">
                              <use xlink:href="#E0A4-1auqqt2" x="10427" y="1537" height="720px" width="720px" />
                           </g>
                           <g id="s2pe7c9" class="stem">
                              <rect x="10635" y="925" height="584" width="18" />
                           </g>
                        </g>
                        <g id="n1fw53oi" class="note">
                           <g class="notehead">
                              <use xlink:href="#E0A4-1auqqt2" x="10929" y="1447" height="720px" width="720px" />
                           </g>
                           <g id="s1a2kdmi" class="stem">
                              <rect x="11137" y="880" height="539" width="18" />
                           </g>
                        </g>
                     </g>
                  </g>
               </g>
               <g id="b1e3a4vx" class="barLine">
                  <path d="M11431 1087 L11431 1807" stroke="currentColor" stroke-width="27" />
               </g>
            </g>
            <g id="mmfj21s" class="measure">
               <g id="s15bjg81" class="staff">
                  <path d="M11444 1087 L13643 1087" stroke="currentColor" stroke-width="13" />
                  <path d="M11444 1267 L13643 1267" stroke="currentColor" stroke-width="13" />
                  <path d="M11444 1447 L13643 1447" stroke="currentColor" stroke-width="13" />
                  <path d="M11444 1627 L13643 1627" stroke="currentColor" stroke-width="13" />
                  <path d="M11444 1807 L13643 1807" stroke="currentColor" stroke-width="13" />
                  <g id="l1anma85" class="layer">
                     <g id="b16vm0so" class="beam">
                        <polygon points="11831,862 12351,907 12351,997 11831,952" />
                        <g id="n1fm515u" class="note">
                           <g class="notehead">
                              <use xlink:href="#E0A4-1auqqt2" x="11623" y="1447" height="720px" width="720px" />
                           </g>
                           <g id="sx6clks" class="stem">
                              <rect x="11831" y="880" height="539" width="18" />
                           </g>
                        </g>
                        <g id="n1p7gqhu" class="note">
                           <g class="notehead">
                              <use xlink:href="#E0A4-1auqqt2" x="12125" y="1627" height="720px" width="720px" />
                           </g>
                           <g id="s1i6d8tu" class="stem">
                              <rect x="12333" y="925" height="674" width="18" />
                           </g>
                        </g>
                     </g>
                     <g id="bk3yc7k" class="beam">
                        <polygon points="12834,907 13354,862 13354,952 12834,997" />
                        <g id="n19tu19k" class="note">
                           <g class="notehead">
                              <use xlink:href="#E0A4-1auqqt2" x="12626" y="1537" height="720px" width="720px" />
                           </g>
                           <g id="s136hjca" class="stem">
                              <rect x="12834" y="925" height="584" width="18" />
                           </g>
                        </g>
                        <g id="n1297mdc" class="note">
                           <g class="notehead">
                              <use xlink:href="#E0A4-1auqqt2" x="13128" y="1447" height="720px" width="720px" />
                           </g>
                           <g id="s16xntdx" class="stem">
                              <rect x="13336" y="880" height="539" width="18" />
                           </g>
                        </g>
                     </g>
                  </g>
               </g>
               <g id="b5r2tan" class="barLine">
                  <path d="M13630 1087 L13630 1807" stroke="currentColor" stroke-width="27" />
               </g>
            </g>
            <g id="mtyzzyg" class="measure">
               <g id="suxhyvb" class="staff">
                  <path d="M13643 1087 L15842 1087" stroke="currentColor" stroke-width="13" />
                  <path d="M13643 1267 L15842 1267" stroke="currentColor" stroke-width="13" />
                  <path d="M13643 1447 L15842 1447" stroke="currentColor" stroke-width="13" />
                  <path d="M13643 1627 L15842 1627" stroke="currentColor" stroke-width="13" />
                  <path d="M13643 1807 L15842 1807" stroke="currentColor" stroke-width="13" />
                  <g id="lsz229v" class="layer">
                     <g id="b1au3fue" class="beam">
                        <polygon points="14030,862 14550,907 14550,997 14030,952" />
                        <g id="n1ybnxq1" class="note">
                           <g class="notehead">
                              <use xlink:href="#E0A4-1auqqt2" x="13822" y="1447" height="720px" width="720px" />
                           </g>
                           <g id="s1lsz10o" class="stem">
                              <rect x="14030" y="880" height="539" width="18" />
                           </g>
                        </g>
                        <g id="n1x5sjpp" class="note">
                           <g class="notehead">
                              <use xlink:href="#E0A4-1auqqt2" x="14324" y="1627" height="720px" width="720px" />
                           </g>
                           <g id="stqbcgi" class="stem">
                              <rect x="14532" y="925" height="674" width="18" />
                           </g>
                        </g>
                     </g>
                     <g id="buf99vx" class="beam">
                        <polygon points="15033,907 15553,862 15553,952 15033,997" />
                        <g id="n1nfnktm" class="note">
                           <g class="notehead">
                              <use xlink:href="#E0A4-1auqqt2" x="14825" y="1537" height="720px" width="720px" />
                           </g>
                           <g id="s1tgt781" class="stem">
                              <rect x="15033" y="925" height="584" width="18" />
                           </g>
                        </g>
                        <g id="n1rzeqi3" class="note">
                           <g class="notehead">
                              <use xlink:href="#E0A4-1auqqt2" x="15327" y="1447" height="720px" width="720px" />
                           </g>
                           <g id="sqi7jmc" class="stem">
                              <rect x="15535" y="880" height="539" width="18" />
                           </g>
                        </g>
                     </g>
                  </g>
               </g>
               <g id="bq8jjyt" class="barLine">
                  <path d="M15829 1087 L15829 1807" stroke="currentColor" stroke-width="27" />
               </g>
            </g>
            <g id="mhlog7h" class="measure">
               <g id="soonr7n" class="staff">
                  <path d="M15842 1087 L17807 1087" stroke="currentColor" stroke-width="13" />
                  <path d="M15842 1267 L17807 1267" stroke="currentColor" stroke-width="13" />
                  <path d="M15842 1447 L17807 1447" stroke="currentColor" stroke-width="13" />
                  <path d="M15842 1627 L17807 1627" stroke="currentColor" stroke-width="13" />
                  <path d="M15842 1807 L17807 1807" stroke="currentColor" stroke-width="13" />
                  <g id="l2w9bdg" class="layer">
                     <g id="bvytkrl" class="beam">
                        <polygon points="16229,862 16749,907 16749,997 16229,952" />
                        <g id="n4yl2sw" class="note">
                           <g class="notehead">
                              <use xlink:href="#E0A4-1auqqt2" x="16021" y="1447" height="720px" width="720px" />
                           </g>
                           <g id="s7tki4c" class="stem">
                              <rect x="16229" y="880" height="539" width="18" />
                           </g>
                        </g>
                        <g id="n96k5r5" class="note">
                           <g class="notehead">
                              <use xlink:href="#E0A4-1auqqt2" x="16523" y="1627" height="720px" width="720px" />
                           </g>
                           <g id="s15433x7" class="stem">
                              <rect x="16731" y="925" height="674" width="18" />
                           </g>
                        </g>
                     </g>
                     <g id="n12gsr2i" class="note">
                        <g class="notehead">
                           <use xlink:href="#E0A4-1auqqt2" x="17024" y="1537" height="720px" width="720px" />
                        </g>
                        <g id="swyir56" class="stem">
                           <rect x="17232" y="907" height="602" width="18" />
                        </g>
                     </g>
                  </g>
               </g>
               <g id="bts2m1g" class="barLine">
                  <path d="M17794 1087 L17794 1807" stroke="currentColor" stroke-width="27" />
               </g>
            </g>
            <g id="m37ebbi" class="measure">
               <g id="s1yz4zne" class="staff">
                  <path d="M17807 1087 L20006 1087" stroke="currentColor" stroke-width="13" />
                  <path d="M17807 1267 L20006 1267" stroke="currentColor" stroke-width="13" />
                  <path d="M17807 1447 L20006 1447" stroke="currentColor" stroke-width="13" />
                  <path d="M17807 1627 L20006 1627" stroke="currentColor" stroke-width="13" />
                  <path d="M17807 1807 L20006 1807" stroke="currentColor" stroke-width="13" />
                  <g id="lfssmp1" class="layer">
                     <g id="b1i6olld" class="beam">
                        <polygon points="18194,997 18714,952 18714,1042 18194,1087" />
                        <g id="n1d4r8c3" class="note">
                           <g class="notehead">
                              <use xlink:href="#E0A4-1auqqt2" x="17986" y="1897" height="720px" width="720px" />
                           </g>
                           <g id="sgxmepn" class="stem">
                              <rect x="18194" y="1015" height="854" width="18" />
                           </g>
                        </g>
                        <g id="nwaweti" class="note">
                           <g class="notehead">
                              <use xlink:href="#E0A4-1auqqt2" x="18488" y="1627" height="720px" width="720px" />
                           </g>
                           <g id="s1xixsfe" class="stem">
                              <rect x="18696" y="970" height="629" width="18" />
                           </g>
                        </g>
                     </g>
                     <g id="b1h0gs0r" class="beam">
                        <polygon points="19197,907 19717,862 19717,952 19197,997" />
                        <g id="nk1ozsh" class="note">
                           <g class="notehead">
                              <use xlink:href="#E0A4-1auqqt2" x="18989" y="1627" height="720px" width="720px" />
                           </g>
                           <g id="s1wkxlmd" class="stem">
                              <rect x="19197" y="925" height="674" width="18" />
                           </g>
                        </g>
                        <g id="nlassdu" class="note">
                           <g class="notehead">
                              <use xlink:href="#E0A4-1auqqt2" x="19491" y="1447" height="720px" width="720px" />
                           </g>
                           <g id="s2dlksu" class="stem">
                              <rect x="19699" y="880" height="539" width="18" />
                           </g>
                        </g>
                     </g>
                  </g>
               </g>
               <g id="b1vd1qt1" class="barLine">
                  <path d="M19993 1087 L19993 1807" stroke="currentColor" stroke-width="27" />
               </g>
            </g>
            <g id="s3el0wt" class="sb" />
         </g>
         <g id="sjtke62" class="system">
            <g id="lbb716f" class="labelAbbr">
               <text x="914" y="3886" text-anchor="end" font-size="0px">
                  <tspan id="tpte2e" class="text">
                     <tspan font-size="405px" class="text">Pno.</tspan>
                  </tspan>
               </text>
            </g>
            <g id="m1wcfbdr" class="measure">
               <g id="m117ldux" class="mNum autogenerated">
                  <text x="1094" y="3193" text-anchor="middle" font-size="0px">
                     <tspan id="t1tneulb" class="text">
                        <tspan font-size="324px" class="text">9</tspan>
                     </tspan>
                  </text>
               </g>
               <g id="st0w3cp" class="staff">
                  <path d="M1094 3436 L4251 3436" stroke="currentColor" stroke-width="13" />
                  <path d="M1094 3616 L4251 3616" stroke="currentColor" stroke-width="13" />
                  <path d="M1094 3796 L4251 3796" stroke="currentColor" stroke-width="13" />
                  <path d="M1094 3976 L4251 3976" stroke="currentColor" stroke-width="13" />
                  <path d="M1094 4156 L4251 4156" stroke="currentColor" stroke-width="13" />
                  <g id="c17owkng" class="clef">
                     <use xlink:href="#E050-1auqqt2" x="1184" y="3976" height="720px" width="720px" />
                  </g>
                  <g id="koztnhc" class="keySig">
                     <g id="k2y6ocx" class="keyAccid">
                        <use xlink:href="#E262-1auqqt2" x="1829" y="3436" height="720px" width="720px" />
                     </g>
                  </g>
                  <g id="lx1gf1f" class="layer">
                     <g id="bkm2az0" class="beam">
                        <polygon points="2448,3211 3117,3391 3117,3481 2448,3301" />
                        <polygon points="2891,3469 3117,3526 3117,3616 2891,3559" />
                        <g id="n1e0tez" class="note">
                           <g class="notehead">
                              <use xlink:href="#E0A4-1auqqt2" x="2240" y="3796" height="720px" width="720px" />
                           </g>
                           <g id="dhl23co" class="dots">
                              <ellipse cx="2556" cy="3706" rx="36" ry="36" />
                           </g>
                           <g id="sb0cfba" class="stem">
                              <rect x="2448" y="3229" height="539" width="18" />
                           </g>
                        </g>
                        <g id="n77wqgv" class="note">
                           <g class="notehead">
                              <use xlink:href="#E0A4-1auqqt2" x="2891" y="3976" height="720px" width="720px" />
                           </g>
                           <g id="sa9opa9" class="stem">
                              <rect x="3099" y="3409" height="539" width="18" />
                           </g>
                        </g>
                     </g>
                     <g id="b1anc25n" class="beam">
                        <polygon points="3436,3256 3959,3256 3959,3346 3436,3346" />
                        <g id="n17752or" class="note">
                           <g class="notehead">
                              <use xlink:href="#E0A4-1auqqt2" x="3228" y="3886" height="720px" width="720px" />
                           </g>
                           <g id="sjdradd" class="stem">
                              <rect x="3436" y="3274" height="584" width="18" />
                           </g>
                        </g>
                        <g id="n1dilhox" class="note">
                           <g class="notehead">
                              <use xlink:href="#E0A4-1auqqt2" x="3733" y="3886" height="720px" width="720px" />
                           </g>
                           <g id="s157jwf6" class="stem">
                              <rect x="3941" y="3274" height="584" width="18" />
                           </g>
                        </g>
                     </g>
                  </g>
               </g>
               <g id="bwro46t" class="barLine">
                  <path d="M4238 3436 L4238 4156" stroke="currentColor" stroke-width="27" />
               </g>
            </g>
            <g id="m1uhmjg3" class="measure">
               <g id="sufjxgf" class="staff">
                  <path d="M4251 3436 L6464 3436" stroke="currentColor" stroke-width="13" />
                  <path d="M4251 3616 L6464 3616" stroke="currentColor" stroke-width="13" />
                  <path d="M4251 3796 L6464 3796" stroke="currentColor" stroke-width="13" />
                  <path d="M4251 3976 L6464 3976" stroke="currentColor" stroke-width="13" />
                  <path d="M4251 4156 L6464 4156" stroke="currentColor" stroke-width="13" />
                  <g id="lk6iz4q" class="layer">
                     <g id="b1h7lm3g" class="beam">
                        <polygon points="4639,3346 5162,3301 5162,3391 4639,3436" />
                        <g id="n1ez59rz" class="note">
                           <g class="notehead">
                              <use xlink:href="#E0A4-1auqqt2" x="4431" y="4246" height="720px" width="720px" />
                           </g>
                           <g id="saw9lqm" class="stem">
                              <rect x="4639" y="3364" height="854" width="18" />
                           </g>
                        </g>
                        <g id="nfpbj04" class="note">
                           <g class="notehead">
                              <use xlink:href="#E0A4-1auqqt2" x="4936" y="3976" height="720px" width="720px" />
                           </g>
                           <g id="srkcimq" class="stem">
                              <rect x="5144" y="3319" height="629" width="18" />
                           </g>
                        </g>
                     </g>
                     <g id="bht5yhe" class="beam">
                        <polygon points="5649,3256 6172,3211 6172,3301 5649,3346" />
                        <g id="n18kxkj7" class="note">
                           <g class="notehead">
                              <use xlink:href="#E0A4-1auqqt2" x="5441" y="3976" height="720px" width="720px" />
                           </g>
                           <g id="sk7hzb7" class="stem">
                              <rect x="5649" y="3274" height="674" width="18" />
                           </g>
                        </g>
                        <g id="n1kjf1u1" class="note">
                           <g class="notehead">
                              <use xlink:href="#E0A4-1auqqt2" x="5946" y="3796" height="720px" width="720px" />
                           </g>
                           <g id="s12l28om" class="stem">
                              <rect x="6154" y="3229" height="539" width="18" />
                           </g>
                        </g>
                     </g>
                  </g>
               </g>
               <g id="b1l5k9kr" class="barLine">
                  <path d="M6451 3436 L6451 4156" stroke="currentColor" stroke-width="27" />
               </g>
            </g>
            <g id="m1m2ou2q" class="measure">
               <g id="s1qztm5t" class="staff">
                  <path d="M6464 3436 L8582 3436" stroke="currentColor" stroke-width="13" />
                  <path d="M6464 3616 L8582 3616" stroke="currentColor" stroke-width="13" />
                  <path d="M6464 3796 L8582 3796" stroke="currentColor" stroke-width="13" />
                  <path d="M6464 3976 L8582 3976" stroke="currentColor" stroke-width="13" />
                  <path d="M6464 4156 L8582 4156" stroke="currentColor" stroke-width="13" />
                  <g id="lcnsukm" class="layer">
                     <g id="b1oofpuw" class="beam">
                        <polygon points="6852,3211 7521,3301 7521,3391 6852,3301" />
                        <polygon points="7295,3408 7521,3436 7521,3526 7295,3498" />
                        <g id="nsa1re4" class="note">
                           <g class="notehead">
                              <use xlink:href="#E0A4-1auqqt2" x="6644" y="3796" height="720px" width="720px" />
                           </g>
                           <g id="d1ajtxe8" class="dots">
                              <ellipse cx="6960" cy="3706" rx="36" ry="36" />
                           </g>
                           <g id="sw4rw4" class="stem">
                              <rect x="6852" y="3229" height="539" width="18" />
                           </g>
                        </g>
                        <g id="n1x2h1a7" class="note">
                           <g class="notehead">
                              <use xlink:href="#E0A4-1auqqt2" x="7295" y="3886" height="720px" width="720px" />
                           </g>
                           <g id="s1iod2n6" class="stem">
                              <rect x="7503" y="3319" height="539" width="18" />
                           </g>
                        </g>
                     </g>
                     <g id="n111x1ek" class="note">
                        <g class="notehead">
                           <use xlink:href="#E0A4-1auqqt2" x="7632" y="3976" height="720px" width="720px" />
                        </g>
                        <g id="s81w0ta" class="stem">
                           <rect x="7840" y="3346" height="602" width="18" />
                        </g>
                     </g>
                  </g>
               </g>
               <g id="b1pzpk8d" class="barLine">
                  <path d="M8407 3436 L8407 4156" stroke="currentColor" stroke-width="27" />
                  <path d="M8537 3436 L8537 4156" stroke="currentColor" stroke-width="90" />
               </g>
            </g>
            <g id="st26fc8" class="systemMilestoneEnd s1m7wzpw" />
         </g>
         <g id="p3bsdnq" class="pageMilestoneEnd s1n67ue2" />
         <g id="p1cu00d" class="pageMilestoneEnd m3jauz2" />
         <g id="paka85g" class="pgHead">
            <text x="0" y="0" font-size="0px">
               <tspan id="riqf0x4" class="rend" x="10000" y="279" text-anchor="middle">
                  <tspan id="t1w5jqhg" class="text">
                     <tspan font-size="405px" class="text">Air n 58</tspan>
                  </tspan>
               </tspan>
            </text>
         </g>
         <g id="pbqds0s" class="pgFoot autogenerated">
            <g id="f5mzlmm" class="fig">
               <g id="s16r1h3p" class="svg" transform="translate(7750, 28099) scale(10, 10)">
                  <g>
                     <path fill="#00000" d="M 17.11278,49.26451 V 10.367554 h 12.696511 c 3.288815,7.336676 6.71267,14.610456 10.127281,21.888976 3.419998,-7.484684 6.255515,-14.204887 9.58887,-21.909915 2.436207,0.103726 4.316952,0.08453 6.484294,-0.05808 V 49.264423 H 50.274275 C 50.145222,38.35639 50.016136,27.448368 49.887066,16.540329 45.003488,27.315459 39.967448,38.433564 35.083854,49.208695 34.678996,49.343717 34.426583,49.135619 34.021726,49.270644 29.46588,39.330716 24.910049,29.390805 20.354201,19.450876 20.224341,29.388756 20.09461,39.326619 19.964815,49.264497 H 17.11278 Z M 36.754144,39.324695 C 32.721221,30.512695 28.6883,21.700679 24.655394,12.888662 22.530527,12.750737 22.656775,12.71031 20.714356,12.813974 v 0.966497 c 4.612938,9.99784 9.609439,20.748709 13.87298,30.081745 0.722248,-1.512523 1.444528,-3.025014 2.166808,-4.537521 z m 25.738417,9.939815 c 0,-12.965651 0,-25.931305 0,-38.896956 10.084388,0 20.168791,0 30.253178,0 0,0.960416 0,1.920849 0,2.881265 -6.482825,0 -12.965652,0 -19.448478,0 0,4.802097 0,9.604178 0,14.406277 5.52241,0 11.044819,0 16.567229,0 0,0.960415 0,1.920832 0,2.881248 -5.52241,0 -11.044819,0 -16.567229,0 0,5.282306 0,10.564611 0,15.846917 6.963035,0 13.926068,0 20.889103,0 0,0.960416 0,1.920832 0,2.881249 -10.564597,0 -21.129207,0 -31.693803,0 z m 4.321874,-2.160937 c 0,-11.765131 0,-23.530263 0,-35.295394 -0.720312,0 -1.440625,0 -2.160937,0 0,11.765131 0,23.530263 0,35.295394 0.720312,0 1.440625,0 2.160937,0 z m 32.41413,2.160937 c 0,-12.965651 0,-25.931305 0,-38.896956 2.401045,0 4.802095,0 7.203135,0 0,12.965651 0,25.931305 0,38.896956 -2.40104,0 -4.80209,0 -7.203135,0 z m 2.881265,-2.160937 c 0,-11.765131 0,-23.530263 0,-35.295394 -0.72031,0 -1.44064,0 -2.160953,0 0,11.765131 0,23.530263 0,35.295394 0.720313,0 1.440643,0 2.160953,0 z" />
                     <path fill="#00000" d="m 346.3,6.7 c -3.1,0.5 -4.9,4.4 -2.7,6.8 1.2,1.4 2.7,2.4 4.1,3.5 -2.4,5.3 -7.7,8.3 -11.9,12.1 -3.7,2.8 -7,6.2 -9.7,9.9 -2.2,-0.8 -0.3,-6.8 -0.6,-9.5 0.1,-3.1 0.7,-6.4 2.9,-8.7 1.3,-1.9 3,-3.5 4.5,-5.2 1.2,-3.4 -3.2,-4.9 -5.8,-4.6 -7.3,-0.5 -14.6,2 -20,6.8 -5,4.6 -10,10.1 -11.5,17 -0.9,3.5 -0.2,7.5 2.8,9.9 2.5,2.8 7.4,2.9 9.8,-0.2 1.7,-2.3 3.2,-4.8 3.8,-7.6 -0.1,-2.6 -4.4,-2.3 -4.3,0.2 1.2,2.4 -0.9,4.7 -2.7,6.2 -1.7,0.9 -4.7,0.7 -4.8,-1.7 -1,-5.8 2.1,-11.3 5.2,-16.1 4,-5.8 9.8,-11.2 17.2,-11.8 1.6,0 8.1,-1.2 6.8,1.4 -2.8,2.8 -5.6,6.1 -6,10.3 -1.6,7.7 0.1,15.7 -2.3,23.2 -1.1,3.9 2,2.6 2.5,0.2 3.3,-7.4 8.9,-13.4 15.1,-18.5 4.2,-3.9 9.5,-7.1 11.9,-12.6 1.3,-3.6 1.2,-9 -2.7,-10.9 -0.6,-0.2 -1.2,-0.3 -1.8,-0.3 z m 66,14.5 c -2,0.8 -1.8,4.9 0.8,4.4 3.4,0.4 2.9,-6.2 -0.8,-4.4 z m 0.6,7.3 c -1.3,0.5 -7.6,0.5 -5.4,2.2 4,-0.3 0.7,4.5 0.6,6.7 -0.4,2.9 -2.4,5.9 -1.2,8.8 2.7,1.7 5.6,-0.8 6.8,-3.2 1.6,-1.4 -0.5,-3 -1.2,-0.9 -0.4,0.8 -2.4,3.5 -2.6,1.8 1.1,-5 2.7,-9.9 3.9,-14.9 l -0.1,-0.5 h -0.9 z m -65.1,0.2 c -6.5,1.6 -10.5,9.5 -8.2,15.7 2.1,3.4 7.4,2.9 10.1,0.4 2,-0.2 3.6,-5.3 1,-3.4 -1.4,2 -4,4.2 -6.5,2.8 -2.2,-1.9 -1.9,-5.7 1.7,-5.3 3.1,-0.9 6.9,-2.1 8.1,-5.5 0.9,-2.7 -1.6,-5.2 -4.3,-4.8 h -1.1 -0.7 z m 13.6,0 c -2.2,0 -8.5,1.8 -2.9,2.3 0.9,1.9 -1,4.9 -1.1,7.2 -0.5,2.9 -1.4,5.7 -1.7,8.7 3.7,0.7 3.8,-2.6 4.4,-5.3 0.9,-3.3 1.6,-7 4.1,-9.5 2.4,1.6 6.8,-0.7 3.7,-3.4 -2.9,-0.5 -4.8,2.4 -6.2,4.3 0,-1.2 2.4,-5 -0.2,-4.3 z m 15.8,0 c -6.4,1.3 -9.6,9.1 -7.7,14.9 1.9,4 7.7,3.9 11,1.7 4.1,-3 6,-8.9 4.4,-13.7 -1.3,-3 -4.8,-3.2 -7.6,-3 z m 17,0 c -2.3,0 -8.8,1.9 -3,2.4 0.4,2.5 -1,5.7 -1.4,8.4 -0.7,2.4 -1.8,7.5 2.1,7.2 3.8,-0.1 6.5,-3.5 8.5,-6.3 2,-3.2 4.5,-7 3.3,-10.9 -3.7,-3 -3.6,2.6 -3.1,5.1 -0.7,3.8 -2.7,7.9 -6.2,9.8 -3.6,0.6 -1,-4.3 -0.8,-6.1 0.6,-3.2 1.6,-6.3 1.9,-9.5 -0.4,0 -0.8,0 -1.1,0 z m 30.6,0 c -6.3,1.2 -9.5,8.9 -7.8,14.7 1.5,4 7.2,4.2 10.5,2.4 4.6,-2.8 6.6,-9.3 4.8,-14.3 -1.4,-2.8 -4.8,-3 -7.5,-2.8 z m -75.4,1.7 c 2.1,1.5 0.2,4.7 -1.6,5.7 -1.1,0.4 -5.5,3.4 -4.6,0.7 0.8,-2.7 2.2,-6.2 5.3,-6.6 l 0.9,0.1 z m 30.8,0 c 2.6,1.5 1.3,5.2 0.8,7.6 -0.8,2.7 -1.9,5.9 -4.7,7.1 -5.1,0.8 -4,-5.8 -2.8,-8.8 1,-2.8 3,-6.8 6.7,-5.8 z m 47.1,-0.1 c 2.9,0.7 2,4.7 1.5,6.8 -0.7,3 -1.8,6.7 -5,8 -4.7,0.8 -4,-5.1 -3,-7.9 0.9,-3 2.7,-7.3 6.5,-6.8 z m -88.1,5.9 c -0.3,1.3 0.9,-0.6 0,0 z m -1.1,2.4 c -0.2,0.5 0.5,-0.1 0,0 z m -1.3,4.5 c -0.3,1.3 0.8,-0.2 0,0 z" />
                     <text y="41" x="201" fill="#00000" style="font-style:italic;font-weight:normal;font-size:30px;line-height:125%;font-family:Times;text-anchor:middle" xml:space="preserve">engraved with</text>
                  </g>
               </g>
            </g>
         </g>
      </g>
   </svg>
</svg>
