<?xml version="1.0" encoding="UTF-8" standalone="no"?>
<svg width="2100px" height="2970px" version="1.1" xmlns="http://www.w3.org/2000/svg" xmlns:xlink="http://www.w3.org/1999/xlink" xmlns:mei="http://www.music-encoding.org/ns/mei" overflow="visible">
   <desc>Engraved by Verovio 3.13.1</desc>
   <defs>
      <symbol id="E044-g8jhzo" viewBox="0 0 1000 1000" overflow="inherit">
         <path transform="scale(1,-1)" d="M0 0c0 28 22 50 50 50s50 -22 50 -50s-22 -50 -50 -50s-50 22 -50 50z" />
      </symbol>
      <symbol id="E050-g8jhzo" viewBox="0 0 1000 1000" overflow="inherit">
         <path transform="scale(1,-1)" d="M441 -245c-23 -4 -48 -6 -76 -6c-59 0 -102 7 -130 20c-88 42 -150 93 -187 154c-26 44 -43 103 -48 176c0 6 -1 13 -1 19c0 54 15 111 45 170c29 57 65 106 110 148s96 85 153 127c-3 16 -8 46 -13 92c-4 43 -5 73 -5 89c0 117 16 172 69 257c34 54 64 82 89 82 c21 0 43 -30 69 -92s39 -115 41 -159v-15c0 -109 -21 -162 -67 -241c-13 -20 -63 -90 -98 -118c-13 -9 -25 -19 -37 -29l31 -181c8 1 18 2 28 2c58 0 102 -12 133 -35c59 -43 92 -104 98 -184c1 -7 1 -15 1 -22c0 -123 -87 -209 -181 -248c8 -57 17 -110 25 -162 c5 -31 6 -58 6 -80c0 -30 -5 -53 -14 -70c-35 -64 -88 -99 -158 -103c-5 0 -11 -1 -16 -1c-37 0 -72 10 -108 27c-50 24 -77 59 -80 105v11c0 29 7 55 20 76c18 28 45 42 79 44h6c49 0 93 -42 97 -87v-9c0 -51 -34 -86 -105 -106c17 -24 51 -36 102 -36c62 0 116 43 140 85 c9 16 13 41 13 74c0 20 -1 42 -5 67c-8 53 -18 106 -26 159zM461 939c-95 0 -135 -175 -135 -286c0 -24 2 -48 5 -71c50 39 92 82 127 128c40 53 60 100 60 140v8c-4 53 -22 81 -55 81h-2zM406 119l54 -326c73 25 110 78 110 161c0 7 0 15 -1 23c-7 95 -57 142 -151 142h-12 zM382 117c-72 -2 -128 -47 -128 -120v-7c2 -46 43 -99 75 -115c-3 -2 -7 -5 -10 -10c-70 33 -116 88 -123 172v11c0 68 44 126 88 159c23 17 49 29 78 36l-29 170c-21 -13 -52 -37 -92 -73c-50 -44 -86 -84 -109 -119c-45 -69 -67 -130 -67 -182v-13c5 -68 35 -127 93 -176 s125 -73 203 -73c25 0 50 3 75 9c-19 111 -36 221 -54 331z" />
      </symbol>
      <symbol id="E081-g8jhzo" viewBox="0 0 1000 1000" overflow="inherit">
         <path transform="scale(1,-1)" d="M68 -250v36c23 0 40 6 49 18c8 14 12 33 12 57v250l-82 -129l-27 13l107 255h128v-394c0 -24 5 -42 14 -53s25 -17 47 -17v-36h-248z" />
      </symbol>
      <symbol id="E082-g8jhzo" viewBox="0 0 1000 1000" overflow="inherit">
         <path transform="scale(1,-1)" d="M124 -185c-18 0 -55 -14 -65 -65h-36l-3 30c0 25 6 45 18 63c11 19 22 30 39 43l121 82l37 29c15 11 27 29 38 54c12 24 18 47 18 70c0 40 -19 88 -94 88c-25 0 -32 0 -50 -8c-14 -5 -23 -12 -26 -22c3 -9 7 -15 10 -18l24 -17c12 -7 17 -11 27 -21c5 -7 7 -16 7 -27 c0 -12 0 -57 -79 -74c-30 0 -76 26 -76 94c0 66 81 135 197 135c72 0 181 -32 181 -150c0 -53 -32 -95 -113 -133l-91 -41c-26 -11 -45 -23 -57 -37l49 7c84 0 115 -41 148 -41c20 0 33 20 39 61h35c0 -152 -68 -168 -114 -168c-17 0 -65 0 -79 7h10l-28 17 c-49 37 -69 40 -87 42z" />
      </symbol>
      <symbol id="E084-g8jhzo" viewBox="0 0 1000 1000" overflow="inherit">
         <path transform="scale(1,-1)" d="M20 -78c84 97 114 180 134 329h170c-13 -32 -82 -132 -99 -151l-84 -97c-33 -36 -59 -63 -80 -81h162v102l127 123v-225h57v-39h-57v-34c0 -43 19 -65 57 -65v-34h-244v36c48 0 60 26 60 70v27h-203v39z" />
      </symbol>
      <symbol id="E0A4-g8jhzo" viewBox="0 0 1000 1000" overflow="inherit">
         <path transform="scale(1,-1)" d="M0 -39c0 68 73 172 200 172c66 0 114 -37 114 -95c0 -84 -106 -171 -218 -171c-64 0 -96 30 -96 94z" />
      </symbol>
   </defs>
   <style type="text/css">g.page-margin{font-family:Times;} g.ending, g.fing, g.reh, g.tempo{font-weight:bold;} g.dir, g.dynam, g.mNum{font-style:italic;} g.label{font-weight:normal;}</style>
   <svg class="definition-scale" color="black" viewBox="0 0 21000 29700">
      <g class="page-margin" transform="translate(500, 500)">
         <g id="m11izmg7" class="mdiv pageMilestone" />
         <g id="s1nm5lfy" class="score pageMilestone" />
         <g id="s34r4j0" class="system">
            <g id="l93ewi" class="label">
               <text x="1105" y="1535" text-anchor="end" font-size="0px">
                  <tspan id="t1j3jmcs" class="text">
                     <tspan font-size="405px" class="text">Piano</tspan>
                  </tspan>
               </text>
            </g>
            <g id="sej3fs" class="section systemMilestone" />
            <g id="pqjs0ek" class="pb" />
            <g id="mr2gm50" class="measure">
               <g id="mldhfhc" class="mNum">
                  <text x="1285" y="842" text-anchor="middle" font-size="0px" />
               </g>
               <g id="stxlyhc" class="staff">
                  <path d="M1285 1085 L3962 1085" stroke="currentColor" stroke-width="13" />
                  <path d="M1285 1265 L3962 1265" stroke="currentColor" stroke-width="13" />
                  <path d="M1285 1445 L3962 1445" stroke="currentColor" stroke-width="13" />
                  <path d="M1285 1625 L3962 1625" stroke="currentColor" stroke-width="13" />
                  <path d="M1285 1805 L3962 1805" stroke="currentColor" stroke-width="13" />
                  <g id="ccvormh" class="clef">
                     <use xlink:href="#E050-g8jhzo" x="1375" y="1625" height="720px" width="720px" />
                  </g>
                  <g id="k15jlaxj" class="keySig" />
                  <g id="mknx64v" class="meterSig">
                     <use xlink:href="#E082-g8jhzo" x="2006" y="1265" height="720px" width="720px" />
                     <use xlink:href="#E084-g8jhzo" x="2011" y="1625" height="720px" width="720px" />
                  </g>
                  <g id="l1uoux50" class="layer">
                     <g id="bevtnfm" class="beam">
                        <polygon points="2585,1805 3577,1895 3577,1805 2585,1715" />
                        <polygon points="3179,1725 3577,1760 3577,1670 3179,1635" />
                        <g id="n5yr7ph" class="note">
                           <g class="notehead">
                              <use xlink:href="#E0A4-g8jhzo" x="2585" y="1175" height="720px" width="720px" />
                           </g>
                           <g id="s1lwu78c" class="stem">
                              <rect x="2585" y="1203" height="584" width="18" />
                           </g>
                        </g>
                        <g id="nomfuyh" class="note">
                           <g class="notehead">
                              <use xlink:href="#E0A4-g8jhzo" x="3170" y="1175" height="720px" width="720px" />
                           </g>
                           <g id="s47j49e" class="stem">
                              <rect x="3170" y="1203" height="639" width="18" />
                           </g>
                        </g>
                        <g id="n1xv5g0y" class="note">
                           <g class="notehead">
                              <use xlink:href="#E0A4-g8jhzo" x="3559" y="1265" height="720px" width="720px" />
                           </g>
                           <g id="syhh13n" class="stem">
                              <rect x="3559" y="1293" height="584" width="18" />
                           </g>
                        </g>
                     </g>
                  </g>
               </g>
               <g id="b1oaozsh" class="barLine">
                  <path d="M3949 1085 L3949 1805" stroke="currentColor" stroke-width="27" />
               </g>
            </g>
            <g id="m18w9ne0" class="measure">
               <g id="s3mmq50" class="staff">
                  <path d="M3962 1085 L7082 1085" stroke="currentColor" stroke-width="13" />
                  <path d="M3962 1265 L7082 1265" stroke="currentColor" stroke-width="13" />
                  <path d="M3962 1445 L7082 1445" stroke="currentColor" stroke-width="13" />
                  <path d="M3962 1625 L7082 1625" stroke="currentColor" stroke-width="13" />
                  <path d="M3962 1805 L7082 1805" stroke="currentColor" stroke-width="13" />
                  <g id="lkbyqq6" class="layer">
                     <g id="b168tgu5" class="beam">
                        <polygon points="4148,2030 5140,2030 5140,1940 4148,1940" />
                        <polygon points="4742,1895 5140,1895 5140,1805 4742,1805" />
                        <g id="n1b8vrlo" class="note">
                           <g class="notehead">
                              <use xlink:href="#E0A4-g8jhzo" x="4148" y="1175" height="720px" width="720px" />
                           </g>
                           <g id="s11ueh7w" class="stem">
                              <rect x="4148" y="1203" height="809" width="18" />
                           </g>
                        </g>
                        <g id="nvf32db" class="note">
                           <g class="notehead">
                              <use xlink:href="#E0A4-g8jhzo" x="4733" y="1445" height="720px" width="720px" />
                           </g>
                           <g id="s1ly0ao4" class="stem">
                              <rect x="4733" y="1473" height="539" width="18" />
                           </g>
                        </g>
                        <g id="ngzqc6u" class="note">
                           <g class="notehead">
                              <use xlink:href="#E0A4-g8jhzo" x="5122" y="1355" height="720px" width="720px" />
                           </g>
                           <g id="s1mgl9sx" class="stem">
                              <rect x="5122" y="1383" height="629" width="18" />
                           </g>
                        </g>
                     </g>
                     <g id="bj33y6" class="beam">
                        <polygon points="5512,1985 6698,2030 6698,1940 5512,1895" />
                        <polygon points="5512,1850 5910,1865 5910,1775 5512,1760" />
                        <polygon points="5910,1865 6299,1880 6299,1790 5910,1775" />
                        <polygon points="6299,1880 6698,1895 6698,1805 6299,1790" />
                        <g id="noa58a7" class="note">
                           <g class="notehead">
                              <use xlink:href="#E0A4-g8jhzo" x="5512" y="1265" height="720px" width="720px" />
                           </g>
                           <g id="s1jc5m64" class="stem">
                              <rect x="5512" y="1293" height="674" width="18" />
                           </g>
                        </g>
                        <g id="nu50pqy" class="note">
                           <g class="notehead">
                              <use xlink:href="#E0A4-g8jhzo" x="5901" y="1175" height="720px" width="720px" />
                           </g>
                           <g id="sdd506w" class="stem">
                              <rect x="5901" y="1203" height="779" width="18" />
                           </g>
                        </g>
                        <g id="n1u9ck8c" class="note">
                           <g class="notehead">
                              <use xlink:href="#E0A4-g8jhzo" x="6290" y="1265" height="720px" width="720px" />
                           </g>
                           <g id="sqdavy2" class="stem">
                              <rect x="6290" y="1293" height="704" width="18" />
                           </g>
                        </g>
                        <g id="nb6nv24" class="note">
                           <g class="notehead">
                              <use xlink:href="#E0A4-g8jhzo" x="6680" y="1355" height="720px" width="720px" />
                           </g>
                           <g id="s151rj0a" class="stem">
                              <rect x="6680" y="1383" height="629" width="18" />
                           </g>
                        </g>
                     </g>
                  </g>
               </g>
               <g id="b1hpxxay" class="barLine">
                  <path d="M7069 1085 L7069 1805" stroke="currentColor" stroke-width="27" />
               </g>
            </g>
            <g id="m1e2j2wo" class="measure">
               <g id="s5uxnln" class="staff">
                  <path d="M7082 1085 L10008 1085" stroke="currentColor" stroke-width="13" />
                  <path d="M7082 1265 L10008 1265" stroke="currentColor" stroke-width="13" />
                  <path d="M7082 1445 L10008 1445" stroke="currentColor" stroke-width="13" />
                  <path d="M7082 1625 L10008 1625" stroke="currentColor" stroke-width="13" />
                  <path d="M7082 1805 L10008 1805" stroke="currentColor" stroke-width="13" />
                  <g id="lbtkd8g" class="layer">
                     <g id="b11h1qth" class="beam">
                        <polygon points="7476,860 8273,860 8273,950 7476,950" />
                        <polygon points="7476,995 7875,995 7875,1085 7476,1085" />
                        <g id="ndyrp1i" class="note">
                           <g class="notehead">
                              <use xlink:href="#E0A4-g8jhzo" x="7268" y="1445" height="720px" width="720px" />
                           </g>
                           <g id="s1bbdpe1" class="stem">
                              <rect x="7476" y="878" height="539" width="18" />
                           </g>
                        </g>
                        <g id="n10pkwz9" class="note">
                           <g class="notehead">
                              <use xlink:href="#E0A4-g8jhzo" x="7658" y="1535" height="720px" width="720px" />
                           </g>
                           <g id="s1w946to" class="stem">
                              <rect x="7866" y="878" height="629" width="18" />
                           </g>
                        </g>
                        <g id="n1ygel2t" class="note">
                           <g class="notehead">
                              <use xlink:href="#E0A4-g8jhzo" x="8047" y="1445" height="720px" width="720px" />
                           </g>
                           <g id="s2jvhgr" class="stem">
                              <rect x="8255" y="878" height="539" width="18" />
                           </g>
                        </g>
                     </g>
                     <g id="bgzg879" class="beam">
                        <polygon points="8632,1805 9624,1895 9624,1805 8632,1715" />
                        <polygon points="9225,1724 9624,1760 9624,1670 9225,1634" />
                        <g id="nt6o2md" class="note">
                           <g class="notehead">
                              <use xlink:href="#E0A4-g8jhzo" x="8632" y="1175" height="720px" width="720px" />
                           </g>
                           <g id="s687dby" class="stem">
                              <rect x="8632" y="1203" height="584" width="18" />
                           </g>
                        </g>
                        <g id="n1bysee0" class="note">
                           <g class="notehead">
                              <use xlink:href="#E0A4-g8jhzo" x="9216" y="1175" height="720px" width="720px" />
                           </g>
                           <g id="s11h27dc" class="stem">
                              <rect x="9216" y="1203" height="638" width="18" />
                           </g>
                        </g>
                        <g id="ngbtkvs" class="note">
                           <g class="notehead">
                              <use xlink:href="#E0A4-g8jhzo" x="9606" y="1265" height="720px" width="720px" />
                           </g>
                           <g id="s1tkj6s1" class="stem">
                              <rect x="9606" y="1293" height="584" width="18" />
                           </g>
                        </g>
                     </g>
                  </g>
               </g>
               <g id="bx88d2b" class="barLine">
                  <path d="M9995 1085 L9995 1805" stroke="currentColor" stroke-width="27" />
               </g>
            </g>
            <g id="m1hawfnw" class="measure">
               <g id="s1ok1nt4" class="staff">
                  <path d="M10008 1085 L13128 1085" stroke="currentColor" stroke-width="13" />
                  <path d="M10008 1265 L13128 1265" stroke="currentColor" stroke-width="13" />
                  <path d="M10008 1445 L13128 1445" stroke="currentColor" stroke-width="13" />
                  <path d="M10008 1625 L13128 1625" stroke="currentColor" stroke-width="13" />
                  <path d="M10008 1805 L13128 1805" stroke="currentColor" stroke-width="13" />
                  <g id="lmd8z7t" class="layer">
                     <g id="b1yzwn7f" class="beam">
                        <polygon points="10194,2030 11186,2030 11186,1940 10194,1940" />
                        <polygon points="10788,1895 11186,1895 11186,1805 10788,1805" />
                        <g id="n11ftjvt" class="note">
                           <g class="notehead">
                              <use xlink:href="#E0A4-g8jhzo" x="10194" y="1175" height="720px" width="720px" />
                           </g>
                           <g id="safkaky" class="stem">
                              <rect x="10194" y="1203" height="809" width="18" />
                           </g>
                        </g>
                        <g id="nxjuk1d" class="note">
                           <g class="notehead">
                              <use xlink:href="#E0A4-g8jhzo" x="10779" y="1445" height="720px" width="720px" />
                           </g>
                           <g id="s1wz4sk7" class="stem">
                              <rect x="10779" y="1473" height="539" width="18" />
                           </g>
                        </g>
                        <g id="n13213td" class="note">
                           <g class="notehead">
                              <use xlink:href="#E0A4-g8jhzo" x="11168" y="1355" height="720px" width="720px" />
                           </g>
                           <g id="sft9bzw" class="stem">
                              <rect x="11168" y="1383" height="629" width="18" />
                           </g>
                        </g>
                     </g>
                     <g id="b1nqqh7h" class="beam">
                        <polygon points="11558,1985 12744,2030 12744,1940 11558,1895" />
                        <polygon points="11558,1850 11956,1865 11956,1775 11558,1760" />
                        <polygon points="11956,1865 12345,1880 12345,1790 11956,1775" />
                        <polygon points="12345,1880 12744,1895 12744,1805 12345,1790" />
                        <g id="n184zonr" class="note">
                           <g class="notehead">
                              <use xlink:href="#E0A4-g8jhzo" x="11558" y="1265" height="720px" width="720px" />
                           </g>
                           <g id="s1kfoxmt" class="stem">
                              <rect x="11558" y="1293" height="674" width="18" />
                           </g>
                        </g>
                        <g id="nxqcshd" class="note">
                           <g class="notehead">
                              <use xlink:href="#E0A4-g8jhzo" x="11947" y="1175" height="720px" width="720px" />
                           </g>
                           <g id="s4p1kcg" class="stem">
                              <rect x="11947" y="1203" height="779" width="18" />
                           </g>
                        </g>
                        <g id="ninu8xz" class="note">
                           <g class="notehead">
                              <use xlink:href="#E0A4-g8jhzo" x="12336" y="1265" height="720px" width="720px" />
                           </g>
                           <g id="s4jwryq" class="stem">
                              <rect x="12336" y="1293" height="704" width="18" />
                           </g>
                        </g>
                        <g id="n13ex25g" class="note">
                           <g class="notehead">
                              <use xlink:href="#E0A4-g8jhzo" x="12726" y="1355" height="720px" width="720px" />
                           </g>
                           <g id="spupt39" class="stem">
                              <rect x="12726" y="1383" height="629" width="18" />
                           </g>
                        </g>
                     </g>
                  </g>
               </g>
               <g id="bzjz3s" class="barLine">
                  <path d="M13115 1085 L13115 1805" stroke="currentColor" stroke-width="27" />
               </g>
            </g>
            <g id="m1gjc8qf" class="measure">
               <g id="s66vyzr" class="staff">
                  <path d="M13128 1085 L15046 1085" stroke="currentColor" stroke-width="13" />
                  <path d="M13128 1265 L15046 1265" stroke="currentColor" stroke-width="13" />
                  <path d="M13128 1445 L15046 1445" stroke="currentColor" stroke-width="13" />
                  <path d="M13128 1625 L15046 1625" stroke="currentColor" stroke-width="13" />
                  <path d="M13128 1805 L15046 1805" stroke="currentColor" stroke-width="13" />
                  <g id="mqcwaan" class="meterSig">
                     <use xlink:href="#E081-g8jhzo" x="13237" y="1265" height="720px" width="720px" />
                     <use xlink:href="#E084-g8jhzo" x="13204" y="1625" height="720px" width="720px" />
                  </g>
                  <g id="l1alymta" class="layer">
                     <g id="n16u61op" class="note">
                        <g class="notehead">
                           <use xlink:href="#E0A4-g8jhzo" x="13772" y="1445" height="720px" width="720px" />
                        </g>
                        <g id="s1r5cibm" class="stem">
                           <rect x="13772" y="1473" height="572" width="18" />
                        </g>
                     </g>
                  </g>
               </g>
               <g id="bwgi4nv" class="barLine">
                  <path d="M14668 1085 L14668 1805" stroke="currentColor" stroke-width="27" />
                  <path d="M14798 1085 L14798 1805" stroke="currentColor" stroke-width="90" />
                  <path d="M14929 1085 L14929 1805" stroke="currentColor" stroke-width="27" />
                  <use xlink:href="#E044-g8jhzo" x="14974" y="1355" height="720px" width="720px" />
                  <use xlink:href="#E044-g8jhzo" x="14974" y="1535" height="720px" width="720px" />
                  <use xlink:href="#E044-g8jhzo" x="14551" y="1355" height="720px" width="720px" />
                  <use xlink:href="#E044-g8jhzo" x="14551" y="1535" height="720px" width="720px" />
               </g>
            </g>
            <g id="myw0glk" class="measure">
               <g id="s9pah8p" class="staff">
                  <path d="M15046 1085 L16609 1085" stroke="currentColor" stroke-width="13" />
                  <path d="M15046 1265 L16609 1265" stroke="currentColor" stroke-width="13" />
                  <path d="M15046 1445 L16609 1445" stroke="currentColor" stroke-width="13" />
                  <path d="M15046 1625 L16609 1625" stroke="currentColor" stroke-width="13" />
                  <path d="M15046 1805 L16609 1805" stroke="currentColor" stroke-width="13" />
                  <g id="l1o2dsd8" class="layer">
                     <g id="b1rjghkc" class="beam">
                        <polygon points="15232,2075 16224,2075 16224,1985 15232,1985" />
                        <polygon points="15826,1940 16224,1940 16224,1850 15826,1850" />
                        <g id="n1nbwi88" class="note">
                           <g class="notehead">
                              <use xlink:href="#E0A4-g8jhzo" x="15232" y="1535" height="720px" width="720px" />
                           </g>
                           <g id="santwx6" class="stem">
                              <rect x="15232" y="1563" height="494" width="18" />
                           </g>
                        </g>
                        <g id="n7kfv7n" class="note">
                           <g class="notehead">
                              <use xlink:href="#E0A4-g8jhzo" x="15817" y="1445" height="720px" width="720px" />
                           </g>
                           <g id="s1z0von1" class="stem">
                              <rect x="15817" y="1473" height="584" width="18" />
                           </g>
                        </g>
                        <g id="n1yetuj8" class="note">
                           <g class="notehead">
                              <use xlink:href="#E0A4-g8jhzo" x="16206" y="1355" height="720px" width="720px" />
                           </g>
                           <g id="sch1flh" class="stem">
                              <rect x="16206" y="1383" height="674" width="18" />
                           </g>
                        </g>
                     </g>
                  </g>
               </g>
               <g id="bi6le2h" class="barLine">
                  <path d="M16596 1085 L16596 1805" stroke="currentColor" stroke-width="27" />
               </g>
            </g>
            <g id="m1h3lq5m" class="measure">
               <g id="s6tevvk" class="staff">
                  <path d="M16609 1085 L20004 1085" stroke="currentColor" stroke-width="13" />
                  <path d="M16609 1265 L20004 1265" stroke="currentColor" stroke-width="13" />
                  <path d="M16609 1445 L20004 1445" stroke="currentColor" stroke-width="13" />
                  <path d="M16609 1625 L20004 1625" stroke="currentColor" stroke-width="13" />
                  <path d="M16609 1805 L20004 1805" stroke="currentColor" stroke-width="13" />
                  <g id="m3abhfh" class="meterSig">
                     <use xlink:href="#E082-g8jhzo" x="16685" y="1265" height="720px" width="720px" />
                     <use xlink:href="#E084-g8jhzo" x="16690" y="1625" height="720px" width="720px" />
                  </g>
                  <g id="l133n77w" class="layer">
                     <g id="b1x9yhjq" class="beam">
                        <polygon points="17264,2030 17867,1850 17867,1760 17264,1940" />
                        <g id="n1wdsxxc" class="note">
                           <g class="notehead">
                              <use xlink:href="#E0A4-g8jhzo" x="17264" y="1445" height="720px" width="720px" />
                           </g>
                           <g id="s7qr03f" class="stem">
                              <rect x="17264" y="1473" height="539" width="18" />
                           </g>
                        </g>
                        <g id="nlud3e2" class="note">
                           <g class="notehead">
                              <use xlink:href="#E0A4-g8jhzo" x="17849" y="1175" height="720px" width="720px" />
                           </g>
                           <g id="suu4hwm" class="stem">
                              <rect x="17849" y="1203" height="629" width="18" />
                           </g>
                        </g>
                     </g>
                     <g id="b1wou0ga" class="beam">
                        <polygon points="18434,2030 19620,2030 19620,1940 18434,1940" />
                        <polygon points="18434,1895 18832,1895 18832,1805 18434,1805" />
                        <polygon points="18832,1895 19221,1895 19221,1805 18832,1805" />
                        <polygon points="19221,1895 19620,1895 19620,1805 19221,1805" />
                        <g id="n1w5vjc0" class="note">
                           <g class="notehead">
                              <use xlink:href="#E0A4-g8jhzo" x="18434" y="1265" height="720px" width="720px" />
                           </g>
                           <g id="s17m0hsm" class="stem">
                              <rect x="18434" y="1293" height="719" width="18" />
                           </g>
                        </g>
                        <g id="n8100vn" class="note">
                           <g class="notehead">
                              <use xlink:href="#E0A4-g8jhzo" x="18823" y="1355" height="720px" width="720px" />
                           </g>
                           <g id="s1395k97" class="stem">
                              <rect x="18823" y="1383" height="629" width="18" />
                           </g>
                        </g>
                        <g id="n1bot6bi" class="note">
                           <g class="notehead">
                              <use xlink:href="#E0A4-g8jhzo" x="19212" y="1445" height="720px" width="720px" />
                           </g>
                           <g id="s1q0jshm" class="stem">
                              <rect x="19212" y="1473" height="539" width="18" />
                           </g>
                        </g>
                        <g id="nh8fq3e" class="note">
                           <g class="notehead">
                              <use xlink:href="#E0A4-g8jhzo" x="19602" y="1355" height="720px" width="720px" />
                           </g>
                           <g id="s1wu82nf" class="stem">
                              <rect x="19602" y="1383" height="629" width="18" />
                           </g>
                        </g>
                     </g>
                  </g>
               </g>
               <g id="bvrscal" class="barLine">
                  <path d="M19991 1085 L19991 1805" stroke="currentColor" stroke-width="27" />
               </g>
            </g>
            <g id="s1g2nz6t" class="sb" />
         </g>
         <g id="s9ff1ac" class="system">
            <g id="lc6bdqq" class="labelAbbr">
               <text x="914" y="3884" text-anchor="end" font-size="0px">
                  <tspan id="tq93a9z" class="text">
                     <tspan font-size="405px" class="text">Pno.</tspan>
                  </tspan>
               </text>
            </g>
            <g id="m1dkl2ro" class="measure">
               <g id="m9xfba7" class="mNum autogenerated">
                  <text x="1094" y="3191" text-anchor="middle" font-size="0px">
                     <tspan id="t1r1y1vu" class="text">
                        <tspan font-size="324px" class="text">7</tspan>
                     </tspan>
                  </text>
               </g>
               <g id="spxt1bk" class="staff">
                  <path d="M1094 3434 L4572 3434" stroke="currentColor" stroke-width="13" />
                  <path d="M1094 3614 L4572 3614" stroke="currentColor" stroke-width="13" />
                  <path d="M1094 3794 L4572 3794" stroke="currentColor" stroke-width="13" />
                  <path d="M1094 3974 L4572 3974" stroke="currentColor" stroke-width="13" />
                  <path d="M1094 4154 L4572 4154" stroke="currentColor" stroke-width="13" />
                  <g id="c1rtz3ia" class="clef">
                     <use xlink:href="#E050-g8jhzo" x="1184" y="3974" height="720px" width="720px" />
                  </g>
                  <g id="kc9qims" class="keySig" />
                  <g id="l19kgyuf" class="layer">
                     <g id="b2cmk1d" class="beam">
                        <polygon points="2127,3209 2899,3209 2899,3299 2127,3299" />
                        <polygon points="2127,3344 2513,3344 2513,3434 2127,3434" />
                        <g id="n1qrue8c" class="note">
                           <g class="notehead">
                              <use xlink:href="#E0A4-g8jhzo" x="1919" y="3884" height="720px" width="720px" />
                           </g>
                           <g id="sc7w823" class="stem">
                              <rect x="2127" y="3227" height="629" width="18" />
                           </g>
                        </g>
                        <g id="n1hevd5a" class="note">
                           <g class="notehead">
                              <use xlink:href="#E0A4-g8jhzo" x="2296" y="3794" height="720px" width="720px" />
                           </g>
                           <g id="s1gx3ci1" class="stem">
                              <rect x="2504" y="3227" height="539" width="18" />
                           </g>
                        </g>
                        <g id="nye6rpx" class="note">
                           <g class="notehead">
                              <use xlink:href="#E0A4-g8jhzo" x="2673" y="3974" height="720px" width="720px" />
                           </g>
                           <g id="s138yw6z" class="stem">
                              <rect x="2881" y="3227" height="719" width="18" />
                           </g>
                        </g>
                     </g>
                     <g id="b1orsauw" class="beam">
                        <polygon points="3239,4424 4200,4424 4200,4334 3239,4334" />
                        <polygon points="3814,4289 4200,4289 4200,4199 3814,4199" />
                        <g id="n1asser9" class="note">
                           <g class="notehead">
                              <use xlink:href="#E0A4-g8jhzo" x="3239" y="3884" height="720px" width="720px" />
                           </g>
                           <g id="s9m33hw" class="stem">
                              <rect x="3239" y="3912" height="494" width="18" />
                           </g>
                        </g>
                        <g id="ntlkfe" class="note">
                           <g class="notehead">
                              <use xlink:href="#E0A4-g8jhzo" x="3805" y="3794" height="720px" width="720px" />
                           </g>
                           <g id="s5tvyhb" class="stem">
                              <rect x="3805" y="3822" height="584" width="18" />
                           </g>
                        </g>
                        <g id="n18xj4zs" class="note">
                           <g class="notehead">
                              <use xlink:href="#E0A4-g8jhzo" x="4182" y="3704" height="720px" width="720px" />
                           </g>
                           <g id="s1fcyf8x" class="stem">
                              <rect x="4182" y="3732" height="674" width="18" />
                           </g>
                        </g>
                     </g>
                  </g>
               </g>
               <g id="b124gk9t" class="barLine">
                  <path d="M4559 3434 L4559 4154" stroke="currentColor" stroke-width="27" />
               </g>
            </g>
            <g id="m6wytsg" class="measure">
               <g id="sitvxwc" class="staff">
                  <path d="M4572 3434 L7405 3434" stroke="currentColor" stroke-width="13" />
                  <path d="M4572 3614 L7405 3614" stroke="currentColor" stroke-width="13" />
                  <path d="M4572 3794 L7405 3794" stroke="currentColor" stroke-width="13" />
                  <path d="M4572 3974 L7405 3974" stroke="currentColor" stroke-width="13" />
                  <path d="M4572 4154 L7405 4154" stroke="currentColor" stroke-width="13" />
                  <g id="l16etijd" class="layer">
                     <g id="bzr0spg" class="beam">
                        <polygon points="4752,4379 5336,4199 5336,4109 4752,4289" />
                        <g id="nv11k6u" class="note">
                           <g class="notehead">
                              <use xlink:href="#E0A4-g8jhzo" x="4752" y="3794" height="720px" width="720px" />
                           </g>
                           <g id="s3azqfc" class="stem">
                              <rect x="4752" y="3822" height="539" width="18" />
                           </g>
                        </g>
                        <g id="n5qr8b3" class="note">
                           <g class="notehead">
                              <use xlink:href="#E0A4-g8jhzo" x="5318" y="3524" height="720px" width="720px" />
                           </g>
                           <g id="s1iibmdk" class="stem">
                              <rect x="5318" y="3552" height="629" width="18" />
                           </g>
                        </g>
                     </g>
                     <g id="b16bymr3" class="beam">
                        <polygon points="5884,4379 7033,4379 7033,4289 5884,4289" />
                        <polygon points="5884,4244 6270,4244 6270,4154 5884,4154" />
                        <polygon points="6270,4244 6647,4244 6647,4154 6270,4154" />
                        <polygon points="6647,4244 7033,4244 7033,4154 6647,4154" />
                        <g id="n1w7fqhf" class="note">
                           <g class="notehead">
                              <use xlink:href="#E0A4-g8jhzo" x="5884" y="3614" height="720px" width="720px" />
                           </g>
                           <g id="svet8vk" class="stem">
                              <rect x="5884" y="3642" height="719" width="18" />
                           </g>
                        </g>
                        <g id="nwxzejm" class="note">
                           <g class="notehead">
                              <use xlink:href="#E0A4-g8jhzo" x="6261" y="3704" height="720px" width="720px" />
                           </g>
                           <g id="s1jx4rjl" class="stem">
                              <rect x="6261" y="3732" height="629" width="18" />
                           </g>
                        </g>
                        <g id="n1j3acfl" class="note">
                           <g class="notehead">
                              <use xlink:href="#E0A4-g8jhzo" x="6638" y="3794" height="720px" width="720px" />
                           </g>
                           <g id="sh8uzc" class="stem">
                              <rect x="6638" y="3822" height="539" width="18" />
                           </g>
                        </g>
                        <g id="n1xyulgf" class="note">
                           <g class="notehead">
                              <use xlink:href="#E0A4-g8jhzo" x="7015" y="3704" height="720px" width="720px" />
                           </g>
                           <g id="s1eprxrm" class="stem">
                              <rect x="7015" y="3732" height="629" width="18" />
                           </g>
                        </g>
                     </g>
                  </g>
               </g>
               <g id="b1fq1qqq" class="barLine">
                  <path d="M7392 3434 L7392 4154" stroke="currentColor" stroke-width="27" />
               </g>
            </g>
            <g id="mpvu735" class="measure">
               <g id="s6gj6l6" class="staff">
                  <path d="M7405 3434 L9085 3434" stroke="currentColor" stroke-width="13" />
                  <path d="M7405 3614 L9085 3614" stroke="currentColor" stroke-width="13" />
                  <path d="M7405 3794 L9085 3794" stroke="currentColor" stroke-width="13" />
                  <path d="M7405 3974 L9085 3974" stroke="currentColor" stroke-width="13" />
                  <path d="M7405 4154 L9085 4154" stroke="currentColor" stroke-width="13" />
                  <g id="m12qjycp" class="meterSig">
                     <use xlink:href="#E081-g8jhzo" x="7514" y="3614" height="720px" width="720px" />
                     <use xlink:href="#E084-g8jhzo" x="7481" y="3974" height="720px" width="720px" />
                  </g>
                  <g id="lkbpfo9" class="layer">
                     <g id="nfxy99o" class="note">
                        <g class="notehead">
                           <use xlink:href="#E0A4-g8jhzo" x="8043" y="3884" height="720px" width="720px" />
                        </g>
                        <g id="s1gsbgw9" class="stem">
                           <rect x="8251" y="3254" height="602" width="18" />
                        </g>
                     </g>
                  </g>
               </g>
               <g id="b5k8ag6" class="barLine">
                  <path d="M8910 3434 L8910 4154" stroke="currentColor" stroke-width="27" />
                  <path d="M9040 3434 L9040 4154" stroke="currentColor" stroke-width="90" />
               </g>
            </g>
            <g id="s46f1rt" class="systemMilestoneEnd sej3fs" />
         </g>
         <g id="phe5ur1" class="pageMilestoneEnd s1nm5lfy" />
         <g id="p1w9ba88" class="pageMilestoneEnd m11izmg7" />
         <g id="puuat5e" class="pgHead">
            <text x="0" y="0" font-size="0px">
               <tspan id="rki1yiy" class="rend" x="10000" y="277" text-anchor="middle">
                  <tspan id="t1og735n" class="text">
                     <tspan font-size="405px" class="text">Air n 210</tspan>
                  </tspan>
               </tspan>
            </text>
         </g>
         <g id="p139jot4" class="pgFoot autogenerated">
            <g id="f1hlsyqc" class="fig">
               <g id="s3fmwmw" class="svg" transform="translate(7750, 28099) scale(10, 10)">
                  <g>
                     <path fill="#00000" d="M 17.11278,49.26451 V 10.367554 h 12.696511 c 3.288815,7.336676 6.71267,14.610456 10.127281,21.888976 3.419998,-7.484684 6.255515,-14.204887 9.58887,-21.909915 2.436207,0.103726 4.316952,0.08453 6.484294,-0.05808 V 49.264423 H 50.274275 C 50.145222,38.35639 50.016136,27.448368 49.887066,16.540329 45.003488,27.315459 39.967448,38.433564 35.083854,49.208695 34.678996,49.343717 34.426583,49.135619 34.021726,49.270644 29.46588,39.330716 24.910049,29.390805 20.354201,19.450876 20.224341,29.388756 20.09461,39.326619 19.964815,49.264497 H 17.11278 Z M 36.754144,39.324695 C 32.721221,30.512695 28.6883,21.700679 24.655394,12.888662 22.530527,12.750737 22.656775,12.71031 20.714356,12.813974 v 0.966497 c 4.612938,9.99784 9.609439,20.748709 13.87298,30.081745 0.722248,-1.512523 1.444528,-3.025014 2.166808,-4.537521 z m 25.738417,9.939815 c 0,-12.965651 0,-25.931305 0,-38.896956 10.084388,0 20.168791,0 30.253178,0 0,0.960416 0,1.920849 0,2.881265 -6.482825,0 -12.965652,0 -19.448478,0 0,4.802097 0,9.604178 0,14.406277 5.52241,0 11.044819,0 16.567229,0 0,0.960415 0,1.920832 0,2.881248 -5.52241,0 -11.044819,0 -16.567229,0 0,5.282306 0,10.564611 0,15.846917 6.963035,0 13.926068,0 20.889103,0 0,0.960416 0,1.920832 0,2.881249 -10.564597,0 -21.129207,0 -31.693803,0 z m 4.321874,-2.160937 c 0,-11.765131 0,-23.530263 0,-35.295394 -0.720312,0 -1.440625,0 -2.160937,0 0,11.765131 0,23.530263 0,35.295394 0.720312,0 1.440625,0 2.160937,0 z m 32.41413,2.160937 c 0,-12.965651 0,-25.931305 0,-38.896956 2.401045,0 4.802095,0 7.203135,0 0,12.965651 0,25.931305 0,38.896956 -2.40104,0 -4.80209,0 -7.203135,0 z m 2.881265,-2.160937 c 0,-11.765131 0,-23.530263 0,-35.295394 -0.72031,0 -1.44064,0 -2.160953,0 0,11.765131 0,23.530263 0,35.295394 0.720313,0 1.440643,0 2.160953,0 z" />
                     <path fill="#00000" d="m 346.3,6.7 c -3.1,0.5 -4.9,4.4 -2.7,6.8 1.2,1.4 2.7,2.4 4.1,3.5 -2.4,5.3 -7.7,8.3 -11.9,12.1 -3.7,2.8 -7,6.2 -9.7,9.9 -2.2,-0.8 -0.3,-6.8 -0.6,-9.5 0.1,-3.1 0.7,-6.4 2.9,-8.7 1.3,-1.9 3,-3.5 4.5,-5.2 1.2,-3.4 -3.2,-4.9 -5.8,-4.6 -7.3,-0.5 -14.6,2 -20,6.8 -5,4.6 -10,10.1 -11.5,17 -0.9,3.5 -0.2,7.5 2.8,9.9 2.5,2.8 7.4,2.9 9.8,-0.2 1.7,-2.3 3.2,-4.8 3.8,-7.6 -0.1,-2.6 -4.4,-2.3 -4.3,0.2 1.2,2.4 -0.9,4.7 -2.7,6.2 -1.7,0.9 -4.7,0.7 -4.8,-1.7 -1,-5.8 2.1,-11.3 5.2,-16.1 4,-5.8 9.8,-11.2 17.2,-11.8 1.6,0 8.1,-1.2 6.8,1.4 -2.8,2.8 -5.6,6.1 -6,10.3 -1.6,7.7 0.1,15.7 -2.3,23.2 -1.1,3.9 2,2.6 2.5,0.2 3.3,-7.4 8.9,-13.4 15.1,-18.5 4.2,-3.9 9.5,-7.1 11.9,-12.6 1.3,-3.6 1.2,-9 -2.7,-10.9 -0.6,-0.2 -1.2,-0.3 -1.8,-0.3 z m 66,14.5 c -2,0.8 -1.8,4.9 0.8,4.4 3.4,0.4 2.9,-6.2 -0.8,-4.4 z m 0.6,7.3 c -1.3,0.5 -7.6,0.5 -5.4,2.2 4,-0.3 0.7,4.5 0.6,6.7 -0.4,2.9 -2.4,5.9 -1.2,8.8 2.7,1.7 5.6,-0.8 6.8,-3.2 1.6,-1.4 -0.5,-3 -1.2,-0.9 -0.4,0.8 -2.4,3.5 -2.6,1.8 1.1,-5 2.7,-9.9 3.9,-14.9 l -0.1,-0.5 h -0.9 z m -65.1,0.2 c -6.5,1.6 -10.5,9.5 -8.2,15.7 2.1,3.4 7.4,2.9 10.1,0.4 2,-0.2 3.6,-5.3 1,-3.4 -1.4,2 -4,4.2 -6.5,2.8 -2.2,-1.9 -1.9,-5.7 1.7,-5.3 3.1,-0.9 6.9,-2.1 8.1,-5.5 0.9,-2.7 -1.6,-5.2 -4.3,-4.8 h -1.1 -0.7 z m 13.6,0 c -2.2,0 -8.5,1.8 -2.9,2.3 0.9,1.9 -1,4.9 -1.1,7.2 -0.5,2.9 -1.4,5.7 -1.7,8.7 3.7,0.7 3.8,-2.6 4.4,-5.3 0.9,-3.3 1.6,-7 4.1,-9.5 2.4,1.6 6.8,-0.7 3.7,-3.4 -2.9,-0.5 -4.8,2.4 -6.2,4.3 0,-1.2 2.4,-5 -0.2,-4.3 z m 15.8,0 c -6.4,1.3 -9.6,9.1 -7.7,14.9 1.9,4 7.7,3.9 11,1.7 4.1,-3 6,-8.9 4.4,-13.7 -1.3,-3 -4.8,-3.2 -7.6,-3 z m 17,0 c -2.3,0 -8.8,1.9 -3,2.4 0.4,2.5 -1,5.7 -1.4,8.4 -0.7,2.4 -1.8,7.5 2.1,7.2 3.8,-0.1 6.5,-3.5 8.5,-6.3 2,-3.2 4.5,-7 3.3,-10.9 -3.7,-3 -3.6,2.6 -3.1,5.1 -0.7,3.8 -2.7,7.9 -6.2,9.8 -3.6,0.6 -1,-4.3 -0.8,-6.1 0.6,-3.2 1.6,-6.3 1.9,-9.5 -0.4,0 -0.8,0 -1.1,0 z m 30.6,0 c -6.3,1.2 -9.5,8.9 -7.8,14.7 1.5,4 7.2,4.2 10.5,2.4 4.6,-2.8 6.6,-9.3 4.8,-14.3 -1.4,-2.8 -4.8,-3 -7.5,-2.8 z m -75.4,1.7 c 2.1,1.5 0.2,4.7 -1.6,5.7 -1.1,0.4 -5.5,3.4 -4.6,0.7 0.8,-2.7 2.2,-6.2 5.3,-6.6 l 0.9,0.1 z m 30.8,0 c 2.6,1.5 1.3,5.2 0.8,7.6 -0.8,2.7 -1.9,5.9 -4.7,7.1 -5.1,0.8 -4,-5.8 -2.8,-8.8 1,-2.8 3,-6.8 6.7,-5.8 z m 47.1,-0.1 c 2.9,0.7 2,4.7 1.5,6.8 -0.7,3 -1.8,6.7 -5,8 -4.7,0.8 -4,-5.1 -3,-7.9 0.9,-3 2.7,-7.3 6.5,-6.8 z m -88.1,5.9 c -0.3,1.3 0.9,-0.6 0,0 z m -1.1,2.4 c -0.2,0.5 0.5,-0.1 0,0 z m -1.3,4.5 c -0.3,1.3 0.8,-0.2 0,0 z" />
                     <text y="41" x="201" fill="#00000" style="font-style:italic;font-weight:normal;font-size:30px;line-height:125%;font-family:Times;text-anchor:middle" xml:space="preserve">engraved with</text>
                  </g>
               </g>
            </g>
         </g>
      </g>
   </svg>
</svg>
