<?xml version="1.0" encoding="UTF-8" standalone="no"?>
<svg width="2100px" height="2970px" version="1.1" xmlns="http://www.w3.org/2000/svg" xmlns:xlink="http://www.w3.org/1999/xlink" xmlns:mei="http://www.music-encoding.org/ns/mei" overflow="visible">
   <desc>Engraved by Verovio 3.13.1</desc>
   <defs>
      <symbol id="E044-1onvij7" viewBox="0 0 1000 1000" overflow="inherit">
         <path transform="scale(1,-1)" d="M0 0c0 28 22 50 50 50s50 -22 50 -50s-22 -50 -50 -50s-50 22 -50 50z" />
      </symbol>
      <symbol id="E050-1onvij7" viewBox="0 0 1000 1000" overflow="inherit">
         <path transform="scale(1,-1)" d="M441 -245c-23 -4 -48 -6 -76 -6c-59 0 -102 7 -130 20c-88 42 -150 93 -187 154c-26 44 -43 103 -48 176c0 6 -1 13 -1 19c0 54 15 111 45 170c29 57 65 106 110 148s96 85 153 127c-3 16 -8 46 -13 92c-4 43 -5 73 -5 89c0 117 16 172 69 257c34 54 64 82 89 82 c21 0 43 -30 69 -92s39 -115 41 -159v-15c0 -109 -21 -162 -67 -241c-13 -20 -63 -90 -98 -118c-13 -9 -25 -19 -37 -29l31 -181c8 1 18 2 28 2c58 0 102 -12 133 -35c59 -43 92 -104 98 -184c1 -7 1 -15 1 -22c0 -123 -87 -209 -181 -248c8 -57 17 -110 25 -162 c5 -31 6 -58 6 -80c0 -30 -5 -53 -14 -70c-35 -64 -88 -99 -158 -103c-5 0 -11 -1 -16 -1c-37 0 -72 10 -108 27c-50 24 -77 59 -80 105v11c0 29 7 55 20 76c18 28 45 42 79 44h6c49 0 93 -42 97 -87v-9c0 -51 -34 -86 -105 -106c17 -24 51 -36 102 -36c62 0 116 43 140 85 c9 16 13 41 13 74c0 20 -1 42 -5 67c-8 53 -18 106 -26 159zM461 939c-95 0 -135 -175 -135 -286c0 -24 2 -48 5 -71c50 39 92 82 127 128c40 53 60 100 60 140v8c-4 53 -22 81 -55 81h-2zM406 119l54 -326c73 25 110 78 110 161c0 7 0 15 -1 23c-7 95 -57 142 -151 142h-12 zM382 117c-72 -2 -128 -47 -128 -120v-7c2 -46 43 -99 75 -115c-3 -2 -7 -5 -10 -10c-70 33 -116 88 -123 172v11c0 68 44 126 88 159c23 17 49 29 78 36l-29 170c-21 -13 -52 -37 -92 -73c-50 -44 -86 -84 -109 -119c-45 -69 -67 -130 -67 -182v-13c5 -68 35 -127 93 -176 s125 -73 203 -73c25 0 50 3 75 9c-19 111 -36 221 -54 331z" />
      </symbol>
      <symbol id="E081-1onvij7" viewBox="0 0 1000 1000" overflow="inherit">
         <path transform="scale(1,-1)" d="M68 -250v36c23 0 40 6 49 18c8 14 12 33 12 57v250l-82 -129l-27 13l107 255h128v-394c0 -24 5 -42 14 -53s25 -17 47 -17v-36h-248z" />
      </symbol>
      <symbol id="E082-1onvij7" viewBox="0 0 1000 1000" overflow="inherit">
         <path transform="scale(1,-1)" d="M124 -185c-18 0 -55 -14 -65 -65h-36l-3 30c0 25 6 45 18 63c11 19 22 30 39 43l121 82l37 29c15 11 27 29 38 54c12 24 18 47 18 70c0 40 -19 88 -94 88c-25 0 -32 0 -50 -8c-14 -5 -23 -12 -26 -22c3 -9 7 -15 10 -18l24 -17c12 -7 17 -11 27 -21c5 -7 7 -16 7 -27 c0 -12 0 -57 -79 -74c-30 0 -76 26 -76 94c0 66 81 135 197 135c72 0 181 -32 181 -150c0 -53 -32 -95 -113 -133l-91 -41c-26 -11 -45 -23 -57 -37l49 7c84 0 115 -41 148 -41c20 0 33 20 39 61h35c0 -152 -68 -168 -114 -168c-17 0 -65 0 -79 7h10l-28 17 c-49 37 -69 40 -87 42z" />
      </symbol>
      <symbol id="E083-1onvij7" viewBox="0 0 1000 1000" overflow="inherit">
         <path transform="scale(1,-1)" d="M208 250c97 0 177 -52 177 -116c0 -69 -40 -111 -118 -125c56 -5 125 -44 125 -116c0 -31 -10 -57 -31 -78c-19 -21 -45 -38 -78 -49l-50 -11c-15 -3 -36 -7 -55 -7c-50 0 -86 16 -113 38c-16 10 -23 18 -34 34c-7 13 -11 25 -11 38c0 43 27 83 68 83l3 -2 c61 0 75 -42 75 -70c0 -19 -24 -42 -26 -57c7 -17 20 -25 37 -25c44 0 94 29 94 78c0 75 -34 125 -138 125v36c84 0 131 22 131 98c0 54 -37 88 -87 88c-26 0 -43 -7 -51 -22c15 -22 44 -16 44 -70c0 -37 -37 -62 -71 -62c-22 0 -69 15 -69 76c0 79 101 116 178 116z" />
      </symbol>
      <symbol id="E084-1onvij7" viewBox="0 0 1000 1000" overflow="inherit">
         <path transform="scale(1,-1)" d="M20 -78c84 97 114 180 134 329h170c-13 -32 -82 -132 -99 -151l-84 -97c-33 -36 -59 -63 -80 -81h162v102l127 123v-225h57v-39h-57v-34c0 -43 19 -65 57 -65v-34h-244v36c48 0 60 26 60 70v27h-203v39z" />
      </symbol>
      <symbol id="E088-1onvij7" viewBox="0 0 1000 1000" overflow="inherit">
         <path transform="scale(1,-1)" d="M195 -214c76 0 88 58 90 68c0 34 -35 60 -57 73l-52 29c-21 10 -32 17 -34 20c-39 -33 -58 -54 -62 -92c5 -23 23 -98 115 -98zM301 135c0 61 -72 76 -113 76c-40 0 -77 -17 -77 -51c3 -21 15 -38 26 -50c17 -15 33 -26 48 -34l65 -28c34 27 51 56 51 87zM176 -250 c-57 0 -166 26 -166 132c0 47 30 86 89 116c-33 15 -79 60 -79 119c0 79 85 132 178 132h18c5 0 21 1 28 -1c25 0 126 -30 126 -110c0 -37 -23 -76 -69 -116c43 -25 83 -71 83 -119c0 -101 -118 -153 -208 -153z" />
      </symbol>
      <symbol id="E0A4-1onvij7" viewBox="0 0 1000 1000" overflow="inherit">
         <path transform="scale(1,-1)" d="M0 -39c0 68 73 172 200 172c66 0 114 -37 114 -95c0 -84 -106 -171 -218 -171c-64 0 -96 30 -96 94z" />
      </symbol>
      <symbol id="E240-1onvij7" viewBox="0 0 1000 1000" overflow="inherit">
         <path transform="scale(1,-1)" d="M179 -646c15 29 29 55 46 102c18 49 30 108 30 138c0 105 -80 173 -168 200c-18 5 -47 9 -87 16v190h22c8 0 33 -61 71 -95c4 -3 -2 3 61 -56c62 -58 122 -137 122 -241c0 -38 -13 -106 -35 -163c-20 -51 -43 -99 -66 -132c-6 -5 -10 -7 -13 -7s-5 2 -5 5l4 10 c1 3 14 25 18 33z" />
      </symbol>
      <symbol id="E241-1onvij7" viewBox="0 0 1000 1000" overflow="inherit">
         <path transform="scale(1,-1)" d="M179 646c-4 8 -17 30 -18 33l-4 10c0 3 2 5 5 5s7 -2 13 -7c23 -33 46 -81 66 -132c22 -57 35 -125 35 -163c0 -104 -60 -183 -122 -241c-63 -59 -57 -53 -61 -56c-38 -34 -63 -95 -71 -95h-22v190c40 7 69 11 87 16c88 27 168 95 168 200c0 30 -12 89 -30 138 c-17 47 -31 73 -46 102z" />
      </symbol>
      <symbol id="E56D-1onvij7" viewBox="0 0 1000 1000" overflow="inherit">
         <path transform="scale(1,-1)" d="M0 21v59l121 143c4 4 8 7 11 9s7 3 11 4c5 0 13 -6 25 -17l107 -94v184h30v-159l58 69c11 13 19 20 23 20l24 -16l84 -75l31 -25c3 1 7 5 13 12l14 15l34 44v-55l-106 -125c-8 -11 -16 -16 -23 -16c-3 1 -5 3 -7 4c-6 4 -12 9 -18 14l-78 70c-14 14 -25 21 -34 21l-5 -2 l-5 -5l-5 -6v-184h-30v149l-36 -45c-10 -11 -18 -16 -24 -16l-7 2l-10 8l-10 8l-88 80c-7 7 -14 11 -20 13c-3 0 -9 -4 -17 -13z" />
      </symbol>
   </defs>
   <style type="text/css">g.page-margin{font-family:Times;} g.ending, g.fing, g.reh, g.tempo{font-weight:bold;} g.dir, g.dynam, g.mNum{font-style:italic;} g.label{font-weight:normal;}</style>
   <svg class="definition-scale" color="black" viewBox="0 0 21000 29700">
      <g class="page-margin" transform="translate(500, 500)">
         <g id="m13lcui0" class="mdiv pageMilestone" />
         <g id="s13iouz4" class="score pageMilestone" />
         <g id="s1v899ju" class="system">
            <g id="ljh01d3" class="label">
               <text x="1105" y="1571" text-anchor="end" font-size="0px">
                  <tspan id="t1muiw0c" class="text">
                     <tspan font-size="405px" class="text">Piano</tspan>
                  </tspan>
               </text>
            </g>
            <g id="snvy8gy" class="section systemMilestone" />
            <g id="p1m4kb22" class="pb" />
            <g id="m1dwrz9a" class="measure">
               <g id="m1mudmm0" class="mNum">
                  <text x="1285" y="878" text-anchor="middle" font-size="0px" />
               </g>
               <g id="s1flfzsd" class="staff">
                  <path d="M1285 1121 L3172 1121" stroke="currentColor" stroke-width="13" />
                  <path d="M1285 1301 L3172 1301" stroke="currentColor" stroke-width="13" />
                  <path d="M1285 1481 L3172 1481" stroke="currentColor" stroke-width="13" />
                  <path d="M1285 1661 L3172 1661" stroke="currentColor" stroke-width="13" />
                  <path d="M1285 1841 L3172 1841" stroke="currentColor" stroke-width="13" />
                  <g id="c1dnim3b" class="clef">
                     <use xlink:href="#E050-1onvij7" x="1375" y="1661" height="720px" width="720px" />
                  </g>
                  <g id="k6f8a07" class="keySig" />
                  <g id="mtopg2d" class="meterSig">
                     <use xlink:href="#E082-1onvij7" x="2006" y="1301" height="720px" width="720px" />
                     <use xlink:href="#E084-1onvij7" x="2011" y="1661" height="720px" width="720px" />
                  </g>
                  <g id="l1frk4zg" class="layer">
                     <g id="nve9lqj" class="note">
                        <g class="notehead">
                           <use xlink:href="#E0A4-1onvij7" x="2583" y="1571" height="720px" width="720px" />
                        </g>
                        <g id="sc12g0e" class="stem">
                           <rect x="2791" y="941" height="602" width="18" />
                           <g id="fw8o4fw" class="flag">
                              <use xlink:href="#E240-1onvij7" x="2791" y="941" height="720px" width="720px" />
                           </g>
                        </g>
                     </g>
                  </g>
               </g>
               <g id="b1vo502q" class="barLine">
                  <path d="M3159 1121 L3159 1841" stroke="currentColor" stroke-width="27" />
               </g>
            </g>
            <g id="m6j3fud" class="measure">
               <g id="s16dskmg" class="staff">
                  <path d="M3172 1121 L5526 1121" stroke="currentColor" stroke-width="13" />
                  <path d="M3172 1301 L5526 1301" stroke="currentColor" stroke-width="13" />
                  <path d="M3172 1481 L5526 1481" stroke="currentColor" stroke-width="13" />
                  <path d="M3172 1661 L5526 1661" stroke="currentColor" stroke-width="13" />
                  <path d="M3172 1841 L5526 1841" stroke="currentColor" stroke-width="13" />
                  <g id="l1jpobo8" class="layer">
                     <g id="bthxs6o" class="beam">
                        <polygon points="3356,2066 3950,1976 3950,1886 3356,1976" />
                        <g id="nxxw2tt" class="note">
                           <g class="notehead">
                              <use xlink:href="#E0A4-1onvij7" x="3356" y="1481" height="720px" width="720px" />
                           </g>
                           <g id="s1vzz8tw" class="stem">
                              <rect x="3356" y="1509" height="539" width="18" />
                           </g>
                        </g>
                        <g id="n155nmow" class="note">
                           <g class="notehead">
                              <use xlink:href="#E0A4-1onvij7" x="3932" y="1391" height="720px" width="720px" />
                           </g>
                           <g id="s1mcmy2y" class="stem">
                              <rect x="3932" y="1419" height="539" width="18" />
                           </g>
                        </g>
                     </g>
                     <g id="n1p40a4r" class="note">
                        <g class="notehead">
                           <use xlink:href="#E0A4-1onvij7" x="4261" y="1481" height="540px" width="540px" />
                        </g>
                        <g id="sgtll5p" class="stem">
                           <rect x="4412" y="1031" height="429" width="18" />
                           <g id="f1kysc1e" class="flag">
                              <use xlink:href="#E240-1onvij7" x="4412" y="1031" height="540px" width="540px" />
                           </g>
                        </g>
                     </g>
                     <g id="n1qnzflo" class="note">
                        <g class="notehead">
                           <use xlink:href="#E0A4-1onvij7" x="4628" y="1571" height="720px" width="720px" />
                        </g>
                        <g id="s1fsyvf2" class="stem">
                           <rect x="4836" y="941" height="602" width="18" />
                        </g>
                     </g>
                  </g>
               </g>
               <g id="bem4ou8" class="barLine">
                  <path d="M5513 1121 L5513 1841" stroke="currentColor" stroke-width="27" />
               </g>
            </g>
            <g id="m1vb4q8p" class="measure">
               <g id="sd31dl0" class="staff">
                  <path d="M5526 1121 L8003 1121" stroke="currentColor" stroke-width="13" />
                  <path d="M5526 1301 L8003 1301" stroke="currentColor" stroke-width="13" />
                  <path d="M5526 1481 L8003 1481" stroke="currentColor" stroke-width="13" />
                  <path d="M5526 1661 L8003 1661" stroke="currentColor" stroke-width="13" />
                  <path d="M5526 1841 L8003 1841" stroke="currentColor" stroke-width="13" />
                  <g id="l1wn2i3x" class="layer">
                     <g id="bu93nqt" class="beam">
                        <polygon points="5918,896 6679,986 6679,1076 5918,986" />
                        <polygon points="6453,1096 6679,1121 6679,1211 6453,1186" />
                        <g id="nv9df9n" class="note">
                           <g class="notehead">
                              <use xlink:href="#E0A4-1onvij7" x="5710" y="1481" height="720px" width="720px" />
                           </g>
                           <g id="dcmbujq" class="dots">
                              <ellipse cx="6026" cy="1391" rx="36" ry="36" />
                           </g>
                           <g id="s7s5pqm" class="stem">
                              <rect x="5918" y="914" height="539" width="18" />
                           </g>
                        </g>
                        <g id="nj30jls" class="note">
                           <g class="notehead">
                              <use xlink:href="#E0A4-1onvij7" x="6453" y="1571" height="720px" width="720px" />
                           </g>
                           <g id="s1s2eei2" class="stem">
                              <rect x="6661" y="1004" height="539" width="18" />
                           </g>
                        </g>
                     </g>
                     <g id="beinsbn" class="beam">
                        <polygon points="7045,1031 7640,941 7640,1031 7045,1121" />
                        <g id="n1piy49v" class="note">
                           <g class="notehead">
                              <use xlink:href="#E0A4-1onvij7" x="6837" y="1661" height="720px" width="720px" />
                           </g>
                           <g id="s1ed2pyz" class="stem">
                              <rect x="7045" y="1049" height="584" width="18" />
                           </g>
                        </g>
                        <g id="n1t5qbbf" class="note">
                           <g class="notehead">
                              <use xlink:href="#E0A4-1onvij7" x="7414" y="1571" height="720px" width="720px" />
                           </g>
                           <g id="s13lckmg" class="stem">
                              <rect x="7622" y="959" height="584" width="18" />
                           </g>
                        </g>
                     </g>
                  </g>
               </g>
               <g id="mjji3i" class="mordent">
                  <use xlink:href="#E56D-1onvij7" x="5612" y="787" height="720px" width="720px" />
               </g>
               <g id="batvvt4" class="barLine">
                  <path d="M7990 1121 L7990 1841" stroke="currentColor" stroke-width="27" />
               </g>
            </g>
            <g id="m128nb1i" class="measure">
               <g id="s1woqtlw" class="staff">
                  <path d="M8003 1121 L10506 1121" stroke="currentColor" stroke-width="13" />
                  <path d="M8003 1301 L10506 1301" stroke="currentColor" stroke-width="13" />
                  <path d="M8003 1481 L10506 1481" stroke="currentColor" stroke-width="13" />
                  <path d="M8003 1661 L10506 1661" stroke="currentColor" stroke-width="13" />
                  <path d="M8003 1841 L10506 1841" stroke="currentColor" stroke-width="13" />
                  <g id="ltrz8ss" class="layer">
                     <g id="b2jztg5" class="beam">
                        <polygon points="8187,2066 8781,1976 8781,1886 8187,1976" />
                        <g id="nmvxoz2" class="note">
                           <g class="notehead">
                              <use xlink:href="#E0A4-1onvij7" x="8187" y="1481" height="720px" width="720px" />
                           </g>
                           <g id="s12rx7bu" class="stem">
                              <rect x="8187" y="1509" height="539" width="18" />
                           </g>
                        </g>
                        <g id="n1yb2psq" class="note">
                           <g class="notehead">
                              <use xlink:href="#E0A4-1onvij7" x="8763" y="1391" height="720px" width="720px" />
                           </g>
                           <g id="s1bjfsb9" class="stem">
                              <rect x="8763" y="1419" height="539" width="18" />
                           </g>
                        </g>
                     </g>
                     <g id="b1vnkj81" class="beam">
                        <polygon points="9548,896 10142,986 10142,1076 9548,986" />
                        <g id="n26ju4j" class="note">
                           <g class="notehead">
                              <use xlink:href="#E0A4-1onvij7" x="9340" y="1481" height="720px" width="720px" />
                           </g>
                           <g id="s689uer" class="stem">
                              <rect x="9548" y="914" height="539" width="18" />
                           </g>
                        </g>
                        <g id="nvp9zdm" class="note">
                           <g class="notehead">
                              <use xlink:href="#E0A4-1onvij7" x="9916" y="1571" height="720px" width="720px" />
                           </g>
                           <g id="s19v259r" class="stem">
                              <rect x="10124" y="1004" height="539" width="18" />
                           </g>
                        </g>
                     </g>
                  </g>
               </g>
               <g id="b1bjtgds" class="barLine">
                  <path d="M10493 1121 L10493 1841" stroke="currentColor" stroke-width="27" />
               </g>
            </g>
            <g id="m2b2w6m" class="measure">
               <g id="s137t9ah" class="staff">
                  <path d="M10506 1121 L12860 1121" stroke="currentColor" stroke-width="13" />
                  <path d="M10506 1301 L12860 1301" stroke="currentColor" stroke-width="13" />
                  <path d="M10506 1481 L12860 1481" stroke="currentColor" stroke-width="13" />
                  <path d="M10506 1661 L12860 1661" stroke="currentColor" stroke-width="13" />
                  <path d="M10506 1841 L12860 1841" stroke="currentColor" stroke-width="13" />
                  <g id="lcdos2m" class="layer">
                     <g id="b1umdamq" class="beam">
                        <polygon points="10690,2066 11284,1976 11284,1886 10690,1976" />
                        <g id="n6ncr7d" class="note">
                           <g class="notehead">
                              <use xlink:href="#E0A4-1onvij7" x="10690" y="1481" height="720px" width="720px" />
                           </g>
                           <g id="s2a67wg" class="stem">
                              <rect x="10690" y="1509" height="539" width="18" />
                           </g>
                        </g>
                        <g id="nbs8bi4" class="note">
                           <g class="notehead">
                              <use xlink:href="#E0A4-1onvij7" x="11266" y="1391" height="720px" width="720px" />
                           </g>
                           <g id="srwdtyu" class="stem">
                              <rect x="11266" y="1419" height="539" width="18" />
                           </g>
                        </g>
                     </g>
                     <g id="nrr3v40" class="note">
                        <g class="notehead">
                           <use xlink:href="#E0A4-1onvij7" x="11595" y="1481" height="540px" width="540px" />
                        </g>
                        <g id="s1v9a5zd" class="stem">
                           <rect x="11746" y="1031" height="429" width="18" />
                           <g id="f1pz9j7l" class="flag">
                              <use xlink:href="#E240-1onvij7" x="11746" y="1031" height="540px" width="540px" />
                           </g>
                        </g>
                     </g>
                     <g id="nc1h3ne" class="note">
                        <g class="notehead">
                           <use xlink:href="#E0A4-1onvij7" x="11962" y="1571" height="720px" width="720px" />
                        </g>
                        <g id="s1c9lchl" class="stem">
                           <rect x="12170" y="941" height="602" width="18" />
                        </g>
                     </g>
                  </g>
               </g>
               <g id="b1e6nr9q" class="barLine">
                  <path d="M12847 1121 L12847 1841" stroke="currentColor" stroke-width="27" />
               </g>
            </g>
            <g id="mq90ciw" class="measure">
               <g id="scp9yac" class="staff">
                  <path d="M12860 1121 L15337 1121" stroke="currentColor" stroke-width="13" />
                  <path d="M12860 1301 L15337 1301" stroke="currentColor" stroke-width="13" />
                  <path d="M12860 1481 L15337 1481" stroke="currentColor" stroke-width="13" />
                  <path d="M12860 1661 L15337 1661" stroke="currentColor" stroke-width="13" />
                  <path d="M12860 1841 L15337 1841" stroke="currentColor" stroke-width="13" />
                  <g id="l10syl3l" class="layer">
                     <g id="b1m8kwnv" class="beam">
                        <polygon points="13252,896 14013,986 14013,1076 13252,986" />
                        <polygon points="13787,1096 14013,1121 14013,1211 13787,1186" />
                        <g id="n1cjgz0r" class="note">
                           <g class="notehead">
                              <use xlink:href="#E0A4-1onvij7" x="13044" y="1481" height="720px" width="720px" />
                           </g>
                           <g id="d1v7wdm0" class="dots">
                              <ellipse cx="13360" cy="1391" rx="36" ry="36" />
                           </g>
                           <g id="sw9x1jl" class="stem">
                              <rect x="13252" y="914" height="539" width="18" />
                           </g>
                        </g>
                        <g id="ngx5t62" class="note">
                           <g class="notehead">
                              <use xlink:href="#E0A4-1onvij7" x="13787" y="1571" height="720px" width="720px" />
                           </g>
                           <g id="s1fnm2mb" class="stem">
                              <rect x="13995" y="1004" height="539" width="18" />
                           </g>
                        </g>
                     </g>
                     <g id="bukxeqi" class="beam">
                        <polygon points="14379,1031 14974,941 14974,1031 14379,1121" />
                        <g id="nfqd962" class="note">
                           <g class="notehead">
                              <use xlink:href="#E0A4-1onvij7" x="14171" y="1661" height="720px" width="720px" />
                           </g>
                           <g id="s1o9ia8j" class="stem">
                              <rect x="14379" y="1049" height="584" width="18" />
                           </g>
                        </g>
                        <g id="n19hxtiq" class="note">
                           <g class="notehead">
                              <use xlink:href="#E0A4-1onvij7" x="14748" y="1571" height="720px" width="720px" />
                           </g>
                           <g id="sqpz7qn" class="stem">
                              <rect x="14956" y="959" height="584" width="18" />
                           </g>
                        </g>
                     </g>
                  </g>
               </g>
               <g id="myzctuo" class="mordent">
                  <use xlink:href="#E56D-1onvij7" x="12946" y="787" height="720px" width="720px" />
               </g>
               <g id="bf5qzoq" class="barLine">
                  <path d="M15324 1121 L15324 1841" stroke="currentColor" stroke-width="27" />
               </g>
            </g>
            <g id="m154935b" class="measure">
               <g id="s1fz9511" class="staff">
                  <path d="M15337 1121 L17924 1121" stroke="currentColor" stroke-width="13" />
                  <path d="M15337 1301 L17924 1301" stroke="currentColor" stroke-width="13" />
                  <path d="M15337 1481 L17924 1481" stroke="currentColor" stroke-width="13" />
                  <path d="M15337 1661 L17924 1661" stroke="currentColor" stroke-width="13" />
                  <path d="M15337 1841 L17924 1841" stroke="currentColor" stroke-width="13" />
                  <g id="m956d48" class="meterSig">
                     <use xlink:href="#E083-1onvij7" x="15417" y="1301" height="720px" width="720px" />
                     <use xlink:href="#E088-1onvij7" x="15420" y="1661" height="720px" width="720px" />
                  </g>
                  <g id="lfr04kb" class="layer">
                     <g id="b1gx2ic9" class="beam">
                        <polygon points="15972,2066 16566,1976 16566,1886 15972,1976" />
                        <g id="n17bjmmj" class="note">
                           <g class="notehead">
                              <use xlink:href="#E0A4-1onvij7" x="15972" y="1481" height="720px" width="720px" />
                           </g>
                           <g id="s7eixig" class="stem">
                              <rect x="15972" y="1509" height="539" width="18" />
                           </g>
                        </g>
                        <g id="n5yi5z6" class="note">
                           <g class="notehead">
                              <use xlink:href="#E0A4-1onvij7" x="16548" y="1391" height="720px" width="720px" />
                           </g>
                           <g id="swes3rs" class="stem">
                              <rect x="16548" y="1419" height="539" width="18" />
                           </g>
                        </g>
                     </g>
                     <g id="n18mnsb0" class="note">
                        <g class="notehead">
                           <use xlink:href="#E0A4-1onvij7" x="17125" y="1571" height="720px" width="720px" />
                        </g>
                        <g id="sd9bti4" class="stem">
                           <rect x="17333" y="941" height="602" width="18" />
                           <g id="f87uf3k" class="flag">
                              <use xlink:href="#E240-1onvij7" x="17333" y="941" height="720px" width="720px" />
                           </g>
                        </g>
                     </g>
                  </g>
               </g>
               <g id="dm195a5" class="dir fine">
                  <text x="17701" y="813" text-anchor="end" font-size="0px">
                     <tspan id="r18001hv" class="rend">
                        <tspan id="tbx60wp" class="text">
                           <tspan font-size="405px" class="text">Fine</tspan>
                        </tspan>
                     </tspan>
                  </text>
               </g>
               <g id="b16s78ho" class="barLine">
                  <path d="M17749 1121 L17749 1841" stroke="currentColor" stroke-width="27" />
                  <path d="M17879 1121 L17879 1841" stroke="currentColor" stroke-width="90" />
                  <use xlink:href="#E044-1onvij7" x="17632" y="1391" height="720px" width="720px" />
                  <use xlink:href="#E044-1onvij7" x="17632" y="1571" height="720px" width="720px" />
               </g>
            </g>
            <g id="m1lgzvlv" class="measure">
               <g id="s13rwiek" class="staff">
                  <path d="M17924 1121 L20003 1121" stroke="currentColor" stroke-width="13" />
                  <path d="M17924 1301 L20003 1301" stroke="currentColor" stroke-width="13" />
                  <path d="M17924 1481 L20003 1481" stroke="currentColor" stroke-width="13" />
                  <path d="M17924 1661 L20003 1661" stroke="currentColor" stroke-width="13" />
                  <path d="M17924 1841 L20003 1841" stroke="currentColor" stroke-width="13" />
                  <g id="m11o7flg" class="meterSig">
                     <use xlink:href="#E081-1onvij7" x="18031" y="1301" height="720px" width="720px" />
                     <use xlink:href="#E088-1onvij7" x="18007" y="1661" height="720px" width="720px" />
                  </g>
                  <g id="l1jf3sfl" class="layer">
                     <g id="nwgy968" class="note">
                        <g class="notehead">
                           <use xlink:href="#E0A4-1onvij7" x="18944" y="1571" height="720px" width="720px" />
                        </g>
                        <g id="s59tadl" class="stem">
                           <rect x="19152" y="941" height="602" width="18" />
                           <g id="f1l8g0tt" class="flag">
                              <use xlink:href="#E240-1onvij7" x="19152" y="941" height="720px" width="720px" />
                           </g>
                        </g>
                     </g>
                  </g>
                  <g id="m1x44gef" class="meterSig">
                     <use xlink:href="#E082-1onvij7" x="19610" y="1301" height="720px" width="720px" />
                     <use xlink:href="#E084-1onvij7" x="19615" y="1661" height="720px" width="720px" />
                  </g>
               </g>
               <g id="b17hkjwr" class="barLine">
                  <path d="M18508 1121 L18508 1841" stroke="currentColor" stroke-width="90" />
                  <path d="M18638 1121 L18638 1841" stroke="currentColor" stroke-width="27" />
                  <use xlink:href="#E044-1onvij7" x="18684" y="1391" height="720px" width="720px" />
                  <use xlink:href="#E044-1onvij7" x="18684" y="1571" height="720px" width="720px" />
               </g>
               <g id="blt23d2" class="barLine">
                  <path d="M19521 1121 L19521 1841" stroke="currentColor" stroke-width="27" />
               </g>
            </g>
         </g>
         <g id="s1jtbg5h" class="system">
            <g id="lq74pmf" class="labelAbbr">
               <text x="914" y="3894" text-anchor="end" font-size="0px">
                  <tspan id="tw6ynv3" class="text">
                     <tspan font-size="405px" class="text">Pno.</tspan>
                  </tspan>
               </text>
            </g>
            <g id="mpdznzw" class="measure">
               <g id="m11ozfnn" class="mNum autogenerated">
                  <text x="1094" y="3201" text-anchor="middle" font-size="0px">
                     <tspan id="tw8v5wz" class="text">
                        <tspan font-size="324px" class="text">8</tspan>
                     </tspan>
                  </text>
               </g>
               <g id="s1kpqdbo" class="staff">
                  <path d="M1094 3444 L4665 3444" stroke="currentColor" stroke-width="13" />
                  <path d="M1094 3624 L4665 3624" stroke="currentColor" stroke-width="13" />
                  <path d="M1094 3804 L4665 3804" stroke="currentColor" stroke-width="13" />
                  <path d="M1094 3984 L4665 3984" stroke="currentColor" stroke-width="13" />
                  <path d="M1094 4164 L4665 4164" stroke="currentColor" stroke-width="13" />
                  <g id="czu9w7u" class="clef">
                     <use xlink:href="#E050-1onvij7" x="1184" y="3984" height="720px" width="720px" />
                  </g>
                  <g id="ku7z2rx" class="keySig" />
                  <g id="mopaa64" class="meterSig">
                     <use xlink:href="#E082-1onvij7" x="1815" y="3624" height="720px" width="720px" />
                     <use xlink:href="#E084-1onvij7" x="1820" y="3984" height="720px" width="720px" />
                  </g>
                  <g id="liny8p" class="layer">
                     <g id="b1ccc1zy" class="beam">
                        <polygon points="2388,4389 2972,4299 2972,4209 2388,4299" />
                        <g id="n13t2r9e" class="note">
                           <g class="notehead">
                              <use xlink:href="#E0A4-1onvij7" x="2388" y="3804" height="720px" width="720px" />
                           </g>
                           <g id="sqdtsye" class="stem">
                              <rect x="2388" y="3832" height="539" width="18" />
                           </g>
                        </g>
                        <g id="ntwdsuw" class="note">
                           <g class="notehead">
                              <use xlink:href="#E0A4-1onvij7" x="2954" y="3714" height="720px" width="720px" />
                           </g>
                           <g id="s6riwuc" class="stem">
                              <rect x="2954" y="3742" height="539" width="18" />
                           </g>
                        </g>
                     </g>
                     <g id="b1gsjpxj" class="beam">
                        <polygon points="3520,4389 4104,4209 4104,4119 3520,4299" />
                        <g id="nvrfmqn" class="note">
                           <g class="notehead">
                              <use xlink:href="#E0A4-1onvij7" x="3520" y="3804" height="720px" width="720px" />
                           </g>
                           <g id="sawe4zf" class="stem">
                              <rect x="3520" y="3832" height="539" width="18" />
                           </g>
                        </g>
                        <g id="n1v0v7j4" class="note">
                           <g class="notehead">
                              <use xlink:href="#E0A4-1onvij7" x="4086" y="3534" height="720px" width="720px" />
                           </g>
                           <g id="s1p4qi3a" class="stem">
                              <rect x="4086" y="3562" height="629" width="18" />
                           </g>
                        </g>
                     </g>
                  </g>
               </g>
               <g id="b158vba1" class="barLine">
                  <path d="M4652 3444 L4652 4164" stroke="currentColor" stroke-width="27" />
               </g>
            </g>
            <g id="seu0mn1" class="sb" />
            <g id="m16f4s91" class="measure">
               <g id="sgy0kqr" class="staff">
                  <path d="M4665 3444 L7097 3444" stroke="currentColor" stroke-width="13" />
                  <path d="M4665 3624 L7097 3624" stroke="currentColor" stroke-width="13" />
                  <path d="M4665 3804 L7097 3804" stroke="currentColor" stroke-width="13" />
                  <path d="M4665 3984 L7097 3984" stroke="currentColor" stroke-width="13" />
                  <path d="M4665 4164 L7097 4164" stroke="currentColor" stroke-width="13" />
                  <g id="l1gsdiu8" class="layer">
                     <g id="b9lnnm6" class="beam">
                        <polygon points="4845,4254 5593,4344 5593,4254 4845,4164" />
                        <polygon points="5367,4184 5593,4209 5593,4119 5367,4094" />
                        <g id="n7vj9dn" class="note">
                           <g class="notehead">
                              <use xlink:href="#E0A4-1onvij7" x="4845" y="3624" height="720px" width="720px" />
                           </g>
                           <g id="d1a51bif" class="dots">
                              <ellipse cx="5161" cy="3534" rx="36" ry="36" />
                           </g>
                           <g id="s1dzohb3" class="stem">
                              <rect x="4845" y="3652" height="584" width="18" />
                           </g>
                        </g>
                        <g id="n1vwgkzq" class="note">
                           <g class="notehead">
                              <use xlink:href="#E0A4-1onvij7" x="5575" y="3714" height="720px" width="720px" />
                           </g>
                           <g id="s1t3auns" class="stem">
                              <rect x="5575" y="3742" height="584" width="18" />
                           </g>
                        </g>
                     </g>
                     <g id="b1wuu4bl" class="beam">
                        <polygon points="6160,3219 6744,3309 6744,3399 6160,3309" />
                        <g id="n660gup" class="note">
                           <g class="notehead">
                              <use xlink:href="#E0A4-1onvij7" x="5952" y="3804" height="720px" width="720px" />
                           </g>
                           <g id="s1wqk6t4" class="stem">
                              <rect x="6160" y="3237" height="539" width="18" />
                           </g>
                        </g>
                        <g id="n1sr5z25" class="note">
                           <g class="notehead">
                              <use xlink:href="#E0A4-1onvij7" x="6518" y="3894" height="720px" width="720px" />
                           </g>
                           <g id="s1tsfbp5" class="stem">
                              <rect x="6726" y="3327" height="539" width="18" />
                           </g>
                        </g>
                     </g>
                  </g>
               </g>
               <g id="m1so6pr7" class="mordent">
                  <use xlink:href="#E56D-1onvij7" x="4747" y="3335" height="720px" width="720px" />
               </g>
               <g id="b7u9s0l" class="barLine">
                  <path d="M7084 3444 L7084 4164" stroke="currentColor" stroke-width="27" />
               </g>
            </g>
            <g id="mh7i79w" class="measure">
               <g id="s1nm65ud" class="staff">
                  <path d="M7097 3444 L9554 3444" stroke="currentColor" stroke-width="13" />
                  <path d="M7097 3624 L9554 3624" stroke="currentColor" stroke-width="13" />
                  <path d="M7097 3804 L9554 3804" stroke="currentColor" stroke-width="13" />
                  <path d="M7097 3984 L9554 3984" stroke="currentColor" stroke-width="13" />
                  <path d="M7097 4164 L9554 4164" stroke="currentColor" stroke-width="13" />
                  <g id="l19hhmhq" class="layer">
                     <g id="bjjv5k8" class="beam">
                        <polygon points="7277,4389 7861,4299 7861,4209 7277,4299" />
                        <g id="n3m7bt5" class="note">
                           <g class="notehead">
                              <use xlink:href="#E0A4-1onvij7" x="7277" y="3804" height="720px" width="720px" />
                           </g>
                           <g id="s6pchy1" class="stem">
                              <rect x="7277" y="3832" height="539" width="18" />
                           </g>
                        </g>
                        <g id="ngez0ez" class="note">
                           <g class="notehead">
                              <use xlink:href="#E0A4-1onvij7" x="7843" y="3714" height="720px" width="720px" />
                           </g>
                           <g id="s1bqrvt1" class="stem">
                              <rect x="7843" y="3742" height="539" width="18" />
                           </g>
                        </g>
                     </g>
                     <g id="b1ecd59y" class="beam">
                        <polygon points="8409,4389 8993,4209 8993,4119 8409,4299" />
                        <g id="na7s19s" class="note">
                           <g class="notehead">
                              <use xlink:href="#E0A4-1onvij7" x="8409" y="3804" height="720px" width="720px" />
                           </g>
                           <g id="sxyjahs" class="stem">
                              <rect x="8409" y="3832" height="539" width="18" />
                           </g>
                        </g>
                        <g id="n14vxhpk" class="note">
                           <g class="notehead">
                              <use xlink:href="#E0A4-1onvij7" x="8975" y="3534" height="720px" width="720px" />
                           </g>
                           <g id="s6cuh1y" class="stem">
                              <rect x="8975" y="3562" height="629" width="18" />
                           </g>
                        </g>
                     </g>
                  </g>
               </g>
               <g id="blih8z2" class="barLine">
                  <path d="M9541 3444 L9541 4164" stroke="currentColor" stroke-width="27" />
               </g>
            </g>
            <g id="m1wkztfb" class="measure">
               <g id="s8c1zja" class="staff">
                  <path d="M9554 3444 L12033 3444" stroke="currentColor" stroke-width="13" />
                  <path d="M9554 3624 L12033 3624" stroke="currentColor" stroke-width="13" />
                  <path d="M9554 3804 L12033 3804" stroke="currentColor" stroke-width="13" />
                  <path d="M9554 3984 L12033 3984" stroke="currentColor" stroke-width="13" />
                  <path d="M9554 4164 L12033 4164" stroke="currentColor" stroke-width="13" />
                  <g id="m1tw22hb" class="meterSig">
                     <use xlink:href="#E083-1onvij7" x="9634" y="3624" height="720px" width="720px" />
                     <use xlink:href="#E088-1onvij7" x="9637" y="3984" height="720px" width="720px" />
                  </g>
                  <g id="l1fbp5rw" class="layer">
                     <g id="b1t9kgc" class="beam">
                        <polygon points="10185,4254 10933,4344 10933,4254 10185,4164" />
                        <polygon points="10707,4184 10933,4209 10933,4119 10707,4094" />
                        <g id="n1cw1ok7" class="note">
                           <g class="notehead">
                              <use xlink:href="#E0A4-1onvij7" x="10185" y="3624" height="720px" width="720px" />
                           </g>
                           <g id="d18z5p67" class="dots">
                              <ellipse cx="10501" cy="3534" rx="36" ry="36" />
                           </g>
                           <g id="s1urgui9" class="stem">
                              <rect x="10185" y="3652" height="584" width="18" />
                           </g>
                        </g>
                        <g id="nrktip0" class="note">
                           <g class="notehead">
                              <use xlink:href="#E0A4-1onvij7" x="10915" y="3714" height="720px" width="720px" />
                           </g>
                           <g id="s1d8bx2v" class="stem">
                              <rect x="10915" y="3742" height="584" width="18" />
                           </g>
                        </g>
                     </g>
                     <g id="n1xvr8an" class="note">
                        <g class="notehead">
                           <use xlink:href="#E0A4-1onvij7" x="11292" y="3804" height="720px" width="720px" />
                        </g>
                        <g id="s1cqke5t" class="stem">
                           <rect x="11292" y="3832" height="572" width="18" />
                           <g id="f14mx8gh" class="flag">
                              <use xlink:href="#E241-1onvij7" x="11292" y="4404" height="720px" width="720px" />
                           </g>
                        </g>
                     </g>
                  </g>
               </g>
               <g id="m12c3poa" class="mordent">
                  <use xlink:href="#E56D-1onvij7" x="10087" y="3335" height="720px" width="720px" />
               </g>
               <g id="bzxiu5c" class="barLine">
                  <path d="M11858 3444 L11858 4164" stroke="currentColor" stroke-width="27" />
                  <path d="M11988 3444 L11988 4164" stroke="currentColor" stroke-width="90" />
               </g>
            </g>
            <g id="s1naqibz" class="systemMilestoneEnd snvy8gy" />
         </g>
         <g id="p1fso5lh" class="pageMilestoneEnd s13iouz4" />
         <g id="pdgvk4k" class="pageMilestoneEnd m13lcui0" />
         <g id="p11g3an1" class="pgHead">
            <text x="0" y="0" font-size="0px">
               <tspan id="r160jcy8" class="rend" x="10000" y="278" text-anchor="middle">
                  <tspan id="tto8zs7" class="text">
                     <tspan font-size="405px" class="text">Air n 196</tspan>
                  </tspan>
               </tspan>
            </text>
         </g>
         <g id="p1wmtafu" class="pgFoot autogenerated">
            <g id="f1fhzx54" class="fig">
               <g id="s1hb7jsg" class="svg" transform="translate(7750, 28099) scale(10, 10)">
                  <g>
                     <path fill="#00000" d="M 17.11278,49.26451 V 10.367554 h 12.696511 c 3.288815,7.336676 6.71267,14.610456 10.127281,21.888976 3.419998,-7.484684 6.255515,-14.204887 9.58887,-21.909915 2.436207,0.103726 4.316952,0.08453 6.484294,-0.05808 V 49.264423 H 50.274275 C 50.145222,38.35639 50.016136,27.448368 49.887066,16.540329 45.003488,27.315459 39.967448,38.433564 35.083854,49.208695 34.678996,49.343717 34.426583,49.135619 34.021726,49.270644 29.46588,39.330716 24.910049,29.390805 20.354201,19.450876 20.224341,29.388756 20.09461,39.326619 19.964815,49.264497 H 17.11278 Z M 36.754144,39.324695 C 32.721221,30.512695 28.6883,21.700679 24.655394,12.888662 22.530527,12.750737 22.656775,12.71031 20.714356,12.813974 v 0.966497 c 4.612938,9.99784 9.609439,20.748709 13.87298,30.081745 0.722248,-1.512523 1.444528,-3.025014 2.166808,-4.537521 z m 25.738417,9.939815 c 0,-12.965651 0,-25.931305 0,-38.896956 10.084388,0 20.168791,0 30.253178,0 0,0.960416 0,1.920849 0,2.881265 -6.482825,0 -12.965652,0 -19.448478,0 0,4.802097 0,9.604178 0,14.406277 5.52241,0 11.044819,0 16.567229,0 0,0.960415 0,1.920832 0,2.881248 -5.52241,0 -11.044819,0 -16.567229,0 0,5.282306 0,10.564611 0,15.846917 6.963035,0 13.926068,0 20.889103,0 0,0.960416 0,1.920832 0,2.881249 -10.564597,0 -21.129207,0 -31.693803,0 z m 4.321874,-2.160937 c 0,-11.765131 0,-23.530263 0,-35.295394 -0.720312,0 -1.440625,0 -2.160937,0 0,11.765131 0,23.530263 0,35.295394 0.720312,0 1.440625,0 2.160937,0 z m 32.41413,2.160937 c 0,-12.965651 0,-25.931305 0,-38.896956 2.401045,0 4.802095,0 7.203135,0 0,12.965651 0,25.931305 0,38.896956 -2.40104,0 -4.80209,0 -7.203135,0 z m 2.881265,-2.160937 c 0,-11.765131 0,-23.530263 0,-35.295394 -0.72031,0 -1.44064,0 -2.160953,0 0,11.765131 0,23.530263 0,35.295394 0.720313,0 1.440643,0 2.160953,0 z" />
                     <path fill="#00000" d="m 346.3,6.7 c -3.1,0.5 -4.9,4.4 -2.7,6.8 1.2,1.4 2.7,2.4 4.1,3.5 -2.4,5.3 -7.7,8.3 -11.9,12.1 -3.7,2.8 -7,6.2 -9.7,9.9 -2.2,-0.8 -0.3,-6.8 -0.6,-9.5 0.1,-3.1 0.7,-6.4 2.9,-8.7 1.3,-1.9 3,-3.5 4.5,-5.2 1.2,-3.4 -3.2,-4.9 -5.8,-4.6 -7.3,-0.5 -14.6,2 -20,6.8 -5,4.6 -10,10.1 -11.5,17 -0.9,3.5 -0.2,7.5 2.8,9.9 2.5,2.8 7.4,2.9 9.8,-0.2 1.7,-2.3 3.2,-4.8 3.8,-7.6 -0.1,-2.6 -4.4,-2.3 -4.3,0.2 1.2,2.4 -0.9,4.7 -2.7,6.2 -1.7,0.9 -4.7,0.7 -4.8,-1.7 -1,-5.8 2.1,-11.3 5.2,-16.1 4,-5.8 9.8,-11.2 17.2,-11.8 1.6,0 8.1,-1.2 6.8,1.4 -2.8,2.8 -5.6,6.1 -6,10.3 -1.6,7.7 0.1,15.7 -2.3,23.2 -1.1,3.9 2,2.6 2.5,0.2 3.3,-7.4 8.9,-13.4 15.1,-18.5 4.2,-3.9 9.5,-7.1 11.9,-12.6 1.3,-3.6 1.2,-9 -2.7,-10.9 -0.6,-0.2 -1.2,-0.3 -1.8,-0.3 z m 66,14.5 c -2,0.8 -1.8,4.9 0.8,4.4 3.4,0.4 2.9,-6.2 -0.8,-4.4 z m 0.6,7.3 c -1.3,0.5 -7.6,0.5 -5.4,2.2 4,-0.3 0.7,4.5 0.6,6.7 -0.4,2.9 -2.4,5.9 -1.2,8.8 2.7,1.7 5.6,-0.8 6.8,-3.2 1.6,-1.4 -0.5,-3 -1.2,-0.9 -0.4,0.8 -2.4,3.5 -2.6,1.8 1.1,-5 2.7,-9.9 3.9,-14.9 l -0.1,-0.5 h -0.9 z m -65.1,0.2 c -6.5,1.6 -10.5,9.5 -8.2,15.7 2.1,3.4 7.4,2.9 10.1,0.4 2,-0.2 3.6,-5.3 1,-3.4 -1.4,2 -4,4.2 -6.5,2.8 -2.2,-1.9 -1.9,-5.7 1.7,-5.3 3.1,-0.9 6.9,-2.1 8.1,-5.5 0.9,-2.7 -1.6,-5.2 -4.3,-4.8 h -1.1 -0.7 z m 13.6,0 c -2.2,0 -8.5,1.8 -2.9,2.3 0.9,1.9 -1,4.9 -1.1,7.2 -0.5,2.9 -1.4,5.7 -1.7,8.7 3.7,0.7 3.8,-2.6 4.4,-5.3 0.9,-3.3 1.6,-7 4.1,-9.5 2.4,1.6 6.8,-0.7 3.7,-3.4 -2.9,-0.5 -4.8,2.4 -6.2,4.3 0,-1.2 2.4,-5 -0.2,-4.3 z m 15.8,0 c -6.4,1.3 -9.6,9.1 -7.7,14.9 1.9,4 7.7,3.9 11,1.7 4.1,-3 6,-8.9 4.4,-13.7 -1.3,-3 -4.8,-3.2 -7.6,-3 z m 17,0 c -2.3,0 -8.8,1.9 -3,2.4 0.4,2.5 -1,5.7 -1.4,8.4 -0.7,2.4 -1.8,7.5 2.1,7.2 3.8,-0.1 6.5,-3.5 8.5,-6.3 2,-3.2 4.5,-7 3.3,-10.9 -3.7,-3 -3.6,2.6 -3.1,5.1 -0.7,3.8 -2.7,7.9 -6.2,9.8 -3.6,0.6 -1,-4.3 -0.8,-6.1 0.6,-3.2 1.6,-6.3 1.9,-9.5 -0.4,0 -0.8,0 -1.1,0 z m 30.6,0 c -6.3,1.2 -9.5,8.9 -7.8,14.7 1.5,4 7.2,4.2 10.5,2.4 4.6,-2.8 6.6,-9.3 4.8,-14.3 -1.4,-2.8 -4.8,-3 -7.5,-2.8 z m -75.4,1.7 c 2.1,1.5 0.2,4.7 -1.6,5.7 -1.1,0.4 -5.5,3.4 -4.6,0.7 0.8,-2.7 2.2,-6.2 5.3,-6.6 l 0.9,0.1 z m 30.8,0 c 2.6,1.5 1.3,5.2 0.8,7.6 -0.8,2.7 -1.9,5.9 -4.7,7.1 -5.1,0.8 -4,-5.8 -2.8,-8.8 1,-2.8 3,-6.8 6.7,-5.8 z m 47.1,-0.1 c 2.9,0.7 2,4.7 1.5,6.8 -0.7,3 -1.8,6.7 -5,8 -4.7,0.8 -4,-5.1 -3,-7.9 0.9,-3 2.7,-7.3 6.5,-6.8 z m -88.1,5.9 c -0.3,1.3 0.9,-0.6 0,0 z m -1.1,2.4 c -0.2,0.5 0.5,-0.1 0,0 z m -1.3,4.5 c -0.3,1.3 0.8,-0.2 0,0 z" />
                     <text y="41" x="201" fill="#00000" style="font-style:italic;font-weight:normal;font-size:30px;line-height:125%;font-family:Times;text-anchor:middle" xml:space="preserve">engraved with</text>
                  </g>
               </g>
            </g>
         </g>
      </g>
   </svg>
</svg>
