<?xml version="1.0" encoding="UTF-8" standalone="no"?>
<svg width="2100px" height="2970px" version="1.1" xmlns="http://www.w3.org/2000/svg" xmlns:xlink="http://www.w3.org/1999/xlink" xmlns:mei="http://www.music-encoding.org/ns/mei" overflow="visible">
   <desc>Engraved by Verovio 3.13.1</desc>
   <defs>
      <symbol id="E044-pzhs79" viewBox="0 0 1000 1000" overflow="inherit">
         <path transform="scale(1,-1)" d="M0 0c0 28 22 50 50 50s50 -22 50 -50s-22 -50 -50 -50s-50 22 -50 50z" />
      </symbol>
      <symbol id="E050-pzhs79" viewBox="0 0 1000 1000" overflow="inherit">
         <path transform="scale(1,-1)" d="M441 -245c-23 -4 -48 -6 -76 -6c-59 0 -102 7 -130 20c-88 42 -150 93 -187 154c-26 44 -43 103 -48 176c0 6 -1 13 -1 19c0 54 15 111 45 170c29 57 65 106 110 148s96 85 153 127c-3 16 -8 46 -13 92c-4 43 -5 73 -5 89c0 117 16 172 69 257c34 54 64 82 89 82 c21 0 43 -30 69 -92s39 -115 41 -159v-15c0 -109 -21 -162 -67 -241c-13 -20 -63 -90 -98 -118c-13 -9 -25 -19 -37 -29l31 -181c8 1 18 2 28 2c58 0 102 -12 133 -35c59 -43 92 -104 98 -184c1 -7 1 -15 1 -22c0 -123 -87 -209 -181 -248c8 -57 17 -110 25 -162 c5 -31 6 -58 6 -80c0 -30 -5 -53 -14 -70c-35 -64 -88 -99 -158 -103c-5 0 -11 -1 -16 -1c-37 0 -72 10 -108 27c-50 24 -77 59 -80 105v11c0 29 7 55 20 76c18 28 45 42 79 44h6c49 0 93 -42 97 -87v-9c0 -51 -34 -86 -105 -106c17 -24 51 -36 102 -36c62 0 116 43 140 85 c9 16 13 41 13 74c0 20 -1 42 -5 67c-8 53 -18 106 -26 159zM461 939c-95 0 -135 -175 -135 -286c0 -24 2 -48 5 -71c50 39 92 82 127 128c40 53 60 100 60 140v8c-4 53 -22 81 -55 81h-2zM406 119l54 -326c73 25 110 78 110 161c0 7 0 15 -1 23c-7 95 -57 142 -151 142h-12 zM382 117c-72 -2 -128 -47 -128 -120v-7c2 -46 43 -99 75 -115c-3 -2 -7 -5 -10 -10c-70 33 -116 88 -123 172v11c0 68 44 126 88 159c23 17 49 29 78 36l-29 170c-21 -13 -52 -37 -92 -73c-50 -44 -86 -84 -109 -119c-45 -69 -67 -130 -67 -182v-13c5 -68 35 -127 93 -176 s125 -73 203 -73c25 0 50 3 75 9c-19 111 -36 221 -54 331z" />
      </symbol>
      <symbol id="E081-pzhs79" viewBox="0 0 1000 1000" overflow="inherit">
         <path transform="scale(1,-1)" d="M68 -250v36c23 0 40 6 49 18c8 14 12 33 12 57v250l-82 -129l-27 13l107 255h128v-394c0 -24 5 -42 14 -53s25 -17 47 -17v-36h-248z" />
      </symbol>
      <symbol id="E082-pzhs79" viewBox="0 0 1000 1000" overflow="inherit">
         <path transform="scale(1,-1)" d="M124 -185c-18 0 -55 -14 -65 -65h-36l-3 30c0 25 6 45 18 63c11 19 22 30 39 43l121 82l37 29c15 11 27 29 38 54c12 24 18 47 18 70c0 40 -19 88 -94 88c-25 0 -32 0 -50 -8c-14 -5 -23 -12 -26 -22c3 -9 7 -15 10 -18l24 -17c12 -7 17 -11 27 -21c5 -7 7 -16 7 -27 c0 -12 0 -57 -79 -74c-30 0 -76 26 -76 94c0 66 81 135 197 135c72 0 181 -32 181 -150c0 -53 -32 -95 -113 -133l-91 -41c-26 -11 -45 -23 -57 -37l49 7c84 0 115 -41 148 -41c20 0 33 20 39 61h35c0 -152 -68 -168 -114 -168c-17 0 -65 0 -79 7h10l-28 17 c-49 37 -69 40 -87 42z" />
      </symbol>
      <symbol id="E084-pzhs79" viewBox="0 0 1000 1000" overflow="inherit">
         <path transform="scale(1,-1)" d="M20 -78c84 97 114 180 134 329h170c-13 -32 -82 -132 -99 -151l-84 -97c-33 -36 -59 -63 -80 -81h162v102l127 123v-225h57v-39h-57v-34c0 -43 19 -65 57 -65v-34h-244v36c48 0 60 26 60 70v27h-203v39z" />
      </symbol>
      <symbol id="E0A4-pzhs79" viewBox="0 0 1000 1000" overflow="inherit">
         <path transform="scale(1,-1)" d="M0 -39c0 68 73 172 200 172c66 0 114 -37 114 -95c0 -84 -106 -171 -218 -171c-64 0 -96 30 -96 94z" />
      </symbol>
   </defs>
   <style type="text/css">g.page-margin{font-family:Times;} g.ending, g.fing, g.reh, g.tempo{font-weight:bold;} g.dir, g.dynam, g.mNum{font-style:italic;} g.label{font-weight:normal;}</style>
   <svg class="definition-scale" color="black" viewBox="0 0 21000 29700">
      <g class="page-margin" transform="translate(500, 500)">
         <g id="m13rsmlk" class="mdiv pageMilestone" />
         <g id="s1jjfg1o" class="score pageMilestone" />
         <g id="svne6pf" class="system">
            <g id="lzsohz8" class="label">
               <text x="1105" y="1535" text-anchor="end" font-size="0px">
                  <tspan id="txlxv6" class="text">
                     <tspan font-size="405px" class="text">Piano</tspan>
                  </tspan>
               </text>
            </g>
            <g id="s1x9n7xc" class="section systemMilestone" />
            <g id="p1w511z7" class="pb" />
            <g id="m1mzvwd" class="measure">
               <g id="m1xeesfg" class="mNum">
                  <text x="1285" y="842" text-anchor="middle" font-size="0px" />
               </g>
               <g id="s1bpvz21" class="staff">
                  <path d="M1285 1085 L3810 1085" stroke="currentColor" stroke-width="13" />
                  <path d="M1285 1265 L3810 1265" stroke="currentColor" stroke-width="13" />
                  <path d="M1285 1445 L3810 1445" stroke="currentColor" stroke-width="13" />
                  <path d="M1285 1625 L3810 1625" stroke="currentColor" stroke-width="13" />
                  <path d="M1285 1805 L3810 1805" stroke="currentColor" stroke-width="13" />
                  <g id="c17wg099" class="clef">
                     <use xlink:href="#E050-pzhs79" x="1375" y="1625" height="720px" width="720px" />
                  </g>
                  <g id="k16fih4v" class="keySig" />
                  <g id="m4i32o9" class="meterSig">
                     <use xlink:href="#E082-pzhs79" x="2006" y="1265" height="720px" width="720px" />
                     <use xlink:href="#E084-pzhs79" x="2011" y="1625" height="720px" width="720px" />
                  </g>
                  <g id="l19opb9e" class="layer">
                     <g id="b19idmah" class="beam">
                        <polygon points="2581,2075 3207,1895 3207,1805 2581,1985" />
                        <g id="nq24pns" class="note">
                           <g class="notehead">
                              <use xlink:href="#E0A4-pzhs79" x="2581" y="1535" height="720px" width="720px" />
                           </g>
                           <g id="sf020d" class="stem">
                              <rect x="2581" y="1563" height="494" width="18" />
                           </g>
                        </g>
                        <g id="n1up3mo4" class="note">
                           <g class="notehead">
                              <use xlink:href="#E0A4-pzhs79" x="3189" y="1355" height="720px" width="720px" />
                           </g>
                           <g id="s3rdm68" class="stem">
                              <rect x="3189" y="1383" height="494" width="18" />
                           </g>
                        </g>
                     </g>
                  </g>
               </g>
               <g id="b109v09u" class="barLine">
                  <path d="M3797 1085 L3797 1805" stroke="currentColor" stroke-width="27" />
               </g>
            </g>
            <g id="mk9mqvc" class="measure">
               <g id="s3es6zf" class="staff">
                  <path d="M3810 1085 L6437 1085" stroke="currentColor" stroke-width="13" />
                  <path d="M3810 1265 L6437 1265" stroke="currentColor" stroke-width="13" />
                  <path d="M3810 1445 L6437 1445" stroke="currentColor" stroke-width="13" />
                  <path d="M3810 1625 L6437 1625" stroke="currentColor" stroke-width="13" />
                  <path d="M3810 1805 L6437 1805" stroke="currentColor" stroke-width="13" />
                  <g id="l14q9yx" class="layer">
                     <g id="bxiqbvz" class="beam">
                        <polygon points="3992,2030 4618,1940 4618,1850 3992,1940" />
                        <g id="n2yjzfj" class="note">
                           <g class="notehead">
                              <use xlink:href="#E0A4-pzhs79" x="3992" y="1445" height="720px" width="720px" />
                           </g>
                           <g id="s1la9smt" class="stem">
                              <rect x="3992" y="1473" height="539" width="18" />
                           </g>
                        </g>
                        <g id="n1gwocmt" class="note">
                           <g class="notehead">
                              <use xlink:href="#E0A4-pzhs79" x="4600" y="1355" height="720px" width="720px" />
                           </g>
                           <g id="s5thlu9" class="stem">
                              <rect x="4600" y="1383" height="539" width="18" />
                           </g>
                        </g>
                     </g>
                     <g id="bkaw3rn" class="beam">
                        <polygon points="5208,2075 5834,1895 5834,1805 5208,1985" />
                        <g id="nuikxf9" class="note">
                           <g class="notehead">
                              <use xlink:href="#E0A4-pzhs79" x="5208" y="1535" height="720px" width="720px" />
                           </g>
                           <g id="sibi5qf" class="stem">
                              <rect x="5208" y="1563" height="494" width="18" />
                           </g>
                        </g>
                        <g id="n1izx55d" class="note">
                           <g class="notehead">
                              <use xlink:href="#E0A4-pzhs79" x="5816" y="1355" height="720px" width="720px" />
                           </g>
                           <g id="snoj8qn" class="stem">
                              <rect x="5816" y="1383" height="494" width="18" />
                           </g>
                        </g>
                     </g>
                  </g>
               </g>
               <g id="b1oe6wio" class="barLine">
                  <path d="M6424 1085 L6424 1805" stroke="currentColor" stroke-width="27" />
               </g>
            </g>
            <g id="m15hk4w0" class="measure">
               <g id="s1t0ektr" class="staff">
                  <path d="M6437 1085 L8781 1085" stroke="currentColor" stroke-width="13" />
                  <path d="M6437 1265 L8781 1265" stroke="currentColor" stroke-width="13" />
                  <path d="M6437 1445 L8781 1445" stroke="currentColor" stroke-width="13" />
                  <path d="M6437 1625 L8781 1625" stroke="currentColor" stroke-width="13" />
                  <path d="M6437 1805 L8781 1805" stroke="currentColor" stroke-width="13" />
                  <g id="l1jexwse" class="layer">
                     <g id="n7ppyae" class="note">
                        <g class="notehead">
                           <use xlink:href="#E0A4-pzhs79" x="6619" y="1445" height="720px" width="720px" />
                        </g>
                        <g id="svhq902" class="stem">
                           <rect x="6619" y="1473" height="572" width="18" />
                        </g>
                     </g>
                     <g id="b19f3fmm" class="beam">
                        <polygon points="7552,2075 8178,1895 8178,1805 7552,1985" />
                        <g id="n7yix5l" class="note">
                           <g class="notehead">
                              <use xlink:href="#E0A4-pzhs79" x="7552" y="1535" height="720px" width="720px" />
                           </g>
                           <g id="sy3kba9" class="stem">
                              <rect x="7552" y="1563" height="494" width="18" />
                           </g>
                        </g>
                        <g id="n1ft4jpe" class="note">
                           <g class="notehead">
                              <use xlink:href="#E0A4-pzhs79" x="8160" y="1355" height="720px" width="720px" />
                           </g>
                           <g id="s1wpxsgz" class="stem">
                              <rect x="8160" y="1383" height="494" width="18" />
                           </g>
                        </g>
                     </g>
                  </g>
               </g>
               <g id="b15aykiv" class="barLine">
                  <path d="M8768 1085 L8768 1805" stroke="currentColor" stroke-width="27" />
               </g>
            </g>
            <g id="mv0axru" class="measure">
               <g id="s14s4ekm" class="staff">
                  <path d="M8781 1085 L11408 1085" stroke="currentColor" stroke-width="13" />
                  <path d="M8781 1265 L11408 1265" stroke="currentColor" stroke-width="13" />
                  <path d="M8781 1445 L11408 1445" stroke="currentColor" stroke-width="13" />
                  <path d="M8781 1625 L11408 1625" stroke="currentColor" stroke-width="13" />
                  <path d="M8781 1805 L11408 1805" stroke="currentColor" stroke-width="13" />
                  <g id="l17zdd0u" class="layer">
                     <g id="b6j8e7r" class="beam">
                        <polygon points="8963,2030 9589,1940 9589,1850 8963,1940" />
                        <g id="nwft6im" class="note">
                           <g class="notehead">
                              <use xlink:href="#E0A4-pzhs79" x="8963" y="1445" height="720px" width="720px" />
                           </g>
                           <g id="sc8aek8" class="stem">
                              <rect x="8963" y="1473" height="539" width="18" />
                           </g>
                        </g>
                        <g id="n5j44ne" class="note">
                           <g class="notehead">
                              <use xlink:href="#E0A4-pzhs79" x="9571" y="1355" height="720px" width="720px" />
                           </g>
                           <g id="s4k12sd" class="stem">
                              <rect x="9571" y="1383" height="539" width="18" />
                           </g>
                        </g>
                     </g>
                     <g id="blmbmm1" class="beam">
                        <polygon points="10179,2075 10805,1895 10805,1805 10179,1985" />
                        <g id="n1sc2rkc" class="note">
                           <g class="notehead">
                              <use xlink:href="#E0A4-pzhs79" x="10179" y="1535" height="720px" width="720px" />
                           </g>
                           <g id="s1bvmb09" class="stem">
                              <rect x="10179" y="1563" height="494" width="18" />
                           </g>
                        </g>
                        <g id="nfhaum4" class="note">
                           <g class="notehead">
                              <use xlink:href="#E0A4-pzhs79" x="10787" y="1355" height="720px" width="720px" />
                           </g>
                           <g id="scvvwt4" class="stem">
                              <rect x="10787" y="1383" height="494" width="18" />
                           </g>
                        </g>
                     </g>
                  </g>
               </g>
               <g id="b1kjt0ai" class="barLine">
                  <path d="M11395 1085 L11395 1805" stroke="currentColor" stroke-width="27" />
               </g>
            </g>
            <g id="m1h0ijqg" class="measure">
               <g id="s1gm3xoe" class="staff">
                  <path d="M11408 1085 L13156 1085" stroke="currentColor" stroke-width="13" />
                  <path d="M11408 1265 L13156 1265" stroke="currentColor" stroke-width="13" />
                  <path d="M11408 1445 L13156 1445" stroke="currentColor" stroke-width="13" />
                  <path d="M11408 1625 L13156 1625" stroke="currentColor" stroke-width="13" />
                  <path d="M11408 1805 L13156 1805" stroke="currentColor" stroke-width="13" />
                  <g id="m1pbjf1o" class="meterSig">
                     <use xlink:href="#E081-pzhs79" x="11517" y="1265" height="720px" width="720px" />
                     <use xlink:href="#E084-pzhs79" x="11484" y="1625" height="720px" width="720px" />
                  </g>
                  <g id="lucf5ek" class="layer">
                     <g id="nsf2f3g" class="note">
                        <g class="notehead">
                           <use xlink:href="#E0A4-pzhs79" x="12048" y="1445" height="720px" width="720px" />
                        </g>
                        <g id="s1lcirw4" class="stem">
                           <rect x="12048" y="1473" height="572" width="18" />
                        </g>
                     </g>
                  </g>
               </g>
               <g id="b1nuf4hv" class="barLine">
                  <path d="M12981 1085 L12981 1805" stroke="currentColor" stroke-width="27" />
                  <path d="M13111 1085 L13111 1805" stroke="currentColor" stroke-width="90" />
                  <use xlink:href="#E044-pzhs79" x="12864" y="1355" height="720px" width="720px" />
                  <use xlink:href="#E044-pzhs79" x="12864" y="1535" height="720px" width="720px" />
               </g>
            </g>
            <g id="murfraf" class="measure">
               <g id="s1dxdx89" class="staff">
                  <path d="M13156 1085 L14567 1085" stroke="currentColor" stroke-width="13" />
                  <path d="M13156 1265 L14567 1265" stroke="currentColor" stroke-width="13" />
                  <path d="M13156 1445 L14567 1445" stroke="currentColor" stroke-width="13" />
                  <path d="M13156 1625 L14567 1625" stroke="currentColor" stroke-width="13" />
                  <path d="M13156 1805 L14567 1805" stroke="currentColor" stroke-width="13" />
                  <g id="l1wocgyl" class="layer">
                     <g id="b1j9wtpn" class="beam">
                        <polygon points="13338,1805 13964,1895 13964,1805 13338,1715" />
                        <g id="nyqtxg2" class="note">
                           <g class="notehead">
                              <use xlink:href="#E0A4-pzhs79" x="13338" y="1175" height="720px" width="720px" />
                           </g>
                           <g id="s194nhjf" class="stem">
                              <rect x="13338" y="1203" height="584" width="18" />
                           </g>
                        </g>
                        <g id="nnbi078" class="note">
                           <g class="notehead">
                              <use xlink:href="#E0A4-pzhs79" x="13946" y="1265" height="720px" width="720px" />
                           </g>
                           <g id="s1863fov" class="stem">
                              <rect x="13946" y="1293" height="584" width="18" />
                           </g>
                        </g>
                     </g>
                  </g>
               </g>
               <g id="b1x84hsb" class="barLine">
                  <path d="M14554 1085 L14554 1805" stroke="currentColor" stroke-width="27" />
               </g>
            </g>
            <g id="myqxdf" class="measure">
               <g id="s1la4jgh" class="staff">
                  <path d="M14567 1085 L17380 1085" stroke="currentColor" stroke-width="13" />
                  <path d="M14567 1265 L17380 1265" stroke="currentColor" stroke-width="13" />
                  <path d="M14567 1445 L17380 1445" stroke="currentColor" stroke-width="13" />
                  <path d="M14567 1625 L17380 1625" stroke="currentColor" stroke-width="13" />
                  <path d="M14567 1805 L17380 1805" stroke="currentColor" stroke-width="13" />
                  <g id="m1s8ukrs" class="meterSig">
                     <use xlink:href="#E082-pzhs79" x="14643" y="1265" height="720px" width="720px" />
                     <use xlink:href="#E084-pzhs79" x="14648" y="1625" height="720px" width="720px" />
                  </g>
                  <g id="l1nrcjqz" class="layer">
                     <g id="bdnbeeh" class="beam">
                        <polygon points="15218,1940 15844,2030 15844,1940 15218,1850" />
                        <g id="no34e79" class="note">
                           <g class="notehead">
                              <use xlink:href="#E0A4-pzhs79" x="15218" y="1355" height="720px" width="720px" />
                           </g>
                           <g id="s14qpmgm" class="stem">
                              <rect x="15218" y="1383" height="539" width="18" />
                           </g>
                        </g>
                        <g id="n1ptx653" class="note">
                           <g class="notehead">
                              <use xlink:href="#E0A4-pzhs79" x="15826" y="1445" height="720px" width="720px" />
                           </g>
                           <g id="s5bp1da" class="stem">
                              <rect x="15826" y="1473" height="539" width="18" />
                           </g>
                        </g>
                     </g>
                     <g id="n1hwm6xg" class="note">
                        <g class="notehead">
                           <use xlink:href="#E0A4-pzhs79" x="16434" y="1535" height="720px" width="720px" />
                        </g>
                        <g id="sl0mjnl" class="stem">
                           <rect x="16642" y="905" height="602" width="18" />
                        </g>
                     </g>
                  </g>
               </g>
               <g id="b144br3c" class="barLine">
                  <path d="M17367 1085 L17367 1805" stroke="currentColor" stroke-width="27" />
               </g>
            </g>
            <g id="m1wika0r" class="measure">
               <g id="smz1pa7" class="staff">
                  <path d="M17380 1085 L20007 1085" stroke="currentColor" stroke-width="13" />
                  <path d="M17380 1265 L20007 1265" stroke="currentColor" stroke-width="13" />
                  <path d="M17380 1445 L20007 1445" stroke="currentColor" stroke-width="13" />
                  <path d="M17380 1625 L20007 1625" stroke="currentColor" stroke-width="13" />
                  <path d="M17380 1805 L20007 1805" stroke="currentColor" stroke-width="13" />
                  <g id="l1vrs2og" class="layer">
                     <g id="bhwbenu" class="beam">
                        <polygon points="17770,995 18396,905 18396,995 17770,1085" />
                        <g id="n1gqoqr7" class="note">
                           <g class="notehead">
                              <use xlink:href="#E0A4-pzhs79" x="17562" y="1625" height="720px" width="720px" />
                           </g>
                           <g id="s1humqt2" class="stem">
                              <rect x="17770" y="1013" height="584" width="18" />
                           </g>
                        </g>
                        <g id="n8g0hxx" class="note">
                           <g class="notehead">
                              <use xlink:href="#E0A4-pzhs79" x="18170" y="1535" height="720px" width="720px" />
                           </g>
                           <g id="s18k23ic" class="stem">
                              <rect x="18378" y="923" height="584" width="18" />
                           </g>
                        </g>
                     </g>
                     <g id="bktc630" class="beam">
                        <polygon points="18778,2030 19404,1940 19404,1850 18778,1940" />
                        <g id="n10to8c4" class="note">
                           <g class="notehead">
                              <use xlink:href="#E0A4-pzhs79" x="18778" y="1445" height="720px" width="720px" />
                           </g>
                           <g id="s57rj4p" class="stem">
                              <rect x="18778" y="1473" height="539" width="18" />
                           </g>
                        </g>
                        <g id="n1uzhwsp" class="note">
                           <g class="notehead">
                              <use xlink:href="#E0A4-pzhs79" x="19386" y="1355" height="720px" width="720px" />
                           </g>
                           <g id="s11c69k7" class="stem">
                              <rect x="19386" y="1383" height="539" width="18" />
                           </g>
                        </g>
                     </g>
                  </g>
               </g>
               <g id="b1gue03g" class="barLine">
                  <path d="M19994 1085 L19994 1805" stroke="currentColor" stroke-width="27" />
               </g>
            </g>
         </g>
         <g id="s18pdtu" class="system">
            <g id="l65xzof" class="labelAbbr">
               <text x="914" y="3884" text-anchor="end" font-size="0px">
                  <tspan id="t1s6mrrx" class="text">
                     <tspan font-size="405px" class="text">Pno.</tspan>
                  </tspan>
               </text>
            </g>
            <g id="mee2jh" class="measure">
               <g id="m1lffzp2" class="mNum autogenerated">
                  <text x="1094" y="3191" text-anchor="middle" font-size="0px">
                     <tspan id="tk3l0hg" class="text">
                        <tspan font-size="324px" class="text">8</tspan>
                     </tspan>
                  </text>
               </g>
               <g id="s1qlqtp7" class="staff">
                  <path d="M1094 3434 L5429 3434" stroke="currentColor" stroke-width="13" />
                  <path d="M1094 3614 L5429 3614" stroke="currentColor" stroke-width="13" />
                  <path d="M1094 3794 L5429 3794" stroke="currentColor" stroke-width="13" />
                  <path d="M1094 3974 L5429 3974" stroke="currentColor" stroke-width="13" />
                  <path d="M1094 4154 L5429 4154" stroke="currentColor" stroke-width="13" />
                  <g id="c326su0" class="clef">
                     <use xlink:href="#E050-pzhs79" x="1184" y="3974" height="720px" width="720px" />
                  </g>
                  <g id="k1h3ajb1" class="keySig" />
                  <g id="l18aflfv" class="layer">
                     <g id="bqafl6b" class="beam">
                        <polygon points="2168,3209 2926,3299 2926,3389 2168,3299" />
                        <g id="n1br2wza" class="note">
                           <g class="notehead">
                              <use xlink:href="#E0A4-pzhs79" x="1960" y="3794" height="720px" width="720px" />
                           </g>
                           <g id="s1r16je" class="stem">
                              <rect x="2168" y="3227" height="539" width="18" />
                           </g>
                        </g>
                        <g id="n15jcrpy" class="note">
                           <g class="notehead">
                              <use xlink:href="#E0A4-pzhs79" x="2700" y="3884" height="720px" width="720px" />
                           </g>
                           <g id="s19ia8vb" class="stem">
                              <rect x="2908" y="3317" height="539" width="18" />
                           </g>
                        </g>
                     </g>
                     <g id="b37wc9i" class="beam">
                        <polygon points="3440,4469 4940,4469 4940,4379 3440,4379" />
                        <polygon points="3440,4334 3943,4334 3943,4244 3440,4244" />
                        <polygon points="3943,4334 4437,4334 4437,4244 3943,4244" />
                        <polygon points="4437,4334 4940,4334 4940,4244 4437,4244" />
                        <g id="n1jfbpx" class="note">
                           <g class="notehead">
                              <use xlink:href="#E0A4-pzhs79" x="3440" y="3794" height="720px" width="720px" />
                           </g>
                           <g id="s18oaml2" class="stem">
                              <rect x="3440" y="3822" height="629" width="18" />
                           </g>
                        </g>
                        <g id="n45l2eo" class="note">
                           <g class="notehead">
                              <use xlink:href="#E0A4-pzhs79" x="3934" y="3884" height="720px" width="720px" />
                           </g>
                           <g id="sp9zjqe" class="stem">
                              <rect x="3934" y="3912" height="539" width="18" />
                           </g>
                        </g>
                        <g id="n1as18cm" class="note">
                           <g class="notehead">
                              <use xlink:href="#E0A4-pzhs79" x="4428" y="3794" height="720px" width="720px" />
                           </g>
                           <g id="sp6lvz0" class="stem">
                              <rect x="4428" y="3822" height="629" width="18" />
                           </g>
                        </g>
                        <g id="ndhjtzc" class="note">
                           <g class="notehead">
                              <use xlink:href="#E0A4-pzhs79" x="4922" y="3704" height="720px" width="720px" />
                           </g>
                           <g id="s1aefjc3" class="stem">
                              <rect x="4922" y="3732" height="719" width="18" />
                           </g>
                        </g>
                     </g>
                  </g>
               </g>
               <g id="b1law7bg" class="barLine">
                  <path d="M5416 3434 L5416 4154" stroke="currentColor" stroke-width="27" />
               </g>
            </g>
            <g id="mked6ay" class="measure">
               <g id="sy9t8w1" class="staff">
                  <path d="M5429 3434 L8624 3434" stroke="currentColor" stroke-width="13" />
                  <path d="M5429 3614 L8624 3614" stroke="currentColor" stroke-width="13" />
                  <path d="M5429 3794 L8624 3794" stroke="currentColor" stroke-width="13" />
                  <path d="M5429 3974 L8624 3974" stroke="currentColor" stroke-width="13" />
                  <path d="M5429 4154 L8624 4154" stroke="currentColor" stroke-width="13" />
                  <g id="lrmi3hg" class="layer">
                     <g id="b1ckbnol" class="beam">
                        <polygon points="5650,4379 6408,4379 6408,4289 5650,4289" />
                        <g id="n6spugf" class="note">
                           <g class="notehead">
                              <use xlink:href="#E0A4-pzhs79" x="5650" y="3794" height="720px" width="720px" />
                           </g>
                           <g id="s422lbf" class="stem">
                              <rect x="5650" y="3822" height="539" width="18" />
                           </g>
                        </g>
                        <g id="nog1xc7" class="note">
                           <g class="notehead">
                              <use xlink:href="#E0A4-pzhs79" x="6390" y="3794" height="720px" width="720px" />
                           </g>
                           <g id="s1d4zo6l" class="stem">
                              <rect x="6390" y="3822" height="539" width="18" />
                           </g>
                        </g>
                     </g>
                     <g id="b173wfkq" class="beam">
                        <polygon points="7130,4154 7888,4244 7888,4154 7130,4064" />
                        <g id="nml1rl0" class="note">
                           <g class="notehead">
                              <use xlink:href="#E0A4-pzhs79" x="7130" y="3524" height="720px" width="720px" />
                           </g>
                           <g id="s1j9kfmj" class="stem">
                              <rect x="7130" y="3552" height="584" width="18" />
                           </g>
                        </g>
                        <g id="n1txv4n9" class="note">
                           <g class="notehead">
                              <use xlink:href="#E0A4-pzhs79" x="7870" y="3614" height="720px" width="720px" />
                           </g>
                           <g id="s1fnvife" class="stem">
                              <rect x="7870" y="3642" height="584" width="18" />
                           </g>
                        </g>
                     </g>
                  </g>
               </g>
               <g id="b1eya34" class="barLine">
                  <path d="M8611 3434 L8611 4154" stroke="currentColor" stroke-width="27" />
               </g>
            </g>
            <g id="s107ox1q" class="sb" />
            <g id="mp99gpx" class="measure">
               <g id="s17gyz0d" class="staff">
                  <path d="M8624 3434 L11474 3434" stroke="currentColor" stroke-width="13" />
                  <path d="M8624 3614 L11474 3614" stroke="currentColor" stroke-width="13" />
                  <path d="M8624 3794 L11474 3794" stroke="currentColor" stroke-width="13" />
                  <path d="M8624 3974 L11474 3974" stroke="currentColor" stroke-width="13" />
                  <path d="M8624 4154 L11474 4154" stroke="currentColor" stroke-width="13" />
                  <g id="l1a9zsyr" class="layer">
                     <g id="b1u9mznh" class="beam">
                        <polygon points="8845,4289 9603,4379 9603,4289 8845,4199" />
                        <g id="nh78r3c" class="note">
                           <g class="notehead">
                              <use xlink:href="#E0A4-pzhs79" x="8845" y="3704" height="720px" width="720px" />
                           </g>
                           <g id="s1mpd1sh" class="stem">
                              <rect x="8845" y="3732" height="539" width="18" />
                           </g>
                        </g>
                        <g id="noycd8u" class="note">
                           <g class="notehead">
                              <use xlink:href="#E0A4-pzhs79" x="9585" y="3794" height="720px" width="720px" />
                           </g>
                           <g id="s19e61ib" class="stem">
                              <rect x="9585" y="3822" height="539" width="18" />
                           </g>
                        </g>
                     </g>
                     <g id="n1mw0jik" class="note">
                        <g class="notehead">
                           <use xlink:href="#E0A4-pzhs79" x="10325" y="3884" height="720px" width="720px" />
                        </g>
                        <g id="s18p10o3" class="stem">
                           <rect x="10533" y="3254" height="602" width="18" />
                        </g>
                     </g>
                  </g>
               </g>
               <g id="b16ai0ae" class="barLine">
                  <path d="M11461 3434 L11461 4154" stroke="currentColor" stroke-width="27" />
               </g>
            </g>
            <g id="mnljw8y" class="measure">
               <g id="s7dlvoz" class="staff">
                  <path d="M11474 3434 L14669 3434" stroke="currentColor" stroke-width="13" />
                  <path d="M11474 3614 L14669 3614" stroke="currentColor" stroke-width="13" />
                  <path d="M11474 3794 L14669 3794" stroke="currentColor" stroke-width="13" />
                  <path d="M11474 3974 L14669 3974" stroke="currentColor" stroke-width="13" />
                  <path d="M11474 4154 L14669 4154" stroke="currentColor" stroke-width="13" />
                  <g id="lhi97lr" class="layer">
                     <g id="b8bpc8e" class="beam">
                        <polygon points="11903,3344 12661,3254 12661,3344 11903,3434" />
                        <g id="nyi5dmy" class="note">
                           <g class="notehead">
                              <use xlink:href="#E0A4-pzhs79" x="11695" y="3974" height="720px" width="720px" />
                           </g>
                           <g id="s5lkkx8" class="stem">
                              <rect x="11903" y="3362" height="584" width="18" />
                           </g>
                        </g>
                        <g id="n1kbsz21" class="note">
                           <g class="notehead">
                              <use xlink:href="#E0A4-pzhs79" x="12435" y="3884" height="720px" width="720px" />
                           </g>
                           <g id="svlv0uq" class="stem">
                              <rect x="12643" y="3272" height="584" width="18" />
                           </g>
                        </g>
                     </g>
                     <g id="b18a0bop" class="beam">
                        <polygon points="13175,4379 13933,4289 13933,4199 13175,4289" />
                        <g id="n1l4g9b1" class="note">
                           <g class="notehead">
                              <use xlink:href="#E0A4-pzhs79" x="13175" y="3794" height="720px" width="720px" />
                           </g>
                           <g id="s1nde42l" class="stem">
                              <rect x="13175" y="3822" height="539" width="18" />
                           </g>
                        </g>
                        <g id="n1e200x2" class="note">
                           <g class="notehead">
                              <use xlink:href="#E0A4-pzhs79" x="13915" y="3704" height="720px" width="720px" />
                           </g>
                           <g id="s1jl09h2" class="stem">
                              <rect x="13915" y="3732" height="539" width="18" />
                           </g>
                        </g>
                     </g>
                  </g>
               </g>
               <g id="b5dz07a" class="barLine">
                  <path d="M14656 3434 L14656 4154" stroke="currentColor" stroke-width="27" />
               </g>
            </g>
            <g id="m13robc4" class="measure">
               <g id="s15y99xh" class="staff">
                  <path d="M14669 3434 L18014 3434" stroke="currentColor" stroke-width="13" />
                  <path d="M14669 3614 L18014 3614" stroke="currentColor" stroke-width="13" />
                  <path d="M14669 3794 L18014 3794" stroke="currentColor" stroke-width="13" />
                  <path d="M14669 3974 L18014 3974" stroke="currentColor" stroke-width="13" />
                  <path d="M14669 4154 L18014 4154" stroke="currentColor" stroke-width="13" />
                  <g id="lq2h1nt" class="layer">
                     <g id="b1n425va" class="beam">
                        <polygon points="14890,4469 16390,4469 16390,4379 14890,4379" />
                        <polygon points="14890,4334 15393,4334 15393,4244 14890,4244" />
                        <polygon points="15393,4334 15887,4334 15887,4244 15393,4244" />
                        <polygon points="15887,4334 16390,4334 16390,4244 15887,4244" />
                        <g id="nmmg74j" class="note">
                           <g class="notehead">
                              <use xlink:href="#E0A4-pzhs79" x="14890" y="3794" height="720px" width="720px" />
                           </g>
                           <g id="s15nwzcp" class="stem">
                              <rect x="14890" y="3822" height="629" width="18" />
                           </g>
                        </g>
                        <g id="nusc2d1" class="note">
                           <g class="notehead">
                              <use xlink:href="#E0A4-pzhs79" x="15384" y="3884" height="720px" width="720px" />
                           </g>
                           <g id="sdq5i6j" class="stem">
                              <rect x="15384" y="3912" height="539" width="18" />
                           </g>
                        </g>
                        <g id="n1ofmu71" class="note">
                           <g class="notehead">
                              <use xlink:href="#E0A4-pzhs79" x="15878" y="3794" height="720px" width="720px" />
                           </g>
                           <g id="s1yqm4k5" class="stem">
                              <rect x="15878" y="3822" height="629" width="18" />
                           </g>
                        </g>
                        <g id="nfv8447" class="note">
                           <g class="notehead">
                              <use xlink:href="#E0A4-pzhs79" x="16372" y="3704" height="720px" width="720px" />
                           </g>
                           <g id="s8muw2k" class="stem">
                              <rect x="16372" y="3732" height="719" width="18" />
                           </g>
                        </g>
                     </g>
                     <g id="n1grhykp" class="note">
                        <g class="notehead">
                           <use xlink:href="#E0A4-pzhs79" x="16865" y="3884" height="720px" width="720px" />
                        </g>
                        <g id="s12lrxqc" class="stem">
                           <rect x="17073" y="3254" height="602" width="18" />
                        </g>
                     </g>
                  </g>
               </g>
               <g id="tkk65tv" class="tie">
                  <path d="M17136,3929 C17517,4036 18266,4036 18648,3929 C18274,4084 17509,4084 17136,3929" stroke="currentColor" stroke-linecap="round" stroke-linejoin="round" stroke-width="9" />
               </g>
               <g id="b11eaq6b" class="barLine">
                  <path d="M18001 3434 L18001 4154" stroke="currentColor" stroke-width="27" />
               </g>
            </g>
            <g id="mdtgu3x" class="measure">
               <g id="sferez" class="staff">
                  <path d="M18014 3434 L20004 3434" stroke="currentColor" stroke-width="13" />
                  <path d="M18014 3614 L20004 3614" stroke="currentColor" stroke-width="13" />
                  <path d="M18014 3794 L20004 3794" stroke="currentColor" stroke-width="13" />
                  <path d="M18014 3974 L20004 3974" stroke="currentColor" stroke-width="13" />
                  <path d="M18014 4154 L20004 4154" stroke="currentColor" stroke-width="13" />
                  <g id="m10gezkk" class="meterSig">
                     <use xlink:href="#E081-pzhs79" x="18123" y="3614" height="720px" width="720px" />
                     <use xlink:href="#E084-pzhs79" x="18090" y="3974" height="720px" width="720px" />
                  </g>
                  <g id="l3mtsg1" class="layer">
                     <g id="neqzqxm" class="note">
                        <g class="notehead">
                           <use xlink:href="#E0A4-pzhs79" x="18693" y="3884" height="720px" width="720px" />
                        </g>
                        <g id="s44pv6n" class="stem">
                           <rect x="18901" y="3254" height="602" width="18" />
                        </g>
                     </g>
                  </g>
               </g>
               <g id="b1uhnclu" class="barLine">
                  <path d="M19829 3434 L19829 4154" stroke="currentColor" stroke-width="27" />
                  <path d="M19959 3434 L19959 4154" stroke="currentColor" stroke-width="90" />
               </g>
            </g>
            <g id="sdvspm8" class="systemMilestoneEnd s1x9n7xc" />
         </g>
         <g id="pl8inzo" class="pageMilestoneEnd s1jjfg1o" />
         <g id="pgbcwfm" class="pageMilestoneEnd m13rsmlk" />
         <g id="pqrakqj" class="pgHead">
            <text x="0" y="0" font-size="0px">
               <tspan id="r1xbzmgt" class="rend" x="10000" y="277" text-anchor="middle">
                  <tspan id="tk3zg8a" class="text">
                     <tspan font-size="405px" class="text">Air n 222</tspan>
                  </tspan>
               </tspan>
            </text>
         </g>
         <g id="ph5n654" class="pgFoot autogenerated">
            <g id="fmr2rw3" class="fig">
               <g id="sg3r2sw" class="svg" transform="translate(7750, 28099) scale(10, 10)">
                  <g>
                     <path fill="#00000" d="M 17.11278,49.26451 V 10.367554 h 12.696511 c 3.288815,7.336676 6.71267,14.610456 10.127281,21.888976 3.419998,-7.484684 6.255515,-14.204887 9.58887,-21.909915 2.436207,0.103726 4.316952,0.08453 6.484294,-0.05808 V 49.264423 H 50.274275 C 50.145222,38.35639 50.016136,27.448368 49.887066,16.540329 45.003488,27.315459 39.967448,38.433564 35.083854,49.208695 34.678996,49.343717 34.426583,49.135619 34.021726,49.270644 29.46588,39.330716 24.910049,29.390805 20.354201,19.450876 20.224341,29.388756 20.09461,39.326619 19.964815,49.264497 H 17.11278 Z M 36.754144,39.324695 C 32.721221,30.512695 28.6883,21.700679 24.655394,12.888662 22.530527,12.750737 22.656775,12.71031 20.714356,12.813974 v 0.966497 c 4.612938,9.99784 9.609439,20.748709 13.87298,30.081745 0.722248,-1.512523 1.444528,-3.025014 2.166808,-4.537521 z m 25.738417,9.939815 c 0,-12.965651 0,-25.931305 0,-38.896956 10.084388,0 20.168791,0 30.253178,0 0,0.960416 0,1.920849 0,2.881265 -6.482825,0 -12.965652,0 -19.448478,0 0,4.802097 0,9.604178 0,14.406277 5.52241,0 11.044819,0 16.567229,0 0,0.960415 0,1.920832 0,2.881248 -5.52241,0 -11.044819,0 -16.567229,0 0,5.282306 0,10.564611 0,15.846917 6.963035,0 13.926068,0 20.889103,0 0,0.960416 0,1.920832 0,2.881249 -10.564597,0 -21.129207,0 -31.693803,0 z m 4.321874,-2.160937 c 0,-11.765131 0,-23.530263 0,-35.295394 -0.720312,0 -1.440625,0 -2.160937,0 0,11.765131 0,23.530263 0,35.295394 0.720312,0 1.440625,0 2.160937,0 z m 32.41413,2.160937 c 0,-12.965651 0,-25.931305 0,-38.896956 2.401045,0 4.802095,0 7.203135,0 0,12.965651 0,25.931305 0,38.896956 -2.40104,0 -4.80209,0 -7.203135,0 z m 2.881265,-2.160937 c 0,-11.765131 0,-23.530263 0,-35.295394 -0.72031,0 -1.44064,0 -2.160953,0 0,11.765131 0,23.530263 0,35.295394 0.720313,0 1.440643,0 2.160953,0 z" />
                     <path fill="#00000" d="m 346.3,6.7 c -3.1,0.5 -4.9,4.4 -2.7,6.8 1.2,1.4 2.7,2.4 4.1,3.5 -2.4,5.3 -7.7,8.3 -11.9,12.1 -3.7,2.8 -7,6.2 -9.7,9.9 -2.2,-0.8 -0.3,-6.8 -0.6,-9.5 0.1,-3.1 0.7,-6.4 2.9,-8.7 1.3,-1.9 3,-3.5 4.5,-5.2 1.2,-3.4 -3.2,-4.9 -5.8,-4.6 -7.3,-0.5 -14.6,2 -20,6.8 -5,4.6 -10,10.1 -11.5,17 -0.9,3.5 -0.2,7.5 2.8,9.9 2.5,2.8 7.4,2.9 9.8,-0.2 1.7,-2.3 3.2,-4.8 3.8,-7.6 -0.1,-2.6 -4.4,-2.3 -4.3,0.2 1.2,2.4 -0.9,4.7 -2.7,6.2 -1.7,0.9 -4.7,0.7 -4.8,-1.7 -1,-5.8 2.1,-11.3 5.2,-16.1 4,-5.8 9.8,-11.2 17.2,-11.8 1.6,0 8.1,-1.2 6.8,1.4 -2.8,2.8 -5.6,6.1 -6,10.3 -1.6,7.7 0.1,15.7 -2.3,23.2 -1.1,3.9 2,2.6 2.5,0.2 3.3,-7.4 8.9,-13.4 15.1,-18.5 4.2,-3.9 9.5,-7.1 11.9,-12.6 1.3,-3.6 1.2,-9 -2.7,-10.9 -0.6,-0.2 -1.2,-0.3 -1.8,-0.3 z m 66,14.5 c -2,0.8 -1.8,4.9 0.8,4.4 3.4,0.4 2.9,-6.2 -0.8,-4.4 z m 0.6,7.3 c -1.3,0.5 -7.6,0.5 -5.4,2.2 4,-0.3 0.7,4.5 0.6,6.7 -0.4,2.9 -2.4,5.9 -1.2,8.8 2.7,1.7 5.6,-0.8 6.8,-3.2 1.6,-1.4 -0.5,-3 -1.2,-0.9 -0.4,0.8 -2.4,3.5 -2.6,1.8 1.1,-5 2.7,-9.9 3.9,-14.9 l -0.1,-0.5 h -0.9 z m -65.1,0.2 c -6.5,1.6 -10.5,9.5 -8.2,15.7 2.1,3.4 7.4,2.9 10.1,0.4 2,-0.2 3.6,-5.3 1,-3.4 -1.4,2 -4,4.2 -6.5,2.8 -2.2,-1.9 -1.9,-5.7 1.7,-5.3 3.1,-0.9 6.9,-2.1 8.1,-5.5 0.9,-2.7 -1.6,-5.2 -4.3,-4.8 h -1.1 -0.7 z m 13.6,0 c -2.2,0 -8.5,1.8 -2.9,2.3 0.9,1.9 -1,4.9 -1.1,7.2 -0.5,2.9 -1.4,5.7 -1.7,8.7 3.7,0.7 3.8,-2.6 4.4,-5.3 0.9,-3.3 1.6,-7 4.1,-9.5 2.4,1.6 6.8,-0.7 3.7,-3.4 -2.9,-0.5 -4.8,2.4 -6.2,4.3 0,-1.2 2.4,-5 -0.2,-4.3 z m 15.8,0 c -6.4,1.3 -9.6,9.1 -7.7,14.9 1.9,4 7.7,3.9 11,1.7 4.1,-3 6,-8.9 4.4,-13.7 -1.3,-3 -4.8,-3.2 -7.6,-3 z m 17,0 c -2.3,0 -8.8,1.9 -3,2.4 0.4,2.5 -1,5.7 -1.4,8.4 -0.7,2.4 -1.8,7.5 2.1,7.2 3.8,-0.1 6.5,-3.5 8.5,-6.3 2,-3.2 4.5,-7 3.3,-10.9 -3.7,-3 -3.6,2.6 -3.1,5.1 -0.7,3.8 -2.7,7.9 -6.2,9.8 -3.6,0.6 -1,-4.3 -0.8,-6.1 0.6,-3.2 1.6,-6.3 1.9,-9.5 -0.4,0 -0.8,0 -1.1,0 z m 30.6,0 c -6.3,1.2 -9.5,8.9 -7.8,14.7 1.5,4 7.2,4.2 10.5,2.4 4.6,-2.8 6.6,-9.3 4.8,-14.3 -1.4,-2.8 -4.8,-3 -7.5,-2.8 z m -75.4,1.7 c 2.1,1.5 0.2,4.7 -1.6,5.7 -1.1,0.4 -5.5,3.4 -4.6,0.7 0.8,-2.7 2.2,-6.2 5.3,-6.6 l 0.9,0.1 z m 30.8,0 c 2.6,1.5 1.3,5.2 0.8,7.6 -0.8,2.7 -1.9,5.9 -4.7,7.1 -5.1,0.8 -4,-5.8 -2.8,-8.8 1,-2.8 3,-6.8 6.7,-5.8 z m 47.1,-0.1 c 2.9,0.7 2,4.7 1.5,6.8 -0.7,3 -1.8,6.7 -5,8 -4.7,0.8 -4,-5.1 -3,-7.9 0.9,-3 2.7,-7.3 6.5,-6.8 z m -88.1,5.9 c -0.3,1.3 0.9,-0.6 0,0 z m -1.1,2.4 c -0.2,0.5 0.5,-0.1 0,0 z m -1.3,4.5 c -0.3,1.3 0.8,-0.2 0,0 z" />
                     <text y="41" x="201" fill="#00000" style="font-style:italic;font-weight:normal;font-size:30px;line-height:125%;font-family:Times;text-anchor:middle" xml:space="preserve">engraved with</text>
                  </g>
               </g>
            </g>
         </g>
      </g>
   </svg>
</svg>
