<?xml version="1.0" encoding="UTF-8" standalone="no"?>
<svg width="2100px" height="2970px" version="1.1" xmlns="http://www.w3.org/2000/svg" xmlns:xlink="http://www.w3.org/1999/xlink" xmlns:mei="http://www.music-encoding.org/ns/mei" overflow="visible">
   <desc>Engraved by Verovio 3.13.1</desc>
   <defs>
      <symbol id="E050-1pl99dm" viewBox="0 0 1000 1000" overflow="inherit">
         <path transform="scale(1,-1)" d="M441 -245c-23 -4 -48 -6 -76 -6c-59 0 -102 7 -130 20c-88 42 -150 93 -187 154c-26 44 -43 103 -48 176c0 6 -1 13 -1 19c0 54 15 111 45 170c29 57 65 106 110 148s96 85 153 127c-3 16 -8 46 -13 92c-4 43 -5 73 -5 89c0 117 16 172 69 257c34 54 64 82 89 82 c21 0 43 -30 69 -92s39 -115 41 -159v-15c0 -109 -21 -162 -67 -241c-13 -20 -63 -90 -98 -118c-13 -9 -25 -19 -37 -29l31 -181c8 1 18 2 28 2c58 0 102 -12 133 -35c59 -43 92 -104 98 -184c1 -7 1 -15 1 -22c0 -123 -87 -209 -181 -248c8 -57 17 -110 25 -162 c5 -31 6 -58 6 -80c0 -30 -5 -53 -14 -70c-35 -64 -88 -99 -158 -103c-5 0 -11 -1 -16 -1c-37 0 -72 10 -108 27c-50 24 -77 59 -80 105v11c0 29 7 55 20 76c18 28 45 42 79 44h6c49 0 93 -42 97 -87v-9c0 -51 -34 -86 -105 -106c17 -24 51 -36 102 -36c62 0 116 43 140 85 c9 16 13 41 13 74c0 20 -1 42 -5 67c-8 53 -18 106 -26 159zM461 939c-95 0 -135 -175 -135 -286c0 -24 2 -48 5 -71c50 39 92 82 127 128c40 53 60 100 60 140v8c-4 53 -22 81 -55 81h-2zM406 119l54 -326c73 25 110 78 110 161c0 7 0 15 -1 23c-7 95 -57 142 -151 142h-12 zM382 117c-72 -2 -128 -47 -128 -120v-7c2 -46 43 -99 75 -115c-3 -2 -7 -5 -10 -10c-70 33 -116 88 -123 172v11c0 68 44 126 88 159c23 17 49 29 78 36l-29 170c-21 -13 -52 -37 -92 -73c-50 -44 -86 -84 -109 -119c-45 -69 -67 -130 -67 -182v-13c5 -68 35 -127 93 -176 s125 -73 203 -73c25 0 50 3 75 9c-19 111 -36 221 -54 331z" />
      </symbol>
      <symbol id="E082-1pl99dm" viewBox="0 0 1000 1000" overflow="inherit">
         <path transform="scale(1,-1)" d="M124 -185c-18 0 -55 -14 -65 -65h-36l-3 30c0 25 6 45 18 63c11 19 22 30 39 43l121 82l37 29c15 11 27 29 38 54c12 24 18 47 18 70c0 40 -19 88 -94 88c-25 0 -32 0 -50 -8c-14 -5 -23 -12 -26 -22c3 -9 7 -15 10 -18l24 -17c12 -7 17 -11 27 -21c5 -7 7 -16 7 -27 c0 -12 0 -57 -79 -74c-30 0 -76 26 -76 94c0 66 81 135 197 135c72 0 181 -32 181 -150c0 -53 -32 -95 -113 -133l-91 -41c-26 -11 -45 -23 -57 -37l49 7c84 0 115 -41 148 -41c20 0 33 20 39 61h35c0 -152 -68 -168 -114 -168c-17 0 -65 0 -79 7h10l-28 17 c-49 37 -69 40 -87 42z" />
      </symbol>
      <symbol id="E084-1pl99dm" viewBox="0 0 1000 1000" overflow="inherit">
         <path transform="scale(1,-1)" d="M20 -78c84 97 114 180 134 329h170c-13 -32 -82 -132 -99 -151l-84 -97c-33 -36 -59 -63 -80 -81h162v102l127 123v-225h57v-39h-57v-34c0 -43 19 -65 57 -65v-34h-244v36c48 0 60 26 60 70v27h-203v39z" />
      </symbol>
      <symbol id="E0A3-1pl99dm" viewBox="0 0 1000 1000" overflow="inherit">
         <path transform="scale(1,-1)" d="M278 64c0 22 -17 39 -43 39c-12 0 -26 -3 -41 -10c-85 -43 -165 -94 -165 -156c5 -25 15 -32 49 -32c67 11 200 95 200 159zM0 -36c0 68 73 174 200 174c66 0 114 -39 114 -97c0 -84 -106 -173 -218 -173c-64 0 -96 32 -96 96z" />
      </symbol>
      <symbol id="E0A4-1pl99dm" viewBox="0 0 1000 1000" overflow="inherit">
         <path transform="scale(1,-1)" d="M0 -39c0 68 73 172 200 172c66 0 114 -37 114 -95c0 -84 -106 -171 -218 -171c-64 0 -96 30 -96 94z" />
      </symbol>
      <symbol id="E240-1pl99dm" viewBox="0 0 1000 1000" overflow="inherit">
         <path transform="scale(1,-1)" d="M179 -646c15 29 29 55 46 102c18 49 30 108 30 138c0 105 -80 173 -168 200c-18 5 -47 9 -87 16v190h22c8 0 33 -61 71 -95c4 -3 -2 3 61 -56c62 -58 122 -137 122 -241c0 -38 -13 -106 -35 -163c-20 -51 -43 -99 -66 -132c-6 -5 -10 -7 -13 -7s-5 2 -5 5l4 10 c1 3 14 25 18 33z" />
      </symbol>
      <symbol id="E260-1pl99dm" viewBox="0 0 1000 1000" overflow="inherit">
         <path transform="scale(1,-1)" d="M20 110c32 16 54 27 93 27c26 0 35 -3 54 -13c13 -7 24 -20 27 -38l4 -25c0 -28 -16 -57 -45 -89c-23 -25 -39 -44 -65 -68l-88 -79v644h20v-359zM90 106c-32 0 -48 -10 -70 -29v-194c31 31 54 59 71 84c21 32 32 59 32 84c0 9 1 16 1 20c0 14 -3 21 -11 30l-8 3z" />
      </symbol>
   </defs>
   <style type="text/css">g.page-margin{font-family:Times;} g.ending, g.fing, g.reh, g.tempo{font-weight:bold;} g.dir, g.dynam, g.mNum{font-style:italic;} g.label{font-weight:normal;}</style>
   <svg class="definition-scale" color="black" viewBox="0 0 21000 29700">
      <g class="page-margin" transform="translate(500, 500)">
         <g id="m59mgnr" class="mdiv pageMilestone" />
         <g id="s1buqh5q" class="score pageMilestone" />
         <g id="spoaeoq" class="system">
            <g id="lj6y1jn" class="label">
               <text x="1105" y="1537" text-anchor="end" font-size="0px">
                  <tspan id="twpe6sq" class="text">
                     <tspan font-size="405px" class="text">Piano</tspan>
                  </tspan>
               </text>
            </g>
            <g id="s1mput7j" class="section systemMilestone" />
            <g id="pqzqwn2" class="pb" />
            <g id="m1x8cymy" class="measure">
               <g id="s1yg1nbv" class="staff">
                  <path d="M1285 1087 L4874 1087" stroke="currentColor" stroke-width="13" />
                  <path d="M1285 1267 L4874 1267" stroke="currentColor" stroke-width="13" />
                  <path d="M1285 1447 L4874 1447" stroke="currentColor" stroke-width="13" />
                  <path d="M1285 1627 L4874 1627" stroke="currentColor" stroke-width="13" />
                  <path d="M1285 1807 L4874 1807" stroke="currentColor" stroke-width="13" />
                  <g id="cog30s6" class="clef">
                     <use xlink:href="#E050-1pl99dm" x="1375" y="1627" height="720px" width="720px" />
                  </g>
                  <g id="k1dx3su9" class="keySig">
                     <g id="k1322ekl" class="keyAccid">
                        <use xlink:href="#E260-1pl99dm" x="2020" y="1447" height="720px" width="720px" />
                     </g>
                  </g>
                  <g id="mhzm3l4" class="meterSig">
                     <use xlink:href="#E082-1pl99dm" x="2328" y="1267" height="720px" width="720px" />
                     <use xlink:href="#E084-1pl99dm" x="2333" y="1627" height="720px" width="720px" />
                  </g>
                  <g id="lsumrj2" class="layer">
                     <g id="b13gj0t7" class="beam">
                        <polygon points="2899,1807 3408,1852 3408,1762 2899,1717" />
                        <g id="n1sxy2gj" class="note">
                           <g class="notehead">
                              <use xlink:href="#E0A4-1pl99dm" x="2899" y="1087" height="720px" width="720px" />
                           </g>
                           <g id="s4jm1tq" class="stem">
                              <rect x="2899" y="1115" height="674" width="18" />
                           </g>
                        </g>
                        <g id="n1aork8k" class="note">
                           <g class="notehead">
                              <use xlink:href="#E0A4-1pl99dm" x="3390" y="1177" height="720px" width="720px" />
                           </g>
                           <g id="siyixmg" class="stem">
                              <rect x="3390" y="1205" height="629" width="18" />
                           </g>
                        </g>
                     </g>
                     <g id="bkdth3o" class="beam">
                        <polygon points="3880,1852 4389,1852 4389,1762 3880,1762" />
                        <g id="n149x54s" class="note">
                           <g class="notehead">
                              <use xlink:href="#E0A4-1pl99dm" x="3880" y="1267" height="720px" width="720px" />
                           </g>
                           <g id="s1bqa2ri" class="stem">
                              <rect x="3880" y="1295" height="539" width="18" />
                           </g>
                        </g>
                        <g id="n1nfolpr" class="note">
                           <g class="notehead">
                              <use xlink:href="#E0A4-1pl99dm" x="4371" y="1267" height="720px" width="720px" />
                           </g>
                           <g id="s1qsaz74" class="stem">
                              <rect x="4371" y="1295" height="539" width="18" />
                           </g>
                        </g>
                     </g>
                  </g>
               </g>
               <g id="b13vnuji" class="barLine">
                  <path d="M4861 1087 L4861 1807" stroke="currentColor" stroke-width="27" />
               </g>
            </g>
            <g id="m109kvwo" class="measure">
               <g id="s77yp29" class="staff">
                  <path d="M4874 1087 L6568 1087" stroke="currentColor" stroke-width="13" />
                  <path d="M4874 1267 L6568 1267" stroke="currentColor" stroke-width="13" />
                  <path d="M4874 1447 L6568 1447" stroke="currentColor" stroke-width="13" />
                  <path d="M4874 1627 L6568 1627" stroke="currentColor" stroke-width="13" />
                  <path d="M4874 1807 L6568 1807" stroke="currentColor" stroke-width="13" />
                  <g id="lkfqbla" class="layer">
                     <g id="na69smp" class="note">
                        <g class="notehead">
                           <use xlink:href="#E0A4-1pl99dm" x="5052" y="1357" height="720px" width="720px" />
                        </g>
                        <g id="seho62j" class="stem">
                           <rect x="5052" y="1385" height="602" width="18" />
                        </g>
                     </g>
                     <g id="n1sp9ohm" class="note">
                        <g class="notehead">
                           <use xlink:href="#E0A4-1pl99dm" x="5804" y="1357" height="720px" width="720px" />
                        </g>
                        <g id="s1bcnck9" class="stem">
                           <rect x="5804" y="1385" height="602" width="18" />
                        </g>
                     </g>
                  </g>
               </g>
               <g id="b15eobd6" class="barLine">
                  <path d="M6555 1087 L6555 1807" stroke="currentColor" stroke-width="27" />
               </g>
            </g>
            <g id="mdlazfx" class="measure">
               <g id="s1pht8ry" class="staff">
                  <path d="M6568 1087 L8721 1087" stroke="currentColor" stroke-width="13" />
                  <path d="M6568 1267 L8721 1267" stroke="currentColor" stroke-width="13" />
                  <path d="M6568 1447 L8721 1447" stroke="currentColor" stroke-width="13" />
                  <path d="M6568 1627 L8721 1627" stroke="currentColor" stroke-width="13" />
                  <path d="M6568 1807 L8721 1807" stroke="currentColor" stroke-width="13" />
                  <g id="lgy90sy" class="layer">
                     <g id="b1j3a64p" class="beam">
                        <polygon points="6746,1807 7255,1852 7255,1762 6746,1717" />
                        <g id="nwvjk1q" class="note">
                           <g class="notehead">
                              <use xlink:href="#E0A4-1pl99dm" x="6746" y="1087" height="720px" width="720px" />
                           </g>
                           <g id="s16vi236" class="stem">
                              <rect x="6746" y="1115" height="674" width="18" />
                           </g>
                        </g>
                        <g id="n835rkx" class="note">
                           <g class="notehead">
                              <use xlink:href="#E0A4-1pl99dm" x="7237" y="1177" height="720px" width="720px" />
                           </g>
                           <g id="s1hhzek3" class="stem">
                              <rect x="7237" y="1205" height="629" width="18" />
                           </g>
                        </g>
                     </g>
                     <g id="bp6r37u" class="beam">
                        <polygon points="7727,1852 8236,1852 8236,1762 7727,1762" />
                        <g id="n1ibnbrr" class="note">
                           <g class="notehead">
                              <use xlink:href="#E0A4-1pl99dm" x="7727" y="1267" height="720px" width="720px" />
                           </g>
                           <g id="s1jbqf90" class="stem">
                              <rect x="7727" y="1295" height="539" width="18" />
                           </g>
                        </g>
                        <g id="njzqogu" class="note">
                           <g class="notehead">
                              <use xlink:href="#E0A4-1pl99dm" x="8218" y="1267" height="720px" width="720px" />
                           </g>
                           <g id="s1fnj8kn" class="stem">
                              <rect x="8218" y="1295" height="539" width="18" />
                           </g>
                        </g>
                     </g>
                  </g>
               </g>
               <g id="buubmml" class="barLine">
                  <path d="M8708 1087 L8708 1807" stroke="currentColor" stroke-width="27" />
               </g>
            </g>
            <g id="mwa4769" class="measure">
               <g id="swyna5q" class="staff">
                  <path d="M8721 1087 L10415 1087" stroke="currentColor" stroke-width="13" />
                  <path d="M8721 1267 L10415 1267" stroke="currentColor" stroke-width="13" />
                  <path d="M8721 1447 L10415 1447" stroke="currentColor" stroke-width="13" />
                  <path d="M8721 1627 L10415 1627" stroke="currentColor" stroke-width="13" />
                  <path d="M8721 1807 L10415 1807" stroke="currentColor" stroke-width="13" />
                  <g id="l1yuh3ln" class="layer">
                     <g id="nmwlklc" class="note">
                        <g class="notehead">
                           <use xlink:href="#E0A4-1pl99dm" x="8899" y="1357" height="720px" width="720px" />
                        </g>
                        <g id="s1awnoni" class="stem">
                           <rect x="8899" y="1385" height="602" width="18" />
                        </g>
                     </g>
                     <g id="n1dmf0kn" class="note">
                        <g class="notehead">
                           <use xlink:href="#E0A4-1pl99dm" x="9651" y="1357" height="720px" width="720px" />
                        </g>
                        <g id="s1o723l0" class="stem">
                           <rect x="9651" y="1385" height="602" width="18" />
                        </g>
                     </g>
                  </g>
               </g>
               <g id="bdtn35f" class="barLine">
                  <path d="M10402 1087 L10402 1807" stroke="currentColor" stroke-width="27" />
               </g>
            </g>
            <g id="mtbty7n" class="measure">
               <g id="s1pz1gfi" class="staff">
                  <path d="M10415 1087 L12568 1087" stroke="currentColor" stroke-width="13" />
                  <path d="M10415 1267 L12568 1267" stroke="currentColor" stroke-width="13" />
                  <path d="M10415 1447 L12568 1447" stroke="currentColor" stroke-width="13" />
                  <path d="M10415 1627 L12568 1627" stroke="currentColor" stroke-width="13" />
                  <path d="M10415 1807 L12568 1807" stroke="currentColor" stroke-width="13" />
                  <g id="lryzbqp" class="layer">
                     <g id="blm0b0q" class="beam">
                        <polygon points="10593,1807 11102,1852 11102,1762 10593,1717" />
                        <g id="n74gkic" class="note">
                           <g class="notehead">
                              <use xlink:href="#E0A4-1pl99dm" x="10593" y="1087" height="720px" width="720px" />
                           </g>
                           <g id="s1psf9c" class="stem">
                              <rect x="10593" y="1115" height="674" width="18" />
                           </g>
                        </g>
                        <g id="ngb9pam" class="note">
                           <g class="notehead">
                              <use xlink:href="#E0A4-1pl99dm" x="11084" y="1177" height="720px" width="720px" />
                           </g>
                           <g id="s1nfkgw5" class="stem">
                              <rect x="11084" y="1205" height="629" width="18" />
                           </g>
                        </g>
                     </g>
                     <g id="bbtbwy2" class="beam">
                        <polygon points="11574,1852 12083,1852 12083,1762 11574,1762" />
                        <g id="ngi4exx" class="note">
                           <g class="notehead">
                              <use xlink:href="#E0A4-1pl99dm" x="11574" y="1267" height="720px" width="720px" />
                           </g>
                           <g id="swdvf51" class="stem">
                              <rect x="11574" y="1295" height="539" width="18" />
                           </g>
                        </g>
                        <g id="n4gm132" class="note">
                           <g class="notehead">
                              <use xlink:href="#E0A4-1pl99dm" x="12065" y="1267" height="720px" width="720px" />
                           </g>
                           <g id="s1wjqgal" class="stem">
                              <rect x="12065" y="1295" height="539" width="18" />
                           </g>
                        </g>
                     </g>
                  </g>
               </g>
               <g id="bl6w30o" class="barLine">
                  <path d="M12555 1087 L12555 1807" stroke="currentColor" stroke-width="27" />
               </g>
            </g>
            <g id="m5dfzs0" class="measure">
               <g id="sw2y2hc" class="staff">
                  <path d="M12568 1087 L14002 1087" stroke="currentColor" stroke-width="13" />
                  <path d="M12568 1267 L14002 1267" stroke="currentColor" stroke-width="13" />
                  <path d="M12568 1447 L14002 1447" stroke="currentColor" stroke-width="13" />
                  <path d="M12568 1627 L14002 1627" stroke="currentColor" stroke-width="13" />
                  <path d="M12568 1807 L14002 1807" stroke="currentColor" stroke-width="13" />
                  <g id="l14wqt60" class="layer">
                     <g id="n1viirg5" class="note">
                        <g class="notehead">
                           <use xlink:href="#E0A3-1pl99dm" x="12746" y="1357" height="720px" width="720px" />
                        </g>
                        <g id="syjsa24" class="stem">
                           <rect x="12746" y="1382" height="605" width="18" />
                        </g>
                     </g>
                  </g>
               </g>
               <g id="b1kmjugn" class="barLine">
                  <path d="M13890 1087 L13890 1807" stroke="currentColor" stroke-width="27" />
                  <path d="M13989 1087 L13989 1807" stroke="currentColor" stroke-width="27" />
               </g>
            </g>
            <g id="mlfkck6" class="measure">
               <g id="sn3zxr8" class="staff">
                  <path d="M14002 1087 L16155 1087" stroke="currentColor" stroke-width="13" />
                  <path d="M14002 1267 L16155 1267" stroke="currentColor" stroke-width="13" />
                  <path d="M14002 1447 L16155 1447" stroke="currentColor" stroke-width="13" />
                  <path d="M14002 1627 L16155 1627" stroke="currentColor" stroke-width="13" />
                  <path d="M14002 1807 L16155 1807" stroke="currentColor" stroke-width="13" />
                  <g id="l1oum16a" class="layer">
                     <g id="b97apwv" class="beam">
                        <polygon points="14388,907 14897,907 14897,997 14388,997" />
                        <g id="n1g4tj4u" class="note">
                           <g class="notehead">
                              <use xlink:href="#E0A4-1pl99dm" x="14180" y="1537" height="720px" width="720px" />
                           </g>
                           <g id="swddpya" class="stem">
                              <rect x="14388" y="925" height="584" width="18" />
                           </g>
                        </g>
                        <g id="n1l5tix9" class="note">
                           <g class="notehead">
                              <use xlink:href="#E0A4-1pl99dm" x="14671" y="1537" height="720px" width="720px" />
                           </g>
                           <g id="si6qfzo" class="stem">
                              <rect x="14879" y="925" height="584" width="18" />
                           </g>
                        </g>
                     </g>
                     <g id="b1yuu9vb" class="beam">
                        <polygon points="15369,907 15878,862 15878,952 15369,997" />
                        <g id="nfg0myw" class="note">
                           <g class="notehead">
                              <use xlink:href="#E0A4-1pl99dm" x="15161" y="1537" height="720px" width="720px" />
                           </g>
                           <g id="sdt9fhn" class="stem">
                              <rect x="15369" y="925" height="584" width="18" />
                           </g>
                        </g>
                        <g id="n1qwn827" class="note">
                           <g class="notehead">
                              <use xlink:href="#E0A4-1pl99dm" x="15652" y="1447" height="720px" width="720px" />
                           </g>
                           <g id="sjnhegb" class="stem">
                              <rect x="15860" y="880" height="539" width="18" />
                           </g>
                           <g id="a14qrf0x" class="accid" />
                        </g>
                     </g>
                  </g>
               </g>
               <g id="ba3oaox" class="barLine">
                  <path d="M16142 1087 L16142 1807" stroke="currentColor" stroke-width="27" />
               </g>
            </g>
            <g id="m114zou4" class="measure">
               <g id="suo2lj8" class="staff">
                  <path d="M16155 1087 L17849 1087" stroke="currentColor" stroke-width="13" />
                  <path d="M16155 1267 L17849 1267" stroke="currentColor" stroke-width="13" />
                  <path d="M16155 1447 L17849 1447" stroke="currentColor" stroke-width="13" />
                  <path d="M16155 1627 L17849 1627" stroke="currentColor" stroke-width="13" />
                  <path d="M16155 1807 L17849 1807" stroke="currentColor" stroke-width="13" />
                  <g id="l1h1xqi8" class="layer">
                     <g id="nmr125" class="note">
                        <g class="notehead">
                           <use xlink:href="#E0A4-1pl99dm" x="16333" y="1357" height="720px" width="720px" />
                        </g>
                        <g id="sn0aolw" class="stem">
                           <rect x="16333" y="1385" height="602" width="18" />
                        </g>
                     </g>
                     <g id="n1wrokv0" class="note">
                        <g class="notehead">
                           <use xlink:href="#E0A4-1pl99dm" x="17085" y="1357" height="720px" width="720px" />
                        </g>
                        <g id="s19vwk62" class="stem">
                           <rect x="17085" y="1385" height="602" width="18" />
                        </g>
                     </g>
                  </g>
               </g>
               <g id="b132xx2u" class="barLine">
                  <path d="M17836 1087 L17836 1807" stroke="currentColor" stroke-width="27" />
               </g>
            </g>
            <g id="m8wflvx" class="measure">
               <g id="s10p3n7o" class="staff">
                  <path d="M17849 1087 L20002 1087" stroke="currentColor" stroke-width="13" />
                  <path d="M17849 1267 L20002 1267" stroke="currentColor" stroke-width="13" />
                  <path d="M17849 1447 L20002 1447" stroke="currentColor" stroke-width="13" />
                  <path d="M17849 1627 L20002 1627" stroke="currentColor" stroke-width="13" />
                  <path d="M17849 1807 L20002 1807" stroke="currentColor" stroke-width="13" />
                  <g id="l1ayx1z2" class="layer">
                     <g id="b1d9db6g" class="beam">
                        <polygon points="18027,2077 18536,2122 18536,2032 18027,1987" />
                        <g id="n1xvbe5z" class="note">
                           <g class="notehead">
                              <use xlink:href="#E0A4-1pl99dm" x="18027" y="1357" height="720px" width="720px" />
                           </g>
                           <g id="s1fxf7pz" class="stem">
                              <rect x="18027" y="1385" height="674" width="18" />
                           </g>
                        </g>
                        <g id="n5a6ulu" class="note">
                           <g class="notehead">
                              <use xlink:href="#E0A4-1pl99dm" x="18518" y="1537" height="720px" width="720px" />
                           </g>
                           <g id="sgy0j4n" class="stem">
                              <rect x="18518" y="1565" height="539" width="18" />
                           </g>
                        </g>
                     </g>
                     <g id="b4skq0b" class="beam">
                        <polygon points="19216,862 19725,907 19725,997 19216,952" />
                        <g id="nzixgan" class="note">
                           <g class="notehead">
                              <use xlink:href="#E0A4-1pl99dm" x="19008" y="1447" height="720px" width="720px" />
                           </g>
                           <g id="s3b51ij" class="stem">
                              <rect x="19216" y="880" height="539" width="18" />
                           </g>
                           <g id="a1s5ou8n" class="accid" />
                        </g>
                        <g id="n14j7e42" class="note">
                           <g class="notehead">
                              <use xlink:href="#E0A4-1pl99dm" x="19499" y="1627" height="720px" width="720px" />
                           </g>
                           <g id="sy0sann" class="stem">
                              <rect x="19707" y="925" height="674" width="18" />
                           </g>
                        </g>
                     </g>
                  </g>
               </g>
               <g id="b1j4x152" class="barLine">
                  <path d="M19989 1087 L19989 1807" stroke="currentColor" stroke-width="27" />
               </g>
            </g>
         </g>
         <g id="sqkice5" class="system">
            <g id="l985yi8" class="labelAbbr">
               <text x="914" y="3720" text-anchor="end" font-size="0px">
                  <tspan id="t1do7wab" class="text">
                     <tspan font-size="405px" class="text">Pno.</tspan>
                  </tspan>
               </text>
            </g>
            <g id="m1bu8ofp" class="measure">
               <g id="mb7ltk5" class="mNum autogenerated">
                  <text x="1094" y="3027" text-anchor="middle" font-size="0px">
                     <tspan id="twk07y2" class="text">
                        <tspan font-size="324px" class="text">10</tspan>
                     </tspan>
                  </text>
               </g>
               <g id="s3gmtx7" class="staff">
                  <path d="M1094 3270 L3774 3270" stroke="currentColor" stroke-width="13" />
                  <path d="M1094 3450 L3774 3450" stroke="currentColor" stroke-width="13" />
                  <path d="M1094 3630 L3774 3630" stroke="currentColor" stroke-width="13" />
                  <path d="M1094 3810 L3774 3810" stroke="currentColor" stroke-width="13" />
                  <path d="M1094 3990 L3774 3990" stroke="currentColor" stroke-width="13" />
                  <g id="cncyret" class="clef">
                     <use xlink:href="#E050-1pl99dm" x="1184" y="3810" height="720px" width="720px" />
                  </g>
                  <g id="kopxh3g" class="keySig">
                     <g id="k3s0sl6" class="keyAccid">
                        <use xlink:href="#E260-1pl99dm" x="1829" y="3630" height="720px" width="720px" />
                     </g>
                  </g>
                  <g id="luah8w" class="layer">
                     <g id="nldkuqu" class="note">
                        <g class="notehead">
                           <use xlink:href="#E0A4-1pl99dm" x="2241" y="3900" height="720px" width="720px" />
                        </g>
                        <g id="sft9tqt" class="stem">
                           <rect x="2449" y="3270" height="602" width="18" />
                        </g>
                     </g>
                     <g id="nt0evhc" class="note">
                        <g class="notehead">
                           <use xlink:href="#E0A4-1pl99dm" x="3001" y="3900" height="720px" width="720px" />
                        </g>
                        <g id="s13g6v43" class="stem">
                           <rect x="3209" y="3270" height="602" width="18" />
                        </g>
                     </g>
                  </g>
               </g>
               <g id="brxe3sm" class="barLine">
                  <path d="M3761 3270 L3761 3990" stroke="currentColor" stroke-width="27" />
               </g>
            </g>
            <g id="sdikwbr" class="sb" />
            <g id="m11wysii" class="measure">
               <g id="s686g6x" class="staff">
                  <path d="M3774 3270 L5951 3270" stroke="currentColor" stroke-width="13" />
                  <path d="M3774 3450 L5951 3450" stroke="currentColor" stroke-width="13" />
                  <path d="M3774 3630 L5951 3630" stroke="currentColor" stroke-width="13" />
                  <path d="M3774 3810 L5951 3810" stroke="currentColor" stroke-width="13" />
                  <path d="M3774 3990 L5951 3990" stroke="currentColor" stroke-width="13" />
                  <g id="l4wafan" class="layer">
                     <g id="blog4ac" class="beam">
                        <polygon points="4162,3180 4676,3135 4676,3225 4162,3270" />
                        <g id="n1naamrl" class="note">
                           <g class="notehead">
                              <use xlink:href="#E0A4-1pl99dm" x="3954" y="3900" height="720px" width="720px" />
                           </g>
                           <g id="szlrleq" class="stem">
                              <rect x="4162" y="3198" height="674" width="18" />
                           </g>
                        </g>
                        <g id="n1c4a6u8" class="note">
                           <g class="notehead">
                              <use xlink:href="#E0A4-1pl99dm" x="4450" y="3810" height="720px" width="720px" />
                           </g>
                           <g id="s1tvyjpz" class="stem">
                              <rect x="4658" y="3153" height="629" width="18" />
                           </g>
                        </g>
                     </g>
                     <g id="bybdm5l" class="beam">
                        <polygon points="5154,3090 5668,3045 5668,3135 5154,3180" />
                        <g id="n15iq8vo" class="note">
                           <g class="notehead">
                              <use xlink:href="#E0A4-1pl99dm" x="4946" y="3720" height="720px" width="720px" />
                           </g>
                           <g id="srxiz9a" class="stem">
                              <rect x="5154" y="3108" height="584" width="18" />
                           </g>
                        </g>
                        <g id="n14f1tfp" class="note">
                           <g class="notehead">
                              <use xlink:href="#E0A4-1pl99dm" x="5442" y="3630" height="720px" width="720px" />
                           </g>
                           <g id="sw0fit5" class="stem">
                              <rect x="5650" y="3063" height="539" width="18" />
                           </g>
                           <g id="aqw587" class="accid" />
                        </g>
                     </g>
                  </g>
               </g>
               <g id="bn0xugx" class="barLine">
                  <path d="M5938 3270 L5938 3990" stroke="currentColor" stroke-width="27" />
               </g>
            </g>
            <g id="m1rfxclu" class="measure">
               <g id="s1cjb53r" class="staff">
                  <path d="M5951 3270 L8105 3270" stroke="currentColor" stroke-width="13" />
                  <path d="M5951 3450 L8105 3450" stroke="currentColor" stroke-width="13" />
                  <path d="M5951 3630 L8105 3630" stroke="currentColor" stroke-width="13" />
                  <path d="M5951 3810 L8105 3810" stroke="currentColor" stroke-width="13" />
                  <path d="M5951 3990 L8105 3990" stroke="currentColor" stroke-width="13" />
                  <g id="lffe2kg" class="layer">
                     <g id="b13nu27u" class="beam">
                        <polygon points="6131,4170 6788,4170 6788,4080 6131,4080" />
                        <polygon points="6562,4035 6788,4035 6788,3945 6562,3945" />
                        <g id="n64854g" class="note">
                           <g class="notehead">
                              <use xlink:href="#E0A4-1pl99dm" x="6131" y="3540" height="720px" width="720px" />
                           </g>
                           <g id="d1nx4w3b" class="dots">
                              <ellipse cx="6447" cy="3540" rx="36" ry="36" />
                           </g>
                           <g id="sptjuuv" class="stem">
                              <rect x="6131" y="3568" height="584" width="18" />
                           </g>
                        </g>
                        <g id="n131u7ec" class="note">
                           <g class="notehead">
                              <use xlink:href="#E0A4-1pl99dm" x="6770" y="3540" height="720px" width="720px" />
                           </g>
                           <g id="sjyiz6x" class="stem">
                              <rect x="6770" y="3568" height="584" width="18" />
                           </g>
                        </g>
                     </g>
                     <g id="bcbeop9" class="beam">
                        <polygon points="7100,4170 7614,4170 7614,4080 7100,4080" />
                        <g id="n9apx88" class="note">
                           <g class="notehead">
                              <use xlink:href="#E0A4-1pl99dm" x="7100" y="3540" height="720px" width="720px" />
                           </g>
                           <g id="sz98pea" class="stem">
                              <rect x="7100" y="3568" height="584" width="18" />
                           </g>
                        </g>
                        <g id="ni6gkfh" class="note">
                           <g class="notehead">
                              <use xlink:href="#E0A4-1pl99dm" x="7596" y="3540" height="720px" width="720px" />
                           </g>
                           <g id="s1nq17h5" class="stem">
                              <rect x="7596" y="3568" height="584" width="18" />
                           </g>
                        </g>
                     </g>
                  </g>
               </g>
               <g id="b1thxj2e" class="barLine">
                  <path d="M8092 3270 L8092 3990" stroke="currentColor" stroke-width="27" />
               </g>
            </g>
            <g id="m1xnhgw6" class="measure">
               <g id="s1v7rvyo" class="staff">
                  <path d="M8105 3270 L10469 3270" stroke="currentColor" stroke-width="13" />
                  <path d="M8105 3450 L10469 3450" stroke="currentColor" stroke-width="13" />
                  <path d="M8105 3630 L10469 3630" stroke="currentColor" stroke-width="13" />
                  <path d="M8105 3810 L10469 3810" stroke="currentColor" stroke-width="13" />
                  <path d="M8105 3990 L10469 3990" stroke="currentColor" stroke-width="13" />
                  <g id="l7o0ftm" class="layer">
                     <g id="bz0f9ah" class="beam">
                        <polygon points="8285,4170 8986,3990 8986,3900 8285,4080" />
                        <g id="n1pymjbl" class="note">
                           <g class="notehead">
                              <use xlink:href="#E0A4-1pl99dm" x="8285" y="3540" height="720px" width="720px" />
                           </g>
                           <g id="s1ukoj04" class="stem">
                              <rect x="8285" y="3568" height="584" width="18" />
                           </g>
                        </g>
                        <g id="n1iba7fu" class="note">
                           <g class="notehead">
                              <use xlink:href="#E0A4-1pl99dm" x="8601" y="3270" height="540px" width="540px" />
                           </g>
                           <g id="s1o5hg7z" class="stem">
                              <rect x="8752" y="2888" height="361" width="18" />
                              <g id="fzuj0bu" class="flag">
                                 <use xlink:href="#E240-1pl99dm" x="8752" y="2888" height="540px" width="540px" />
                              </g>
                           </g>
                        </g>
                        <g id="n1pjwisp" class="note">
                           <g class="notehead">
                              <use xlink:href="#E0A4-1pl99dm" x="8968" y="3360" height="720px" width="720px" />
                           </g>
                           <g id="sohd24s" class="stem">
                              <rect x="8968" y="3388" height="584" width="18" />
                           </g>
                        </g>
                     </g>
                     <g id="b2fbe0v" class="beam">
                        <polygon points="9464,4125 9978,4080 9978,3990 9464,4035" />
                        <g id="n6qk0rw" class="note">
                           <g class="notehead">
                              <use xlink:href="#E0A4-1pl99dm" x="9464" y="3450" height="720px" width="720px" />
                           </g>
                           <g id="s1c2dk22" class="stem">
                              <rect x="9464" y="3478" height="629" width="18" />
                           </g>
                        </g>
                        <g id="n17at8mc" class="note">
                           <g class="notehead">
                              <use xlink:href="#E0A4-1pl99dm" x="9960" y="3360" height="720px" width="720px" />
                           </g>
                           <g id="su7llto" class="stem">
                              <rect x="9960" y="3388" height="674" width="18" />
                           </g>
                        </g>
                     </g>
                  </g>
               </g>
               <g id="b6psqnw" class="barLine">
                  <path d="M10456 3270 L10456 3990" stroke="currentColor" stroke-width="27" />
               </g>
            </g>
            <g id="m1d8k23q" class="measure">
               <g id="s1m26y9i" class="staff">
                  <path d="M10469 3270 L11981 3270" stroke="currentColor" stroke-width="13" />
                  <path d="M10469 3450 L11981 3450" stroke="currentColor" stroke-width="13" />
                  <path d="M10469 3630 L11981 3630" stroke="currentColor" stroke-width="13" />
                  <path d="M10469 3810 L11981 3810" stroke="currentColor" stroke-width="13" />
                  <path d="M10469 3990 L11981 3990" stroke="currentColor" stroke-width="13" />
                  <g id="l8auivn" class="layer">
                     <g id="n10aowk1" class="note">
                        <g class="notehead">
                           <use xlink:href="#E0A3-1pl99dm" x="10649" y="3270" height="720px" width="720px" />
                        </g>
                        <g id="s19smrs6" class="stem">
                           <rect x="10649" y="3295" height="605" width="18" />
                        </g>
                     </g>
                  </g>
               </g>
               <g id="b1a16cxq" class="barLine">
                  <path d="M11806 3270 L11806 3990" stroke="currentColor" stroke-width="27" />
                  <path d="M11936 3270 L11936 3990" stroke="currentColor" stroke-width="90" />
               </g>
            </g>
            <g id="sarxxi2" class="systemMilestoneEnd s1mput7j" />
         </g>
         <g id="p1hqlfdg" class="pageMilestoneEnd s1buqh5q" />
         <g id="pn8599e" class="pageMilestoneEnd m59mgnr" />
         <g id="p1d8l4ww" class="pgHead">
            <text x="0" y="0" font-size="0px">
               <tspan id="r1yzghvs" class="rend" x="10000" y="279" text-anchor="middle">
                  <tspan id="tonzt9b" class="text">
                     <tspan font-size="405px" class="text">Air n 55</tspan>
                  </tspan>
               </tspan>
            </text>
         </g>
         <g id="p1r8bcix" class="pgFoot autogenerated">
            <g id="fp73ut" class="fig">
               <g id="s1apfxj0" class="svg" transform="translate(7750, 28099) scale(10, 10)">
                  <g>
                     <path fill="#00000" d="M 17.11278,49.26451 V 10.367554 h 12.696511 c 3.288815,7.336676 6.71267,14.610456 10.127281,21.888976 3.419998,-7.484684 6.255515,-14.204887 9.58887,-21.909915 2.436207,0.103726 4.316952,0.08453 6.484294,-0.05808 V 49.264423 H 50.274275 C 50.145222,38.35639 50.016136,27.448368 49.887066,16.540329 45.003488,27.315459 39.967448,38.433564 35.083854,49.208695 34.678996,49.343717 34.426583,49.135619 34.021726,49.270644 29.46588,39.330716 24.910049,29.390805 20.354201,19.450876 20.224341,29.388756 20.09461,39.326619 19.964815,49.264497 H 17.11278 Z M 36.754144,39.324695 C 32.721221,30.512695 28.6883,21.700679 24.655394,12.888662 22.530527,12.750737 22.656775,12.71031 20.714356,12.813974 v 0.966497 c 4.612938,9.99784 9.609439,20.748709 13.87298,30.081745 0.722248,-1.512523 1.444528,-3.025014 2.166808,-4.537521 z m 25.738417,9.939815 c 0,-12.965651 0,-25.931305 0,-38.896956 10.084388,0 20.168791,0 30.253178,0 0,0.960416 0,1.920849 0,2.881265 -6.482825,0 -12.965652,0 -19.448478,0 0,4.802097 0,9.604178 0,14.406277 5.52241,0 11.044819,0 16.567229,0 0,0.960415 0,1.920832 0,2.881248 -5.52241,0 -11.044819,0 -16.567229,0 0,5.282306 0,10.564611 0,15.846917 6.963035,0 13.926068,0 20.889103,0 0,0.960416 0,1.920832 0,2.881249 -10.564597,0 -21.129207,0 -31.693803,0 z m 4.321874,-2.160937 c 0,-11.765131 0,-23.530263 0,-35.295394 -0.720312,0 -1.440625,0 -2.160937,0 0,11.765131 0,23.530263 0,35.295394 0.720312,0 1.440625,0 2.160937,0 z m 32.41413,2.160937 c 0,-12.965651 0,-25.931305 0,-38.896956 2.401045,0 4.802095,0 7.203135,0 0,12.965651 0,25.931305 0,38.896956 -2.40104,0 -4.80209,0 -7.203135,0 z m 2.881265,-2.160937 c 0,-11.765131 0,-23.530263 0,-35.295394 -0.72031,0 -1.44064,0 -2.160953,0 0,11.765131 0,23.530263 0,35.295394 0.720313,0 1.440643,0 2.160953,0 z" />
                     <path fill="#00000" d="m 346.3,6.7 c -3.1,0.5 -4.9,4.4 -2.7,6.8 1.2,1.4 2.7,2.4 4.1,3.5 -2.4,5.3 -7.7,8.3 -11.9,12.1 -3.7,2.8 -7,6.2 -9.7,9.9 -2.2,-0.8 -0.3,-6.8 -0.6,-9.5 0.1,-3.1 0.7,-6.4 2.9,-8.7 1.3,-1.9 3,-3.5 4.5,-5.2 1.2,-3.4 -3.2,-4.9 -5.8,-4.6 -7.3,-0.5 -14.6,2 -20,6.8 -5,4.6 -10,10.1 -11.5,17 -0.9,3.5 -0.2,7.5 2.8,9.9 2.5,2.8 7.4,2.9 9.8,-0.2 1.7,-2.3 3.2,-4.8 3.8,-7.6 -0.1,-2.6 -4.4,-2.3 -4.3,0.2 1.2,2.4 -0.9,4.7 -2.7,6.2 -1.7,0.9 -4.7,0.7 -4.8,-1.7 -1,-5.8 2.1,-11.3 5.2,-16.1 4,-5.8 9.8,-11.2 17.2,-11.8 1.6,0 8.1,-1.2 6.8,1.4 -2.8,2.8 -5.6,6.1 -6,10.3 -1.6,7.7 0.1,15.7 -2.3,23.2 -1.1,3.9 2,2.6 2.5,0.2 3.3,-7.4 8.9,-13.4 15.1,-18.5 4.2,-3.9 9.5,-7.1 11.9,-12.6 1.3,-3.6 1.2,-9 -2.7,-10.9 -0.6,-0.2 -1.2,-0.3 -1.8,-0.3 z m 66,14.5 c -2,0.8 -1.8,4.9 0.8,4.4 3.4,0.4 2.9,-6.2 -0.8,-4.4 z m 0.6,7.3 c -1.3,0.5 -7.6,0.5 -5.4,2.2 4,-0.3 0.7,4.5 0.6,6.7 -0.4,2.9 -2.4,5.9 -1.2,8.8 2.7,1.7 5.6,-0.8 6.8,-3.2 1.6,-1.4 -0.5,-3 -1.2,-0.9 -0.4,0.8 -2.4,3.5 -2.6,1.8 1.1,-5 2.7,-9.9 3.9,-14.9 l -0.1,-0.5 h -0.9 z m -65.1,0.2 c -6.5,1.6 -10.5,9.5 -8.2,15.7 2.1,3.4 7.4,2.9 10.1,0.4 2,-0.2 3.6,-5.3 1,-3.4 -1.4,2 -4,4.2 -6.5,2.8 -2.2,-1.9 -1.9,-5.7 1.7,-5.3 3.1,-0.9 6.9,-2.1 8.1,-5.5 0.9,-2.7 -1.6,-5.2 -4.3,-4.8 h -1.1 -0.7 z m 13.6,0 c -2.2,0 -8.5,1.8 -2.9,2.3 0.9,1.9 -1,4.9 -1.1,7.2 -0.5,2.9 -1.4,5.7 -1.7,8.7 3.7,0.7 3.8,-2.6 4.4,-5.3 0.9,-3.3 1.6,-7 4.1,-9.5 2.4,1.6 6.8,-0.7 3.7,-3.4 -2.9,-0.5 -4.8,2.4 -6.2,4.3 0,-1.2 2.4,-5 -0.2,-4.3 z m 15.8,0 c -6.4,1.3 -9.6,9.1 -7.7,14.9 1.9,4 7.7,3.9 11,1.7 4.1,-3 6,-8.9 4.4,-13.7 -1.3,-3 -4.8,-3.2 -7.6,-3 z m 17,0 c -2.3,0 -8.8,1.9 -3,2.4 0.4,2.5 -1,5.7 -1.4,8.4 -0.7,2.4 -1.8,7.5 2.1,7.2 3.8,-0.1 6.5,-3.5 8.5,-6.3 2,-3.2 4.5,-7 3.3,-10.9 -3.7,-3 -3.6,2.6 -3.1,5.1 -0.7,3.8 -2.7,7.9 -6.2,9.8 -3.6,0.6 -1,-4.3 -0.8,-6.1 0.6,-3.2 1.6,-6.3 1.9,-9.5 -0.4,0 -0.8,0 -1.1,0 z m 30.6,0 c -6.3,1.2 -9.5,8.9 -7.8,14.7 1.5,4 7.2,4.2 10.5,2.4 4.6,-2.8 6.6,-9.3 4.8,-14.3 -1.4,-2.8 -4.8,-3 -7.5,-2.8 z m -75.4,1.7 c 2.1,1.5 0.2,4.7 -1.6,5.7 -1.1,0.4 -5.5,3.4 -4.6,0.7 0.8,-2.7 2.2,-6.2 5.3,-6.6 l 0.9,0.1 z m 30.8,0 c 2.6,1.5 1.3,5.2 0.8,7.6 -0.8,2.7 -1.9,5.9 -4.7,7.1 -5.1,0.8 -4,-5.8 -2.8,-8.8 1,-2.8 3,-6.8 6.7,-5.8 z m 47.1,-0.1 c 2.9,0.7 2,4.7 1.5,6.8 -0.7,3 -1.8,6.7 -5,8 -4.7,0.8 -4,-5.1 -3,-7.9 0.9,-3 2.7,-7.3 6.5,-6.8 z m -88.1,5.9 c -0.3,1.3 0.9,-0.6 0,0 z m -1.1,2.4 c -0.2,0.5 0.5,-0.1 0,0 z m -1.3,4.5 c -0.3,1.3 0.8,-0.2 0,0 z" />
                     <text y="41" x="201" fill="#00000" style="font-style:italic;font-weight:normal;font-size:30px;line-height:125%;font-family:Times;text-anchor:middle" xml:space="preserve">engraved with</text>
                  </g>
               </g>
            </g>
         </g>
      </g>
   </svg>
</svg>
