<?xml version="1.0" encoding="UTF-8" standalone="no"?>
<svg width="2100px" height="2970px" version="1.1" xmlns="http://www.w3.org/2000/svg" xmlns:xlink="http://www.w3.org/1999/xlink" xmlns:mei="http://www.music-encoding.org/ns/mei" overflow="visible">
   <desc>Engraved by Verovio 3.13.1</desc>
   <defs>
      <symbol id="E044-1yfvurc" viewBox="0 0 1000 1000" overflow="inherit">
         <path transform="scale(1,-1)" d="M0 0c0 28 22 50 50 50s50 -22 50 -50s-22 -50 -50 -50s-50 22 -50 50z" />
      </symbol>
      <symbol id="E050-1yfvurc" viewBox="0 0 1000 1000" overflow="inherit">
         <path transform="scale(1,-1)" d="M441 -245c-23 -4 -48 -6 -76 -6c-59 0 -102 7 -130 20c-88 42 -150 93 -187 154c-26 44 -43 103 -48 176c0 6 -1 13 -1 19c0 54 15 111 45 170c29 57 65 106 110 148s96 85 153 127c-3 16 -8 46 -13 92c-4 43 -5 73 -5 89c0 117 16 172 69 257c34 54 64 82 89 82 c21 0 43 -30 69 -92s39 -115 41 -159v-15c0 -109 -21 -162 -67 -241c-13 -20 -63 -90 -98 -118c-13 -9 -25 -19 -37 -29l31 -181c8 1 18 2 28 2c58 0 102 -12 133 -35c59 -43 92 -104 98 -184c1 -7 1 -15 1 -22c0 -123 -87 -209 -181 -248c8 -57 17 -110 25 -162 c5 -31 6 -58 6 -80c0 -30 -5 -53 -14 -70c-35 -64 -88 -99 -158 -103c-5 0 -11 -1 -16 -1c-37 0 -72 10 -108 27c-50 24 -77 59 -80 105v11c0 29 7 55 20 76c18 28 45 42 79 44h6c49 0 93 -42 97 -87v-9c0 -51 -34 -86 -105 -106c17 -24 51 -36 102 -36c62 0 116 43 140 85 c9 16 13 41 13 74c0 20 -1 42 -5 67c-8 53 -18 106 -26 159zM461 939c-95 0 -135 -175 -135 -286c0 -24 2 -48 5 -71c50 39 92 82 127 128c40 53 60 100 60 140v8c-4 53 -22 81 -55 81h-2zM406 119l54 -326c73 25 110 78 110 161c0 7 0 15 -1 23c-7 95 -57 142 -151 142h-12 zM382 117c-72 -2 -128 -47 -128 -120v-7c2 -46 43 -99 75 -115c-3 -2 -7 -5 -10 -10c-70 33 -116 88 -123 172v11c0 68 44 126 88 159c23 17 49 29 78 36l-29 170c-21 -13 -52 -37 -92 -73c-50 -44 -86 -84 -109 -119c-45 -69 -67 -130 -67 -182v-13c5 -68 35 -127 93 -176 s125 -73 203 -73c25 0 50 3 75 9c-19 111 -36 221 -54 331z" />
      </symbol>
      <symbol id="E081-1yfvurc" viewBox="0 0 1000 1000" overflow="inherit">
         <path transform="scale(1,-1)" d="M68 -250v36c23 0 40 6 49 18c8 14 12 33 12 57v250l-82 -129l-27 13l107 255h128v-394c0 -24 5 -42 14 -53s25 -17 47 -17v-36h-248z" />
      </symbol>
      <symbol id="E082-1yfvurc" viewBox="0 0 1000 1000" overflow="inherit">
         <path transform="scale(1,-1)" d="M124 -185c-18 0 -55 -14 -65 -65h-36l-3 30c0 25 6 45 18 63c11 19 22 30 39 43l121 82l37 29c15 11 27 29 38 54c12 24 18 47 18 70c0 40 -19 88 -94 88c-25 0 -32 0 -50 -8c-14 -5 -23 -12 -26 -22c3 -9 7 -15 10 -18l24 -17c12 -7 17 -11 27 -21c5 -7 7 -16 7 -27 c0 -12 0 -57 -79 -74c-30 0 -76 26 -76 94c0 66 81 135 197 135c72 0 181 -32 181 -150c0 -53 -32 -95 -113 -133l-91 -41c-26 -11 -45 -23 -57 -37l49 7c84 0 115 -41 148 -41c20 0 33 20 39 61h35c0 -152 -68 -168 -114 -168c-17 0 -65 0 -79 7h10l-28 17 c-49 37 -69 40 -87 42z" />
      </symbol>
      <symbol id="E084-1yfvurc" viewBox="0 0 1000 1000" overflow="inherit">
         <path transform="scale(1,-1)" d="M20 -78c84 97 114 180 134 329h170c-13 -32 -82 -132 -99 -151l-84 -97c-33 -36 -59 -63 -80 -81h162v102l127 123v-225h57v-39h-57v-34c0 -43 19 -65 57 -65v-34h-244v36c48 0 60 26 60 70v27h-203v39z" />
      </symbol>
      <symbol id="E0A4-1yfvurc" viewBox="0 0 1000 1000" overflow="inherit">
         <path transform="scale(1,-1)" d="M0 -39c0 68 73 172 200 172c66 0 114 -37 114 -95c0 -84 -106 -171 -218 -171c-64 0 -96 30 -96 94z" />
      </symbol>
      <symbol id="E262-1yfvurc" viewBox="0 0 1000 1000" overflow="inherit">
         <path transform="scale(1,-1)" d="M136 186v169h17v-164l44 14v-91l-44 -14v-165l44 12v-91l-44 -13v-155h-17v150l-76 -22v-155h-17v149l-43 -13v90l43 14v167l-43 -14v92l43 13v169h17v-163zM60 73v-167l76 22v168z" />
      </symbol>
   </defs>
   <style type="text/css">g.page-margin{font-family:Times;} g.ending, g.fing, g.reh, g.tempo{font-weight:bold;} g.dir, g.dynam, g.mNum{font-style:italic;} g.label{font-weight:normal;}</style>
   <svg class="definition-scale" color="black" viewBox="0 0 21000 29700">
      <g class="page-margin" transform="translate(500, 500)">
         <g id="m1gpwukv" class="mdiv pageMilestone" />
         <g id="sl5ful1" class="score pageMilestone" />
         <g id="sibdcen" class="system">
            <g id="l1cv7uxv" class="label">
               <text x="1105" y="1537" text-anchor="end" font-size="0px">
                  <tspan id="t1do04ii" class="text">
                     <tspan font-size="405px" class="text">Piano</tspan>
                  </tspan>
               </text>
            </g>
            <g id="savah8d" class="section systemMilestone" />
            <g id="pe7audj" class="pb" />
            <g id="m1vxfwot" class="measure">
               <g id="mhehcu8" class="mNum">
                  <text x="1285" y="844" text-anchor="middle" font-size="0px" />
               </g>
               <g id="snisl68" class="staff">
                  <path d="M1285 1087 L3790 1087" stroke="currentColor" stroke-width="13" />
                  <path d="M1285 1267 L3790 1267" stroke="currentColor" stroke-width="13" />
                  <path d="M1285 1447 L3790 1447" stroke="currentColor" stroke-width="13" />
                  <path d="M1285 1627 L3790 1627" stroke="currentColor" stroke-width="13" />
                  <path d="M1285 1807 L3790 1807" stroke="currentColor" stroke-width="13" />
                  <g id="cj75pc6" class="clef">
                     <use xlink:href="#E050-1yfvurc" x="1375" y="1627" height="720px" width="720px" />
                  </g>
                  <g id="k1xqm211" class="keySig">
                     <g id="k1bhxlqy" class="keyAccid">
                        <use xlink:href="#E262-1yfvurc" x="2020" y="1087" height="720px" width="720px" />
                     </g>
                  </g>
                  <g id="mr6zs2f" class="meterSig">
                     <use xlink:href="#E082-1yfvurc" x="2327" y="1267" height="720px" width="720px" />
                     <use xlink:href="#E084-1yfvurc" x="2332" y="1627" height="720px" width="720px" />
                  </g>
                  <g id="lrxycp9" class="layer">
                     <g id="n17itvab" class="note">
                        <g class="notehead">
                           <use xlink:href="#E0A4-1yfvurc" x="2903" y="1267" height="720px" width="720px" />
                        </g>
                        <g id="s44idfi" class="stem">
                           <rect x="2903" y="1295" height="602" width="18" />
                        </g>
                     </g>
                  </g>
               </g>
               <g id="b17r92s9" class="barLine">
                  <path d="M3777 1087 L3777 1807" stroke="currentColor" stroke-width="27" />
               </g>
            </g>
            <g id="m7xthf8" class="measure">
               <g id="sru5idk" class="staff">
                  <path d="M3790 1087 L6453 1087" stroke="currentColor" stroke-width="13" />
                  <path d="M3790 1267 L6453 1267" stroke="currentColor" stroke-width="13" />
                  <path d="M3790 1447 L6453 1447" stroke="currentColor" stroke-width="13" />
                  <path d="M3790 1627 L6453 1627" stroke="currentColor" stroke-width="13" />
                  <path d="M3790 1807 L6453 1807" stroke="currentColor" stroke-width="13" />
                  <g id="lmcsel1" class="layer">
                     <g id="b1xiv9oo" class="beam">
                        <polygon points="3973,1852 4939,1852 4939,1762 3973,1762" />
                        <polygon points="4551,1717 4939,1717 4939,1627 4551,1627" />
                        <g id="n1wsovaf" class="note">
                           <g class="notehead">
                              <use xlink:href="#E0A4-1yfvurc" x="3973" y="1267" height="720px" width="720px" />
                           </g>
                           <g id="s1l2fpxg" class="stem">
                              <rect x="3973" y="1295" height="539" width="18" />
                           </g>
                        </g>
                        <g id="nyezpzb" class="note">
                           <g class="notehead">
                              <use xlink:href="#E0A4-1yfvurc" x="4542" y="1177" height="720px" width="720px" />
                           </g>
                           <g id="s4nzfz2" class="stem">
                              <rect x="4542" y="1205" height="629" width="18" />
                           </g>
                        </g>
                        <g id="no53164" class="note">
                           <g class="notehead">
                              <use xlink:href="#E0A4-1yfvurc" x="4921" y="1267" height="720px" width="720px" />
                           </g>
                           <g id="s32cuyg" class="stem">
                              <rect x="4921" y="1295" height="539" width="18" />
                           </g>
                        </g>
                     </g>
                     <g id="b1nwcoik" class="beam">
                        <polygon points="5301,1942 5888,2032 5888,1942 5301,1852" />
                        <g id="nwmgatj" class="note">
                           <g class="notehead">
                              <use xlink:href="#E0A4-1yfvurc" x="5301" y="1357" height="720px" width="720px" />
                           </g>
                           <g id="snlrxsu" class="stem">
                              <rect x="5301" y="1385" height="539" width="18" />
                           </g>
                        </g>
                        <g id="nwjei22" class="note">
                           <g class="notehead">
                              <use xlink:href="#E0A4-1yfvurc" x="5870" y="1447" height="720px" width="720px" />
                           </g>
                           <g id="s26f25c" class="stem">
                              <rect x="5870" y="1475" height="539" width="18" />
                           </g>
                        </g>
                     </g>
                  </g>
               </g>
               <g id="b1p3cnbr" class="barLine">
                  <path d="M6440 1087 L6440 1807" stroke="currentColor" stroke-width="27" />
               </g>
            </g>
            <g id="m1s4du0s" class="measure">
               <g id="s1hjk5w9" class="staff">
                  <path d="M6453 1087 L8851 1087" stroke="currentColor" stroke-width="13" />
                  <path d="M6453 1267 L8851 1267" stroke="currentColor" stroke-width="13" />
                  <path d="M6453 1447 L8851 1447" stroke="currentColor" stroke-width="13" />
                  <path d="M6453 1627 L8851 1627" stroke="currentColor" stroke-width="13" />
                  <path d="M6453 1807 L8851 1807" stroke="currentColor" stroke-width="13" />
                  <g id="l1aws5l1" class="layer">
                     <g id="bgra3el" class="beam">
                        <polygon points="6636,2077 7602,2077 7602,1987 6636,1987" />
                        <polygon points="7214,1942 7602,1942 7602,1852 7214,1852" />
                        <g id="ngr3gei" class="note">
                           <g class="notehead">
                              <use xlink:href="#E0A4-1yfvurc" x="6636" y="1537" height="720px" width="720px" />
                           </g>
                           <g id="s1tfsyjm" class="stem">
                              <rect x="6636" y="1565" height="494" width="18" />
                           </g>
                        </g>
                        <g id="nvjdx40" class="note">
                           <g class="notehead">
                              <use xlink:href="#E0A4-1yfvurc" x="7205" y="1447" height="720px" width="720px" />
                           </g>
                           <g id="sf97p4i" class="stem">
                              <rect x="7205" y="1475" height="584" width="18" />
                           </g>
                        </g>
                        <g id="n1kalnto" class="note">
                           <g class="notehead">
                              <use xlink:href="#E0A4-1yfvurc" x="7584" y="1357" height="720px" width="720px" />
                           </g>
                           <g id="s1hqat6x" class="stem">
                              <rect x="7584" y="1385" height="674" width="18" />
                           </g>
                        </g>
                     </g>
                     <g id="ntnklob" class="note">
                        <g class="notehead">
                           <use xlink:href="#E0A4-1yfvurc" x="7964" y="1267" height="720px" width="720px" />
                        </g>
                        <g id="s1abdchr" class="stem">
                           <rect x="7964" y="1295" height="602" width="18" />
                        </g>
                     </g>
                  </g>
               </g>
               <g id="bbzp1t1" class="barLine">
                  <path d="M8838 1087 L8838 1807" stroke="currentColor" stroke-width="27" />
               </g>
            </g>
            <g id="m12zs2rs" class="measure">
               <g id="s2dwqki" class="staff">
                  <path d="M8851 1087 L11514 1087" stroke="currentColor" stroke-width="13" />
                  <path d="M8851 1267 L11514 1267" stroke="currentColor" stroke-width="13" />
                  <path d="M8851 1447 L11514 1447" stroke="currentColor" stroke-width="13" />
                  <path d="M8851 1627 L11514 1627" stroke="currentColor" stroke-width="13" />
                  <path d="M8851 1807 L11514 1807" stroke="currentColor" stroke-width="13" />
                  <g id="l4atq96" class="layer">
                     <g id="b1ldzftv" class="beam">
                        <polygon points="9034,1852 10000,1852 10000,1762 9034,1762" />
                        <polygon points="9612,1717 10000,1717 10000,1627 9612,1627" />
                        <g id="ns2kklj" class="note">
                           <g class="notehead">
                              <use xlink:href="#E0A4-1yfvurc" x="9034" y="1267" height="720px" width="720px" />
                           </g>
                           <g id="s1v5fmo6" class="stem">
                              <rect x="9034" y="1295" height="539" width="18" />
                           </g>
                        </g>
                        <g id="nhikzfx" class="note">
                           <g class="notehead">
                              <use xlink:href="#E0A4-1yfvurc" x="9603" y="1177" height="720px" width="720px" />
                           </g>
                           <g id="sg3zzl9" class="stem">
                              <rect x="9603" y="1205" height="629" width="18" />
                           </g>
                        </g>
                        <g id="n1nlhs5q" class="note">
                           <g class="notehead">
                              <use xlink:href="#E0A4-1yfvurc" x="9982" y="1267" height="720px" width="720px" />
                           </g>
                           <g id="s1a70tkm" class="stem">
                              <rect x="9982" y="1295" height="539" width="18" />
                           </g>
                        </g>
                     </g>
                     <g id="bpwyx76" class="beam">
                        <polygon points="10362,1942 10949,2032 10949,1942 10362,1852" />
                        <g id="nkigy50" class="note">
                           <g class="notehead">
                              <use xlink:href="#E0A4-1yfvurc" x="10362" y="1357" height="720px" width="720px" />
                           </g>
                           <g id="snlsygc" class="stem">
                              <rect x="10362" y="1385" height="539" width="18" />
                           </g>
                        </g>
                        <g id="n1862yay" class="note">
                           <g class="notehead">
                              <use xlink:href="#E0A4-1yfvurc" x="10931" y="1447" height="720px" width="720px" />
                           </g>
                           <g id="s1cknfp8" class="stem">
                              <rect x="10931" y="1475" height="539" width="18" />
                           </g>
                        </g>
                     </g>
                  </g>
               </g>
               <g id="b1u3zpzm" class="barLine">
                  <path d="M11501 1087 L11501 1807" stroke="currentColor" stroke-width="27" />
               </g>
            </g>
            <g id="m17048ll" class="measure">
               <g id="sdk82r5" class="staff">
                  <path d="M11514 1087 L13407 1087" stroke="currentColor" stroke-width="13" />
                  <path d="M11514 1267 L13407 1267" stroke="currentColor" stroke-width="13" />
                  <path d="M11514 1447 L13407 1447" stroke="currentColor" stroke-width="13" />
                  <path d="M11514 1627 L13407 1627" stroke="currentColor" stroke-width="13" />
                  <path d="M11514 1807 L13407 1807" stroke="currentColor" stroke-width="13" />
                  <g id="m14lveqf" class="meterSig">
                     <use xlink:href="#E081-1yfvurc" x="11623" y="1267" height="720px" width="720px" />
                     <use xlink:href="#E084-1yfvurc" x="11590" y="1627" height="720px" width="720px" />
                  </g>
                  <g id="l1tvc97v" class="layer">
                     <g id="n199f35k" class="note">
                        <g class="notehead">
                           <use xlink:href="#E0A4-1yfvurc" x="12155" y="1537" height="720px" width="720px" />
                        </g>
                        <g id="s194f8dg" class="stem">
                           <rect x="12363" y="907" height="602" width="18" />
                        </g>
                     </g>
                  </g>
               </g>
               <g id="b1ittcs3" class="barLine">
                  <path d="M13029 1087 L13029 1807" stroke="currentColor" stroke-width="27" />
                  <path d="M13159 1087 L13159 1807" stroke="currentColor" stroke-width="90" />
                  <path d="M13290 1087 L13290 1807" stroke="currentColor" stroke-width="27" />
                  <use xlink:href="#E044-1yfvurc" x="13335" y="1357" height="720px" width="720px" />
                  <use xlink:href="#E044-1yfvurc" x="13335" y="1537" height="720px" width="720px" />
                  <use xlink:href="#E044-1yfvurc" x="12912" y="1357" height="720px" width="720px" />
                  <use xlink:href="#E044-1yfvurc" x="12912" y="1537" height="720px" width="720px" />
               </g>
            </g>
            <g id="m1v4nhpq" class="measure">
               <g id="shryl3l" class="staff">
                  <path d="M13407 1087 L14477 1087" stroke="currentColor" stroke-width="13" />
                  <path d="M13407 1267 L14477 1267" stroke="currentColor" stroke-width="13" />
                  <path d="M13407 1447 L14477 1447" stroke="currentColor" stroke-width="13" />
                  <path d="M13407 1627 L14477 1627" stroke="currentColor" stroke-width="13" />
                  <path d="M13407 1807 L14477 1807" stroke="currentColor" stroke-width="13" />
                  <g id="lyn2am2" class="layer">
                     <g id="n47v6j5" class="note">
                        <g class="notehead">
                           <use xlink:href="#E0A4-1yfvurc" x="13590" y="1537" height="720px" width="720px" />
                        </g>
                        <g id="s16t5vfc" class="stem">
                           <rect x="13798" y="907" height="602" width="18" />
                        </g>
                     </g>
                  </g>
               </g>
               <g id="bktjcos" class="barLine">
                  <path d="M14464 1087 L14464 1807" stroke="currentColor" stroke-width="27" />
               </g>
            </g>
            <g id="m16kboqb" class="measure">
               <g id="s1rkc8yx" class="staff">
                  <path d="M14477 1087 L17609 1087" stroke="currentColor" stroke-width="13" />
                  <path d="M14477 1267 L17609 1267" stroke="currentColor" stroke-width="13" />
                  <path d="M14477 1447 L17609 1447" stroke="currentColor" stroke-width="13" />
                  <path d="M14477 1627 L17609 1627" stroke="currentColor" stroke-width="13" />
                  <path d="M14477 1807 L17609 1807" stroke="currentColor" stroke-width="13" />
                  <g id="m3e2c0h" class="meterSig">
                     <use xlink:href="#E082-1yfvurc" x="14553" y="1267" height="720px" width="720px" />
                     <use xlink:href="#E084-1yfvurc" x="14558" y="1627" height="720px" width="720px" />
                  </g>
                  <g id="lqhxchr" class="layer">
                     <g id="b1tybd0q" class="beam">
                        <polygon points="15337,907 16303,907 16303,997 15337,997" />
                        <polygon points="15915,1042 16303,1042 16303,1132 15915,1132" />
                        <g id="nb8npv6" class="note">
                           <g class="notehead">
                              <use xlink:href="#E0A4-1yfvurc" x="15129" y="1537" height="720px" width="720px" />
                           </g>
                           <g id="svxki8d" class="stem">
                              <rect x="15337" y="925" height="584" width="18" />
                           </g>
                        </g>
                        <g id="ndkj45z" class="note">
                           <g class="notehead">
                              <use xlink:href="#E0A4-1yfvurc" x="15698" y="1537" height="720px" width="720px" />
                           </g>
                           <g id="s30xb7p" class="stem">
                              <rect x="15906" y="925" height="584" width="18" />
                           </g>
                        </g>
                        <g id="n315cku" class="note">
                           <g class="notehead">
                              <use xlink:href="#E0A4-1yfvurc" x="16077" y="1627" height="720px" width="720px" />
                           </g>
                           <g id="sbba8ex" class="stem">
                              <rect x="16285" y="925" height="674" width="18" />
                           </g>
                        </g>
                     </g>
                     <g id="bc8itiq" class="beam">
                        <polygon points="16665,952 17252,862 17252,952 16665,1042" />
                        <g id="n1aasdjo" class="note">
                           <g class="notehead">
                              <use xlink:href="#E0A4-1yfvurc" x="16457" y="1537" height="720px" width="720px" />
                           </g>
                           <g id="s1oz4if5" class="stem">
                              <rect x="16665" y="970" height="539" width="18" />
                           </g>
                        </g>
                        <g id="ncjxzmk" class="note">
                           <g class="notehead">
                              <use xlink:href="#E0A4-1yfvurc" x="17026" y="1447" height="720px" width="720px" />
                           </g>
                           <g id="s1qsx43e" class="stem">
                              <rect x="17234" y="880" height="539" width="18" />
                           </g>
                        </g>
                     </g>
                  </g>
               </g>
               <g id="bfuqn67" class="barLine">
                  <path d="M17596 1087 L17596 1807" stroke="currentColor" stroke-width="27" />
               </g>
            </g>
            <g id="m53qdtr" class="measure">
               <g id="s2fzcop" class="staff">
                  <path d="M17609 1087 L20007 1087" stroke="currentColor" stroke-width="13" />
                  <path d="M17609 1267 L20007 1267" stroke="currentColor" stroke-width="13" />
                  <path d="M17609 1447 L20007 1447" stroke="currentColor" stroke-width="13" />
                  <path d="M17609 1627 L20007 1627" stroke="currentColor" stroke-width="13" />
                  <path d="M17609 1807 L20007 1807" stroke="currentColor" stroke-width="13" />
                  <g id="l1xo5i7" class="layer">
                     <g id="n126dl8i" class="note">
                        <g class="notehead">
                           <use xlink:href="#E0A4-1yfvurc" x="17792" y="1357" height="720px" width="720px" />
                        </g>
                        <g id="sgq1o2b" class="stem">
                           <rect x="17792" y="1385" height="602" width="18" />
                        </g>
                     </g>
                     <g id="bkzevmj" class="beam">
                        <polygon points="18666,1852 19632,1852 19632,1762 18666,1762" />
                        <polygon points="19244,1717 19632,1717 19632,1627 19244,1627" />
                        <g id="nc144pp" class="note">
                           <g class="notehead">
                              <use xlink:href="#E0A4-1yfvurc" x="18666" y="1267" height="720px" width="720px" />
                           </g>
                           <g id="sle0lw2" class="stem">
                              <rect x="18666" y="1295" height="539" width="18" />
                           </g>
                        </g>
                        <g id="nxlgufd" class="note">
                           <g class="notehead">
                              <use xlink:href="#E0A4-1yfvurc" x="19235" y="1267" height="720px" width="720px" />
                           </g>
                           <g id="szu745j" class="stem">
                              <rect x="19235" y="1295" height="539" width="18" />
                           </g>
                        </g>
                        <g id="n10o897r" class="note">
                           <g class="notehead">
                              <use xlink:href="#E0A4-1yfvurc" x="19614" y="1177" height="720px" width="720px" />
                           </g>
                           <g id="s1jqoysl" class="stem">
                              <rect x="19614" y="1205" height="629" width="18" />
                           </g>
                        </g>
                     </g>
                  </g>
               </g>
               <g id="b2og7lf" class="barLine">
                  <path d="M19994 1087 L19994 1807" stroke="currentColor" stroke-width="27" />
               </g>
            </g>
         </g>
         <g id="s19slp23" class="system">
            <g id="ltbrfej" class="labelAbbr">
               <text x="914" y="3886" text-anchor="end" font-size="0px">
                  <tspan id="t6znc7t" class="text">
                     <tspan font-size="405px" class="text">Pno.</tspan>
                  </tspan>
               </text>
            </g>
            <g id="m121a61f" class="measure">
               <g id="m1gbegsb" class="mNum autogenerated">
                  <text x="1094" y="3193" text-anchor="middle" font-size="0px">
                     <tspan id="t1gwzo6s" class="text">
                        <tspan font-size="324px" class="text">8</tspan>
                     </tspan>
                  </text>
               </g>
               <g id="s1hz8mx2" class="staff">
                  <path d="M1094 3436 L4505 3436" stroke="currentColor" stroke-width="13" />
                  <path d="M1094 3616 L4505 3616" stroke="currentColor" stroke-width="13" />
                  <path d="M1094 3796 L4505 3796" stroke="currentColor" stroke-width="13" />
                  <path d="M1094 3976 L4505 3976" stroke="currentColor" stroke-width="13" />
                  <path d="M1094 4156 L4505 4156" stroke="currentColor" stroke-width="13" />
                  <g id="c1363d8" class="clef">
                     <use xlink:href="#E050-1yfvurc" x="1184" y="3976" height="720px" width="720px" />
                  </g>
                  <g id="k17533ul" class="keySig">
                     <g id="kzzwn0w" class="keyAccid">
                        <use xlink:href="#E262-1yfvurc" x="1829" y="3436" height="720px" width="720px" />
                     </g>
                  </g>
                  <g id="l1jje2sy" class="layer">
                     <g id="b12henb1" class="beam">
                        <polygon points="2240,4246 2821,4426 2821,4336 2240,4156" />
                        <g id="n8h1o10" class="note">
                           <g class="notehead">
                              <use xlink:href="#E0A4-1yfvurc" x="2240" y="3616" height="720px" width="720px" />
                           </g>
                           <g id="skgyhvn" class="stem">
                              <rect x="2240" y="3644" height="584" width="18" />
                           </g>
                        </g>
                        <g id="nk5aayg" class="note">
                           <g class="notehead">
                              <use xlink:href="#E0A4-1yfvurc" x="2803" y="3886" height="720px" width="720px" />
                           </g>
                           <g id="sw3svgu" class="stem">
                              <rect x="2803" y="3914" height="494" width="18" />
                           </g>
                        </g>
                     </g>
                     <g id="beb4uvz" class="beam">
                        <polygon points="3574,3301 4155,3211 4155,3301 3574,3391" />
                        <g id="nu8v2sb" class="note">
                           <g class="notehead">
                              <use xlink:href="#E0A4-1yfvurc" x="3366" y="3886" height="720px" width="720px" />
                           </g>
                           <g id="siqcgrx" class="stem">
                              <rect x="3574" y="3319" height="539" width="18" />
                           </g>
                        </g>
                        <g id="nbtla52" class="note">
                           <g class="notehead">
                              <use xlink:href="#E0A4-1yfvurc" x="3929" y="3796" height="720px" width="720px" />
                           </g>
                           <g id="suoq3wn" class="stem">
                              <rect x="4137" y="3229" height="539" width="18" />
                           </g>
                        </g>
                     </g>
                  </g>
               </g>
               <g id="b1enc7zy" class="barLine">
                  <path d="M4492 3436 L4492 4156" stroke="currentColor" stroke-width="27" />
               </g>
            </g>
            <g id="skae78a" class="sb" />
            <g id="moqxzeh" class="measure">
               <g id="s1a3uxnt" class="staff">
                  <path d="M4505 3436 L6688 3436" stroke="currentColor" stroke-width="13" />
                  <path d="M4505 3616 L6688 3616" stroke="currentColor" stroke-width="13" />
                  <path d="M4505 3796 L6688 3796" stroke="currentColor" stroke-width="13" />
                  <path d="M4505 3976 L6688 3976" stroke="currentColor" stroke-width="13" />
                  <path d="M4505 4156 L6688 4156" stroke="currentColor" stroke-width="13" />
                  <g id="lwzrt3m" class="layer">
                     <g id="b66l2kn" class="beam">
                        <polygon points="4893,3346 5474,3436 5474,3526 4893,3436" />
                        <g id="noyw49y" class="note">
                           <g class="notehead">
                              <use xlink:href="#E0A4-1yfvurc" x="4685" y="3976" height="720px" width="720px" />
                           </g>
                           <g id="s18drjqc" class="stem">
                              <rect x="4893" y="3364" height="584" width="18" />
                           </g>
                        </g>
                        <g id="n1uuday2" class="note">
                           <g class="notehead">
                              <use xlink:href="#E0A4-1yfvurc" x="5248" y="4066" height="720px" width="720px" />
                           </g>
                           <g id="s17cepsp" class="stem">
                              <rect x="5456" y="3454" height="584" width="18" />
                           </g>
                           <g id="ajso1b8" class="accid" />
                        </g>
                     </g>
                     <g id="nc31mif" class="note">
                        <g class="notehead">
                           <use xlink:href="#E0A4-1yfvurc" x="5811" y="3886" height="720px" width="720px" />
                        </g>
                        <g id="sdb6904" class="stem">
                           <rect x="6019" y="3256" height="602" width="18" />
                        </g>
                     </g>
                  </g>
               </g>
               <g id="bcfhpjq" class="barLine">
                  <path d="M6675 3436 L6675 4156" stroke="currentColor" stroke-width="27" />
               </g>
            </g>
            <g id="mdxzyrr" class="measure">
               <g id="s1rg4ca1" class="staff">
                  <path d="M6688 3436 L9320 3436" stroke="currentColor" stroke-width="13" />
                  <path d="M6688 3616 L9320 3616" stroke="currentColor" stroke-width="13" />
                  <path d="M6688 3796 L9320 3796" stroke="currentColor" stroke-width="13" />
                  <path d="M6688 3976 L9320 3976" stroke="currentColor" stroke-width="13" />
                  <path d="M6688 4156 L9320 4156" stroke="currentColor" stroke-width="13" />
                  <g id="l1e52n7x" class="layer">
                     <g id="btqcboc" class="beam">
                        <polygon points="7076,3256 8032,3256 8032,3346 7076,3346" />
                        <polygon points="7648,3391 8032,3391 8032,3481 7648,3481" />
                        <g id="n1smeuyv" class="note">
                           <g class="notehead">
                              <use xlink:href="#E0A4-1yfvurc" x="6868" y="3886" height="720px" width="720px" />
                           </g>
                           <g id="soxyoxx" class="stem">
                              <rect x="7076" y="3274" height="584" width="18" />
                           </g>
                        </g>
                        <g id="n1hx3tib" class="note">
                           <g class="notehead">
                              <use xlink:href="#E0A4-1yfvurc" x="7431" y="3886" height="720px" width="720px" />
                           </g>
                           <g id="smynhk7" class="stem">
                              <rect x="7639" y="3274" height="584" width="18" />
                           </g>
                        </g>
                        <g id="nyxpmds" class="note">
                           <g class="notehead">
                              <use xlink:href="#E0A4-1yfvurc" x="7806" y="3976" height="720px" width="720px" />
                           </g>
                           <g id="skl2f62" class="stem">
                              <rect x="8014" y="3274" height="674" width="18" />
                           </g>
                        </g>
                     </g>
                     <g id="b1f4e5zq" class="beam">
                        <polygon points="8389,3301 8970,3211 8970,3301 8389,3391" />
                        <g id="n1e38ibl" class="note">
                           <g class="notehead">
                              <use xlink:href="#E0A4-1yfvurc" x="8181" y="3886" height="720px" width="720px" />
                           </g>
                           <g id="set7s97" class="stem">
                              <rect x="8389" y="3319" height="539" width="18" />
                           </g>
                        </g>
                        <g id="n9nscnm" class="note">
                           <g class="notehead">
                              <use xlink:href="#E0A4-1yfvurc" x="8744" y="3796" height="720px" width="720px" />
                           </g>
                           <g id="svy45op" class="stem">
                              <rect x="8952" y="3229" height="539" width="18" />
                           </g>
                        </g>
                     </g>
                  </g>
               </g>
               <g id="b814zz8" class="barLine">
                  <path d="M9307 3436 L9307 4156" stroke="currentColor" stroke-width="27" />
               </g>
            </g>
            <g id="m1iknvax" class="measure">
               <g id="so0cxcn" class="staff">
                  <path d="M9320 3436 L11690 3436" stroke="currentColor" stroke-width="13" />
                  <path d="M9320 3616 L11690 3616" stroke="currentColor" stroke-width="13" />
                  <path d="M9320 3796 L11690 3796" stroke="currentColor" stroke-width="13" />
                  <path d="M9320 3976 L11690 3976" stroke="currentColor" stroke-width="13" />
                  <path d="M9320 4156 L11690 4156" stroke="currentColor" stroke-width="13" />
                  <g id="l2xmutt" class="layer">
                     <g id="n1fi29o6" class="note">
                        <g class="notehead">
                           <use xlink:href="#E0A4-1yfvurc" x="9500" y="3706" height="720px" width="720px" />
                        </g>
                        <g id="s19kt1a" class="stem">
                           <rect x="9500" y="3734" height="602" width="18" />
                        </g>
                     </g>
                     <g id="blwtv66" class="beam">
                        <polygon points="10364,4201 11320,4201 11320,4111 10364,4111" />
                        <polygon points="10936,4066 11320,4066 11320,3976 10936,3976" />
                        <g id="n1lwnc2a" class="note">
                           <g class="notehead">
                              <use xlink:href="#E0A4-1yfvurc" x="10364" y="3616" height="720px" width="720px" />
                           </g>
                           <g id="s1jmvodd" class="stem">
                              <rect x="10364" y="3644" height="539" width="18" />
                           </g>
                        </g>
                        <g id="n6hv5ij" class="note">
                           <g class="notehead">
                              <use xlink:href="#E0A4-1yfvurc" x="10927" y="3616" height="720px" width="720px" />
                           </g>
                           <g id="sdvv14l" class="stem">
                              <rect x="10927" y="3644" height="539" width="18" />
                           </g>
                        </g>
                        <g id="n4hxuvw" class="note">
                           <g class="notehead">
                              <use xlink:href="#E0A4-1yfvurc" x="11302" y="3526" height="720px" width="720px" />
                           </g>
                           <g id="sp5374v" class="stem">
                              <rect x="11302" y="3554" height="629" width="18" />
                           </g>
                        </g>
                     </g>
                  </g>
               </g>
               <g id="b1832cs0" class="barLine">
                  <path d="M11677 3436 L11677 4156" stroke="currentColor" stroke-width="27" />
               </g>
            </g>
            <g id="m7558gv" class="measure">
               <g id="sqb748t" class="staff">
                  <path d="M11690 3436 L14135 3436" stroke="currentColor" stroke-width="13" />
                  <path d="M11690 3616 L14135 3616" stroke="currentColor" stroke-width="13" />
                  <path d="M11690 3796 L14135 3796" stroke="currentColor" stroke-width="13" />
                  <path d="M11690 3976 L14135 3976" stroke="currentColor" stroke-width="13" />
                  <path d="M11690 4156 L14135 4156" stroke="currentColor" stroke-width="13" />
                  <g id="ltk1uox" class="layer">
                     <g id="b1v2y2k1" class="beam">
                        <polygon points="11870,4201 12451,4201 12451,4111 11870,4111" />
                        <g id="ntf2ros" class="note">
                           <g class="notehead">
                              <use xlink:href="#E0A4-1yfvurc" x="11870" y="3616" height="720px" width="720px" />
                           </g>
                           <g id="s1kzp9q9" class="stem">
                              <rect x="11870" y="3644" height="539" width="18" />
                           </g>
                        </g>
                        <g id="nxszwpp" class="note">
                           <g class="notehead">
                              <use xlink:href="#E0A4-1yfvurc" x="12433" y="3616" height="720px" width="720px" />
                           </g>
                           <g id="s10xw36b" class="stem">
                              <rect x="12433" y="3644" height="539" width="18" />
                           </g>
                        </g>
                     </g>
                     <g id="b1hffc4l" class="beam">
                        <polygon points="13204,3301 13785,3211 13785,3301 13204,3391" />
                        <g id="ny5yqbx" class="note">
                           <g class="notehead">
                              <use xlink:href="#E0A4-1yfvurc" x="12996" y="3886" height="720px" width="720px" />
                           </g>
                           <g id="s1upef6o" class="stem">
                              <rect x="13204" y="3319" height="539" width="18" />
                           </g>
                        </g>
                        <g id="n1txn2o" class="note">
                           <g class="notehead">
                              <use xlink:href="#E0A4-1yfvurc" x="13559" y="3796" height="720px" width="720px" />
                           </g>
                           <g id="scsoqig" class="stem">
                              <rect x="13767" y="3229" height="539" width="18" />
                           </g>
                        </g>
                     </g>
                  </g>
               </g>
               <g id="bg35r3i" class="barLine">
                  <path d="M14122 3436 L14122 4156" stroke="currentColor" stroke-width="27" />
               </g>
            </g>
            <g id="mx5wzgq" class="measure">
               <g id="svof1yw" class="staff">
                  <path d="M14135 3436 L15812 3436" stroke="currentColor" stroke-width="13" />
                  <path d="M14135 3616 L15812 3616" stroke="currentColor" stroke-width="13" />
                  <path d="M14135 3796 L15812 3796" stroke="currentColor" stroke-width="13" />
                  <path d="M14135 3976 L15812 3976" stroke="currentColor" stroke-width="13" />
                  <path d="M14135 4156 L15812 4156" stroke="currentColor" stroke-width="13" />
                  <g id="m75ptlz" class="meterSig">
                     <use xlink:href="#E081-1yfvurc" x="14244" y="3616" height="720px" width="720px" />
                     <use xlink:href="#E084-1yfvurc" x="14211" y="3976" height="720px" width="720px" />
                  </g>
                  <g id="l1it5imb" class="layer">
                     <g id="n1waab91" class="note">
                        <g class="notehead">
                           <use xlink:href="#E0A4-1yfvurc" x="14773" y="3976" height="720px" width="720px" />
                        </g>
                        <g id="s1or7274" class="stem">
                           <rect x="14981" y="3346" height="602" width="18" />
                        </g>
                     </g>
                  </g>
               </g>
               <g id="b146e8v2" class="barLine">
                  <path d="M15637 3436 L15637 4156" stroke="currentColor" stroke-width="27" />
                  <path d="M15767 3436 L15767 4156" stroke="currentColor" stroke-width="90" />
               </g>
            </g>
            <g id="shq5erd" class="systemMilestoneEnd savah8d" />
         </g>
         <g id="pjoaqex" class="pageMilestoneEnd sl5ful1" />
         <g id="p95n80y" class="pageMilestoneEnd m1gpwukv" />
         <g id="p1j12ugb" class="pgHead">
            <text x="0" y="0" font-size="0px">
               <tspan id="r1byvrbf" class="rend" x="10000" y="279" text-anchor="middle">
                  <tspan id="t9jt383" class="text">
                     <tspan font-size="405px" class="text">Air n 95</tspan>
                  </tspan>
               </tspan>
            </text>
         </g>
         <g id="p19dsvdu" class="pgFoot autogenerated">
            <g id="f1bax62w" class="fig">
               <g id="s1ndn4lc" class="svg" transform="translate(7750, 28099) scale(10, 10)">
                  <g>
                     <path fill="#00000" d="M 17.11278,49.26451 V 10.367554 h 12.696511 c 3.288815,7.336676 6.71267,14.610456 10.127281,21.888976 3.419998,-7.484684 6.255515,-14.204887 9.58887,-21.909915 2.436207,0.103726 4.316952,0.08453 6.484294,-0.05808 V 49.264423 H 50.274275 C 50.145222,38.35639 50.016136,27.448368 49.887066,16.540329 45.003488,27.315459 39.967448,38.433564 35.083854,49.208695 34.678996,49.343717 34.426583,49.135619 34.021726,49.270644 29.46588,39.330716 24.910049,29.390805 20.354201,19.450876 20.224341,29.388756 20.09461,39.326619 19.964815,49.264497 H 17.11278 Z M 36.754144,39.324695 C 32.721221,30.512695 28.6883,21.700679 24.655394,12.888662 22.530527,12.750737 22.656775,12.71031 20.714356,12.813974 v 0.966497 c 4.612938,9.99784 9.609439,20.748709 13.87298,30.081745 0.722248,-1.512523 1.444528,-3.025014 2.166808,-4.537521 z m 25.738417,9.939815 c 0,-12.965651 0,-25.931305 0,-38.896956 10.084388,0 20.168791,0 30.253178,0 0,0.960416 0,1.920849 0,2.881265 -6.482825,0 -12.965652,0 -19.448478,0 0,4.802097 0,9.604178 0,14.406277 5.52241,0 11.044819,0 16.567229,0 0,0.960415 0,1.920832 0,2.881248 -5.52241,0 -11.044819,0 -16.567229,0 0,5.282306 0,10.564611 0,15.846917 6.963035,0 13.926068,0 20.889103,0 0,0.960416 0,1.920832 0,2.881249 -10.564597,0 -21.129207,0 -31.693803,0 z m 4.321874,-2.160937 c 0,-11.765131 0,-23.530263 0,-35.295394 -0.720312,0 -1.440625,0 -2.160937,0 0,11.765131 0,23.530263 0,35.295394 0.720312,0 1.440625,0 2.160937,0 z m 32.41413,2.160937 c 0,-12.965651 0,-25.931305 0,-38.896956 2.401045,0 4.802095,0 7.203135,0 0,12.965651 0,25.931305 0,38.896956 -2.40104,0 -4.80209,0 -7.203135,0 z m 2.881265,-2.160937 c 0,-11.765131 0,-23.530263 0,-35.295394 -0.72031,0 -1.44064,0 -2.160953,0 0,11.765131 0,23.530263 0,35.295394 0.720313,0 1.440643,0 2.160953,0 z" />
                     <path fill="#00000" d="m 346.3,6.7 c -3.1,0.5 -4.9,4.4 -2.7,6.8 1.2,1.4 2.7,2.4 4.1,3.5 -2.4,5.3 -7.7,8.3 -11.9,12.1 -3.7,2.8 -7,6.2 -9.7,9.9 -2.2,-0.8 -0.3,-6.8 -0.6,-9.5 0.1,-3.1 0.7,-6.4 2.9,-8.7 1.3,-1.9 3,-3.5 4.5,-5.2 1.2,-3.4 -3.2,-4.9 -5.8,-4.6 -7.3,-0.5 -14.6,2 -20,6.8 -5,4.6 -10,10.1 -11.5,17 -0.9,3.5 -0.2,7.5 2.8,9.9 2.5,2.8 7.4,2.9 9.8,-0.2 1.7,-2.3 3.2,-4.8 3.8,-7.6 -0.1,-2.6 -4.4,-2.3 -4.3,0.2 1.2,2.4 -0.9,4.7 -2.7,6.2 -1.7,0.9 -4.7,0.7 -4.8,-1.7 -1,-5.8 2.1,-11.3 5.2,-16.1 4,-5.8 9.8,-11.2 17.2,-11.8 1.6,0 8.1,-1.2 6.8,1.4 -2.8,2.8 -5.6,6.1 -6,10.3 -1.6,7.7 0.1,15.7 -2.3,23.2 -1.1,3.9 2,2.6 2.5,0.2 3.3,-7.4 8.9,-13.4 15.1,-18.5 4.2,-3.9 9.5,-7.1 11.9,-12.6 1.3,-3.6 1.2,-9 -2.7,-10.9 -0.6,-0.2 -1.2,-0.3 -1.8,-0.3 z m 66,14.5 c -2,0.8 -1.8,4.9 0.8,4.4 3.4,0.4 2.9,-6.2 -0.8,-4.4 z m 0.6,7.3 c -1.3,0.5 -7.6,0.5 -5.4,2.2 4,-0.3 0.7,4.5 0.6,6.7 -0.4,2.9 -2.4,5.9 -1.2,8.8 2.7,1.7 5.6,-0.8 6.8,-3.2 1.6,-1.4 -0.5,-3 -1.2,-0.9 -0.4,0.8 -2.4,3.5 -2.6,1.8 1.1,-5 2.7,-9.9 3.9,-14.9 l -0.1,-0.5 h -0.9 z m -65.1,0.2 c -6.5,1.6 -10.5,9.5 -8.2,15.7 2.1,3.4 7.4,2.9 10.1,0.4 2,-0.2 3.6,-5.3 1,-3.4 -1.4,2 -4,4.2 -6.5,2.8 -2.2,-1.9 -1.9,-5.7 1.7,-5.3 3.1,-0.9 6.9,-2.1 8.1,-5.5 0.9,-2.7 -1.6,-5.2 -4.3,-4.8 h -1.1 -0.7 z m 13.6,0 c -2.2,0 -8.5,1.8 -2.9,2.3 0.9,1.9 -1,4.9 -1.1,7.2 -0.5,2.9 -1.4,5.7 -1.7,8.7 3.7,0.7 3.8,-2.6 4.4,-5.3 0.9,-3.3 1.6,-7 4.1,-9.5 2.4,1.6 6.8,-0.7 3.7,-3.4 -2.9,-0.5 -4.8,2.4 -6.2,4.3 0,-1.2 2.4,-5 -0.2,-4.3 z m 15.8,0 c -6.4,1.3 -9.6,9.1 -7.7,14.9 1.9,4 7.7,3.9 11,1.7 4.1,-3 6,-8.9 4.4,-13.7 -1.3,-3 -4.8,-3.2 -7.6,-3 z m 17,0 c -2.3,0 -8.8,1.9 -3,2.4 0.4,2.5 -1,5.7 -1.4,8.4 -0.7,2.4 -1.8,7.5 2.1,7.2 3.8,-0.1 6.5,-3.5 8.5,-6.3 2,-3.2 4.5,-7 3.3,-10.9 -3.7,-3 -3.6,2.6 -3.1,5.1 -0.7,3.8 -2.7,7.9 -6.2,9.8 -3.6,0.6 -1,-4.3 -0.8,-6.1 0.6,-3.2 1.6,-6.3 1.9,-9.5 -0.4,0 -0.8,0 -1.1,0 z m 30.6,0 c -6.3,1.2 -9.5,8.9 -7.8,14.7 1.5,4 7.2,4.2 10.5,2.4 4.6,-2.8 6.6,-9.3 4.8,-14.3 -1.4,-2.8 -4.8,-3 -7.5,-2.8 z m -75.4,1.7 c 2.1,1.5 0.2,4.7 -1.6,5.7 -1.1,0.4 -5.5,3.4 -4.6,0.7 0.8,-2.7 2.2,-6.2 5.3,-6.6 l 0.9,0.1 z m 30.8,0 c 2.6,1.5 1.3,5.2 0.8,7.6 -0.8,2.7 -1.9,5.9 -4.7,7.1 -5.1,0.8 -4,-5.8 -2.8,-8.8 1,-2.8 3,-6.8 6.7,-5.8 z m 47.1,-0.1 c 2.9,0.7 2,4.7 1.5,6.8 -0.7,3 -1.8,6.7 -5,8 -4.7,0.8 -4,-5.1 -3,-7.9 0.9,-3 2.7,-7.3 6.5,-6.8 z m -88.1,5.9 c -0.3,1.3 0.9,-0.6 0,0 z m -1.1,2.4 c -0.2,0.5 0.5,-0.1 0,0 z m -1.3,4.5 c -0.3,1.3 0.8,-0.2 0,0 z" />
                     <text y="41" x="201" fill="#00000" style="font-style:italic;font-weight:normal;font-size:30px;line-height:125%;font-family:Times;text-anchor:middle" xml:space="preserve">engraved with</text>
                  </g>
               </g>
            </g>
         </g>
      </g>
   </svg>
</svg>
