<?xml version="1.0" encoding="UTF-8" standalone="no"?>
<svg width="2100px" height="2970px" version="1.1" xmlns="http://www.w3.org/2000/svg" xmlns:xlink="http://www.w3.org/1999/xlink" xmlns:mei="http://www.music-encoding.org/ns/mei" overflow="visible">
   <desc>Engraved by Verovio 3.13.1</desc>
   <defs>
      <symbol id="E655-anhqbb" viewBox="0 0 1000 1000" overflow="inherit">
         <path transform="scale(1,-1)" d="M217 245c-22 0 -39 -16 -39 -37c0 -18 21 -34 39 -35c20 0 35 18 35 37c0 21 -15 34 -35 35zM44 318c3 26 25 51 52 51c16 0 28 -4 32 -12c11 -14 14 -56 22 -76c6 -8 14 -12 25 -14l16 5c9 5 14 11 15 25c0 7 -2 13 -5 17l-11 18l-17 17l-9 22c0 28 25 47 53 47 s50 -23 50 -47c0 -20 -7 -25 -21 -39l-15 -20c-4 -7 -6 -13 -7 -18c1 -4 5 -11 5 -14l11 -11l14 -7c20 2 30 22 33 47c0 39 17 58 49 58c26 0 46 -21 46 -47c0 -29 -23 -46 -54 -46c-30 0 -45 -11 -48 -34l5 -12c1 -3 4 -5 7 -8c1 -2 6 -3 14 -5c10 2 17 6 23 12 c8 3 6 4 16 12l21 15c4 3 12 5 21 5c23 0 43 -26 44 -49c0 -20 -16 -41 -30 -49c-3 -1 -10 -3 -19 -4c-7 1 -16 7 -30 18l-26 19c-4 3 -11 4 -20 4c-8 0 -14 -1 -17 -4l-9 -19c2 -13 6 -21 14 -24l11 -4l27 -5c16 0 28 -4 37 -12c9 -6 13 -17 13 -34c0 -13 -5 -25 -14 -34 c-9 -8 -22 -13 -36 -16c-11 2 -23 8 -34 19c-8 11 -11 27 -11 47c0 11 -4 21 -7 27c-5 8 -14 12 -26 12c-19 0 -29 -15 -32 -31c3 -7 8 -14 11 -21c4 -8 8 -14 13 -21l8 -8l5 -10c3 -5 4 -13 5 -21c0 -26 -26 -39 -52 -39c-25 0 -45 15 -48 39c1 6 5 18 7 21 c11 14 22 29 33 43c2 4 3 10 4 19c0 17 -8 26 -24 29c-31 0 -40 -20 -40 -51s-17 -49 -48 -54c-33 7 -42 20 -50 52c3 31 25 46 66 46c19 0 37 12 37 31c0 8 -3 13 -8 16c-3 4 -8 7 -16 7c-10 0 -24 -6 -40 -18c-14 -9 -25 -16 -39 -21c-28 3 -45 20 -46 51 c0 26 18 47 44 47c19 0 31 -9 44 -19l18 -14l19 -7c18 4 26 12 26 23c0 23 -15 34 -46 34c-37 0 -57 14 -61 44z" />
      </symbol>
      <symbol id="E4C0-anhqbb" viewBox="0 0 1000 1000" overflow="inherit">
         <path transform="scale(1,-1)" d="M605 21zM0 0c0 3 3 17 4 21c58 293 250 299 295 299h5h5c42 0 236 -6 295 -299c1 -4 1 -18 1 -21h-32c-1 1 -4 22 -5 25c-10 38 -52 202 -265 202c-208 0 -252 -159 -264 -200c-1 -4 -6 -26 -6 -27h-33zM358 52c0 -30 -25 -55 -55 -55c-29 0 -54 25 -54 55 c0 29 25 54 54 54c30 0 55 -25 55 -54z" />
      </symbol>
      <symbol id="E044-anhqbb" viewBox="0 0 1000 1000" overflow="inherit">
         <path transform="scale(1,-1)" d="M0 0c0 28 22 50 50 50s50 -22 50 -50s-22 -50 -50 -50s-50 22 -50 50z" />
      </symbol>
      <symbol id="E050-anhqbb" viewBox="0 0 1000 1000" overflow="inherit">
         <path transform="scale(1,-1)" d="M441 -245c-23 -4 -48 -6 -76 -6c-59 0 -102 7 -130 20c-88 42 -150 93 -187 154c-26 44 -43 103 -48 176c0 6 -1 13 -1 19c0 54 15 111 45 170c29 57 65 106 110 148s96 85 153 127c-3 16 -8 46 -13 92c-4 43 -5 73 -5 89c0 117 16 172 69 257c34 54 64 82 89 82 c21 0 43 -30 69 -92s39 -115 41 -159v-15c0 -109 -21 -162 -67 -241c-13 -20 -63 -90 -98 -118c-13 -9 -25 -19 -37 -29l31 -181c8 1 18 2 28 2c58 0 102 -12 133 -35c59 -43 92 -104 98 -184c1 -7 1 -15 1 -22c0 -123 -87 -209 -181 -248c8 -57 17 -110 25 -162 c5 -31 6 -58 6 -80c0 -30 -5 -53 -14 -70c-35 -64 -88 -99 -158 -103c-5 0 -11 -1 -16 -1c-37 0 -72 10 -108 27c-50 24 -77 59 -80 105v11c0 29 7 55 20 76c18 28 45 42 79 44h6c49 0 93 -42 97 -87v-9c0 -51 -34 -86 -105 -106c17 -24 51 -36 102 -36c62 0 116 43 140 85 c9 16 13 41 13 74c0 20 -1 42 -5 67c-8 53 -18 106 -26 159zM461 939c-95 0 -135 -175 -135 -286c0 -24 2 -48 5 -71c50 39 92 82 127 128c40 53 60 100 60 140v8c-4 53 -22 81 -55 81h-2zM406 119l54 -326c73 25 110 78 110 161c0 7 0 15 -1 23c-7 95 -57 142 -151 142h-12 zM382 117c-72 -2 -128 -47 -128 -120v-7c2 -46 43 -99 75 -115c-3 -2 -7 -5 -10 -10c-70 33 -116 88 -123 172v11c0 68 44 126 88 159c23 17 49 29 78 36l-29 170c-21 -13 -52 -37 -92 -73c-50 -44 -86 -84 -109 -119c-45 -69 -67 -130 -67 -182v-13c5 -68 35 -127 93 -176 s125 -73 203 -73c25 0 50 3 75 9c-19 111 -36 221 -54 331z" />
      </symbol>
      <symbol id="E082-anhqbb" viewBox="0 0 1000 1000" overflow="inherit">
         <path transform="scale(1,-1)" d="M124 -185c-18 0 -55 -14 -65 -65h-36l-3 30c0 25 6 45 18 63c11 19 22 30 39 43l121 82l37 29c15 11 27 29 38 54c12 24 18 47 18 70c0 40 -19 88 -94 88c-25 0 -32 0 -50 -8c-14 -5 -23 -12 -26 -22c3 -9 7 -15 10 -18l24 -17c12 -7 17 -11 27 -21c5 -7 7 -16 7 -27 c0 -12 0 -57 -79 -74c-30 0 -76 26 -76 94c0 66 81 135 197 135c72 0 181 -32 181 -150c0 -53 -32 -95 -113 -133l-91 -41c-26 -11 -45 -23 -57 -37l49 7c84 0 115 -41 148 -41c20 0 33 20 39 61h35c0 -152 -68 -168 -114 -168c-17 0 -65 0 -79 7h10l-28 17 c-49 37 -69 40 -87 42z" />
      </symbol>
      <symbol id="E084-anhqbb" viewBox="0 0 1000 1000" overflow="inherit">
         <path transform="scale(1,-1)" d="M20 -78c84 97 114 180 134 329h170c-13 -32 -82 -132 -99 -151l-84 -97c-33 -36 -59 -63 -80 -81h162v102l127 123v-225h57v-39h-57v-34c0 -43 19 -65 57 -65v-34h-244v36c48 0 60 26 60 70v27h-203v39z" />
      </symbol>
      <symbol id="E0A4-anhqbb" viewBox="0 0 1000 1000" overflow="inherit">
         <path transform="scale(1,-1)" d="M0 -39c0 68 73 172 200 172c66 0 114 -37 114 -95c0 -84 -106 -171 -218 -171c-64 0 -96 30 -96 94z" />
      </symbol>
   </defs>
   <style type="text/css">g.page-margin{font-family:Times;} g.ending, g.fing, g.reh, g.tempo{font-weight:bold;} g.dir, g.dynam, g.mNum{font-style:italic;} g.label{font-weight:normal;}</style>
   <svg class="definition-scale" color="black" viewBox="0 0 21000 29700">
      <g class="page-margin" transform="translate(500, 500)">
         <g id="mzdiewp" class="mdiv pageMilestone" />
         <g id="suwkrjq" class="score pageMilestone" />
         <g id="s1plo8d7" class="system">
            <g id="lbc65bf" class="label">
               <text x="1105" y="1537" text-anchor="end" font-size="0px">
                  <tspan id="tfkb8sc" class="text">
                     <tspan font-size="405px" class="text">Piano</tspan>
                  </tspan>
               </text>
            </g>
            <g id="szi9jkp" class="section systemMilestone" />
            <g id="ph2u59g" class="pb" />
            <g id="molrttn" class="measure">
               <g id="sxlh71c" class="staff">
                  <path d="M1285 1087 L5158 1087" stroke="currentColor" stroke-width="13" />
                  <path d="M1285 1267 L5158 1267" stroke="currentColor" stroke-width="13" />
                  <path d="M1285 1447 L5158 1447" stroke="currentColor" stroke-width="13" />
                  <path d="M1285 1627 L5158 1627" stroke="currentColor" stroke-width="13" />
                  <path d="M1285 1807 L5158 1807" stroke="currentColor" stroke-width="13" />
                  <g id="c15lt5lc" class="clef">
                     <use xlink:href="#E050-anhqbb" x="1375" y="1627" height="720px" width="720px" />
                  </g>
                  <g id="k13lk2in" class="keySig" />
                  <g id="m1q8sz67" class="meterSig">
                     <use xlink:href="#E082-anhqbb" x="2006" y="1267" height="720px" width="720px" />
                     <use xlink:href="#E084-anhqbb" x="2011" y="1627" height="720px" width="720px" />
                  </g>
                  <g id="l3zhc36" class="layer">
                     <g id="b1wgz2yu" class="beam">
                        <polygon points="2582,1897 3699,1942 3699,1852 2582,1807" />
                        <polygon points="2582,1762 2957,1777 2957,1687 2582,1672" />
                        <polygon points="2957,1777 3324,1793 3324,1703 2957,1687" />
                        <polygon points="3324,1793 3699,1807 3699,1717 3324,1703" />
                        <g id="n1a59gcs" class="note">
                           <g class="notehead">
                              <use xlink:href="#E0A4-anhqbb" x="2582" y="1177" height="720px" width="720px" />
                           </g>
                           <g id="smiogui" class="stem">
                              <rect x="2582" y="1205" height="674" width="18" />
                           </g>
                        </g>
                        <g id="nhmrir4" class="note">
                           <g class="notehead">
                              <use xlink:href="#E0A4-anhqbb" x="2948" y="1177" height="720px" width="720px" />
                           </g>
                           <g id="saswtlw" class="stem">
                              <rect x="2948" y="1205" height="689" width="18" />
                           </g>
                        </g>
                        <g id="n1slehl4" class="note">
                           <g class="notehead">
                              <use xlink:href="#E0A4-anhqbb" x="3315" y="1177" height="720px" width="720px" />
                           </g>
                           <g id="s1m8rviy" class="stem">
                              <rect x="3315" y="1205" height="705" width="18" />
                           </g>
                        </g>
                        <g id="nur2swk" class="note">
                           <g class="notehead">
                              <use xlink:href="#E0A4-anhqbb" x="3681" y="1267" height="720px" width="720px" />
                           </g>
                           <g id="s80nac9" class="stem">
                              <rect x="3681" y="1295" height="629" width="18" />
                           </g>
                        </g>
                     </g>
                     <g id="b114wp33" class="beam">
                        <polygon points="4047,1987 4614,1897 4614,1807 4047,1897" />
                        <g id="np0b20x" class="note">
                           <g class="notehead">
                              <use xlink:href="#E0A4-anhqbb" x="4047" y="1357" height="720px" width="720px" />
                           </g>
                           <g id="s1kx8uiu" class="stem">
                              <rect x="4047" y="1385" height="584" width="18" />
                           </g>
                        </g>
                        <g id="n1btl7if" class="note">
                           <g class="notehead">
                              <use xlink:href="#E0A4-anhqbb" x="4596" y="1267" height="720px" width="720px" />
                           </g>
                           <g id="sx4mwph" class="stem">
                              <rect x="4596" y="1295" height="584" width="18" />
                           </g>
                        </g>
                     </g>
                  </g>
               </g>
               <g id="pkvr8g1" class="pedal">
                  <use xlink:href="#E655-anhqbb" x="2482" y="2252" height="720px" width="720px" />
               </g>
               <g id="bv2job5" class="barLine">
                  <path d="M5145 1087 L5145 1807" stroke="currentColor" stroke-width="27" />
               </g>
            </g>
            <g id="m88zr7i" class="measure">
               <g id="s1qvtmkn" class="staff">
                  <path d="M5158 1087 L7917 1087" stroke="currentColor" stroke-width="13" />
                  <path d="M5158 1267 L7917 1267" stroke="currentColor" stroke-width="13" />
                  <path d="M5158 1447 L7917 1447" stroke="currentColor" stroke-width="13" />
                  <path d="M5158 1627 L7917 1627" stroke="currentColor" stroke-width="13" />
                  <path d="M5158 1807 L7917 1807" stroke="currentColor" stroke-width="13" />
                  <g id="l15g4qrk" class="layer">
                     <g id="b18eo2ro" class="beam">
                        <polygon points="5341,1807 5908,1807 5908,1717 5341,1717" />
                        <g id="nugeutw" class="note">
                           <g class="notehead">
                              <use xlink:href="#E0A4-anhqbb" x="5341" y="1177" height="720px" width="720px" />
                           </g>
                           <g id="s1tvkyn" class="stem">
                              <rect x="5341" y="1205" height="584" width="18" />
                           </g>
                        </g>
                        <g id="n97x7qe" class="note">
                           <g class="notehead">
                              <use xlink:href="#E0A4-anhqbb" x="5890" y="1177" height="720px" width="720px" />
                           </g>
                           <g id="stc5gbi" class="stem">
                              <rect x="5890" y="1205" height="584" width="18" />
                           </g>
                        </g>
                     </g>
                     <g id="b1kfsf6o" class="beam">
                        <polygon points="6439,1897 7556,1942 7556,1852 6439,1807" />
                        <polygon points="6439,1762 6814,1777 6814,1687 6439,1672" />
                        <polygon points="6814,1777 7180,1792 7180,1702 6814,1687" />
                        <polygon points="7180,1792 7556,1807 7556,1717 7180,1702" />
                        <g id="n1nr8gfo" class="note">
                           <g class="notehead">
                              <use xlink:href="#E0A4-anhqbb" x="6439" y="1177" height="720px" width="720px" />
                           </g>
                           <g id="s1ykyq9z" class="stem">
                              <rect x="6439" y="1205" height="674" width="18" />
                           </g>
                        </g>
                        <g id="nkuvf" class="note">
                           <g class="notehead">
                              <use xlink:href="#E0A4-anhqbb" x="6805" y="1177" height="720px" width="720px" />
                           </g>
                           <g id="snq99xn" class="stem">
                              <rect x="6805" y="1205" height="689" width="18" />
                           </g>
                        </g>
                        <g id="n63onc9" class="note">
                           <g class="notehead">
                              <use xlink:href="#E0A4-anhqbb" x="7171" y="1177" height="720px" width="720px" />
                           </g>
                           <g id="sei7d47" class="stem">
                              <rect x="7171" y="1205" height="704" width="18" />
                           </g>
                        </g>
                        <g id="nyafi11" class="note">
                           <g class="notehead">
                              <use xlink:href="#E0A4-anhqbb" x="7538" y="1267" height="720px" width="720px" />
                           </g>
                           <g id="shmfxww" class="stem">
                              <rect x="7538" y="1295" height="629" width="18" />
                           </g>
                        </g>
                     </g>
                  </g>
               </g>
               <g id="bz6j541" class="barLine">
                  <path d="M7904 1087 L7904 1807" stroke="currentColor" stroke-width="27" />
               </g>
            </g>
            <g id="m1f6qgfa" class="measure">
               <g id="s1h0ovhl" class="staff">
                  <path d="M7917 1087 L10215 1087" stroke="currentColor" stroke-width="13" />
                  <path d="M7917 1267 L10215 1267" stroke="currentColor" stroke-width="13" />
                  <path d="M7917 1447 L10215 1447" stroke="currentColor" stroke-width="13" />
                  <path d="M7917 1627 L10215 1627" stroke="currentColor" stroke-width="13" />
                  <path d="M7917 1807 L10215 1807" stroke="currentColor" stroke-width="13" />
                  <g id="la8oarc" class="layer">
                     <g id="bsj99uc" class="beam">
                        <polygon points="8100,1987 8667,1897 8667,1807 8100,1897" />
                        <g id="ndidw63" class="note">
                           <g class="notehead">
                              <use xlink:href="#E0A4-anhqbb" x="8100" y="1357" height="720px" width="720px" />
                           </g>
                           <g id="sdl9ozy" class="stem">
                              <rect x="8100" y="1385" height="584" width="18" />
                           </g>
                        </g>
                        <g id="n9pmhmv" class="note">
                           <g class="notehead">
                              <use xlink:href="#E0A4-anhqbb" x="8649" y="1267" height="720px" width="720px" />
                           </g>
                           <g id="sssivz1" class="stem">
                              <rect x="8649" y="1295" height="584" width="18" />
                           </g>
                        </g>
                     </g>
                     <g id="nman99e" class="note">
                        <g class="notehead">
                           <use xlink:href="#E0A4-anhqbb" x="9198" y="1177" height="720px" width="720px" />
                        </g>
                        <g id="syblsz3" class="stem">
                           <rect x="9198" y="1205" height="602" width="18" />
                        </g>
                     </g>
                  </g>
               </g>
               <g id="bzgrs65" class="barLine">
                  <path d="M10040 1087 L10040 1807" stroke="currentColor" stroke-width="27" />
                  <path d="M10170 1087 L10170 1807" stroke="currentColor" stroke-width="90" />
                  <use xlink:href="#E044-anhqbb" x="9923" y="1357" height="720px" width="720px" />
                  <use xlink:href="#E044-anhqbb" x="9923" y="1537" height="720px" width="720px" />
               </g>
            </g>
            <g id="m3s2fe8" class="measure">
               <g id="snr9les" class="staff">
                  <path d="M10215 1087 L12974 1087" stroke="currentColor" stroke-width="13" />
                  <path d="M10215 1267 L12974 1267" stroke="currentColor" stroke-width="13" />
                  <path d="M10215 1447 L12974 1447" stroke="currentColor" stroke-width="13" />
                  <path d="M10215 1627 L12974 1627" stroke="currentColor" stroke-width="13" />
                  <path d="M10215 1807 L12974 1807" stroke="currentColor" stroke-width="13" />
                  <g class="ledgerLines above">
                     <path d="M12364 907 L12686 907" stroke="currentColor" stroke-width="22" />
                  </g>
                  <g id="l18t2jv" class="layer">
                     <g id="b1voxi5a" class="beam">
                        <polygon points="10398,1807 11515,1807 11515,1717 10398,1717" />
                        <polygon points="10398,1672 10773,1672 10773,1582 10398,1582" />
                        <polygon points="10773,1672 11140,1672 11140,1582 10773,1582" />
                        <polygon points="11140,1672 11515,1672 11515,1582 11140,1582" />
                        <g id="n1twp7w4" class="note">
                           <g class="notehead">
                              <use xlink:href="#E0A4-anhqbb" x="10398" y="1177" height="720px" width="720px" />
                           </g>
                           <g id="sfl65we" class="stem">
                              <rect x="10398" y="1205" height="584" width="18" />
                           </g>
                        </g>
                        <g id="n8ldr80" class="note">
                           <g class="notehead">
                              <use xlink:href="#E0A4-anhqbb" x="10764" y="1177" height="720px" width="720px" />
                           </g>
                           <g id="s1cf3f93" class="stem">
                              <rect x="10764" y="1205" height="584" width="18" />
                           </g>
                        </g>
                        <g id="nojf641" class="note">
                           <g class="notehead">
                              <use xlink:href="#E0A4-anhqbb" x="11131" y="1177" height="720px" width="720px" />
                           </g>
                           <g id="s1l4z4xq" class="stem">
                              <rect x="11131" y="1205" height="584" width="18" />
                           </g>
                        </g>
                        <g id="nhxkuvq" class="note">
                           <g class="notehead">
                              <use xlink:href="#E0A4-anhqbb" x="11497" y="1087" height="720px" width="720px" />
                           </g>
                           <g id="s1atczhu" class="stem">
                              <rect x="11497" y="1115" height="674" width="18" />
                           </g>
                        </g>
                     </g>
                     <g id="bdxk9cx" class="beam">
                        <polygon points="11863,1627 12430,1537 12430,1447 11863,1537" />
                        <g id="np81wqi" class="note">
                           <g class="notehead">
                              <use xlink:href="#E0A4-anhqbb" x="11863" y="997" height="720px" width="720px" />
                           </g>
                           <g id="scpc0jb" class="stem">
                              <rect x="11863" y="1025" height="584" width="18" />
                           </g>
                        </g>
                        <g id="nys50d" class="note">
                           <g class="notehead">
                              <use xlink:href="#E0A4-anhqbb" x="12412" y="907" height="720px" width="720px" />
                           </g>
                           <g id="ssyde2n" class="stem">
                              <rect x="12412" y="935" height="584" width="18" />
                           </g>
                        </g>
                     </g>
                  </g>
               </g>
               <g id="bn25y2a" class="barLine">
                  <path d="M12961 1087 L12961 1807" stroke="currentColor" stroke-width="27" />
               </g>
            </g>
            <g id="m10gz9g2" class="measure">
               <g id="sbca9ax" class="staff">
                  <path d="M12974 1087 L15110 1087" stroke="currentColor" stroke-width="13" />
                  <path d="M12974 1267 L15110 1267" stroke="currentColor" stroke-width="13" />
                  <path d="M12974 1447 L15110 1447" stroke="currentColor" stroke-width="13" />
                  <path d="M12974 1627 L15110 1627" stroke="currentColor" stroke-width="13" />
                  <path d="M12974 1807 L15110 1807" stroke="currentColor" stroke-width="13" />
                  <g id="l1c3431e" class="layer">
                     <g id="biufxnu" class="beam">
                        <polygon points="13157,1807 13724,1897 13724,1807 13157,1717" />
                        <g id="ni5a4ez" class="note">
                           <g class="notehead">
                              <use xlink:href="#E0A4-anhqbb" x="13157" y="1177" height="720px" width="720px" />
                           </g>
                           <g id="sxrz0d3" class="stem">
                              <rect x="13157" y="1205" height="584" width="18" />
                           </g>
                        </g>
                        <g id="ns4zfwm" class="note">
                           <g class="notehead">
                              <use xlink:href="#E0A4-anhqbb" x="13706" y="1267" height="720px" width="720px" />
                           </g>
                           <g id="s6km7eb" class="stem">
                              <rect x="13706" y="1295" height="584" width="18" />
                           </g>
                        </g>
                     </g>
                     <g id="nfkhodl" class="note">
                        <g class="notehead">
                           <use xlink:href="#E0A4-anhqbb" x="14255" y="1177" height="720px" width="720px" />
                        </g>
                        <g id="s6hcwzp" class="stem">
                           <rect x="14255" y="1205" height="602" width="18" />
                        </g>
                     </g>
                  </g>
               </g>
               <g id="fk1p9wh" class="fermata">
                  <use xlink:href="#E4C0-anhqbb" x="14151" y="1040" height="720px" width="720px" />
               </g>
               <g id="b12jbnt9" class="barLine">
                  <path d="M15097 1087 L15097 1807" stroke="currentColor" stroke-width="27" />
               </g>
            </g>
            <g id="m1t9fr3t" class="measure">
               <g id="s1ruz0eq" class="staff">
                  <path d="M15110 1087 L17246 1087" stroke="currentColor" stroke-width="13" />
                  <path d="M15110 1267 L17246 1267" stroke="currentColor" stroke-width="13" />
                  <path d="M15110 1447 L17246 1447" stroke="currentColor" stroke-width="13" />
                  <path d="M15110 1627 L17246 1627" stroke="currentColor" stroke-width="13" />
                  <path d="M15110 1807 L17246 1807" stroke="currentColor" stroke-width="13" />
                  <g id="lzsn2cq" class="layer">
                     <g id="b161d3a9" class="beam">
                        <polygon points="15293,1852 15860,1852 15860,1762 15293,1762" />
                        <g id="nq4wd2o" class="note">
                           <g class="notehead">
                              <use xlink:href="#E0A4-anhqbb" x="15293" y="1267" height="720px" width="720px" />
                           </g>
                           <g id="s1p9zo5e" class="stem">
                              <rect x="15293" y="1295" height="539" width="18" />
                           </g>
                        </g>
                        <g id="n1wocb2d" class="note">
                           <g class="notehead">
                              <use xlink:href="#E0A4-anhqbb" x="15842" y="1267" height="720px" width="720px" />
                           </g>
                           <g id="sf8u9ph" class="stem">
                              <rect x="15842" y="1295" height="539" width="18" />
                           </g>
                        </g>
                     </g>
                     <g id="n714268" class="note">
                        <g class="notehead">
                           <use xlink:href="#E0A4-anhqbb" x="16391" y="1357" height="720px" width="720px" />
                        </g>
                        <g id="sjw35bl" class="stem">
                           <rect x="16391" y="1385" height="602" width="18" />
                        </g>
                     </g>
                  </g>
               </g>
               <g id="f1n6a4nn" class="fermata">
                  <use xlink:href="#E4C0-anhqbb" x="15189" y="1040" height="720px" width="720px" />
               </g>
               <g id="f1y0bwla" class="fermata">
                  <use xlink:href="#E4C0-anhqbb" x="16287" y="1040" height="720px" width="720px" />
               </g>
               <g id="by2kcy5" class="barLine">
                  <path d="M17233 1087 L17233 1807" stroke="currentColor" stroke-width="27" />
               </g>
            </g>
            <g id="mm2aws2" class="measure">
               <g id="stihzyo" class="staff">
                  <path d="M17246 1087 L20005 1087" stroke="currentColor" stroke-width="13" />
                  <path d="M17246 1267 L20005 1267" stroke="currentColor" stroke-width="13" />
                  <path d="M17246 1447 L20005 1447" stroke="currentColor" stroke-width="13" />
                  <path d="M17246 1627 L20005 1627" stroke="currentColor" stroke-width="13" />
                  <path d="M17246 1807 L20005 1807" stroke="currentColor" stroke-width="13" />
                  <g id="l64ti9j" class="layer">
                     <g id="bbqdlpf" class="beam">
                        <polygon points="17429,1897 18546,1942 18546,1852 17429,1807" />
                        <polygon points="17429,1762 17804,1777 17804,1687 17429,1672" />
                        <polygon points="17804,1777 18171,1793 18171,1703 17804,1687" />
                        <polygon points="18171,1793 18546,1807 18546,1717 18171,1703" />
                        <g id="n17j9u01" class="note">
                           <g class="notehead">
                              <use xlink:href="#E0A4-anhqbb" x="17429" y="1177" height="720px" width="720px" />
                           </g>
                           <g id="s1aip0df" class="stem">
                              <rect x="17429" y="1205" height="674" width="18" />
                           </g>
                        </g>
                        <g id="nb4cot7" class="note">
                           <g class="notehead">
                              <use xlink:href="#E0A4-anhqbb" x="17795" y="1177" height="720px" width="720px" />
                           </g>
                           <g id="siq064e" class="stem">
                              <rect x="17795" y="1205" height="689" width="18" />
                           </g>
                        </g>
                        <g id="n1bz9f40" class="note">
                           <g class="notehead">
                              <use xlink:href="#E0A4-anhqbb" x="18162" y="1177" height="720px" width="720px" />
                           </g>
                           <g id="s17a3gfs" class="stem">
                              <rect x="18162" y="1205" height="705" width="18" />
                           </g>
                        </g>
                        <g id="n1xe4uji" class="note">
                           <g class="notehead">
                              <use xlink:href="#E0A4-anhqbb" x="18528" y="1267" height="720px" width="720px" />
                           </g>
                           <g id="s11qv3z6" class="stem">
                              <rect x="18528" y="1295" height="629" width="18" />
                           </g>
                        </g>
                     </g>
                     <g id="b1fxdy24" class="beam">
                        <polygon points="18894,1987 19461,1897 19461,1807 18894,1897" />
                        <g id="n1xrreqo" class="note">
                           <g class="notehead">
                              <use xlink:href="#E0A4-anhqbb" x="18894" y="1357" height="720px" width="720px" />
                           </g>
                           <g id="s1foel8n" class="stem">
                              <rect x="18894" y="1385" height="584" width="18" />
                           </g>
                        </g>
                        <g id="nmef5sh" class="note">
                           <g class="notehead">
                              <use xlink:href="#E0A4-anhqbb" x="19443" y="1267" height="720px" width="720px" />
                           </g>
                           <g id="s1gl5g0r" class="stem">
                              <rect x="19443" y="1295" height="584" width="18" />
                           </g>
                        </g>
                     </g>
                  </g>
               </g>
               <g id="bt3cdbk" class="barLine">
                  <path d="M19992 1087 L19992 1807" stroke="currentColor" stroke-width="27" />
               </g>
            </g>
            <g id="sm9ew00" class="sb" />
         </g>
         <g id="seyh94i" class="system">
            <g id="l1unl05q" class="labelAbbr">
               <text x="914" y="3786" text-anchor="end" font-size="0px">
                  <tspan id="tylyx0m" class="text">
                     <tspan font-size="405px" class="text">Pno.</tspan>
                  </tspan>
               </text>
            </g>
            <g id="m11mcyx4" class="measure">
               <g id="m1a245po" class="mNum autogenerated">
                  <text x="1094" y="3093" text-anchor="middle" font-size="0px">
                     <tspan id="t7jbdz9" class="text">
                        <tspan font-size="324px" class="text">8</tspan>
                     </tspan>
                  </text>
               </g>
               <g id="skey2i5" class="staff">
                  <path d="M1094 3336 L4458 3336" stroke="currentColor" stroke-width="13" />
                  <path d="M1094 3516 L4458 3516" stroke="currentColor" stroke-width="13" />
                  <path d="M1094 3696 L4458 3696" stroke="currentColor" stroke-width="13" />
                  <path d="M1094 3876 L4458 3876" stroke="currentColor" stroke-width="13" />
                  <path d="M1094 4056 L4458 4056" stroke="currentColor" stroke-width="13" />
                  <g id="cmjql1z" class="clef">
                     <use xlink:href="#E050-anhqbb" x="1184" y="3876" height="720px" width="720px" />
                  </g>
                  <g id="k1ht51zh" class="keySig" />
                  <g id="l1ji8jli" class="layer">
                     <g id="b3an6wc" class="beam">
                        <polygon points="1919,4056 2478,3966 2478,3876 1919,3966" />
                        <g id="n10ykb3r" class="note">
                           <g class="notehead">
                              <use xlink:href="#E0A4-anhqbb" x="1919" y="3426" height="720px" width="720px" />
                           </g>
                           <g id="s1ky2srd" class="stem">
                              <rect x="1919" y="3454" height="584" width="18" />
                           </g>
                        </g>
                        <g id="n1rjmdht" class="note">
                           <g class="notehead">
                              <use xlink:href="#E0A4-anhqbb" x="2460" y="3336" height="720px" width="720px" />
                           </g>
                           <g id="ss7ef72" class="stem">
                              <rect x="2460" y="3364" height="584" width="18" />
                           </g>
                        </g>
                     </g>
                     <g id="b1axflp9" class="beam">
                        <polygon points="3001,3921 4102,3966 4102,3876 3001,3831" />
                        <polygon points="3001,3786 3371,3801 3371,3711 3001,3696" />
                        <polygon points="3371,3801 3732,3816 3732,3726 3371,3711" />
                        <polygon points="3732,3816 4102,3831 4102,3741 3732,3726" />
                        <g id="ns672nq" class="note">
                           <g class="notehead">
                              <use xlink:href="#E0A4-anhqbb" x="3001" y="3246" height="720px" width="720px" />
                           </g>
                           <g id="s18lnnz9" class="stem">
                              <rect x="3001" y="3274" height="629" width="18" />
                           </g>
                        </g>
                        <g id="n1fi1c0c" class="note">
                           <g class="notehead">
                              <use xlink:href="#E0A4-anhqbb" x="3362" y="3246" height="720px" width="720px" />
                           </g>
                           <g id="s9vfw5v" class="stem">
                              <rect x="3362" y="3274" height="644" width="18" />
                           </g>
                        </g>
                        <g id="n13vw88x" class="note">
                           <g class="notehead">
                              <use xlink:href="#E0A4-anhqbb" x="3723" y="3246" height="720px" width="720px" />
                           </g>
                           <g id="s1ln50cc" class="stem">
                              <rect x="3723" y="3274" height="659" width="18" />
                           </g>
                        </g>
                        <g id="n1wkku83" class="note">
                           <g class="notehead">
                              <use xlink:href="#E0A4-anhqbb" x="4084" y="3336" height="720px" width="720px" />
                           </g>
                           <g id="s8tlplp" class="stem">
                              <rect x="4084" y="3364" height="584" width="18" />
                           </g>
                        </g>
                     </g>
                  </g>
               </g>
               <g id="bm8giap" class="barLine">
                  <path d="M4445 3336 L4445 4056" stroke="currentColor" stroke-width="27" />
               </g>
            </g>
            <g id="m1picx6o" class="measure">
               <g id="sgmw0we" class="staff">
                  <path d="M4458 3336 L6725 3336" stroke="currentColor" stroke-width="13" />
                  <path d="M4458 3516 L6725 3516" stroke="currentColor" stroke-width="13" />
                  <path d="M4458 3696 L6725 3696" stroke="currentColor" stroke-width="13" />
                  <path d="M4458 3876 L6725 3876" stroke="currentColor" stroke-width="13" />
                  <path d="M4458 4056 L6725 4056" stroke="currentColor" stroke-width="13" />
                  <g id="lvpdtlp" class="layer">
                     <g id="bd2e5xf" class="beam">
                        <polygon points="4638,4056 5197,4146 5197,4056 4638,3966" />
                        <g id="n18ljs09" class="note">
                           <g class="notehead">
                              <use xlink:href="#E0A4-anhqbb" x="4638" y="3426" height="720px" width="720px" />
                           </g>
                           <g id="s41wdpm" class="stem">
                              <rect x="4638" y="3454" height="584" width="18" />
                           </g>
                        </g>
                        <g id="n1bbaip5" class="note">
                           <g class="notehead">
                              <use xlink:href="#E0A4-anhqbb" x="5179" y="3516" height="720px" width="720px" />
                           </g>
                           <g id="sdg890m" class="stem">
                              <rect x="5179" y="3544" height="584" width="18" />
                           </g>
                        </g>
                     </g>
                     <g id="n1xodmdz" class="note">
                        <g class="notehead">
                           <use xlink:href="#E0A4-anhqbb" x="5720" y="3606" height="720px" width="720px" />
                        </g>
                        <g id="sb0mrly" class="stem">
                           <rect x="5720" y="3634" height="602" width="18" />
                        </g>
                     </g>
                  </g>
               </g>
               <g id="b144wby0" class="barLine">
                  <path d="M6550 3336 L6550 4056" stroke="currentColor" stroke-width="27" />
                  <path d="M6680 3336 L6680 4056" stroke="currentColor" stroke-width="90" />
               </g>
            </g>
            <g id="s94fo4v" class="systemMilestoneEnd szi9jkp" />
         </g>
         <g id="pqv60h5" class="pageMilestoneEnd suwkrjq" />
         <g id="pf8ru40" class="pageMilestoneEnd mzdiewp" />
         <g id="pr3fqgc" class="pgHead">
            <text x="0" y="0" font-size="0px">
               <tspan id="rnpt99d" class="rend" x="10000" y="279" text-anchor="middle">
                  <tspan id="t13ftdcl" class="text">
                     <tspan font-size="405px" class="text">Air n 50</tspan>
                  </tspan>
               </tspan>
            </text>
         </g>
         <g id="paoqaaq" class="pgFoot autogenerated">
            <g id="fwjdmdy" class="fig">
               <g id="sotcb07" class="svg" transform="translate(7750, 28099) scale(10, 10)">
                  <g>
                     <path fill="#00000" d="M 17.11278,49.26451 V 10.367554 h 12.696511 c 3.288815,7.336676 6.71267,14.610456 10.127281,21.888976 3.419998,-7.484684 6.255515,-14.204887 9.58887,-21.909915 2.436207,0.103726 4.316952,0.08453 6.484294,-0.05808 V 49.264423 H 50.274275 C 50.145222,38.35639 50.016136,27.448368 49.887066,16.540329 45.003488,27.315459 39.967448,38.433564 35.083854,49.208695 34.678996,49.343717 34.426583,49.135619 34.021726,49.270644 29.46588,39.330716 24.910049,29.390805 20.354201,19.450876 20.224341,29.388756 20.09461,39.326619 19.964815,49.264497 H 17.11278 Z M 36.754144,39.324695 C 32.721221,30.512695 28.6883,21.700679 24.655394,12.888662 22.530527,12.750737 22.656775,12.71031 20.714356,12.813974 v 0.966497 c 4.612938,9.99784 9.609439,20.748709 13.87298,30.081745 0.722248,-1.512523 1.444528,-3.025014 2.166808,-4.537521 z m 25.738417,9.939815 c 0,-12.965651 0,-25.931305 0,-38.896956 10.084388,0 20.168791,0 30.253178,0 0,0.960416 0,1.920849 0,2.881265 -6.482825,0 -12.965652,0 -19.448478,0 0,4.802097 0,9.604178 0,14.406277 5.52241,0 11.044819,0 16.567229,0 0,0.960415 0,1.920832 0,2.881248 -5.52241,0 -11.044819,0 -16.567229,0 0,5.282306 0,10.564611 0,15.846917 6.963035,0 13.926068,0 20.889103,0 0,0.960416 0,1.920832 0,2.881249 -10.564597,0 -21.129207,0 -31.693803,0 z m 4.321874,-2.160937 c 0,-11.765131 0,-23.530263 0,-35.295394 -0.720312,0 -1.440625,0 -2.160937,0 0,11.765131 0,23.530263 0,35.295394 0.720312,0 1.440625,0 2.160937,0 z m 32.41413,2.160937 c 0,-12.965651 0,-25.931305 0,-38.896956 2.401045,0 4.802095,0 7.203135,0 0,12.965651 0,25.931305 0,38.896956 -2.40104,0 -4.80209,0 -7.203135,0 z m 2.881265,-2.160937 c 0,-11.765131 0,-23.530263 0,-35.295394 -0.72031,0 -1.44064,0 -2.160953,0 0,11.765131 0,23.530263 0,35.295394 0.720313,0 1.440643,0 2.160953,0 z" />
                     <path fill="#00000" d="m 346.3,6.7 c -3.1,0.5 -4.9,4.4 -2.7,6.8 1.2,1.4 2.7,2.4 4.1,3.5 -2.4,5.3 -7.7,8.3 -11.9,12.1 -3.7,2.8 -7,6.2 -9.7,9.9 -2.2,-0.8 -0.3,-6.8 -0.6,-9.5 0.1,-3.1 0.7,-6.4 2.9,-8.7 1.3,-1.9 3,-3.5 4.5,-5.2 1.2,-3.4 -3.2,-4.9 -5.8,-4.6 -7.3,-0.5 -14.6,2 -20,6.8 -5,4.6 -10,10.1 -11.5,17 -0.9,3.5 -0.2,7.5 2.8,9.9 2.5,2.8 7.4,2.9 9.8,-0.2 1.7,-2.3 3.2,-4.8 3.8,-7.6 -0.1,-2.6 -4.4,-2.3 -4.3,0.2 1.2,2.4 -0.9,4.7 -2.7,6.2 -1.7,0.9 -4.7,0.7 -4.8,-1.7 -1,-5.8 2.1,-11.3 5.2,-16.1 4,-5.8 9.8,-11.2 17.2,-11.8 1.6,0 8.1,-1.2 6.8,1.4 -2.8,2.8 -5.6,6.1 -6,10.3 -1.6,7.7 0.1,15.7 -2.3,23.2 -1.1,3.9 2,2.6 2.5,0.2 3.3,-7.4 8.9,-13.4 15.1,-18.5 4.2,-3.9 9.5,-7.1 11.9,-12.6 1.3,-3.6 1.2,-9 -2.7,-10.9 -0.6,-0.2 -1.2,-0.3 -1.8,-0.3 z m 66,14.5 c -2,0.8 -1.8,4.9 0.8,4.4 3.4,0.4 2.9,-6.2 -0.8,-4.4 z m 0.6,7.3 c -1.3,0.5 -7.6,0.5 -5.4,2.2 4,-0.3 0.7,4.5 0.6,6.7 -0.4,2.9 -2.4,5.9 -1.2,8.8 2.7,1.7 5.6,-0.8 6.8,-3.2 1.6,-1.4 -0.5,-3 -1.2,-0.9 -0.4,0.8 -2.4,3.5 -2.6,1.8 1.1,-5 2.7,-9.9 3.9,-14.9 l -0.1,-0.5 h -0.9 z m -65.1,0.2 c -6.5,1.6 -10.5,9.5 -8.2,15.7 2.1,3.4 7.4,2.9 10.1,0.4 2,-0.2 3.6,-5.3 1,-3.4 -1.4,2 -4,4.2 -6.5,2.8 -2.2,-1.9 -1.9,-5.7 1.7,-5.3 3.1,-0.9 6.9,-2.1 8.1,-5.5 0.9,-2.7 -1.6,-5.2 -4.3,-4.8 h -1.1 -0.7 z m 13.6,0 c -2.2,0 -8.5,1.8 -2.9,2.3 0.9,1.9 -1,4.9 -1.1,7.2 -0.5,2.9 -1.4,5.7 -1.7,8.7 3.7,0.7 3.8,-2.6 4.4,-5.3 0.9,-3.3 1.6,-7 4.1,-9.5 2.4,1.6 6.8,-0.7 3.7,-3.4 -2.9,-0.5 -4.8,2.4 -6.2,4.3 0,-1.2 2.4,-5 -0.2,-4.3 z m 15.8,0 c -6.4,1.3 -9.6,9.1 -7.7,14.9 1.9,4 7.7,3.9 11,1.7 4.1,-3 6,-8.9 4.4,-13.7 -1.3,-3 -4.8,-3.2 -7.6,-3 z m 17,0 c -2.3,0 -8.8,1.9 -3,2.4 0.4,2.5 -1,5.7 -1.4,8.4 -0.7,2.4 -1.8,7.5 2.1,7.2 3.8,-0.1 6.5,-3.5 8.5,-6.3 2,-3.2 4.5,-7 3.3,-10.9 -3.7,-3 -3.6,2.6 -3.1,5.1 -0.7,3.8 -2.7,7.9 -6.2,9.8 -3.6,0.6 -1,-4.3 -0.8,-6.1 0.6,-3.2 1.6,-6.3 1.9,-9.5 -0.4,0 -0.8,0 -1.1,0 z m 30.6,0 c -6.3,1.2 -9.5,8.9 -7.8,14.7 1.5,4 7.2,4.2 10.5,2.4 4.6,-2.8 6.6,-9.3 4.8,-14.3 -1.4,-2.8 -4.8,-3 -7.5,-2.8 z m -75.4,1.7 c 2.1,1.5 0.2,4.7 -1.6,5.7 -1.1,0.4 -5.5,3.4 -4.6,0.7 0.8,-2.7 2.2,-6.2 5.3,-6.6 l 0.9,0.1 z m 30.8,0 c 2.6,1.5 1.3,5.2 0.8,7.6 -0.8,2.7 -1.9,5.9 -4.7,7.1 -5.1,0.8 -4,-5.8 -2.8,-8.8 1,-2.8 3,-6.8 6.7,-5.8 z m 47.1,-0.1 c 2.9,0.7 2,4.7 1.5,6.8 -0.7,3 -1.8,6.7 -5,8 -4.7,0.8 -4,-5.1 -3,-7.9 0.9,-3 2.7,-7.3 6.5,-6.8 z m -88.1,5.9 c -0.3,1.3 0.9,-0.6 0,0 z m -1.1,2.4 c -0.2,0.5 0.5,-0.1 0,0 z m -1.3,4.5 c -0.3,1.3 0.8,-0.2 0,0 z" />
                     <text y="41" x="201" fill="#00000" style="font-style:italic;font-weight:normal;font-size:30px;line-height:125%;font-family:Times;text-anchor:middle" xml:space="preserve">engraved with</text>
                  </g>
               </g>
            </g>
         </g>
      </g>
   </svg>
</svg>
