<?xml version="1.0" encoding="UTF-8" standalone="no"?>
<svg width="2100px" height="2970px" version="1.1" xmlns="http://www.w3.org/2000/svg" xmlns:xlink="http://www.w3.org/1999/xlink" xmlns:mei="http://www.music-encoding.org/ns/mei" overflow="visible">
   <desc>Engraved by Verovio 3.13.1</desc>
   <defs>
      <symbol id="E050-fkr2a5" viewBox="0 0 1000 1000" overflow="inherit">
         <path transform="scale(1,-1)" d="M441 -245c-23 -4 -48 -6 -76 -6c-59 0 -102 7 -130 20c-88 42 -150 93 -187 154c-26 44 -43 103 -48 176c0 6 -1 13 -1 19c0 54 15 111 45 170c29 57 65 106 110 148s96 85 153 127c-3 16 -8 46 -13 92c-4 43 -5 73 -5 89c0 117 16 172 69 257c34 54 64 82 89 82 c21 0 43 -30 69 -92s39 -115 41 -159v-15c0 -109 -21 -162 -67 -241c-13 -20 -63 -90 -98 -118c-13 -9 -25 -19 -37 -29l31 -181c8 1 18 2 28 2c58 0 102 -12 133 -35c59 -43 92 -104 98 -184c1 -7 1 -15 1 -22c0 -123 -87 -209 -181 -248c8 -57 17 -110 25 -162 c5 -31 6 -58 6 -80c0 -30 -5 -53 -14 -70c-35 -64 -88 -99 -158 -103c-5 0 -11 -1 -16 -1c-37 0 -72 10 -108 27c-50 24 -77 59 -80 105v11c0 29 7 55 20 76c18 28 45 42 79 44h6c49 0 93 -42 97 -87v-9c0 -51 -34 -86 -105 -106c17 -24 51 -36 102 -36c62 0 116 43 140 85 c9 16 13 41 13 74c0 20 -1 42 -5 67c-8 53 -18 106 -26 159zM461 939c-95 0 -135 -175 -135 -286c0 -24 2 -48 5 -71c50 39 92 82 127 128c40 53 60 100 60 140v8c-4 53 -22 81 -55 81h-2zM406 119l54 -326c73 25 110 78 110 161c0 7 0 15 -1 23c-7 95 -57 142 -151 142h-12 zM382 117c-72 -2 -128 -47 -128 -120v-7c2 -46 43 -99 75 -115c-3 -2 -7 -5 -10 -10c-70 33 -116 88 -123 172v11c0 68 44 126 88 159c23 17 49 29 78 36l-29 170c-21 -13 -52 -37 -92 -73c-50 -44 -86 -84 -109 -119c-45 -69 -67 -130 -67 -182v-13c5 -68 35 -127 93 -176 s125 -73 203 -73c25 0 50 3 75 9c-19 111 -36 221 -54 331z" />
      </symbol>
      <symbol id="E082-fkr2a5" viewBox="0 0 1000 1000" overflow="inherit">
         <path transform="scale(1,-1)" d="M124 -185c-18 0 -55 -14 -65 -65h-36l-3 30c0 25 6 45 18 63c11 19 22 30 39 43l121 82l37 29c15 11 27 29 38 54c12 24 18 47 18 70c0 40 -19 88 -94 88c-25 0 -32 0 -50 -8c-14 -5 -23 -12 -26 -22c3 -9 7 -15 10 -18l24 -17c12 -7 17 -11 27 -21c5 -7 7 -16 7 -27 c0 -12 0 -57 -79 -74c-30 0 -76 26 -76 94c0 66 81 135 197 135c72 0 181 -32 181 -150c0 -53 -32 -95 -113 -133l-91 -41c-26 -11 -45 -23 -57 -37l49 7c84 0 115 -41 148 -41c20 0 33 20 39 61h35c0 -152 -68 -168 -114 -168c-17 0 -65 0 -79 7h10l-28 17 c-49 37 -69 40 -87 42z" />
      </symbol>
      <symbol id="E084-fkr2a5" viewBox="0 0 1000 1000" overflow="inherit">
         <path transform="scale(1,-1)" d="M20 -78c84 97 114 180 134 329h170c-13 -32 -82 -132 -99 -151l-84 -97c-33 -36 -59 -63 -80 -81h162v102l127 123v-225h57v-39h-57v-34c0 -43 19 -65 57 -65v-34h-244v36c48 0 60 26 60 70v27h-203v39z" />
      </symbol>
      <symbol id="E0A4-fkr2a5" viewBox="0 0 1000 1000" overflow="inherit">
         <path transform="scale(1,-1)" d="M0 -39c0 68 73 172 200 172c66 0 114 -37 114 -95c0 -84 -106 -171 -218 -171c-64 0 -96 30 -96 94z" />
      </symbol>
      <symbol id="E240-fkr2a5" viewBox="0 0 1000 1000" overflow="inherit">
         <path transform="scale(1,-1)" d="M179 -646c15 29 29 55 46 102c18 49 30 108 30 138c0 105 -80 173 -168 200c-18 5 -47 9 -87 16v190h22c8 0 33 -61 71 -95c4 -3 -2 3 61 -56c62 -58 122 -137 122 -241c0 -38 -13 -106 -35 -163c-20 -51 -43 -99 -66 -132c-6 -5 -10 -7 -13 -7s-5 2 -5 5l4 10 c1 3 14 25 18 33z" />
      </symbol>
      <symbol id="E260-fkr2a5" viewBox="0 0 1000 1000" overflow="inherit">
         <path transform="scale(1,-1)" d="M20 110c32 16 54 27 93 27c26 0 35 -3 54 -13c13 -7 24 -20 27 -38l4 -25c0 -28 -16 -57 -45 -89c-23 -25 -39 -44 -65 -68l-88 -79v644h20v-359zM90 106c-32 0 -48 -10 -70 -29v-194c31 31 54 59 71 84c21 32 32 59 32 84c0 9 1 16 1 20c0 14 -3 21 -11 30l-8 3z" />
      </symbol>
   </defs>
   <style type="text/css">g.page-margin{font-family:Times;} g.ending, g.fing, g.reh, g.tempo{font-weight:bold;} g.dir, g.dynam, g.mNum{font-style:italic;} g.label{font-weight:normal;}</style>
   <svg class="definition-scale" color="black" viewBox="0 0 21000 29700">
      <g class="page-margin" transform="translate(500, 500)">
         <g id="m12czuvt" class="mdiv pageMilestone" />
         <g id="s1mvzcg" class="score pageMilestone" />
         <g id="sega5f9" class="system">
            <g id="l19d3gd6" class="label">
               <text x="1105" y="1535" text-anchor="end" font-size="0px">
                  <tspan id="t13zjyu" class="text">
                     <tspan font-size="405px" class="text">Piano</tspan>
                  </tspan>
               </text>
            </g>
            <g id="s1di8nm4" class="section systemMilestone" />
            <g id="p1dhz8i" class="pb" />
            <g id="m8181tj" class="measure">
               <g id="s1po6mow" class="staff">
                  <path d="M1285 1085 L4995 1085" stroke="currentColor" stroke-width="13" />
                  <path d="M1285 1265 L4995 1265" stroke="currentColor" stroke-width="13" />
                  <path d="M1285 1445 L4995 1445" stroke="currentColor" stroke-width="13" />
                  <path d="M1285 1625 L4995 1625" stroke="currentColor" stroke-width="13" />
                  <path d="M1285 1805 L4995 1805" stroke="currentColor" stroke-width="13" />
                  <g id="c14q1wxd" class="clef">
                     <use xlink:href="#E050-fkr2a5" x="1375" y="1625" height="720px" width="720px" />
                  </g>
                  <g id="k7djw8y" class="keySig">
                     <g id="k17a71t9" class="keyAccid">
                        <use xlink:href="#E260-fkr2a5" x="2020" y="1445" height="720px" width="720px" />
                     </g>
                     <g id="kanvk9e" class="keyAccid">
                        <use xlink:href="#E260-fkr2a5" x="2200" y="1175" height="720px" width="720px" />
                     </g>
                  </g>
                  <g id="m1bfx6x6" class="meterSig">
                     <use xlink:href="#E082-fkr2a5" x="2508" y="1265" height="720px" width="720px" />
                     <use xlink:href="#E084-fkr2a5" x="2513" y="1625" height="720px" width="720px" />
                  </g>
                  <g id="l1cruttf" class="layer">
                     <g id="nhxxuph" class="note">
                        <g class="notehead">
                           <use xlink:href="#E0A4-fkr2a5" x="3081" y="1445" height="720px" width="720px" />
                        </g>
                        <g id="snso99w" class="stem">
                           <rect x="3081" y="1473" height="572" width="18" />
                        </g>
                        <g id="a18wupty" class="accid" />
                     </g>
                     <g id="b1un9fnk" class="beam">
                        <polygon points="4115,905 4670,905 4670,995 4115,995" />
                        <g id="n1p4rtbf" class="note">
                           <g class="notehead">
                              <use xlink:href="#E0A4-fkr2a5" x="3907" y="1535" height="720px" width="720px" />
                           </g>
                           <g id="s133xv2o" class="stem">
                              <rect x="4115" y="923" height="584" width="18" />
                           </g>
                        </g>
                        <g id="n1raz0tq" class="note">
                           <g class="notehead">
                              <use xlink:href="#E0A4-fkr2a5" x="4444" y="1535" height="720px" width="720px" />
                           </g>
                           <g id="s1qp9cad" class="stem">
                              <rect x="4652" y="923" height="584" width="18" />
                           </g>
                        </g>
                     </g>
                  </g>
               </g>
               <g id="bo1gsla" class="barLine">
                  <path d="M4982 1085 L4982 1805" stroke="currentColor" stroke-width="27" />
               </g>
            </g>
            <g id="m9v4kj" class="measure">
               <g id="s1flqp52" class="staff">
                  <path d="M4995 1085 L7089 1085" stroke="currentColor" stroke-width="13" />
                  <path d="M4995 1265 L7089 1265" stroke="currentColor" stroke-width="13" />
                  <path d="M4995 1445 L7089 1445" stroke="currentColor" stroke-width="13" />
                  <path d="M4995 1625 L7089 1625" stroke="currentColor" stroke-width="13" />
                  <path d="M4995 1805 L7089 1805" stroke="currentColor" stroke-width="13" />
                  <g id="l1qd66yk" class="layer">
                     <g id="b1r57vc9" class="beam">
                        <polygon points="5383,905 5939,860 5939,950 5383,995" />
                        <g id="nff04kn" class="note">
                           <g class="notehead">
                              <use xlink:href="#E0A4-fkr2a5" x="5175" y="1715" height="720px" width="720px" />
                           </g>
                           <g id="s1qe4ij1" class="stem">
                              <rect x="5383" y="923" height="764" width="18" />
                           </g>
                        </g>
                        <g id="nce5aff" class="note">
                           <g class="notehead">
                              <use xlink:href="#E0A4-fkr2a5" x="5713" y="1535" height="720px" width="720px" />
                           </g>
                           <g id="s1kar8db" class="stem">
                              <rect x="5921" y="878" height="629" width="18" />
                           </g>
                        </g>
                     </g>
                     <g id="n1i4h8wm" class="note">
                        <g class="notehead">
                           <use xlink:href="#E0A4-fkr2a5" x="6251" y="1625" height="720px" width="720px" />
                        </g>
                        <g id="s1q0c9on" class="stem">
                           <rect x="6459" y="995" height="602" width="18" />
                        </g>
                     </g>
                  </g>
               </g>
               <g id="b1u9a0gb" class="barLine">
                  <path d="M7076 1085 L7076 1805" stroke="currentColor" stroke-width="27" />
               </g>
            </g>
            <g id="m1uji487" class="measure">
               <g id="shz9v5d" class="staff">
                  <path d="M7089 1085 L9183 1085" stroke="currentColor" stroke-width="13" />
                  <path d="M7089 1265 L9183 1265" stroke="currentColor" stroke-width="13" />
                  <path d="M7089 1445 L9183 1445" stroke="currentColor" stroke-width="13" />
                  <path d="M7089 1625 L9183 1625" stroke="currentColor" stroke-width="13" />
                  <path d="M7089 1805 L9183 1805" stroke="currentColor" stroke-width="13" />
                  <g id="lhksj65" class="layer">
                     <g id="n1a7aku" class="note">
                        <g class="notehead">
                           <use xlink:href="#E0A4-fkr2a5" x="7269" y="1445" height="720px" width="720px" />
                        </g>
                        <g id="sryqf5u" class="stem">
                           <rect x="7269" y="1473" height="572" width="18" />
                        </g>
                        <g id="a14yhte3" class="accid" />
                     </g>
                     <g id="bdpgptd" class="beam">
                        <polygon points="8303,905 8858,905 8858,995 8303,995" />
                        <g id="nf2zpy" class="note">
                           <g class="notehead">
                              <use xlink:href="#E0A4-fkr2a5" x="8095" y="1535" height="720px" width="720px" />
                           </g>
                           <g id="sevtpih" class="stem">
                              <rect x="8303" y="923" height="584" width="18" />
                           </g>
                        </g>
                        <g id="ne9by7x" class="note">
                           <g class="notehead">
                              <use xlink:href="#E0A4-fkr2a5" x="8632" y="1535" height="720px" width="720px" />
                           </g>
                           <g id="s13yjngx" class="stem">
                              <rect x="8840" y="923" height="584" width="18" />
                           </g>
                        </g>
                     </g>
                  </g>
               </g>
               <g id="bix2b2n" class="barLine">
                  <path d="M9170 1085 L9170 1805" stroke="currentColor" stroke-width="27" />
               </g>
            </g>
            <g id="muuxua4" class="measure">
               <g id="s1dav9la" class="staff">
                  <path d="M9183 1085 L11277 1085" stroke="currentColor" stroke-width="13" />
                  <path d="M9183 1265 L11277 1265" stroke="currentColor" stroke-width="13" />
                  <path d="M9183 1445 L11277 1445" stroke="currentColor" stroke-width="13" />
                  <path d="M9183 1625 L11277 1625" stroke="currentColor" stroke-width="13" />
                  <path d="M9183 1805 L11277 1805" stroke="currentColor" stroke-width="13" />
                  <g id="l1eexvi3" class="layer">
                     <g id="b11brp0q" class="beam">
                        <polygon points="9571,905 10127,860 10127,950 9571,995" />
                        <g id="nveyf1p" class="note">
                           <g class="notehead">
                              <use xlink:href="#E0A4-fkr2a5" x="9363" y="1715" height="720px" width="720px" />
                           </g>
                           <g id="s1lzb9bl" class="stem">
                              <rect x="9571" y="923" height="764" width="18" />
                           </g>
                        </g>
                        <g id="n9ng4c9" class="note">
                           <g class="notehead">
                              <use xlink:href="#E0A4-fkr2a5" x="9901" y="1535" height="720px" width="720px" />
                           </g>
                           <g id="s13dflow" class="stem">
                              <rect x="10109" y="878" height="629" width="18" />
                           </g>
                        </g>
                     </g>
                     <g id="nyzslc6" class="note">
                        <g class="notehead">
                           <use xlink:href="#E0A4-fkr2a5" x="10439" y="1625" height="720px" width="720px" />
                        </g>
                        <g id="sspkrgv" class="stem">
                           <rect x="10647" y="995" height="602" width="18" />
                        </g>
                     </g>
                  </g>
               </g>
               <g id="b1y3mk1i" class="barLine">
                  <path d="M11264 1085 L11264 1805" stroke="currentColor" stroke-width="27" />
               </g>
            </g>
            <g id="mc1k7xn" class="measure">
               <g id="s1nujwvo" class="staff">
                  <path d="M11277 1085 L13371 1085" stroke="currentColor" stroke-width="13" />
                  <path d="M11277 1265 L13371 1265" stroke="currentColor" stroke-width="13" />
                  <path d="M11277 1445 L13371 1445" stroke="currentColor" stroke-width="13" />
                  <path d="M11277 1625 L13371 1625" stroke="currentColor" stroke-width="13" />
                  <path d="M11277 1805 L13371 1805" stroke="currentColor" stroke-width="13" />
                  <g id="l1jrnh5p" class="layer">
                     <g id="n12t4g48" class="note">
                        <g class="notehead">
                           <use xlink:href="#E0A4-fkr2a5" x="11457" y="1445" height="720px" width="720px" />
                        </g>
                        <g id="s1mbyp74" class="stem">
                           <rect x="11457" y="1473" height="572" width="18" />
                        </g>
                        <g id="a166urxt" class="accid" />
                     </g>
                     <g id="b1m75p61" class="beam">
                        <polygon points="12491,905 13046,905 13046,995 12491,995" />
                        <g id="n1ifjoiw" class="note">
                           <g class="notehead">
                              <use xlink:href="#E0A4-fkr2a5" x="12283" y="1535" height="720px" width="720px" />
                           </g>
                           <g id="s1xhf05v" class="stem">
                              <rect x="12491" y="923" height="584" width="18" />
                           </g>
                        </g>
                        <g id="n1q0n1n6" class="note">
                           <g class="notehead">
                              <use xlink:href="#E0A4-fkr2a5" x="12820" y="1535" height="720px" width="720px" />
                           </g>
                           <g id="s1686mrs" class="stem">
                              <rect x="13028" y="923" height="584" width="18" />
                           </g>
                        </g>
                     </g>
                  </g>
               </g>
               <g id="b4zo0hl" class="barLine">
                  <path d="M13358 1085 L13358 1805" stroke="currentColor" stroke-width="27" />
               </g>
            </g>
            <g id="mrix1de" class="measure">
               <g id="s1uw32m5" class="staff">
                  <path d="M13371 1085 L15564 1085" stroke="currentColor" stroke-width="13" />
                  <path d="M13371 1265 L15564 1265" stroke="currentColor" stroke-width="13" />
                  <path d="M13371 1445 L15564 1445" stroke="currentColor" stroke-width="13" />
                  <path d="M13371 1625 L15564 1625" stroke="currentColor" stroke-width="13" />
                  <path d="M13371 1805 L15564 1805" stroke="currentColor" stroke-width="13" />
                  <g id="lav950a" class="layer">
                     <g id="bxss6a0" class="beam">
                        <polygon points="13759,905 14315,860 14315,950 13759,995" />
                        <g id="nn1vm0v" class="note">
                           <g class="notehead">
                              <use xlink:href="#E0A4-fkr2a5" x="13551" y="1715" height="720px" width="720px" />
                           </g>
                           <g id="s19lcv82" class="stem">
                              <rect x="13759" y="923" height="764" width="18" />
                           </g>
                        </g>
                        <g id="n78g01o" class="note">
                           <g class="notehead">
                              <use xlink:href="#E0A4-fkr2a5" x="14089" y="1535" height="720px" width="720px" />
                           </g>
                           <g id="s1sfda5w" class="stem">
                              <rect x="14297" y="878" height="629" width="18" />
                           </g>
                        </g>
                     </g>
                     <g id="n6d16mj" class="note">
                        <g class="notehead">
                           <use xlink:href="#E0A4-fkr2a5" x="14627" y="1625" height="720px" width="720px" />
                        </g>
                        <g id="s1wxvj3i" class="stem">
                           <rect x="14835" y="995" height="602" width="18" />
                        </g>
                     </g>
                  </g>
               </g>
               <g id="b1e4ugun" class="barLine">
                  <path d="M15452 1085 L15452 1805" stroke="currentColor" stroke-width="27" />
                  <path d="M15551 1085 L15551 1805" stroke="currentColor" stroke-width="27" />
               </g>
            </g>
            <g id="m1hrea59" class="measure">
               <g id="s7vrcas" class="staff">
                  <path d="M15564 1085 L17658 1085" stroke="currentColor" stroke-width="13" />
                  <path d="M15564 1265 L17658 1265" stroke="currentColor" stroke-width="13" />
                  <path d="M15564 1445 L17658 1445" stroke="currentColor" stroke-width="13" />
                  <path d="M15564 1625 L17658 1625" stroke="currentColor" stroke-width="13" />
                  <path d="M15564 1805 L17658 1805" stroke="currentColor" stroke-width="13" />
                  <g id="lxiyoiv" class="layer">
                     <g id="n1ttu89c" class="note">
                        <g class="notehead">
                           <use xlink:href="#E0A4-fkr2a5" x="15744" y="1445" height="720px" width="720px" />
                        </g>
                        <g id="s1mntx1g" class="stem">
                           <rect x="15744" y="1473" height="572" width="18" />
                        </g>
                        <g id="a165atr8" class="accid" />
                     </g>
                     <g id="b1x8ka1" class="beam">
                        <polygon points="16570,2030 17125,2030 17125,1940 16570,1940" />
                        <g id="n15ie7dw" class="note">
                           <g class="notehead">
                              <use xlink:href="#E0A4-fkr2a5" x="16570" y="1445" height="720px" width="720px" />
                           </g>
                           <g id="s1s3jz11" class="stem">
                              <rect x="16570" y="1473" height="539" width="18" />
                           </g>
                           <g id="a4uqwdm" class="accid" />
                        </g>
                        <g id="n1a6ja8q" class="note">
                           <g class="notehead">
                              <use xlink:href="#E0A4-fkr2a5" x="17107" y="1445" height="720px" width="720px" />
                           </g>
                           <g id="s1h27kjx" class="stem">
                              <rect x="17107" y="1473" height="539" width="18" />
                           </g>
                           <g id="at39vzz" class="accid" />
                        </g>
                     </g>
                  </g>
               </g>
               <g id="b1qx2ar2" class="barLine">
                  <path d="M17645 1085 L17645 1805" stroke="currentColor" stroke-width="27" />
               </g>
            </g>
            <g id="m1of2m0c" class="measure">
               <g id="s1d0d6k8" class="staff">
                  <path d="M17658 1085 L20002 1085" stroke="currentColor" stroke-width="13" />
                  <path d="M17658 1265 L20002 1265" stroke="currentColor" stroke-width="13" />
                  <path d="M17658 1445 L20002 1445" stroke="currentColor" stroke-width="13" />
                  <path d="M17658 1625 L20002 1625" stroke="currentColor" stroke-width="13" />
                  <path d="M17658 1805 L20002 1805" stroke="currentColor" stroke-width="13" />
                  <g id="l1osdwz" class="layer">
                     <g id="b1949u3i" class="beam">
                        <polygon points="17838,2030 18394,1985 18394,1895 17838,1940" />
                        <g id="n1mlahz9" class="note">
                           <g class="notehead">
                              <use xlink:href="#E0A4-fkr2a5" x="17838" y="1445" height="720px" width="720px" />
                           </g>
                           <g id="s1gpcwv6" class="stem">
                              <rect x="17838" y="1473" height="539" width="18" />
                           </g>
                           <g id="a1oi6jct" class="accid" />
                        </g>
                        <g id="n1gxrklt" class="note">
                           <g class="notehead">
                              <use xlink:href="#E0A4-fkr2a5" x="18376" y="1265" height="720px" width="720px" />
                           </g>
                           <g id="s1kidlhs" class="stem">
                              <rect x="18376" y="1293" height="674" width="18" />
                           </g>
                        </g>
                     </g>
                     <g id="bjkflob" class="beam">
                        <polygon points="18914,1985 19469,1985 19469,1895 18914,1895" />
                        <g id="nmjhxed" class="note">
                           <g class="notehead">
                              <use xlink:href="#E0A4-fkr2a5" x="18914" y="1355" height="720px" width="720px" />
                           </g>
                           <g id="s1rdxaoo" class="stem">
                              <rect x="18914" y="1383" height="584" width="18" />
                           </g>
                        </g>
                        <g id="n1sv0f0a" class="note">
                           <g class="notehead">
                              <use xlink:href="#E0A4-fkr2a5" x="19451" y="1355" height="720px" width="720px" />
                           </g>
                           <g id="s1spt12x" class="stem">
                              <rect x="19451" y="1383" height="584" width="18" />
                           </g>
                        </g>
                     </g>
                  </g>
               </g>
               <g id="bm3c8ku" class="barLine">
                  <path d="M19989 1085 L19989 1805" stroke="currentColor" stroke-width="27" />
               </g>
            </g>
         </g>
         <g id="s1l9qz5k" class="system">
            <g id="l1qpyrdf" class="labelAbbr">
               <text x="914" y="3884" text-anchor="end" font-size="0px">
                  <tspan id="tnjgulv" class="text">
                     <tspan font-size="405px" class="text">Pno.</tspan>
                  </tspan>
               </text>
            </g>
            <g id="m1nr1o2j" class="measure">
               <g id="m14jw7g4" class="mNum autogenerated">
                  <text x="1094" y="3191" text-anchor="middle" font-size="0px">
                     <tspan id="t11dcprb" class="text">
                        <tspan font-size="324px" class="text">9</tspan>
                     </tspan>
                  </text>
               </g>
               <g id="s1r0oskd" class="staff">
                  <path d="M1094 3434 L4343 3434" stroke="currentColor" stroke-width="13" />
                  <path d="M1094 3614 L4343 3614" stroke="currentColor" stroke-width="13" />
                  <path d="M1094 3794 L4343 3794" stroke="currentColor" stroke-width="13" />
                  <path d="M1094 3974 L4343 3974" stroke="currentColor" stroke-width="13" />
                  <path d="M1094 4154 L4343 4154" stroke="currentColor" stroke-width="13" />
                  <g id="c1ks6h0d" class="clef">
                     <use xlink:href="#E050-fkr2a5" x="1184" y="3974" height="720px" width="720px" />
                  </g>
                  <g id="kfqd6b5" class="keySig">
                     <g id="k1s2o4k6" class="keyAccid">
                        <use xlink:href="#E260-fkr2a5" x="1829" y="3794" height="720px" width="720px" />
                     </g>
                     <g id="khr3hfe" class="keyAccid">
                        <use xlink:href="#E260-fkr2a5" x="2009" y="3524" height="720px" width="720px" />
                     </g>
                  </g>
                  <g id="l1wsepl8" class="layer">
                     <g id="ng428v7" class="note">
                        <g class="notehead">
                           <use xlink:href="#E0A4-fkr2a5" x="2421" y="3794" height="720px" width="720px" />
                        </g>
                        <g id="s1ftcodj" class="stem">
                           <rect x="2421" y="3822" height="572" width="18" />
                        </g>
                        <g id="a1b0mfch" class="accid" />
                     </g>
                     <g id="bgfqhtq" class="beam">
                        <polygon points="3458,3254 4016,3209 4016,3299 3458,3344" />
                        <g id="nxej5wj" class="note">
                           <g class="notehead">
                              <use xlink:href="#E0A4-fkr2a5" x="3250" y="3884" height="720px" width="720px" />
                           </g>
                           <g id="s1nruglg" class="stem">
                              <rect x="3458" y="3272" height="584" width="18" />
                           </g>
                        </g>
                        <g id="noqm6bm" class="note">
                           <g class="notehead">
                              <use xlink:href="#E0A4-fkr2a5" x="3790" y="3794" height="720px" width="720px" />
                           </g>
                           <g id="s12iqj2m" class="stem">
                              <rect x="3998" y="3227" height="539" width="18" />
                           </g>
                           <g id="a1hg3e9f" class="accid" />
                        </g>
                     </g>
                  </g>
               </g>
               <g id="b1oqb85z" class="barLine">
                  <path d="M4330 3434 L4330 4154" stroke="currentColor" stroke-width="27" />
               </g>
            </g>
            <g id="mpoa6qw" class="measure">
               <g id="s1i72n0q" class="staff">
                  <path d="M4343 3434 L6445 3434" stroke="currentColor" stroke-width="13" />
                  <path d="M4343 3614 L6445 3614" stroke="currentColor" stroke-width="13" />
                  <path d="M4343 3794 L6445 3794" stroke="currentColor" stroke-width="13" />
                  <path d="M4343 3974 L6445 3974" stroke="currentColor" stroke-width="13" />
                  <path d="M4343 4154 L6445 4154" stroke="currentColor" stroke-width="13" />
                  <g id="l1nef64h" class="layer">
                     <g id="b184thuv" class="beam">
                        <polygon points="4523,4334 5081,4379 5081,4289 4523,4244" />
                        <g id="n1hfz68z" class="note">
                           <g class="notehead">
                              <use xlink:href="#E0A4-fkr2a5" x="4523" y="3704" height="720px" width="720px" />
                           </g>
                           <g id="s1s88x15" class="stem">
                              <rect x="4523" y="3732" height="584" width="18" />
                           </g>
                        </g>
                        <g id="n1xfpnhw" class="note">
                           <g class="notehead">
                              <use xlink:href="#E0A4-fkr2a5" x="5063" y="3794" height="720px" width="720px" />
                           </g>
                           <g id="s1olfbko" class="stem">
                              <rect x="5063" y="3822" height="539" width="18" />
                           </g>
                           <g id="a11pwi0m" class="accid" />
                        </g>
                     </g>
                     <g id="nu5l4cv" class="note">
                        <g class="notehead">
                           <use xlink:href="#E0A4-fkr2a5" x="5603" y="3884" height="720px" width="720px" />
                        </g>
                        <g id="srizb4y" class="stem">
                           <rect x="5811" y="3254" height="602" width="18" />
                        </g>
                     </g>
                  </g>
               </g>
               <g id="b15sawrm" class="barLine">
                  <path d="M6432 3434 L6432 4154" stroke="currentColor" stroke-width="27" />
               </g>
            </g>
            <g id="swwa9tz" class="sb" />
            <g id="mdttbez" class="measure">
               <g id="su11etl" class="staff">
                  <path d="M6445 3434 L8824 3434" stroke="currentColor" stroke-width="13" />
                  <path d="M6445 3614 L8824 3614" stroke="currentColor" stroke-width="13" />
                  <path d="M6445 3794 L8824 3794" stroke="currentColor" stroke-width="13" />
                  <path d="M6445 3974 L8824 3974" stroke="currentColor" stroke-width="13" />
                  <path d="M6445 4154 L8824 4154" stroke="currentColor" stroke-width="13" />
                  <g id="lgq0hsd" class="layer">
                     <g id="njq6s9b" class="note">
                        <g class="notehead">
                           <use xlink:href="#E0A4-fkr2a5" x="6535" y="3974" height="540px" width="540px" />
                        </g>
                        <g id="s1ylh2qy" class="stem">
                           <rect x="6686" y="3502" height="451" width="18" />
                           <g id="f1muccy6" class="flag">
                              <use xlink:href="#E240-fkr2a5" x="6686" y="3502" height="540px" width="540px" />
                           </g>
                        </g>
                     </g>
                     <g id="n1ahh9oi" class="note">
                        <g class="notehead">
                           <use xlink:href="#E0A4-fkr2a5" x="6902" y="3794" height="720px" width="720px" />
                        </g>
                        <g id="s4u43qo" class="stem">
                           <rect x="6902" y="3822" height="572" width="18" />
                        </g>
                        <g id="ahsyq0w" class="accid" />
                     </g>
                     <g id="bzki621" class="beam">
                        <polygon points="7939,3209 8497,3254 8497,3344 7939,3299" />
                        <g id="n1f8adiy" class="note">
                           <g class="notehead">
                              <use xlink:href="#E0A4-fkr2a5" x="7731" y="3884" height="720px" width="720px" />
                           </g>
                           <g id="s6ea8xh" class="stem">
                              <rect x="7939" y="3227" height="629" width="18" />
                           </g>
                        </g>
                        <g id="nf3a78y" class="note">
                           <g class="notehead">
                              <use xlink:href="#E0A4-fkr2a5" x="8271" y="3974" height="720px" width="720px" />
                           </g>
                           <g id="s1ubmii4" class="stem">
                              <rect x="8479" y="3272" height="674" width="18" />
                           </g>
                        </g>
                     </g>
                  </g>
               </g>
               <g id="bjku3gm" class="barLine">
                  <path d="M8811 3434 L8811 4154" stroke="currentColor" stroke-width="27" />
               </g>
            </g>
            <g id="mfm3ap4" class="measure">
               <g id="so4f9w0" class="staff">
                  <path d="M8824 3434 L11203 3434" stroke="currentColor" stroke-width="13" />
                  <path d="M8824 3614 L11203 3614" stroke="currentColor" stroke-width="13" />
                  <path d="M8824 3794 L11203 3794" stroke="currentColor" stroke-width="13" />
                  <path d="M8824 3974 L11203 3974" stroke="currentColor" stroke-width="13" />
                  <path d="M8824 4154 L11203 4154" stroke="currentColor" stroke-width="13" />
                  <g id="l1rz504p" class="layer">
                     <g id="ndm6x3m" class="note">
                        <g class="notehead">
                           <use xlink:href="#E0A4-fkr2a5" x="8914" y="3974" height="540px" width="540px" />
                        </g>
                        <g id="s1ibtel0" class="stem">
                           <rect x="9065" y="3502" height="451" width="18" />
                           <g id="fyfglgk" class="flag">
                              <use xlink:href="#E240-fkr2a5" x="9065" y="3502" height="540px" width="540px" />
                           </g>
                        </g>
                     </g>
                     <g id="n15ty1k0" class="note">
                        <g class="notehead">
                           <use xlink:href="#E0A4-fkr2a5" x="9281" y="3794" height="720px" width="720px" />
                        </g>
                        <g id="s52ulx6" class="stem">
                           <rect x="9281" y="3822" height="572" width="18" />
                        </g>
                        <g id="a8y33kp" class="accid" />
                     </g>
                     <g id="b1v5rpha" class="beam">
                        <polygon points="10318,3209 10876,3254 10876,3344 10318,3299" />
                        <g id="n1ef6d4a" class="note">
                           <g class="notehead">
                              <use xlink:href="#E0A4-fkr2a5" x="10110" y="3884" height="720px" width="720px" />
                           </g>
                           <g id="s13rnvdq" class="stem">
                              <rect x="10318" y="3227" height="629" width="18" />
                           </g>
                        </g>
                        <g id="nz069aq" class="note">
                           <g class="notehead">
                              <use xlink:href="#E0A4-fkr2a5" x="10650" y="3974" height="720px" width="720px" />
                           </g>
                           <g id="s1kekyry" class="stem">
                              <rect x="10858" y="3272" height="674" width="18" />
                           </g>
                        </g>
                     </g>
                  </g>
               </g>
               <g id="b11y7b3n" class="barLine">
                  <path d="M11190 3434 L11190 4154" stroke="currentColor" stroke-width="27" />
               </g>
            </g>
            <g id="mkvx5ab" class="measure">
               <g id="s1bo9sbk" class="staff">
                  <path d="M11203 3434 L13582 3434" stroke="currentColor" stroke-width="13" />
                  <path d="M11203 3614 L13582 3614" stroke="currentColor" stroke-width="13" />
                  <path d="M11203 3794 L13582 3794" stroke="currentColor" stroke-width="13" />
                  <path d="M11203 3974 L13582 3974" stroke="currentColor" stroke-width="13" />
                  <path d="M11203 4154 L13582 4154" stroke="currentColor" stroke-width="13" />
                  <g id="lfxmf9v" class="layer">
                     <g id="n3dg6yr" class="note">
                        <g class="notehead">
                           <use xlink:href="#E0A4-fkr2a5" x="11293" y="3974" height="540px" width="540px" />
                        </g>
                        <g id="s1c461as" class="stem">
                           <rect x="11444" y="3502" height="451" width="18" />
                           <g id="f1qf6tuk" class="flag">
                              <use xlink:href="#E240-fkr2a5" x="11444" y="3502" height="540px" width="540px" />
                           </g>
                        </g>
                     </g>
                     <g id="n1tj5nez" class="note">
                        <g class="notehead">
                           <use xlink:href="#E0A4-fkr2a5" x="11660" y="3794" height="720px" width="720px" />
                        </g>
                        <g id="s15sl0a2" class="stem">
                           <rect x="11660" y="3822" height="572" width="18" />
                        </g>
                        <g id="aiecr9t" class="accid" />
                     </g>
                     <g id="b1568xbs" class="beam">
                        <polygon points="12697,3254 13255,3254 13255,3344 12697,3344" />
                        <g id="nh0wb3e" class="note">
                           <g class="notehead">
                              <use xlink:href="#E0A4-fkr2a5" x="12489" y="3884" height="720px" width="720px" />
                           </g>
                           <g id="s1g5waxj" class="stem">
                              <rect x="12697" y="3272" height="584" width="18" />
                           </g>
                        </g>
                        <g id="nf67bqg" class="note">
                           <g class="notehead">
                              <use xlink:href="#E0A4-fkr2a5" x="13029" y="3884" height="720px" width="720px" />
                           </g>
                           <g id="sklqqcf" class="stem">
                              <rect x="13237" y="3272" height="584" width="18" />
                           </g>
                        </g>
                     </g>
                  </g>
               </g>
               <g id="baibu0b" class="barLine">
                  <path d="M13569 3434 L13569 4154" stroke="currentColor" stroke-width="27" />
               </g>
            </g>
            <g id="m1kr9syf" class="measure">
               <g id="s14b2v58" class="staff">
                  <path d="M13582 3434 L15846 3434" stroke="currentColor" stroke-width="13" />
                  <path d="M13582 3614 L15846 3614" stroke="currentColor" stroke-width="13" />
                  <path d="M13582 3794 L15846 3794" stroke="currentColor" stroke-width="13" />
                  <path d="M13582 3974 L15846 3974" stroke="currentColor" stroke-width="13" />
                  <path d="M13582 4154 L15846 4154" stroke="currentColor" stroke-width="13" />
                  <g id="l1dks9av" class="layer">
                     <g id="bxp3gar" class="beam">
                        <polygon points="13970,3254 14528,3209 14528,3299 13970,3344" />
                        <g id="n7xwsz1" class="note">
                           <g class="notehead">
                              <use xlink:href="#E0A4-fkr2a5" x="13762" y="4064" height="720px" width="720px" />
                           </g>
                           <g id="s1437vtc" class="stem">
                              <rect x="13970" y="3272" height="764" width="18" />
                           </g>
                        </g>
                        <g id="nye0w49" class="note">
                           <g class="notehead">
                              <use xlink:href="#E0A4-fkr2a5" x="14302" y="3884" height="720px" width="720px" />
                           </g>
                           <g id="s17qd4xj" class="stem">
                              <rect x="14510" y="3227" height="629" width="18" />
                           </g>
                        </g>
                     </g>
                     <g id="n5x9z8i" class="note">
                        <g class="notehead">
                           <use xlink:href="#E0A4-fkr2a5" x="14842" y="3974" height="720px" width="720px" />
                        </g>
                        <g id="sqob75y" class="stem">
                           <rect x="15050" y="3344" height="602" width="18" />
                        </g>
                     </g>
                  </g>
               </g>
               <g id="bii990g" class="barLine">
                  <path d="M15671 3434 L15671 4154" stroke="currentColor" stroke-width="27" />
                  <path d="M15801 3434 L15801 4154" stroke="currentColor" stroke-width="90" />
               </g>
            </g>
            <g id="s16y1set" class="systemMilestoneEnd s1di8nm4" />
         </g>
         <g id="p1qtdd1b" class="pageMilestoneEnd s1mvzcg" />
         <g id="p1ro407y" class="pageMilestoneEnd m12czuvt" />
         <g id="p19rjekv" class="pgHead">
            <text x="0" y="0" font-size="0px">
               <tspan id="r102s8bg" class="rend" x="10000" y="277" text-anchor="middle">
                  <tspan id="t1makwmz" class="text">
                     <tspan font-size="405px" class="text">Air 179</tspan>
                  </tspan>
               </tspan>
            </text>
         </g>
         <g id="p101brr1" class="pgFoot autogenerated">
            <g id="f1lueazb" class="fig">
               <g id="soglt16" class="svg" transform="translate(7750, 28099) scale(10, 10)">
                  <g>
                     <path fill="#00000" d="M 17.11278,49.26451 V 10.367554 h 12.696511 c 3.288815,7.336676 6.71267,14.610456 10.127281,21.888976 3.419998,-7.484684 6.255515,-14.204887 9.58887,-21.909915 2.436207,0.103726 4.316952,0.08453 6.484294,-0.05808 V 49.264423 H 50.274275 C 50.145222,38.35639 50.016136,27.448368 49.887066,16.540329 45.003488,27.315459 39.967448,38.433564 35.083854,49.208695 34.678996,49.343717 34.426583,49.135619 34.021726,49.270644 29.46588,39.330716 24.910049,29.390805 20.354201,19.450876 20.224341,29.388756 20.09461,39.326619 19.964815,49.264497 H 17.11278 Z M 36.754144,39.324695 C 32.721221,30.512695 28.6883,21.700679 24.655394,12.888662 22.530527,12.750737 22.656775,12.71031 20.714356,12.813974 v 0.966497 c 4.612938,9.99784 9.609439,20.748709 13.87298,30.081745 0.722248,-1.512523 1.444528,-3.025014 2.166808,-4.537521 z m 25.738417,9.939815 c 0,-12.965651 0,-25.931305 0,-38.896956 10.084388,0 20.168791,0 30.253178,0 0,0.960416 0,1.920849 0,2.881265 -6.482825,0 -12.965652,0 -19.448478,0 0,4.802097 0,9.604178 0,14.406277 5.52241,0 11.044819,0 16.567229,0 0,0.960415 0,1.920832 0,2.881248 -5.52241,0 -11.044819,0 -16.567229,0 0,5.282306 0,10.564611 0,15.846917 6.963035,0 13.926068,0 20.889103,0 0,0.960416 0,1.920832 0,2.881249 -10.564597,0 -21.129207,0 -31.693803,0 z m 4.321874,-2.160937 c 0,-11.765131 0,-23.530263 0,-35.295394 -0.720312,0 -1.440625,0 -2.160937,0 0,11.765131 0,23.530263 0,35.295394 0.720312,0 1.440625,0 2.160937,0 z m 32.41413,2.160937 c 0,-12.965651 0,-25.931305 0,-38.896956 2.401045,0 4.802095,0 7.203135,0 0,12.965651 0,25.931305 0,38.896956 -2.40104,0 -4.80209,0 -7.203135,0 z m 2.881265,-2.160937 c 0,-11.765131 0,-23.530263 0,-35.295394 -0.72031,0 -1.44064,0 -2.160953,0 0,11.765131 0,23.530263 0,35.295394 0.720313,0 1.440643,0 2.160953,0 z" />
                     <path fill="#00000" d="m 346.3,6.7 c -3.1,0.5 -4.9,4.4 -2.7,6.8 1.2,1.4 2.7,2.4 4.1,3.5 -2.4,5.3 -7.7,8.3 -11.9,12.1 -3.7,2.8 -7,6.2 -9.7,9.9 -2.2,-0.8 -0.3,-6.8 -0.6,-9.5 0.1,-3.1 0.7,-6.4 2.9,-8.7 1.3,-1.9 3,-3.5 4.5,-5.2 1.2,-3.4 -3.2,-4.9 -5.8,-4.6 -7.3,-0.5 -14.6,2 -20,6.8 -5,4.6 -10,10.1 -11.5,17 -0.9,3.5 -0.2,7.5 2.8,9.9 2.5,2.8 7.4,2.9 9.8,-0.2 1.7,-2.3 3.2,-4.8 3.8,-7.6 -0.1,-2.6 -4.4,-2.3 -4.3,0.2 1.2,2.4 -0.9,4.7 -2.7,6.2 -1.7,0.9 -4.7,0.7 -4.8,-1.7 -1,-5.8 2.1,-11.3 5.2,-16.1 4,-5.8 9.8,-11.2 17.2,-11.8 1.6,0 8.1,-1.2 6.8,1.4 -2.8,2.8 -5.6,6.1 -6,10.3 -1.6,7.7 0.1,15.7 -2.3,23.2 -1.1,3.9 2,2.6 2.5,0.2 3.3,-7.4 8.9,-13.4 15.1,-18.5 4.2,-3.9 9.5,-7.1 11.9,-12.6 1.3,-3.6 1.2,-9 -2.7,-10.9 -0.6,-0.2 -1.2,-0.3 -1.8,-0.3 z m 66,14.5 c -2,0.8 -1.8,4.9 0.8,4.4 3.4,0.4 2.9,-6.2 -0.8,-4.4 z m 0.6,7.3 c -1.3,0.5 -7.6,0.5 -5.4,2.2 4,-0.3 0.7,4.5 0.6,6.7 -0.4,2.9 -2.4,5.9 -1.2,8.8 2.7,1.7 5.6,-0.8 6.8,-3.2 1.6,-1.4 -0.5,-3 -1.2,-0.9 -0.4,0.8 -2.4,3.5 -2.6,1.8 1.1,-5 2.7,-9.9 3.9,-14.9 l -0.1,-0.5 h -0.9 z m -65.1,0.2 c -6.5,1.6 -10.5,9.5 -8.2,15.7 2.1,3.4 7.4,2.9 10.1,0.4 2,-0.2 3.6,-5.3 1,-3.4 -1.4,2 -4,4.2 -6.5,2.8 -2.2,-1.9 -1.9,-5.7 1.7,-5.3 3.1,-0.9 6.9,-2.1 8.1,-5.5 0.9,-2.7 -1.6,-5.2 -4.3,-4.8 h -1.1 -0.7 z m 13.6,0 c -2.2,0 -8.5,1.8 -2.9,2.3 0.9,1.9 -1,4.9 -1.1,7.2 -0.5,2.9 -1.4,5.7 -1.7,8.7 3.7,0.7 3.8,-2.6 4.4,-5.3 0.9,-3.3 1.6,-7 4.1,-9.5 2.4,1.6 6.8,-0.7 3.7,-3.4 -2.9,-0.5 -4.8,2.4 -6.2,4.3 0,-1.2 2.4,-5 -0.2,-4.3 z m 15.8,0 c -6.4,1.3 -9.6,9.1 -7.7,14.9 1.9,4 7.7,3.9 11,1.7 4.1,-3 6,-8.9 4.4,-13.7 -1.3,-3 -4.8,-3.2 -7.6,-3 z m 17,0 c -2.3,0 -8.8,1.9 -3,2.4 0.4,2.5 -1,5.7 -1.4,8.4 -0.7,2.4 -1.8,7.5 2.1,7.2 3.8,-0.1 6.5,-3.5 8.5,-6.3 2,-3.2 4.5,-7 3.3,-10.9 -3.7,-3 -3.6,2.6 -3.1,5.1 -0.7,3.8 -2.7,7.9 -6.2,9.8 -3.6,0.6 -1,-4.3 -0.8,-6.1 0.6,-3.2 1.6,-6.3 1.9,-9.5 -0.4,0 -0.8,0 -1.1,0 z m 30.6,0 c -6.3,1.2 -9.5,8.9 -7.8,14.7 1.5,4 7.2,4.2 10.5,2.4 4.6,-2.8 6.6,-9.3 4.8,-14.3 -1.4,-2.8 -4.8,-3 -7.5,-2.8 z m -75.4,1.7 c 2.1,1.5 0.2,4.7 -1.6,5.7 -1.1,0.4 -5.5,3.4 -4.6,0.7 0.8,-2.7 2.2,-6.2 5.3,-6.6 l 0.9,0.1 z m 30.8,0 c 2.6,1.5 1.3,5.2 0.8,7.6 -0.8,2.7 -1.9,5.9 -4.7,7.1 -5.1,0.8 -4,-5.8 -2.8,-8.8 1,-2.8 3,-6.8 6.7,-5.8 z m 47.1,-0.1 c 2.9,0.7 2,4.7 1.5,6.8 -0.7,3 -1.8,6.7 -5,8 -4.7,0.8 -4,-5.1 -3,-7.9 0.9,-3 2.7,-7.3 6.5,-6.8 z m -88.1,5.9 c -0.3,1.3 0.9,-0.6 0,0 z m -1.1,2.4 c -0.2,0.5 0.5,-0.1 0,0 z m -1.3,4.5 c -0.3,1.3 0.8,-0.2 0,0 z" />
                     <text y="41" x="201" fill="#00000" style="font-style:italic;font-weight:normal;font-size:30px;line-height:125%;font-family:Times;text-anchor:middle" xml:space="preserve">engraved with</text>
                  </g>
               </g>
            </g>
         </g>
      </g>
   </svg>
</svg>
