<?xml version="1.0" encoding="UTF-8" standalone="no"?>
<svg width="2100px" height="2970px" version="1.1" xmlns="http://www.w3.org/2000/svg" xmlns:xlink="http://www.w3.org/1999/xlink" xmlns:mei="http://www.music-encoding.org/ns/mei" overflow="visible">
   <desc>Engraved by Verovio 3.13.1</desc>
   <defs>
      <symbol id="E050-g5ujh5" viewBox="0 0 1000 1000" overflow="inherit">
         <path transform="scale(1,-1)" d="M441 -245c-23 -4 -48 -6 -76 -6c-59 0 -102 7 -130 20c-88 42 -150 93 -187 154c-26 44 -43 103 -48 176c0 6 -1 13 -1 19c0 54 15 111 45 170c29 57 65 106 110 148s96 85 153 127c-3 16 -8 46 -13 92c-4 43 -5 73 -5 89c0 117 16 172 69 257c34 54 64 82 89 82 c21 0 43 -30 69 -92s39 -115 41 -159v-15c0 -109 -21 -162 -67 -241c-13 -20 -63 -90 -98 -118c-13 -9 -25 -19 -37 -29l31 -181c8 1 18 2 28 2c58 0 102 -12 133 -35c59 -43 92 -104 98 -184c1 -7 1 -15 1 -22c0 -123 -87 -209 -181 -248c8 -57 17 -110 25 -162 c5 -31 6 -58 6 -80c0 -30 -5 -53 -14 -70c-35 -64 -88 -99 -158 -103c-5 0 -11 -1 -16 -1c-37 0 -72 10 -108 27c-50 24 -77 59 -80 105v11c0 29 7 55 20 76c18 28 45 42 79 44h6c49 0 93 -42 97 -87v-9c0 -51 -34 -86 -105 -106c17 -24 51 -36 102 -36c62 0 116 43 140 85 c9 16 13 41 13 74c0 20 -1 42 -5 67c-8 53 -18 106 -26 159zM461 939c-95 0 -135 -175 -135 -286c0 -24 2 -48 5 -71c50 39 92 82 127 128c40 53 60 100 60 140v8c-4 53 -22 81 -55 81h-2zM406 119l54 -326c73 25 110 78 110 161c0 7 0 15 -1 23c-7 95 -57 142 -151 142h-12 zM382 117c-72 -2 -128 -47 -128 -120v-7c2 -46 43 -99 75 -115c-3 -2 -7 -5 -10 -10c-70 33 -116 88 -123 172v11c0 68 44 126 88 159c23 17 49 29 78 36l-29 170c-21 -13 -52 -37 -92 -73c-50 -44 -86 -84 -109 -119c-45 -69 -67 -130 -67 -182v-13c5 -68 35 -127 93 -176 s125 -73 203 -73c25 0 50 3 75 9c-19 111 -36 221 -54 331z" />
      </symbol>
      <symbol id="E082-g5ujh5" viewBox="0 0 1000 1000" overflow="inherit">
         <path transform="scale(1,-1)" d="M124 -185c-18 0 -55 -14 -65 -65h-36l-3 30c0 25 6 45 18 63c11 19 22 30 39 43l121 82l37 29c15 11 27 29 38 54c12 24 18 47 18 70c0 40 -19 88 -94 88c-25 0 -32 0 -50 -8c-14 -5 -23 -12 -26 -22c3 -9 7 -15 10 -18l24 -17c12 -7 17 -11 27 -21c5 -7 7 -16 7 -27 c0 -12 0 -57 -79 -74c-30 0 -76 26 -76 94c0 66 81 135 197 135c72 0 181 -32 181 -150c0 -53 -32 -95 -113 -133l-91 -41c-26 -11 -45 -23 -57 -37l49 7c84 0 115 -41 148 -41c20 0 33 20 39 61h35c0 -152 -68 -168 -114 -168c-17 0 -65 0 -79 7h10l-28 17 c-49 37 -69 40 -87 42z" />
      </symbol>
      <symbol id="E084-g5ujh5" viewBox="0 0 1000 1000" overflow="inherit">
         <path transform="scale(1,-1)" d="M20 -78c84 97 114 180 134 329h170c-13 -32 -82 -132 -99 -151l-84 -97c-33 -36 -59 -63 -80 -81h162v102l127 123v-225h57v-39h-57v-34c0 -43 19 -65 57 -65v-34h-244v36c48 0 60 26 60 70v27h-203v39z" />
      </symbol>
      <symbol id="E0A4-g5ujh5" viewBox="0 0 1000 1000" overflow="inherit">
         <path transform="scale(1,-1)" d="M0 -39c0 68 73 172 200 172c66 0 114 -37 114 -95c0 -84 -106 -171 -218 -171c-64 0 -96 30 -96 94z" />
      </symbol>
   </defs>
   <style type="text/css">g.page-margin{font-family:Times;} g.ending, g.fing, g.reh, g.tempo{font-weight:bold;} g.dir, g.dynam, g.mNum{font-style:italic;} g.label{font-weight:normal;}</style>
   <svg class="definition-scale" color="black" viewBox="0 0 21000 29700">
      <g class="page-margin" transform="translate(500, 500)">
         <g id="mmzrhc4" class="mdiv pageMilestone" />
         <g id="s1qlmw3b" class="score pageMilestone" />
         <g id="s1tlfm2u" class="system">
            <g id="l57ebu" class="label">
               <text x="1105" y="1536" text-anchor="end" font-size="0px">
                  <tspan id="t1qzv4l4" class="text">
                     <tspan font-size="405px" class="text">Piano</tspan>
                  </tspan>
               </text>
            </g>
            <g id="sky7w8y" class="section systemMilestone" />
            <g id="p1iijmkx" class="pb" />
            <g id="m1a6rtn0" class="measure">
               <g id="s1yrgq3x" class="staff">
                  <path d="M1285 1086 L4612 1086" stroke="currentColor" stroke-width="13" />
                  <path d="M1285 1266 L4612 1266" stroke="currentColor" stroke-width="13" />
                  <path d="M1285 1446 L4612 1446" stroke="currentColor" stroke-width="13" />
                  <path d="M1285 1626 L4612 1626" stroke="currentColor" stroke-width="13" />
                  <path d="M1285 1806 L4612 1806" stroke="currentColor" stroke-width="13" />
                  <g id="c1wd0iwe" class="clef">
                     <use xlink:href="#E050-g5ujh5" x="1375" y="1626" height="720px" width="720px" />
                  </g>
                  <g id="k1afh0lq" class="keySig" />
                  <g id="mz7ec0p" class="meterSig">
                     <use xlink:href="#E082-g5ujh5" x="2006" y="1266" height="720px" width="720px" />
                     <use xlink:href="#E084-g5ujh5" x="2011" y="1626" height="720px" width="720px" />
                  </g>
                  <g id="l1je0mes" class="layer">
                     <g id="bxvd6nz" class="beam">
                        <polygon points="2579,2031 3102,1986 3102,1896 2579,1941" />
                        <g id="n1n8mc54" class="note">
                           <g class="notehead">
                              <use xlink:href="#E0A4-g5ujh5" x="2579" y="1446" height="720px" width="720px" />
                           </g>
                           <g id="s15vtqwx" class="stem">
                              <rect x="2579" y="1474" height="539" width="18" />
                           </g>
                        </g>
                        <g id="n1jwupwx" class="note">
                           <g class="notehead">
                              <use xlink:href="#E0A4-g5ujh5" x="3084" y="1356" height="720px" width="720px" />
                           </g>
                           <g id="sl5dpc3" class="stem">
                              <rect x="3084" y="1384" height="584" width="18" />
                           </g>
                        </g>
                     </g>
                     <g id="b1u2wtv8" class="beam">
                        <polygon points="3589,1851 4112,1851 4112,1761 3589,1761" />
                        <g id="nw28csn" class="note">
                           <g class="notehead">
                              <use xlink:href="#E0A4-g5ujh5" x="3589" y="1266" height="720px" width="720px" />
                           </g>
                           <g id="s1ooegwu" class="stem">
                              <rect x="3589" y="1294" height="539" width="18" />
                           </g>
                        </g>
                        <g id="n14c3069" class="note">
                           <g class="notehead">
                              <use xlink:href="#E0A4-g5ujh5" x="4094" y="1266" height="720px" width="720px" />
                           </g>
                           <g id="sla6g9u" class="stem">
                              <rect x="4094" y="1294" height="539" width="18" />
                           </g>
                        </g>
                     </g>
                  </g>
               </g>
               <g id="b1dt3ezf" class="barLine">
                  <path d="M4599 1086 L4599 1806" stroke="currentColor" stroke-width="27" />
               </g>
            </g>
            <g id="m19qka30" class="measure">
               <g id="sqbh70b" class="staff">
                  <path d="M4612 1086 L6591 1086" stroke="currentColor" stroke-width="13" />
                  <path d="M4612 1266 L6591 1266" stroke="currentColor" stroke-width="13" />
                  <path d="M4612 1446 L6591 1446" stroke="currentColor" stroke-width="13" />
                  <path d="M4612 1626 L6591 1626" stroke="currentColor" stroke-width="13" />
                  <path d="M4612 1806 L6591 1806" stroke="currentColor" stroke-width="13" />
                  <g id="l7etnwy" class="layer">
                     <g id="bhewqfd" class="beam">
                        <polygon points="4792,1941 5315,1896 5315,1806 4792,1851" />
                        <g id="n1bo8ens" class="note">
                           <g class="notehead">
                              <use xlink:href="#E0A4-g5ujh5" x="4792" y="1266" height="720px" width="720px" />
                           </g>
                           <g id="sla8k7f" class="stem">
                              <rect x="4792" y="1294" height="629" width="18" />
                           </g>
                        </g>
                        <g id="nk27cc8" class="note">
                           <g class="notehead">
                              <use xlink:href="#E0A4-g5ujh5" x="5297" y="1176" height="720px" width="720px" />
                           </g>
                           <g id="s1qg6vwr" class="stem">
                              <rect x="5297" y="1204" height="674" width="18" />
                           </g>
                        </g>
                     </g>
                     <g id="ngbxwqi" class="note">
                        <g class="notehead">
                           <use xlink:href="#E0A4-g5ujh5" x="5802" y="1266" height="720px" width="720px" />
                        </g>
                        <g id="s1hf26ou" class="stem">
                           <rect x="5802" y="1294" height="602" width="18" />
                        </g>
                     </g>
                  </g>
               </g>
               <g id="bhx06g5" class="barLine">
                  <path d="M6578 1086 L6578 1806" stroke="currentColor" stroke-width="27" />
               </g>
            </g>
            <g id="m1r2j5ho" class="measure">
               <g id="s77x7k9" class="staff">
                  <path d="M6591 1086 L8972 1086" stroke="currentColor" stroke-width="13" />
                  <path d="M6591 1266 L8972 1266" stroke="currentColor" stroke-width="13" />
                  <path d="M6591 1446 L8972 1446" stroke="currentColor" stroke-width="13" />
                  <path d="M6591 1626 L8972 1626" stroke="currentColor" stroke-width="13" />
                  <path d="M6591 1806 L8972 1806" stroke="currentColor" stroke-width="13" />
                  <g id="l19z3yes" class="layer">
                     <g id="buhljp8" class="beam">
                        <polygon points="6771,2031 7631,2031 7631,1941 6771,1941" />
                        <polygon points="7285,1896 7631,1896 7631,1806 7285,1806" />
                        <g id="n18nfn4b" class="note">
                           <g class="notehead">
                              <use xlink:href="#E0A4-g5ujh5" x="6771" y="1446" height="720px" width="720px" />
                           </g>
                           <g id="syds8zf" class="stem">
                              <rect x="6771" y="1474" height="539" width="18" />
                           </g>
                        </g>
                        <g id="nnjkfd" class="note">
                           <g class="notehead">
                              <use xlink:href="#E0A4-g5ujh5" x="7276" y="1446" height="720px" width="720px" />
                           </g>
                           <g id="swjd4kj" class="stem">
                              <rect x="7276" y="1474" height="539" width="18" />
                           </g>
                        </g>
                        <g id="n1eibt9y" class="note">
                           <g class="notehead">
                              <use xlink:href="#E0A4-g5ujh5" x="7613" y="1356" height="720px" width="720px" />
                           </g>
                           <g id="s12eob0r" class="stem">
                              <rect x="7613" y="1384" height="629" width="18" />
                           </g>
                        </g>
                     </g>
                     <g id="b1e6f0tl" class="beam">
                        <polygon points="7949,1851 8472,1851 8472,1761 7949,1761" />
                        <g id="nb4fdaz" class="note">
                           <g class="notehead">
                              <use xlink:href="#E0A4-g5ujh5" x="7949" y="1266" height="720px" width="720px" />
                           </g>
                           <g id="s1omw9to" class="stem">
                              <rect x="7949" y="1294" height="539" width="18" />
                           </g>
                        </g>
                        <g id="n1e865zd" class="note">
                           <g class="notehead">
                              <use xlink:href="#E0A4-g5ujh5" x="8454" y="1266" height="720px" width="720px" />
                           </g>
                           <g id="sz38krx" class="stem">
                              <rect x="8454" y="1294" height="539" width="18" />
                           </g>
                        </g>
                     </g>
                  </g>
               </g>
               <g id="b10lzeh5" class="barLine">
                  <path d="M8959 1086 L8959 1806" stroke="currentColor" stroke-width="27" />
               </g>
            </g>
            <g id="m1gl6vmm" class="measure">
               <g id="su49td0" class="staff">
                  <path d="M8972 1086 L11050 1086" stroke="currentColor" stroke-width="13" />
                  <path d="M8972 1266 L11050 1266" stroke="currentColor" stroke-width="13" />
                  <path d="M8972 1446 L11050 1446" stroke="currentColor" stroke-width="13" />
                  <path d="M8972 1626 L11050 1626" stroke="currentColor" stroke-width="13" />
                  <path d="M8972 1806 L11050 1806" stroke="currentColor" stroke-width="13" />
                  <g id="l1uwtbt5" class="layer">
                     <g id="b1rr17ku" class="beam">
                        <polygon points="9152,1941 9675,1896 9675,1806 9152,1851" />
                        <g id="n1thsou5" class="note">
                           <g class="notehead">
                              <use xlink:href="#E0A4-g5ujh5" x="9152" y="1266" height="720px" width="720px" />
                           </g>
                           <g id="svyegeg" class="stem">
                              <rect x="9152" y="1294" height="629" width="18" />
                           </g>
                        </g>
                        <g id="n1g2hhzb" class="note">
                           <g class="notehead">
                              <use xlink:href="#E0A4-g5ujh5" x="9657" y="1176" height="720px" width="720px" />
                           </g>
                           <g id="s16kcl0s" class="stem">
                              <rect x="9657" y="1204" height="674" width="18" />
                           </g>
                        </g>
                     </g>
                     <g id="n1ct31ki" class="note">
                        <g class="notehead">
                           <use xlink:href="#E0A4-g5ujh5" x="10162" y="1266" height="720px" width="720px" />
                        </g>
                        <g id="syfpvry" class="stem">
                           <rect x="10162" y="1294" height="602" width="18" />
                        </g>
                     </g>
                  </g>
               </g>
               <g id="b19357ox" class="barLine">
                  <path d="M10938 1086 L10938 1806" stroke="currentColor" stroke-width="27" />
                  <path d="M11037 1086 L11037 1806" stroke="currentColor" stroke-width="27" />
               </g>
            </g>
            <g id="mmlpdj5" class="measure">
               <g id="shqjnx5" class="staff">
                  <path d="M11050 1086 L13431 1086" stroke="currentColor" stroke-width="13" />
                  <path d="M11050 1266 L13431 1266" stroke="currentColor" stroke-width="13" />
                  <path d="M11050 1446 L13431 1446" stroke="currentColor" stroke-width="13" />
                  <path d="M11050 1626 L13431 1626" stroke="currentColor" stroke-width="13" />
                  <path d="M11050 1806 L13431 1806" stroke="currentColor" stroke-width="13" />
                  <g id="lgw8c1h" class="layer">
                     <g id="bs9yzut" class="beam">
                        <polygon points="11230,2031 12090,2031 12090,1941 11230,1941" />
                        <polygon points="11744,1896 12090,1896 12090,1806 11744,1806" />
                        <g id="n2c92u1" class="note">
                           <g class="notehead">
                              <use xlink:href="#E0A4-g5ujh5" x="11230" y="1446" height="720px" width="720px" />
                           </g>
                           <g id="s1naescq" class="stem">
                              <rect x="11230" y="1474" height="539" width="18" />
                           </g>
                        </g>
                        <g id="n1vs65uz" class="note">
                           <g class="notehead">
                              <use xlink:href="#E0A4-g5ujh5" x="11735" y="1446" height="720px" width="720px" />
                           </g>
                           <g id="szz8xo" class="stem">
                              <rect x="11735" y="1474" height="539" width="18" />
                           </g>
                        </g>
                        <g id="n1qa1na6" class="note">
                           <g class="notehead">
                              <use xlink:href="#E0A4-g5ujh5" x="12072" y="1356" height="720px" width="720px" />
                           </g>
                           <g id="sgjh3ro" class="stem">
                              <rect x="12072" y="1384" height="629" width="18" />
                           </g>
                        </g>
                     </g>
                     <g id="buhqb8o" class="beam">
                        <polygon points="12408,1851 12931,1851 12931,1761 12408,1761" />
                        <g id="n1ihhywr" class="note">
                           <g class="notehead">
                              <use xlink:href="#E0A4-g5ujh5" x="12408" y="1266" height="720px" width="720px" />
                           </g>
                           <g id="s14pgi5" class="stem">
                              <rect x="12408" y="1294" height="539" width="18" />
                           </g>
                        </g>
                        <g id="n1aiq4pg" class="note">
                           <g class="notehead">
                              <use xlink:href="#E0A4-g5ujh5" x="12913" y="1266" height="720px" width="720px" />
                           </g>
                           <g id="stsy9q7" class="stem">
                              <rect x="12913" y="1294" height="539" width="18" />
                           </g>
                        </g>
                     </g>
                  </g>
               </g>
               <g id="b1vnd4sw" class="barLine">
                  <path d="M13418 1086 L13418 1806" stroke="currentColor" stroke-width="27" />
               </g>
            </g>
            <g id="mzdz1wf" class="measure">
               <g id="sy0ddq4" class="staff">
                  <path d="M13431 1086 L15410 1086" stroke="currentColor" stroke-width="13" />
                  <path d="M13431 1266 L15410 1266" stroke="currentColor" stroke-width="13" />
                  <path d="M13431 1446 L15410 1446" stroke="currentColor" stroke-width="13" />
                  <path d="M13431 1626 L15410 1626" stroke="currentColor" stroke-width="13" />
                  <path d="M13431 1806 L15410 1806" stroke="currentColor" stroke-width="13" />
                  <g id="l1ghx3nd" class="layer">
                     <g id="b1bpnvvy" class="beam">
                        <polygon points="13611,1986 14134,2031 14134,1941 13611,1896" />
                        <g id="n1x76ixn" class="note">
                           <g class="notehead">
                              <use xlink:href="#E0A4-g5ujh5" x="13611" y="1356" height="720px" width="720px" />
                           </g>
                           <g id="s1z0gmyt" class="stem">
                              <rect x="13611" y="1384" height="584" width="18" />
                           </g>
                        </g>
                        <g id="n1rpvy2n" class="note">
                           <g class="notehead">
                              <use xlink:href="#E0A4-g5ujh5" x="14116" y="1446" height="720px" width="720px" />
                           </g>
                           <g id="s1qehfgv" class="stem">
                              <rect x="14116" y="1474" height="539" width="18" />
                           </g>
                        </g>
                     </g>
                     <g id="n133bvzq" class="note">
                        <g class="notehead">
                           <use xlink:href="#E0A4-g5ujh5" x="14621" y="1536" height="720px" width="720px" />
                        </g>
                        <g id="s18vkam8" class="stem">
                           <rect x="14829" y="906" height="602" width="18" />
                        </g>
                     </g>
                  </g>
               </g>
               <g id="b18b5bx5" class="barLine">
                  <path d="M15397 1086 L15397 1806" stroke="currentColor" stroke-width="27" />
               </g>
            </g>
            <g id="m18yhnns" class="measure">
               <g id="s1qvbbm9" class="staff">
                  <path d="M15410 1086 L17791 1086" stroke="currentColor" stroke-width="13" />
                  <path d="M15410 1266 L17791 1266" stroke="currentColor" stroke-width="13" />
                  <path d="M15410 1446 L17791 1446" stroke="currentColor" stroke-width="13" />
                  <path d="M15410 1626 L17791 1626" stroke="currentColor" stroke-width="13" />
                  <path d="M15410 1806 L17791 1806" stroke="currentColor" stroke-width="13" />
                  <g id="l32a3sk" class="layer">
                     <g id="b1bm5wjp" class="beam">
                        <polygon points="15590,2031 16450,2031 16450,1941 15590,1941" />
                        <polygon points="16104,1896 16450,1896 16450,1806 16104,1806" />
                        <g id="n1wsmsok" class="note">
                           <g class="notehead">
                              <use xlink:href="#E0A4-g5ujh5" x="15590" y="1446" height="720px" width="720px" />
                           </g>
                           <g id="s1yoid01" class="stem">
                              <rect x="15590" y="1474" height="539" width="18" />
                           </g>
                        </g>
                        <g id="n6a9w28" class="note">
                           <g class="notehead">
                              <use xlink:href="#E0A4-g5ujh5" x="16095" y="1446" height="720px" width="720px" />
                           </g>
                           <g id="ss989rd" class="stem">
                              <rect x="16095" y="1474" height="539" width="18" />
                           </g>
                        </g>
                        <g id="n1jfll6c" class="note">
                           <g class="notehead">
                              <use xlink:href="#E0A4-g5ujh5" x="16432" y="1446" height="720px" width="720px" />
                           </g>
                           <g id="stu5332" class="stem">
                              <rect x="16432" y="1474" height="539" width="18" />
                           </g>
                        </g>
                     </g>
                     <g id="b1u6xvhr" class="beam">
                        <polygon points="16768,1986 17291,2031 17291,1941 16768,1896" />
                        <g id="n1xdt8ua" class="note">
                           <g class="notehead">
                              <use xlink:href="#E0A4-g5ujh5" x="16768" y="1356" height="720px" width="720px" />
                           </g>
                           <g id="s1va0j20" class="stem">
                              <rect x="16768" y="1384" height="584" width="18" />
                           </g>
                        </g>
                        <g id="n9gr84n" class="note">
                           <g class="notehead">
                              <use xlink:href="#E0A4-g5ujh5" x="17273" y="1446" height="720px" width="720px" />
                           </g>
                           <g id="s1sntgt5" class="stem">
                              <rect x="17273" y="1474" height="539" width="18" />
                           </g>
                        </g>
                     </g>
                  </g>
               </g>
               <g id="bctp1ic" class="barLine">
                  <path d="M17778 1086 L17778 1806" stroke="currentColor" stroke-width="27" />
               </g>
            </g>
            <g id="m9xzpne" class="measure">
               <g id="scy28kz" class="staff">
                  <path d="M17791 1086 L20004 1086" stroke="currentColor" stroke-width="13" />
                  <path d="M17791 1266 L20004 1266" stroke="currentColor" stroke-width="13" />
                  <path d="M17791 1446 L20004 1446" stroke="currentColor" stroke-width="13" />
                  <path d="M17791 1626 L20004 1626" stroke="currentColor" stroke-width="13" />
                  <path d="M17791 1806 L20004 1806" stroke="currentColor" stroke-width="13" />
                  <g id="lsa5lld" class="layer">
                     <g id="b112turo" class="beam">
                        <polygon points="18179,861 18702,906 18702,996 18179,951" />
                        <g id="n1h75x9p" class="note">
                           <g class="notehead">
                              <use xlink:href="#E0A4-g5ujh5" x="17971" y="1536" height="720px" width="720px" />
                           </g>
                           <g id="s1h4z41e" class="stem">
                              <rect x="18179" y="879" height="629" width="18" />
                           </g>
                        </g>
                        <g id="n67semg" class="note">
                           <g class="notehead">
                              <use xlink:href="#E0A4-g5ujh5" x="18476" y="1626" height="720px" width="720px" />
                           </g>
                           <g id="ssua5g5" class="stem">
                              <rect x="18684" y="924" height="674" width="18" />
                           </g>
                        </g>
                     </g>
                     <g id="b1xh5orj" class="beam">
                        <polygon points="19189,906 19712,906 19712,996 19189,996" />
                        <g id="na1pi5i" class="note">
                           <g class="notehead">
                              <use xlink:href="#E0A4-g5ujh5" x="18981" y="1536" height="720px" width="720px" />
                           </g>
                           <g id="slc4txm" class="stem">
                              <rect x="19189" y="924" height="584" width="18" />
                           </g>
                        </g>
                        <g id="n1saxwq6" class="note">
                           <g class="notehead">
                              <use xlink:href="#E0A4-g5ujh5" x="19486" y="1536" height="720px" width="720px" />
                           </g>
                           <g id="sl66ycj" class="stem">
                              <rect x="19694" y="924" height="584" width="18" />
                           </g>
                        </g>
                     </g>
                  </g>
               </g>
               <g id="b34q2uy" class="barLine">
                  <path d="M19991 1086 L19991 1806" stroke="currentColor" stroke-width="27" />
               </g>
            </g>
            <g id="s14awol9" class="sb" />
         </g>
         <g id="srzupxb" class="system">
            <g id="lcm3vf2" class="labelAbbr">
               <text x="914" y="3885" text-anchor="end" font-size="0px">
                  <tspan id="t1xt1wwe" class="text">
                     <tspan font-size="405px" class="text">Pno.</tspan>
                  </tspan>
               </text>
            </g>
            <g id="m153ud9s" class="measure">
               <g id="m1x1hzf6" class="mNum autogenerated">
                  <text x="1094" y="3192" text-anchor="middle" font-size="0px">
                     <tspan id="t1f5geja" class="text">
                        <tspan font-size="324px" class="text">9</tspan>
                     </tspan>
                  </text>
               </g>
               <g id="sw7gxnj" class="staff">
                  <path d="M1094 3435 L4124 3435" stroke="currentColor" stroke-width="13" />
                  <path d="M1094 3615 L4124 3615" stroke="currentColor" stroke-width="13" />
                  <path d="M1094 3795 L4124 3795" stroke="currentColor" stroke-width="13" />
                  <path d="M1094 3975 L4124 3975" stroke="currentColor" stroke-width="13" />
                  <path d="M1094 4155 L4124 4155" stroke="currentColor" stroke-width="13" />
                  <g id="c1be8m19" class="clef">
                     <use xlink:href="#E050-g5ujh5" x="1184" y="3975" height="720px" width="720px" />
                  </g>
                  <g id="kjvuyc" class="keySig" />
                  <g id="l681j5i" class="layer">
                     <g id="biy4us5" class="beam">
                        <polygon points="1919,4380 2780,4380 2780,4290 1919,4290" />
                        <polygon points="2434,4245 2780,4245 2780,4155 2434,4155" />
                        <g id="n1kfw8nz" class="note">
                           <g class="notehead">
                              <use xlink:href="#E0A4-g5ujh5" x="1919" y="3795" height="720px" width="720px" />
                           </g>
                           <g id="s11y3u8l" class="stem">
                              <rect x="1919" y="3823" height="539" width="18" />
                           </g>
                        </g>
                        <g id="n1rxlm2y" class="note">
                           <g class="notehead">
                              <use xlink:href="#E0A4-g5ujh5" x="2425" y="3795" height="720px" width="720px" />
                           </g>
                           <g id="svdvt3r" class="stem">
                              <rect x="2425" y="3823" height="539" width="18" />
                           </g>
                        </g>
                        <g id="n1u31b4e" class="note">
                           <g class="notehead">
                              <use xlink:href="#E0A4-g5ujh5" x="2762" y="3795" height="720px" width="720px" />
                           </g>
                           <g id="s10hljjb" class="stem">
                              <rect x="2762" y="3823" height="539" width="18" />
                           </g>
                        </g>
                     </g>
                     <g id="b8menrx" class="beam">
                        <polygon points="3099,4335 3623,4380 3623,4290 3099,4245" />
                        <g id="n1gvl9sg" class="note">
                           <g class="notehead">
                              <use xlink:href="#E0A4-g5ujh5" x="3099" y="3615" height="720px" width="720px" />
                           </g>
                           <g id="s1lqlhh0" class="stem">
                              <rect x="3099" y="3643" height="674" width="18" />
                           </g>
                        </g>
                        <g id="nnp5nuf" class="note">
                           <g class="notehead">
                              <use xlink:href="#E0A4-g5ujh5" x="3605" y="3705" height="720px" width="720px" />
                           </g>
                           <g id="s1ma2m8d" class="stem">
                              <rect x="3605" y="3733" height="629" width="18" />
                           </g>
                        </g>
                     </g>
                  </g>
               </g>
               <g id="b1gggj4d" class="barLine">
                  <path d="M4111 3435 L4111 4155" stroke="currentColor" stroke-width="27" />
               </g>
            </g>
            <g id="m1iqabdi" class="measure">
               <g id="ssl93sc" class="staff">
                  <path d="M4124 3435 L6268 3435" stroke="currentColor" stroke-width="13" />
                  <path d="M4124 3615 L6268 3615" stroke="currentColor" stroke-width="13" />
                  <path d="M4124 3795 L6268 3795" stroke="currentColor" stroke-width="13" />
                  <path d="M4124 3975 L6268 3975" stroke="currentColor" stroke-width="13" />
                  <path d="M4124 4155 L6268 4155" stroke="currentColor" stroke-width="13" />
                  <g id="lzea8ph" class="layer">
                     <g id="b138c3ow" class="beam">
                        <polygon points="4512,3210 5036,3255 5036,3345 4512,3300" />
                        <g id="n18ay9a0" class="note">
                           <g class="notehead">
                              <use xlink:href="#E0A4-g5ujh5" x="4304" y="3795" height="720px" width="720px" />
                           </g>
                           <g id="s1kdo4lh" class="stem">
                              <rect x="4512" y="3228" height="539" width="18" />
                           </g>
                        </g>
                        <g id="n14l2xgj" class="note">
                           <g class="notehead">
                              <use xlink:href="#E0A4-g5ujh5" x="4810" y="3885" height="720px" width="720px" />
                           </g>
                           <g id="scu16nx" class="stem">
                              <rect x="5018" y="3273" height="584" width="18" />
                           </g>
                        </g>
                     </g>
                     <g id="n1cqtb4m" class="note">
                        <g class="notehead">
                           <use xlink:href="#E0A4-g5ujh5" x="5316" y="3975" height="720px" width="720px" />
                        </g>
                        <g id="s5k5rgv" class="stem">
                           <rect x="5524" y="3345" height="602" width="18" />
                        </g>
                     </g>
                  </g>
               </g>
               <g id="bgbzmab" class="barLine">
                  <path d="M6093 3435 L6093 4155" stroke="currentColor" stroke-width="27" />
                  <path d="M6223 3435 L6223 4155" stroke="currentColor" stroke-width="90" />
               </g>
            </g>
            <g id="suhdm5f" class="systemMilestoneEnd sky7w8y" />
         </g>
         <g id="p1aiymup" class="pageMilestoneEnd s1qlmw3b" />
         <g id="proz76m" class="pageMilestoneEnd mmzrhc4" />
         <g id="p1dba9of" class="pgHead">
            <text x="0" y="0" font-size="0px">
               <tspan id="rg60hu3" class="rend" x="10000" y="278" text-anchor="middle">
                  <tspan id="t164kd32" class="text">
                     <tspan font-size="405px" class="text">Air n 66</tspan>
                  </tspan>
               </tspan>
            </text>
         </g>
         <g id="p12n4z7n" class="pgFoot autogenerated">
            <g id="f15p1r6l" class="fig">
               <g id="s1j6mnnf" class="svg" transform="translate(7750, 28099) scale(10, 10)">
                  <g>
                     <path fill="#00000" d="M 17.11278,49.26451 V 10.367554 h 12.696511 c 3.288815,7.336676 6.71267,14.610456 10.127281,21.888976 3.419998,-7.484684 6.255515,-14.204887 9.58887,-21.909915 2.436207,0.103726 4.316952,0.08453 6.484294,-0.05808 V 49.264423 H 50.274275 C 50.145222,38.35639 50.016136,27.448368 49.887066,16.540329 45.003488,27.315459 39.967448,38.433564 35.083854,49.208695 34.678996,49.343717 34.426583,49.135619 34.021726,49.270644 29.46588,39.330716 24.910049,29.390805 20.354201,19.450876 20.224341,29.388756 20.09461,39.326619 19.964815,49.264497 H 17.11278 Z M 36.754144,39.324695 C 32.721221,30.512695 28.6883,21.700679 24.655394,12.888662 22.530527,12.750737 22.656775,12.71031 20.714356,12.813974 v 0.966497 c 4.612938,9.99784 9.609439,20.748709 13.87298,30.081745 0.722248,-1.512523 1.444528,-3.025014 2.166808,-4.537521 z m 25.738417,9.939815 c 0,-12.965651 0,-25.931305 0,-38.896956 10.084388,0 20.168791,0 30.253178,0 0,0.960416 0,1.920849 0,2.881265 -6.482825,0 -12.965652,0 -19.448478,0 0,4.802097 0,9.604178 0,14.406277 5.52241,0 11.044819,0 16.567229,0 0,0.960415 0,1.920832 0,2.881248 -5.52241,0 -11.044819,0 -16.567229,0 0,5.282306 0,10.564611 0,15.846917 6.963035,0 13.926068,0 20.889103,0 0,0.960416 0,1.920832 0,2.881249 -10.564597,0 -21.129207,0 -31.693803,0 z m 4.321874,-2.160937 c 0,-11.765131 0,-23.530263 0,-35.295394 -0.720312,0 -1.440625,0 -2.160937,0 0,11.765131 0,23.530263 0,35.295394 0.720312,0 1.440625,0 2.160937,0 z m 32.41413,2.160937 c 0,-12.965651 0,-25.931305 0,-38.896956 2.401045,0 4.802095,0 7.203135,0 0,12.965651 0,25.931305 0,38.896956 -2.40104,0 -4.80209,0 -7.203135,0 z m 2.881265,-2.160937 c 0,-11.765131 0,-23.530263 0,-35.295394 -0.72031,0 -1.44064,0 -2.160953,0 0,11.765131 0,23.530263 0,35.295394 0.720313,0 1.440643,0 2.160953,0 z" />
                     <path fill="#00000" d="m 346.3,6.7 c -3.1,0.5 -4.9,4.4 -2.7,6.8 1.2,1.4 2.7,2.4 4.1,3.5 -2.4,5.3 -7.7,8.3 -11.9,12.1 -3.7,2.8 -7,6.2 -9.7,9.9 -2.2,-0.8 -0.3,-6.8 -0.6,-9.5 0.1,-3.1 0.7,-6.4 2.9,-8.7 1.3,-1.9 3,-3.5 4.5,-5.2 1.2,-3.4 -3.2,-4.9 -5.8,-4.6 -7.3,-0.5 -14.6,2 -20,6.8 -5,4.6 -10,10.1 -11.5,17 -0.9,3.5 -0.2,7.5 2.8,9.9 2.5,2.8 7.4,2.9 9.8,-0.2 1.7,-2.3 3.2,-4.8 3.8,-7.6 -0.1,-2.6 -4.4,-2.3 -4.3,0.2 1.2,2.4 -0.9,4.7 -2.7,6.2 -1.7,0.9 -4.7,0.7 -4.8,-1.7 -1,-5.8 2.1,-11.3 5.2,-16.1 4,-5.8 9.8,-11.2 17.2,-11.8 1.6,0 8.1,-1.2 6.8,1.4 -2.8,2.8 -5.6,6.1 -6,10.3 -1.6,7.7 0.1,15.7 -2.3,23.2 -1.1,3.9 2,2.6 2.5,0.2 3.3,-7.4 8.9,-13.4 15.1,-18.5 4.2,-3.9 9.5,-7.1 11.9,-12.6 1.3,-3.6 1.2,-9 -2.7,-10.9 -0.6,-0.2 -1.2,-0.3 -1.8,-0.3 z m 66,14.5 c -2,0.8 -1.8,4.9 0.8,4.4 3.4,0.4 2.9,-6.2 -0.8,-4.4 z m 0.6,7.3 c -1.3,0.5 -7.6,0.5 -5.4,2.2 4,-0.3 0.7,4.5 0.6,6.7 -0.4,2.9 -2.4,5.9 -1.2,8.8 2.7,1.7 5.6,-0.8 6.8,-3.2 1.6,-1.4 -0.5,-3 -1.2,-0.9 -0.4,0.8 -2.4,3.5 -2.6,1.8 1.1,-5 2.7,-9.9 3.9,-14.9 l -0.1,-0.5 h -0.9 z m -65.1,0.2 c -6.5,1.6 -10.5,9.5 -8.2,15.7 2.1,3.4 7.4,2.9 10.1,0.4 2,-0.2 3.6,-5.3 1,-3.4 -1.4,2 -4,4.2 -6.5,2.8 -2.2,-1.9 -1.9,-5.7 1.7,-5.3 3.1,-0.9 6.9,-2.1 8.1,-5.5 0.9,-2.7 -1.6,-5.2 -4.3,-4.8 h -1.1 -0.7 z m 13.6,0 c -2.2,0 -8.5,1.8 -2.9,2.3 0.9,1.9 -1,4.9 -1.1,7.2 -0.5,2.9 -1.4,5.7 -1.7,8.7 3.7,0.7 3.8,-2.6 4.4,-5.3 0.9,-3.3 1.6,-7 4.1,-9.5 2.4,1.6 6.8,-0.7 3.7,-3.4 -2.9,-0.5 -4.8,2.4 -6.2,4.3 0,-1.2 2.4,-5 -0.2,-4.3 z m 15.8,0 c -6.4,1.3 -9.6,9.1 -7.7,14.9 1.9,4 7.7,3.9 11,1.7 4.1,-3 6,-8.9 4.4,-13.7 -1.3,-3 -4.8,-3.2 -7.6,-3 z m 17,0 c -2.3,0 -8.8,1.9 -3,2.4 0.4,2.5 -1,5.7 -1.4,8.4 -0.7,2.4 -1.8,7.5 2.1,7.2 3.8,-0.1 6.5,-3.5 8.5,-6.3 2,-3.2 4.5,-7 3.3,-10.9 -3.7,-3 -3.6,2.6 -3.1,5.1 -0.7,3.8 -2.7,7.9 -6.2,9.8 -3.6,0.6 -1,-4.3 -0.8,-6.1 0.6,-3.2 1.6,-6.3 1.9,-9.5 -0.4,0 -0.8,0 -1.1,0 z m 30.6,0 c -6.3,1.2 -9.5,8.9 -7.8,14.7 1.5,4 7.2,4.2 10.5,2.4 4.6,-2.8 6.6,-9.3 4.8,-14.3 -1.4,-2.8 -4.8,-3 -7.5,-2.8 z m -75.4,1.7 c 2.1,1.5 0.2,4.7 -1.6,5.7 -1.1,0.4 -5.5,3.4 -4.6,0.7 0.8,-2.7 2.2,-6.2 5.3,-6.6 l 0.9,0.1 z m 30.8,0 c 2.6,1.5 1.3,5.2 0.8,7.6 -0.8,2.7 -1.9,5.9 -4.7,7.1 -5.1,0.8 -4,-5.8 -2.8,-8.8 1,-2.8 3,-6.8 6.7,-5.8 z m 47.1,-0.1 c 2.9,0.7 2,4.7 1.5,6.8 -0.7,3 -1.8,6.7 -5,8 -4.7,0.8 -4,-5.1 -3,-7.9 0.9,-3 2.7,-7.3 6.5,-6.8 z m -88.1,5.9 c -0.3,1.3 0.9,-0.6 0,0 z m -1.1,2.4 c -0.2,0.5 0.5,-0.1 0,0 z m -1.3,4.5 c -0.3,1.3 0.8,-0.2 0,0 z" />
                     <text y="41" x="201" fill="#00000" style="font-style:italic;font-weight:normal;font-size:30px;line-height:125%;font-family:Times;text-anchor:middle" xml:space="preserve">engraved with</text>
                  </g>
               </g>
            </g>
         </g>
      </g>
   </svg>
</svg>
