<?xml version="1.0" encoding="UTF-8" standalone="no"?>
<svg width="2100px" height="2970px" version="1.1" xmlns="http://www.w3.org/2000/svg" xmlns:xlink="http://www.w3.org/1999/xlink" xmlns:mei="http://www.music-encoding.org/ns/mei" overflow="visible">
   <desc>Engraved by Verovio 3.13.1</desc>
   <defs>
      <symbol id="E56D-1q0gnkl" viewBox="0 0 1000 1000" overflow="inherit">
         <path transform="scale(1,-1)" d="M0 21v59l121 143c4 4 8 7 11 9s7 3 11 4c5 0 13 -6 25 -17l107 -94v184h30v-159l58 69c11 13 19 20 23 20l24 -16l84 -75l31 -25c3 1 7 5 13 12l14 15l34 44v-55l-106 -125c-8 -11 -16 -16 -23 -16c-3 1 -5 3 -7 4c-6 4 -12 9 -18 14l-78 70c-14 14 -25 21 -34 21l-5 -2 l-5 -5l-5 -6v-184h-30v149l-36 -45c-10 -11 -18 -16 -24 -16l-7 2l-10 8l-10 8l-88 80c-7 7 -14 11 -20 13c-3 0 -9 -4 -17 -13z" />
      </symbol>
      <symbol id="E044-1q0gnkl" viewBox="0 0 1000 1000" overflow="inherit">
         <path transform="scale(1,-1)" d="M0 0c0 28 22 50 50 50s50 -22 50 -50s-22 -50 -50 -50s-50 22 -50 50z" />
      </symbol>
      <symbol id="E050-1q0gnkl" viewBox="0 0 1000 1000" overflow="inherit">
         <path transform="scale(1,-1)" d="M441 -245c-23 -4 -48 -6 -76 -6c-59 0 -102 7 -130 20c-88 42 -150 93 -187 154c-26 44 -43 103 -48 176c0 6 -1 13 -1 19c0 54 15 111 45 170c29 57 65 106 110 148s96 85 153 127c-3 16 -8 46 -13 92c-4 43 -5 73 -5 89c0 117 16 172 69 257c34 54 64 82 89 82 c21 0 43 -30 69 -92s39 -115 41 -159v-15c0 -109 -21 -162 -67 -241c-13 -20 -63 -90 -98 -118c-13 -9 -25 -19 -37 -29l31 -181c8 1 18 2 28 2c58 0 102 -12 133 -35c59 -43 92 -104 98 -184c1 -7 1 -15 1 -22c0 -123 -87 -209 -181 -248c8 -57 17 -110 25 -162 c5 -31 6 -58 6 -80c0 -30 -5 -53 -14 -70c-35 -64 -88 -99 -158 -103c-5 0 -11 -1 -16 -1c-37 0 -72 10 -108 27c-50 24 -77 59 -80 105v11c0 29 7 55 20 76c18 28 45 42 79 44h6c49 0 93 -42 97 -87v-9c0 -51 -34 -86 -105 -106c17 -24 51 -36 102 -36c62 0 116 43 140 85 c9 16 13 41 13 74c0 20 -1 42 -5 67c-8 53 -18 106 -26 159zM461 939c-95 0 -135 -175 -135 -286c0 -24 2 -48 5 -71c50 39 92 82 127 128c40 53 60 100 60 140v8c-4 53 -22 81 -55 81h-2zM406 119l54 -326c73 25 110 78 110 161c0 7 0 15 -1 23c-7 95 -57 142 -151 142h-12 zM382 117c-72 -2 -128 -47 -128 -120v-7c2 -46 43 -99 75 -115c-3 -2 -7 -5 -10 -10c-70 33 -116 88 -123 172v11c0 68 44 126 88 159c23 17 49 29 78 36l-29 170c-21 -13 -52 -37 -92 -73c-50 -44 -86 -84 -109 -119c-45 -69 -67 -130 -67 -182v-13c5 -68 35 -127 93 -176 s125 -73 203 -73c25 0 50 3 75 9c-19 111 -36 221 -54 331z" />
      </symbol>
      <symbol id="E083-1q0gnkl" viewBox="0 0 1000 1000" overflow="inherit">
         <path transform="scale(1,-1)" d="M208 250c97 0 177 -52 177 -116c0 -69 -40 -111 -118 -125c56 -5 125 -44 125 -116c0 -31 -10 -57 -31 -78c-19 -21 -45 -38 -78 -49l-50 -11c-15 -3 -36 -7 -55 -7c-50 0 -86 16 -113 38c-16 10 -23 18 -34 34c-7 13 -11 25 -11 38c0 43 27 83 68 83l3 -2 c61 0 75 -42 75 -70c0 -19 -24 -42 -26 -57c7 -17 20 -25 37 -25c44 0 94 29 94 78c0 75 -34 125 -138 125v36c84 0 131 22 131 98c0 54 -37 88 -87 88c-26 0 -43 -7 -51 -22c15 -22 44 -16 44 -70c0 -37 -37 -62 -71 -62c-22 0 -69 15 -69 76c0 79 101 116 178 116z" />
      </symbol>
      <symbol id="E086-1q0gnkl" viewBox="0 0 1000 1000" overflow="inherit">
         <path transform="scale(1,-1)" d="M284 -91c0 37 -28 92 -67 92c-35 0 -65 -54 -65 -111c0 -52 22 -104 68 -104c47 0 64 68 64 123zM230 214c-36 0 -90 -33 -90 -184l2 -36c40 24 81 36 120 36c80 0 140 -48 140 -121c0 -99 -99 -159 -182 -159c-160 0 -200 173 -200 244c0 21 2 43 7 71l10 35 c26 85 73 115 98 126c41 19 74 24 103 24c93 0 142 -63 142 -105c0 -58 -52 -72 -73 -72c-33 0 -59 24 -65 35c-3 5 -6 14 -7 25l11 30c6 15 9 27 9 35c0 11 -9 16 -25 16z" />
      </symbol>
      <symbol id="E088-1q0gnkl" viewBox="0 0 1000 1000" overflow="inherit">
         <path transform="scale(1,-1)" d="M195 -214c76 0 88 58 90 68c0 34 -35 60 -57 73l-52 29c-21 10 -32 17 -34 20c-39 -33 -58 -54 -62 -92c5 -23 23 -98 115 -98zM301 135c0 61 -72 76 -113 76c-40 0 -77 -17 -77 -51c3 -21 15 -38 26 -50c17 -15 33 -26 48 -34l65 -28c34 27 51 56 51 87zM176 -250 c-57 0 -166 26 -166 132c0 47 30 86 89 116c-33 15 -79 60 -79 119c0 79 85 132 178 132h18c5 0 21 1 28 -1c25 0 126 -30 126 -110c0 -37 -23 -76 -69 -116c43 -25 83 -71 83 -119c0 -101 -118 -153 -208 -153z" />
      </symbol>
      <symbol id="E0A4-1q0gnkl" viewBox="0 0 1000 1000" overflow="inherit">
         <path transform="scale(1,-1)" d="M0 -39c0 68 73 172 200 172c66 0 114 -37 114 -95c0 -84 -106 -171 -218 -171c-64 0 -96 30 -96 94z" />
      </symbol>
      <symbol id="E240-1q0gnkl" viewBox="0 0 1000 1000" overflow="inherit">
         <path transform="scale(1,-1)" d="M179 -646c15 29 29 55 46 102c18 49 30 108 30 138c0 105 -80 173 -168 200c-18 5 -47 9 -87 16v190h22c8 0 33 -61 71 -95c4 -3 -2 3 61 -56c62 -58 122 -137 122 -241c0 -38 -13 -106 -35 -163c-20 -51 -43 -99 -66 -132c-6 -5 -10 -7 -13 -7s-5 2 -5 5l4 10 c1 3 14 25 18 33z" />
      </symbol>
      <symbol id="E241-1q0gnkl" viewBox="0 0 1000 1000" overflow="inherit">
         <path transform="scale(1,-1)" d="M179 646c-4 8 -17 30 -18 33l-4 10c0 3 2 5 5 5s7 -2 13 -7c23 -33 46 -81 66 -132c22 -57 35 -125 35 -163c0 -104 -60 -183 -122 -241c-63 -59 -57 -53 -61 -56c-38 -34 -63 -95 -71 -95h-22v190c40 7 69 11 87 16c88 27 168 95 168 200c0 30 -12 89 -30 138 c-17 47 -31 73 -46 102z" />
      </symbol>
      <symbol id="E262-1q0gnkl" viewBox="0 0 1000 1000" overflow="inherit">
         <path transform="scale(1,-1)" d="M136 186v169h17v-164l44 14v-91l-44 -14v-165l44 12v-91l-44 -13v-155h-17v150l-76 -22v-155h-17v149l-43 -13v90l43 14v167l-43 -14v92l43 13v169h17v-163zM60 73v-167l76 22v168z" />
      </symbol>
      <symbol id="E4E5-1q0gnkl" viewBox="0 0 1000 1000" overflow="inherit">
         <path transform="scale(1,-1)" d="M107 292c-13 24 -30 49 -52 71c-1 1 0 2 0 3l-2 2c3 3 4 4 6 4c12 0 26 -7 40 -20s44 -40 89 -81c26 -24 28 -29 46 -47c4 -4 8 -9 10 -14c6 -8 8 -16 8 -27c0 -19 -12 -40 -36 -61c-28 -23 -49 -38 -61 -73c-4 -11 -7 -27 -10 -50c13 -43 34 -83 59 -121 c31 -47 59 -79 101 -129c-8 0 -26 7 -54 20l-62 29l-21 6l-23 1c-25 0 -45 -10 -60 -30l-4 -14l-1 -12c0 -33 20 -56 39 -78c8 -9 17 -18 26 -26c17 -15 27 -24 28 -30l-3 -3c-11 5 -19 10 -25 15c-9 3 -37 21 -45 26c-24 14 -45 32 -63 51c-19 21 -37 44 -37 71 c0 63 27 95 80 95c41 0 86 -18 136 -52c-19 26 -37 48 -55 66c-23 23 -48 44 -73 65c-28 23 -47 40 -58 53s-17 26 -18 39c75 64 113 125 113 183c0 27 -7 48 -18 68z" />
      </symbol>
      <symbol id="E4E6-1q0gnkl" viewBox="0 0 1000 1000" overflow="inherit">
         <path transform="scale(1,-1)" d="M0 123c7 34 33 56 69 60c29 -3 43 -9 53 -29c4 -8 7 -15 10 -22c0 -21 -1 -25 -11 -35c-5 -8 -18 -14 -40 -20l12 -3l15 -1c44 0 97 26 122 56c10 11 18 26 24 42c7 1 15 2 22 3l-140 -424h-36l111 330c-10 -6 -27 -12 -53 -16l-52 -8h-10l-20 1c-1 0 -8 3 -21 6 c-37 9 -55 28 -55 60z" />
      </symbol>
   </defs>
   <style type="text/css">g.page-margin{font-family:Times;} g.ending, g.fing, g.reh, g.tempo{font-weight:bold;} g.dir, g.dynam, g.mNum{font-style:italic;} g.label{font-weight:normal;}</style>
   <svg class="definition-scale" color="black" viewBox="0 0 21000 29700">
      <g class="page-margin" transform="translate(500, 500)">
         <g id="maxa9wv" class="mdiv pageMilestone" />
         <g id="s1q3xs31" class="score pageMilestone" />
         <g id="s1iasuom" class="system">
            <g id="lkp9zrk" class="label">
               <text x="1105" y="1535" text-anchor="end" font-size="0px">
                  <tspan id="t1p868z5" class="text">
                     <tspan font-size="405px" class="text">Piano</tspan>
                  </tspan>
               </text>
            </g>
            <g id="sbi91no" class="section systemMilestone" />
            <g id="p6eboib" class="pb" />
            <g id="m1p60mdg" class="measure">
               <g id="mavlkk0" class="mNum">
                  <text x="1285" y="842" text-anchor="middle" font-size="0px" />
               </g>
               <g id="s1imqo0z" class="staff">
                  <path d="M1285 1085 L4787 1085" stroke="currentColor" stroke-width="13" />
                  <path d="M1285 1265 L4787 1265" stroke="currentColor" stroke-width="13" />
                  <path d="M1285 1445 L4787 1445" stroke="currentColor" stroke-width="13" />
                  <path d="M1285 1625 L4787 1625" stroke="currentColor" stroke-width="13" />
                  <path d="M1285 1805 L4787 1805" stroke="currentColor" stroke-width="13" />
                  <g id="c1yre8at" class="clef">
                     <use xlink:href="#E050-1q0gnkl" x="1375" y="1625" height="720px" width="720px" />
                  </g>
                  <g id="k8324bo" class="keySig">
                     <g id="kywsb08" class="keyAccid">
                        <use xlink:href="#E262-1q0gnkl" x="2020" y="1085" height="720px" width="720px" />
                     </g>
                  </g>
                  <g id="m1vxpsfw" class="meterSig">
                     <use xlink:href="#E086-1q0gnkl" x="2327" y="1265" height="720px" width="720px" />
                     <use xlink:href="#E088-1q0gnkl" x="2334" y="1625" height="720px" width="720px" />
                  </g>
                  <g id="l1n69h20" class="layer">
                     <g id="b1tnwu4m" class="beam">
                        <polygon points="3092,1040 4370,1040 4370,1130 3092,1130" />
                        <g id="n2q1vu9" class="note">
                           <g class="notehead">
                              <use xlink:href="#E0A4-1q0gnkl" x="2884" y="1625" height="720px" width="720px" />
                           </g>
                           <g id="s1pt0eye" class="stem">
                              <rect x="3092" y="1058" height="539" width="18" />
                           </g>
                        </g>
                        <g id="n1dzt8p3" class="note">
                           <g class="notehead">
                              <use xlink:href="#E0A4-1q0gnkl" x="3514" y="1715" height="720px" width="720px" />
                           </g>
                           <g id="syfvvlp" class="stem">
                              <rect x="3722" y="1058" height="629" width="18" />
                           </g>
                           <g id="a128u12q" class="accid" />
                        </g>
                        <g id="n1pwsvn6" class="note">
                           <g class="notehead">
                              <use xlink:href="#E0A4-1q0gnkl" x="4144" y="1625" height="720px" width="720px" />
                           </g>
                           <g id="s1gmg8f3" class="stem">
                              <rect x="4352" y="1058" height="539" width="18" />
                           </g>
                        </g>
                     </g>
                  </g>
               </g>
               <g id="b1f25oza" class="barLine">
                  <path d="M4774 1085 L4774 1805" stroke="currentColor" stroke-width="27" />
               </g>
            </g>
            <g id="m10c3454" class="measure">
               <g id="s815ood" class="staff">
                  <path d="M4787 1085 L8169 1085" stroke="currentColor" stroke-width="13" />
                  <path d="M4787 1265 L8169 1265" stroke="currentColor" stroke-width="13" />
                  <path d="M4787 1445 L8169 1445" stroke="currentColor" stroke-width="13" />
                  <path d="M4787 1625 L8169 1625" stroke="currentColor" stroke-width="13" />
                  <path d="M4787 1805 L8169 1805" stroke="currentColor" stroke-width="13" />
                  <g id="ly31nji" class="layer">
                     <g id="n1jjlzmm" class="note">
                        <g class="notehead">
                           <use xlink:href="#E0A4-1q0gnkl" x="4965" y="1535" height="720px" width="720px" />
                        </g>
                        <g id="s134q0sr" class="stem">
                           <rect x="5173" y="905" height="602" width="18" />
                        </g>
                     </g>
                     <g id="nyocdfq" class="note">
                        <g class="notehead">
                           <use xlink:href="#E0A4-1q0gnkl" x="5930" y="1265" height="720px" width="720px" />
                        </g>
                        <g id="sjo6mue" class="stem">
                           <rect x="5930" y="1293" height="602" width="18" />
                           <g id="faw8trm" class="flag">
                              <use xlink:href="#E241-1q0gnkl" x="5930" y="1895" height="720px" width="720px" />
                           </g>
                        </g>
                     </g>
                     <g id="n19f2r6m" class="note">
                        <g class="notehead">
                           <use xlink:href="#E0A4-1q0gnkl" x="6560" y="1265" height="720px" width="720px" />
                        </g>
                        <g id="saqj7up" class="stem">
                           <rect x="6560" y="1293" height="602" width="18" />
                        </g>
                     </g>
                     <g id="n17gl4ia" class="note">
                        <g class="notehead">
                           <use xlink:href="#E0A4-1q0gnkl" x="7526" y="1625" height="720px" width="720px" />
                        </g>
                        <g id="s1u8e3gk" class="stem">
                           <rect x="7734" y="995" height="602" width="18" />
                           <g id="frqrmft" class="flag">
                              <use xlink:href="#E240-1q0gnkl" x="7734" y="995" height="720px" width="720px" />
                           </g>
                        </g>
                     </g>
                  </g>
               </g>
               <g id="b1y6slaw" class="barLine">
                  <path d="M8156 1085 L8156 1805" stroke="currentColor" stroke-width="27" />
               </g>
            </g>
            <g id="mui8cnf" class="measure">
               <g id="s1mdlms2" class="staff">
                  <path d="M8169 1085 L11846 1085" stroke="currentColor" stroke-width="13" />
                  <path d="M8169 1265 L11846 1265" stroke="currentColor" stroke-width="13" />
                  <path d="M8169 1445 L11846 1445" stroke="currentColor" stroke-width="13" />
                  <path d="M8169 1625 L11846 1625" stroke="currentColor" stroke-width="13" />
                  <path d="M8169 1805 L11846 1805" stroke="currentColor" stroke-width="13" />
                  <g id="lbv61bb" class="layer">
                     <g id="n1rrhyg3" class="note">
                        <g class="notehead">
                           <use xlink:href="#E0A4-1q0gnkl" x="8347" y="1535" height="720px" width="720px" />
                        </g>
                        <g id="s12qpcq6" class="stem">
                           <rect x="8555" y="905" height="602" width="18" />
                        </g>
                     </g>
                     <g id="nim0ika" class="note">
                        <g class="notehead">
                           <use xlink:href="#E0A4-1q0gnkl" x="9312" y="1535" height="720px" width="720px" />
                        </g>
                        <g id="s1cztwk7" class="stem">
                           <rect x="9520" y="905" height="602" width="18" />
                           <g id="f1drtx7a" class="flag">
                              <use xlink:href="#E240-1q0gnkl" x="9520" y="905" height="720px" width="720px" />
                           </g>
                        </g>
                     </g>
                     <g id="b5v6ubj" class="beam">
                        <polygon points="10150,1040 11429,1040 11429,1130 10150,1130" />
                        <g id="n583amo" class="note">
                           <g class="notehead">
                              <use xlink:href="#E0A4-1q0gnkl" x="9942" y="1625" height="720px" width="720px" />
                           </g>
                           <g id="s1gpv2jo" class="stem">
                              <rect x="10150" y="1058" height="539" width="18" />
                           </g>
                        </g>
                        <g id="n1dhej3" class="note">
                           <g class="notehead">
                              <use xlink:href="#E0A4-1q0gnkl" x="10573" y="1715" height="720px" width="720px" />
                           </g>
                           <g id="sgvcphh" class="stem">
                              <rect x="10781" y="1058" height="629" width="18" />
                           </g>
                           <g id="a1teqz0b" class="accid" />
                        </g>
                        <g id="np9yzh0" class="note">
                           <g class="notehead">
                              <use xlink:href="#E0A4-1q0gnkl" x="11203" y="1625" height="720px" width="720px" />
                           </g>
                           <g id="s1jbntac" class="stem">
                              <rect x="11411" y="1058" height="539" width="18" />
                           </g>
                        </g>
                     </g>
                  </g>
               </g>
               <g id="blmhgje" class="barLine">
                  <path d="M11833 1085 L11833 1805" stroke="currentColor" stroke-width="27" />
               </g>
            </g>
            <g id="mnlxg" class="measure">
               <g id="syo2cas" class="staff">
                  <path d="M11846 1085 L15228 1085" stroke="currentColor" stroke-width="13" />
                  <path d="M11846 1265 L15228 1265" stroke="currentColor" stroke-width="13" />
                  <path d="M11846 1445 L15228 1445" stroke="currentColor" stroke-width="13" />
                  <path d="M11846 1625 L15228 1625" stroke="currentColor" stroke-width="13" />
                  <path d="M11846 1805 L15228 1805" stroke="currentColor" stroke-width="13" />
                  <g id="l2evdrt" class="layer">
                     <g id="n1femjvz" class="note">
                        <g class="notehead">
                           <use xlink:href="#E0A4-1q0gnkl" x="12024" y="1535" height="720px" width="720px" />
                        </g>
                        <g id="sqnowo0" class="stem">
                           <rect x="12232" y="905" height="602" width="18" />
                        </g>
                     </g>
                     <g id="ne9956c" class="note">
                        <g class="notehead">
                           <use xlink:href="#E0A4-1q0gnkl" x="12989" y="1265" height="720px" width="720px" />
                        </g>
                        <g id="s1p321tf" class="stem">
                           <rect x="12989" y="1293" height="602" width="18" />
                           <g id="flijwjt" class="flag">
                              <use xlink:href="#E241-1q0gnkl" x="12989" y="1895" height="720px" width="720px" />
                           </g>
                        </g>
                     </g>
                     <g id="n1mpw16h" class="note">
                        <g class="notehead">
                           <use xlink:href="#E0A4-1q0gnkl" x="13619" y="1265" height="720px" width="720px" />
                        </g>
                        <g id="svir1wp" class="stem">
                           <rect x="13619" y="1293" height="602" width="18" />
                        </g>
                     </g>
                     <g id="n1j9tqwr" class="note">
                        <g class="notehead">
                           <use xlink:href="#E0A4-1q0gnkl" x="14585" y="1625" height="720px" width="720px" />
                        </g>
                        <g id="sr2uzat" class="stem">
                           <rect x="14793" y="995" height="602" width="18" />
                           <g id="fkslbit" class="flag">
                              <use xlink:href="#E240-1q0gnkl" x="14793" y="995" height="720px" width="720px" />
                           </g>
                        </g>
                     </g>
                  </g>
               </g>
               <g id="b17mtbey" class="barLine">
                  <path d="M15215 1085 L15215 1805" stroke="currentColor" stroke-width="27" />
               </g>
            </g>
            <g id="m7lw6ia" class="measure">
               <g id="s11doizs" class="staff">
                  <path d="M15228 1085 L17467 1085" stroke="currentColor" stroke-width="13" />
                  <path d="M15228 1265 L17467 1265" stroke="currentColor" stroke-width="13" />
                  <path d="M15228 1445 L17467 1445" stroke="currentColor" stroke-width="13" />
                  <path d="M15228 1625 L17467 1625" stroke="currentColor" stroke-width="13" />
                  <path d="M15228 1805 L17467 1805" stroke="currentColor" stroke-width="13" />
                  <g id="m1pt86tv" class="meterSig">
                     <use xlink:href="#E083-1q0gnkl" x="15308" y="1265" height="720px" width="720px" />
                     <use xlink:href="#E088-1q0gnkl" x="15311" y="1625" height="720px" width="720px" />
                  </g>
                  <g id="lxy3egn" class="layer">
                     <g id="n1m7rm0j" class="note">
                        <g class="notehead">
                           <use xlink:href="#E0A4-1q0gnkl" x="15857" y="1535" height="720px" width="720px" />
                        </g>
                        <g id="d40ezkh" class="dots">
                           <ellipse cx="16173" cy="1535" rx="36" ry="36" />
                        </g>
                        <g id="s27c6xf" class="stem">
                           <rect x="16065" y="905" height="602" width="18" />
                        </g>
                     </g>
                  </g>
               </g>
               <g id="m1c6npnp" class="mordent">
                  <use xlink:href="#E56D-1q0gnkl" x="15759" y="796" height="720px" width="720px" />
               </g>
               <g id="b1h5eywh" class="barLine">
                  <path d="M17089 1085 L17089 1805" stroke="currentColor" stroke-width="27" />
                  <path d="M17219 1085 L17219 1805" stroke="currentColor" stroke-width="90" />
                  <path d="M17350 1085 L17350 1805" stroke="currentColor" stroke-width="27" />
                  <use xlink:href="#E044-1q0gnkl" x="17395" y="1355" height="720px" width="720px" />
                  <use xlink:href="#E044-1q0gnkl" x="17395" y="1535" height="720px" width="720px" />
                  <use xlink:href="#E044-1q0gnkl" x="16972" y="1355" height="720px" width="720px" />
                  <use xlink:href="#E044-1q0gnkl" x="16972" y="1535" height="720px" width="720px" />
               </g>
            </g>
            <g id="m35s8s2" class="measure">
               <g id="ssemmtf" class="staff">
                  <path d="M17467 1085 L20003 1085" stroke="currentColor" stroke-width="13" />
                  <path d="M17467 1265 L20003 1265" stroke="currentColor" stroke-width="13" />
                  <path d="M17467 1445 L20003 1445" stroke="currentColor" stroke-width="13" />
                  <path d="M17467 1625 L20003 1625" stroke="currentColor" stroke-width="13" />
                  <path d="M17467 1805 L20003 1805" stroke="currentColor" stroke-width="13" />
                  <g id="lj2vvmg" class="layer">
                     <g id="b1xm1zfs" class="beam">
                        <polygon points="17853,860 19131,860 19131,950 17853,950" />
                        <g id="n185kto4" class="note">
                           <g class="notehead">
                              <use xlink:href="#E0A4-1q0gnkl" x="17645" y="1535" height="720px" width="720px" />
                           </g>
                           <g id="s84131y" class="stem">
                              <rect x="17853" y="878" height="629" width="18" />
                           </g>
                        </g>
                        <g id="nwrcixg" class="note">
                           <g class="notehead">
                              <use xlink:href="#E0A4-1q0gnkl" x="18275" y="1445" height="720px" width="720px" />
                           </g>
                           <g id="s1hr045r" class="stem">
                              <rect x="18483" y="878" height="539" width="18" />
                           </g>
                        </g>
                        <g id="nzytzyk" class="note">
                           <g class="notehead">
                              <use xlink:href="#E0A4-1q0gnkl" x="18905" y="1625" height="720px" width="720px" />
                           </g>
                           <g id="snmyuxu" class="stem">
                              <rect x="19113" y="878" height="719" width="18" />
                           </g>
                        </g>
                     </g>
                  </g>
                  <g id="m5b7xo" class="meterSig">
                     <use xlink:href="#E086-1q0gnkl" x="19624" y="1265" height="720px" width="720px" />
                     <use xlink:href="#E088-1q0gnkl" x="19631" y="1625" height="720px" width="720px" />
                  </g>
               </g>
               <g id="b1rzkhpb" class="barLine">
                  <path d="M19535 1085 L19535 1805" stroke="currentColor" stroke-width="27" />
               </g>
            </g>
         </g>
         <g id="s16hjccs" class="system">
            <g id="lei5hxq" class="labelAbbr">
               <text x="914" y="3884" text-anchor="end" font-size="0px">
                  <tspan id="t1p07vhh" class="text">
                     <tspan font-size="405px" class="text">Pno.</tspan>
                  </tspan>
               </text>
            </g>
            <g id="m12s9eb8" class="measure">
               <g id="m1jtm07c" class="mNum autogenerated">
                  <text x="1094" y="3191" text-anchor="middle" font-size="0px">
                     <tspan id="til8d3" class="text">
                        <tspan font-size="324px" class="text">6</tspan>
                     </tspan>
                  </text>
               </g>
               <g id="s1am2u9e" class="staff">
                  <path d="M1094 3434 L6956 3434" stroke="currentColor" stroke-width="13" />
                  <path d="M1094 3614 L6956 3614" stroke="currentColor" stroke-width="13" />
                  <path d="M1094 3794 L6956 3794" stroke="currentColor" stroke-width="13" />
                  <path d="M1094 3974 L6956 3974" stroke="currentColor" stroke-width="13" />
                  <path d="M1094 4154 L6956 4154" stroke="currentColor" stroke-width="13" />
                  <g id="c1vsicav" class="clef">
                     <use xlink:href="#E050-1q0gnkl" x="1184" y="3974" height="720px" width="720px" />
                  </g>
                  <g id="kkhnmbi" class="keySig">
                     <g id="k7fmoaz" class="keyAccid">
                        <use xlink:href="#E262-1q0gnkl" x="1829" y="3434" height="720px" width="720px" />
                     </g>
                  </g>
                  <g id="m1ag5rqe" class="meterSig">
                     <use xlink:href="#E086-1q0gnkl" x="2136" y="3614" height="720px" width="720px" />
                     <use xlink:href="#E088-1q0gnkl" x="2143" y="3974" height="720px" width="720px" />
                  </g>
                  <g id="l1in6872" class="layer">
                     <g id="n6jmipy" class="note">
                        <g class="notehead">
                           <use xlink:href="#E0A4-1q0gnkl" x="2730" y="3884" height="720px" width="720px" />
                        </g>
                        <g id="sofnant" class="stem">
                           <rect x="2938" y="3254" height="602" width="18" />
                        </g>
                     </g>
                     <g id="n15z5ntn" class="note">
                        <g class="notehead">
                           <use xlink:href="#E0A4-1q0gnkl" x="3897" y="3794" height="720px" width="720px" />
                        </g>
                        <g id="s1inmh75" class="stem">
                           <rect x="3897" y="3822" height="572" width="18" />
                           <g id="f118zp9q" class="flag">
                              <use xlink:href="#E241-1q0gnkl" x="3897" y="4394" height="720px" width="720px" />
                           </g>
                        </g>
                     </g>
                     <g id="b11whf31" class="beam">
                        <polygon points="4658,4424 6200,4424 6200,4334 4658,4334" />
                        <g id="n6j7cb6" class="note">
                           <g class="notehead">
                              <use xlink:href="#E0A4-1q0gnkl" x="4658" y="3704" height="720px" width="720px" />
                           </g>
                           <g id="socki7l" class="stem">
                              <rect x="4658" y="3732" height="674" width="18" />
                           </g>
                        </g>
                        <g id="n1l8nc5u" class="note">
                           <g class="notehead">
                              <use xlink:href="#E0A4-1q0gnkl" x="5420" y="3884" height="720px" width="720px" />
                           </g>
                           <g id="sbeic3k" class="stem">
                              <rect x="5420" y="3912" height="494" width="18" />
                           </g>
                        </g>
                        <g id="n1s3a4hr" class="note">
                           <g class="notehead">
                              <use xlink:href="#E0A4-1q0gnkl" x="6182" y="3794" height="720px" width="720px" />
                           </g>
                           <g id="s18vyt82" class="stem">
                              <rect x="6182" y="3822" height="584" width="18" />
                           </g>
                        </g>
                     </g>
                  </g>
               </g>
               <g id="b173q2hh" class="barLine">
                  <path d="M6943 3434 L6943 4154" stroke="currentColor" stroke-width="27" />
               </g>
            </g>
            <g id="m41ll8" class="measure">
               <g id="s7m0dre" class="staff">
                  <path d="M6956 3434 L11754 3434" stroke="currentColor" stroke-width="13" />
                  <path d="M6956 3614 L11754 3614" stroke="currentColor" stroke-width="13" />
                  <path d="M6956 3794 L11754 3794" stroke="currentColor" stroke-width="13" />
                  <path d="M6956 3974 L11754 3974" stroke="currentColor" stroke-width="13" />
                  <path d="M6956 4154 L11754 4154" stroke="currentColor" stroke-width="13" />
                  <g id="l1lks9in" class="layer">
                     <g id="bgjsejw" class="beam">
                        <polygon points="7379,3389 8920,3389 8920,3479 7379,3479" />
                        <g id="n8bl3fx" class="note">
                           <g class="notehead">
                              <use xlink:href="#E0A4-1q0gnkl" x="7171" y="3974" height="720px" width="720px" />
                           </g>
                           <g id="sv73a3c" class="stem">
                              <rect x="7379" y="3407" height="539" width="18" />
                           </g>
                        </g>
                        <g id="nx2hwq1" class="note">
                           <g class="notehead">
                              <use xlink:href="#E0A4-1q0gnkl" x="7933" y="4064" height="720px" width="720px" />
                           </g>
                           <g id="svxfjbn" class="stem">
                              <rect x="8141" y="3407" height="629" width="18" />
                           </g>
                           <g id="abnrr07" class="accid" />
                        </g>
                        <g id="n16u92ck" class="note">
                           <g class="notehead">
                              <use xlink:href="#E0A4-1q0gnkl" x="8694" y="3974" height="720px" width="720px" />
                           </g>
                           <g id="sm44ns4" class="stem">
                              <rect x="8902" y="3407" height="539" width="18" />
                           </g>
                        </g>
                     </g>
                     <g id="b2u10ob" class="beam">
                        <polygon points="9664,3209 11205,3209 11205,3299 9664,3299" />
                        <g id="npgsmf3" class="note">
                           <g class="notehead">
                              <use xlink:href="#E0A4-1q0gnkl" x="9456" y="3884" height="720px" width="720px" />
                           </g>
                           <g id="sfsky5s" class="stem">
                              <rect x="9664" y="3227" height="629" width="18" />
                           </g>
                        </g>
                        <g id="n124ovrv" class="note">
                           <g class="notehead">
                              <use xlink:href="#E0A4-1q0gnkl" x="10217" y="3794" height="720px" width="720px" />
                           </g>
                           <g id="srts4sb" class="stem">
                              <rect x="10425" y="3227" height="539" width="18" />
                           </g>
                        </g>
                        <g id="n1g7gkt2" class="note">
                           <g class="notehead">
                              <use xlink:href="#E0A4-1q0gnkl" x="10979" y="3974" height="720px" width="720px" />
                           </g>
                           <g id="s113i83q" class="stem">
                              <rect x="11187" y="3227" height="719" width="18" />
                           </g>
                        </g>
                     </g>
                  </g>
               </g>
               <g id="b7kwc1z" class="barLine">
                  <path d="M11741 3434 L11741 4154" stroke="currentColor" stroke-width="27" />
               </g>
            </g>
            <g id="s123s49d" class="sb" />
            <g id="mjqheph" class="measure">
               <g id="s1qeeo3b" class="staff">
                  <path d="M11754 3434 L16195 3434" stroke="currentColor" stroke-width="13" />
                  <path d="M11754 3614 L16195 3614" stroke="currentColor" stroke-width="13" />
                  <path d="M11754 3794 L16195 3794" stroke="currentColor" stroke-width="13" />
                  <path d="M11754 3974 L16195 3974" stroke="currentColor" stroke-width="13" />
                  <path d="M11754 4154 L16195 4154" stroke="currentColor" stroke-width="13" />
                  <g id="lbix9kn" class="layer">
                     <g id="n1vq41bk" class="note">
                        <g class="notehead">
                           <use xlink:href="#E0A4-1q0gnkl" x="11969" y="3884" height="720px" width="720px" />
                        </g>
                        <g id="s1imeceo" class="stem">
                           <rect x="12177" y="3254" height="602" width="18" />
                        </g>
                     </g>
                     <g id="ntzdtfx" class="note">
                        <g class="notehead">
                           <use xlink:href="#E0A4-1q0gnkl" x="13136" y="3794" height="720px" width="720px" />
                        </g>
                        <g id="sxhfek6" class="stem">
                           <rect x="13136" y="3822" height="572" width="18" />
                           <g id="f5ajwdl" class="flag">
                              <use xlink:href="#E241-1q0gnkl" x="13136" y="4394" height="720px" width="720px" />
                           </g>
                        </g>
                     </g>
                     <g id="b1sxw0m7" class="beam">
                        <polygon points="13897,4424 15439,4424 15439,4334 13897,4334" />
                        <g id="nqolofx" class="note">
                           <g class="notehead">
                              <use xlink:href="#E0A4-1q0gnkl" x="13897" y="3704" height="720px" width="720px" />
                           </g>
                           <g id="sz695n7" class="stem">
                              <rect x="13897" y="3732" height="674" width="18" />
                           </g>
                        </g>
                        <g id="n16zm6u2" class="note">
                           <g class="notehead">
                              <use xlink:href="#E0A4-1q0gnkl" x="14659" y="3884" height="720px" width="720px" />
                           </g>
                           <g id="sf29s95" class="stem">
                              <rect x="14659" y="3912" height="494" width="18" />
                           </g>
                        </g>
                        <g id="nf120ed" class="note">
                           <g class="notehead">
                              <use xlink:href="#E0A4-1q0gnkl" x="15421" y="3794" height="720px" width="720px" />
                           </g>
                           <g id="s16njend" class="stem">
                              <rect x="15421" y="3822" height="584" width="18" />
                           </g>
                        </g>
                     </g>
                  </g>
               </g>
               <g id="ba87h4o" class="barLine">
                  <path d="M16182 3434 L16182 4154" stroke="currentColor" stroke-width="27" />
               </g>
            </g>
            <g id="miq460q" class="measure">
               <g id="s1m3mdua" class="staff">
                  <path d="M16195 3434 L20002 3434" stroke="currentColor" stroke-width="13" />
                  <path d="M16195 3614 L20002 3614" stroke="currentColor" stroke-width="13" />
                  <path d="M16195 3794 L20002 3794" stroke="currentColor" stroke-width="13" />
                  <path d="M16195 3974 L20002 3974" stroke="currentColor" stroke-width="13" />
                  <path d="M16195 4154 L20002 4154" stroke="currentColor" stroke-width="13" />
                  <g id="l2p5uqs" class="layer">
                     <g id="n1nt3bmk" class="note">
                        <g class="notehead">
                           <use xlink:href="#E0A4-1q0gnkl" x="16410" y="3974" height="720px" width="720px" />
                        </g>
                        <g id="d1zexoh" class="dots">
                           <ellipse cx="16726" cy="3884" rx="36" ry="36" />
                        </g>
                        <g id="s1x4l3m6" class="stem">
                           <rect x="16618" y="3344" height="602" width="18" />
                        </g>
                     </g>
                     <g id="r1jsfvdg" class="rest">
                        <use xlink:href="#E4E6-1q0gnkl" x="17899" y="3794" height="720px" width="720px" />
                     </g>
                     <g id="r1pyfldc" class="rest">
                        <use xlink:href="#E4E5-1q0gnkl" x="18660" y="3794" height="720px" width="720px" />
                     </g>
                  </g>
               </g>
               <g id="b5ll85c" class="barLine">
                  <path d="M19827 3434 L19827 4154" stroke="currentColor" stroke-width="27" />
                  <path d="M19957 3434 L19957 4154" stroke="currentColor" stroke-width="90" />
               </g>
            </g>
            <g id="s4mh60n" class="systemMilestoneEnd sbi91no" />
         </g>
         <g id="pd17hve" class="pageMilestoneEnd s1q3xs31" />
         <g id="p19ctsxt" class="pageMilestoneEnd maxa9wv" />
         <g id="p6nbjwd" class="pgHead">
            <text x="0" y="0" font-size="0px">
               <tspan id="rm2atbt" class="rend" x="10000" y="277" text-anchor="middle">
                  <tspan id="t87j72w" class="text">
                     <tspan font-size="405px" class="text">Air n 81</tspan>
                  </tspan>
               </tspan>
            </text>
         </g>
         <g id="p1qdwnam" class="pgFoot autogenerated">
            <g id="f13j84cl" class="fig">
               <g id="s1y1ikwx" class="svg" transform="translate(7750, 28099) scale(10, 10)">
                  <g>
                     <path fill="#00000" d="M 17.11278,49.26451 V 10.367554 h 12.696511 c 3.288815,7.336676 6.71267,14.610456 10.127281,21.888976 3.419998,-7.484684 6.255515,-14.204887 9.58887,-21.909915 2.436207,0.103726 4.316952,0.08453 6.484294,-0.05808 V 49.264423 H 50.274275 C 50.145222,38.35639 50.016136,27.448368 49.887066,16.540329 45.003488,27.315459 39.967448,38.433564 35.083854,49.208695 34.678996,49.343717 34.426583,49.135619 34.021726,49.270644 29.46588,39.330716 24.910049,29.390805 20.354201,19.450876 20.224341,29.388756 20.09461,39.326619 19.964815,49.264497 H 17.11278 Z M 36.754144,39.324695 C 32.721221,30.512695 28.6883,21.700679 24.655394,12.888662 22.530527,12.750737 22.656775,12.71031 20.714356,12.813974 v 0.966497 c 4.612938,9.99784 9.609439,20.748709 13.87298,30.081745 0.722248,-1.512523 1.444528,-3.025014 2.166808,-4.537521 z m 25.738417,9.939815 c 0,-12.965651 0,-25.931305 0,-38.896956 10.084388,0 20.168791,0 30.253178,0 0,0.960416 0,1.920849 0,2.881265 -6.482825,0 -12.965652,0 -19.448478,0 0,4.802097 0,9.604178 0,14.406277 5.52241,0 11.044819,0 16.567229,0 0,0.960415 0,1.920832 0,2.881248 -5.52241,0 -11.044819,0 -16.567229,0 0,5.282306 0,10.564611 0,15.846917 6.963035,0 13.926068,0 20.889103,0 0,0.960416 0,1.920832 0,2.881249 -10.564597,0 -21.129207,0 -31.693803,0 z m 4.321874,-2.160937 c 0,-11.765131 0,-23.530263 0,-35.295394 -0.720312,0 -1.440625,0 -2.160937,0 0,11.765131 0,23.530263 0,35.295394 0.720312,0 1.440625,0 2.160937,0 z m 32.41413,2.160937 c 0,-12.965651 0,-25.931305 0,-38.896956 2.401045,0 4.802095,0 7.203135,0 0,12.965651 0,25.931305 0,38.896956 -2.40104,0 -4.80209,0 -7.203135,0 z m 2.881265,-2.160937 c 0,-11.765131 0,-23.530263 0,-35.295394 -0.72031,0 -1.44064,0 -2.160953,0 0,11.765131 0,23.530263 0,35.295394 0.720313,0 1.440643,0 2.160953,0 z" />
                     <path fill="#00000" d="m 346.3,6.7 c -3.1,0.5 -4.9,4.4 -2.7,6.8 1.2,1.4 2.7,2.4 4.1,3.5 -2.4,5.3 -7.7,8.3 -11.9,12.1 -3.7,2.8 -7,6.2 -9.7,9.9 -2.2,-0.8 -0.3,-6.8 -0.6,-9.5 0.1,-3.1 0.7,-6.4 2.9,-8.7 1.3,-1.9 3,-3.5 4.5,-5.2 1.2,-3.4 -3.2,-4.9 -5.8,-4.6 -7.3,-0.5 -14.6,2 -20,6.8 -5,4.6 -10,10.1 -11.5,17 -0.9,3.5 -0.2,7.5 2.8,9.9 2.5,2.8 7.4,2.9 9.8,-0.2 1.7,-2.3 3.2,-4.8 3.8,-7.6 -0.1,-2.6 -4.4,-2.3 -4.3,0.2 1.2,2.4 -0.9,4.7 -2.7,6.2 -1.7,0.9 -4.7,0.7 -4.8,-1.7 -1,-5.8 2.1,-11.3 5.2,-16.1 4,-5.8 9.8,-11.2 17.2,-11.8 1.6,0 8.1,-1.2 6.8,1.4 -2.8,2.8 -5.6,6.1 -6,10.3 -1.6,7.7 0.1,15.7 -2.3,23.2 -1.1,3.9 2,2.6 2.5,0.2 3.3,-7.4 8.9,-13.4 15.1,-18.5 4.2,-3.9 9.5,-7.1 11.9,-12.6 1.3,-3.6 1.2,-9 -2.7,-10.9 -0.6,-0.2 -1.2,-0.3 -1.8,-0.3 z m 66,14.5 c -2,0.8 -1.8,4.9 0.8,4.4 3.4,0.4 2.9,-6.2 -0.8,-4.4 z m 0.6,7.3 c -1.3,0.5 -7.6,0.5 -5.4,2.2 4,-0.3 0.7,4.5 0.6,6.7 -0.4,2.9 -2.4,5.9 -1.2,8.8 2.7,1.7 5.6,-0.8 6.8,-3.2 1.6,-1.4 -0.5,-3 -1.2,-0.9 -0.4,0.8 -2.4,3.5 -2.6,1.8 1.1,-5 2.7,-9.9 3.9,-14.9 l -0.1,-0.5 h -0.9 z m -65.1,0.2 c -6.5,1.6 -10.5,9.5 -8.2,15.7 2.1,3.4 7.4,2.9 10.1,0.4 2,-0.2 3.6,-5.3 1,-3.4 -1.4,2 -4,4.2 -6.5,2.8 -2.2,-1.9 -1.9,-5.7 1.7,-5.3 3.1,-0.9 6.9,-2.1 8.1,-5.5 0.9,-2.7 -1.6,-5.2 -4.3,-4.8 h -1.1 -0.7 z m 13.6,0 c -2.2,0 -8.5,1.8 -2.9,2.3 0.9,1.9 -1,4.9 -1.1,7.2 -0.5,2.9 -1.4,5.7 -1.7,8.7 3.7,0.7 3.8,-2.6 4.4,-5.3 0.9,-3.3 1.6,-7 4.1,-9.5 2.4,1.6 6.8,-0.7 3.7,-3.4 -2.9,-0.5 -4.8,2.4 -6.2,4.3 0,-1.2 2.4,-5 -0.2,-4.3 z m 15.8,0 c -6.4,1.3 -9.6,9.1 -7.7,14.9 1.9,4 7.7,3.9 11,1.7 4.1,-3 6,-8.9 4.4,-13.7 -1.3,-3 -4.8,-3.2 -7.6,-3 z m 17,0 c -2.3,0 -8.8,1.9 -3,2.4 0.4,2.5 -1,5.7 -1.4,8.4 -0.7,2.4 -1.8,7.5 2.1,7.2 3.8,-0.1 6.5,-3.5 8.5,-6.3 2,-3.2 4.5,-7 3.3,-10.9 -3.7,-3 -3.6,2.6 -3.1,5.1 -0.7,3.8 -2.7,7.9 -6.2,9.8 -3.6,0.6 -1,-4.3 -0.8,-6.1 0.6,-3.2 1.6,-6.3 1.9,-9.5 -0.4,0 -0.8,0 -1.1,0 z m 30.6,0 c -6.3,1.2 -9.5,8.9 -7.8,14.7 1.5,4 7.2,4.2 10.5,2.4 4.6,-2.8 6.6,-9.3 4.8,-14.3 -1.4,-2.8 -4.8,-3 -7.5,-2.8 z m -75.4,1.7 c 2.1,1.5 0.2,4.7 -1.6,5.7 -1.1,0.4 -5.5,3.4 -4.6,0.7 0.8,-2.7 2.2,-6.2 5.3,-6.6 l 0.9,0.1 z m 30.8,0 c 2.6,1.5 1.3,5.2 0.8,7.6 -0.8,2.7 -1.9,5.9 -4.7,7.1 -5.1,0.8 -4,-5.8 -2.8,-8.8 1,-2.8 3,-6.8 6.7,-5.8 z m 47.1,-0.1 c 2.9,0.7 2,4.7 1.5,6.8 -0.7,3 -1.8,6.7 -5,8 -4.7,0.8 -4,-5.1 -3,-7.9 0.9,-3 2.7,-7.3 6.5,-6.8 z m -88.1,5.9 c -0.3,1.3 0.9,-0.6 0,0 z m -1.1,2.4 c -0.2,0.5 0.5,-0.1 0,0 z m -1.3,4.5 c -0.3,1.3 0.8,-0.2 0,0 z" />
                     <text y="41" x="201" fill="#00000" style="font-style:italic;font-weight:normal;font-size:30px;line-height:125%;font-family:Times;text-anchor:middle" xml:space="preserve">engraved with</text>
                  </g>
               </g>
            </g>
         </g>
      </g>
   </svg>
</svg>
