<?xml version="1.0" encoding="UTF-8" standalone="no"?>
<svg width="2100px" height="2970px" version="1.1" xmlns="http://www.w3.org/2000/svg" xmlns:xlink="http://www.w3.org/1999/xlink" xmlns:mei="http://www.music-encoding.org/ns/mei" overflow="visible">
   <desc>Engraved by Verovio 3.13.1</desc>
   <defs>
      <symbol id="E044-1p463mg" viewBox="0 0 1000 1000" overflow="inherit">
         <path transform="scale(1,-1)" d="M0 0c0 28 22 50 50 50s50 -22 50 -50s-22 -50 -50 -50s-50 22 -50 50z" />
      </symbol>
      <symbol id="E050-1p463mg" viewBox="0 0 1000 1000" overflow="inherit">
         <path transform="scale(1,-1)" d="M441 -245c-23 -4 -48 -6 -76 -6c-59 0 -102 7 -130 20c-88 42 -150 93 -187 154c-26 44 -43 103 -48 176c0 6 -1 13 -1 19c0 54 15 111 45 170c29 57 65 106 110 148s96 85 153 127c-3 16 -8 46 -13 92c-4 43 -5 73 -5 89c0 117 16 172 69 257c34 54 64 82 89 82 c21 0 43 -30 69 -92s39 -115 41 -159v-15c0 -109 -21 -162 -67 -241c-13 -20 -63 -90 -98 -118c-13 -9 -25 -19 -37 -29l31 -181c8 1 18 2 28 2c58 0 102 -12 133 -35c59 -43 92 -104 98 -184c1 -7 1 -15 1 -22c0 -123 -87 -209 -181 -248c8 -57 17 -110 25 -162 c5 -31 6 -58 6 -80c0 -30 -5 -53 -14 -70c-35 -64 -88 -99 -158 -103c-5 0 -11 -1 -16 -1c-37 0 -72 10 -108 27c-50 24 -77 59 -80 105v11c0 29 7 55 20 76c18 28 45 42 79 44h6c49 0 93 -42 97 -87v-9c0 -51 -34 -86 -105 -106c17 -24 51 -36 102 -36c62 0 116 43 140 85 c9 16 13 41 13 74c0 20 -1 42 -5 67c-8 53 -18 106 -26 159zM461 939c-95 0 -135 -175 -135 -286c0 -24 2 -48 5 -71c50 39 92 82 127 128c40 53 60 100 60 140v8c-4 53 -22 81 -55 81h-2zM406 119l54 -326c73 25 110 78 110 161c0 7 0 15 -1 23c-7 95 -57 142 -151 142h-12 zM382 117c-72 -2 -128 -47 -128 -120v-7c2 -46 43 -99 75 -115c-3 -2 -7 -5 -10 -10c-70 33 -116 88 -123 172v11c0 68 44 126 88 159c23 17 49 29 78 36l-29 170c-21 -13 -52 -37 -92 -73c-50 -44 -86 -84 -109 -119c-45 -69 -67 -130 -67 -182v-13c5 -68 35 -127 93 -176 s125 -73 203 -73c25 0 50 3 75 9c-19 111 -36 221 -54 331z" />
      </symbol>
      <symbol id="E082-1p463mg" viewBox="0 0 1000 1000" overflow="inherit">
         <path transform="scale(1,-1)" d="M124 -185c-18 0 -55 -14 -65 -65h-36l-3 30c0 25 6 45 18 63c11 19 22 30 39 43l121 82l37 29c15 11 27 29 38 54c12 24 18 47 18 70c0 40 -19 88 -94 88c-25 0 -32 0 -50 -8c-14 -5 -23 -12 -26 -22c3 -9 7 -15 10 -18l24 -17c12 -7 17 -11 27 -21c5 -7 7 -16 7 -27 c0 -12 0 -57 -79 -74c-30 0 -76 26 -76 94c0 66 81 135 197 135c72 0 181 -32 181 -150c0 -53 -32 -95 -113 -133l-91 -41c-26 -11 -45 -23 -57 -37l49 7c84 0 115 -41 148 -41c20 0 33 20 39 61h35c0 -152 -68 -168 -114 -168c-17 0 -65 0 -79 7h10l-28 17 c-49 37 -69 40 -87 42z" />
      </symbol>
      <symbol id="E084-1p463mg" viewBox="0 0 1000 1000" overflow="inherit">
         <path transform="scale(1,-1)" d="M20 -78c84 97 114 180 134 329h170c-13 -32 -82 -132 -99 -151l-84 -97c-33 -36 -59 -63 -80 -81h162v102l127 123v-225h57v-39h-57v-34c0 -43 19 -65 57 -65v-34h-244v36c48 0 60 26 60 70v27h-203v39z" />
      </symbol>
      <symbol id="E0A4-1p463mg" viewBox="0 0 1000 1000" overflow="inherit">
         <path transform="scale(1,-1)" d="M0 -39c0 68 73 172 200 172c66 0 114 -37 114 -95c0 -84 -106 -171 -218 -171c-64 0 -96 30 -96 94z" />
      </symbol>
      <symbol id="E260-1p463mg" viewBox="0 0 1000 1000" overflow="inherit">
         <path transform="scale(1,-1)" d="M20 110c32 16 54 27 93 27c26 0 35 -3 54 -13c13 -7 24 -20 27 -38l4 -25c0 -28 -16 -57 -45 -89c-23 -25 -39 -44 -65 -68l-88 -79v644h20v-359zM90 106c-32 0 -48 -10 -70 -29v-194c31 31 54 59 71 84c21 32 32 59 32 84c0 9 1 16 1 20c0 14 -3 21 -11 30l-8 3z" />
      </symbol>
   </defs>
   <style type="text/css">g.page-margin{font-family:Times;} g.ending, g.fing, g.reh, g.tempo{font-weight:bold;} g.dir, g.dynam, g.mNum{font-style:italic;} g.label{font-weight:normal;}</style>
   <svg class="definition-scale" color="black" viewBox="0 0 21000 29700">
      <g class="page-margin" transform="translate(500, 500)">
         <g id="mcy7ndr" class="mdiv pageMilestone" />
         <g id="sbtaah6" class="score pageMilestone" />
         <g id="s1i5f5nc" class="system">
            <g id="l12oamak" class="label">
               <text x="1105" y="1535" text-anchor="end" font-size="0px">
                  <tspan id="t1dbih5a" class="text">
                     <tspan font-size="405px" class="text">Piano</tspan>
                  </tspan>
               </text>
            </g>
            <g id="s12ciibq" class="section systemMilestone" />
            <g id="pqvboq9" class="pb" />
            <g id="mfj4nna" class="measure">
               <g id="s16mgq1l" class="staff">
                  <path d="M1285 1085 L5077 1085" stroke="currentColor" stroke-width="13" />
                  <path d="M1285 1265 L5077 1265" stroke="currentColor" stroke-width="13" />
                  <path d="M1285 1445 L5077 1445" stroke="currentColor" stroke-width="13" />
                  <path d="M1285 1625 L5077 1625" stroke="currentColor" stroke-width="13" />
                  <path d="M1285 1805 L5077 1805" stroke="currentColor" stroke-width="13" />
                  <g id="c1yj6s5t" class="clef">
                     <use xlink:href="#E050-1p463mg" x="1375" y="1625" height="720px" width="720px" />
                  </g>
                  <g id="k1bf79l8" class="keySig">
                     <g id="ka5q608" class="keyAccid">
                        <use xlink:href="#E260-1p463mg" x="2020" y="1445" height="720px" width="720px" />
                     </g>
                     <g id="k1owmhdy" class="keyAccid">
                        <use xlink:href="#E260-1p463mg" x="2200" y="1175" height="720px" width="720px" />
                     </g>
                  </g>
                  <g id="m9xepov" class="meterSig">
                     <use xlink:href="#E082-1p463mg" x="2508" y="1265" height="720px" width="720px" />
                     <use xlink:href="#E084-1p463mg" x="2513" y="1625" height="720px" width="720px" />
                  </g>
                  <g id="ljtvat" class="layer">
                     <g id="n1xb52ba" class="note">
                        <g class="notehead">
                           <use xlink:href="#E0A4-1p463mg" x="3081" y="1445" height="720px" width="720px" />
                        </g>
                        <g id="s1t3xt0p" class="stem">
                           <rect x="3081" y="1473" height="572" width="18" />
                        </g>
                        <g id="aa9jv7y" class="accid" />
                     </g>
                     <g id="b1a9tkpz" class="beam">
                        <polygon points="3867,1985 4740,1985 4740,1895 3867,1895" />
                        <polygon points="4389,1850 4740,1850 4740,1760 4389,1760" />
                        <g id="n8p32pa" class="note">
                           <g class="notehead">
                              <use xlink:href="#E0A4-1p463mg" x="3867" y="1355" height="720px" width="720px" />
                           </g>
                           <g id="s1o7lzk6" class="stem">
                              <rect x="3867" y="1383" height="584" width="18" />
                           </g>
                        </g>
                        <g id="n1rg2pby" class="note">
                           <g class="notehead">
                              <use xlink:href="#E0A4-1p463mg" x="4380" y="1355" height="720px" width="720px" />
                           </g>
                           <g id="s6gwcnj" class="stem">
                              <rect x="4380" y="1383" height="584" width="18" />
                           </g>
                        </g>
                        <g id="n1w97zfc" class="note">
                           <g class="notehead">
                              <use xlink:href="#E0A4-1p463mg" x="4722" y="1355" height="720px" width="720px" />
                           </g>
                           <g id="seri39m" class="stem">
                              <rect x="4722" y="1383" height="584" width="18" />
                           </g>
                        </g>
                     </g>
                  </g>
               </g>
               <g id="bwmso1" class="barLine">
                  <path d="M5064 1085 L5064 1805" stroke="currentColor" stroke-width="27" />
               </g>
            </g>
            <g id="mbzmhba" class="measure">
               <g id="sd8upp7" class="staff">
                  <path d="M5077 1085 L7082 1085" stroke="currentColor" stroke-width="13" />
                  <path d="M5077 1265 L7082 1265" stroke="currentColor" stroke-width="13" />
                  <path d="M5077 1445 L7082 1445" stroke="currentColor" stroke-width="13" />
                  <path d="M5077 1625 L7082 1625" stroke="currentColor" stroke-width="13" />
                  <path d="M5077 1805 L7082 1805" stroke="currentColor" stroke-width="13" />
                  <g id="l1kh7dvi" class="layer">
                     <g id="bm7iy59" class="beam">
                        <polygon points="5257,1850 5788,1850 5788,1760 5257,1760" />
                        <g id="n148ol13" class="note">
                           <g class="notehead">
                              <use xlink:href="#E0A4-1p463mg" x="5257" y="1265" height="720px" width="720px" />
                           </g>
                           <g id="s17sn9ec" class="stem">
                              <rect x="5257" y="1293" height="539" width="18" />
                           </g>
                        </g>
                        <g id="nf9y2za" class="note">
                           <g class="notehead">
                              <use xlink:href="#E0A4-1p463mg" x="5770" y="1265" height="720px" width="720px" />
                           </g>
                           <g id="suoe5ei" class="stem">
                              <rect x="5770" y="1293" height="539" width="18" />
                           </g>
                        </g>
                     </g>
                     <g id="n1xs7ijj" class="note">
                        <g class="notehead">
                           <use xlink:href="#E0A4-1p463mg" x="6283" y="1625" height="720px" width="720px" />
                        </g>
                        <g id="sawwvtr" class="stem">
                           <rect x="6491" y="995" height="602" width="18" />
                        </g>
                     </g>
                  </g>
               </g>
               <g id="bmraxc8" class="barLine">
                  <path d="M7069 1085 L7069 1805" stroke="currentColor" stroke-width="27" />
               </g>
            </g>
            <g id="m1kfdc9k" class="measure">
               <g id="s1dykq7w" class="staff">
                  <path d="M7082 1085 L9327 1085" stroke="currentColor" stroke-width="13" />
                  <path d="M7082 1265 L9327 1265" stroke="currentColor" stroke-width="13" />
                  <path d="M7082 1445 L9327 1445" stroke="currentColor" stroke-width="13" />
                  <path d="M7082 1625 L9327 1625" stroke="currentColor" stroke-width="13" />
                  <path d="M7082 1805 L9327 1805" stroke="currentColor" stroke-width="13" />
                  <g id="ljjp5ac" class="layer">
                     <g id="bhj410n" class="beam">
                        <polygon points="7262,1985 7793,2030 7793,1940 7262,1895" />
                        <g id="n6ja5s2" class="note">
                           <g class="notehead">
                              <use xlink:href="#E0A4-1p463mg" x="7262" y="1355" height="720px" width="720px" />
                           </g>
                           <g id="shdt3x2" class="stem">
                              <rect x="7262" y="1383" height="584" width="18" />
                           </g>
                        </g>
                        <g id="n1droevd" class="note">
                           <g class="notehead">
                              <use xlink:href="#E0A4-1p463mg" x="7775" y="1445" height="720px" width="720px" />
                           </g>
                           <g id="smz75bx" class="stem">
                              <rect x="7775" y="1473" height="539" width="18" />
                           </g>
                           <g id="a5vsf1c" class="accid" />
                        </g>
                     </g>
                     <g id="b1868pl" class="beam">
                        <polygon points="8496,860 9027,905 9027,995 8496,950" />
                        <g id="n18ij5gf" class="note">
                           <g class="notehead">
                              <use xlink:href="#E0A4-1p463mg" x="8288" y="1535" height="720px" width="720px" />
                           </g>
                           <g id="s88vqm3" class="stem">
                              <rect x="8496" y="878" height="629" width="18" />
                           </g>
                        </g>
                        <g id="n1y3stcc" class="note">
                           <g class="notehead">
                              <use xlink:href="#E0A4-1p463mg" x="8801" y="1625" height="720px" width="720px" />
                           </g>
                           <g id="s92l1d4" class="stem">
                              <rect x="9009" y="923" height="674" width="18" />
                           </g>
                        </g>
                     </g>
                  </g>
               </g>
               <g id="baa6wqv" class="barLine">
                  <path d="M9314 1085 L9314 1805" stroke="currentColor" stroke-width="27" />
               </g>
            </g>
            <g id="m1keck2i" class="measure">
               <g id="sv1qp3t" class="staff">
                  <path d="M9327 1085 L11572 1085" stroke="currentColor" stroke-width="13" />
                  <path d="M9327 1265 L11572 1265" stroke="currentColor" stroke-width="13" />
                  <path d="M9327 1445 L11572 1445" stroke="currentColor" stroke-width="13" />
                  <path d="M9327 1625 L11572 1625" stroke="currentColor" stroke-width="13" />
                  <path d="M9327 1805 L11572 1805" stroke="currentColor" stroke-width="13" />
                  <g id="lw7177t" class="layer">
                     <g id="bm471mz" class="beam">
                        <polygon points="9715,995 10246,950 10246,1040 9715,1085" />
                        <g id="nndb0n8" class="note">
                           <g class="notehead">
                              <use xlink:href="#E0A4-1p463mg" x="9507" y="1715" height="720px" width="720px" />
                           </g>
                           <g id="s1nngtt3" class="stem">
                              <rect x="9715" y="1013" height="674" width="18" />
                           </g>
                        </g>
                        <g id="n1qbz74d" class="note">
                           <g class="notehead">
                              <use xlink:href="#E0A4-1p463mg" x="10020" y="1625" height="720px" width="720px" />
                           </g>
                           <g id="s176psr6" class="stem">
                              <rect x="10228" y="968" height="629" width="18" />
                           </g>
                        </g>
                     </g>
                     <g id="b146sqpc" class="beam">
                        <polygon points="10741,860 11272,905 11272,995 10741,950" />
                        <g id="n1wcift8" class="note">
                           <g class="notehead">
                              <use xlink:href="#E0A4-1p463mg" x="10533" y="1445" height="720px" width="720px" />
                           </g>
                           <g id="sa8mg9a" class="stem">
                              <rect x="10741" y="878" height="539" width="18" />
                           </g>
                           <g id="a10ohy4j" class="accid" />
                        </g>
                        <g id="n1qtgtds" class="note">
                           <g class="notehead">
                              <use xlink:href="#E0A4-1p463mg" x="11046" y="1625" height="720px" width="720px" />
                           </g>
                           <g id="s2igiga" class="stem">
                              <rect x="11254" y="923" height="674" width="18" />
                           </g>
                        </g>
                     </g>
                  </g>
               </g>
               <g id="bw4slnf" class="barLine">
                  <path d="M11559 1085 L11559 1805" stroke="currentColor" stroke-width="27" />
               </g>
            </g>
            <g id="mcplci6" class="measure">
               <g id="s179lwpl" class="staff">
                  <path d="M11572 1085 L13748 1085" stroke="currentColor" stroke-width="13" />
                  <path d="M11572 1265 L13748 1265" stroke="currentColor" stroke-width="13" />
                  <path d="M11572 1445 L13748 1445" stroke="currentColor" stroke-width="13" />
                  <path d="M11572 1625 L13748 1625" stroke="currentColor" stroke-width="13" />
                  <path d="M11572 1805 L13748 1805" stroke="currentColor" stroke-width="13" />
                  <g id="l1xvxymu" class="layer">
                     <g id="n1v26ntz" class="note">
                        <g class="notehead">
                           <use xlink:href="#E0A4-1p463mg" x="11752" y="1445" height="720px" width="720px" />
                        </g>
                        <g id="s1j0yqo4" class="stem">
                           <rect x="11752" y="1473" height="572" width="18" />
                        </g>
                        <g id="a908lvn" class="accid" />
                     </g>
                     <g id="b1dn8iak" class="beam">
                        <polygon points="12538,1985 13411,1985 13411,1895 12538,1895" />
                        <polygon points="13060,1850 13411,1850 13411,1760 13060,1760" />
                        <g id="n1jlecjb" class="note">
                           <g class="notehead">
                              <use xlink:href="#E0A4-1p463mg" x="12538" y="1355" height="720px" width="720px" />
                           </g>
                           <g id="s9xniwz" class="stem">
                              <rect x="12538" y="1383" height="584" width="18" />
                           </g>
                        </g>
                        <g id="ngtqoxi" class="note">
                           <g class="notehead">
                              <use xlink:href="#E0A4-1p463mg" x="13051" y="1355" height="720px" width="720px" />
                           </g>
                           <g id="s1x3zemd" class="stem">
                              <rect x="13051" y="1383" height="584" width="18" />
                           </g>
                        </g>
                        <g id="n1v2syfl" class="note">
                           <g class="notehead">
                              <use xlink:href="#E0A4-1p463mg" x="13393" y="1355" height="720px" width="720px" />
                           </g>
                           <g id="s18zvcxb" class="stem">
                              <rect x="13393" y="1383" height="584" width="18" />
                           </g>
                        </g>
                     </g>
                  </g>
               </g>
               <g id="bm63cqc" class="barLine">
                  <path d="M13735 1085 L13735 1805" stroke="currentColor" stroke-width="27" />
               </g>
            </g>
            <g id="m1m6xpzf" class="measure">
               <g id="sj7t4ps" class="staff">
                  <path d="M13748 1085 L15753 1085" stroke="currentColor" stroke-width="13" />
                  <path d="M13748 1265 L15753 1265" stroke="currentColor" stroke-width="13" />
                  <path d="M13748 1445 L15753 1445" stroke="currentColor" stroke-width="13" />
                  <path d="M13748 1625 L15753 1625" stroke="currentColor" stroke-width="13" />
                  <path d="M13748 1805 L15753 1805" stroke="currentColor" stroke-width="13" />
                  <g id="lcqwi2z" class="layer">
                     <g id="b1kqkeu1" class="beam">
                        <polygon points="13928,1850 14459,1850 14459,1760 13928,1760" />
                        <g id="nzkbv84" class="note">
                           <g class="notehead">
                              <use xlink:href="#E0A4-1p463mg" x="13928" y="1265" height="720px" width="720px" />
                           </g>
                           <g id="s39az1y" class="stem">
                              <rect x="13928" y="1293" height="539" width="18" />
                           </g>
                        </g>
                        <g id="n1og7z7q" class="note">
                           <g class="notehead">
                              <use xlink:href="#E0A4-1p463mg" x="14441" y="1265" height="720px" width="720px" />
                           </g>
                           <g id="s1l0bfkm" class="stem">
                              <rect x="14441" y="1293" height="539" width="18" />
                           </g>
                        </g>
                     </g>
                     <g id="n18qhpcc" class="note">
                        <g class="notehead">
                           <use xlink:href="#E0A4-1p463mg" x="14954" y="1625" height="720px" width="720px" />
                        </g>
                        <g id="soy2thd" class="stem">
                           <rect x="15162" y="995" height="602" width="18" />
                        </g>
                     </g>
                  </g>
               </g>
               <g id="bsztxpq" class="barLine">
                  <path d="M15740 1085 L15740 1805" stroke="currentColor" stroke-width="27" />
               </g>
            </g>
            <g id="m1irk8xw" class="measure">
               <g id="s1a9dqg7" class="staff">
                  <path d="M15753 1085 L17998 1085" stroke="currentColor" stroke-width="13" />
                  <path d="M15753 1265 L17998 1265" stroke="currentColor" stroke-width="13" />
                  <path d="M15753 1445 L17998 1445" stroke="currentColor" stroke-width="13" />
                  <path d="M15753 1625 L17998 1625" stroke="currentColor" stroke-width="13" />
                  <path d="M15753 1805 L17998 1805" stroke="currentColor" stroke-width="13" />
                  <g id="l1s9wcss" class="layer">
                     <g id="b1okedw0" class="beam">
                        <polygon points="15933,1985 16464,2030 16464,1940 15933,1895" />
                        <g id="nrca3lj" class="note">
                           <g class="notehead">
                              <use xlink:href="#E0A4-1p463mg" x="15933" y="1355" height="720px" width="720px" />
                           </g>
                           <g id="s1xkhc21" class="stem">
                              <rect x="15933" y="1383" height="584" width="18" />
                           </g>
                        </g>
                        <g id="n6wdo7j" class="note">
                           <g class="notehead">
                              <use xlink:href="#E0A4-1p463mg" x="16446" y="1445" height="720px" width="720px" />
                           </g>
                           <g id="sdfzdzk" class="stem">
                              <rect x="16446" y="1473" height="539" width="18" />
                           </g>
                           <g id="apal1wt" class="accid" />
                        </g>
                     </g>
                     <g id="b1uy3k2" class="beam">
                        <polygon points="17167,860 17698,905 17698,995 17167,950" />
                        <g id="nl6xmnv" class="note">
                           <g class="notehead">
                              <use xlink:href="#E0A4-1p463mg" x="16959" y="1535" height="720px" width="720px" />
                           </g>
                           <g id="s1u9va8i" class="stem">
                              <rect x="17167" y="878" height="629" width="18" />
                           </g>
                        </g>
                        <g id="np1wpbu" class="note">
                           <g class="notehead">
                              <use xlink:href="#E0A4-1p463mg" x="17472" y="1625" height="720px" width="720px" />
                           </g>
                           <g id="sv0z18r" class="stem">
                              <rect x="17680" y="923" height="674" width="18" />
                           </g>
                        </g>
                     </g>
                  </g>
               </g>
               <g id="b1mdgm47" class="barLine">
                  <path d="M17985 1085 L17985 1805" stroke="currentColor" stroke-width="27" />
               </g>
            </g>
            <g id="m12bb1cs" class="measure">
               <g id="s1pz5u7" class="staff">
                  <path d="M17998 1085 L20003 1085" stroke="currentColor" stroke-width="13" />
                  <path d="M17998 1265 L20003 1265" stroke="currentColor" stroke-width="13" />
                  <path d="M17998 1445 L20003 1445" stroke="currentColor" stroke-width="13" />
                  <path d="M17998 1625 L20003 1625" stroke="currentColor" stroke-width="13" />
                  <path d="M17998 1805 L20003 1805" stroke="currentColor" stroke-width="13" />
                  <g id="l8bicz1" class="layer">
                     <g id="b1hq05hg" class="beam">
                        <polygon points="18386,950 18917,995 18917,1085 18386,1040" />
                        <g id="nhzbrg6" class="note">
                           <g class="notehead">
                              <use xlink:href="#E0A4-1p463mg" x="18178" y="1625" height="720px" width="720px" />
                           </g>
                           <g id="sbcfnzw" class="stem">
                              <rect x="18386" y="968" height="629" width="18" />
                           </g>
                        </g>
                        <g id="n3ojxrc" class="note">
                           <g class="notehead">
                              <use xlink:href="#E0A4-1p463mg" x="18691" y="1715" height="720px" width="720px" />
                           </g>
                           <g id="s11nvdfe" class="stem">
                              <rect x="18899" y="1013" height="674" width="18" />
                           </g>
                        </g>
                     </g>
                     <g id="nnk9j8s" class="note">
                        <g class="notehead">
                           <use xlink:href="#E0A4-1p463mg" x="19204" y="1625" height="720px" width="720px" />
                        </g>
                        <g id="s1bolmy2" class="stem">
                           <rect x="19412" y="995" height="602" width="18" />
                        </g>
                     </g>
                  </g>
               </g>
               <g id="b1xupcho" class="barLine">
                  <path d="M19990 1085 L19990 1805" stroke="currentColor" stroke-width="27" />
               </g>
            </g>
         </g>
         <g id="shkysbi" class="system">
            <g id="l1upctnz" class="labelAbbr">
               <text x="914" y="3884" text-anchor="end" font-size="0px">
                  <tspan id="t1kj3mnw" class="text">
                     <tspan font-size="405px" class="text">Pno.</tspan>
                  </tspan>
               </text>
            </g>
            <g id="m1y45j5y" class="measure">
               <g id="m12zm8ac" class="mNum autogenerated">
                  <text x="1094" y="3191" text-anchor="middle" font-size="0px">
                     <tspan id="td90odc" class="text">
                        <tspan font-size="324px" class="text">9</tspan>
                     </tspan>
                  </text>
               </g>
               <g id="sehkgf5" class="staff">
                  <path d="M1094 3434 L4877 3434" stroke="currentColor" stroke-width="13" />
                  <path d="M1094 3614 L4877 3614" stroke="currentColor" stroke-width="13" />
                  <path d="M1094 3794 L4877 3794" stroke="currentColor" stroke-width="13" />
                  <path d="M1094 3974 L4877 3974" stroke="currentColor" stroke-width="13" />
                  <path d="M1094 4154 L4877 4154" stroke="currentColor" stroke-width="13" />
                  <g id="c1kxeo40" class="clef">
                     <use xlink:href="#E050-1p463mg" x="1184" y="3974" height="720px" width="720px" />
                  </g>
                  <g id="k1krtv9h" class="keySig">
                     <g id="k1tbnnnt" class="keyAccid">
                        <use xlink:href="#E260-1p463mg" x="1829" y="3794" height="720px" width="720px" />
                     </g>
                     <g id="km2kipz" class="keyAccid">
                        <use xlink:href="#E260-1p463mg" x="2009" y="3524" height="720px" width="720px" />
                     </g>
                  </g>
                  <g id="l5wlt3u" class="layer">
                     <g id="b11gj2lb" class="beam">
                        <polygon points="2804,4379 3337,4379 3337,4289 2804,4289" />
                        <g id="n1hyo8k5" class="note">
                           <g class="notehead">
                              <use xlink:href="#E0A4-1p463mg" x="2804" y="3794" height="720px" width="720px" />
                           </g>
                           <g id="saw0hm" class="stem">
                              <rect x="2804" y="3822" height="539" width="18" />
                           </g>
                           <g id="askplrw" class="accid" />
                        </g>
                        <g id="nwmrj6u" class="note">
                           <g class="notehead">
                              <use xlink:href="#E0A4-1p463mg" x="3319" y="3794" height="720px" width="720px" />
                           </g>
                           <g id="s8ukxi9" class="stem">
                              <rect x="3319" y="3822" height="539" width="18" />
                           </g>
                           <g id="abgj9q7" class="accid" />
                        </g>
                     </g>
                     <g id="bgtedxe" class="beam">
                        <polygon points="3834,4379 4367,4334 4367,4244 3834,4289" />
                        <g id="n1pcir64" class="note">
                           <g class="notehead">
                              <use xlink:href="#E0A4-1p463mg" x="3834" y="3704" height="720px" width="720px" />
                           </g>
                           <g id="s9iewp9" class="stem">
                              <rect x="3834" y="3732" height="629" width="18" />
                           </g>
                        </g>
                        <g id="ndafeei" class="note">
                           <g class="notehead">
                              <use xlink:href="#E0A4-1p463mg" x="4349" y="3614" height="720px" width="720px" />
                           </g>
                           <g id="s2ll32j" class="stem">
                              <rect x="4349" y="3642" height="674" width="18" />
                           </g>
                        </g>
                     </g>
                  </g>
               </g>
               <g id="b3xlexz" class="barLine">
                  <path d="M2376 3434 L2376 4154" stroke="currentColor" stroke-width="90" />
                  <path d="M2506 3434 L2506 4154" stroke="currentColor" stroke-width="27" />
                  <use xlink:href="#E044-1p463mg" x="2552" y="3704" height="720px" width="720px" />
                  <use xlink:href="#E044-1p463mg" x="2552" y="3884" height="720px" width="720px" />
               </g>
               <g id="b1us396h" class="barLine">
                  <path d="M4864 3434 L4864 4154" stroke="currentColor" stroke-width="27" />
               </g>
            </g>
            <g id="s8z1a7f" class="sb" />
            <g id="m1ctk8x0" class="measure">
               <g id="sgr6w78" class="staff">
                  <path d="M4877 3434 L7130 3434" stroke="currentColor" stroke-width="13" />
                  <path d="M4877 3614 L7130 3614" stroke="currentColor" stroke-width="13" />
                  <path d="M4877 3794 L7130 3794" stroke="currentColor" stroke-width="13" />
                  <path d="M4877 3974 L7130 3974" stroke="currentColor" stroke-width="13" />
                  <path d="M4877 4154 L7130 4154" stroke="currentColor" stroke-width="13" />
                  <g id="l16u27jf" class="layer">
                     <g id="bik8ib2" class="beam">
                        <polygon points="5057,4334 5590,4379 5590,4289 5057,4244" />
                        <g id="nbqmt50" class="note">
                           <g class="notehead">
                              <use xlink:href="#E0A4-1p463mg" x="5057" y="3614" height="720px" width="720px" />
                           </g>
                           <g id="s22936o" class="stem">
                              <rect x="5057" y="3642" height="674" width="18" />
                           </g>
                        </g>
                        <g id="ndnugxv" class="note">
                           <g class="notehead">
                              <use xlink:href="#E0A4-1p463mg" x="5572" y="3704" height="720px" width="720px" />
                           </g>
                           <g id="sjdi8lb" class="stem">
                              <rect x="5572" y="3732" height="629" width="18" />
                           </g>
                        </g>
                     </g>
                     <g id="blq5u0u" class="beam">
                        <polygon points="6087,4199 6620,4199 6620,4109 6087,4109" />
                        <g id="nnmynw2" class="note">
                           <g class="notehead">
                              <use xlink:href="#E0A4-1p463mg" x="6087" y="3614" height="720px" width="720px" />
                           </g>
                           <g id="siy7uqg" class="stem">
                              <rect x="6087" y="3642" height="539" width="18" />
                           </g>
                        </g>
                        <g id="n18dp1cc" class="note">
                           <g class="notehead">
                              <use xlink:href="#E0A4-1p463mg" x="6602" y="3614" height="720px" width="720px" />
                           </g>
                           <g id="s1a6o6oi" class="stem">
                              <rect x="6602" y="3642" height="539" width="18" />
                           </g>
                        </g>
                     </g>
                  </g>
               </g>
               <g id="b10zfmxp" class="barLine">
                  <path d="M7117 3434 L7117 4154" stroke="currentColor" stroke-width="27" />
               </g>
            </g>
            <g id="m1sgmbre" class="measure">
               <g id="sovdu62" class="staff">
                  <path d="M7130 3434 L9383 3434" stroke="currentColor" stroke-width="13" />
                  <path d="M7130 3614 L9383 3614" stroke="currentColor" stroke-width="13" />
                  <path d="M7130 3794 L9383 3794" stroke="currentColor" stroke-width="13" />
                  <path d="M7130 3974 L9383 3974" stroke="currentColor" stroke-width="13" />
                  <path d="M7130 4154 L9383 4154" stroke="currentColor" stroke-width="13" />
                  <g id="l1gj623c" class="layer">
                     <g id="b1welq13" class="beam">
                        <polygon points="7310,4379 7843,4379 7843,4289 7310,4289" />
                        <g id="n1qtpqgq" class="note">
                           <g class="notehead">
                              <use xlink:href="#E0A4-1p463mg" x="7310" y="3794" height="720px" width="720px" />
                           </g>
                           <g id="s1qk4d6h" class="stem">
                              <rect x="7310" y="3822" height="539" width="18" />
                           </g>
                           <g id="aoyns3x" class="accid" />
                        </g>
                        <g id="n1buoaeh" class="note">
                           <g class="notehead">
                              <use xlink:href="#E0A4-1p463mg" x="7825" y="3794" height="720px" width="720px" />
                           </g>
                           <g id="smiii5e" class="stem">
                              <rect x="7825" y="3822" height="539" width="18" />
                           </g>
                           <g id="a19jyozq" class="accid" />
                        </g>
                     </g>
                     <g id="b7zeprt" class="beam">
                        <polygon points="8340,4379 8873,4334 8873,4244 8340,4289" />
                        <g id="nl4jbn1" class="note">
                           <g class="notehead">
                              <use xlink:href="#E0A4-1p463mg" x="8340" y="3704" height="720px" width="720px" />
                           </g>
                           <g id="s1v8olbt" class="stem">
                              <rect x="8340" y="3732" height="629" width="18" />
                           </g>
                        </g>
                        <g id="npw954b" class="note">
                           <g class="notehead">
                              <use xlink:href="#E0A4-1p463mg" x="8855" y="3614" height="720px" width="720px" />
                           </g>
                           <g id="snbq4u7" class="stem">
                              <rect x="8855" y="3642" height="674" width="18" />
                           </g>
                        </g>
                     </g>
                  </g>
               </g>
               <g id="bsdijkm" class="barLine">
                  <path d="M9370 3434 L9370 4154" stroke="currentColor" stroke-width="27" />
               </g>
            </g>
            <g id="mp703ll" class="measure">
               <g id="s2rttcl" class="staff">
                  <path d="M9383 3434 L11557 3434" stroke="currentColor" stroke-width="13" />
                  <path d="M9383 3614 L11557 3614" stroke="currentColor" stroke-width="13" />
                  <path d="M9383 3794 L11557 3794" stroke="currentColor" stroke-width="13" />
                  <path d="M9383 3974 L11557 3974" stroke="currentColor" stroke-width="13" />
                  <path d="M9383 4154 L11557 4154" stroke="currentColor" stroke-width="13" />
                  <g id="lum0hl4" class="layer">
                     <g id="b7wq46h" class="beam">
                        <polygon points="9563,4334 10096,4379 10096,4289 9563,4244" />
                        <g id="n2gzo4w" class="note">
                           <g class="notehead">
                              <use xlink:href="#E0A4-1p463mg" x="9563" y="3614" height="720px" width="720px" />
                           </g>
                           <g id="s1tpuyp1" class="stem">
                              <rect x="9563" y="3642" height="674" width="18" />
                           </g>
                        </g>
                        <g id="n7ij4jc" class="note">
                           <g class="notehead">
                              <use xlink:href="#E0A4-1p463mg" x="10078" y="3704" height="720px" width="720px" />
                           </g>
                           <g id="s1cuqbrm" class="stem">
                              <rect x="10078" y="3732" height="629" width="18" />
                           </g>
                        </g>
                     </g>
                     <g id="n1iqhp95" class="note">
                        <g class="notehead">
                           <use xlink:href="#E0A4-1p463mg" x="10593" y="3614" height="720px" width="720px" />
                        </g>
                        <g id="symiudv" class="stem">
                           <rect x="10593" y="3642" height="602" width="18" />
                        </g>
                     </g>
                  </g>
               </g>
               <g id="b1axnm05" class="barLine">
                  <path d="M11382 3434 L11382 4154" stroke="currentColor" stroke-width="27" />
                  <path d="M11512 3434 L11512 4154" stroke="currentColor" stroke-width="90" />
               </g>
            </g>
            <g id="sdqaslg" class="systemMilestoneEnd s12ciibq" />
         </g>
         <g id="prc8r7j" class="pageMilestoneEnd sbtaah6" />
         <g id="p1k4xh2" class="pageMilestoneEnd mcy7ndr" />
         <g id="pt10jpw" class="pgHead">
            <text x="0" y="0" font-size="0px">
               <tspan id="r5lbfl2" class="rend" x="10000" y="277" text-anchor="middle">
                  <tspan id="t1q8vy0l" class="text">
                     <tspan font-size="405px" class="text">Air n 178</tspan>
                  </tspan>
               </tspan>
            </text>
         </g>
         <g id="pxcvzar" class="pgFoot autogenerated">
            <g id="fpfo3aq" class="fig">
               <g id="sixw7xi" class="svg" transform="translate(7750, 28099) scale(10, 10)">
                  <g>
                     <path fill="#00000" d="M 17.11278,49.26451 V 10.367554 h 12.696511 c 3.288815,7.336676 6.71267,14.610456 10.127281,21.888976 3.419998,-7.484684 6.255515,-14.204887 9.58887,-21.909915 2.436207,0.103726 4.316952,0.08453 6.484294,-0.05808 V 49.264423 H 50.274275 C 50.145222,38.35639 50.016136,27.448368 49.887066,16.540329 45.003488,27.315459 39.967448,38.433564 35.083854,49.208695 34.678996,49.343717 34.426583,49.135619 34.021726,49.270644 29.46588,39.330716 24.910049,29.390805 20.354201,19.450876 20.224341,29.388756 20.09461,39.326619 19.964815,49.264497 H 17.11278 Z M 36.754144,39.324695 C 32.721221,30.512695 28.6883,21.700679 24.655394,12.888662 22.530527,12.750737 22.656775,12.71031 20.714356,12.813974 v 0.966497 c 4.612938,9.99784 9.609439,20.748709 13.87298,30.081745 0.722248,-1.512523 1.444528,-3.025014 2.166808,-4.537521 z m 25.738417,9.939815 c 0,-12.965651 0,-25.931305 0,-38.896956 10.084388,0 20.168791,0 30.253178,0 0,0.960416 0,1.920849 0,2.881265 -6.482825,0 -12.965652,0 -19.448478,0 0,4.802097 0,9.604178 0,14.406277 5.52241,0 11.044819,0 16.567229,0 0,0.960415 0,1.920832 0,2.881248 -5.52241,0 -11.044819,0 -16.567229,0 0,5.282306 0,10.564611 0,15.846917 6.963035,0 13.926068,0 20.889103,0 0,0.960416 0,1.920832 0,2.881249 -10.564597,0 -21.129207,0 -31.693803,0 z m 4.321874,-2.160937 c 0,-11.765131 0,-23.530263 0,-35.295394 -0.720312,0 -1.440625,0 -2.160937,0 0,11.765131 0,23.530263 0,35.295394 0.720312,0 1.440625,0 2.160937,0 z m 32.41413,2.160937 c 0,-12.965651 0,-25.931305 0,-38.896956 2.401045,0 4.802095,0 7.203135,0 0,12.965651 0,25.931305 0,38.896956 -2.40104,0 -4.80209,0 -7.203135,0 z m 2.881265,-2.160937 c 0,-11.765131 0,-23.530263 0,-35.295394 -0.72031,0 -1.44064,0 -2.160953,0 0,11.765131 0,23.530263 0,35.295394 0.720313,0 1.440643,0 2.160953,0 z" />
                     <path fill="#00000" d="m 346.3,6.7 c -3.1,0.5 -4.9,4.4 -2.7,6.8 1.2,1.4 2.7,2.4 4.1,3.5 -2.4,5.3 -7.7,8.3 -11.9,12.1 -3.7,2.8 -7,6.2 -9.7,9.9 -2.2,-0.8 -0.3,-6.8 -0.6,-9.5 0.1,-3.1 0.7,-6.4 2.9,-8.7 1.3,-1.9 3,-3.5 4.5,-5.2 1.2,-3.4 -3.2,-4.9 -5.8,-4.6 -7.3,-0.5 -14.6,2 -20,6.8 -5,4.6 -10,10.1 -11.5,17 -0.9,3.5 -0.2,7.5 2.8,9.9 2.5,2.8 7.4,2.9 9.8,-0.2 1.7,-2.3 3.2,-4.8 3.8,-7.6 -0.1,-2.6 -4.4,-2.3 -4.3,0.2 1.2,2.4 -0.9,4.7 -2.7,6.2 -1.7,0.9 -4.7,0.7 -4.8,-1.7 -1,-5.8 2.1,-11.3 5.2,-16.1 4,-5.8 9.8,-11.2 17.2,-11.8 1.6,0 8.1,-1.2 6.8,1.4 -2.8,2.8 -5.6,6.1 -6,10.3 -1.6,7.7 0.1,15.7 -2.3,23.2 -1.1,3.9 2,2.6 2.5,0.2 3.3,-7.4 8.9,-13.4 15.1,-18.5 4.2,-3.9 9.5,-7.1 11.9,-12.6 1.3,-3.6 1.2,-9 -2.7,-10.9 -0.6,-0.2 -1.2,-0.3 -1.8,-0.3 z m 66,14.5 c -2,0.8 -1.8,4.9 0.8,4.4 3.4,0.4 2.9,-6.2 -0.8,-4.4 z m 0.6,7.3 c -1.3,0.5 -7.6,0.5 -5.4,2.2 4,-0.3 0.7,4.5 0.6,6.7 -0.4,2.9 -2.4,5.9 -1.2,8.8 2.7,1.7 5.6,-0.8 6.8,-3.2 1.6,-1.4 -0.5,-3 -1.2,-0.9 -0.4,0.8 -2.4,3.5 -2.6,1.8 1.1,-5 2.7,-9.9 3.9,-14.9 l -0.1,-0.5 h -0.9 z m -65.1,0.2 c -6.5,1.6 -10.5,9.5 -8.2,15.7 2.1,3.4 7.4,2.9 10.1,0.4 2,-0.2 3.6,-5.3 1,-3.4 -1.4,2 -4,4.2 -6.5,2.8 -2.2,-1.9 -1.9,-5.7 1.7,-5.3 3.1,-0.9 6.9,-2.1 8.1,-5.5 0.9,-2.7 -1.6,-5.2 -4.3,-4.8 h -1.1 -0.7 z m 13.6,0 c -2.2,0 -8.5,1.8 -2.9,2.3 0.9,1.9 -1,4.9 -1.1,7.2 -0.5,2.9 -1.4,5.7 -1.7,8.7 3.7,0.7 3.8,-2.6 4.4,-5.3 0.9,-3.3 1.6,-7 4.1,-9.5 2.4,1.6 6.8,-0.7 3.7,-3.4 -2.9,-0.5 -4.8,2.4 -6.2,4.3 0,-1.2 2.4,-5 -0.2,-4.3 z m 15.8,0 c -6.4,1.3 -9.6,9.1 -7.7,14.9 1.9,4 7.7,3.9 11,1.7 4.1,-3 6,-8.9 4.4,-13.7 -1.3,-3 -4.8,-3.2 -7.6,-3 z m 17,0 c -2.3,0 -8.8,1.9 -3,2.4 0.4,2.5 -1,5.7 -1.4,8.4 -0.7,2.4 -1.8,7.5 2.1,7.2 3.8,-0.1 6.5,-3.5 8.5,-6.3 2,-3.2 4.5,-7 3.3,-10.9 -3.7,-3 -3.6,2.6 -3.1,5.1 -0.7,3.8 -2.7,7.9 -6.2,9.8 -3.6,0.6 -1,-4.3 -0.8,-6.1 0.6,-3.2 1.6,-6.3 1.9,-9.5 -0.4,0 -0.8,0 -1.1,0 z m 30.6,0 c -6.3,1.2 -9.5,8.9 -7.8,14.7 1.5,4 7.2,4.2 10.5,2.4 4.6,-2.8 6.6,-9.3 4.8,-14.3 -1.4,-2.8 -4.8,-3 -7.5,-2.8 z m -75.4,1.7 c 2.1,1.5 0.2,4.7 -1.6,5.7 -1.1,0.4 -5.5,3.4 -4.6,0.7 0.8,-2.7 2.2,-6.2 5.3,-6.6 l 0.9,0.1 z m 30.8,0 c 2.6,1.5 1.3,5.2 0.8,7.6 -0.8,2.7 -1.9,5.9 -4.7,7.1 -5.1,0.8 -4,-5.8 -2.8,-8.8 1,-2.8 3,-6.8 6.7,-5.8 z m 47.1,-0.1 c 2.9,0.7 2,4.7 1.5,6.8 -0.7,3 -1.8,6.7 -5,8 -4.7,0.8 -4,-5.1 -3,-7.9 0.9,-3 2.7,-7.3 6.5,-6.8 z m -88.1,5.9 c -0.3,1.3 0.9,-0.6 0,0 z m -1.1,2.4 c -0.2,0.5 0.5,-0.1 0,0 z m -1.3,4.5 c -0.3,1.3 0.8,-0.2 0,0 z" />
                     <text y="41" x="201" fill="#00000" style="font-style:italic;font-weight:normal;font-size:30px;line-height:125%;font-family:Times;text-anchor:middle" xml:space="preserve">engraved with</text>
                  </g>
               </g>
            </g>
         </g>
      </g>
   </svg>
</svg>
