<?xml version="1.0" encoding="UTF-8" standalone="no"?>
<svg width="2100px" height="2970px" version="1.1" xmlns="http://www.w3.org/2000/svg" xmlns:xlink="http://www.w3.org/1999/xlink" xmlns:mei="http://www.music-encoding.org/ns/mei" overflow="visible">
   <desc>Engraved by Verovio 3.13.1</desc>
   <defs>
      <symbol id="E240-1hai1g6" viewBox="0 0 1000 1000" overflow="inherit">
         <path transform="scale(1,-1)" d="M179 -646c15 29 29 55 46 102c18 49 30 108 30 138c0 105 -80 173 -168 200c-18 5 -47 9 -87 16v190h22c8 0 33 -61 71 -95c4 -3 -2 3 61 -56c62 -58 122 -137 122 -241c0 -38 -13 -106 -35 -163c-20 -51 -43 -99 -66 -132c-6 -5 -10 -7 -13 -7s-5 2 -5 5l4 10 c1 3 14 25 18 33z" />
      </symbol>
      <symbol id="E260-1hai1g6" viewBox="0 0 1000 1000" overflow="inherit">
         <path transform="scale(1,-1)" d="M20 110c32 16 54 27 93 27c26 0 35 -3 54 -13c13 -7 24 -20 27 -38l4 -25c0 -28 -16 -57 -45 -89c-23 -25 -39 -44 -65 -68l-88 -79v644h20v-359zM90 106c-32 0 -48 -10 -70 -29v-194c31 31 54 59 71 84c21 32 32 59 32 84c0 9 1 16 1 20c0 14 -3 21 -11 30l-8 3z" />
      </symbol>
      <symbol id="E044-1hai1g6" viewBox="0 0 1000 1000" overflow="inherit">
         <path transform="scale(1,-1)" d="M0 0c0 28 22 50 50 50s50 -22 50 -50s-22 -50 -50 -50s-50 22 -50 50z" />
      </symbol>
      <symbol id="E050-1hai1g6" viewBox="0 0 1000 1000" overflow="inherit">
         <path transform="scale(1,-1)" d="M441 -245c-23 -4 -48 -6 -76 -6c-59 0 -102 7 -130 20c-88 42 -150 93 -187 154c-26 44 -43 103 -48 176c0 6 -1 13 -1 19c0 54 15 111 45 170c29 57 65 106 110 148s96 85 153 127c-3 16 -8 46 -13 92c-4 43 -5 73 -5 89c0 117 16 172 69 257c34 54 64 82 89 82 c21 0 43 -30 69 -92s39 -115 41 -159v-15c0 -109 -21 -162 -67 -241c-13 -20 -63 -90 -98 -118c-13 -9 -25 -19 -37 -29l31 -181c8 1 18 2 28 2c58 0 102 -12 133 -35c59 -43 92 -104 98 -184c1 -7 1 -15 1 -22c0 -123 -87 -209 -181 -248c8 -57 17 -110 25 -162 c5 -31 6 -58 6 -80c0 -30 -5 -53 -14 -70c-35 -64 -88 -99 -158 -103c-5 0 -11 -1 -16 -1c-37 0 -72 10 -108 27c-50 24 -77 59 -80 105v11c0 29 7 55 20 76c18 28 45 42 79 44h6c49 0 93 -42 97 -87v-9c0 -51 -34 -86 -105 -106c17 -24 51 -36 102 -36c62 0 116 43 140 85 c9 16 13 41 13 74c0 20 -1 42 -5 67c-8 53 -18 106 -26 159zM461 939c-95 0 -135 -175 -135 -286c0 -24 2 -48 5 -71c50 39 92 82 127 128c40 53 60 100 60 140v8c-4 53 -22 81 -55 81h-2zM406 119l54 -326c73 25 110 78 110 161c0 7 0 15 -1 23c-7 95 -57 142 -151 142h-12 zM382 117c-72 -2 -128 -47 -128 -120v-7c2 -46 43 -99 75 -115c-3 -2 -7 -5 -10 -10c-70 33 -116 88 -123 172v11c0 68 44 126 88 159c23 17 49 29 78 36l-29 170c-21 -13 -52 -37 -92 -73c-50 -44 -86 -84 -109 -119c-45 -69 -67 -130 -67 -182v-13c5 -68 35 -127 93 -176 s125 -73 203 -73c25 0 50 3 75 9c-19 111 -36 221 -54 331z" />
      </symbol>
      <symbol id="E081-1hai1g6" viewBox="0 0 1000 1000" overflow="inherit">
         <path transform="scale(1,-1)" d="M68 -250v36c23 0 40 6 49 18c8 14 12 33 12 57v250l-82 -129l-27 13l107 255h128v-394c0 -24 5 -42 14 -53s25 -17 47 -17v-36h-248z" />
      </symbol>
      <symbol id="E082-1hai1g6" viewBox="0 0 1000 1000" overflow="inherit">
         <path transform="scale(1,-1)" d="M124 -185c-18 0 -55 -14 -65 -65h-36l-3 30c0 25 6 45 18 63c11 19 22 30 39 43l121 82l37 29c15 11 27 29 38 54c12 24 18 47 18 70c0 40 -19 88 -94 88c-25 0 -32 0 -50 -8c-14 -5 -23 -12 -26 -22c3 -9 7 -15 10 -18l24 -17c12 -7 17 -11 27 -21c5 -7 7 -16 7 -27 c0 -12 0 -57 -79 -74c-30 0 -76 26 -76 94c0 66 81 135 197 135c72 0 181 -32 181 -150c0 -53 -32 -95 -113 -133l-91 -41c-26 -11 -45 -23 -57 -37l49 7c84 0 115 -41 148 -41c20 0 33 20 39 61h35c0 -152 -68 -168 -114 -168c-17 0 -65 0 -79 7h10l-28 17 c-49 37 -69 40 -87 42z" />
      </symbol>
      <symbol id="E084-1hai1g6" viewBox="0 0 1000 1000" overflow="inherit">
         <path transform="scale(1,-1)" d="M20 -78c84 97 114 180 134 329h170c-13 -32 -82 -132 -99 -151l-84 -97c-33 -36 -59 -63 -80 -81h162v102l127 123v-225h57v-39h-57v-34c0 -43 19 -65 57 -65v-34h-244v36c48 0 60 26 60 70v27h-203v39z" />
      </symbol>
      <symbol id="E0A4-1hai1g6" viewBox="0 0 1000 1000" overflow="inherit">
         <path transform="scale(1,-1)" d="M0 -39c0 68 73 172 200 172c66 0 114 -37 114 -95c0 -84 -106 -171 -218 -171c-64 0 -96 30 -96 94z" />
      </symbol>
   </defs>
   <style type="text/css">g.page-margin{font-family:Times;} g.ending, g.fing, g.reh, g.tempo{font-weight:bold;} g.dir, g.dynam, g.mNum{font-style:italic;} g.label{font-weight:normal;}</style>
   <svg class="definition-scale" color="black" viewBox="0 0 21000 29700">
      <g class="page-margin" transform="translate(500, 500)">
         <g id="m16jsvws" class="mdiv pageMilestone" />
         <g id="s1omfidi" class="score pageMilestone" />
         <g id="s42p2hu" class="system">
            <g id="l1c113rv" class="label">
               <text x="1105" y="1535" text-anchor="end" font-size="0px">
                  <tspan id="t1quqgm1" class="text">
                     <tspan font-size="405px" class="text">Piano</tspan>
                  </tspan>
               </text>
            </g>
            <g id="sa2gqh8" class="section systemMilestone" />
            <g id="p1jvzi0a" class="pb" />
            <g id="mky9alc" class="measure">
               <g id="ma0ljsu" class="mNum">
                  <text x="1285" y="842" text-anchor="middle" font-size="0px" />
               </g>
               <g id="s542ic2" class="staff">
                  <path d="M1285 1085 L3897 1085" stroke="currentColor" stroke-width="13" />
                  <path d="M1285 1265 L3897 1265" stroke="currentColor" stroke-width="13" />
                  <path d="M1285 1445 L3897 1445" stroke="currentColor" stroke-width="13" />
                  <path d="M1285 1625 L3897 1625" stroke="currentColor" stroke-width="13" />
                  <path d="M1285 1805 L3897 1805" stroke="currentColor" stroke-width="13" />
                  <g id="chgdy2p" class="clef">
                     <use xlink:href="#E050-1hai1g6" x="1375" y="1625" height="720px" width="720px" />
                  </g>
                  <g id="k1ihmztc" class="keySig">
                     <g id="knrk6b8" class="keyAccid">
                        <use xlink:href="#E260-1hai1g6" x="2020" y="1445" height="720px" width="720px" />
                     </g>
                     <g id="k1ii2p6o" class="keyAccid">
                        <use xlink:href="#E260-1hai1g6" x="2200" y="1175" height="720px" width="720px" />
                     </g>
                  </g>
                  <g id="m1iojscn" class="meterSig">
                     <use xlink:href="#E082-1hai1g6" x="2508" y="1265" height="720px" width="720px" />
                     <use xlink:href="#E084-1hai1g6" x="2513" y="1625" height="720px" width="720px" />
                  </g>
                  <g id="l1ev098a" class="layer">
                     <g id="n1hxy8w3" class="note">
                        <g class="notehead">
                           <use xlink:href="#E0A4-1hai1g6" x="3080" y="1445" height="720px" width="720px" />
                        </g>
                        <g id="s1cjkax" class="stem">
                           <rect x="3080" y="1473" height="572" width="18" />
                        </g>
                        <g id="ady89mm" class="accid" />
                     </g>
                  </g>
               </g>
               <g id="b17ncsyl" class="barLine">
                  <path d="M3884 1085 L3884 1805" stroke="currentColor" stroke-width="27" />
               </g>
            </g>
            <g id="miy8i5j" class="measure">
               <g id="s1fdpad0" class="staff">
                  <path d="M3897 1085 L6185 1085" stroke="currentColor" stroke-width="13" />
                  <path d="M3897 1265 L6185 1265" stroke="currentColor" stroke-width="13" />
                  <path d="M3897 1445 L6185 1445" stroke="currentColor" stroke-width="13" />
                  <path d="M3897 1625 L6185 1625" stroke="currentColor" stroke-width="13" />
                  <path d="M3897 1805 L6185 1805" stroke="currentColor" stroke-width="13" />
                  <g id="l156huy5" class="layer">
                     <g id="bv7baz" class="beam">
                        <polygon points="4076,2030 4618,1985 4618,1895 4076,1940" />
                        <g id="npx1e0x" class="note">
                           <g class="notehead">
                              <use xlink:href="#E0A4-1hai1g6" x="4076" y="1355" height="720px" width="720px" />
                           </g>
                           <g id="s1244xgy" class="stem">
                              <rect x="4076" y="1383" height="629" width="18" />
                           </g>
                        </g>
                        <g id="na48qmr" class="note">
                           <g class="notehead">
                              <use xlink:href="#E0A4-1hai1g6" x="4600" y="1265" height="720px" width="720px" />
                           </g>
                           <g id="s1fjkoje" class="stem">
                              <rect x="4600" y="1293" height="674" width="18" />
                           </g>
                        </g>
                     </g>
                     <g id="btrsnvw" class="beam">
                        <polygon points="5124,1985 5666,2030 5666,1940 5124,1895" />
                        <g id="n1c53ggl" class="note">
                           <g class="notehead">
                              <use xlink:href="#E0A4-1hai1g6" x="5124" y="1265" height="720px" width="720px" />
                           </g>
                           <g id="sn9ey1m" class="stem">
                              <rect x="5124" y="1293" height="674" width="18" />
                           </g>
                        </g>
                        <g id="no6thrz" class="note">
                           <g class="notehead">
                              <use xlink:href="#E0A4-1hai1g6" x="5648" y="1355" height="720px" width="720px" />
                           </g>
                           <g id="scw19pf" class="stem">
                              <rect x="5648" y="1383" height="629" width="18" />
                           </g>
                        </g>
                     </g>
                  </g>
               </g>
               <g id="b1502a7t" class="barLine">
                  <path d="M6172 1085 L6172 1805" stroke="currentColor" stroke-width="27" />
               </g>
            </g>
            <g id="m549b6v" class="measure">
               <g id="s1p5qgra" class="staff">
                  <path d="M6185 1085 L8229 1085" stroke="currentColor" stroke-width="13" />
                  <path d="M6185 1265 L8229 1265" stroke="currentColor" stroke-width="13" />
                  <path d="M6185 1445 L8229 1445" stroke="currentColor" stroke-width="13" />
                  <path d="M6185 1625 L8229 1625" stroke="currentColor" stroke-width="13" />
                  <path d="M6185 1805 L8229 1805" stroke="currentColor" stroke-width="13" />
                  <g id="ly3g6xj" class="layer">
                     <g id="be6jytr" class="beam">
                        <polygon points="6364,1850 6906,1850 6906,1760 6364,1760" />
                        <g id="n17k1zg2" class="note">
                           <g class="notehead">
                              <use xlink:href="#E0A4-1hai1g6" x="6364" y="1265" height="720px" width="720px" />
                           </g>
                           <g id="s1b6vqku" class="stem">
                              <rect x="6364" y="1293" height="539" width="18" />
                           </g>
                        </g>
                        <g id="n1kb8p5w" class="note">
                           <g class="notehead">
                              <use xlink:href="#E0A4-1hai1g6" x="6888" y="1265" height="720px" width="720px" />
                           </g>
                           <g id="s1th30c2" class="stem">
                              <rect x="6888" y="1293" height="539" width="18" />
                           </g>
                        </g>
                     </g>
                     <g id="noaqth6" class="note">
                        <g class="notehead">
                           <use xlink:href="#E0A4-1hai1g6" x="7412" y="1445" height="720px" width="720px" />
                        </g>
                        <g id="sixvynb" class="stem">
                           <rect x="7412" y="1473" height="572" width="18" />
                        </g>
                        <g id="a166e5hn" class="accid" />
                     </g>
                  </g>
               </g>
               <g id="b1njiph5" class="barLine">
                  <path d="M8216 1085 L8216 1805" stroke="currentColor" stroke-width="27" />
               </g>
            </g>
            <g id="mprtbpw" class="measure">
               <g id="s1o3ha2h" class="staff">
                  <path d="M8229 1085 L10517 1085" stroke="currentColor" stroke-width="13" />
                  <path d="M8229 1265 L10517 1265" stroke="currentColor" stroke-width="13" />
                  <path d="M8229 1445 L10517 1445" stroke="currentColor" stroke-width="13" />
                  <path d="M8229 1625 L10517 1625" stroke="currentColor" stroke-width="13" />
                  <path d="M8229 1805 L10517 1805" stroke="currentColor" stroke-width="13" />
                  <g id="lk6t2pt" class="layer">
                     <g id="b18vdg2v" class="beam">
                        <polygon points="8408,2030 8950,1985 8950,1895 8408,1940" />
                        <g id="nwaolw2" class="note">
                           <g class="notehead">
                              <use xlink:href="#E0A4-1hai1g6" x="8408" y="1355" height="720px" width="720px" />
                           </g>
                           <g id="s5vndrv" class="stem">
                              <rect x="8408" y="1383" height="629" width="18" />
                           </g>
                        </g>
                        <g id="nn1hn9q" class="note">
                           <g class="notehead">
                              <use xlink:href="#E0A4-1hai1g6" x="8932" y="1265" height="720px" width="720px" />
                           </g>
                           <g id="s18oac7y" class="stem">
                              <rect x="8932" y="1293" height="674" width="18" />
                           </g>
                        </g>
                     </g>
                     <g id="b161ak7f" class="beam">
                        <polygon points="9456,1985 9998,2030 9998,1940 9456,1895" />
                        <g id="n1mu9fxj" class="note">
                           <g class="notehead">
                              <use xlink:href="#E0A4-1hai1g6" x="9456" y="1265" height="720px" width="720px" />
                           </g>
                           <g id="s1rt41ad" class="stem">
                              <rect x="9456" y="1293" height="674" width="18" />
                           </g>
                        </g>
                        <g id="n327b2m" class="note">
                           <g class="notehead">
                              <use xlink:href="#E0A4-1hai1g6" x="9980" y="1355" height="720px" width="720px" />
                           </g>
                           <g id="sq0qj27" class="stem">
                              <rect x="9980" y="1383" height="629" width="18" />
                           </g>
                        </g>
                     </g>
                  </g>
               </g>
               <g id="bbp3m9c" class="barLine">
                  <path d="M10504 1085 L10504 1805" stroke="currentColor" stroke-width="27" />
               </g>
            </g>
            <g id="m1nf6cs2" class="measure">
               <g id="s1ct41n7" class="staff">
                  <path d="M10517 1085 L12133 1085" stroke="currentColor" stroke-width="13" />
                  <path d="M10517 1265 L12133 1265" stroke="currentColor" stroke-width="13" />
                  <path d="M10517 1445 L12133 1445" stroke="currentColor" stroke-width="13" />
                  <path d="M10517 1625 L12133 1625" stroke="currentColor" stroke-width="13" />
                  <path d="M10517 1805 L12133 1805" stroke="currentColor" stroke-width="13" />
                  <g id="mp412ek" class="meterSig">
                     <use xlink:href="#E081-1hai1g6" x="10626" y="1265" height="720px" width="720px" />
                     <use xlink:href="#E084-1hai1g6" x="10593" y="1625" height="720px" width="720px" />
                  </g>
                  <g id="lw89x4m" class="layer">
                     <g id="n2dka9m" class="note">
                        <g class="notehead">
                           <use xlink:href="#E0A4-1hai1g6" x="11154" y="1265" height="720px" width="720px" />
                        </g>
                        <g id="s135yfut" class="stem">
                           <rect x="11154" y="1293" height="602" width="18" />
                        </g>
                     </g>
                  </g>
               </g>
               <g id="btlxeh4" class="barLine">
                  <path d="M11958 1085 L11958 1805" stroke="currentColor" stroke-width="27" />
                  <path d="M12088 1085 L12088 1805" stroke="currentColor" stroke-width="90" />
                  <use xlink:href="#E044-1hai1g6" x="11841" y="1355" height="720px" width="720px" />
                  <use xlink:href="#E044-1hai1g6" x="11841" y="1535" height="720px" width="720px" />
               </g>
            </g>
            <g id="mvdor82" class="measure">
               <g id="s1f5tzkd" class="staff">
                  <path d="M12133 1085 L13129 1085" stroke="currentColor" stroke-width="13" />
                  <path d="M12133 1265 L13129 1265" stroke="currentColor" stroke-width="13" />
                  <path d="M12133 1445 L13129 1445" stroke="currentColor" stroke-width="13" />
                  <path d="M12133 1625 L13129 1625" stroke="currentColor" stroke-width="13" />
                  <path d="M12133 1805 L13129 1805" stroke="currentColor" stroke-width="13" />
                  <g id="l18zggi1" class="layer">
                     <g id="n1grfaxu" class="note">
                        <g class="notehead">
                           <use xlink:href="#E0A4-1hai1g6" x="12312" y="1445" height="720px" width="720px" />
                        </g>
                        <g id="s4y0vhz" class="stem">
                           <rect x="12312" y="1473" height="572" width="18" />
                        </g>
                        <g id="a1lry27q" class="accid" />
                     </g>
                  </g>
               </g>
               <g id="b1fcqtzs" class="barLine">
                  <path d="M13116 1085 L13116 1805" stroke="currentColor" stroke-width="27" />
               </g>
            </g>
            <g id="m1lke4b4" class="measure">
               <g id="s1bh775l" class="staff">
                  <path d="M13129 1085 L15886 1085" stroke="currentColor" stroke-width="13" />
                  <path d="M13129 1265 L15886 1265" stroke="currentColor" stroke-width="13" />
                  <path d="M13129 1445 L15886 1445" stroke="currentColor" stroke-width="13" />
                  <path d="M13129 1625 L15886 1625" stroke="currentColor" stroke-width="13" />
                  <path d="M13129 1805 L15886 1805" stroke="currentColor" stroke-width="13" />
                  <g id="mql9g4l" class="meterSig">
                     <use xlink:href="#E082-1hai1g6" x="13205" y="1265" height="720px" width="720px" />
                     <use xlink:href="#E084-1hai1g6" x="13210" y="1625" height="720px" width="720px" />
                  </g>
                  <g id="lc8xobz" class="layer">
                     <g id="b1y3k3v0" class="beam">
                        <polygon points="13777,2030 14319,1985 14319,1895 13777,1940" />
                        <g id="n18e1qd8" class="note">
                           <g class="notehead">
                              <use xlink:href="#E0A4-1hai1g6" x="13777" y="1355" height="720px" width="720px" />
                           </g>
                           <g id="s1g51bt4" class="stem">
                              <rect x="13777" y="1383" height="629" width="18" />
                           </g>
                        </g>
                        <g id="n1h8fa4p" class="note">
                           <g class="notehead">
                              <use xlink:href="#E0A4-1hai1g6" x="14301" y="1265" height="720px" width="720px" />
                           </g>
                           <g id="s31qxgp" class="stem">
                              <rect x="14301" y="1293" height="674" width="18" />
                           </g>
                        </g>
                     </g>
                     <g id="bvnvgsd" class="beam">
                        <polygon points="14825,1985 15367,2030 15367,1940 14825,1895" />
                        <g id="niaslpv" class="note">
                           <g class="notehead">
                              <use xlink:href="#E0A4-1hai1g6" x="14825" y="1265" height="720px" width="720px" />
                           </g>
                           <g id="smkb8z3" class="stem">
                              <rect x="14825" y="1293" height="674" width="18" />
                           </g>
                        </g>
                        <g id="n1h8gn8o" class="note">
                           <g class="notehead">
                              <use xlink:href="#E0A4-1hai1g6" x="15349" y="1445" height="720px" width="720px" />
                           </g>
                           <g id="s5a9lep" class="stem">
                              <rect x="15349" y="1473" height="539" width="18" />
                           </g>
                           <g id="a6nhkm3" class="accid" />
                        </g>
                     </g>
                  </g>
               </g>
               <g id="b1m3y928" class="barLine">
                  <path d="M15873 1085 L15873 1805" stroke="currentColor" stroke-width="27" />
               </g>
            </g>
            <g id="mx1a90r" class="measure">
               <g id="s187y6na" class="staff">
                  <path d="M15886 1085 L17961 1085" stroke="currentColor" stroke-width="13" />
                  <path d="M15886 1265 L17961 1265" stroke="currentColor" stroke-width="13" />
                  <path d="M15886 1445 L17961 1445" stroke="currentColor" stroke-width="13" />
                  <path d="M15886 1625 L17961 1625" stroke="currentColor" stroke-width="13" />
                  <path d="M15886 1805 L17961 1805" stroke="currentColor" stroke-width="13" />
                  <g id="lfqhxwz" class="layer">
                     <g id="n1dezbdb" class="note">
                        <g class="notehead">
                           <use xlink:href="#E0A4-1hai1g6" x="15974" y="1265" height="540px" width="540px" />
                        </g>
                        <g id="s1rhgd5g" class="stem">
                           <rect x="16125" y="860" height="384" width="18" />
                           <g id="fqgg5hb" class="flag">
                              <use xlink:href="#E240-1hai1g6" x="16125" y="860" height="540px" width="540px" />
                           </g>
                        </g>
                     </g>
                     <g id="nb24n64" class="note">
                        <g class="notehead">
                           <use xlink:href="#E0A4-1hai1g6" x="16341" y="1355" height="720px" width="720px" />
                        </g>
                        <g id="s18kgfvo" class="stem">
                           <rect x="16341" y="1383" height="602" width="18" />
                        </g>
                     </g>
                     <g id="n1efd23p" class="note">
                        <g class="notehead">
                           <use xlink:href="#E0A4-1hai1g6" x="16777" y="1445" height="540px" width="540px" />
                        </g>
                        <g id="sjlw2xx" class="stem">
                           <rect x="16928" y="995" height="429" width="18" />
                           <g id="f1i0zfpy" class="flag">
                              <use xlink:href="#E240-1hai1g6" x="16928" y="995" height="540px" width="540px" />
                           </g>
                        </g>
                        <g id="a1izxfx0" class="accid" />
                     </g>
                     <g id="npw0x3q" class="note">
                        <g class="notehead">
                           <use xlink:href="#E0A4-1hai1g6" x="17144" y="1535" height="720px" width="720px" />
                        </g>
                        <g id="s104nz40" class="stem">
                           <rect x="17352" y="905" height="602" width="18" />
                        </g>
                     </g>
                  </g>
               </g>
               <g id="b1ogpkzj" class="barLine">
                  <path d="M17948 1085 L17948 1805" stroke="currentColor" stroke-width="27" />
               </g>
            </g>
            <g id="m1sbb6sy" class="measure">
               <g id="s6nm42j" class="staff">
                  <path d="M17961 1085 L20005 1085" stroke="currentColor" stroke-width="13" />
                  <path d="M17961 1265 L20005 1265" stroke="currentColor" stroke-width="13" />
                  <path d="M17961 1445 L20005 1445" stroke="currentColor" stroke-width="13" />
                  <path d="M17961 1625 L20005 1625" stroke="currentColor" stroke-width="13" />
                  <path d="M17961 1805 L20005 1805" stroke="currentColor" stroke-width="13" />
                  <g id="ljsaldr" class="layer">
                     <g id="b1otwrer" class="beam">
                        <polygon points="18348,1040 18890,1040 18890,1130 18348,1130" />
                        <g id="nznasm0" class="note">
                           <g class="notehead">
                              <use xlink:href="#E0A4-1hai1g6" x="18140" y="1625" height="720px" width="720px" />
                           </g>
                           <g id="sinnn2x" class="stem">
                              <rect x="18348" y="1058" height="539" width="18" />
                           </g>
                        </g>
                        <g id="n8bj81q" class="note">
                           <g class="notehead">
                              <use xlink:href="#E0A4-1hai1g6" x="18664" y="1625" height="720px" width="720px" />
                           </g>
                           <g id="s1ej92fz" class="stem">
                              <rect x="18872" y="1058" height="539" width="18" />
                           </g>
                        </g>
                     </g>
                     <g id="nixton2" class="note">
                        <g class="notehead">
                           <use xlink:href="#E0A4-1hai1g6" x="19188" y="1445" height="720px" width="720px" />
                        </g>
                        <g id="s1ky3pyp" class="stem">
                           <rect x="19188" y="1473" height="572" width="18" />
                        </g>
                        <g id="a16pj7zz" class="accid" />
                     </g>
                  </g>
               </g>
               <g id="b1xr8jmv" class="barLine">
                  <path d="M19992 1085 L19992 1805" stroke="currentColor" stroke-width="27" />
               </g>
            </g>
         </g>
         <g id="s1og0rba" class="system">
            <g id="lj05zit" class="labelAbbr">
               <text x="914" y="3884" text-anchor="end" font-size="0px">
                  <tspan id="tgjseun" class="text">
                     <tspan font-size="405px" class="text">Pno.</tspan>
                  </tspan>
               </text>
            </g>
            <g id="m14ebzye" class="measure">
               <g id="mtequk8" class="mNum autogenerated">
                  <text x="1094" y="3191" text-anchor="middle" font-size="0px">
                     <tspan id="tcb32pg" class="text">
                        <tspan font-size="324px" class="text">9</tspan>
                     </tspan>
                  </text>
               </g>
               <g id="s16xj8vn" class="staff">
                  <path d="M1094 3434 L4542 3434" stroke="currentColor" stroke-width="13" />
                  <path d="M1094 3614 L4542 3614" stroke="currentColor" stroke-width="13" />
                  <path d="M1094 3794 L4542 3794" stroke="currentColor" stroke-width="13" />
                  <path d="M1094 3974 L4542 3974" stroke="currentColor" stroke-width="13" />
                  <path d="M1094 4154 L4542 4154" stroke="currentColor" stroke-width="13" />
                  <g id="c7tqg08" class="clef">
                     <use xlink:href="#E050-1hai1g6" x="1184" y="3974" height="720px" width="720px" />
                  </g>
                  <g id="kkeahj1" class="keySig">
                     <g id="k8puevw" class="keyAccid">
                        <use xlink:href="#E260-1hai1g6" x="1829" y="3794" height="720px" width="720px" />
                     </g>
                     <g id="k291i6y" class="keyAccid">
                        <use xlink:href="#E260-1hai1g6" x="2009" y="3524" height="720px" width="720px" />
                     </g>
                  </g>
                  <g id="l4m7y1z" class="layer">
                     <g id="b9lic90" class="beam">
                        <polygon points="2421,4379 2966,4334 2966,4244 2421,4289" />
                        <g id="n9o81jy" class="note">
                           <g class="notehead">
                              <use xlink:href="#E0A4-1hai1g6" x="2421" y="3704" height="720px" width="720px" />
                           </g>
                           <g id="svobim0" class="stem">
                              <rect x="2421" y="3732" height="629" width="18" />
                           </g>
                        </g>
                        <g id="nt8zihj" class="note">
                           <g class="notehead">
                              <use xlink:href="#E0A4-1hai1g6" x="2948" y="3614" height="720px" width="720px" />
                           </g>
                           <g id="s1fuxak5" class="stem">
                              <rect x="2948" y="3642" height="674" width="18" />
                           </g>
                        </g>
                     </g>
                     <g id="bqvsv53" class="beam">
                        <polygon points="3475,4334 4020,4379 4020,4289 3475,4244" />
                        <g id="nbx3918" class="note">
                           <g class="notehead">
                              <use xlink:href="#E0A4-1hai1g6" x="3475" y="3614" height="720px" width="720px" />
                           </g>
                           <g id="sppa796" class="stem">
                              <rect x="3475" y="3642" height="674" width="18" />
                           </g>
                        </g>
                        <g id="npkpvsu" class="note">
                           <g class="notehead">
                              <use xlink:href="#E0A4-1hai1g6" x="4002" y="3794" height="720px" width="720px" />
                           </g>
                           <g id="sdrgacy" class="stem">
                              <rect x="4002" y="3822" height="539" width="18" />
                           </g>
                           <g id="aqoqh6c" class="accid" />
                        </g>
                     </g>
                  </g>
               </g>
               <g id="b1chvm8s" class="barLine">
                  <path d="M4529 3434 L4529 4154" stroke="currentColor" stroke-width="27" />
               </g>
            </g>
            <g id="sa8h64m" class="sb" />
            <g id="mlzb8m6" class="measure">
               <g id="s13nrfqv" class="staff">
                  <path d="M4542 3434 L7193 3434" stroke="currentColor" stroke-width="13" />
                  <path d="M4542 3614 L7193 3614" stroke="currentColor" stroke-width="13" />
                  <path d="M4542 3794 L7193 3794" stroke="currentColor" stroke-width="13" />
                  <path d="M4542 3974 L7193 3974" stroke="currentColor" stroke-width="13" />
                  <path d="M4542 4154 L7193 4154" stroke="currentColor" stroke-width="13" />
                  <g id="llblafv" class="layer">
                     <g id="b1v4wjkm" class="beam">
                        <polygon points="4722,4334 5267,4379 5267,4289 4722,4244" />
                        <g id="n1rjjr3a" class="note">
                           <g class="notehead">
                              <use xlink:href="#E0A4-1hai1g6" x="4722" y="3614" height="720px" width="720px" />
                           </g>
                           <g id="szzbfas" class="stem">
                              <rect x="4722" y="3642" height="674" width="18" />
                           </g>
                        </g>
                        <g id="n6yux1f" class="note">
                           <g class="notehead">
                              <use xlink:href="#E0A4-1hai1g6" x="5249" y="3704" height="720px" width="720px" />
                           </g>
                           <g id="s1sryp4d" class="stem">
                              <rect x="5249" y="3732" height="629" width="18" />
                           </g>
                        </g>
                     </g>
                     <g id="b1df6hhx" class="beam">
                        <polygon points="5776,4424 6847,4469 6847,4379 5776,4334" />
                        <polygon points="5776,4289 6136,4304 6136,4214 5776,4199" />
                        <polygon points="6136,4304 6487,4319 6487,4229 6136,4214" />
                        <polygon points="6487,4319 6847,4334 6847,4244 6487,4229" />
                        <g id="n65xw8n" class="note">
                           <g class="notehead">
                              <use xlink:href="#E0A4-1hai1g6" x="5776" y="3614" height="720px" width="720px" />
                           </g>
                           <g id="sb5by5l" class="stem">
                              <rect x="5776" y="3642" height="764" width="18" />
                           </g>
                        </g>
                        <g id="nty9f3b" class="note">
                           <g class="notehead">
                              <use xlink:href="#E0A4-1hai1g6" x="6127" y="3704" height="720px" width="720px" />
                           </g>
                           <g id="s16wmak9" class="stem">
                              <rect x="6127" y="3732" height="689" width="18" />
                           </g>
                        </g>
                        <g id="n1sv4yu3" class="note">
                           <g class="notehead">
                              <use xlink:href="#E0A4-1hai1g6" x="6478" y="3614" height="720px" width="720px" />
                           </g>
                           <g id="s1sq7ldn" class="stem">
                              <rect x="6478" y="3642" height="794" width="18" />
                           </g>
                        </g>
                        <g id="ntc0dg8" class="note">
                           <g class="notehead">
                              <use xlink:href="#E0A4-1hai1g6" x="6829" y="3794" height="720px" width="720px" />
                           </g>
                           <g id="s16r8xrl" class="stem">
                              <rect x="6829" y="3822" height="629" width="18" />
                           </g>
                           <g id="a194q8w" class="accid" />
                        </g>
                     </g>
                  </g>
               </g>
               <g id="b14k4jic" class="barLine">
                  <path d="M7180 3434 L7180 4154" stroke="currentColor" stroke-width="27" />
               </g>
            </g>
            <g id="m1o6iw57" class="measure">
               <g id="szq154m" class="staff">
                  <path d="M7193 3434 L8814 3434" stroke="currentColor" stroke-width="13" />
                  <path d="M7193 3614 L8814 3614" stroke="currentColor" stroke-width="13" />
                  <path d="M7193 3794 L8814 3794" stroke="currentColor" stroke-width="13" />
                  <path d="M7193 3974 L8814 3974" stroke="currentColor" stroke-width="13" />
                  <path d="M7193 4154 L8814 4154" stroke="currentColor" stroke-width="13" />
                  <g id="mvsg63u" class="meterSig">
                     <use xlink:href="#E081-1hai1g6" x="7302" y="3614" height="720px" width="720px" />
                     <use xlink:href="#E084-1hai1g6" x="7269" y="3974" height="720px" width="720px" />
                  </g>
                  <g id="li0yawe" class="layer">
                     <g id="n1kvrpq9" class="note">
                        <g class="notehead">
                           <use xlink:href="#E0A4-1hai1g6" x="7831" y="3974" height="720px" width="720px" />
                        </g>
                        <g id="ssgyt2d" class="stem">
                           <rect x="8039" y="3344" height="602" width="18" />
                        </g>
                     </g>
                  </g>
               </g>
               <g id="b1mrz6d2" class="barLine">
                  <path d="M8639 3434 L8639 4154" stroke="currentColor" stroke-width="27" />
                  <path d="M8769 3434 L8769 4154" stroke="currentColor" stroke-width="90" />
               </g>
            </g>
            <g id="s123pxk7" class="systemMilestoneEnd sa2gqh8" />
         </g>
         <g id="p1xajpv2" class="pageMilestoneEnd s1omfidi" />
         <g id="p9syafk" class="pageMilestoneEnd m16jsvws" />
         <g id="p1q788gh" class="pgHead">
            <text x="0" y="0" font-size="0px">
               <tspan id="r1u0c2si" class="rend" x="10000" y="277" text-anchor="middle">
                  <tspan id="t139kpm0" class="text">
                     <tspan font-size="405px" class="text">Air n 192b</tspan>
                  </tspan>
               </tspan>
            </text>
         </g>
         <g id="pxlav40" class="pgFoot autogenerated">
            <g id="f1srdi2r" class="fig">
               <g id="s10ur2tf" class="svg" transform="translate(7750, 28099) scale(10, 10)">
                  <g>
                     <path fill="#00000" d="M 17.11278,49.26451 V 10.367554 h 12.696511 c 3.288815,7.336676 6.71267,14.610456 10.127281,21.888976 3.419998,-7.484684 6.255515,-14.204887 9.58887,-21.909915 2.436207,0.103726 4.316952,0.08453 6.484294,-0.05808 V 49.264423 H 50.274275 C 50.145222,38.35639 50.016136,27.448368 49.887066,16.540329 45.003488,27.315459 39.967448,38.433564 35.083854,49.208695 34.678996,49.343717 34.426583,49.135619 34.021726,49.270644 29.46588,39.330716 24.910049,29.390805 20.354201,19.450876 20.224341,29.388756 20.09461,39.326619 19.964815,49.264497 H 17.11278 Z M 36.754144,39.324695 C 32.721221,30.512695 28.6883,21.700679 24.655394,12.888662 22.530527,12.750737 22.656775,12.71031 20.714356,12.813974 v 0.966497 c 4.612938,9.99784 9.609439,20.748709 13.87298,30.081745 0.722248,-1.512523 1.444528,-3.025014 2.166808,-4.537521 z m 25.738417,9.939815 c 0,-12.965651 0,-25.931305 0,-38.896956 10.084388,0 20.168791,0 30.253178,0 0,0.960416 0,1.920849 0,2.881265 -6.482825,0 -12.965652,0 -19.448478,0 0,4.802097 0,9.604178 0,14.406277 5.52241,0 11.044819,0 16.567229,0 0,0.960415 0,1.920832 0,2.881248 -5.52241,0 -11.044819,0 -16.567229,0 0,5.282306 0,10.564611 0,15.846917 6.963035,0 13.926068,0 20.889103,0 0,0.960416 0,1.920832 0,2.881249 -10.564597,0 -21.129207,0 -31.693803,0 z m 4.321874,-2.160937 c 0,-11.765131 0,-23.530263 0,-35.295394 -0.720312,0 -1.440625,0 -2.160937,0 0,11.765131 0,23.530263 0,35.295394 0.720312,0 1.440625,0 2.160937,0 z m 32.41413,2.160937 c 0,-12.965651 0,-25.931305 0,-38.896956 2.401045,0 4.802095,0 7.203135,0 0,12.965651 0,25.931305 0,38.896956 -2.40104,0 -4.80209,0 -7.203135,0 z m 2.881265,-2.160937 c 0,-11.765131 0,-23.530263 0,-35.295394 -0.72031,0 -1.44064,0 -2.160953,0 0,11.765131 0,23.530263 0,35.295394 0.720313,0 1.440643,0 2.160953,0 z" />
                     <path fill="#00000" d="m 346.3,6.7 c -3.1,0.5 -4.9,4.4 -2.7,6.8 1.2,1.4 2.7,2.4 4.1,3.5 -2.4,5.3 -7.7,8.3 -11.9,12.1 -3.7,2.8 -7,6.2 -9.7,9.9 -2.2,-0.8 -0.3,-6.8 -0.6,-9.5 0.1,-3.1 0.7,-6.4 2.9,-8.7 1.3,-1.9 3,-3.5 4.5,-5.2 1.2,-3.4 -3.2,-4.9 -5.8,-4.6 -7.3,-0.5 -14.6,2 -20,6.8 -5,4.6 -10,10.1 -11.5,17 -0.9,3.5 -0.2,7.5 2.8,9.9 2.5,2.8 7.4,2.9 9.8,-0.2 1.7,-2.3 3.2,-4.8 3.8,-7.6 -0.1,-2.6 -4.4,-2.3 -4.3,0.2 1.2,2.4 -0.9,4.7 -2.7,6.2 -1.7,0.9 -4.7,0.7 -4.8,-1.7 -1,-5.8 2.1,-11.3 5.2,-16.1 4,-5.8 9.8,-11.2 17.2,-11.8 1.6,0 8.1,-1.2 6.8,1.4 -2.8,2.8 -5.6,6.1 -6,10.3 -1.6,7.7 0.1,15.7 -2.3,23.2 -1.1,3.9 2,2.6 2.5,0.2 3.3,-7.4 8.9,-13.4 15.1,-18.5 4.2,-3.9 9.5,-7.1 11.9,-12.6 1.3,-3.6 1.2,-9 -2.7,-10.9 -0.6,-0.2 -1.2,-0.3 -1.8,-0.3 z m 66,14.5 c -2,0.8 -1.8,4.9 0.8,4.4 3.4,0.4 2.9,-6.2 -0.8,-4.4 z m 0.6,7.3 c -1.3,0.5 -7.6,0.5 -5.4,2.2 4,-0.3 0.7,4.5 0.6,6.7 -0.4,2.9 -2.4,5.9 -1.2,8.8 2.7,1.7 5.6,-0.8 6.8,-3.2 1.6,-1.4 -0.5,-3 -1.2,-0.9 -0.4,0.8 -2.4,3.5 -2.6,1.8 1.1,-5 2.7,-9.9 3.9,-14.9 l -0.1,-0.5 h -0.9 z m -65.1,0.2 c -6.5,1.6 -10.5,9.5 -8.2,15.7 2.1,3.4 7.4,2.9 10.1,0.4 2,-0.2 3.6,-5.3 1,-3.4 -1.4,2 -4,4.2 -6.5,2.8 -2.2,-1.9 -1.9,-5.7 1.7,-5.3 3.1,-0.9 6.9,-2.1 8.1,-5.5 0.9,-2.7 -1.6,-5.2 -4.3,-4.8 h -1.1 -0.7 z m 13.6,0 c -2.2,0 -8.5,1.8 -2.9,2.3 0.9,1.9 -1,4.9 -1.1,7.2 -0.5,2.9 -1.4,5.7 -1.7,8.7 3.7,0.7 3.8,-2.6 4.4,-5.3 0.9,-3.3 1.6,-7 4.1,-9.5 2.4,1.6 6.8,-0.7 3.7,-3.4 -2.9,-0.5 -4.8,2.4 -6.2,4.3 0,-1.2 2.4,-5 -0.2,-4.3 z m 15.8,0 c -6.4,1.3 -9.6,9.1 -7.7,14.9 1.9,4 7.7,3.9 11,1.7 4.1,-3 6,-8.9 4.4,-13.7 -1.3,-3 -4.8,-3.2 -7.6,-3 z m 17,0 c -2.3,0 -8.8,1.9 -3,2.4 0.4,2.5 -1,5.7 -1.4,8.4 -0.7,2.4 -1.8,7.5 2.1,7.2 3.8,-0.1 6.5,-3.5 8.5,-6.3 2,-3.2 4.5,-7 3.3,-10.9 -3.7,-3 -3.6,2.6 -3.1,5.1 -0.7,3.8 -2.7,7.9 -6.2,9.8 -3.6,0.6 -1,-4.3 -0.8,-6.1 0.6,-3.2 1.6,-6.3 1.9,-9.5 -0.4,0 -0.8,0 -1.1,0 z m 30.6,0 c -6.3,1.2 -9.5,8.9 -7.8,14.7 1.5,4 7.2,4.2 10.5,2.4 4.6,-2.8 6.6,-9.3 4.8,-14.3 -1.4,-2.8 -4.8,-3 -7.5,-2.8 z m -75.4,1.7 c 2.1,1.5 0.2,4.7 -1.6,5.7 -1.1,0.4 -5.5,3.4 -4.6,0.7 0.8,-2.7 2.2,-6.2 5.3,-6.6 l 0.9,0.1 z m 30.8,0 c 2.6,1.5 1.3,5.2 0.8,7.6 -0.8,2.7 -1.9,5.9 -4.7,7.1 -5.1,0.8 -4,-5.8 -2.8,-8.8 1,-2.8 3,-6.8 6.7,-5.8 z m 47.1,-0.1 c 2.9,0.7 2,4.7 1.5,6.8 -0.7,3 -1.8,6.7 -5,8 -4.7,0.8 -4,-5.1 -3,-7.9 0.9,-3 2.7,-7.3 6.5,-6.8 z m -88.1,5.9 c -0.3,1.3 0.9,-0.6 0,0 z m -1.1,2.4 c -0.2,0.5 0.5,-0.1 0,0 z m -1.3,4.5 c -0.3,1.3 0.8,-0.2 0,0 z" />
                     <text y="41" x="201" fill="#00000" style="font-style:italic;font-weight:normal;font-size:30px;line-height:125%;font-family:Times;text-anchor:middle" xml:space="preserve">engraved with</text>
                  </g>
               </g>
            </g>
         </g>
      </g>
   </svg>
</svg>
