<?xml version="1.0" encoding="UTF-8" standalone="no"?>
<svg width="2100px" height="2970px" version="1.1" xmlns="http://www.w3.org/2000/svg" xmlns:xlink="http://www.w3.org/1999/xlink" xmlns:mei="http://www.music-encoding.org/ns/mei" overflow="visible">
   <desc>Engraved by Verovio 3.13.1</desc>
   <defs>
      <symbol id="E044-173t6vr" viewBox="0 0 1000 1000" overflow="inherit">
         <path transform="scale(1,-1)" d="M0 0c0 28 22 50 50 50s50 -22 50 -50s-22 -50 -50 -50s-50 22 -50 50z" />
      </symbol>
      <symbol id="E050-173t6vr" viewBox="0 0 1000 1000" overflow="inherit">
         <path transform="scale(1,-1)" d="M441 -245c-23 -4 -48 -6 -76 -6c-59 0 -102 7 -130 20c-88 42 -150 93 -187 154c-26 44 -43 103 -48 176c0 6 -1 13 -1 19c0 54 15 111 45 170c29 57 65 106 110 148s96 85 153 127c-3 16 -8 46 -13 92c-4 43 -5 73 -5 89c0 117 16 172 69 257c34 54 64 82 89 82 c21 0 43 -30 69 -92s39 -115 41 -159v-15c0 -109 -21 -162 -67 -241c-13 -20 -63 -90 -98 -118c-13 -9 -25 -19 -37 -29l31 -181c8 1 18 2 28 2c58 0 102 -12 133 -35c59 -43 92 -104 98 -184c1 -7 1 -15 1 -22c0 -123 -87 -209 -181 -248c8 -57 17 -110 25 -162 c5 -31 6 -58 6 -80c0 -30 -5 -53 -14 -70c-35 -64 -88 -99 -158 -103c-5 0 -11 -1 -16 -1c-37 0 -72 10 -108 27c-50 24 -77 59 -80 105v11c0 29 7 55 20 76c18 28 45 42 79 44h6c49 0 93 -42 97 -87v-9c0 -51 -34 -86 -105 -106c17 -24 51 -36 102 -36c62 0 116 43 140 85 c9 16 13 41 13 74c0 20 -1 42 -5 67c-8 53 -18 106 -26 159zM461 939c-95 0 -135 -175 -135 -286c0 -24 2 -48 5 -71c50 39 92 82 127 128c40 53 60 100 60 140v8c-4 53 -22 81 -55 81h-2zM406 119l54 -326c73 25 110 78 110 161c0 7 0 15 -1 23c-7 95 -57 142 -151 142h-12 zM382 117c-72 -2 -128 -47 -128 -120v-7c2 -46 43 -99 75 -115c-3 -2 -7 -5 -10 -10c-70 33 -116 88 -123 172v11c0 68 44 126 88 159c23 17 49 29 78 36l-29 170c-21 -13 -52 -37 -92 -73c-50 -44 -86 -84 -109 -119c-45 -69 -67 -130 -67 -182v-13c5 -68 35 -127 93 -176 s125 -73 203 -73c25 0 50 3 75 9c-19 111 -36 221 -54 331z" />
      </symbol>
      <symbol id="E083-173t6vr" viewBox="0 0 1000 1000" overflow="inherit">
         <path transform="scale(1,-1)" d="M208 250c97 0 177 -52 177 -116c0 -69 -40 -111 -118 -125c56 -5 125 -44 125 -116c0 -31 -10 -57 -31 -78c-19 -21 -45 -38 -78 -49l-50 -11c-15 -3 -36 -7 -55 -7c-50 0 -86 16 -113 38c-16 10 -23 18 -34 34c-7 13 -11 25 -11 38c0 43 27 83 68 83l3 -2 c61 0 75 -42 75 -70c0 -19 -24 -42 -26 -57c7 -17 20 -25 37 -25c44 0 94 29 94 78c0 75 -34 125 -138 125v36c84 0 131 22 131 98c0 54 -37 88 -87 88c-26 0 -43 -7 -51 -22c15 -22 44 -16 44 -70c0 -37 -37 -62 -71 -62c-22 0 -69 15 -69 76c0 79 101 116 178 116z" />
      </symbol>
      <symbol id="E086-173t6vr" viewBox="0 0 1000 1000" overflow="inherit">
         <path transform="scale(1,-1)" d="M284 -91c0 37 -28 92 -67 92c-35 0 -65 -54 -65 -111c0 -52 22 -104 68 -104c47 0 64 68 64 123zM230 214c-36 0 -90 -33 -90 -184l2 -36c40 24 81 36 120 36c80 0 140 -48 140 -121c0 -99 -99 -159 -182 -159c-160 0 -200 173 -200 244c0 21 2 43 7 71l10 35 c26 85 73 115 98 126c41 19 74 24 103 24c93 0 142 -63 142 -105c0 -58 -52 -72 -73 -72c-33 0 -59 24 -65 35c-3 5 -6 14 -7 25l11 30c6 15 9 27 9 35c0 11 -9 16 -25 16z" />
      </symbol>
      <symbol id="E088-173t6vr" viewBox="0 0 1000 1000" overflow="inherit">
         <path transform="scale(1,-1)" d="M195 -214c76 0 88 58 90 68c0 34 -35 60 -57 73l-52 29c-21 10 -32 17 -34 20c-39 -33 -58 -54 -62 -92c5 -23 23 -98 115 -98zM301 135c0 61 -72 76 -113 76c-40 0 -77 -17 -77 -51c3 -21 15 -38 26 -50c17 -15 33 -26 48 -34l65 -28c34 27 51 56 51 87zM176 -250 c-57 0 -166 26 -166 132c0 47 30 86 89 116c-33 15 -79 60 -79 119c0 79 85 132 178 132h18c5 0 21 1 28 -1c25 0 126 -30 126 -110c0 -37 -23 -76 -69 -116c43 -25 83 -71 83 -119c0 -101 -118 -153 -208 -153z" />
      </symbol>
      <symbol id="E0A4-173t6vr" viewBox="0 0 1000 1000" overflow="inherit">
         <path transform="scale(1,-1)" d="M0 -39c0 68 73 172 200 172c66 0 114 -37 114 -95c0 -84 -106 -171 -218 -171c-64 0 -96 30 -96 94z" />
      </symbol>
      <symbol id="E240-173t6vr" viewBox="0 0 1000 1000" overflow="inherit">
         <path transform="scale(1,-1)" d="M179 -646c15 29 29 55 46 102c18 49 30 108 30 138c0 105 -80 173 -168 200c-18 5 -47 9 -87 16v190h22c8 0 33 -61 71 -95c4 -3 -2 3 61 -56c62 -58 122 -137 122 -241c0 -38 -13 -106 -35 -163c-20 -51 -43 -99 -66 -132c-6 -5 -10 -7 -13 -7s-5 2 -5 5l4 10 c1 3 14 25 18 33z" />
      </symbol>
      <symbol id="E241-173t6vr" viewBox="0 0 1000 1000" overflow="inherit">
         <path transform="scale(1,-1)" d="M179 646c-4 8 -17 30 -18 33l-4 10c0 3 2 5 5 5s7 -2 13 -7c23 -33 46 -81 66 -132c22 -57 35 -125 35 -163c0 -104 -60 -183 -122 -241c-63 -59 -57 -53 -61 -56c-38 -34 -63 -95 -71 -95h-22v190c40 7 69 11 87 16c88 27 168 95 168 200c0 30 -12 89 -30 138 c-17 47 -31 73 -46 102z" />
      </symbol>
      <symbol id="E260-173t6vr" viewBox="0 0 1000 1000" overflow="inherit">
         <path transform="scale(1,-1)" d="M20 110c32 16 54 27 93 27c26 0 35 -3 54 -13c13 -7 24 -20 27 -38l4 -25c0 -28 -16 -57 -45 -89c-23 -25 -39 -44 -65 -68l-88 -79v644h20v-359zM90 106c-32 0 -48 -10 -70 -29v-194c31 31 54 59 71 84c21 32 32 59 32 84c0 9 1 16 1 20c0 14 -3 21 -11 30l-8 3z" />
      </symbol>
   </defs>
   <style type="text/css">g.page-margin{font-family:Times;} g.ending, g.fing, g.reh, g.tempo{font-weight:bold;} g.dir, g.dynam, g.mNum{font-style:italic;} g.label{font-weight:normal;}</style>
   <svg class="definition-scale" color="black" viewBox="0 0 21000 29700">
      <g class="page-margin" transform="translate(500, 500)">
         <g id="mjgigz9" class="mdiv pageMilestone" />
         <g id="s1uabs4u" class="score pageMilestone" />
         <g id="s1ry8pba" class="system">
            <g id="lit2mst" class="label">
               <text x="1105" y="1536" text-anchor="end" font-size="0px">
                  <tspan id="tvw0suo" class="text">
                     <tspan font-size="405px" class="text">Piano</tspan>
                  </tspan>
               </text>
            </g>
            <g id="sdcvy33" class="section systemMilestone" />
            <g id="p1t5tla0" class="pb" />
            <g id="m1iiqfxj" class="measure">
               <g id="m3qc8z0" class="mNum">
                  <text x="1285" y="843" text-anchor="middle" font-size="0px" />
               </g>
               <g id="s1qu9o4b" class="staff">
                  <path d="M1285 1086 L4493 1086" stroke="currentColor" stroke-width="13" />
                  <path d="M1285 1266 L4493 1266" stroke="currentColor" stroke-width="13" />
                  <path d="M1285 1446 L4493 1446" stroke="currentColor" stroke-width="13" />
                  <path d="M1285 1626 L4493 1626" stroke="currentColor" stroke-width="13" />
                  <path d="M1285 1806 L4493 1806" stroke="currentColor" stroke-width="13" />
                  <g id="cdjdkmq" class="clef">
                     <use xlink:href="#E050-173t6vr" x="1375" y="1626" height="720px" width="720px" />
                  </g>
                  <g id="kjipihi" class="keySig">
                     <g id="k1fy0898" class="keyAccid">
                        <use xlink:href="#E260-173t6vr" x="2020" y="1446" height="720px" width="720px" />
                     </g>
                  </g>
                  <g id="mvunt4" class="meterSig">
                     <use xlink:href="#E086-173t6vr" x="2328" y="1266" height="720px" width="720px" />
                     <use xlink:href="#E088-173t6vr" x="2335" y="1626" height="720px" width="720px" />
                  </g>
                  <g id="l2cvtli" class="layer">
                     <g id="n1dl1ikw" class="note">
                        <g class="notehead">
                           <use xlink:href="#E0A4-173t6vr" x="2885" y="1626" height="720px" width="720px" />
                        </g>
                        <g id="s1dq9sjq" class="stem">
                           <rect x="3093" y="996" height="602" width="18" />
                        </g>
                     </g>
                     <g id="n1979kw8" class="note">
                        <g class="notehead">
                           <use xlink:href="#E0A4-173t6vr" x="3850" y="1716" height="720px" width="720px" />
                        </g>
                        <g id="slvpy2f" class="stem">
                           <rect x="4058" y="1086" height="602" width="18" />
                           <g id="f192vos3" class="flag">
                              <use xlink:href="#E240-173t6vr" x="4058" y="1086" height="720px" width="720px" />
                           </g>
                        </g>
                     </g>
                  </g>
               </g>
               <g id="b1gvo5jj" class="barLine">
                  <path d="M4480 1086 L4480 1806" stroke="currentColor" stroke-width="27" />
               </g>
            </g>
            <g id="me8ouq1" class="measure">
               <g id="s1h6ayjx" class="staff">
                  <path d="M4493 1086 L8170 1086" stroke="currentColor" stroke-width="13" />
                  <path d="M4493 1266 L8170 1266" stroke="currentColor" stroke-width="13" />
                  <path d="M4493 1446 L8170 1446" stroke="currentColor" stroke-width="13" />
                  <path d="M4493 1626 L8170 1626" stroke="currentColor" stroke-width="13" />
                  <path d="M4493 1806 L8170 1806" stroke="currentColor" stroke-width="13" />
                  <g class="ledgerLines below">
                     <path d="M6218 1986 L6540 1986" stroke="currentColor" stroke-width="22" />
                     <path d="M6848 1986 L7170 1986" stroke="currentColor" stroke-width="22" />
                     <path d="M7479 1986 L7801 1986" stroke="currentColor" stroke-width="22" />
                  </g>
                  <g id="l1w83dj1" class="layer">
                     <g id="n1phmb64" class="note">
                        <g class="notehead">
                           <use xlink:href="#E0A4-173t6vr" x="4671" y="1626" height="720px" width="720px" />
                        </g>
                        <g id="s10mz1vp" class="stem">
                           <rect x="4879" y="996" height="602" width="18" />
                        </g>
                     </g>
                     <g id="npuhq28" class="note">
                        <g class="notehead">
                           <use xlink:href="#E0A4-173t6vr" x="5636" y="1896" height="720px" width="720px" />
                        </g>
                        <g id="s14l7kt4" class="stem">
                           <rect x="5844" y="1266" height="602" width="18" />
                           <g id="f1476a70" class="flag">
                              <use xlink:href="#E240-173t6vr" x="5844" y="1266" height="720px" width="720px" />
                           </g>
                        </g>
                     </g>
                     <g id="b1i1loia" class="beam">
                        <polygon points="6474,1401 7753,1401 7753,1491 6474,1491" />
                        <g id="n1pmzc1e" class="note">
                           <g class="notehead">
                              <use xlink:href="#E0A4-173t6vr" x="6266" y="1986" height="720px" width="720px" />
                           </g>
                           <g id="s56odxa" class="stem">
                              <rect x="6474" y="1419" height="539" width="18" />
                           </g>
                        </g>
                        <g id="nfshaxa" class="note">
                           <g class="notehead">
                              <use xlink:href="#E0A4-173t6vr" x="6896" y="2076" height="720px" width="720px" />
                           </g>
                           <g id="s13hcpb7" class="stem">
                              <rect x="7104" y="1419" height="629" width="18" />
                           </g>
                           <g id="a2ocnnk" class="accid" />
                        </g>
                        <g id="n1ymt4h0" class="note">
                           <g class="notehead">
                              <use xlink:href="#E0A4-173t6vr" x="7527" y="1986" height="720px" width="720px" />
                           </g>
                           <g id="s1e47d3w" class="stem">
                              <rect x="7735" y="1419" height="539" width="18" />
                           </g>
                        </g>
                     </g>
                  </g>
               </g>
               <g id="bhpw6fa" class="barLine">
                  <path d="M8157 1086 L8157 1806" stroke="currentColor" stroke-width="27" />
               </g>
            </g>
            <g id="myhpdvm" class="measure">
               <g id="s1c8dt12" class="staff">
                  <path d="M8170 1086 L11847 1086" stroke="currentColor" stroke-width="13" />
                  <path d="M8170 1266 L11847 1266" stroke="currentColor" stroke-width="13" />
                  <path d="M8170 1446 L11847 1446" stroke="currentColor" stroke-width="13" />
                  <path d="M8170 1626 L11847 1626" stroke="currentColor" stroke-width="13" />
                  <path d="M8170 1806 L11847 1806" stroke="currentColor" stroke-width="13" />
                  <g id="l1oj8xat" class="layer">
                     <g id="b18bse61" class="beam">
                        <polygon points="8556,1266 9834,1086 9834,1176 8556,1356" />
                        <g id="n1i4luq9" class="note">
                           <g class="notehead">
                              <use xlink:href="#E0A4-173t6vr" x="8348" y="1896" height="720px" width="720px" />
                           </g>
                           <g id="snwb2y0" class="stem">
                              <rect x="8556" y="1284" height="584" width="18" />
                           </g>
                        </g>
                        <g id="n1jfcda8" class="note">
                           <g class="notehead">
                              <use xlink:href="#E0A4-173t6vr" x="8978" y="1806" height="720px" width="720px" />
                           </g>
                           <g id="sws18y0" class="stem">
                              <rect x="9186" y="1194" height="584" width="18" />
                           </g>
                        </g>
                        <g id="n1e6vdlo" class="note">
                           <g class="notehead">
                              <use xlink:href="#E0A4-173t6vr" x="9608" y="1716" height="720px" width="720px" />
                           </g>
                           <g id="s6ufg1l" class="stem">
                              <rect x="9816" y="1104" height="584" width="18" />
                           </g>
                        </g>
                     </g>
                     <g id="ntz4bh4" class="note">
                        <g class="notehead">
                           <use xlink:href="#E0A4-173t6vr" x="10238" y="1626" height="720px" width="720px" />
                        </g>
                        <g id="slj1sof" class="stem">
                           <rect x="10446" y="996" height="602" width="18" />
                        </g>
                     </g>
                     <g id="n1qf72nv" class="note">
                        <g class="notehead">
                           <use xlink:href="#E0A4-173t6vr" x="11204" y="1716" height="720px" width="720px" />
                        </g>
                        <g id="s11z3mag" class="stem">
                           <rect x="11412" y="1086" height="602" width="18" />
                           <g id="f1ka47i5" class="flag">
                              <use xlink:href="#E240-173t6vr" x="11412" y="1086" height="720px" width="720px" />
                           </g>
                        </g>
                     </g>
                  </g>
               </g>
               <g id="bu3x9sl" class="barLine">
                  <path d="M11834 1086 L11834 1806" stroke="currentColor" stroke-width="27" />
               </g>
            </g>
            <g id="mbrwh5z" class="measure">
               <g id="spebw48" class="staff">
                  <path d="M11847 1086 L15524 1086" stroke="currentColor" stroke-width="13" />
                  <path d="M11847 1266 L15524 1266" stroke="currentColor" stroke-width="13" />
                  <path d="M11847 1446 L15524 1446" stroke="currentColor" stroke-width="13" />
                  <path d="M11847 1626 L15524 1626" stroke="currentColor" stroke-width="13" />
                  <path d="M11847 1806 L15524 1806" stroke="currentColor" stroke-width="13" />
                  <g class="ledgerLines below">
                     <path d="M13572 1986 L13894 1986" stroke="currentColor" stroke-width="22" />
                     <path d="M14202 1986 L14524 1986" stroke="currentColor" stroke-width="22" />
                     <path d="M14833 1986 L15155 1986" stroke="currentColor" stroke-width="22" />
                  </g>
                  <g id="lewxt6h" class="layer">
                     <g id="n15bvyuc" class="note">
                        <g class="notehead">
                           <use xlink:href="#E0A4-173t6vr" x="12025" y="1626" height="720px" width="720px" />
                        </g>
                        <g id="s1jm6bzr" class="stem">
                           <rect x="12233" y="996" height="602" width="18" />
                        </g>
                     </g>
                     <g id="ntybqiz" class="note">
                        <g class="notehead">
                           <use xlink:href="#E0A4-173t6vr" x="12990" y="1896" height="720px" width="720px" />
                        </g>
                        <g id="sb0ffyb" class="stem">
                           <rect x="13198" y="1266" height="602" width="18" />
                           <g id="f19c17nh" class="flag">
                              <use xlink:href="#E240-173t6vr" x="13198" y="1266" height="720px" width="720px" />
                           </g>
                        </g>
                     </g>
                     <g id="b1fbve51" class="beam">
                        <polygon points="13828,1401 15107,1401 15107,1491 13828,1491" />
                        <g id="nn74jui" class="note">
                           <g class="notehead">
                              <use xlink:href="#E0A4-173t6vr" x="13620" y="1986" height="720px" width="720px" />
                           </g>
                           <g id="sb87hy9" class="stem">
                              <rect x="13828" y="1419" height="539" width="18" />
                           </g>
                        </g>
                        <g id="n15l6ir8" class="note">
                           <g class="notehead">
                              <use xlink:href="#E0A4-173t6vr" x="14250" y="2076" height="720px" width="720px" />
                           </g>
                           <g id="s1fwb26x" class="stem">
                              <rect x="14458" y="1419" height="629" width="18" />
                           </g>
                           <g id="a1bm6nr8" class="accid" />
                        </g>
                        <g id="n1m1zsni" class="note">
                           <g class="notehead">
                              <use xlink:href="#E0A4-173t6vr" x="14881" y="1986" height="720px" width="720px" />
                           </g>
                           <g id="sciiomi" class="stem">
                              <rect x="15089" y="1419" height="539" width="18" />
                           </g>
                        </g>
                     </g>
                  </g>
               </g>
               <g id="b1i3eylf" class="barLine">
                  <path d="M15511 1086 L15511 1806" stroke="currentColor" stroke-width="27" />
               </g>
            </g>
            <g id="mpthbqb" class="measure">
               <g id="s3jto5a" class="staff">
                  <path d="M15524 1086 L17763 1086" stroke="currentColor" stroke-width="13" />
                  <path d="M15524 1266 L17763 1266" stroke="currentColor" stroke-width="13" />
                  <path d="M15524 1446 L17763 1446" stroke="currentColor" stroke-width="13" />
                  <path d="M15524 1626 L17763 1626" stroke="currentColor" stroke-width="13" />
                  <path d="M15524 1806 L17763 1806" stroke="currentColor" stroke-width="13" />
                  <g id="m1rycwu8" class="meterSig">
                     <use xlink:href="#E083-173t6vr" x="15604" y="1266" height="720px" width="720px" />
                     <use xlink:href="#E088-173t6vr" x="15607" y="1626" height="720px" width="720px" />
                  </g>
                  <g id="la42wz1" class="layer">
                     <g id="n1ows1xu" class="note">
                        <g class="notehead">
                           <use xlink:href="#E0A4-173t6vr" x="16153" y="1896" height="720px" width="720px" />
                        </g>
                        <g id="d18sahwg" class="dots">
                           <ellipse cx="16469" cy="1896" rx="36" ry="36" />
                        </g>
                        <g id="s126afru" class="stem">
                           <rect x="16361" y="1266" height="602" width="18" />
                        </g>
                     </g>
                  </g>
               </g>
               <g id="b1nx02we" class="barLine">
                  <path d="M17385 1086 L17385 1806" stroke="currentColor" stroke-width="27" />
                  <path d="M17515 1086 L17515 1806" stroke="currentColor" stroke-width="90" />
                  <path d="M17646 1086 L17646 1806" stroke="currentColor" stroke-width="27" />
                  <use xlink:href="#E044-173t6vr" x="17691" y="1356" height="720px" width="720px" />
                  <use xlink:href="#E044-173t6vr" x="17691" y="1536" height="720px" width="720px" />
                  <use xlink:href="#E044-173t6vr" x="17268" y="1356" height="720px" width="720px" />
                  <use xlink:href="#E044-173t6vr" x="17268" y="1536" height="720px" width="720px" />
               </g>
            </g>
            <g id="m1wy9unh" class="measure">
               <g id="slmbexn" class="staff">
                  <path d="M17763 1086 L20004 1086" stroke="currentColor" stroke-width="13" />
                  <path d="M17763 1266 L20004 1266" stroke="currentColor" stroke-width="13" />
                  <path d="M17763 1446 L20004 1446" stroke="currentColor" stroke-width="13" />
                  <path d="M17763 1626 L20004 1626" stroke="currentColor" stroke-width="13" />
                  <path d="M17763 1806 L20004 1806" stroke="currentColor" stroke-width="13" />
                  <g id="l107gh2i" class="layer">
                     <g id="n1xyvsuh" class="note">
                        <g class="notehead">
                           <use xlink:href="#E0A4-173t6vr" x="17941" y="1626" height="720px" width="720px" />
                        </g>
                        <g id="s1m25em4" class="stem">
                           <rect x="18149" y="996" height="602" width="18" />
                        </g>
                     </g>
                     <g id="n17a1sfx" class="note">
                        <g class="notehead">
                           <use xlink:href="#E0A4-173t6vr" x="18906" y="1446" height="720px" width="720px" />
                        </g>
                        <g id="sfugs6n" class="stem">
                           <rect x="18906" y="1474" height="572" width="18" />
                           <g id="f3ufvd2" class="flag">
                              <use xlink:href="#E241-173t6vr" x="18906" y="2046" height="720px" width="720px" />
                           </g>
                        </g>
                        <g id="aednltp" class="accid" />
                     </g>
                  </g>
                  <g id="m19xep55" class="meterSig">
                     <use xlink:href="#E086-173t6vr" x="19625" y="1266" height="720px" width="720px" />
                     <use xlink:href="#E088-173t6vr" x="19632" y="1626" height="720px" width="720px" />
                  </g>
               </g>
               <g id="b5ldqwl" class="barLine">
                  <path d="M19536 1086 L19536 1806" stroke="currentColor" stroke-width="27" />
               </g>
            </g>
         </g>
         <g id="s186do0w" class="system">
            <g id="l1k8i0gf" class="labelAbbr">
               <text x="914" y="3826" text-anchor="end" font-size="0px">
                  <tspan id="tcuxk4k" class="text">
                     <tspan font-size="405px" class="text">Pno.</tspan>
                  </tspan>
               </text>
            </g>
            <g id="m1myeejt" class="measure">
               <g id="ma877oa" class="mNum autogenerated">
                  <text x="1094" y="3133" text-anchor="middle" font-size="0px">
                     <tspan id="t1m7zcth" class="text">
                        <tspan font-size="324px" class="text">6</tspan>
                     </tspan>
                  </text>
               </g>
               <g id="s3u1t8c" class="staff">
                  <path d="M1094 3376 L6543 3376" stroke="currentColor" stroke-width="13" />
                  <path d="M1094 3556 L6543 3556" stroke="currentColor" stroke-width="13" />
                  <path d="M1094 3736 L6543 3736" stroke="currentColor" stroke-width="13" />
                  <path d="M1094 3916 L6543 3916" stroke="currentColor" stroke-width="13" />
                  <path d="M1094 4096 L6543 4096" stroke="currentColor" stroke-width="13" />
                  <g id="c124szlm" class="clef">
                     <use xlink:href="#E050-173t6vr" x="1184" y="3916" height="720px" width="720px" />
                  </g>
                  <g id="ka8tul6" class="keySig">
                     <g id="kplj81o" class="keyAccid">
                        <use xlink:href="#E260-173t6vr" x="1829" y="3736" height="720px" width="720px" />
                     </g>
                  </g>
                  <g id="m1aa3px4" class="meterSig">
                     <use xlink:href="#E086-173t6vr" x="2137" y="3556" height="720px" width="720px" />
                     <use xlink:href="#E088-173t6vr" x="2144" y="3916" height="720px" width="720px" />
                  </g>
                  <g id="lejuvv7" class="layer">
                     <g id="b1fx2moh" class="beam">
                        <polygon points="2904,3196 4200,3376 4200,3466 2904,3286" />
                        <g id="n1hm5zbe" class="note">
                           <g class="notehead">
                              <use xlink:href="#E0A4-173t6vr" x="2696" y="3826" height="720px" width="720px" />
                           </g>
                           <g id="s15f6f2q" class="stem">
                              <rect x="2904" y="3214" height="584" width="18" />
                           </g>
                        </g>
                        <g id="nzab96p" class="note">
                           <g class="notehead">
                              <use xlink:href="#E0A4-173t6vr" x="3335" y="3916" height="720px" width="720px" />
                           </g>
                           <g id="s1q0h2ch" class="stem">
                              <rect x="3543" y="3304" height="584" width="18" />
                           </g>
                        </g>
                        <g id="n8kad5e" class="note">
                           <g class="notehead">
                              <use xlink:href="#E0A4-173t6vr" x="3974" y="4006" height="720px" width="720px" />
                           </g>
                           <g id="sa02hse" class="stem">
                              <rect x="4182" y="3394" height="584" width="18" />
                           </g>
                        </g>
                     </g>
                     <g id="brvxsyc" class="beam">
                        <polygon points="4821,3331 6117,3151 6117,3241 4821,3421" />
                        <g id="n1uxgqxk" class="note">
                           <g class="notehead">
                              <use xlink:href="#E0A4-173t6vr" x="4613" y="3916" height="720px" width="720px" />
                           </g>
                           <g id="sbft9s9" class="stem">
                              <rect x="4821" y="3349" height="539" width="18" />
                           </g>
                        </g>
                        <g id="n1gyrdex" class="note">
                           <g class="notehead">
                              <use xlink:href="#E0A4-173t6vr" x="5252" y="3826" height="720px" width="720px" />
                           </g>
                           <g id="s1h5vlep" class="stem">
                              <rect x="5460" y="3259" height="539" width="18" />
                           </g>
                        </g>
                        <g id="n3lnqx5" class="note">
                           <g class="notehead">
                              <use xlink:href="#E0A4-173t6vr" x="5891" y="3736" height="720px" width="720px" />
                           </g>
                           <g id="sy1lr4b" class="stem">
                              <rect x="6099" y="3169" height="539" width="18" />
                           </g>
                           <g id="af7ndq0" class="accid" />
                        </g>
                     </g>
                  </g>
               </g>
               <g id="bhhnf52" class="barLine">
                  <path d="M6530 3376 L6530 4096" stroke="currentColor" stroke-width="27" />
               </g>
            </g>
            <g id="m18k0ooq" class="measure">
               <g id="sjenet7" class="staff">
                  <path d="M6543 3376 L10271 3376" stroke="currentColor" stroke-width="13" />
                  <path d="M6543 3556 L10271 3556" stroke="currentColor" stroke-width="13" />
                  <path d="M6543 3736 L10271 3736" stroke="currentColor" stroke-width="13" />
                  <path d="M6543 3916 L10271 3916" stroke="currentColor" stroke-width="13" />
                  <path d="M6543 4096 L10271 4096" stroke="currentColor" stroke-width="13" />
                  <g id="l4kwz9a" class="layer">
                     <g id="bsft22l" class="beam">
                        <polygon points="6931,3196 8227,3196 8227,3286 6931,3286" />
                        <g id="nja3rkq" class="note">
                           <g class="notehead">
                              <use xlink:href="#E0A4-173t6vr" x="6723" y="3826" height="720px" width="720px" />
                           </g>
                           <g id="svqjnvd" class="stem">
                              <rect x="6931" y="3214" height="584" width="18" />
                           </g>
                        </g>
                        <g id="n1nx7z60" class="note">
                           <g class="notehead">
                              <use xlink:href="#E0A4-173t6vr" x="7362" y="3916" height="720px" width="720px" />
                           </g>
                           <g id="ssfpwag" class="stem">
                              <rect x="7570" y="3214" height="674" width="18" />
                           </g>
                        </g>
                        <g id="n1mls4eg" class="note">
                           <g class="notehead">
                              <use xlink:href="#E0A4-173t6vr" x="8001" y="3826" height="720px" width="720px" />
                           </g>
                           <g id="s40n6ps" class="stem">
                              <rect x="8209" y="3214" height="584" width="18" />
                           </g>
                        </g>
                     </g>
                     <g id="n1mu14eg" class="note">
                        <g class="notehead">
                           <use xlink:href="#E0A4-173t6vr" x="8640" y="3916" height="720px" width="720px" />
                        </g>
                        <g id="sz25o5c" class="stem">
                           <rect x="8848" y="3286" height="602" width="18" />
                        </g>
                     </g>
                     <g id="n1qhtn48" class="note">
                        <g class="notehead">
                           <use xlink:href="#E0A4-173t6vr" x="9619" y="3736" height="720px" width="720px" />
                        </g>
                        <g id="sauook3" class="stem">
                           <rect x="9619" y="3764" height="572" width="18" />
                           <g id="fv1evhl" class="flag">
                              <use xlink:href="#E241-173t6vr" x="9619" y="4336" height="720px" width="720px" />
                           </g>
                        </g>
                        <g id="a15e5zcd" class="accid" />
                     </g>
                  </g>
               </g>
               <g id="b2qkxam" class="barLine">
                  <path d="M10258 3376 L10258 4096" stroke="currentColor" stroke-width="27" />
               </g>
            </g>
            <g id="s1ydb3oc" class="sb" />
            <g id="m18orito" class="measure">
               <g id="sv6uh2k" class="staff">
                  <path d="M10271 3376 L14298 3376" stroke="currentColor" stroke-width="13" />
                  <path d="M10271 3556 L14298 3556" stroke="currentColor" stroke-width="13" />
                  <path d="M10271 3736 L14298 3736" stroke="currentColor" stroke-width="13" />
                  <path d="M10271 3916 L14298 3916" stroke="currentColor" stroke-width="13" />
                  <path d="M10271 4096 L14298 4096" stroke="currentColor" stroke-width="13" />
                  <g id="l14vayoj" class="layer">
                     <g id="b1piygui" class="beam">
                        <polygon points="10659,3196 11955,3376 11955,3466 10659,3286" />
                        <g id="n16t5jbh" class="note">
                           <g class="notehead">
                              <use xlink:href="#E0A4-173t6vr" x="10451" y="3826" height="720px" width="720px" />
                           </g>
                           <g id="sbx409b" class="stem">
                              <rect x="10659" y="3214" height="584" width="18" />
                           </g>
                        </g>
                        <g id="nwihrrd" class="note">
                           <g class="notehead">
                              <use xlink:href="#E0A4-173t6vr" x="11090" y="3916" height="720px" width="720px" />
                           </g>
                           <g id="s1sjqq6t" class="stem">
                              <rect x="11298" y="3304" height="584" width="18" />
                           </g>
                        </g>
                        <g id="nmlxfdl" class="note">
                           <g class="notehead">
                              <use xlink:href="#E0A4-173t6vr" x="11729" y="4006" height="720px" width="720px" />
                           </g>
                           <g id="sf71uug" class="stem">
                              <rect x="11937" y="3394" height="584" width="18" />
                           </g>
                        </g>
                     </g>
                     <g id="bd53y9e" class="beam">
                        <polygon points="12576,3331 13872,3151 13872,3241 12576,3421" />
                        <g id="n2gcn15" class="note">
                           <g class="notehead">
                              <use xlink:href="#E0A4-173t6vr" x="12368" y="3916" height="720px" width="720px" />
                           </g>
                           <g id="sr2u3ec" class="stem">
                              <rect x="12576" y="3349" height="539" width="18" />
                           </g>
                        </g>
                        <g id="nlva2ap" class="note">
                           <g class="notehead">
                              <use xlink:href="#E0A4-173t6vr" x="13007" y="3826" height="720px" width="720px" />
                           </g>
                           <g id="s1eqdhmk" class="stem">
                              <rect x="13215" y="3259" height="539" width="18" />
                           </g>
                        </g>
                        <g id="n1xbenff" class="note">
                           <g class="notehead">
                              <use xlink:href="#E0A4-173t6vr" x="13646" y="3736" height="720px" width="720px" />
                           </g>
                           <g id="s14ygwr6" class="stem">
                              <rect x="13854" y="3169" height="539" width="18" />
                           </g>
                           <g id="a8ra88w" class="accid" />
                        </g>
                     </g>
                  </g>
               </g>
               <g id="b1esv88b" class="barLine">
                  <path d="M14285 3376 L14285 4096" stroke="currentColor" stroke-width="27" />
               </g>
            </g>
            <g id="mmhmuck" class="measure">
               <g id="s1h9mnqw" class="staff">
                  <path d="M14298 3376 L16353 3376" stroke="currentColor" stroke-width="13" />
                  <path d="M14298 3556 L16353 3556" stroke="currentColor" stroke-width="13" />
                  <path d="M14298 3736 L16353 3736" stroke="currentColor" stroke-width="13" />
                  <path d="M14298 3916 L16353 3916" stroke="currentColor" stroke-width="13" />
                  <path d="M14298 4096 L16353 4096" stroke="currentColor" stroke-width="13" />
                  <g id="ma3oltt" class="meterSig">
                     <use xlink:href="#E083-173t6vr" x="14378" y="3556" height="720px" width="720px" />
                     <use xlink:href="#E088-173t6vr" x="14381" y="3916" height="720px" width="720px" />
                  </g>
                  <g id="l1ubzopz" class="layer">
                     <g id="nobmff3" class="note">
                        <g class="notehead">
                           <use xlink:href="#E0A4-173t6vr" x="14929" y="3916" height="720px" width="720px" />
                        </g>
                        <g id="d1vuedtt" class="dots">
                           <ellipse cx="15245" cy="3826" rx="36" ry="36" />
                        </g>
                        <g id="s1d98nv7" class="stem">
                           <rect x="15137" y="3286" height="602" width="18" />
                        </g>
                     </g>
                  </g>
               </g>
               <g id="b1i3qg7h" class="barLine">
                  <path d="M16178 3376 L16178 4096" stroke="currentColor" stroke-width="27" />
                  <path d="M16308 3376 L16308 4096" stroke="currentColor" stroke-width="90" />
               </g>
            </g>
            <g id="sax7mmv" class="systemMilestoneEnd sdcvy33" />
         </g>
         <g id="p8ec8nb" class="pageMilestoneEnd s1uabs4u" />
         <g id="p1h0n4sc" class="pageMilestoneEnd mjgigz9" />
         <g id="pkqxaw7" class="pgHead">
            <text x="0" y="0" font-size="0px">
               <tspan id="rgiau1l" class="rend" x="10000" y="278" text-anchor="middle">
                  <tspan id="t1yyxj08" class="text">
                     <tspan font-size="405px" class="text">Air n 116</tspan>
                  </tspan>
               </tspan>
            </text>
         </g>
         <g id="pfesozt" class="pgFoot autogenerated">
            <g id="f1tvl42a" class="fig">
               <g id="sfscaxk" class="svg" transform="translate(7750, 28099) scale(10, 10)">
                  <g>
                     <path fill="#00000" d="M 17.11278,49.26451 V 10.367554 h 12.696511 c 3.288815,7.336676 6.71267,14.610456 10.127281,21.888976 3.419998,-7.484684 6.255515,-14.204887 9.58887,-21.909915 2.436207,0.103726 4.316952,0.08453 6.484294,-0.05808 V 49.264423 H 50.274275 C 50.145222,38.35639 50.016136,27.448368 49.887066,16.540329 45.003488,27.315459 39.967448,38.433564 35.083854,49.208695 34.678996,49.343717 34.426583,49.135619 34.021726,49.270644 29.46588,39.330716 24.910049,29.390805 20.354201,19.450876 20.224341,29.388756 20.09461,39.326619 19.964815,49.264497 H 17.11278 Z M 36.754144,39.324695 C 32.721221,30.512695 28.6883,21.700679 24.655394,12.888662 22.530527,12.750737 22.656775,12.71031 20.714356,12.813974 v 0.966497 c 4.612938,9.99784 9.609439,20.748709 13.87298,30.081745 0.722248,-1.512523 1.444528,-3.025014 2.166808,-4.537521 z m 25.738417,9.939815 c 0,-12.965651 0,-25.931305 0,-38.896956 10.084388,0 20.168791,0 30.253178,0 0,0.960416 0,1.920849 0,2.881265 -6.482825,0 -12.965652,0 -19.448478,0 0,4.802097 0,9.604178 0,14.406277 5.52241,0 11.044819,0 16.567229,0 0,0.960415 0,1.920832 0,2.881248 -5.52241,0 -11.044819,0 -16.567229,0 0,5.282306 0,10.564611 0,15.846917 6.963035,0 13.926068,0 20.889103,0 0,0.960416 0,1.920832 0,2.881249 -10.564597,0 -21.129207,0 -31.693803,0 z m 4.321874,-2.160937 c 0,-11.765131 0,-23.530263 0,-35.295394 -0.720312,0 -1.440625,0 -2.160937,0 0,11.765131 0,23.530263 0,35.295394 0.720312,0 1.440625,0 2.160937,0 z m 32.41413,2.160937 c 0,-12.965651 0,-25.931305 0,-38.896956 2.401045,0 4.802095,0 7.203135,0 0,12.965651 0,25.931305 0,38.896956 -2.40104,0 -4.80209,0 -7.203135,0 z m 2.881265,-2.160937 c 0,-11.765131 0,-23.530263 0,-35.295394 -0.72031,0 -1.44064,0 -2.160953,0 0,11.765131 0,23.530263 0,35.295394 0.720313,0 1.440643,0 2.160953,0 z" />
                     <path fill="#00000" d="m 346.3,6.7 c -3.1,0.5 -4.9,4.4 -2.7,6.8 1.2,1.4 2.7,2.4 4.1,3.5 -2.4,5.3 -7.7,8.3 -11.9,12.1 -3.7,2.8 -7,6.2 -9.7,9.9 -2.2,-0.8 -0.3,-6.8 -0.6,-9.5 0.1,-3.1 0.7,-6.4 2.9,-8.7 1.3,-1.9 3,-3.5 4.5,-5.2 1.2,-3.4 -3.2,-4.9 -5.8,-4.6 -7.3,-0.5 -14.6,2 -20,6.8 -5,4.6 -10,10.1 -11.5,17 -0.9,3.5 -0.2,7.5 2.8,9.9 2.5,2.8 7.4,2.9 9.8,-0.2 1.7,-2.3 3.2,-4.8 3.8,-7.6 -0.1,-2.6 -4.4,-2.3 -4.3,0.2 1.2,2.4 -0.9,4.7 -2.7,6.2 -1.7,0.9 -4.7,0.7 -4.8,-1.7 -1,-5.8 2.1,-11.3 5.2,-16.1 4,-5.8 9.8,-11.2 17.2,-11.8 1.6,0 8.1,-1.2 6.8,1.4 -2.8,2.8 -5.6,6.1 -6,10.3 -1.6,7.7 0.1,15.7 -2.3,23.2 -1.1,3.9 2,2.6 2.5,0.2 3.3,-7.4 8.9,-13.4 15.1,-18.5 4.2,-3.9 9.5,-7.1 11.9,-12.6 1.3,-3.6 1.2,-9 -2.7,-10.9 -0.6,-0.2 -1.2,-0.3 -1.8,-0.3 z m 66,14.5 c -2,0.8 -1.8,4.9 0.8,4.4 3.4,0.4 2.9,-6.2 -0.8,-4.4 z m 0.6,7.3 c -1.3,0.5 -7.6,0.5 -5.4,2.2 4,-0.3 0.7,4.5 0.6,6.7 -0.4,2.9 -2.4,5.9 -1.2,8.8 2.7,1.7 5.6,-0.8 6.8,-3.2 1.6,-1.4 -0.5,-3 -1.2,-0.9 -0.4,0.8 -2.4,3.5 -2.6,1.8 1.1,-5 2.7,-9.9 3.9,-14.9 l -0.1,-0.5 h -0.9 z m -65.1,0.2 c -6.5,1.6 -10.5,9.5 -8.2,15.7 2.1,3.4 7.4,2.9 10.1,0.4 2,-0.2 3.6,-5.3 1,-3.4 -1.4,2 -4,4.2 -6.5,2.8 -2.2,-1.9 -1.9,-5.7 1.7,-5.3 3.1,-0.9 6.9,-2.1 8.1,-5.5 0.9,-2.7 -1.6,-5.2 -4.3,-4.8 h -1.1 -0.7 z m 13.6,0 c -2.2,0 -8.5,1.8 -2.9,2.3 0.9,1.9 -1,4.9 -1.1,7.2 -0.5,2.9 -1.4,5.7 -1.7,8.7 3.7,0.7 3.8,-2.6 4.4,-5.3 0.9,-3.3 1.6,-7 4.1,-9.5 2.4,1.6 6.8,-0.7 3.7,-3.4 -2.9,-0.5 -4.8,2.4 -6.2,4.3 0,-1.2 2.4,-5 -0.2,-4.3 z m 15.8,0 c -6.4,1.3 -9.6,9.1 -7.7,14.9 1.9,4 7.7,3.9 11,1.7 4.1,-3 6,-8.9 4.4,-13.7 -1.3,-3 -4.8,-3.2 -7.6,-3 z m 17,0 c -2.3,0 -8.8,1.9 -3,2.4 0.4,2.5 -1,5.7 -1.4,8.4 -0.7,2.4 -1.8,7.5 2.1,7.2 3.8,-0.1 6.5,-3.5 8.5,-6.3 2,-3.2 4.5,-7 3.3,-10.9 -3.7,-3 -3.6,2.6 -3.1,5.1 -0.7,3.8 -2.7,7.9 -6.2,9.8 -3.6,0.6 -1,-4.3 -0.8,-6.1 0.6,-3.2 1.6,-6.3 1.9,-9.5 -0.4,0 -0.8,0 -1.1,0 z m 30.6,0 c -6.3,1.2 -9.5,8.9 -7.8,14.7 1.5,4 7.2,4.2 10.5,2.4 4.6,-2.8 6.6,-9.3 4.8,-14.3 -1.4,-2.8 -4.8,-3 -7.5,-2.8 z m -75.4,1.7 c 2.1,1.5 0.2,4.7 -1.6,5.7 -1.1,0.4 -5.5,3.4 -4.6,0.7 0.8,-2.7 2.2,-6.2 5.3,-6.6 l 0.9,0.1 z m 30.8,0 c 2.6,1.5 1.3,5.2 0.8,7.6 -0.8,2.7 -1.9,5.9 -4.7,7.1 -5.1,0.8 -4,-5.8 -2.8,-8.8 1,-2.8 3,-6.8 6.7,-5.8 z m 47.1,-0.1 c 2.9,0.7 2,4.7 1.5,6.8 -0.7,3 -1.8,6.7 -5,8 -4.7,0.8 -4,-5.1 -3,-7.9 0.9,-3 2.7,-7.3 6.5,-6.8 z m -88.1,5.9 c -0.3,1.3 0.9,-0.6 0,0 z m -1.1,2.4 c -0.2,0.5 0.5,-0.1 0,0 z m -1.3,4.5 c -0.3,1.3 0.8,-0.2 0,0 z" />
                     <text y="41" x="201" fill="#00000" style="font-style:italic;font-weight:normal;font-size:30px;line-height:125%;font-family:Times;text-anchor:middle" xml:space="preserve">engraved with</text>
                  </g>
               </g>
            </g>
         </g>
      </g>
   </svg>
</svg>
