<?xml version="1.0" encoding="UTF-8" standalone="no"?>
<svg width="2100px" height="2970px" version="1.1" xmlns="http://www.w3.org/2000/svg" xmlns:xlink="http://www.w3.org/1999/xlink" xmlns:mei="http://www.music-encoding.org/ns/mei" overflow="visible">
   <desc>Engraved by Verovio 3.13.1</desc>
   <defs>
      <symbol id="E262-hr5skw" viewBox="0 0 1000 1000" overflow="inherit">
         <path transform="scale(1,-1)" d="M136 186v169h17v-164l44 14v-91l-44 -14v-165l44 12v-91l-44 -13v-155h-17v150l-76 -22v-155h-17v149l-43 -13v90l43 14v167l-43 -14v92l43 13v169h17v-163zM60 73v-167l76 22v168z" />
      </symbol>
      <symbol id="E044-hr5skw" viewBox="0 0 1000 1000" overflow="inherit">
         <path transform="scale(1,-1)" d="M0 0c0 28 22 50 50 50s50 -22 50 -50s-22 -50 -50 -50s-50 22 -50 50z" />
      </symbol>
      <symbol id="E050-hr5skw" viewBox="0 0 1000 1000" overflow="inherit">
         <path transform="scale(1,-1)" d="M441 -245c-23 -4 -48 -6 -76 -6c-59 0 -102 7 -130 20c-88 42 -150 93 -187 154c-26 44 -43 103 -48 176c0 6 -1 13 -1 19c0 54 15 111 45 170c29 57 65 106 110 148s96 85 153 127c-3 16 -8 46 -13 92c-4 43 -5 73 -5 89c0 117 16 172 69 257c34 54 64 82 89 82 c21 0 43 -30 69 -92s39 -115 41 -159v-15c0 -109 -21 -162 -67 -241c-13 -20 -63 -90 -98 -118c-13 -9 -25 -19 -37 -29l31 -181c8 1 18 2 28 2c58 0 102 -12 133 -35c59 -43 92 -104 98 -184c1 -7 1 -15 1 -22c0 -123 -87 -209 -181 -248c8 -57 17 -110 25 -162 c5 -31 6 -58 6 -80c0 -30 -5 -53 -14 -70c-35 -64 -88 -99 -158 -103c-5 0 -11 -1 -16 -1c-37 0 -72 10 -108 27c-50 24 -77 59 -80 105v11c0 29 7 55 20 76c18 28 45 42 79 44h6c49 0 93 -42 97 -87v-9c0 -51 -34 -86 -105 -106c17 -24 51 -36 102 -36c62 0 116 43 140 85 c9 16 13 41 13 74c0 20 -1 42 -5 67c-8 53 -18 106 -26 159zM461 939c-95 0 -135 -175 -135 -286c0 -24 2 -48 5 -71c50 39 92 82 127 128c40 53 60 100 60 140v8c-4 53 -22 81 -55 81h-2zM406 119l54 -326c73 25 110 78 110 161c0 7 0 15 -1 23c-7 95 -57 142 -151 142h-12 zM382 117c-72 -2 -128 -47 -128 -120v-7c2 -46 43 -99 75 -115c-3 -2 -7 -5 -10 -10c-70 33 -116 88 -123 172v11c0 68 44 126 88 159c23 17 49 29 78 36l-29 170c-21 -13 -52 -37 -92 -73c-50 -44 -86 -84 -109 -119c-45 -69 -67 -130 -67 -182v-13c5 -68 35 -127 93 -176 s125 -73 203 -73c25 0 50 3 75 9c-19 111 -36 221 -54 331z" />
      </symbol>
      <symbol id="E081-hr5skw" viewBox="0 0 1000 1000" overflow="inherit">
         <path transform="scale(1,-1)" d="M68 -250v36c23 0 40 6 49 18c8 14 12 33 12 57v250l-82 -129l-27 13l107 255h128v-394c0 -24 5 -42 14 -53s25 -17 47 -17v-36h-248z" />
      </symbol>
      <symbol id="E085-hr5skw" viewBox="0 0 1000 1000" overflow="inherit">
         <path transform="scale(1,-1)" d="M161 38c-14 0 -56 -5 -92 -51h-32l5 263c55 -11 108 -18 158 -18c40 0 85 6 134 17c-8 -52 -39 -114 -159 -114l-50 2c-19 2 -31 4 -49 10l-5 -111c38 26 81 39 129 39c94 0 177 -64 177 -159c0 -100 -98 -166 -211 -166c-88 0 -146 53 -146 115c0 53 39 83 75 83 c37 0 69 -32 69 -72c0 -4 -1 -10 -4 -18l-27 -37c-2 -3 -3 -8 -3 -14c0 -15 12 -23 36 -23c74 0 92 77 92 132s-35 122 -97 122z" />
      </symbol>
      <symbol id="E086-hr5skw" viewBox="0 0 1000 1000" overflow="inherit">
         <path transform="scale(1,-1)" d="M284 -91c0 37 -28 92 -67 92c-35 0 -65 -54 -65 -111c0 -52 22 -104 68 -104c47 0 64 68 64 123zM230 214c-36 0 -90 -33 -90 -184l2 -36c40 24 81 36 120 36c80 0 140 -48 140 -121c0 -99 -99 -159 -182 -159c-160 0 -200 173 -200 244c0 21 2 43 7 71l10 35 c26 85 73 115 98 126c41 19 74 24 103 24c93 0 142 -63 142 -105c0 -58 -52 -72 -73 -72c-33 0 -59 24 -65 35c-3 5 -6 14 -7 25l11 30c6 15 9 27 9 35c0 11 -9 16 -25 16z" />
      </symbol>
      <symbol id="E088-hr5skw" viewBox="0 0 1000 1000" overflow="inherit">
         <path transform="scale(1,-1)" d="M195 -214c76 0 88 58 90 68c0 34 -35 60 -57 73l-52 29c-21 10 -32 17 -34 20c-39 -33 -58 -54 -62 -92c5 -23 23 -98 115 -98zM301 135c0 61 -72 76 -113 76c-40 0 -77 -17 -77 -51c3 -21 15 -38 26 -50c17 -15 33 -26 48 -34l65 -28c34 27 51 56 51 87zM176 -250 c-57 0 -166 26 -166 132c0 47 30 86 89 116c-33 15 -79 60 -79 119c0 79 85 132 178 132h18c5 0 21 1 28 -1c25 0 126 -30 126 -110c0 -37 -23 -76 -69 -116c43 -25 83 -71 83 -119c0 -101 -118 -153 -208 -153z" />
      </symbol>
      <symbol id="E0A4-hr5skw" viewBox="0 0 1000 1000" overflow="inherit">
         <path transform="scale(1,-1)" d="M0 -39c0 68 73 172 200 172c66 0 114 -37 114 -95c0 -84 -106 -171 -218 -171c-64 0 -96 30 -96 94z" />
      </symbol>
      <symbol id="E240-hr5skw" viewBox="0 0 1000 1000" overflow="inherit">
         <path transform="scale(1,-1)" d="M179 -646c15 29 29 55 46 102c18 49 30 108 30 138c0 105 -80 173 -168 200c-18 5 -47 9 -87 16v190h22c8 0 33 -61 71 -95c4 -3 -2 3 61 -56c62 -58 122 -137 122 -241c0 -38 -13 -106 -35 -163c-20 -51 -43 -99 -66 -132c-6 -5 -10 -7 -13 -7s-5 2 -5 5l4 10 c1 3 14 25 18 33z" />
      </symbol>
      <symbol id="E241-hr5skw" viewBox="0 0 1000 1000" overflow="inherit">
         <path transform="scale(1,-1)" d="M179 646c-4 8 -17 30 -18 33l-4 10c0 3 2 5 5 5s7 -2 13 -7c23 -33 46 -81 66 -132c22 -57 35 -125 35 -163c0 -104 -60 -183 -122 -241c-63 -59 -57 -53 -61 -56c-38 -34 -63 -95 -71 -95h-22v190c40 7 69 11 87 16c88 27 168 95 168 200c0 30 -12 89 -30 138 c-17 47 -31 73 -46 102z" />
      </symbol>
   </defs>
   <style type="text/css">g.page-margin{font-family:Times;} g.ending, g.fing, g.reh, g.tempo{font-weight:bold;} g.dir, g.dynam, g.mNum{font-style:italic;} g.label{font-weight:normal;}</style>
   <svg class="definition-scale" color="black" viewBox="0 0 21000 29700">
      <g class="page-margin" transform="translate(500, 500)">
         <g id="m16aqo1q" class="mdiv pageMilestone" />
         <g id="s1vb7f6e" class="score pageMilestone" />
         <g id="s17olq8f" class="system">
            <g id="l1irx56i" class="label">
               <text x="1105" y="1535" text-anchor="end" font-size="0px">
                  <tspan id="tbemmi1" class="text">
                     <tspan font-size="405px" class="text">Piano</tspan>
                  </tspan>
               </text>
            </g>
            <g id="s1pxx9s6" class="section systemMilestone" />
            <g id="pdrah7w" class="pb" />
            <g id="my05l7s" class="measure">
               <g id="mxvx9sl" class="mNum">
                  <text x="1285" y="842" text-anchor="middle" font-size="0px" />
               </g>
               <g id="s13q2gxj" class="staff">
                  <path d="M1285 1085 L3520 1085" stroke="currentColor" stroke-width="13" />
                  <path d="M1285 1265 L3520 1265" stroke="currentColor" stroke-width="13" />
                  <path d="M1285 1445 L3520 1445" stroke="currentColor" stroke-width="13" />
                  <path d="M1285 1625 L3520 1625" stroke="currentColor" stroke-width="13" />
                  <path d="M1285 1805 L3520 1805" stroke="currentColor" stroke-width="13" />
                  <g id="c1jg1meq" class="clef">
                     <use xlink:href="#E050-hr5skw" x="1375" y="1625" height="720px" width="720px" />
                  </g>
                  <g id="k851es8" class="keySig">
                     <g id="krq3hv7" class="keyAccid">
                        <use xlink:href="#E262-hr5skw" x="2020" y="1085" height="720px" width="720px" />
                     </g>
                  </g>
                  <g id="m9fn5il" class="meterSig">
                     <use xlink:href="#E086-hr5skw" x="2327" y="1265" height="720px" width="720px" />
                     <use xlink:href="#E088-hr5skw" x="2334" y="1625" height="720px" width="720px" />
                  </g>
                  <g id="l1gzrk8j" class="layer">
                     <g id="n1d8qqsa" class="note">
                        <g class="notehead">
                           <use xlink:href="#E0A4-hr5skw" x="2884" y="1265" height="720px" width="720px" />
                        </g>
                        <g id="szwxe6l" class="stem">
                           <rect x="2884" y="1293" height="602" width="18" />
                           <g id="f15bim01" class="flag">
                              <use xlink:href="#E241-hr5skw" x="2884" y="1895" height="720px" width="720px" />
                           </g>
                        </g>
                     </g>
                  </g>
               </g>
               <g id="besdmqp" class="barLine">
                  <path d="M3507 1085 L3507 1805" stroke="currentColor" stroke-width="27" />
               </g>
            </g>
            <g id="mgyn41b" class="measure">
               <g id="syplrtv" class="staff">
                  <path d="M3520 1085 L6866 1085" stroke="currentColor" stroke-width="13" />
                  <path d="M3520 1265 L6866 1265" stroke="currentColor" stroke-width="13" />
                  <path d="M3520 1445 L6866 1445" stroke="currentColor" stroke-width="13" />
                  <path d="M3520 1625 L6866 1625" stroke="currentColor" stroke-width="13" />
                  <path d="M3520 1805 L6866 1805" stroke="currentColor" stroke-width="13" />
                  <g id="l1bfn77a" class="layer">
                     <g id="n4bx5r6" class="note">
                        <g class="notehead">
                           <use xlink:href="#E0A4-hr5skw" x="3698" y="1625" height="720px" width="720px" />
                        </g>
                        <g id="s1io9t2l" class="stem">
                           <rect x="3906" y="995" height="602" width="18" />
                        </g>
                     </g>
                     <g id="n1k3qfbg" class="note">
                        <g class="notehead">
                           <use xlink:href="#E0A4-hr5skw" x="4653" y="1535" height="720px" width="720px" />
                        </g>
                        <g id="s13prycj" class="stem">
                           <rect x="4861" y="905" height="602" width="18" />
                           <g id="f3vnm86" class="flag">
                              <use xlink:href="#E240-hr5skw" x="4861" y="905" height="720px" width="720px" />
                           </g>
                        </g>
                     </g>
                     <g id="n1uvnh5f" class="note">
                        <g class="notehead">
                           <use xlink:href="#E0A4-hr5skw" x="5276" y="1445" height="720px" width="720px" />
                        </g>
                        <g id="smm07tr" class="stem">
                           <rect x="5276" y="1473" height="572" width="18" />
                        </g>
                     </g>
                     <g id="n25mko6" class="note">
                        <g class="notehead">
                           <use xlink:href="#E0A4-hr5skw" x="6230" y="1355" height="720px" width="720px" />
                        </g>
                        <g id="sz3wvft" class="stem">
                           <rect x="6230" y="1383" height="602" width="18" />
                           <g id="foln1pe" class="flag">
                              <use xlink:href="#E241-hr5skw" x="6230" y="1985" height="720px" width="720px" />
                           </g>
                        </g>
                     </g>
                  </g>
               </g>
               <g id="brutg8x" class="barLine">
                  <path d="M6853 1085 L6853 1805" stroke="currentColor" stroke-width="27" />
               </g>
            </g>
            <g id="m1c2ahy" class="measure">
               <g id="s1jgzwv8" class="staff">
                  <path d="M6866 1085 L10144 1085" stroke="currentColor" stroke-width="13" />
                  <path d="M6866 1265 L10144 1265" stroke="currentColor" stroke-width="13" />
                  <path d="M6866 1445 L10144 1445" stroke="currentColor" stroke-width="13" />
                  <path d="M6866 1625 L10144 1625" stroke="currentColor" stroke-width="13" />
                  <path d="M6866 1805 L10144 1805" stroke="currentColor" stroke-width="13" />
                  <g id="l1ffk5ng" class="layer">
                     <g id="nox9bca" class="note">
                        <g class="notehead">
                           <use xlink:href="#E0A4-hr5skw" x="7044" y="1265" height="720px" width="720px" />
                        </g>
                        <g id="d1kic0az" class="dots">
                           <ellipse cx="7360" cy="1175" rx="36" ry="36" />
                        </g>
                        <g id="simlx6j" class="stem">
                           <rect x="7044" y="1293" height="602" width="18" />
                        </g>
                     </g>
                     <g id="bx5uqnb" class="beam">
                        <polygon points="8262,2075 9526,1895 9526,1805 8262,1985" />
                        <g id="n1fhiq0v" class="note">
                           <g class="notehead">
                              <use xlink:href="#E0A4-hr5skw" x="8262" y="1535" height="720px" width="720px" />
                           </g>
                           <g id="sn8mdjo" class="stem">
                              <rect x="8262" y="1563" height="494" width="18" />
                           </g>
                        </g>
                        <g id="nwkfklv" class="note">
                           <g class="notehead">
                              <use xlink:href="#E0A4-hr5skw" x="8885" y="1445" height="720px" width="720px" />
                           </g>
                           <g id="sgaxvfw" class="stem">
                              <rect x="8885" y="1473" height="494" width="18" />
                           </g>
                        </g>
                        <g id="nm0auol" class="note">
                           <g class="notehead">
                              <use xlink:href="#E0A4-hr5skw" x="9508" y="1355" height="720px" width="720px" />
                           </g>
                           <g id="s1k0zge7" class="stem">
                              <rect x="9508" y="1383" height="494" width="18" />
                           </g>
                        </g>
                     </g>
                  </g>
               </g>
               <g id="b1cpgr8j" class="barLine">
                  <path d="M10131 1085 L10131 1805" stroke="currentColor" stroke-width="27" />
               </g>
            </g>
            <g id="m1sy222n" class="measure">
               <g id="s1pgu0vy" class="staff">
                  <path d="M10144 1085 L14073 1085" stroke="currentColor" stroke-width="13" />
                  <path d="M10144 1265 L14073 1265" stroke="currentColor" stroke-width="13" />
                  <path d="M10144 1445 L14073 1445" stroke="currentColor" stroke-width="13" />
                  <path d="M10144 1625 L14073 1625" stroke="currentColor" stroke-width="13" />
                  <path d="M10144 1805 L14073 1805" stroke="currentColor" stroke-width="13" />
                  <g id="lnpx9m8" class="layer">
                     <g id="byhcww9" class="beam">
                        <polygon points="10322,1850 11586,2030 11586,1940 10322,1760" />
                        <g id="nfxz46u" class="note">
                           <g class="notehead">
                              <use xlink:href="#E0A4-hr5skw" x="10322" y="1265" height="720px" width="720px" />
                           </g>
                           <g id="s10x5hv4" class="stem">
                              <rect x="10322" y="1293" height="539" width="18" />
                           </g>
                        </g>
                        <g id="nu1he63" class="note">
                           <g class="notehead">
                              <use xlink:href="#E0A4-hr5skw" x="10945" y="1355" height="720px" width="720px" />
                           </g>
                           <g id="ssf48e" class="stem">
                              <rect x="10945" y="1383" height="539" width="18" />
                           </g>
                        </g>
                        <g id="nub0ojj" class="note">
                           <g class="notehead">
                              <use xlink:href="#E0A4-hr5skw" x="11568" y="1445" height="720px" width="720px" />
                           </g>
                           <g id="sxpue6u" class="stem">
                              <rect x="11568" y="1473" height="539" width="18" />
                           </g>
                        </g>
                     </g>
                     <g id="bah3ogi" class="beam">
                        <polygon points="12191,2075 13455,1895 13455,1805 12191,1985" />
                        <g id="n1uz5baz" class="note">
                           <g class="notehead">
                              <use xlink:href="#E0A4-hr5skw" x="12191" y="1535" height="720px" width="720px" />
                           </g>
                           <g id="s1giznax" class="stem">
                              <rect x="12191" y="1563" height="494" width="18" />
                           </g>
                        </g>
                        <g id="n55x762" class="note">
                           <g class="notehead">
                              <use xlink:href="#E0A4-hr5skw" x="12814" y="1445" height="720px" width="720px" />
                           </g>
                           <g id="slcsm27" class="stem">
                              <rect x="12814" y="1473" height="494" width="18" />
                           </g>
                        </g>
                        <g id="n1w00a8d" class="note">
                           <g class="notehead">
                              <use xlink:href="#E0A4-hr5skw" x="13437" y="1355" height="720px" width="720px" />
                           </g>
                           <g id="sdcmynd" class="stem">
                              <rect x="13437" y="1383" height="494" width="18" />
                           </g>
                        </g>
                     </g>
                  </g>
               </g>
               <g id="b185popr" class="barLine">
                  <path d="M14060 1085 L14060 1805" stroke="currentColor" stroke-width="27" />
               </g>
            </g>
            <g id="m1oe325j" class="measure">
               <g id="s1jcqp6h" class="staff">
                  <path d="M14073 1085 L17699 1085" stroke="currentColor" stroke-width="13" />
                  <path d="M14073 1265 L17699 1265" stroke="currentColor" stroke-width="13" />
                  <path d="M14073 1445 L17699 1445" stroke="currentColor" stroke-width="13" />
                  <path d="M14073 1625 L17699 1625" stroke="currentColor" stroke-width="13" />
                  <path d="M14073 1805 L17699 1805" stroke="currentColor" stroke-width="13" />
                  <g id="m1pd6hs1" class="meterSig">
                     <use xlink:href="#E085-hr5skw" x="14158" y="1265" height="720px" width="720px" />
                     <use xlink:href="#E088-hr5skw" x="14156" y="1625" height="720px" width="720px" />
                  </g>
                  <g id="l1lx15az" class="layer">
                     <g id="b45tv0c" class="beam">
                        <polygon points="14700,1850 15964,2030 15964,1940 14700,1760" />
                        <g id="n1v2u2z9" class="note">
                           <g class="notehead">
                              <use xlink:href="#E0A4-hr5skw" x="14700" y="1265" height="720px" width="720px" />
                           </g>
                           <g id="s1rdp97q" class="stem">
                              <rect x="14700" y="1293" height="539" width="18" />
                           </g>
                        </g>
                        <g id="nbdc02g" class="note">
                           <g class="notehead">
                              <use xlink:href="#E0A4-hr5skw" x="15323" y="1355" height="720px" width="720px" />
                           </g>
                           <g id="sn6y9wb" class="stem">
                              <rect x="15323" y="1383" height="539" width="18" />
                           </g>
                        </g>
                        <g id="n1hacrb" class="note">
                           <g class="notehead">
                              <use xlink:href="#E0A4-hr5skw" x="15946" y="1445" height="720px" width="720px" />
                           </g>
                           <g id="s1i1mnjq" class="stem">
                              <rect x="15946" y="1473" height="539" width="18" />
                           </g>
                        </g>
                     </g>
                     <g id="nyjr2w4" class="note">
                        <g class="notehead">
                           <use xlink:href="#E0A4-hr5skw" x="16569" y="1535" height="720px" width="720px" />
                        </g>
                        <g id="s17y8xgv" class="stem">
                           <rect x="16777" y="905" height="602" width="18" />
                        </g>
                     </g>
                  </g>
               </g>
               <g id="b1grjzwf" class="barLine">
                  <path d="M17524 1085 L17524 1805" stroke="currentColor" stroke-width="27" />
                  <path d="M17654 1085 L17654 1805" stroke="currentColor" stroke-width="90" />
                  <use xlink:href="#E044-hr5skw" x="17407" y="1355" height="720px" width="720px" />
                  <use xlink:href="#E044-hr5skw" x="17407" y="1535" height="720px" width="720px" />
               </g>
            </g>
            <g id="mi2isag" class="measure">
               <g id="s84jfe5" class="staff">
                  <path d="M17699 1085 L20003 1085" stroke="currentColor" stroke-width="13" />
                  <path d="M17699 1265 L20003 1265" stroke="currentColor" stroke-width="13" />
                  <path d="M17699 1445 L20003 1445" stroke="currentColor" stroke-width="13" />
                  <path d="M17699 1625 L20003 1625" stroke="currentColor" stroke-width="13" />
                  <path d="M17699 1805 L20003 1805" stroke="currentColor" stroke-width="13" />
                  <g id="m11gg51t" class="meterSig">
                     <use xlink:href="#E081-hr5skw" x="17806" y="1265" height="720px" width="720px" />
                     <use xlink:href="#E088-hr5skw" x="17782" y="1625" height="720px" width="720px" />
                  </g>
                  <g id="l1adc2c9" class="layer">
                     <g id="bsvwxs7" class="beam">
                        <polygon points="18914,770 19347,815 19347,905 18914,860" />
                        <polygon points="18914,905 19347,950 19347,1040 18914,995" />
                        <g id="nesl7ce" class="note">
                           <g class="notehead">
                              <use xlink:href="#E0A4-hr5skw" x="18706" y="1445" height="720px" width="720px" />
                           </g>
                           <g id="spc82rb" class="stem">
                              <rect x="18914" y="788" height="629" width="18" />
                           </g>
                        </g>
                        <g id="n1ytjcrw" class="note">
                           <g class="notehead">
                              <use xlink:href="#E0A4-hr5skw" x="19121" y="1625" height="720px" width="720px" />
                           </g>
                           <g id="s1ye8ve3" class="stem">
                              <rect x="19329" y="833" height="764" width="18" />
                           </g>
                        </g>
                     </g>
                  </g>
                  <g id="m85wlly" class="meterSig">
                     <use xlink:href="#E086-hr5skw" x="19624" y="1265" height="720px" width="720px" />
                     <use xlink:href="#E088-hr5skw" x="19631" y="1625" height="720px" width="720px" />
                  </g>
               </g>
               <g id="b49rtpe" class="barLine">
                  <path d="M18283 1085 L18283 1805" stroke="currentColor" stroke-width="90" />
                  <path d="M18413 1085 L18413 1805" stroke="currentColor" stroke-width="27" />
                  <use xlink:href="#E044-hr5skw" x="18459" y="1355" height="720px" width="720px" />
                  <use xlink:href="#E044-hr5skw" x="18459" y="1535" height="720px" width="720px" />
               </g>
               <g id="bobhy75" class="barLine">
                  <path d="M19535 1085 L19535 1805" stroke="currentColor" stroke-width="27" />
               </g>
            </g>
         </g>
         <g id="s16v027r" class="system">
            <g id="l1oh9okx" class="labelAbbr">
               <text x="914" y="3884" text-anchor="end" font-size="0px">
                  <tspan id="t1xq9vhj" class="text">
                     <tspan font-size="405px" class="text">Pno.</tspan>
                  </tspan>
               </text>
            </g>
            <g id="m5gmy4p" class="measure">
               <g id="mcngdn4" class="mNum autogenerated">
                  <text x="1094" y="3191" text-anchor="middle" font-size="0px">
                     <tspan id="ttwoobd" class="text">
                        <tspan font-size="324px" class="text">6</tspan>
                     </tspan>
                  </text>
               </g>
               <g id="s1t0z7dg" class="staff">
                  <path d="M1094 3434 L6995 3434" stroke="currentColor" stroke-width="13" />
                  <path d="M1094 3614 L6995 3614" stroke="currentColor" stroke-width="13" />
                  <path d="M1094 3794 L6995 3794" stroke="currentColor" stroke-width="13" />
                  <path d="M1094 3974 L6995 3974" stroke="currentColor" stroke-width="13" />
                  <path d="M1094 4154 L6995 4154" stroke="currentColor" stroke-width="13" />
                  <g id="c1fd3xma" class="clef">
                     <use xlink:href="#E050-hr5skw" x="1184" y="3974" height="720px" width="720px" />
                  </g>
                  <g id="k1o5fgvc" class="keySig">
                     <g id="kkwdo63" class="keyAccid">
                        <use xlink:href="#E262-hr5skw" x="1829" y="3434" height="720px" width="720px" />
                     </g>
                  </g>
                  <g id="mo3bvax" class="meterSig">
                     <use xlink:href="#E086-hr5skw" x="2136" y="3614" height="720px" width="720px" />
                     <use xlink:href="#E088-hr5skw" x="2143" y="3974" height="720px" width="720px" />
                  </g>
                  <g id="lqpmpmw" class="layer">
                     <g id="b18b6bh" class="beam">
                        <polygon points="2926,3299 4365,3209 4365,3299 2926,3389" />
                        <g id="n1j0n4gy" class="note">
                           <g class="notehead">
                              <use xlink:href="#E0A4-hr5skw" x="2718" y="3884" height="720px" width="720px" />
                           </g>
                           <g id="s1hi1bn8" class="stem">
                              <rect x="2926" y="3317" height="539" width="18" />
                           </g>
                        </g>
                        <g id="n4k0ckh" class="note">
                           <g class="notehead">
                              <use xlink:href="#E0A4-hr5skw" x="3429" y="3884" height="720px" width="720px" />
                           </g>
                           <g id="spr0c7f" class="stem">
                              <rect x="3637" y="3272" height="584" width="18" />
                           </g>
                        </g>
                        <g id="n1abxllx" class="note">
                           <g class="notehead">
                              <use xlink:href="#E0A4-hr5skw" x="4139" y="3794" height="720px" width="720px" />
                           </g>
                           <g id="s1lm88yw" class="stem">
                              <rect x="4347" y="3227" height="539" width="18" />
                           </g>
                        </g>
                     </g>
                     <g id="b1b3ayz5" class="beam">
                        <polygon points="5058,3209 6497,3209 6497,3299 5058,3299" />
                        <g id="n98c2f3" class="note">
                           <g class="notehead">
                              <use xlink:href="#E0A4-hr5skw" x="4850" y="3884" height="720px" width="720px" />
                           </g>
                           <g id="s8mipc4" class="stem">
                              <rect x="5058" y="3227" height="629" width="18" />
                           </g>
                        </g>
                        <g id="no1qfj7" class="note">
                           <g class="notehead">
                              <use xlink:href="#E0A4-hr5skw" x="5561" y="3794" height="720px" width="720px" />
                           </g>
                           <g id="s18snunc" class="stem">
                              <rect x="5769" y="3227" height="539" width="18" />
                           </g>
                        </g>
                        <g id="n1ap8q3q" class="note">
                           <g class="notehead">
                              <use xlink:href="#E0A4-hr5skw" x="6271" y="3974" height="720px" width="720px" />
                           </g>
                           <g id="s4a22az" class="stem">
                              <rect x="6479" y="3227" height="719" width="18" />
                           </g>
                        </g>
                     </g>
                  </g>
               </g>
               <g id="b1qkcwhs" class="barLine">
                  <path d="M6982 3434 L6982 4154" stroke="currentColor" stroke-width="27" />
               </g>
            </g>
            <g id="m1mszn0h" class="measure">
               <g id="sd3szzo" class="staff">
                  <path d="M6995 3434 L11475 3434" stroke="currentColor" stroke-width="13" />
                  <path d="M6995 3614 L11475 3614" stroke="currentColor" stroke-width="13" />
                  <path d="M6995 3794 L11475 3794" stroke="currentColor" stroke-width="13" />
                  <path d="M6995 3974 L11475 3974" stroke="currentColor" stroke-width="13" />
                  <path d="M6995 4154 L11475 4154" stroke="currentColor" stroke-width="13" />
                  <g id="l1wes3yp" class="layer">
                     <g id="b17knzsf" class="beam">
                        <polygon points="7406,3209 8845,3209 8845,3299 7406,3299" />
                        <g id="n1yusm17" class="note">
                           <g class="notehead">
                              <use xlink:href="#E0A4-hr5skw" x="7198" y="3884" height="720px" width="720px" />
                           </g>
                           <g id="s168kak3" class="stem">
                              <rect x="7406" y="3227" height="629" width="18" />
                           </g>
                        </g>
                        <g id="nvy9aki" class="note">
                           <g class="notehead">
                              <use xlink:href="#E0A4-hr5skw" x="7909" y="3794" height="720px" width="720px" />
                           </g>
                           <g id="sz35eu9" class="stem">
                              <rect x="8117" y="3227" height="539" width="18" />
                           </g>
                        </g>
                        <g id="nm8v678" class="note">
                           <g class="notehead">
                              <use xlink:href="#E0A4-hr5skw" x="8619" y="3884" height="720px" width="720px" />
                           </g>
                           <g id="s1eecm1s" class="stem">
                              <rect x="8827" y="3227" height="629" width="18" />
                           </g>
                        </g>
                     </g>
                     <g id="b7hltv" class="beam">
                        <polygon points="9538,3389 10977,3389 10977,3479 9538,3479" />
                        <g id="n12upy3r" class="note">
                           <g class="notehead">
                              <use xlink:href="#E0A4-hr5skw" x="9330" y="3974" height="720px" width="720px" />
                           </g>
                           <g id="s17xkbzg" class="stem">
                              <rect x="9538" y="3407" height="539" width="18" />
                           </g>
                        </g>
                        <g id="niyou48" class="note">
                           <g class="notehead">
                              <use xlink:href="#E0A4-hr5skw" x="10041" y="4064" height="720px" width="720px" />
                           </g>
                           <g id="spdbaie" class="stem">
                              <rect x="10249" y="3407" height="629" width="18" />
                           </g>
                           <g id="a1pngv6l" class="accid" />
                        </g>
                        <g id="n1uw0wyb" class="note">
                           <g class="notehead">
                              <use xlink:href="#E0A4-hr5skw" x="10751" y="3974" height="720px" width="720px" />
                           </g>
                           <g id="s5g2jxl" class="stem">
                              <rect x="10959" y="3407" height="539" width="18" />
                           </g>
                        </g>
                     </g>
                  </g>
               </g>
               <g id="bjq88zu" class="barLine">
                  <path d="M11462 3434 L11462 4154" stroke="currentColor" stroke-width="27" />
               </g>
            </g>
            <g id="sgrrkno" class="sb" />
            <g id="m1h9avpl" class="measure">
               <g id="s1fv9wvg" class="staff">
                  <path d="M11475 3434 L15955 3434" stroke="currentColor" stroke-width="13" />
                  <path d="M11475 3614 L15955 3614" stroke="currentColor" stroke-width="13" />
                  <path d="M11475 3794 L15955 3794" stroke="currentColor" stroke-width="13" />
                  <path d="M11475 3974 L15955 3974" stroke="currentColor" stroke-width="13" />
                  <path d="M11475 4154 L15955 4154" stroke="currentColor" stroke-width="13" />
                  <g id="ltk3nb0" class="layer">
                     <g id="b1yrss09" class="beam">
                        <polygon points="11886,3299 13325,3209 13325,3299 11886,3389" />
                        <g id="nuikwkx" class="note">
                           <g class="notehead">
                              <use xlink:href="#E0A4-hr5skw" x="11678" y="3884" height="720px" width="720px" />
                           </g>
                           <g id="s1c277zk" class="stem">
                              <rect x="11886" y="3317" height="539" width="18" />
                           </g>
                        </g>
                        <g id="n1gxk1ff" class="note">
                           <g class="notehead">
                              <use xlink:href="#E0A4-hr5skw" x="12389" y="3884" height="720px" width="720px" />
                           </g>
                           <g id="s213m96" class="stem">
                              <rect x="12597" y="3272" height="584" width="18" />
                           </g>
                        </g>
                        <g id="n1wxn81b" class="note">
                           <g class="notehead">
                              <use xlink:href="#E0A4-hr5skw" x="13099" y="3794" height="720px" width="720px" />
                           </g>
                           <g id="shsqwon" class="stem">
                              <rect x="13307" y="3227" height="539" width="18" />
                           </g>
                        </g>
                     </g>
                     <g id="bq3pw4x" class="beam">
                        <polygon points="14018,3209 15457,3209 15457,3299 14018,3299" />
                        <g id="n1mlcrtw" class="note">
                           <g class="notehead">
                              <use xlink:href="#E0A4-hr5skw" x="13810" y="3884" height="720px" width="720px" />
                           </g>
                           <g id="s1sd00ju" class="stem">
                              <rect x="14018" y="3227" height="629" width="18" />
                           </g>
                        </g>
                        <g id="n2e57c4" class="note">
                           <g class="notehead">
                              <use xlink:href="#E0A4-hr5skw" x="14521" y="3794" height="720px" width="720px" />
                           </g>
                           <g id="s1vorqt5" class="stem">
                              <rect x="14729" y="3227" height="539" width="18" />
                           </g>
                        </g>
                        <g id="ndtkkpw" class="note">
                           <g class="notehead">
                              <use xlink:href="#E0A4-hr5skw" x="15231" y="3974" height="720px" width="720px" />
                           </g>
                           <g id="shg45e2" class="stem">
                              <rect x="15439" y="3227" height="719" width="18" />
                           </g>
                        </g>
                     </g>
                  </g>
               </g>
               <g id="bid1s19" class="barLine">
                  <path d="M15942 3434 L15942 4154" stroke="currentColor" stroke-width="27" />
               </g>
            </g>
            <g id="mt4lmc2" class="measure">
               <g id="s14iviqi" class="staff">
                  <path d="M15955 3434 L20003 3434" stroke="currentColor" stroke-width="13" />
                  <path d="M15955 3614 L20003 3614" stroke="currentColor" stroke-width="13" />
                  <path d="M15955 3794 L20003 3794" stroke="currentColor" stroke-width="13" />
                  <path d="M15955 3974 L20003 3974" stroke="currentColor" stroke-width="13" />
                  <path d="M15955 4154 L20003 4154" stroke="currentColor" stroke-width="13" />
                  <g id="mrzjdag" class="meterSig">
                     <use xlink:href="#E085-hr5skw" x="16040" y="3614" height="720px" width="720px" />
                     <use xlink:href="#E088-hr5skw" x="16038" y="3974" height="720px" width="720px" />
                  </g>
                  <g id="l11cb1lj" class="layer">
                     <g id="bvvk5mf" class="beam">
                        <polygon points="16815,3209 18254,3209 18254,3299 16815,3299" />
                        <g id="n1knl6cb" class="note">
                           <g class="notehead">
                              <use xlink:href="#E0A4-hr5skw" x="16607" y="3884" height="720px" width="720px" />
                           </g>
                           <g id="s9jerg1" class="stem">
                              <rect x="16815" y="3227" height="629" width="18" />
                           </g>
                        </g>
                        <g id="n14vmeg3" class="note">
                           <g class="notehead">
                              <use xlink:href="#E0A4-hr5skw" x="17318" y="3794" height="720px" width="720px" />
                           </g>
                           <g id="s6qsmgw" class="stem">
                              <rect x="17526" y="3227" height="539" width="18" />
                           </g>
                        </g>
                        <g id="nfskufg" class="note">
                           <g class="notehead">
                              <use xlink:href="#E0A4-hr5skw" x="18028" y="3884" height="720px" width="720px" />
                           </g>
                           <g id="s1geuy8u" class="stem">
                              <rect x="18236" y="3227" height="629" width="18" />
                           </g>
                        </g>
                     </g>
                     <g id="n4dkf5p" class="note">
                        <g class="notehead">
                           <use xlink:href="#E0A4-hr5skw" x="18739" y="3974" height="720px" width="720px" />
                        </g>
                        <g id="snhcc9m" class="stem">
                           <rect x="18947" y="3344" height="602" width="18" />
                        </g>
                     </g>
                  </g>
               </g>
               <g id="betnhvl" class="barLine">
                  <path d="M19828 3434 L19828 4154" stroke="currentColor" stroke-width="27" />
                  <path d="M19958 3434 L19958 4154" stroke="currentColor" stroke-width="90" />
               </g>
            </g>
            <g id="s1xez20j" class="systemMilestoneEnd s1pxx9s6" />
         </g>
         <g id="p1bvzf23" class="pageMilestoneEnd s1vb7f6e" />
         <g id="ph7jlgz" class="pageMilestoneEnd m16aqo1q" />
         <g id="p2o9rba" class="pgHead">
            <text x="0" y="0" font-size="0px">
               <tspan id="r1t98hwq" class="rend" x="10000" y="277" text-anchor="middle">
                  <tspan id="t1pi4q69" class="text">
                     <tspan font-size="405px" class="text">Air n 9</tspan>
                  </tspan>
               </tspan>
            </text>
         </g>
         <g id="poir0xh" class="pgFoot autogenerated">
            <g id="f1ra8izk" class="fig">
               <g id="se3u7d2" class="svg" transform="translate(7750, 28099) scale(10, 10)">
                  <g>
                     <path fill="#00000" d="M 17.11278,49.26451 V 10.367554 h 12.696511 c 3.288815,7.336676 6.71267,14.610456 10.127281,21.888976 3.419998,-7.484684 6.255515,-14.204887 9.58887,-21.909915 2.436207,0.103726 4.316952,0.08453 6.484294,-0.05808 V 49.264423 H 50.274275 C 50.145222,38.35639 50.016136,27.448368 49.887066,16.540329 45.003488,27.315459 39.967448,38.433564 35.083854,49.208695 34.678996,49.343717 34.426583,49.135619 34.021726,49.270644 29.46588,39.330716 24.910049,29.390805 20.354201,19.450876 20.224341,29.388756 20.09461,39.326619 19.964815,49.264497 H 17.11278 Z M 36.754144,39.324695 C 32.721221,30.512695 28.6883,21.700679 24.655394,12.888662 22.530527,12.750737 22.656775,12.71031 20.714356,12.813974 v 0.966497 c 4.612938,9.99784 9.609439,20.748709 13.87298,30.081745 0.722248,-1.512523 1.444528,-3.025014 2.166808,-4.537521 z m 25.738417,9.939815 c 0,-12.965651 0,-25.931305 0,-38.896956 10.084388,0 20.168791,0 30.253178,0 0,0.960416 0,1.920849 0,2.881265 -6.482825,0 -12.965652,0 -19.448478,0 0,4.802097 0,9.604178 0,14.406277 5.52241,0 11.044819,0 16.567229,0 0,0.960415 0,1.920832 0,2.881248 -5.52241,0 -11.044819,0 -16.567229,0 0,5.282306 0,10.564611 0,15.846917 6.963035,0 13.926068,0 20.889103,0 0,0.960416 0,1.920832 0,2.881249 -10.564597,0 -21.129207,0 -31.693803,0 z m 4.321874,-2.160937 c 0,-11.765131 0,-23.530263 0,-35.295394 -0.720312,0 -1.440625,0 -2.160937,0 0,11.765131 0,23.530263 0,35.295394 0.720312,0 1.440625,0 2.160937,0 z m 32.41413,2.160937 c 0,-12.965651 0,-25.931305 0,-38.896956 2.401045,0 4.802095,0 7.203135,0 0,12.965651 0,25.931305 0,38.896956 -2.40104,0 -4.80209,0 -7.203135,0 z m 2.881265,-2.160937 c 0,-11.765131 0,-23.530263 0,-35.295394 -0.72031,0 -1.44064,0 -2.160953,0 0,11.765131 0,23.530263 0,35.295394 0.720313,0 1.440643,0 2.160953,0 z" />
                     <path fill="#00000" d="m 346.3,6.7 c -3.1,0.5 -4.9,4.4 -2.7,6.8 1.2,1.4 2.7,2.4 4.1,3.5 -2.4,5.3 -7.7,8.3 -11.9,12.1 -3.7,2.8 -7,6.2 -9.7,9.9 -2.2,-0.8 -0.3,-6.8 -0.6,-9.5 0.1,-3.1 0.7,-6.4 2.9,-8.7 1.3,-1.9 3,-3.5 4.5,-5.2 1.2,-3.4 -3.2,-4.9 -5.8,-4.6 -7.3,-0.5 -14.6,2 -20,6.8 -5,4.6 -10,10.1 -11.5,17 -0.9,3.5 -0.2,7.5 2.8,9.9 2.5,2.8 7.4,2.9 9.8,-0.2 1.7,-2.3 3.2,-4.8 3.8,-7.6 -0.1,-2.6 -4.4,-2.3 -4.3,0.2 1.2,2.4 -0.9,4.7 -2.7,6.2 -1.7,0.9 -4.7,0.7 -4.8,-1.7 -1,-5.8 2.1,-11.3 5.2,-16.1 4,-5.8 9.8,-11.2 17.2,-11.8 1.6,0 8.1,-1.2 6.8,1.4 -2.8,2.8 -5.6,6.1 -6,10.3 -1.6,7.7 0.1,15.7 -2.3,23.2 -1.1,3.9 2,2.6 2.5,0.2 3.3,-7.4 8.9,-13.4 15.1,-18.5 4.2,-3.9 9.5,-7.1 11.9,-12.6 1.3,-3.6 1.2,-9 -2.7,-10.9 -0.6,-0.2 -1.2,-0.3 -1.8,-0.3 z m 66,14.5 c -2,0.8 -1.8,4.9 0.8,4.4 3.4,0.4 2.9,-6.2 -0.8,-4.4 z m 0.6,7.3 c -1.3,0.5 -7.6,0.5 -5.4,2.2 4,-0.3 0.7,4.5 0.6,6.7 -0.4,2.9 -2.4,5.9 -1.2,8.8 2.7,1.7 5.6,-0.8 6.8,-3.2 1.6,-1.4 -0.5,-3 -1.2,-0.9 -0.4,0.8 -2.4,3.5 -2.6,1.8 1.1,-5 2.7,-9.9 3.9,-14.9 l -0.1,-0.5 h -0.9 z m -65.1,0.2 c -6.5,1.6 -10.5,9.5 -8.2,15.7 2.1,3.4 7.4,2.9 10.1,0.4 2,-0.2 3.6,-5.3 1,-3.4 -1.4,2 -4,4.2 -6.5,2.8 -2.2,-1.9 -1.9,-5.7 1.7,-5.3 3.1,-0.9 6.9,-2.1 8.1,-5.5 0.9,-2.7 -1.6,-5.2 -4.3,-4.8 h -1.1 -0.7 z m 13.6,0 c -2.2,0 -8.5,1.8 -2.9,2.3 0.9,1.9 -1,4.9 -1.1,7.2 -0.5,2.9 -1.4,5.7 -1.7,8.7 3.7,0.7 3.8,-2.6 4.4,-5.3 0.9,-3.3 1.6,-7 4.1,-9.5 2.4,1.6 6.8,-0.7 3.7,-3.4 -2.9,-0.5 -4.8,2.4 -6.2,4.3 0,-1.2 2.4,-5 -0.2,-4.3 z m 15.8,0 c -6.4,1.3 -9.6,9.1 -7.7,14.9 1.9,4 7.7,3.9 11,1.7 4.1,-3 6,-8.9 4.4,-13.7 -1.3,-3 -4.8,-3.2 -7.6,-3 z m 17,0 c -2.3,0 -8.8,1.9 -3,2.4 0.4,2.5 -1,5.7 -1.4,8.4 -0.7,2.4 -1.8,7.5 2.1,7.2 3.8,-0.1 6.5,-3.5 8.5,-6.3 2,-3.2 4.5,-7 3.3,-10.9 -3.7,-3 -3.6,2.6 -3.1,5.1 -0.7,3.8 -2.7,7.9 -6.2,9.8 -3.6,0.6 -1,-4.3 -0.8,-6.1 0.6,-3.2 1.6,-6.3 1.9,-9.5 -0.4,0 -0.8,0 -1.1,0 z m 30.6,0 c -6.3,1.2 -9.5,8.9 -7.8,14.7 1.5,4 7.2,4.2 10.5,2.4 4.6,-2.8 6.6,-9.3 4.8,-14.3 -1.4,-2.8 -4.8,-3 -7.5,-2.8 z m -75.4,1.7 c 2.1,1.5 0.2,4.7 -1.6,5.7 -1.1,0.4 -5.5,3.4 -4.6,0.7 0.8,-2.7 2.2,-6.2 5.3,-6.6 l 0.9,0.1 z m 30.8,0 c 2.6,1.5 1.3,5.2 0.8,7.6 -0.8,2.7 -1.9,5.9 -4.7,7.1 -5.1,0.8 -4,-5.8 -2.8,-8.8 1,-2.8 3,-6.8 6.7,-5.8 z m 47.1,-0.1 c 2.9,0.7 2,4.7 1.5,6.8 -0.7,3 -1.8,6.7 -5,8 -4.7,0.8 -4,-5.1 -3,-7.9 0.9,-3 2.7,-7.3 6.5,-6.8 z m -88.1,5.9 c -0.3,1.3 0.9,-0.6 0,0 z m -1.1,2.4 c -0.2,0.5 0.5,-0.1 0,0 z m -1.3,4.5 c -0.3,1.3 0.8,-0.2 0,0 z" />
                     <text y="41" x="201" fill="#00000" style="font-style:italic;font-weight:normal;font-size:30px;line-height:125%;font-family:Times;text-anchor:middle" xml:space="preserve">engraved with</text>
                  </g>
               </g>
            </g>
         </g>
      </g>
   </svg>
</svg>
